{
	"asset":{
		"generator":"Khronos glTF Blender I/O v4.2.57",
		"version":"2.0"
	},
	"extensionsUsed":[
		"KHR_materials_clearcoat",
		"KHR_materials_emissive_strength"
	],
	"scene":0,
	"scenes":[
		{
			"name":"Scene",
			"nodes":[
				19
			]
		}
	],
	"nodes":[
		{
			"name":"head",
			"rotation":[
				-0.024976573884487152,
				0,
				0,
				0.9996880292892456
			],
			"translation":[
				0,
				0.4004998207092285,
				-1.862645149230957e-08
			]
		},
		{
			"children":[
				0
			],
			"name":"neck",
			"rotation":[
				-0.024852612987160683,
				0,
				0,
				0.9996911287307739
			],
			"translation":[
				0,
				0.5024937987327576,
				-6.705522537231445e-08
			]
		},
		{
			"name":"fl_low.L",
			"rotation":[
				0.5460889339447021,
				0.021993491798639297,
				-0.06737242639064789,
				0.8347240090370178
			],
			"translation":[
				1.862645149230957e-09,
				0.22610650956630707,
				4.842877388000488e-08
			]
		},
		{
			"children":[
				2
			],
			"name":"fl_mid.L",
			"rotation":[
				-0.2343575656414032,
				0.0905456617474556,
				-0.051268320530653,
				0.9665659070014954
			],
			"scale":[
				0.9999998807907104,
				1,
				1
			],
			"translation":[
				6.705522537231445e-08,
				0.22442856431007385,
				-5.960464477539063e-08
			]
		},
		{
			"children":[
				3
			],
			"name":"fl_up.L",
			"rotation":[
				-0.6376892924308777,
				0.00851591769605875,
				0.17074310779571533,
				0.7510836720466614
			],
			"scale":[
				1,
				1.0000001192092896,
				1
			],
			"translation":[
				-0.27549999952316284,
				0.5422952771186829,
				-0.10447900742292404
			]
		},
		{
			"name":"fl_low.R",
			"rotation":[
				0.5460889339447021,
				-0.021993491798639297,
				0.06737242639064789,
				0.8347240090370178
			],
			"translation":[
				-1.862645149230957e-09,
				0.22610650956630707,
				4.842877388000488e-08
			]
		},
		{
			"children":[
				5
			],
			"name":"fl_mid.R",
			"rotation":[
				-0.2343575656414032,
				-0.0905456617474556,
				0.051268320530653,
				0.9665659070014954
			],
			"scale":[
				0.9999998807907104,
				1,
				1
			],
			"translation":[
				-6.705522537231445e-08,
				0.22442856431007385,
				-5.960464477539063e-08
			]
		},
		{
			"children":[
				6
			],
			"name":"fl_up.R",
			"rotation":[
				-0.6376892924308777,
				-0.00851591769605875,
				-0.17074310779571533,
				0.7510836720466614
			],
			"scale":[
				1,
				1.0000001192092896,
				1
			],
			"translation":[
				0.27549999952316284,
				0.5422952771186829,
				-0.10447900742292404
			]
		},
		{
			"children":[
				1,
				4,
				7
			],
			"name":"spine",
			"rotation":[
				0.04981371387839317,
				0,
				0,
				0.9987585544586182
			],
			"scale":[
				1,
				0.9999999403953552,
				1
			],
			"translation":[
				0,
				0.5,
				0
			]
		},
		{
			"name":"tail2",
			"rotation":[
				0.19944360852241516,
				0,
				0,
				0.9799093008041382
			],
			"translation":[
				0,
				0.46097710728645325,
				8.940696716308594e-08
			]
		},
		{
			"children":[
				9
			],
			"name":"tail1",
			"rotation":[
				-0.9940289258956909,
				0,
				0,
				0.10911678522825241
			],
			"scale":[
				1,
				1,
				1.0000005960464478
			],
			"translation":[
				0,
				-0.050000011920928955,
				0
			]
		},
		{
			"name":"bl_low.L",
			"rotation":[
				0.6410732865333557,
				0.044973645359277725,
				-0.08206108957529068,
				0.761753499507904
			],
			"scale":[
				1,
				1,
				0.9999998807907104
			],
			"translation":[
				0,
				0.2969217896461487,
				-3.725290298461914e-09
			]
		},
		{
			"children":[
				11
			],
			"name":"bl_mid.L",
			"rotation":[
				-0.6566516160964966,
				0.11408936977386475,
				0.02196105197072029,
				0.7451912760734558
			],
			"translation":[
				7.450580596923828e-09,
				0.23716533184051514,
				3.725290298461914e-08
			]
		},
		{
			"children":[
				12
			],
			"name":"bl_up.L",
			"rotation":[
				-0.4447403848171234,
				4.2341850026161865e-09,
				0.16773615777492523,
				0.8798128366470337
			],
			"scale":[
				0.9999999403953552,
				1,
				1
			],
			"translation":[
				-0.265500009059906,
				0,
				-0.050000011920928955
			]
		},
		{
			"name":"bl_low.R",
			"rotation":[
				0.6410732865333557,
				-0.044973645359277725,
				0.08206108957529068,
				0.761753499507904
			],
			"scale":[
				1,
				1,
				0.9999998807907104
			],
			"translation":[
				0,
				0.2969217896461487,
				-3.725290298461914e-09
			]
		},
		{
			"children":[
				14
			],
			"name":"bl_mid.R",
			"rotation":[
				-0.6566516160964966,
				-0.11408936977386475,
				-0.02196105197072029,
				0.7451912760734558
			],
			"translation":[
				-7.450580596923828e-09,
				0.23716533184051514,
				3.725290298461914e-08
			]
		},
		{
			"children":[
				15
			],
			"name":"bl_up.R",
			"rotation":[
				-0.4447403848171234,
				-4.2341850026161865e-09,
				-0.16773615777492523,
				0.8798128366470337
			],
			"scale":[
				0.9999999403953552,
				1,
				1
			],
			"translation":[
				0.265500009059906,
				0,
				-0.050000011920928955
			]
		},
		{
			"children":[
				8,
				10,
				13,
				16
			],
			"name":"hips",
			"rotation":[
				-0.7071067690849304,
				0,
				0,
				0.7071067690849304
			],
			"translation":[
				0,
				0.6200000047683716,
				0.550000011920929
			]
		},
		{
			"mesh":0,
			"name":"armorsaurus",
			"skin":0
		},
		{
			"children":[
				18,
				17
			],
			"name":"armorsaurus_rig"
		}
	],
	"animations":[
		{
			"channels":[
				{
					"sampler":0,
					"target":{
						"node":17,
						"path":"translation"
					}
				},
				{
					"sampler":1,
					"target":{
						"node":17,
						"path":"rotation"
					}
				},
				{
					"sampler":2,
					"target":{
						"node":17,
						"path":"scale"
					}
				},
				{
					"sampler":3,
					"target":{
						"node":8,
						"path":"translation"
					}
				},
				{
					"sampler":4,
					"target":{
						"node":8,
						"path":"rotation"
					}
				},
				{
					"sampler":5,
					"target":{
						"node":8,
						"path":"scale"
					}
				},
				{
					"sampler":6,
					"target":{
						"node":1,
						"path":"translation"
					}
				},
				{
					"sampler":7,
					"target":{
						"node":1,
						"path":"rotation"
					}
				},
				{
					"sampler":8,
					"target":{
						"node":1,
						"path":"scale"
					}
				},
				{
					"sampler":9,
					"target":{
						"node":0,
						"path":"translation"
					}
				},
				{
					"sampler":10,
					"target":{
						"node":0,
						"path":"rotation"
					}
				},
				{
					"sampler":11,
					"target":{
						"node":0,
						"path":"scale"
					}
				},
				{
					"sampler":12,
					"target":{
						"node":4,
						"path":"translation"
					}
				},
				{
					"sampler":13,
					"target":{
						"node":4,
						"path":"rotation"
					}
				},
				{
					"sampler":14,
					"target":{
						"node":4,
						"path":"scale"
					}
				},
				{
					"sampler":15,
					"target":{
						"node":3,
						"path":"translation"
					}
				},
				{
					"sampler":16,
					"target":{
						"node":3,
						"path":"rotation"
					}
				},
				{
					"sampler":17,
					"target":{
						"node":3,
						"path":"scale"
					}
				},
				{
					"sampler":18,
					"target":{
						"node":2,
						"path":"translation"
					}
				},
				{
					"sampler":19,
					"target":{
						"node":2,
						"path":"rotation"
					}
				},
				{
					"sampler":20,
					"target":{
						"node":2,
						"path":"scale"
					}
				},
				{
					"sampler":21,
					"target":{
						"node":7,
						"path":"translation"
					}
				},
				{
					"sampler":22,
					"target":{
						"node":7,
						"path":"rotation"
					}
				},
				{
					"sampler":23,
					"target":{
						"node":7,
						"path":"scale"
					}
				},
				{
					"sampler":24,
					"target":{
						"node":6,
						"path":"translation"
					}
				},
				{
					"sampler":25,
					"target":{
						"node":6,
						"path":"rotation"
					}
				},
				{
					"sampler":26,
					"target":{
						"node":6,
						"path":"scale"
					}
				},
				{
					"sampler":27,
					"target":{
						"node":5,
						"path":"translation"
					}
				},
				{
					"sampler":28,
					"target":{
						"node":5,
						"path":"rotation"
					}
				},
				{
					"sampler":29,
					"target":{
						"node":5,
						"path":"scale"
					}
				},
				{
					"sampler":30,
					"target":{
						"node":10,
						"path":"translation"
					}
				},
				{
					"sampler":31,
					"target":{
						"node":10,
						"path":"rotation"
					}
				},
				{
					"sampler":32,
					"target":{
						"node":10,
						"path":"scale"
					}
				},
				{
					"sampler":33,
					"target":{
						"node":9,
						"path":"translation"
					}
				},
				{
					"sampler":34,
					"target":{
						"node":9,
						"path":"rotation"
					}
				},
				{
					"sampler":35,
					"target":{
						"node":9,
						"path":"scale"
					}
				},
				{
					"sampler":36,
					"target":{
						"node":13,
						"path":"translation"
					}
				},
				{
					"sampler":37,
					"target":{
						"node":13,
						"path":"rotation"
					}
				},
				{
					"sampler":38,
					"target":{
						"node":13,
						"path":"scale"
					}
				},
				{
					"sampler":39,
					"target":{
						"node":12,
						"path":"translation"
					}
				},
				{
					"sampler":40,
					"target":{
						"node":12,
						"path":"rotation"
					}
				},
				{
					"sampler":41,
					"target":{
						"node":12,
						"path":"scale"
					}
				},
				{
					"sampler":42,
					"target":{
						"node":11,
						"path":"translation"
					}
				},
				{
					"sampler":43,
					"target":{
						"node":11,
						"path":"rotation"
					}
				},
				{
					"sampler":44,
					"target":{
						"node":11,
						"path":"scale"
					}
				},
				{
					"sampler":45,
					"target":{
						"node":16,
						"path":"translation"
					}
				},
				{
					"sampler":46,
					"target":{
						"node":16,
						"path":"rotation"
					}
				},
				{
					"sampler":47,
					"target":{
						"node":16,
						"path":"scale"
					}
				},
				{
					"sampler":48,
					"target":{
						"node":15,
						"path":"translation"
					}
				},
				{
					"sampler":49,
					"target":{
						"node":15,
						"path":"rotation"
					}
				},
				{
					"sampler":50,
					"target":{
						"node":15,
						"path":"scale"
					}
				},
				{
					"sampler":51,
					"target":{
						"node":14,
						"path":"translation"
					}
				},
				{
					"sampler":52,
					"target":{
						"node":14,
						"path":"rotation"
					}
				},
				{
					"sampler":53,
					"target":{
						"node":14,
						"path":"scale"
					}
				}
			],
			"name":"attack",
			"samplers":[
				{
					"input":37,
					"interpolation":"LINEAR",
					"output":38
				},
				{
					"input":39,
					"interpolation":"STEP",
					"output":40
				},
				{
					"input":39,
					"interpolation":"STEP",
					"output":41
				},
				{
					"input":39,
					"interpolation":"STEP",
					"output":42
				},
				{
					"input":37,
					"interpolation":"LINEAR",
					"output":43
				},
				{
					"input":39,
					"interpolation":"STEP",
					"output":44
				},
				{
					"input":39,
					"interpolation":"STEP",
					"output":45
				},
				{
					"input":37,
					"interpolation":"LINEAR",
					"output":46
				},
				{
					"input":39,
					"interpolation":"STEP",
					"output":47
				},
				{
					"input":39,
					"interpolation":"STEP",
					"output":48
				},
				{
					"input":37,
					"interpolation":"LINEAR",
					"output":49
				},
				{
					"input":39,
					"interpolation":"STEP",
					"output":50
				},
				{
					"input":39,
					"interpolation":"STEP",
					"output":51
				},
				{
					"input":37,
					"interpolation":"LINEAR",
					"output":52
				},
				{
					"input":39,
					"interpolation":"STEP",
					"output":53
				},
				{
					"input":39,
					"interpolation":"STEP",
					"output":54
				},
				{
					"input":39,
					"interpolation":"STEP",
					"output":55
				},
				{
					"input":39,
					"interpolation":"STEP",
					"output":56
				},
				{
					"input":39,
					"interpolation":"STEP",
					"output":57
				},
				{
					"input":39,
					"interpolation":"STEP",
					"output":58
				},
				{
					"input":39,
					"interpolation":"STEP",
					"output":59
				},
				{
					"input":39,
					"interpolation":"STEP",
					"output":60
				},
				{
					"input":37,
					"interpolation":"LINEAR",
					"output":61
				},
				{
					"input":39,
					"interpolation":"STEP",
					"output":62
				},
				{
					"input":39,
					"interpolation":"STEP",
					"output":63
				},
				{
					"input":39,
					"interpolation":"STEP",
					"output":64
				},
				{
					"input":39,
					"interpolation":"STEP",
					"output":65
				},
				{
					"input":39,
					"interpolation":"STEP",
					"output":66
				},
				{
					"input":39,
					"interpolation":"STEP",
					"output":67
				},
				{
					"input":39,
					"interpolation":"STEP",
					"output":68
				},
				{
					"input":39,
					"interpolation":"STEP",
					"output":69
				},
				{
					"input":39,
					"interpolation":"STEP",
					"output":70
				},
				{
					"input":39,
					"interpolation":"STEP",
					"output":71
				},
				{
					"input":39,
					"interpolation":"STEP",
					"output":72
				},
				{
					"input":39,
					"interpolation":"STEP",
					"output":73
				},
				{
					"input":39,
					"interpolation":"STEP",
					"output":74
				},
				{
					"input":39,
					"interpolation":"STEP",
					"output":75
				},
				{
					"input":39,
					"interpolation":"STEP",
					"output":76
				},
				{
					"input":39,
					"interpolation":"STEP",
					"output":77
				},
				{
					"input":39,
					"interpolation":"STEP",
					"output":78
				},
				{
					"input":39,
					"interpolation":"STEP",
					"output":79
				},
				{
					"input":39,
					"interpolation":"STEP",
					"output":80
				},
				{
					"input":39,
					"interpolation":"STEP",
					"output":81
				},
				{
					"input":39,
					"interpolation":"STEP",
					"output":82
				},
				{
					"input":39,
					"interpolation":"STEP",
					"output":83
				},
				{
					"input":39,
					"interpolation":"STEP",
					"output":84
				},
				{
					"input":39,
					"interpolation":"STEP",
					"output":85
				},
				{
					"input":39,
					"interpolation":"STEP",
					"output":86
				},
				{
					"input":39,
					"interpolation":"STEP",
					"output":87
				},
				{
					"input":39,
					"interpolation":"STEP",
					"output":88
				},
				{
					"input":39,
					"interpolation":"STEP",
					"output":89
				},
				{
					"input":39,
					"interpolation":"STEP",
					"output":90
				},
				{
					"input":39,
					"interpolation":"STEP",
					"output":91
				},
				{
					"input":39,
					"interpolation":"STEP",
					"output":92
				}
			]
		},
		{
			"channels":[
				{
					"sampler":0,
					"target":{
						"node":17,
						"path":"translation"
					}
				},
				{
					"sampler":1,
					"target":{
						"node":17,
						"path":"rotation"
					}
				},
				{
					"sampler":2,
					"target":{
						"node":17,
						"path":"scale"
					}
				},
				{
					"sampler":3,
					"target":{
						"node":8,
						"path":"translation"
					}
				},
				{
					"sampler":4,
					"target":{
						"node":8,
						"path":"rotation"
					}
				},
				{
					"sampler":5,
					"target":{
						"node":8,
						"path":"scale"
					}
				},
				{
					"sampler":6,
					"target":{
						"node":1,
						"path":"translation"
					}
				},
				{
					"sampler":7,
					"target":{
						"node":1,
						"path":"rotation"
					}
				},
				{
					"sampler":8,
					"target":{
						"node":1,
						"path":"scale"
					}
				},
				{
					"sampler":9,
					"target":{
						"node":0,
						"path":"translation"
					}
				},
				{
					"sampler":10,
					"target":{
						"node":0,
						"path":"rotation"
					}
				},
				{
					"sampler":11,
					"target":{
						"node":0,
						"path":"scale"
					}
				},
				{
					"sampler":12,
					"target":{
						"node":4,
						"path":"translation"
					}
				},
				{
					"sampler":13,
					"target":{
						"node":4,
						"path":"rotation"
					}
				},
				{
					"sampler":14,
					"target":{
						"node":4,
						"path":"scale"
					}
				},
				{
					"sampler":15,
					"target":{
						"node":3,
						"path":"translation"
					}
				},
				{
					"sampler":16,
					"target":{
						"node":3,
						"path":"rotation"
					}
				},
				{
					"sampler":17,
					"target":{
						"node":3,
						"path":"scale"
					}
				},
				{
					"sampler":18,
					"target":{
						"node":2,
						"path":"translation"
					}
				},
				{
					"sampler":19,
					"target":{
						"node":2,
						"path":"rotation"
					}
				},
				{
					"sampler":20,
					"target":{
						"node":2,
						"path":"scale"
					}
				},
				{
					"sampler":21,
					"target":{
						"node":7,
						"path":"translation"
					}
				},
				{
					"sampler":22,
					"target":{
						"node":7,
						"path":"rotation"
					}
				},
				{
					"sampler":23,
					"target":{
						"node":7,
						"path":"scale"
					}
				},
				{
					"sampler":24,
					"target":{
						"node":6,
						"path":"translation"
					}
				},
				{
					"sampler":25,
					"target":{
						"node":6,
						"path":"rotation"
					}
				},
				{
					"sampler":26,
					"target":{
						"node":6,
						"path":"scale"
					}
				},
				{
					"sampler":27,
					"target":{
						"node":5,
						"path":"translation"
					}
				},
				{
					"sampler":28,
					"target":{
						"node":5,
						"path":"rotation"
					}
				},
				{
					"sampler":29,
					"target":{
						"node":5,
						"path":"scale"
					}
				},
				{
					"sampler":30,
					"target":{
						"node":10,
						"path":"translation"
					}
				},
				{
					"sampler":31,
					"target":{
						"node":10,
						"path":"rotation"
					}
				},
				{
					"sampler":32,
					"target":{
						"node":10,
						"path":"scale"
					}
				},
				{
					"sampler":33,
					"target":{
						"node":9,
						"path":"translation"
					}
				},
				{
					"sampler":34,
					"target":{
						"node":9,
						"path":"rotation"
					}
				},
				{
					"sampler":35,
					"target":{
						"node":9,
						"path":"scale"
					}
				},
				{
					"sampler":36,
					"target":{
						"node":13,
						"path":"translation"
					}
				},
				{
					"sampler":37,
					"target":{
						"node":13,
						"path":"rotation"
					}
				},
				{
					"sampler":38,
					"target":{
						"node":13,
						"path":"scale"
					}
				},
				{
					"sampler":39,
					"target":{
						"node":12,
						"path":"translation"
					}
				},
				{
					"sampler":40,
					"target":{
						"node":12,
						"path":"rotation"
					}
				},
				{
					"sampler":41,
					"target":{
						"node":12,
						"path":"scale"
					}
				},
				{
					"sampler":42,
					"target":{
						"node":11,
						"path":"translation"
					}
				},
				{
					"sampler":43,
					"target":{
						"node":11,
						"path":"rotation"
					}
				},
				{
					"sampler":44,
					"target":{
						"node":11,
						"path":"scale"
					}
				},
				{
					"sampler":45,
					"target":{
						"node":16,
						"path":"translation"
					}
				},
				{
					"sampler":46,
					"target":{
						"node":16,
						"path":"rotation"
					}
				},
				{
					"sampler":47,
					"target":{
						"node":16,
						"path":"scale"
					}
				},
				{
					"sampler":48,
					"target":{
						"node":15,
						"path":"translation"
					}
				},
				{
					"sampler":49,
					"target":{
						"node":15,
						"path":"rotation"
					}
				},
				{
					"sampler":50,
					"target":{
						"node":15,
						"path":"scale"
					}
				},
				{
					"sampler":51,
					"target":{
						"node":14,
						"path":"translation"
					}
				},
				{
					"sampler":52,
					"target":{
						"node":14,
						"path":"rotation"
					}
				},
				{
					"sampler":53,
					"target":{
						"node":14,
						"path":"scale"
					}
				}
			],
			"name":"idle",
			"samplers":[
				{
					"input":93,
					"interpolation":"STEP",
					"output":94
				},
				{
					"input":93,
					"interpolation":"STEP",
					"output":95
				},
				{
					"input":93,
					"interpolation":"STEP",
					"output":96
				},
				{
					"input":93,
					"interpolation":"STEP",
					"output":97
				},
				{
					"input":98,
					"interpolation":"LINEAR",
					"output":99
				},
				{
					"input":93,
					"interpolation":"STEP",
					"output":100
				},
				{
					"input":93,
					"interpolation":"STEP",
					"output":101
				},
				{
					"input":93,
					"interpolation":"STEP",
					"output":102
				},
				{
					"input":93,
					"interpolation":"STEP",
					"output":103
				},
				{
					"input":93,
					"interpolation":"STEP",
					"output":104
				},
				{
					"input":98,
					"interpolation":"LINEAR",
					"output":105
				},
				{
					"input":93,
					"interpolation":"STEP",
					"output":106
				},
				{
					"input":93,
					"interpolation":"STEP",
					"output":107
				},
				{
					"input":93,
					"interpolation":"STEP",
					"output":108
				},
				{
					"input":93,
					"interpolation":"STEP",
					"output":109
				},
				{
					"input":93,
					"interpolation":"STEP",
					"output":110
				},
				{
					"input":93,
					"interpolation":"STEP",
					"output":111
				},
				{
					"input":93,
					"interpolation":"STEP",
					"output":112
				},
				{
					"input":93,
					"interpolation":"STEP",
					"output":113
				},
				{
					"input":93,
					"interpolation":"STEP",
					"output":114
				},
				{
					"input":93,
					"interpolation":"STEP",
					"output":115
				},
				{
					"input":93,
					"interpolation":"STEP",
					"output":116
				},
				{
					"input":93,
					"interpolation":"STEP",
					"output":117
				},
				{
					"input":93,
					"interpolation":"STEP",
					"output":118
				},
				{
					"input":93,
					"interpolation":"STEP",
					"output":119
				},
				{
					"input":93,
					"interpolation":"STEP",
					"output":120
				},
				{
					"input":93,
					"interpolation":"STEP",
					"output":121
				},
				{
					"input":93,
					"interpolation":"STEP",
					"output":122
				},
				{
					"input":93,
					"interpolation":"STEP",
					"output":123
				},
				{
					"input":93,
					"interpolation":"STEP",
					"output":124
				},
				{
					"input":93,
					"interpolation":"STEP",
					"output":125
				},
				{
					"input":98,
					"interpolation":"LINEAR",
					"output":126
				},
				{
					"input":93,
					"interpolation":"STEP",
					"output":127
				},
				{
					"input":93,
					"interpolation":"STEP",
					"output":128
				},
				{
					"input":98,
					"interpolation":"LINEAR",
					"output":129
				},
				{
					"input":93,
					"interpolation":"STEP",
					"output":130
				},
				{
					"input":93,
					"interpolation":"STEP",
					"output":131
				},
				{
					"input":93,
					"interpolation":"STEP",
					"output":132
				},
				{
					"input":93,
					"interpolation":"STEP",
					"output":133
				},
				{
					"input":93,
					"interpolation":"STEP",
					"output":134
				},
				{
					"input":93,
					"interpolation":"STEP",
					"output":135
				},
				{
					"input":93,
					"interpolation":"STEP",
					"output":136
				},
				{
					"input":93,
					"interpolation":"STEP",
					"output":137
				},
				{
					"input":93,
					"interpolation":"STEP",
					"output":138
				},
				{
					"input":93,
					"interpolation":"STEP",
					"output":139
				},
				{
					"input":93,
					"interpolation":"STEP",
					"output":140
				},
				{
					"input":93,
					"interpolation":"STEP",
					"output":141
				},
				{
					"input":93,
					"interpolation":"STEP",
					"output":142
				},
				{
					"input":93,
					"interpolation":"STEP",
					"output":143
				},
				{
					"input":93,
					"interpolation":"STEP",
					"output":144
				},
				{
					"input":93,
					"interpolation":"STEP",
					"output":145
				},
				{
					"input":93,
					"interpolation":"STEP",
					"output":146
				},
				{
					"input":93,
					"interpolation":"STEP",
					"output":147
				},
				{
					"input":93,
					"interpolation":"STEP",
					"output":148
				}
			]
		},
		{
			"channels":[
				{
					"sampler":0,
					"target":{
						"node":17,
						"path":"translation"
					}
				},
				{
					"sampler":1,
					"target":{
						"node":17,
						"path":"rotation"
					}
				},
				{
					"sampler":2,
					"target":{
						"node":17,
						"path":"scale"
					}
				},
				{
					"sampler":3,
					"target":{
						"node":8,
						"path":"translation"
					}
				},
				{
					"sampler":4,
					"target":{
						"node":8,
						"path":"rotation"
					}
				},
				{
					"sampler":5,
					"target":{
						"node":8,
						"path":"scale"
					}
				},
				{
					"sampler":6,
					"target":{
						"node":1,
						"path":"translation"
					}
				},
				{
					"sampler":7,
					"target":{
						"node":1,
						"path":"rotation"
					}
				},
				{
					"sampler":8,
					"target":{
						"node":1,
						"path":"scale"
					}
				},
				{
					"sampler":9,
					"target":{
						"node":0,
						"path":"translation"
					}
				},
				{
					"sampler":10,
					"target":{
						"node":0,
						"path":"rotation"
					}
				},
				{
					"sampler":11,
					"target":{
						"node":0,
						"path":"scale"
					}
				},
				{
					"sampler":12,
					"target":{
						"node":4,
						"path":"translation"
					}
				},
				{
					"sampler":13,
					"target":{
						"node":4,
						"path":"rotation"
					}
				},
				{
					"sampler":14,
					"target":{
						"node":4,
						"path":"scale"
					}
				},
				{
					"sampler":15,
					"target":{
						"node":3,
						"path":"translation"
					}
				},
				{
					"sampler":16,
					"target":{
						"node":3,
						"path":"rotation"
					}
				},
				{
					"sampler":17,
					"target":{
						"node":3,
						"path":"scale"
					}
				},
				{
					"sampler":18,
					"target":{
						"node":2,
						"path":"translation"
					}
				},
				{
					"sampler":19,
					"target":{
						"node":2,
						"path":"rotation"
					}
				},
				{
					"sampler":20,
					"target":{
						"node":2,
						"path":"scale"
					}
				},
				{
					"sampler":21,
					"target":{
						"node":7,
						"path":"translation"
					}
				},
				{
					"sampler":22,
					"target":{
						"node":7,
						"path":"rotation"
					}
				},
				{
					"sampler":23,
					"target":{
						"node":7,
						"path":"scale"
					}
				},
				{
					"sampler":24,
					"target":{
						"node":6,
						"path":"translation"
					}
				},
				{
					"sampler":25,
					"target":{
						"node":6,
						"path":"rotation"
					}
				},
				{
					"sampler":26,
					"target":{
						"node":6,
						"path":"scale"
					}
				},
				{
					"sampler":27,
					"target":{
						"node":5,
						"path":"translation"
					}
				},
				{
					"sampler":28,
					"target":{
						"node":5,
						"path":"rotation"
					}
				},
				{
					"sampler":29,
					"target":{
						"node":5,
						"path":"scale"
					}
				},
				{
					"sampler":30,
					"target":{
						"node":10,
						"path":"translation"
					}
				},
				{
					"sampler":31,
					"target":{
						"node":10,
						"path":"rotation"
					}
				},
				{
					"sampler":32,
					"target":{
						"node":10,
						"path":"scale"
					}
				},
				{
					"sampler":33,
					"target":{
						"node":9,
						"path":"translation"
					}
				},
				{
					"sampler":34,
					"target":{
						"node":9,
						"path":"rotation"
					}
				},
				{
					"sampler":35,
					"target":{
						"node":9,
						"path":"scale"
					}
				},
				{
					"sampler":36,
					"target":{
						"node":13,
						"path":"translation"
					}
				},
				{
					"sampler":37,
					"target":{
						"node":13,
						"path":"rotation"
					}
				},
				{
					"sampler":38,
					"target":{
						"node":13,
						"path":"scale"
					}
				},
				{
					"sampler":39,
					"target":{
						"node":12,
						"path":"translation"
					}
				},
				{
					"sampler":40,
					"target":{
						"node":12,
						"path":"rotation"
					}
				},
				{
					"sampler":41,
					"target":{
						"node":12,
						"path":"scale"
					}
				},
				{
					"sampler":42,
					"target":{
						"node":11,
						"path":"translation"
					}
				},
				{
					"sampler":43,
					"target":{
						"node":11,
						"path":"rotation"
					}
				},
				{
					"sampler":44,
					"target":{
						"node":11,
						"path":"scale"
					}
				},
				{
					"sampler":45,
					"target":{
						"node":16,
						"path":"translation"
					}
				},
				{
					"sampler":46,
					"target":{
						"node":16,
						"path":"rotation"
					}
				},
				{
					"sampler":47,
					"target":{
						"node":16,
						"path":"scale"
					}
				},
				{
					"sampler":48,
					"target":{
						"node":15,
						"path":"translation"
					}
				},
				{
					"sampler":49,
					"target":{
						"node":15,
						"path":"rotation"
					}
				},
				{
					"sampler":50,
					"target":{
						"node":15,
						"path":"scale"
					}
				},
				{
					"sampler":51,
					"target":{
						"node":14,
						"path":"translation"
					}
				},
				{
					"sampler":52,
					"target":{
						"node":14,
						"path":"rotation"
					}
				},
				{
					"sampler":53,
					"target":{
						"node":14,
						"path":"scale"
					}
				}
			],
			"name":"walk",
			"samplers":[
				{
					"input":149,
					"interpolation":"LINEAR",
					"output":150
				},
				{
					"input":151,
					"interpolation":"STEP",
					"output":152
				},
				{
					"input":151,
					"interpolation":"STEP",
					"output":153
				},
				{
					"input":151,
					"interpolation":"STEP",
					"output":154
				},
				{
					"input":151,
					"interpolation":"STEP",
					"output":155
				},
				{
					"input":151,
					"interpolation":"STEP",
					"output":156
				},
				{
					"input":151,
					"interpolation":"STEP",
					"output":157
				},
				{
					"input":151,
					"interpolation":"STEP",
					"output":158
				},
				{
					"input":151,
					"interpolation":"STEP",
					"output":159
				},
				{
					"input":151,
					"interpolation":"STEP",
					"output":160
				},
				{
					"input":149,
					"interpolation":"LINEAR",
					"output":161
				},
				{
					"input":151,
					"interpolation":"STEP",
					"output":162
				},
				{
					"input":151,
					"interpolation":"STEP",
					"output":163
				},
				{
					"input":149,
					"interpolation":"LINEAR",
					"output":164
				},
				{
					"input":151,
					"interpolation":"STEP",
					"output":165
				},
				{
					"input":151,
					"interpolation":"STEP",
					"output":166
				},
				{
					"input":149,
					"interpolation":"LINEAR",
					"output":167
				},
				{
					"input":151,
					"interpolation":"STEP",
					"output":168
				},
				{
					"input":151,
					"interpolation":"STEP",
					"output":169
				},
				{
					"input":151,
					"interpolation":"STEP",
					"output":170
				},
				{
					"input":151,
					"interpolation":"STEP",
					"output":171
				},
				{
					"input":151,
					"interpolation":"STEP",
					"output":172
				},
				{
					"input":149,
					"interpolation":"LINEAR",
					"output":173
				},
				{
					"input":151,
					"interpolation":"STEP",
					"output":174
				},
				{
					"input":151,
					"interpolation":"STEP",
					"output":175
				},
				{
					"input":149,
					"interpolation":"LINEAR",
					"output":176
				},
				{
					"input":151,
					"interpolation":"STEP",
					"output":177
				},
				{
					"input":151,
					"interpolation":"STEP",
					"output":178
				},
				{
					"input":151,
					"interpolation":"STEP",
					"output":179
				},
				{
					"input":151,
					"interpolation":"STEP",
					"output":180
				},
				{
					"input":151,
					"interpolation":"STEP",
					"output":181
				},
				{
					"input":149,
					"interpolation":"LINEAR",
					"output":182
				},
				{
					"input":151,
					"interpolation":"STEP",
					"output":183
				},
				{
					"input":151,
					"interpolation":"STEP",
					"output":184
				},
				{
					"input":151,
					"interpolation":"STEP",
					"output":185
				},
				{
					"input":151,
					"interpolation":"STEP",
					"output":186
				},
				{
					"input":151,
					"interpolation":"STEP",
					"output":187
				},
				{
					"input":149,
					"interpolation":"LINEAR",
					"output":188
				},
				{
					"input":151,
					"interpolation":"STEP",
					"output":189
				},
				{
					"input":151,
					"interpolation":"STEP",
					"output":190
				},
				{
					"input":149,
					"interpolation":"LINEAR",
					"output":191
				},
				{
					"input":151,
					"interpolation":"STEP",
					"output":192
				},
				{
					"input":151,
					"interpolation":"STEP",
					"output":193
				},
				{
					"input":151,
					"interpolation":"STEP",
					"output":194
				},
				{
					"input":151,
					"interpolation":"STEP",
					"output":195
				},
				{
					"input":151,
					"interpolation":"STEP",
					"output":196
				},
				{
					"input":149,
					"interpolation":"LINEAR",
					"output":197
				},
				{
					"input":151,
					"interpolation":"STEP",
					"output":198
				},
				{
					"input":151,
					"interpolation":"STEP",
					"output":199
				},
				{
					"input":149,
					"interpolation":"LINEAR",
					"output":200
				},
				{
					"input":151,
					"interpolation":"STEP",
					"output":201
				},
				{
					"input":151,
					"interpolation":"STEP",
					"output":202
				},
				{
					"input":151,
					"interpolation":"STEP",
					"output":203
				},
				{
					"input":151,
					"interpolation":"STEP",
					"output":204
				}
			]
		}
	],
	"materials":[
		{
			"name":"fur",
			"normalTexture":{
				"index":0,
				"scale":1.2000000476837158
			},
			"pbrMetallicRoughness":{
				"baseColorFactor":[
					0.17064493894577026,
					0.1473190039396286,
					0.07323895394802094,
					1
				],
				"metallicFactor":0,
				"roughnessFactor":0.44999998807907104
			}
		},
		{
			"name":"belly",
			"normalTexture":{
				"index":1,
				"scale":0.6000000238418579
			},
			"pbrMetallicRoughness":{
				"baseColorFactor":[
					0.3363361954689026,
					0.31158846616744995,
					0.22341398894786835,
					1
				],
				"metallicFactor":0,
				"roughnessFactor":0.800000011920929
			}
		},
		{
			"emissiveFactor":[
				1,
				0.03310476616024971,
				0.010022825561463833
			],
			"extensions":{
				"KHR_materials_emissive_strength":{
					"emissiveStrength":1.600000023841858
				}
			},
			"name":"eye",
			"pbrMetallicRoughness":{
				"baseColorFactor":[
					1,
					0.03310476616024971,
					0.010022825561463833,
					1
				],
				"metallicFactor":0,
				"roughnessFactor":0.10000000149011612
			}
		},
		{
			"extensions":{
				"KHR_materials_clearcoat":{
					"clearcoatFactor":0.800000011920929
				}
			},
			"name":"nose",
			"pbrMetallicRoughness":{
				"baseColorFactor":[
					0.0023219813592731953,
					0.0023219813592731953,
					0.0023219813592731953,
					1
				],
				"metallicFactor":0,
				"roughnessFactor":0.30000001192092896
			}
		},
		{
			"name":"teeth",
			"pbrMetallicRoughness":{
				"baseColorFactor":[
					0.8900054097175598,
					0.848088264465332,
					0.6920710802078247,
					1
				],
				"metallicFactor":0,
				"roughnessFactor":0.30000001192092896
			}
		},
		{
			"name":"plates",
			"normalTexture":{
				"index":2,
				"scale":0.6000000238418579
			},
			"pbrMetallicRoughness":{
				"baseColorFactor":[
					0.2632734179496765,
					0.23302200436592102,
					0.17064493894577026,
					1
				],
				"metallicFactor":0.30000001192092896,
				"roughnessFactor":0.4000000059604645
			}
		}
	],
	"meshes":[
		{
			"name":"armorsaurus",
			"primitives":[
				{
					"attributes":{
						"POSITION":0,
						"NORMAL":1,
						"TEXCOORD_0":2,
						"JOINTS_0":3,
						"WEIGHTS_0":4
					},
					"indices":5,
					"material":0
				},
				{
					"attributes":{
						"POSITION":6,
						"NORMAL":7,
						"TEXCOORD_0":8,
						"JOINTS_0":9,
						"WEIGHTS_0":10
					},
					"indices":11,
					"material":1
				},
				{
					"attributes":{
						"POSITION":12,
						"NORMAL":13,
						"TEXCOORD_0":14,
						"JOINTS_0":15,
						"WEIGHTS_0":16
					},
					"indices":17,
					"material":2
				},
				{
					"attributes":{
						"POSITION":18,
						"NORMAL":19,
						"TEXCOORD_0":20,
						"JOINTS_0":21,
						"WEIGHTS_0":22
					},
					"indices":23,
					"material":3
				},
				{
					"attributes":{
						"POSITION":24,
						"NORMAL":25,
						"TEXCOORD_0":26,
						"JOINTS_0":27,
						"WEIGHTS_0":28
					},
					"indices":29,
					"material":4
				},
				{
					"attributes":{
						"POSITION":30,
						"NORMAL":31,
						"TEXCOORD_0":32,
						"JOINTS_0":33,
						"WEIGHTS_0":34
					},
					"indices":35,
					"material":5
				}
			]
		}
	],
	"textures":[
		{
			"sampler":0,
			"source":0
		},
		{
			"sampler":0,
			"source":1
		},
		{
			"sampler":0,
			"source":2
		}
	],
	"images":[
		{
			"mimeType":"image/png",
			"name":"N_scale",
			"uri":"texturas/N_scale.png"
		},
		{
			"mimeType":"image/png",
			"name":"N_leather",
			"uri":"texturas/N_leather.png"
		},
		{
			"mimeType":"image/png",
			"name":"N_stone",
			"uri":"texturas/N_stone.png"
		}
	],
	"skins":[
		{
			"inverseBindMatrices":36,
			"joints":[
				17,
				8,
				1,
				0,
				4,
				3,
				2,
				7,
				6,
				5,
				10,
				9,
				13,
				12,
				11,
				16,
				15,
				14
			],
			"name":"armorsaurus_rig"
		}
	],
	"accessors":[
		{
			"bufferView":0,
			"componentType":5126,
			"count":4105,
			"max":[
				0.43460118770599365,
				0.8849999904632568,
				1.7476712465286255
			],
			"min":[
				-0.43460121750831604,
				0.01025804691016674,
				-1.3621832132339478
			],
			"type":"VEC3"
		},
		{
			"bufferView":1,
			"componentType":5126,
			"count":4105,
			"type":"VEC3"
		},
		{
			"bufferView":2,
			"componentType":5126,
			"count":4105,
			"type":"VEC2"
		},
		{
			"bufferView":3,
			"componentType":5121,
			"count":4105,
			"type":"VEC4"
		},
		{
			"bufferView":4,
			"componentType":5126,
			"count":4105,
			"type":"VEC4"
		},
		{
			"bufferView":5,
			"componentType":5123,
			"count":17928,
			"type":"SCALAR"
		},
		{
			"bufferView":6,
			"componentType":5126,
			"count":55,
			"max":[
				0.20007234811782837,
				0.492620587348938,
				0.5840694904327393
			],
			"min":[
				-0.20007234811782837,
				0.4018893539905548,
				-0.5430458188056946
			],
			"type":"VEC3"
		},
		{
			"bufferView":7,
			"componentType":5126,
			"count":55,
			"type":"VEC3"
		},
		{
			"bufferView":8,
			"componentType":5126,
			"count":55,
			"type":"VEC2"
		},
		{
			"bufferView":9,
			"componentType":5121,
			"count":55,
			"type":"VEC4"
		},
		{
			"bufferView":10,
			"componentType":5126,
			"count":55,
			"type":"VEC4"
		},
		{
			"bufferView":11,
			"componentType":5123,
			"count":240,
			"type":"SCALAR"
		},
		{
			"bufferView":12,
			"componentType":5126,
			"count":220,
			"max":[
				0.10700000077486038,
				0.7979999780654907,
				-1.044783115386963
			],
			"min":[
				-0.10700000077486038,
				0.7620000243186951,
				-1.0752168893814087
			],
			"type":"VEC3"
		},
		{
			"bufferView":13,
			"componentType":5126,
			"count":220,
			"type":"VEC3"
		},
		{
			"bufferView":14,
			"componentType":5126,
			"count":220,
			"type":"VEC2"
		},
		{
			"bufferView":15,
			"componentType":5121,
			"count":220,
			"type":"VEC4"
		},
		{
			"bufferView":16,
			"componentType":5126,
			"count":220,
			"type":"VEC4"
		},
		{
			"bufferView":17,
			"componentType":5123,
			"count":720,
			"type":"SCALAR"
		},
		{
			"bufferView":18,
			"componentType":5126,
			"count":110,
			"max":[
				0.03500000014901161,
				0.6779999732971191,
				-1.3412235975265503
			],
			"min":[
				-0.03500000014901161,
				0.621999979019165,
				-1.388776421546936
			],
			"type":"VEC3"
		},
		{
			"bufferView":19,
			"componentType":5126,
			"count":110,
			"type":"VEC3"
		},
		{
			"bufferView":20,
			"componentType":5126,
			"count":110,
			"type":"VEC2"
		},
		{
			"bufferView":21,
			"componentType":5121,
			"count":110,
			"type":"VEC4"
		},
		{
			"bufferView":22,
			"componentType":5126,
			"count":110,
			"type":"VEC4"
		},
		{
			"bufferView":23,
			"componentType":5123,
			"count":360,
			"type":"SCALAR"
		},
		{
			"bufferView":24,
			"componentType":5126,
			"count":68,
			"max":[
				0.0369282029569149,
				0.6200000047683716,
				-1.3019999265670776
			],
			"min":[
				-0.0369282029569149,
				0.5699999928474426,
				-1.3179999589920044
			],
			"type":"VEC3"
		},
		{
			"bufferView":25,
			"componentType":5126,
			"count":68,
			"type":"VEC3"
		},
		{
			"bufferView":26,
			"componentType":5126,
			"count":68,
			"type":"VEC2"
		},
		{
			"bufferView":27,
			"componentType":5121,
			"count":68,
			"type":"VEC4"
		},
		{
			"bufferView":28,
			"componentType":5126,
			"count":68,
			"type":"VEC4"
		},
		{
			"bufferView":29,
			"componentType":5123,
			"count":144,
			"type":"SCALAR"
		},
		{
			"bufferView":30,
			"componentType":5126,
			"count":306,
			"max":[
				0.04330126941204071,
				1.007485032081604,
				1.2279099225997925
			],
			"min":[
				-0.04330126941204071,
				0.7750224471092224,
				-0.6679099798202515
			],
			"type":"VEC3"
		},
		{
			"bufferView":31,
			"componentType":5126,
			"count":306,
			"type":"VEC3"
		},
		{
			"bufferView":32,
			"componentType":5126,
			"count":306,
			"type":"VEC2"
		},
		{
			"bufferView":33,
			"componentType":5121,
			"count":306,
			"type":"VEC4"
		},
		{
			"bufferView":34,
			"componentType":5126,
			"count":306,
			"type":"VEC4"
		},
		{
			"bufferView":35,
			"componentType":5123,
			"count":648,
			"type":"SCALAR"
		},
		{
			"bufferView":36,
			"componentType":5126,
			"count":18,
			"type":"MAT4"
		},
		{
			"bufferView":37,
			"componentType":5126,
			"count":17,
			"max":[
				0.5333333333333333
			],
			"min":[
				0
			],
			"type":"SCALAR"
		},
		{
			"bufferView":38,
			"componentType":5126,
			"count":17,
			"type":"VEC3"
		},
		{
			"bufferView":39,
			"componentType":5126,
			"count":2,
			"max":[
				0.5333333333333333
			],
			"min":[
				0
			],
			"type":"SCALAR"
		},
		{
			"bufferView":40,
			"componentType":5126,
			"count":2,
			"type":"VEC4"
		},
		{
			"bufferView":41,
			"componentType":5126,
			"count":2,
			"type":"VEC3"
		},
		{
			"bufferView":42,
			"componentType":5126,
			"count":2,
			"type":"VEC3"
		},
		{
			"bufferView":43,
			"componentType":5126,
			"count":17,
			"type":"VEC4"
		},
		{
			"bufferView":44,
			"componentType":5126,
			"count":2,
			"type":"VEC3"
		},
		{
			"bufferView":45,
			"componentType":5126,
			"count":2,
			"type":"VEC3"
		},
		{
			"bufferView":46,
			"componentType":5126,
			"count":17,
			"type":"VEC4"
		},
		{
			"bufferView":47,
			"componentType":5126,
			"count":2,
			"type":"VEC3"
		},
		{
			"bufferView":48,
			"componentType":5126,
			"count":2,
			"type":"VEC3"
		},
		{
			"bufferView":49,
			"componentType":5126,
			"count":17,
			"type":"VEC4"
		},
		{
			"bufferView":50,
			"componentType":5126,
			"count":2,
			"type":"VEC3"
		},
		{
			"bufferView":51,
			"componentType":5126,
			"count":2,
			"type":"VEC3"
		},
		{
			"bufferView":52,
			"componentType":5126,
			"count":17,
			"type":"VEC4"
		},
		{
			"bufferView":53,
			"componentType":5126,
			"count":2,
			"type":"VEC3"
		},
		{
			"bufferView":54,
			"componentType":5126,
			"count":2,
			"type":"VEC3"
		},
		{
			"bufferView":55,
			"componentType":5126,
			"count":2,
			"type":"VEC4"
		},
		{
			"bufferView":56,
			"componentType":5126,
			"count":2,
			"type":"VEC3"
		},
		{
			"bufferView":57,
			"componentType":5126,
			"count":2,
			"type":"VEC3"
		},
		{
			"bufferView":58,
			"componentType":5126,
			"count":2,
			"type":"VEC4"
		},
		{
			"bufferView":59,
			"componentType":5126,
			"count":2,
			"type":"VEC3"
		},
		{
			"bufferView":60,
			"componentType":5126,
			"count":2,
			"type":"VEC3"
		},
		{
			"bufferView":61,
			"componentType":5126,
			"count":17,
			"type":"VEC4"
		},
		{
			"bufferView":62,
			"componentType":5126,
			"count":2,
			"type":"VEC3"
		},
		{
			"bufferView":63,
			"componentType":5126,
			"count":2,
			"type":"VEC3"
		},
		{
			"bufferView":64,
			"componentType":5126,
			"count":2,
			"type":"VEC4"
		},
		{
			"bufferView":65,
			"componentType":5126,
			"count":2,
			"type":"VEC3"
		},
		{
			"bufferView":66,
			"componentType":5126,
			"count":2,
			"type":"VEC3"
		},
		{
			"bufferView":67,
			"componentType":5126,
			"count":2,
			"type":"VEC4"
		},
		{
			"bufferView":68,
			"componentType":5126,
			"count":2,
			"type":"VEC3"
		},
		{
			"bufferView":69,
			"componentType":5126,
			"count":2,
			"type":"VEC3"
		},
		{
			"bufferView":70,
			"componentType":5126,
			"count":2,
			"type":"VEC4"
		},
		{
			"bufferView":71,
			"componentType":5126,
			"count":2,
			"type":"VEC3"
		},
		{
			"bufferView":72,
			"componentType":5126,
			"count":2,
			"type":"VEC3"
		},
		{
			"bufferView":73,
			"componentType":5126,
			"count":2,
			"type":"VEC4"
		},
		{
			"bufferView":74,
			"componentType":5126,
			"count":2,
			"type":"VEC3"
		},
		{
			"bufferView":75,
			"componentType":5126,
			"count":2,
			"type":"VEC3"
		},
		{
			"bufferView":76,
			"componentType":5126,
			"count":2,
			"type":"VEC4"
		},
		{
			"bufferView":77,
			"componentType":5126,
			"count":2,
			"type":"VEC3"
		},
		{
			"bufferView":78,
			"componentType":5126,
			"count":2,
			"type":"VEC3"
		},
		{
			"bufferView":79,
			"componentType":5126,
			"count":2,
			"type":"VEC4"
		},
		{
			"bufferView":80,
			"componentType":5126,
			"count":2,
			"type":"VEC3"
		},
		{
			"bufferView":81,
			"componentType":5126,
			"count":2,
			"type":"VEC3"
		},
		{
			"bufferView":82,
			"componentType":5126,
			"count":2,
			"type":"VEC4"
		},
		{
			"bufferView":83,
			"componentType":5126,
			"count":2,
			"type":"VEC3"
		},
		{
			"bufferView":84,
			"componentType":5126,
			"count":2,
			"type":"VEC3"
		},
		{
			"bufferView":85,
			"componentType":5126,
			"count":2,
			"type":"VEC4"
		},
		{
			"bufferView":86,
			"componentType":5126,
			"count":2,
			"type":"VEC3"
		},
		{
			"bufferView":87,
			"componentType":5126,
			"count":2,
			"type":"VEC3"
		},
		{
			"bufferView":88,
			"componentType":5126,
			"count":2,
			"type":"VEC4"
		},
		{
			"bufferView":89,
			"componentType":5126,
			"count":2,
			"type":"VEC3"
		},
		{
			"bufferView":90,
			"componentType":5126,
			"count":2,
			"type":"VEC3"
		},
		{
			"bufferView":91,
			"componentType":5126,
			"count":2,
			"type":"VEC4"
		},
		{
			"bufferView":92,
			"componentType":5126,
			"count":2,
			"type":"VEC3"
		},
		{
			"bufferView":93,
			"componentType":5126,
			"count":2,
			"max":[
				2
			],
			"min":[
				0
			],
			"type":"SCALAR"
		},
		{
			"bufferView":94,
			"componentType":5126,
			"count":2,
			"type":"VEC3"
		},
		{
			"bufferView":95,
			"componentType":5126,
			"count":2,
			"type":"VEC4"
		},
		{
			"bufferView":96,
			"componentType":5126,
			"count":2,
			"type":"VEC3"
		},
		{
			"bufferView":97,
			"componentType":5126,
			"count":2,
			"type":"VEC3"
		},
		{
			"bufferView":98,
			"componentType":5126,
			"count":61,
			"max":[
				2
			],
			"min":[
				0
			],
			"type":"SCALAR"
		},
		{
			"bufferView":99,
			"componentType":5126,
			"count":61,
			"type":"VEC4"
		},
		{
			"bufferView":100,
			"componentType":5126,
			"count":2,
			"type":"VEC3"
		},
		{
			"bufferView":101,
			"componentType":5126,
			"count":2,
			"type":"VEC3"
		},
		{
			"bufferView":102,
			"componentType":5126,
			"count":2,
			"type":"VEC4"
		},
		{
			"bufferView":103,
			"componentType":5126,
			"count":2,
			"type":"VEC3"
		},
		{
			"bufferView":104,
			"componentType":5126,
			"count":2,
			"type":"VEC3"
		},
		{
			"bufferView":105,
			"componentType":5126,
			"count":61,
			"type":"VEC4"
		},
		{
			"bufferView":106,
			"componentType":5126,
			"count":2,
			"type":"VEC3"
		},
		{
			"bufferView":107,
			"componentType":5126,
			"count":2,
			"type":"VEC3"
		},
		{
			"bufferView":108,
			"componentType":5126,
			"count":2,
			"type":"VEC4"
		},
		{
			"bufferView":109,
			"componentType":5126,
			"count":2,
			"type":"VEC3"
		},
		{
			"bufferView":110,
			"componentType":5126,
			"count":2,
			"type":"VEC3"
		},
		{
			"bufferView":111,
			"componentType":5126,
			"count":2,
			"type":"VEC4"
		},
		{
			"bufferView":112,
			"componentType":5126,
			"count":2,
			"type":"VEC3"
		},
		{
			"bufferView":113,
			"componentType":5126,
			"count":2,
			"type":"VEC3"
		},
		{
			"bufferView":114,
			"componentType":5126,
			"count":2,
			"type":"VEC4"
		},
		{
			"bufferView":115,
			"componentType":5126,
			"count":2,
			"type":"VEC3"
		},
		{
			"bufferView":116,
			"componentType":5126,
			"count":2,
			"type":"VEC3"
		},
		{
			"bufferView":117,
			"componentType":5126,
			"count":2,
			"type":"VEC4"
		},
		{
			"bufferView":118,
			"componentType":5126,
			"count":2,
			"type":"VEC3"
		},
		{
			"bufferView":119,
			"componentType":5126,
			"count":2,
			"type":"VEC3"
		},
		{
			"bufferView":120,
			"componentType":5126,
			"count":2,
			"type":"VEC4"
		},
		{
			"bufferView":121,
			"componentType":5126,
			"count":2,
			"type":"VEC3"
		},
		{
			"bufferView":122,
			"componentType":5126,
			"count":2,
			"type":"VEC3"
		},
		{
			"bufferView":123,
			"componentType":5126,
			"count":2,
			"type":"VEC4"
		},
		{
			"bufferView":124,
			"componentType":5126,
			"count":2,
			"type":"VEC3"
		},
		{
			"bufferView":125,
			"componentType":5126,
			"count":2,
			"type":"VEC3"
		},
		{
			"bufferView":126,
			"componentType":5126,
			"count":61,
			"type":"VEC4"
		},
		{
			"bufferView":127,
			"componentType":5126,
			"count":2,
			"type":"VEC3"
		},
		{
			"bufferView":128,
			"componentType":5126,
			"count":2,
			"type":"VEC3"
		},
		{
			"bufferView":129,
			"componentType":5126,
			"count":61,
			"type":"VEC4"
		},
		{
			"bufferView":130,
			"componentType":5126,
			"count":2,
			"type":"VEC3"
		},
		{
			"bufferView":131,
			"componentType":5126,
			"count":2,
			"type":"VEC3"
		},
		{
			"bufferView":132,
			"componentType":5126,
			"count":2,
			"type":"VEC4"
		},
		{
			"bufferView":133,
			"componentType":5126,
			"count":2,
			"type":"VEC3"
		},
		{
			"bufferView":134,
			"componentType":5126,
			"count":2,
			"type":"VEC3"
		},
		{
			"bufferView":135,
			"componentType":5126,
			"count":2,
			"type":"VEC4"
		},
		{
			"bufferView":136,
			"componentType":5126,
			"count":2,
			"type":"VEC3"
		},
		{
			"bufferView":137,
			"componentType":5126,
			"count":2,
			"type":"VEC3"
		},
		{
			"bufferView":138,
			"componentType":5126,
			"count":2,
			"type":"VEC4"
		},
		{
			"bufferView":139,
			"componentType":5126,
			"count":2,
			"type":"VEC3"
		},
		{
			"bufferView":140,
			"componentType":5126,
			"count":2,
			"type":"VEC3"
		},
		{
			"bufferView":141,
			"componentType":5126,
			"count":2,
			"type":"VEC4"
		},
		{
			"bufferView":142,
			"componentType":5126,
			"count":2,
			"type":"VEC3"
		},
		{
			"bufferView":143,
			"componentType":5126,
			"count":2,
			"type":"VEC3"
		},
		{
			"bufferView":144,
			"componentType":5126,
			"count":2,
			"type":"VEC4"
		},
		{
			"bufferView":145,
			"componentType":5126,
			"count":2,
			"type":"VEC3"
		},
		{
			"bufferView":146,
			"componentType":5126,
			"count":2,
			"type":"VEC3"
		},
		{
			"bufferView":147,
			"componentType":5126,
			"count":2,
			"type":"VEC4"
		},
		{
			"bufferView":148,
			"componentType":5126,
			"count":2,
			"type":"VEC3"
		},
		{
			"bufferView":149,
			"componentType":5126,
			"count":25,
			"max":[
				0.8
			],
			"min":[
				0
			],
			"type":"SCALAR"
		},
		{
			"bufferView":150,
			"componentType":5126,
			"count":25,
			"type":"VEC3"
		},
		{
			"bufferView":151,
			"componentType":5126,
			"count":2,
			"max":[
				0.8
			],
			"min":[
				0
			],
			"type":"SCALAR"
		},
		{
			"bufferView":152,
			"componentType":5126,
			"count":2,
			"type":"VEC4"
		},
		{
			"bufferView":153,
			"componentType":5126,
			"count":2,
			"type":"VEC3"
		},
		{
			"bufferView":154,
			"componentType":5126,
			"count":2,
			"type":"VEC3"
		},
		{
			"bufferView":155,
			"componentType":5126,
			"count":2,
			"type":"VEC4"
		},
		{
			"bufferView":156,
			"componentType":5126,
			"count":2,
			"type":"VEC3"
		},
		{
			"bufferView":157,
			"componentType":5126,
			"count":2,
			"type":"VEC3"
		},
		{
			"bufferView":158,
			"componentType":5126,
			"count":2,
			"type":"VEC4"
		},
		{
			"bufferView":159,
			"componentType":5126,
			"count":2,
			"type":"VEC3"
		},
		{
			"bufferView":160,
			"componentType":5126,
			"count":2,
			"type":"VEC3"
		},
		{
			"bufferView":161,
			"componentType":5126,
			"count":25,
			"type":"VEC4"
		},
		{
			"bufferView":162,
			"componentType":5126,
			"count":2,
			"type":"VEC3"
		},
		{
			"bufferView":163,
			"componentType":5126,
			"count":2,
			"type":"VEC3"
		},
		{
			"bufferView":164,
			"componentType":5126,
			"count":25,
			"type":"VEC4"
		},
		{
			"bufferView":165,
			"componentType":5126,
			"count":2,
			"type":"VEC3"
		},
		{
			"bufferView":166,
			"componentType":5126,
			"count":2,
			"type":"VEC3"
		},
		{
			"bufferView":167,
			"componentType":5126,
			"count":25,
			"type":"VEC4"
		},
		{
			"bufferView":168,
			"componentType":5126,
			"count":2,
			"type":"VEC3"
		},
		{
			"bufferView":169,
			"componentType":5126,
			"count":2,
			"type":"VEC3"
		},
		{
			"bufferView":170,
			"componentType":5126,
			"count":2,
			"type":"VEC4"
		},
		{
			"bufferView":171,
			"componentType":5126,
			"count":2,
			"type":"VEC3"
		},
		{
			"bufferView":172,
			"componentType":5126,
			"count":2,
			"type":"VEC3"
		},
		{
			"bufferView":173,
			"componentType":5126,
			"count":25,
			"type":"VEC4"
		},
		{
			"bufferView":174,
			"componentType":5126,
			"count":2,
			"type":"VEC3"
		},
		{
			"bufferView":175,
			"componentType":5126,
			"count":2,
			"type":"VEC3"
		},
		{
			"bufferView":176,
			"componentType":5126,
			"count":25,
			"type":"VEC4"
		},
		{
			"bufferView":177,
			"componentType":5126,
			"count":2,
			"type":"VEC3"
		},
		{
			"bufferView":178,
			"componentType":5126,
			"count":2,
			"type":"VEC3"
		},
		{
			"bufferView":179,
			"componentType":5126,
			"count":2,
			"type":"VEC4"
		},
		{
			"bufferView":180,
			"componentType":5126,
			"count":2,
			"type":"VEC3"
		},
		{
			"bufferView":181,
			"componentType":5126,
			"count":2,
			"type":"VEC3"
		},
		{
			"bufferView":182,
			"componentType":5126,
			"count":25,
			"type":"VEC4"
		},
		{
			"bufferView":183,
			"componentType":5126,
			"count":2,
			"type":"VEC3"
		},
		{
			"bufferView":184,
			"componentType":5126,
			"count":2,
			"type":"VEC3"
		},
		{
			"bufferView":185,
			"componentType":5126,
			"count":2,
			"type":"VEC4"
		},
		{
			"bufferView":186,
			"componentType":5126,
			"count":2,
			"type":"VEC3"
		},
		{
			"bufferView":187,
			"componentType":5126,
			"count":2,
			"type":"VEC3"
		},
		{
			"bufferView":188,
			"componentType":5126,
			"count":25,
			"type":"VEC4"
		},
		{
			"bufferView":189,
			"componentType":5126,
			"count":2,
			"type":"VEC3"
		},
		{
			"bufferView":190,
			"componentType":5126,
			"count":2,
			"type":"VEC3"
		},
		{
			"bufferView":191,
			"componentType":5126,
			"count":25,
			"type":"VEC4"
		},
		{
			"bufferView":192,
			"componentType":5126,
			"count":2,
			"type":"VEC3"
		},
		{
			"bufferView":193,
			"componentType":5126,
			"count":2,
			"type":"VEC3"
		},
		{
			"bufferView":194,
			"componentType":5126,
			"count":2,
			"type":"VEC4"
		},
		{
			"bufferView":195,
			"componentType":5126,
			"count":2,
			"type":"VEC3"
		},
		{
			"bufferView":196,
			"componentType":5126,
			"count":2,
			"type":"VEC3"
		},
		{
			"bufferView":197,
			"componentType":5126,
			"count":25,
			"type":"VEC4"
		},
		{
			"bufferView":198,
			"componentType":5126,
			"count":2,
			"type":"VEC3"
		},
		{
			"bufferView":199,
			"componentType":5126,
			"count":2,
			"type":"VEC3"
		},
		{
			"bufferView":200,
			"componentType":5126,
			"count":25,
			"type":"VEC4"
		},
		{
			"bufferView":201,
			"componentType":5126,
			"count":2,
			"type":"VEC3"
		},
		{
			"bufferView":202,
			"componentType":5126,
			"count":2,
			"type":"VEC3"
		},
		{
			"bufferView":203,
			"componentType":5126,
			"count":2,
			"type":"VEC4"
		},
		{
			"bufferView":204,
			"componentType":5126,
			"count":2,
			"type":"VEC3"
		}
	],
	"bufferViews":[
		{
			"buffer":0,
			"byteLength":49260,
			"byteOffset":0,
			"target":34962
		},
		{
			"buffer":0,
			"byteLength":49260,
			"byteOffset":49260,
			"target":34962
		},
		{
			"buffer":0,
			"byteLength":32840,
			"byteOffset":98520,
			"target":34962
		},
		{
			"buffer":0,
			"byteLength":16420,
			"byteOffset":131360,
			"target":34962
		},
		{
			"buffer":0,
			"byteLength":65680,
			"byteOffset":147780,
			"target":34962
		},
		{
			"buffer":0,
			"byteLength":35856,
			"byteOffset":213460,
			"target":34963
		},
		{
			"buffer":0,
			"byteLength":660,
			"byteOffset":249316,
			"target":34962
		},
		{
			"buffer":0,
			"byteLength":660,
			"byteOffset":249976,
			"target":34962
		},
		{
			"buffer":0,
			"byteLength":440,
			"byteOffset":250636,
			"target":34962
		},
		{
			"buffer":0,
			"byteLength":220,
			"byteOffset":251076,
			"target":34962
		},
		{
			"buffer":0,
			"byteLength":880,
			"byteOffset":251296,
			"target":34962
		},
		{
			"buffer":0,
			"byteLength":480,
			"byteOffset":252176,
			"target":34963
		},
		{
			"buffer":0,
			"byteLength":2640,
			"byteOffset":252656,
			"target":34962
		},
		{
			"buffer":0,
			"byteLength":2640,
			"byteOffset":255296,
			"target":34962
		},
		{
			"buffer":0,
			"byteLength":1760,
			"byteOffset":257936,
			"target":34962
		},
		{
			"buffer":0,
			"byteLength":880,
			"byteOffset":259696,
			"target":34962
		},
		{
			"buffer":0,
			"byteLength":3520,
			"byteOffset":260576,
			"target":34962
		},
		{
			"buffer":0,
			"byteLength":1440,
			"byteOffset":264096,
			"target":34963
		},
		{
			"buffer":0,
			"byteLength":1320,
			"byteOffset":265536,
			"target":34962
		},
		{
			"buffer":0,
			"byteLength":1320,
			"byteOffset":266856,
			"target":34962
		},
		{
			"buffer":0,
			"byteLength":880,
			"byteOffset":268176,
			"target":34962
		},
		{
			"buffer":0,
			"byteLength":440,
			"byteOffset":269056,
			"target":34962
		},
		{
			"buffer":0,
			"byteLength":1760,
			"byteOffset":269496,
			"target":34962
		},
		{
			"buffer":0,
			"byteLength":720,
			"byteOffset":271256,
			"target":34963
		},
		{
			"buffer":0,
			"byteLength":816,
			"byteOffset":271976,
			"target":34962
		},
		{
			"buffer":0,
			"byteLength":816,
			"byteOffset":272792,
			"target":34962
		},
		{
			"buffer":0,
			"byteLength":544,
			"byteOffset":273608,
			"target":34962
		},
		{
			"buffer":0,
			"byteLength":272,
			"byteOffset":274152,
			"target":34962
		},
		{
			"buffer":0,
			"byteLength":1088,
			"byteOffset":274424,
			"target":34962
		},
		{
			"buffer":0,
			"byteLength":288,
			"byteOffset":275512,
			"target":34963
		},
		{
			"buffer":0,
			"byteLength":3672,
			"byteOffset":275800,
			"target":34962
		},
		{
			"buffer":0,
			"byteLength":3672,
			"byteOffset":279472,
			"target":34962
		},
		{
			"buffer":0,
			"byteLength":2448,
			"byteOffset":283144,
			"target":34962
		},
		{
			"buffer":0,
			"byteLength":1224,
			"byteOffset":285592,
			"target":34962
		},
		{
			"buffer":0,
			"byteLength":4896,
			"byteOffset":286816,
			"target":34962
		},
		{
			"buffer":0,
			"byteLength":1296,
			"byteOffset":291712,
			"target":34963
		},
		{
			"buffer":0,
			"byteLength":1152,
			"byteOffset":293008
		},
		{
			"buffer":0,
			"byteLength":68,
			"byteOffset":294160
		},
		{
			"buffer":0,
			"byteLength":204,
			"byteOffset":294228
		},
		{
			"buffer":0,
			"byteLength":8,
			"byteOffset":294432
		},
		{
			"buffer":0,
			"byteLength":32,
			"byteOffset":294440
		},
		{
			"buffer":0,
			"byteLength":24,
			"byteOffset":294472
		},
		{
			"buffer":0,
			"byteLength":24,
			"byteOffset":294496
		},
		{
			"buffer":0,
			"byteLength":272,
			"byteOffset":294520
		},
		{
			"buffer":0,
			"byteLength":24,
			"byteOffset":294792
		},
		{
			"buffer":0,
			"byteLength":24,
			"byteOffset":294816
		},
		{
			"buffer":0,
			"byteLength":272,
			"byteOffset":294840
		},
		{
			"buffer":0,
			"byteLength":24,
			"byteOffset":295112
		},
		{
			"buffer":0,
			"byteLength":24,
			"byteOffset":295136
		},
		{
			"buffer":0,
			"byteLength":272,
			"byteOffset":295160
		},
		{
			"buffer":0,
			"byteLength":24,
			"byteOffset":295432
		},
		{
			"buffer":0,
			"byteLength":24,
			"byteOffset":295456
		},
		{
			"buffer":0,
			"byteLength":272,
			"byteOffset":295480
		},
		{
			"buffer":0,
			"byteLength":24,
			"byteOffset":295752
		},
		{
			"buffer":0,
			"byteLength":24,
			"byteOffset":295776
		},
		{
			"buffer":0,
			"byteLength":32,
			"byteOffset":295800
		},
		{
			"buffer":0,
			"byteLength":24,
			"byteOffset":295832
		},
		{
			"buffer":0,
			"byteLength":24,
			"byteOffset":295856
		},
		{
			"buffer":0,
			"byteLength":32,
			"byteOffset":295880
		},
		{
			"buffer":0,
			"byteLength":24,
			"byteOffset":295912
		},
		{
			"buffer":0,
			"byteLength":24,
			"byteOffset":295936
		},
		{
			"buffer":0,
			"byteLength":272,
			"byteOffset":295960
		},
		{
			"buffer":0,
			"byteLength":24,
			"byteOffset":296232
		},
		{
			"buffer":0,
			"byteLength":24,
			"byteOffset":296256
		},
		{
			"buffer":0,
			"byteLength":32,
			"byteOffset":296280
		},
		{
			"buffer":0,
			"byteLength":24,
			"byteOffset":296312
		},
		{
			"buffer":0,
			"byteLength":24,
			"byteOffset":296336
		},
		{
			"buffer":0,
			"byteLength":32,
			"byteOffset":296360
		},
		{
			"buffer":0,
			"byteLength":24,
			"byteOffset":296392
		},
		{
			"buffer":0,
			"byteLength":24,
			"byteOffset":296416
		},
		{
			"buffer":0,
			"byteLength":32,
			"byteOffset":296440
		},
		{
			"buffer":0,
			"byteLength":24,
			"byteOffset":296472
		},
		{
			"buffer":0,
			"byteLength":24,
			"byteOffset":296496
		},
		{
			"buffer":0,
			"byteLength":32,
			"byteOffset":296520
		},
		{
			"buffer":0,
			"byteLength":24,
			"byteOffset":296552
		},
		{
			"buffer":0,
			"byteLength":24,
			"byteOffset":296576
		},
		{
			"buffer":0,
			"byteLength":32,
			"byteOffset":296600
		},
		{
			"buffer":0,
			"byteLength":24,
			"byteOffset":296632
		},
		{
			"buffer":0,
			"byteLength":24,
			"byteOffset":296656
		},
		{
			"buffer":0,
			"byteLength":32,
			"byteOffset":296680
		},
		{
			"buffer":0,
			"byteLength":24,
			"byteOffset":296712
		},
		{
			"buffer":0,
			"byteLength":24,
			"byteOffset":296736
		},
		{
			"buffer":0,
			"byteLength":32,
			"byteOffset":296760
		},
		{
			"buffer":0,
			"byteLength":24,
			"byteOffset":296792
		},
		{
			"buffer":0,
			"byteLength":24,
			"byteOffset":296816
		},
		{
			"buffer":0,
			"byteLength":32,
			"byteOffset":296840
		},
		{
			"buffer":0,
			"byteLength":24,
			"byteOffset":296872
		},
		{
			"buffer":0,
			"byteLength":24,
			"byteOffset":296896
		},
		{
			"buffer":0,
			"byteLength":32,
			"byteOffset":296920
		},
		{
			"buffer":0,
			"byteLength":24,
			"byteOffset":296952
		},
		{
			"buffer":0,
			"byteLength":24,
			"byteOffset":296976
		},
		{
			"buffer":0,
			"byteLength":32,
			"byteOffset":297000
		},
		{
			"buffer":0,
			"byteLength":24,
			"byteOffset":297032
		},
		{
			"buffer":0,
			"byteLength":8,
			"byteOffset":297056
		},
		{
			"buffer":0,
			"byteLength":24,
			"byteOffset":297064
		},
		{
			"buffer":0,
			"byteLength":32,
			"byteOffset":297088
		},
		{
			"buffer":0,
			"byteLength":24,
			"byteOffset":297120
		},
		{
			"buffer":0,
			"byteLength":24,
			"byteOffset":297144
		},
		{
			"buffer":0,
			"byteLength":244,
			"byteOffset":297168
		},
		{
			"buffer":0,
			"byteLength":976,
			"byteOffset":297412
		},
		{
			"buffer":0,
			"byteLength":24,
			"byteOffset":298388
		},
		{
			"buffer":0,
			"byteLength":24,
			"byteOffset":298412
		},
		{
			"buffer":0,
			"byteLength":32,
			"byteOffset":298436
		},
		{
			"buffer":0,
			"byteLength":24,
			"byteOffset":298468
		},
		{
			"buffer":0,
			"byteLength":24,
			"byteOffset":298492
		},
		{
			"buffer":0,
			"byteLength":976,
			"byteOffset":298516
		},
		{
			"buffer":0,
			"byteLength":24,
			"byteOffset":299492
		},
		{
			"buffer":0,
			"byteLength":24,
			"byteOffset":299516
		},
		{
			"buffer":0,
			"byteLength":32,
			"byteOffset":299540
		},
		{
			"buffer":0,
			"byteLength":24,
			"byteOffset":299572
		},
		{
			"buffer":0,
			"byteLength":24,
			"byteOffset":299596
		},
		{
			"buffer":0,
			"byteLength":32,
			"byteOffset":299620
		},
		{
			"buffer":0,
			"byteLength":24,
			"byteOffset":299652
		},
		{
			"buffer":0,
			"byteLength":24,
			"byteOffset":299676
		},
		{
			"buffer":0,
			"byteLength":32,
			"byteOffset":299700
		},
		{
			"buffer":0,
			"byteLength":24,
			"byteOffset":299732
		},
		{
			"buffer":0,
			"byteLength":24,
			"byteOffset":299756
		},
		{
			"buffer":0,
			"byteLength":32,
			"byteOffset":299780
		},
		{
			"buffer":0,
			"byteLength":24,
			"byteOffset":299812
		},
		{
			"buffer":0,
			"byteLength":24,
			"byteOffset":299836
		},
		{
			"buffer":0,
			"byteLength":32,
			"byteOffset":299860
		},
		{
			"buffer":0,
			"byteLength":24,
			"byteOffset":299892
		},
		{
			"buffer":0,
			"byteLength":24,
			"byteOffset":299916
		},
		{
			"buffer":0,
			"byteLength":32,
			"byteOffset":299940
		},
		{
			"buffer":0,
			"byteLength":24,
			"byteOffset":299972
		},
		{
			"buffer":0,
			"byteLength":24,
			"byteOffset":299996
		},
		{
			"buffer":0,
			"byteLength":976,
			"byteOffset":300020
		},
		{
			"buffer":0,
			"byteLength":24,
			"byteOffset":300996
		},
		{
			"buffer":0,
			"byteLength":24,
			"byteOffset":301020
		},
		{
			"buffer":0,
			"byteLength":976,
			"byteOffset":301044
		},
		{
			"buffer":0,
			"byteLength":24,
			"byteOffset":302020
		},
		{
			"buffer":0,
			"byteLength":24,
			"byteOffset":302044
		},
		{
			"buffer":0,
			"byteLength":32,
			"byteOffset":302068
		},
		{
			"buffer":0,
			"byteLength":24,
			"byteOffset":302100
		},
		{
			"buffer":0,
			"byteLength":24,
			"byteOffset":302124
		},
		{
			"buffer":0,
			"byteLength":32,
			"byteOffset":302148
		},
		{
			"buffer":0,
			"byteLength":24,
			"byteOffset":302180
		},
		{
			"buffer":0,
			"byteLength":24,
			"byteOffset":302204
		},
		{
			"buffer":0,
			"byteLength":32,
			"byteOffset":302228
		},
		{
			"buffer":0,
			"byteLength":24,
			"byteOffset":302260
		},
		{
			"buffer":0,
			"byteLength":24,
			"byteOffset":302284
		},
		{
			"buffer":0,
			"byteLength":32,
			"byteOffset":302308
		},
		{
			"buffer":0,
			"byteLength":24,
			"byteOffset":302340
		},
		{
			"buffer":0,
			"byteLength":24,
			"byteOffset":302364
		},
		{
			"buffer":0,
			"byteLength":32,
			"byteOffset":302388
		},
		{
			"buffer":0,
			"byteLength":24,
			"byteOffset":302420
		},
		{
			"buffer":0,
			"byteLength":24,
			"byteOffset":302444
		},
		{
			"buffer":0,
			"byteLength":32,
			"byteOffset":302468
		},
		{
			"buffer":0,
			"byteLength":24,
			"byteOffset":302500
		},
		{
			"buffer":0,
			"byteLength":100,
			"byteOffset":302524
		},
		{
			"buffer":0,
			"byteLength":300,
			"byteOffset":302624
		},
		{
			"buffer":0,
			"byteLength":8,
			"byteOffset":302924
		},
		{
			"buffer":0,
			"byteLength":32,
			"byteOffset":302932
		},
		{
			"buffer":0,
			"byteLength":24,
			"byteOffset":302964
		},
		{
			"buffer":0,
			"byteLength":24,
			"byteOffset":302988
		},
		{
			"buffer":0,
			"byteLength":32,
			"byteOffset":303012
		},
		{
			"buffer":0,
			"byteLength":24,
			"byteOffset":303044
		},
		{
			"buffer":0,
			"byteLength":24,
			"byteOffset":303068
		},
		{
			"buffer":0,
			"byteLength":32,
			"byteOffset":303092
		},
		{
			"buffer":0,
			"byteLength":24,
			"byteOffset":303124
		},
		{
			"buffer":0,
			"byteLength":24,
			"byteOffset":303148
		},
		{
			"buffer":0,
			"byteLength":400,
			"byteOffset":303172
		},
		{
			"buffer":0,
			"byteLength":24,
			"byteOffset":303572
		},
		{
			"buffer":0,
			"byteLength":24,
			"byteOffset":303596
		},
		{
			"buffer":0,
			"byteLength":400,
			"byteOffset":303620
		},
		{
			"buffer":0,
			"byteLength":24,
			"byteOffset":304020
		},
		{
			"buffer":0,
			"byteLength":24,
			"byteOffset":304044
		},
		{
			"buffer":0,
			"byteLength":400,
			"byteOffset":304068
		},
		{
			"buffer":0,
			"byteLength":24,
			"byteOffset":304468
		},
		{
			"buffer":0,
			"byteLength":24,
			"byteOffset":304492
		},
		{
			"buffer":0,
			"byteLength":32,
			"byteOffset":304516
		},
		{
			"buffer":0,
			"byteLength":24,
			"byteOffset":304548
		},
		{
			"buffer":0,
			"byteLength":24,
			"byteOffset":304572
		},
		{
			"buffer":0,
			"byteLength":400,
			"byteOffset":304596
		},
		{
			"buffer":0,
			"byteLength":24,
			"byteOffset":304996
		},
		{
			"buffer":0,
			"byteLength":24,
			"byteOffset":305020
		},
		{
			"buffer":0,
			"byteLength":400,
			"byteOffset":305044
		},
		{
			"buffer":0,
			"byteLength":24,
			"byteOffset":305444
		},
		{
			"buffer":0,
			"byteLength":24,
			"byteOffset":305468
		},
		{
			"buffer":0,
			"byteLength":32,
			"byteOffset":305492
		},
		{
			"buffer":0,
			"byteLength":24,
			"byteOffset":305524
		},
		{
			"buffer":0,
			"byteLength":24,
			"byteOffset":305548
		},
		{
			"buffer":0,
			"byteLength":400,
			"byteOffset":305572
		},
		{
			"buffer":0,
			"byteLength":24,
			"byteOffset":305972
		},
		{
			"buffer":0,
			"byteLength":24,
			"byteOffset":305996
		},
		{
			"buffer":0,
			"byteLength":32,
			"byteOffset":306020
		},
		{
			"buffer":0,
			"byteLength":24,
			"byteOffset":306052
		},
		{
			"buffer":0,
			"byteLength":24,
			"byteOffset":306076
		},
		{
			"buffer":0,
			"byteLength":400,
			"byteOffset":306100
		},
		{
			"buffer":0,
			"byteLength":24,
			"byteOffset":306500
		},
		{
			"buffer":0,
			"byteLength":24,
			"byteOffset":306524
		},
		{
			"buffer":0,
			"byteLength":400,
			"byteOffset":306548
		},
		{
			"buffer":0,
			"byteLength":24,
			"byteOffset":306948
		},
		{
			"buffer":0,
			"byteLength":24,
			"byteOffset":306972
		},
		{
			"buffer":0,
			"byteLength":32,
			"byteOffset":306996
		},
		{
			"buffer":0,
			"byteLength":24,
			"byteOffset":307028
		},
		{
			"buffer":0,
			"byteLength":24,
			"byteOffset":307052
		},
		{
			"buffer":0,
			"byteLength":400,
			"byteOffset":307076
		},
		{
			"buffer":0,
			"byteLength":24,
			"byteOffset":307476
		},
		{
			"buffer":0,
			"byteLength":24,
			"byteOffset":307500
		},
		{
			"buffer":0,
			"byteLength":400,
			"byteOffset":307524
		},
		{
			"buffer":0,
			"byteLength":24,
			"byteOffset":307924
		},
		{
			"buffer":0,
			"byteLength":24,
			"byteOffset":307948
		},
		{
			"buffer":0,
			"byteLength":32,
			"byteOffset":307972
		},
		{
			"buffer":0,
			"byteLength":24,
			"byteOffset":308004
		}
	],
	"samplers":[
		{
			"magFilter":9729,
			"minFilter":9987
		}
	],
	"buffers":[
		{
			"byteLength":308028,
			"uri":"armorsaurus.bin"
		}
	]
}
