{
	"asset":{
		"generator":"Khronos glTF Blender I/O v4.2.57",
		"version":"2.0"
	},
	"extensionsUsed":[
		"KHR_materials_emissive_strength",
		"KHR_materials_sheen"
	],
	"scene":0,
	"scenes":[
		{
			"name":"Scene",
			"nodes":[
				7
			]
		}
	],
	"nodes":[
		{
			"name":"wing_tip.R",
			"rotation":[
				-0.49462202191352844,
				-0.5451558828353882,
				-0.04171792045235634,
				0.6755839586257935
			],
			"scale":[
				0.9999999403953552,
				0.9999998807907104,
				0.9999999403953552
			],
			"translation":[
				3.725290298461914e-08,
				0.8860518336296082,
				3.259629011154175e-09
			]
		},
		{
			"children":[
				0
			],
			"name":"wing.R",
			"rotation":[
				0.4625212252140045,
				-2.3329727483201168e-08,
				-0.638719916343689,
				0.6149073243141174
			],
			"scale":[
				0.9999998807907104,
				0.9999999403953552,
				1
			],
			"translation":[
				0.05999999865889549,
				0.3500000238418579,
				0.11999999731779099
			]
		},
		{
			"name":"wing_tip.L",
			"rotation":[
				-0.49462202191352844,
				0.5451558828353882,
				0.04171792045235634,
				0.6755839586257935
			],
			"scale":[
				0.9999999403953552,
				0.9999998807907104,
				0.9999999403953552
			],
			"translation":[
				-3.725290298461914e-08,
				0.8860518336296082,
				3.259629011154175e-09
			]
		},
		{
			"children":[
				2
			],
			"name":"wing.L",
			"rotation":[
				0.4625212252140045,
				2.3329727483201168e-08,
				0.638719916343689,
				0.6149073243141174
			],
			"scale":[
				0.9999998807907104,
				0.9999999403953552,
				1
			],
			"translation":[
				-0.05999999865889549,
				0.3500000238418579,
				0.11999999731779099
			]
		},
		{
			"name":"head",
			"translation":[
				0,
				0.6000000238418579,
				0.10000000149011612
			]
		},
		{
			"children":[
				1,
				3,
				4
			],
			"name":"body",
			"rotation":[
				-0.7071067690849304,
				0,
				0,
				0.7071067690849304
			],
			"translation":[
				0,
				0,
				0.30000001192092896
			]
		},
		{
			"mesh":0,
			"name":"bat",
			"skin":0
		},
		{
			"children":[
				6,
				5
			],
			"name":"bat_rig"
		}
	],
	"animations":[
		{
			"channels":[
				{
					"sampler":0,
					"target":{
						"node":5,
						"path":"translation"
					}
				},
				{
					"sampler":1,
					"target":{
						"node":5,
						"path":"rotation"
					}
				},
				{
					"sampler":2,
					"target":{
						"node":5,
						"path":"scale"
					}
				},
				{
					"sampler":3,
					"target":{
						"node":1,
						"path":"translation"
					}
				},
				{
					"sampler":4,
					"target":{
						"node":1,
						"path":"rotation"
					}
				},
				{
					"sampler":5,
					"target":{
						"node":1,
						"path":"scale"
					}
				},
				{
					"sampler":6,
					"target":{
						"node":0,
						"path":"translation"
					}
				},
				{
					"sampler":7,
					"target":{
						"node":0,
						"path":"rotation"
					}
				},
				{
					"sampler":8,
					"target":{
						"node":0,
						"path":"scale"
					}
				},
				{
					"sampler":9,
					"target":{
						"node":3,
						"path":"translation"
					}
				},
				{
					"sampler":10,
					"target":{
						"node":3,
						"path":"rotation"
					}
				},
				{
					"sampler":11,
					"target":{
						"node":3,
						"path":"scale"
					}
				},
				{
					"sampler":12,
					"target":{
						"node":2,
						"path":"translation"
					}
				},
				{
					"sampler":13,
					"target":{
						"node":2,
						"path":"rotation"
					}
				},
				{
					"sampler":14,
					"target":{
						"node":2,
						"path":"scale"
					}
				},
				{
					"sampler":15,
					"target":{
						"node":4,
						"path":"translation"
					}
				},
				{
					"sampler":16,
					"target":{
						"node":4,
						"path":"rotation"
					}
				},
				{
					"sampler":17,
					"target":{
						"node":4,
						"path":"scale"
					}
				}
			],
			"name":"attack",
			"samplers":[
				{
					"input":31,
					"interpolation":"LINEAR",
					"output":32
				},
				{
					"input":31,
					"interpolation":"LINEAR",
					"output":33
				},
				{
					"input":34,
					"interpolation":"STEP",
					"output":35
				},
				{
					"input":34,
					"interpolation":"STEP",
					"output":36
				},
				{
					"input":31,
					"interpolation":"LINEAR",
					"output":37
				},
				{
					"input":34,
					"interpolation":"STEP",
					"output":38
				},
				{
					"input":34,
					"interpolation":"LINEAR",
					"output":39
				},
				{
					"input":31,
					"interpolation":"LINEAR",
					"output":40
				},
				{
					"input":34,
					"interpolation":"STEP",
					"output":41
				},
				{
					"input":34,
					"interpolation":"STEP",
					"output":42
				},
				{
					"input":31,
					"interpolation":"LINEAR",
					"output":43
				},
				{
					"input":34,
					"interpolation":"STEP",
					"output":44
				},
				{
					"input":34,
					"interpolation":"LINEAR",
					"output":45
				},
				{
					"input":31,
					"interpolation":"LINEAR",
					"output":46
				},
				{
					"input":34,
					"interpolation":"STEP",
					"output":47
				},
				{
					"input":34,
					"interpolation":"STEP",
					"output":48
				},
				{
					"input":34,
					"interpolation":"STEP",
					"output":49
				},
				{
					"input":34,
					"interpolation":"STEP",
					"output":50
				}
			]
		},
		{
			"channels":[
				{
					"sampler":0,
					"target":{
						"node":5,
						"path":"translation"
					}
				},
				{
					"sampler":1,
					"target":{
						"node":5,
						"path":"rotation"
					}
				},
				{
					"sampler":2,
					"target":{
						"node":5,
						"path":"scale"
					}
				},
				{
					"sampler":3,
					"target":{
						"node":1,
						"path":"translation"
					}
				},
				{
					"sampler":4,
					"target":{
						"node":1,
						"path":"rotation"
					}
				},
				{
					"sampler":5,
					"target":{
						"node":1,
						"path":"scale"
					}
				},
				{
					"sampler":6,
					"target":{
						"node":0,
						"path":"translation"
					}
				},
				{
					"sampler":7,
					"target":{
						"node":0,
						"path":"rotation"
					}
				},
				{
					"sampler":8,
					"target":{
						"node":0,
						"path":"scale"
					}
				},
				{
					"sampler":9,
					"target":{
						"node":3,
						"path":"translation"
					}
				},
				{
					"sampler":10,
					"target":{
						"node":3,
						"path":"rotation"
					}
				},
				{
					"sampler":11,
					"target":{
						"node":3,
						"path":"scale"
					}
				},
				{
					"sampler":12,
					"target":{
						"node":2,
						"path":"translation"
					}
				},
				{
					"sampler":13,
					"target":{
						"node":2,
						"path":"rotation"
					}
				},
				{
					"sampler":14,
					"target":{
						"node":2,
						"path":"scale"
					}
				},
				{
					"sampler":15,
					"target":{
						"node":4,
						"path":"translation"
					}
				},
				{
					"sampler":16,
					"target":{
						"node":4,
						"path":"rotation"
					}
				},
				{
					"sampler":17,
					"target":{
						"node":4,
						"path":"scale"
					}
				}
			],
			"name":"idle",
			"samplers":[
				{
					"input":51,
					"interpolation":"LINEAR",
					"output":52
				},
				{
					"input":53,
					"interpolation":"STEP",
					"output":54
				},
				{
					"input":53,
					"interpolation":"STEP",
					"output":55
				},
				{
					"input":53,
					"interpolation":"LINEAR",
					"output":56
				},
				{
					"input":51,
					"interpolation":"LINEAR",
					"output":57
				},
				{
					"input":53,
					"interpolation":"STEP",
					"output":58
				},
				{
					"input":53,
					"interpolation":"STEP",
					"output":59
				},
				{
					"input":51,
					"interpolation":"LINEAR",
					"output":60
				},
				{
					"input":53,
					"interpolation":"STEP",
					"output":61
				},
				{
					"input":53,
					"interpolation":"LINEAR",
					"output":62
				},
				{
					"input":51,
					"interpolation":"LINEAR",
					"output":63
				},
				{
					"input":53,
					"interpolation":"STEP",
					"output":64
				},
				{
					"input":53,
					"interpolation":"STEP",
					"output":65
				},
				{
					"input":51,
					"interpolation":"LINEAR",
					"output":66
				},
				{
					"input":53,
					"interpolation":"STEP",
					"output":67
				},
				{
					"input":53,
					"interpolation":"STEP",
					"output":68
				},
				{
					"input":53,
					"interpolation":"STEP",
					"output":69
				},
				{
					"input":53,
					"interpolation":"STEP",
					"output":70
				}
			]
		},
		{
			"channels":[
				{
					"sampler":0,
					"target":{
						"node":5,
						"path":"translation"
					}
				},
				{
					"sampler":1,
					"target":{
						"node":5,
						"path":"rotation"
					}
				},
				{
					"sampler":2,
					"target":{
						"node":5,
						"path":"scale"
					}
				},
				{
					"sampler":3,
					"target":{
						"node":1,
						"path":"translation"
					}
				},
				{
					"sampler":4,
					"target":{
						"node":1,
						"path":"rotation"
					}
				},
				{
					"sampler":5,
					"target":{
						"node":1,
						"path":"scale"
					}
				},
				{
					"sampler":6,
					"target":{
						"node":0,
						"path":"translation"
					}
				},
				{
					"sampler":7,
					"target":{
						"node":0,
						"path":"rotation"
					}
				},
				{
					"sampler":8,
					"target":{
						"node":0,
						"path":"scale"
					}
				},
				{
					"sampler":9,
					"target":{
						"node":3,
						"path":"translation"
					}
				},
				{
					"sampler":10,
					"target":{
						"node":3,
						"path":"rotation"
					}
				},
				{
					"sampler":11,
					"target":{
						"node":3,
						"path":"scale"
					}
				},
				{
					"sampler":12,
					"target":{
						"node":2,
						"path":"translation"
					}
				},
				{
					"sampler":13,
					"target":{
						"node":2,
						"path":"rotation"
					}
				},
				{
					"sampler":14,
					"target":{
						"node":2,
						"path":"scale"
					}
				},
				{
					"sampler":15,
					"target":{
						"node":4,
						"path":"translation"
					}
				},
				{
					"sampler":16,
					"target":{
						"node":4,
						"path":"rotation"
					}
				},
				{
					"sampler":17,
					"target":{
						"node":4,
						"path":"scale"
					}
				}
			],
			"name":"walk",
			"samplers":[
				{
					"input":71,
					"interpolation":"LINEAR",
					"output":72
				},
				{
					"input":73,
					"interpolation":"STEP",
					"output":74
				},
				{
					"input":73,
					"interpolation":"STEP",
					"output":75
				},
				{
					"input":73,
					"interpolation":"LINEAR",
					"output":76
				},
				{
					"input":71,
					"interpolation":"LINEAR",
					"output":77
				},
				{
					"input":73,
					"interpolation":"STEP",
					"output":78
				},
				{
					"input":73,
					"interpolation":"STEP",
					"output":79
				},
				{
					"input":71,
					"interpolation":"LINEAR",
					"output":80
				},
				{
					"input":73,
					"interpolation":"STEP",
					"output":81
				},
				{
					"input":73,
					"interpolation":"LINEAR",
					"output":82
				},
				{
					"input":71,
					"interpolation":"LINEAR",
					"output":83
				},
				{
					"input":73,
					"interpolation":"STEP",
					"output":84
				},
				{
					"input":73,
					"interpolation":"STEP",
					"output":85
				},
				{
					"input":71,
					"interpolation":"LINEAR",
					"output":86
				},
				{
					"input":73,
					"interpolation":"STEP",
					"output":87
				},
				{
					"input":73,
					"interpolation":"STEP",
					"output":88
				},
				{
					"input":73,
					"interpolation":"STEP",
					"output":89
				},
				{
					"input":73,
					"interpolation":"STEP",
					"output":90
				}
			]
		}
	],
	"materials":[
		{
			"extensions":{
				"KHR_materials_sheen":{
					"sheenColorFactor":[
						1.0,
						1.0,
						1.0
					],
					"sheenRoughnessFactor":0.5
				}
			},
			"name":"fur",
			"normalTexture":{
				"index":0,
				"scale":1.5
			},
			"pbrMetallicRoughness":{
				"baseColorFactor":[
					0.07323895394802094,
					0.03968190774321556,
					0.03310476616024971,
					1
				],
				"metallicFactor":0,
				"roughnessFactor":0.800000011920929
			}
		},
		{
			"emissiveFactor":[
				1,
				0.01960664801299572,
				0.010022825561463833
			],
			"extensions":{
				"KHR_materials_emissive_strength":{
					"emissiveStrength":1.600000023841858
				}
			},
			"name":"eye",
			"pbrMetallicRoughness":{
				"baseColorFactor":[
					1,
					0.01960664801299572,
					0.010022825561463833,
					1
				],
				"metallicFactor":0,
				"roughnessFactor":0.10000000149011612
			}
		},
		{
			"name":"teeth",
			"pbrMetallicRoughness":{
				"baseColorFactor":[
					0.8900054097175598,
					0.848088264465332,
					0.6920710802078247,
					1
				],
				"metallicFactor":0,
				"roughnessFactor":0.30000001192092896
			}
		},
		{
			"doubleSided":true,
			"name":"wing",
			"normalTexture":{
				"index":1,
				"scale":0.6000000238418579
			},
			"pbrMetallicRoughness":{
				"baseColorFactor":[
					0.036306485533714294,
					0.02053738757967949,
					0.017389101907610893,
					1
				],
				"metallicFactor":0,
				"roughnessFactor":0.5
			}
		},
		{
			"name":"wingbone",
			"pbrMetallicRoughness":{
				"baseColorFactor":[
					0.01454195100814104,
					0.008883580565452576,
					0.007716664578765631,
					1
				],
				"metallicFactor":0,
				"roughnessFactor":0.5
			}
		}
	],
	"meshes":[
		{
			"name":"bat",
			"primitives":[
				{
					"attributes":{
						"POSITION":0,
						"NORMAL":1,
						"TEXCOORD_0":2,
						"JOINTS_0":3,
						"WEIGHTS_0":4
					},
					"indices":5,
					"material":0
				},
				{
					"attributes":{
						"POSITION":6,
						"NORMAL":7,
						"TEXCOORD_0":8,
						"JOINTS_0":9,
						"WEIGHTS_0":10
					},
					"indices":11,
					"material":1
				},
				{
					"attributes":{
						"POSITION":12,
						"NORMAL":13,
						"TEXCOORD_0":14,
						"JOINTS_0":15,
						"WEIGHTS_0":16
					},
					"indices":17,
					"material":2
				},
				{
					"attributes":{
						"POSITION":18,
						"NORMAL":19,
						"TEXCOORD_0":20,
						"JOINTS_0":21,
						"WEIGHTS_0":22
					},
					"indices":23,
					"material":3
				},
				{
					"attributes":{
						"POSITION":24,
						"NORMAL":25,
						"TEXCOORD_0":26,
						"JOINTS_0":27,
						"WEIGHTS_0":28
					},
					"indices":29,
					"material":4
				}
			]
		}
	],
	"textures":[
		{
			"sampler":0,
			"source":0
		},
		{
			"sampler":0,
			"source":1
		}
	],
	"images":[
		{
			"mimeType":"image/png",
			"name":"N_fur",
			"uri":"texturas/N_fur.png"
		},
		{
			"mimeType":"image/png",
			"name":"N_leather",
			"uri":"texturas/N_leather.png"
		}
	],
	"skins":[
		{
			"inverseBindMatrices":30,
			"joints":[
				5,
				1,
				0,
				3,
				2,
				4
			],
			"name":"bat_rig"
		}
	],
	"accessors":[
		{
			"bufferView":0,
			"componentType":5126,
			"count":736,
			"max":[
				0.2800000011920929,
				0.5403486490249634,
				0.3446826934814453
			],
			"min":[
				-0.2800000011920929,
				-0.4524253308773041,
				-0.5855954885482788
			],
			"type":"VEC3"
		},
		{
			"bufferView":1,
			"componentType":5126,
			"count":736,
			"type":"VEC3"
		},
		{
			"bufferView":2,
			"componentType":5126,
			"count":736,
			"type":"VEC2"
		},
		{
			"bufferView":3,
			"componentType":5121,
			"count":736,
			"type":"VEC4"
		},
		{
			"bufferView":4,
			"componentType":5126,
			"count":736,
			"type":"VEC4"
		},
		{
			"bufferView":5,
			"componentType":5123,
			"count":2808,
			"type":"SCALAR"
		},
		{
			"bufferView":6,
			"componentType":5126,
			"count":160,
			"max":[
				0.09853169322013855,
				0.1850000023841858,
				-0.490978866815567
			],
			"min":[
				-0.09853169322013855,
				0.13499999046325684,
				-0.529021143913269
			],
			"type":"VEC3"
		},
		{
			"bufferView":7,
			"componentType":5126,
			"count":160,
			"type":"VEC3"
		},
		{
			"bufferView":8,
			"componentType":5126,
			"count":160,
			"type":"VEC2"
		},
		{
			"bufferView":9,
			"componentType":5121,
			"count":160,
			"type":"VEC4"
		},
		{
			"bufferView":10,
			"componentType":5126,
			"count":160,
			"type":"VEC4"
		},
		{
			"bufferView":11,
			"componentType":5123,
			"count":480,
			"type":"SCALAR"
		},
		{
			"bufferView":12,
			"componentType":5126,
			"count":68,
			"max":[
				0.03539230674505234,
				0.04999999701976776,
				-0.5579999685287476
			],
			"min":[
				-0.03539230674505234,
				-0.020000003278255463,
				-0.5820000171661377
			],
			"type":"VEC3"
		},
		{
			"bufferView":13,
			"componentType":5126,
			"count":68,
			"type":"VEC3"
		},
		{
			"bufferView":14,
			"componentType":5126,
			"count":68,
			"type":"VEC2"
		},
		{
			"bufferView":15,
			"componentType":5121,
			"count":68,
			"type":"VEC4"
		},
		{
			"bufferView":16,
			"componentType":5126,
			"count":68,
			"type":"VEC4"
		},
		{
			"bufferView":17,
			"componentType":5123,
			"count":144,
			"type":"SCALAR"
		},
		{
			"bufferView":18,
			"componentType":5126,
			"count":42,
			"max":[
				1.709999918937683,
				0.8759999871253967,
				0.3999999761581421
			],
			"min":[
				-1.709999918937683,
				-0.6899999380111694,
				-0.05000000074505806
			],
			"type":"VEC3"
		},
		{
			"bufferView":19,
			"componentType":5126,
			"count":42,
			"type":"VEC3"
		},
		{
			"bufferView":20,
			"componentType":5126,
			"count":42,
			"type":"VEC2"
		},
		{
			"bufferView":21,
			"componentType":5121,
			"count":42,
			"type":"VEC4"
		},
		{
			"bufferView":22,
			"componentType":5126,
			"count":42,
			"type":"VEC4"
		},
		{
			"bufferView":23,
			"componentType":5123,
			"count":42,
			"type":"SCALAR"
		},
		{
			"bufferView":24,
			"componentType":5126,
			"count":308,
			"max":[
				1.7114450931549072,
				0.8809689879417419,
				0.4052121937274933
			],
			"min":[
				-1.7115322351455688,
				-0.6905410289764404,
				-0.0843823105096817
			],
			"type":"VEC3"
		},
		{
			"bufferView":25,
			"componentType":5126,
			"count":308,
			"type":"VEC3"
		},
		{
			"bufferView":26,
			"componentType":5126,
			"count":308,
			"type":"VEC2"
		},
		{
			"bufferView":27,
			"componentType":5121,
			"count":308,
			"type":"VEC4"
		},
		{
			"bufferView":28,
			"componentType":5126,
			"count":308,
			"type":"VEC4"
		},
		{
			"bufferView":29,
			"componentType":5123,
			"count":624,
			"type":"SCALAR"
		},
		{
			"bufferView":30,
			"componentType":5126,
			"count":6,
			"type":"MAT4"
		},
		{
			"bufferView":31,
			"componentType":5126,
			"count":15,
			"max":[
				0.4666666666666667
			],
			"min":[
				0
			],
			"type":"SCALAR"
		},
		{
			"bufferView":32,
			"componentType":5126,
			"count":15,
			"type":"VEC3"
		},
		{
			"bufferView":33,
			"componentType":5126,
			"count":15,
			"type":"VEC4"
		},
		{
			"bufferView":34,
			"componentType":5126,
			"count":2,
			"max":[
				0.4666666666666667
			],
			"min":[
				0
			],
			"type":"SCALAR"
		},
		{
			"bufferView":35,
			"componentType":5126,
			"count":2,
			"type":"VEC3"
		},
		{
			"bufferView":36,
			"componentType":5126,
			"count":2,
			"type":"VEC3"
		},
		{
			"bufferView":37,
			"componentType":5126,
			"count":15,
			"type":"VEC4"
		},
		{
			"bufferView":38,
			"componentType":5126,
			"count":2,
			"type":"VEC3"
		},
		{
			"bufferView":39,
			"componentType":5126,
			"count":2,
			"type":"VEC3"
		},
		{
			"bufferView":40,
			"componentType":5126,
			"count":15,
			"type":"VEC4"
		},
		{
			"bufferView":41,
			"componentType":5126,
			"count":2,
			"type":"VEC3"
		},
		{
			"bufferView":42,
			"componentType":5126,
			"count":2,
			"type":"VEC3"
		},
		{
			"bufferView":43,
			"componentType":5126,
			"count":15,
			"type":"VEC4"
		},
		{
			"bufferView":44,
			"componentType":5126,
			"count":2,
			"type":"VEC3"
		},
		{
			"bufferView":45,
			"componentType":5126,
			"count":2,
			"type":"VEC3"
		},
		{
			"bufferView":46,
			"componentType":5126,
			"count":15,
			"type":"VEC4"
		},
		{
			"bufferView":47,
			"componentType":5126,
			"count":2,
			"type":"VEC3"
		},
		{
			"bufferView":48,
			"componentType":5126,
			"count":2,
			"type":"VEC3"
		},
		{
			"bufferView":49,
			"componentType":5126,
			"count":2,
			"type":"VEC4"
		},
		{
			"bufferView":50,
			"componentType":5126,
			"count":2,
			"type":"VEC3"
		},
		{
			"bufferView":51,
			"componentType":5126,
			"count":21,
			"max":[
				0.6666666666666666
			],
			"min":[
				0
			],
			"type":"SCALAR"
		},
		{
			"bufferView":52,
			"componentType":5126,
			"count":21,
			"type":"VEC3"
		},
		{
			"bufferView":53,
			"componentType":5126,
			"count":2,
			"max":[
				0.6666666666666666
			],
			"min":[
				0
			],
			"type":"SCALAR"
		},
		{
			"bufferView":54,
			"componentType":5126,
			"count":2,
			"type":"VEC4"
		},
		{
			"bufferView":55,
			"componentType":5126,
			"count":2,
			"type":"VEC3"
		},
		{
			"bufferView":56,
			"componentType":5126,
			"count":2,
			"type":"VEC3"
		},
		{
			"bufferView":57,
			"componentType":5126,
			"count":21,
			"type":"VEC4"
		},
		{
			"bufferView":58,
			"componentType":5126,
			"count":2,
			"type":"VEC3"
		},
		{
			"bufferView":59,
			"componentType":5126,
			"count":2,
			"type":"VEC3"
		},
		{
			"bufferView":60,
			"componentType":5126,
			"count":21,
			"type":"VEC4"
		},
		{
			"bufferView":61,
			"componentType":5126,
			"count":2,
			"type":"VEC3"
		},
		{
			"bufferView":62,
			"componentType":5126,
			"count":2,
			"type":"VEC3"
		},
		{
			"bufferView":63,
			"componentType":5126,
			"count":21,
			"type":"VEC4"
		},
		{
			"bufferView":64,
			"componentType":5126,
			"count":2,
			"type":"VEC3"
		},
		{
			"bufferView":65,
			"componentType":5126,
			"count":2,
			"type":"VEC3"
		},
		{
			"bufferView":66,
			"componentType":5126,
			"count":21,
			"type":"VEC4"
		},
		{
			"bufferView":67,
			"componentType":5126,
			"count":2,
			"type":"VEC3"
		},
		{
			"bufferView":68,
			"componentType":5126,
			"count":2,
			"type":"VEC3"
		},
		{
			"bufferView":69,
			"componentType":5126,
			"count":2,
			"type":"VEC4"
		},
		{
			"bufferView":70,
			"componentType":5126,
			"count":2,
			"type":"VEC3"
		},
		{
			"bufferView":71,
			"componentType":5126,
			"count":13,
			"max":[
				0.4
			],
			"min":[
				0
			],
			"type":"SCALAR"
		},
		{
			"bufferView":72,
			"componentType":5126,
			"count":13,
			"type":"VEC3"
		},
		{
			"bufferView":73,
			"componentType":5126,
			"count":2,
			"max":[
				0.4
			],
			"min":[
				0
			],
			"type":"SCALAR"
		},
		{
			"bufferView":74,
			"componentType":5126,
			"count":2,
			"type":"VEC4"
		},
		{
			"bufferView":75,
			"componentType":5126,
			"count":2,
			"type":"VEC3"
		},
		{
			"bufferView":76,
			"componentType":5126,
			"count":2,
			"type":"VEC3"
		},
		{
			"bufferView":77,
			"componentType":5126,
			"count":13,
			"type":"VEC4"
		},
		{
			"bufferView":78,
			"componentType":5126,
			"count":2,
			"type":"VEC3"
		},
		{
			"bufferView":79,
			"componentType":5126,
			"count":2,
			"type":"VEC3"
		},
		{
			"bufferView":80,
			"componentType":5126,
			"count":13,
			"type":"VEC4"
		},
		{
			"bufferView":81,
			"componentType":5126,
			"count":2,
			"type":"VEC3"
		},
		{
			"bufferView":82,
			"componentType":5126,
			"count":2,
			"type":"VEC3"
		},
		{
			"bufferView":83,
			"componentType":5126,
			"count":13,
			"type":"VEC4"
		},
		{
			"bufferView":84,
			"componentType":5126,
			"count":2,
			"type":"VEC3"
		},
		{
			"bufferView":85,
			"componentType":5126,
			"count":2,
			"type":"VEC3"
		},
		{
			"bufferView":86,
			"componentType":5126,
			"count":13,
			"type":"VEC4"
		},
		{
			"bufferView":87,
			"componentType":5126,
			"count":2,
			"type":"VEC3"
		},
		{
			"bufferView":88,
			"componentType":5126,
			"count":2,
			"type":"VEC3"
		},
		{
			"bufferView":89,
			"componentType":5126,
			"count":2,
			"type":"VEC4"
		},
		{
			"bufferView":90,
			"componentType":5126,
			"count":2,
			"type":"VEC3"
		}
	],
	"bufferViews":[
		{
			"buffer":0,
			"byteLength":8832,
			"byteOffset":0,
			"target":34962
		},
		{
			"buffer":0,
			"byteLength":8832,
			"byteOffset":8832,
			"target":34962
		},
		{
			"buffer":0,
			"byteLength":5888,
			"byteOffset":17664,
			"target":34962
		},
		{
			"buffer":0,
			"byteLength":2944,
			"byteOffset":23552,
			"target":34962
		},
		{
			"buffer":0,
			"byteLength":11776,
			"byteOffset":26496,
			"target":34962
		},
		{
			"buffer":0,
			"byteLength":5616,
			"byteOffset":38272,
			"target":34963
		},
		{
			"buffer":0,
			"byteLength":1920,
			"byteOffset":43888,
			"target":34962
		},
		{
			"buffer":0,
			"byteLength":1920,
			"byteOffset":45808,
			"target":34962
		},
		{
			"buffer":0,
			"byteLength":1280,
			"byteOffset":47728,
			"target":34962
		},
		{
			"buffer":0,
			"byteLength":640,
			"byteOffset":49008,
			"target":34962
		},
		{
			"buffer":0,
			"byteLength":2560,
			"byteOffset":49648,
			"target":34962
		},
		{
			"buffer":0,
			"byteLength":960,
			"byteOffset":52208,
			"target":34963
		},
		{
			"buffer":0,
			"byteLength":816,
			"byteOffset":53168,
			"target":34962
		},
		{
			"buffer":0,
			"byteLength":816,
			"byteOffset":53984,
			"target":34962
		},
		{
			"buffer":0,
			"byteLength":544,
			"byteOffset":54800,
			"target":34962
		},
		{
			"buffer":0,
			"byteLength":272,
			"byteOffset":55344,
			"target":34962
		},
		{
			"buffer":0,
			"byteLength":1088,
			"byteOffset":55616,
			"target":34962
		},
		{
			"buffer":0,
			"byteLength":288,
			"byteOffset":56704,
			"target":34963
		},
		{
			"buffer":0,
			"byteLength":504,
			"byteOffset":56992,
			"target":34962
		},
		{
			"buffer":0,
			"byteLength":504,
			"byteOffset":57496,
			"target":34962
		},
		{
			"buffer":0,
			"byteLength":336,
			"byteOffset":58000,
			"target":34962
		},
		{
			"buffer":0,
			"byteLength":168,
			"byteOffset":58336,
			"target":34962
		},
		{
			"buffer":0,
			"byteLength":672,
			"byteOffset":58504,
			"target":34962
		},
		{
			"buffer":0,
			"byteLength":84,
			"byteOffset":59176,
			"target":34963
		},
		{
			"buffer":0,
			"byteLength":3696,
			"byteOffset":59260,
			"target":34962
		},
		{
			"buffer":0,
			"byteLength":3696,
			"byteOffset":62956,
			"target":34962
		},
		{
			"buffer":0,
			"byteLength":2464,
			"byteOffset":66652,
			"target":34962
		},
		{
			"buffer":0,
			"byteLength":1232,
			"byteOffset":69116,
			"target":34962
		},
		{
			"buffer":0,
			"byteLength":4928,
			"byteOffset":70348,
			"target":34962
		},
		{
			"buffer":0,
			"byteLength":1248,
			"byteOffset":75276,
			"target":34963
		},
		{
			"buffer":0,
			"byteLength":384,
			"byteOffset":76524
		},
		{
			"buffer":0,
			"byteLength":60,
			"byteOffset":76908
		},
		{
			"buffer":0,
			"byteLength":180,
			"byteOffset":76968
		},
		{
			"buffer":0,
			"byteLength":240,
			"byteOffset":77148
		},
		{
			"buffer":0,
			"byteLength":8,
			"byteOffset":77388
		},
		{
			"buffer":0,
			"byteLength":24,
			"byteOffset":77396
		},
		{
			"buffer":0,
			"byteLength":24,
			"byteOffset":77420
		},
		{
			"buffer":0,
			"byteLength":240,
			"byteOffset":77444
		},
		{
			"buffer":0,
			"byteLength":24,
			"byteOffset":77684
		},
		{
			"buffer":0,
			"byteLength":24,
			"byteOffset":77708
		},
		{
			"buffer":0,
			"byteLength":240,
			"byteOffset":77732
		},
		{
			"buffer":0,
			"byteLength":24,
			"byteOffset":77972
		},
		{
			"buffer":0,
			"byteLength":24,
			"byteOffset":77996
		},
		{
			"buffer":0,
			"byteLength":240,
			"byteOffset":78020
		},
		{
			"buffer":0,
			"byteLength":24,
			"byteOffset":78260
		},
		{
			"buffer":0,
			"byteLength":24,
			"byteOffset":78284
		},
		{
			"buffer":0,
			"byteLength":240,
			"byteOffset":78308
		},
		{
			"buffer":0,
			"byteLength":24,
			"byteOffset":78548
		},
		{
			"buffer":0,
			"byteLength":24,
			"byteOffset":78572
		},
		{
			"buffer":0,
			"byteLength":32,
			"byteOffset":78596
		},
		{
			"buffer":0,
			"byteLength":24,
			"byteOffset":78628
		},
		{
			"buffer":0,
			"byteLength":84,
			"byteOffset":78652
		},
		{
			"buffer":0,
			"byteLength":252,
			"byteOffset":78736
		},
		{
			"buffer":0,
			"byteLength":8,
			"byteOffset":78988
		},
		{
			"buffer":0,
			"byteLength":32,
			"byteOffset":78996
		},
		{
			"buffer":0,
			"byteLength":24,
			"byteOffset":79028
		},
		{
			"buffer":0,
			"byteLength":24,
			"byteOffset":79052
		},
		{
			"buffer":0,
			"byteLength":336,
			"byteOffset":79076
		},
		{
			"buffer":0,
			"byteLength":24,
			"byteOffset":79412
		},
		{
			"buffer":0,
			"byteLength":24,
			"byteOffset":79436
		},
		{
			"buffer":0,
			"byteLength":336,
			"byteOffset":79460
		},
		{
			"buffer":0,
			"byteLength":24,
			"byteOffset":79796
		},
		{
			"buffer":0,
			"byteLength":24,
			"byteOffset":79820
		},
		{
			"buffer":0,
			"byteLength":336,
			"byteOffset":79844
		},
		{
			"buffer":0,
			"byteLength":24,
			"byteOffset":80180
		},
		{
			"buffer":0,
			"byteLength":24,
			"byteOffset":80204
		},
		{
			"buffer":0,
			"byteLength":336,
			"byteOffset":80228
		},
		{
			"buffer":0,
			"byteLength":24,
			"byteOffset":80564
		},
		{
			"buffer":0,
			"byteLength":24,
			"byteOffset":80588
		},
		{
			"buffer":0,
			"byteLength":32,
			"byteOffset":80612
		},
		{
			"buffer":0,
			"byteLength":24,
			"byteOffset":80644
		},
		{
			"buffer":0,
			"byteLength":52,
			"byteOffset":80668
		},
		{
			"buffer":0,
			"byteLength":156,
			"byteOffset":80720
		},
		{
			"buffer":0,
			"byteLength":8,
			"byteOffset":80876
		},
		{
			"buffer":0,
			"byteLength":32,
			"byteOffset":80884
		},
		{
			"buffer":0,
			"byteLength":24,
			"byteOffset":80916
		},
		{
			"buffer":0,
			"byteLength":24,
			"byteOffset":80940
		},
		{
			"buffer":0,
			"byteLength":208,
			"byteOffset":80964
		},
		{
			"buffer":0,
			"byteLength":24,
			"byteOffset":81172
		},
		{
			"buffer":0,
			"byteLength":24,
			"byteOffset":81196
		},
		{
			"buffer":0,
			"byteLength":208,
			"byteOffset":81220
		},
		{
			"buffer":0,
			"byteLength":24,
			"byteOffset":81428
		},
		{
			"buffer":0,
			"byteLength":24,
			"byteOffset":81452
		},
		{
			"buffer":0,
			"byteLength":208,
			"byteOffset":81476
		},
		{
			"buffer":0,
			"byteLength":24,
			"byteOffset":81684
		},
		{
			"buffer":0,
			"byteLength":24,
			"byteOffset":81708
		},
		{
			"buffer":0,
			"byteLength":208,
			"byteOffset":81732
		},
		{
			"buffer":0,
			"byteLength":24,
			"byteOffset":81940
		},
		{
			"buffer":0,
			"byteLength":24,
			"byteOffset":81964
		},
		{
			"buffer":0,
			"byteLength":32,
			"byteOffset":81988
		},
		{
			"buffer":0,
			"byteLength":24,
			"byteOffset":82020
		}
	],
	"samplers":[
		{
			"magFilter":9729,
			"minFilter":9987
		}
	],
	"buffers":[
		{
			"byteLength":82044,
			"uri":"bat.bin"
		}
	]
}
