{
	"asset":{
		"generator":"Khronos glTF Blender I/O v4.2.57",
		"version":"2.0"
	},
	"extensionsUsed":[
		"KHR_materials_clearcoat",
		"KHR_materials_sheen"
	],
	"scene":0,
	"scenes":[
		{
			"name":"Scene",
			"nodes":[
				18
			]
		}
	],
	"nodes":[
		{
			"name":"head",
			"rotation":[
				-3.552713678800501e-15,
				0,
				0,
				1
			],
			"translation":[
				0,
				0.10500001907348633,
				0
			]
		},
		{
			"children":[
				0
			],
			"name":"neck",
			"rotation":[
				-3.552713678800501e-15,
				0,
				0,
				1
			],
			"translation":[
				0,
				0.22050023078918457,
				0
			]
		},
		{
			"name":"hand.R",
			"rotation":[
				-0.0028319114353507757,
				-0.020585626363754272,
				0.022130034863948822,
				0.9995391368865967
			],
			"translation":[
				7.654307410120964e-08,
				0.2643134593963623,
				2.7939677238464355e-09
			]
		},
		{
			"children":[
				2
			],
			"name":"forearm.R",
			"rotation":[
				0.04786790907382965,
				-0.06073949858546257,
				0.07015407830476761,
				0.9945339560508728
			],
			"scale":[
				1,
				1.0000001192092896,
				1
			],
			"translation":[
				-1.5133991837501526e-08,
				0.29011332988739014,
				3.725290298461914e-09
			]
		},
		{
			"children":[
				3
			],
			"name":"upper_arm.R",
			"rotation":[
				0.988559901714325,
				0.10654284060001373,
				0.10654275119304657,
				0.0068230596370995045
			],
			"scale":[
				1.000000238418579,
				1,
				1
			],
			"translation":[
				0.22679999470710754,
				0.1679999828338623,
				0
			]
		},
		{
			"name":"hand.L",
			"rotation":[
				-0.0028319114353507757,
				0.020585626363754272,
				-0.022130034863948822,
				0.9995391368865967
			],
			"translation":[
				-7.654307410120964e-08,
				0.2643134593963623,
				2.7939677238464355e-09
			]
		},
		{
			"children":[
				5
			],
			"name":"forearm.L",
			"rotation":[
				0.04786790907382965,
				0.06073949858546257,
				-0.07015407830476761,
				0.9945339560508728
			],
			"scale":[
				1,
				1.0000001192092896,
				1
			],
			"translation":[
				1.5133991837501526e-08,
				0.29011332988739014,
				3.725290298461914e-09
			]
		},
		{
			"children":[
				6
			],
			"name":"upper_arm.L",
			"rotation":[
				0.988559901714325,
				-0.10654284060001373,
				-0.10654275119304657,
				0.0068230596370995045
			],
			"scale":[
				1.000000238418579,
				1,
				1
			],
			"translation":[
				-0.22679999470710754,
				0.1679999828338623,
				0
			]
		},
		{
			"children":[
				1,
				4,
				7
			],
			"name":"chest",
			"rotation":[
				-3.552713678800501e-15,
				0,
				0,
				1
			],
			"translation":[
				0,
				0.17850017547607422,
				0
			]
		},
		{
			"children":[
				8
			],
			"name":"spine",
			"rotation":[
				-3.552713678800501e-15,
				0,
				0,
				1
			],
			"translation":[
				0,
				0.1575000286102295,
				0
			]
		},
		{
			"name":"foot.R",
			"rotation":[
				0.5914182066917419,
				-2.1904775771020013e-09,
				1.6286917647878596e-10,
				0.8063650131225586
			],
			"scale":[
				1,
				1,
				0.9999999403953552
			],
			"translation":[
				7.29010363187399e-09,
				0.43111923336982727,
				2.638955720613012e-10
			]
		},
		{
			"children":[
				10
			],
			"name":"shin.R",
			"rotation":[
				-0.04151010140776634,
				-0.009864578023552895,
				0.009349511936306953,
				0.9990456700325012
			],
			"translation":[
				-4.3655745685100555e-10,
				0.4307662844657898,
				1.1641532182693481e-09
			]
		},
		{
			"children":[
				11
			],
			"name":"thigh.R",
			"rotation":[
				-0.9997993111610413,
				-0.009610525332391262,
				-0.009610524401068687,
				0.014720413833856583
			],
			"scale":[
				1,
				1.0000001192092896,
				1.000000238418579
			],
			"translation":[
				0.0965999960899353,
				-0.020999908447265625,
				0
			]
		},
		{
			"name":"foot.L",
			"rotation":[
				0.5914182066917419,
				2.1904775771020013e-09,
				-1.6286917647878596e-10,
				0.8063650131225586
			],
			"scale":[
				1,
				1,
				0.9999999403953552
			],
			"translation":[
				-7.29010363187399e-09,
				0.43111923336982727,
				2.638955720613012e-10
			]
		},
		{
			"children":[
				13
			],
			"name":"shin.L",
			"rotation":[
				-0.04151010140776634,
				0.009864578023552895,
				-0.009349511936306953,
				0.9990456700325012
			],
			"translation":[
				4.3655745685100555e-10,
				0.4307662844657898,
				1.1641532182693481e-09
			]
		},
		{
			"children":[
				14
			],
			"name":"thigh.L",
			"rotation":[
				-0.9997993111610413,
				0.009610525332391262,
				0.009610524401068687,
				0.014720413833856583
			],
			"scale":[
				1,
				1.0000001192092896,
				1.000000238418579
			],
			"translation":[
				-0.0965999960899353,
				-0.020999908447265625,
				0
			]
		},
		{
			"children":[
				9,
				12,
				15
			],
			"name":"hips",
			"rotation":[
				-2.980232594040899e-08,
				0,
				0,
				1
			],
			"scale":[
				1,
				0.9999999403953552,
				0.9999999403953552
			],
			"translation":[
				0,
				0.9764999747276306,
				0
			]
		},
		{
			"mesh":0,
			"name":"benimaru",
			"skin":0
		},
		{
			"children":[
				17,
				16
			],
			"name":"benimaru_rig"
		}
	],
	"animations":[
		{
			"channels":[
				{
					"sampler":0,
					"target":{
						"node":16,
						"path":"translation"
					}
				},
				{
					"sampler":1,
					"target":{
						"node":16,
						"path":"rotation"
					}
				},
				{
					"sampler":2,
					"target":{
						"node":16,
						"path":"scale"
					}
				},
				{
					"sampler":3,
					"target":{
						"node":9,
						"path":"translation"
					}
				},
				{
					"sampler":4,
					"target":{
						"node":9,
						"path":"rotation"
					}
				},
				{
					"sampler":5,
					"target":{
						"node":9,
						"path":"scale"
					}
				},
				{
					"sampler":6,
					"target":{
						"node":8,
						"path":"translation"
					}
				},
				{
					"sampler":7,
					"target":{
						"node":8,
						"path":"rotation"
					}
				},
				{
					"sampler":8,
					"target":{
						"node":8,
						"path":"scale"
					}
				},
				{
					"sampler":9,
					"target":{
						"node":1,
						"path":"translation"
					}
				},
				{
					"sampler":10,
					"target":{
						"node":1,
						"path":"rotation"
					}
				},
				{
					"sampler":11,
					"target":{
						"node":1,
						"path":"scale"
					}
				},
				{
					"sampler":12,
					"target":{
						"node":0,
						"path":"translation"
					}
				},
				{
					"sampler":13,
					"target":{
						"node":0,
						"path":"rotation"
					}
				},
				{
					"sampler":14,
					"target":{
						"node":0,
						"path":"scale"
					}
				},
				{
					"sampler":15,
					"target":{
						"node":4,
						"path":"translation"
					}
				},
				{
					"sampler":16,
					"target":{
						"node":4,
						"path":"rotation"
					}
				},
				{
					"sampler":17,
					"target":{
						"node":4,
						"path":"scale"
					}
				},
				{
					"sampler":18,
					"target":{
						"node":3,
						"path":"translation"
					}
				},
				{
					"sampler":19,
					"target":{
						"node":3,
						"path":"rotation"
					}
				},
				{
					"sampler":20,
					"target":{
						"node":3,
						"path":"scale"
					}
				},
				{
					"sampler":21,
					"target":{
						"node":2,
						"path":"translation"
					}
				},
				{
					"sampler":22,
					"target":{
						"node":2,
						"path":"rotation"
					}
				},
				{
					"sampler":23,
					"target":{
						"node":2,
						"path":"scale"
					}
				},
				{
					"sampler":24,
					"target":{
						"node":7,
						"path":"translation"
					}
				},
				{
					"sampler":25,
					"target":{
						"node":7,
						"path":"rotation"
					}
				},
				{
					"sampler":26,
					"target":{
						"node":7,
						"path":"scale"
					}
				},
				{
					"sampler":27,
					"target":{
						"node":6,
						"path":"translation"
					}
				},
				{
					"sampler":28,
					"target":{
						"node":6,
						"path":"rotation"
					}
				},
				{
					"sampler":29,
					"target":{
						"node":6,
						"path":"scale"
					}
				},
				{
					"sampler":30,
					"target":{
						"node":5,
						"path":"translation"
					}
				},
				{
					"sampler":31,
					"target":{
						"node":5,
						"path":"rotation"
					}
				},
				{
					"sampler":32,
					"target":{
						"node":5,
						"path":"scale"
					}
				},
				{
					"sampler":33,
					"target":{
						"node":12,
						"path":"translation"
					}
				},
				{
					"sampler":34,
					"target":{
						"node":12,
						"path":"rotation"
					}
				},
				{
					"sampler":35,
					"target":{
						"node":12,
						"path":"scale"
					}
				},
				{
					"sampler":36,
					"target":{
						"node":11,
						"path":"translation"
					}
				},
				{
					"sampler":37,
					"target":{
						"node":11,
						"path":"rotation"
					}
				},
				{
					"sampler":38,
					"target":{
						"node":11,
						"path":"scale"
					}
				},
				{
					"sampler":39,
					"target":{
						"node":10,
						"path":"translation"
					}
				},
				{
					"sampler":40,
					"target":{
						"node":10,
						"path":"rotation"
					}
				},
				{
					"sampler":41,
					"target":{
						"node":10,
						"path":"scale"
					}
				},
				{
					"sampler":42,
					"target":{
						"node":15,
						"path":"translation"
					}
				},
				{
					"sampler":43,
					"target":{
						"node":15,
						"path":"rotation"
					}
				},
				{
					"sampler":44,
					"target":{
						"node":15,
						"path":"scale"
					}
				},
				{
					"sampler":45,
					"target":{
						"node":14,
						"path":"translation"
					}
				},
				{
					"sampler":46,
					"target":{
						"node":14,
						"path":"rotation"
					}
				},
				{
					"sampler":47,
					"target":{
						"node":14,
						"path":"scale"
					}
				},
				{
					"sampler":48,
					"target":{
						"node":13,
						"path":"translation"
					}
				},
				{
					"sampler":49,
					"target":{
						"node":13,
						"path":"rotation"
					}
				},
				{
					"sampler":50,
					"target":{
						"node":13,
						"path":"scale"
					}
				}
			],
			"name":"attack",
			"samplers":[
				{
					"input":91,
					"interpolation":"STEP",
					"output":92
				},
				{
					"input":91,
					"interpolation":"STEP",
					"output":93
				},
				{
					"input":91,
					"interpolation":"STEP",
					"output":94
				},
				{
					"input":91,
					"interpolation":"STEP",
					"output":95
				},
				{
					"input":91,
					"interpolation":"STEP",
					"output":96
				},
				{
					"input":91,
					"interpolation":"STEP",
					"output":97
				},
				{
					"input":91,
					"interpolation":"STEP",
					"output":98
				},
				{
					"input":99,
					"interpolation":"LINEAR",
					"output":100
				},
				{
					"input":91,
					"interpolation":"STEP",
					"output":101
				},
				{
					"input":91,
					"interpolation":"LINEAR",
					"output":102
				},
				{
					"input":91,
					"interpolation":"STEP",
					"output":103
				},
				{
					"input":91,
					"interpolation":"STEP",
					"output":104
				},
				{
					"input":91,
					"interpolation":"LINEAR",
					"output":105
				},
				{
					"input":91,
					"interpolation":"STEP",
					"output":106
				},
				{
					"input":91,
					"interpolation":"STEP",
					"output":107
				},
				{
					"input":91,
					"interpolation":"LINEAR",
					"output":108
				},
				{
					"input":99,
					"interpolation":"LINEAR",
					"output":109
				},
				{
					"input":91,
					"interpolation":"STEP",
					"output":110
				},
				{
					"input":91,
					"interpolation":"LINEAR",
					"output":111
				},
				{
					"input":99,
					"interpolation":"LINEAR",
					"output":112
				},
				{
					"input":91,
					"interpolation":"STEP",
					"output":113
				},
				{
					"input":91,
					"interpolation":"LINEAR",
					"output":114
				},
				{
					"input":91,
					"interpolation":"LINEAR",
					"output":115
				},
				{
					"input":91,
					"interpolation":"STEP",
					"output":116
				},
				{
					"input":91,
					"interpolation":"LINEAR",
					"output":117
				},
				{
					"input":99,
					"interpolation":"LINEAR",
					"output":118
				},
				{
					"input":91,
					"interpolation":"STEP",
					"output":119
				},
				{
					"input":91,
					"interpolation":"STEP",
					"output":120
				},
				{
					"input":91,
					"interpolation":"STEP",
					"output":121
				},
				{
					"input":91,
					"interpolation":"STEP",
					"output":122
				},
				{
					"input":91,
					"interpolation":"STEP",
					"output":123
				},
				{
					"input":91,
					"interpolation":"STEP",
					"output":124
				},
				{
					"input":91,
					"interpolation":"STEP",
					"output":125
				},
				{
					"input":91,
					"interpolation":"STEP",
					"output":126
				},
				{
					"input":99,
					"interpolation":"LINEAR",
					"output":127
				},
				{
					"input":91,
					"interpolation":"STEP",
					"output":128
				},
				{
					"input":91,
					"interpolation":"LINEAR",
					"output":129
				},
				{
					"input":91,
					"interpolation":"LINEAR",
					"output":130
				},
				{
					"input":91,
					"interpolation":"STEP",
					"output":131
				},
				{
					"input":91,
					"interpolation":"LINEAR",
					"output":132
				},
				{
					"input":91,
					"interpolation":"LINEAR",
					"output":133
				},
				{
					"input":91,
					"interpolation":"STEP",
					"output":134
				},
				{
					"input":91,
					"interpolation":"STEP",
					"output":135
				},
				{
					"input":99,
					"interpolation":"LINEAR",
					"output":136
				},
				{
					"input":91,
					"interpolation":"STEP",
					"output":137
				},
				{
					"input":91,
					"interpolation":"LINEAR",
					"output":138
				},
				{
					"input":91,
					"interpolation":"LINEAR",
					"output":139
				},
				{
					"input":91,
					"interpolation":"STEP",
					"output":140
				},
				{
					"input":91,
					"interpolation":"LINEAR",
					"output":141
				},
				{
					"input":91,
					"interpolation":"LINEAR",
					"output":142
				},
				{
					"input":91,
					"interpolation":"STEP",
					"output":143
				}
			]
		},
		{
			"channels":[
				{
					"sampler":0,
					"target":{
						"node":16,
						"path":"translation"
					}
				},
				{
					"sampler":1,
					"target":{
						"node":16,
						"path":"rotation"
					}
				},
				{
					"sampler":2,
					"target":{
						"node":16,
						"path":"scale"
					}
				},
				{
					"sampler":3,
					"target":{
						"node":9,
						"path":"translation"
					}
				},
				{
					"sampler":4,
					"target":{
						"node":9,
						"path":"rotation"
					}
				},
				{
					"sampler":5,
					"target":{
						"node":9,
						"path":"scale"
					}
				},
				{
					"sampler":6,
					"target":{
						"node":8,
						"path":"translation"
					}
				},
				{
					"sampler":7,
					"target":{
						"node":8,
						"path":"rotation"
					}
				},
				{
					"sampler":8,
					"target":{
						"node":8,
						"path":"scale"
					}
				},
				{
					"sampler":9,
					"target":{
						"node":1,
						"path":"translation"
					}
				},
				{
					"sampler":10,
					"target":{
						"node":1,
						"path":"rotation"
					}
				},
				{
					"sampler":11,
					"target":{
						"node":1,
						"path":"scale"
					}
				},
				{
					"sampler":12,
					"target":{
						"node":0,
						"path":"translation"
					}
				},
				{
					"sampler":13,
					"target":{
						"node":0,
						"path":"rotation"
					}
				},
				{
					"sampler":14,
					"target":{
						"node":0,
						"path":"scale"
					}
				},
				{
					"sampler":15,
					"target":{
						"node":4,
						"path":"translation"
					}
				},
				{
					"sampler":16,
					"target":{
						"node":4,
						"path":"rotation"
					}
				},
				{
					"sampler":17,
					"target":{
						"node":4,
						"path":"scale"
					}
				},
				{
					"sampler":18,
					"target":{
						"node":3,
						"path":"translation"
					}
				},
				{
					"sampler":19,
					"target":{
						"node":3,
						"path":"rotation"
					}
				},
				{
					"sampler":20,
					"target":{
						"node":3,
						"path":"scale"
					}
				},
				{
					"sampler":21,
					"target":{
						"node":2,
						"path":"translation"
					}
				},
				{
					"sampler":22,
					"target":{
						"node":2,
						"path":"rotation"
					}
				},
				{
					"sampler":23,
					"target":{
						"node":2,
						"path":"scale"
					}
				},
				{
					"sampler":24,
					"target":{
						"node":7,
						"path":"translation"
					}
				},
				{
					"sampler":25,
					"target":{
						"node":7,
						"path":"rotation"
					}
				},
				{
					"sampler":26,
					"target":{
						"node":7,
						"path":"scale"
					}
				},
				{
					"sampler":27,
					"target":{
						"node":6,
						"path":"translation"
					}
				},
				{
					"sampler":28,
					"target":{
						"node":6,
						"path":"rotation"
					}
				},
				{
					"sampler":29,
					"target":{
						"node":6,
						"path":"scale"
					}
				},
				{
					"sampler":30,
					"target":{
						"node":5,
						"path":"translation"
					}
				},
				{
					"sampler":31,
					"target":{
						"node":5,
						"path":"rotation"
					}
				},
				{
					"sampler":32,
					"target":{
						"node":5,
						"path":"scale"
					}
				},
				{
					"sampler":33,
					"target":{
						"node":12,
						"path":"translation"
					}
				},
				{
					"sampler":34,
					"target":{
						"node":12,
						"path":"rotation"
					}
				},
				{
					"sampler":35,
					"target":{
						"node":12,
						"path":"scale"
					}
				},
				{
					"sampler":36,
					"target":{
						"node":11,
						"path":"translation"
					}
				},
				{
					"sampler":37,
					"target":{
						"node":11,
						"path":"rotation"
					}
				},
				{
					"sampler":38,
					"target":{
						"node":11,
						"path":"scale"
					}
				},
				{
					"sampler":39,
					"target":{
						"node":10,
						"path":"translation"
					}
				},
				{
					"sampler":40,
					"target":{
						"node":10,
						"path":"rotation"
					}
				},
				{
					"sampler":41,
					"target":{
						"node":10,
						"path":"scale"
					}
				},
				{
					"sampler":42,
					"target":{
						"node":15,
						"path":"translation"
					}
				},
				{
					"sampler":43,
					"target":{
						"node":15,
						"path":"rotation"
					}
				},
				{
					"sampler":44,
					"target":{
						"node":15,
						"path":"scale"
					}
				},
				{
					"sampler":45,
					"target":{
						"node":14,
						"path":"translation"
					}
				},
				{
					"sampler":46,
					"target":{
						"node":14,
						"path":"rotation"
					}
				},
				{
					"sampler":47,
					"target":{
						"node":14,
						"path":"scale"
					}
				},
				{
					"sampler":48,
					"target":{
						"node":13,
						"path":"translation"
					}
				},
				{
					"sampler":49,
					"target":{
						"node":13,
						"path":"rotation"
					}
				},
				{
					"sampler":50,
					"target":{
						"node":13,
						"path":"scale"
					}
				}
			],
			"name":"idle",
			"samplers":[
				{
					"input":144,
					"interpolation":"LINEAR",
					"output":145
				},
				{
					"input":146,
					"interpolation":"STEP",
					"output":147
				},
				{
					"input":146,
					"interpolation":"STEP",
					"output":148
				},
				{
					"input":146,
					"interpolation":"STEP",
					"output":149
				},
				{
					"input":146,
					"interpolation":"STEP",
					"output":150
				},
				{
					"input":146,
					"interpolation":"STEP",
					"output":151
				},
				{
					"input":146,
					"interpolation":"STEP",
					"output":152
				},
				{
					"input":144,
					"interpolation":"LINEAR",
					"output":153
				},
				{
					"input":146,
					"interpolation":"STEP",
					"output":154
				},
				{
					"input":146,
					"interpolation":"STEP",
					"output":155
				},
				{
					"input":146,
					"interpolation":"STEP",
					"output":156
				},
				{
					"input":146,
					"interpolation":"STEP",
					"output":157
				},
				{
					"input":146,
					"interpolation":"STEP",
					"output":158
				},
				{
					"input":144,
					"interpolation":"LINEAR",
					"output":159
				},
				{
					"input":146,
					"interpolation":"STEP",
					"output":160
				},
				{
					"input":146,
					"interpolation":"STEP",
					"output":161
				},
				{
					"input":144,
					"interpolation":"LINEAR",
					"output":162
				},
				{
					"input":146,
					"interpolation":"STEP",
					"output":163
				},
				{
					"input":146,
					"interpolation":"STEP",
					"output":164
				},
				{
					"input":146,
					"interpolation":"STEP",
					"output":165
				},
				{
					"input":146,
					"interpolation":"STEP",
					"output":166
				},
				{
					"input":146,
					"interpolation":"STEP",
					"output":167
				},
				{
					"input":146,
					"interpolation":"STEP",
					"output":168
				},
				{
					"input":146,
					"interpolation":"STEP",
					"output":169
				},
				{
					"input":146,
					"interpolation":"STEP",
					"output":170
				},
				{
					"input":144,
					"interpolation":"LINEAR",
					"output":171
				},
				{
					"input":146,
					"interpolation":"STEP",
					"output":172
				},
				{
					"input":146,
					"interpolation":"STEP",
					"output":173
				},
				{
					"input":146,
					"interpolation":"STEP",
					"output":174
				},
				{
					"input":146,
					"interpolation":"STEP",
					"output":175
				},
				{
					"input":146,
					"interpolation":"STEP",
					"output":176
				},
				{
					"input":146,
					"interpolation":"STEP",
					"output":177
				},
				{
					"input":146,
					"interpolation":"STEP",
					"output":178
				},
				{
					"input":146,
					"interpolation":"STEP",
					"output":179
				},
				{
					"input":146,
					"interpolation":"STEP",
					"output":180
				},
				{
					"input":146,
					"interpolation":"STEP",
					"output":181
				},
				{
					"input":146,
					"interpolation":"STEP",
					"output":182
				},
				{
					"input":146,
					"interpolation":"STEP",
					"output":183
				},
				{
					"input":146,
					"interpolation":"STEP",
					"output":184
				},
				{
					"input":146,
					"interpolation":"STEP",
					"output":185
				},
				{
					"input":146,
					"interpolation":"STEP",
					"output":186
				},
				{
					"input":146,
					"interpolation":"STEP",
					"output":187
				},
				{
					"input":146,
					"interpolation":"STEP",
					"output":188
				},
				{
					"input":146,
					"interpolation":"STEP",
					"output":189
				},
				{
					"input":146,
					"interpolation":"STEP",
					"output":190
				},
				{
					"input":146,
					"interpolation":"STEP",
					"output":191
				},
				{
					"input":146,
					"interpolation":"STEP",
					"output":192
				},
				{
					"input":146,
					"interpolation":"STEP",
					"output":193
				},
				{
					"input":146,
					"interpolation":"STEP",
					"output":194
				},
				{
					"input":146,
					"interpolation":"STEP",
					"output":195
				},
				{
					"input":146,
					"interpolation":"STEP",
					"output":196
				}
			]
		},
		{
			"channels":[
				{
					"sampler":0,
					"target":{
						"node":16,
						"path":"translation"
					}
				},
				{
					"sampler":1,
					"target":{
						"node":16,
						"path":"rotation"
					}
				},
				{
					"sampler":2,
					"target":{
						"node":16,
						"path":"scale"
					}
				},
				{
					"sampler":3,
					"target":{
						"node":9,
						"path":"translation"
					}
				},
				{
					"sampler":4,
					"target":{
						"node":9,
						"path":"rotation"
					}
				},
				{
					"sampler":5,
					"target":{
						"node":9,
						"path":"scale"
					}
				},
				{
					"sampler":6,
					"target":{
						"node":8,
						"path":"translation"
					}
				},
				{
					"sampler":7,
					"target":{
						"node":8,
						"path":"rotation"
					}
				},
				{
					"sampler":8,
					"target":{
						"node":8,
						"path":"scale"
					}
				},
				{
					"sampler":9,
					"target":{
						"node":1,
						"path":"translation"
					}
				},
				{
					"sampler":10,
					"target":{
						"node":1,
						"path":"rotation"
					}
				},
				{
					"sampler":11,
					"target":{
						"node":1,
						"path":"scale"
					}
				},
				{
					"sampler":12,
					"target":{
						"node":0,
						"path":"translation"
					}
				},
				{
					"sampler":13,
					"target":{
						"node":0,
						"path":"rotation"
					}
				},
				{
					"sampler":14,
					"target":{
						"node":0,
						"path":"scale"
					}
				},
				{
					"sampler":15,
					"target":{
						"node":4,
						"path":"translation"
					}
				},
				{
					"sampler":16,
					"target":{
						"node":4,
						"path":"rotation"
					}
				},
				{
					"sampler":17,
					"target":{
						"node":4,
						"path":"scale"
					}
				},
				{
					"sampler":18,
					"target":{
						"node":3,
						"path":"translation"
					}
				},
				{
					"sampler":19,
					"target":{
						"node":3,
						"path":"rotation"
					}
				},
				{
					"sampler":20,
					"target":{
						"node":3,
						"path":"scale"
					}
				},
				{
					"sampler":21,
					"target":{
						"node":2,
						"path":"translation"
					}
				},
				{
					"sampler":22,
					"target":{
						"node":2,
						"path":"rotation"
					}
				},
				{
					"sampler":23,
					"target":{
						"node":2,
						"path":"scale"
					}
				},
				{
					"sampler":24,
					"target":{
						"node":7,
						"path":"translation"
					}
				},
				{
					"sampler":25,
					"target":{
						"node":7,
						"path":"rotation"
					}
				},
				{
					"sampler":26,
					"target":{
						"node":7,
						"path":"scale"
					}
				},
				{
					"sampler":27,
					"target":{
						"node":6,
						"path":"translation"
					}
				},
				{
					"sampler":28,
					"target":{
						"node":6,
						"path":"rotation"
					}
				},
				{
					"sampler":29,
					"target":{
						"node":6,
						"path":"scale"
					}
				},
				{
					"sampler":30,
					"target":{
						"node":5,
						"path":"translation"
					}
				},
				{
					"sampler":31,
					"target":{
						"node":5,
						"path":"rotation"
					}
				},
				{
					"sampler":32,
					"target":{
						"node":5,
						"path":"scale"
					}
				},
				{
					"sampler":33,
					"target":{
						"node":12,
						"path":"translation"
					}
				},
				{
					"sampler":34,
					"target":{
						"node":12,
						"path":"rotation"
					}
				},
				{
					"sampler":35,
					"target":{
						"node":12,
						"path":"scale"
					}
				},
				{
					"sampler":36,
					"target":{
						"node":11,
						"path":"translation"
					}
				},
				{
					"sampler":37,
					"target":{
						"node":11,
						"path":"rotation"
					}
				},
				{
					"sampler":38,
					"target":{
						"node":11,
						"path":"scale"
					}
				},
				{
					"sampler":39,
					"target":{
						"node":10,
						"path":"translation"
					}
				},
				{
					"sampler":40,
					"target":{
						"node":10,
						"path":"rotation"
					}
				},
				{
					"sampler":41,
					"target":{
						"node":10,
						"path":"scale"
					}
				},
				{
					"sampler":42,
					"target":{
						"node":15,
						"path":"translation"
					}
				},
				{
					"sampler":43,
					"target":{
						"node":15,
						"path":"rotation"
					}
				},
				{
					"sampler":44,
					"target":{
						"node":15,
						"path":"scale"
					}
				},
				{
					"sampler":45,
					"target":{
						"node":14,
						"path":"translation"
					}
				},
				{
					"sampler":46,
					"target":{
						"node":14,
						"path":"rotation"
					}
				},
				{
					"sampler":47,
					"target":{
						"node":14,
						"path":"scale"
					}
				},
				{
					"sampler":48,
					"target":{
						"node":13,
						"path":"translation"
					}
				},
				{
					"sampler":49,
					"target":{
						"node":13,
						"path":"rotation"
					}
				},
				{
					"sampler":50,
					"target":{
						"node":13,
						"path":"scale"
					}
				}
			],
			"name":"walk",
			"samplers":[
				{
					"input":197,
					"interpolation":"LINEAR",
					"output":198
				},
				{
					"input":197,
					"interpolation":"LINEAR",
					"output":199
				},
				{
					"input":200,
					"interpolation":"STEP",
					"output":201
				},
				{
					"input":200,
					"interpolation":"STEP",
					"output":202
				},
				{
					"input":200,
					"interpolation":"STEP",
					"output":203
				},
				{
					"input":200,
					"interpolation":"STEP",
					"output":204
				},
				{
					"input":200,
					"interpolation":"STEP",
					"output":205
				},
				{
					"input":197,
					"interpolation":"LINEAR",
					"output":206
				},
				{
					"input":200,
					"interpolation":"STEP",
					"output":207
				},
				{
					"input":200,
					"interpolation":"STEP",
					"output":208
				},
				{
					"input":200,
					"interpolation":"STEP",
					"output":209
				},
				{
					"input":200,
					"interpolation":"STEP",
					"output":210
				},
				{
					"input":200,
					"interpolation":"STEP",
					"output":211
				},
				{
					"input":200,
					"interpolation":"STEP",
					"output":212
				},
				{
					"input":200,
					"interpolation":"STEP",
					"output":213
				},
				{
					"input":200,
					"interpolation":"STEP",
					"output":214
				},
				{
					"input":197,
					"interpolation":"LINEAR",
					"output":215
				},
				{
					"input":200,
					"interpolation":"STEP",
					"output":216
				},
				{
					"input":200,
					"interpolation":"STEP",
					"output":217
				},
				{
					"input":200,
					"interpolation":"STEP",
					"output":218
				},
				{
					"input":200,
					"interpolation":"STEP",
					"output":219
				},
				{
					"input":200,
					"interpolation":"STEP",
					"output":220
				},
				{
					"input":200,
					"interpolation":"STEP",
					"output":221
				},
				{
					"input":200,
					"interpolation":"STEP",
					"output":222
				},
				{
					"input":200,
					"interpolation":"STEP",
					"output":223
				},
				{
					"input":197,
					"interpolation":"LINEAR",
					"output":224
				},
				{
					"input":200,
					"interpolation":"STEP",
					"output":225
				},
				{
					"input":200,
					"interpolation":"STEP",
					"output":226
				},
				{
					"input":200,
					"interpolation":"STEP",
					"output":227
				},
				{
					"input":200,
					"interpolation":"STEP",
					"output":228
				},
				{
					"input":200,
					"interpolation":"STEP",
					"output":229
				},
				{
					"input":200,
					"interpolation":"STEP",
					"output":230
				},
				{
					"input":200,
					"interpolation":"STEP",
					"output":231
				},
				{
					"input":200,
					"interpolation":"STEP",
					"output":232
				},
				{
					"input":197,
					"interpolation":"LINEAR",
					"output":233
				},
				{
					"input":200,
					"interpolation":"STEP",
					"output":234
				},
				{
					"input":200,
					"interpolation":"STEP",
					"output":235
				},
				{
					"input":197,
					"interpolation":"LINEAR",
					"output":236
				},
				{
					"input":200,
					"interpolation":"STEP",
					"output":237
				},
				{
					"input":200,
					"interpolation":"STEP",
					"output":238
				},
				{
					"input":197,
					"interpolation":"LINEAR",
					"output":239
				},
				{
					"input":200,
					"interpolation":"STEP",
					"output":240
				},
				{
					"input":200,
					"interpolation":"STEP",
					"output":241
				},
				{
					"input":197,
					"interpolation":"LINEAR",
					"output":242
				},
				{
					"input":200,
					"interpolation":"STEP",
					"output":243
				},
				{
					"input":200,
					"interpolation":"STEP",
					"output":244
				},
				{
					"input":197,
					"interpolation":"LINEAR",
					"output":245
				},
				{
					"input":200,
					"interpolation":"STEP",
					"output":246
				},
				{
					"input":200,
					"interpolation":"STEP",
					"output":247
				},
				{
					"input":197,
					"interpolation":"LINEAR",
					"output":248
				},
				{
					"input":200,
					"interpolation":"STEP",
					"output":249
				}
			]
		}
	],
	"materials":[
		{
			"name":"skin",
			"normalTexture":{
				"index":0,
				"scale":0.4000000059604645
			},
			"pbrMetallicRoughness":{
				"baseColorFactor":[
					0.9551045894622803,
					0.7105664610862732,
					0.5382355451583862,
					1
				],
				"metallicFactor":0,
				"roughnessFactor":0.550000011920929
			}
		},
		{
			"extensions":{
				"KHR_materials_sheen":{
					"sheenColorFactor":[
						1.0,
						1.0,
						1.0
					],
					"sheenRoughnessFactor":0.5
				}
			},
			"name":"hair",
			"normalTexture":{
				"index":1,
				"scale":0.800000011920929
			},
			"pbrMetallicRoughness":{
				"baseColorFactor":[
					0.6920710802078247,
					0.0134117491543293,
					0.010022825561463833,
					1
				],
				"metallicFactor":0,
				"roughnessFactor":0.44999998807907104
			}
		},
		{
			"extensions":{
				"KHR_materials_sheen":{
					"sheenColorFactor":[
						1.0,
						1.0,
						1.0
					],
					"sheenRoughnessFactor":0.5
				}
			},
			"name":"outfit",
			"normalTexture":{
				"index":2,
				"scale":0.6000000238418579
			},
			"pbrMetallicRoughness":{
				"baseColorFactor":[
					0.01960664801299572,
					0.0134117491543293,
					0.0134117491543293,
					1
				],
				"metallicFactor":0,
				"roughnessFactor":0.75
			}
		},
		{
			"name":"outfit2",
			"normalTexture":{
				"index":3,
				"scale":0.4000000059604645
			},
			"pbrMetallicRoughness":{
				"baseColorFactor":[
					0.6038273572921753,
					0.01960664801299572,
					0.010022825561463833,
					1
				],
				"metallicFactor":0,
				"roughnessFactor":0.6000000238418579
			}
		},
		{
			"name":"pants",
			"normalTexture":{
				"index":4,
				"scale":0.6000000238418579
			},
			"pbrMetallicRoughness":{
				"baseColorFactor":[
					0.010816383175551891,
					0.007716664578765631,
					0.007716664578765631,
					1
				],
				"metallicFactor":0,
				"roughnessFactor":0.800000011920929
			}
		},
		{
			"extensions":{
				"KHR_materials_clearcoat":{
					"clearcoatFactor":0.30000001192092896
				}
			},
			"name":"boots",
			"normalTexture":{
				"index":5,
				"scale":0.800000011920929
			},
			"pbrMetallicRoughness":{
				"baseColorFactor":[
					0.0134117491543293,
					0.010022825561463833,
					0.010022825561463833,
					1
				],
				"metallicFactor":0,
				"roughnessFactor":0.44999998807907104
			}
		},
		{
			"name":"eye_white",
			"pbrMetallicRoughness":{
				"baseColorFactor":[
					0.8900054097175598,
					0.8900054097175598,
					0.8900054097175598,
					1
				],
				"metallicFactor":0,
				"roughnessFactor":0.20000000298023224
			}
		},
		{
			"emissiveFactor":[
				0.47244739025622096,
				0.006013695575841083,
				0.006013695575841083
			],
			"name":"iris",
			"pbrMetallicRoughness":{
				"baseColorFactor":[
					0.7874122858047485,
					0.010022825561463833,
					0.010022825561463833,
					1
				],
				"metallicFactor":0,
				"roughnessFactor":0.15000000596046448
			}
		},
		{
			"name":"pupil",
			"pbrMetallicRoughness":{
				"baseColorFactor":[
					0.0015479875728487968,
					0.0015479875728487968,
					0.0023219813592731953,
					1
				],
				"metallicFactor":0,
				"roughnessFactor":0.10000000149011612
			}
		},
		{
			"name":"lips",
			"pbrMetallicRoughness":{
				"baseColorFactor":[
					0.4283095896244049,
					0.32088616490364075,
					0.2448643445968628,
					1
				],
				"metallicFactor":0,
				"roughnessFactor":0.4000000059604645
			}
		},
		{
			"extensions":{
				"KHR_materials_clearcoat":{
					"clearcoatFactor":0.5
				}
			},
			"name":"horn",
			"pbrMetallicRoughness":{
				"baseColorFactor":[
					0.010022825561463833,
					0.010022825561463833,
					0.0134117491543293,
					1
				],
				"metallicFactor":0,
				"roughnessFactor":0.30000001192092896
			}
		},
		{
			"name":"buckle",
			"pbrMetallicRoughness":{
				"baseColorFactor":[
					0.6920710802078247,
					0.4479884207248688,
					0.07323895394802094,
					1
				],
				"metallicFactor":0.8999999761581421,
				"roughnessFactor":0.30000001192092896
			}
		},
		{
			"name":"blade",
			"normalTexture":{
				"index":6,
				"scale":0.30000001192092896
			},
			"pbrMetallicRoughness":{
				"baseColorFactor":[
					0.7484140992164612,
					0.7874122858047485,
					0.8900054097175598,
					1
				],
				"metallicFactor":0.550000011920929,
				"roughnessFactor":0.2199999988079071
			}
		},
		{
			"name":"handle",
			"normalTexture":{
				"index":7,
				"scale":0.6000000238418579
			},
			"pbrMetallicRoughness":{
				"baseColorFactor":[
					0.0134117491543293,
					0.007194409146904945,
					0.004896310158073902,
					1
				],
				"metallicFactor":0,
				"roughnessFactor":0.6000000238418579
			}
		},
		{
			"name":"guard",
			"pbrMetallicRoughness":{
				"baseColorFactor":[
					0.6038273572921753,
					0.38005632162094116,
					0.05087608844041824,
					1
				],
				"metallicFactor":0.8999999761581421,
				"roughnessFactor":0.30000001192092896
			}
		}
	],
	"meshes":[
		{
			"name":"benimaru",
			"primitives":[
				{
					"attributes":{
						"POSITION":0,
						"NORMAL":1,
						"TEXCOORD_0":2,
						"JOINTS_0":3,
						"WEIGHTS_0":4
					},
					"indices":5,
					"material":0
				},
				{
					"attributes":{
						"POSITION":6,
						"NORMAL":7,
						"TEXCOORD_0":8,
						"JOINTS_0":9,
						"WEIGHTS_0":10
					},
					"indices":11,
					"material":1
				},
				{
					"attributes":{
						"POSITION":12,
						"NORMAL":13,
						"TEXCOORD_0":14,
						"JOINTS_0":15,
						"WEIGHTS_0":16
					},
					"indices":17,
					"material":2
				},
				{
					"attributes":{
						"POSITION":18,
						"NORMAL":19,
						"TEXCOORD_0":20,
						"JOINTS_0":21,
						"WEIGHTS_0":22
					},
					"indices":23,
					"material":3
				},
				{
					"attributes":{
						"POSITION":24,
						"NORMAL":25,
						"TEXCOORD_0":26,
						"JOINTS_0":27,
						"WEIGHTS_0":28
					},
					"indices":29,
					"material":4
				},
				{
					"attributes":{
						"POSITION":30,
						"NORMAL":31,
						"TEXCOORD_0":32,
						"JOINTS_0":33,
						"WEIGHTS_0":34
					},
					"indices":35,
					"material":5
				},
				{
					"attributes":{
						"POSITION":36,
						"NORMAL":37,
						"TEXCOORD_0":38,
						"JOINTS_0":39,
						"WEIGHTS_0":40
					},
					"indices":41,
					"material":6
				},
				{
					"attributes":{
						"POSITION":42,
						"NORMAL":43,
						"TEXCOORD_0":44,
						"JOINTS_0":45,
						"WEIGHTS_0":46
					},
					"indices":47,
					"material":7
				},
				{
					"attributes":{
						"POSITION":48,
						"NORMAL":49,
						"TEXCOORD_0":50,
						"JOINTS_0":51,
						"WEIGHTS_0":52
					},
					"indices":53,
					"material":8
				},
				{
					"attributes":{
						"POSITION":54,
						"NORMAL":55,
						"TEXCOORD_0":56,
						"JOINTS_0":57,
						"WEIGHTS_0":58
					},
					"indices":59,
					"material":9
				},
				{
					"attributes":{
						"POSITION":60,
						"NORMAL":61,
						"TEXCOORD_0":62,
						"JOINTS_0":63,
						"WEIGHTS_0":64
					},
					"indices":65,
					"material":10
				},
				{
					"attributes":{
						"POSITION":66,
						"NORMAL":67,
						"TEXCOORD_0":68,
						"JOINTS_0":69,
						"WEIGHTS_0":70
					},
					"indices":71,
					"material":11
				},
				{
					"attributes":{
						"POSITION":72,
						"NORMAL":73,
						"TEXCOORD_0":74,
						"JOINTS_0":75,
						"WEIGHTS_0":76
					},
					"indices":77,
					"material":12
				},
				{
					"attributes":{
						"POSITION":78,
						"NORMAL":79,
						"TEXCOORD_0":80,
						"JOINTS_0":81,
						"WEIGHTS_0":82
					},
					"indices":83,
					"material":13
				},
				{
					"attributes":{
						"POSITION":84,
						"NORMAL":85,
						"TEXCOORD_0":86,
						"JOINTS_0":87,
						"WEIGHTS_0":88
					},
					"indices":89,
					"material":14
				}
			]
		}
	],
	"textures":[
		{
			"sampler":0,
			"source":0
		},
		{
			"sampler":0,
			"source":1
		},
		{
			"sampler":0,
			"source":2
		},
		{
			"sampler":0,
			"source":2
		},
		{
			"sampler":0,
			"source":2
		},
		{
			"sampler":0,
			"source":3
		},
		{
			"sampler":0,
			"source":4
		},
		{
			"sampler":0,
			"source":3
		}
	],
	"images":[
		{
			"mimeType":"image/png",
			"name":"N_skin",
			"uri":"texturas/N_skin.png"
		},
		{
			"mimeType":"image/png",
			"name":"N_hair",
			"uri":"texturas/N_hair.png"
		},
		{
			"mimeType":"image/png",
			"name":"N_cloth",
			"uri":"texturas/N_cloth.png"
		},
		{
			"mimeType":"image/png",
			"name":"N_leather",
			"uri":"texturas/N_leather.png"
		},
		{
			"mimeType":"image/png",
			"name":"N_metal",
			"uri":"texturas/N_metal.png"
		}
	],
	"skins":[
		{
			"inverseBindMatrices":90,
			"joints":[
				16,
				9,
				8,
				1,
				0,
				4,
				3,
				2,
				7,
				6,
				5,
				12,
				11,
				10,
				15,
				14,
				13
			],
			"name":"benimaru_rig"
		}
	],
	"accessors":[
		{
			"bufferView":0,
			"componentType":5126,
			"count":1437,
			"max":[
				0.3368537425994873,
				1.8731998205184937,
				0.11257318407297134
			],
			"min":[
				-0.3368537425994873,
				0.8236913084983826,
				-0.12188056111335754
			],
			"type":"VEC3"
		},
		{
			"bufferView":1,
			"componentType":5126,
			"count":1437,
			"type":"VEC3"
		},
		{
			"bufferView":2,
			"componentType":5126,
			"count":1437,
			"type":"VEC2"
		},
		{
			"bufferView":3,
			"componentType":5121,
			"count":1437,
			"type":"VEC4"
		},
		{
			"bufferView":4,
			"componentType":5126,
			"count":1437,
			"type":"VEC4"
		},
		{
			"bufferView":5,
			"componentType":5123,
			"count":5868,
			"type":"SCALAR"
		},
		{
			"bufferView":6,
			"componentType":5126,
			"count":2124,
			"max":[
				0.28009405732154846,
				2.0853190422058105,
				0.3313646912574768
			],
			"min":[
				-0.2751980125904083,
				1.6664067506790161,
				-0.1804717481136322
			],
			"type":"VEC3"
		},
		{
			"bufferView":7,
			"componentType":5126,
			"count":2124,
			"type":"VEC3"
		},
		{
			"bufferView":8,
			"componentType":5126,
			"count":2124,
			"type":"VEC2"
		},
		{
			"bufferView":9,
			"componentType":5121,
			"count":2124,
			"type":"VEC4"
		},
		{
			"bufferView":10,
			"componentType":5126,
			"count":2124,
			"type":"VEC4"
		},
		{
			"bufferView":11,
			"componentType":5123,
			"count":7200,
			"type":"SCALAR"
		},
		{
			"bufferView":12,
			"componentType":5126,
			"count":1461,
			"max":[
				0.3408765196800232,
				1.54792320728302,
				0.11778061091899872
			],
			"min":[
				-0.3408765196800232,
				0.9762663841247559,
				-0.117302305996418
			],
			"type":"VEC3"
		},
		{
			"bufferView":13,
			"componentType":5126,
			"count":1461,
			"type":"VEC3"
		},
		{
			"bufferView":14,
			"componentType":5126,
			"count":1461,
			"type":"VEC2"
		},
		{
			"bufferView":15,
			"componentType":5121,
			"count":1461,
			"type":"VEC4"
		},
		{
			"bufferView":16,
			"componentType":5126,
			"count":1461,
			"type":"VEC4"
		},
		{
			"bufferView":17,
			"componentType":5123,
			"count":6648,
			"type":"SCALAR"
		},
		{
			"bufferView":18,
			"componentType":5126,
			"count":65,
			"max":[
				0.14978790283203125,
				1.083508849143982,
				0.11953236907720566
			],
			"min":[
				-0.14978790283203125,
				0.9201270937919617,
				-0.12094146758317947
			],
			"type":"VEC3"
		},
		{
			"bufferView":19,
			"componentType":5126,
			"count":65,
			"type":"VEC3"
		},
		{
			"bufferView":20,
			"componentType":5126,
			"count":65,
			"type":"VEC2"
		},
		{
			"bufferView":21,
			"componentType":5121,
			"count":65,
			"type":"VEC4"
		},
		{
			"bufferView":22,
			"componentType":5126,
			"count":65,
			"type":"VEC4"
		},
		{
			"bufferView":23,
			"componentType":5123,
			"count":192,
			"type":"SCALAR"
		},
		{
			"bufferView":24,
			"componentType":5126,
			"count":977,
			"max":[
				0.3380442261695862,
				0.9841629266738892,
				0.11637930572032928
			],
			"min":[
				-0.3380441963672638,
				0.3150637447834015,
				-0.1182468980550766
			],
			"type":"VEC3"
		},
		{
			"bufferView":25,
			"componentType":5126,
			"count":977,
			"type":"VEC3"
		},
		{
			"bufferView":26,
			"componentType":5126,
			"count":977,
			"type":"VEC2"
		},
		{
			"bufferView":27,
			"componentType":5121,
			"count":977,
			"type":"VEC4"
		},
		{
			"bufferView":28,
			"componentType":5126,
			"count":977,
			"type":"VEC4"
		},
		{
			"bufferView":29,
			"componentType":5123,
			"count":4332,
			"type":"SCALAR"
		},
		{
			"bufferView":30,
			"componentType":5126,
			"count":1034,
			"max":[
				0.17476584017276764,
				0.3217693865299225,
				0.08345136791467667
			],
			"min":[
				-0.17476585507392883,
				0.007977733388543129,
				-0.14712680876255035
			],
			"type":"VEC3"
		},
		{
			"bufferView":31,
			"componentType":5126,
			"count":1034,
			"type":"VEC3"
		},
		{
			"bufferView":32,
			"componentType":5126,
			"count":1034,
			"type":"VEC2"
		},
		{
			"bufferView":33,
			"componentType":5121,
			"count":1034,
			"type":"VEC4"
		},
		{
			"bufferView":34,
			"componentType":5126,
			"count":1034,
			"type":"VEC4"
		},
		{
			"bufferView":35,
			"componentType":5123,
			"count":4608,
			"type":"SCALAR"
		},
		{
			"bufferView":36,
			"componentType":5126,
			"count":304,
			"max":[
				0.05354999750852585,
				1.770824909210205,
				-0.07349999994039536
			],
			"min":[
				-0.05354999750852585,
				1.74667489528656,
				-0.09239999204874039
			],
			"type":"VEC3"
		},
		{
			"bufferView":37,
			"componentType":5126,
			"count":304,
			"type":"VEC3"
		},
		{
			"bufferView":38,
			"componentType":5126,
			"count":304,
			"type":"VEC2"
		},
		{
			"bufferView":39,
			"componentType":5121,
			"count":304,
			"type":"VEC4"
		},
		{
			"bufferView":40,
			"componentType":5126,
			"count":304,
			"type":"VEC4"
		},
		{
			"bufferView":41,
			"componentType":5123,
			"count":1152,
			"type":"SCALAR"
		},
		{
			"bufferView":42,
			"componentType":5126,
			"count":220,
			"max":[
				0.04567499831318855,
				1.7690399885177612,
				-0.08528125286102295
			],
			"min":[
				-0.04567499831318855,
				1.7484599351882935,
				-0.09426873922348022
			],
			"type":"VEC3"
		},
		{
			"bufferView":43,
			"componentType":5126,
			"count":220,
			"type":"VEC3"
		},
		{
			"bufferView":44,
			"componentType":5126,
			"count":220,
			"type":"VEC2"
		},
		{
			"bufferView":45,
			"componentType":5121,
			"count":220,
			"type":"VEC4"
		},
		{
			"bufferView":46,
			"componentType":5126,
			"count":220,
			"type":"VEC4"
		},
		{
			"bufferView":47,
			"componentType":5123,
			"count":720,
			"type":"SCALAR"
		},
		{
			"bufferView":48,
			"componentType":5126,
			"count":160,
			"max":[
				0.03989415615797043,
				1.763474941253662,
				-0.09124277532100677
			],
			"min":[
				-0.03989415615797043,
				1.7540249824523926,
				-0.09523721784353256
			],
			"type":"VEC3"
		},
		{
			"bufferView":49,
			"componentType":5126,
			"count":160,
			"type":"VEC3"
		},
		{
			"bufferView":50,
			"componentType":5126,
			"count":160,
			"type":"VEC2"
		},
		{
			"bufferView":51,
			"componentType":5121,
			"count":160,
			"type":"VEC4"
		},
		{
			"bufferView":52,
			"componentType":5126,
			"count":160,
			"type":"VEC4"
		},
		{
			"bufferView":53,
			"componentType":5123,
			"count":480,
			"type":"SCALAR"
		},
		{
			"bufferView":54,
			"componentType":5126,
			"count":98,
			"max":[
				0.01994999870657921,
				1.6878749132156372,
				-0.08160625398159027
			],
			"min":[
				-0.01994999870657921,
				1.6784249544143677,
				-0.09059374034404755
			],
			"type":"VEC3"
		},
		{
			"bufferView":55,
			"componentType":5126,
			"count":98,
			"type":"VEC3"
		},
		{
			"bufferView":56,
			"componentType":5126,
			"count":98,
			"type":"VEC2"
		},
		{
			"bufferView":57,
			"componentType":5121,
			"count":98,
			"type":"VEC4"
		},
		{
			"bufferView":58,
			"componentType":5126,
			"count":98,
			"type":"VEC4"
		},
		{
			"bufferView":59,
			"componentType":5123,
			"count":360,
			"type":"SCALAR"
		},
		{
			"bufferView":60,
			"componentType":5126,
			"count":180,
			"max":[
				0.0672638788819313,
				1.9619379043579102,
				-0.03531935065984726
			],
			"min":[
				-0.0672638788819313,
				1.8544970750808716,
				-0.07511492818593979
			],
			"type":"VEC3"
		},
		{
			"bufferView":61,
			"componentType":5126,
			"count":180,
			"type":"VEC3"
		},
		{
			"bufferView":62,
			"componentType":5126,
			"count":180,
			"type":"VEC2"
		},
		{
			"bufferView":63,
			"componentType":5121,
			"count":180,
			"type":"VEC4"
		},
		{
			"bufferView":64,
			"componentType":5126,
			"count":180,
			"type":"VEC4"
		},
		{
			"bufferView":65,
			"componentType":5123,
			"count":576,
			"type":"SCALAR"
		},
		{
			"bufferView":66,
			"componentType":5126,
			"count":24,
			"max":[
				0.026249999180436134,
				1.0184999704360962,
				-0.09869999438524246
			],
			"min":[
				-0.026249999180436134,
				0.9764999747276306,
				-0.11129999160766602
			],
			"type":"VEC3"
		},
		{
			"bufferView":67,
			"componentType":5126,
			"count":24,
			"type":"VEC3"
		},
		{
			"bufferView":68,
			"componentType":5126,
			"count":24,
			"type":"VEC2"
		},
		{
			"bufferView":69,
			"componentType":5121,
			"count":24,
			"type":"VEC4"
		},
		{
			"bufferView":70,
			"componentType":5126,
			"count":24,
			"type":"VEC4"
		},
		{
			"bufferView":71,
			"componentType":5123,
			"count":36,
			"type":"SCALAR"
		},
		{
			"bufferView":72,
			"componentType":5126,
			"count":108,
			"max":[
				0.32214000821113586,
				0.8208495378494263,
				-0.09595727175474167
			],
			"min":[
				0.3095399737358093,
				0.40371665358543396,
				-0.8422464728355408
			],
			"type":"VEC3"
		},
		{
			"bufferView":73,
			"componentType":5126,
			"count":108,
			"type":"VEC3"
		},
		{
			"bufferView":74,
			"componentType":5126,
			"count":108,
			"type":"VEC2"
		},
		{
			"bufferView":75,
			"componentType":5121,
			"count":108,
			"type":"VEC4"
		},
		{
			"bufferView":76,
			"componentType":5126,
			"count":108,
			"type":"VEC4"
		},
		{
			"bufferView":77,
			"componentType":5123,
			"count":156,
			"type":"SCALAR"
		},
		{
			"bufferView":78,
			"componentType":5126,
			"count":42,
			"max":[
				0.33263999223709106,
				0.8984084725379944,
				0.07639588415622711
			],
			"min":[
				0.2990399897098541,
				0.7988266348838806,
				-0.09059517830610275
			],
			"type":"VEC3"
		},
		{
			"bufferView":79,
			"componentType":5126,
			"count":42,
			"type":"VEC3"
		},
		{
			"bufferView":80,
			"componentType":5126,
			"count":42,
			"type":"VEC2"
		},
		{
			"bufferView":81,
			"componentType":5121,
			"count":42,
			"type":"VEC4"
		},
		{
			"bufferView":82,
			"componentType":5126,
			"count":42,
			"type":"VEC4"
		},
		{
			"bufferView":83,
			"componentType":5123,
			"count":96,
			"type":"SCALAR"
		},
		{
			"bufferView":84,
			"componentType":5126,
			"count":74,
			"max":[
				0.36308997869491577,
				0.8507241010665894,
				-0.07029568403959274
			],
			"min":[
				0.2685900032520294,
				0.7689521908760071,
				-0.11625676602125168
			],
			"type":"VEC3"
		},
		{
			"bufferView":85,
			"componentType":5126,
			"count":74,
			"type":"VEC3"
		},
		{
			"bufferView":86,
			"componentType":5126,
			"count":74,
			"type":"VEC2"
		},
		{
			"bufferView":87,
			"componentType":5121,
			"count":74,
			"type":"VEC4"
		},
		{
			"bufferView":88,
			"componentType":5126,
			"count":74,
			"type":"VEC4"
		},
		{
			"bufferView":89,
			"componentType":5123,
			"count":144,
			"type":"SCALAR"
		},
		{
			"bufferView":90,
			"componentType":5126,
			"count":17,
			"type":"MAT4"
		},
		{
			"bufferView":91,
			"componentType":5126,
			"count":2,
			"max":[
				0.6
			],
			"min":[
				0
			],
			"type":"SCALAR"
		},
		{
			"bufferView":92,
			"componentType":5126,
			"count":2,
			"type":"VEC3"
		},
		{
			"bufferView":93,
			"componentType":5126,
			"count":2,
			"type":"VEC4"
		},
		{
			"bufferView":94,
			"componentType":5126,
			"count":2,
			"type":"VEC3"
		},
		{
			"bufferView":95,
			"componentType":5126,
			"count":2,
			"type":"VEC3"
		},
		{
			"bufferView":96,
			"componentType":5126,
			"count":2,
			"type":"VEC4"
		},
		{
			"bufferView":97,
			"componentType":5126,
			"count":2,
			"type":"VEC3"
		},
		{
			"bufferView":98,
			"componentType":5126,
			"count":2,
			"type":"VEC3"
		},
		{
			"bufferView":99,
			"componentType":5126,
			"count":19,
			"max":[
				0.6
			],
			"min":[
				0
			],
			"type":"SCALAR"
		},
		{
			"bufferView":100,
			"componentType":5126,
			"count":19,
			"type":"VEC4"
		},
		{
			"bufferView":101,
			"componentType":5126,
			"count":2,
			"type":"VEC3"
		},
		{
			"bufferView":102,
			"componentType":5126,
			"count":2,
			"type":"VEC3"
		},
		{
			"bufferView":103,
			"componentType":5126,
			"count":2,
			"type":"VEC4"
		},
		{
			"bufferView":104,
			"componentType":5126,
			"count":2,
			"type":"VEC3"
		},
		{
			"bufferView":105,
			"componentType":5126,
			"count":2,
			"type":"VEC3"
		},
		{
			"bufferView":106,
			"componentType":5126,
			"count":2,
			"type":"VEC4"
		},
		{
			"bufferView":107,
			"componentType":5126,
			"count":2,
			"type":"VEC3"
		},
		{
			"bufferView":108,
			"componentType":5126,
			"count":2,
			"type":"VEC3"
		},
		{
			"bufferView":109,
			"componentType":5126,
			"count":19,
			"type":"VEC4"
		},
		{
			"bufferView":110,
			"componentType":5126,
			"count":2,
			"type":"VEC3"
		},
		{
			"bufferView":111,
			"componentType":5126,
			"count":2,
			"type":"VEC3"
		},
		{
			"bufferView":112,
			"componentType":5126,
			"count":19,
			"type":"VEC4"
		},
		{
			"bufferView":113,
			"componentType":5126,
			"count":2,
			"type":"VEC3"
		},
		{
			"bufferView":114,
			"componentType":5126,
			"count":2,
			"type":"VEC3"
		},
		{
			"bufferView":115,
			"componentType":5126,
			"count":2,
			"type":"VEC4"
		},
		{
			"bufferView":116,
			"componentType":5126,
			"count":2,
			"type":"VEC3"
		},
		{
			"bufferView":117,
			"componentType":5126,
			"count":2,
			"type":"VEC3"
		},
		{
			"bufferView":118,
			"componentType":5126,
			"count":19,
			"type":"VEC4"
		},
		{
			"bufferView":119,
			"componentType":5126,
			"count":2,
			"type":"VEC3"
		},
		{
			"bufferView":120,
			"componentType":5126,
			"count":2,
			"type":"VEC3"
		},
		{
			"bufferView":121,
			"componentType":5126,
			"count":2,
			"type":"VEC4"
		},
		{
			"bufferView":122,
			"componentType":5126,
			"count":2,
			"type":"VEC3"
		},
		{
			"bufferView":123,
			"componentType":5126,
			"count":2,
			"type":"VEC3"
		},
		{
			"bufferView":124,
			"componentType":5126,
			"count":2,
			"type":"VEC4"
		},
		{
			"bufferView":125,
			"componentType":5126,
			"count":2,
			"type":"VEC3"
		},
		{
			"bufferView":126,
			"componentType":5126,
			"count":2,
			"type":"VEC3"
		},
		{
			"bufferView":127,
			"componentType":5126,
			"count":19,
			"type":"VEC4"
		},
		{
			"bufferView":128,
			"componentType":5126,
			"count":2,
			"type":"VEC3"
		},
		{
			"bufferView":129,
			"componentType":5126,
			"count":2,
			"type":"VEC3"
		},
		{
			"bufferView":130,
			"componentType":5126,
			"count":2,
			"type":"VEC4"
		},
		{
			"bufferView":131,
			"componentType":5126,
			"count":2,
			"type":"VEC3"
		},
		{
			"bufferView":132,
			"componentType":5126,
			"count":2,
			"type":"VEC3"
		},
		{
			"bufferView":133,
			"componentType":5126,
			"count":2,
			"type":"VEC4"
		},
		{
			"bufferView":134,
			"componentType":5126,
			"count":2,
			"type":"VEC3"
		},
		{
			"bufferView":135,
			"componentType":5126,
			"count":2,
			"type":"VEC3"
		},
		{
			"bufferView":136,
			"componentType":5126,
			"count":19,
			"type":"VEC4"
		},
		{
			"bufferView":137,
			"componentType":5126,
			"count":2,
			"type":"VEC3"
		},
		{
			"bufferView":138,
			"componentType":5126,
			"count":2,
			"type":"VEC3"
		},
		{
			"bufferView":139,
			"componentType":5126,
			"count":2,
			"type":"VEC4"
		},
		{
			"bufferView":140,
			"componentType":5126,
			"count":2,
			"type":"VEC3"
		},
		{
			"bufferView":141,
			"componentType":5126,
			"count":2,
			"type":"VEC3"
		},
		{
			"bufferView":142,
			"componentType":5126,
			"count":2,
			"type":"VEC4"
		},
		{
			"bufferView":143,
			"componentType":5126,
			"count":2,
			"type":"VEC3"
		},
		{
			"bufferView":144,
			"componentType":5126,
			"count":61,
			"max":[
				2
			],
			"min":[
				0
			],
			"type":"SCALAR"
		},
		{
			"bufferView":145,
			"componentType":5126,
			"count":61,
			"type":"VEC3"
		},
		{
			"bufferView":146,
			"componentType":5126,
			"count":2,
			"max":[
				2
			],
			"min":[
				0
			],
			"type":"SCALAR"
		},
		{
			"bufferView":147,
			"componentType":5126,
			"count":2,
			"type":"VEC4"
		},
		{
			"bufferView":148,
			"componentType":5126,
			"count":2,
			"type":"VEC3"
		},
		{
			"bufferView":149,
			"componentType":5126,
			"count":2,
			"type":"VEC3"
		},
		{
			"bufferView":150,
			"componentType":5126,
			"count":2,
			"type":"VEC4"
		},
		{
			"bufferView":151,
			"componentType":5126,
			"count":2,
			"type":"VEC3"
		},
		{
			"bufferView":152,
			"componentType":5126,
			"count":2,
			"type":"VEC3"
		},
		{
			"bufferView":153,
			"componentType":5126,
			"count":61,
			"type":"VEC4"
		},
		{
			"bufferView":154,
			"componentType":5126,
			"count":2,
			"type":"VEC3"
		},
		{
			"bufferView":155,
			"componentType":5126,
			"count":2,
			"type":"VEC3"
		},
		{
			"bufferView":156,
			"componentType":5126,
			"count":2,
			"type":"VEC4"
		},
		{
			"bufferView":157,
			"componentType":5126,
			"count":2,
			"type":"VEC3"
		},
		{
			"bufferView":158,
			"componentType":5126,
			"count":2,
			"type":"VEC3"
		},
		{
			"bufferView":159,
			"componentType":5126,
			"count":61,
			"type":"VEC4"
		},
		{
			"bufferView":160,
			"componentType":5126,
			"count":2,
			"type":"VEC3"
		},
		{
			"bufferView":161,
			"componentType":5126,
			"count":2,
			"type":"VEC3"
		},
		{
			"bufferView":162,
			"componentType":5126,
			"count":61,
			"type":"VEC4"
		},
		{
			"bufferView":163,
			"componentType":5126,
			"count":2,
			"type":"VEC3"
		},
		{
			"bufferView":164,
			"componentType":5126,
			"count":2,
			"type":"VEC3"
		},
		{
			"bufferView":165,
			"componentType":5126,
			"count":2,
			"type":"VEC4"
		},
		{
			"bufferView":166,
			"componentType":5126,
			"count":2,
			"type":"VEC3"
		},
		{
			"bufferView":167,
			"componentType":5126,
			"count":2,
			"type":"VEC3"
		},
		{
			"bufferView":168,
			"componentType":5126,
			"count":2,
			"type":"VEC4"
		},
		{
			"bufferView":169,
			"componentType":5126,
			"count":2,
			"type":"VEC3"
		},
		{
			"bufferView":170,
			"componentType":5126,
			"count":2,
			"type":"VEC3"
		},
		{
			"bufferView":171,
			"componentType":5126,
			"count":61,
			"type":"VEC4"
		},
		{
			"bufferView":172,
			"componentType":5126,
			"count":2,
			"type":"VEC3"
		},
		{
			"bufferView":173,
			"componentType":5126,
			"count":2,
			"type":"VEC3"
		},
		{
			"bufferView":174,
			"componentType":5126,
			"count":2,
			"type":"VEC4"
		},
		{
			"bufferView":175,
			"componentType":5126,
			"count":2,
			"type":"VEC3"
		},
		{
			"bufferView":176,
			"componentType":5126,
			"count":2,
			"type":"VEC3"
		},
		{
			"bufferView":177,
			"componentType":5126,
			"count":2,
			"type":"VEC4"
		},
		{
			"bufferView":178,
			"componentType":5126,
			"count":2,
			"type":"VEC3"
		},
		{
			"bufferView":179,
			"componentType":5126,
			"count":2,
			"type":"VEC3"
		},
		{
			"bufferView":180,
			"componentType":5126,
			"count":2,
			"type":"VEC4"
		},
		{
			"bufferView":181,
			"componentType":5126,
			"count":2,
			"type":"VEC3"
		},
		{
			"bufferView":182,
			"componentType":5126,
			"count":2,
			"type":"VEC3"
		},
		{
			"bufferView":183,
			"componentType":5126,
			"count":2,
			"type":"VEC4"
		},
		{
			"bufferView":184,
			"componentType":5126,
			"count":2,
			"type":"VEC3"
		},
		{
			"bufferView":185,
			"componentType":5126,
			"count":2,
			"type":"VEC3"
		},
		{
			"bufferView":186,
			"componentType":5126,
			"count":2,
			"type":"VEC4"
		},
		{
			"bufferView":187,
			"componentType":5126,
			"count":2,
			"type":"VEC3"
		},
		{
			"bufferView":188,
			"componentType":5126,
			"count":2,
			"type":"VEC3"
		},
		{
			"bufferView":189,
			"componentType":5126,
			"count":2,
			"type":"VEC4"
		},
		{
			"bufferView":190,
			"componentType":5126,
			"count":2,
			"type":"VEC3"
		},
		{
			"bufferView":191,
			"componentType":5126,
			"count":2,
			"type":"VEC3"
		},
		{
			"bufferView":192,
			"componentType":5126,
			"count":2,
			"type":"VEC4"
		},
		{
			"bufferView":193,
			"componentType":5126,
			"count":2,
			"type":"VEC3"
		},
		{
			"bufferView":194,
			"componentType":5126,
			"count":2,
			"type":"VEC3"
		},
		{
			"bufferView":195,
			"componentType":5126,
			"count":2,
			"type":"VEC4"
		},
		{
			"bufferView":196,
			"componentType":5126,
			"count":2,
			"type":"VEC3"
		},
		{
			"bufferView":197,
			"componentType":5126,
			"count":31,
			"max":[
				1
			],
			"min":[
				0
			],
			"type":"SCALAR"
		},
		{
			"bufferView":198,
			"componentType":5126,
			"count":31,
			"type":"VEC3"
		},
		{
			"bufferView":199,
			"componentType":5126,
			"count":31,
			"type":"VEC4"
		},
		{
			"bufferView":200,
			"componentType":5126,
			"count":2,
			"max":[
				1
			],
			"min":[
				0
			],
			"type":"SCALAR"
		},
		{
			"bufferView":201,
			"componentType":5126,
			"count":2,
			"type":"VEC3"
		},
		{
			"bufferView":202,
			"componentType":5126,
			"count":2,
			"type":"VEC3"
		},
		{
			"bufferView":203,
			"componentType":5126,
			"count":2,
			"type":"VEC4"
		},
		{
			"bufferView":204,
			"componentType":5126,
			"count":2,
			"type":"VEC3"
		},
		{
			"bufferView":205,
			"componentType":5126,
			"count":2,
			"type":"VEC3"
		},
		{
			"bufferView":206,
			"componentType":5126,
			"count":31,
			"type":"VEC4"
		},
		{
			"bufferView":207,
			"componentType":5126,
			"count":2,
			"type":"VEC3"
		},
		{
			"bufferView":208,
			"componentType":5126,
			"count":2,
			"type":"VEC3"
		},
		{
			"bufferView":209,
			"componentType":5126,
			"count":2,
			"type":"VEC4"
		},
		{
			"bufferView":210,
			"componentType":5126,
			"count":2,
			"type":"VEC3"
		},
		{
			"bufferView":211,
			"componentType":5126,
			"count":2,
			"type":"VEC3"
		},
		{
			"bufferView":212,
			"componentType":5126,
			"count":2,
			"type":"VEC4"
		},
		{
			"bufferView":213,
			"componentType":5126,
			"count":2,
			"type":"VEC3"
		},
		{
			"bufferView":214,
			"componentType":5126,
			"count":2,
			"type":"VEC3"
		},
		{
			"bufferView":215,
			"componentType":5126,
			"count":31,
			"type":"VEC4"
		},
		{
			"bufferView":216,
			"componentType":5126,
			"count":2,
			"type":"VEC3"
		},
		{
			"bufferView":217,
			"componentType":5126,
			"count":2,
			"type":"VEC3"
		},
		{
			"bufferView":218,
			"componentType":5126,
			"count":2,
			"type":"VEC4"
		},
		{
			"bufferView":219,
			"componentType":5126,
			"count":2,
			"type":"VEC3"
		},
		{
			"bufferView":220,
			"componentType":5126,
			"count":2,
			"type":"VEC3"
		},
		{
			"bufferView":221,
			"componentType":5126,
			"count":2,
			"type":"VEC4"
		},
		{
			"bufferView":222,
			"componentType":5126,
			"count":2,
			"type":"VEC3"
		},
		{
			"bufferView":223,
			"componentType":5126,
			"count":2,
			"type":"VEC3"
		},
		{
			"bufferView":224,
			"componentType":5126,
			"count":31,
			"type":"VEC4"
		},
		{
			"bufferView":225,
			"componentType":5126,
			"count":2,
			"type":"VEC3"
		},
		{
			"bufferView":226,
			"componentType":5126,
			"count":2,
			"type":"VEC3"
		},
		{
			"bufferView":227,
			"componentType":5126,
			"count":2,
			"type":"VEC4"
		},
		{
			"bufferView":228,
			"componentType":5126,
			"count":2,
			"type":"VEC3"
		},
		{
			"bufferView":229,
			"componentType":5126,
			"count":2,
			"type":"VEC3"
		},
		{
			"bufferView":230,
			"componentType":5126,
			"count":2,
			"type":"VEC4"
		},
		{
			"bufferView":231,
			"componentType":5126,
			"count":2,
			"type":"VEC3"
		},
		{
			"bufferView":232,
			"componentType":5126,
			"count":2,
			"type":"VEC3"
		},
		{
			"bufferView":233,
			"componentType":5126,
			"count":31,
			"type":"VEC4"
		},
		{
			"bufferView":234,
			"componentType":5126,
			"count":2,
			"type":"VEC3"
		},
		{
			"bufferView":235,
			"componentType":5126,
			"count":2,
			"type":"VEC3"
		},
		{
			"bufferView":236,
			"componentType":5126,
			"count":31,
			"type":"VEC4"
		},
		{
			"bufferView":237,
			"componentType":5126,
			"count":2,
			"type":"VEC3"
		},
		{
			"bufferView":238,
			"componentType":5126,
			"count":2,
			"type":"VEC3"
		},
		{
			"bufferView":239,
			"componentType":5126,
			"count":31,
			"type":"VEC4"
		},
		{
			"bufferView":240,
			"componentType":5126,
			"count":2,
			"type":"VEC3"
		},
		{
			"bufferView":241,
			"componentType":5126,
			"count":2,
			"type":"VEC3"
		},
		{
			"bufferView":242,
			"componentType":5126,
			"count":31,
			"type":"VEC4"
		},
		{
			"bufferView":243,
			"componentType":5126,
			"count":2,
			"type":"VEC3"
		},
		{
			"bufferView":244,
			"componentType":5126,
			"count":2,
			"type":"VEC3"
		},
		{
			"bufferView":245,
			"componentType":5126,
			"count":31,
			"type":"VEC4"
		},
		{
			"bufferView":246,
			"componentType":5126,
			"count":2,
			"type":"VEC3"
		},
		{
			"bufferView":247,
			"componentType":5126,
			"count":2,
			"type":"VEC3"
		},
		{
			"bufferView":248,
			"componentType":5126,
			"count":31,
			"type":"VEC4"
		},
		{
			"bufferView":249,
			"componentType":5126,
			"count":2,
			"type":"VEC3"
		}
	],
	"bufferViews":[
		{
			"buffer":0,
			"byteLength":17244,
			"byteOffset":0,
			"target":34962
		},
		{
			"buffer":0,
			"byteLength":17244,
			"byteOffset":17244,
			"target":34962
		},
		{
			"buffer":0,
			"byteLength":11496,
			"byteOffset":34488,
			"target":34962
		},
		{
			"buffer":0,
			"byteLength":5748,
			"byteOffset":45984,
			"target":34962
		},
		{
			"buffer":0,
			"byteLength":22992,
			"byteOffset":51732,
			"target":34962
		},
		{
			"buffer":0,
			"byteLength":11736,
			"byteOffset":74724,
			"target":34963
		},
		{
			"buffer":0,
			"byteLength":25488,
			"byteOffset":86460,
			"target":34962
		},
		{
			"buffer":0,
			"byteLength":25488,
			"byteOffset":111948,
			"target":34962
		},
		{
			"buffer":0,
			"byteLength":16992,
			"byteOffset":137436,
			"target":34962
		},
		{
			"buffer":0,
			"byteLength":8496,
			"byteOffset":154428,
			"target":34962
		},
		{
			"buffer":0,
			"byteLength":33984,
			"byteOffset":162924,
			"target":34962
		},
		{
			"buffer":0,
			"byteLength":14400,
			"byteOffset":196908,
			"target":34963
		},
		{
			"buffer":0,
			"byteLength":17532,
			"byteOffset":211308,
			"target":34962
		},
		{
			"buffer":0,
			"byteLength":17532,
			"byteOffset":228840,
			"target":34962
		},
		{
			"buffer":0,
			"byteLength":11688,
			"byteOffset":246372,
			"target":34962
		},
		{
			"buffer":0,
			"byteLength":5844,
			"byteOffset":258060,
			"target":34962
		},
		{
			"buffer":0,
			"byteLength":23376,
			"byteOffset":263904,
			"target":34962
		},
		{
			"buffer":0,
			"byteLength":13296,
			"byteOffset":287280,
			"target":34963
		},
		{
			"buffer":0,
			"byteLength":780,
			"byteOffset":300576,
			"target":34962
		},
		{
			"buffer":0,
			"byteLength":780,
			"byteOffset":301356,
			"target":34962
		},
		{
			"buffer":0,
			"byteLength":520,
			"byteOffset":302136,
			"target":34962
		},
		{
			"buffer":0,
			"byteLength":260,
			"byteOffset":302656,
			"target":34962
		},
		{
			"buffer":0,
			"byteLength":1040,
			"byteOffset":302916,
			"target":34962
		},
		{
			"buffer":0,
			"byteLength":384,
			"byteOffset":303956,
			"target":34963
		},
		{
			"buffer":0,
			"byteLength":11724,
			"byteOffset":304340,
			"target":34962
		},
		{
			"buffer":0,
			"byteLength":11724,
			"byteOffset":316064,
			"target":34962
		},
		{
			"buffer":0,
			"byteLength":7816,
			"byteOffset":327788,
			"target":34962
		},
		{
			"buffer":0,
			"byteLength":3908,
			"byteOffset":335604,
			"target":34962
		},
		{
			"buffer":0,
			"byteLength":15632,
			"byteOffset":339512,
			"target":34962
		},
		{
			"buffer":0,
			"byteLength":8664,
			"byteOffset":355144,
			"target":34963
		},
		{
			"buffer":0,
			"byteLength":12408,
			"byteOffset":363808,
			"target":34962
		},
		{
			"buffer":0,
			"byteLength":12408,
			"byteOffset":376216,
			"target":34962
		},
		{
			"buffer":0,
			"byteLength":8272,
			"byteOffset":388624,
			"target":34962
		},
		{
			"buffer":0,
			"byteLength":4136,
			"byteOffset":396896,
			"target":34962
		},
		{
			"buffer":0,
			"byteLength":16544,
			"byteOffset":401032,
			"target":34962
		},
		{
			"buffer":0,
			"byteLength":9216,
			"byteOffset":417576,
			"target":34963
		},
		{
			"buffer":0,
			"byteLength":3648,
			"byteOffset":426792,
			"target":34962
		},
		{
			"buffer":0,
			"byteLength":3648,
			"byteOffset":430440,
			"target":34962
		},
		{
			"buffer":0,
			"byteLength":2432,
			"byteOffset":434088,
			"target":34962
		},
		{
			"buffer":0,
			"byteLength":1216,
			"byteOffset":436520,
			"target":34962
		},
		{
			"buffer":0,
			"byteLength":4864,
			"byteOffset":437736,
			"target":34962
		},
		{
			"buffer":0,
			"byteLength":2304,
			"byteOffset":442600,
			"target":34963
		},
		{
			"buffer":0,
			"byteLength":2640,
			"byteOffset":444904,
			"target":34962
		},
		{
			"buffer":0,
			"byteLength":2640,
			"byteOffset":447544,
			"target":34962
		},
		{
			"buffer":0,
			"byteLength":1760,
			"byteOffset":450184,
			"target":34962
		},
		{
			"buffer":0,
			"byteLength":880,
			"byteOffset":451944,
			"target":34962
		},
		{
			"buffer":0,
			"byteLength":3520,
			"byteOffset":452824,
			"target":34962
		},
		{
			"buffer":0,
			"byteLength":1440,
			"byteOffset":456344,
			"target":34963
		},
		{
			"buffer":0,
			"byteLength":1920,
			"byteOffset":457784,
			"target":34962
		},
		{
			"buffer":0,
			"byteLength":1920,
			"byteOffset":459704,
			"target":34962
		},
		{
			"buffer":0,
			"byteLength":1280,
			"byteOffset":461624,
			"target":34962
		},
		{
			"buffer":0,
			"byteLength":640,
			"byteOffset":462904,
			"target":34962
		},
		{
			"buffer":0,
			"byteLength":2560,
			"byteOffset":463544,
			"target":34962
		},
		{
			"buffer":0,
			"byteLength":960,
			"byteOffset":466104,
			"target":34963
		},
		{
			"buffer":0,
			"byteLength":1176,
			"byteOffset":467064,
			"target":34962
		},
		{
			"buffer":0,
			"byteLength":1176,
			"byteOffset":468240,
			"target":34962
		},
		{
			"buffer":0,
			"byteLength":784,
			"byteOffset":469416,
			"target":34962
		},
		{
			"buffer":0,
			"byteLength":392,
			"byteOffset":470200,
			"target":34962
		},
		{
			"buffer":0,
			"byteLength":1568,
			"byteOffset":470592,
			"target":34962
		},
		{
			"buffer":0,
			"byteLength":720,
			"byteOffset":472160,
			"target":34963
		},
		{
			"buffer":0,
			"byteLength":2160,
			"byteOffset":472880,
			"target":34962
		},
		{
			"buffer":0,
			"byteLength":2160,
			"byteOffset":475040,
			"target":34962
		},
		{
			"buffer":0,
			"byteLength":1440,
			"byteOffset":477200,
			"target":34962
		},
		{
			"buffer":0,
			"byteLength":720,
			"byteOffset":478640,
			"target":34962
		},
		{
			"buffer":0,
			"byteLength":2880,
			"byteOffset":479360,
			"target":34962
		},
		{
			"buffer":0,
			"byteLength":1152,
			"byteOffset":482240,
			"target":34963
		},
		{
			"buffer":0,
			"byteLength":288,
			"byteOffset":483392,
			"target":34962
		},
		{
			"buffer":0,
			"byteLength":288,
			"byteOffset":483680,
			"target":34962
		},
		{
			"buffer":0,
			"byteLength":192,
			"byteOffset":483968,
			"target":34962
		},
		{
			"buffer":0,
			"byteLength":96,
			"byteOffset":484160,
			"target":34962
		},
		{
			"buffer":0,
			"byteLength":384,
			"byteOffset":484256,
			"target":34962
		},
		{
			"buffer":0,
			"byteLength":72,
			"byteOffset":484640,
			"target":34963
		},
		{
			"buffer":0,
			"byteLength":1296,
			"byteOffset":484712,
			"target":34962
		},
		{
			"buffer":0,
			"byteLength":1296,
			"byteOffset":486008,
			"target":34962
		},
		{
			"buffer":0,
			"byteLength":864,
			"byteOffset":487304,
			"target":34962
		},
		{
			"buffer":0,
			"byteLength":432,
			"byteOffset":488168,
			"target":34962
		},
		{
			"buffer":0,
			"byteLength":1728,
			"byteOffset":488600,
			"target":34962
		},
		{
			"buffer":0,
			"byteLength":312,
			"byteOffset":490328,
			"target":34963
		},
		{
			"buffer":0,
			"byteLength":504,
			"byteOffset":490640,
			"target":34962
		},
		{
			"buffer":0,
			"byteLength":504,
			"byteOffset":491144,
			"target":34962
		},
		{
			"buffer":0,
			"byteLength":336,
			"byteOffset":491648,
			"target":34962
		},
		{
			"buffer":0,
			"byteLength":168,
			"byteOffset":491984,
			"target":34962
		},
		{
			"buffer":0,
			"byteLength":672,
			"byteOffset":492152,
			"target":34962
		},
		{
			"buffer":0,
			"byteLength":192,
			"byteOffset":492824,
			"target":34963
		},
		{
			"buffer":0,
			"byteLength":888,
			"byteOffset":493016,
			"target":34962
		},
		{
			"buffer":0,
			"byteLength":888,
			"byteOffset":493904,
			"target":34962
		},
		{
			"buffer":0,
			"byteLength":592,
			"byteOffset":494792,
			"target":34962
		},
		{
			"buffer":0,
			"byteLength":296,
			"byteOffset":495384,
			"target":34962
		},
		{
			"buffer":0,
			"byteLength":1184,
			"byteOffset":495680,
			"target":34962
		},
		{
			"buffer":0,
			"byteLength":288,
			"byteOffset":496864,
			"target":34963
		},
		{
			"buffer":0,
			"byteLength":1088,
			"byteOffset":497152
		},
		{
			"buffer":0,
			"byteLength":8,
			"byteOffset":498240
		},
		{
			"buffer":0,
			"byteLength":24,
			"byteOffset":498248
		},
		{
			"buffer":0,
			"byteLength":32,
			"byteOffset":498272
		},
		{
			"buffer":0,
			"byteLength":24,
			"byteOffset":498304
		},
		{
			"buffer":0,
			"byteLength":24,
			"byteOffset":498328
		},
		{
			"buffer":0,
			"byteLength":32,
			"byteOffset":498352
		},
		{
			"buffer":0,
			"byteLength":24,
			"byteOffset":498384
		},
		{
			"buffer":0,
			"byteLength":24,
			"byteOffset":498408
		},
		{
			"buffer":0,
			"byteLength":76,
			"byteOffset":498432
		},
		{
			"buffer":0,
			"byteLength":304,
			"byteOffset":498508
		},
		{
			"buffer":0,
			"byteLength":24,
			"byteOffset":498812
		},
		{
			"buffer":0,
			"byteLength":24,
			"byteOffset":498836
		},
		{
			"buffer":0,
			"byteLength":32,
			"byteOffset":498860
		},
		{
			"buffer":0,
			"byteLength":24,
			"byteOffset":498892
		},
		{
			"buffer":0,
			"byteLength":24,
			"byteOffset":498916
		},
		{
			"buffer":0,
			"byteLength":32,
			"byteOffset":498940
		},
		{
			"buffer":0,
			"byteLength":24,
			"byteOffset":498972
		},
		{
			"buffer":0,
			"byteLength":24,
			"byteOffset":498996
		},
		{
			"buffer":0,
			"byteLength":304,
			"byteOffset":499020
		},
		{
			"buffer":0,
			"byteLength":24,
			"byteOffset":499324
		},
		{
			"buffer":0,
			"byteLength":24,
			"byteOffset":499348
		},
		{
			"buffer":0,
			"byteLength":304,
			"byteOffset":499372
		},
		{
			"buffer":0,
			"byteLength":24,
			"byteOffset":499676
		},
		{
			"buffer":0,
			"byteLength":24,
			"byteOffset":499700
		},
		{
			"buffer":0,
			"byteLength":32,
			"byteOffset":499724
		},
		{
			"buffer":0,
			"byteLength":24,
			"byteOffset":499756
		},
		{
			"buffer":0,
			"byteLength":24,
			"byteOffset":499780
		},
		{
			"buffer":0,
			"byteLength":304,
			"byteOffset":499804
		},
		{
			"buffer":0,
			"byteLength":24,
			"byteOffset":500108
		},
		{
			"buffer":0,
			"byteLength":24,
			"byteOffset":500132
		},
		{
			"buffer":0,
			"byteLength":32,
			"byteOffset":500156
		},
		{
			"buffer":0,
			"byteLength":24,
			"byteOffset":500188
		},
		{
			"buffer":0,
			"byteLength":24,
			"byteOffset":500212
		},
		{
			"buffer":0,
			"byteLength":32,
			"byteOffset":500236
		},
		{
			"buffer":0,
			"byteLength":24,
			"byteOffset":500268
		},
		{
			"buffer":0,
			"byteLength":24,
			"byteOffset":500292
		},
		{
			"buffer":0,
			"byteLength":304,
			"byteOffset":500316
		},
		{
			"buffer":0,
			"byteLength":24,
			"byteOffset":500620
		},
		{
			"buffer":0,
			"byteLength":24,
			"byteOffset":500644
		},
		{
			"buffer":0,
			"byteLength":32,
			"byteOffset":500668
		},
		{
			"buffer":0,
			"byteLength":24,
			"byteOffset":500700
		},
		{
			"buffer":0,
			"byteLength":24,
			"byteOffset":500724
		},
		{
			"buffer":0,
			"byteLength":32,
			"byteOffset":500748
		},
		{
			"buffer":0,
			"byteLength":24,
			"byteOffset":500780
		},
		{
			"buffer":0,
			"byteLength":24,
			"byteOffset":500804
		},
		{
			"buffer":0,
			"byteLength":304,
			"byteOffset":500828
		},
		{
			"buffer":0,
			"byteLength":24,
			"byteOffset":501132
		},
		{
			"buffer":0,
			"byteLength":24,
			"byteOffset":501156
		},
		{
			"buffer":0,
			"byteLength":32,
			"byteOffset":501180
		},
		{
			"buffer":0,
			"byteLength":24,
			"byteOffset":501212
		},
		{
			"buffer":0,
			"byteLength":24,
			"byteOffset":501236
		},
		{
			"buffer":0,
			"byteLength":32,
			"byteOffset":501260
		},
		{
			"buffer":0,
			"byteLength":24,
			"byteOffset":501292
		},
		{
			"buffer":0,
			"byteLength":244,
			"byteOffset":501316
		},
		{
			"buffer":0,
			"byteLength":732,
			"byteOffset":501560
		},
		{
			"buffer":0,
			"byteLength":8,
			"byteOffset":502292
		},
		{
			"buffer":0,
			"byteLength":32,
			"byteOffset":502300
		},
		{
			"buffer":0,
			"byteLength":24,
			"byteOffset":502332
		},
		{
			"buffer":0,
			"byteLength":24,
			"byteOffset":502356
		},
		{
			"buffer":0,
			"byteLength":32,
			"byteOffset":502380
		},
		{
			"buffer":0,
			"byteLength":24,
			"byteOffset":502412
		},
		{
			"buffer":0,
			"byteLength":24,
			"byteOffset":502436
		},
		{
			"buffer":0,
			"byteLength":976,
			"byteOffset":502460
		},
		{
			"buffer":0,
			"byteLength":24,
			"byteOffset":503436
		},
		{
			"buffer":0,
			"byteLength":24,
			"byteOffset":503460
		},
		{
			"buffer":0,
			"byteLength":32,
			"byteOffset":503484
		},
		{
			"buffer":0,
			"byteLength":24,
			"byteOffset":503516
		},
		{
			"buffer":0,
			"byteLength":24,
			"byteOffset":503540
		},
		{
			"buffer":0,
			"byteLength":976,
			"byteOffset":503564
		},
		{
			"buffer":0,
			"byteLength":24,
			"byteOffset":504540
		},
		{
			"buffer":0,
			"byteLength":24,
			"byteOffset":504564
		},
		{
			"buffer":0,
			"byteLength":976,
			"byteOffset":504588
		},
		{
			"buffer":0,
			"byteLength":24,
			"byteOffset":505564
		},
		{
			"buffer":0,
			"byteLength":24,
			"byteOffset":505588
		},
		{
			"buffer":0,
			"byteLength":32,
			"byteOffset":505612
		},
		{
			"buffer":0,
			"byteLength":24,
			"byteOffset":505644
		},
		{
			"buffer":0,
			"byteLength":24,
			"byteOffset":505668
		},
		{
			"buffer":0,
			"byteLength":32,
			"byteOffset":505692
		},
		{
			"buffer":0,
			"byteLength":24,
			"byteOffset":505724
		},
		{
			"buffer":0,
			"byteLength":24,
			"byteOffset":505748
		},
		{
			"buffer":0,
			"byteLength":976,
			"byteOffset":505772
		},
		{
			"buffer":0,
			"byteLength":24,
			"byteOffset":506748
		},
		{
			"buffer":0,
			"byteLength":24,
			"byteOffset":506772
		},
		{
			"buffer":0,
			"byteLength":32,
			"byteOffset":506796
		},
		{
			"buffer":0,
			"byteLength":24,
			"byteOffset":506828
		},
		{
			"buffer":0,
			"byteLength":24,
			"byteOffset":506852
		},
		{
			"buffer":0,
			"byteLength":32,
			"byteOffset":506876
		},
		{
			"buffer":0,
			"byteLength":24,
			"byteOffset":506908
		},
		{
			"buffer":0,
			"byteLength":24,
			"byteOffset":506932
		},
		{
			"buffer":0,
			"byteLength":32,
			"byteOffset":506956
		},
		{
			"buffer":0,
			"byteLength":24,
			"byteOffset":506988
		},
		{
			"buffer":0,
			"byteLength":24,
			"byteOffset":507012
		},
		{
			"buffer":0,
			"byteLength":32,
			"byteOffset":507036
		},
		{
			"buffer":0,
			"byteLength":24,
			"byteOffset":507068
		},
		{
			"buffer":0,
			"byteLength":24,
			"byteOffset":507092
		},
		{
			"buffer":0,
			"byteLength":32,
			"byteOffset":507116
		},
		{
			"buffer":0,
			"byteLength":24,
			"byteOffset":507148
		},
		{
			"buffer":0,
			"byteLength":24,
			"byteOffset":507172
		},
		{
			"buffer":0,
			"byteLength":32,
			"byteOffset":507196
		},
		{
			"buffer":0,
			"byteLength":24,
			"byteOffset":507228
		},
		{
			"buffer":0,
			"byteLength":24,
			"byteOffset":507252
		},
		{
			"buffer":0,
			"byteLength":32,
			"byteOffset":507276
		},
		{
			"buffer":0,
			"byteLength":24,
			"byteOffset":507308
		},
		{
			"buffer":0,
			"byteLength":24,
			"byteOffset":507332
		},
		{
			"buffer":0,
			"byteLength":32,
			"byteOffset":507356
		},
		{
			"buffer":0,
			"byteLength":24,
			"byteOffset":507388
		},
		{
			"buffer":0,
			"byteLength":124,
			"byteOffset":507412
		},
		{
			"buffer":0,
			"byteLength":372,
			"byteOffset":507536
		},
		{
			"buffer":0,
			"byteLength":496,
			"byteOffset":507908
		},
		{
			"buffer":0,
			"byteLength":8,
			"byteOffset":508404
		},
		{
			"buffer":0,
			"byteLength":24,
			"byteOffset":508412
		},
		{
			"buffer":0,
			"byteLength":24,
			"byteOffset":508436
		},
		{
			"buffer":0,
			"byteLength":32,
			"byteOffset":508460
		},
		{
			"buffer":0,
			"byteLength":24,
			"byteOffset":508492
		},
		{
			"buffer":0,
			"byteLength":24,
			"byteOffset":508516
		},
		{
			"buffer":0,
			"byteLength":496,
			"byteOffset":508540
		},
		{
			"buffer":0,
			"byteLength":24,
			"byteOffset":509036
		},
		{
			"buffer":0,
			"byteLength":24,
			"byteOffset":509060
		},
		{
			"buffer":0,
			"byteLength":32,
			"byteOffset":509084
		},
		{
			"buffer":0,
			"byteLength":24,
			"byteOffset":509116
		},
		{
			"buffer":0,
			"byteLength":24,
			"byteOffset":509140
		},
		{
			"buffer":0,
			"byteLength":32,
			"byteOffset":509164
		},
		{
			"buffer":0,
			"byteLength":24,
			"byteOffset":509196
		},
		{
			"buffer":0,
			"byteLength":24,
			"byteOffset":509220
		},
		{
			"buffer":0,
			"byteLength":496,
			"byteOffset":509244
		},
		{
			"buffer":0,
			"byteLength":24,
			"byteOffset":509740
		},
		{
			"buffer":0,
			"byteLength":24,
			"byteOffset":509764
		},
		{
			"buffer":0,
			"byteLength":32,
			"byteOffset":509788
		},
		{
			"buffer":0,
			"byteLength":24,
			"byteOffset":509820
		},
		{
			"buffer":0,
			"byteLength":24,
			"byteOffset":509844
		},
		{
			"buffer":0,
			"byteLength":32,
			"byteOffset":509868
		},
		{
			"buffer":0,
			"byteLength":24,
			"byteOffset":509900
		},
		{
			"buffer":0,
			"byteLength":24,
			"byteOffset":509924
		},
		{
			"buffer":0,
			"byteLength":496,
			"byteOffset":509948
		},
		{
			"buffer":0,
			"byteLength":24,
			"byteOffset":510444
		},
		{
			"buffer":0,
			"byteLength":24,
			"byteOffset":510468
		},
		{
			"buffer":0,
			"byteLength":32,
			"byteOffset":510492
		},
		{
			"buffer":0,
			"byteLength":24,
			"byteOffset":510524
		},
		{
			"buffer":0,
			"byteLength":24,
			"byteOffset":510548
		},
		{
			"buffer":0,
			"byteLength":32,
			"byteOffset":510572
		},
		{
			"buffer":0,
			"byteLength":24,
			"byteOffset":510604
		},
		{
			"buffer":0,
			"byteLength":24,
			"byteOffset":510628
		},
		{
			"buffer":0,
			"byteLength":496,
			"byteOffset":510652
		},
		{
			"buffer":0,
			"byteLength":24,
			"byteOffset":511148
		},
		{
			"buffer":0,
			"byteLength":24,
			"byteOffset":511172
		},
		{
			"buffer":0,
			"byteLength":496,
			"byteOffset":511196
		},
		{
			"buffer":0,
			"byteLength":24,
			"byteOffset":511692
		},
		{
			"buffer":0,
			"byteLength":24,
			"byteOffset":511716
		},
		{
			"buffer":0,
			"byteLength":496,
			"byteOffset":511740
		},
		{
			"buffer":0,
			"byteLength":24,
			"byteOffset":512236
		},
		{
			"buffer":0,
			"byteLength":24,
			"byteOffset":512260
		},
		{
			"buffer":0,
			"byteLength":496,
			"byteOffset":512284
		},
		{
			"buffer":0,
			"byteLength":24,
			"byteOffset":512780
		},
		{
			"buffer":0,
			"byteLength":24,
			"byteOffset":512804
		},
		{
			"buffer":0,
			"byteLength":496,
			"byteOffset":512828
		},
		{
			"buffer":0,
			"byteLength":24,
			"byteOffset":513324
		},
		{
			"buffer":0,
			"byteLength":24,
			"byteOffset":513348
		},
		{
			"buffer":0,
			"byteLength":496,
			"byteOffset":513372
		},
		{
			"buffer":0,
			"byteLength":24,
			"byteOffset":513868
		}
	],
	"samplers":[
		{
			"magFilter":9729,
			"minFilter":9987
		}
	],
	"buffers":[
		{
			"byteLength":513892,
			"uri":"benimaru.bin"
		}
	]
}
