{
	"asset":{
		"generator":"Khronos glTF Blender I/O v4.2.57",
		"version":"2.0"
	},
	"extensionsUsed":[
		"KHR_materials_clearcoat",
		"KHR_materials_sheen"
	],
	"scene":0,
	"scenes":[
		{
			"name":"Scene",
			"nodes":[
				18
			]
		}
	],
	"nodes":[
		{
			"name":"head",
			"translation":[
				0,
				0.11999988555908203,
				0
			]
		},
		{
			"children":[
				0
			],
			"name":"neck",
			"translation":[
				0,
				0.252000093460083,
				0
			]
		},
		{
			"name":"hand.R",
			"rotation":[
				-0.0038906720001250505,
				-0.027691256254911423,
				0.02972833812236786,
				0.9991668462753296
			],
			"scale":[
				0.9999998211860657,
				0.9999998211860657,
				0.9999998807907104
			],
			"translation":[
				-7.019843906164169e-08,
				0.3029857277870178,
				6.51925802230835e-09
			]
		},
		{
			"children":[
				2
			],
			"name":"forearm.R",
			"rotation":[
				0.04329436644911766,
				-0.06868523359298706,
				0.07991355657577515,
				0.993489682674408
			],
			"scale":[
				1.0000001192092896,
				1,
				1
			],
			"translation":[
				3.934837877750397e-08,
				0.33523911237716675,
				-1.862645149230957e-09
			]
		},
		{
			"children":[
				3
			],
			"name":"upper_arm.R",
			"rotation":[
				0.9830951690673828,
				0.12946555018424988,
				0.12946541607379913,
				0.0011559037957340479
			],
			"scale":[
				1.0000004768371582,
				0.9999999403953552,
				1
			],
			"translation":[
				0.34992000460624695,
				0.19200003147125244,
				0
			]
		},
		{
			"name":"hand.L",
			"rotation":[
				-0.0038906720001250505,
				0.027691256254911423,
				-0.02972833812236786,
				0.9991668462753296
			],
			"scale":[
				0.9999998211860657,
				0.9999998211860657,
				0.9999998807907104
			],
			"translation":[
				7.019843906164169e-08,
				0.3029857277870178,
				6.51925802230835e-09
			]
		},
		{
			"children":[
				5
			],
			"name":"forearm.L",
			"rotation":[
				0.04329436644911766,
				0.06868523359298706,
				-0.07991355657577515,
				0.993489682674408
			],
			"scale":[
				1.0000001192092896,
				1,
				1
			],
			"translation":[
				-3.934837877750397e-08,
				0.33523911237716675,
				-1.862645149230957e-09
			]
		},
		{
			"children":[
				6
			],
			"name":"upper_arm.L",
			"rotation":[
				0.9830951690673828,
				-0.12946555018424988,
				-0.12946541607379913,
				0.0011559037957340479
			],
			"scale":[
				1.0000004768371582,
				0.9999999403953552,
				1
			],
			"translation":[
				-0.34992000460624695,
				0.19200003147125244,
				0
			]
		},
		{
			"children":[
				1,
				4,
				7
			],
			"name":"chest",
			"translation":[
				0,
				0.20399987697601318,
				0
			]
		},
		{
			"children":[
				8
			],
			"name":"spine",
			"translation":[
				0,
				0.18000006675720215,
				0
			]
		},
		{
			"name":"foot.R",
			"rotation":[
				0.5914180874824524,
				-8.261967221478983e-10,
				-1.1264800203747427e-09,
				0.8063650727272034
			],
			"translation":[
				-2.995183823184533e-10,
				0.4927077293395996,
				-1.1756355888792314e-09
			]
		},
		{
			"children":[
				10
			],
			"name":"shin.R",
			"rotation":[
				-0.04158278927206993,
				-0.013315198943018913,
				0.012619886547327042,
				0.998966634273529
			],
			"scale":[
				1,
				0.9999998807907104,
				1
			],
			"translation":[
				-2.648448571562767e-09,
				0.49238139390945435,
				3.725290298461914e-09
			]
		},
		{
			"children":[
				11
			],
			"name":"thigh.R",
			"rotation":[
				-0.9997222423553467,
				-0.012972206808626652,
				-0.012972341850399971,
				0.014795197173953056
			],
			"scale":[
				1.000000238418579,
				1,
				1.000000238418579
			],
			"translation":[
				0.14904001355171204,
				-0.023999929428100586,
				0
			]
		},
		{
			"name":"foot.L",
			"rotation":[
				0.5914180874824524,
				8.261967221478983e-10,
				1.1264800203747427e-09,
				0.8063650727272034
			],
			"translation":[
				2.995183823184533e-10,
				0.4927077293395996,
				-1.1756355888792314e-09
			]
		},
		{
			"children":[
				13
			],
			"name":"shin.L",
			"rotation":[
				-0.04158278927206993,
				0.013315198943018913,
				-0.012619886547327042,
				0.998966634273529
			],
			"scale":[
				1,
				0.9999998807907104,
				1
			],
			"translation":[
				2.648448571562767e-09,
				0.49238139390945435,
				3.725290298461914e-09
			]
		},
		{
			"children":[
				14
			],
			"name":"thigh.L",
			"rotation":[
				-0.9997222423553467,
				0.012972206808626652,
				0.012972341850399971,
				0.014795197173953056
			],
			"scale":[
				1.000000238418579,
				1,
				1.000000238418579
			],
			"translation":[
				-0.14904001355171204,
				-0.023999929428100586,
				0
			]
		},
		{
			"children":[
				9,
				12,
				15
			],
			"name":"hips",
			"translation":[
				0,
				1.1160000562667847,
				0
			]
		},
		{
			"mesh":0,
			"name":"carillon",
			"skin":0
		},
		{
			"children":[
				17,
				16
			],
			"name":"carillon_rig"
		}
	],
	"animations":[
		{
			"channels":[
				{
					"sampler":0,
					"target":{
						"node":16,
						"path":"translation"
					}
				},
				{
					"sampler":1,
					"target":{
						"node":16,
						"path":"rotation"
					}
				},
				{
					"sampler":2,
					"target":{
						"node":16,
						"path":"scale"
					}
				},
				{
					"sampler":3,
					"target":{
						"node":9,
						"path":"translation"
					}
				},
				{
					"sampler":4,
					"target":{
						"node":9,
						"path":"rotation"
					}
				},
				{
					"sampler":5,
					"target":{
						"node":9,
						"path":"scale"
					}
				},
				{
					"sampler":6,
					"target":{
						"node":8,
						"path":"translation"
					}
				},
				{
					"sampler":7,
					"target":{
						"node":8,
						"path":"rotation"
					}
				},
				{
					"sampler":8,
					"target":{
						"node":8,
						"path":"scale"
					}
				},
				{
					"sampler":9,
					"target":{
						"node":1,
						"path":"translation"
					}
				},
				{
					"sampler":10,
					"target":{
						"node":1,
						"path":"rotation"
					}
				},
				{
					"sampler":11,
					"target":{
						"node":1,
						"path":"scale"
					}
				},
				{
					"sampler":12,
					"target":{
						"node":0,
						"path":"translation"
					}
				},
				{
					"sampler":13,
					"target":{
						"node":0,
						"path":"rotation"
					}
				},
				{
					"sampler":14,
					"target":{
						"node":0,
						"path":"scale"
					}
				},
				{
					"sampler":15,
					"target":{
						"node":4,
						"path":"translation"
					}
				},
				{
					"sampler":16,
					"target":{
						"node":4,
						"path":"rotation"
					}
				},
				{
					"sampler":17,
					"target":{
						"node":4,
						"path":"scale"
					}
				},
				{
					"sampler":18,
					"target":{
						"node":3,
						"path":"translation"
					}
				},
				{
					"sampler":19,
					"target":{
						"node":3,
						"path":"rotation"
					}
				},
				{
					"sampler":20,
					"target":{
						"node":3,
						"path":"scale"
					}
				},
				{
					"sampler":21,
					"target":{
						"node":2,
						"path":"translation"
					}
				},
				{
					"sampler":22,
					"target":{
						"node":2,
						"path":"rotation"
					}
				},
				{
					"sampler":23,
					"target":{
						"node":2,
						"path":"scale"
					}
				},
				{
					"sampler":24,
					"target":{
						"node":7,
						"path":"translation"
					}
				},
				{
					"sampler":25,
					"target":{
						"node":7,
						"path":"rotation"
					}
				},
				{
					"sampler":26,
					"target":{
						"node":7,
						"path":"scale"
					}
				},
				{
					"sampler":27,
					"target":{
						"node":6,
						"path":"translation"
					}
				},
				{
					"sampler":28,
					"target":{
						"node":6,
						"path":"rotation"
					}
				},
				{
					"sampler":29,
					"target":{
						"node":6,
						"path":"scale"
					}
				},
				{
					"sampler":30,
					"target":{
						"node":5,
						"path":"translation"
					}
				},
				{
					"sampler":31,
					"target":{
						"node":5,
						"path":"rotation"
					}
				},
				{
					"sampler":32,
					"target":{
						"node":5,
						"path":"scale"
					}
				},
				{
					"sampler":33,
					"target":{
						"node":12,
						"path":"translation"
					}
				},
				{
					"sampler":34,
					"target":{
						"node":12,
						"path":"rotation"
					}
				},
				{
					"sampler":35,
					"target":{
						"node":12,
						"path":"scale"
					}
				},
				{
					"sampler":36,
					"target":{
						"node":11,
						"path":"translation"
					}
				},
				{
					"sampler":37,
					"target":{
						"node":11,
						"path":"rotation"
					}
				},
				{
					"sampler":38,
					"target":{
						"node":11,
						"path":"scale"
					}
				},
				{
					"sampler":39,
					"target":{
						"node":10,
						"path":"translation"
					}
				},
				{
					"sampler":40,
					"target":{
						"node":10,
						"path":"rotation"
					}
				},
				{
					"sampler":41,
					"target":{
						"node":10,
						"path":"scale"
					}
				},
				{
					"sampler":42,
					"target":{
						"node":15,
						"path":"translation"
					}
				},
				{
					"sampler":43,
					"target":{
						"node":15,
						"path":"rotation"
					}
				},
				{
					"sampler":44,
					"target":{
						"node":15,
						"path":"scale"
					}
				},
				{
					"sampler":45,
					"target":{
						"node":14,
						"path":"translation"
					}
				},
				{
					"sampler":46,
					"target":{
						"node":14,
						"path":"rotation"
					}
				},
				{
					"sampler":47,
					"target":{
						"node":14,
						"path":"scale"
					}
				},
				{
					"sampler":48,
					"target":{
						"node":13,
						"path":"translation"
					}
				},
				{
					"sampler":49,
					"target":{
						"node":13,
						"path":"rotation"
					}
				},
				{
					"sampler":50,
					"target":{
						"node":13,
						"path":"scale"
					}
				}
			],
			"name":"attack",
			"samplers":[
				{
					"input":73,
					"interpolation":"STEP",
					"output":74
				},
				{
					"input":73,
					"interpolation":"STEP",
					"output":75
				},
				{
					"input":73,
					"interpolation":"STEP",
					"output":76
				},
				{
					"input":73,
					"interpolation":"STEP",
					"output":77
				},
				{
					"input":73,
					"interpolation":"STEP",
					"output":78
				},
				{
					"input":73,
					"interpolation":"STEP",
					"output":79
				},
				{
					"input":73,
					"interpolation":"STEP",
					"output":80
				},
				{
					"input":81,
					"interpolation":"LINEAR",
					"output":82
				},
				{
					"input":73,
					"interpolation":"STEP",
					"output":83
				},
				{
					"input":73,
					"interpolation":"STEP",
					"output":84
				},
				{
					"input":73,
					"interpolation":"STEP",
					"output":85
				},
				{
					"input":73,
					"interpolation":"STEP",
					"output":86
				},
				{
					"input":73,
					"interpolation":"STEP",
					"output":87
				},
				{
					"input":73,
					"interpolation":"STEP",
					"output":88
				},
				{
					"input":73,
					"interpolation":"STEP",
					"output":89
				},
				{
					"input":73,
					"interpolation":"STEP",
					"output":90
				},
				{
					"input":81,
					"interpolation":"LINEAR",
					"output":91
				},
				{
					"input":73,
					"interpolation":"STEP",
					"output":92
				},
				{
					"input":73,
					"interpolation":"STEP",
					"output":93
				},
				{
					"input":81,
					"interpolation":"LINEAR",
					"output":94
				},
				{
					"input":73,
					"interpolation":"STEP",
					"output":95
				},
				{
					"input":73,
					"interpolation":"STEP",
					"output":96
				},
				{
					"input":73,
					"interpolation":"STEP",
					"output":97
				},
				{
					"input":73,
					"interpolation":"STEP",
					"output":98
				},
				{
					"input":73,
					"interpolation":"STEP",
					"output":99
				},
				{
					"input":81,
					"interpolation":"LINEAR",
					"output":100
				},
				{
					"input":73,
					"interpolation":"STEP",
					"output":101
				},
				{
					"input":73,
					"interpolation":"STEP",
					"output":102
				},
				{
					"input":73,
					"interpolation":"STEP",
					"output":103
				},
				{
					"input":73,
					"interpolation":"STEP",
					"output":104
				},
				{
					"input":73,
					"interpolation":"STEP",
					"output":105
				},
				{
					"input":73,
					"interpolation":"STEP",
					"output":106
				},
				{
					"input":73,
					"interpolation":"STEP",
					"output":107
				},
				{
					"input":73,
					"interpolation":"STEP",
					"output":108
				},
				{
					"input":81,
					"interpolation":"LINEAR",
					"output":109
				},
				{
					"input":73,
					"interpolation":"STEP",
					"output":110
				},
				{
					"input":73,
					"interpolation":"LINEAR",
					"output":111
				},
				{
					"input":73,
					"interpolation":"LINEAR",
					"output":112
				},
				{
					"input":73,
					"interpolation":"STEP",
					"output":113
				},
				{
					"input":73,
					"interpolation":"LINEAR",
					"output":114
				},
				{
					"input":73,
					"interpolation":"LINEAR",
					"output":115
				},
				{
					"input":73,
					"interpolation":"STEP",
					"output":116
				},
				{
					"input":73,
					"interpolation":"STEP",
					"output":117
				},
				{
					"input":81,
					"interpolation":"LINEAR",
					"output":118
				},
				{
					"input":73,
					"interpolation":"STEP",
					"output":119
				},
				{
					"input":73,
					"interpolation":"LINEAR",
					"output":120
				},
				{
					"input":73,
					"interpolation":"LINEAR",
					"output":121
				},
				{
					"input":73,
					"interpolation":"STEP",
					"output":122
				},
				{
					"input":73,
					"interpolation":"LINEAR",
					"output":123
				},
				{
					"input":73,
					"interpolation":"LINEAR",
					"output":124
				},
				{
					"input":73,
					"interpolation":"STEP",
					"output":125
				}
			]
		},
		{
			"channels":[
				{
					"sampler":0,
					"target":{
						"node":16,
						"path":"translation"
					}
				},
				{
					"sampler":1,
					"target":{
						"node":16,
						"path":"rotation"
					}
				},
				{
					"sampler":2,
					"target":{
						"node":16,
						"path":"scale"
					}
				},
				{
					"sampler":3,
					"target":{
						"node":9,
						"path":"translation"
					}
				},
				{
					"sampler":4,
					"target":{
						"node":9,
						"path":"rotation"
					}
				},
				{
					"sampler":5,
					"target":{
						"node":9,
						"path":"scale"
					}
				},
				{
					"sampler":6,
					"target":{
						"node":8,
						"path":"translation"
					}
				},
				{
					"sampler":7,
					"target":{
						"node":8,
						"path":"rotation"
					}
				},
				{
					"sampler":8,
					"target":{
						"node":8,
						"path":"scale"
					}
				},
				{
					"sampler":9,
					"target":{
						"node":1,
						"path":"translation"
					}
				},
				{
					"sampler":10,
					"target":{
						"node":1,
						"path":"rotation"
					}
				},
				{
					"sampler":11,
					"target":{
						"node":1,
						"path":"scale"
					}
				},
				{
					"sampler":12,
					"target":{
						"node":0,
						"path":"translation"
					}
				},
				{
					"sampler":13,
					"target":{
						"node":0,
						"path":"rotation"
					}
				},
				{
					"sampler":14,
					"target":{
						"node":0,
						"path":"scale"
					}
				},
				{
					"sampler":15,
					"target":{
						"node":4,
						"path":"translation"
					}
				},
				{
					"sampler":16,
					"target":{
						"node":4,
						"path":"rotation"
					}
				},
				{
					"sampler":17,
					"target":{
						"node":4,
						"path":"scale"
					}
				},
				{
					"sampler":18,
					"target":{
						"node":3,
						"path":"translation"
					}
				},
				{
					"sampler":19,
					"target":{
						"node":3,
						"path":"rotation"
					}
				},
				{
					"sampler":20,
					"target":{
						"node":3,
						"path":"scale"
					}
				},
				{
					"sampler":21,
					"target":{
						"node":2,
						"path":"translation"
					}
				},
				{
					"sampler":22,
					"target":{
						"node":2,
						"path":"rotation"
					}
				},
				{
					"sampler":23,
					"target":{
						"node":2,
						"path":"scale"
					}
				},
				{
					"sampler":24,
					"target":{
						"node":7,
						"path":"translation"
					}
				},
				{
					"sampler":25,
					"target":{
						"node":7,
						"path":"rotation"
					}
				},
				{
					"sampler":26,
					"target":{
						"node":7,
						"path":"scale"
					}
				},
				{
					"sampler":27,
					"target":{
						"node":6,
						"path":"translation"
					}
				},
				{
					"sampler":28,
					"target":{
						"node":6,
						"path":"rotation"
					}
				},
				{
					"sampler":29,
					"target":{
						"node":6,
						"path":"scale"
					}
				},
				{
					"sampler":30,
					"target":{
						"node":5,
						"path":"translation"
					}
				},
				{
					"sampler":31,
					"target":{
						"node":5,
						"path":"rotation"
					}
				},
				{
					"sampler":32,
					"target":{
						"node":5,
						"path":"scale"
					}
				},
				{
					"sampler":33,
					"target":{
						"node":12,
						"path":"translation"
					}
				},
				{
					"sampler":34,
					"target":{
						"node":12,
						"path":"rotation"
					}
				},
				{
					"sampler":35,
					"target":{
						"node":12,
						"path":"scale"
					}
				},
				{
					"sampler":36,
					"target":{
						"node":11,
						"path":"translation"
					}
				},
				{
					"sampler":37,
					"target":{
						"node":11,
						"path":"rotation"
					}
				},
				{
					"sampler":38,
					"target":{
						"node":11,
						"path":"scale"
					}
				},
				{
					"sampler":39,
					"target":{
						"node":10,
						"path":"translation"
					}
				},
				{
					"sampler":40,
					"target":{
						"node":10,
						"path":"rotation"
					}
				},
				{
					"sampler":41,
					"target":{
						"node":10,
						"path":"scale"
					}
				},
				{
					"sampler":42,
					"target":{
						"node":15,
						"path":"translation"
					}
				},
				{
					"sampler":43,
					"target":{
						"node":15,
						"path":"rotation"
					}
				},
				{
					"sampler":44,
					"target":{
						"node":15,
						"path":"scale"
					}
				},
				{
					"sampler":45,
					"target":{
						"node":14,
						"path":"translation"
					}
				},
				{
					"sampler":46,
					"target":{
						"node":14,
						"path":"rotation"
					}
				},
				{
					"sampler":47,
					"target":{
						"node":14,
						"path":"scale"
					}
				},
				{
					"sampler":48,
					"target":{
						"node":13,
						"path":"translation"
					}
				},
				{
					"sampler":49,
					"target":{
						"node":13,
						"path":"rotation"
					}
				},
				{
					"sampler":50,
					"target":{
						"node":13,
						"path":"scale"
					}
				}
			],
			"name":"idle",
			"samplers":[
				{
					"input":126,
					"interpolation":"LINEAR",
					"output":127
				},
				{
					"input":128,
					"interpolation":"STEP",
					"output":129
				},
				{
					"input":128,
					"interpolation":"STEP",
					"output":130
				},
				{
					"input":128,
					"interpolation":"STEP",
					"output":131
				},
				{
					"input":128,
					"interpolation":"STEP",
					"output":132
				},
				{
					"input":128,
					"interpolation":"STEP",
					"output":133
				},
				{
					"input":128,
					"interpolation":"STEP",
					"output":134
				},
				{
					"input":126,
					"interpolation":"LINEAR",
					"output":135
				},
				{
					"input":128,
					"interpolation":"STEP",
					"output":136
				},
				{
					"input":128,
					"interpolation":"STEP",
					"output":137
				},
				{
					"input":128,
					"interpolation":"STEP",
					"output":138
				},
				{
					"input":128,
					"interpolation":"STEP",
					"output":139
				},
				{
					"input":128,
					"interpolation":"STEP",
					"output":140
				},
				{
					"input":126,
					"interpolation":"LINEAR",
					"output":141
				},
				{
					"input":128,
					"interpolation":"STEP",
					"output":142
				},
				{
					"input":128,
					"interpolation":"STEP",
					"output":143
				},
				{
					"input":126,
					"interpolation":"LINEAR",
					"output":144
				},
				{
					"input":128,
					"interpolation":"STEP",
					"output":145
				},
				{
					"input":128,
					"interpolation":"STEP",
					"output":146
				},
				{
					"input":128,
					"interpolation":"STEP",
					"output":147
				},
				{
					"input":128,
					"interpolation":"STEP",
					"output":148
				},
				{
					"input":128,
					"interpolation":"STEP",
					"output":149
				},
				{
					"input":128,
					"interpolation":"STEP",
					"output":150
				},
				{
					"input":128,
					"interpolation":"STEP",
					"output":151
				},
				{
					"input":128,
					"interpolation":"STEP",
					"output":152
				},
				{
					"input":126,
					"interpolation":"LINEAR",
					"output":153
				},
				{
					"input":128,
					"interpolation":"STEP",
					"output":154
				},
				{
					"input":128,
					"interpolation":"STEP",
					"output":155
				},
				{
					"input":128,
					"interpolation":"STEP",
					"output":156
				},
				{
					"input":128,
					"interpolation":"STEP",
					"output":157
				},
				{
					"input":128,
					"interpolation":"STEP",
					"output":158
				},
				{
					"input":128,
					"interpolation":"STEP",
					"output":159
				},
				{
					"input":128,
					"interpolation":"STEP",
					"output":160
				},
				{
					"input":128,
					"interpolation":"STEP",
					"output":161
				},
				{
					"input":128,
					"interpolation":"STEP",
					"output":162
				},
				{
					"input":128,
					"interpolation":"STEP",
					"output":163
				},
				{
					"input":128,
					"interpolation":"STEP",
					"output":164
				},
				{
					"input":128,
					"interpolation":"STEP",
					"output":165
				},
				{
					"input":128,
					"interpolation":"STEP",
					"output":166
				},
				{
					"input":128,
					"interpolation":"STEP",
					"output":167
				},
				{
					"input":128,
					"interpolation":"STEP",
					"output":168
				},
				{
					"input":128,
					"interpolation":"STEP",
					"output":169
				},
				{
					"input":128,
					"interpolation":"STEP",
					"output":170
				},
				{
					"input":128,
					"interpolation":"STEP",
					"output":171
				},
				{
					"input":128,
					"interpolation":"STEP",
					"output":172
				},
				{
					"input":128,
					"interpolation":"STEP",
					"output":173
				},
				{
					"input":128,
					"interpolation":"STEP",
					"output":174
				},
				{
					"input":128,
					"interpolation":"STEP",
					"output":175
				},
				{
					"input":128,
					"interpolation":"STEP",
					"output":176
				},
				{
					"input":128,
					"interpolation":"STEP",
					"output":177
				},
				{
					"input":128,
					"interpolation":"STEP",
					"output":178
				}
			]
		},
		{
			"channels":[
				{
					"sampler":0,
					"target":{
						"node":16,
						"path":"translation"
					}
				},
				{
					"sampler":1,
					"target":{
						"node":16,
						"path":"rotation"
					}
				},
				{
					"sampler":2,
					"target":{
						"node":16,
						"path":"scale"
					}
				},
				{
					"sampler":3,
					"target":{
						"node":9,
						"path":"translation"
					}
				},
				{
					"sampler":4,
					"target":{
						"node":9,
						"path":"rotation"
					}
				},
				{
					"sampler":5,
					"target":{
						"node":9,
						"path":"scale"
					}
				},
				{
					"sampler":6,
					"target":{
						"node":8,
						"path":"translation"
					}
				},
				{
					"sampler":7,
					"target":{
						"node":8,
						"path":"rotation"
					}
				},
				{
					"sampler":8,
					"target":{
						"node":8,
						"path":"scale"
					}
				},
				{
					"sampler":9,
					"target":{
						"node":1,
						"path":"translation"
					}
				},
				{
					"sampler":10,
					"target":{
						"node":1,
						"path":"rotation"
					}
				},
				{
					"sampler":11,
					"target":{
						"node":1,
						"path":"scale"
					}
				},
				{
					"sampler":12,
					"target":{
						"node":0,
						"path":"translation"
					}
				},
				{
					"sampler":13,
					"target":{
						"node":0,
						"path":"rotation"
					}
				},
				{
					"sampler":14,
					"target":{
						"node":0,
						"path":"scale"
					}
				},
				{
					"sampler":15,
					"target":{
						"node":4,
						"path":"translation"
					}
				},
				{
					"sampler":16,
					"target":{
						"node":4,
						"path":"rotation"
					}
				},
				{
					"sampler":17,
					"target":{
						"node":4,
						"path":"scale"
					}
				},
				{
					"sampler":18,
					"target":{
						"node":3,
						"path":"translation"
					}
				},
				{
					"sampler":19,
					"target":{
						"node":3,
						"path":"rotation"
					}
				},
				{
					"sampler":20,
					"target":{
						"node":3,
						"path":"scale"
					}
				},
				{
					"sampler":21,
					"target":{
						"node":2,
						"path":"translation"
					}
				},
				{
					"sampler":22,
					"target":{
						"node":2,
						"path":"rotation"
					}
				},
				{
					"sampler":23,
					"target":{
						"node":2,
						"path":"scale"
					}
				},
				{
					"sampler":24,
					"target":{
						"node":7,
						"path":"translation"
					}
				},
				{
					"sampler":25,
					"target":{
						"node":7,
						"path":"rotation"
					}
				},
				{
					"sampler":26,
					"target":{
						"node":7,
						"path":"scale"
					}
				},
				{
					"sampler":27,
					"target":{
						"node":6,
						"path":"translation"
					}
				},
				{
					"sampler":28,
					"target":{
						"node":6,
						"path":"rotation"
					}
				},
				{
					"sampler":29,
					"target":{
						"node":6,
						"path":"scale"
					}
				},
				{
					"sampler":30,
					"target":{
						"node":5,
						"path":"translation"
					}
				},
				{
					"sampler":31,
					"target":{
						"node":5,
						"path":"rotation"
					}
				},
				{
					"sampler":32,
					"target":{
						"node":5,
						"path":"scale"
					}
				},
				{
					"sampler":33,
					"target":{
						"node":12,
						"path":"translation"
					}
				},
				{
					"sampler":34,
					"target":{
						"node":12,
						"path":"rotation"
					}
				},
				{
					"sampler":35,
					"target":{
						"node":12,
						"path":"scale"
					}
				},
				{
					"sampler":36,
					"target":{
						"node":11,
						"path":"translation"
					}
				},
				{
					"sampler":37,
					"target":{
						"node":11,
						"path":"rotation"
					}
				},
				{
					"sampler":38,
					"target":{
						"node":11,
						"path":"scale"
					}
				},
				{
					"sampler":39,
					"target":{
						"node":10,
						"path":"translation"
					}
				},
				{
					"sampler":40,
					"target":{
						"node":10,
						"path":"rotation"
					}
				},
				{
					"sampler":41,
					"target":{
						"node":10,
						"path":"scale"
					}
				},
				{
					"sampler":42,
					"target":{
						"node":15,
						"path":"translation"
					}
				},
				{
					"sampler":43,
					"target":{
						"node":15,
						"path":"rotation"
					}
				},
				{
					"sampler":44,
					"target":{
						"node":15,
						"path":"scale"
					}
				},
				{
					"sampler":45,
					"target":{
						"node":14,
						"path":"translation"
					}
				},
				{
					"sampler":46,
					"target":{
						"node":14,
						"path":"rotation"
					}
				},
				{
					"sampler":47,
					"target":{
						"node":14,
						"path":"scale"
					}
				},
				{
					"sampler":48,
					"target":{
						"node":13,
						"path":"translation"
					}
				},
				{
					"sampler":49,
					"target":{
						"node":13,
						"path":"rotation"
					}
				},
				{
					"sampler":50,
					"target":{
						"node":13,
						"path":"scale"
					}
				}
			],
			"name":"walk",
			"samplers":[
				{
					"input":179,
					"interpolation":"LINEAR",
					"output":180
				},
				{
					"input":179,
					"interpolation":"LINEAR",
					"output":181
				},
				{
					"input":182,
					"interpolation":"STEP",
					"output":183
				},
				{
					"input":182,
					"interpolation":"STEP",
					"output":184
				},
				{
					"input":182,
					"interpolation":"STEP",
					"output":185
				},
				{
					"input":182,
					"interpolation":"STEP",
					"output":186
				},
				{
					"input":182,
					"interpolation":"STEP",
					"output":187
				},
				{
					"input":179,
					"interpolation":"LINEAR",
					"output":188
				},
				{
					"input":182,
					"interpolation":"STEP",
					"output":189
				},
				{
					"input":182,
					"interpolation":"STEP",
					"output":190
				},
				{
					"input":182,
					"interpolation":"STEP",
					"output":191
				},
				{
					"input":182,
					"interpolation":"STEP",
					"output":192
				},
				{
					"input":182,
					"interpolation":"STEP",
					"output":193
				},
				{
					"input":182,
					"interpolation":"STEP",
					"output":194
				},
				{
					"input":182,
					"interpolation":"STEP",
					"output":195
				},
				{
					"input":182,
					"interpolation":"STEP",
					"output":196
				},
				{
					"input":179,
					"interpolation":"LINEAR",
					"output":197
				},
				{
					"input":182,
					"interpolation":"STEP",
					"output":198
				},
				{
					"input":182,
					"interpolation":"STEP",
					"output":199
				},
				{
					"input":182,
					"interpolation":"STEP",
					"output":200
				},
				{
					"input":182,
					"interpolation":"STEP",
					"output":201
				},
				{
					"input":182,
					"interpolation":"STEP",
					"output":202
				},
				{
					"input":182,
					"interpolation":"STEP",
					"output":203
				},
				{
					"input":182,
					"interpolation":"STEP",
					"output":204
				},
				{
					"input":182,
					"interpolation":"STEP",
					"output":205
				},
				{
					"input":179,
					"interpolation":"LINEAR",
					"output":206
				},
				{
					"input":182,
					"interpolation":"STEP",
					"output":207
				},
				{
					"input":182,
					"interpolation":"STEP",
					"output":208
				},
				{
					"input":182,
					"interpolation":"STEP",
					"output":209
				},
				{
					"input":182,
					"interpolation":"STEP",
					"output":210
				},
				{
					"input":182,
					"interpolation":"STEP",
					"output":211
				},
				{
					"input":182,
					"interpolation":"STEP",
					"output":212
				},
				{
					"input":182,
					"interpolation":"STEP",
					"output":213
				},
				{
					"input":182,
					"interpolation":"STEP",
					"output":214
				},
				{
					"input":179,
					"interpolation":"LINEAR",
					"output":215
				},
				{
					"input":182,
					"interpolation":"STEP",
					"output":216
				},
				{
					"input":182,
					"interpolation":"STEP",
					"output":217
				},
				{
					"input":179,
					"interpolation":"LINEAR",
					"output":218
				},
				{
					"input":182,
					"interpolation":"STEP",
					"output":219
				},
				{
					"input":182,
					"interpolation":"STEP",
					"output":220
				},
				{
					"input":179,
					"interpolation":"LINEAR",
					"output":221
				},
				{
					"input":182,
					"interpolation":"STEP",
					"output":222
				},
				{
					"input":182,
					"interpolation":"STEP",
					"output":223
				},
				{
					"input":179,
					"interpolation":"LINEAR",
					"output":224
				},
				{
					"input":182,
					"interpolation":"STEP",
					"output":225
				},
				{
					"input":182,
					"interpolation":"STEP",
					"output":226
				},
				{
					"input":179,
					"interpolation":"LINEAR",
					"output":227
				},
				{
					"input":182,
					"interpolation":"STEP",
					"output":228
				},
				{
					"input":182,
					"interpolation":"STEP",
					"output":229
				},
				{
					"input":179,
					"interpolation":"LINEAR",
					"output":230
				},
				{
					"input":182,
					"interpolation":"STEP",
					"output":231
				}
			]
		}
	],
	"materials":[
		{
			"name":"skin",
			"normalTexture":{
				"index":0,
				"scale":0.4000000059604645
			},
			"pbrMetallicRoughness":{
				"baseColorFactor":[
					0.7874122858047485,
					0.5704815983772278,
					0.31854677200317383,
					1
				],
				"metallicFactor":0,
				"roughnessFactor":0.550000011920929
			}
		},
		{
			"extensions":{
				"KHR_materials_sheen":{
					"sheenColorFactor":[
						1.0,
						1.0,
						1.0
					],
					"sheenRoughnessFactor":0.5
				}
			},
			"name":"hair",
			"normalTexture":{
				"index":1,
				"scale":0.800000011920929
			},
			"pbrMetallicRoughness":{
				"baseColorFactor":[
					0.7874122858047485,
					0.4479884207248688,
					0.07323895394802094,
					1
				],
				"metallicFactor":0,
				"roughnessFactor":0.44999998807907104
			}
		},
		{
			"extensions":{
				"KHR_materials_sheen":{
					"sheenColorFactor":[
						1.0,
						1.0,
						1.0
					],
					"sheenRoughnessFactor":0.5
				}
			},
			"name":"outfit",
			"normalTexture":{
				"index":2,
				"scale":0.6000000238418579
			},
			"pbrMetallicRoughness":{
				"baseColorFactor":[
					0.21404114365577698,
					0.07323895394802094,
					0.01960664801299572,
					1
				],
				"metallicFactor":0,
				"roughnessFactor":0.75
			}
		},
		{
			"name":"outfit2",
			"normalTexture":{
				"index":3,
				"scale":0.4000000059604645
			},
			"pbrMetallicRoughness":{
				"baseColorFactor":[
					0.7874122858047485,
					0.6038273572921753,
					0.21404114365577698,
					1
				],
				"metallicFactor":0,
				"roughnessFactor":0.6000000238418579
			}
		},
		{
			"name":"pants",
			"normalTexture":{
				"index":4,
				"scale":0.6000000238418579
			},
			"pbrMetallicRoughness":{
				"baseColorFactor":[
					0.10048151016235352,
					0.036306485533714294,
					0.010816383175551891,
					1
				],
				"metallicFactor":0,
				"roughnessFactor":0.800000011920929
			}
		},
		{
			"extensions":{
				"KHR_materials_clearcoat":{
					"clearcoatFactor":0.30000001192092896
				}
			},
			"name":"boots",
			"normalTexture":{
				"index":5,
				"scale":0.800000011920929
			},
			"pbrMetallicRoughness":{
				"baseColorFactor":[
					0.0134117491543293,
					0.010022825561463833,
					0.010022825561463833,
					1
				],
				"metallicFactor":0,
				"roughnessFactor":0.44999998807907104
			}
		},
		{
			"name":"eye_white",
			"pbrMetallicRoughness":{
				"baseColorFactor":[
					0.8900054097175598,
					0.8900054097175598,
					0.8900054097175598,
					1
				],
				"metallicFactor":0,
				"roughnessFactor":0.20000000298023224
			}
		},
		{
			"emissiveFactor":[
				0.011763989275256348,
				0.011763989275256348,
				0.019862860485428957
			],
			"name":"iris",
			"pbrMetallicRoughness":{
				"baseColorFactor":[
					0.01960664801299572,
					0.01960664801299572,
					0.03310476616024971,
					1
				],
				"metallicFactor":0,
				"roughnessFactor":0.15000000596046448
			}
		},
		{
			"name":"pupil",
			"pbrMetallicRoughness":{
				"baseColorFactor":[
					0.0015479875728487968,
					0.0015479875728487968,
					0.0023219813592731953,
					1
				],
				"metallicFactor":0,
				"roughnessFactor":0.10000000149011612
			}
		},
		{
			"name":"lips",
			"pbrMetallicRoughness":{
				"baseColorFactor":[
					0.3546920716762543,
					0.25911515951156616,
					0.1473190039396286,
					1
				],
				"metallicFactor":0,
				"roughnessFactor":0.4000000059604645
			}
		},
		{
			"name":"buckle",
			"pbrMetallicRoughness":{
				"baseColorFactor":[
					0.6920710802078247,
					0.4479884207248688,
					0.07323895394802094,
					1
				],
				"metallicFactor":0.8999999761581421,
				"roughnessFactor":0.30000001192092896
			}
		},
		{
			"name":"blade",
			"normalTexture":{
				"index":6,
				"scale":0.30000001192092896
			},
			"pbrMetallicRoughness":{
				"baseColorFactor":[
					0.7484140992164612,
					0.7874122858047485,
					0.8900054097175598,
					1
				],
				"metallicFactor":0.550000011920929,
				"roughnessFactor":0.2199999988079071
			}
		}
	],
	"meshes":[
		{
			"name":"carillon",
			"primitives":[
				{
					"attributes":{
						"POSITION":0,
						"NORMAL":1,
						"TEXCOORD_0":2,
						"JOINTS_0":3,
						"WEIGHTS_0":4
					},
					"indices":5,
					"material":0
				},
				{
					"attributes":{
						"POSITION":6,
						"NORMAL":7,
						"TEXCOORD_0":8,
						"JOINTS_0":9,
						"WEIGHTS_0":10
					},
					"indices":11,
					"material":1
				},
				{
					"attributes":{
						"POSITION":12,
						"NORMAL":13,
						"TEXCOORD_0":14,
						"JOINTS_0":15,
						"WEIGHTS_0":16
					},
					"indices":17,
					"material":2
				},
				{
					"attributes":{
						"POSITION":18,
						"NORMAL":19,
						"TEXCOORD_0":20,
						"JOINTS_0":21,
						"WEIGHTS_0":22
					},
					"indices":23,
					"material":3
				},
				{
					"attributes":{
						"POSITION":24,
						"NORMAL":25,
						"TEXCOORD_0":26,
						"JOINTS_0":27,
						"WEIGHTS_0":28
					},
					"indices":29,
					"material":4
				},
				{
					"attributes":{
						"POSITION":30,
						"NORMAL":31,
						"TEXCOORD_0":32,
						"JOINTS_0":33,
						"WEIGHTS_0":34
					},
					"indices":35,
					"material":5
				},
				{
					"attributes":{
						"POSITION":36,
						"NORMAL":37,
						"TEXCOORD_0":38,
						"JOINTS_0":39,
						"WEIGHTS_0":40
					},
					"indices":41,
					"material":6
				},
				{
					"attributes":{
						"POSITION":42,
						"NORMAL":43,
						"TEXCOORD_0":44,
						"JOINTS_0":45,
						"WEIGHTS_0":46
					},
					"indices":47,
					"material":7
				},
				{
					"attributes":{
						"POSITION":48,
						"NORMAL":49,
						"TEXCOORD_0":50,
						"JOINTS_0":51,
						"WEIGHTS_0":52
					},
					"indices":53,
					"material":8
				},
				{
					"attributes":{
						"POSITION":54,
						"NORMAL":55,
						"TEXCOORD_0":56,
						"JOINTS_0":57,
						"WEIGHTS_0":58
					},
					"indices":59,
					"material":9
				},
				{
					"attributes":{
						"POSITION":60,
						"NORMAL":61,
						"TEXCOORD_0":62,
						"JOINTS_0":63,
						"WEIGHTS_0":64
					},
					"indices":65,
					"material":10
				},
				{
					"attributes":{
						"POSITION":66,
						"NORMAL":67,
						"TEXCOORD_0":68,
						"JOINTS_0":69,
						"WEIGHTS_0":70
					},
					"indices":71,
					"material":11
				}
			]
		}
	],
	"textures":[
		{
			"sampler":0,
			"source":0
		},
		{
			"sampler":0,
			"source":1
		},
		{
			"sampler":0,
			"source":2
		},
		{
			"sampler":0,
			"source":2
		},
		{
			"sampler":0,
			"source":2
		},
		{
			"sampler":0,
			"source":3
		},
		{
			"sampler":0,
			"source":4
		}
	],
	"images":[
		{
			"mimeType":"image/png",
			"name":"N_skin",
			"uri":"texturas/N_skin.png"
		},
		{
			"mimeType":"image/png",
			"name":"N_hair",
			"uri":"texturas/N_hair.png"
		},
		{
			"mimeType":"image/png",
			"name":"N_cloth",
			"uri":"texturas/N_cloth.png"
		},
		{
			"mimeType":"image/png",
			"name":"N_leather",
			"uri":"texturas/N_leather.png"
		},
		{
			"mimeType":"image/png",
			"name":"N_metal",
			"uri":"texturas/N_metal.png"
		}
	],
	"skins":[
		{
			"inverseBindMatrices":72,
			"joints":[
				16,
				9,
				8,
				1,
				0,
				4,
				3,
				2,
				7,
				6,
				5,
				12,
				11,
				10,
				15,
				14,
				13
			],
			"name":"carillon_rig"
		}
	],
	"accessors":[
		{
			"bufferView":0,
			"componentType":5126,
			"count":2562,
			"max":[
				0.5110918283462524,
				2.1407999992370605,
				0.1286550760269165
			],
			"min":[
				-0.5110918283462524,
				0.9413615465164185,
				-0.18309731781482697
			],
			"type":"VEC3"
		},
		{
			"bufferView":1,
			"componentType":5126,
			"count":2562,
			"type":"VEC3"
		},
		{
			"bufferView":2,
			"componentType":5126,
			"count":2562,
			"type":"VEC2"
		},
		{
			"bufferView":3,
			"componentType":5121,
			"count":2562,
			"type":"VEC4"
		},
		{
			"bufferView":4,
			"componentType":5126,
			"count":2562,
			"type":"VEC4"
		},
		{
			"bufferView":5,
			"componentType":5123,
			"count":10860,
			"type":"SCALAR"
		},
		{
			"bufferView":6,
			"componentType":5126,
			"count":2219,
			"max":[
				0.32404187321662903,
				2.370164394378662,
				0.33483636379241943
			],
			"min":[
				-0.32537832856178284,
				1.9044650793075562,
				-0.19483177363872528
			],
			"type":"VEC3"
		},
		{
			"bufferView":7,
			"componentType":5126,
			"count":2219,
			"type":"VEC3"
		},
		{
			"bufferView":8,
			"componentType":5126,
			"count":2219,
			"type":"VEC2"
		},
		{
			"bufferView":9,
			"componentType":5121,
			"count":2219,
			"type":"VEC4"
		},
		{
			"bufferView":10,
			"componentType":5126,
			"count":2219,
			"type":"VEC4"
		},
		{
			"bufferView":11,
			"componentType":5123,
			"count":7488,
			"type":"SCALAR"
		},
		{
			"bufferView":12,
			"componentType":5126,
			"count":381,
			"max":[
				0.45928382873535156,
				1.7697590589523315,
				0.2093307077884674
			],
			"min":[
				-0.45928385853767395,
				1.1392714977264404,
				-0.21131518483161926
			],
			"type":"VEC3"
		},
		{
			"bufferView":13,
			"componentType":5126,
			"count":381,
			"type":"VEC3"
		},
		{
			"bufferView":14,
			"componentType":5126,
			"count":381,
			"type":"VEC2"
		},
		{
			"bufferView":15,
			"componentType":5121,
			"count":381,
			"type":"VEC4"
		},
		{
			"bufferView":16,
			"componentType":5126,
			"count":381,
			"type":"VEC4"
		},
		{
			"bufferView":17,
			"componentType":5123,
			"count":1428,
			"type":"SCALAR"
		},
		{
			"bufferView":18,
			"componentType":5126,
			"count":60,
			"max":[
				0.22257570922374725,
				1.2127808332443237,
				0.21491293609142303
			],
			"min":[
				-0.22257570922374725,
				1.0543361902236938,
				-0.21652325987815857
			],
			"type":"VEC3"
		},
		{
			"bufferView":19,
			"componentType":5126,
			"count":60,
			"type":"VEC3"
		},
		{
			"bufferView":20,
			"componentType":5126,
			"count":60,
			"type":"VEC2"
		},
		{
			"bufferView":21,
			"componentType":5121,
			"count":60,
			"type":"VEC4"
		},
		{
			"bufferView":22,
			"componentType":5126,
			"count":60,
			"type":"VEC4"
		},
		{
			"bufferView":23,
			"componentType":5123,
			"count":168,
			"type":"SCALAR"
		},
		{
			"bufferView":24,
			"componentType":5126,
			"count":668,
			"max":[
				0.5040452480316162,
				1.1392714977264404,
				0.21272382140159607
			],
			"min":[
				-0.5040451884269714,
				0.3504128158092499,
				-0.21460160613059998
			],
			"type":"VEC3"
		},
		{
			"bufferView":25,
			"componentType":5126,
			"count":668,
			"type":"VEC3"
		},
		{
			"bufferView":26,
			"componentType":5126,
			"count":668,
			"type":"VEC2"
		},
		{
			"bufferView":27,
			"componentType":5121,
			"count":668,
			"type":"VEC4"
		},
		{
			"bufferView":28,
			"componentType":5126,
			"count":668,
			"type":"VEC4"
		},
		{
			"bufferView":29,
			"componentType":5123,
			"count":2808,
			"type":"SCALAR"
		},
		{
			"bufferView":30,
			"componentType":5126,
			"count":874,
			"max":[
				0.2555087208747864,
				0.3587590456008911,
				0.106747105717659
			],
			"min":[
				-0.2555087208747864,
				0.009123067371547222,
				-0.16814348101615906
			],
			"type":"VEC3"
		},
		{
			"bufferView":31,
			"componentType":5126,
			"count":874,
			"type":"VEC3"
		},
		{
			"bufferView":32,
			"componentType":5126,
			"count":874,
			"type":"VEC2"
		},
		{
			"bufferView":33,
			"componentType":5121,
			"count":874,
			"type":"VEC4"
		},
		{
			"bufferView":34,
			"componentType":5126,
			"count":874,
			"type":"VEC4"
		},
		{
			"bufferView":35,
			"componentType":5123,
			"count":3840,
			"type":"SCALAR"
		},
		{
			"bufferView":36,
			"componentType":5126,
			"count":304,
			"max":[
				0.06120000034570694,
				2.0238001346588135,
				-0.08400000631809235
			],
			"min":[
				-0.06120000034570694,
				1.9961999654769897,
				-0.10560000687837601
			],
			"type":"VEC3"
		},
		{
			"bufferView":37,
			"componentType":5126,
			"count":304,
			"type":"VEC3"
		},
		{
			"bufferView":38,
			"componentType":5126,
			"count":304,
			"type":"VEC2"
		},
		{
			"bufferView":39,
			"componentType":5121,
			"count":304,
			"type":"VEC4"
		},
		{
			"bufferView":40,
			"componentType":5126,
			"count":304,
			"type":"VEC4"
		},
		{
			"bufferView":41,
			"componentType":5123,
			"count":1152,
			"type":"SCALAR"
		},
		{
			"bufferView":42,
			"componentType":5126,
			"count":220,
			"max":[
				0.05220000073313713,
				2.0217602252960205,
				-0.09746430069208145
			],
			"min":[
				-0.05220000073313713,
				1.9982401132583618,
				-0.10773571580648422
			],
			"type":"VEC3"
		},
		{
			"bufferView":43,
			"componentType":5126,
			"count":220,
			"type":"VEC3"
		},
		{
			"bufferView":44,
			"componentType":5126,
			"count":220,
			"type":"VEC2"
		},
		{
			"bufferView":45,
			"componentType":5121,
			"count":220,
			"type":"VEC4"
		},
		{
			"bufferView":46,
			"componentType":5126,
			"count":220,
			"type":"VEC4"
		},
		{
			"bufferView":47,
			"componentType":5123,
			"count":720,
			"type":"SCALAR"
		},
		{
			"bufferView":48,
			"componentType":5126,
			"count":160,
			"max":[
				0.045593325048685074,
				2.0154001712799072,
				-0.10427746921777725
			],
			"min":[
				-0.045593325048685074,
				2.0046000480651855,
				-0.10884254425764084
			],
			"type":"VEC3"
		},
		{
			"bufferView":49,
			"componentType":5126,
			"count":160,
			"type":"VEC3"
		},
		{
			"bufferView":50,
			"componentType":5126,
			"count":160,
			"type":"VEC2"
		},
		{
			"bufferView":51,
			"componentType":5121,
			"count":160,
			"type":"VEC4"
		},
		{
			"bufferView":52,
			"componentType":5126,
			"count":160,
			"type":"VEC4"
		},
		{
			"bufferView":53,
			"componentType":5123,
			"count":480,
			"type":"SCALAR"
		},
		{
			"bufferView":54,
			"componentType":5126,
			"count":98,
			"max":[
				0.02280000038444996,
				1.9290000200271606,
				-0.09326429665088654
			],
			"min":[
				-0.02280000038444996,
				1.918200135231018,
				-0.1035357117652893
			],
			"type":"VEC3"
		},
		{
			"bufferView":55,
			"componentType":5126,
			"count":98,
			"type":"VEC3"
		},
		{
			"bufferView":56,
			"componentType":5126,
			"count":98,
			"type":"VEC2"
		},
		{
			"bufferView":57,
			"componentType":5121,
			"count":98,
			"type":"VEC4"
		},
		{
			"bufferView":58,
			"componentType":5126,
			"count":98,
			"type":"VEC4"
		},
		{
			"bufferView":59,
			"componentType":5123,
			"count":360,
			"type":"SCALAR"
		},
		{
			"bufferView":60,
			"componentType":5126,
			"count":24,
			"max":[
				0.030000001192092896,
				1.1640000343322754,
				-0.1527000069618225
			],
			"min":[
				-0.030000001192092896,
				1.1160000562667847,
				-0.1670999974012375
			],
			"type":"VEC3"
		},
		{
			"bufferView":61,
			"componentType":5126,
			"count":24,
			"type":"VEC3"
		},
		{
			"bufferView":62,
			"componentType":5126,
			"count":24,
			"type":"VEC2"
		},
		{
			"bufferView":63,
			"componentType":5121,
			"count":24,
			"type":"VEC4"
		},
		{
			"bufferView":64,
			"componentType":5126,
			"count":24,
			"type":"VEC4"
		},
		{
			"bufferView":65,
			"componentType":5123,
			"count":36,
			"type":"SCALAR"
		},
		{
			"bufferView":66,
			"componentType":5126,
			"count":102,
			"max":[
				0.5124960541725159,
				0.95298832654953,
				-0.02334892377257347
			],
			"min":[
				0.4452960193157196,
				0.851376473903656,
				-0.1028313860297203
			],
			"type":"VEC3"
		},
		{
			"bufferView":67,
			"componentType":5126,
			"count":102,
			"type":"VEC3"
		},
		{
			"bufferView":68,
			"componentType":5126,
			"count":102,
			"type":"VEC2"
		},
		{
			"bufferView":69,
			"componentType":5121,
			"count":102,
			"type":"VEC4"
		},
		{
			"bufferView":70,
			"componentType":5126,
			"count":102,
			"type":"VEC4"
		},
		{
			"bufferView":71,
			"componentType":5123,
			"count":216,
			"type":"SCALAR"
		},
		{
			"bufferView":72,
			"componentType":5126,
			"count":17,
			"type":"MAT4"
		},
		{
			"bufferView":73,
			"componentType":5126,
			"count":2,
			"max":[
				0.6
			],
			"min":[
				0
			],
			"type":"SCALAR"
		},
		{
			"bufferView":74,
			"componentType":5126,
			"count":2,
			"type":"VEC3"
		},
		{
			"bufferView":75,
			"componentType":5126,
			"count":2,
			"type":"VEC4"
		},
		{
			"bufferView":76,
			"componentType":5126,
			"count":2,
			"type":"VEC3"
		},
		{
			"bufferView":77,
			"componentType":5126,
			"count":2,
			"type":"VEC3"
		},
		{
			"bufferView":78,
			"componentType":5126,
			"count":2,
			"type":"VEC4"
		},
		{
			"bufferView":79,
			"componentType":5126,
			"count":2,
			"type":"VEC3"
		},
		{
			"bufferView":80,
			"componentType":5126,
			"count":2,
			"type":"VEC3"
		},
		{
			"bufferView":81,
			"componentType":5126,
			"count":19,
			"max":[
				0.6
			],
			"min":[
				0
			],
			"type":"SCALAR"
		},
		{
			"bufferView":82,
			"componentType":5126,
			"count":19,
			"type":"VEC4"
		},
		{
			"bufferView":83,
			"componentType":5126,
			"count":2,
			"type":"VEC3"
		},
		{
			"bufferView":84,
			"componentType":5126,
			"count":2,
			"type":"VEC3"
		},
		{
			"bufferView":85,
			"componentType":5126,
			"count":2,
			"type":"VEC4"
		},
		{
			"bufferView":86,
			"componentType":5126,
			"count":2,
			"type":"VEC3"
		},
		{
			"bufferView":87,
			"componentType":5126,
			"count":2,
			"type":"VEC3"
		},
		{
			"bufferView":88,
			"componentType":5126,
			"count":2,
			"type":"VEC4"
		},
		{
			"bufferView":89,
			"componentType":5126,
			"count":2,
			"type":"VEC3"
		},
		{
			"bufferView":90,
			"componentType":5126,
			"count":2,
			"type":"VEC3"
		},
		{
			"bufferView":91,
			"componentType":5126,
			"count":19,
			"type":"VEC4"
		},
		{
			"bufferView":92,
			"componentType":5126,
			"count":2,
			"type":"VEC3"
		},
		{
			"bufferView":93,
			"componentType":5126,
			"count":2,
			"type":"VEC3"
		},
		{
			"bufferView":94,
			"componentType":5126,
			"count":19,
			"type":"VEC4"
		},
		{
			"bufferView":95,
			"componentType":5126,
			"count":2,
			"type":"VEC3"
		},
		{
			"bufferView":96,
			"componentType":5126,
			"count":2,
			"type":"VEC3"
		},
		{
			"bufferView":97,
			"componentType":5126,
			"count":2,
			"type":"VEC4"
		},
		{
			"bufferView":98,
			"componentType":5126,
			"count":2,
			"type":"VEC3"
		},
		{
			"bufferView":99,
			"componentType":5126,
			"count":2,
			"type":"VEC3"
		},
		{
			"bufferView":100,
			"componentType":5126,
			"count":19,
			"type":"VEC4"
		},
		{
			"bufferView":101,
			"componentType":5126,
			"count":2,
			"type":"VEC3"
		},
		{
			"bufferView":102,
			"componentType":5126,
			"count":2,
			"type":"VEC3"
		},
		{
			"bufferView":103,
			"componentType":5126,
			"count":2,
			"type":"VEC4"
		},
		{
			"bufferView":104,
			"componentType":5126,
			"count":2,
			"type":"VEC3"
		},
		{
			"bufferView":105,
			"componentType":5126,
			"count":2,
			"type":"VEC3"
		},
		{
			"bufferView":106,
			"componentType":5126,
			"count":2,
			"type":"VEC4"
		},
		{
			"bufferView":107,
			"componentType":5126,
			"count":2,
			"type":"VEC3"
		},
		{
			"bufferView":108,
			"componentType":5126,
			"count":2,
			"type":"VEC3"
		},
		{
			"bufferView":109,
			"componentType":5126,
			"count":19,
			"type":"VEC4"
		},
		{
			"bufferView":110,
			"componentType":5126,
			"count":2,
			"type":"VEC3"
		},
		{
			"bufferView":111,
			"componentType":5126,
			"count":2,
			"type":"VEC3"
		},
		{
			"bufferView":112,
			"componentType":5126,
			"count":2,
			"type":"VEC4"
		},
		{
			"bufferView":113,
			"componentType":5126,
			"count":2,
			"type":"VEC3"
		},
		{
			"bufferView":114,
			"componentType":5126,
			"count":2,
			"type":"VEC3"
		},
		{
			"bufferView":115,
			"componentType":5126,
			"count":2,
			"type":"VEC4"
		},
		{
			"bufferView":116,
			"componentType":5126,
			"count":2,
			"type":"VEC3"
		},
		{
			"bufferView":117,
			"componentType":5126,
			"count":2,
			"type":"VEC3"
		},
		{
			"bufferView":118,
			"componentType":5126,
			"count":19,
			"type":"VEC4"
		},
		{
			"bufferView":119,
			"componentType":5126,
			"count":2,
			"type":"VEC3"
		},
		{
			"bufferView":120,
			"componentType":5126,
			"count":2,
			"type":"VEC3"
		},
		{
			"bufferView":121,
			"componentType":5126,
			"count":2,
			"type":"VEC4"
		},
		{
			"bufferView":122,
			"componentType":5126,
			"count":2,
			"type":"VEC3"
		},
		{
			"bufferView":123,
			"componentType":5126,
			"count":2,
			"type":"VEC3"
		},
		{
			"bufferView":124,
			"componentType":5126,
			"count":2,
			"type":"VEC4"
		},
		{
			"bufferView":125,
			"componentType":5126,
			"count":2,
			"type":"VEC3"
		},
		{
			"bufferView":126,
			"componentType":5126,
			"count":61,
			"max":[
				2
			],
			"min":[
				0
			],
			"type":"SCALAR"
		},
		{
			"bufferView":127,
			"componentType":5126,
			"count":61,
			"type":"VEC3"
		},
		{
			"bufferView":128,
			"componentType":5126,
			"count":2,
			"max":[
				2
			],
			"min":[
				0
			],
			"type":"SCALAR"
		},
		{
			"bufferView":129,
			"componentType":5126,
			"count":2,
			"type":"VEC4"
		},
		{
			"bufferView":130,
			"componentType":5126,
			"count":2,
			"type":"VEC3"
		},
		{
			"bufferView":131,
			"componentType":5126,
			"count":2,
			"type":"VEC3"
		},
		{
			"bufferView":132,
			"componentType":5126,
			"count":2,
			"type":"VEC4"
		},
		{
			"bufferView":133,
			"componentType":5126,
			"count":2,
			"type":"VEC3"
		},
		{
			"bufferView":134,
			"componentType":5126,
			"count":2,
			"type":"VEC3"
		},
		{
			"bufferView":135,
			"componentType":5126,
			"count":61,
			"type":"VEC4"
		},
		{
			"bufferView":136,
			"componentType":5126,
			"count":2,
			"type":"VEC3"
		},
		{
			"bufferView":137,
			"componentType":5126,
			"count":2,
			"type":"VEC3"
		},
		{
			"bufferView":138,
			"componentType":5126,
			"count":2,
			"type":"VEC4"
		},
		{
			"bufferView":139,
			"componentType":5126,
			"count":2,
			"type":"VEC3"
		},
		{
			"bufferView":140,
			"componentType":5126,
			"count":2,
			"type":"VEC3"
		},
		{
			"bufferView":141,
			"componentType":5126,
			"count":61,
			"type":"VEC4"
		},
		{
			"bufferView":142,
			"componentType":5126,
			"count":2,
			"type":"VEC3"
		},
		{
			"bufferView":143,
			"componentType":5126,
			"count":2,
			"type":"VEC3"
		},
		{
			"bufferView":144,
			"componentType":5126,
			"count":61,
			"type":"VEC4"
		},
		{
			"bufferView":145,
			"componentType":5126,
			"count":2,
			"type":"VEC3"
		},
		{
			"bufferView":146,
			"componentType":5126,
			"count":2,
			"type":"VEC3"
		},
		{
			"bufferView":147,
			"componentType":5126,
			"count":2,
			"type":"VEC4"
		},
		{
			"bufferView":148,
			"componentType":5126,
			"count":2,
			"type":"VEC3"
		},
		{
			"bufferView":149,
			"componentType":5126,
			"count":2,
			"type":"VEC3"
		},
		{
			"bufferView":150,
			"componentType":5126,
			"count":2,
			"type":"VEC4"
		},
		{
			"bufferView":151,
			"componentType":5126,
			"count":2,
			"type":"VEC3"
		},
		{
			"bufferView":152,
			"componentType":5126,
			"count":2,
			"type":"VEC3"
		},
		{
			"bufferView":153,
			"componentType":5126,
			"count":61,
			"type":"VEC4"
		},
		{
			"bufferView":154,
			"componentType":5126,
			"count":2,
			"type":"VEC3"
		},
		{
			"bufferView":155,
			"componentType":5126,
			"count":2,
			"type":"VEC3"
		},
		{
			"bufferView":156,
			"componentType":5126,
			"count":2,
			"type":"VEC4"
		},
		{
			"bufferView":157,
			"componentType":5126,
			"count":2,
			"type":"VEC3"
		},
		{
			"bufferView":158,
			"componentType":5126,
			"count":2,
			"type":"VEC3"
		},
		{
			"bufferView":159,
			"componentType":5126,
			"count":2,
			"type":"VEC4"
		},
		{
			"bufferView":160,
			"componentType":5126,
			"count":2,
			"type":"VEC3"
		},
		{
			"bufferView":161,
			"componentType":5126,
			"count":2,
			"type":"VEC3"
		},
		{
			"bufferView":162,
			"componentType":5126,
			"count":2,
			"type":"VEC4"
		},
		{
			"bufferView":163,
			"componentType":5126,
			"count":2,
			"type":"VEC3"
		},
		{
			"bufferView":164,
			"componentType":5126,
			"count":2,
			"type":"VEC3"
		},
		{
			"bufferView":165,
			"componentType":5126,
			"count":2,
			"type":"VEC4"
		},
		{
			"bufferView":166,
			"componentType":5126,
			"count":2,
			"type":"VEC3"
		},
		{
			"bufferView":167,
			"componentType":5126,
			"count":2,
			"type":"VEC3"
		},
		{
			"bufferView":168,
			"componentType":5126,
			"count":2,
			"type":"VEC4"
		},
		{
			"bufferView":169,
			"componentType":5126,
			"count":2,
			"type":"VEC3"
		},
		{
			"bufferView":170,
			"componentType":5126,
			"count":2,
			"type":"VEC3"
		},
		{
			"bufferView":171,
			"componentType":5126,
			"count":2,
			"type":"VEC4"
		},
		{
			"bufferView":172,
			"componentType":5126,
			"count":2,
			"type":"VEC3"
		},
		{
			"bufferView":173,
			"componentType":5126,
			"count":2,
			"type":"VEC3"
		},
		{
			"bufferView":174,
			"componentType":5126,
			"count":2,
			"type":"VEC4"
		},
		{
			"bufferView":175,
			"componentType":5126,
			"count":2,
			"type":"VEC3"
		},
		{
			"bufferView":176,
			"componentType":5126,
			"count":2,
			"type":"VEC3"
		},
		{
			"bufferView":177,
			"componentType":5126,
			"count":2,
			"type":"VEC4"
		},
		{
			"bufferView":178,
			"componentType":5126,
			"count":2,
			"type":"VEC3"
		},
		{
			"bufferView":179,
			"componentType":5126,
			"count":31,
			"max":[
				1
			],
			"min":[
				0
			],
			"type":"SCALAR"
		},
		{
			"bufferView":180,
			"componentType":5126,
			"count":31,
			"type":"VEC3"
		},
		{
			"bufferView":181,
			"componentType":5126,
			"count":31,
			"type":"VEC4"
		},
		{
			"bufferView":182,
			"componentType":5126,
			"count":2,
			"max":[
				1
			],
			"min":[
				0
			],
			"type":"SCALAR"
		},
		{
			"bufferView":183,
			"componentType":5126,
			"count":2,
			"type":"VEC3"
		},
		{
			"bufferView":184,
			"componentType":5126,
			"count":2,
			"type":"VEC3"
		},
		{
			"bufferView":185,
			"componentType":5126,
			"count":2,
			"type":"VEC4"
		},
		{
			"bufferView":186,
			"componentType":5126,
			"count":2,
			"type":"VEC3"
		},
		{
			"bufferView":187,
			"componentType":5126,
			"count":2,
			"type":"VEC3"
		},
		{
			"bufferView":188,
			"componentType":5126,
			"count":31,
			"type":"VEC4"
		},
		{
			"bufferView":189,
			"componentType":5126,
			"count":2,
			"type":"VEC3"
		},
		{
			"bufferView":190,
			"componentType":5126,
			"count":2,
			"type":"VEC3"
		},
		{
			"bufferView":191,
			"componentType":5126,
			"count":2,
			"type":"VEC4"
		},
		{
			"bufferView":192,
			"componentType":5126,
			"count":2,
			"type":"VEC3"
		},
		{
			"bufferView":193,
			"componentType":5126,
			"count":2,
			"type":"VEC3"
		},
		{
			"bufferView":194,
			"componentType":5126,
			"count":2,
			"type":"VEC4"
		},
		{
			"bufferView":195,
			"componentType":5126,
			"count":2,
			"type":"VEC3"
		},
		{
			"bufferView":196,
			"componentType":5126,
			"count":2,
			"type":"VEC3"
		},
		{
			"bufferView":197,
			"componentType":5126,
			"count":31,
			"type":"VEC4"
		},
		{
			"bufferView":198,
			"componentType":5126,
			"count":2,
			"type":"VEC3"
		},
		{
			"bufferView":199,
			"componentType":5126,
			"count":2,
			"type":"VEC3"
		},
		{
			"bufferView":200,
			"componentType":5126,
			"count":2,
			"type":"VEC4"
		},
		{
			"bufferView":201,
			"componentType":5126,
			"count":2,
			"type":"VEC3"
		},
		{
			"bufferView":202,
			"componentType":5126,
			"count":2,
			"type":"VEC3"
		},
		{
			"bufferView":203,
			"componentType":5126,
			"count":2,
			"type":"VEC4"
		},
		{
			"bufferView":204,
			"componentType":5126,
			"count":2,
			"type":"VEC3"
		},
		{
			"bufferView":205,
			"componentType":5126,
			"count":2,
			"type":"VEC3"
		},
		{
			"bufferView":206,
			"componentType":5126,
			"count":31,
			"type":"VEC4"
		},
		{
			"bufferView":207,
			"componentType":5126,
			"count":2,
			"type":"VEC3"
		},
		{
			"bufferView":208,
			"componentType":5126,
			"count":2,
			"type":"VEC3"
		},
		{
			"bufferView":209,
			"componentType":5126,
			"count":2,
			"type":"VEC4"
		},
		{
			"bufferView":210,
			"componentType":5126,
			"count":2,
			"type":"VEC3"
		},
		{
			"bufferView":211,
			"componentType":5126,
			"count":2,
			"type":"VEC3"
		},
		{
			"bufferView":212,
			"componentType":5126,
			"count":2,
			"type":"VEC4"
		},
		{
			"bufferView":213,
			"componentType":5126,
			"count":2,
			"type":"VEC3"
		},
		{
			"bufferView":214,
			"componentType":5126,
			"count":2,
			"type":"VEC3"
		},
		{
			"bufferView":215,
			"componentType":5126,
			"count":31,
			"type":"VEC4"
		},
		{
			"bufferView":216,
			"componentType":5126,
			"count":2,
			"type":"VEC3"
		},
		{
			"bufferView":217,
			"componentType":5126,
			"count":2,
			"type":"VEC3"
		},
		{
			"bufferView":218,
			"componentType":5126,
			"count":31,
			"type":"VEC4"
		},
		{
			"bufferView":219,
			"componentType":5126,
			"count":2,
			"type":"VEC3"
		},
		{
			"bufferView":220,
			"componentType":5126,
			"count":2,
			"type":"VEC3"
		},
		{
			"bufferView":221,
			"componentType":5126,
			"count":31,
			"type":"VEC4"
		},
		{
			"bufferView":222,
			"componentType":5126,
			"count":2,
			"type":"VEC3"
		},
		{
			"bufferView":223,
			"componentType":5126,
			"count":2,
			"type":"VEC3"
		},
		{
			"bufferView":224,
			"componentType":5126,
			"count":31,
			"type":"VEC4"
		},
		{
			"bufferView":225,
			"componentType":5126,
			"count":2,
			"type":"VEC3"
		},
		{
			"bufferView":226,
			"componentType":5126,
			"count":2,
			"type":"VEC3"
		},
		{
			"bufferView":227,
			"componentType":5126,
			"count":31,
			"type":"VEC4"
		},
		{
			"bufferView":228,
			"componentType":5126,
			"count":2,
			"type":"VEC3"
		},
		{
			"bufferView":229,
			"componentType":5126,
			"count":2,
			"type":"VEC3"
		},
		{
			"bufferView":230,
			"componentType":5126,
			"count":31,
			"type":"VEC4"
		},
		{
			"bufferView":231,
			"componentType":5126,
			"count":2,
			"type":"VEC3"
		}
	],
	"bufferViews":[
		{
			"buffer":0,
			"byteLength":30744,
			"byteOffset":0,
			"target":34962
		},
		{
			"buffer":0,
			"byteLength":30744,
			"byteOffset":30744,
			"target":34962
		},
		{
			"buffer":0,
			"byteLength":20496,
			"byteOffset":61488,
			"target":34962
		},
		{
			"buffer":0,
			"byteLength":10248,
			"byteOffset":81984,
			"target":34962
		},
		{
			"buffer":0,
			"byteLength":40992,
			"byteOffset":92232,
			"target":34962
		},
		{
			"buffer":0,
			"byteLength":21720,
			"byteOffset":133224,
			"target":34963
		},
		{
			"buffer":0,
			"byteLength":26628,
			"byteOffset":154944,
			"target":34962
		},
		{
			"buffer":0,
			"byteLength":26628,
			"byteOffset":181572,
			"target":34962
		},
		{
			"buffer":0,
			"byteLength":17752,
			"byteOffset":208200,
			"target":34962
		},
		{
			"buffer":0,
			"byteLength":8876,
			"byteOffset":225952,
			"target":34962
		},
		{
			"buffer":0,
			"byteLength":35504,
			"byteOffset":234828,
			"target":34962
		},
		{
			"buffer":0,
			"byteLength":14976,
			"byteOffset":270332,
			"target":34963
		},
		{
			"buffer":0,
			"byteLength":4572,
			"byteOffset":285308,
			"target":34962
		},
		{
			"buffer":0,
			"byteLength":4572,
			"byteOffset":289880,
			"target":34962
		},
		{
			"buffer":0,
			"byteLength":3048,
			"byteOffset":294452,
			"target":34962
		},
		{
			"buffer":0,
			"byteLength":1524,
			"byteOffset":297500,
			"target":34962
		},
		{
			"buffer":0,
			"byteLength":6096,
			"byteOffset":299024,
			"target":34962
		},
		{
			"buffer":0,
			"byteLength":2856,
			"byteOffset":305120,
			"target":34963
		},
		{
			"buffer":0,
			"byteLength":720,
			"byteOffset":307976,
			"target":34962
		},
		{
			"buffer":0,
			"byteLength":720,
			"byteOffset":308696,
			"target":34962
		},
		{
			"buffer":0,
			"byteLength":480,
			"byteOffset":309416,
			"target":34962
		},
		{
			"buffer":0,
			"byteLength":240,
			"byteOffset":309896,
			"target":34962
		},
		{
			"buffer":0,
			"byteLength":960,
			"byteOffset":310136,
			"target":34962
		},
		{
			"buffer":0,
			"byteLength":336,
			"byteOffset":311096,
			"target":34963
		},
		{
			"buffer":0,
			"byteLength":8016,
			"byteOffset":311432,
			"target":34962
		},
		{
			"buffer":0,
			"byteLength":8016,
			"byteOffset":319448,
			"target":34962
		},
		{
			"buffer":0,
			"byteLength":5344,
			"byteOffset":327464,
			"target":34962
		},
		{
			"buffer":0,
			"byteLength":2672,
			"byteOffset":332808,
			"target":34962
		},
		{
			"buffer":0,
			"byteLength":10688,
			"byteOffset":335480,
			"target":34962
		},
		{
			"buffer":0,
			"byteLength":5616,
			"byteOffset":346168,
			"target":34963
		},
		{
			"buffer":0,
			"byteLength":10488,
			"byteOffset":351784,
			"target":34962
		},
		{
			"buffer":0,
			"byteLength":10488,
			"byteOffset":362272,
			"target":34962
		},
		{
			"buffer":0,
			"byteLength":6992,
			"byteOffset":372760,
			"target":34962
		},
		{
			"buffer":0,
			"byteLength":3496,
			"byteOffset":379752,
			"target":34962
		},
		{
			"buffer":0,
			"byteLength":13984,
			"byteOffset":383248,
			"target":34962
		},
		{
			"buffer":0,
			"byteLength":7680,
			"byteOffset":397232,
			"target":34963
		},
		{
			"buffer":0,
			"byteLength":3648,
			"byteOffset":404912,
			"target":34962
		},
		{
			"buffer":0,
			"byteLength":3648,
			"byteOffset":408560,
			"target":34962
		},
		{
			"buffer":0,
			"byteLength":2432,
			"byteOffset":412208,
			"target":34962
		},
		{
			"buffer":0,
			"byteLength":1216,
			"byteOffset":414640,
			"target":34962
		},
		{
			"buffer":0,
			"byteLength":4864,
			"byteOffset":415856,
			"target":34962
		},
		{
			"buffer":0,
			"byteLength":2304,
			"byteOffset":420720,
			"target":34963
		},
		{
			"buffer":0,
			"byteLength":2640,
			"byteOffset":423024,
			"target":34962
		},
		{
			"buffer":0,
			"byteLength":2640,
			"byteOffset":425664,
			"target":34962
		},
		{
			"buffer":0,
			"byteLength":1760,
			"byteOffset":428304,
			"target":34962
		},
		{
			"buffer":0,
			"byteLength":880,
			"byteOffset":430064,
			"target":34962
		},
		{
			"buffer":0,
			"byteLength":3520,
			"byteOffset":430944,
			"target":34962
		},
		{
			"buffer":0,
			"byteLength":1440,
			"byteOffset":434464,
			"target":34963
		},
		{
			"buffer":0,
			"byteLength":1920,
			"byteOffset":435904,
			"target":34962
		},
		{
			"buffer":0,
			"byteLength":1920,
			"byteOffset":437824,
			"target":34962
		},
		{
			"buffer":0,
			"byteLength":1280,
			"byteOffset":439744,
			"target":34962
		},
		{
			"buffer":0,
			"byteLength":640,
			"byteOffset":441024,
			"target":34962
		},
		{
			"buffer":0,
			"byteLength":2560,
			"byteOffset":441664,
			"target":34962
		},
		{
			"buffer":0,
			"byteLength":960,
			"byteOffset":444224,
			"target":34963
		},
		{
			"buffer":0,
			"byteLength":1176,
			"byteOffset":445184,
			"target":34962
		},
		{
			"buffer":0,
			"byteLength":1176,
			"byteOffset":446360,
			"target":34962
		},
		{
			"buffer":0,
			"byteLength":784,
			"byteOffset":447536,
			"target":34962
		},
		{
			"buffer":0,
			"byteLength":392,
			"byteOffset":448320,
			"target":34962
		},
		{
			"buffer":0,
			"byteLength":1568,
			"byteOffset":448712,
			"target":34962
		},
		{
			"buffer":0,
			"byteLength":720,
			"byteOffset":450280,
			"target":34963
		},
		{
			"buffer":0,
			"byteLength":288,
			"byteOffset":451000,
			"target":34962
		},
		{
			"buffer":0,
			"byteLength":288,
			"byteOffset":451288,
			"target":34962
		},
		{
			"buffer":0,
			"byteLength":192,
			"byteOffset":451576,
			"target":34962
		},
		{
			"buffer":0,
			"byteLength":96,
			"byteOffset":451768,
			"target":34962
		},
		{
			"buffer":0,
			"byteLength":384,
			"byteOffset":451864,
			"target":34962
		},
		{
			"buffer":0,
			"byteLength":72,
			"byteOffset":452248,
			"target":34963
		},
		{
			"buffer":0,
			"byteLength":1224,
			"byteOffset":452320,
			"target":34962
		},
		{
			"buffer":0,
			"byteLength":1224,
			"byteOffset":453544,
			"target":34962
		},
		{
			"buffer":0,
			"byteLength":816,
			"byteOffset":454768,
			"target":34962
		},
		{
			"buffer":0,
			"byteLength":408,
			"byteOffset":455584,
			"target":34962
		},
		{
			"buffer":0,
			"byteLength":1632,
			"byteOffset":455992,
			"target":34962
		},
		{
			"buffer":0,
			"byteLength":432,
			"byteOffset":457624,
			"target":34963
		},
		{
			"buffer":0,
			"byteLength":1088,
			"byteOffset":458056
		},
		{
			"buffer":0,
			"byteLength":8,
			"byteOffset":459144
		},
		{
			"buffer":0,
			"byteLength":24,
			"byteOffset":459152
		},
		{
			"buffer":0,
			"byteLength":32,
			"byteOffset":459176
		},
		{
			"buffer":0,
			"byteLength":24,
			"byteOffset":459208
		},
		{
			"buffer":0,
			"byteLength":24,
			"byteOffset":459232
		},
		{
			"buffer":0,
			"byteLength":32,
			"byteOffset":459256
		},
		{
			"buffer":0,
			"byteLength":24,
			"byteOffset":459288
		},
		{
			"buffer":0,
			"byteLength":24,
			"byteOffset":459312
		},
		{
			"buffer":0,
			"byteLength":76,
			"byteOffset":459336
		},
		{
			"buffer":0,
			"byteLength":304,
			"byteOffset":459412
		},
		{
			"buffer":0,
			"byteLength":24,
			"byteOffset":459716
		},
		{
			"buffer":0,
			"byteLength":24,
			"byteOffset":459740
		},
		{
			"buffer":0,
			"byteLength":32,
			"byteOffset":459764
		},
		{
			"buffer":0,
			"byteLength":24,
			"byteOffset":459796
		},
		{
			"buffer":0,
			"byteLength":24,
			"byteOffset":459820
		},
		{
			"buffer":0,
			"byteLength":32,
			"byteOffset":459844
		},
		{
			"buffer":0,
			"byteLength":24,
			"byteOffset":459876
		},
		{
			"buffer":0,
			"byteLength":24,
			"byteOffset":459900
		},
		{
			"buffer":0,
			"byteLength":304,
			"byteOffset":459924
		},
		{
			"buffer":0,
			"byteLength":24,
			"byteOffset":460228
		},
		{
			"buffer":0,
			"byteLength":24,
			"byteOffset":460252
		},
		{
			"buffer":0,
			"byteLength":304,
			"byteOffset":460276
		},
		{
			"buffer":0,
			"byteLength":24,
			"byteOffset":460580
		},
		{
			"buffer":0,
			"byteLength":24,
			"byteOffset":460604
		},
		{
			"buffer":0,
			"byteLength":32,
			"byteOffset":460628
		},
		{
			"buffer":0,
			"byteLength":24,
			"byteOffset":460660
		},
		{
			"buffer":0,
			"byteLength":24,
			"byteOffset":460684
		},
		{
			"buffer":0,
			"byteLength":304,
			"byteOffset":460708
		},
		{
			"buffer":0,
			"byteLength":24,
			"byteOffset":461012
		},
		{
			"buffer":0,
			"byteLength":24,
			"byteOffset":461036
		},
		{
			"buffer":0,
			"byteLength":32,
			"byteOffset":461060
		},
		{
			"buffer":0,
			"byteLength":24,
			"byteOffset":461092
		},
		{
			"buffer":0,
			"byteLength":24,
			"byteOffset":461116
		},
		{
			"buffer":0,
			"byteLength":32,
			"byteOffset":461140
		},
		{
			"buffer":0,
			"byteLength":24,
			"byteOffset":461172
		},
		{
			"buffer":0,
			"byteLength":24,
			"byteOffset":461196
		},
		{
			"buffer":0,
			"byteLength":304,
			"byteOffset":461220
		},
		{
			"buffer":0,
			"byteLength":24,
			"byteOffset":461524
		},
		{
			"buffer":0,
			"byteLength":24,
			"byteOffset":461548
		},
		{
			"buffer":0,
			"byteLength":32,
			"byteOffset":461572
		},
		{
			"buffer":0,
			"byteLength":24,
			"byteOffset":461604
		},
		{
			"buffer":0,
			"byteLength":24,
			"byteOffset":461628
		},
		{
			"buffer":0,
			"byteLength":32,
			"byteOffset":461652
		},
		{
			"buffer":0,
			"byteLength":24,
			"byteOffset":461684
		},
		{
			"buffer":0,
			"byteLength":24,
			"byteOffset":461708
		},
		{
			"buffer":0,
			"byteLength":304,
			"byteOffset":461732
		},
		{
			"buffer":0,
			"byteLength":24,
			"byteOffset":462036
		},
		{
			"buffer":0,
			"byteLength":24,
			"byteOffset":462060
		},
		{
			"buffer":0,
			"byteLength":32,
			"byteOffset":462084
		},
		{
			"buffer":0,
			"byteLength":24,
			"byteOffset":462116
		},
		{
			"buffer":0,
			"byteLength":24,
			"byteOffset":462140
		},
		{
			"buffer":0,
			"byteLength":32,
			"byteOffset":462164
		},
		{
			"buffer":0,
			"byteLength":24,
			"byteOffset":462196
		},
		{
			"buffer":0,
			"byteLength":244,
			"byteOffset":462220
		},
		{
			"buffer":0,
			"byteLength":732,
			"byteOffset":462464
		},
		{
			"buffer":0,
			"byteLength":8,
			"byteOffset":463196
		},
		{
			"buffer":0,
			"byteLength":32,
			"byteOffset":463204
		},
		{
			"buffer":0,
			"byteLength":24,
			"byteOffset":463236
		},
		{
			"buffer":0,
			"byteLength":24,
			"byteOffset":463260
		},
		{
			"buffer":0,
			"byteLength":32,
			"byteOffset":463284
		},
		{
			"buffer":0,
			"byteLength":24,
			"byteOffset":463316
		},
		{
			"buffer":0,
			"byteLength":24,
			"byteOffset":463340
		},
		{
			"buffer":0,
			"byteLength":976,
			"byteOffset":463364
		},
		{
			"buffer":0,
			"byteLength":24,
			"byteOffset":464340
		},
		{
			"buffer":0,
			"byteLength":24,
			"byteOffset":464364
		},
		{
			"buffer":0,
			"byteLength":32,
			"byteOffset":464388
		},
		{
			"buffer":0,
			"byteLength":24,
			"byteOffset":464420
		},
		{
			"buffer":0,
			"byteLength":24,
			"byteOffset":464444
		},
		{
			"buffer":0,
			"byteLength":976,
			"byteOffset":464468
		},
		{
			"buffer":0,
			"byteLength":24,
			"byteOffset":465444
		},
		{
			"buffer":0,
			"byteLength":24,
			"byteOffset":465468
		},
		{
			"buffer":0,
			"byteLength":976,
			"byteOffset":465492
		},
		{
			"buffer":0,
			"byteLength":24,
			"byteOffset":466468
		},
		{
			"buffer":0,
			"byteLength":24,
			"byteOffset":466492
		},
		{
			"buffer":0,
			"byteLength":32,
			"byteOffset":466516
		},
		{
			"buffer":0,
			"byteLength":24,
			"byteOffset":466548
		},
		{
			"buffer":0,
			"byteLength":24,
			"byteOffset":466572
		},
		{
			"buffer":0,
			"byteLength":32,
			"byteOffset":466596
		},
		{
			"buffer":0,
			"byteLength":24,
			"byteOffset":466628
		},
		{
			"buffer":0,
			"byteLength":24,
			"byteOffset":466652
		},
		{
			"buffer":0,
			"byteLength":976,
			"byteOffset":466676
		},
		{
			"buffer":0,
			"byteLength":24,
			"byteOffset":467652
		},
		{
			"buffer":0,
			"byteLength":24,
			"byteOffset":467676
		},
		{
			"buffer":0,
			"byteLength":32,
			"byteOffset":467700
		},
		{
			"buffer":0,
			"byteLength":24,
			"byteOffset":467732
		},
		{
			"buffer":0,
			"byteLength":24,
			"byteOffset":467756
		},
		{
			"buffer":0,
			"byteLength":32,
			"byteOffset":467780
		},
		{
			"buffer":0,
			"byteLength":24,
			"byteOffset":467812
		},
		{
			"buffer":0,
			"byteLength":24,
			"byteOffset":467836
		},
		{
			"buffer":0,
			"byteLength":32,
			"byteOffset":467860
		},
		{
			"buffer":0,
			"byteLength":24,
			"byteOffset":467892
		},
		{
			"buffer":0,
			"byteLength":24,
			"byteOffset":467916
		},
		{
			"buffer":0,
			"byteLength":32,
			"byteOffset":467940
		},
		{
			"buffer":0,
			"byteLength":24,
			"byteOffset":467972
		},
		{
			"buffer":0,
			"byteLength":24,
			"byteOffset":467996
		},
		{
			"buffer":0,
			"byteLength":32,
			"byteOffset":468020
		},
		{
			"buffer":0,
			"byteLength":24,
			"byteOffset":468052
		},
		{
			"buffer":0,
			"byteLength":24,
			"byteOffset":468076
		},
		{
			"buffer":0,
			"byteLength":32,
			"byteOffset":468100
		},
		{
			"buffer":0,
			"byteLength":24,
			"byteOffset":468132
		},
		{
			"buffer":0,
			"byteLength":24,
			"byteOffset":468156
		},
		{
			"buffer":0,
			"byteLength":32,
			"byteOffset":468180
		},
		{
			"buffer":0,
			"byteLength":24,
			"byteOffset":468212
		},
		{
			"buffer":0,
			"byteLength":24,
			"byteOffset":468236
		},
		{
			"buffer":0,
			"byteLength":32,
			"byteOffset":468260
		},
		{
			"buffer":0,
			"byteLength":24,
			"byteOffset":468292
		},
		{
			"buffer":0,
			"byteLength":124,
			"byteOffset":468316
		},
		{
			"buffer":0,
			"byteLength":372,
			"byteOffset":468440
		},
		{
			"buffer":0,
			"byteLength":496,
			"byteOffset":468812
		},
		{
			"buffer":0,
			"byteLength":8,
			"byteOffset":469308
		},
		{
			"buffer":0,
			"byteLength":24,
			"byteOffset":469316
		},
		{
			"buffer":0,
			"byteLength":24,
			"byteOffset":469340
		},
		{
			"buffer":0,
			"byteLength":32,
			"byteOffset":469364
		},
		{
			"buffer":0,
			"byteLength":24,
			"byteOffset":469396
		},
		{
			"buffer":0,
			"byteLength":24,
			"byteOffset":469420
		},
		{
			"buffer":0,
			"byteLength":496,
			"byteOffset":469444
		},
		{
			"buffer":0,
			"byteLength":24,
			"byteOffset":469940
		},
		{
			"buffer":0,
			"byteLength":24,
			"byteOffset":469964
		},
		{
			"buffer":0,
			"byteLength":32,
			"byteOffset":469988
		},
		{
			"buffer":0,
			"byteLength":24,
			"byteOffset":470020
		},
		{
			"buffer":0,
			"byteLength":24,
			"byteOffset":470044
		},
		{
			"buffer":0,
			"byteLength":32,
			"byteOffset":470068
		},
		{
			"buffer":0,
			"byteLength":24,
			"byteOffset":470100
		},
		{
			"buffer":0,
			"byteLength":24,
			"byteOffset":470124
		},
		{
			"buffer":0,
			"byteLength":496,
			"byteOffset":470148
		},
		{
			"buffer":0,
			"byteLength":24,
			"byteOffset":470644
		},
		{
			"buffer":0,
			"byteLength":24,
			"byteOffset":470668
		},
		{
			"buffer":0,
			"byteLength":32,
			"byteOffset":470692
		},
		{
			"buffer":0,
			"byteLength":24,
			"byteOffset":470724
		},
		{
			"buffer":0,
			"byteLength":24,
			"byteOffset":470748
		},
		{
			"buffer":0,
			"byteLength":32,
			"byteOffset":470772
		},
		{
			"buffer":0,
			"byteLength":24,
			"byteOffset":470804
		},
		{
			"buffer":0,
			"byteLength":24,
			"byteOffset":470828
		},
		{
			"buffer":0,
			"byteLength":496,
			"byteOffset":470852
		},
		{
			"buffer":0,
			"byteLength":24,
			"byteOffset":471348
		},
		{
			"buffer":0,
			"byteLength":24,
			"byteOffset":471372
		},
		{
			"buffer":0,
			"byteLength":32,
			"byteOffset":471396
		},
		{
			"buffer":0,
			"byteLength":24,
			"byteOffset":471428
		},
		{
			"buffer":0,
			"byteLength":24,
			"byteOffset":471452
		},
		{
			"buffer":0,
			"byteLength":32,
			"byteOffset":471476
		},
		{
			"buffer":0,
			"byteLength":24,
			"byteOffset":471508
		},
		{
			"buffer":0,
			"byteLength":24,
			"byteOffset":471532
		},
		{
			"buffer":0,
			"byteLength":496,
			"byteOffset":471556
		},
		{
			"buffer":0,
			"byteLength":24,
			"byteOffset":472052
		},
		{
			"buffer":0,
			"byteLength":24,
			"byteOffset":472076
		},
		{
			"buffer":0,
			"byteLength":496,
			"byteOffset":472100
		},
		{
			"buffer":0,
			"byteLength":24,
			"byteOffset":472596
		},
		{
			"buffer":0,
			"byteLength":24,
			"byteOffset":472620
		},
		{
			"buffer":0,
			"byteLength":496,
			"byteOffset":472644
		},
		{
			"buffer":0,
			"byteLength":24,
			"byteOffset":473140
		},
		{
			"buffer":0,
			"byteLength":24,
			"byteOffset":473164
		},
		{
			"buffer":0,
			"byteLength":496,
			"byteOffset":473188
		},
		{
			"buffer":0,
			"byteLength":24,
			"byteOffset":473684
		},
		{
			"buffer":0,
			"byteLength":24,
			"byteOffset":473708
		},
		{
			"buffer":0,
			"byteLength":496,
			"byteOffset":473732
		},
		{
			"buffer":0,
			"byteLength":24,
			"byteOffset":474228
		},
		{
			"buffer":0,
			"byteLength":24,
			"byteOffset":474252
		},
		{
			"buffer":0,
			"byteLength":496,
			"byteOffset":474276
		},
		{
			"buffer":0,
			"byteLength":24,
			"byteOffset":474772
		}
	],
	"samplers":[
		{
			"magFilter":9729,
			"minFilter":9987
		}
	],
	"buffers":[
		{
			"byteLength":474796,
			"uri":"carillon.bin"
		}
	]
}
