{
	"asset":{
		"generator":"Khronos glTF Blender I/O v4.2.57",
		"version":"2.0"
	},
	"extensionsUsed":[
		"KHR_materials_clearcoat",
		"KHR_materials_emissive_strength"
	],
	"scene":0,
	"scenes":[
		{
			"name":"Scene",
			"nodes":[
				6
			]
		}
	],
	"nodes":[
		{
			"name":"seg4",
			"translation":[
				0,
				1.0999999046325684,
				0
			]
		},
		{
			"children":[
				0
			],
			"name":"seg3",
			"translation":[
				0,
				1.100000023841858,
				0
			]
		},
		{
			"children":[
				1
			],
			"name":"seg2",
			"translation":[
				0,
				1.100000023841858,
				0
			]
		},
		{
			"children":[
				2
			],
			"name":"seg1",
			"translation":[
				0,
				1.100000023841858,
				0
			]
		},
		{
			"children":[
				3
			],
			"name":"seg0",
			"rotation":[
				0,
				0.7071067690849304,
				0.7071067690849304,
				0
			],
			"translation":[
				0,
				0.44999998807907104,
				-0.6000000238418579
			]
		},
		{
			"mesh":0,
			"name":"centipede",
			"skin":0
		},
		{
			"children":[
				5,
				4
			],
			"name":"centipede_rig"
		}
	],
	"animations":[
		{
			"channels":[
				{
					"sampler":0,
					"target":{
						"node":4,
						"path":"translation"
					}
				},
				{
					"sampler":1,
					"target":{
						"node":4,
						"path":"rotation"
					}
				},
				{
					"sampler":2,
					"target":{
						"node":4,
						"path":"scale"
					}
				},
				{
					"sampler":3,
					"target":{
						"node":3,
						"path":"translation"
					}
				},
				{
					"sampler":4,
					"target":{
						"node":3,
						"path":"rotation"
					}
				},
				{
					"sampler":5,
					"target":{
						"node":3,
						"path":"scale"
					}
				},
				{
					"sampler":6,
					"target":{
						"node":2,
						"path":"translation"
					}
				},
				{
					"sampler":7,
					"target":{
						"node":2,
						"path":"rotation"
					}
				},
				{
					"sampler":8,
					"target":{
						"node":2,
						"path":"scale"
					}
				},
				{
					"sampler":9,
					"target":{
						"node":1,
						"path":"translation"
					}
				},
				{
					"sampler":10,
					"target":{
						"node":1,
						"path":"rotation"
					}
				},
				{
					"sampler":11,
					"target":{
						"node":1,
						"path":"scale"
					}
				},
				{
					"sampler":12,
					"target":{
						"node":0,
						"path":"translation"
					}
				},
				{
					"sampler":13,
					"target":{
						"node":0,
						"path":"rotation"
					}
				},
				{
					"sampler":14,
					"target":{
						"node":0,
						"path":"scale"
					}
				}
			],
			"name":"attack",
			"samplers":[
				{
					"input":19,
					"interpolation":"LINEAR",
					"output":20
				},
				{
					"input":19,
					"interpolation":"LINEAR",
					"output":21
				},
				{
					"input":22,
					"interpolation":"STEP",
					"output":23
				},
				{
					"input":22,
					"interpolation":"STEP",
					"output":24
				},
				{
					"input":22,
					"interpolation":"STEP",
					"output":25
				},
				{
					"input":22,
					"interpolation":"STEP",
					"output":26
				},
				{
					"input":22,
					"interpolation":"STEP",
					"output":27
				},
				{
					"input":22,
					"interpolation":"STEP",
					"output":28
				},
				{
					"input":22,
					"interpolation":"STEP",
					"output":29
				},
				{
					"input":22,
					"interpolation":"STEP",
					"output":30
				},
				{
					"input":22,
					"interpolation":"STEP",
					"output":31
				},
				{
					"input":22,
					"interpolation":"STEP",
					"output":32
				},
				{
					"input":22,
					"interpolation":"STEP",
					"output":33
				},
				{
					"input":22,
					"interpolation":"STEP",
					"output":34
				},
				{
					"input":22,
					"interpolation":"STEP",
					"output":35
				}
			]
		},
		{
			"channels":[
				{
					"sampler":0,
					"target":{
						"node":4,
						"path":"translation"
					}
				},
				{
					"sampler":1,
					"target":{
						"node":4,
						"path":"rotation"
					}
				},
				{
					"sampler":2,
					"target":{
						"node":4,
						"path":"scale"
					}
				},
				{
					"sampler":3,
					"target":{
						"node":3,
						"path":"translation"
					}
				},
				{
					"sampler":4,
					"target":{
						"node":3,
						"path":"rotation"
					}
				},
				{
					"sampler":5,
					"target":{
						"node":3,
						"path":"scale"
					}
				},
				{
					"sampler":6,
					"target":{
						"node":2,
						"path":"translation"
					}
				},
				{
					"sampler":7,
					"target":{
						"node":2,
						"path":"rotation"
					}
				},
				{
					"sampler":8,
					"target":{
						"node":2,
						"path":"scale"
					}
				},
				{
					"sampler":9,
					"target":{
						"node":1,
						"path":"translation"
					}
				},
				{
					"sampler":10,
					"target":{
						"node":1,
						"path":"rotation"
					}
				},
				{
					"sampler":11,
					"target":{
						"node":1,
						"path":"scale"
					}
				},
				{
					"sampler":12,
					"target":{
						"node":0,
						"path":"translation"
					}
				},
				{
					"sampler":13,
					"target":{
						"node":0,
						"path":"rotation"
					}
				},
				{
					"sampler":14,
					"target":{
						"node":0,
						"path":"scale"
					}
				}
			],
			"name":"idle",
			"samplers":[
				{
					"input":36,
					"interpolation":"STEP",
					"output":37
				},
				{
					"input":38,
					"interpolation":"LINEAR",
					"output":39
				},
				{
					"input":36,
					"interpolation":"STEP",
					"output":40
				},
				{
					"input":36,
					"interpolation":"STEP",
					"output":41
				},
				{
					"input":38,
					"interpolation":"LINEAR",
					"output":42
				},
				{
					"input":36,
					"interpolation":"STEP",
					"output":43
				},
				{
					"input":36,
					"interpolation":"STEP",
					"output":44
				},
				{
					"input":38,
					"interpolation":"LINEAR",
					"output":45
				},
				{
					"input":36,
					"interpolation":"STEP",
					"output":46
				},
				{
					"input":36,
					"interpolation":"STEP",
					"output":47
				},
				{
					"input":38,
					"interpolation":"LINEAR",
					"output":48
				},
				{
					"input":36,
					"interpolation":"STEP",
					"output":49
				},
				{
					"input":36,
					"interpolation":"STEP",
					"output":50
				},
				{
					"input":38,
					"interpolation":"LINEAR",
					"output":51
				},
				{
					"input":36,
					"interpolation":"STEP",
					"output":52
				}
			]
		},
		{
			"channels":[
				{
					"sampler":0,
					"target":{
						"node":4,
						"path":"translation"
					}
				},
				{
					"sampler":1,
					"target":{
						"node":4,
						"path":"rotation"
					}
				},
				{
					"sampler":2,
					"target":{
						"node":4,
						"path":"scale"
					}
				},
				{
					"sampler":3,
					"target":{
						"node":3,
						"path":"translation"
					}
				},
				{
					"sampler":4,
					"target":{
						"node":3,
						"path":"rotation"
					}
				},
				{
					"sampler":5,
					"target":{
						"node":3,
						"path":"scale"
					}
				},
				{
					"sampler":6,
					"target":{
						"node":2,
						"path":"translation"
					}
				},
				{
					"sampler":7,
					"target":{
						"node":2,
						"path":"rotation"
					}
				},
				{
					"sampler":8,
					"target":{
						"node":2,
						"path":"scale"
					}
				},
				{
					"sampler":9,
					"target":{
						"node":1,
						"path":"translation"
					}
				},
				{
					"sampler":10,
					"target":{
						"node":1,
						"path":"rotation"
					}
				},
				{
					"sampler":11,
					"target":{
						"node":1,
						"path":"scale"
					}
				},
				{
					"sampler":12,
					"target":{
						"node":0,
						"path":"translation"
					}
				},
				{
					"sampler":13,
					"target":{
						"node":0,
						"path":"rotation"
					}
				},
				{
					"sampler":14,
					"target":{
						"node":0,
						"path":"scale"
					}
				}
			],
			"name":"walk",
			"samplers":[
				{
					"input":53,
					"interpolation":"STEP",
					"output":54
				},
				{
					"input":55,
					"interpolation":"LINEAR",
					"output":56
				},
				{
					"input":53,
					"interpolation":"STEP",
					"output":57
				},
				{
					"input":53,
					"interpolation":"STEP",
					"output":58
				},
				{
					"input":55,
					"interpolation":"LINEAR",
					"output":59
				},
				{
					"input":53,
					"interpolation":"STEP",
					"output":60
				},
				{
					"input":53,
					"interpolation":"STEP",
					"output":61
				},
				{
					"input":55,
					"interpolation":"LINEAR",
					"output":62
				},
				{
					"input":53,
					"interpolation":"STEP",
					"output":63
				},
				{
					"input":53,
					"interpolation":"STEP",
					"output":64
				},
				{
					"input":55,
					"interpolation":"LINEAR",
					"output":65
				},
				{
					"input":53,
					"interpolation":"STEP",
					"output":66
				},
				{
					"input":53,
					"interpolation":"STEP",
					"output":67
				},
				{
					"input":55,
					"interpolation":"LINEAR",
					"output":68
				},
				{
					"input":53,
					"interpolation":"STEP",
					"output":69
				}
			]
		}
	],
	"materials":[
		{
			"extensions":{
				"KHR_materials_clearcoat":{
					"clearcoatFactor":0.699999988079071
				}
			},
			"name":"chitin",
			"normalTexture":{
				"index":0,
				"scale":0.800000011920929
			},
			"pbrMetallicRoughness":{
				"baseColorFactor":[
					0.17064493894577026,
					0.0134117491543293,
					0.03310476616024971,
					1
				],
				"metallicFactor":0,
				"roughnessFactor":0.30000001192092896
			}
		},
		{
			"name":"legs",
			"pbrMetallicRoughness":{
				"baseColorFactor":[
					0.7874122858047485,
					0.4479884207248688,
					0.07323895394802094,
					1
				],
				"metallicFactor":0,
				"roughnessFactor":0.4000000059604645
			}
		},
		{
			"emissiveFactor":[
				1,
				0.7874122858047485,
				0.03310476616024971
			],
			"extensions":{
				"KHR_materials_emissive_strength":{
					"emissiveStrength":1.600000023841858
				}
			},
			"name":"eye",
			"pbrMetallicRoughness":{
				"baseColorFactor":[
					1,
					0.7874122858047485,
					0.03310476616024971,
					1
				],
				"metallicFactor":0,
				"roughnessFactor":0.10000000149011612
			}
		}
	],
	"meshes":[
		{
			"name":"centipede",
			"primitives":[
				{
					"attributes":{
						"POSITION":0,
						"NORMAL":1,
						"TEXCOORD_0":2,
						"JOINTS_0":3,
						"WEIGHTS_0":4
					},
					"indices":5,
					"material":0
				},
				{
					"attributes":{
						"POSITION":6,
						"NORMAL":7,
						"TEXCOORD_0":8,
						"JOINTS_0":9,
						"WEIGHTS_0":10
					},
					"indices":11,
					"material":1
				},
				{
					"attributes":{
						"POSITION":12,
						"NORMAL":13,
						"TEXCOORD_0":14,
						"JOINTS_0":15,
						"WEIGHTS_0":16
					},
					"indices":17,
					"material":2
				}
			]
		}
	],
	"textures":[
		{
			"sampler":0,
			"source":0
		}
	],
	"images":[
		{
			"mimeType":"image/png",
			"name":"N_scale",
			"uri":"texturas/N_scale.png"
		}
	],
	"skins":[
		{
			"inverseBindMatrices":18,
			"joints":[
				4,
				3,
				2,
				1,
				0
			],
			"name":"centipede_rig"
		}
	],
	"accessors":[
		{
			"bufferView":0,
			"componentType":5126,
			"count":2280,
			"max":[
				0.44999998807907104,
				0.75,
				4.989999771118164
			],
			"min":[
				-0.44999998807907104,
				0.15000000596046448,
				-0.6399999856948853
			],
			"type":"VEC3"
		},
		{
			"bufferView":1,
			"componentType":5126,
			"count":2280,
			"type":"VEC3"
		},
		{
			"bufferView":2,
			"componentType":5126,
			"count":2280,
			"type":"VEC2"
		},
		{
			"bufferView":3,
			"componentType":5121,
			"count":2280,
			"type":"VEC4"
		},
		{
			"bufferView":4,
			"componentType":5126,
			"count":2280,
			"type":"VEC4"
		},
		{
			"bufferView":5,
			"componentType":5123,
			"count":9600,
			"type":"SCALAR"
		},
		{
			"bufferView":6,
			"componentType":5126,
			"count":1142,
			"max":[
				0.8070383071899414,
				1.1016831398010254,
				4.689455986022949
			],
			"min":[
				-0.8070383071899414,
				-0.0030364457052201033,
				-1.3008021116256714
			],
			"type":"VEC3"
		},
		{
			"bufferView":7,
			"componentType":5126,
			"count":1142,
			"type":"VEC3"
		},
		{
			"bufferView":8,
			"componentType":5126,
			"count":1142,
			"type":"VEC2"
		},
		{
			"bufferView":9,
			"componentType":5121,
			"count":1142,
			"type":"VEC4"
		},
		{
			"bufferView":10,
			"componentType":5126,
			"count":1142,
			"type":"VEC4"
		},
		{
			"bufferView":11,
			"componentType":5123,
			"count":2592,
			"type":"SCALAR"
		},
		{
			"bufferView":12,
			"componentType":5126,
			"count":160,
			"max":[
				0.20706339180469513,
				0.6499999761581421,
				-0.5524471998214722
			],
			"min":[
				-0.20706339180469513,
				0.550000011920929,
				-0.6475528478622437
			],
			"type":"VEC3"
		},
		{
			"bufferView":13,
			"componentType":5126,
			"count":160,
			"type":"VEC3"
		},
		{
			"bufferView":14,
			"componentType":5126,
			"count":160,
			"type":"VEC2"
		},
		{
			"bufferView":15,
			"componentType":5121,
			"count":160,
			"type":"VEC4"
		},
		{
			"bufferView":16,
			"componentType":5126,
			"count":160,
			"type":"VEC4"
		},
		{
			"bufferView":17,
			"componentType":5123,
			"count":480,
			"type":"SCALAR"
		},
		{
			"bufferView":18,
			"componentType":5126,
			"count":5,
			"type":"MAT4"
		},
		{
			"bufferView":19,
			"componentType":5126,
			"count":17,
			"max":[
				0.5333333333333333
			],
			"min":[
				0
			],
			"type":"SCALAR"
		},
		{
			"bufferView":20,
			"componentType":5126,
			"count":17,
			"type":"VEC3"
		},
		{
			"bufferView":21,
			"componentType":5126,
			"count":17,
			"type":"VEC4"
		},
		{
			"bufferView":22,
			"componentType":5126,
			"count":2,
			"max":[
				0.5333333333333333
			],
			"min":[
				0
			],
			"type":"SCALAR"
		},
		{
			"bufferView":23,
			"componentType":5126,
			"count":2,
			"type":"VEC3"
		},
		{
			"bufferView":24,
			"componentType":5126,
			"count":2,
			"type":"VEC3"
		},
		{
			"bufferView":25,
			"componentType":5126,
			"count":2,
			"type":"VEC4"
		},
		{
			"bufferView":26,
			"componentType":5126,
			"count":2,
			"type":"VEC3"
		},
		{
			"bufferView":27,
			"componentType":5126,
			"count":2,
			"type":"VEC3"
		},
		{
			"bufferView":28,
			"componentType":5126,
			"count":2,
			"type":"VEC4"
		},
		{
			"bufferView":29,
			"componentType":5126,
			"count":2,
			"type":"VEC3"
		},
		{
			"bufferView":30,
			"componentType":5126,
			"count":2,
			"type":"VEC3"
		},
		{
			"bufferView":31,
			"componentType":5126,
			"count":2,
			"type":"VEC4"
		},
		{
			"bufferView":32,
			"componentType":5126,
			"count":2,
			"type":"VEC3"
		},
		{
			"bufferView":33,
			"componentType":5126,
			"count":2,
			"type":"VEC3"
		},
		{
			"bufferView":34,
			"componentType":5126,
			"count":2,
			"type":"VEC4"
		},
		{
			"bufferView":35,
			"componentType":5126,
			"count":2,
			"type":"VEC3"
		},
		{
			"bufferView":36,
			"componentType":5126,
			"count":2,
			"max":[
				2
			],
			"min":[
				0
			],
			"type":"SCALAR"
		},
		{
			"bufferView":37,
			"componentType":5126,
			"count":2,
			"type":"VEC3"
		},
		{
			"bufferView":38,
			"componentType":5126,
			"count":61,
			"max":[
				2
			],
			"min":[
				0
			],
			"type":"SCALAR"
		},
		{
			"bufferView":39,
			"componentType":5126,
			"count":61,
			"type":"VEC4"
		},
		{
			"bufferView":40,
			"componentType":5126,
			"count":2,
			"type":"VEC3"
		},
		{
			"bufferView":41,
			"componentType":5126,
			"count":2,
			"type":"VEC3"
		},
		{
			"bufferView":42,
			"componentType":5126,
			"count":61,
			"type":"VEC4"
		},
		{
			"bufferView":43,
			"componentType":5126,
			"count":2,
			"type":"VEC3"
		},
		{
			"bufferView":44,
			"componentType":5126,
			"count":2,
			"type":"VEC3"
		},
		{
			"bufferView":45,
			"componentType":5126,
			"count":61,
			"type":"VEC4"
		},
		{
			"bufferView":46,
			"componentType":5126,
			"count":2,
			"type":"VEC3"
		},
		{
			"bufferView":47,
			"componentType":5126,
			"count":2,
			"type":"VEC3"
		},
		{
			"bufferView":48,
			"componentType":5126,
			"count":61,
			"type":"VEC4"
		},
		{
			"bufferView":49,
			"componentType":5126,
			"count":2,
			"type":"VEC3"
		},
		{
			"bufferView":50,
			"componentType":5126,
			"count":2,
			"type":"VEC3"
		},
		{
			"bufferView":51,
			"componentType":5126,
			"count":61,
			"type":"VEC4"
		},
		{
			"bufferView":52,
			"componentType":5126,
			"count":2,
			"type":"VEC3"
		},
		{
			"bufferView":53,
			"componentType":5126,
			"count":2,
			"max":[
				1
			],
			"min":[
				0
			],
			"type":"SCALAR"
		},
		{
			"bufferView":54,
			"componentType":5126,
			"count":2,
			"type":"VEC3"
		},
		{
			"bufferView":55,
			"componentType":5126,
			"count":31,
			"max":[
				1
			],
			"min":[
				0
			],
			"type":"SCALAR"
		},
		{
			"bufferView":56,
			"componentType":5126,
			"count":31,
			"type":"VEC4"
		},
		{
			"bufferView":57,
			"componentType":5126,
			"count":2,
			"type":"VEC3"
		},
		{
			"bufferView":58,
			"componentType":5126,
			"count":2,
			"type":"VEC3"
		},
		{
			"bufferView":59,
			"componentType":5126,
			"count":31,
			"type":"VEC4"
		},
		{
			"bufferView":60,
			"componentType":5126,
			"count":2,
			"type":"VEC3"
		},
		{
			"bufferView":61,
			"componentType":5126,
			"count":2,
			"type":"VEC3"
		},
		{
			"bufferView":62,
			"componentType":5126,
			"count":31,
			"type":"VEC4"
		},
		{
			"bufferView":63,
			"componentType":5126,
			"count":2,
			"type":"VEC3"
		},
		{
			"bufferView":64,
			"componentType":5126,
			"count":2,
			"type":"VEC3"
		},
		{
			"bufferView":65,
			"componentType":5126,
			"count":31,
			"type":"VEC4"
		},
		{
			"bufferView":66,
			"componentType":5126,
			"count":2,
			"type":"VEC3"
		},
		{
			"bufferView":67,
			"componentType":5126,
			"count":2,
			"type":"VEC3"
		},
		{
			"bufferView":68,
			"componentType":5126,
			"count":31,
			"type":"VEC4"
		},
		{
			"bufferView":69,
			"componentType":5126,
			"count":2,
			"type":"VEC3"
		}
	],
	"bufferViews":[
		{
			"buffer":0,
			"byteLength":27360,
			"byteOffset":0,
			"target":34962
		},
		{
			"buffer":0,
			"byteLength":27360,
			"byteOffset":27360,
			"target":34962
		},
		{
			"buffer":0,
			"byteLength":18240,
			"byteOffset":54720,
			"target":34962
		},
		{
			"buffer":0,
			"byteLength":9120,
			"byteOffset":72960,
			"target":34962
		},
		{
			"buffer":0,
			"byteLength":36480,
			"byteOffset":82080,
			"target":34962
		},
		{
			"buffer":0,
			"byteLength":19200,
			"byteOffset":118560,
			"target":34963
		},
		{
			"buffer":0,
			"byteLength":13704,
			"byteOffset":137760,
			"target":34962
		},
		{
			"buffer":0,
			"byteLength":13704,
			"byteOffset":151464,
			"target":34962
		},
		{
			"buffer":0,
			"byteLength":9136,
			"byteOffset":165168,
			"target":34962
		},
		{
			"buffer":0,
			"byteLength":4568,
			"byteOffset":174304,
			"target":34962
		},
		{
			"buffer":0,
			"byteLength":18272,
			"byteOffset":178872,
			"target":34962
		},
		{
			"buffer":0,
			"byteLength":5184,
			"byteOffset":197144,
			"target":34963
		},
		{
			"buffer":0,
			"byteLength":1920,
			"byteOffset":202328,
			"target":34962
		},
		{
			"buffer":0,
			"byteLength":1920,
			"byteOffset":204248,
			"target":34962
		},
		{
			"buffer":0,
			"byteLength":1280,
			"byteOffset":206168,
			"target":34962
		},
		{
			"buffer":0,
			"byteLength":640,
			"byteOffset":207448,
			"target":34962
		},
		{
			"buffer":0,
			"byteLength":2560,
			"byteOffset":208088,
			"target":34962
		},
		{
			"buffer":0,
			"byteLength":960,
			"byteOffset":210648,
			"target":34963
		},
		{
			"buffer":0,
			"byteLength":320,
			"byteOffset":211608
		},
		{
			"buffer":0,
			"byteLength":68,
			"byteOffset":211928
		},
		{
			"buffer":0,
			"byteLength":204,
			"byteOffset":211996
		},
		{
			"buffer":0,
			"byteLength":272,
			"byteOffset":212200
		},
		{
			"buffer":0,
			"byteLength":8,
			"byteOffset":212472
		},
		{
			"buffer":0,
			"byteLength":24,
			"byteOffset":212480
		},
		{
			"buffer":0,
			"byteLength":24,
			"byteOffset":212504
		},
		{
			"buffer":0,
			"byteLength":32,
			"byteOffset":212528
		},
		{
			"buffer":0,
			"byteLength":24,
			"byteOffset":212560
		},
		{
			"buffer":0,
			"byteLength":24,
			"byteOffset":212584
		},
		{
			"buffer":0,
			"byteLength":32,
			"byteOffset":212608
		},
		{
			"buffer":0,
			"byteLength":24,
			"byteOffset":212640
		},
		{
			"buffer":0,
			"byteLength":24,
			"byteOffset":212664
		},
		{
			"buffer":0,
			"byteLength":32,
			"byteOffset":212688
		},
		{
			"buffer":0,
			"byteLength":24,
			"byteOffset":212720
		},
		{
			"buffer":0,
			"byteLength":24,
			"byteOffset":212744
		},
		{
			"buffer":0,
			"byteLength":32,
			"byteOffset":212768
		},
		{
			"buffer":0,
			"byteLength":24,
			"byteOffset":212800
		},
		{
			"buffer":0,
			"byteLength":8,
			"byteOffset":212824
		},
		{
			"buffer":0,
			"byteLength":24,
			"byteOffset":212832
		},
		{
			"buffer":0,
			"byteLength":244,
			"byteOffset":212856
		},
		{
			"buffer":0,
			"byteLength":976,
			"byteOffset":213100
		},
		{
			"buffer":0,
			"byteLength":24,
			"byteOffset":214076
		},
		{
			"buffer":0,
			"byteLength":24,
			"byteOffset":214100
		},
		{
			"buffer":0,
			"byteLength":976,
			"byteOffset":214124
		},
		{
			"buffer":0,
			"byteLength":24,
			"byteOffset":215100
		},
		{
			"buffer":0,
			"byteLength":24,
			"byteOffset":215124
		},
		{
			"buffer":0,
			"byteLength":976,
			"byteOffset":215148
		},
		{
			"buffer":0,
			"byteLength":24,
			"byteOffset":216124
		},
		{
			"buffer":0,
			"byteLength":24,
			"byteOffset":216148
		},
		{
			"buffer":0,
			"byteLength":976,
			"byteOffset":216172
		},
		{
			"buffer":0,
			"byteLength":24,
			"byteOffset":217148
		},
		{
			"buffer":0,
			"byteLength":24,
			"byteOffset":217172
		},
		{
			"buffer":0,
			"byteLength":976,
			"byteOffset":217196
		},
		{
			"buffer":0,
			"byteLength":24,
			"byteOffset":218172
		},
		{
			"buffer":0,
			"byteLength":8,
			"byteOffset":218196
		},
		{
			"buffer":0,
			"byteLength":24,
			"byteOffset":218204
		},
		{
			"buffer":0,
			"byteLength":124,
			"byteOffset":218228
		},
		{
			"buffer":0,
			"byteLength":496,
			"byteOffset":218352
		},
		{
			"buffer":0,
			"byteLength":24,
			"byteOffset":218848
		},
		{
			"buffer":0,
			"byteLength":24,
			"byteOffset":218872
		},
		{
			"buffer":0,
			"byteLength":496,
			"byteOffset":218896
		},
		{
			"buffer":0,
			"byteLength":24,
			"byteOffset":219392
		},
		{
			"buffer":0,
			"byteLength":24,
			"byteOffset":219416
		},
		{
			"buffer":0,
			"byteLength":496,
			"byteOffset":219440
		},
		{
			"buffer":0,
			"byteLength":24,
			"byteOffset":219936
		},
		{
			"buffer":0,
			"byteLength":24,
			"byteOffset":219960
		},
		{
			"buffer":0,
			"byteLength":496,
			"byteOffset":219984
		},
		{
			"buffer":0,
			"byteLength":24,
			"byteOffset":220480
		},
		{
			"buffer":0,
			"byteLength":24,
			"byteOffset":220504
		},
		{
			"buffer":0,
			"byteLength":496,
			"byteOffset":220528
		},
		{
			"buffer":0,
			"byteLength":24,
			"byteOffset":221024
		}
	],
	"samplers":[
		{
			"magFilter":9729,
			"minFilter":9987
		}
	],
	"buffers":[
		{
			"byteLength":221048,
			"uri":"centipede.bin"
		}
	]
}
