{
	"asset":{
		"generator":"Khronos glTF Blender I/O v4.2.57",
		"version":"2.0"
	},
	"extensionsUsed":[
		"KHR_materials_clearcoat",
		"KHR_materials_sheen"
	],
	"scene":0,
	"scenes":[
		{
			"name":"Scene",
			"nodes":[
				18
			]
		}
	],
	"nodes":[
		{
			"name":"head",
			"rotation":[
				-3.552713678800501e-15,
				0,
				0,
				1
			],
			"translation":[
				0,
				0.06200003623962402,
				0
			]
		},
		{
			"children":[
				0
			],
			"name":"neck",
			"rotation":[
				-3.552713678800501e-15,
				0,
				0,
				1
			],
			"translation":[
				0,
				0.1302000880241394,
				0
			]
		},
		{
			"name":"hand.R",
			"rotation":[
				-0.0023572156205773354,
				-0.016418343409895897,
				0.017661012709140778,
				0.9997064471244812
			],
			"scale":[
				0.9999999403953552,
				0.9999999403953552,
				0.9999999403953552
			],
			"translation":[
				-1.5599653124809265e-08,
				0.15586049854755402,
				-1.862645149230957e-09
			]
		},
		{
			"children":[
				2
			],
			"name":"forearm.R",
			"rotation":[
				0.05022275820374489,
				-0.05592824146151543,
				0.06416799873113632,
				0.9951041340827942
			],
			"scale":[
				0.9999998211860657,
				1,
				0.9999999403953552
			],
			"translation":[
				8.731149137020111e-09,
				0.17037032544612885,
				-2.2118911147117615e-09
			]
		},
		{
			"children":[
				3
			],
			"name":"upper_arm.R",
			"rotation":[
				0.9912914633750916,
				0.09286590665578842,
				0.09286510199308395,
				0.009655660018324852
			],
			"scale":[
				1.0000051259994507,
				1.000000238418579,
				1.000000238418579
			],
			"translation":[
				0.10664000362157822,
				0.09920006990432739,
				0
			]
		},
		{
			"name":"hand.L",
			"rotation":[
				-0.0023572156205773354,
				0.016418343409895897,
				-0.017661012709140778,
				0.9997064471244812
			],
			"scale":[
				0.9999999403953552,
				0.9999999403953552,
				0.9999999403953552
			],
			"translation":[
				1.5599653124809265e-08,
				0.15586049854755402,
				-1.862645149230957e-09
			]
		},
		{
			"children":[
				5
			],
			"name":"forearm.L",
			"rotation":[
				0.05022275820374489,
				0.05592824146151543,
				-0.06416799873113632,
				0.9951041340827942
			],
			"scale":[
				0.9999998211860657,
				1,
				0.9999999403953552
			],
			"translation":[
				-8.731149137020111e-09,
				0.17037032544612885,
				-2.2118911147117615e-09
			]
		},
		{
			"children":[
				6
			],
			"name":"upper_arm.L",
			"rotation":[
				0.9912914633750916,
				-0.09286590665578842,
				-0.09286510199308395,
				0.009655660018324852
			],
			"scale":[
				1.0000051259994507,
				1.000000238418579,
				1.000000238418579
			],
			"translation":[
				-0.10664000362157822,
				0.09920006990432739,
				0
			]
		},
		{
			"children":[
				1,
				4,
				7
			],
			"name":"chest",
			"rotation":[
				-3.552713678800501e-15,
				0,
				0,
				1
			],
			"translation":[
				0,
				0.10540008544921875,
				0
			]
		},
		{
			"children":[
				8
			],
			"name":"spine",
			"rotation":[
				-3.552713678800501e-15,
				0,
				0,
				1
			],
			"translation":[
				0,
				0.09300005435943604,
				0
			]
		},
		{
			"name":"foot.R",
			"rotation":[
				0.5914180874824524,
				-7.573581206621327e-10,
				-1.0326058896836798e-09,
				0.8063650727272034
			],
			"scale":[
				1,
				1,
				0.9999999403953552
			],
			"translation":[
				-1.4185529140231523e-10,
				0.25456565618515015,
				3.8254910350588034e-10
			]
		},
		{
			"children":[
				10
			],
			"name":"shin.R",
			"rotation":[
				-0.04152865707874298,
				-0.010850631631910801,
				0.010284055024385452,
				0.9990254640579224
			],
			"translation":[
				-1.1539668776094913e-08,
				0.2543674409389496,
				1.1641532182693481e-10
			]
		},
		{
			"children":[
				11
			],
			"name":"thigh.R",
			"rotation":[
				-0.9997796416282654,
				-0.010571161285042763,
				-0.010571206919848919,
				0.014739509671926498
			],
			"scale":[
				1.0000001192092896,
				1.0000001192092896,
				1.0000003576278687
			],
			"translation":[
				0.06274399906396866,
				-0.012399911880493164,
				0
			]
		},
		{
			"name":"foot.L",
			"rotation":[
				0.5914180874824524,
				7.573581206621327e-10,
				1.0326058896836798e-09,
				0.8063650727272034
			],
			"scale":[
				1,
				1,
				0.9999999403953552
			],
			"translation":[
				1.4185529140231523e-10,
				0.25456565618515015,
				3.8254910350588034e-10
			]
		},
		{
			"children":[
				13
			],
			"name":"shin.L",
			"rotation":[
				-0.04152865707874298,
				0.010850631631910801,
				-0.010284055024385452,
				0.9990254640579224
			],
			"translation":[
				1.1539668776094913e-08,
				0.2543674409389496,
				1.1641532182693481e-10
			]
		},
		{
			"children":[
				14
			],
			"name":"thigh.L",
			"rotation":[
				-0.9997796416282654,
				0.010571161285042763,
				0.010571206919848919,
				0.014739509671926498
			],
			"scale":[
				1.0000001192092896,
				1.0000001192092896,
				1.0000003576278687
			],
			"translation":[
				-0.06274399906396866,
				-0.012399911880493164,
				0
			]
		},
		{
			"children":[
				9,
				12,
				15
			],
			"name":"hips",
			"rotation":[
				-2.980232594040899e-08,
				0,
				0,
				1
			],
			"scale":[
				1,
				0.9999999403953552,
				0.9999999403953552
			],
			"translation":[
				0,
				0.5766000151634216,
				0
			]
		},
		{
			"mesh":0,
			"name":"chloe",
			"skin":0
		},
		{
			"children":[
				17,
				16
			],
			"name":"chloe_rig"
		}
	],
	"animations":[
		{
			"channels":[
				{
					"sampler":0,
					"target":{
						"node":16,
						"path":"translation"
					}
				},
				{
					"sampler":1,
					"target":{
						"node":16,
						"path":"rotation"
					}
				},
				{
					"sampler":2,
					"target":{
						"node":16,
						"path":"scale"
					}
				},
				{
					"sampler":3,
					"target":{
						"node":9,
						"path":"translation"
					}
				},
				{
					"sampler":4,
					"target":{
						"node":9,
						"path":"rotation"
					}
				},
				{
					"sampler":5,
					"target":{
						"node":9,
						"path":"scale"
					}
				},
				{
					"sampler":6,
					"target":{
						"node":8,
						"path":"translation"
					}
				},
				{
					"sampler":7,
					"target":{
						"node":8,
						"path":"rotation"
					}
				},
				{
					"sampler":8,
					"target":{
						"node":8,
						"path":"scale"
					}
				},
				{
					"sampler":9,
					"target":{
						"node":1,
						"path":"translation"
					}
				},
				{
					"sampler":10,
					"target":{
						"node":1,
						"path":"rotation"
					}
				},
				{
					"sampler":11,
					"target":{
						"node":1,
						"path":"scale"
					}
				},
				{
					"sampler":12,
					"target":{
						"node":0,
						"path":"translation"
					}
				},
				{
					"sampler":13,
					"target":{
						"node":0,
						"path":"rotation"
					}
				},
				{
					"sampler":14,
					"target":{
						"node":0,
						"path":"scale"
					}
				},
				{
					"sampler":15,
					"target":{
						"node":4,
						"path":"translation"
					}
				},
				{
					"sampler":16,
					"target":{
						"node":4,
						"path":"rotation"
					}
				},
				{
					"sampler":17,
					"target":{
						"node":4,
						"path":"scale"
					}
				},
				{
					"sampler":18,
					"target":{
						"node":3,
						"path":"translation"
					}
				},
				{
					"sampler":19,
					"target":{
						"node":3,
						"path":"rotation"
					}
				},
				{
					"sampler":20,
					"target":{
						"node":3,
						"path":"scale"
					}
				},
				{
					"sampler":21,
					"target":{
						"node":2,
						"path":"translation"
					}
				},
				{
					"sampler":22,
					"target":{
						"node":2,
						"path":"rotation"
					}
				},
				{
					"sampler":23,
					"target":{
						"node":2,
						"path":"scale"
					}
				},
				{
					"sampler":24,
					"target":{
						"node":7,
						"path":"translation"
					}
				},
				{
					"sampler":25,
					"target":{
						"node":7,
						"path":"rotation"
					}
				},
				{
					"sampler":26,
					"target":{
						"node":7,
						"path":"scale"
					}
				},
				{
					"sampler":27,
					"target":{
						"node":6,
						"path":"translation"
					}
				},
				{
					"sampler":28,
					"target":{
						"node":6,
						"path":"rotation"
					}
				},
				{
					"sampler":29,
					"target":{
						"node":6,
						"path":"scale"
					}
				},
				{
					"sampler":30,
					"target":{
						"node":5,
						"path":"translation"
					}
				},
				{
					"sampler":31,
					"target":{
						"node":5,
						"path":"rotation"
					}
				},
				{
					"sampler":32,
					"target":{
						"node":5,
						"path":"scale"
					}
				},
				{
					"sampler":33,
					"target":{
						"node":12,
						"path":"translation"
					}
				},
				{
					"sampler":34,
					"target":{
						"node":12,
						"path":"rotation"
					}
				},
				{
					"sampler":35,
					"target":{
						"node":12,
						"path":"scale"
					}
				},
				{
					"sampler":36,
					"target":{
						"node":11,
						"path":"translation"
					}
				},
				{
					"sampler":37,
					"target":{
						"node":11,
						"path":"rotation"
					}
				},
				{
					"sampler":38,
					"target":{
						"node":11,
						"path":"scale"
					}
				},
				{
					"sampler":39,
					"target":{
						"node":10,
						"path":"translation"
					}
				},
				{
					"sampler":40,
					"target":{
						"node":10,
						"path":"rotation"
					}
				},
				{
					"sampler":41,
					"target":{
						"node":10,
						"path":"scale"
					}
				},
				{
					"sampler":42,
					"target":{
						"node":15,
						"path":"translation"
					}
				},
				{
					"sampler":43,
					"target":{
						"node":15,
						"path":"rotation"
					}
				},
				{
					"sampler":44,
					"target":{
						"node":15,
						"path":"scale"
					}
				},
				{
					"sampler":45,
					"target":{
						"node":14,
						"path":"translation"
					}
				},
				{
					"sampler":46,
					"target":{
						"node":14,
						"path":"rotation"
					}
				},
				{
					"sampler":47,
					"target":{
						"node":14,
						"path":"scale"
					}
				},
				{
					"sampler":48,
					"target":{
						"node":13,
						"path":"translation"
					}
				},
				{
					"sampler":49,
					"target":{
						"node":13,
						"path":"rotation"
					}
				},
				{
					"sampler":50,
					"target":{
						"node":13,
						"path":"scale"
					}
				}
			],
			"name":"attack",
			"samplers":[
				{
					"input":73,
					"interpolation":"STEP",
					"output":74
				},
				{
					"input":73,
					"interpolation":"STEP",
					"output":75
				},
				{
					"input":73,
					"interpolation":"STEP",
					"output":76
				},
				{
					"input":73,
					"interpolation":"STEP",
					"output":77
				},
				{
					"input":73,
					"interpolation":"STEP",
					"output":78
				},
				{
					"input":73,
					"interpolation":"STEP",
					"output":79
				},
				{
					"input":73,
					"interpolation":"STEP",
					"output":80
				},
				{
					"input":81,
					"interpolation":"LINEAR",
					"output":82
				},
				{
					"input":73,
					"interpolation":"STEP",
					"output":83
				},
				{
					"input":73,
					"interpolation":"LINEAR",
					"output":84
				},
				{
					"input":73,
					"interpolation":"STEP",
					"output":85
				},
				{
					"input":73,
					"interpolation":"STEP",
					"output":86
				},
				{
					"input":73,
					"interpolation":"LINEAR",
					"output":87
				},
				{
					"input":73,
					"interpolation":"STEP",
					"output":88
				},
				{
					"input":73,
					"interpolation":"STEP",
					"output":89
				},
				{
					"input":73,
					"interpolation":"LINEAR",
					"output":90
				},
				{
					"input":81,
					"interpolation":"LINEAR",
					"output":91
				},
				{
					"input":73,
					"interpolation":"STEP",
					"output":92
				},
				{
					"input":73,
					"interpolation":"LINEAR",
					"output":93
				},
				{
					"input":81,
					"interpolation":"LINEAR",
					"output":94
				},
				{
					"input":73,
					"interpolation":"STEP",
					"output":95
				},
				{
					"input":73,
					"interpolation":"STEP",
					"output":96
				},
				{
					"input":73,
					"interpolation":"STEP",
					"output":97
				},
				{
					"input":73,
					"interpolation":"STEP",
					"output":98
				},
				{
					"input":73,
					"interpolation":"LINEAR",
					"output":99
				},
				{
					"input":81,
					"interpolation":"LINEAR",
					"output":100
				},
				{
					"input":73,
					"interpolation":"STEP",
					"output":101
				},
				{
					"input":73,
					"interpolation":"STEP",
					"output":102
				},
				{
					"input":73,
					"interpolation":"STEP",
					"output":103
				},
				{
					"input":73,
					"interpolation":"STEP",
					"output":104
				},
				{
					"input":73,
					"interpolation":"STEP",
					"output":105
				},
				{
					"input":73,
					"interpolation":"STEP",
					"output":106
				},
				{
					"input":73,
					"interpolation":"STEP",
					"output":107
				},
				{
					"input":73,
					"interpolation":"STEP",
					"output":108
				},
				{
					"input":81,
					"interpolation":"LINEAR",
					"output":109
				},
				{
					"input":73,
					"interpolation":"STEP",
					"output":110
				},
				{
					"input":73,
					"interpolation":"LINEAR",
					"output":111
				},
				{
					"input":73,
					"interpolation":"LINEAR",
					"output":112
				},
				{
					"input":73,
					"interpolation":"STEP",
					"output":113
				},
				{
					"input":73,
					"interpolation":"LINEAR",
					"output":114
				},
				{
					"input":73,
					"interpolation":"LINEAR",
					"output":115
				},
				{
					"input":73,
					"interpolation":"STEP",
					"output":116
				},
				{
					"input":73,
					"interpolation":"STEP",
					"output":117
				},
				{
					"input":81,
					"interpolation":"LINEAR",
					"output":118
				},
				{
					"input":73,
					"interpolation":"STEP",
					"output":119
				},
				{
					"input":73,
					"interpolation":"LINEAR",
					"output":120
				},
				{
					"input":73,
					"interpolation":"LINEAR",
					"output":121
				},
				{
					"input":73,
					"interpolation":"STEP",
					"output":122
				},
				{
					"input":73,
					"interpolation":"LINEAR",
					"output":123
				},
				{
					"input":73,
					"interpolation":"LINEAR",
					"output":124
				},
				{
					"input":73,
					"interpolation":"STEP",
					"output":125
				}
			]
		},
		{
			"channels":[
				{
					"sampler":0,
					"target":{
						"node":16,
						"path":"translation"
					}
				},
				{
					"sampler":1,
					"target":{
						"node":16,
						"path":"rotation"
					}
				},
				{
					"sampler":2,
					"target":{
						"node":16,
						"path":"scale"
					}
				},
				{
					"sampler":3,
					"target":{
						"node":9,
						"path":"translation"
					}
				},
				{
					"sampler":4,
					"target":{
						"node":9,
						"path":"rotation"
					}
				},
				{
					"sampler":5,
					"target":{
						"node":9,
						"path":"scale"
					}
				},
				{
					"sampler":6,
					"target":{
						"node":8,
						"path":"translation"
					}
				},
				{
					"sampler":7,
					"target":{
						"node":8,
						"path":"rotation"
					}
				},
				{
					"sampler":8,
					"target":{
						"node":8,
						"path":"scale"
					}
				},
				{
					"sampler":9,
					"target":{
						"node":1,
						"path":"translation"
					}
				},
				{
					"sampler":10,
					"target":{
						"node":1,
						"path":"rotation"
					}
				},
				{
					"sampler":11,
					"target":{
						"node":1,
						"path":"scale"
					}
				},
				{
					"sampler":12,
					"target":{
						"node":0,
						"path":"translation"
					}
				},
				{
					"sampler":13,
					"target":{
						"node":0,
						"path":"rotation"
					}
				},
				{
					"sampler":14,
					"target":{
						"node":0,
						"path":"scale"
					}
				},
				{
					"sampler":15,
					"target":{
						"node":4,
						"path":"translation"
					}
				},
				{
					"sampler":16,
					"target":{
						"node":4,
						"path":"rotation"
					}
				},
				{
					"sampler":17,
					"target":{
						"node":4,
						"path":"scale"
					}
				},
				{
					"sampler":18,
					"target":{
						"node":3,
						"path":"translation"
					}
				},
				{
					"sampler":19,
					"target":{
						"node":3,
						"path":"rotation"
					}
				},
				{
					"sampler":20,
					"target":{
						"node":3,
						"path":"scale"
					}
				},
				{
					"sampler":21,
					"target":{
						"node":2,
						"path":"translation"
					}
				},
				{
					"sampler":22,
					"target":{
						"node":2,
						"path":"rotation"
					}
				},
				{
					"sampler":23,
					"target":{
						"node":2,
						"path":"scale"
					}
				},
				{
					"sampler":24,
					"target":{
						"node":7,
						"path":"translation"
					}
				},
				{
					"sampler":25,
					"target":{
						"node":7,
						"path":"rotation"
					}
				},
				{
					"sampler":26,
					"target":{
						"node":7,
						"path":"scale"
					}
				},
				{
					"sampler":27,
					"target":{
						"node":6,
						"path":"translation"
					}
				},
				{
					"sampler":28,
					"target":{
						"node":6,
						"path":"rotation"
					}
				},
				{
					"sampler":29,
					"target":{
						"node":6,
						"path":"scale"
					}
				},
				{
					"sampler":30,
					"target":{
						"node":5,
						"path":"translation"
					}
				},
				{
					"sampler":31,
					"target":{
						"node":5,
						"path":"rotation"
					}
				},
				{
					"sampler":32,
					"target":{
						"node":5,
						"path":"scale"
					}
				},
				{
					"sampler":33,
					"target":{
						"node":12,
						"path":"translation"
					}
				},
				{
					"sampler":34,
					"target":{
						"node":12,
						"path":"rotation"
					}
				},
				{
					"sampler":35,
					"target":{
						"node":12,
						"path":"scale"
					}
				},
				{
					"sampler":36,
					"target":{
						"node":11,
						"path":"translation"
					}
				},
				{
					"sampler":37,
					"target":{
						"node":11,
						"path":"rotation"
					}
				},
				{
					"sampler":38,
					"target":{
						"node":11,
						"path":"scale"
					}
				},
				{
					"sampler":39,
					"target":{
						"node":10,
						"path":"translation"
					}
				},
				{
					"sampler":40,
					"target":{
						"node":10,
						"path":"rotation"
					}
				},
				{
					"sampler":41,
					"target":{
						"node":10,
						"path":"scale"
					}
				},
				{
					"sampler":42,
					"target":{
						"node":15,
						"path":"translation"
					}
				},
				{
					"sampler":43,
					"target":{
						"node":15,
						"path":"rotation"
					}
				},
				{
					"sampler":44,
					"target":{
						"node":15,
						"path":"scale"
					}
				},
				{
					"sampler":45,
					"target":{
						"node":14,
						"path":"translation"
					}
				},
				{
					"sampler":46,
					"target":{
						"node":14,
						"path":"rotation"
					}
				},
				{
					"sampler":47,
					"target":{
						"node":14,
						"path":"scale"
					}
				},
				{
					"sampler":48,
					"target":{
						"node":13,
						"path":"translation"
					}
				},
				{
					"sampler":49,
					"target":{
						"node":13,
						"path":"rotation"
					}
				},
				{
					"sampler":50,
					"target":{
						"node":13,
						"path":"scale"
					}
				}
			],
			"name":"idle",
			"samplers":[
				{
					"input":126,
					"interpolation":"LINEAR",
					"output":127
				},
				{
					"input":128,
					"interpolation":"STEP",
					"output":129
				},
				{
					"input":128,
					"interpolation":"STEP",
					"output":130
				},
				{
					"input":128,
					"interpolation":"STEP",
					"output":131
				},
				{
					"input":128,
					"interpolation":"STEP",
					"output":132
				},
				{
					"input":128,
					"interpolation":"STEP",
					"output":133
				},
				{
					"input":128,
					"interpolation":"STEP",
					"output":134
				},
				{
					"input":126,
					"interpolation":"LINEAR",
					"output":135
				},
				{
					"input":128,
					"interpolation":"STEP",
					"output":136
				},
				{
					"input":128,
					"interpolation":"STEP",
					"output":137
				},
				{
					"input":128,
					"interpolation":"STEP",
					"output":138
				},
				{
					"input":128,
					"interpolation":"STEP",
					"output":139
				},
				{
					"input":128,
					"interpolation":"STEP",
					"output":140
				},
				{
					"input":126,
					"interpolation":"LINEAR",
					"output":141
				},
				{
					"input":128,
					"interpolation":"STEP",
					"output":142
				},
				{
					"input":128,
					"interpolation":"STEP",
					"output":143
				},
				{
					"input":126,
					"interpolation":"LINEAR",
					"output":144
				},
				{
					"input":128,
					"interpolation":"STEP",
					"output":145
				},
				{
					"input":128,
					"interpolation":"STEP",
					"output":146
				},
				{
					"input":128,
					"interpolation":"STEP",
					"output":147
				},
				{
					"input":128,
					"interpolation":"STEP",
					"output":148
				},
				{
					"input":128,
					"interpolation":"STEP",
					"output":149
				},
				{
					"input":128,
					"interpolation":"STEP",
					"output":150
				},
				{
					"input":128,
					"interpolation":"STEP",
					"output":151
				},
				{
					"input":128,
					"interpolation":"STEP",
					"output":152
				},
				{
					"input":126,
					"interpolation":"LINEAR",
					"output":153
				},
				{
					"input":128,
					"interpolation":"STEP",
					"output":154
				},
				{
					"input":128,
					"interpolation":"STEP",
					"output":155
				},
				{
					"input":128,
					"interpolation":"STEP",
					"output":156
				},
				{
					"input":128,
					"interpolation":"STEP",
					"output":157
				},
				{
					"input":128,
					"interpolation":"STEP",
					"output":158
				},
				{
					"input":128,
					"interpolation":"STEP",
					"output":159
				},
				{
					"input":128,
					"interpolation":"STEP",
					"output":160
				},
				{
					"input":128,
					"interpolation":"STEP",
					"output":161
				},
				{
					"input":128,
					"interpolation":"STEP",
					"output":162
				},
				{
					"input":128,
					"interpolation":"STEP",
					"output":163
				},
				{
					"input":128,
					"interpolation":"STEP",
					"output":164
				},
				{
					"input":128,
					"interpolation":"STEP",
					"output":165
				},
				{
					"input":128,
					"interpolation":"STEP",
					"output":166
				},
				{
					"input":128,
					"interpolation":"STEP",
					"output":167
				},
				{
					"input":128,
					"interpolation":"STEP",
					"output":168
				},
				{
					"input":128,
					"interpolation":"STEP",
					"output":169
				},
				{
					"input":128,
					"interpolation":"STEP",
					"output":170
				},
				{
					"input":128,
					"interpolation":"STEP",
					"output":171
				},
				{
					"input":128,
					"interpolation":"STEP",
					"output":172
				},
				{
					"input":128,
					"interpolation":"STEP",
					"output":173
				},
				{
					"input":128,
					"interpolation":"STEP",
					"output":174
				},
				{
					"input":128,
					"interpolation":"STEP",
					"output":175
				},
				{
					"input":128,
					"interpolation":"STEP",
					"output":176
				},
				{
					"input":128,
					"interpolation":"STEP",
					"output":177
				},
				{
					"input":128,
					"interpolation":"STEP",
					"output":178
				}
			]
		},
		{
			"channels":[
				{
					"sampler":0,
					"target":{
						"node":16,
						"path":"translation"
					}
				},
				{
					"sampler":1,
					"target":{
						"node":16,
						"path":"rotation"
					}
				},
				{
					"sampler":2,
					"target":{
						"node":16,
						"path":"scale"
					}
				},
				{
					"sampler":3,
					"target":{
						"node":9,
						"path":"translation"
					}
				},
				{
					"sampler":4,
					"target":{
						"node":9,
						"path":"rotation"
					}
				},
				{
					"sampler":5,
					"target":{
						"node":9,
						"path":"scale"
					}
				},
				{
					"sampler":6,
					"target":{
						"node":8,
						"path":"translation"
					}
				},
				{
					"sampler":7,
					"target":{
						"node":8,
						"path":"rotation"
					}
				},
				{
					"sampler":8,
					"target":{
						"node":8,
						"path":"scale"
					}
				},
				{
					"sampler":9,
					"target":{
						"node":1,
						"path":"translation"
					}
				},
				{
					"sampler":10,
					"target":{
						"node":1,
						"path":"rotation"
					}
				},
				{
					"sampler":11,
					"target":{
						"node":1,
						"path":"scale"
					}
				},
				{
					"sampler":12,
					"target":{
						"node":0,
						"path":"translation"
					}
				},
				{
					"sampler":13,
					"target":{
						"node":0,
						"path":"rotation"
					}
				},
				{
					"sampler":14,
					"target":{
						"node":0,
						"path":"scale"
					}
				},
				{
					"sampler":15,
					"target":{
						"node":4,
						"path":"translation"
					}
				},
				{
					"sampler":16,
					"target":{
						"node":4,
						"path":"rotation"
					}
				},
				{
					"sampler":17,
					"target":{
						"node":4,
						"path":"scale"
					}
				},
				{
					"sampler":18,
					"target":{
						"node":3,
						"path":"translation"
					}
				},
				{
					"sampler":19,
					"target":{
						"node":3,
						"path":"rotation"
					}
				},
				{
					"sampler":20,
					"target":{
						"node":3,
						"path":"scale"
					}
				},
				{
					"sampler":21,
					"target":{
						"node":2,
						"path":"translation"
					}
				},
				{
					"sampler":22,
					"target":{
						"node":2,
						"path":"rotation"
					}
				},
				{
					"sampler":23,
					"target":{
						"node":2,
						"path":"scale"
					}
				},
				{
					"sampler":24,
					"target":{
						"node":7,
						"path":"translation"
					}
				},
				{
					"sampler":25,
					"target":{
						"node":7,
						"path":"rotation"
					}
				},
				{
					"sampler":26,
					"target":{
						"node":7,
						"path":"scale"
					}
				},
				{
					"sampler":27,
					"target":{
						"node":6,
						"path":"translation"
					}
				},
				{
					"sampler":28,
					"target":{
						"node":6,
						"path":"rotation"
					}
				},
				{
					"sampler":29,
					"target":{
						"node":6,
						"path":"scale"
					}
				},
				{
					"sampler":30,
					"target":{
						"node":5,
						"path":"translation"
					}
				},
				{
					"sampler":31,
					"target":{
						"node":5,
						"path":"rotation"
					}
				},
				{
					"sampler":32,
					"target":{
						"node":5,
						"path":"scale"
					}
				},
				{
					"sampler":33,
					"target":{
						"node":12,
						"path":"translation"
					}
				},
				{
					"sampler":34,
					"target":{
						"node":12,
						"path":"rotation"
					}
				},
				{
					"sampler":35,
					"target":{
						"node":12,
						"path":"scale"
					}
				},
				{
					"sampler":36,
					"target":{
						"node":11,
						"path":"translation"
					}
				},
				{
					"sampler":37,
					"target":{
						"node":11,
						"path":"rotation"
					}
				},
				{
					"sampler":38,
					"target":{
						"node":11,
						"path":"scale"
					}
				},
				{
					"sampler":39,
					"target":{
						"node":10,
						"path":"translation"
					}
				},
				{
					"sampler":40,
					"target":{
						"node":10,
						"path":"rotation"
					}
				},
				{
					"sampler":41,
					"target":{
						"node":10,
						"path":"scale"
					}
				},
				{
					"sampler":42,
					"target":{
						"node":15,
						"path":"translation"
					}
				},
				{
					"sampler":43,
					"target":{
						"node":15,
						"path":"rotation"
					}
				},
				{
					"sampler":44,
					"target":{
						"node":15,
						"path":"scale"
					}
				},
				{
					"sampler":45,
					"target":{
						"node":14,
						"path":"translation"
					}
				},
				{
					"sampler":46,
					"target":{
						"node":14,
						"path":"rotation"
					}
				},
				{
					"sampler":47,
					"target":{
						"node":14,
						"path":"scale"
					}
				},
				{
					"sampler":48,
					"target":{
						"node":13,
						"path":"translation"
					}
				},
				{
					"sampler":49,
					"target":{
						"node":13,
						"path":"rotation"
					}
				},
				{
					"sampler":50,
					"target":{
						"node":13,
						"path":"scale"
					}
				}
			],
			"name":"walk",
			"samplers":[
				{
					"input":179,
					"interpolation":"LINEAR",
					"output":180
				},
				{
					"input":179,
					"interpolation":"LINEAR",
					"output":181
				},
				{
					"input":182,
					"interpolation":"STEP",
					"output":183
				},
				{
					"input":182,
					"interpolation":"STEP",
					"output":184
				},
				{
					"input":182,
					"interpolation":"STEP",
					"output":185
				},
				{
					"input":182,
					"interpolation":"STEP",
					"output":186
				},
				{
					"input":182,
					"interpolation":"STEP",
					"output":187
				},
				{
					"input":179,
					"interpolation":"LINEAR",
					"output":188
				},
				{
					"input":182,
					"interpolation":"STEP",
					"output":189
				},
				{
					"input":182,
					"interpolation":"STEP",
					"output":190
				},
				{
					"input":182,
					"interpolation":"STEP",
					"output":191
				},
				{
					"input":182,
					"interpolation":"STEP",
					"output":192
				},
				{
					"input":182,
					"interpolation":"STEP",
					"output":193
				},
				{
					"input":182,
					"interpolation":"STEP",
					"output":194
				},
				{
					"input":182,
					"interpolation":"STEP",
					"output":195
				},
				{
					"input":182,
					"interpolation":"STEP",
					"output":196
				},
				{
					"input":179,
					"interpolation":"LINEAR",
					"output":197
				},
				{
					"input":182,
					"interpolation":"STEP",
					"output":198
				},
				{
					"input":182,
					"interpolation":"STEP",
					"output":199
				},
				{
					"input":182,
					"interpolation":"STEP",
					"output":200
				},
				{
					"input":182,
					"interpolation":"STEP",
					"output":201
				},
				{
					"input":182,
					"interpolation":"STEP",
					"output":202
				},
				{
					"input":182,
					"interpolation":"STEP",
					"output":203
				},
				{
					"input":182,
					"interpolation":"STEP",
					"output":204
				},
				{
					"input":182,
					"interpolation":"STEP",
					"output":205
				},
				{
					"input":179,
					"interpolation":"LINEAR",
					"output":206
				},
				{
					"input":182,
					"interpolation":"STEP",
					"output":207
				},
				{
					"input":182,
					"interpolation":"STEP",
					"output":208
				},
				{
					"input":182,
					"interpolation":"STEP",
					"output":209
				},
				{
					"input":182,
					"interpolation":"STEP",
					"output":210
				},
				{
					"input":182,
					"interpolation":"STEP",
					"output":211
				},
				{
					"input":182,
					"interpolation":"STEP",
					"output":212
				},
				{
					"input":182,
					"interpolation":"STEP",
					"output":213
				},
				{
					"input":182,
					"interpolation":"STEP",
					"output":214
				},
				{
					"input":179,
					"interpolation":"LINEAR",
					"output":215
				},
				{
					"input":182,
					"interpolation":"STEP",
					"output":216
				},
				{
					"input":182,
					"interpolation":"STEP",
					"output":217
				},
				{
					"input":179,
					"interpolation":"LINEAR",
					"output":218
				},
				{
					"input":182,
					"interpolation":"STEP",
					"output":219
				},
				{
					"input":182,
					"interpolation":"STEP",
					"output":220
				},
				{
					"input":179,
					"interpolation":"LINEAR",
					"output":221
				},
				{
					"input":182,
					"interpolation":"STEP",
					"output":222
				},
				{
					"input":182,
					"interpolation":"STEP",
					"output":223
				},
				{
					"input":179,
					"interpolation":"LINEAR",
					"output":224
				},
				{
					"input":182,
					"interpolation":"STEP",
					"output":225
				},
				{
					"input":182,
					"interpolation":"STEP",
					"output":226
				},
				{
					"input":179,
					"interpolation":"LINEAR",
					"output":227
				},
				{
					"input":182,
					"interpolation":"STEP",
					"output":228
				},
				{
					"input":182,
					"interpolation":"STEP",
					"output":229
				},
				{
					"input":179,
					"interpolation":"LINEAR",
					"output":230
				},
				{
					"input":182,
					"interpolation":"STEP",
					"output":231
				}
			]
		}
	],
	"materials":[
		{
			"name":"skin",
			"normalTexture":{
				"index":0,
				"scale":0.4000000059604645
			},
			"pbrMetallicRoughness":{
				"baseColorFactor":[
					0.9551045894622803,
					0.7105664610862732,
					0.5382355451583862,
					1
				],
				"metallicFactor":0,
				"roughnessFactor":0.550000011920929
			}
		},
		{
			"extensions":{
				"KHR_materials_sheen":{
					"sheenColorFactor":[
						1.0,
						1.0,
						1.0
					],
					"sheenRoughnessFactor":0.5
				}
			},
			"name":"hair",
			"normalTexture":{
				"index":1,
				"scale":0.800000011920929
			},
			"pbrMetallicRoughness":{
				"baseColorFactor":[
					0.007194409146904945,
					0.007194409146904945,
					0.0134117491543293,
					1
				],
				"metallicFactor":0,
				"roughnessFactor":0.44999998807907104
			}
		},
		{
			"extensions":{
				"KHR_materials_sheen":{
					"sheenColorFactor":[
						1.0,
						1.0,
						1.0
					],
					"sheenRoughnessFactor":0.5
				}
			},
			"name":"outfit",
			"normalTexture":{
				"index":2,
				"scale":0.6000000238418579
			},
			"pbrMetallicRoughness":{
				"baseColorFactor":[
					0.03310476616024971,
					0.05087608844041824,
					0.17064493894577026,
					1
				],
				"metallicFactor":0,
				"roughnessFactor":0.75
			}
		},
		{
			"name":"outfit2",
			"normalTexture":{
				"index":3,
				"scale":0.4000000059604645
			},
			"pbrMetallicRoughness":{
				"baseColorFactor":[
					0.7874122858047485,
					0.7874122858047485,
					0.7874122858047485,
					1
				],
				"metallicFactor":0,
				"roughnessFactor":0.6000000238418579
			}
		},
		{
			"name":"pants",
			"normalTexture":{
				"index":4,
				"scale":0.6000000238418579
			},
			"pbrMetallicRoughness":{
				"baseColorFactor":[
					0.017389101907610893,
					0.025842878967523575,
					0.08088690787553787,
					1
				],
				"metallicFactor":0,
				"roughnessFactor":0.800000011920929
			}
		},
		{
			"extensions":{
				"KHR_materials_clearcoat":{
					"clearcoatFactor":0.30000001192092896
				}
			},
			"name":"boots",
			"normalTexture":{
				"index":5,
				"scale":0.800000011920929
			},
			"pbrMetallicRoughness":{
				"baseColorFactor":[
					0.0134117491543293,
					0.010022825561463833,
					0.010022825561463833,
					1
				],
				"metallicFactor":0,
				"roughnessFactor":0.44999998807907104
			}
		},
		{
			"name":"eye_white",
			"pbrMetallicRoughness":{
				"baseColorFactor":[
					0.8900054097175598,
					0.8900054097175598,
					0.8900054097175598,
					1
				],
				"metallicFactor":0,
				"roughnessFactor":0.20000000298023224
			}
		},
		{
			"emissiveFactor":[
				0.011763989275256348,
				0.011763989275256348,
				0.019862860485428957
			],
			"name":"iris",
			"pbrMetallicRoughness":{
				"baseColorFactor":[
					0.01960664801299572,
					0.01960664801299572,
					0.03310476616024971,
					1
				],
				"metallicFactor":0,
				"roughnessFactor":0.15000000596046448
			}
		},
		{
			"name":"pupil",
			"pbrMetallicRoughness":{
				"baseColorFactor":[
					0.0015479875728487968,
					0.0015479875728487968,
					0.0023219813592731953,
					1
				],
				"metallicFactor":0,
				"roughnessFactor":0.10000000149011612
			}
		},
		{
			"name":"lips",
			"pbrMetallicRoughness":{
				"baseColorFactor":[
					0.4283095896244049,
					0.32088616490364075,
					0.2448643445968628,
					1
				],
				"metallicFactor":0,
				"roughnessFactor":0.4000000059604645
			}
		},
		{
			"doubleSided":true,
			"name":"skirt",
			"normalTexture":{
				"index":6,
				"scale":0.6000000238418579
			},
			"pbrMetallicRoughness":{
				"baseColorFactor":[
					0.7874122858047485,
					0.7874122858047485,
					0.7874122858047485,
					1
				],
				"metallicFactor":0,
				"roughnessFactor":0.699999988079071
			}
		},
		{
			"name":"buckle",
			"pbrMetallicRoughness":{
				"baseColorFactor":[
					0.6920710802078247,
					0.4479884207248688,
					0.07323895394802094,
					1
				],
				"metallicFactor":0.8999999761581421,
				"roughnessFactor":0.30000001192092896
			}
		}
	],
	"meshes":[
		{
			"name":"chloe",
			"primitives":[
				{
					"attributes":{
						"POSITION":0,
						"NORMAL":1,
						"TEXCOORD_0":2,
						"JOINTS_0":3,
						"WEIGHTS_0":4
					},
					"indices":5,
					"material":0
				},
				{
					"attributes":{
						"POSITION":6,
						"NORMAL":7,
						"TEXCOORD_0":8,
						"JOINTS_0":9,
						"WEIGHTS_0":10
					},
					"indices":11,
					"material":1
				},
				{
					"attributes":{
						"POSITION":12,
						"NORMAL":13,
						"TEXCOORD_0":14,
						"JOINTS_0":15,
						"WEIGHTS_0":16
					},
					"indices":17,
					"material":2
				},
				{
					"attributes":{
						"POSITION":18,
						"NORMAL":19,
						"TEXCOORD_0":20,
						"JOINTS_0":21,
						"WEIGHTS_0":22
					},
					"indices":23,
					"material":3
				},
				{
					"attributes":{
						"POSITION":24,
						"NORMAL":25,
						"TEXCOORD_0":26,
						"JOINTS_0":27,
						"WEIGHTS_0":28
					},
					"indices":29,
					"material":4
				},
				{
					"attributes":{
						"POSITION":30,
						"NORMAL":31,
						"TEXCOORD_0":32,
						"JOINTS_0":33,
						"WEIGHTS_0":34
					},
					"indices":35,
					"material":5
				},
				{
					"attributes":{
						"POSITION":36,
						"NORMAL":37,
						"TEXCOORD_0":38,
						"JOINTS_0":39,
						"WEIGHTS_0":40
					},
					"indices":41,
					"material":6
				},
				{
					"attributes":{
						"POSITION":42,
						"NORMAL":43,
						"TEXCOORD_0":44,
						"JOINTS_0":45,
						"WEIGHTS_0":46
					},
					"indices":47,
					"material":7
				},
				{
					"attributes":{
						"POSITION":48,
						"NORMAL":49,
						"TEXCOORD_0":50,
						"JOINTS_0":51,
						"WEIGHTS_0":52
					},
					"indices":53,
					"material":8
				},
				{
					"attributes":{
						"POSITION":54,
						"NORMAL":55,
						"TEXCOORD_0":56,
						"JOINTS_0":57,
						"WEIGHTS_0":58
					},
					"indices":59,
					"material":9
				},
				{
					"attributes":{
						"POSITION":60,
						"NORMAL":61,
						"TEXCOORD_0":62,
						"JOINTS_0":63,
						"WEIGHTS_0":64
					},
					"indices":65,
					"material":10
				},
				{
					"attributes":{
						"POSITION":66,
						"NORMAL":67,
						"TEXCOORD_0":68,
						"JOINTS_0":69,
						"WEIGHTS_0":70
					},
					"indices":71,
					"material":11
				}
			]
		}
	],
	"textures":[
		{
			"sampler":0,
			"source":0
		},
		{
			"sampler":0,
			"source":1
		},
		{
			"sampler":0,
			"source":2
		},
		{
			"sampler":0,
			"source":2
		},
		{
			"sampler":0,
			"source":2
		},
		{
			"sampler":0,
			"source":3
		},
		{
			"sampler":0,
			"source":2
		}
	],
	"images":[
		{
			"mimeType":"image/png",
			"name":"N_skin",
			"uri":"texturas/N_skin.png"
		},
		{
			"mimeType":"image/png",
			"name":"N_hair",
			"uri":"texturas/N_hair.png"
		},
		{
			"mimeType":"image/png",
			"name":"N_cloth",
			"uri":"texturas/N_cloth.png"
		},
		{
			"mimeType":"image/png",
			"name":"N_leather",
			"uri":"texturas/N_leather.png"
		}
	],
	"skins":[
		{
			"inverseBindMatrices":72,
			"joints":[
				16,
				9,
				8,
				1,
				0,
				4,
				3,
				2,
				7,
				6,
				5,
				12,
				11,
				10,
				15,
				14,
				13
			],
			"name":"chloe_rig"
		}
	],
	"accessors":[
		{
			"bufferView":0,
			"componentType":5126,
			"count":1409,
			"max":[
				0.16395901143550873,
				1.1060799360275269,
				0.06647178530693054
			],
			"min":[
				-0.16395901143550873,
				0.4863700568675995,
				-0.07196757197380066
			],
			"type":"VEC3"
		},
		{
			"bufferView":1,
			"componentType":5126,
			"count":1409,
			"type":"VEC3"
		},
		{
			"bufferView":2,
			"componentType":5126,
			"count":1409,
			"type":"VEC2"
		},
		{
			"bufferView":3,
			"componentType":5121,
			"count":1409,
			"type":"VEC4"
		},
		{
			"bufferView":4,
			"componentType":5126,
			"count":1409,
			"type":"VEC4"
		},
		{
			"bufferView":5,
			"componentType":5123,
			"count":5808,
			"type":"SCALAR"
		},
		{
			"bufferView":6,
			"componentType":5126,
			"count":2874,
			"max":[
				0.0904090628027916,
				1.1237431764602661,
				0.11703504621982574
			],
			"min":[
				-0.08613385260105133,
				0.5878982543945312,
				-0.07446172088384628
			],
			"type":"VEC3"
		},
		{
			"bufferView":7,
			"componentType":5126,
			"count":2874,
			"type":"VEC3"
		},
		{
			"bufferView":8,
			"componentType":5126,
			"count":2874,
			"type":"VEC2"
		},
		{
			"bufferView":9,
			"componentType":5121,
			"count":2874,
			"type":"VEC4"
		},
		{
			"bufferView":10,
			"componentType":5126,
			"count":2874,
			"type":"VEC4"
		},
		{
			"bufferView":11,
			"componentType":5123,
			"count":10296,
			"type":"SCALAR"
		},
		{
			"bufferView":12,
			"componentType":5126,
			"count":1916,
			"max":[
				0.16554966568946838,
				0.9106578826904297,
				0.05585566163063049
			],
			"min":[
				-0.165549635887146,
				0.5720147490501404,
				-0.07440000027418137
			],
			"type":"VEC3"
		},
		{
			"bufferView":13,
			"componentType":5126,
			"count":1916,
			"type":"VEC3"
		},
		{
			"bufferView":14,
			"componentType":5126,
			"count":1916,
			"type":"VEC2"
		},
		{
			"bufferView":15,
			"componentType":5121,
			"count":1916,
			"type":"VEC4"
		},
		{
			"bufferView":16,
			"componentType":5126,
			"count":1916,
			"type":"VEC4"
		},
		{
			"bufferView":17,
			"componentType":5123,
			"count":8652,
			"type":"SCALAR"
		},
		{
			"bufferView":18,
			"componentType":5126,
			"count":76,
			"max":[
				0.09786232560873032,
				0.6185314059257507,
				0.06623600423336029
			],
			"min":[
				-0.09786232560873032,
				0.5455530881881714,
				-0.06738948822021484
			],
			"type":"VEC3"
		},
		{
			"bufferView":19,
			"componentType":5126,
			"count":76,
			"type":"VEC3"
		},
		{
			"bufferView":20,
			"componentType":5126,
			"count":76,
			"type":"VEC2"
		},
		{
			"bufferView":21,
			"componentType":5121,
			"count":76,
			"type":"VEC4"
		},
		{
			"bufferView":22,
			"componentType":5126,
			"count":76,
			"type":"VEC4"
		},
		{
			"bufferView":23,
			"componentType":5123,
			"count":264,
			"type":"SCALAR"
		},
		{
			"bufferView":24,
			"componentType":5126,
			"count":995,
			"max":[
				0.16446708142757416,
				0.5856910943984985,
				0.06606331467628479
			],
			"min":[
				-0.16446708142757416,
				0.18691113591194153,
				-0.06738948822021484
			],
			"type":"VEC3"
		},
		{
			"bufferView":25,
			"componentType":5126,
			"count":995,
			"type":"VEC3"
		},
		{
			"bufferView":26,
			"componentType":5126,
			"count":995,
			"type":"VEC2"
		},
		{
			"bufferView":27,
			"componentType":5121,
			"count":995,
			"type":"VEC4"
		},
		{
			"bufferView":28,
			"componentType":5126,
			"count":995,
			"type":"VEC4"
		},
		{
			"bufferView":29,
			"componentType":5123,
			"count":4380,
			"type":"SCALAR"
		},
		{
			"bufferView":30,
			"componentType":5126,
			"count":1034,
			"max":[
				0.10567546635866165,
				0.19044935703277588,
				0.045729462057352066
			],
			"min":[
				-0.10567545145750046,
				0.004711620043963194,
				-0.08687464147806168
			],
			"type":"VEC3"
		},
		{
			"bufferView":31,
			"componentType":5126,
			"count":1034,
			"type":"VEC3"
		},
		{
			"bufferView":32,
			"componentType":5126,
			"count":1034,
			"type":"VEC2"
		},
		{
			"bufferView":33,
			"componentType":5121,
			"count":1034,
			"type":"VEC4"
		},
		{
			"bufferView":34,
			"componentType":5126,
			"count":1034,
			"type":"VEC4"
		},
		{
			"bufferView":35,
			"componentType":5123,
			"count":4608,
			"type":"SCALAR"
		},
		{
			"bufferView":36,
			"componentType":5126,
			"count":304,
			"max":[
				0.031619999557733536,
				1.0456299781799316,
				-0.04340000078082085
			],
			"min":[
				-0.031619999557733536,
				1.031369924545288,
				-0.05456000193953514
			],
			"type":"VEC3"
		},
		{
			"bufferView":37,
			"componentType":5126,
			"count":304,
			"type":"VEC3"
		},
		{
			"bufferView":38,
			"componentType":5126,
			"count":304,
			"type":"VEC2"
		},
		{
			"bufferView":39,
			"componentType":5121,
			"count":304,
			"type":"VEC4"
		},
		{
			"bufferView":40,
			"componentType":5126,
			"count":304,
			"type":"VEC4"
		},
		{
			"bufferView":41,
			"componentType":5123,
			"count":1152,
			"type":"SCALAR"
		},
		{
			"bufferView":42,
			"componentType":5126,
			"count":220,
			"max":[
				0.026969999074935913,
				1.0445760488510132,
				-0.05035655200481415
			],
			"min":[
				-0.026969999074935913,
				1.032423973083496,
				-0.05566345155239105
			],
			"type":"VEC3"
		},
		{
			"bufferView":43,
			"componentType":5126,
			"count":220,
			"type":"VEC3"
		},
		{
			"bufferView":44,
			"componentType":5126,
			"count":220,
			"type":"VEC2"
		},
		{
			"bufferView":45,
			"componentType":5121,
			"count":220,
			"type":"VEC4"
		},
		{
			"bufferView":46,
			"componentType":5126,
			"count":220,
			"type":"VEC4"
		},
		{
			"bufferView":47,
			"componentType":5123,
			"count":720,
			"type":"SCALAR"
		},
		{
			"bufferView":48,
			"componentType":5126,
			"count":160,
			"max":[
				0.023556550964713097,
				1.041290044784546,
				-0.053876690566539764
			],
			"min":[
				-0.023556550964713097,
				1.0357099771499634,
				-0.056235313415527344
			],
			"type":"VEC3"
		},
		{
			"bufferView":49,
			"componentType":5126,
			"count":160,
			"type":"VEC3"
		},
		{
			"bufferView":50,
			"componentType":5126,
			"count":160,
			"type":"VEC2"
		},
		{
			"bufferView":51,
			"componentType":5121,
			"count":160,
			"type":"VEC4"
		},
		{
			"bufferView":52,
			"componentType":5126,
			"count":160,
			"type":"VEC4"
		},
		{
			"bufferView":53,
			"componentType":5123,
			"count":480,
			"type":"SCALAR"
		},
		{
			"bufferView":54,
			"componentType":5126,
			"count":98,
			"max":[
				0.011779999360442162,
				0.996649980545044,
				-0.04818655177950859
			],
			"min":[
				-0.011779999360442162,
				0.991070032119751,
				-0.053493451327085495
			],
			"type":"VEC3"
		},
		{
			"bufferView":55,
			"componentType":5126,
			"count":98,
			"type":"VEC3"
		},
		{
			"bufferView":56,
			"componentType":5126,
			"count":98,
			"type":"VEC2"
		},
		{
			"bufferView":57,
			"componentType":5121,
			"count":98,
			"type":"VEC4"
		},
		{
			"bufferView":58,
			"componentType":5126,
			"count":98,
			"type":"VEC4"
		},
		{
			"bufferView":59,
			"componentType":5123,
			"count":360,
			"type":"SCALAR"
		},
		{
			"bufferView":60,
			"componentType":5126,
			"count":78,
			"max":[
				0.16368000209331512,
				0.6200000047683716,
				0.12961117923259735
			],
			"min":[
				-0.16368000209331512,
				0.42160001397132874,
				-0.12961117923259735
			],
			"type":"VEC3"
		},
		{
			"bufferView":61,
			"componentType":5126,
			"count":78,
			"type":"VEC3"
		},
		{
			"bufferView":62,
			"componentType":5126,
			"count":78,
			"type":"VEC2"
		},
		{
			"bufferView":63,
			"componentType":5121,
			"count":78,
			"type":"VEC4"
		},
		{
			"bufferView":64,
			"componentType":5126,
			"count":78,
			"type":"VEC4"
		},
		{
			"bufferView":65,
			"componentType":5123,
			"count":264,
			"type":"SCALAR"
		},
		{
			"bufferView":66,
			"componentType":5126,
			"count":24,
			"max":[
				0.015500000678002834,
				0.6014000177383423,
				-0.0641700029373169
			],
			"min":[
				-0.015500000678002834,
				0.5766000151634216,
				-0.07161000370979309
			],
			"type":"VEC3"
		},
		{
			"bufferView":67,
			"componentType":5126,
			"count":24,
			"type":"VEC3"
		},
		{
			"bufferView":68,
			"componentType":5126,
			"count":24,
			"type":"VEC2"
		},
		{
			"bufferView":69,
			"componentType":5121,
			"count":24,
			"type":"VEC4"
		},
		{
			"bufferView":70,
			"componentType":5126,
			"count":24,
			"type":"VEC4"
		},
		{
			"bufferView":71,
			"componentType":5123,
			"count":36,
			"type":"SCALAR"
		},
		{
			"bufferView":72,
			"componentType":5126,
			"count":17,
			"type":"MAT4"
		},
		{
			"bufferView":73,
			"componentType":5126,
			"count":2,
			"max":[
				0.6
			],
			"min":[
				0
			],
			"type":"SCALAR"
		},
		{
			"bufferView":74,
			"componentType":5126,
			"count":2,
			"type":"VEC3"
		},
		{
			"bufferView":75,
			"componentType":5126,
			"count":2,
			"type":"VEC4"
		},
		{
			"bufferView":76,
			"componentType":5126,
			"count":2,
			"type":"VEC3"
		},
		{
			"bufferView":77,
			"componentType":5126,
			"count":2,
			"type":"VEC3"
		},
		{
			"bufferView":78,
			"componentType":5126,
			"count":2,
			"type":"VEC4"
		},
		{
			"bufferView":79,
			"componentType":5126,
			"count":2,
			"type":"VEC3"
		},
		{
			"bufferView":80,
			"componentType":5126,
			"count":2,
			"type":"VEC3"
		},
		{
			"bufferView":81,
			"componentType":5126,
			"count":19,
			"max":[
				0.6
			],
			"min":[
				0
			],
			"type":"SCALAR"
		},
		{
			"bufferView":82,
			"componentType":5126,
			"count":19,
			"type":"VEC4"
		},
		{
			"bufferView":83,
			"componentType":5126,
			"count":2,
			"type":"VEC3"
		},
		{
			"bufferView":84,
			"componentType":5126,
			"count":2,
			"type":"VEC3"
		},
		{
			"bufferView":85,
			"componentType":5126,
			"count":2,
			"type":"VEC4"
		},
		{
			"bufferView":86,
			"componentType":5126,
			"count":2,
			"type":"VEC3"
		},
		{
			"bufferView":87,
			"componentType":5126,
			"count":2,
			"type":"VEC3"
		},
		{
			"bufferView":88,
			"componentType":5126,
			"count":2,
			"type":"VEC4"
		},
		{
			"bufferView":89,
			"componentType":5126,
			"count":2,
			"type":"VEC3"
		},
		{
			"bufferView":90,
			"componentType":5126,
			"count":2,
			"type":"VEC3"
		},
		{
			"bufferView":91,
			"componentType":5126,
			"count":19,
			"type":"VEC4"
		},
		{
			"bufferView":92,
			"componentType":5126,
			"count":2,
			"type":"VEC3"
		},
		{
			"bufferView":93,
			"componentType":5126,
			"count":2,
			"type":"VEC3"
		},
		{
			"bufferView":94,
			"componentType":5126,
			"count":19,
			"type":"VEC4"
		},
		{
			"bufferView":95,
			"componentType":5126,
			"count":2,
			"type":"VEC3"
		},
		{
			"bufferView":96,
			"componentType":5126,
			"count":2,
			"type":"VEC3"
		},
		{
			"bufferView":97,
			"componentType":5126,
			"count":2,
			"type":"VEC4"
		},
		{
			"bufferView":98,
			"componentType":5126,
			"count":2,
			"type":"VEC3"
		},
		{
			"bufferView":99,
			"componentType":5126,
			"count":2,
			"type":"VEC3"
		},
		{
			"bufferView":100,
			"componentType":5126,
			"count":19,
			"type":"VEC4"
		},
		{
			"bufferView":101,
			"componentType":5126,
			"count":2,
			"type":"VEC3"
		},
		{
			"bufferView":102,
			"componentType":5126,
			"count":2,
			"type":"VEC3"
		},
		{
			"bufferView":103,
			"componentType":5126,
			"count":2,
			"type":"VEC4"
		},
		{
			"bufferView":104,
			"componentType":5126,
			"count":2,
			"type":"VEC3"
		},
		{
			"bufferView":105,
			"componentType":5126,
			"count":2,
			"type":"VEC3"
		},
		{
			"bufferView":106,
			"componentType":5126,
			"count":2,
			"type":"VEC4"
		},
		{
			"bufferView":107,
			"componentType":5126,
			"count":2,
			"type":"VEC3"
		},
		{
			"bufferView":108,
			"componentType":5126,
			"count":2,
			"type":"VEC3"
		},
		{
			"bufferView":109,
			"componentType":5126,
			"count":19,
			"type":"VEC4"
		},
		{
			"bufferView":110,
			"componentType":5126,
			"count":2,
			"type":"VEC3"
		},
		{
			"bufferView":111,
			"componentType":5126,
			"count":2,
			"type":"VEC3"
		},
		{
			"bufferView":112,
			"componentType":5126,
			"count":2,
			"type":"VEC4"
		},
		{
			"bufferView":113,
			"componentType":5126,
			"count":2,
			"type":"VEC3"
		},
		{
			"bufferView":114,
			"componentType":5126,
			"count":2,
			"type":"VEC3"
		},
		{
			"bufferView":115,
			"componentType":5126,
			"count":2,
			"type":"VEC4"
		},
		{
			"bufferView":116,
			"componentType":5126,
			"count":2,
			"type":"VEC3"
		},
		{
			"bufferView":117,
			"componentType":5126,
			"count":2,
			"type":"VEC3"
		},
		{
			"bufferView":118,
			"componentType":5126,
			"count":19,
			"type":"VEC4"
		},
		{
			"bufferView":119,
			"componentType":5126,
			"count":2,
			"type":"VEC3"
		},
		{
			"bufferView":120,
			"componentType":5126,
			"count":2,
			"type":"VEC3"
		},
		{
			"bufferView":121,
			"componentType":5126,
			"count":2,
			"type":"VEC4"
		},
		{
			"bufferView":122,
			"componentType":5126,
			"count":2,
			"type":"VEC3"
		},
		{
			"bufferView":123,
			"componentType":5126,
			"count":2,
			"type":"VEC3"
		},
		{
			"bufferView":124,
			"componentType":5126,
			"count":2,
			"type":"VEC4"
		},
		{
			"bufferView":125,
			"componentType":5126,
			"count":2,
			"type":"VEC3"
		},
		{
			"bufferView":126,
			"componentType":5126,
			"count":61,
			"max":[
				2
			],
			"min":[
				0
			],
			"type":"SCALAR"
		},
		{
			"bufferView":127,
			"componentType":5126,
			"count":61,
			"type":"VEC3"
		},
		{
			"bufferView":128,
			"componentType":5126,
			"count":2,
			"max":[
				2
			],
			"min":[
				0
			],
			"type":"SCALAR"
		},
		{
			"bufferView":129,
			"componentType":5126,
			"count":2,
			"type":"VEC4"
		},
		{
			"bufferView":130,
			"componentType":5126,
			"count":2,
			"type":"VEC3"
		},
		{
			"bufferView":131,
			"componentType":5126,
			"count":2,
			"type":"VEC3"
		},
		{
			"bufferView":132,
			"componentType":5126,
			"count":2,
			"type":"VEC4"
		},
		{
			"bufferView":133,
			"componentType":5126,
			"count":2,
			"type":"VEC3"
		},
		{
			"bufferView":134,
			"componentType":5126,
			"count":2,
			"type":"VEC3"
		},
		{
			"bufferView":135,
			"componentType":5126,
			"count":61,
			"type":"VEC4"
		},
		{
			"bufferView":136,
			"componentType":5126,
			"count":2,
			"type":"VEC3"
		},
		{
			"bufferView":137,
			"componentType":5126,
			"count":2,
			"type":"VEC3"
		},
		{
			"bufferView":138,
			"componentType":5126,
			"count":2,
			"type":"VEC4"
		},
		{
			"bufferView":139,
			"componentType":5126,
			"count":2,
			"type":"VEC3"
		},
		{
			"bufferView":140,
			"componentType":5126,
			"count":2,
			"type":"VEC3"
		},
		{
			"bufferView":141,
			"componentType":5126,
			"count":61,
			"type":"VEC4"
		},
		{
			"bufferView":142,
			"componentType":5126,
			"count":2,
			"type":"VEC3"
		},
		{
			"bufferView":143,
			"componentType":5126,
			"count":2,
			"type":"VEC3"
		},
		{
			"bufferView":144,
			"componentType":5126,
			"count":61,
			"type":"VEC4"
		},
		{
			"bufferView":145,
			"componentType":5126,
			"count":2,
			"type":"VEC3"
		},
		{
			"bufferView":146,
			"componentType":5126,
			"count":2,
			"type":"VEC3"
		},
		{
			"bufferView":147,
			"componentType":5126,
			"count":2,
			"type":"VEC4"
		},
		{
			"bufferView":148,
			"componentType":5126,
			"count":2,
			"type":"VEC3"
		},
		{
			"bufferView":149,
			"componentType":5126,
			"count":2,
			"type":"VEC3"
		},
		{
			"bufferView":150,
			"componentType":5126,
			"count":2,
			"type":"VEC4"
		},
		{
			"bufferView":151,
			"componentType":5126,
			"count":2,
			"type":"VEC3"
		},
		{
			"bufferView":152,
			"componentType":5126,
			"count":2,
			"type":"VEC3"
		},
		{
			"bufferView":153,
			"componentType":5126,
			"count":61,
			"type":"VEC4"
		},
		{
			"bufferView":154,
			"componentType":5126,
			"count":2,
			"type":"VEC3"
		},
		{
			"bufferView":155,
			"componentType":5126,
			"count":2,
			"type":"VEC3"
		},
		{
			"bufferView":156,
			"componentType":5126,
			"count":2,
			"type":"VEC4"
		},
		{
			"bufferView":157,
			"componentType":5126,
			"count":2,
			"type":"VEC3"
		},
		{
			"bufferView":158,
			"componentType":5126,
			"count":2,
			"type":"VEC3"
		},
		{
			"bufferView":159,
			"componentType":5126,
			"count":2,
			"type":"VEC4"
		},
		{
			"bufferView":160,
			"componentType":5126,
			"count":2,
			"type":"VEC3"
		},
		{
			"bufferView":161,
			"componentType":5126,
			"count":2,
			"type":"VEC3"
		},
		{
			"bufferView":162,
			"componentType":5126,
			"count":2,
			"type":"VEC4"
		},
		{
			"bufferView":163,
			"componentType":5126,
			"count":2,
			"type":"VEC3"
		},
		{
			"bufferView":164,
			"componentType":5126,
			"count":2,
			"type":"VEC3"
		},
		{
			"bufferView":165,
			"componentType":5126,
			"count":2,
			"type":"VEC4"
		},
		{
			"bufferView":166,
			"componentType":5126,
			"count":2,
			"type":"VEC3"
		},
		{
			"bufferView":167,
			"componentType":5126,
			"count":2,
			"type":"VEC3"
		},
		{
			"bufferView":168,
			"componentType":5126,
			"count":2,
			"type":"VEC4"
		},
		{
			"bufferView":169,
			"componentType":5126,
			"count":2,
			"type":"VEC3"
		},
		{
			"bufferView":170,
			"componentType":5126,
			"count":2,
			"type":"VEC3"
		},
		{
			"bufferView":171,
			"componentType":5126,
			"count":2,
			"type":"VEC4"
		},
		{
			"bufferView":172,
			"componentType":5126,
			"count":2,
			"type":"VEC3"
		},
		{
			"bufferView":173,
			"componentType":5126,
			"count":2,
			"type":"VEC3"
		},
		{
			"bufferView":174,
			"componentType":5126,
			"count":2,
			"type":"VEC4"
		},
		{
			"bufferView":175,
			"componentType":5126,
			"count":2,
			"type":"VEC3"
		},
		{
			"bufferView":176,
			"componentType":5126,
			"count":2,
			"type":"VEC3"
		},
		{
			"bufferView":177,
			"componentType":5126,
			"count":2,
			"type":"VEC4"
		},
		{
			"bufferView":178,
			"componentType":5126,
			"count":2,
			"type":"VEC3"
		},
		{
			"bufferView":179,
			"componentType":5126,
			"count":31,
			"max":[
				1
			],
			"min":[
				0
			],
			"type":"SCALAR"
		},
		{
			"bufferView":180,
			"componentType":5126,
			"count":31,
			"type":"VEC3"
		},
		{
			"bufferView":181,
			"componentType":5126,
			"count":31,
			"type":"VEC4"
		},
		{
			"bufferView":182,
			"componentType":5126,
			"count":2,
			"max":[
				1
			],
			"min":[
				0
			],
			"type":"SCALAR"
		},
		{
			"bufferView":183,
			"componentType":5126,
			"count":2,
			"type":"VEC3"
		},
		{
			"bufferView":184,
			"componentType":5126,
			"count":2,
			"type":"VEC3"
		},
		{
			"bufferView":185,
			"componentType":5126,
			"count":2,
			"type":"VEC4"
		},
		{
			"bufferView":186,
			"componentType":5126,
			"count":2,
			"type":"VEC3"
		},
		{
			"bufferView":187,
			"componentType":5126,
			"count":2,
			"type":"VEC3"
		},
		{
			"bufferView":188,
			"componentType":5126,
			"count":31,
			"type":"VEC4"
		},
		{
			"bufferView":189,
			"componentType":5126,
			"count":2,
			"type":"VEC3"
		},
		{
			"bufferView":190,
			"componentType":5126,
			"count":2,
			"type":"VEC3"
		},
		{
			"bufferView":191,
			"componentType":5126,
			"count":2,
			"type":"VEC4"
		},
		{
			"bufferView":192,
			"componentType":5126,
			"count":2,
			"type":"VEC3"
		},
		{
			"bufferView":193,
			"componentType":5126,
			"count":2,
			"type":"VEC3"
		},
		{
			"bufferView":194,
			"componentType":5126,
			"count":2,
			"type":"VEC4"
		},
		{
			"bufferView":195,
			"componentType":5126,
			"count":2,
			"type":"VEC3"
		},
		{
			"bufferView":196,
			"componentType":5126,
			"count":2,
			"type":"VEC3"
		},
		{
			"bufferView":197,
			"componentType":5126,
			"count":31,
			"type":"VEC4"
		},
		{
			"bufferView":198,
			"componentType":5126,
			"count":2,
			"type":"VEC3"
		},
		{
			"bufferView":199,
			"componentType":5126,
			"count":2,
			"type":"VEC3"
		},
		{
			"bufferView":200,
			"componentType":5126,
			"count":2,
			"type":"VEC4"
		},
		{
			"bufferView":201,
			"componentType":5126,
			"count":2,
			"type":"VEC3"
		},
		{
			"bufferView":202,
			"componentType":5126,
			"count":2,
			"type":"VEC3"
		},
		{
			"bufferView":203,
			"componentType":5126,
			"count":2,
			"type":"VEC4"
		},
		{
			"bufferView":204,
			"componentType":5126,
			"count":2,
			"type":"VEC3"
		},
		{
			"bufferView":205,
			"componentType":5126,
			"count":2,
			"type":"VEC3"
		},
		{
			"bufferView":206,
			"componentType":5126,
			"count":31,
			"type":"VEC4"
		},
		{
			"bufferView":207,
			"componentType":5126,
			"count":2,
			"type":"VEC3"
		},
		{
			"bufferView":208,
			"componentType":5126,
			"count":2,
			"type":"VEC3"
		},
		{
			"bufferView":209,
			"componentType":5126,
			"count":2,
			"type":"VEC4"
		},
		{
			"bufferView":210,
			"componentType":5126,
			"count":2,
			"type":"VEC3"
		},
		{
			"bufferView":211,
			"componentType":5126,
			"count":2,
			"type":"VEC3"
		},
		{
			"bufferView":212,
			"componentType":5126,
			"count":2,
			"type":"VEC4"
		},
		{
			"bufferView":213,
			"componentType":5126,
			"count":2,
			"type":"VEC3"
		},
		{
			"bufferView":214,
			"componentType":5126,
			"count":2,
			"type":"VEC3"
		},
		{
			"bufferView":215,
			"componentType":5126,
			"count":31,
			"type":"VEC4"
		},
		{
			"bufferView":216,
			"componentType":5126,
			"count":2,
			"type":"VEC3"
		},
		{
			"bufferView":217,
			"componentType":5126,
			"count":2,
			"type":"VEC3"
		},
		{
			"bufferView":218,
			"componentType":5126,
			"count":31,
			"type":"VEC4"
		},
		{
			"bufferView":219,
			"componentType":5126,
			"count":2,
			"type":"VEC3"
		},
		{
			"bufferView":220,
			"componentType":5126,
			"count":2,
			"type":"VEC3"
		},
		{
			"bufferView":221,
			"componentType":5126,
			"count":31,
			"type":"VEC4"
		},
		{
			"bufferView":222,
			"componentType":5126,
			"count":2,
			"type":"VEC3"
		},
		{
			"bufferView":223,
			"componentType":5126,
			"count":2,
			"type":"VEC3"
		},
		{
			"bufferView":224,
			"componentType":5126,
			"count":31,
			"type":"VEC4"
		},
		{
			"bufferView":225,
			"componentType":5126,
			"count":2,
			"type":"VEC3"
		},
		{
			"bufferView":226,
			"componentType":5126,
			"count":2,
			"type":"VEC3"
		},
		{
			"bufferView":227,
			"componentType":5126,
			"count":31,
			"type":"VEC4"
		},
		{
			"bufferView":228,
			"componentType":5126,
			"count":2,
			"type":"VEC3"
		},
		{
			"bufferView":229,
			"componentType":5126,
			"count":2,
			"type":"VEC3"
		},
		{
			"bufferView":230,
			"componentType":5126,
			"count":31,
			"type":"VEC4"
		},
		{
			"bufferView":231,
			"componentType":5126,
			"count":2,
			"type":"VEC3"
		}
	],
	"bufferViews":[
		{
			"buffer":0,
			"byteLength":16908,
			"byteOffset":0,
			"target":34962
		},
		{
			"buffer":0,
			"byteLength":16908,
			"byteOffset":16908,
			"target":34962
		},
		{
			"buffer":0,
			"byteLength":11272,
			"byteOffset":33816,
			"target":34962
		},
		{
			"buffer":0,
			"byteLength":5636,
			"byteOffset":45088,
			"target":34962
		},
		{
			"buffer":0,
			"byteLength":22544,
			"byteOffset":50724,
			"target":34962
		},
		{
			"buffer":0,
			"byteLength":11616,
			"byteOffset":73268,
			"target":34963
		},
		{
			"buffer":0,
			"byteLength":34488,
			"byteOffset":84884,
			"target":34962
		},
		{
			"buffer":0,
			"byteLength":34488,
			"byteOffset":119372,
			"target":34962
		},
		{
			"buffer":0,
			"byteLength":22992,
			"byteOffset":153860,
			"target":34962
		},
		{
			"buffer":0,
			"byteLength":11496,
			"byteOffset":176852,
			"target":34962
		},
		{
			"buffer":0,
			"byteLength":45984,
			"byteOffset":188348,
			"target":34962
		},
		{
			"buffer":0,
			"byteLength":20592,
			"byteOffset":234332,
			"target":34963
		},
		{
			"buffer":0,
			"byteLength":22992,
			"byteOffset":254924,
			"target":34962
		},
		{
			"buffer":0,
			"byteLength":22992,
			"byteOffset":277916,
			"target":34962
		},
		{
			"buffer":0,
			"byteLength":15328,
			"byteOffset":300908,
			"target":34962
		},
		{
			"buffer":0,
			"byteLength":7664,
			"byteOffset":316236,
			"target":34962
		},
		{
			"buffer":0,
			"byteLength":30656,
			"byteOffset":323900,
			"target":34962
		},
		{
			"buffer":0,
			"byteLength":17304,
			"byteOffset":354556,
			"target":34963
		},
		{
			"buffer":0,
			"byteLength":912,
			"byteOffset":371860,
			"target":34962
		},
		{
			"buffer":0,
			"byteLength":912,
			"byteOffset":372772,
			"target":34962
		},
		{
			"buffer":0,
			"byteLength":608,
			"byteOffset":373684,
			"target":34962
		},
		{
			"buffer":0,
			"byteLength":304,
			"byteOffset":374292,
			"target":34962
		},
		{
			"buffer":0,
			"byteLength":1216,
			"byteOffset":374596,
			"target":34962
		},
		{
			"buffer":0,
			"byteLength":528,
			"byteOffset":375812,
			"target":34963
		},
		{
			"buffer":0,
			"byteLength":11940,
			"byteOffset":376340,
			"target":34962
		},
		{
			"buffer":0,
			"byteLength":11940,
			"byteOffset":388280,
			"target":34962
		},
		{
			"buffer":0,
			"byteLength":7960,
			"byteOffset":400220,
			"target":34962
		},
		{
			"buffer":0,
			"byteLength":3980,
			"byteOffset":408180,
			"target":34962
		},
		{
			"buffer":0,
			"byteLength":15920,
			"byteOffset":412160,
			"target":34962
		},
		{
			"buffer":0,
			"byteLength":8760,
			"byteOffset":428080,
			"target":34963
		},
		{
			"buffer":0,
			"byteLength":12408,
			"byteOffset":436840,
			"target":34962
		},
		{
			"buffer":0,
			"byteLength":12408,
			"byteOffset":449248,
			"target":34962
		},
		{
			"buffer":0,
			"byteLength":8272,
			"byteOffset":461656,
			"target":34962
		},
		{
			"buffer":0,
			"byteLength":4136,
			"byteOffset":469928,
			"target":34962
		},
		{
			"buffer":0,
			"byteLength":16544,
			"byteOffset":474064,
			"target":34962
		},
		{
			"buffer":0,
			"byteLength":9216,
			"byteOffset":490608,
			"target":34963
		},
		{
			"buffer":0,
			"byteLength":3648,
			"byteOffset":499824,
			"target":34962
		},
		{
			"buffer":0,
			"byteLength":3648,
			"byteOffset":503472,
			"target":34962
		},
		{
			"buffer":0,
			"byteLength":2432,
			"byteOffset":507120,
			"target":34962
		},
		{
			"buffer":0,
			"byteLength":1216,
			"byteOffset":509552,
			"target":34962
		},
		{
			"buffer":0,
			"byteLength":4864,
			"byteOffset":510768,
			"target":34962
		},
		{
			"buffer":0,
			"byteLength":2304,
			"byteOffset":515632,
			"target":34963
		},
		{
			"buffer":0,
			"byteLength":2640,
			"byteOffset":517936,
			"target":34962
		},
		{
			"buffer":0,
			"byteLength":2640,
			"byteOffset":520576,
			"target":34962
		},
		{
			"buffer":0,
			"byteLength":1760,
			"byteOffset":523216,
			"target":34962
		},
		{
			"buffer":0,
			"byteLength":880,
			"byteOffset":524976,
			"target":34962
		},
		{
			"buffer":0,
			"byteLength":3520,
			"byteOffset":525856,
			"target":34962
		},
		{
			"buffer":0,
			"byteLength":1440,
			"byteOffset":529376,
			"target":34963
		},
		{
			"buffer":0,
			"byteLength":1920,
			"byteOffset":530816,
			"target":34962
		},
		{
			"buffer":0,
			"byteLength":1920,
			"byteOffset":532736,
			"target":34962
		},
		{
			"buffer":0,
			"byteLength":1280,
			"byteOffset":534656,
			"target":34962
		},
		{
			"buffer":0,
			"byteLength":640,
			"byteOffset":535936,
			"target":34962
		},
		{
			"buffer":0,
			"byteLength":2560,
			"byteOffset":536576,
			"target":34962
		},
		{
			"buffer":0,
			"byteLength":960,
			"byteOffset":539136,
			"target":34963
		},
		{
			"buffer":0,
			"byteLength":1176,
			"byteOffset":540096,
			"target":34962
		},
		{
			"buffer":0,
			"byteLength":1176,
			"byteOffset":541272,
			"target":34962
		},
		{
			"buffer":0,
			"byteLength":784,
			"byteOffset":542448,
			"target":34962
		},
		{
			"buffer":0,
			"byteLength":392,
			"byteOffset":543232,
			"target":34962
		},
		{
			"buffer":0,
			"byteLength":1568,
			"byteOffset":543624,
			"target":34962
		},
		{
			"buffer":0,
			"byteLength":720,
			"byteOffset":545192,
			"target":34963
		},
		{
			"buffer":0,
			"byteLength":936,
			"byteOffset":545912,
			"target":34962
		},
		{
			"buffer":0,
			"byteLength":936,
			"byteOffset":546848,
			"target":34962
		},
		{
			"buffer":0,
			"byteLength":624,
			"byteOffset":547784,
			"target":34962
		},
		{
			"buffer":0,
			"byteLength":312,
			"byteOffset":548408,
			"target":34962
		},
		{
			"buffer":0,
			"byteLength":1248,
			"byteOffset":548720,
			"target":34962
		},
		{
			"buffer":0,
			"byteLength":528,
			"byteOffset":549968,
			"target":34963
		},
		{
			"buffer":0,
			"byteLength":288,
			"byteOffset":550496,
			"target":34962
		},
		{
			"buffer":0,
			"byteLength":288,
			"byteOffset":550784,
			"target":34962
		},
		{
			"buffer":0,
			"byteLength":192,
			"byteOffset":551072,
			"target":34962
		},
		{
			"buffer":0,
			"byteLength":96,
			"byteOffset":551264,
			"target":34962
		},
		{
			"buffer":0,
			"byteLength":384,
			"byteOffset":551360,
			"target":34962
		},
		{
			"buffer":0,
			"byteLength":72,
			"byteOffset":551744,
			"target":34963
		},
		{
			"buffer":0,
			"byteLength":1088,
			"byteOffset":551816
		},
		{
			"buffer":0,
			"byteLength":8,
			"byteOffset":552904
		},
		{
			"buffer":0,
			"byteLength":24,
			"byteOffset":552912
		},
		{
			"buffer":0,
			"byteLength":32,
			"byteOffset":552936
		},
		{
			"buffer":0,
			"byteLength":24,
			"byteOffset":552968
		},
		{
			"buffer":0,
			"byteLength":24,
			"byteOffset":552992
		},
		{
			"buffer":0,
			"byteLength":32,
			"byteOffset":553016
		},
		{
			"buffer":0,
			"byteLength":24,
			"byteOffset":553048
		},
		{
			"buffer":0,
			"byteLength":24,
			"byteOffset":553072
		},
		{
			"buffer":0,
			"byteLength":76,
			"byteOffset":553096
		},
		{
			"buffer":0,
			"byteLength":304,
			"byteOffset":553172
		},
		{
			"buffer":0,
			"byteLength":24,
			"byteOffset":553476
		},
		{
			"buffer":0,
			"byteLength":24,
			"byteOffset":553500
		},
		{
			"buffer":0,
			"byteLength":32,
			"byteOffset":553524
		},
		{
			"buffer":0,
			"byteLength":24,
			"byteOffset":553556
		},
		{
			"buffer":0,
			"byteLength":24,
			"byteOffset":553580
		},
		{
			"buffer":0,
			"byteLength":32,
			"byteOffset":553604
		},
		{
			"buffer":0,
			"byteLength":24,
			"byteOffset":553636
		},
		{
			"buffer":0,
			"byteLength":24,
			"byteOffset":553660
		},
		{
			"buffer":0,
			"byteLength":304,
			"byteOffset":553684
		},
		{
			"buffer":0,
			"byteLength":24,
			"byteOffset":553988
		},
		{
			"buffer":0,
			"byteLength":24,
			"byteOffset":554012
		},
		{
			"buffer":0,
			"byteLength":304,
			"byteOffset":554036
		},
		{
			"buffer":0,
			"byteLength":24,
			"byteOffset":554340
		},
		{
			"buffer":0,
			"byteLength":24,
			"byteOffset":554364
		},
		{
			"buffer":0,
			"byteLength":32,
			"byteOffset":554388
		},
		{
			"buffer":0,
			"byteLength":24,
			"byteOffset":554420
		},
		{
			"buffer":0,
			"byteLength":24,
			"byteOffset":554444
		},
		{
			"buffer":0,
			"byteLength":304,
			"byteOffset":554468
		},
		{
			"buffer":0,
			"byteLength":24,
			"byteOffset":554772
		},
		{
			"buffer":0,
			"byteLength":24,
			"byteOffset":554796
		},
		{
			"buffer":0,
			"byteLength":32,
			"byteOffset":554820
		},
		{
			"buffer":0,
			"byteLength":24,
			"byteOffset":554852
		},
		{
			"buffer":0,
			"byteLength":24,
			"byteOffset":554876
		},
		{
			"buffer":0,
			"byteLength":32,
			"byteOffset":554900
		},
		{
			"buffer":0,
			"byteLength":24,
			"byteOffset":554932
		},
		{
			"buffer":0,
			"byteLength":24,
			"byteOffset":554956
		},
		{
			"buffer":0,
			"byteLength":304,
			"byteOffset":554980
		},
		{
			"buffer":0,
			"byteLength":24,
			"byteOffset":555284
		},
		{
			"buffer":0,
			"byteLength":24,
			"byteOffset":555308
		},
		{
			"buffer":0,
			"byteLength":32,
			"byteOffset":555332
		},
		{
			"buffer":0,
			"byteLength":24,
			"byteOffset":555364
		},
		{
			"buffer":0,
			"byteLength":24,
			"byteOffset":555388
		},
		{
			"buffer":0,
			"byteLength":32,
			"byteOffset":555412
		},
		{
			"buffer":0,
			"byteLength":24,
			"byteOffset":555444
		},
		{
			"buffer":0,
			"byteLength":24,
			"byteOffset":555468
		},
		{
			"buffer":0,
			"byteLength":304,
			"byteOffset":555492
		},
		{
			"buffer":0,
			"byteLength":24,
			"byteOffset":555796
		},
		{
			"buffer":0,
			"byteLength":24,
			"byteOffset":555820
		},
		{
			"buffer":0,
			"byteLength":32,
			"byteOffset":555844
		},
		{
			"buffer":0,
			"byteLength":24,
			"byteOffset":555876
		},
		{
			"buffer":0,
			"byteLength":24,
			"byteOffset":555900
		},
		{
			"buffer":0,
			"byteLength":32,
			"byteOffset":555924
		},
		{
			"buffer":0,
			"byteLength":24,
			"byteOffset":555956
		},
		{
			"buffer":0,
			"byteLength":244,
			"byteOffset":555980
		},
		{
			"buffer":0,
			"byteLength":732,
			"byteOffset":556224
		},
		{
			"buffer":0,
			"byteLength":8,
			"byteOffset":556956
		},
		{
			"buffer":0,
			"byteLength":32,
			"byteOffset":556964
		},
		{
			"buffer":0,
			"byteLength":24,
			"byteOffset":556996
		},
		{
			"buffer":0,
			"byteLength":24,
			"byteOffset":557020
		},
		{
			"buffer":0,
			"byteLength":32,
			"byteOffset":557044
		},
		{
			"buffer":0,
			"byteLength":24,
			"byteOffset":557076
		},
		{
			"buffer":0,
			"byteLength":24,
			"byteOffset":557100
		},
		{
			"buffer":0,
			"byteLength":976,
			"byteOffset":557124
		},
		{
			"buffer":0,
			"byteLength":24,
			"byteOffset":558100
		},
		{
			"buffer":0,
			"byteLength":24,
			"byteOffset":558124
		},
		{
			"buffer":0,
			"byteLength":32,
			"byteOffset":558148
		},
		{
			"buffer":0,
			"byteLength":24,
			"byteOffset":558180
		},
		{
			"buffer":0,
			"byteLength":24,
			"byteOffset":558204
		},
		{
			"buffer":0,
			"byteLength":976,
			"byteOffset":558228
		},
		{
			"buffer":0,
			"byteLength":24,
			"byteOffset":559204
		},
		{
			"buffer":0,
			"byteLength":24,
			"byteOffset":559228
		},
		{
			"buffer":0,
			"byteLength":976,
			"byteOffset":559252
		},
		{
			"buffer":0,
			"byteLength":24,
			"byteOffset":560228
		},
		{
			"buffer":0,
			"byteLength":24,
			"byteOffset":560252
		},
		{
			"buffer":0,
			"byteLength":32,
			"byteOffset":560276
		},
		{
			"buffer":0,
			"byteLength":24,
			"byteOffset":560308
		},
		{
			"buffer":0,
			"byteLength":24,
			"byteOffset":560332
		},
		{
			"buffer":0,
			"byteLength":32,
			"byteOffset":560356
		},
		{
			"buffer":0,
			"byteLength":24,
			"byteOffset":560388
		},
		{
			"buffer":0,
			"byteLength":24,
			"byteOffset":560412
		},
		{
			"buffer":0,
			"byteLength":976,
			"byteOffset":560436
		},
		{
			"buffer":0,
			"byteLength":24,
			"byteOffset":561412
		},
		{
			"buffer":0,
			"byteLength":24,
			"byteOffset":561436
		},
		{
			"buffer":0,
			"byteLength":32,
			"byteOffset":561460
		},
		{
			"buffer":0,
			"byteLength":24,
			"byteOffset":561492
		},
		{
			"buffer":0,
			"byteLength":24,
			"byteOffset":561516
		},
		{
			"buffer":0,
			"byteLength":32,
			"byteOffset":561540
		},
		{
			"buffer":0,
			"byteLength":24,
			"byteOffset":561572
		},
		{
			"buffer":0,
			"byteLength":24,
			"byteOffset":561596
		},
		{
			"buffer":0,
			"byteLength":32,
			"byteOffset":561620
		},
		{
			"buffer":0,
			"byteLength":24,
			"byteOffset":561652
		},
		{
			"buffer":0,
			"byteLength":24,
			"byteOffset":561676
		},
		{
			"buffer":0,
			"byteLength":32,
			"byteOffset":561700
		},
		{
			"buffer":0,
			"byteLength":24,
			"byteOffset":561732
		},
		{
			"buffer":0,
			"byteLength":24,
			"byteOffset":561756
		},
		{
			"buffer":0,
			"byteLength":32,
			"byteOffset":561780
		},
		{
			"buffer":0,
			"byteLength":24,
			"byteOffset":561812
		},
		{
			"buffer":0,
			"byteLength":24,
			"byteOffset":561836
		},
		{
			"buffer":0,
			"byteLength":32,
			"byteOffset":561860
		},
		{
			"buffer":0,
			"byteLength":24,
			"byteOffset":561892
		},
		{
			"buffer":0,
			"byteLength":24,
			"byteOffset":561916
		},
		{
			"buffer":0,
			"byteLength":32,
			"byteOffset":561940
		},
		{
			"buffer":0,
			"byteLength":24,
			"byteOffset":561972
		},
		{
			"buffer":0,
			"byteLength":24,
			"byteOffset":561996
		},
		{
			"buffer":0,
			"byteLength":32,
			"byteOffset":562020
		},
		{
			"buffer":0,
			"byteLength":24,
			"byteOffset":562052
		},
		{
			"buffer":0,
			"byteLength":124,
			"byteOffset":562076
		},
		{
			"buffer":0,
			"byteLength":372,
			"byteOffset":562200
		},
		{
			"buffer":0,
			"byteLength":496,
			"byteOffset":562572
		},
		{
			"buffer":0,
			"byteLength":8,
			"byteOffset":563068
		},
		{
			"buffer":0,
			"byteLength":24,
			"byteOffset":563076
		},
		{
			"buffer":0,
			"byteLength":24,
			"byteOffset":563100
		},
		{
			"buffer":0,
			"byteLength":32,
			"byteOffset":563124
		},
		{
			"buffer":0,
			"byteLength":24,
			"byteOffset":563156
		},
		{
			"buffer":0,
			"byteLength":24,
			"byteOffset":563180
		},
		{
			"buffer":0,
			"byteLength":496,
			"byteOffset":563204
		},
		{
			"buffer":0,
			"byteLength":24,
			"byteOffset":563700
		},
		{
			"buffer":0,
			"byteLength":24,
			"byteOffset":563724
		},
		{
			"buffer":0,
			"byteLength":32,
			"byteOffset":563748
		},
		{
			"buffer":0,
			"byteLength":24,
			"byteOffset":563780
		},
		{
			"buffer":0,
			"byteLength":24,
			"byteOffset":563804
		},
		{
			"buffer":0,
			"byteLength":32,
			"byteOffset":563828
		},
		{
			"buffer":0,
			"byteLength":24,
			"byteOffset":563860
		},
		{
			"buffer":0,
			"byteLength":24,
			"byteOffset":563884
		},
		{
			"buffer":0,
			"byteLength":496,
			"byteOffset":563908
		},
		{
			"buffer":0,
			"byteLength":24,
			"byteOffset":564404
		},
		{
			"buffer":0,
			"byteLength":24,
			"byteOffset":564428
		},
		{
			"buffer":0,
			"byteLength":32,
			"byteOffset":564452
		},
		{
			"buffer":0,
			"byteLength":24,
			"byteOffset":564484
		},
		{
			"buffer":0,
			"byteLength":24,
			"byteOffset":564508
		},
		{
			"buffer":0,
			"byteLength":32,
			"byteOffset":564532
		},
		{
			"buffer":0,
			"byteLength":24,
			"byteOffset":564564
		},
		{
			"buffer":0,
			"byteLength":24,
			"byteOffset":564588
		},
		{
			"buffer":0,
			"byteLength":496,
			"byteOffset":564612
		},
		{
			"buffer":0,
			"byteLength":24,
			"byteOffset":565108
		},
		{
			"buffer":0,
			"byteLength":24,
			"byteOffset":565132
		},
		{
			"buffer":0,
			"byteLength":32,
			"byteOffset":565156
		},
		{
			"buffer":0,
			"byteLength":24,
			"byteOffset":565188
		},
		{
			"buffer":0,
			"byteLength":24,
			"byteOffset":565212
		},
		{
			"buffer":0,
			"byteLength":32,
			"byteOffset":565236
		},
		{
			"buffer":0,
			"byteLength":24,
			"byteOffset":565268
		},
		{
			"buffer":0,
			"byteLength":24,
			"byteOffset":565292
		},
		{
			"buffer":0,
			"byteLength":496,
			"byteOffset":565316
		},
		{
			"buffer":0,
			"byteLength":24,
			"byteOffset":565812
		},
		{
			"buffer":0,
			"byteLength":24,
			"byteOffset":565836
		},
		{
			"buffer":0,
			"byteLength":496,
			"byteOffset":565860
		},
		{
			"buffer":0,
			"byteLength":24,
			"byteOffset":566356
		},
		{
			"buffer":0,
			"byteLength":24,
			"byteOffset":566380
		},
		{
			"buffer":0,
			"byteLength":496,
			"byteOffset":566404
		},
		{
			"buffer":0,
			"byteLength":24,
			"byteOffset":566900
		},
		{
			"buffer":0,
			"byteLength":24,
			"byteOffset":566924
		},
		{
			"buffer":0,
			"byteLength":496,
			"byteOffset":566948
		},
		{
			"buffer":0,
			"byteLength":24,
			"byteOffset":567444
		},
		{
			"buffer":0,
			"byteLength":24,
			"byteOffset":567468
		},
		{
			"buffer":0,
			"byteLength":496,
			"byteOffset":567492
		},
		{
			"buffer":0,
			"byteLength":24,
			"byteOffset":567988
		},
		{
			"buffer":0,
			"byteLength":24,
			"byteOffset":568012
		},
		{
			"buffer":0,
			"byteLength":496,
			"byteOffset":568036
		},
		{
			"buffer":0,
			"byteLength":24,
			"byteOffset":568532
		}
	],
	"samplers":[
		{
			"magFilter":9729,
			"minFilter":9987
		}
	],
	"buffers":[
		{
			"byteLength":568556,
			"uri":"chloe.bin"
		}
	]
}
