{
	"asset":{
		"generator":"Khronos glTF Blender I/O v4.2.57",
		"version":"2.0"
	},
	"extensionsUsed":[
		"KHR_materials_clearcoat",
		"KHR_materials_sheen"
	],
	"scene":0,
	"scenes":[
		{
			"name":"Scene",
			"nodes":[
				18
			]
		}
	],
	"nodes":[
		{
			"name":"head",
			"scale":[
				1,
				0.9999999403953552,
				1
			],
			"translation":[
				0,
				0.17999982833862305,
				0
			]
		},
		{
			"children":[
				0
			],
			"name":"neck",
			"translation":[
				0,
				0.37800002098083496,
				0
			]
		},
		{
			"name":"hand.R",
			"rotation":[
				-0.004436358343809843,
				-0.030711021274328232,
				0.03294694796204567,
				0.9989752769470215
			],
			"scale":[
				1.0000001192092896,
				1,
				1.0000001192092896
			],
			"translation":[
				-2.2817403078079224e-08,
				0.4551893472671509,
				1.6763806343078613e-08
			]
		},
		{
			"children":[
				2
			],
			"name":"forearm.R",
			"rotation":[
				0.04115070775151253,
				-0.0719553530216217,
				0.0838748961687088,
				0.9930226802825928
			],
			"scale":[
				1.0000001192092896,
				1,
				1
			],
			"translation":[
				1.5366822481155396e-08,
				0.5055500864982605,
				9.313225746154785e-09
			]
		},
		{
			"children":[
				3
			],
			"name":"upper_arm.R",
			"rotation":[
				-0.9804754853248596,
				-0.1390419900417328,
				-0.13904233276844025,
				0.0015607770765200257
			],
			"scale":[
				0.999997615814209,
				0.9999998211860657,
				0.9999998807907104
			],
			"translation":[
				0.5831999778747559,
				0.28799986839294434,
				0
			]
		},
		{
			"name":"hand.L",
			"rotation":[
				-0.004436358343809843,
				0.030711021274328232,
				-0.03294694796204567,
				0.9989752769470215
			],
			"scale":[
				1.0000001192092896,
				1,
				1.0000001192092896
			],
			"translation":[
				2.2817403078079224e-08,
				0.4551893472671509,
				1.6763806343078613e-08
			]
		},
		{
			"children":[
				5
			],
			"name":"forearm.L",
			"rotation":[
				0.04115070775151253,
				0.0719553530216217,
				-0.0838748961687088,
				0.9930226802825928
			],
			"scale":[
				1.0000001192092896,
				1,
				1
			],
			"translation":[
				-1.5366822481155396e-08,
				0.5055500864982605,
				9.313225746154785e-09
			]
		},
		{
			"children":[
				6
			],
			"name":"upper_arm.L",
			"rotation":[
				-0.9804754853248596,
				0.1390419900417328,
				0.13904233276844025,
				0.0015607770765200257
			],
			"scale":[
				0.999997615814209,
				0.9999998211860657,
				0.9999998807907104
			],
			"translation":[
				-0.5831999778747559,
				0.28799986839294434,
				0
			]
		},
		{
			"children":[
				1,
				4,
				7
			],
			"name":"chest",
			"translation":[
				0,
				0.3059999942779541,
				0
			]
		},
		{
			"children":[
				8
			],
			"name":"spine",
			"translation":[
				0,
				0.26999998092651367,
				0
			]
		},
		{
			"name":"foot.R",
			"rotation":[
				0.5914180278778076,
				-1.3706402679503071e-09,
				-2.9405947121752263e-10,
				0.8063651323318481
			],
			"translation":[
				-2.8731161894057777e-10,
				0.7390620112419128,
				-2.6228690330754034e-09
			]
		},
		{
			"children":[
				10
			],
			"name":"shin.R",
			"rotation":[
				-0.04162055253982544,
				-0.014793497510254383,
				0.01402098685503006,
				0.9989255666732788
			],
			"scale":[
				0.9999999403953552,
				0.9999999403953552,
				1
			],
			"translation":[
				-1.798616722226143e-08,
				0.7386319041252136,
				5.122274160385132e-09
			]
		},
		{
			"children":[
				11
			],
			"name":"thigh.R",
			"rotation":[
				-0.9996822476387024,
				-0.014412429183721542,
				-0.014412599615752697,
				0.014834050089120865
			],
			"scale":[
				1.0000001192092896,
				0.999999463558197,
				1.000000238418579
			],
			"translation":[
				0.2483999878168106,
				-0.03600001335144043,
				0
			]
		},
		{
			"name":"foot.L",
			"rotation":[
				0.5914180278778076,
				1.3706402679503071e-09,
				2.9405947121752263e-10,
				0.8063651323318481
			],
			"translation":[
				2.8731161894057777e-10,
				0.7390620112419128,
				-2.6228690330754034e-09
			]
		},
		{
			"children":[
				13
			],
			"name":"shin.L",
			"rotation":[
				-0.04162055253982544,
				0.014793497510254383,
				-0.01402098685503006,
				0.9989255666732788
			],
			"scale":[
				0.9999999403953552,
				0.9999999403953552,
				1
			],
			"translation":[
				1.798616722226143e-08,
				0.7386319041252136,
				5.122274160385132e-09
			]
		},
		{
			"children":[
				14
			],
			"name":"thigh.L",
			"rotation":[
				-0.9996822476387024,
				0.014412429183721542,
				0.014412599615752697,
				0.014834050089120865
			],
			"scale":[
				1.0000001192092896,
				0.999999463558197,
				1.000000238418579
			],
			"translation":[
				-0.2483999878168106,
				-0.03600001335144043,
				0
			]
		},
		{
			"children":[
				9,
				12,
				15
			],
			"name":"hips",
			"translation":[
				0,
				1.6740000247955322,
				0
			]
		},
		{
			"mesh":0,
			"name":"dagruel",
			"skin":0
		},
		{
			"children":[
				17,
				16
			],
			"name":"dagruel_rig"
		}
	],
	"animations":[
		{
			"channels":[
				{
					"sampler":0,
					"target":{
						"node":16,
						"path":"translation"
					}
				},
				{
					"sampler":1,
					"target":{
						"node":16,
						"path":"rotation"
					}
				},
				{
					"sampler":2,
					"target":{
						"node":16,
						"path":"scale"
					}
				},
				{
					"sampler":3,
					"target":{
						"node":9,
						"path":"translation"
					}
				},
				{
					"sampler":4,
					"target":{
						"node":9,
						"path":"rotation"
					}
				},
				{
					"sampler":5,
					"target":{
						"node":9,
						"path":"scale"
					}
				},
				{
					"sampler":6,
					"target":{
						"node":8,
						"path":"translation"
					}
				},
				{
					"sampler":7,
					"target":{
						"node":8,
						"path":"rotation"
					}
				},
				{
					"sampler":8,
					"target":{
						"node":8,
						"path":"scale"
					}
				},
				{
					"sampler":9,
					"target":{
						"node":1,
						"path":"translation"
					}
				},
				{
					"sampler":10,
					"target":{
						"node":1,
						"path":"rotation"
					}
				},
				{
					"sampler":11,
					"target":{
						"node":1,
						"path":"scale"
					}
				},
				{
					"sampler":12,
					"target":{
						"node":0,
						"path":"translation"
					}
				},
				{
					"sampler":13,
					"target":{
						"node":0,
						"path":"rotation"
					}
				},
				{
					"sampler":14,
					"target":{
						"node":0,
						"path":"scale"
					}
				},
				{
					"sampler":15,
					"target":{
						"node":4,
						"path":"translation"
					}
				},
				{
					"sampler":16,
					"target":{
						"node":4,
						"path":"rotation"
					}
				},
				{
					"sampler":17,
					"target":{
						"node":4,
						"path":"scale"
					}
				},
				{
					"sampler":18,
					"target":{
						"node":3,
						"path":"translation"
					}
				},
				{
					"sampler":19,
					"target":{
						"node":3,
						"path":"rotation"
					}
				},
				{
					"sampler":20,
					"target":{
						"node":3,
						"path":"scale"
					}
				},
				{
					"sampler":21,
					"target":{
						"node":2,
						"path":"translation"
					}
				},
				{
					"sampler":22,
					"target":{
						"node":2,
						"path":"rotation"
					}
				},
				{
					"sampler":23,
					"target":{
						"node":2,
						"path":"scale"
					}
				},
				{
					"sampler":24,
					"target":{
						"node":7,
						"path":"translation"
					}
				},
				{
					"sampler":25,
					"target":{
						"node":7,
						"path":"rotation"
					}
				},
				{
					"sampler":26,
					"target":{
						"node":7,
						"path":"scale"
					}
				},
				{
					"sampler":27,
					"target":{
						"node":6,
						"path":"translation"
					}
				},
				{
					"sampler":28,
					"target":{
						"node":6,
						"path":"rotation"
					}
				},
				{
					"sampler":29,
					"target":{
						"node":6,
						"path":"scale"
					}
				},
				{
					"sampler":30,
					"target":{
						"node":5,
						"path":"translation"
					}
				},
				{
					"sampler":31,
					"target":{
						"node":5,
						"path":"rotation"
					}
				},
				{
					"sampler":32,
					"target":{
						"node":5,
						"path":"scale"
					}
				},
				{
					"sampler":33,
					"target":{
						"node":12,
						"path":"translation"
					}
				},
				{
					"sampler":34,
					"target":{
						"node":12,
						"path":"rotation"
					}
				},
				{
					"sampler":35,
					"target":{
						"node":12,
						"path":"scale"
					}
				},
				{
					"sampler":36,
					"target":{
						"node":11,
						"path":"translation"
					}
				},
				{
					"sampler":37,
					"target":{
						"node":11,
						"path":"rotation"
					}
				},
				{
					"sampler":38,
					"target":{
						"node":11,
						"path":"scale"
					}
				},
				{
					"sampler":39,
					"target":{
						"node":10,
						"path":"translation"
					}
				},
				{
					"sampler":40,
					"target":{
						"node":10,
						"path":"rotation"
					}
				},
				{
					"sampler":41,
					"target":{
						"node":10,
						"path":"scale"
					}
				},
				{
					"sampler":42,
					"target":{
						"node":15,
						"path":"translation"
					}
				},
				{
					"sampler":43,
					"target":{
						"node":15,
						"path":"rotation"
					}
				},
				{
					"sampler":44,
					"target":{
						"node":15,
						"path":"scale"
					}
				},
				{
					"sampler":45,
					"target":{
						"node":14,
						"path":"translation"
					}
				},
				{
					"sampler":46,
					"target":{
						"node":14,
						"path":"rotation"
					}
				},
				{
					"sampler":47,
					"target":{
						"node":14,
						"path":"scale"
					}
				},
				{
					"sampler":48,
					"target":{
						"node":13,
						"path":"translation"
					}
				},
				{
					"sampler":49,
					"target":{
						"node":13,
						"path":"rotation"
					}
				},
				{
					"sampler":50,
					"target":{
						"node":13,
						"path":"scale"
					}
				}
			],
			"name":"attack",
			"samplers":[
				{
					"input":67,
					"interpolation":"STEP",
					"output":68
				},
				{
					"input":67,
					"interpolation":"STEP",
					"output":69
				},
				{
					"input":67,
					"interpolation":"STEP",
					"output":70
				},
				{
					"input":67,
					"interpolation":"STEP",
					"output":71
				},
				{
					"input":67,
					"interpolation":"STEP",
					"output":72
				},
				{
					"input":67,
					"interpolation":"STEP",
					"output":73
				},
				{
					"input":67,
					"interpolation":"STEP",
					"output":74
				},
				{
					"input":75,
					"interpolation":"LINEAR",
					"output":76
				},
				{
					"input":67,
					"interpolation":"STEP",
					"output":77
				},
				{
					"input":67,
					"interpolation":"STEP",
					"output":78
				},
				{
					"input":67,
					"interpolation":"STEP",
					"output":79
				},
				{
					"input":67,
					"interpolation":"STEP",
					"output":80
				},
				{
					"input":67,
					"interpolation":"STEP",
					"output":81
				},
				{
					"input":67,
					"interpolation":"STEP",
					"output":82
				},
				{
					"input":67,
					"interpolation":"STEP",
					"output":83
				},
				{
					"input":67,
					"interpolation":"STEP",
					"output":84
				},
				{
					"input":75,
					"interpolation":"LINEAR",
					"output":85
				},
				{
					"input":67,
					"interpolation":"STEP",
					"output":86
				},
				{
					"input":67,
					"interpolation":"LINEAR",
					"output":87
				},
				{
					"input":75,
					"interpolation":"LINEAR",
					"output":88
				},
				{
					"input":67,
					"interpolation":"STEP",
					"output":89
				},
				{
					"input":67,
					"interpolation":"LINEAR",
					"output":90
				},
				{
					"input":67,
					"interpolation":"LINEAR",
					"output":91
				},
				{
					"input":67,
					"interpolation":"STEP",
					"output":92
				},
				{
					"input":67,
					"interpolation":"STEP",
					"output":93
				},
				{
					"input":75,
					"interpolation":"LINEAR",
					"output":94
				},
				{
					"input":67,
					"interpolation":"STEP",
					"output":95
				},
				{
					"input":67,
					"interpolation":"STEP",
					"output":96
				},
				{
					"input":67,
					"interpolation":"STEP",
					"output":97
				},
				{
					"input":67,
					"interpolation":"STEP",
					"output":98
				},
				{
					"input":67,
					"interpolation":"STEP",
					"output":99
				},
				{
					"input":67,
					"interpolation":"STEP",
					"output":100
				},
				{
					"input":67,
					"interpolation":"STEP",
					"output":101
				},
				{
					"input":67,
					"interpolation":"STEP",
					"output":102
				},
				{
					"input":75,
					"interpolation":"LINEAR",
					"output":103
				},
				{
					"input":67,
					"interpolation":"STEP",
					"output":104
				},
				{
					"input":67,
					"interpolation":"LINEAR",
					"output":105
				},
				{
					"input":67,
					"interpolation":"LINEAR",
					"output":106
				},
				{
					"input":67,
					"interpolation":"STEP",
					"output":107
				},
				{
					"input":67,
					"interpolation":"LINEAR",
					"output":108
				},
				{
					"input":67,
					"interpolation":"LINEAR",
					"output":109
				},
				{
					"input":67,
					"interpolation":"STEP",
					"output":110
				},
				{
					"input":67,
					"interpolation":"STEP",
					"output":111
				},
				{
					"input":75,
					"interpolation":"LINEAR",
					"output":112
				},
				{
					"input":67,
					"interpolation":"STEP",
					"output":113
				},
				{
					"input":67,
					"interpolation":"LINEAR",
					"output":114
				},
				{
					"input":67,
					"interpolation":"LINEAR",
					"output":115
				},
				{
					"input":67,
					"interpolation":"STEP",
					"output":116
				},
				{
					"input":67,
					"interpolation":"LINEAR",
					"output":117
				},
				{
					"input":67,
					"interpolation":"LINEAR",
					"output":118
				},
				{
					"input":67,
					"interpolation":"STEP",
					"output":119
				}
			]
		},
		{
			"channels":[
				{
					"sampler":0,
					"target":{
						"node":16,
						"path":"translation"
					}
				},
				{
					"sampler":1,
					"target":{
						"node":16,
						"path":"rotation"
					}
				},
				{
					"sampler":2,
					"target":{
						"node":16,
						"path":"scale"
					}
				},
				{
					"sampler":3,
					"target":{
						"node":9,
						"path":"translation"
					}
				},
				{
					"sampler":4,
					"target":{
						"node":9,
						"path":"rotation"
					}
				},
				{
					"sampler":5,
					"target":{
						"node":9,
						"path":"scale"
					}
				},
				{
					"sampler":6,
					"target":{
						"node":8,
						"path":"translation"
					}
				},
				{
					"sampler":7,
					"target":{
						"node":8,
						"path":"rotation"
					}
				},
				{
					"sampler":8,
					"target":{
						"node":8,
						"path":"scale"
					}
				},
				{
					"sampler":9,
					"target":{
						"node":1,
						"path":"translation"
					}
				},
				{
					"sampler":10,
					"target":{
						"node":1,
						"path":"rotation"
					}
				},
				{
					"sampler":11,
					"target":{
						"node":1,
						"path":"scale"
					}
				},
				{
					"sampler":12,
					"target":{
						"node":0,
						"path":"translation"
					}
				},
				{
					"sampler":13,
					"target":{
						"node":0,
						"path":"rotation"
					}
				},
				{
					"sampler":14,
					"target":{
						"node":0,
						"path":"scale"
					}
				},
				{
					"sampler":15,
					"target":{
						"node":4,
						"path":"translation"
					}
				},
				{
					"sampler":16,
					"target":{
						"node":4,
						"path":"rotation"
					}
				},
				{
					"sampler":17,
					"target":{
						"node":4,
						"path":"scale"
					}
				},
				{
					"sampler":18,
					"target":{
						"node":3,
						"path":"translation"
					}
				},
				{
					"sampler":19,
					"target":{
						"node":3,
						"path":"rotation"
					}
				},
				{
					"sampler":20,
					"target":{
						"node":3,
						"path":"scale"
					}
				},
				{
					"sampler":21,
					"target":{
						"node":2,
						"path":"translation"
					}
				},
				{
					"sampler":22,
					"target":{
						"node":2,
						"path":"rotation"
					}
				},
				{
					"sampler":23,
					"target":{
						"node":2,
						"path":"scale"
					}
				},
				{
					"sampler":24,
					"target":{
						"node":7,
						"path":"translation"
					}
				},
				{
					"sampler":25,
					"target":{
						"node":7,
						"path":"rotation"
					}
				},
				{
					"sampler":26,
					"target":{
						"node":7,
						"path":"scale"
					}
				},
				{
					"sampler":27,
					"target":{
						"node":6,
						"path":"translation"
					}
				},
				{
					"sampler":28,
					"target":{
						"node":6,
						"path":"rotation"
					}
				},
				{
					"sampler":29,
					"target":{
						"node":6,
						"path":"scale"
					}
				},
				{
					"sampler":30,
					"target":{
						"node":5,
						"path":"translation"
					}
				},
				{
					"sampler":31,
					"target":{
						"node":5,
						"path":"rotation"
					}
				},
				{
					"sampler":32,
					"target":{
						"node":5,
						"path":"scale"
					}
				},
				{
					"sampler":33,
					"target":{
						"node":12,
						"path":"translation"
					}
				},
				{
					"sampler":34,
					"target":{
						"node":12,
						"path":"rotation"
					}
				},
				{
					"sampler":35,
					"target":{
						"node":12,
						"path":"scale"
					}
				},
				{
					"sampler":36,
					"target":{
						"node":11,
						"path":"translation"
					}
				},
				{
					"sampler":37,
					"target":{
						"node":11,
						"path":"rotation"
					}
				},
				{
					"sampler":38,
					"target":{
						"node":11,
						"path":"scale"
					}
				},
				{
					"sampler":39,
					"target":{
						"node":10,
						"path":"translation"
					}
				},
				{
					"sampler":40,
					"target":{
						"node":10,
						"path":"rotation"
					}
				},
				{
					"sampler":41,
					"target":{
						"node":10,
						"path":"scale"
					}
				},
				{
					"sampler":42,
					"target":{
						"node":15,
						"path":"translation"
					}
				},
				{
					"sampler":43,
					"target":{
						"node":15,
						"path":"rotation"
					}
				},
				{
					"sampler":44,
					"target":{
						"node":15,
						"path":"scale"
					}
				},
				{
					"sampler":45,
					"target":{
						"node":14,
						"path":"translation"
					}
				},
				{
					"sampler":46,
					"target":{
						"node":14,
						"path":"rotation"
					}
				},
				{
					"sampler":47,
					"target":{
						"node":14,
						"path":"scale"
					}
				},
				{
					"sampler":48,
					"target":{
						"node":13,
						"path":"translation"
					}
				},
				{
					"sampler":49,
					"target":{
						"node":13,
						"path":"rotation"
					}
				},
				{
					"sampler":50,
					"target":{
						"node":13,
						"path":"scale"
					}
				}
			],
			"name":"idle",
			"samplers":[
				{
					"input":120,
					"interpolation":"LINEAR",
					"output":121
				},
				{
					"input":122,
					"interpolation":"STEP",
					"output":123
				},
				{
					"input":122,
					"interpolation":"STEP",
					"output":124
				},
				{
					"input":122,
					"interpolation":"STEP",
					"output":125
				},
				{
					"input":122,
					"interpolation":"STEP",
					"output":126
				},
				{
					"input":122,
					"interpolation":"STEP",
					"output":127
				},
				{
					"input":122,
					"interpolation":"STEP",
					"output":128
				},
				{
					"input":120,
					"interpolation":"LINEAR",
					"output":129
				},
				{
					"input":122,
					"interpolation":"STEP",
					"output":130
				},
				{
					"input":122,
					"interpolation":"STEP",
					"output":131
				},
				{
					"input":122,
					"interpolation":"STEP",
					"output":132
				},
				{
					"input":122,
					"interpolation":"STEP",
					"output":133
				},
				{
					"input":122,
					"interpolation":"STEP",
					"output":134
				},
				{
					"input":120,
					"interpolation":"LINEAR",
					"output":135
				},
				{
					"input":122,
					"interpolation":"STEP",
					"output":136
				},
				{
					"input":122,
					"interpolation":"STEP",
					"output":137
				},
				{
					"input":120,
					"interpolation":"LINEAR",
					"output":138
				},
				{
					"input":122,
					"interpolation":"STEP",
					"output":139
				},
				{
					"input":122,
					"interpolation":"STEP",
					"output":140
				},
				{
					"input":122,
					"interpolation":"STEP",
					"output":141
				},
				{
					"input":122,
					"interpolation":"STEP",
					"output":142
				},
				{
					"input":122,
					"interpolation":"STEP",
					"output":143
				},
				{
					"input":122,
					"interpolation":"STEP",
					"output":144
				},
				{
					"input":122,
					"interpolation":"STEP",
					"output":145
				},
				{
					"input":122,
					"interpolation":"STEP",
					"output":146
				},
				{
					"input":120,
					"interpolation":"LINEAR",
					"output":147
				},
				{
					"input":122,
					"interpolation":"STEP",
					"output":148
				},
				{
					"input":122,
					"interpolation":"STEP",
					"output":149
				},
				{
					"input":122,
					"interpolation":"STEP",
					"output":150
				},
				{
					"input":122,
					"interpolation":"STEP",
					"output":151
				},
				{
					"input":122,
					"interpolation":"STEP",
					"output":152
				},
				{
					"input":122,
					"interpolation":"STEP",
					"output":153
				},
				{
					"input":122,
					"interpolation":"STEP",
					"output":154
				},
				{
					"input":122,
					"interpolation":"STEP",
					"output":155
				},
				{
					"input":122,
					"interpolation":"STEP",
					"output":156
				},
				{
					"input":122,
					"interpolation":"STEP",
					"output":157
				},
				{
					"input":122,
					"interpolation":"STEP",
					"output":158
				},
				{
					"input":122,
					"interpolation":"STEP",
					"output":159
				},
				{
					"input":122,
					"interpolation":"STEP",
					"output":160
				},
				{
					"input":122,
					"interpolation":"STEP",
					"output":161
				},
				{
					"input":122,
					"interpolation":"STEP",
					"output":162
				},
				{
					"input":122,
					"interpolation":"STEP",
					"output":163
				},
				{
					"input":122,
					"interpolation":"STEP",
					"output":164
				},
				{
					"input":122,
					"interpolation":"STEP",
					"output":165
				},
				{
					"input":122,
					"interpolation":"STEP",
					"output":166
				},
				{
					"input":122,
					"interpolation":"STEP",
					"output":167
				},
				{
					"input":122,
					"interpolation":"STEP",
					"output":168
				},
				{
					"input":122,
					"interpolation":"STEP",
					"output":169
				},
				{
					"input":122,
					"interpolation":"STEP",
					"output":170
				},
				{
					"input":122,
					"interpolation":"STEP",
					"output":171
				},
				{
					"input":122,
					"interpolation":"STEP",
					"output":172
				}
			]
		},
		{
			"channels":[
				{
					"sampler":0,
					"target":{
						"node":16,
						"path":"translation"
					}
				},
				{
					"sampler":1,
					"target":{
						"node":16,
						"path":"rotation"
					}
				},
				{
					"sampler":2,
					"target":{
						"node":16,
						"path":"scale"
					}
				},
				{
					"sampler":3,
					"target":{
						"node":9,
						"path":"translation"
					}
				},
				{
					"sampler":4,
					"target":{
						"node":9,
						"path":"rotation"
					}
				},
				{
					"sampler":5,
					"target":{
						"node":9,
						"path":"scale"
					}
				},
				{
					"sampler":6,
					"target":{
						"node":8,
						"path":"translation"
					}
				},
				{
					"sampler":7,
					"target":{
						"node":8,
						"path":"rotation"
					}
				},
				{
					"sampler":8,
					"target":{
						"node":8,
						"path":"scale"
					}
				},
				{
					"sampler":9,
					"target":{
						"node":1,
						"path":"translation"
					}
				},
				{
					"sampler":10,
					"target":{
						"node":1,
						"path":"rotation"
					}
				},
				{
					"sampler":11,
					"target":{
						"node":1,
						"path":"scale"
					}
				},
				{
					"sampler":12,
					"target":{
						"node":0,
						"path":"translation"
					}
				},
				{
					"sampler":13,
					"target":{
						"node":0,
						"path":"rotation"
					}
				},
				{
					"sampler":14,
					"target":{
						"node":0,
						"path":"scale"
					}
				},
				{
					"sampler":15,
					"target":{
						"node":4,
						"path":"translation"
					}
				},
				{
					"sampler":16,
					"target":{
						"node":4,
						"path":"rotation"
					}
				},
				{
					"sampler":17,
					"target":{
						"node":4,
						"path":"scale"
					}
				},
				{
					"sampler":18,
					"target":{
						"node":3,
						"path":"translation"
					}
				},
				{
					"sampler":19,
					"target":{
						"node":3,
						"path":"rotation"
					}
				},
				{
					"sampler":20,
					"target":{
						"node":3,
						"path":"scale"
					}
				},
				{
					"sampler":21,
					"target":{
						"node":2,
						"path":"translation"
					}
				},
				{
					"sampler":22,
					"target":{
						"node":2,
						"path":"rotation"
					}
				},
				{
					"sampler":23,
					"target":{
						"node":2,
						"path":"scale"
					}
				},
				{
					"sampler":24,
					"target":{
						"node":7,
						"path":"translation"
					}
				},
				{
					"sampler":25,
					"target":{
						"node":7,
						"path":"rotation"
					}
				},
				{
					"sampler":26,
					"target":{
						"node":7,
						"path":"scale"
					}
				},
				{
					"sampler":27,
					"target":{
						"node":6,
						"path":"translation"
					}
				},
				{
					"sampler":28,
					"target":{
						"node":6,
						"path":"rotation"
					}
				},
				{
					"sampler":29,
					"target":{
						"node":6,
						"path":"scale"
					}
				},
				{
					"sampler":30,
					"target":{
						"node":5,
						"path":"translation"
					}
				},
				{
					"sampler":31,
					"target":{
						"node":5,
						"path":"rotation"
					}
				},
				{
					"sampler":32,
					"target":{
						"node":5,
						"path":"scale"
					}
				},
				{
					"sampler":33,
					"target":{
						"node":12,
						"path":"translation"
					}
				},
				{
					"sampler":34,
					"target":{
						"node":12,
						"path":"rotation"
					}
				},
				{
					"sampler":35,
					"target":{
						"node":12,
						"path":"scale"
					}
				},
				{
					"sampler":36,
					"target":{
						"node":11,
						"path":"translation"
					}
				},
				{
					"sampler":37,
					"target":{
						"node":11,
						"path":"rotation"
					}
				},
				{
					"sampler":38,
					"target":{
						"node":11,
						"path":"scale"
					}
				},
				{
					"sampler":39,
					"target":{
						"node":10,
						"path":"translation"
					}
				},
				{
					"sampler":40,
					"target":{
						"node":10,
						"path":"rotation"
					}
				},
				{
					"sampler":41,
					"target":{
						"node":10,
						"path":"scale"
					}
				},
				{
					"sampler":42,
					"target":{
						"node":15,
						"path":"translation"
					}
				},
				{
					"sampler":43,
					"target":{
						"node":15,
						"path":"rotation"
					}
				},
				{
					"sampler":44,
					"target":{
						"node":15,
						"path":"scale"
					}
				},
				{
					"sampler":45,
					"target":{
						"node":14,
						"path":"translation"
					}
				},
				{
					"sampler":46,
					"target":{
						"node":14,
						"path":"rotation"
					}
				},
				{
					"sampler":47,
					"target":{
						"node":14,
						"path":"scale"
					}
				},
				{
					"sampler":48,
					"target":{
						"node":13,
						"path":"translation"
					}
				},
				{
					"sampler":49,
					"target":{
						"node":13,
						"path":"rotation"
					}
				},
				{
					"sampler":50,
					"target":{
						"node":13,
						"path":"scale"
					}
				}
			],
			"name":"walk",
			"samplers":[
				{
					"input":173,
					"interpolation":"LINEAR",
					"output":174
				},
				{
					"input":173,
					"interpolation":"LINEAR",
					"output":175
				},
				{
					"input":176,
					"interpolation":"STEP",
					"output":177
				},
				{
					"input":176,
					"interpolation":"STEP",
					"output":178
				},
				{
					"input":176,
					"interpolation":"STEP",
					"output":179
				},
				{
					"input":176,
					"interpolation":"STEP",
					"output":180
				},
				{
					"input":176,
					"interpolation":"STEP",
					"output":181
				},
				{
					"input":173,
					"interpolation":"LINEAR",
					"output":182
				},
				{
					"input":176,
					"interpolation":"STEP",
					"output":183
				},
				{
					"input":176,
					"interpolation":"STEP",
					"output":184
				},
				{
					"input":176,
					"interpolation":"STEP",
					"output":185
				},
				{
					"input":176,
					"interpolation":"STEP",
					"output":186
				},
				{
					"input":176,
					"interpolation":"STEP",
					"output":187
				},
				{
					"input":176,
					"interpolation":"STEP",
					"output":188
				},
				{
					"input":176,
					"interpolation":"STEP",
					"output":189
				},
				{
					"input":176,
					"interpolation":"STEP",
					"output":190
				},
				{
					"input":173,
					"interpolation":"LINEAR",
					"output":191
				},
				{
					"input":176,
					"interpolation":"STEP",
					"output":192
				},
				{
					"input":176,
					"interpolation":"STEP",
					"output":193
				},
				{
					"input":176,
					"interpolation":"STEP",
					"output":194
				},
				{
					"input":176,
					"interpolation":"STEP",
					"output":195
				},
				{
					"input":176,
					"interpolation":"STEP",
					"output":196
				},
				{
					"input":176,
					"interpolation":"STEP",
					"output":197
				},
				{
					"input":176,
					"interpolation":"STEP",
					"output":198
				},
				{
					"input":176,
					"interpolation":"STEP",
					"output":199
				},
				{
					"input":173,
					"interpolation":"LINEAR",
					"output":200
				},
				{
					"input":176,
					"interpolation":"STEP",
					"output":201
				},
				{
					"input":176,
					"interpolation":"STEP",
					"output":202
				},
				{
					"input":176,
					"interpolation":"STEP",
					"output":203
				},
				{
					"input":176,
					"interpolation":"STEP",
					"output":204
				},
				{
					"input":176,
					"interpolation":"STEP",
					"output":205
				},
				{
					"input":176,
					"interpolation":"STEP",
					"output":206
				},
				{
					"input":176,
					"interpolation":"STEP",
					"output":207
				},
				{
					"input":176,
					"interpolation":"STEP",
					"output":208
				},
				{
					"input":173,
					"interpolation":"LINEAR",
					"output":209
				},
				{
					"input":176,
					"interpolation":"STEP",
					"output":210
				},
				{
					"input":176,
					"interpolation":"STEP",
					"output":211
				},
				{
					"input":173,
					"interpolation":"LINEAR",
					"output":212
				},
				{
					"input":176,
					"interpolation":"STEP",
					"output":213
				},
				{
					"input":176,
					"interpolation":"STEP",
					"output":214
				},
				{
					"input":173,
					"interpolation":"LINEAR",
					"output":215
				},
				{
					"input":176,
					"interpolation":"STEP",
					"output":216
				},
				{
					"input":176,
					"interpolation":"STEP",
					"output":217
				},
				{
					"input":173,
					"interpolation":"LINEAR",
					"output":218
				},
				{
					"input":176,
					"interpolation":"STEP",
					"output":219
				},
				{
					"input":176,
					"interpolation":"STEP",
					"output":220
				},
				{
					"input":173,
					"interpolation":"LINEAR",
					"output":221
				},
				{
					"input":176,
					"interpolation":"STEP",
					"output":222
				},
				{
					"input":176,
					"interpolation":"STEP",
					"output":223
				},
				{
					"input":173,
					"interpolation":"LINEAR",
					"output":224
				},
				{
					"input":176,
					"interpolation":"STEP",
					"output":225
				}
			]
		}
	],
	"materials":[
		{
			"name":"skin",
			"normalTexture":{
				"index":0,
				"scale":0.4000000059604645
			},
			"pbrMetallicRoughness":{
				"baseColorFactor":[
					0.5225215554237366,
					0.31854677200317383,
					0.21404114365577698,
					1
				],
				"metallicFactor":0,
				"roughnessFactor":0.550000011920929
			}
		},
		{
			"extensions":{
				"KHR_materials_sheen":{
					"sheenColorFactor":[
						1.0,
						1.0,
						1.0
					],
					"sheenRoughnessFactor":0.5
				}
			},
			"name":"hair",
			"normalTexture":{
				"index":1,
				"scale":0.800000011920929
			},
			"pbrMetallicRoughness":{
				"baseColorFactor":[
					0.21404114365577698,
					0.07323895394802094,
					0.03310476616024971,
					1
				],
				"metallicFactor":0,
				"roughnessFactor":0.44999998807907104
			}
		},
		{
			"extensions":{
				"KHR_materials_sheen":{
					"sheenColorFactor":[
						1.0,
						1.0,
						1.0
					],
					"sheenRoughnessFactor":0.5
				}
			},
			"name":"outfit",
			"normalTexture":{
				"index":2,
				"scale":0.6000000238418579
			},
			"pbrMetallicRoughness":{
				"baseColorFactor":[
					0.17064493894577026,
					0.10048151016235352,
					0.05087608844041824,
					1
				],
				"metallicFactor":0,
				"roughnessFactor":0.75
			}
		},
		{
			"name":"outfit2",
			"normalTexture":{
				"index":3,
				"scale":0.4000000059604645
			},
			"pbrMetallicRoughness":{
				"baseColorFactor":[
					0.4479884207248688,
					0.31854677200317383,
					0.07323895394802094,
					1
				],
				"metallicFactor":0,
				"roughnessFactor":0.6000000238418579
			}
		},
		{
			"name":"pants",
			"normalTexture":{
				"index":4,
				"scale":0.6000000238418579
			},
			"pbrMetallicRoughness":{
				"baseColorFactor":[
					0.08088690787553787,
					0.04889732599258423,
					0.025842878967523575,
					1
				],
				"metallicFactor":0,
				"roughnessFactor":0.800000011920929
			}
		},
		{
			"extensions":{
				"KHR_materials_clearcoat":{
					"clearcoatFactor":0.30000001192092896
				}
			},
			"name":"boots",
			"normalTexture":{
				"index":5,
				"scale":0.800000011920929
			},
			"pbrMetallicRoughness":{
				"baseColorFactor":[
					0.0134117491543293,
					0.010022825561463833,
					0.010022825561463833,
					1
				],
				"metallicFactor":0,
				"roughnessFactor":0.44999998807907104
			}
		},
		{
			"name":"eye_white",
			"pbrMetallicRoughness":{
				"baseColorFactor":[
					0.8900054097175598,
					0.8900054097175598,
					0.8900054097175598,
					1
				],
				"metallicFactor":0,
				"roughnessFactor":0.20000000298023224
			}
		},
		{
			"emissiveFactor":[
				0.011763989275256348,
				0.011763989275256348,
				0.019862860485428957
			],
			"name":"iris",
			"pbrMetallicRoughness":{
				"baseColorFactor":[
					0.01960664801299572,
					0.01960664801299572,
					0.03310476616024971,
					1
				],
				"metallicFactor":0,
				"roughnessFactor":0.15000000596046448
			}
		},
		{
			"name":"pupil",
			"pbrMetallicRoughness":{
				"baseColorFactor":[
					0.0015479875728487968,
					0.0015479875728487968,
					0.0023219813592731953,
					1
				],
				"metallicFactor":0,
				"roughnessFactor":0.10000000149011612
			}
		},
		{
			"name":"lips",
			"pbrMetallicRoughness":{
				"baseColorFactor":[
					0.23791469633579254,
					0.1473190039396286,
					0.10048151016235352,
					1
				],
				"metallicFactor":0,
				"roughnessFactor":0.4000000059604645
			}
		},
		{
			"name":"buckle",
			"pbrMetallicRoughness":{
				"baseColorFactor":[
					0.6920710802078247,
					0.4479884207248688,
					0.07323895394802094,
					1
				],
				"metallicFactor":0.8999999761581421,
				"roughnessFactor":0.30000001192092896
			}
		}
	],
	"meshes":[
		{
			"name":"dagruel",
			"primitives":[
				{
					"attributes":{
						"POSITION":0,
						"NORMAL":1,
						"TEXCOORD_0":2,
						"JOINTS_0":3,
						"WEIGHTS_0":4
					},
					"indices":5,
					"material":0
				},
				{
					"attributes":{
						"POSITION":6,
						"NORMAL":7,
						"TEXCOORD_0":8,
						"JOINTS_0":9,
						"WEIGHTS_0":10
					},
					"indices":11,
					"material":1
				},
				{
					"attributes":{
						"POSITION":12,
						"NORMAL":13,
						"TEXCOORD_0":14,
						"JOINTS_0":15,
						"WEIGHTS_0":16
					},
					"indices":17,
					"material":2
				},
				{
					"attributes":{
						"POSITION":18,
						"NORMAL":19,
						"TEXCOORD_0":20,
						"JOINTS_0":21,
						"WEIGHTS_0":22
					},
					"indices":23,
					"material":3
				},
				{
					"attributes":{
						"POSITION":24,
						"NORMAL":25,
						"TEXCOORD_0":26,
						"JOINTS_0":27,
						"WEIGHTS_0":28
					},
					"indices":29,
					"material":4
				},
				{
					"attributes":{
						"POSITION":30,
						"NORMAL":31,
						"TEXCOORD_0":32,
						"JOINTS_0":33,
						"WEIGHTS_0":34
					},
					"indices":35,
					"material":5
				},
				{
					"attributes":{
						"POSITION":36,
						"NORMAL":37,
						"TEXCOORD_0":38,
						"JOINTS_0":39,
						"WEIGHTS_0":40
					},
					"indices":41,
					"material":6
				},
				{
					"attributes":{
						"POSITION":42,
						"NORMAL":43,
						"TEXCOORD_0":44,
						"JOINTS_0":45,
						"WEIGHTS_0":46
					},
					"indices":47,
					"material":7
				},
				{
					"attributes":{
						"POSITION":48,
						"NORMAL":49,
						"TEXCOORD_0":50,
						"JOINTS_0":51,
						"WEIGHTS_0":52
					},
					"indices":53,
					"material":8
				},
				{
					"attributes":{
						"POSITION":54,
						"NORMAL":55,
						"TEXCOORD_0":56,
						"JOINTS_0":57,
						"WEIGHTS_0":58
					},
					"indices":59,
					"material":9
				},
				{
					"attributes":{
						"POSITION":60,
						"NORMAL":61,
						"TEXCOORD_0":62,
						"JOINTS_0":63,
						"WEIGHTS_0":64
					},
					"indices":65,
					"material":10
				}
			]
		}
	],
	"textures":[
		{
			"sampler":0,
			"source":0
		},
		{
			"sampler":0,
			"source":1
		},
		{
			"sampler":0,
			"source":2
		},
		{
			"sampler":0,
			"source":2
		},
		{
			"sampler":0,
			"source":2
		},
		{
			"sampler":0,
			"source":3
		}
	],
	"images":[
		{
			"mimeType":"image/png",
			"name":"N_skin",
			"uri":"texturas/N_skin.png"
		},
		{
			"mimeType":"image/png",
			"name":"N_hair",
			"uri":"texturas/N_hair.png"
		},
		{
			"mimeType":"image/png",
			"name":"N_cloth",
			"uri":"texturas/N_cloth.png"
		},
		{
			"mimeType":"image/png",
			"name":"N_leather",
			"uri":"texturas/N_leather.png"
		}
	],
	"skins":[
		{
			"inverseBindMatrices":66,
			"joints":[
				16,
				9,
				8,
				1,
				0,
				4,
				3,
				2,
				7,
				6,
				5,
				12,
				11,
				10,
				15,
				14,
				13
			],
			"name":"dagruel_rig"
		}
	],
	"accessors":[
		{
			"bufferView":0,
			"componentType":5126,
			"count":2254,
			"max":[
				0.8427625298500061,
				3.2111997604370117,
				0.19298259913921356
			],
			"min":[
				-0.8427625298500061,
				1.4120421409606934,
				-0.3314151465892792
			],
			"type":"VEC3"
		},
		{
			"bufferView":1,
			"componentType":5126,
			"count":2254,
			"type":"VEC3"
		},
		{
			"bufferView":2,
			"componentType":5126,
			"count":2254,
			"type":"VEC2"
		},
		{
			"bufferView":3,
			"componentType":5121,
			"count":2254,
			"type":"VEC4"
		},
		{
			"bufferView":4,
			"componentType":5126,
			"count":2254,
			"type":"VEC4"
		},
		{
			"bufferView":5,
			"componentType":5123,
			"count":9372,
			"type":"SCALAR"
		},
		{
			"bufferView":6,
			"componentType":5126,
			"count":3248,
			"max":[
				0.44141727685928345,
				3.5712039470672607,
				0.5363256931304932
			],
			"min":[
				-0.533395528793335,
				2.619224786758423,
				-0.3601438105106354
			],
			"type":"VEC3"
		},
		{
			"bufferView":7,
			"componentType":5126,
			"count":3248,
			"type":"VEC3"
		},
		{
			"bufferView":8,
			"componentType":5126,
			"count":3248,
			"type":"VEC2"
		},
		{
			"bufferView":9,
			"componentType":5121,
			"count":3248,
			"type":"VEC4"
		},
		{
			"bufferView":10,
			"componentType":5126,
			"count":3248,
			"type":"VEC4"
		},
		{
			"bufferView":11,
			"componentType":5123,
			"count":10440,
			"type":"SCALAR"
		},
		{
			"bufferView":12,
			"componentType":5126,
			"count":370,
			"max":[
				0.7592048048973083,
				2.6451828479766846,
				0.3674337565898895
			],
			"min":[
				-0.7592048048973083,
				1.709202527999878,
				-0.3704794943332672
			],
			"type":"VEC3"
		},
		{
			"bufferView":13,
			"componentType":5126,
			"count":370,
			"type":"VEC3"
		},
		{
			"bufferView":14,
			"componentType":5126,
			"count":370,
			"type":"VEC2"
		},
		{
			"bufferView":15,
			"componentType":5121,
			"count":370,
			"type":"VEC4"
		},
		{
			"bufferView":16,
			"componentType":5126,
			"count":370,
			"type":"VEC4"
		},
		{
			"bufferView":17,
			"componentType":5123,
			"count":1380,
			"type":"SCALAR"
		},
		{
			"bufferView":18,
			"componentType":5126,
			"count":60,
			"max":[
				0.36637941002845764,
				1.8231425285339355,
				0.37866565585136414
			],
			"min":[
				-0.36637943983078003,
				1.580869436264038,
				-0.3810812532901764
			],
			"type":"VEC3"
		},
		{
			"bufferView":19,
			"componentType":5126,
			"count":60,
			"type":"VEC3"
		},
		{
			"bufferView":20,
			"componentType":5126,
			"count":60,
			"type":"VEC2"
		},
		{
			"bufferView":21,
			"componentType":5121,
			"count":60,
			"type":"VEC4"
		},
		{
			"bufferView":22,
			"componentType":5126,
			"count":60,
			"type":"VEC4"
		},
		{
			"bufferView":23,
			"componentType":5123,
			"count":168,
			"type":"SCALAR"
		},
		{
			"bufferView":24,
			"componentType":5126,
			"count":675,
			"max":[
				0.8315288424491882,
				1.709202527999878,
				0.37676602602005005
			],
			"min":[
				-0.8315288424491882,
				0.524185061454773,
				-0.37942907214164734
			],
			"type":"VEC3"
		},
		{
			"bufferView":25,
			"componentType":5126,
			"count":675,
			"type":"VEC3"
		},
		{
			"bufferView":26,
			"componentType":5126,
			"count":675,
			"type":"VEC2"
		},
		{
			"bufferView":27,
			"componentType":5121,
			"count":675,
			"type":"VEC4"
		},
		{
			"bufferView":28,
			"componentType":5126,
			"count":675,
			"type":"VEC4"
		},
		{
			"bufferView":29,
			"componentType":5123,
			"count":2808,
			"type":"SCALAR"
		},
		{
			"bufferView":30,
			"componentType":5126,
			"count":874,
			"max":[
				0.41973116993904114,
				0.5377551317214966,
				0.1691867858171463
			],
			"min":[
				-0.4197311997413635,
				0.01368731539696455,
				-0.2522144913673401
			],
			"type":"VEC3"
		},
		{
			"bufferView":31,
			"componentType":5126,
			"count":874,
			"type":"VEC3"
		},
		{
			"bufferView":32,
			"componentType":5126,
			"count":874,
			"type":"VEC2"
		},
		{
			"bufferView":33,
			"componentType":5121,
			"count":874,
			"type":"VEC4"
		},
		{
			"bufferView":34,
			"componentType":5126,
			"count":874,
			"type":"VEC4"
		},
		{
			"bufferView":35,
			"componentType":5123,
			"count":3840,
			"type":"SCALAR"
		},
		{
			"bufferView":36,
			"componentType":5126,
			"count":304,
			"max":[
				0.09179999679327011,
				3.0356998443603516,
				-0.12600000202655792
			],
			"min":[
				-0.09179999679327011,
				2.99429988861084,
				-0.15839999914169312
			],
			"type":"VEC3"
		},
		{
			"bufferView":37,
			"componentType":5126,
			"count":304,
			"type":"VEC3"
		},
		{
			"bufferView":38,
			"componentType":5126,
			"count":304,
			"type":"VEC2"
		},
		{
			"bufferView":39,
			"componentType":5121,
			"count":304,
			"type":"VEC4"
		},
		{
			"bufferView":40,
			"componentType":5126,
			"count":304,
			"type":"VEC4"
		},
		{
			"bufferView":41,
			"componentType":5123,
			"count":1152,
			"type":"SCALAR"
		},
		{
			"bufferView":42,
			"componentType":5126,
			"count":220,
			"max":[
				0.07829999923706055,
				3.032639980316162,
				-0.14619643986225128
			],
			"min":[
				-0.07829999923706055,
				2.9973599910736084,
				-0.16160355508327484
			],
			"type":"VEC3"
		},
		{
			"bufferView":43,
			"componentType":5126,
			"count":220,
			"type":"VEC3"
		},
		{
			"bufferView":44,
			"componentType":5126,
			"count":220,
			"type":"VEC2"
		},
		{
			"bufferView":45,
			"componentType":5121,
			"count":220,
			"type":"VEC4"
		},
		{
			"bufferView":46,
			"componentType":5126,
			"count":220,
			"type":"VEC4"
		},
		{
			"bufferView":47,
			"componentType":5123,
			"count":720,
			"type":"SCALAR"
		},
		{
			"bufferView":48,
			"componentType":5126,
			"count":160,
			"max":[
				0.06838998198509216,
				3.023099899291992,
				-0.15641619265079498
			],
			"min":[
				-0.06838998198509216,
				3.0069000720977783,
				-0.16326381266117096
			],
			"type":"VEC3"
		},
		{
			"bufferView":49,
			"componentType":5126,
			"count":160,
			"type":"VEC3"
		},
		{
			"bufferView":50,
			"componentType":5126,
			"count":160,
			"type":"VEC2"
		},
		{
			"bufferView":51,
			"componentType":5121,
			"count":160,
			"type":"VEC4"
		},
		{
			"bufferView":52,
			"componentType":5126,
			"count":160,
			"type":"VEC4"
		},
		{
			"bufferView":53,
			"componentType":5123,
			"count":480,
			"type":"SCALAR"
		},
		{
			"bufferView":54,
			"componentType":5126,
			"count":98,
			"max":[
				0.034199997782707214,
				2.8934998512268066,
				-0.1398964375257492
			],
			"min":[
				-0.034199997782707214,
				2.8773000240325928,
				-0.15530355274677277
			],
			"type":"VEC3"
		},
		{
			"bufferView":55,
			"componentType":5126,
			"count":98,
			"type":"VEC3"
		},
		{
			"bufferView":56,
			"componentType":5126,
			"count":98,
			"type":"VEC2"
		},
		{
			"bufferView":57,
			"componentType":5121,
			"count":98,
			"type":"VEC4"
		},
		{
			"bufferView":58,
			"componentType":5126,
			"count":98,
			"type":"VEC4"
		},
		{
			"bufferView":59,
			"componentType":5123,
			"count":360,
			"type":"SCALAR"
		},
		{
			"bufferView":60,
			"componentType":5126,
			"count":24,
			"max":[
				0.044999998062849045,
				1.746000051498413,
				-0.2546999752521515
			],
			"min":[
				-0.044999998062849045,
				1.6740000247955322,
				-0.27630001306533813
			],
			"type":"VEC3"
		},
		{
			"bufferView":61,
			"componentType":5126,
			"count":24,
			"type":"VEC3"
		},
		{
			"bufferView":62,
			"componentType":5126,
			"count":24,
			"type":"VEC2"
		},
		{
			"bufferView":63,
			"componentType":5121,
			"count":24,
			"type":"VEC4"
		},
		{
			"bufferView":64,
			"componentType":5126,
			"count":24,
			"type":"VEC4"
		},
		{
			"bufferView":65,
			"componentType":5123,
			"count":36,
			"type":"SCALAR"
		},
		{
			"bufferView":66,
			"componentType":5126,
			"count":17,
			"type":"MAT4"
		},
		{
			"bufferView":67,
			"componentType":5126,
			"count":2,
			"max":[
				0.6
			],
			"min":[
				0
			],
			"type":"SCALAR"
		},
		{
			"bufferView":68,
			"componentType":5126,
			"count":2,
			"type":"VEC3"
		},
		{
			"bufferView":69,
			"componentType":5126,
			"count":2,
			"type":"VEC4"
		},
		{
			"bufferView":70,
			"componentType":5126,
			"count":2,
			"type":"VEC3"
		},
		{
			"bufferView":71,
			"componentType":5126,
			"count":2,
			"type":"VEC3"
		},
		{
			"bufferView":72,
			"componentType":5126,
			"count":2,
			"type":"VEC4"
		},
		{
			"bufferView":73,
			"componentType":5126,
			"count":2,
			"type":"VEC3"
		},
		{
			"bufferView":74,
			"componentType":5126,
			"count":2,
			"type":"VEC3"
		},
		{
			"bufferView":75,
			"componentType":5126,
			"count":19,
			"max":[
				0.6
			],
			"min":[
				0
			],
			"type":"SCALAR"
		},
		{
			"bufferView":76,
			"componentType":5126,
			"count":19,
			"type":"VEC4"
		},
		{
			"bufferView":77,
			"componentType":5126,
			"count":2,
			"type":"VEC3"
		},
		{
			"bufferView":78,
			"componentType":5126,
			"count":2,
			"type":"VEC3"
		},
		{
			"bufferView":79,
			"componentType":5126,
			"count":2,
			"type":"VEC4"
		},
		{
			"bufferView":80,
			"componentType":5126,
			"count":2,
			"type":"VEC3"
		},
		{
			"bufferView":81,
			"componentType":5126,
			"count":2,
			"type":"VEC3"
		},
		{
			"bufferView":82,
			"componentType":5126,
			"count":2,
			"type":"VEC4"
		},
		{
			"bufferView":83,
			"componentType":5126,
			"count":2,
			"type":"VEC3"
		},
		{
			"bufferView":84,
			"componentType":5126,
			"count":2,
			"type":"VEC3"
		},
		{
			"bufferView":85,
			"componentType":5126,
			"count":19,
			"type":"VEC4"
		},
		{
			"bufferView":86,
			"componentType":5126,
			"count":2,
			"type":"VEC3"
		},
		{
			"bufferView":87,
			"componentType":5126,
			"count":2,
			"type":"VEC3"
		},
		{
			"bufferView":88,
			"componentType":5126,
			"count":19,
			"type":"VEC4"
		},
		{
			"bufferView":89,
			"componentType":5126,
			"count":2,
			"type":"VEC3"
		},
		{
			"bufferView":90,
			"componentType":5126,
			"count":2,
			"type":"VEC3"
		},
		{
			"bufferView":91,
			"componentType":5126,
			"count":2,
			"type":"VEC4"
		},
		{
			"bufferView":92,
			"componentType":5126,
			"count":2,
			"type":"VEC3"
		},
		{
			"bufferView":93,
			"componentType":5126,
			"count":2,
			"type":"VEC3"
		},
		{
			"bufferView":94,
			"componentType":5126,
			"count":19,
			"type":"VEC4"
		},
		{
			"bufferView":95,
			"componentType":5126,
			"count":2,
			"type":"VEC3"
		},
		{
			"bufferView":96,
			"componentType":5126,
			"count":2,
			"type":"VEC3"
		},
		{
			"bufferView":97,
			"componentType":5126,
			"count":2,
			"type":"VEC4"
		},
		{
			"bufferView":98,
			"componentType":5126,
			"count":2,
			"type":"VEC3"
		},
		{
			"bufferView":99,
			"componentType":5126,
			"count":2,
			"type":"VEC3"
		},
		{
			"bufferView":100,
			"componentType":5126,
			"count":2,
			"type":"VEC4"
		},
		{
			"bufferView":101,
			"componentType":5126,
			"count":2,
			"type":"VEC3"
		},
		{
			"bufferView":102,
			"componentType":5126,
			"count":2,
			"type":"VEC3"
		},
		{
			"bufferView":103,
			"componentType":5126,
			"count":19,
			"type":"VEC4"
		},
		{
			"bufferView":104,
			"componentType":5126,
			"count":2,
			"type":"VEC3"
		},
		{
			"bufferView":105,
			"componentType":5126,
			"count":2,
			"type":"VEC3"
		},
		{
			"bufferView":106,
			"componentType":5126,
			"count":2,
			"type":"VEC4"
		},
		{
			"bufferView":107,
			"componentType":5126,
			"count":2,
			"type":"VEC3"
		},
		{
			"bufferView":108,
			"componentType":5126,
			"count":2,
			"type":"VEC3"
		},
		{
			"bufferView":109,
			"componentType":5126,
			"count":2,
			"type":"VEC4"
		},
		{
			"bufferView":110,
			"componentType":5126,
			"count":2,
			"type":"VEC3"
		},
		{
			"bufferView":111,
			"componentType":5126,
			"count":2,
			"type":"VEC3"
		},
		{
			"bufferView":112,
			"componentType":5126,
			"count":19,
			"type":"VEC4"
		},
		{
			"bufferView":113,
			"componentType":5126,
			"count":2,
			"type":"VEC3"
		},
		{
			"bufferView":114,
			"componentType":5126,
			"count":2,
			"type":"VEC3"
		},
		{
			"bufferView":115,
			"componentType":5126,
			"count":2,
			"type":"VEC4"
		},
		{
			"bufferView":116,
			"componentType":5126,
			"count":2,
			"type":"VEC3"
		},
		{
			"bufferView":117,
			"componentType":5126,
			"count":2,
			"type":"VEC3"
		},
		{
			"bufferView":118,
			"componentType":5126,
			"count":2,
			"type":"VEC4"
		},
		{
			"bufferView":119,
			"componentType":5126,
			"count":2,
			"type":"VEC3"
		},
		{
			"bufferView":120,
			"componentType":5126,
			"count":61,
			"max":[
				2
			],
			"min":[
				0
			],
			"type":"SCALAR"
		},
		{
			"bufferView":121,
			"componentType":5126,
			"count":61,
			"type":"VEC3"
		},
		{
			"bufferView":122,
			"componentType":5126,
			"count":2,
			"max":[
				2
			],
			"min":[
				0
			],
			"type":"SCALAR"
		},
		{
			"bufferView":123,
			"componentType":5126,
			"count":2,
			"type":"VEC4"
		},
		{
			"bufferView":124,
			"componentType":5126,
			"count":2,
			"type":"VEC3"
		},
		{
			"bufferView":125,
			"componentType":5126,
			"count":2,
			"type":"VEC3"
		},
		{
			"bufferView":126,
			"componentType":5126,
			"count":2,
			"type":"VEC4"
		},
		{
			"bufferView":127,
			"componentType":5126,
			"count":2,
			"type":"VEC3"
		},
		{
			"bufferView":128,
			"componentType":5126,
			"count":2,
			"type":"VEC3"
		},
		{
			"bufferView":129,
			"componentType":5126,
			"count":61,
			"type":"VEC4"
		},
		{
			"bufferView":130,
			"componentType":5126,
			"count":2,
			"type":"VEC3"
		},
		{
			"bufferView":131,
			"componentType":5126,
			"count":2,
			"type":"VEC3"
		},
		{
			"bufferView":132,
			"componentType":5126,
			"count":2,
			"type":"VEC4"
		},
		{
			"bufferView":133,
			"componentType":5126,
			"count":2,
			"type":"VEC3"
		},
		{
			"bufferView":134,
			"componentType":5126,
			"count":2,
			"type":"VEC3"
		},
		{
			"bufferView":135,
			"componentType":5126,
			"count":61,
			"type":"VEC4"
		},
		{
			"bufferView":136,
			"componentType":5126,
			"count":2,
			"type":"VEC3"
		},
		{
			"bufferView":137,
			"componentType":5126,
			"count":2,
			"type":"VEC3"
		},
		{
			"bufferView":138,
			"componentType":5126,
			"count":61,
			"type":"VEC4"
		},
		{
			"bufferView":139,
			"componentType":5126,
			"count":2,
			"type":"VEC3"
		},
		{
			"bufferView":140,
			"componentType":5126,
			"count":2,
			"type":"VEC3"
		},
		{
			"bufferView":141,
			"componentType":5126,
			"count":2,
			"type":"VEC4"
		},
		{
			"bufferView":142,
			"componentType":5126,
			"count":2,
			"type":"VEC3"
		},
		{
			"bufferView":143,
			"componentType":5126,
			"count":2,
			"type":"VEC3"
		},
		{
			"bufferView":144,
			"componentType":5126,
			"count":2,
			"type":"VEC4"
		},
		{
			"bufferView":145,
			"componentType":5126,
			"count":2,
			"type":"VEC3"
		},
		{
			"bufferView":146,
			"componentType":5126,
			"count":2,
			"type":"VEC3"
		},
		{
			"bufferView":147,
			"componentType":5126,
			"count":61,
			"type":"VEC4"
		},
		{
			"bufferView":148,
			"componentType":5126,
			"count":2,
			"type":"VEC3"
		},
		{
			"bufferView":149,
			"componentType":5126,
			"count":2,
			"type":"VEC3"
		},
		{
			"bufferView":150,
			"componentType":5126,
			"count":2,
			"type":"VEC4"
		},
		{
			"bufferView":151,
			"componentType":5126,
			"count":2,
			"type":"VEC3"
		},
		{
			"bufferView":152,
			"componentType":5126,
			"count":2,
			"type":"VEC3"
		},
		{
			"bufferView":153,
			"componentType":5126,
			"count":2,
			"type":"VEC4"
		},
		{
			"bufferView":154,
			"componentType":5126,
			"count":2,
			"type":"VEC3"
		},
		{
			"bufferView":155,
			"componentType":5126,
			"count":2,
			"type":"VEC3"
		},
		{
			"bufferView":156,
			"componentType":5126,
			"count":2,
			"type":"VEC4"
		},
		{
			"bufferView":157,
			"componentType":5126,
			"count":2,
			"type":"VEC3"
		},
		{
			"bufferView":158,
			"componentType":5126,
			"count":2,
			"type":"VEC3"
		},
		{
			"bufferView":159,
			"componentType":5126,
			"count":2,
			"type":"VEC4"
		},
		{
			"bufferView":160,
			"componentType":5126,
			"count":2,
			"type":"VEC3"
		},
		{
			"bufferView":161,
			"componentType":5126,
			"count":2,
			"type":"VEC3"
		},
		{
			"bufferView":162,
			"componentType":5126,
			"count":2,
			"type":"VEC4"
		},
		{
			"bufferView":163,
			"componentType":5126,
			"count":2,
			"type":"VEC3"
		},
		{
			"bufferView":164,
			"componentType":5126,
			"count":2,
			"type":"VEC3"
		},
		{
			"bufferView":165,
			"componentType":5126,
			"count":2,
			"type":"VEC4"
		},
		{
			"bufferView":166,
			"componentType":5126,
			"count":2,
			"type":"VEC3"
		},
		{
			"bufferView":167,
			"componentType":5126,
			"count":2,
			"type":"VEC3"
		},
		{
			"bufferView":168,
			"componentType":5126,
			"count":2,
			"type":"VEC4"
		},
		{
			"bufferView":169,
			"componentType":5126,
			"count":2,
			"type":"VEC3"
		},
		{
			"bufferView":170,
			"componentType":5126,
			"count":2,
			"type":"VEC3"
		},
		{
			"bufferView":171,
			"componentType":5126,
			"count":2,
			"type":"VEC4"
		},
		{
			"bufferView":172,
			"componentType":5126,
			"count":2,
			"type":"VEC3"
		},
		{
			"bufferView":173,
			"componentType":5126,
			"count":31,
			"max":[
				1
			],
			"min":[
				0
			],
			"type":"SCALAR"
		},
		{
			"bufferView":174,
			"componentType":5126,
			"count":31,
			"type":"VEC3"
		},
		{
			"bufferView":175,
			"componentType":5126,
			"count":31,
			"type":"VEC4"
		},
		{
			"bufferView":176,
			"componentType":5126,
			"count":2,
			"max":[
				1
			],
			"min":[
				0
			],
			"type":"SCALAR"
		},
		{
			"bufferView":177,
			"componentType":5126,
			"count":2,
			"type":"VEC3"
		},
		{
			"bufferView":178,
			"componentType":5126,
			"count":2,
			"type":"VEC3"
		},
		{
			"bufferView":179,
			"componentType":5126,
			"count":2,
			"type":"VEC4"
		},
		{
			"bufferView":180,
			"componentType":5126,
			"count":2,
			"type":"VEC3"
		},
		{
			"bufferView":181,
			"componentType":5126,
			"count":2,
			"type":"VEC3"
		},
		{
			"bufferView":182,
			"componentType":5126,
			"count":31,
			"type":"VEC4"
		},
		{
			"bufferView":183,
			"componentType":5126,
			"count":2,
			"type":"VEC3"
		},
		{
			"bufferView":184,
			"componentType":5126,
			"count":2,
			"type":"VEC3"
		},
		{
			"bufferView":185,
			"componentType":5126,
			"count":2,
			"type":"VEC4"
		},
		{
			"bufferView":186,
			"componentType":5126,
			"count":2,
			"type":"VEC3"
		},
		{
			"bufferView":187,
			"componentType":5126,
			"count":2,
			"type":"VEC3"
		},
		{
			"bufferView":188,
			"componentType":5126,
			"count":2,
			"type":"VEC4"
		},
		{
			"bufferView":189,
			"componentType":5126,
			"count":2,
			"type":"VEC3"
		},
		{
			"bufferView":190,
			"componentType":5126,
			"count":2,
			"type":"VEC3"
		},
		{
			"bufferView":191,
			"componentType":5126,
			"count":31,
			"type":"VEC4"
		},
		{
			"bufferView":192,
			"componentType":5126,
			"count":2,
			"type":"VEC3"
		},
		{
			"bufferView":193,
			"componentType":5126,
			"count":2,
			"type":"VEC3"
		},
		{
			"bufferView":194,
			"componentType":5126,
			"count":2,
			"type":"VEC4"
		},
		{
			"bufferView":195,
			"componentType":5126,
			"count":2,
			"type":"VEC3"
		},
		{
			"bufferView":196,
			"componentType":5126,
			"count":2,
			"type":"VEC3"
		},
		{
			"bufferView":197,
			"componentType":5126,
			"count":2,
			"type":"VEC4"
		},
		{
			"bufferView":198,
			"componentType":5126,
			"count":2,
			"type":"VEC3"
		},
		{
			"bufferView":199,
			"componentType":5126,
			"count":2,
			"type":"VEC3"
		},
		{
			"bufferView":200,
			"componentType":5126,
			"count":31,
			"type":"VEC4"
		},
		{
			"bufferView":201,
			"componentType":5126,
			"count":2,
			"type":"VEC3"
		},
		{
			"bufferView":202,
			"componentType":5126,
			"count":2,
			"type":"VEC3"
		},
		{
			"bufferView":203,
			"componentType":5126,
			"count":2,
			"type":"VEC4"
		},
		{
			"bufferView":204,
			"componentType":5126,
			"count":2,
			"type":"VEC3"
		},
		{
			"bufferView":205,
			"componentType":5126,
			"count":2,
			"type":"VEC3"
		},
		{
			"bufferView":206,
			"componentType":5126,
			"count":2,
			"type":"VEC4"
		},
		{
			"bufferView":207,
			"componentType":5126,
			"count":2,
			"type":"VEC3"
		},
		{
			"bufferView":208,
			"componentType":5126,
			"count":2,
			"type":"VEC3"
		},
		{
			"bufferView":209,
			"componentType":5126,
			"count":31,
			"type":"VEC4"
		},
		{
			"bufferView":210,
			"componentType":5126,
			"count":2,
			"type":"VEC3"
		},
		{
			"bufferView":211,
			"componentType":5126,
			"count":2,
			"type":"VEC3"
		},
		{
			"bufferView":212,
			"componentType":5126,
			"count":31,
			"type":"VEC4"
		},
		{
			"bufferView":213,
			"componentType":5126,
			"count":2,
			"type":"VEC3"
		},
		{
			"bufferView":214,
			"componentType":5126,
			"count":2,
			"type":"VEC3"
		},
		{
			"bufferView":215,
			"componentType":5126,
			"count":31,
			"type":"VEC4"
		},
		{
			"bufferView":216,
			"componentType":5126,
			"count":2,
			"type":"VEC3"
		},
		{
			"bufferView":217,
			"componentType":5126,
			"count":2,
			"type":"VEC3"
		},
		{
			"bufferView":218,
			"componentType":5126,
			"count":31,
			"type":"VEC4"
		},
		{
			"bufferView":219,
			"componentType":5126,
			"count":2,
			"type":"VEC3"
		},
		{
			"bufferView":220,
			"componentType":5126,
			"count":2,
			"type":"VEC3"
		},
		{
			"bufferView":221,
			"componentType":5126,
			"count":31,
			"type":"VEC4"
		},
		{
			"bufferView":222,
			"componentType":5126,
			"count":2,
			"type":"VEC3"
		},
		{
			"bufferView":223,
			"componentType":5126,
			"count":2,
			"type":"VEC3"
		},
		{
			"bufferView":224,
			"componentType":5126,
			"count":31,
			"type":"VEC4"
		},
		{
			"bufferView":225,
			"componentType":5126,
			"count":2,
			"type":"VEC3"
		}
	],
	"bufferViews":[
		{
			"buffer":0,
			"byteLength":27048,
			"byteOffset":0,
			"target":34962
		},
		{
			"buffer":0,
			"byteLength":27048,
			"byteOffset":27048,
			"target":34962
		},
		{
			"buffer":0,
			"byteLength":18032,
			"byteOffset":54096,
			"target":34962
		},
		{
			"buffer":0,
			"byteLength":9016,
			"byteOffset":72128,
			"target":34962
		},
		{
			"buffer":0,
			"byteLength":36064,
			"byteOffset":81144,
			"target":34962
		},
		{
			"buffer":0,
			"byteLength":18744,
			"byteOffset":117208,
			"target":34963
		},
		{
			"buffer":0,
			"byteLength":38976,
			"byteOffset":135952,
			"target":34962
		},
		{
			"buffer":0,
			"byteLength":38976,
			"byteOffset":174928,
			"target":34962
		},
		{
			"buffer":0,
			"byteLength":25984,
			"byteOffset":213904,
			"target":34962
		},
		{
			"buffer":0,
			"byteLength":12992,
			"byteOffset":239888,
			"target":34962
		},
		{
			"buffer":0,
			"byteLength":51968,
			"byteOffset":252880,
			"target":34962
		},
		{
			"buffer":0,
			"byteLength":20880,
			"byteOffset":304848,
			"target":34963
		},
		{
			"buffer":0,
			"byteLength":4440,
			"byteOffset":325728,
			"target":34962
		},
		{
			"buffer":0,
			"byteLength":4440,
			"byteOffset":330168,
			"target":34962
		},
		{
			"buffer":0,
			"byteLength":2960,
			"byteOffset":334608,
			"target":34962
		},
		{
			"buffer":0,
			"byteLength":1480,
			"byteOffset":337568,
			"target":34962
		},
		{
			"buffer":0,
			"byteLength":5920,
			"byteOffset":339048,
			"target":34962
		},
		{
			"buffer":0,
			"byteLength":2760,
			"byteOffset":344968,
			"target":34963
		},
		{
			"buffer":0,
			"byteLength":720,
			"byteOffset":347728,
			"target":34962
		},
		{
			"buffer":0,
			"byteLength":720,
			"byteOffset":348448,
			"target":34962
		},
		{
			"buffer":0,
			"byteLength":480,
			"byteOffset":349168,
			"target":34962
		},
		{
			"buffer":0,
			"byteLength":240,
			"byteOffset":349648,
			"target":34962
		},
		{
			"buffer":0,
			"byteLength":960,
			"byteOffset":349888,
			"target":34962
		},
		{
			"buffer":0,
			"byteLength":336,
			"byteOffset":350848,
			"target":34963
		},
		{
			"buffer":0,
			"byteLength":8100,
			"byteOffset":351184,
			"target":34962
		},
		{
			"buffer":0,
			"byteLength":8100,
			"byteOffset":359284,
			"target":34962
		},
		{
			"buffer":0,
			"byteLength":5400,
			"byteOffset":367384,
			"target":34962
		},
		{
			"buffer":0,
			"byteLength":2700,
			"byteOffset":372784,
			"target":34962
		},
		{
			"buffer":0,
			"byteLength":10800,
			"byteOffset":375484,
			"target":34962
		},
		{
			"buffer":0,
			"byteLength":5616,
			"byteOffset":386284,
			"target":34963
		},
		{
			"buffer":0,
			"byteLength":10488,
			"byteOffset":391900,
			"target":34962
		},
		{
			"buffer":0,
			"byteLength":10488,
			"byteOffset":402388,
			"target":34962
		},
		{
			"buffer":0,
			"byteLength":6992,
			"byteOffset":412876,
			"target":34962
		},
		{
			"buffer":0,
			"byteLength":3496,
			"byteOffset":419868,
			"target":34962
		},
		{
			"buffer":0,
			"byteLength":13984,
			"byteOffset":423364,
			"target":34962
		},
		{
			"buffer":0,
			"byteLength":7680,
			"byteOffset":437348,
			"target":34963
		},
		{
			"buffer":0,
			"byteLength":3648,
			"byteOffset":445028,
			"target":34962
		},
		{
			"buffer":0,
			"byteLength":3648,
			"byteOffset":448676,
			"target":34962
		},
		{
			"buffer":0,
			"byteLength":2432,
			"byteOffset":452324,
			"target":34962
		},
		{
			"buffer":0,
			"byteLength":1216,
			"byteOffset":454756,
			"target":34962
		},
		{
			"buffer":0,
			"byteLength":4864,
			"byteOffset":455972,
			"target":34962
		},
		{
			"buffer":0,
			"byteLength":2304,
			"byteOffset":460836,
			"target":34963
		},
		{
			"buffer":0,
			"byteLength":2640,
			"byteOffset":463140,
			"target":34962
		},
		{
			"buffer":0,
			"byteLength":2640,
			"byteOffset":465780,
			"target":34962
		},
		{
			"buffer":0,
			"byteLength":1760,
			"byteOffset":468420,
			"target":34962
		},
		{
			"buffer":0,
			"byteLength":880,
			"byteOffset":470180,
			"target":34962
		},
		{
			"buffer":0,
			"byteLength":3520,
			"byteOffset":471060,
			"target":34962
		},
		{
			"buffer":0,
			"byteLength":1440,
			"byteOffset":474580,
			"target":34963
		},
		{
			"buffer":0,
			"byteLength":1920,
			"byteOffset":476020,
			"target":34962
		},
		{
			"buffer":0,
			"byteLength":1920,
			"byteOffset":477940,
			"target":34962
		},
		{
			"buffer":0,
			"byteLength":1280,
			"byteOffset":479860,
			"target":34962
		},
		{
			"buffer":0,
			"byteLength":640,
			"byteOffset":481140,
			"target":34962
		},
		{
			"buffer":0,
			"byteLength":2560,
			"byteOffset":481780,
			"target":34962
		},
		{
			"buffer":0,
			"byteLength":960,
			"byteOffset":484340,
			"target":34963
		},
		{
			"buffer":0,
			"byteLength":1176,
			"byteOffset":485300,
			"target":34962
		},
		{
			"buffer":0,
			"byteLength":1176,
			"byteOffset":486476,
			"target":34962
		},
		{
			"buffer":0,
			"byteLength":784,
			"byteOffset":487652,
			"target":34962
		},
		{
			"buffer":0,
			"byteLength":392,
			"byteOffset":488436,
			"target":34962
		},
		{
			"buffer":0,
			"byteLength":1568,
			"byteOffset":488828,
			"target":34962
		},
		{
			"buffer":0,
			"byteLength":720,
			"byteOffset":490396,
			"target":34963
		},
		{
			"buffer":0,
			"byteLength":288,
			"byteOffset":491116,
			"target":34962
		},
		{
			"buffer":0,
			"byteLength":288,
			"byteOffset":491404,
			"target":34962
		},
		{
			"buffer":0,
			"byteLength":192,
			"byteOffset":491692,
			"target":34962
		},
		{
			"buffer":0,
			"byteLength":96,
			"byteOffset":491884,
			"target":34962
		},
		{
			"buffer":0,
			"byteLength":384,
			"byteOffset":491980,
			"target":34962
		},
		{
			"buffer":0,
			"byteLength":72,
			"byteOffset":492364,
			"target":34963
		},
		{
			"buffer":0,
			"byteLength":1088,
			"byteOffset":492436
		},
		{
			"buffer":0,
			"byteLength":8,
			"byteOffset":493524
		},
		{
			"buffer":0,
			"byteLength":24,
			"byteOffset":493532
		},
		{
			"buffer":0,
			"byteLength":32,
			"byteOffset":493556
		},
		{
			"buffer":0,
			"byteLength":24,
			"byteOffset":493588
		},
		{
			"buffer":0,
			"byteLength":24,
			"byteOffset":493612
		},
		{
			"buffer":0,
			"byteLength":32,
			"byteOffset":493636
		},
		{
			"buffer":0,
			"byteLength":24,
			"byteOffset":493668
		},
		{
			"buffer":0,
			"byteLength":24,
			"byteOffset":493692
		},
		{
			"buffer":0,
			"byteLength":76,
			"byteOffset":493716
		},
		{
			"buffer":0,
			"byteLength":304,
			"byteOffset":493792
		},
		{
			"buffer":0,
			"byteLength":24,
			"byteOffset":494096
		},
		{
			"buffer":0,
			"byteLength":24,
			"byteOffset":494120
		},
		{
			"buffer":0,
			"byteLength":32,
			"byteOffset":494144
		},
		{
			"buffer":0,
			"byteLength":24,
			"byteOffset":494176
		},
		{
			"buffer":0,
			"byteLength":24,
			"byteOffset":494200
		},
		{
			"buffer":0,
			"byteLength":32,
			"byteOffset":494224
		},
		{
			"buffer":0,
			"byteLength":24,
			"byteOffset":494256
		},
		{
			"buffer":0,
			"byteLength":24,
			"byteOffset":494280
		},
		{
			"buffer":0,
			"byteLength":304,
			"byteOffset":494304
		},
		{
			"buffer":0,
			"byteLength":24,
			"byteOffset":494608
		},
		{
			"buffer":0,
			"byteLength":24,
			"byteOffset":494632
		},
		{
			"buffer":0,
			"byteLength":304,
			"byteOffset":494656
		},
		{
			"buffer":0,
			"byteLength":24,
			"byteOffset":494960
		},
		{
			"buffer":0,
			"byteLength":24,
			"byteOffset":494984
		},
		{
			"buffer":0,
			"byteLength":32,
			"byteOffset":495008
		},
		{
			"buffer":0,
			"byteLength":24,
			"byteOffset":495040
		},
		{
			"buffer":0,
			"byteLength":24,
			"byteOffset":495064
		},
		{
			"buffer":0,
			"byteLength":304,
			"byteOffset":495088
		},
		{
			"buffer":0,
			"byteLength":24,
			"byteOffset":495392
		},
		{
			"buffer":0,
			"byteLength":24,
			"byteOffset":495416
		},
		{
			"buffer":0,
			"byteLength":32,
			"byteOffset":495440
		},
		{
			"buffer":0,
			"byteLength":24,
			"byteOffset":495472
		},
		{
			"buffer":0,
			"byteLength":24,
			"byteOffset":495496
		},
		{
			"buffer":0,
			"byteLength":32,
			"byteOffset":495520
		},
		{
			"buffer":0,
			"byteLength":24,
			"byteOffset":495552
		},
		{
			"buffer":0,
			"byteLength":24,
			"byteOffset":495576
		},
		{
			"buffer":0,
			"byteLength":304,
			"byteOffset":495600
		},
		{
			"buffer":0,
			"byteLength":24,
			"byteOffset":495904
		},
		{
			"buffer":0,
			"byteLength":24,
			"byteOffset":495928
		},
		{
			"buffer":0,
			"byteLength":32,
			"byteOffset":495952
		},
		{
			"buffer":0,
			"byteLength":24,
			"byteOffset":495984
		},
		{
			"buffer":0,
			"byteLength":24,
			"byteOffset":496008
		},
		{
			"buffer":0,
			"byteLength":32,
			"byteOffset":496032
		},
		{
			"buffer":0,
			"byteLength":24,
			"byteOffset":496064
		},
		{
			"buffer":0,
			"byteLength":24,
			"byteOffset":496088
		},
		{
			"buffer":0,
			"byteLength":304,
			"byteOffset":496112
		},
		{
			"buffer":0,
			"byteLength":24,
			"byteOffset":496416
		},
		{
			"buffer":0,
			"byteLength":24,
			"byteOffset":496440
		},
		{
			"buffer":0,
			"byteLength":32,
			"byteOffset":496464
		},
		{
			"buffer":0,
			"byteLength":24,
			"byteOffset":496496
		},
		{
			"buffer":0,
			"byteLength":24,
			"byteOffset":496520
		},
		{
			"buffer":0,
			"byteLength":32,
			"byteOffset":496544
		},
		{
			"buffer":0,
			"byteLength":24,
			"byteOffset":496576
		},
		{
			"buffer":0,
			"byteLength":244,
			"byteOffset":496600
		},
		{
			"buffer":0,
			"byteLength":732,
			"byteOffset":496844
		},
		{
			"buffer":0,
			"byteLength":8,
			"byteOffset":497576
		},
		{
			"buffer":0,
			"byteLength":32,
			"byteOffset":497584
		},
		{
			"buffer":0,
			"byteLength":24,
			"byteOffset":497616
		},
		{
			"buffer":0,
			"byteLength":24,
			"byteOffset":497640
		},
		{
			"buffer":0,
			"byteLength":32,
			"byteOffset":497664
		},
		{
			"buffer":0,
			"byteLength":24,
			"byteOffset":497696
		},
		{
			"buffer":0,
			"byteLength":24,
			"byteOffset":497720
		},
		{
			"buffer":0,
			"byteLength":976,
			"byteOffset":497744
		},
		{
			"buffer":0,
			"byteLength":24,
			"byteOffset":498720
		},
		{
			"buffer":0,
			"byteLength":24,
			"byteOffset":498744
		},
		{
			"buffer":0,
			"byteLength":32,
			"byteOffset":498768
		},
		{
			"buffer":0,
			"byteLength":24,
			"byteOffset":498800
		},
		{
			"buffer":0,
			"byteLength":24,
			"byteOffset":498824
		},
		{
			"buffer":0,
			"byteLength":976,
			"byteOffset":498848
		},
		{
			"buffer":0,
			"byteLength":24,
			"byteOffset":499824
		},
		{
			"buffer":0,
			"byteLength":24,
			"byteOffset":499848
		},
		{
			"buffer":0,
			"byteLength":976,
			"byteOffset":499872
		},
		{
			"buffer":0,
			"byteLength":24,
			"byteOffset":500848
		},
		{
			"buffer":0,
			"byteLength":24,
			"byteOffset":500872
		},
		{
			"buffer":0,
			"byteLength":32,
			"byteOffset":500896
		},
		{
			"buffer":0,
			"byteLength":24,
			"byteOffset":500928
		},
		{
			"buffer":0,
			"byteLength":24,
			"byteOffset":500952
		},
		{
			"buffer":0,
			"byteLength":32,
			"byteOffset":500976
		},
		{
			"buffer":0,
			"byteLength":24,
			"byteOffset":501008
		},
		{
			"buffer":0,
			"byteLength":24,
			"byteOffset":501032
		},
		{
			"buffer":0,
			"byteLength":976,
			"byteOffset":501056
		},
		{
			"buffer":0,
			"byteLength":24,
			"byteOffset":502032
		},
		{
			"buffer":0,
			"byteLength":24,
			"byteOffset":502056
		},
		{
			"buffer":0,
			"byteLength":32,
			"byteOffset":502080
		},
		{
			"buffer":0,
			"byteLength":24,
			"byteOffset":502112
		},
		{
			"buffer":0,
			"byteLength":24,
			"byteOffset":502136
		},
		{
			"buffer":0,
			"byteLength":32,
			"byteOffset":502160
		},
		{
			"buffer":0,
			"byteLength":24,
			"byteOffset":502192
		},
		{
			"buffer":0,
			"byteLength":24,
			"byteOffset":502216
		},
		{
			"buffer":0,
			"byteLength":32,
			"byteOffset":502240
		},
		{
			"buffer":0,
			"byteLength":24,
			"byteOffset":502272
		},
		{
			"buffer":0,
			"byteLength":24,
			"byteOffset":502296
		},
		{
			"buffer":0,
			"byteLength":32,
			"byteOffset":502320
		},
		{
			"buffer":0,
			"byteLength":24,
			"byteOffset":502352
		},
		{
			"buffer":0,
			"byteLength":24,
			"byteOffset":502376
		},
		{
			"buffer":0,
			"byteLength":32,
			"byteOffset":502400
		},
		{
			"buffer":0,
			"byteLength":24,
			"byteOffset":502432
		},
		{
			"buffer":0,
			"byteLength":24,
			"byteOffset":502456
		},
		{
			"buffer":0,
			"byteLength":32,
			"byteOffset":502480
		},
		{
			"buffer":0,
			"byteLength":24,
			"byteOffset":502512
		},
		{
			"buffer":0,
			"byteLength":24,
			"byteOffset":502536
		},
		{
			"buffer":0,
			"byteLength":32,
			"byteOffset":502560
		},
		{
			"buffer":0,
			"byteLength":24,
			"byteOffset":502592
		},
		{
			"buffer":0,
			"byteLength":24,
			"byteOffset":502616
		},
		{
			"buffer":0,
			"byteLength":32,
			"byteOffset":502640
		},
		{
			"buffer":0,
			"byteLength":24,
			"byteOffset":502672
		},
		{
			"buffer":0,
			"byteLength":124,
			"byteOffset":502696
		},
		{
			"buffer":0,
			"byteLength":372,
			"byteOffset":502820
		},
		{
			"buffer":0,
			"byteLength":496,
			"byteOffset":503192
		},
		{
			"buffer":0,
			"byteLength":8,
			"byteOffset":503688
		},
		{
			"buffer":0,
			"byteLength":24,
			"byteOffset":503696
		},
		{
			"buffer":0,
			"byteLength":24,
			"byteOffset":503720
		},
		{
			"buffer":0,
			"byteLength":32,
			"byteOffset":503744
		},
		{
			"buffer":0,
			"byteLength":24,
			"byteOffset":503776
		},
		{
			"buffer":0,
			"byteLength":24,
			"byteOffset":503800
		},
		{
			"buffer":0,
			"byteLength":496,
			"byteOffset":503824
		},
		{
			"buffer":0,
			"byteLength":24,
			"byteOffset":504320
		},
		{
			"buffer":0,
			"byteLength":24,
			"byteOffset":504344
		},
		{
			"buffer":0,
			"byteLength":32,
			"byteOffset":504368
		},
		{
			"buffer":0,
			"byteLength":24,
			"byteOffset":504400
		},
		{
			"buffer":0,
			"byteLength":24,
			"byteOffset":504424
		},
		{
			"buffer":0,
			"byteLength":32,
			"byteOffset":504448
		},
		{
			"buffer":0,
			"byteLength":24,
			"byteOffset":504480
		},
		{
			"buffer":0,
			"byteLength":24,
			"byteOffset":504504
		},
		{
			"buffer":0,
			"byteLength":496,
			"byteOffset":504528
		},
		{
			"buffer":0,
			"byteLength":24,
			"byteOffset":505024
		},
		{
			"buffer":0,
			"byteLength":24,
			"byteOffset":505048
		},
		{
			"buffer":0,
			"byteLength":32,
			"byteOffset":505072
		},
		{
			"buffer":0,
			"byteLength":24,
			"byteOffset":505104
		},
		{
			"buffer":0,
			"byteLength":24,
			"byteOffset":505128
		},
		{
			"buffer":0,
			"byteLength":32,
			"byteOffset":505152
		},
		{
			"buffer":0,
			"byteLength":24,
			"byteOffset":505184
		},
		{
			"buffer":0,
			"byteLength":24,
			"byteOffset":505208
		},
		{
			"buffer":0,
			"byteLength":496,
			"byteOffset":505232
		},
		{
			"buffer":0,
			"byteLength":24,
			"byteOffset":505728
		},
		{
			"buffer":0,
			"byteLength":24,
			"byteOffset":505752
		},
		{
			"buffer":0,
			"byteLength":32,
			"byteOffset":505776
		},
		{
			"buffer":0,
			"byteLength":24,
			"byteOffset":505808
		},
		{
			"buffer":0,
			"byteLength":24,
			"byteOffset":505832
		},
		{
			"buffer":0,
			"byteLength":32,
			"byteOffset":505856
		},
		{
			"buffer":0,
			"byteLength":24,
			"byteOffset":505888
		},
		{
			"buffer":0,
			"byteLength":24,
			"byteOffset":505912
		},
		{
			"buffer":0,
			"byteLength":496,
			"byteOffset":505936
		},
		{
			"buffer":0,
			"byteLength":24,
			"byteOffset":506432
		},
		{
			"buffer":0,
			"byteLength":24,
			"byteOffset":506456
		},
		{
			"buffer":0,
			"byteLength":496,
			"byteOffset":506480
		},
		{
			"buffer":0,
			"byteLength":24,
			"byteOffset":506976
		},
		{
			"buffer":0,
			"byteLength":24,
			"byteOffset":507000
		},
		{
			"buffer":0,
			"byteLength":496,
			"byteOffset":507024
		},
		{
			"buffer":0,
			"byteLength":24,
			"byteOffset":507520
		},
		{
			"buffer":0,
			"byteLength":24,
			"byteOffset":507544
		},
		{
			"buffer":0,
			"byteLength":496,
			"byteOffset":507568
		},
		{
			"buffer":0,
			"byteLength":24,
			"byteOffset":508064
		},
		{
			"buffer":0,
			"byteLength":24,
			"byteOffset":508088
		},
		{
			"buffer":0,
			"byteLength":496,
			"byteOffset":508112
		},
		{
			"buffer":0,
			"byteLength":24,
			"byteOffset":508608
		},
		{
			"buffer":0,
			"byteLength":24,
			"byteOffset":508632
		},
		{
			"buffer":0,
			"byteLength":496,
			"byteOffset":508656
		},
		{
			"buffer":0,
			"byteLength":24,
			"byteOffset":509152
		}
	],
	"samplers":[
		{
			"magFilter":9729,
			"minFilter":9987
		}
	],
	"buffers":[
		{
			"byteLength":509176,
			"uri":"dagruel.bin"
		}
	]
}
