{
	"asset":{
		"generator":"Khronos glTF Blender I/O v4.2.57",
		"version":"2.0"
	},
	"extensionsUsed":[
		"KHR_materials_clearcoat",
		"KHR_materials_sheen"
	],
	"scene":0,
	"scenes":[
		{
			"name":"Scene",
			"nodes":[
				22
			]
		}
	],
	"nodes":[
		{
			"name":"wing_tip.R",
			"rotation":[
				-0.5077806711196899,
				-0.5573583245277405,
				-0.04700807109475136,
				0.6552104353904724
			],
			"scale":[
				1,
				1,
				1.0000001192092896
			],
			"translation":[
				-2.2351741790771484e-08,
				0.4715930223464966,
				-8.940696716308594e-08
			]
		},
		{
			"children":[
				0
			],
			"name":"wing.R",
			"rotation":[
				-0.0879097431898117,
				-0.4420471787452698,
				-0.4420471787452698,
				0.7755388021469116
			],
			"translation":[
				0.05999999865889549,
				0.11000001430511475,
				0.11999999731779099
			]
		},
		{
			"name":"wing_tip.L",
			"rotation":[
				-0.5077806711196899,
				0.5573583245277405,
				0.04700807109475136,
				0.6552104353904724
			],
			"scale":[
				1,
				1,
				1.0000001192092896
			],
			"translation":[
				2.2351741790771484e-08,
				0.4715930223464966,
				-8.940696716308594e-08
			]
		},
		{
			"children":[
				2
			],
			"name":"wing.L",
			"rotation":[
				-0.0879097431898117,
				0.4420471787452698,
				0.4420471787452698,
				0.7755388021469116
			],
			"translation":[
				-0.05999999865889549,
				0.11000001430511475,
				0.11999999731779099
			]
		},
		{
			"name":"head",
			"translation":[
				0,
				0.09999990463256836,
				0
			]
		},
		{
			"children":[
				4
			],
			"name":"neck",
			"translation":[
				0,
				0.21000003814697266,
				0
			]
		},
		{
			"name":"hand.R",
			"rotation":[
				-0.002831934718415141,
				-0.02058575302362442,
				0.02213011309504509,
				0.9995391368865967
			],
			"scale":[
				0.9999998807907104,
				0.9999999403953552,
				0.9999998807907104
			],
			"translation":[
				-4.773028194904327e-09,
				0.2517271339893341,
				-1.862645149230957e-09
			]
		},
		{
			"children":[
				6
			],
			"name":"forearm.R",
			"rotation":[
				0.04786790907382965,
				-0.06073953956365585,
				0.0701540857553482,
				0.9945339560508728
			],
			"translation":[
				-3.189779818058014e-08,
				0.2762984037399292,
				-6.51925802230835e-09
			]
		},
		{
			"children":[
				7
			],
			"name":"upper_arm.R",
			"rotation":[
				0.9885599613189697,
				0.10654280334711075,
				0.1065429225564003,
				0.006823054980486631
			],
			"scale":[
				0.9999995827674866,
				0.9999998807907104,
				0.9999999403953552
			],
			"translation":[
				0.2160000056028366,
				0.15999996662139893,
				0
			]
		},
		{
			"name":"hand.L",
			"rotation":[
				-0.002831934718415141,
				0.02058575302362442,
				-0.02213011309504509,
				0.9995391368865967
			],
			"scale":[
				0.9999998807907104,
				0.9999999403953552,
				0.9999998807907104
			],
			"translation":[
				4.773028194904327e-09,
				0.2517271339893341,
				-1.862645149230957e-09
			]
		},
		{
			"children":[
				9
			],
			"name":"forearm.L",
			"rotation":[
				0.04786790907382965,
				0.06073953956365585,
				-0.0701540857553482,
				0.9945339560508728
			],
			"translation":[
				3.189779818058014e-08,
				0.2762984037399292,
				-6.51925802230835e-09
			]
		},
		{
			"children":[
				10
			],
			"name":"upper_arm.L",
			"rotation":[
				0.9885599613189697,
				-0.10654280334711075,
				-0.1065429225564003,
				0.006823054980486631
			],
			"scale":[
				0.9999995827674866,
				0.9999998807907104,
				0.9999999403953552
			],
			"translation":[
				-0.2160000056028366,
				0.15999996662139893,
				0
			]
		},
		{
			"children":[
				1,
				3,
				5,
				8,
				11
			],
			"name":"chest",
			"translation":[
				0,
				0.16999995708465576,
				0
			]
		},
		{
			"children":[
				12
			],
			"name":"spine",
			"translation":[
				0,
				0.15000003576278687,
				0
			]
		},
		{
			"name":"foot.R",
			"rotation":[
				0.5914180874824524,
				-2.9070412743692486e-09,
				7.606066887433371e-10,
				0.8063651323318481
			],
			"translation":[
				-7.56543361291051e-09,
				0.41058987379074097,
				4.581082180266094e-10
			]
		},
		{
			"children":[
				14
			],
			"name":"shin.R",
			"rotation":[
				-0.041510097682476044,
				-0.00986466370522976,
				0.009349504485726357,
				0.9990456700325012
			],
			"scale":[
				0.9999999403953552,
				1,
				1
			],
			"translation":[
				-1.1161318980157375e-08,
				0.410253643989563,
				8.149072527885437e-10
			]
		},
		{
			"children":[
				15
			],
			"name":"thigh.R",
			"rotation":[
				-0.9997993111610413,
				-0.009610525332391262,
				-0.00961065012961626,
				0.014720412902534008
			],
			"scale":[
				1.0000001192092896,
				1,
				1.0000003576278687
			],
			"translation":[
				0.09200000017881393,
				-0.019999980926513672,
				0
			]
		},
		{
			"name":"foot.L",
			"rotation":[
				0.5914180874824524,
				2.9070412743692486e-09,
				-7.606066887433371e-10,
				0.8063651323318481
			],
			"translation":[
				7.56543361291051e-09,
				0.41058987379074097,
				4.581082180266094e-10
			]
		},
		{
			"children":[
				17
			],
			"name":"shin.L",
			"rotation":[
				-0.041510097682476044,
				0.00986466370522976,
				-0.009349504485726357,
				0.9990456700325012
			],
			"scale":[
				0.9999999403953552,
				1,
				1
			],
			"translation":[
				1.1161318980157375e-08,
				0.410253643989563,
				8.149072527885437e-10
			]
		},
		{
			"children":[
				18
			],
			"name":"thigh.L",
			"rotation":[
				-0.9997993111610413,
				0.009610525332391262,
				0.00961065012961626,
				0.014720412902534008
			],
			"scale":[
				1.0000001192092896,
				1,
				1.0000003576278687
			],
			"translation":[
				-0.09200000017881393,
				-0.019999980926513672,
				0
			]
		},
		{
			"children":[
				13,
				16,
				19
			],
			"name":"hips",
			"translation":[
				0,
				0.9300000071525574,
				0
			]
		},
		{
			"mesh":0,
			"name":"deeno",
			"skin":0
		},
		{
			"children":[
				21,
				20
			],
			"name":"deeno_rig"
		}
	],
	"animations":[
		{
			"channels":[
				{
					"sampler":0,
					"target":{
						"node":20,
						"path":"translation"
					}
				},
				{
					"sampler":1,
					"target":{
						"node":20,
						"path":"rotation"
					}
				},
				{
					"sampler":2,
					"target":{
						"node":20,
						"path":"scale"
					}
				},
				{
					"sampler":3,
					"target":{
						"node":13,
						"path":"translation"
					}
				},
				{
					"sampler":4,
					"target":{
						"node":13,
						"path":"rotation"
					}
				},
				{
					"sampler":5,
					"target":{
						"node":13,
						"path":"scale"
					}
				},
				{
					"sampler":6,
					"target":{
						"node":12,
						"path":"translation"
					}
				},
				{
					"sampler":7,
					"target":{
						"node":12,
						"path":"rotation"
					}
				},
				{
					"sampler":8,
					"target":{
						"node":12,
						"path":"scale"
					}
				},
				{
					"sampler":9,
					"target":{
						"node":1,
						"path":"translation"
					}
				},
				{
					"sampler":10,
					"target":{
						"node":1,
						"path":"rotation"
					}
				},
				{
					"sampler":11,
					"target":{
						"node":1,
						"path":"scale"
					}
				},
				{
					"sampler":12,
					"target":{
						"node":0,
						"path":"translation"
					}
				},
				{
					"sampler":13,
					"target":{
						"node":0,
						"path":"rotation"
					}
				},
				{
					"sampler":14,
					"target":{
						"node":0,
						"path":"scale"
					}
				},
				{
					"sampler":15,
					"target":{
						"node":3,
						"path":"translation"
					}
				},
				{
					"sampler":16,
					"target":{
						"node":3,
						"path":"rotation"
					}
				},
				{
					"sampler":17,
					"target":{
						"node":3,
						"path":"scale"
					}
				},
				{
					"sampler":18,
					"target":{
						"node":2,
						"path":"translation"
					}
				},
				{
					"sampler":19,
					"target":{
						"node":2,
						"path":"rotation"
					}
				},
				{
					"sampler":20,
					"target":{
						"node":2,
						"path":"scale"
					}
				},
				{
					"sampler":21,
					"target":{
						"node":5,
						"path":"translation"
					}
				},
				{
					"sampler":22,
					"target":{
						"node":5,
						"path":"rotation"
					}
				},
				{
					"sampler":23,
					"target":{
						"node":5,
						"path":"scale"
					}
				},
				{
					"sampler":24,
					"target":{
						"node":4,
						"path":"translation"
					}
				},
				{
					"sampler":25,
					"target":{
						"node":4,
						"path":"rotation"
					}
				},
				{
					"sampler":26,
					"target":{
						"node":4,
						"path":"scale"
					}
				},
				{
					"sampler":27,
					"target":{
						"node":8,
						"path":"translation"
					}
				},
				{
					"sampler":28,
					"target":{
						"node":8,
						"path":"rotation"
					}
				},
				{
					"sampler":29,
					"target":{
						"node":8,
						"path":"scale"
					}
				},
				{
					"sampler":30,
					"target":{
						"node":7,
						"path":"translation"
					}
				},
				{
					"sampler":31,
					"target":{
						"node":7,
						"path":"rotation"
					}
				},
				{
					"sampler":32,
					"target":{
						"node":7,
						"path":"scale"
					}
				},
				{
					"sampler":33,
					"target":{
						"node":6,
						"path":"translation"
					}
				},
				{
					"sampler":34,
					"target":{
						"node":6,
						"path":"rotation"
					}
				},
				{
					"sampler":35,
					"target":{
						"node":6,
						"path":"scale"
					}
				},
				{
					"sampler":36,
					"target":{
						"node":11,
						"path":"translation"
					}
				},
				{
					"sampler":37,
					"target":{
						"node":11,
						"path":"rotation"
					}
				},
				{
					"sampler":38,
					"target":{
						"node":11,
						"path":"scale"
					}
				},
				{
					"sampler":39,
					"target":{
						"node":10,
						"path":"translation"
					}
				},
				{
					"sampler":40,
					"target":{
						"node":10,
						"path":"rotation"
					}
				},
				{
					"sampler":41,
					"target":{
						"node":10,
						"path":"scale"
					}
				},
				{
					"sampler":42,
					"target":{
						"node":9,
						"path":"translation"
					}
				},
				{
					"sampler":43,
					"target":{
						"node":9,
						"path":"rotation"
					}
				},
				{
					"sampler":44,
					"target":{
						"node":9,
						"path":"scale"
					}
				},
				{
					"sampler":45,
					"target":{
						"node":16,
						"path":"translation"
					}
				},
				{
					"sampler":46,
					"target":{
						"node":16,
						"path":"rotation"
					}
				},
				{
					"sampler":47,
					"target":{
						"node":16,
						"path":"scale"
					}
				},
				{
					"sampler":48,
					"target":{
						"node":15,
						"path":"translation"
					}
				},
				{
					"sampler":49,
					"target":{
						"node":15,
						"path":"rotation"
					}
				},
				{
					"sampler":50,
					"target":{
						"node":15,
						"path":"scale"
					}
				},
				{
					"sampler":51,
					"target":{
						"node":14,
						"path":"translation"
					}
				},
				{
					"sampler":52,
					"target":{
						"node":14,
						"path":"rotation"
					}
				},
				{
					"sampler":53,
					"target":{
						"node":14,
						"path":"scale"
					}
				},
				{
					"sampler":54,
					"target":{
						"node":19,
						"path":"translation"
					}
				},
				{
					"sampler":55,
					"target":{
						"node":19,
						"path":"rotation"
					}
				},
				{
					"sampler":56,
					"target":{
						"node":19,
						"path":"scale"
					}
				},
				{
					"sampler":57,
					"target":{
						"node":18,
						"path":"translation"
					}
				},
				{
					"sampler":58,
					"target":{
						"node":18,
						"path":"rotation"
					}
				},
				{
					"sampler":59,
					"target":{
						"node":18,
						"path":"scale"
					}
				},
				{
					"sampler":60,
					"target":{
						"node":17,
						"path":"translation"
					}
				},
				{
					"sampler":61,
					"target":{
						"node":17,
						"path":"rotation"
					}
				},
				{
					"sampler":62,
					"target":{
						"node":17,
						"path":"scale"
					}
				}
			],
			"name":"attack",
			"samplers":[
				{
					"input":73,
					"interpolation":"STEP",
					"output":74
				},
				{
					"input":73,
					"interpolation":"STEP",
					"output":75
				},
				{
					"input":73,
					"interpolation":"STEP",
					"output":76
				},
				{
					"input":73,
					"interpolation":"STEP",
					"output":77
				},
				{
					"input":73,
					"interpolation":"STEP",
					"output":78
				},
				{
					"input":73,
					"interpolation":"STEP",
					"output":79
				},
				{
					"input":73,
					"interpolation":"STEP",
					"output":80
				},
				{
					"input":81,
					"interpolation":"LINEAR",
					"output":82
				},
				{
					"input":73,
					"interpolation":"STEP",
					"output":83
				},
				{
					"input":73,
					"interpolation":"STEP",
					"output":84
				},
				{
					"input":73,
					"interpolation":"STEP",
					"output":85
				},
				{
					"input":73,
					"interpolation":"STEP",
					"output":86
				},
				{
					"input":73,
					"interpolation":"STEP",
					"output":87
				},
				{
					"input":73,
					"interpolation":"STEP",
					"output":88
				},
				{
					"input":73,
					"interpolation":"STEP",
					"output":89
				},
				{
					"input":73,
					"interpolation":"STEP",
					"output":90
				},
				{
					"input":73,
					"interpolation":"STEP",
					"output":91
				},
				{
					"input":73,
					"interpolation":"STEP",
					"output":92
				},
				{
					"input":73,
					"interpolation":"STEP",
					"output":93
				},
				{
					"input":73,
					"interpolation":"STEP",
					"output":94
				},
				{
					"input":73,
					"interpolation":"STEP",
					"output":95
				},
				{
					"input":73,
					"interpolation":"STEP",
					"output":96
				},
				{
					"input":73,
					"interpolation":"STEP",
					"output":97
				},
				{
					"input":73,
					"interpolation":"STEP",
					"output":98
				},
				{
					"input":73,
					"interpolation":"STEP",
					"output":99
				},
				{
					"input":73,
					"interpolation":"STEP",
					"output":100
				},
				{
					"input":73,
					"interpolation":"STEP",
					"output":101
				},
				{
					"input":73,
					"interpolation":"STEP",
					"output":102
				},
				{
					"input":81,
					"interpolation":"LINEAR",
					"output":103
				},
				{
					"input":73,
					"interpolation":"STEP",
					"output":104
				},
				{
					"input":73,
					"interpolation":"STEP",
					"output":105
				},
				{
					"input":81,
					"interpolation":"LINEAR",
					"output":106
				},
				{
					"input":73,
					"interpolation":"STEP",
					"output":107
				},
				{
					"input":73,
					"interpolation":"STEP",
					"output":108
				},
				{
					"input":73,
					"interpolation":"STEP",
					"output":109
				},
				{
					"input":73,
					"interpolation":"STEP",
					"output":110
				},
				{
					"input":73,
					"interpolation":"STEP",
					"output":111
				},
				{
					"input":81,
					"interpolation":"LINEAR",
					"output":112
				},
				{
					"input":73,
					"interpolation":"STEP",
					"output":113
				},
				{
					"input":73,
					"interpolation":"STEP",
					"output":114
				},
				{
					"input":73,
					"interpolation":"STEP",
					"output":115
				},
				{
					"input":73,
					"interpolation":"STEP",
					"output":116
				},
				{
					"input":73,
					"interpolation":"STEP",
					"output":117
				},
				{
					"input":73,
					"interpolation":"STEP",
					"output":118
				},
				{
					"input":73,
					"interpolation":"STEP",
					"output":119
				},
				{
					"input":73,
					"interpolation":"STEP",
					"output":120
				},
				{
					"input":81,
					"interpolation":"LINEAR",
					"output":121
				},
				{
					"input":73,
					"interpolation":"STEP",
					"output":122
				},
				{
					"input":73,
					"interpolation":"LINEAR",
					"output":123
				},
				{
					"input":73,
					"interpolation":"LINEAR",
					"output":124
				},
				{
					"input":73,
					"interpolation":"STEP",
					"output":125
				},
				{
					"input":73,
					"interpolation":"LINEAR",
					"output":126
				},
				{
					"input":73,
					"interpolation":"LINEAR",
					"output":127
				},
				{
					"input":73,
					"interpolation":"STEP",
					"output":128
				},
				{
					"input":73,
					"interpolation":"STEP",
					"output":129
				},
				{
					"input":81,
					"interpolation":"LINEAR",
					"output":130
				},
				{
					"input":73,
					"interpolation":"STEP",
					"output":131
				},
				{
					"input":73,
					"interpolation":"LINEAR",
					"output":132
				},
				{
					"input":73,
					"interpolation":"LINEAR",
					"output":133
				},
				{
					"input":73,
					"interpolation":"STEP",
					"output":134
				},
				{
					"input":73,
					"interpolation":"LINEAR",
					"output":135
				},
				{
					"input":73,
					"interpolation":"LINEAR",
					"output":136
				},
				{
					"input":73,
					"interpolation":"STEP",
					"output":137
				}
			]
		},
		{
			"channels":[
				{
					"sampler":0,
					"target":{
						"node":20,
						"path":"translation"
					}
				},
				{
					"sampler":1,
					"target":{
						"node":20,
						"path":"rotation"
					}
				},
				{
					"sampler":2,
					"target":{
						"node":20,
						"path":"scale"
					}
				},
				{
					"sampler":3,
					"target":{
						"node":13,
						"path":"translation"
					}
				},
				{
					"sampler":4,
					"target":{
						"node":13,
						"path":"rotation"
					}
				},
				{
					"sampler":5,
					"target":{
						"node":13,
						"path":"scale"
					}
				},
				{
					"sampler":6,
					"target":{
						"node":12,
						"path":"translation"
					}
				},
				{
					"sampler":7,
					"target":{
						"node":12,
						"path":"rotation"
					}
				},
				{
					"sampler":8,
					"target":{
						"node":12,
						"path":"scale"
					}
				},
				{
					"sampler":9,
					"target":{
						"node":1,
						"path":"translation"
					}
				},
				{
					"sampler":10,
					"target":{
						"node":1,
						"path":"rotation"
					}
				},
				{
					"sampler":11,
					"target":{
						"node":1,
						"path":"scale"
					}
				},
				{
					"sampler":12,
					"target":{
						"node":0,
						"path":"translation"
					}
				},
				{
					"sampler":13,
					"target":{
						"node":0,
						"path":"rotation"
					}
				},
				{
					"sampler":14,
					"target":{
						"node":0,
						"path":"scale"
					}
				},
				{
					"sampler":15,
					"target":{
						"node":3,
						"path":"translation"
					}
				},
				{
					"sampler":16,
					"target":{
						"node":3,
						"path":"rotation"
					}
				},
				{
					"sampler":17,
					"target":{
						"node":3,
						"path":"scale"
					}
				},
				{
					"sampler":18,
					"target":{
						"node":2,
						"path":"translation"
					}
				},
				{
					"sampler":19,
					"target":{
						"node":2,
						"path":"rotation"
					}
				},
				{
					"sampler":20,
					"target":{
						"node":2,
						"path":"scale"
					}
				},
				{
					"sampler":21,
					"target":{
						"node":5,
						"path":"translation"
					}
				},
				{
					"sampler":22,
					"target":{
						"node":5,
						"path":"rotation"
					}
				},
				{
					"sampler":23,
					"target":{
						"node":5,
						"path":"scale"
					}
				},
				{
					"sampler":24,
					"target":{
						"node":4,
						"path":"translation"
					}
				},
				{
					"sampler":25,
					"target":{
						"node":4,
						"path":"rotation"
					}
				},
				{
					"sampler":26,
					"target":{
						"node":4,
						"path":"scale"
					}
				},
				{
					"sampler":27,
					"target":{
						"node":8,
						"path":"translation"
					}
				},
				{
					"sampler":28,
					"target":{
						"node":8,
						"path":"rotation"
					}
				},
				{
					"sampler":29,
					"target":{
						"node":8,
						"path":"scale"
					}
				},
				{
					"sampler":30,
					"target":{
						"node":7,
						"path":"translation"
					}
				},
				{
					"sampler":31,
					"target":{
						"node":7,
						"path":"rotation"
					}
				},
				{
					"sampler":32,
					"target":{
						"node":7,
						"path":"scale"
					}
				},
				{
					"sampler":33,
					"target":{
						"node":6,
						"path":"translation"
					}
				},
				{
					"sampler":34,
					"target":{
						"node":6,
						"path":"rotation"
					}
				},
				{
					"sampler":35,
					"target":{
						"node":6,
						"path":"scale"
					}
				},
				{
					"sampler":36,
					"target":{
						"node":11,
						"path":"translation"
					}
				},
				{
					"sampler":37,
					"target":{
						"node":11,
						"path":"rotation"
					}
				},
				{
					"sampler":38,
					"target":{
						"node":11,
						"path":"scale"
					}
				},
				{
					"sampler":39,
					"target":{
						"node":10,
						"path":"translation"
					}
				},
				{
					"sampler":40,
					"target":{
						"node":10,
						"path":"rotation"
					}
				},
				{
					"sampler":41,
					"target":{
						"node":10,
						"path":"scale"
					}
				},
				{
					"sampler":42,
					"target":{
						"node":9,
						"path":"translation"
					}
				},
				{
					"sampler":43,
					"target":{
						"node":9,
						"path":"rotation"
					}
				},
				{
					"sampler":44,
					"target":{
						"node":9,
						"path":"scale"
					}
				},
				{
					"sampler":45,
					"target":{
						"node":16,
						"path":"translation"
					}
				},
				{
					"sampler":46,
					"target":{
						"node":16,
						"path":"rotation"
					}
				},
				{
					"sampler":47,
					"target":{
						"node":16,
						"path":"scale"
					}
				},
				{
					"sampler":48,
					"target":{
						"node":15,
						"path":"translation"
					}
				},
				{
					"sampler":49,
					"target":{
						"node":15,
						"path":"rotation"
					}
				},
				{
					"sampler":50,
					"target":{
						"node":15,
						"path":"scale"
					}
				},
				{
					"sampler":51,
					"target":{
						"node":14,
						"path":"translation"
					}
				},
				{
					"sampler":52,
					"target":{
						"node":14,
						"path":"rotation"
					}
				},
				{
					"sampler":53,
					"target":{
						"node":14,
						"path":"scale"
					}
				},
				{
					"sampler":54,
					"target":{
						"node":19,
						"path":"translation"
					}
				},
				{
					"sampler":55,
					"target":{
						"node":19,
						"path":"rotation"
					}
				},
				{
					"sampler":56,
					"target":{
						"node":19,
						"path":"scale"
					}
				},
				{
					"sampler":57,
					"target":{
						"node":18,
						"path":"translation"
					}
				},
				{
					"sampler":58,
					"target":{
						"node":18,
						"path":"rotation"
					}
				},
				{
					"sampler":59,
					"target":{
						"node":18,
						"path":"scale"
					}
				},
				{
					"sampler":60,
					"target":{
						"node":17,
						"path":"translation"
					}
				},
				{
					"sampler":61,
					"target":{
						"node":17,
						"path":"rotation"
					}
				},
				{
					"sampler":62,
					"target":{
						"node":17,
						"path":"scale"
					}
				}
			],
			"name":"idle",
			"samplers":[
				{
					"input":138,
					"interpolation":"LINEAR",
					"output":139
				},
				{
					"input":140,
					"interpolation":"STEP",
					"output":141
				},
				{
					"input":140,
					"interpolation":"STEP",
					"output":142
				},
				{
					"input":140,
					"interpolation":"STEP",
					"output":143
				},
				{
					"input":140,
					"interpolation":"STEP",
					"output":144
				},
				{
					"input":140,
					"interpolation":"STEP",
					"output":145
				},
				{
					"input":140,
					"interpolation":"STEP",
					"output":146
				},
				{
					"input":138,
					"interpolation":"LINEAR",
					"output":147
				},
				{
					"input":140,
					"interpolation":"STEP",
					"output":148
				},
				{
					"input":140,
					"interpolation":"STEP",
					"output":149
				},
				{
					"input":138,
					"interpolation":"LINEAR",
					"output":150
				},
				{
					"input":140,
					"interpolation":"STEP",
					"output":151
				},
				{
					"input":140,
					"interpolation":"STEP",
					"output":152
				},
				{
					"input":140,
					"interpolation":"STEP",
					"output":153
				},
				{
					"input":140,
					"interpolation":"STEP",
					"output":154
				},
				{
					"input":140,
					"interpolation":"STEP",
					"output":155
				},
				{
					"input":138,
					"interpolation":"LINEAR",
					"output":156
				},
				{
					"input":140,
					"interpolation":"STEP",
					"output":157
				},
				{
					"input":140,
					"interpolation":"STEP",
					"output":158
				},
				{
					"input":140,
					"interpolation":"STEP",
					"output":159
				},
				{
					"input":140,
					"interpolation":"STEP",
					"output":160
				},
				{
					"input":140,
					"interpolation":"STEP",
					"output":161
				},
				{
					"input":140,
					"interpolation":"STEP",
					"output":162
				},
				{
					"input":140,
					"interpolation":"STEP",
					"output":163
				},
				{
					"input":140,
					"interpolation":"STEP",
					"output":164
				},
				{
					"input":138,
					"interpolation":"LINEAR",
					"output":165
				},
				{
					"input":140,
					"interpolation":"STEP",
					"output":166
				},
				{
					"input":140,
					"interpolation":"STEP",
					"output":167
				},
				{
					"input":138,
					"interpolation":"LINEAR",
					"output":168
				},
				{
					"input":140,
					"interpolation":"STEP",
					"output":169
				},
				{
					"input":140,
					"interpolation":"STEP",
					"output":170
				},
				{
					"input":140,
					"interpolation":"STEP",
					"output":171
				},
				{
					"input":140,
					"interpolation":"STEP",
					"output":172
				},
				{
					"input":140,
					"interpolation":"STEP",
					"output":173
				},
				{
					"input":140,
					"interpolation":"STEP",
					"output":174
				},
				{
					"input":140,
					"interpolation":"STEP",
					"output":175
				},
				{
					"input":140,
					"interpolation":"STEP",
					"output":176
				},
				{
					"input":138,
					"interpolation":"LINEAR",
					"output":177
				},
				{
					"input":140,
					"interpolation":"STEP",
					"output":178
				},
				{
					"input":140,
					"interpolation":"STEP",
					"output":179
				},
				{
					"input":140,
					"interpolation":"STEP",
					"output":180
				},
				{
					"input":140,
					"interpolation":"STEP",
					"output":181
				},
				{
					"input":140,
					"interpolation":"STEP",
					"output":182
				},
				{
					"input":140,
					"interpolation":"STEP",
					"output":183
				},
				{
					"input":140,
					"interpolation":"STEP",
					"output":184
				},
				{
					"input":140,
					"interpolation":"STEP",
					"output":185
				},
				{
					"input":140,
					"interpolation":"STEP",
					"output":186
				},
				{
					"input":140,
					"interpolation":"STEP",
					"output":187
				},
				{
					"input":140,
					"interpolation":"STEP",
					"output":188
				},
				{
					"input":140,
					"interpolation":"STEP",
					"output":189
				},
				{
					"input":140,
					"interpolation":"STEP",
					"output":190
				},
				{
					"input":140,
					"interpolation":"STEP",
					"output":191
				},
				{
					"input":140,
					"interpolation":"STEP",
					"output":192
				},
				{
					"input":140,
					"interpolation":"STEP",
					"output":193
				},
				{
					"input":140,
					"interpolation":"STEP",
					"output":194
				},
				{
					"input":140,
					"interpolation":"STEP",
					"output":195
				},
				{
					"input":140,
					"interpolation":"STEP",
					"output":196
				},
				{
					"input":140,
					"interpolation":"STEP",
					"output":197
				},
				{
					"input":140,
					"interpolation":"STEP",
					"output":198
				},
				{
					"input":140,
					"interpolation":"STEP",
					"output":199
				},
				{
					"input":140,
					"interpolation":"STEP",
					"output":200
				},
				{
					"input":140,
					"interpolation":"STEP",
					"output":201
				},
				{
					"input":140,
					"interpolation":"STEP",
					"output":202
				}
			]
		},
		{
			"channels":[
				{
					"sampler":0,
					"target":{
						"node":20,
						"path":"translation"
					}
				},
				{
					"sampler":1,
					"target":{
						"node":20,
						"path":"rotation"
					}
				},
				{
					"sampler":2,
					"target":{
						"node":20,
						"path":"scale"
					}
				},
				{
					"sampler":3,
					"target":{
						"node":13,
						"path":"translation"
					}
				},
				{
					"sampler":4,
					"target":{
						"node":13,
						"path":"rotation"
					}
				},
				{
					"sampler":5,
					"target":{
						"node":13,
						"path":"scale"
					}
				},
				{
					"sampler":6,
					"target":{
						"node":12,
						"path":"translation"
					}
				},
				{
					"sampler":7,
					"target":{
						"node":12,
						"path":"rotation"
					}
				},
				{
					"sampler":8,
					"target":{
						"node":12,
						"path":"scale"
					}
				},
				{
					"sampler":9,
					"target":{
						"node":1,
						"path":"translation"
					}
				},
				{
					"sampler":10,
					"target":{
						"node":1,
						"path":"rotation"
					}
				},
				{
					"sampler":11,
					"target":{
						"node":1,
						"path":"scale"
					}
				},
				{
					"sampler":12,
					"target":{
						"node":0,
						"path":"translation"
					}
				},
				{
					"sampler":13,
					"target":{
						"node":0,
						"path":"rotation"
					}
				},
				{
					"sampler":14,
					"target":{
						"node":0,
						"path":"scale"
					}
				},
				{
					"sampler":15,
					"target":{
						"node":3,
						"path":"translation"
					}
				},
				{
					"sampler":16,
					"target":{
						"node":3,
						"path":"rotation"
					}
				},
				{
					"sampler":17,
					"target":{
						"node":3,
						"path":"scale"
					}
				},
				{
					"sampler":18,
					"target":{
						"node":2,
						"path":"translation"
					}
				},
				{
					"sampler":19,
					"target":{
						"node":2,
						"path":"rotation"
					}
				},
				{
					"sampler":20,
					"target":{
						"node":2,
						"path":"scale"
					}
				},
				{
					"sampler":21,
					"target":{
						"node":5,
						"path":"translation"
					}
				},
				{
					"sampler":22,
					"target":{
						"node":5,
						"path":"rotation"
					}
				},
				{
					"sampler":23,
					"target":{
						"node":5,
						"path":"scale"
					}
				},
				{
					"sampler":24,
					"target":{
						"node":4,
						"path":"translation"
					}
				},
				{
					"sampler":25,
					"target":{
						"node":4,
						"path":"rotation"
					}
				},
				{
					"sampler":26,
					"target":{
						"node":4,
						"path":"scale"
					}
				},
				{
					"sampler":27,
					"target":{
						"node":8,
						"path":"translation"
					}
				},
				{
					"sampler":28,
					"target":{
						"node":8,
						"path":"rotation"
					}
				},
				{
					"sampler":29,
					"target":{
						"node":8,
						"path":"scale"
					}
				},
				{
					"sampler":30,
					"target":{
						"node":7,
						"path":"translation"
					}
				},
				{
					"sampler":31,
					"target":{
						"node":7,
						"path":"rotation"
					}
				},
				{
					"sampler":32,
					"target":{
						"node":7,
						"path":"scale"
					}
				},
				{
					"sampler":33,
					"target":{
						"node":6,
						"path":"translation"
					}
				},
				{
					"sampler":34,
					"target":{
						"node":6,
						"path":"rotation"
					}
				},
				{
					"sampler":35,
					"target":{
						"node":6,
						"path":"scale"
					}
				},
				{
					"sampler":36,
					"target":{
						"node":11,
						"path":"translation"
					}
				},
				{
					"sampler":37,
					"target":{
						"node":11,
						"path":"rotation"
					}
				},
				{
					"sampler":38,
					"target":{
						"node":11,
						"path":"scale"
					}
				},
				{
					"sampler":39,
					"target":{
						"node":10,
						"path":"translation"
					}
				},
				{
					"sampler":40,
					"target":{
						"node":10,
						"path":"rotation"
					}
				},
				{
					"sampler":41,
					"target":{
						"node":10,
						"path":"scale"
					}
				},
				{
					"sampler":42,
					"target":{
						"node":9,
						"path":"translation"
					}
				},
				{
					"sampler":43,
					"target":{
						"node":9,
						"path":"rotation"
					}
				},
				{
					"sampler":44,
					"target":{
						"node":9,
						"path":"scale"
					}
				},
				{
					"sampler":45,
					"target":{
						"node":16,
						"path":"translation"
					}
				},
				{
					"sampler":46,
					"target":{
						"node":16,
						"path":"rotation"
					}
				},
				{
					"sampler":47,
					"target":{
						"node":16,
						"path":"scale"
					}
				},
				{
					"sampler":48,
					"target":{
						"node":15,
						"path":"translation"
					}
				},
				{
					"sampler":49,
					"target":{
						"node":15,
						"path":"rotation"
					}
				},
				{
					"sampler":50,
					"target":{
						"node":15,
						"path":"scale"
					}
				},
				{
					"sampler":51,
					"target":{
						"node":14,
						"path":"translation"
					}
				},
				{
					"sampler":52,
					"target":{
						"node":14,
						"path":"rotation"
					}
				},
				{
					"sampler":53,
					"target":{
						"node":14,
						"path":"scale"
					}
				},
				{
					"sampler":54,
					"target":{
						"node":19,
						"path":"translation"
					}
				},
				{
					"sampler":55,
					"target":{
						"node":19,
						"path":"rotation"
					}
				},
				{
					"sampler":56,
					"target":{
						"node":19,
						"path":"scale"
					}
				},
				{
					"sampler":57,
					"target":{
						"node":18,
						"path":"translation"
					}
				},
				{
					"sampler":58,
					"target":{
						"node":18,
						"path":"rotation"
					}
				},
				{
					"sampler":59,
					"target":{
						"node":18,
						"path":"scale"
					}
				},
				{
					"sampler":60,
					"target":{
						"node":17,
						"path":"translation"
					}
				},
				{
					"sampler":61,
					"target":{
						"node":17,
						"path":"rotation"
					}
				},
				{
					"sampler":62,
					"target":{
						"node":17,
						"path":"scale"
					}
				}
			],
			"name":"walk",
			"samplers":[
				{
					"input":203,
					"interpolation":"LINEAR",
					"output":204
				},
				{
					"input":203,
					"interpolation":"LINEAR",
					"output":205
				},
				{
					"input":206,
					"interpolation":"STEP",
					"output":207
				},
				{
					"input":206,
					"interpolation":"STEP",
					"output":208
				},
				{
					"input":206,
					"interpolation":"STEP",
					"output":209
				},
				{
					"input":206,
					"interpolation":"STEP",
					"output":210
				},
				{
					"input":206,
					"interpolation":"STEP",
					"output":211
				},
				{
					"input":203,
					"interpolation":"LINEAR",
					"output":212
				},
				{
					"input":206,
					"interpolation":"STEP",
					"output":213
				},
				{
					"input":206,
					"interpolation":"STEP",
					"output":214
				},
				{
					"input":203,
					"interpolation":"LINEAR",
					"output":215
				},
				{
					"input":206,
					"interpolation":"STEP",
					"output":216
				},
				{
					"input":206,
					"interpolation":"STEP",
					"output":217
				},
				{
					"input":206,
					"interpolation":"STEP",
					"output":218
				},
				{
					"input":206,
					"interpolation":"STEP",
					"output":219
				},
				{
					"input":206,
					"interpolation":"STEP",
					"output":220
				},
				{
					"input":203,
					"interpolation":"LINEAR",
					"output":221
				},
				{
					"input":206,
					"interpolation":"STEP",
					"output":222
				},
				{
					"input":206,
					"interpolation":"STEP",
					"output":223
				},
				{
					"input":206,
					"interpolation":"STEP",
					"output":224
				},
				{
					"input":206,
					"interpolation":"STEP",
					"output":225
				},
				{
					"input":206,
					"interpolation":"STEP",
					"output":226
				},
				{
					"input":206,
					"interpolation":"STEP",
					"output":227
				},
				{
					"input":206,
					"interpolation":"STEP",
					"output":228
				},
				{
					"input":206,
					"interpolation":"STEP",
					"output":229
				},
				{
					"input":206,
					"interpolation":"STEP",
					"output":230
				},
				{
					"input":206,
					"interpolation":"STEP",
					"output":231
				},
				{
					"input":206,
					"interpolation":"STEP",
					"output":232
				},
				{
					"input":203,
					"interpolation":"LINEAR",
					"output":233
				},
				{
					"input":206,
					"interpolation":"STEP",
					"output":234
				},
				{
					"input":206,
					"interpolation":"STEP",
					"output":235
				},
				{
					"input":206,
					"interpolation":"STEP",
					"output":236
				},
				{
					"input":206,
					"interpolation":"STEP",
					"output":237
				},
				{
					"input":206,
					"interpolation":"STEP",
					"output":238
				},
				{
					"input":206,
					"interpolation":"STEP",
					"output":239
				},
				{
					"input":206,
					"interpolation":"STEP",
					"output":240
				},
				{
					"input":206,
					"interpolation":"STEP",
					"output":241
				},
				{
					"input":203,
					"interpolation":"LINEAR",
					"output":242
				},
				{
					"input":206,
					"interpolation":"STEP",
					"output":243
				},
				{
					"input":206,
					"interpolation":"STEP",
					"output":244
				},
				{
					"input":206,
					"interpolation":"STEP",
					"output":245
				},
				{
					"input":206,
					"interpolation":"STEP",
					"output":246
				},
				{
					"input":206,
					"interpolation":"STEP",
					"output":247
				},
				{
					"input":206,
					"interpolation":"STEP",
					"output":248
				},
				{
					"input":206,
					"interpolation":"STEP",
					"output":249
				},
				{
					"input":206,
					"interpolation":"STEP",
					"output":250
				},
				{
					"input":203,
					"interpolation":"LINEAR",
					"output":251
				},
				{
					"input":206,
					"interpolation":"STEP",
					"output":252
				},
				{
					"input":206,
					"interpolation":"STEP",
					"output":253
				},
				{
					"input":203,
					"interpolation":"LINEAR",
					"output":254
				},
				{
					"input":206,
					"interpolation":"STEP",
					"output":255
				},
				{
					"input":206,
					"interpolation":"STEP",
					"output":256
				},
				{
					"input":203,
					"interpolation":"LINEAR",
					"output":257
				},
				{
					"input":206,
					"interpolation":"STEP",
					"output":258
				},
				{
					"input":206,
					"interpolation":"STEP",
					"output":259
				},
				{
					"input":203,
					"interpolation":"LINEAR",
					"output":260
				},
				{
					"input":206,
					"interpolation":"STEP",
					"output":261
				},
				{
					"input":206,
					"interpolation":"STEP",
					"output":262
				},
				{
					"input":203,
					"interpolation":"LINEAR",
					"output":263
				},
				{
					"input":206,
					"interpolation":"STEP",
					"output":264
				},
				{
					"input":206,
					"interpolation":"STEP",
					"output":265
				},
				{
					"input":203,
					"interpolation":"LINEAR",
					"output":266
				},
				{
					"input":206,
					"interpolation":"STEP",
					"output":267
				}
			]
		}
	],
	"materials":[
		{
			"name":"skin",
			"normalTexture":{
				"index":0,
				"scale":0.4000000059604645
			},
			"pbrMetallicRoughness":{
				"baseColorFactor":[
					0.9551045894622803,
					0.7105664610862732,
					0.5382355451583862,
					1
				],
				"metallicFactor":0,
				"roughnessFactor":0.550000011920929
			}
		},
		{
			"extensions":{
				"KHR_materials_sheen":{
					"sheenColorFactor":[
						1.0,
						1.0,
						1.0
					],
					"sheenRoughnessFactor":0.5
				}
			},
			"name":"hair",
			"normalTexture":{
				"index":1,
				"scale":0.800000011920929
			},
			"pbrMetallicRoughness":{
				"baseColorFactor":[
					0.13286831974983215,
					0.13286831974983215,
					0.17064493894577026,
					1
				],
				"metallicFactor":0,
				"roughnessFactor":0.44999998807907104
			}
		},
		{
			"extensions":{
				"KHR_materials_sheen":{
					"sheenColorFactor":[
						1.0,
						1.0,
						1.0
					],
					"sheenRoughnessFactor":0.5
				}
			},
			"name":"outfit",
			"normalTexture":{
				"index":2,
				"scale":0.6000000238418579
			},
			"pbrMetallicRoughness":{
				"baseColorFactor":[
					0.07323895394802094,
					0.08353512734174728,
					0.13286831974983215,
					1
				],
				"metallicFactor":0,
				"roughnessFactor":0.75
			}
		},
		{
			"name":"outfit2",
			"normalTexture":{
				"index":3,
				"scale":0.4000000059604645
			},
			"pbrMetallicRoughness":{
				"baseColorFactor":[
					0.7874122858047485,
					0.7874122858047485,
					0.7874122858047485,
					1
				],
				"metallicFactor":0,
				"roughnessFactor":0.6000000238418579
			}
		},
		{
			"name":"pants",
			"normalTexture":{
				"index":4,
				"scale":0.6000000238418579
			},
			"pbrMetallicRoughness":{
				"baseColorFactor":[
					0.036306485533714294,
					0.041081301867961884,
					0.06372379511594772,
					1
				],
				"metallicFactor":0,
				"roughnessFactor":0.800000011920929
			}
		},
		{
			"extensions":{
				"KHR_materials_clearcoat":{
					"clearcoatFactor":0.30000001192092896
				}
			},
			"name":"boots",
			"normalTexture":{
				"index":5,
				"scale":0.800000011920929
			},
			"pbrMetallicRoughness":{
				"baseColorFactor":[
					0.0134117491543293,
					0.010022825561463833,
					0.010022825561463833,
					1
				],
				"metallicFactor":0,
				"roughnessFactor":0.44999998807907104
			}
		},
		{
			"name":"eye_white",
			"pbrMetallicRoughness":{
				"baseColorFactor":[
					0.8900054097175598,
					0.8900054097175598,
					0.8900054097175598,
					1
				],
				"metallicFactor":0,
				"roughnessFactor":0.20000000298023224
			}
		},
		{
			"emissiveFactor":[
				0.011763989275256348,
				0.011763989275256348,
				0.019862860485428957
			],
			"name":"iris",
			"pbrMetallicRoughness":{
				"baseColorFactor":[
					0.01960664801299572,
					0.01960664801299572,
					0.03310476616024971,
					1
				],
				"metallicFactor":0,
				"roughnessFactor":0.15000000596046448
			}
		},
		{
			"name":"pupil",
			"pbrMetallicRoughness":{
				"baseColorFactor":[
					0.0015479875728487968,
					0.0015479875728487968,
					0.0023219813592731953,
					1
				],
				"metallicFactor":0,
				"roughnessFactor":0.10000000149011612
			}
		},
		{
			"name":"lips",
			"pbrMetallicRoughness":{
				"baseColorFactor":[
					0.4283095896244049,
					0.32088616490364075,
					0.2448643445968628,
					1
				],
				"metallicFactor":0,
				"roughnessFactor":0.4000000059604645
			}
		},
		{
			"name":"buckle",
			"pbrMetallicRoughness":{
				"baseColorFactor":[
					0.6920710802078247,
					0.4479884207248688,
					0.07323895394802094,
					1
				],
				"metallicFactor":0.8999999761581421,
				"roughnessFactor":0.30000001192092896
			}
		},
		{
			"doubleSided":true,
			"name":"wing",
			"normalTexture":{
				"index":6,
				"scale":0.6000000238418579
			},
			"pbrMetallicRoughness":{
				"baseColorFactor":[
					0.8900054097175598,
					0.8900054097175598,
					1,
					1
				],
				"metallicFactor":0,
				"roughnessFactor":0.5
			}
		}
	],
	"meshes":[
		{
			"name":"deeno",
			"primitives":[
				{
					"attributes":{
						"POSITION":0,
						"NORMAL":1,
						"TEXCOORD_0":2,
						"JOINTS_0":3,
						"WEIGHTS_0":4
					},
					"indices":5,
					"material":0
				},
				{
					"attributes":{
						"POSITION":6,
						"NORMAL":7,
						"TEXCOORD_0":8,
						"JOINTS_0":9,
						"WEIGHTS_0":10
					},
					"indices":11,
					"material":1
				},
				{
					"attributes":{
						"POSITION":12,
						"NORMAL":13,
						"TEXCOORD_0":14,
						"JOINTS_0":15,
						"WEIGHTS_0":16
					},
					"indices":17,
					"material":2
				},
				{
					"attributes":{
						"POSITION":18,
						"NORMAL":19,
						"TEXCOORD_0":20,
						"JOINTS_0":21,
						"WEIGHTS_0":22
					},
					"indices":23,
					"material":3
				},
				{
					"attributes":{
						"POSITION":24,
						"NORMAL":25,
						"TEXCOORD_0":26,
						"JOINTS_0":27,
						"WEIGHTS_0":28
					},
					"indices":29,
					"material":4
				},
				{
					"attributes":{
						"POSITION":30,
						"NORMAL":31,
						"TEXCOORD_0":32,
						"JOINTS_0":33,
						"WEIGHTS_0":34
					},
					"indices":35,
					"material":5
				},
				{
					"attributes":{
						"POSITION":36,
						"NORMAL":37,
						"TEXCOORD_0":38,
						"JOINTS_0":39,
						"WEIGHTS_0":40
					},
					"indices":41,
					"material":6
				},
				{
					"attributes":{
						"POSITION":42,
						"NORMAL":43,
						"TEXCOORD_0":44,
						"JOINTS_0":45,
						"WEIGHTS_0":46
					},
					"indices":47,
					"material":7
				},
				{
					"attributes":{
						"POSITION":48,
						"NORMAL":49,
						"TEXCOORD_0":50,
						"JOINTS_0":51,
						"WEIGHTS_0":52
					},
					"indices":53,
					"material":8
				},
				{
					"attributes":{
						"POSITION":54,
						"NORMAL":55,
						"TEXCOORD_0":56,
						"JOINTS_0":57,
						"WEIGHTS_0":58
					},
					"indices":59,
					"material":9
				},
				{
					"attributes":{
						"POSITION":60,
						"NORMAL":61,
						"TEXCOORD_0":62,
						"JOINTS_0":63,
						"WEIGHTS_0":64
					},
					"indices":65,
					"material":10
				},
				{
					"attributes":{
						"POSITION":66,
						"NORMAL":67,
						"TEXCOORD_0":68,
						"JOINTS_0":69,
						"WEIGHTS_0":70
					},
					"indices":71,
					"material":11
				}
			]
		}
	],
	"textures":[
		{
			"sampler":0,
			"source":0
		},
		{
			"sampler":0,
			"source":1
		},
		{
			"sampler":0,
			"source":2
		},
		{
			"sampler":0,
			"source":2
		},
		{
			"sampler":0,
			"source":2
		},
		{
			"sampler":0,
			"source":3
		},
		{
			"sampler":0,
			"source":4
		}
	],
	"images":[
		{
			"mimeType":"image/png",
			"name":"N_skin",
			"uri":"texturas/N_skin.png"
		},
		{
			"mimeType":"image/png",
			"name":"N_hair",
			"uri":"texturas/N_hair.png"
		},
		{
			"mimeType":"image/png",
			"name":"N_cloth",
			"uri":"texturas/N_cloth.png"
		},
		{
			"mimeType":"image/png",
			"name":"N_leather",
			"uri":"texturas/N_leather.png"
		},
		{
			"mimeType":"image/png",
			"name":"N_fur",
			"uri":"texturas/N_fur.png"
		}
	],
	"skins":[
		{
			"inverseBindMatrices":72,
			"joints":[
				20,
				13,
				12,
				1,
				0,
				3,
				2,
				5,
				4,
				8,
				7,
				6,
				11,
				10,
				9,
				16,
				15,
				14,
				19,
				18,
				17
			],
			"name":"deeno_rig"
		}
	],
	"accessors":[
		{
			"bufferView":0,
			"componentType":5126,
			"count":1437,
			"max":[
				0.3208130896091461,
				1.7839999198913574,
				0.10721255838871002
			],
			"min":[
				-0.3208130896091461,
				0.7844679355621338,
				-0.11607673019170761
			],
			"type":"VEC3"
		},
		{
			"bufferView":1,
			"componentType":5126,
			"count":1437,
			"type":"VEC3"
		},
		{
			"bufferView":2,
			"componentType":5126,
			"count":1437,
			"type":"VEC2"
		},
		{
			"bufferView":3,
			"componentType":5121,
			"count":1437,
			"type":"VEC4"
		},
		{
			"bufferView":4,
			"componentType":5126,
			"count":1437,
			"type":"VEC4"
		},
		{
			"bufferView":5,
			"componentType":5123,
			"count":5868,
			"type":"SCALAR"
		},
		{
			"bufferView":6,
			"componentType":5126,
			"count":2790,
			"max":[
				0.11919213831424713,
				1.8096568584442139,
				0.13905903697013855
			],
			"min":[
				-0.11718909442424774,
				1.5270919799804688,
				-0.11727944016456604
			],
			"type":"VEC3"
		},
		{
			"bufferView":7,
			"componentType":5126,
			"count":2790,
			"type":"VEC3"
		},
		{
			"bufferView":8,
			"componentType":5126,
			"count":2790,
			"type":"VEC2"
		},
		{
			"bufferView":9,
			"componentType":5121,
			"count":2790,
			"type":"VEC4"
		},
		{
			"bufferView":10,
			"componentType":5126,
			"count":2790,
			"type":"VEC4"
		},
		{
			"bufferView":11,
			"componentType":5123,
			"count":8328,
			"type":"SCALAR"
		},
		{
			"bufferView":12,
			"componentType":5126,
			"count":1461,
			"max":[
				0.3246443271636963,
				1.474212646484375,
				0.11217201501131058
			],
			"min":[
				-0.3246443271636963,
				0.9297775626182556,
				-0.11171648651361465
			],
			"type":"VEC3"
		},
		{
			"bufferView":13,
			"componentType":5126,
			"count":1461,
			"type":"VEC3"
		},
		{
			"bufferView":14,
			"componentType":5126,
			"count":1461,
			"type":"VEC2"
		},
		{
			"bufferView":15,
			"componentType":5121,
			"count":1461,
			"type":"VEC4"
		},
		{
			"bufferView":16,
			"componentType":5126,
			"count":1461,
			"type":"VEC4"
		},
		{
			"bufferView":17,
			"componentType":5123,
			"count":6648,
			"type":"SCALAR"
		},
		{
			"bufferView":18,
			"componentType":5126,
			"count":65,
			"max":[
				0.142655149102211,
				1.0319132804870605,
				0.11384035646915436
			],
			"min":[
				-0.142655149102211,
				0.8763115406036377,
				-0.11518235504627228
			],
			"type":"VEC3"
		},
		{
			"bufferView":19,
			"componentType":5126,
			"count":65,
			"type":"VEC3"
		},
		{
			"bufferView":20,
			"componentType":5126,
			"count":65,
			"type":"VEC2"
		},
		{
			"bufferView":21,
			"componentType":5121,
			"count":65,
			"type":"VEC4"
		},
		{
			"bufferView":22,
			"componentType":5126,
			"count":65,
			"type":"VEC4"
		},
		{
			"bufferView":23,
			"componentType":5123,
			"count":192,
			"type":"SCALAR"
		},
		{
			"bufferView":24,
			"componentType":5126,
			"count":977,
			"max":[
				0.3219468891620636,
				0.937298059463501,
				0.1108374372124672
			],
			"min":[
				-0.3219468593597412,
				0.3000607192516327,
				-0.11261609941720963
			],
			"type":"VEC3"
		},
		{
			"bufferView":25,
			"componentType":5126,
			"count":977,
			"type":"VEC3"
		},
		{
			"bufferView":26,
			"componentType":5126,
			"count":977,
			"type":"VEC2"
		},
		{
			"bufferView":27,
			"componentType":5121,
			"count":977,
			"type":"VEC4"
		},
		{
			"bufferView":28,
			"componentType":5126,
			"count":977,
			"type":"VEC4"
		},
		{
			"bufferView":29,
			"componentType":5123,
			"count":4332,
			"type":"SCALAR"
		},
		{
			"bufferView":30,
			"componentType":5126,
			"count":1034,
			"max":[
				0.16644366085529327,
				0.3064470589160919,
				0.07947749644517899
			],
			"min":[
				-0.16644367575645447,
				0.007597841322422028,
				-0.14012077450752258
			],
			"type":"VEC3"
		},
		{
			"bufferView":31,
			"componentType":5126,
			"count":1034,
			"type":"VEC3"
		},
		{
			"bufferView":32,
			"componentType":5126,
			"count":1034,
			"type":"VEC2"
		},
		{
			"bufferView":33,
			"componentType":5121,
			"count":1034,
			"type":"VEC4"
		},
		{
			"bufferView":34,
			"componentType":5126,
			"count":1034,
			"type":"VEC4"
		},
		{
			"bufferView":35,
			"componentType":5123,
			"count":4608,
			"type":"SCALAR"
		},
		{
			"bufferView":36,
			"componentType":5126,
			"count":304,
			"max":[
				0.050999999046325684,
				1.6864999532699585,
				-0.07000000029802322
			],
			"min":[
				-0.050999999046325684,
				1.6634999513626099,
				-0.08799999952316284
			],
			"type":"VEC3"
		},
		{
			"bufferView":37,
			"componentType":5126,
			"count":304,
			"type":"VEC3"
		},
		{
			"bufferView":38,
			"componentType":5126,
			"count":304,
			"type":"VEC2"
		},
		{
			"bufferView":39,
			"componentType":5121,
			"count":304,
			"type":"VEC4"
		},
		{
			"bufferView":40,
			"componentType":5126,
			"count":304,
			"type":"VEC4"
		},
		{
			"bufferView":41,
			"componentType":5123,
			"count":1152,
			"type":"SCALAR"
		},
		{
			"bufferView":42,
			"componentType":5126,
			"count":220,
			"max":[
				0.04349999874830246,
				1.6848000288009644,
				-0.08122024685144424
			],
			"min":[
				-0.04349999874830246,
				1.6651999950408936,
				-0.08977975696325302
			],
			"type":"VEC3"
		},
		{
			"bufferView":43,
			"componentType":5126,
			"count":220,
			"type":"VEC3"
		},
		{
			"bufferView":44,
			"componentType":5126,
			"count":220,
			"type":"VEC2"
		},
		{
			"bufferView":45,
			"componentType":5121,
			"count":220,
			"type":"VEC4"
		},
		{
			"bufferView":46,
			"componentType":5126,
			"count":220,
			"type":"VEC4"
		},
		{
			"bufferView":47,
			"componentType":5123,
			"count":720,
			"type":"SCALAR"
		},
		{
			"bufferView":48,
			"componentType":5126,
			"count":160,
			"max":[
				0.03799443691968918,
				1.6794999837875366,
				-0.08689788728952408
			],
			"min":[
				-0.03799443691968918,
				1.6705000400543213,
				-0.0907021164894104
			],
			"type":"VEC3"
		},
		{
			"bufferView":49,
			"componentType":5126,
			"count":160,
			"type":"VEC3"
		},
		{
			"bufferView":50,
			"componentType":5126,
			"count":160,
			"type":"VEC2"
		},
		{
			"bufferView":51,
			"componentType":5121,
			"count":160,
			"type":"VEC4"
		},
		{
			"bufferView":52,
			"componentType":5126,
			"count":160,
			"type":"VEC4"
		},
		{
			"bufferView":53,
			"componentType":5123,
			"count":480,
			"type":"SCALAR"
		},
		{
			"bufferView":54,
			"componentType":5126,
			"count":98,
			"max":[
				0.01899999938905239,
				1.6074999570846558,
				-0.07772024720907211
			],
			"min":[
				-0.01899999938905239,
				1.5985000133514404,
				-0.08627975732088089
			],
			"type":"VEC3"
		},
		{
			"bufferView":55,
			"componentType":5126,
			"count":98,
			"type":"VEC3"
		},
		{
			"bufferView":56,
			"componentType":5126,
			"count":98,
			"type":"VEC2"
		},
		{
			"bufferView":57,
			"componentType":5121,
			"count":98,
			"type":"VEC4"
		},
		{
			"bufferView":58,
			"componentType":5126,
			"count":98,
			"type":"VEC4"
		},
		{
			"bufferView":59,
			"componentType":5123,
			"count":360,
			"type":"SCALAR"
		},
		{
			"bufferView":60,
			"componentType":5126,
			"count":24,
			"max":[
				0.02500000037252903,
				0.9700000286102295,
				-0.09399999678134918
			],
			"min":[
				-0.02500000037252903,
				0.9300000071525574,
				-0.10599999874830246
			],
			"type":"VEC3"
		},
		{
			"bufferView":61,
			"componentType":5126,
			"count":24,
			"type":"VEC3"
		},
		{
			"bufferView":62,
			"componentType":5126,
			"count":24,
			"type":"VEC2"
		},
		{
			"bufferView":63,
			"componentType":5121,
			"count":24,
			"type":"VEC4"
		},
		{
			"bufferView":64,
			"componentType":5126,
			"count":24,
			"type":"VEC4"
		},
		{
			"bufferView":65,
			"componentType":5123,
			"count":36,
			"type":"SCALAR"
		},
		{
			"bufferView":66,
			"componentType":5126,
			"count":896,
			"max":[
				1.0508606433868408,
				1.7924519777297974,
				0.40947574377059937
			],
			"min":[
				-1.0508606433868408,
				1.0097415447235107,
				0.0715753436088562
			],
			"type":"VEC3"
		},
		{
			"bufferView":67,
			"componentType":5126,
			"count":896,
			"type":"VEC3"
		},
		{
			"bufferView":68,
			"componentType":5126,
			"count":896,
			"type":"VEC2"
		},
		{
			"bufferView":69,
			"componentType":5121,
			"count":896,
			"type":"VEC4"
		},
		{
			"bufferView":70,
			"componentType":5126,
			"count":896,
			"type":"VEC4"
		},
		{
			"bufferView":71,
			"componentType":5123,
			"count":3024,
			"type":"SCALAR"
		},
		{
			"bufferView":72,
			"componentType":5126,
			"count":21,
			"type":"MAT4"
		},
		{
			"bufferView":73,
			"componentType":5126,
			"count":2,
			"max":[
				0.6
			],
			"min":[
				0
			],
			"type":"SCALAR"
		},
		{
			"bufferView":74,
			"componentType":5126,
			"count":2,
			"type":"VEC3"
		},
		{
			"bufferView":75,
			"componentType":5126,
			"count":2,
			"type":"VEC4"
		},
		{
			"bufferView":76,
			"componentType":5126,
			"count":2,
			"type":"VEC3"
		},
		{
			"bufferView":77,
			"componentType":5126,
			"count":2,
			"type":"VEC3"
		},
		{
			"bufferView":78,
			"componentType":5126,
			"count":2,
			"type":"VEC4"
		},
		{
			"bufferView":79,
			"componentType":5126,
			"count":2,
			"type":"VEC3"
		},
		{
			"bufferView":80,
			"componentType":5126,
			"count":2,
			"type":"VEC3"
		},
		{
			"bufferView":81,
			"componentType":5126,
			"count":19,
			"max":[
				0.6
			],
			"min":[
				0
			],
			"type":"SCALAR"
		},
		{
			"bufferView":82,
			"componentType":5126,
			"count":19,
			"type":"VEC4"
		},
		{
			"bufferView":83,
			"componentType":5126,
			"count":2,
			"type":"VEC3"
		},
		{
			"bufferView":84,
			"componentType":5126,
			"count":2,
			"type":"VEC3"
		},
		{
			"bufferView":85,
			"componentType":5126,
			"count":2,
			"type":"VEC4"
		},
		{
			"bufferView":86,
			"componentType":5126,
			"count":2,
			"type":"VEC3"
		},
		{
			"bufferView":87,
			"componentType":5126,
			"count":2,
			"type":"VEC3"
		},
		{
			"bufferView":88,
			"componentType":5126,
			"count":2,
			"type":"VEC4"
		},
		{
			"bufferView":89,
			"componentType":5126,
			"count":2,
			"type":"VEC3"
		},
		{
			"bufferView":90,
			"componentType":5126,
			"count":2,
			"type":"VEC3"
		},
		{
			"bufferView":91,
			"componentType":5126,
			"count":2,
			"type":"VEC4"
		},
		{
			"bufferView":92,
			"componentType":5126,
			"count":2,
			"type":"VEC3"
		},
		{
			"bufferView":93,
			"componentType":5126,
			"count":2,
			"type":"VEC3"
		},
		{
			"bufferView":94,
			"componentType":5126,
			"count":2,
			"type":"VEC4"
		},
		{
			"bufferView":95,
			"componentType":5126,
			"count":2,
			"type":"VEC3"
		},
		{
			"bufferView":96,
			"componentType":5126,
			"count":2,
			"type":"VEC3"
		},
		{
			"bufferView":97,
			"componentType":5126,
			"count":2,
			"type":"VEC4"
		},
		{
			"bufferView":98,
			"componentType":5126,
			"count":2,
			"type":"VEC3"
		},
		{
			"bufferView":99,
			"componentType":5126,
			"count":2,
			"type":"VEC3"
		},
		{
			"bufferView":100,
			"componentType":5126,
			"count":2,
			"type":"VEC4"
		},
		{
			"bufferView":101,
			"componentType":5126,
			"count":2,
			"type":"VEC3"
		},
		{
			"bufferView":102,
			"componentType":5126,
			"count":2,
			"type":"VEC3"
		},
		{
			"bufferView":103,
			"componentType":5126,
			"count":19,
			"type":"VEC4"
		},
		{
			"bufferView":104,
			"componentType":5126,
			"count":2,
			"type":"VEC3"
		},
		{
			"bufferView":105,
			"componentType":5126,
			"count":2,
			"type":"VEC3"
		},
		{
			"bufferView":106,
			"componentType":5126,
			"count":19,
			"type":"VEC4"
		},
		{
			"bufferView":107,
			"componentType":5126,
			"count":2,
			"type":"VEC3"
		},
		{
			"bufferView":108,
			"componentType":5126,
			"count":2,
			"type":"VEC3"
		},
		{
			"bufferView":109,
			"componentType":5126,
			"count":2,
			"type":"VEC4"
		},
		{
			"bufferView":110,
			"componentType":5126,
			"count":2,
			"type":"VEC3"
		},
		{
			"bufferView":111,
			"componentType":5126,
			"count":2,
			"type":"VEC3"
		},
		{
			"bufferView":112,
			"componentType":5126,
			"count":19,
			"type":"VEC4"
		},
		{
			"bufferView":113,
			"componentType":5126,
			"count":2,
			"type":"VEC3"
		},
		{
			"bufferView":114,
			"componentType":5126,
			"count":2,
			"type":"VEC3"
		},
		{
			"bufferView":115,
			"componentType":5126,
			"count":2,
			"type":"VEC4"
		},
		{
			"bufferView":116,
			"componentType":5126,
			"count":2,
			"type":"VEC3"
		},
		{
			"bufferView":117,
			"componentType":5126,
			"count":2,
			"type":"VEC3"
		},
		{
			"bufferView":118,
			"componentType":5126,
			"count":2,
			"type":"VEC4"
		},
		{
			"bufferView":119,
			"componentType":5126,
			"count":2,
			"type":"VEC3"
		},
		{
			"bufferView":120,
			"componentType":5126,
			"count":2,
			"type":"VEC3"
		},
		{
			"bufferView":121,
			"componentType":5126,
			"count":19,
			"type":"VEC4"
		},
		{
			"bufferView":122,
			"componentType":5126,
			"count":2,
			"type":"VEC3"
		},
		{
			"bufferView":123,
			"componentType":5126,
			"count":2,
			"type":"VEC3"
		},
		{
			"bufferView":124,
			"componentType":5126,
			"count":2,
			"type":"VEC4"
		},
		{
			"bufferView":125,
			"componentType":5126,
			"count":2,
			"type":"VEC3"
		},
		{
			"bufferView":126,
			"componentType":5126,
			"count":2,
			"type":"VEC3"
		},
		{
			"bufferView":127,
			"componentType":5126,
			"count":2,
			"type":"VEC4"
		},
		{
			"bufferView":128,
			"componentType":5126,
			"count":2,
			"type":"VEC3"
		},
		{
			"bufferView":129,
			"componentType":5126,
			"count":2,
			"type":"VEC3"
		},
		{
			"bufferView":130,
			"componentType":5126,
			"count":19,
			"type":"VEC4"
		},
		{
			"bufferView":131,
			"componentType":5126,
			"count":2,
			"type":"VEC3"
		},
		{
			"bufferView":132,
			"componentType":5126,
			"count":2,
			"type":"VEC3"
		},
		{
			"bufferView":133,
			"componentType":5126,
			"count":2,
			"type":"VEC4"
		},
		{
			"bufferView":134,
			"componentType":5126,
			"count":2,
			"type":"VEC3"
		},
		{
			"bufferView":135,
			"componentType":5126,
			"count":2,
			"type":"VEC3"
		},
		{
			"bufferView":136,
			"componentType":5126,
			"count":2,
			"type":"VEC4"
		},
		{
			"bufferView":137,
			"componentType":5126,
			"count":2,
			"type":"VEC3"
		},
		{
			"bufferView":138,
			"componentType":5126,
			"count":61,
			"max":[
				2
			],
			"min":[
				0
			],
			"type":"SCALAR"
		},
		{
			"bufferView":139,
			"componentType":5126,
			"count":61,
			"type":"VEC3"
		},
		{
			"bufferView":140,
			"componentType":5126,
			"count":2,
			"max":[
				2
			],
			"min":[
				0
			],
			"type":"SCALAR"
		},
		{
			"bufferView":141,
			"componentType":5126,
			"count":2,
			"type":"VEC4"
		},
		{
			"bufferView":142,
			"componentType":5126,
			"count":2,
			"type":"VEC3"
		},
		{
			"bufferView":143,
			"componentType":5126,
			"count":2,
			"type":"VEC3"
		},
		{
			"bufferView":144,
			"componentType":5126,
			"count":2,
			"type":"VEC4"
		},
		{
			"bufferView":145,
			"componentType":5126,
			"count":2,
			"type":"VEC3"
		},
		{
			"bufferView":146,
			"componentType":5126,
			"count":2,
			"type":"VEC3"
		},
		{
			"bufferView":147,
			"componentType":5126,
			"count":61,
			"type":"VEC4"
		},
		{
			"bufferView":148,
			"componentType":5126,
			"count":2,
			"type":"VEC3"
		},
		{
			"bufferView":149,
			"componentType":5126,
			"count":2,
			"type":"VEC3"
		},
		{
			"bufferView":150,
			"componentType":5126,
			"count":61,
			"type":"VEC4"
		},
		{
			"bufferView":151,
			"componentType":5126,
			"count":2,
			"type":"VEC3"
		},
		{
			"bufferView":152,
			"componentType":5126,
			"count":2,
			"type":"VEC3"
		},
		{
			"bufferView":153,
			"componentType":5126,
			"count":2,
			"type":"VEC4"
		},
		{
			"bufferView":154,
			"componentType":5126,
			"count":2,
			"type":"VEC3"
		},
		{
			"bufferView":155,
			"componentType":5126,
			"count":2,
			"type":"VEC3"
		},
		{
			"bufferView":156,
			"componentType":5126,
			"count":61,
			"type":"VEC4"
		},
		{
			"bufferView":157,
			"componentType":5126,
			"count":2,
			"type":"VEC3"
		},
		{
			"bufferView":158,
			"componentType":5126,
			"count":2,
			"type":"VEC3"
		},
		{
			"bufferView":159,
			"componentType":5126,
			"count":2,
			"type":"VEC4"
		},
		{
			"bufferView":160,
			"componentType":5126,
			"count":2,
			"type":"VEC3"
		},
		{
			"bufferView":161,
			"componentType":5126,
			"count":2,
			"type":"VEC3"
		},
		{
			"bufferView":162,
			"componentType":5126,
			"count":2,
			"type":"VEC4"
		},
		{
			"bufferView":163,
			"componentType":5126,
			"count":2,
			"type":"VEC3"
		},
		{
			"bufferView":164,
			"componentType":5126,
			"count":2,
			"type":"VEC3"
		},
		{
			"bufferView":165,
			"componentType":5126,
			"count":61,
			"type":"VEC4"
		},
		{
			"bufferView":166,
			"componentType":5126,
			"count":2,
			"type":"VEC3"
		},
		{
			"bufferView":167,
			"componentType":5126,
			"count":2,
			"type":"VEC3"
		},
		{
			"bufferView":168,
			"componentType":5126,
			"count":61,
			"type":"VEC4"
		},
		{
			"bufferView":169,
			"componentType":5126,
			"count":2,
			"type":"VEC3"
		},
		{
			"bufferView":170,
			"componentType":5126,
			"count":2,
			"type":"VEC3"
		},
		{
			"bufferView":171,
			"componentType":5126,
			"count":2,
			"type":"VEC4"
		},
		{
			"bufferView":172,
			"componentType":5126,
			"count":2,
			"type":"VEC3"
		},
		{
			"bufferView":173,
			"componentType":5126,
			"count":2,
			"type":"VEC3"
		},
		{
			"bufferView":174,
			"componentType":5126,
			"count":2,
			"type":"VEC4"
		},
		{
			"bufferView":175,
			"componentType":5126,
			"count":2,
			"type":"VEC3"
		},
		{
			"bufferView":176,
			"componentType":5126,
			"count":2,
			"type":"VEC3"
		},
		{
			"bufferView":177,
			"componentType":5126,
			"count":61,
			"type":"VEC4"
		},
		{
			"bufferView":178,
			"componentType":5126,
			"count":2,
			"type":"VEC3"
		},
		{
			"bufferView":179,
			"componentType":5126,
			"count":2,
			"type":"VEC3"
		},
		{
			"bufferView":180,
			"componentType":5126,
			"count":2,
			"type":"VEC4"
		},
		{
			"bufferView":181,
			"componentType":5126,
			"count":2,
			"type":"VEC3"
		},
		{
			"bufferView":182,
			"componentType":5126,
			"count":2,
			"type":"VEC3"
		},
		{
			"bufferView":183,
			"componentType":5126,
			"count":2,
			"type":"VEC4"
		},
		{
			"bufferView":184,
			"componentType":5126,
			"count":2,
			"type":"VEC3"
		},
		{
			"bufferView":185,
			"componentType":5126,
			"count":2,
			"type":"VEC3"
		},
		{
			"bufferView":186,
			"componentType":5126,
			"count":2,
			"type":"VEC4"
		},
		{
			"bufferView":187,
			"componentType":5126,
			"count":2,
			"type":"VEC3"
		},
		{
			"bufferView":188,
			"componentType":5126,
			"count":2,
			"type":"VEC3"
		},
		{
			"bufferView":189,
			"componentType":5126,
			"count":2,
			"type":"VEC4"
		},
		{
			"bufferView":190,
			"componentType":5126,
			"count":2,
			"type":"VEC3"
		},
		{
			"bufferView":191,
			"componentType":5126,
			"count":2,
			"type":"VEC3"
		},
		{
			"bufferView":192,
			"componentType":5126,
			"count":2,
			"type":"VEC4"
		},
		{
			"bufferView":193,
			"componentType":5126,
			"count":2,
			"type":"VEC3"
		},
		{
			"bufferView":194,
			"componentType":5126,
			"count":2,
			"type":"VEC3"
		},
		{
			"bufferView":195,
			"componentType":5126,
			"count":2,
			"type":"VEC4"
		},
		{
			"bufferView":196,
			"componentType":5126,
			"count":2,
			"type":"VEC3"
		},
		{
			"bufferView":197,
			"componentType":5126,
			"count":2,
			"type":"VEC3"
		},
		{
			"bufferView":198,
			"componentType":5126,
			"count":2,
			"type":"VEC4"
		},
		{
			"bufferView":199,
			"componentType":5126,
			"count":2,
			"type":"VEC3"
		},
		{
			"bufferView":200,
			"componentType":5126,
			"count":2,
			"type":"VEC3"
		},
		{
			"bufferView":201,
			"componentType":5126,
			"count":2,
			"type":"VEC4"
		},
		{
			"bufferView":202,
			"componentType":5126,
			"count":2,
			"type":"VEC3"
		},
		{
			"bufferView":203,
			"componentType":5126,
			"count":31,
			"max":[
				1
			],
			"min":[
				0
			],
			"type":"SCALAR"
		},
		{
			"bufferView":204,
			"componentType":5126,
			"count":31,
			"type":"VEC3"
		},
		{
			"bufferView":205,
			"componentType":5126,
			"count":31,
			"type":"VEC4"
		},
		{
			"bufferView":206,
			"componentType":5126,
			"count":2,
			"max":[
				1
			],
			"min":[
				0
			],
			"type":"SCALAR"
		},
		{
			"bufferView":207,
			"componentType":5126,
			"count":2,
			"type":"VEC3"
		},
		{
			"bufferView":208,
			"componentType":5126,
			"count":2,
			"type":"VEC3"
		},
		{
			"bufferView":209,
			"componentType":5126,
			"count":2,
			"type":"VEC4"
		},
		{
			"bufferView":210,
			"componentType":5126,
			"count":2,
			"type":"VEC3"
		},
		{
			"bufferView":211,
			"componentType":5126,
			"count":2,
			"type":"VEC3"
		},
		{
			"bufferView":212,
			"componentType":5126,
			"count":31,
			"type":"VEC4"
		},
		{
			"bufferView":213,
			"componentType":5126,
			"count":2,
			"type":"VEC3"
		},
		{
			"bufferView":214,
			"componentType":5126,
			"count":2,
			"type":"VEC3"
		},
		{
			"bufferView":215,
			"componentType":5126,
			"count":31,
			"type":"VEC4"
		},
		{
			"bufferView":216,
			"componentType":5126,
			"count":2,
			"type":"VEC3"
		},
		{
			"bufferView":217,
			"componentType":5126,
			"count":2,
			"type":"VEC3"
		},
		{
			"bufferView":218,
			"componentType":5126,
			"count":2,
			"type":"VEC4"
		},
		{
			"bufferView":219,
			"componentType":5126,
			"count":2,
			"type":"VEC3"
		},
		{
			"bufferView":220,
			"componentType":5126,
			"count":2,
			"type":"VEC3"
		},
		{
			"bufferView":221,
			"componentType":5126,
			"count":31,
			"type":"VEC4"
		},
		{
			"bufferView":222,
			"componentType":5126,
			"count":2,
			"type":"VEC3"
		},
		{
			"bufferView":223,
			"componentType":5126,
			"count":2,
			"type":"VEC3"
		},
		{
			"bufferView":224,
			"componentType":5126,
			"count":2,
			"type":"VEC4"
		},
		{
			"bufferView":225,
			"componentType":5126,
			"count":2,
			"type":"VEC3"
		},
		{
			"bufferView":226,
			"componentType":5126,
			"count":2,
			"type":"VEC3"
		},
		{
			"bufferView":227,
			"componentType":5126,
			"count":2,
			"type":"VEC4"
		},
		{
			"bufferView":228,
			"componentType":5126,
			"count":2,
			"type":"VEC3"
		},
		{
			"bufferView":229,
			"componentType":5126,
			"count":2,
			"type":"VEC3"
		},
		{
			"bufferView":230,
			"componentType":5126,
			"count":2,
			"type":"VEC4"
		},
		{
			"bufferView":231,
			"componentType":5126,
			"count":2,
			"type":"VEC3"
		},
		{
			"bufferView":232,
			"componentType":5126,
			"count":2,
			"type":"VEC3"
		},
		{
			"bufferView":233,
			"componentType":5126,
			"count":31,
			"type":"VEC4"
		},
		{
			"bufferView":234,
			"componentType":5126,
			"count":2,
			"type":"VEC3"
		},
		{
			"bufferView":235,
			"componentType":5126,
			"count":2,
			"type":"VEC3"
		},
		{
			"bufferView":236,
			"componentType":5126,
			"count":2,
			"type":"VEC4"
		},
		{
			"bufferView":237,
			"componentType":5126,
			"count":2,
			"type":"VEC3"
		},
		{
			"bufferView":238,
			"componentType":5126,
			"count":2,
			"type":"VEC3"
		},
		{
			"bufferView":239,
			"componentType":5126,
			"count":2,
			"type":"VEC4"
		},
		{
			"bufferView":240,
			"componentType":5126,
			"count":2,
			"type":"VEC3"
		},
		{
			"bufferView":241,
			"componentType":5126,
			"count":2,
			"type":"VEC3"
		},
		{
			"bufferView":242,
			"componentType":5126,
			"count":31,
			"type":"VEC4"
		},
		{
			"bufferView":243,
			"componentType":5126,
			"count":2,
			"type":"VEC3"
		},
		{
			"bufferView":244,
			"componentType":5126,
			"count":2,
			"type":"VEC3"
		},
		{
			"bufferView":245,
			"componentType":5126,
			"count":2,
			"type":"VEC4"
		},
		{
			"bufferView":246,
			"componentType":5126,
			"count":2,
			"type":"VEC3"
		},
		{
			"bufferView":247,
			"componentType":5126,
			"count":2,
			"type":"VEC3"
		},
		{
			"bufferView":248,
			"componentType":5126,
			"count":2,
			"type":"VEC4"
		},
		{
			"bufferView":249,
			"componentType":5126,
			"count":2,
			"type":"VEC3"
		},
		{
			"bufferView":250,
			"componentType":5126,
			"count":2,
			"type":"VEC3"
		},
		{
			"bufferView":251,
			"componentType":5126,
			"count":31,
			"type":"VEC4"
		},
		{
			"bufferView":252,
			"componentType":5126,
			"count":2,
			"type":"VEC3"
		},
		{
			"bufferView":253,
			"componentType":5126,
			"count":2,
			"type":"VEC3"
		},
		{
			"bufferView":254,
			"componentType":5126,
			"count":31,
			"type":"VEC4"
		},
		{
			"bufferView":255,
			"componentType":5126,
			"count":2,
			"type":"VEC3"
		},
		{
			"bufferView":256,
			"componentType":5126,
			"count":2,
			"type":"VEC3"
		},
		{
			"bufferView":257,
			"componentType":5126,
			"count":31,
			"type":"VEC4"
		},
		{
			"bufferView":258,
			"componentType":5126,
			"count":2,
			"type":"VEC3"
		},
		{
			"bufferView":259,
			"componentType":5126,
			"count":2,
			"type":"VEC3"
		},
		{
			"bufferView":260,
			"componentType":5126,
			"count":31,
			"type":"VEC4"
		},
		{
			"bufferView":261,
			"componentType":5126,
			"count":2,
			"type":"VEC3"
		},
		{
			"bufferView":262,
			"componentType":5126,
			"count":2,
			"type":"VEC3"
		},
		{
			"bufferView":263,
			"componentType":5126,
			"count":31,
			"type":"VEC4"
		},
		{
			"bufferView":264,
			"componentType":5126,
			"count":2,
			"type":"VEC3"
		},
		{
			"bufferView":265,
			"componentType":5126,
			"count":2,
			"type":"VEC3"
		},
		{
			"bufferView":266,
			"componentType":5126,
			"count":31,
			"type":"VEC4"
		},
		{
			"bufferView":267,
			"componentType":5126,
			"count":2,
			"type":"VEC3"
		}
	],
	"bufferViews":[
		{
			"buffer":0,
			"byteLength":17244,
			"byteOffset":0,
			"target":34962
		},
		{
			"buffer":0,
			"byteLength":17244,
			"byteOffset":17244,
			"target":34962
		},
		{
			"buffer":0,
			"byteLength":11496,
			"byteOffset":34488,
			"target":34962
		},
		{
			"buffer":0,
			"byteLength":5748,
			"byteOffset":45984,
			"target":34962
		},
		{
			"buffer":0,
			"byteLength":22992,
			"byteOffset":51732,
			"target":34962
		},
		{
			"buffer":0,
			"byteLength":11736,
			"byteOffset":74724,
			"target":34963
		},
		{
			"buffer":0,
			"byteLength":33480,
			"byteOffset":86460,
			"target":34962
		},
		{
			"buffer":0,
			"byteLength":33480,
			"byteOffset":119940,
			"target":34962
		},
		{
			"buffer":0,
			"byteLength":22320,
			"byteOffset":153420,
			"target":34962
		},
		{
			"buffer":0,
			"byteLength":11160,
			"byteOffset":175740,
			"target":34962
		},
		{
			"buffer":0,
			"byteLength":44640,
			"byteOffset":186900,
			"target":34962
		},
		{
			"buffer":0,
			"byteLength":16656,
			"byteOffset":231540,
			"target":34963
		},
		{
			"buffer":0,
			"byteLength":17532,
			"byteOffset":248196,
			"target":34962
		},
		{
			"buffer":0,
			"byteLength":17532,
			"byteOffset":265728,
			"target":34962
		},
		{
			"buffer":0,
			"byteLength":11688,
			"byteOffset":283260,
			"target":34962
		},
		{
			"buffer":0,
			"byteLength":5844,
			"byteOffset":294948,
			"target":34962
		},
		{
			"buffer":0,
			"byteLength":23376,
			"byteOffset":300792,
			"target":34962
		},
		{
			"buffer":0,
			"byteLength":13296,
			"byteOffset":324168,
			"target":34963
		},
		{
			"buffer":0,
			"byteLength":780,
			"byteOffset":337464,
			"target":34962
		},
		{
			"buffer":0,
			"byteLength":780,
			"byteOffset":338244,
			"target":34962
		},
		{
			"buffer":0,
			"byteLength":520,
			"byteOffset":339024,
			"target":34962
		},
		{
			"buffer":0,
			"byteLength":260,
			"byteOffset":339544,
			"target":34962
		},
		{
			"buffer":0,
			"byteLength":1040,
			"byteOffset":339804,
			"target":34962
		},
		{
			"buffer":0,
			"byteLength":384,
			"byteOffset":340844,
			"target":34963
		},
		{
			"buffer":0,
			"byteLength":11724,
			"byteOffset":341228,
			"target":34962
		},
		{
			"buffer":0,
			"byteLength":11724,
			"byteOffset":352952,
			"target":34962
		},
		{
			"buffer":0,
			"byteLength":7816,
			"byteOffset":364676,
			"target":34962
		},
		{
			"buffer":0,
			"byteLength":3908,
			"byteOffset":372492,
			"target":34962
		},
		{
			"buffer":0,
			"byteLength":15632,
			"byteOffset":376400,
			"target":34962
		},
		{
			"buffer":0,
			"byteLength":8664,
			"byteOffset":392032,
			"target":34963
		},
		{
			"buffer":0,
			"byteLength":12408,
			"byteOffset":400696,
			"target":34962
		},
		{
			"buffer":0,
			"byteLength":12408,
			"byteOffset":413104,
			"target":34962
		},
		{
			"buffer":0,
			"byteLength":8272,
			"byteOffset":425512,
			"target":34962
		},
		{
			"buffer":0,
			"byteLength":4136,
			"byteOffset":433784,
			"target":34962
		},
		{
			"buffer":0,
			"byteLength":16544,
			"byteOffset":437920,
			"target":34962
		},
		{
			"buffer":0,
			"byteLength":9216,
			"byteOffset":454464,
			"target":34963
		},
		{
			"buffer":0,
			"byteLength":3648,
			"byteOffset":463680,
			"target":34962
		},
		{
			"buffer":0,
			"byteLength":3648,
			"byteOffset":467328,
			"target":34962
		},
		{
			"buffer":0,
			"byteLength":2432,
			"byteOffset":470976,
			"target":34962
		},
		{
			"buffer":0,
			"byteLength":1216,
			"byteOffset":473408,
			"target":34962
		},
		{
			"buffer":0,
			"byteLength":4864,
			"byteOffset":474624,
			"target":34962
		},
		{
			"buffer":0,
			"byteLength":2304,
			"byteOffset":479488,
			"target":34963
		},
		{
			"buffer":0,
			"byteLength":2640,
			"byteOffset":481792,
			"target":34962
		},
		{
			"buffer":0,
			"byteLength":2640,
			"byteOffset":484432,
			"target":34962
		},
		{
			"buffer":0,
			"byteLength":1760,
			"byteOffset":487072,
			"target":34962
		},
		{
			"buffer":0,
			"byteLength":880,
			"byteOffset":488832,
			"target":34962
		},
		{
			"buffer":0,
			"byteLength":3520,
			"byteOffset":489712,
			"target":34962
		},
		{
			"buffer":0,
			"byteLength":1440,
			"byteOffset":493232,
			"target":34963
		},
		{
			"buffer":0,
			"byteLength":1920,
			"byteOffset":494672,
			"target":34962
		},
		{
			"buffer":0,
			"byteLength":1920,
			"byteOffset":496592,
			"target":34962
		},
		{
			"buffer":0,
			"byteLength":1280,
			"byteOffset":498512,
			"target":34962
		},
		{
			"buffer":0,
			"byteLength":640,
			"byteOffset":499792,
			"target":34962
		},
		{
			"buffer":0,
			"byteLength":2560,
			"byteOffset":500432,
			"target":34962
		},
		{
			"buffer":0,
			"byteLength":960,
			"byteOffset":502992,
			"target":34963
		},
		{
			"buffer":0,
			"byteLength":1176,
			"byteOffset":503952,
			"target":34962
		},
		{
			"buffer":0,
			"byteLength":1176,
			"byteOffset":505128,
			"target":34962
		},
		{
			"buffer":0,
			"byteLength":784,
			"byteOffset":506304,
			"target":34962
		},
		{
			"buffer":0,
			"byteLength":392,
			"byteOffset":507088,
			"target":34962
		},
		{
			"buffer":0,
			"byteLength":1568,
			"byteOffset":507480,
			"target":34962
		},
		{
			"buffer":0,
			"byteLength":720,
			"byteOffset":509048,
			"target":34963
		},
		{
			"buffer":0,
			"byteLength":288,
			"byteOffset":509768,
			"target":34962
		},
		{
			"buffer":0,
			"byteLength":288,
			"byteOffset":510056,
			"target":34962
		},
		{
			"buffer":0,
			"byteLength":192,
			"byteOffset":510344,
			"target":34962
		},
		{
			"buffer":0,
			"byteLength":96,
			"byteOffset":510536,
			"target":34962
		},
		{
			"buffer":0,
			"byteLength":384,
			"byteOffset":510632,
			"target":34962
		},
		{
			"buffer":0,
			"byteLength":72,
			"byteOffset":511016,
			"target":34963
		},
		{
			"buffer":0,
			"byteLength":10752,
			"byteOffset":511088,
			"target":34962
		},
		{
			"buffer":0,
			"byteLength":10752,
			"byteOffset":521840,
			"target":34962
		},
		{
			"buffer":0,
			"byteLength":7168,
			"byteOffset":532592,
			"target":34962
		},
		{
			"buffer":0,
			"byteLength":3584,
			"byteOffset":539760,
			"target":34962
		},
		{
			"buffer":0,
			"byteLength":14336,
			"byteOffset":543344,
			"target":34962
		},
		{
			"buffer":0,
			"byteLength":6048,
			"byteOffset":557680,
			"target":34963
		},
		{
			"buffer":0,
			"byteLength":1344,
			"byteOffset":563728
		},
		{
			"buffer":0,
			"byteLength":8,
			"byteOffset":565072
		},
		{
			"buffer":0,
			"byteLength":24,
			"byteOffset":565080
		},
		{
			"buffer":0,
			"byteLength":32,
			"byteOffset":565104
		},
		{
			"buffer":0,
			"byteLength":24,
			"byteOffset":565136
		},
		{
			"buffer":0,
			"byteLength":24,
			"byteOffset":565160
		},
		{
			"buffer":0,
			"byteLength":32,
			"byteOffset":565184
		},
		{
			"buffer":0,
			"byteLength":24,
			"byteOffset":565216
		},
		{
			"buffer":0,
			"byteLength":24,
			"byteOffset":565240
		},
		{
			"buffer":0,
			"byteLength":76,
			"byteOffset":565264
		},
		{
			"buffer":0,
			"byteLength":304,
			"byteOffset":565340
		},
		{
			"buffer":0,
			"byteLength":24,
			"byteOffset":565644
		},
		{
			"buffer":0,
			"byteLength":24,
			"byteOffset":565668
		},
		{
			"buffer":0,
			"byteLength":32,
			"byteOffset":565692
		},
		{
			"buffer":0,
			"byteLength":24,
			"byteOffset":565724
		},
		{
			"buffer":0,
			"byteLength":24,
			"byteOffset":565748
		},
		{
			"buffer":0,
			"byteLength":32,
			"byteOffset":565772
		},
		{
			"buffer":0,
			"byteLength":24,
			"byteOffset":565804
		},
		{
			"buffer":0,
			"byteLength":24,
			"byteOffset":565828
		},
		{
			"buffer":0,
			"byteLength":32,
			"byteOffset":565852
		},
		{
			"buffer":0,
			"byteLength":24,
			"byteOffset":565884
		},
		{
			"buffer":0,
			"byteLength":24,
			"byteOffset":565908
		},
		{
			"buffer":0,
			"byteLength":32,
			"byteOffset":565932
		},
		{
			"buffer":0,
			"byteLength":24,
			"byteOffset":565964
		},
		{
			"buffer":0,
			"byteLength":24,
			"byteOffset":565988
		},
		{
			"buffer":0,
			"byteLength":32,
			"byteOffset":566012
		},
		{
			"buffer":0,
			"byteLength":24,
			"byteOffset":566044
		},
		{
			"buffer":0,
			"byteLength":24,
			"byteOffset":566068
		},
		{
			"buffer":0,
			"byteLength":32,
			"byteOffset":566092
		},
		{
			"buffer":0,
			"byteLength":24,
			"byteOffset":566124
		},
		{
			"buffer":0,
			"byteLength":24,
			"byteOffset":566148
		},
		{
			"buffer":0,
			"byteLength":304,
			"byteOffset":566172
		},
		{
			"buffer":0,
			"byteLength":24,
			"byteOffset":566476
		},
		{
			"buffer":0,
			"byteLength":24,
			"byteOffset":566500
		},
		{
			"buffer":0,
			"byteLength":304,
			"byteOffset":566524
		},
		{
			"buffer":0,
			"byteLength":24,
			"byteOffset":566828
		},
		{
			"buffer":0,
			"byteLength":24,
			"byteOffset":566852
		},
		{
			"buffer":0,
			"byteLength":32,
			"byteOffset":566876
		},
		{
			"buffer":0,
			"byteLength":24,
			"byteOffset":566908
		},
		{
			"buffer":0,
			"byteLength":24,
			"byteOffset":566932
		},
		{
			"buffer":0,
			"byteLength":304,
			"byteOffset":566956
		},
		{
			"buffer":0,
			"byteLength":24,
			"byteOffset":567260
		},
		{
			"buffer":0,
			"byteLength":24,
			"byteOffset":567284
		},
		{
			"buffer":0,
			"byteLength":32,
			"byteOffset":567308
		},
		{
			"buffer":0,
			"byteLength":24,
			"byteOffset":567340
		},
		{
			"buffer":0,
			"byteLength":24,
			"byteOffset":567364
		},
		{
			"buffer":0,
			"byteLength":32,
			"byteOffset":567388
		},
		{
			"buffer":0,
			"byteLength":24,
			"byteOffset":567420
		},
		{
			"buffer":0,
			"byteLength":24,
			"byteOffset":567444
		},
		{
			"buffer":0,
			"byteLength":304,
			"byteOffset":567468
		},
		{
			"buffer":0,
			"byteLength":24,
			"byteOffset":567772
		},
		{
			"buffer":0,
			"byteLength":24,
			"byteOffset":567796
		},
		{
			"buffer":0,
			"byteLength":32,
			"byteOffset":567820
		},
		{
			"buffer":0,
			"byteLength":24,
			"byteOffset":567852
		},
		{
			"buffer":0,
			"byteLength":24,
			"byteOffset":567876
		},
		{
			"buffer":0,
			"byteLength":32,
			"byteOffset":567900
		},
		{
			"buffer":0,
			"byteLength":24,
			"byteOffset":567932
		},
		{
			"buffer":0,
			"byteLength":24,
			"byteOffset":567956
		},
		{
			"buffer":0,
			"byteLength":304,
			"byteOffset":567980
		},
		{
			"buffer":0,
			"byteLength":24,
			"byteOffset":568284
		},
		{
			"buffer":0,
			"byteLength":24,
			"byteOffset":568308
		},
		{
			"buffer":0,
			"byteLength":32,
			"byteOffset":568332
		},
		{
			"buffer":0,
			"byteLength":24,
			"byteOffset":568364
		},
		{
			"buffer":0,
			"byteLength":24,
			"byteOffset":568388
		},
		{
			"buffer":0,
			"byteLength":32,
			"byteOffset":568412
		},
		{
			"buffer":0,
			"byteLength":24,
			"byteOffset":568444
		},
		{
			"buffer":0,
			"byteLength":244,
			"byteOffset":568468
		},
		{
			"buffer":0,
			"byteLength":732,
			"byteOffset":568712
		},
		{
			"buffer":0,
			"byteLength":8,
			"byteOffset":569444
		},
		{
			"buffer":0,
			"byteLength":32,
			"byteOffset":569452
		},
		{
			"buffer":0,
			"byteLength":24,
			"byteOffset":569484
		},
		{
			"buffer":0,
			"byteLength":24,
			"byteOffset":569508
		},
		{
			"buffer":0,
			"byteLength":32,
			"byteOffset":569532
		},
		{
			"buffer":0,
			"byteLength":24,
			"byteOffset":569564
		},
		{
			"buffer":0,
			"byteLength":24,
			"byteOffset":569588
		},
		{
			"buffer":0,
			"byteLength":976,
			"byteOffset":569612
		},
		{
			"buffer":0,
			"byteLength":24,
			"byteOffset":570588
		},
		{
			"buffer":0,
			"byteLength":24,
			"byteOffset":570612
		},
		{
			"buffer":0,
			"byteLength":976,
			"byteOffset":570636
		},
		{
			"buffer":0,
			"byteLength":24,
			"byteOffset":571612
		},
		{
			"buffer":0,
			"byteLength":24,
			"byteOffset":571636
		},
		{
			"buffer":0,
			"byteLength":32,
			"byteOffset":571660
		},
		{
			"buffer":0,
			"byteLength":24,
			"byteOffset":571692
		},
		{
			"buffer":0,
			"byteLength":24,
			"byteOffset":571716
		},
		{
			"buffer":0,
			"byteLength":976,
			"byteOffset":571740
		},
		{
			"buffer":0,
			"byteLength":24,
			"byteOffset":572716
		},
		{
			"buffer":0,
			"byteLength":24,
			"byteOffset":572740
		},
		{
			"buffer":0,
			"byteLength":32,
			"byteOffset":572764
		},
		{
			"buffer":0,
			"byteLength":24,
			"byteOffset":572796
		},
		{
			"buffer":0,
			"byteLength":24,
			"byteOffset":572820
		},
		{
			"buffer":0,
			"byteLength":32,
			"byteOffset":572844
		},
		{
			"buffer":0,
			"byteLength":24,
			"byteOffset":572876
		},
		{
			"buffer":0,
			"byteLength":24,
			"byteOffset":572900
		},
		{
			"buffer":0,
			"byteLength":976,
			"byteOffset":572924
		},
		{
			"buffer":0,
			"byteLength":24,
			"byteOffset":573900
		},
		{
			"buffer":0,
			"byteLength":24,
			"byteOffset":573924
		},
		{
			"buffer":0,
			"byteLength":976,
			"byteOffset":573948
		},
		{
			"buffer":0,
			"byteLength":24,
			"byteOffset":574924
		},
		{
			"buffer":0,
			"byteLength":24,
			"byteOffset":574948
		},
		{
			"buffer":0,
			"byteLength":32,
			"byteOffset":574972
		},
		{
			"buffer":0,
			"byteLength":24,
			"byteOffset":575004
		},
		{
			"buffer":0,
			"byteLength":24,
			"byteOffset":575028
		},
		{
			"buffer":0,
			"byteLength":32,
			"byteOffset":575052
		},
		{
			"buffer":0,
			"byteLength":24,
			"byteOffset":575084
		},
		{
			"buffer":0,
			"byteLength":24,
			"byteOffset":575108
		},
		{
			"buffer":0,
			"byteLength":976,
			"byteOffset":575132
		},
		{
			"buffer":0,
			"byteLength":24,
			"byteOffset":576108
		},
		{
			"buffer":0,
			"byteLength":24,
			"byteOffset":576132
		},
		{
			"buffer":0,
			"byteLength":32,
			"byteOffset":576156
		},
		{
			"buffer":0,
			"byteLength":24,
			"byteOffset":576188
		},
		{
			"buffer":0,
			"byteLength":24,
			"byteOffset":576212
		},
		{
			"buffer":0,
			"byteLength":32,
			"byteOffset":576236
		},
		{
			"buffer":0,
			"byteLength":24,
			"byteOffset":576268
		},
		{
			"buffer":0,
			"byteLength":24,
			"byteOffset":576292
		},
		{
			"buffer":0,
			"byteLength":32,
			"byteOffset":576316
		},
		{
			"buffer":0,
			"byteLength":24,
			"byteOffset":576348
		},
		{
			"buffer":0,
			"byteLength":24,
			"byteOffset":576372
		},
		{
			"buffer":0,
			"byteLength":32,
			"byteOffset":576396
		},
		{
			"buffer":0,
			"byteLength":24,
			"byteOffset":576428
		},
		{
			"buffer":0,
			"byteLength":24,
			"byteOffset":576452
		},
		{
			"buffer":0,
			"byteLength":32,
			"byteOffset":576476
		},
		{
			"buffer":0,
			"byteLength":24,
			"byteOffset":576508
		},
		{
			"buffer":0,
			"byteLength":24,
			"byteOffset":576532
		},
		{
			"buffer":0,
			"byteLength":32,
			"byteOffset":576556
		},
		{
			"buffer":0,
			"byteLength":24,
			"byteOffset":576588
		},
		{
			"buffer":0,
			"byteLength":24,
			"byteOffset":576612
		},
		{
			"buffer":0,
			"byteLength":32,
			"byteOffset":576636
		},
		{
			"buffer":0,
			"byteLength":24,
			"byteOffset":576668
		},
		{
			"buffer":0,
			"byteLength":24,
			"byteOffset":576692
		},
		{
			"buffer":0,
			"byteLength":32,
			"byteOffset":576716
		},
		{
			"buffer":0,
			"byteLength":24,
			"byteOffset":576748
		},
		{
			"buffer":0,
			"byteLength":124,
			"byteOffset":576772
		},
		{
			"buffer":0,
			"byteLength":372,
			"byteOffset":576896
		},
		{
			"buffer":0,
			"byteLength":496,
			"byteOffset":577268
		},
		{
			"buffer":0,
			"byteLength":8,
			"byteOffset":577764
		},
		{
			"buffer":0,
			"byteLength":24,
			"byteOffset":577772
		},
		{
			"buffer":0,
			"byteLength":24,
			"byteOffset":577796
		},
		{
			"buffer":0,
			"byteLength":32,
			"byteOffset":577820
		},
		{
			"buffer":0,
			"byteLength":24,
			"byteOffset":577852
		},
		{
			"buffer":0,
			"byteLength":24,
			"byteOffset":577876
		},
		{
			"buffer":0,
			"byteLength":496,
			"byteOffset":577900
		},
		{
			"buffer":0,
			"byteLength":24,
			"byteOffset":578396
		},
		{
			"buffer":0,
			"byteLength":24,
			"byteOffset":578420
		},
		{
			"buffer":0,
			"byteLength":496,
			"byteOffset":578444
		},
		{
			"buffer":0,
			"byteLength":24,
			"byteOffset":578940
		},
		{
			"buffer":0,
			"byteLength":24,
			"byteOffset":578964
		},
		{
			"buffer":0,
			"byteLength":32,
			"byteOffset":578988
		},
		{
			"buffer":0,
			"byteLength":24,
			"byteOffset":579020
		},
		{
			"buffer":0,
			"byteLength":24,
			"byteOffset":579044
		},
		{
			"buffer":0,
			"byteLength":496,
			"byteOffset":579068
		},
		{
			"buffer":0,
			"byteLength":24,
			"byteOffset":579564
		},
		{
			"buffer":0,
			"byteLength":24,
			"byteOffset":579588
		},
		{
			"buffer":0,
			"byteLength":32,
			"byteOffset":579612
		},
		{
			"buffer":0,
			"byteLength":24,
			"byteOffset":579644
		},
		{
			"buffer":0,
			"byteLength":24,
			"byteOffset":579668
		},
		{
			"buffer":0,
			"byteLength":32,
			"byteOffset":579692
		},
		{
			"buffer":0,
			"byteLength":24,
			"byteOffset":579724
		},
		{
			"buffer":0,
			"byteLength":24,
			"byteOffset":579748
		},
		{
			"buffer":0,
			"byteLength":32,
			"byteOffset":579772
		},
		{
			"buffer":0,
			"byteLength":24,
			"byteOffset":579804
		},
		{
			"buffer":0,
			"byteLength":24,
			"byteOffset":579828
		},
		{
			"buffer":0,
			"byteLength":496,
			"byteOffset":579852
		},
		{
			"buffer":0,
			"byteLength":24,
			"byteOffset":580348
		},
		{
			"buffer":0,
			"byteLength":24,
			"byteOffset":580372
		},
		{
			"buffer":0,
			"byteLength":32,
			"byteOffset":580396
		},
		{
			"buffer":0,
			"byteLength":24,
			"byteOffset":580428
		},
		{
			"buffer":0,
			"byteLength":24,
			"byteOffset":580452
		},
		{
			"buffer":0,
			"byteLength":32,
			"byteOffset":580476
		},
		{
			"buffer":0,
			"byteLength":24,
			"byteOffset":580508
		},
		{
			"buffer":0,
			"byteLength":24,
			"byteOffset":580532
		},
		{
			"buffer":0,
			"byteLength":496,
			"byteOffset":580556
		},
		{
			"buffer":0,
			"byteLength":24,
			"byteOffset":581052
		},
		{
			"buffer":0,
			"byteLength":24,
			"byteOffset":581076
		},
		{
			"buffer":0,
			"byteLength":32,
			"byteOffset":581100
		},
		{
			"buffer":0,
			"byteLength":24,
			"byteOffset":581132
		},
		{
			"buffer":0,
			"byteLength":24,
			"byteOffset":581156
		},
		{
			"buffer":0,
			"byteLength":32,
			"byteOffset":581180
		},
		{
			"buffer":0,
			"byteLength":24,
			"byteOffset":581212
		},
		{
			"buffer":0,
			"byteLength":24,
			"byteOffset":581236
		},
		{
			"buffer":0,
			"byteLength":496,
			"byteOffset":581260
		},
		{
			"buffer":0,
			"byteLength":24,
			"byteOffset":581756
		},
		{
			"buffer":0,
			"byteLength":24,
			"byteOffset":581780
		},
		{
			"buffer":0,
			"byteLength":496,
			"byteOffset":581804
		},
		{
			"buffer":0,
			"byteLength":24,
			"byteOffset":582300
		},
		{
			"buffer":0,
			"byteLength":24,
			"byteOffset":582324
		},
		{
			"buffer":0,
			"byteLength":496,
			"byteOffset":582348
		},
		{
			"buffer":0,
			"byteLength":24,
			"byteOffset":582844
		},
		{
			"buffer":0,
			"byteLength":24,
			"byteOffset":582868
		},
		{
			"buffer":0,
			"byteLength":496,
			"byteOffset":582892
		},
		{
			"buffer":0,
			"byteLength":24,
			"byteOffset":583388
		},
		{
			"buffer":0,
			"byteLength":24,
			"byteOffset":583412
		},
		{
			"buffer":0,
			"byteLength":496,
			"byteOffset":583436
		},
		{
			"buffer":0,
			"byteLength":24,
			"byteOffset":583932
		},
		{
			"buffer":0,
			"byteLength":24,
			"byteOffset":583956
		},
		{
			"buffer":0,
			"byteLength":496,
			"byteOffset":583980
		},
		{
			"buffer":0,
			"byteLength":24,
			"byteOffset":584476
		}
	],
	"samplers":[
		{
			"magFilter":9729,
			"minFilter":9987
		}
	],
	"buffers":[
		{
			"byteLength":584500,
			"uri":"deeno.bin"
		}
	]
}
