{
	"asset":{
		"generator":"Khronos glTF Blender I/O v4.2.57",
		"version":"2.0"
	},
	"extensionsUsed":[
		"KHR_materials_clearcoat",
		"KHR_materials_sheen"
	],
	"scene":0,
	"scenes":[
		{
			"name":"Scene",
			"nodes":[
				18
			]
		}
	],
	"nodes":[
		{
			"name":"head",
			"translation":[
				0,
				0.11199986934661865,
				0
			]
		},
		{
			"children":[
				0
			],
			"name":"neck",
			"translation":[
				0,
				0.2352001667022705,
				0
			]
		},
		{
			"name":"hand.R",
			"rotation":[
				-0.0028319242410361767,
				-0.02058551087975502,
				0.022130105644464493,
				0.9995391368865967
			],
			"translation":[
				1.1932570487260818e-08,
				0.28193411231040955,
				-1.1175870895385742e-08
			]
		},
		{
			"children":[
				2
			],
			"name":"forearm.R",
			"rotation":[
				0.0478680357336998,
				-0.06073947995901108,
				0.07015369832515717,
				0.9945339560508728
			],
			"scale":[
				0.9999998807907104,
				0.9999998211860657,
				0.9999998807907104
			],
			"translation":[
				2.3515895009040833e-08,
				0.309454083442688,
				-6.51925802230835e-09
			]
		},
		{
			"children":[
				3
			],
			"name":"upper_arm.R",
			"rotation":[
				0.988559901714325,
				0.10654307156801224,
				0.1065424382686615,
				0.006823010742664337
			],
			"scale":[
				1.0000048875808716,
				1.0000003576278687,
				1.0000001192092896
			],
			"translation":[
				0.24192000925540924,
				0.17920005321502686,
				0
			]
		},
		{
			"name":"hand.L",
			"rotation":[
				-0.0028319242410361767,
				0.02058551087975502,
				-0.022130105644464493,
				0.9995391368865967
			],
			"translation":[
				-1.1932570487260818e-08,
				0.28193411231040955,
				-1.1175870895385742e-08
			]
		},
		{
			"children":[
				5
			],
			"name":"forearm.L",
			"rotation":[
				0.0478680357336998,
				0.06073947995901108,
				-0.07015369832515717,
				0.9945339560508728
			],
			"scale":[
				0.9999998807907104,
				0.9999998211860657,
				0.9999998807907104
			],
			"translation":[
				-2.3515895009040833e-08,
				0.309454083442688,
				-6.51925802230835e-09
			]
		},
		{
			"children":[
				6
			],
			"name":"upper_arm.L",
			"rotation":[
				0.988559901714325,
				-0.10654307156801224,
				-0.1065424382686615,
				0.006823010742664337
			],
			"scale":[
				1.0000048875808716,
				1.0000003576278687,
				1.0000001192092896
			],
			"translation":[
				-0.24192000925540924,
				0.17920005321502686,
				0
			]
		},
		{
			"children":[
				1,
				4,
				7
			],
			"name":"chest",
			"translation":[
				0,
				0.1903998851776123,
				0
			]
		},
		{
			"children":[
				8
			],
			"name":"spine",
			"scale":[
				1,
				0.9999999403953552,
				1
			],
			"translation":[
				0,
				0.16800010204315186,
				0
			]
		},
		{
			"name":"foot.R",
			"rotation":[
				0.5914180874824524,
				-3.4578393481865533e-09,
				9.62097155415842e-12,
				0.8063651323318481
			],
			"translation":[
				-1.5216164328535342e-08,
				0.4598606824874878,
				-1.3024212819345848e-09
			]
		},
		{
			"children":[
				10
			],
			"name":"shin.R",
			"rotation":[
				-0.04151010140776634,
				-0.009864666499197483,
				0.00934950727969408,
				0.9990456104278564
			],
			"translation":[
				-1.021544449031353e-08,
				0.45948415994644165,
				2.561137080192566e-09
			]
		},
		{
			"children":[
				11
			],
			"name":"thigh.R",
			"rotation":[
				-0.9997993111610413,
				-0.009610525332391262,
				-0.009610636159777641,
				0.014720411971211433
			],
			"scale":[
				1,
				1,
				1.000000238418579
			],
			"translation":[
				0.10304000228643417,
				-0.02239990234375,
				0
			]
		},
		{
			"name":"foot.L",
			"rotation":[
				0.5914180874824524,
				3.4578393481865533e-09,
				-9.62097155415842e-12,
				0.8063651323318481
			],
			"translation":[
				1.5216164328535342e-08,
				0.4598606824874878,
				-1.3024212819345848e-09
			]
		},
		{
			"children":[
				13
			],
			"name":"shin.L",
			"rotation":[
				-0.04151010140776634,
				0.009864666499197483,
				-0.00934950727969408,
				0.9990456104278564
			],
			"translation":[
				1.021544449031353e-08,
				0.45948415994644165,
				2.561137080192566e-09
			]
		},
		{
			"children":[
				14
			],
			"name":"thigh.L",
			"rotation":[
				-0.9997993111610413,
				0.009610525332391262,
				0.009610636159777641,
				0.014720411971211433
			],
			"scale":[
				1,
				1,
				1.000000238418579
			],
			"translation":[
				-0.10304000228643417,
				-0.02239990234375,
				0
			]
		},
		{
			"children":[
				9,
				12,
				15
			],
			"name":"hips",
			"translation":[
				0,
				1.041599988937378,
				0
			]
		},
		{
			"mesh":0,
			"name":"diablo",
			"skin":0
		},
		{
			"children":[
				17,
				16
			],
			"name":"diablo_rig"
		}
	],
	"animations":[
		{
			"channels":[
				{
					"sampler":0,
					"target":{
						"node":16,
						"path":"translation"
					}
				},
				{
					"sampler":1,
					"target":{
						"node":16,
						"path":"rotation"
					}
				},
				{
					"sampler":2,
					"target":{
						"node":16,
						"path":"scale"
					}
				},
				{
					"sampler":3,
					"target":{
						"node":9,
						"path":"translation"
					}
				},
				{
					"sampler":4,
					"target":{
						"node":9,
						"path":"rotation"
					}
				},
				{
					"sampler":5,
					"target":{
						"node":9,
						"path":"scale"
					}
				},
				{
					"sampler":6,
					"target":{
						"node":8,
						"path":"translation"
					}
				},
				{
					"sampler":7,
					"target":{
						"node":8,
						"path":"rotation"
					}
				},
				{
					"sampler":8,
					"target":{
						"node":8,
						"path":"scale"
					}
				},
				{
					"sampler":9,
					"target":{
						"node":1,
						"path":"translation"
					}
				},
				{
					"sampler":10,
					"target":{
						"node":1,
						"path":"rotation"
					}
				},
				{
					"sampler":11,
					"target":{
						"node":1,
						"path":"scale"
					}
				},
				{
					"sampler":12,
					"target":{
						"node":0,
						"path":"translation"
					}
				},
				{
					"sampler":13,
					"target":{
						"node":0,
						"path":"rotation"
					}
				},
				{
					"sampler":14,
					"target":{
						"node":0,
						"path":"scale"
					}
				},
				{
					"sampler":15,
					"target":{
						"node":4,
						"path":"translation"
					}
				},
				{
					"sampler":16,
					"target":{
						"node":4,
						"path":"rotation"
					}
				},
				{
					"sampler":17,
					"target":{
						"node":4,
						"path":"scale"
					}
				},
				{
					"sampler":18,
					"target":{
						"node":3,
						"path":"translation"
					}
				},
				{
					"sampler":19,
					"target":{
						"node":3,
						"path":"rotation"
					}
				},
				{
					"sampler":20,
					"target":{
						"node":3,
						"path":"scale"
					}
				},
				{
					"sampler":21,
					"target":{
						"node":2,
						"path":"translation"
					}
				},
				{
					"sampler":22,
					"target":{
						"node":2,
						"path":"rotation"
					}
				},
				{
					"sampler":23,
					"target":{
						"node":2,
						"path":"scale"
					}
				},
				{
					"sampler":24,
					"target":{
						"node":7,
						"path":"translation"
					}
				},
				{
					"sampler":25,
					"target":{
						"node":7,
						"path":"rotation"
					}
				},
				{
					"sampler":26,
					"target":{
						"node":7,
						"path":"scale"
					}
				},
				{
					"sampler":27,
					"target":{
						"node":6,
						"path":"translation"
					}
				},
				{
					"sampler":28,
					"target":{
						"node":6,
						"path":"rotation"
					}
				},
				{
					"sampler":29,
					"target":{
						"node":6,
						"path":"scale"
					}
				},
				{
					"sampler":30,
					"target":{
						"node":5,
						"path":"translation"
					}
				},
				{
					"sampler":31,
					"target":{
						"node":5,
						"path":"rotation"
					}
				},
				{
					"sampler":32,
					"target":{
						"node":5,
						"path":"scale"
					}
				},
				{
					"sampler":33,
					"target":{
						"node":12,
						"path":"translation"
					}
				},
				{
					"sampler":34,
					"target":{
						"node":12,
						"path":"rotation"
					}
				},
				{
					"sampler":35,
					"target":{
						"node":12,
						"path":"scale"
					}
				},
				{
					"sampler":36,
					"target":{
						"node":11,
						"path":"translation"
					}
				},
				{
					"sampler":37,
					"target":{
						"node":11,
						"path":"rotation"
					}
				},
				{
					"sampler":38,
					"target":{
						"node":11,
						"path":"scale"
					}
				},
				{
					"sampler":39,
					"target":{
						"node":10,
						"path":"translation"
					}
				},
				{
					"sampler":40,
					"target":{
						"node":10,
						"path":"rotation"
					}
				},
				{
					"sampler":41,
					"target":{
						"node":10,
						"path":"scale"
					}
				},
				{
					"sampler":42,
					"target":{
						"node":15,
						"path":"translation"
					}
				},
				{
					"sampler":43,
					"target":{
						"node":15,
						"path":"rotation"
					}
				},
				{
					"sampler":44,
					"target":{
						"node":15,
						"path":"scale"
					}
				},
				{
					"sampler":45,
					"target":{
						"node":14,
						"path":"translation"
					}
				},
				{
					"sampler":46,
					"target":{
						"node":14,
						"path":"rotation"
					}
				},
				{
					"sampler":47,
					"target":{
						"node":14,
						"path":"scale"
					}
				},
				{
					"sampler":48,
					"target":{
						"node":13,
						"path":"translation"
					}
				},
				{
					"sampler":49,
					"target":{
						"node":13,
						"path":"rotation"
					}
				},
				{
					"sampler":50,
					"target":{
						"node":13,
						"path":"scale"
					}
				}
			],
			"name":"attack",
			"samplers":[
				{
					"input":79,
					"interpolation":"STEP",
					"output":80
				},
				{
					"input":79,
					"interpolation":"STEP",
					"output":81
				},
				{
					"input":79,
					"interpolation":"STEP",
					"output":82
				},
				{
					"input":79,
					"interpolation":"STEP",
					"output":83
				},
				{
					"input":79,
					"interpolation":"STEP",
					"output":84
				},
				{
					"input":79,
					"interpolation":"STEP",
					"output":85
				},
				{
					"input":79,
					"interpolation":"STEP",
					"output":86
				},
				{
					"input":87,
					"interpolation":"LINEAR",
					"output":88
				},
				{
					"input":79,
					"interpolation":"STEP",
					"output":89
				},
				{
					"input":79,
					"interpolation":"STEP",
					"output":90
				},
				{
					"input":79,
					"interpolation":"STEP",
					"output":91
				},
				{
					"input":79,
					"interpolation":"STEP",
					"output":92
				},
				{
					"input":79,
					"interpolation":"STEP",
					"output":93
				},
				{
					"input":79,
					"interpolation":"STEP",
					"output":94
				},
				{
					"input":79,
					"interpolation":"STEP",
					"output":95
				},
				{
					"input":79,
					"interpolation":"STEP",
					"output":96
				},
				{
					"input":87,
					"interpolation":"LINEAR",
					"output":97
				},
				{
					"input":79,
					"interpolation":"STEP",
					"output":98
				},
				{
					"input":79,
					"interpolation":"STEP",
					"output":99
				},
				{
					"input":87,
					"interpolation":"LINEAR",
					"output":100
				},
				{
					"input":79,
					"interpolation":"STEP",
					"output":101
				},
				{
					"input":79,
					"interpolation":"STEP",
					"output":102
				},
				{
					"input":79,
					"interpolation":"STEP",
					"output":103
				},
				{
					"input":79,
					"interpolation":"STEP",
					"output":104
				},
				{
					"input":79,
					"interpolation":"STEP",
					"output":105
				},
				{
					"input":87,
					"interpolation":"LINEAR",
					"output":106
				},
				{
					"input":79,
					"interpolation":"STEP",
					"output":107
				},
				{
					"input":79,
					"interpolation":"STEP",
					"output":108
				},
				{
					"input":79,
					"interpolation":"STEP",
					"output":109
				},
				{
					"input":79,
					"interpolation":"STEP",
					"output":110
				},
				{
					"input":79,
					"interpolation":"STEP",
					"output":111
				},
				{
					"input":79,
					"interpolation":"STEP",
					"output":112
				},
				{
					"input":79,
					"interpolation":"STEP",
					"output":113
				},
				{
					"input":79,
					"interpolation":"STEP",
					"output":114
				},
				{
					"input":87,
					"interpolation":"LINEAR",
					"output":115
				},
				{
					"input":79,
					"interpolation":"STEP",
					"output":116
				},
				{
					"input":79,
					"interpolation":"LINEAR",
					"output":117
				},
				{
					"input":79,
					"interpolation":"LINEAR",
					"output":118
				},
				{
					"input":79,
					"interpolation":"STEP",
					"output":119
				},
				{
					"input":79,
					"interpolation":"LINEAR",
					"output":120
				},
				{
					"input":79,
					"interpolation":"LINEAR",
					"output":121
				},
				{
					"input":79,
					"interpolation":"STEP",
					"output":122
				},
				{
					"input":79,
					"interpolation":"STEP",
					"output":123
				},
				{
					"input":87,
					"interpolation":"LINEAR",
					"output":124
				},
				{
					"input":79,
					"interpolation":"STEP",
					"output":125
				},
				{
					"input":79,
					"interpolation":"LINEAR",
					"output":126
				},
				{
					"input":79,
					"interpolation":"LINEAR",
					"output":127
				},
				{
					"input":79,
					"interpolation":"STEP",
					"output":128
				},
				{
					"input":79,
					"interpolation":"LINEAR",
					"output":129
				},
				{
					"input":79,
					"interpolation":"LINEAR",
					"output":130
				},
				{
					"input":79,
					"interpolation":"STEP",
					"output":131
				}
			]
		},
		{
			"channels":[
				{
					"sampler":0,
					"target":{
						"node":16,
						"path":"translation"
					}
				},
				{
					"sampler":1,
					"target":{
						"node":16,
						"path":"rotation"
					}
				},
				{
					"sampler":2,
					"target":{
						"node":16,
						"path":"scale"
					}
				},
				{
					"sampler":3,
					"target":{
						"node":9,
						"path":"translation"
					}
				},
				{
					"sampler":4,
					"target":{
						"node":9,
						"path":"rotation"
					}
				},
				{
					"sampler":5,
					"target":{
						"node":9,
						"path":"scale"
					}
				},
				{
					"sampler":6,
					"target":{
						"node":8,
						"path":"translation"
					}
				},
				{
					"sampler":7,
					"target":{
						"node":8,
						"path":"rotation"
					}
				},
				{
					"sampler":8,
					"target":{
						"node":8,
						"path":"scale"
					}
				},
				{
					"sampler":9,
					"target":{
						"node":1,
						"path":"translation"
					}
				},
				{
					"sampler":10,
					"target":{
						"node":1,
						"path":"rotation"
					}
				},
				{
					"sampler":11,
					"target":{
						"node":1,
						"path":"scale"
					}
				},
				{
					"sampler":12,
					"target":{
						"node":0,
						"path":"translation"
					}
				},
				{
					"sampler":13,
					"target":{
						"node":0,
						"path":"rotation"
					}
				},
				{
					"sampler":14,
					"target":{
						"node":0,
						"path":"scale"
					}
				},
				{
					"sampler":15,
					"target":{
						"node":4,
						"path":"translation"
					}
				},
				{
					"sampler":16,
					"target":{
						"node":4,
						"path":"rotation"
					}
				},
				{
					"sampler":17,
					"target":{
						"node":4,
						"path":"scale"
					}
				},
				{
					"sampler":18,
					"target":{
						"node":3,
						"path":"translation"
					}
				},
				{
					"sampler":19,
					"target":{
						"node":3,
						"path":"rotation"
					}
				},
				{
					"sampler":20,
					"target":{
						"node":3,
						"path":"scale"
					}
				},
				{
					"sampler":21,
					"target":{
						"node":2,
						"path":"translation"
					}
				},
				{
					"sampler":22,
					"target":{
						"node":2,
						"path":"rotation"
					}
				},
				{
					"sampler":23,
					"target":{
						"node":2,
						"path":"scale"
					}
				},
				{
					"sampler":24,
					"target":{
						"node":7,
						"path":"translation"
					}
				},
				{
					"sampler":25,
					"target":{
						"node":7,
						"path":"rotation"
					}
				},
				{
					"sampler":26,
					"target":{
						"node":7,
						"path":"scale"
					}
				},
				{
					"sampler":27,
					"target":{
						"node":6,
						"path":"translation"
					}
				},
				{
					"sampler":28,
					"target":{
						"node":6,
						"path":"rotation"
					}
				},
				{
					"sampler":29,
					"target":{
						"node":6,
						"path":"scale"
					}
				},
				{
					"sampler":30,
					"target":{
						"node":5,
						"path":"translation"
					}
				},
				{
					"sampler":31,
					"target":{
						"node":5,
						"path":"rotation"
					}
				},
				{
					"sampler":32,
					"target":{
						"node":5,
						"path":"scale"
					}
				},
				{
					"sampler":33,
					"target":{
						"node":12,
						"path":"translation"
					}
				},
				{
					"sampler":34,
					"target":{
						"node":12,
						"path":"rotation"
					}
				},
				{
					"sampler":35,
					"target":{
						"node":12,
						"path":"scale"
					}
				},
				{
					"sampler":36,
					"target":{
						"node":11,
						"path":"translation"
					}
				},
				{
					"sampler":37,
					"target":{
						"node":11,
						"path":"rotation"
					}
				},
				{
					"sampler":38,
					"target":{
						"node":11,
						"path":"scale"
					}
				},
				{
					"sampler":39,
					"target":{
						"node":10,
						"path":"translation"
					}
				},
				{
					"sampler":40,
					"target":{
						"node":10,
						"path":"rotation"
					}
				},
				{
					"sampler":41,
					"target":{
						"node":10,
						"path":"scale"
					}
				},
				{
					"sampler":42,
					"target":{
						"node":15,
						"path":"translation"
					}
				},
				{
					"sampler":43,
					"target":{
						"node":15,
						"path":"rotation"
					}
				},
				{
					"sampler":44,
					"target":{
						"node":15,
						"path":"scale"
					}
				},
				{
					"sampler":45,
					"target":{
						"node":14,
						"path":"translation"
					}
				},
				{
					"sampler":46,
					"target":{
						"node":14,
						"path":"rotation"
					}
				},
				{
					"sampler":47,
					"target":{
						"node":14,
						"path":"scale"
					}
				},
				{
					"sampler":48,
					"target":{
						"node":13,
						"path":"translation"
					}
				},
				{
					"sampler":49,
					"target":{
						"node":13,
						"path":"rotation"
					}
				},
				{
					"sampler":50,
					"target":{
						"node":13,
						"path":"scale"
					}
				}
			],
			"name":"idle",
			"samplers":[
				{
					"input":132,
					"interpolation":"LINEAR",
					"output":133
				},
				{
					"input":134,
					"interpolation":"STEP",
					"output":135
				},
				{
					"input":134,
					"interpolation":"STEP",
					"output":136
				},
				{
					"input":134,
					"interpolation":"STEP",
					"output":137
				},
				{
					"input":134,
					"interpolation":"STEP",
					"output":138
				},
				{
					"input":134,
					"interpolation":"STEP",
					"output":139
				},
				{
					"input":134,
					"interpolation":"STEP",
					"output":140
				},
				{
					"input":132,
					"interpolation":"LINEAR",
					"output":141
				},
				{
					"input":134,
					"interpolation":"STEP",
					"output":142
				},
				{
					"input":134,
					"interpolation":"STEP",
					"output":143
				},
				{
					"input":134,
					"interpolation":"STEP",
					"output":144
				},
				{
					"input":134,
					"interpolation":"STEP",
					"output":145
				},
				{
					"input":134,
					"interpolation":"STEP",
					"output":146
				},
				{
					"input":132,
					"interpolation":"LINEAR",
					"output":147
				},
				{
					"input":134,
					"interpolation":"STEP",
					"output":148
				},
				{
					"input":134,
					"interpolation":"STEP",
					"output":149
				},
				{
					"input":132,
					"interpolation":"LINEAR",
					"output":150
				},
				{
					"input":134,
					"interpolation":"STEP",
					"output":151
				},
				{
					"input":134,
					"interpolation":"STEP",
					"output":152
				},
				{
					"input":134,
					"interpolation":"STEP",
					"output":153
				},
				{
					"input":134,
					"interpolation":"STEP",
					"output":154
				},
				{
					"input":134,
					"interpolation":"STEP",
					"output":155
				},
				{
					"input":134,
					"interpolation":"STEP",
					"output":156
				},
				{
					"input":134,
					"interpolation":"STEP",
					"output":157
				},
				{
					"input":134,
					"interpolation":"STEP",
					"output":158
				},
				{
					"input":132,
					"interpolation":"LINEAR",
					"output":159
				},
				{
					"input":134,
					"interpolation":"STEP",
					"output":160
				},
				{
					"input":134,
					"interpolation":"STEP",
					"output":161
				},
				{
					"input":134,
					"interpolation":"STEP",
					"output":162
				},
				{
					"input":134,
					"interpolation":"STEP",
					"output":163
				},
				{
					"input":134,
					"interpolation":"STEP",
					"output":164
				},
				{
					"input":134,
					"interpolation":"STEP",
					"output":165
				},
				{
					"input":134,
					"interpolation":"STEP",
					"output":166
				},
				{
					"input":134,
					"interpolation":"STEP",
					"output":167
				},
				{
					"input":134,
					"interpolation":"STEP",
					"output":168
				},
				{
					"input":134,
					"interpolation":"STEP",
					"output":169
				},
				{
					"input":134,
					"interpolation":"STEP",
					"output":170
				},
				{
					"input":134,
					"interpolation":"STEP",
					"output":171
				},
				{
					"input":134,
					"interpolation":"STEP",
					"output":172
				},
				{
					"input":134,
					"interpolation":"STEP",
					"output":173
				},
				{
					"input":134,
					"interpolation":"STEP",
					"output":174
				},
				{
					"input":134,
					"interpolation":"STEP",
					"output":175
				},
				{
					"input":134,
					"interpolation":"STEP",
					"output":176
				},
				{
					"input":134,
					"interpolation":"STEP",
					"output":177
				},
				{
					"input":134,
					"interpolation":"STEP",
					"output":178
				},
				{
					"input":134,
					"interpolation":"STEP",
					"output":179
				},
				{
					"input":134,
					"interpolation":"STEP",
					"output":180
				},
				{
					"input":134,
					"interpolation":"STEP",
					"output":181
				},
				{
					"input":134,
					"interpolation":"STEP",
					"output":182
				},
				{
					"input":134,
					"interpolation":"STEP",
					"output":183
				},
				{
					"input":134,
					"interpolation":"STEP",
					"output":184
				}
			]
		},
		{
			"channels":[
				{
					"sampler":0,
					"target":{
						"node":16,
						"path":"translation"
					}
				},
				{
					"sampler":1,
					"target":{
						"node":16,
						"path":"rotation"
					}
				},
				{
					"sampler":2,
					"target":{
						"node":16,
						"path":"scale"
					}
				},
				{
					"sampler":3,
					"target":{
						"node":9,
						"path":"translation"
					}
				},
				{
					"sampler":4,
					"target":{
						"node":9,
						"path":"rotation"
					}
				},
				{
					"sampler":5,
					"target":{
						"node":9,
						"path":"scale"
					}
				},
				{
					"sampler":6,
					"target":{
						"node":8,
						"path":"translation"
					}
				},
				{
					"sampler":7,
					"target":{
						"node":8,
						"path":"rotation"
					}
				},
				{
					"sampler":8,
					"target":{
						"node":8,
						"path":"scale"
					}
				},
				{
					"sampler":9,
					"target":{
						"node":1,
						"path":"translation"
					}
				},
				{
					"sampler":10,
					"target":{
						"node":1,
						"path":"rotation"
					}
				},
				{
					"sampler":11,
					"target":{
						"node":1,
						"path":"scale"
					}
				},
				{
					"sampler":12,
					"target":{
						"node":0,
						"path":"translation"
					}
				},
				{
					"sampler":13,
					"target":{
						"node":0,
						"path":"rotation"
					}
				},
				{
					"sampler":14,
					"target":{
						"node":0,
						"path":"scale"
					}
				},
				{
					"sampler":15,
					"target":{
						"node":4,
						"path":"translation"
					}
				},
				{
					"sampler":16,
					"target":{
						"node":4,
						"path":"rotation"
					}
				},
				{
					"sampler":17,
					"target":{
						"node":4,
						"path":"scale"
					}
				},
				{
					"sampler":18,
					"target":{
						"node":3,
						"path":"translation"
					}
				},
				{
					"sampler":19,
					"target":{
						"node":3,
						"path":"rotation"
					}
				},
				{
					"sampler":20,
					"target":{
						"node":3,
						"path":"scale"
					}
				},
				{
					"sampler":21,
					"target":{
						"node":2,
						"path":"translation"
					}
				},
				{
					"sampler":22,
					"target":{
						"node":2,
						"path":"rotation"
					}
				},
				{
					"sampler":23,
					"target":{
						"node":2,
						"path":"scale"
					}
				},
				{
					"sampler":24,
					"target":{
						"node":7,
						"path":"translation"
					}
				},
				{
					"sampler":25,
					"target":{
						"node":7,
						"path":"rotation"
					}
				},
				{
					"sampler":26,
					"target":{
						"node":7,
						"path":"scale"
					}
				},
				{
					"sampler":27,
					"target":{
						"node":6,
						"path":"translation"
					}
				},
				{
					"sampler":28,
					"target":{
						"node":6,
						"path":"rotation"
					}
				},
				{
					"sampler":29,
					"target":{
						"node":6,
						"path":"scale"
					}
				},
				{
					"sampler":30,
					"target":{
						"node":5,
						"path":"translation"
					}
				},
				{
					"sampler":31,
					"target":{
						"node":5,
						"path":"rotation"
					}
				},
				{
					"sampler":32,
					"target":{
						"node":5,
						"path":"scale"
					}
				},
				{
					"sampler":33,
					"target":{
						"node":12,
						"path":"translation"
					}
				},
				{
					"sampler":34,
					"target":{
						"node":12,
						"path":"rotation"
					}
				},
				{
					"sampler":35,
					"target":{
						"node":12,
						"path":"scale"
					}
				},
				{
					"sampler":36,
					"target":{
						"node":11,
						"path":"translation"
					}
				},
				{
					"sampler":37,
					"target":{
						"node":11,
						"path":"rotation"
					}
				},
				{
					"sampler":38,
					"target":{
						"node":11,
						"path":"scale"
					}
				},
				{
					"sampler":39,
					"target":{
						"node":10,
						"path":"translation"
					}
				},
				{
					"sampler":40,
					"target":{
						"node":10,
						"path":"rotation"
					}
				},
				{
					"sampler":41,
					"target":{
						"node":10,
						"path":"scale"
					}
				},
				{
					"sampler":42,
					"target":{
						"node":15,
						"path":"translation"
					}
				},
				{
					"sampler":43,
					"target":{
						"node":15,
						"path":"rotation"
					}
				},
				{
					"sampler":44,
					"target":{
						"node":15,
						"path":"scale"
					}
				},
				{
					"sampler":45,
					"target":{
						"node":14,
						"path":"translation"
					}
				},
				{
					"sampler":46,
					"target":{
						"node":14,
						"path":"rotation"
					}
				},
				{
					"sampler":47,
					"target":{
						"node":14,
						"path":"scale"
					}
				},
				{
					"sampler":48,
					"target":{
						"node":13,
						"path":"translation"
					}
				},
				{
					"sampler":49,
					"target":{
						"node":13,
						"path":"rotation"
					}
				},
				{
					"sampler":50,
					"target":{
						"node":13,
						"path":"scale"
					}
				}
			],
			"name":"walk",
			"samplers":[
				{
					"input":185,
					"interpolation":"LINEAR",
					"output":186
				},
				{
					"input":185,
					"interpolation":"LINEAR",
					"output":187
				},
				{
					"input":188,
					"interpolation":"STEP",
					"output":189
				},
				{
					"input":188,
					"interpolation":"STEP",
					"output":190
				},
				{
					"input":188,
					"interpolation":"STEP",
					"output":191
				},
				{
					"input":188,
					"interpolation":"STEP",
					"output":192
				},
				{
					"input":188,
					"interpolation":"STEP",
					"output":193
				},
				{
					"input":185,
					"interpolation":"LINEAR",
					"output":194
				},
				{
					"input":188,
					"interpolation":"STEP",
					"output":195
				},
				{
					"input":188,
					"interpolation":"STEP",
					"output":196
				},
				{
					"input":188,
					"interpolation":"STEP",
					"output":197
				},
				{
					"input":188,
					"interpolation":"STEP",
					"output":198
				},
				{
					"input":188,
					"interpolation":"STEP",
					"output":199
				},
				{
					"input":188,
					"interpolation":"STEP",
					"output":200
				},
				{
					"input":188,
					"interpolation":"STEP",
					"output":201
				},
				{
					"input":188,
					"interpolation":"STEP",
					"output":202
				},
				{
					"input":185,
					"interpolation":"LINEAR",
					"output":203
				},
				{
					"input":188,
					"interpolation":"STEP",
					"output":204
				},
				{
					"input":188,
					"interpolation":"STEP",
					"output":205
				},
				{
					"input":188,
					"interpolation":"STEP",
					"output":206
				},
				{
					"input":188,
					"interpolation":"STEP",
					"output":207
				},
				{
					"input":188,
					"interpolation":"STEP",
					"output":208
				},
				{
					"input":188,
					"interpolation":"STEP",
					"output":209
				},
				{
					"input":188,
					"interpolation":"STEP",
					"output":210
				},
				{
					"input":188,
					"interpolation":"STEP",
					"output":211
				},
				{
					"input":185,
					"interpolation":"LINEAR",
					"output":212
				},
				{
					"input":188,
					"interpolation":"STEP",
					"output":213
				},
				{
					"input":188,
					"interpolation":"STEP",
					"output":214
				},
				{
					"input":188,
					"interpolation":"STEP",
					"output":215
				},
				{
					"input":188,
					"interpolation":"STEP",
					"output":216
				},
				{
					"input":188,
					"interpolation":"STEP",
					"output":217
				},
				{
					"input":188,
					"interpolation":"STEP",
					"output":218
				},
				{
					"input":188,
					"interpolation":"STEP",
					"output":219
				},
				{
					"input":188,
					"interpolation":"STEP",
					"output":220
				},
				{
					"input":185,
					"interpolation":"LINEAR",
					"output":221
				},
				{
					"input":188,
					"interpolation":"STEP",
					"output":222
				},
				{
					"input":188,
					"interpolation":"STEP",
					"output":223
				},
				{
					"input":185,
					"interpolation":"LINEAR",
					"output":224
				},
				{
					"input":188,
					"interpolation":"STEP",
					"output":225
				},
				{
					"input":188,
					"interpolation":"STEP",
					"output":226
				},
				{
					"input":185,
					"interpolation":"LINEAR",
					"output":227
				},
				{
					"input":188,
					"interpolation":"STEP",
					"output":228
				},
				{
					"input":188,
					"interpolation":"STEP",
					"output":229
				},
				{
					"input":185,
					"interpolation":"LINEAR",
					"output":230
				},
				{
					"input":188,
					"interpolation":"STEP",
					"output":231
				},
				{
					"input":188,
					"interpolation":"STEP",
					"output":232
				},
				{
					"input":185,
					"interpolation":"LINEAR",
					"output":233
				},
				{
					"input":188,
					"interpolation":"STEP",
					"output":234
				},
				{
					"input":188,
					"interpolation":"STEP",
					"output":235
				},
				{
					"input":185,
					"interpolation":"LINEAR",
					"output":236
				},
				{
					"input":188,
					"interpolation":"STEP",
					"output":237
				}
			]
		}
	],
	"materials":[
		{
			"name":"skin",
			"normalTexture":{
				"index":0,
				"scale":0.4000000059604645
			},
			"pbrMetallicRoughness":{
				"baseColorFactor":[
					0.911407470703125,
					0.8275708556175232,
					0.7874122858047485,
					1
				],
				"metallicFactor":0,
				"roughnessFactor":0.550000011920929
			}
		},
		{
			"extensions":{
				"KHR_materials_sheen":{
					"sheenColorFactor":[
						1.0,
						1.0,
						1.0
					],
					"sheenRoughnessFactor":0.5
				}
			},
			"name":"hair",
			"normalTexture":{
				"index":1,
				"scale":0.800000011920929
			},
			"pbrMetallicRoughness":{
				"baseColorFactor":[
					0.003935939632356167,
					0.003935939632356167,
					0.005981059744954109,
					1
				],
				"metallicFactor":0,
				"roughnessFactor":0.44999998807907104
			}
		},
		{
			"extensions":{
				"KHR_materials_sheen":{
					"sheenColorFactor":[
						1.0,
						1.0,
						1.0
					],
					"sheenRoughnessFactor":0.5
				}
			},
			"name":"outfit",
			"normalTexture":{
				"index":2,
				"scale":0.6000000238418579
			},
			"pbrMetallicRoughness":{
				"baseColorFactor":[
					0.004896310158073902,
					0.004896310158073902,
					0.007194409146904945,
					1
				],
				"metallicFactor":0,
				"roughnessFactor":0.75
			}
		},
		{
			"name":"outfit2",
			"normalTexture":{
				"index":3,
				"scale":0.4000000059604645
			},
			"pbrMetallicRoughness":{
				"baseColorFactor":[
					0.4479884207248688,
					0.010022825561463833,
					0.01960664801299572,
					1
				],
				"metallicFactor":0,
				"roughnessFactor":0.6000000238418579
			}
		},
		{
			"name":"pants",
			"normalTexture":{
				"index":4,
				"scale":0.6000000238418579
			},
			"pbrMetallicRoughness":{
				"baseColorFactor":[
					0.003254215233027935,
					0.003254215233027935,
					0.004497480113059282,
					1
				],
				"metallicFactor":0,
				"roughnessFactor":0.800000011920929
			}
		},
		{
			"extensions":{
				"KHR_materials_clearcoat":{
					"clearcoatFactor":0.30000001192092896
				}
			},
			"name":"boots",
			"normalTexture":{
				"index":5,
				"scale":0.800000011920929
			},
			"pbrMetallicRoughness":{
				"baseColorFactor":[
					0.0134117491543293,
					0.010022825561463833,
					0.010022825561463833,
					1
				],
				"metallicFactor":0,
				"roughnessFactor":0.44999998807907104
			}
		},
		{
			"name":"eye_white",
			"pbrMetallicRoughness":{
				"baseColorFactor":[
					0.8900054097175598,
					0.8900054097175598,
					0.8900054097175598,
					1
				],
				"metallicFactor":0,
				"roughnessFactor":0.20000000298023224
			}
		},
		{
			"emissiveFactor":[
				0.6000000238418579,
				0.3135129457121266,
				0.006013695575841083
			],
			"name":"iris",
			"pbrMetallicRoughness":{
				"baseColorFactor":[
					1,
					0.5225215554237366,
					0.010022825561463833,
					1
				],
				"metallicFactor":0,
				"roughnessFactor":0.15000000596046448
			}
		},
		{
			"name":"pupil",
			"pbrMetallicRoughness":{
				"baseColorFactor":[
					0.0015479875728487968,
					0.0015479875728487968,
					0.0023219813592731953,
					1
				],
				"metallicFactor":0,
				"roughnessFactor":0.10000000149011612
			}
		},
		{
			"name":"lips",
			"pbrMetallicRoughness":{
				"baseColorFactor":[
					0.40914446115493774,
					0.37233966588974,
					0.3546920716762543,
					1
				],
				"metallicFactor":0,
				"roughnessFactor":0.4000000059604645
			}
		},
		{
			"doubleSided":true,
			"extensions":{
				"KHR_materials_sheen":{
					"sheenColorFactor":[
						1.0,
						1.0,
						1.0
					],
					"sheenRoughnessFactor":0.5
				}
			},
			"name":"coat",
			"normalTexture":{
				"index":6,
				"scale":0.699999988079071
			},
			"pbrMetallicRoughness":{
				"baseColorFactor":[
					0.004896310158073902,
					0.004896310158073902,
					0.007194409146904945,
					1
				],
				"metallicFactor":0,
				"roughnessFactor":0.699999988079071
			}
		},
		{
			"doubleSided":true,
			"name":"collar",
			"pbrMetallicRoughness":{
				"baseColorFactor":[
					0.4479884207248688,
					0.010022825561463833,
					0.01960664801299572,
					1
				],
				"metallicFactor":0,
				"roughnessFactor":0.6000000238418579
			}
		},
		{
			"name":"buckle",
			"pbrMetallicRoughness":{
				"baseColorFactor":[
					0.6920710802078247,
					0.4479884207248688,
					0.07323895394802094,
					1
				],
				"metallicFactor":0.8999999761581421,
				"roughnessFactor":0.30000001192092896
			}
		}
	],
	"meshes":[
		{
			"name":"diablo",
			"primitives":[
				{
					"attributes":{
						"POSITION":0,
						"NORMAL":1,
						"TEXCOORD_0":2,
						"JOINTS_0":3,
						"WEIGHTS_0":4
					},
					"indices":5,
					"material":0
				},
				{
					"attributes":{
						"POSITION":6,
						"NORMAL":7,
						"TEXCOORD_0":8,
						"JOINTS_0":9,
						"WEIGHTS_0":10
					},
					"indices":11,
					"material":1
				},
				{
					"attributes":{
						"POSITION":12,
						"NORMAL":13,
						"TEXCOORD_0":14,
						"JOINTS_0":15,
						"WEIGHTS_0":16
					},
					"indices":17,
					"material":2
				},
				{
					"attributes":{
						"POSITION":18,
						"NORMAL":19,
						"TEXCOORD_0":20,
						"JOINTS_0":21,
						"WEIGHTS_0":22
					},
					"indices":23,
					"material":3
				},
				{
					"attributes":{
						"POSITION":24,
						"NORMAL":25,
						"TEXCOORD_0":26,
						"JOINTS_0":27,
						"WEIGHTS_0":28
					},
					"indices":29,
					"material":4
				},
				{
					"attributes":{
						"POSITION":30,
						"NORMAL":31,
						"TEXCOORD_0":32,
						"JOINTS_0":33,
						"WEIGHTS_0":34
					},
					"indices":35,
					"material":5
				},
				{
					"attributes":{
						"POSITION":36,
						"NORMAL":37,
						"TEXCOORD_0":38,
						"JOINTS_0":39,
						"WEIGHTS_0":40
					},
					"indices":41,
					"material":6
				},
				{
					"attributes":{
						"POSITION":42,
						"NORMAL":43,
						"TEXCOORD_0":44,
						"JOINTS_0":45,
						"WEIGHTS_0":46
					},
					"indices":47,
					"material":7
				},
				{
					"attributes":{
						"POSITION":48,
						"NORMAL":49,
						"TEXCOORD_0":50,
						"JOINTS_0":51,
						"WEIGHTS_0":52
					},
					"indices":53,
					"material":8
				},
				{
					"attributes":{
						"POSITION":54,
						"NORMAL":55,
						"TEXCOORD_0":56,
						"JOINTS_0":57,
						"WEIGHTS_0":58
					},
					"indices":59,
					"material":9
				},
				{
					"attributes":{
						"POSITION":60,
						"NORMAL":61,
						"TEXCOORD_0":62,
						"JOINTS_0":63,
						"WEIGHTS_0":64
					},
					"indices":65,
					"material":10
				},
				{
					"attributes":{
						"POSITION":66,
						"NORMAL":67,
						"TEXCOORD_0":68,
						"JOINTS_0":69,
						"WEIGHTS_0":70
					},
					"indices":71,
					"material":11
				},
				{
					"attributes":{
						"POSITION":72,
						"NORMAL":73,
						"TEXCOORD_0":74,
						"JOINTS_0":75,
						"WEIGHTS_0":76
					},
					"indices":77,
					"material":12
				}
			]
		}
	],
	"textures":[
		{
			"sampler":0,
			"source":0
		},
		{
			"sampler":0,
			"source":1
		},
		{
			"sampler":0,
			"source":2
		},
		{
			"sampler":0,
			"source":2
		},
		{
			"sampler":0,
			"source":2
		},
		{
			"sampler":0,
			"source":3
		},
		{
			"sampler":0,
			"source":2
		}
	],
	"images":[
		{
			"mimeType":"image/png",
			"name":"N_skin",
			"uri":"texturas/N_skin.png"
		},
		{
			"mimeType":"image/png",
			"name":"N_hair",
			"uri":"texturas/N_hair.png"
		},
		{
			"mimeType":"image/png",
			"name":"N_cloth",
			"uri":"texturas/N_cloth.png"
		},
		{
			"mimeType":"image/png",
			"name":"N_leather",
			"uri":"texturas/N_leather.png"
		}
	],
	"skins":[
		{
			"inverseBindMatrices":78,
			"joints":[
				16,
				9,
				8,
				1,
				0,
				4,
				3,
				2,
				7,
				6,
				5,
				12,
				11,
				10,
				15,
				14,
				13
			],
			"name":"diablo_rig"
		}
	],
	"accessors":[
		{
			"bufferView":0,
			"componentType":5126,
			"count":1437,
			"max":[
				0.35931065678596497,
				1.9980798959732056,
				0.12007806450128555
			],
			"min":[
				-0.35931065678596497,
				0.8786041140556335,
				-0.13000594079494476
			],
			"type":"VEC3"
		},
		{
			"bufferView":1,
			"componentType":5126,
			"count":1437,
			"type":"VEC3"
		},
		{
			"bufferView":2,
			"componentType":5126,
			"count":1437,
			"type":"VEC2"
		},
		{
			"bufferView":3,
			"componentType":5121,
			"count":1437,
			"type":"VEC4"
		},
		{
			"bufferView":4,
			"componentType":5126,
			"count":1437,
			"type":"VEC4"
		},
		{
			"bufferView":5,
			"componentType":5123,
			"count":5868,
			"type":"SCALAR"
		},
		{
			"bufferView":6,
			"componentType":5126,
			"count":2667,
			"max":[
				0.13399375975131989,
				2.026458501815796,
				0.15559881925582886
			],
			"min":[
				-0.13197728991508484,
				1.7147421836853027,
				-0.13148246705532074
			],
			"type":"VEC3"
		},
		{
			"bufferView":7,
			"componentType":5126,
			"count":2667,
			"type":"VEC3"
		},
		{
			"bufferView":8,
			"componentType":5126,
			"count":2667,
			"type":"VEC2"
		},
		{
			"bufferView":9,
			"componentType":5121,
			"count":2667,
			"type":"VEC4"
		},
		{
			"bufferView":10,
			"componentType":5126,
			"count":2667,
			"type":"VEC4"
		},
		{
			"bufferView":11,
			"componentType":5123,
			"count":8328,
			"type":"SCALAR"
		},
		{
			"bufferView":12,
			"componentType":5126,
			"count":1461,
			"max":[
				0.3636016547679901,
				1.6511181592941284,
				0.1256326586008072
			],
			"min":[
				-0.3636016547679901,
				1.0413508415222168,
				-0.12512247264385223
			],
			"type":"VEC3"
		},
		{
			"bufferView":13,
			"componentType":5126,
			"count":1461,
			"type":"VEC3"
		},
		{
			"bufferView":14,
			"componentType":5126,
			"count":1461,
			"type":"VEC2"
		},
		{
			"bufferView":15,
			"componentType":5121,
			"count":1461,
			"type":"VEC4"
		},
		{
			"bufferView":16,
			"componentType":5126,
			"count":1461,
			"type":"VEC4"
		},
		{
			"bufferView":17,
			"componentType":5123,
			"count":6648,
			"type":"SCALAR"
		},
		{
			"bufferView":18,
			"componentType":5126,
			"count":65,
			"max":[
				0.15977376699447632,
				1.155742883682251,
				0.1275012046098709
			],
			"min":[
				-0.15977376699447632,
				0.981468915939331,
				-0.12900424003601074
			],
			"type":"VEC3"
		},
		{
			"bufferView":19,
			"componentType":5126,
			"count":65,
			"type":"VEC3"
		},
		{
			"bufferView":20,
			"componentType":5126,
			"count":65,
			"type":"VEC2"
		},
		{
			"bufferView":21,
			"componentType":5121,
			"count":65,
			"type":"VEC4"
		},
		{
			"bufferView":22,
			"componentType":5126,
			"count":65,
			"type":"VEC4"
		},
		{
			"bufferView":23,
			"componentType":5123,
			"count":192,
			"type":"SCALAR"
		},
		{
			"bufferView":24,
			"componentType":5126,
			"count":977,
			"max":[
				0.3605805039405823,
				1.0497738122940063,
				0.12413793057203293
			],
			"min":[
				-0.3605804741382599,
				0.3360680043697357,
				-0.12613002955913544
			],
			"type":"VEC3"
		},
		{
			"bufferView":25,
			"componentType":5126,
			"count":977,
			"type":"VEC3"
		},
		{
			"bufferView":26,
			"componentType":5126,
			"count":977,
			"type":"VEC2"
		},
		{
			"bufferView":27,
			"componentType":5121,
			"count":977,
			"type":"VEC4"
		},
		{
			"bufferView":28,
			"componentType":5126,
			"count":977,
			"type":"VEC4"
		},
		{
			"bufferView":29,
			"componentType":5123,
			"count":4332,
			"type":"SCALAR"
		},
		{
			"bufferView":30,
			"componentType":5126,
			"count":1034,
			"max":[
				0.186416894197464,
				0.34322071075439453,
				0.08901479840278625
			],
			"min":[
				-0.18641692399978638,
				0.008509581908583641,
				-0.15693527460098267
			],
			"type":"VEC3"
		},
		{
			"bufferView":31,
			"componentType":5126,
			"count":1034,
			"type":"VEC3"
		},
		{
			"bufferView":32,
			"componentType":5126,
			"count":1034,
			"type":"VEC2"
		},
		{
			"bufferView":33,
			"componentType":5121,
			"count":1034,
			"type":"VEC4"
		},
		{
			"bufferView":34,
			"componentType":5126,
			"count":1034,
			"type":"VEC4"
		},
		{
			"bufferView":35,
			"componentType":5123,
			"count":4608,
			"type":"SCALAR"
		},
		{
			"bufferView":36,
			"componentType":5126,
			"count":304,
			"max":[
				0.05711999908089638,
				1.8888800144195557,
				-0.07840000092983246
			],
			"min":[
				-0.05711999908089638,
				1.8631199598312378,
				-0.09855999797582626
			],
			"type":"VEC3"
		},
		{
			"bufferView":37,
			"componentType":5126,
			"count":304,
			"type":"VEC3"
		},
		{
			"bufferView":38,
			"componentType":5126,
			"count":304,
			"type":"VEC2"
		},
		{
			"bufferView":39,
			"componentType":5121,
			"count":304,
			"type":"VEC4"
		},
		{
			"bufferView":40,
			"componentType":5126,
			"count":304,
			"type":"VEC4"
		},
		{
			"bufferView":41,
			"componentType":5123,
			"count":1152,
			"type":"SCALAR"
		},
		{
			"bufferView":42,
			"componentType":5126,
			"count":220,
			"max":[
				0.04871999844908714,
				1.8869760036468506,
				-0.09096667915582657
			],
			"min":[
				-0.04871999844908714,
				1.8650239706039429,
				-0.10055332630872726
			],
			"type":"VEC3"
		},
		{
			"bufferView":43,
			"componentType":5126,
			"count":220,
			"type":"VEC3"
		},
		{
			"bufferView":44,
			"componentType":5126,
			"count":220,
			"type":"VEC2"
		},
		{
			"bufferView":45,
			"componentType":5121,
			"count":220,
			"type":"VEC4"
		},
		{
			"bufferView":46,
			"componentType":5126,
			"count":220,
			"type":"VEC4"
		},
		{
			"bufferView":47,
			"componentType":5123,
			"count":720,
			"type":"SCALAR"
		},
		{
			"bufferView":48,
			"componentType":5126,
			"count":160,
			"max":[
				0.042553771287202835,
				1.8810399770736694,
				-0.0973256304860115
			],
			"min":[
				-0.042553771287202835,
				1.870959997177124,
				-0.10158637166023254
			],
			"type":"VEC3"
		},
		{
			"bufferView":49,
			"componentType":5126,
			"count":160,
			"type":"VEC3"
		},
		{
			"bufferView":50,
			"componentType":5126,
			"count":160,
			"type":"VEC2"
		},
		{
			"bufferView":51,
			"componentType":5121,
			"count":160,
			"type":"VEC4"
		},
		{
			"bufferView":52,
			"componentType":5126,
			"count":160,
			"type":"VEC4"
		},
		{
			"bufferView":53,
			"componentType":5123,
			"count":480,
			"type":"SCALAR"
		},
		{
			"bufferView":54,
			"componentType":5126,
			"count":98,
			"max":[
				0.02127999998629093,
				1.8004000186920166,
				-0.08704667538404465
			],
			"min":[
				-0.02127999998629093,
				1.7903200387954712,
				-0.09663332998752594
			],
			"type":"VEC3"
		},
		{
			"bufferView":55,
			"componentType":5126,
			"count":98,
			"type":"VEC3"
		},
		{
			"bufferView":56,
			"componentType":5126,
			"count":98,
			"type":"VEC2"
		},
		{
			"bufferView":57,
			"componentType":5121,
			"count":98,
			"type":"VEC4"
		},
		{
			"bufferView":58,
			"componentType":5126,
			"count":98,
			"type":"VEC4"
		},
		{
			"bufferView":59,
			"componentType":5123,
			"count":360,
			"type":"SCALAR"
		},
		{
			"bufferView":60,
			"componentType":5126,
			"count":162,
			"max":[
				0.3023921549320221,
				1.601599931716919,
				0.21772800385951996
			],
			"min":[
				-0.3023921549320221,
				0.5152000188827515,
				-0.20954692363739014
			],
			"type":"VEC3"
		},
		{
			"bufferView":61,
			"componentType":5126,
			"count":162,
			"type":"VEC3"
		},
		{
			"bufferView":62,
			"componentType":5126,
			"count":162,
			"type":"VEC2"
		},
		{
			"bufferView":63,
			"componentType":5121,
			"count":162,
			"type":"VEC4"
		},
		{
			"bufferView":64,
			"componentType":5126,
			"count":162,
			"type":"VEC4"
		},
		{
			"bufferView":65,
			"componentType":5123,
			"count":660,
			"type":"SCALAR"
		},
		{
			"bufferView":66,
			"componentType":5126,
			"count":42,
			"max":[
				0.09460937231779099,
				1.7023999691009521,
				0.08568000048398972
			],
			"min":[
				-0.09460937231779099,
				1.635200023651123,
				-0.07715030759572983
			],
			"type":"VEC3"
		},
		{
			"bufferView":67,
			"componentType":5126,
			"count":42,
			"type":"VEC3"
		},
		{
			"bufferView":68,
			"componentType":5126,
			"count":42,
			"type":"VEC2"
		},
		{
			"bufferView":69,
			"componentType":5121,
			"count":42,
			"type":"VEC4"
		},
		{
			"bufferView":70,
			"componentType":5126,
			"count":42,
			"type":"VEC4"
		},
		{
			"bufferView":71,
			"componentType":5123,
			"count":96,
			"type":"SCALAR"
		},
		{
			"bufferView":72,
			"componentType":5126,
			"count":24,
			"max":[
				0.02800000086426735,
				1.086400032043457,
				-0.10527999699115753
			],
			"min":[
				-0.02800000086426735,
				1.041599988937378,
				-0.11872000247240067
			],
			"type":"VEC3"
		},
		{
			"bufferView":73,
			"componentType":5126,
			"count":24,
			"type":"VEC3"
		},
		{
			"bufferView":74,
			"componentType":5126,
			"count":24,
			"type":"VEC2"
		},
		{
			"bufferView":75,
			"componentType":5121,
			"count":24,
			"type":"VEC4"
		},
		{
			"bufferView":76,
			"componentType":5126,
			"count":24,
			"type":"VEC4"
		},
		{
			"bufferView":77,
			"componentType":5123,
			"count":36,
			"type":"SCALAR"
		},
		{
			"bufferView":78,
			"componentType":5126,
			"count":17,
			"type":"MAT4"
		},
		{
			"bufferView":79,
			"componentType":5126,
			"count":2,
			"max":[
				0.6
			],
			"min":[
				0
			],
			"type":"SCALAR"
		},
		{
			"bufferView":80,
			"componentType":5126,
			"count":2,
			"type":"VEC3"
		},
		{
			"bufferView":81,
			"componentType":5126,
			"count":2,
			"type":"VEC4"
		},
		{
			"bufferView":82,
			"componentType":5126,
			"count":2,
			"type":"VEC3"
		},
		{
			"bufferView":83,
			"componentType":5126,
			"count":2,
			"type":"VEC3"
		},
		{
			"bufferView":84,
			"componentType":5126,
			"count":2,
			"type":"VEC4"
		},
		{
			"bufferView":85,
			"componentType":5126,
			"count":2,
			"type":"VEC3"
		},
		{
			"bufferView":86,
			"componentType":5126,
			"count":2,
			"type":"VEC3"
		},
		{
			"bufferView":87,
			"componentType":5126,
			"count":19,
			"max":[
				0.6
			],
			"min":[
				0
			],
			"type":"SCALAR"
		},
		{
			"bufferView":88,
			"componentType":5126,
			"count":19,
			"type":"VEC4"
		},
		{
			"bufferView":89,
			"componentType":5126,
			"count":2,
			"type":"VEC3"
		},
		{
			"bufferView":90,
			"componentType":5126,
			"count":2,
			"type":"VEC3"
		},
		{
			"bufferView":91,
			"componentType":5126,
			"count":2,
			"type":"VEC4"
		},
		{
			"bufferView":92,
			"componentType":5126,
			"count":2,
			"type":"VEC3"
		},
		{
			"bufferView":93,
			"componentType":5126,
			"count":2,
			"type":"VEC3"
		},
		{
			"bufferView":94,
			"componentType":5126,
			"count":2,
			"type":"VEC4"
		},
		{
			"bufferView":95,
			"componentType":5126,
			"count":2,
			"type":"VEC3"
		},
		{
			"bufferView":96,
			"componentType":5126,
			"count":2,
			"type":"VEC3"
		},
		{
			"bufferView":97,
			"componentType":5126,
			"count":19,
			"type":"VEC4"
		},
		{
			"bufferView":98,
			"componentType":5126,
			"count":2,
			"type":"VEC3"
		},
		{
			"bufferView":99,
			"componentType":5126,
			"count":2,
			"type":"VEC3"
		},
		{
			"bufferView":100,
			"componentType":5126,
			"count":19,
			"type":"VEC4"
		},
		{
			"bufferView":101,
			"componentType":5126,
			"count":2,
			"type":"VEC3"
		},
		{
			"bufferView":102,
			"componentType":5126,
			"count":2,
			"type":"VEC3"
		},
		{
			"bufferView":103,
			"componentType":5126,
			"count":2,
			"type":"VEC4"
		},
		{
			"bufferView":104,
			"componentType":5126,
			"count":2,
			"type":"VEC3"
		},
		{
			"bufferView":105,
			"componentType":5126,
			"count":2,
			"type":"VEC3"
		},
		{
			"bufferView":106,
			"componentType":5126,
			"count":19,
			"type":"VEC4"
		},
		{
			"bufferView":107,
			"componentType":5126,
			"count":2,
			"type":"VEC3"
		},
		{
			"bufferView":108,
			"componentType":5126,
			"count":2,
			"type":"VEC3"
		},
		{
			"bufferView":109,
			"componentType":5126,
			"count":2,
			"type":"VEC4"
		},
		{
			"bufferView":110,
			"componentType":5126,
			"count":2,
			"type":"VEC3"
		},
		{
			"bufferView":111,
			"componentType":5126,
			"count":2,
			"type":"VEC3"
		},
		{
			"bufferView":112,
			"componentType":5126,
			"count":2,
			"type":"VEC4"
		},
		{
			"bufferView":113,
			"componentType":5126,
			"count":2,
			"type":"VEC3"
		},
		{
			"bufferView":114,
			"componentType":5126,
			"count":2,
			"type":"VEC3"
		},
		{
			"bufferView":115,
			"componentType":5126,
			"count":19,
			"type":"VEC4"
		},
		{
			"bufferView":116,
			"componentType":5126,
			"count":2,
			"type":"VEC3"
		},
		{
			"bufferView":117,
			"componentType":5126,
			"count":2,
			"type":"VEC3"
		},
		{
			"bufferView":118,
			"componentType":5126,
			"count":2,
			"type":"VEC4"
		},
		{
			"bufferView":119,
			"componentType":5126,
			"count":2,
			"type":"VEC3"
		},
		{
			"bufferView":120,
			"componentType":5126,
			"count":2,
			"type":"VEC3"
		},
		{
			"bufferView":121,
			"componentType":5126,
			"count":2,
			"type":"VEC4"
		},
		{
			"bufferView":122,
			"componentType":5126,
			"count":2,
			"type":"VEC3"
		},
		{
			"bufferView":123,
			"componentType":5126,
			"count":2,
			"type":"VEC3"
		},
		{
			"bufferView":124,
			"componentType":5126,
			"count":19,
			"type":"VEC4"
		},
		{
			"bufferView":125,
			"componentType":5126,
			"count":2,
			"type":"VEC3"
		},
		{
			"bufferView":126,
			"componentType":5126,
			"count":2,
			"type":"VEC3"
		},
		{
			"bufferView":127,
			"componentType":5126,
			"count":2,
			"type":"VEC4"
		},
		{
			"bufferView":128,
			"componentType":5126,
			"count":2,
			"type":"VEC3"
		},
		{
			"bufferView":129,
			"componentType":5126,
			"count":2,
			"type":"VEC3"
		},
		{
			"bufferView":130,
			"componentType":5126,
			"count":2,
			"type":"VEC4"
		},
		{
			"bufferView":131,
			"componentType":5126,
			"count":2,
			"type":"VEC3"
		},
		{
			"bufferView":132,
			"componentType":5126,
			"count":61,
			"max":[
				2
			],
			"min":[
				0
			],
			"type":"SCALAR"
		},
		{
			"bufferView":133,
			"componentType":5126,
			"count":61,
			"type":"VEC3"
		},
		{
			"bufferView":134,
			"componentType":5126,
			"count":2,
			"max":[
				2
			],
			"min":[
				0
			],
			"type":"SCALAR"
		},
		{
			"bufferView":135,
			"componentType":5126,
			"count":2,
			"type":"VEC4"
		},
		{
			"bufferView":136,
			"componentType":5126,
			"count":2,
			"type":"VEC3"
		},
		{
			"bufferView":137,
			"componentType":5126,
			"count":2,
			"type":"VEC3"
		},
		{
			"bufferView":138,
			"componentType":5126,
			"count":2,
			"type":"VEC4"
		},
		{
			"bufferView":139,
			"componentType":5126,
			"count":2,
			"type":"VEC3"
		},
		{
			"bufferView":140,
			"componentType":5126,
			"count":2,
			"type":"VEC3"
		},
		{
			"bufferView":141,
			"componentType":5126,
			"count":61,
			"type":"VEC4"
		},
		{
			"bufferView":142,
			"componentType":5126,
			"count":2,
			"type":"VEC3"
		},
		{
			"bufferView":143,
			"componentType":5126,
			"count":2,
			"type":"VEC3"
		},
		{
			"bufferView":144,
			"componentType":5126,
			"count":2,
			"type":"VEC4"
		},
		{
			"bufferView":145,
			"componentType":5126,
			"count":2,
			"type":"VEC3"
		},
		{
			"bufferView":146,
			"componentType":5126,
			"count":2,
			"type":"VEC3"
		},
		{
			"bufferView":147,
			"componentType":5126,
			"count":61,
			"type":"VEC4"
		},
		{
			"bufferView":148,
			"componentType":5126,
			"count":2,
			"type":"VEC3"
		},
		{
			"bufferView":149,
			"componentType":5126,
			"count":2,
			"type":"VEC3"
		},
		{
			"bufferView":150,
			"componentType":5126,
			"count":61,
			"type":"VEC4"
		},
		{
			"bufferView":151,
			"componentType":5126,
			"count":2,
			"type":"VEC3"
		},
		{
			"bufferView":152,
			"componentType":5126,
			"count":2,
			"type":"VEC3"
		},
		{
			"bufferView":153,
			"componentType":5126,
			"count":2,
			"type":"VEC4"
		},
		{
			"bufferView":154,
			"componentType":5126,
			"count":2,
			"type":"VEC3"
		},
		{
			"bufferView":155,
			"componentType":5126,
			"count":2,
			"type":"VEC3"
		},
		{
			"bufferView":156,
			"componentType":5126,
			"count":2,
			"type":"VEC4"
		},
		{
			"bufferView":157,
			"componentType":5126,
			"count":2,
			"type":"VEC3"
		},
		{
			"bufferView":158,
			"componentType":5126,
			"count":2,
			"type":"VEC3"
		},
		{
			"bufferView":159,
			"componentType":5126,
			"count":61,
			"type":"VEC4"
		},
		{
			"bufferView":160,
			"componentType":5126,
			"count":2,
			"type":"VEC3"
		},
		{
			"bufferView":161,
			"componentType":5126,
			"count":2,
			"type":"VEC3"
		},
		{
			"bufferView":162,
			"componentType":5126,
			"count":2,
			"type":"VEC4"
		},
		{
			"bufferView":163,
			"componentType":5126,
			"count":2,
			"type":"VEC3"
		},
		{
			"bufferView":164,
			"componentType":5126,
			"count":2,
			"type":"VEC3"
		},
		{
			"bufferView":165,
			"componentType":5126,
			"count":2,
			"type":"VEC4"
		},
		{
			"bufferView":166,
			"componentType":5126,
			"count":2,
			"type":"VEC3"
		},
		{
			"bufferView":167,
			"componentType":5126,
			"count":2,
			"type":"VEC3"
		},
		{
			"bufferView":168,
			"componentType":5126,
			"count":2,
			"type":"VEC4"
		},
		{
			"bufferView":169,
			"componentType":5126,
			"count":2,
			"type":"VEC3"
		},
		{
			"bufferView":170,
			"componentType":5126,
			"count":2,
			"type":"VEC3"
		},
		{
			"bufferView":171,
			"componentType":5126,
			"count":2,
			"type":"VEC4"
		},
		{
			"bufferView":172,
			"componentType":5126,
			"count":2,
			"type":"VEC3"
		},
		{
			"bufferView":173,
			"componentType":5126,
			"count":2,
			"type":"VEC3"
		},
		{
			"bufferView":174,
			"componentType":5126,
			"count":2,
			"type":"VEC4"
		},
		{
			"bufferView":175,
			"componentType":5126,
			"count":2,
			"type":"VEC3"
		},
		{
			"bufferView":176,
			"componentType":5126,
			"count":2,
			"type":"VEC3"
		},
		{
			"bufferView":177,
			"componentType":5126,
			"count":2,
			"type":"VEC4"
		},
		{
			"bufferView":178,
			"componentType":5126,
			"count":2,
			"type":"VEC3"
		},
		{
			"bufferView":179,
			"componentType":5126,
			"count":2,
			"type":"VEC3"
		},
		{
			"bufferView":180,
			"componentType":5126,
			"count":2,
			"type":"VEC4"
		},
		{
			"bufferView":181,
			"componentType":5126,
			"count":2,
			"type":"VEC3"
		},
		{
			"bufferView":182,
			"componentType":5126,
			"count":2,
			"type":"VEC3"
		},
		{
			"bufferView":183,
			"componentType":5126,
			"count":2,
			"type":"VEC4"
		},
		{
			"bufferView":184,
			"componentType":5126,
			"count":2,
			"type":"VEC3"
		},
		{
			"bufferView":185,
			"componentType":5126,
			"count":31,
			"max":[
				1
			],
			"min":[
				0
			],
			"type":"SCALAR"
		},
		{
			"bufferView":186,
			"componentType":5126,
			"count":31,
			"type":"VEC3"
		},
		{
			"bufferView":187,
			"componentType":5126,
			"count":31,
			"type":"VEC4"
		},
		{
			"bufferView":188,
			"componentType":5126,
			"count":2,
			"max":[
				1
			],
			"min":[
				0
			],
			"type":"SCALAR"
		},
		{
			"bufferView":189,
			"componentType":5126,
			"count":2,
			"type":"VEC3"
		},
		{
			"bufferView":190,
			"componentType":5126,
			"count":2,
			"type":"VEC3"
		},
		{
			"bufferView":191,
			"componentType":5126,
			"count":2,
			"type":"VEC4"
		},
		{
			"bufferView":192,
			"componentType":5126,
			"count":2,
			"type":"VEC3"
		},
		{
			"bufferView":193,
			"componentType":5126,
			"count":2,
			"type":"VEC3"
		},
		{
			"bufferView":194,
			"componentType":5126,
			"count":31,
			"type":"VEC4"
		},
		{
			"bufferView":195,
			"componentType":5126,
			"count":2,
			"type":"VEC3"
		},
		{
			"bufferView":196,
			"componentType":5126,
			"count":2,
			"type":"VEC3"
		},
		{
			"bufferView":197,
			"componentType":5126,
			"count":2,
			"type":"VEC4"
		},
		{
			"bufferView":198,
			"componentType":5126,
			"count":2,
			"type":"VEC3"
		},
		{
			"bufferView":199,
			"componentType":5126,
			"count":2,
			"type":"VEC3"
		},
		{
			"bufferView":200,
			"componentType":5126,
			"count":2,
			"type":"VEC4"
		},
		{
			"bufferView":201,
			"componentType":5126,
			"count":2,
			"type":"VEC3"
		},
		{
			"bufferView":202,
			"componentType":5126,
			"count":2,
			"type":"VEC3"
		},
		{
			"bufferView":203,
			"componentType":5126,
			"count":31,
			"type":"VEC4"
		},
		{
			"bufferView":204,
			"componentType":5126,
			"count":2,
			"type":"VEC3"
		},
		{
			"bufferView":205,
			"componentType":5126,
			"count":2,
			"type":"VEC3"
		},
		{
			"bufferView":206,
			"componentType":5126,
			"count":2,
			"type":"VEC4"
		},
		{
			"bufferView":207,
			"componentType":5126,
			"count":2,
			"type":"VEC3"
		},
		{
			"bufferView":208,
			"componentType":5126,
			"count":2,
			"type":"VEC3"
		},
		{
			"bufferView":209,
			"componentType":5126,
			"count":2,
			"type":"VEC4"
		},
		{
			"bufferView":210,
			"componentType":5126,
			"count":2,
			"type":"VEC3"
		},
		{
			"bufferView":211,
			"componentType":5126,
			"count":2,
			"type":"VEC3"
		},
		{
			"bufferView":212,
			"componentType":5126,
			"count":31,
			"type":"VEC4"
		},
		{
			"bufferView":213,
			"componentType":5126,
			"count":2,
			"type":"VEC3"
		},
		{
			"bufferView":214,
			"componentType":5126,
			"count":2,
			"type":"VEC3"
		},
		{
			"bufferView":215,
			"componentType":5126,
			"count":2,
			"type":"VEC4"
		},
		{
			"bufferView":216,
			"componentType":5126,
			"count":2,
			"type":"VEC3"
		},
		{
			"bufferView":217,
			"componentType":5126,
			"count":2,
			"type":"VEC3"
		},
		{
			"bufferView":218,
			"componentType":5126,
			"count":2,
			"type":"VEC4"
		},
		{
			"bufferView":219,
			"componentType":5126,
			"count":2,
			"type":"VEC3"
		},
		{
			"bufferView":220,
			"componentType":5126,
			"count":2,
			"type":"VEC3"
		},
		{
			"bufferView":221,
			"componentType":5126,
			"count":31,
			"type":"VEC4"
		},
		{
			"bufferView":222,
			"componentType":5126,
			"count":2,
			"type":"VEC3"
		},
		{
			"bufferView":223,
			"componentType":5126,
			"count":2,
			"type":"VEC3"
		},
		{
			"bufferView":224,
			"componentType":5126,
			"count":31,
			"type":"VEC4"
		},
		{
			"bufferView":225,
			"componentType":5126,
			"count":2,
			"type":"VEC3"
		},
		{
			"bufferView":226,
			"componentType":5126,
			"count":2,
			"type":"VEC3"
		},
		{
			"bufferView":227,
			"componentType":5126,
			"count":31,
			"type":"VEC4"
		},
		{
			"bufferView":228,
			"componentType":5126,
			"count":2,
			"type":"VEC3"
		},
		{
			"bufferView":229,
			"componentType":5126,
			"count":2,
			"type":"VEC3"
		},
		{
			"bufferView":230,
			"componentType":5126,
			"count":31,
			"type":"VEC4"
		},
		{
			"bufferView":231,
			"componentType":5126,
			"count":2,
			"type":"VEC3"
		},
		{
			"bufferView":232,
			"componentType":5126,
			"count":2,
			"type":"VEC3"
		},
		{
			"bufferView":233,
			"componentType":5126,
			"count":31,
			"type":"VEC4"
		},
		{
			"bufferView":234,
			"componentType":5126,
			"count":2,
			"type":"VEC3"
		},
		{
			"bufferView":235,
			"componentType":5126,
			"count":2,
			"type":"VEC3"
		},
		{
			"bufferView":236,
			"componentType":5126,
			"count":31,
			"type":"VEC4"
		},
		{
			"bufferView":237,
			"componentType":5126,
			"count":2,
			"type":"VEC3"
		}
	],
	"bufferViews":[
		{
			"buffer":0,
			"byteLength":17244,
			"byteOffset":0,
			"target":34962
		},
		{
			"buffer":0,
			"byteLength":17244,
			"byteOffset":17244,
			"target":34962
		},
		{
			"buffer":0,
			"byteLength":11496,
			"byteOffset":34488,
			"target":34962
		},
		{
			"buffer":0,
			"byteLength":5748,
			"byteOffset":45984,
			"target":34962
		},
		{
			"buffer":0,
			"byteLength":22992,
			"byteOffset":51732,
			"target":34962
		},
		{
			"buffer":0,
			"byteLength":11736,
			"byteOffset":74724,
			"target":34963
		},
		{
			"buffer":0,
			"byteLength":32004,
			"byteOffset":86460,
			"target":34962
		},
		{
			"buffer":0,
			"byteLength":32004,
			"byteOffset":118464,
			"target":34962
		},
		{
			"buffer":0,
			"byteLength":21336,
			"byteOffset":150468,
			"target":34962
		},
		{
			"buffer":0,
			"byteLength":10668,
			"byteOffset":171804,
			"target":34962
		},
		{
			"buffer":0,
			"byteLength":42672,
			"byteOffset":182472,
			"target":34962
		},
		{
			"buffer":0,
			"byteLength":16656,
			"byteOffset":225144,
			"target":34963
		},
		{
			"buffer":0,
			"byteLength":17532,
			"byteOffset":241800,
			"target":34962
		},
		{
			"buffer":0,
			"byteLength":17532,
			"byteOffset":259332,
			"target":34962
		},
		{
			"buffer":0,
			"byteLength":11688,
			"byteOffset":276864,
			"target":34962
		},
		{
			"buffer":0,
			"byteLength":5844,
			"byteOffset":288552,
			"target":34962
		},
		{
			"buffer":0,
			"byteLength":23376,
			"byteOffset":294396,
			"target":34962
		},
		{
			"buffer":0,
			"byteLength":13296,
			"byteOffset":317772,
			"target":34963
		},
		{
			"buffer":0,
			"byteLength":780,
			"byteOffset":331068,
			"target":34962
		},
		{
			"buffer":0,
			"byteLength":780,
			"byteOffset":331848,
			"target":34962
		},
		{
			"buffer":0,
			"byteLength":520,
			"byteOffset":332628,
			"target":34962
		},
		{
			"buffer":0,
			"byteLength":260,
			"byteOffset":333148,
			"target":34962
		},
		{
			"buffer":0,
			"byteLength":1040,
			"byteOffset":333408,
			"target":34962
		},
		{
			"buffer":0,
			"byteLength":384,
			"byteOffset":334448,
			"target":34963
		},
		{
			"buffer":0,
			"byteLength":11724,
			"byteOffset":334832,
			"target":34962
		},
		{
			"buffer":0,
			"byteLength":11724,
			"byteOffset":346556,
			"target":34962
		},
		{
			"buffer":0,
			"byteLength":7816,
			"byteOffset":358280,
			"target":34962
		},
		{
			"buffer":0,
			"byteLength":3908,
			"byteOffset":366096,
			"target":34962
		},
		{
			"buffer":0,
			"byteLength":15632,
			"byteOffset":370004,
			"target":34962
		},
		{
			"buffer":0,
			"byteLength":8664,
			"byteOffset":385636,
			"target":34963
		},
		{
			"buffer":0,
			"byteLength":12408,
			"byteOffset":394300,
			"target":34962
		},
		{
			"buffer":0,
			"byteLength":12408,
			"byteOffset":406708,
			"target":34962
		},
		{
			"buffer":0,
			"byteLength":8272,
			"byteOffset":419116,
			"target":34962
		},
		{
			"buffer":0,
			"byteLength":4136,
			"byteOffset":427388,
			"target":34962
		},
		{
			"buffer":0,
			"byteLength":16544,
			"byteOffset":431524,
			"target":34962
		},
		{
			"buffer":0,
			"byteLength":9216,
			"byteOffset":448068,
			"target":34963
		},
		{
			"buffer":0,
			"byteLength":3648,
			"byteOffset":457284,
			"target":34962
		},
		{
			"buffer":0,
			"byteLength":3648,
			"byteOffset":460932,
			"target":34962
		},
		{
			"buffer":0,
			"byteLength":2432,
			"byteOffset":464580,
			"target":34962
		},
		{
			"buffer":0,
			"byteLength":1216,
			"byteOffset":467012,
			"target":34962
		},
		{
			"buffer":0,
			"byteLength":4864,
			"byteOffset":468228,
			"target":34962
		},
		{
			"buffer":0,
			"byteLength":2304,
			"byteOffset":473092,
			"target":34963
		},
		{
			"buffer":0,
			"byteLength":2640,
			"byteOffset":475396,
			"target":34962
		},
		{
			"buffer":0,
			"byteLength":2640,
			"byteOffset":478036,
			"target":34962
		},
		{
			"buffer":0,
			"byteLength":1760,
			"byteOffset":480676,
			"target":34962
		},
		{
			"buffer":0,
			"byteLength":880,
			"byteOffset":482436,
			"target":34962
		},
		{
			"buffer":0,
			"byteLength":3520,
			"byteOffset":483316,
			"target":34962
		},
		{
			"buffer":0,
			"byteLength":1440,
			"byteOffset":486836,
			"target":34963
		},
		{
			"buffer":0,
			"byteLength":1920,
			"byteOffset":488276,
			"target":34962
		},
		{
			"buffer":0,
			"byteLength":1920,
			"byteOffset":490196,
			"target":34962
		},
		{
			"buffer":0,
			"byteLength":1280,
			"byteOffset":492116,
			"target":34962
		},
		{
			"buffer":0,
			"byteLength":640,
			"byteOffset":493396,
			"target":34962
		},
		{
			"buffer":0,
			"byteLength":2560,
			"byteOffset":494036,
			"target":34962
		},
		{
			"buffer":0,
			"byteLength":960,
			"byteOffset":496596,
			"target":34963
		},
		{
			"buffer":0,
			"byteLength":1176,
			"byteOffset":497556,
			"target":34962
		},
		{
			"buffer":0,
			"byteLength":1176,
			"byteOffset":498732,
			"target":34962
		},
		{
			"buffer":0,
			"byteLength":784,
			"byteOffset":499908,
			"target":34962
		},
		{
			"buffer":0,
			"byteLength":392,
			"byteOffset":500692,
			"target":34962
		},
		{
			"buffer":0,
			"byteLength":1568,
			"byteOffset":501084,
			"target":34962
		},
		{
			"buffer":0,
			"byteLength":720,
			"byteOffset":502652,
			"target":34963
		},
		{
			"buffer":0,
			"byteLength":1944,
			"byteOffset":503372,
			"target":34962
		},
		{
			"buffer":0,
			"byteLength":1944,
			"byteOffset":505316,
			"target":34962
		},
		{
			"buffer":0,
			"byteLength":1296,
			"byteOffset":507260,
			"target":34962
		},
		{
			"buffer":0,
			"byteLength":648,
			"byteOffset":508556,
			"target":34962
		},
		{
			"buffer":0,
			"byteLength":2592,
			"byteOffset":509204,
			"target":34962
		},
		{
			"buffer":0,
			"byteLength":1320,
			"byteOffset":511796,
			"target":34963
		},
		{
			"buffer":0,
			"byteLength":504,
			"byteOffset":513116,
			"target":34962
		},
		{
			"buffer":0,
			"byteLength":504,
			"byteOffset":513620,
			"target":34962
		},
		{
			"buffer":0,
			"byteLength":336,
			"byteOffset":514124,
			"target":34962
		},
		{
			"buffer":0,
			"byteLength":168,
			"byteOffset":514460,
			"target":34962
		},
		{
			"buffer":0,
			"byteLength":672,
			"byteOffset":514628,
			"target":34962
		},
		{
			"buffer":0,
			"byteLength":192,
			"byteOffset":515300,
			"target":34963
		},
		{
			"buffer":0,
			"byteLength":288,
			"byteOffset":515492,
			"target":34962
		},
		{
			"buffer":0,
			"byteLength":288,
			"byteOffset":515780,
			"target":34962
		},
		{
			"buffer":0,
			"byteLength":192,
			"byteOffset":516068,
			"target":34962
		},
		{
			"buffer":0,
			"byteLength":96,
			"byteOffset":516260,
			"target":34962
		},
		{
			"buffer":0,
			"byteLength":384,
			"byteOffset":516356,
			"target":34962
		},
		{
			"buffer":0,
			"byteLength":72,
			"byteOffset":516740,
			"target":34963
		},
		{
			"buffer":0,
			"byteLength":1088,
			"byteOffset":516812
		},
		{
			"buffer":0,
			"byteLength":8,
			"byteOffset":517900
		},
		{
			"buffer":0,
			"byteLength":24,
			"byteOffset":517908
		},
		{
			"buffer":0,
			"byteLength":32,
			"byteOffset":517932
		},
		{
			"buffer":0,
			"byteLength":24,
			"byteOffset":517964
		},
		{
			"buffer":0,
			"byteLength":24,
			"byteOffset":517988
		},
		{
			"buffer":0,
			"byteLength":32,
			"byteOffset":518012
		},
		{
			"buffer":0,
			"byteLength":24,
			"byteOffset":518044
		},
		{
			"buffer":0,
			"byteLength":24,
			"byteOffset":518068
		},
		{
			"buffer":0,
			"byteLength":76,
			"byteOffset":518092
		},
		{
			"buffer":0,
			"byteLength":304,
			"byteOffset":518168
		},
		{
			"buffer":0,
			"byteLength":24,
			"byteOffset":518472
		},
		{
			"buffer":0,
			"byteLength":24,
			"byteOffset":518496
		},
		{
			"buffer":0,
			"byteLength":32,
			"byteOffset":518520
		},
		{
			"buffer":0,
			"byteLength":24,
			"byteOffset":518552
		},
		{
			"buffer":0,
			"byteLength":24,
			"byteOffset":518576
		},
		{
			"buffer":0,
			"byteLength":32,
			"byteOffset":518600
		},
		{
			"buffer":0,
			"byteLength":24,
			"byteOffset":518632
		},
		{
			"buffer":0,
			"byteLength":24,
			"byteOffset":518656
		},
		{
			"buffer":0,
			"byteLength":304,
			"byteOffset":518680
		},
		{
			"buffer":0,
			"byteLength":24,
			"byteOffset":518984
		},
		{
			"buffer":0,
			"byteLength":24,
			"byteOffset":519008
		},
		{
			"buffer":0,
			"byteLength":304,
			"byteOffset":519032
		},
		{
			"buffer":0,
			"byteLength":24,
			"byteOffset":519336
		},
		{
			"buffer":0,
			"byteLength":24,
			"byteOffset":519360
		},
		{
			"buffer":0,
			"byteLength":32,
			"byteOffset":519384
		},
		{
			"buffer":0,
			"byteLength":24,
			"byteOffset":519416
		},
		{
			"buffer":0,
			"byteLength":24,
			"byteOffset":519440
		},
		{
			"buffer":0,
			"byteLength":304,
			"byteOffset":519464
		},
		{
			"buffer":0,
			"byteLength":24,
			"byteOffset":519768
		},
		{
			"buffer":0,
			"byteLength":24,
			"byteOffset":519792
		},
		{
			"buffer":0,
			"byteLength":32,
			"byteOffset":519816
		},
		{
			"buffer":0,
			"byteLength":24,
			"byteOffset":519848
		},
		{
			"buffer":0,
			"byteLength":24,
			"byteOffset":519872
		},
		{
			"buffer":0,
			"byteLength":32,
			"byteOffset":519896
		},
		{
			"buffer":0,
			"byteLength":24,
			"byteOffset":519928
		},
		{
			"buffer":0,
			"byteLength":24,
			"byteOffset":519952
		},
		{
			"buffer":0,
			"byteLength":304,
			"byteOffset":519976
		},
		{
			"buffer":0,
			"byteLength":24,
			"byteOffset":520280
		},
		{
			"buffer":0,
			"byteLength":24,
			"byteOffset":520304
		},
		{
			"buffer":0,
			"byteLength":32,
			"byteOffset":520328
		},
		{
			"buffer":0,
			"byteLength":24,
			"byteOffset":520360
		},
		{
			"buffer":0,
			"byteLength":24,
			"byteOffset":520384
		},
		{
			"buffer":0,
			"byteLength":32,
			"byteOffset":520408
		},
		{
			"buffer":0,
			"byteLength":24,
			"byteOffset":520440
		},
		{
			"buffer":0,
			"byteLength":24,
			"byteOffset":520464
		},
		{
			"buffer":0,
			"byteLength":304,
			"byteOffset":520488
		},
		{
			"buffer":0,
			"byteLength":24,
			"byteOffset":520792
		},
		{
			"buffer":0,
			"byteLength":24,
			"byteOffset":520816
		},
		{
			"buffer":0,
			"byteLength":32,
			"byteOffset":520840
		},
		{
			"buffer":0,
			"byteLength":24,
			"byteOffset":520872
		},
		{
			"buffer":0,
			"byteLength":24,
			"byteOffset":520896
		},
		{
			"buffer":0,
			"byteLength":32,
			"byteOffset":520920
		},
		{
			"buffer":0,
			"byteLength":24,
			"byteOffset":520952
		},
		{
			"buffer":0,
			"byteLength":244,
			"byteOffset":520976
		},
		{
			"buffer":0,
			"byteLength":732,
			"byteOffset":521220
		},
		{
			"buffer":0,
			"byteLength":8,
			"byteOffset":521952
		},
		{
			"buffer":0,
			"byteLength":32,
			"byteOffset":521960
		},
		{
			"buffer":0,
			"byteLength":24,
			"byteOffset":521992
		},
		{
			"buffer":0,
			"byteLength":24,
			"byteOffset":522016
		},
		{
			"buffer":0,
			"byteLength":32,
			"byteOffset":522040
		},
		{
			"buffer":0,
			"byteLength":24,
			"byteOffset":522072
		},
		{
			"buffer":0,
			"byteLength":24,
			"byteOffset":522096
		},
		{
			"buffer":0,
			"byteLength":976,
			"byteOffset":522120
		},
		{
			"buffer":0,
			"byteLength":24,
			"byteOffset":523096
		},
		{
			"buffer":0,
			"byteLength":24,
			"byteOffset":523120
		},
		{
			"buffer":0,
			"byteLength":32,
			"byteOffset":523144
		},
		{
			"buffer":0,
			"byteLength":24,
			"byteOffset":523176
		},
		{
			"buffer":0,
			"byteLength":24,
			"byteOffset":523200
		},
		{
			"buffer":0,
			"byteLength":976,
			"byteOffset":523224
		},
		{
			"buffer":0,
			"byteLength":24,
			"byteOffset":524200
		},
		{
			"buffer":0,
			"byteLength":24,
			"byteOffset":524224
		},
		{
			"buffer":0,
			"byteLength":976,
			"byteOffset":524248
		},
		{
			"buffer":0,
			"byteLength":24,
			"byteOffset":525224
		},
		{
			"buffer":0,
			"byteLength":24,
			"byteOffset":525248
		},
		{
			"buffer":0,
			"byteLength":32,
			"byteOffset":525272
		},
		{
			"buffer":0,
			"byteLength":24,
			"byteOffset":525304
		},
		{
			"buffer":0,
			"byteLength":24,
			"byteOffset":525328
		},
		{
			"buffer":0,
			"byteLength":32,
			"byteOffset":525352
		},
		{
			"buffer":0,
			"byteLength":24,
			"byteOffset":525384
		},
		{
			"buffer":0,
			"byteLength":24,
			"byteOffset":525408
		},
		{
			"buffer":0,
			"byteLength":976,
			"byteOffset":525432
		},
		{
			"buffer":0,
			"byteLength":24,
			"byteOffset":526408
		},
		{
			"buffer":0,
			"byteLength":24,
			"byteOffset":526432
		},
		{
			"buffer":0,
			"byteLength":32,
			"byteOffset":526456
		},
		{
			"buffer":0,
			"byteLength":24,
			"byteOffset":526488
		},
		{
			"buffer":0,
			"byteLength":24,
			"byteOffset":526512
		},
		{
			"buffer":0,
			"byteLength":32,
			"byteOffset":526536
		},
		{
			"buffer":0,
			"byteLength":24,
			"byteOffset":526568
		},
		{
			"buffer":0,
			"byteLength":24,
			"byteOffset":526592
		},
		{
			"buffer":0,
			"byteLength":32,
			"byteOffset":526616
		},
		{
			"buffer":0,
			"byteLength":24,
			"byteOffset":526648
		},
		{
			"buffer":0,
			"byteLength":24,
			"byteOffset":526672
		},
		{
			"buffer":0,
			"byteLength":32,
			"byteOffset":526696
		},
		{
			"buffer":0,
			"byteLength":24,
			"byteOffset":526728
		},
		{
			"buffer":0,
			"byteLength":24,
			"byteOffset":526752
		},
		{
			"buffer":0,
			"byteLength":32,
			"byteOffset":526776
		},
		{
			"buffer":0,
			"byteLength":24,
			"byteOffset":526808
		},
		{
			"buffer":0,
			"byteLength":24,
			"byteOffset":526832
		},
		{
			"buffer":0,
			"byteLength":32,
			"byteOffset":526856
		},
		{
			"buffer":0,
			"byteLength":24,
			"byteOffset":526888
		},
		{
			"buffer":0,
			"byteLength":24,
			"byteOffset":526912
		},
		{
			"buffer":0,
			"byteLength":32,
			"byteOffset":526936
		},
		{
			"buffer":0,
			"byteLength":24,
			"byteOffset":526968
		},
		{
			"buffer":0,
			"byteLength":24,
			"byteOffset":526992
		},
		{
			"buffer":0,
			"byteLength":32,
			"byteOffset":527016
		},
		{
			"buffer":0,
			"byteLength":24,
			"byteOffset":527048
		},
		{
			"buffer":0,
			"byteLength":124,
			"byteOffset":527072
		},
		{
			"buffer":0,
			"byteLength":372,
			"byteOffset":527196
		},
		{
			"buffer":0,
			"byteLength":496,
			"byteOffset":527568
		},
		{
			"buffer":0,
			"byteLength":8,
			"byteOffset":528064
		},
		{
			"buffer":0,
			"byteLength":24,
			"byteOffset":528072
		},
		{
			"buffer":0,
			"byteLength":24,
			"byteOffset":528096
		},
		{
			"buffer":0,
			"byteLength":32,
			"byteOffset":528120
		},
		{
			"buffer":0,
			"byteLength":24,
			"byteOffset":528152
		},
		{
			"buffer":0,
			"byteLength":24,
			"byteOffset":528176
		},
		{
			"buffer":0,
			"byteLength":496,
			"byteOffset":528200
		},
		{
			"buffer":0,
			"byteLength":24,
			"byteOffset":528696
		},
		{
			"buffer":0,
			"byteLength":24,
			"byteOffset":528720
		},
		{
			"buffer":0,
			"byteLength":32,
			"byteOffset":528744
		},
		{
			"buffer":0,
			"byteLength":24,
			"byteOffset":528776
		},
		{
			"buffer":0,
			"byteLength":24,
			"byteOffset":528800
		},
		{
			"buffer":0,
			"byteLength":32,
			"byteOffset":528824
		},
		{
			"buffer":0,
			"byteLength":24,
			"byteOffset":528856
		},
		{
			"buffer":0,
			"byteLength":24,
			"byteOffset":528880
		},
		{
			"buffer":0,
			"byteLength":496,
			"byteOffset":528904
		},
		{
			"buffer":0,
			"byteLength":24,
			"byteOffset":529400
		},
		{
			"buffer":0,
			"byteLength":24,
			"byteOffset":529424
		},
		{
			"buffer":0,
			"byteLength":32,
			"byteOffset":529448
		},
		{
			"buffer":0,
			"byteLength":24,
			"byteOffset":529480
		},
		{
			"buffer":0,
			"byteLength":24,
			"byteOffset":529504
		},
		{
			"buffer":0,
			"byteLength":32,
			"byteOffset":529528
		},
		{
			"buffer":0,
			"byteLength":24,
			"byteOffset":529560
		},
		{
			"buffer":0,
			"byteLength":24,
			"byteOffset":529584
		},
		{
			"buffer":0,
			"byteLength":496,
			"byteOffset":529608
		},
		{
			"buffer":0,
			"byteLength":24,
			"byteOffset":530104
		},
		{
			"buffer":0,
			"byteLength":24,
			"byteOffset":530128
		},
		{
			"buffer":0,
			"byteLength":32,
			"byteOffset":530152
		},
		{
			"buffer":0,
			"byteLength":24,
			"byteOffset":530184
		},
		{
			"buffer":0,
			"byteLength":24,
			"byteOffset":530208
		},
		{
			"buffer":0,
			"byteLength":32,
			"byteOffset":530232
		},
		{
			"buffer":0,
			"byteLength":24,
			"byteOffset":530264
		},
		{
			"buffer":0,
			"byteLength":24,
			"byteOffset":530288
		},
		{
			"buffer":0,
			"byteLength":496,
			"byteOffset":530312
		},
		{
			"buffer":0,
			"byteLength":24,
			"byteOffset":530808
		},
		{
			"buffer":0,
			"byteLength":24,
			"byteOffset":530832
		},
		{
			"buffer":0,
			"byteLength":496,
			"byteOffset":530856
		},
		{
			"buffer":0,
			"byteLength":24,
			"byteOffset":531352
		},
		{
			"buffer":0,
			"byteLength":24,
			"byteOffset":531376
		},
		{
			"buffer":0,
			"byteLength":496,
			"byteOffset":531400
		},
		{
			"buffer":0,
			"byteLength":24,
			"byteOffset":531896
		},
		{
			"buffer":0,
			"byteLength":24,
			"byteOffset":531920
		},
		{
			"buffer":0,
			"byteLength":496,
			"byteOffset":531944
		},
		{
			"buffer":0,
			"byteLength":24,
			"byteOffset":532440
		},
		{
			"buffer":0,
			"byteLength":24,
			"byteOffset":532464
		},
		{
			"buffer":0,
			"byteLength":496,
			"byteOffset":532488
		},
		{
			"buffer":0,
			"byteLength":24,
			"byteOffset":532984
		},
		{
			"buffer":0,
			"byteLength":24,
			"byteOffset":533008
		},
		{
			"buffer":0,
			"byteLength":496,
			"byteOffset":533032
		},
		{
			"buffer":0,
			"byteLength":24,
			"byteOffset":533528
		}
	],
	"samplers":[
		{
			"magFilter":9729,
			"minFilter":9987
		}
	],
	"buffers":[
		{
			"byteLength":533552,
			"uri":"diablo.bin"
		}
	]
}
