{
	"asset":{
		"generator":"Khronos glTF Blender I/O v4.2.57",
		"version":"2.0"
	},
	"extensionsUsed":[
		"KHR_materials_clearcoat",
		"KHR_materials_emissive_strength",
		"KHR_materials_sheen"
	],
	"scene":0,
	"scenes":[
		{
			"name":"Scene",
			"nodes":[
				19
			]
		}
	],
	"nodes":[
		{
			"name":"head",
			"rotation":[
				-0.3310069739818573,
				0,
				0,
				0.9436283111572266
			],
			"scale":[
				1,
				1.0000001192092896,
				1
			],
			"translation":[
				0,
				0.5122500658035278,
				2.9802322387695312e-08
			]
		},
		{
			"children":[
				0
			],
			"name":"neck",
			"rotation":[
				0.28359049558639526,
				0,
				0,
				0.9589454531669617
			],
			"translation":[
				0,
				0.5024937987327576,
				-1.4901161193847656e-08
			]
		},
		{
			"name":"fl_low.L",
			"rotation":[
				0.5271354913711548,
				0,
				0,
				0.849781334400177
			],
			"scale":[
				1,
				0.9999998211860657,
				0.9999999403953552
			],
			"translation":[
				0,
				0.2942788302898407,
				1.1175870895385742e-08
			]
		},
		{
			"children":[
				2
			],
			"name":"fl_mid.L",
			"rotation":[
				-0.15193764865398407,
				0,
				0,
				0.9883900880813599
			],
			"scale":[
				1,
				1,
				0.9999999403953552
			],
			"translation":[
				0,
				0.373363196849823,
				-5.960464477539063e-08
			]
		},
		{
			"children":[
				3
			],
			"name":"fl_up.L",
			"rotation":[
				-0.6947495937347412,
				0,
				0,
				0.7192516922950745
			],
			"translation":[
				-0.20059999823570251,
				0.5422953367233276,
				-0.10447895526885986
			]
		},
		{
			"name":"fl_low.R",
			"rotation":[
				0.5271354913711548,
				0,
				0,
				0.849781334400177
			],
			"scale":[
				1,
				0.9999998211860657,
				0.9999999403953552
			],
			"translation":[
				0,
				0.2942788302898407,
				1.1175870895385742e-08
			]
		},
		{
			"children":[
				5
			],
			"name":"fl_mid.R",
			"rotation":[
				-0.15193764865398407,
				0,
				0,
				0.9883900880813599
			],
			"scale":[
				1,
				1,
				0.9999999403953552
			],
			"translation":[
				0,
				0.373363196849823,
				-5.960464477539063e-08
			]
		},
		{
			"children":[
				6
			],
			"name":"fl_up.R",
			"rotation":[
				-0.6947495937347412,
				0,
				0,
				0.7192516922950745
			],
			"translation":[
				0.20059999823570251,
				0.5422953367233276,
				-0.10447895526885986
			]
		},
		{
			"children":[
				1,
				4,
				7
			],
			"name":"spine",
			"rotation":[
				0.0498136542737484,
				0,
				0,
				0.9987585544586182
			],
			"scale":[
				1,
				0.9999999403953552,
				1
			],
			"translation":[
				0,
				0.5,
				0
			]
		},
		{
			"name":"tail2",
			"rotation":[
				0.21938779950141907,
				0,
				0,
				0.9756377339363098
			],
			"scale":[
				1,
				1.0000001192092896,
				1
			],
			"translation":[
				0,
				0.46097713708877563,
				-2.9802322387695312e-08
			]
		},
		{
			"children":[
				9
			],
			"name":"tail1",
			"rotation":[
				-0.9940289258956909,
				0,
				0,
				0.10911678522825241
			],
			"scale":[
				1,
				1,
				1.0000005960464478
			],
			"translation":[
				0,
				-0.050000011920928955,
				0
			]
		},
		{
			"name":"bl_low.L",
			"rotation":[
				0.5859891176223755,
				-5.862579310900173e-10,
				1.5732858349437606e-09,
				0.8103189468383789
			],
			"translation":[
				1.15498843822337e-09,
				0.27802878618240356,
				-1.596285237326356e-08
			]
		},
		{
			"children":[
				11
			],
			"name":"bl_mid.L",
			"rotation":[
				-0.6004913449287415,
				0.01613445207476616,
				-0.0055074263364076614,
				0.7994495630264282
			],
			"scale":[
				1,
				0.9999999403953552,
				0.9999999403953552
			],
			"translation":[
				-1.0244548320770264e-08,
				0.3548239767551422,
				-4.423782229423523e-09
			]
		},
		{
			"children":[
				12
			],
			"name":"bl_up.L",
			"rotation":[
				-0.5626009702682495,
				0,
				0.01704852283000946,
				0.8265528082847595
			],
			"translation":[
				-0.19059999287128448,
				0,
				-0.050000011920928955
			]
		},
		{
			"name":"bl_low.R",
			"rotation":[
				0.5859891176223755,
				5.862579310900173e-10,
				-1.5732858349437606e-09,
				0.8103189468383789
			],
			"translation":[
				-1.15498843822337e-09,
				0.27802878618240356,
				-1.596285237326356e-08
			]
		},
		{
			"children":[
				14
			],
			"name":"bl_mid.R",
			"rotation":[
				-0.6004913449287415,
				-0.01613445207476616,
				0.0055074263364076614,
				0.7994495630264282
			],
			"scale":[
				1,
				0.9999999403953552,
				0.9999999403953552
			],
			"translation":[
				1.0244548320770264e-08,
				0.3548239767551422,
				-4.423782229423523e-09
			]
		},
		{
			"children":[
				15
			],
			"name":"bl_up.R",
			"rotation":[
				-0.5626009702682495,
				0,
				-0.01704852283000946,
				0.8265528082847595
			],
			"translation":[
				0.19059999287128448,
				0,
				-0.050000011920928955
			]
		},
		{
			"children":[
				8,
				10,
				13,
				16
			],
			"name":"hips",
			"rotation":[
				-0.7071067690849304,
				0,
				0,
				0.7071067690849304
			],
			"translation":[
				0,
				0.8500000238418579,
				0.550000011920929
			]
		},
		{
			"mesh":0,
			"name":"direwolf_leader",
			"skin":0
		},
		{
			"children":[
				18,
				17
			],
			"name":"direwolf_leader_rig"
		}
	],
	"animations":[
		{
			"channels":[
				{
					"sampler":0,
					"target":{
						"node":17,
						"path":"translation"
					}
				},
				{
					"sampler":1,
					"target":{
						"node":17,
						"path":"rotation"
					}
				},
				{
					"sampler":2,
					"target":{
						"node":17,
						"path":"scale"
					}
				},
				{
					"sampler":3,
					"target":{
						"node":8,
						"path":"translation"
					}
				},
				{
					"sampler":4,
					"target":{
						"node":8,
						"path":"rotation"
					}
				},
				{
					"sampler":5,
					"target":{
						"node":8,
						"path":"scale"
					}
				},
				{
					"sampler":6,
					"target":{
						"node":1,
						"path":"translation"
					}
				},
				{
					"sampler":7,
					"target":{
						"node":1,
						"path":"rotation"
					}
				},
				{
					"sampler":8,
					"target":{
						"node":1,
						"path":"scale"
					}
				},
				{
					"sampler":9,
					"target":{
						"node":0,
						"path":"translation"
					}
				},
				{
					"sampler":10,
					"target":{
						"node":0,
						"path":"rotation"
					}
				},
				{
					"sampler":11,
					"target":{
						"node":0,
						"path":"scale"
					}
				},
				{
					"sampler":12,
					"target":{
						"node":4,
						"path":"translation"
					}
				},
				{
					"sampler":13,
					"target":{
						"node":4,
						"path":"rotation"
					}
				},
				{
					"sampler":14,
					"target":{
						"node":4,
						"path":"scale"
					}
				},
				{
					"sampler":15,
					"target":{
						"node":3,
						"path":"translation"
					}
				},
				{
					"sampler":16,
					"target":{
						"node":3,
						"path":"rotation"
					}
				},
				{
					"sampler":17,
					"target":{
						"node":3,
						"path":"scale"
					}
				},
				{
					"sampler":18,
					"target":{
						"node":2,
						"path":"translation"
					}
				},
				{
					"sampler":19,
					"target":{
						"node":2,
						"path":"rotation"
					}
				},
				{
					"sampler":20,
					"target":{
						"node":2,
						"path":"scale"
					}
				},
				{
					"sampler":21,
					"target":{
						"node":7,
						"path":"translation"
					}
				},
				{
					"sampler":22,
					"target":{
						"node":7,
						"path":"rotation"
					}
				},
				{
					"sampler":23,
					"target":{
						"node":7,
						"path":"scale"
					}
				},
				{
					"sampler":24,
					"target":{
						"node":6,
						"path":"translation"
					}
				},
				{
					"sampler":25,
					"target":{
						"node":6,
						"path":"rotation"
					}
				},
				{
					"sampler":26,
					"target":{
						"node":6,
						"path":"scale"
					}
				},
				{
					"sampler":27,
					"target":{
						"node":5,
						"path":"translation"
					}
				},
				{
					"sampler":28,
					"target":{
						"node":5,
						"path":"rotation"
					}
				},
				{
					"sampler":29,
					"target":{
						"node":5,
						"path":"scale"
					}
				},
				{
					"sampler":30,
					"target":{
						"node":10,
						"path":"translation"
					}
				},
				{
					"sampler":31,
					"target":{
						"node":10,
						"path":"rotation"
					}
				},
				{
					"sampler":32,
					"target":{
						"node":10,
						"path":"scale"
					}
				},
				{
					"sampler":33,
					"target":{
						"node":9,
						"path":"translation"
					}
				},
				{
					"sampler":34,
					"target":{
						"node":9,
						"path":"rotation"
					}
				},
				{
					"sampler":35,
					"target":{
						"node":9,
						"path":"scale"
					}
				},
				{
					"sampler":36,
					"target":{
						"node":13,
						"path":"translation"
					}
				},
				{
					"sampler":37,
					"target":{
						"node":13,
						"path":"rotation"
					}
				},
				{
					"sampler":38,
					"target":{
						"node":13,
						"path":"scale"
					}
				},
				{
					"sampler":39,
					"target":{
						"node":12,
						"path":"translation"
					}
				},
				{
					"sampler":40,
					"target":{
						"node":12,
						"path":"rotation"
					}
				},
				{
					"sampler":41,
					"target":{
						"node":12,
						"path":"scale"
					}
				},
				{
					"sampler":42,
					"target":{
						"node":11,
						"path":"translation"
					}
				},
				{
					"sampler":43,
					"target":{
						"node":11,
						"path":"rotation"
					}
				},
				{
					"sampler":44,
					"target":{
						"node":11,
						"path":"scale"
					}
				},
				{
					"sampler":45,
					"target":{
						"node":16,
						"path":"translation"
					}
				},
				{
					"sampler":46,
					"target":{
						"node":16,
						"path":"rotation"
					}
				},
				{
					"sampler":47,
					"target":{
						"node":16,
						"path":"scale"
					}
				},
				{
					"sampler":48,
					"target":{
						"node":15,
						"path":"translation"
					}
				},
				{
					"sampler":49,
					"target":{
						"node":15,
						"path":"rotation"
					}
				},
				{
					"sampler":50,
					"target":{
						"node":15,
						"path":"scale"
					}
				},
				{
					"sampler":51,
					"target":{
						"node":14,
						"path":"translation"
					}
				},
				{
					"sampler":52,
					"target":{
						"node":14,
						"path":"rotation"
					}
				},
				{
					"sampler":53,
					"target":{
						"node":14,
						"path":"scale"
					}
				}
			],
			"name":"attack",
			"samplers":[
				{
					"input":43,
					"interpolation":"LINEAR",
					"output":44
				},
				{
					"input":45,
					"interpolation":"STEP",
					"output":46
				},
				{
					"input":45,
					"interpolation":"STEP",
					"output":47
				},
				{
					"input":45,
					"interpolation":"STEP",
					"output":48
				},
				{
					"input":43,
					"interpolation":"LINEAR",
					"output":49
				},
				{
					"input":45,
					"interpolation":"STEP",
					"output":50
				},
				{
					"input":45,
					"interpolation":"STEP",
					"output":51
				},
				{
					"input":43,
					"interpolation":"LINEAR",
					"output":52
				},
				{
					"input":45,
					"interpolation":"STEP",
					"output":53
				},
				{
					"input":45,
					"interpolation":"STEP",
					"output":54
				},
				{
					"input":43,
					"interpolation":"LINEAR",
					"output":55
				},
				{
					"input":45,
					"interpolation":"STEP",
					"output":56
				},
				{
					"input":45,
					"interpolation":"STEP",
					"output":57
				},
				{
					"input":43,
					"interpolation":"LINEAR",
					"output":58
				},
				{
					"input":45,
					"interpolation":"STEP",
					"output":59
				},
				{
					"input":45,
					"interpolation":"STEP",
					"output":60
				},
				{
					"input":45,
					"interpolation":"STEP",
					"output":61
				},
				{
					"input":45,
					"interpolation":"STEP",
					"output":62
				},
				{
					"input":45,
					"interpolation":"STEP",
					"output":63
				},
				{
					"input":45,
					"interpolation":"STEP",
					"output":64
				},
				{
					"input":45,
					"interpolation":"STEP",
					"output":65
				},
				{
					"input":45,
					"interpolation":"STEP",
					"output":66
				},
				{
					"input":43,
					"interpolation":"LINEAR",
					"output":67
				},
				{
					"input":45,
					"interpolation":"STEP",
					"output":68
				},
				{
					"input":45,
					"interpolation":"STEP",
					"output":69
				},
				{
					"input":45,
					"interpolation":"STEP",
					"output":70
				},
				{
					"input":45,
					"interpolation":"STEP",
					"output":71
				},
				{
					"input":45,
					"interpolation":"STEP",
					"output":72
				},
				{
					"input":45,
					"interpolation":"STEP",
					"output":73
				},
				{
					"input":45,
					"interpolation":"STEP",
					"output":74
				},
				{
					"input":45,
					"interpolation":"STEP",
					"output":75
				},
				{
					"input":45,
					"interpolation":"STEP",
					"output":76
				},
				{
					"input":45,
					"interpolation":"STEP",
					"output":77
				},
				{
					"input":45,
					"interpolation":"STEP",
					"output":78
				},
				{
					"input":45,
					"interpolation":"STEP",
					"output":79
				},
				{
					"input":45,
					"interpolation":"STEP",
					"output":80
				},
				{
					"input":45,
					"interpolation":"STEP",
					"output":81
				},
				{
					"input":45,
					"interpolation":"STEP",
					"output":82
				},
				{
					"input":45,
					"interpolation":"STEP",
					"output":83
				},
				{
					"input":45,
					"interpolation":"STEP",
					"output":84
				},
				{
					"input":45,
					"interpolation":"STEP",
					"output":85
				},
				{
					"input":45,
					"interpolation":"STEP",
					"output":86
				},
				{
					"input":45,
					"interpolation":"STEP",
					"output":87
				},
				{
					"input":45,
					"interpolation":"STEP",
					"output":88
				},
				{
					"input":45,
					"interpolation":"STEP",
					"output":89
				},
				{
					"input":45,
					"interpolation":"STEP",
					"output":90
				},
				{
					"input":45,
					"interpolation":"STEP",
					"output":91
				},
				{
					"input":45,
					"interpolation":"STEP",
					"output":92
				},
				{
					"input":45,
					"interpolation":"STEP",
					"output":93
				},
				{
					"input":45,
					"interpolation":"STEP",
					"output":94
				},
				{
					"input":45,
					"interpolation":"STEP",
					"output":95
				},
				{
					"input":45,
					"interpolation":"STEP",
					"output":96
				},
				{
					"input":45,
					"interpolation":"STEP",
					"output":97
				},
				{
					"input":45,
					"interpolation":"STEP",
					"output":98
				}
			]
		},
		{
			"channels":[
				{
					"sampler":0,
					"target":{
						"node":17,
						"path":"translation"
					}
				},
				{
					"sampler":1,
					"target":{
						"node":17,
						"path":"rotation"
					}
				},
				{
					"sampler":2,
					"target":{
						"node":17,
						"path":"scale"
					}
				},
				{
					"sampler":3,
					"target":{
						"node":8,
						"path":"translation"
					}
				},
				{
					"sampler":4,
					"target":{
						"node":8,
						"path":"rotation"
					}
				},
				{
					"sampler":5,
					"target":{
						"node":8,
						"path":"scale"
					}
				},
				{
					"sampler":6,
					"target":{
						"node":1,
						"path":"translation"
					}
				},
				{
					"sampler":7,
					"target":{
						"node":1,
						"path":"rotation"
					}
				},
				{
					"sampler":8,
					"target":{
						"node":1,
						"path":"scale"
					}
				},
				{
					"sampler":9,
					"target":{
						"node":0,
						"path":"translation"
					}
				},
				{
					"sampler":10,
					"target":{
						"node":0,
						"path":"rotation"
					}
				},
				{
					"sampler":11,
					"target":{
						"node":0,
						"path":"scale"
					}
				},
				{
					"sampler":12,
					"target":{
						"node":4,
						"path":"translation"
					}
				},
				{
					"sampler":13,
					"target":{
						"node":4,
						"path":"rotation"
					}
				},
				{
					"sampler":14,
					"target":{
						"node":4,
						"path":"scale"
					}
				},
				{
					"sampler":15,
					"target":{
						"node":3,
						"path":"translation"
					}
				},
				{
					"sampler":16,
					"target":{
						"node":3,
						"path":"rotation"
					}
				},
				{
					"sampler":17,
					"target":{
						"node":3,
						"path":"scale"
					}
				},
				{
					"sampler":18,
					"target":{
						"node":2,
						"path":"translation"
					}
				},
				{
					"sampler":19,
					"target":{
						"node":2,
						"path":"rotation"
					}
				},
				{
					"sampler":20,
					"target":{
						"node":2,
						"path":"scale"
					}
				},
				{
					"sampler":21,
					"target":{
						"node":7,
						"path":"translation"
					}
				},
				{
					"sampler":22,
					"target":{
						"node":7,
						"path":"rotation"
					}
				},
				{
					"sampler":23,
					"target":{
						"node":7,
						"path":"scale"
					}
				},
				{
					"sampler":24,
					"target":{
						"node":6,
						"path":"translation"
					}
				},
				{
					"sampler":25,
					"target":{
						"node":6,
						"path":"rotation"
					}
				},
				{
					"sampler":26,
					"target":{
						"node":6,
						"path":"scale"
					}
				},
				{
					"sampler":27,
					"target":{
						"node":5,
						"path":"translation"
					}
				},
				{
					"sampler":28,
					"target":{
						"node":5,
						"path":"rotation"
					}
				},
				{
					"sampler":29,
					"target":{
						"node":5,
						"path":"scale"
					}
				},
				{
					"sampler":30,
					"target":{
						"node":10,
						"path":"translation"
					}
				},
				{
					"sampler":31,
					"target":{
						"node":10,
						"path":"rotation"
					}
				},
				{
					"sampler":32,
					"target":{
						"node":10,
						"path":"scale"
					}
				},
				{
					"sampler":33,
					"target":{
						"node":9,
						"path":"translation"
					}
				},
				{
					"sampler":34,
					"target":{
						"node":9,
						"path":"rotation"
					}
				},
				{
					"sampler":35,
					"target":{
						"node":9,
						"path":"scale"
					}
				},
				{
					"sampler":36,
					"target":{
						"node":13,
						"path":"translation"
					}
				},
				{
					"sampler":37,
					"target":{
						"node":13,
						"path":"rotation"
					}
				},
				{
					"sampler":38,
					"target":{
						"node":13,
						"path":"scale"
					}
				},
				{
					"sampler":39,
					"target":{
						"node":12,
						"path":"translation"
					}
				},
				{
					"sampler":40,
					"target":{
						"node":12,
						"path":"rotation"
					}
				},
				{
					"sampler":41,
					"target":{
						"node":12,
						"path":"scale"
					}
				},
				{
					"sampler":42,
					"target":{
						"node":11,
						"path":"translation"
					}
				},
				{
					"sampler":43,
					"target":{
						"node":11,
						"path":"rotation"
					}
				},
				{
					"sampler":44,
					"target":{
						"node":11,
						"path":"scale"
					}
				},
				{
					"sampler":45,
					"target":{
						"node":16,
						"path":"translation"
					}
				},
				{
					"sampler":46,
					"target":{
						"node":16,
						"path":"rotation"
					}
				},
				{
					"sampler":47,
					"target":{
						"node":16,
						"path":"scale"
					}
				},
				{
					"sampler":48,
					"target":{
						"node":15,
						"path":"translation"
					}
				},
				{
					"sampler":49,
					"target":{
						"node":15,
						"path":"rotation"
					}
				},
				{
					"sampler":50,
					"target":{
						"node":15,
						"path":"scale"
					}
				},
				{
					"sampler":51,
					"target":{
						"node":14,
						"path":"translation"
					}
				},
				{
					"sampler":52,
					"target":{
						"node":14,
						"path":"rotation"
					}
				},
				{
					"sampler":53,
					"target":{
						"node":14,
						"path":"scale"
					}
				}
			],
			"name":"idle",
			"samplers":[
				{
					"input":99,
					"interpolation":"STEP",
					"output":100
				},
				{
					"input":99,
					"interpolation":"STEP",
					"output":101
				},
				{
					"input":99,
					"interpolation":"STEP",
					"output":102
				},
				{
					"input":99,
					"interpolation":"STEP",
					"output":103
				},
				{
					"input":104,
					"interpolation":"LINEAR",
					"output":105
				},
				{
					"input":99,
					"interpolation":"STEP",
					"output":106
				},
				{
					"input":99,
					"interpolation":"STEP",
					"output":107
				},
				{
					"input":99,
					"interpolation":"STEP",
					"output":108
				},
				{
					"input":99,
					"interpolation":"STEP",
					"output":109
				},
				{
					"input":99,
					"interpolation":"STEP",
					"output":110
				},
				{
					"input":104,
					"interpolation":"LINEAR",
					"output":111
				},
				{
					"input":99,
					"interpolation":"STEP",
					"output":112
				},
				{
					"input":99,
					"interpolation":"STEP",
					"output":113
				},
				{
					"input":99,
					"interpolation":"STEP",
					"output":114
				},
				{
					"input":99,
					"interpolation":"STEP",
					"output":115
				},
				{
					"input":99,
					"interpolation":"STEP",
					"output":116
				},
				{
					"input":99,
					"interpolation":"STEP",
					"output":117
				},
				{
					"input":99,
					"interpolation":"STEP",
					"output":118
				},
				{
					"input":99,
					"interpolation":"STEP",
					"output":119
				},
				{
					"input":99,
					"interpolation":"STEP",
					"output":120
				},
				{
					"input":99,
					"interpolation":"STEP",
					"output":121
				},
				{
					"input":99,
					"interpolation":"STEP",
					"output":122
				},
				{
					"input":99,
					"interpolation":"STEP",
					"output":123
				},
				{
					"input":99,
					"interpolation":"STEP",
					"output":124
				},
				{
					"input":99,
					"interpolation":"STEP",
					"output":125
				},
				{
					"input":99,
					"interpolation":"STEP",
					"output":126
				},
				{
					"input":99,
					"interpolation":"STEP",
					"output":127
				},
				{
					"input":99,
					"interpolation":"STEP",
					"output":128
				},
				{
					"input":99,
					"interpolation":"STEP",
					"output":129
				},
				{
					"input":99,
					"interpolation":"STEP",
					"output":130
				},
				{
					"input":99,
					"interpolation":"STEP",
					"output":131
				},
				{
					"input":104,
					"interpolation":"LINEAR",
					"output":132
				},
				{
					"input":99,
					"interpolation":"STEP",
					"output":133
				},
				{
					"input":99,
					"interpolation":"STEP",
					"output":134
				},
				{
					"input":104,
					"interpolation":"LINEAR",
					"output":135
				},
				{
					"input":99,
					"interpolation":"STEP",
					"output":136
				},
				{
					"input":99,
					"interpolation":"STEP",
					"output":137
				},
				{
					"input":99,
					"interpolation":"STEP",
					"output":138
				},
				{
					"input":99,
					"interpolation":"STEP",
					"output":139
				},
				{
					"input":99,
					"interpolation":"STEP",
					"output":140
				},
				{
					"input":99,
					"interpolation":"STEP",
					"output":141
				},
				{
					"input":99,
					"interpolation":"STEP",
					"output":142
				},
				{
					"input":99,
					"interpolation":"STEP",
					"output":143
				},
				{
					"input":99,
					"interpolation":"STEP",
					"output":144
				},
				{
					"input":99,
					"interpolation":"STEP",
					"output":145
				},
				{
					"input":99,
					"interpolation":"STEP",
					"output":146
				},
				{
					"input":99,
					"interpolation":"STEP",
					"output":147
				},
				{
					"input":99,
					"interpolation":"STEP",
					"output":148
				},
				{
					"input":99,
					"interpolation":"STEP",
					"output":149
				},
				{
					"input":99,
					"interpolation":"STEP",
					"output":150
				},
				{
					"input":99,
					"interpolation":"STEP",
					"output":151
				},
				{
					"input":99,
					"interpolation":"STEP",
					"output":152
				},
				{
					"input":99,
					"interpolation":"STEP",
					"output":153
				},
				{
					"input":99,
					"interpolation":"STEP",
					"output":154
				}
			]
		},
		{
			"channels":[
				{
					"sampler":0,
					"target":{
						"node":17,
						"path":"translation"
					}
				},
				{
					"sampler":1,
					"target":{
						"node":17,
						"path":"rotation"
					}
				},
				{
					"sampler":2,
					"target":{
						"node":17,
						"path":"scale"
					}
				},
				{
					"sampler":3,
					"target":{
						"node":8,
						"path":"translation"
					}
				},
				{
					"sampler":4,
					"target":{
						"node":8,
						"path":"rotation"
					}
				},
				{
					"sampler":5,
					"target":{
						"node":8,
						"path":"scale"
					}
				},
				{
					"sampler":6,
					"target":{
						"node":1,
						"path":"translation"
					}
				},
				{
					"sampler":7,
					"target":{
						"node":1,
						"path":"rotation"
					}
				},
				{
					"sampler":8,
					"target":{
						"node":1,
						"path":"scale"
					}
				},
				{
					"sampler":9,
					"target":{
						"node":0,
						"path":"translation"
					}
				},
				{
					"sampler":10,
					"target":{
						"node":0,
						"path":"rotation"
					}
				},
				{
					"sampler":11,
					"target":{
						"node":0,
						"path":"scale"
					}
				},
				{
					"sampler":12,
					"target":{
						"node":4,
						"path":"translation"
					}
				},
				{
					"sampler":13,
					"target":{
						"node":4,
						"path":"rotation"
					}
				},
				{
					"sampler":14,
					"target":{
						"node":4,
						"path":"scale"
					}
				},
				{
					"sampler":15,
					"target":{
						"node":3,
						"path":"translation"
					}
				},
				{
					"sampler":16,
					"target":{
						"node":3,
						"path":"rotation"
					}
				},
				{
					"sampler":17,
					"target":{
						"node":3,
						"path":"scale"
					}
				},
				{
					"sampler":18,
					"target":{
						"node":2,
						"path":"translation"
					}
				},
				{
					"sampler":19,
					"target":{
						"node":2,
						"path":"rotation"
					}
				},
				{
					"sampler":20,
					"target":{
						"node":2,
						"path":"scale"
					}
				},
				{
					"sampler":21,
					"target":{
						"node":7,
						"path":"translation"
					}
				},
				{
					"sampler":22,
					"target":{
						"node":7,
						"path":"rotation"
					}
				},
				{
					"sampler":23,
					"target":{
						"node":7,
						"path":"scale"
					}
				},
				{
					"sampler":24,
					"target":{
						"node":6,
						"path":"translation"
					}
				},
				{
					"sampler":25,
					"target":{
						"node":6,
						"path":"rotation"
					}
				},
				{
					"sampler":26,
					"target":{
						"node":6,
						"path":"scale"
					}
				},
				{
					"sampler":27,
					"target":{
						"node":5,
						"path":"translation"
					}
				},
				{
					"sampler":28,
					"target":{
						"node":5,
						"path":"rotation"
					}
				},
				{
					"sampler":29,
					"target":{
						"node":5,
						"path":"scale"
					}
				},
				{
					"sampler":30,
					"target":{
						"node":10,
						"path":"translation"
					}
				},
				{
					"sampler":31,
					"target":{
						"node":10,
						"path":"rotation"
					}
				},
				{
					"sampler":32,
					"target":{
						"node":10,
						"path":"scale"
					}
				},
				{
					"sampler":33,
					"target":{
						"node":9,
						"path":"translation"
					}
				},
				{
					"sampler":34,
					"target":{
						"node":9,
						"path":"rotation"
					}
				},
				{
					"sampler":35,
					"target":{
						"node":9,
						"path":"scale"
					}
				},
				{
					"sampler":36,
					"target":{
						"node":13,
						"path":"translation"
					}
				},
				{
					"sampler":37,
					"target":{
						"node":13,
						"path":"rotation"
					}
				},
				{
					"sampler":38,
					"target":{
						"node":13,
						"path":"scale"
					}
				},
				{
					"sampler":39,
					"target":{
						"node":12,
						"path":"translation"
					}
				},
				{
					"sampler":40,
					"target":{
						"node":12,
						"path":"rotation"
					}
				},
				{
					"sampler":41,
					"target":{
						"node":12,
						"path":"scale"
					}
				},
				{
					"sampler":42,
					"target":{
						"node":11,
						"path":"translation"
					}
				},
				{
					"sampler":43,
					"target":{
						"node":11,
						"path":"rotation"
					}
				},
				{
					"sampler":44,
					"target":{
						"node":11,
						"path":"scale"
					}
				},
				{
					"sampler":45,
					"target":{
						"node":16,
						"path":"translation"
					}
				},
				{
					"sampler":46,
					"target":{
						"node":16,
						"path":"rotation"
					}
				},
				{
					"sampler":47,
					"target":{
						"node":16,
						"path":"scale"
					}
				},
				{
					"sampler":48,
					"target":{
						"node":15,
						"path":"translation"
					}
				},
				{
					"sampler":49,
					"target":{
						"node":15,
						"path":"rotation"
					}
				},
				{
					"sampler":50,
					"target":{
						"node":15,
						"path":"scale"
					}
				},
				{
					"sampler":51,
					"target":{
						"node":14,
						"path":"translation"
					}
				},
				{
					"sampler":52,
					"target":{
						"node":14,
						"path":"rotation"
					}
				},
				{
					"sampler":53,
					"target":{
						"node":14,
						"path":"scale"
					}
				}
			],
			"name":"walk",
			"samplers":[
				{
					"input":155,
					"interpolation":"LINEAR",
					"output":156
				},
				{
					"input":157,
					"interpolation":"STEP",
					"output":158
				},
				{
					"input":157,
					"interpolation":"STEP",
					"output":159
				},
				{
					"input":157,
					"interpolation":"STEP",
					"output":160
				},
				{
					"input":157,
					"interpolation":"STEP",
					"output":161
				},
				{
					"input":157,
					"interpolation":"STEP",
					"output":162
				},
				{
					"input":157,
					"interpolation":"STEP",
					"output":163
				},
				{
					"input":157,
					"interpolation":"STEP",
					"output":164
				},
				{
					"input":157,
					"interpolation":"STEP",
					"output":165
				},
				{
					"input":157,
					"interpolation":"STEP",
					"output":166
				},
				{
					"input":155,
					"interpolation":"LINEAR",
					"output":167
				},
				{
					"input":157,
					"interpolation":"STEP",
					"output":168
				},
				{
					"input":157,
					"interpolation":"STEP",
					"output":169
				},
				{
					"input":155,
					"interpolation":"LINEAR",
					"output":170
				},
				{
					"input":157,
					"interpolation":"STEP",
					"output":171
				},
				{
					"input":157,
					"interpolation":"STEP",
					"output":172
				},
				{
					"input":155,
					"interpolation":"LINEAR",
					"output":173
				},
				{
					"input":157,
					"interpolation":"STEP",
					"output":174
				},
				{
					"input":157,
					"interpolation":"STEP",
					"output":175
				},
				{
					"input":157,
					"interpolation":"STEP",
					"output":176
				},
				{
					"input":157,
					"interpolation":"STEP",
					"output":177
				},
				{
					"input":157,
					"interpolation":"STEP",
					"output":178
				},
				{
					"input":155,
					"interpolation":"LINEAR",
					"output":179
				},
				{
					"input":157,
					"interpolation":"STEP",
					"output":180
				},
				{
					"input":157,
					"interpolation":"STEP",
					"output":181
				},
				{
					"input":155,
					"interpolation":"LINEAR",
					"output":182
				},
				{
					"input":157,
					"interpolation":"STEP",
					"output":183
				},
				{
					"input":157,
					"interpolation":"STEP",
					"output":184
				},
				{
					"input":157,
					"interpolation":"STEP",
					"output":185
				},
				{
					"input":157,
					"interpolation":"STEP",
					"output":186
				},
				{
					"input":157,
					"interpolation":"STEP",
					"output":187
				},
				{
					"input":155,
					"interpolation":"LINEAR",
					"output":188
				},
				{
					"input":157,
					"interpolation":"STEP",
					"output":189
				},
				{
					"input":157,
					"interpolation":"STEP",
					"output":190
				},
				{
					"input":157,
					"interpolation":"STEP",
					"output":191
				},
				{
					"input":157,
					"interpolation":"STEP",
					"output":192
				},
				{
					"input":157,
					"interpolation":"STEP",
					"output":193
				},
				{
					"input":155,
					"interpolation":"LINEAR",
					"output":194
				},
				{
					"input":157,
					"interpolation":"STEP",
					"output":195
				},
				{
					"input":157,
					"interpolation":"STEP",
					"output":196
				},
				{
					"input":155,
					"interpolation":"LINEAR",
					"output":197
				},
				{
					"input":157,
					"interpolation":"STEP",
					"output":198
				},
				{
					"input":157,
					"interpolation":"STEP",
					"output":199
				},
				{
					"input":157,
					"interpolation":"STEP",
					"output":200
				},
				{
					"input":157,
					"interpolation":"STEP",
					"output":201
				},
				{
					"input":157,
					"interpolation":"STEP",
					"output":202
				},
				{
					"input":155,
					"interpolation":"LINEAR",
					"output":203
				},
				{
					"input":157,
					"interpolation":"STEP",
					"output":204
				},
				{
					"input":157,
					"interpolation":"STEP",
					"output":205
				},
				{
					"input":155,
					"interpolation":"LINEAR",
					"output":206
				},
				{
					"input":157,
					"interpolation":"STEP",
					"output":207
				},
				{
					"input":157,
					"interpolation":"STEP",
					"output":208
				},
				{
					"input":157,
					"interpolation":"STEP",
					"output":209
				},
				{
					"input":157,
					"interpolation":"STEP",
					"output":210
				}
			]
		}
	],
	"materials":[
		{
			"extensions":{
				"KHR_materials_sheen":{
					"sheenColorFactor":[
						1.0,
						1.0,
						1.0
					],
					"sheenRoughnessFactor":0.5
				}
			},
			"name":"fur",
			"normalTexture":{
				"index":0,
				"scale":1.2000000476837158
			},
			"pbrMetallicRoughness":{
				"baseColorFactor":[
					0.03310476616024971,
					0.03310476616024971,
					0.05087608844041824,
					1
				],
				"metallicFactor":0,
				"roughnessFactor":0.75
			}
		},
		{
			"name":"belly",
			"normalTexture":{
				"index":1,
				"scale":0.6000000238418579
			},
			"pbrMetallicRoughness":{
				"baseColorFactor":[
					0.08353512734174728,
					0.08353512734174728,
					0.10808604955673218,
					1
				],
				"metallicFactor":0,
				"roughnessFactor":0.800000011920929
			}
		},
		{
			"emissiveFactor":[
				1,
				0.07323895394802094,
				0.010022825561463833
			],
			"extensions":{
				"KHR_materials_emissive_strength":{
					"emissiveStrength":1.600000023841858
				}
			},
			"name":"eye",
			"pbrMetallicRoughness":{
				"baseColorFactor":[
					1,
					0.07323895394802094,
					0.010022825561463833,
					1
				],
				"metallicFactor":0,
				"roughnessFactor":0.10000000149011612
			}
		},
		{
			"extensions":{
				"KHR_materials_clearcoat":{
					"clearcoatFactor":0.800000011920929
				}
			},
			"name":"nose",
			"pbrMetallicRoughness":{
				"baseColorFactor":[
					0.0023219813592731953,
					0.0023219813592731953,
					0.0023219813592731953,
					1
				],
				"metallicFactor":0,
				"roughnessFactor":0.30000001192092896
			}
		},
		{
			"name":"teeth",
			"pbrMetallicRoughness":{
				"baseColorFactor":[
					0.8900054097175598,
					0.848088264465332,
					0.6920710802078247,
					1
				],
				"metallicFactor":0,
				"roughnessFactor":0.30000001192092896
			}
		},
		{
			"emissiveFactor":[
				0.8900054097175598,
				0.6920710802078247,
				0.13286831974983215
			],
			"extensions":{
				"KHR_materials_clearcoat":{
					"clearcoatFactor":0.6000000238418579
				}
			},
			"name":"horn",
			"pbrMetallicRoughness":{
				"baseColorFactor":[
					0.8900054097175598,
					0.6920710802078247,
					0.13286831974983215,
					1
				],
				"metallicFactor":0,
				"roughnessFactor":0.30000001192092896
			}
		},
		{
			"emissiveFactor":[
				0.7874122858047485,
				0.7874122858047485,
				1
			],
			"extensions":{
				"KHR_materials_emissive_strength":{
					"emissiveStrength":5
				}
			},
			"name":"star",
			"pbrMetallicRoughness":{
				"baseColorFactor":[
					0.7874122858047485,
					0.7874122858047485,
					1,
					1
				],
				"metallicFactor":0,
				"roughnessFactor":0.10000000149011612
			}
		}
	],
	"meshes":[
		{
			"name":"direwolf_leader",
			"primitives":[
				{
					"attributes":{
						"POSITION":0,
						"NORMAL":1,
						"TEXCOORD_0":2,
						"JOINTS_0":3,
						"WEIGHTS_0":4
					},
					"indices":5,
					"material":0
				},
				{
					"attributes":{
						"POSITION":6,
						"NORMAL":7,
						"TEXCOORD_0":8,
						"JOINTS_0":9,
						"WEIGHTS_0":10
					},
					"indices":11,
					"material":1
				},
				{
					"attributes":{
						"POSITION":12,
						"NORMAL":13,
						"TEXCOORD_0":14,
						"JOINTS_0":15,
						"WEIGHTS_0":16
					},
					"indices":17,
					"material":2
				},
				{
					"attributes":{
						"POSITION":18,
						"NORMAL":19,
						"TEXCOORD_0":20,
						"JOINTS_0":21,
						"WEIGHTS_0":22
					},
					"indices":23,
					"material":3
				},
				{
					"attributes":{
						"POSITION":24,
						"NORMAL":25,
						"TEXCOORD_0":26,
						"JOINTS_0":27,
						"WEIGHTS_0":28
					},
					"indices":29,
					"material":4
				},
				{
					"attributes":{
						"POSITION":30,
						"NORMAL":31,
						"TEXCOORD_0":32,
						"JOINTS_0":33,
						"WEIGHTS_0":34
					},
					"indices":35,
					"material":5
				},
				{
					"attributes":{
						"POSITION":36,
						"NORMAL":37,
						"TEXCOORD_0":38,
						"JOINTS_0":39,
						"WEIGHTS_0":40
					},
					"indices":41,
					"material":6
				}
			]
		}
	],
	"textures":[
		{
			"sampler":0,
			"source":0
		},
		{
			"sampler":0,
			"source":0
		}
	],
	"images":[
		{
			"mimeType":"image/png",
			"name":"N_fur",
			"uri":"texturas/N_fur.png"
		}
	],
	"skins":[
		{
			"inverseBindMatrices":42,
			"joints":[
				17,
				8,
				1,
				0,
				4,
				3,
				2,
				7,
				6,
				5,
				10,
				9,
				13,
				12,
				11,
				16,
				15,
				14
			],
			"name":"direwolf_leader_rig"
		}
	],
	"accessors":[
		{
			"bufferView":0,
			"componentType":5126,
			"count":6205,
			"max":[
				0.3212586045265198,
				1.5502604246139526,
				1.5001977682113647
			],
			"min":[
				-0.3212586045265198,
				0.01298572402447462,
				-1.308381199836731
			],
			"type":"VEC3"
		},
		{
			"bufferView":1,
			"componentType":5126,
			"count":6205,
			"type":"VEC3"
		},
		{
			"bufferView":2,
			"componentType":5126,
			"count":6205,
			"type":"VEC2"
		},
		{
			"bufferView":3,
			"componentType":5121,
			"count":6205,
			"type":"VEC4"
		},
		{
			"bufferView":4,
			"componentType":5126,
			"count":6205,
			"type":"VEC4"
		},
		{
			"bufferView":5,
			"componentType":5123,
			"count":22950,
			"type":"SCALAR"
		},
		{
			"bufferView":6,
			"componentType":5126,
			"count":658,
			"max":[
				0.19522547721862793,
				0.7518734931945801,
				0.6190592646598816
			],
			"min":[
				-0.19522550702095032,
				0.05719605088233948,
				-0.6066098809242249
			],
			"type":"VEC3"
		},
		{
			"bufferView":7,
			"componentType":5126,
			"count":658,
			"type":"VEC3"
		},
		{
			"bufferView":8,
			"componentType":5126,
			"count":658,
			"type":"VEC2"
		},
		{
			"bufferView":9,
			"componentType":5121,
			"count":658,
			"type":"VEC4"
		},
		{
			"bufferView":10,
			"componentType":5126,
			"count":658,
			"type":"VEC4"
		},
		{
			"bufferView":11,
			"componentType":5123,
			"count":2568,
			"type":"SCALAR"
		},
		{
			"bufferView":12,
			"componentType":5126,
			"count":220,
			"max":[
				0.10700000077486038,
				1.3279999494552612,
				-1.044783115386963
			],
			"min":[
				-0.10700000077486038,
				1.2920000553131104,
				-1.0752168893814087
			],
			"type":"VEC3"
		},
		{
			"bufferView":13,
			"componentType":5126,
			"count":220,
			"type":"VEC3"
		},
		{
			"bufferView":14,
			"componentType":5126,
			"count":220,
			"type":"VEC2"
		},
		{
			"bufferView":15,
			"componentType":5121,
			"count":220,
			"type":"VEC4"
		},
		{
			"bufferView":16,
			"componentType":5126,
			"count":220,
			"type":"VEC4"
		},
		{
			"bufferView":17,
			"componentType":5123,
			"count":720,
			"type":"SCALAR"
		},
		{
			"bufferView":18,
			"componentType":5126,
			"count":110,
			"max":[
				0.03500000014901161,
				1.2079999446868896,
				-1.2812235355377197
			],
			"min":[
				-0.03500000014901161,
				1.1519999504089355,
				-1.3287763595581055
			],
			"type":"VEC3"
		},
		{
			"bufferView":19,
			"componentType":5126,
			"count":110,
			"type":"VEC3"
		},
		{
			"bufferView":20,
			"componentType":5126,
			"count":110,
			"type":"VEC2"
		},
		{
			"bufferView":21,
			"componentType":5121,
			"count":110,
			"type":"VEC4"
		},
		{
			"bufferView":22,
			"componentType":5126,
			"count":110,
			"type":"VEC4"
		},
		{
			"bufferView":23,
			"componentType":5123,
			"count":360,
			"type":"SCALAR"
		},
		{
			"bufferView":24,
			"componentType":5126,
			"count":68,
			"max":[
				0.0369282029569149,
				1.149999976158142,
				-1.2419999837875366
			],
			"min":[
				-0.0369282029569149,
				1.100000023841858,
				-1.2580000162124634
			],
			"type":"VEC3"
		},
		{
			"bufferView":25,
			"componentType":5126,
			"count":68,
			"type":"VEC3"
		},
		{
			"bufferView":26,
			"componentType":5126,
			"count":68,
			"type":"VEC2"
		},
		{
			"bufferView":27,
			"componentType":5121,
			"count":68,
			"type":"VEC4"
		},
		{
			"bufferView":28,
			"componentType":5126,
			"count":68,
			"type":"VEC4"
		},
		{
			"bufferView":29,
			"componentType":5123,
			"count":144,
			"type":"SCALAR"
		},
		{
			"bufferView":30,
			"componentType":5126,
			"count":90,
			"max":[
				0.03700000047683716,
				1.6734298467636108,
				-0.9864956140518188
			],
			"min":[
				-0.03700000047683716,
				1.3743009567260742,
				-1.118322491645813
			],
			"type":"VEC3"
		},
		{
			"bufferView":31,
			"componentType":5126,
			"count":90,
			"type":"VEC3"
		},
		{
			"bufferView":32,
			"componentType":5126,
			"count":90,
			"type":"VEC2"
		},
		{
			"bufferView":33,
			"componentType":5121,
			"count":90,
			"type":"VEC4"
		},
		{
			"bufferView":34,
			"componentType":5126,
			"count":90,
			"type":"VEC4"
		},
		{
			"bufferView":35,
			"componentType":5123,
			"count":288,
			"type":"SCALAR"
		},
		{
			"bufferView":36,
			"componentType":5126,
			"count":80,
			"max":[
				0.019021131098270416,
				1.3799999952316284,
				-1.0704894065856934
			],
			"min":[
				-0.019021131098270416,
				1.340000033378601,
				-1.0895105600357056
			],
			"type":"VEC3"
		},
		{
			"bufferView":37,
			"componentType":5126,
			"count":80,
			"type":"VEC3"
		},
		{
			"bufferView":38,
			"componentType":5126,
			"count":80,
			"type":"VEC2"
		},
		{
			"bufferView":39,
			"componentType":5121,
			"count":80,
			"type":"VEC4"
		},
		{
			"bufferView":40,
			"componentType":5126,
			"count":80,
			"type":"VEC4"
		},
		{
			"bufferView":41,
			"componentType":5123,
			"count":240,
			"type":"SCALAR"
		},
		{
			"bufferView":42,
			"componentType":5126,
			"count":18,
			"type":"MAT4"
		},
		{
			"bufferView":43,
			"componentType":5126,
			"count":17,
			"max":[
				0.5333333333333333
			],
			"min":[
				0
			],
			"type":"SCALAR"
		},
		{
			"bufferView":44,
			"componentType":5126,
			"count":17,
			"type":"VEC3"
		},
		{
			"bufferView":45,
			"componentType":5126,
			"count":2,
			"max":[
				0.5333333333333333
			],
			"min":[
				0
			],
			"type":"SCALAR"
		},
		{
			"bufferView":46,
			"componentType":5126,
			"count":2,
			"type":"VEC4"
		},
		{
			"bufferView":47,
			"componentType":5126,
			"count":2,
			"type":"VEC3"
		},
		{
			"bufferView":48,
			"componentType":5126,
			"count":2,
			"type":"VEC3"
		},
		{
			"bufferView":49,
			"componentType":5126,
			"count":17,
			"type":"VEC4"
		},
		{
			"bufferView":50,
			"componentType":5126,
			"count":2,
			"type":"VEC3"
		},
		{
			"bufferView":51,
			"componentType":5126,
			"count":2,
			"type":"VEC3"
		},
		{
			"bufferView":52,
			"componentType":5126,
			"count":17,
			"type":"VEC4"
		},
		{
			"bufferView":53,
			"componentType":5126,
			"count":2,
			"type":"VEC3"
		},
		{
			"bufferView":54,
			"componentType":5126,
			"count":2,
			"type":"VEC3"
		},
		{
			"bufferView":55,
			"componentType":5126,
			"count":17,
			"type":"VEC4"
		},
		{
			"bufferView":56,
			"componentType":5126,
			"count":2,
			"type":"VEC3"
		},
		{
			"bufferView":57,
			"componentType":5126,
			"count":2,
			"type":"VEC3"
		},
		{
			"bufferView":58,
			"componentType":5126,
			"count":17,
			"type":"VEC4"
		},
		{
			"bufferView":59,
			"componentType":5126,
			"count":2,
			"type":"VEC3"
		},
		{
			"bufferView":60,
			"componentType":5126,
			"count":2,
			"type":"VEC3"
		},
		{
			"bufferView":61,
			"componentType":5126,
			"count":2,
			"type":"VEC4"
		},
		{
			"bufferView":62,
			"componentType":5126,
			"count":2,
			"type":"VEC3"
		},
		{
			"bufferView":63,
			"componentType":5126,
			"count":2,
			"type":"VEC3"
		},
		{
			"bufferView":64,
			"componentType":5126,
			"count":2,
			"type":"VEC4"
		},
		{
			"bufferView":65,
			"componentType":5126,
			"count":2,
			"type":"VEC3"
		},
		{
			"bufferView":66,
			"componentType":5126,
			"count":2,
			"type":"VEC3"
		},
		{
			"bufferView":67,
			"componentType":5126,
			"count":17,
			"type":"VEC4"
		},
		{
			"bufferView":68,
			"componentType":5126,
			"count":2,
			"type":"VEC3"
		},
		{
			"bufferView":69,
			"componentType":5126,
			"count":2,
			"type":"VEC3"
		},
		{
			"bufferView":70,
			"componentType":5126,
			"count":2,
			"type":"VEC4"
		},
		{
			"bufferView":71,
			"componentType":5126,
			"count":2,
			"type":"VEC3"
		},
		{
			"bufferView":72,
			"componentType":5126,
			"count":2,
			"type":"VEC3"
		},
		{
			"bufferView":73,
			"componentType":5126,
			"count":2,
			"type":"VEC4"
		},
		{
			"bufferView":74,
			"componentType":5126,
			"count":2,
			"type":"VEC3"
		},
		{
			"bufferView":75,
			"componentType":5126,
			"count":2,
			"type":"VEC3"
		},
		{
			"bufferView":76,
			"componentType":5126,
			"count":2,
			"type":"VEC4"
		},
		{
			"bufferView":77,
			"componentType":5126,
			"count":2,
			"type":"VEC3"
		},
		{
			"bufferView":78,
			"componentType":5126,
			"count":2,
			"type":"VEC3"
		},
		{
			"bufferView":79,
			"componentType":5126,
			"count":2,
			"type":"VEC4"
		},
		{
			"bufferView":80,
			"componentType":5126,
			"count":2,
			"type":"VEC3"
		},
		{
			"bufferView":81,
			"componentType":5126,
			"count":2,
			"type":"VEC3"
		},
		{
			"bufferView":82,
			"componentType":5126,
			"count":2,
			"type":"VEC4"
		},
		{
			"bufferView":83,
			"componentType":5126,
			"count":2,
			"type":"VEC3"
		},
		{
			"bufferView":84,
			"componentType":5126,
			"count":2,
			"type":"VEC3"
		},
		{
			"bufferView":85,
			"componentType":5126,
			"count":2,
			"type":"VEC4"
		},
		{
			"bufferView":86,
			"componentType":5126,
			"count":2,
			"type":"VEC3"
		},
		{
			"bufferView":87,
			"componentType":5126,
			"count":2,
			"type":"VEC3"
		},
		{
			"bufferView":88,
			"componentType":5126,
			"count":2,
			"type":"VEC4"
		},
		{
			"bufferView":89,
			"componentType":5126,
			"count":2,
			"type":"VEC3"
		},
		{
			"bufferView":90,
			"componentType":5126,
			"count":2,
			"type":"VEC3"
		},
		{
			"bufferView":91,
			"componentType":5126,
			"count":2,
			"type":"VEC4"
		},
		{
			"bufferView":92,
			"componentType":5126,
			"count":2,
			"type":"VEC3"
		},
		{
			"bufferView":93,
			"componentType":5126,
			"count":2,
			"type":"VEC3"
		},
		{
			"bufferView":94,
			"componentType":5126,
			"count":2,
			"type":"VEC4"
		},
		{
			"bufferView":95,
			"componentType":5126,
			"count":2,
			"type":"VEC3"
		},
		{
			"bufferView":96,
			"componentType":5126,
			"count":2,
			"type":"VEC3"
		},
		{
			"bufferView":97,
			"componentType":5126,
			"count":2,
			"type":"VEC4"
		},
		{
			"bufferView":98,
			"componentType":5126,
			"count":2,
			"type":"VEC3"
		},
		{
			"bufferView":99,
			"componentType":5126,
			"count":2,
			"max":[
				2
			],
			"min":[
				0
			],
			"type":"SCALAR"
		},
		{
			"bufferView":100,
			"componentType":5126,
			"count":2,
			"type":"VEC3"
		},
		{
			"bufferView":101,
			"componentType":5126,
			"count":2,
			"type":"VEC4"
		},
		{
			"bufferView":102,
			"componentType":5126,
			"count":2,
			"type":"VEC3"
		},
		{
			"bufferView":103,
			"componentType":5126,
			"count":2,
			"type":"VEC3"
		},
		{
			"bufferView":104,
			"componentType":5126,
			"count":61,
			"max":[
				2
			],
			"min":[
				0
			],
			"type":"SCALAR"
		},
		{
			"bufferView":105,
			"componentType":5126,
			"count":61,
			"type":"VEC4"
		},
		{
			"bufferView":106,
			"componentType":5126,
			"count":2,
			"type":"VEC3"
		},
		{
			"bufferView":107,
			"componentType":5126,
			"count":2,
			"type":"VEC3"
		},
		{
			"bufferView":108,
			"componentType":5126,
			"count":2,
			"type":"VEC4"
		},
		{
			"bufferView":109,
			"componentType":5126,
			"count":2,
			"type":"VEC3"
		},
		{
			"bufferView":110,
			"componentType":5126,
			"count":2,
			"type":"VEC3"
		},
		{
			"bufferView":111,
			"componentType":5126,
			"count":61,
			"type":"VEC4"
		},
		{
			"bufferView":112,
			"componentType":5126,
			"count":2,
			"type":"VEC3"
		},
		{
			"bufferView":113,
			"componentType":5126,
			"count":2,
			"type":"VEC3"
		},
		{
			"bufferView":114,
			"componentType":5126,
			"count":2,
			"type":"VEC4"
		},
		{
			"bufferView":115,
			"componentType":5126,
			"count":2,
			"type":"VEC3"
		},
		{
			"bufferView":116,
			"componentType":5126,
			"count":2,
			"type":"VEC3"
		},
		{
			"bufferView":117,
			"componentType":5126,
			"count":2,
			"type":"VEC4"
		},
		{
			"bufferView":118,
			"componentType":5126,
			"count":2,
			"type":"VEC3"
		},
		{
			"bufferView":119,
			"componentType":5126,
			"count":2,
			"type":"VEC3"
		},
		{
			"bufferView":120,
			"componentType":5126,
			"count":2,
			"type":"VEC4"
		},
		{
			"bufferView":121,
			"componentType":5126,
			"count":2,
			"type":"VEC3"
		},
		{
			"bufferView":122,
			"componentType":5126,
			"count":2,
			"type":"VEC3"
		},
		{
			"bufferView":123,
			"componentType":5126,
			"count":2,
			"type":"VEC4"
		},
		{
			"bufferView":124,
			"componentType":5126,
			"count":2,
			"type":"VEC3"
		},
		{
			"bufferView":125,
			"componentType":5126,
			"count":2,
			"type":"VEC3"
		},
		{
			"bufferView":126,
			"componentType":5126,
			"count":2,
			"type":"VEC4"
		},
		{
			"bufferView":127,
			"componentType":5126,
			"count":2,
			"type":"VEC3"
		},
		{
			"bufferView":128,
			"componentType":5126,
			"count":2,
			"type":"VEC3"
		},
		{
			"bufferView":129,
			"componentType":5126,
			"count":2,
			"type":"VEC4"
		},
		{
			"bufferView":130,
			"componentType":5126,
			"count":2,
			"type":"VEC3"
		},
		{
			"bufferView":131,
			"componentType":5126,
			"count":2,
			"type":"VEC3"
		},
		{
			"bufferView":132,
			"componentType":5126,
			"count":61,
			"type":"VEC4"
		},
		{
			"bufferView":133,
			"componentType":5126,
			"count":2,
			"type":"VEC3"
		},
		{
			"bufferView":134,
			"componentType":5126,
			"count":2,
			"type":"VEC3"
		},
		{
			"bufferView":135,
			"componentType":5126,
			"count":61,
			"type":"VEC4"
		},
		{
			"bufferView":136,
			"componentType":5126,
			"count":2,
			"type":"VEC3"
		},
		{
			"bufferView":137,
			"componentType":5126,
			"count":2,
			"type":"VEC3"
		},
		{
			"bufferView":138,
			"componentType":5126,
			"count":2,
			"type":"VEC4"
		},
		{
			"bufferView":139,
			"componentType":5126,
			"count":2,
			"type":"VEC3"
		},
		{
			"bufferView":140,
			"componentType":5126,
			"count":2,
			"type":"VEC3"
		},
		{
			"bufferView":141,
			"componentType":5126,
			"count":2,
			"type":"VEC4"
		},
		{
			"bufferView":142,
			"componentType":5126,
			"count":2,
			"type":"VEC3"
		},
		{
			"bufferView":143,
			"componentType":5126,
			"count":2,
			"type":"VEC3"
		},
		{
			"bufferView":144,
			"componentType":5126,
			"count":2,
			"type":"VEC4"
		},
		{
			"bufferView":145,
			"componentType":5126,
			"count":2,
			"type":"VEC3"
		},
		{
			"bufferView":146,
			"componentType":5126,
			"count":2,
			"type":"VEC3"
		},
		{
			"bufferView":147,
			"componentType":5126,
			"count":2,
			"type":"VEC4"
		},
		{
			"bufferView":148,
			"componentType":5126,
			"count":2,
			"type":"VEC3"
		},
		{
			"bufferView":149,
			"componentType":5126,
			"count":2,
			"type":"VEC3"
		},
		{
			"bufferView":150,
			"componentType":5126,
			"count":2,
			"type":"VEC4"
		},
		{
			"bufferView":151,
			"componentType":5126,
			"count":2,
			"type":"VEC3"
		},
		{
			"bufferView":152,
			"componentType":5126,
			"count":2,
			"type":"VEC3"
		},
		{
			"bufferView":153,
			"componentType":5126,
			"count":2,
			"type":"VEC4"
		},
		{
			"bufferView":154,
			"componentType":5126,
			"count":2,
			"type":"VEC3"
		},
		{
			"bufferView":155,
			"componentType":5126,
			"count":25,
			"max":[
				0.8
			],
			"min":[
				0
			],
			"type":"SCALAR"
		},
		{
			"bufferView":156,
			"componentType":5126,
			"count":25,
			"type":"VEC3"
		},
		{
			"bufferView":157,
			"componentType":5126,
			"count":2,
			"max":[
				0.8
			],
			"min":[
				0
			],
			"type":"SCALAR"
		},
		{
			"bufferView":158,
			"componentType":5126,
			"count":2,
			"type":"VEC4"
		},
		{
			"bufferView":159,
			"componentType":5126,
			"count":2,
			"type":"VEC3"
		},
		{
			"bufferView":160,
			"componentType":5126,
			"count":2,
			"type":"VEC3"
		},
		{
			"bufferView":161,
			"componentType":5126,
			"count":2,
			"type":"VEC4"
		},
		{
			"bufferView":162,
			"componentType":5126,
			"count":2,
			"type":"VEC3"
		},
		{
			"bufferView":163,
			"componentType":5126,
			"count":2,
			"type":"VEC3"
		},
		{
			"bufferView":164,
			"componentType":5126,
			"count":2,
			"type":"VEC4"
		},
		{
			"bufferView":165,
			"componentType":5126,
			"count":2,
			"type":"VEC3"
		},
		{
			"bufferView":166,
			"componentType":5126,
			"count":2,
			"type":"VEC3"
		},
		{
			"bufferView":167,
			"componentType":5126,
			"count":25,
			"type":"VEC4"
		},
		{
			"bufferView":168,
			"componentType":5126,
			"count":2,
			"type":"VEC3"
		},
		{
			"bufferView":169,
			"componentType":5126,
			"count":2,
			"type":"VEC3"
		},
		{
			"bufferView":170,
			"componentType":5126,
			"count":25,
			"type":"VEC4"
		},
		{
			"bufferView":171,
			"componentType":5126,
			"count":2,
			"type":"VEC3"
		},
		{
			"bufferView":172,
			"componentType":5126,
			"count":2,
			"type":"VEC3"
		},
		{
			"bufferView":173,
			"componentType":5126,
			"count":25,
			"type":"VEC4"
		},
		{
			"bufferView":174,
			"componentType":5126,
			"count":2,
			"type":"VEC3"
		},
		{
			"bufferView":175,
			"componentType":5126,
			"count":2,
			"type":"VEC3"
		},
		{
			"bufferView":176,
			"componentType":5126,
			"count":2,
			"type":"VEC4"
		},
		{
			"bufferView":177,
			"componentType":5126,
			"count":2,
			"type":"VEC3"
		},
		{
			"bufferView":178,
			"componentType":5126,
			"count":2,
			"type":"VEC3"
		},
		{
			"bufferView":179,
			"componentType":5126,
			"count":25,
			"type":"VEC4"
		},
		{
			"bufferView":180,
			"componentType":5126,
			"count":2,
			"type":"VEC3"
		},
		{
			"bufferView":181,
			"componentType":5126,
			"count":2,
			"type":"VEC3"
		},
		{
			"bufferView":182,
			"componentType":5126,
			"count":25,
			"type":"VEC4"
		},
		{
			"bufferView":183,
			"componentType":5126,
			"count":2,
			"type":"VEC3"
		},
		{
			"bufferView":184,
			"componentType":5126,
			"count":2,
			"type":"VEC3"
		},
		{
			"bufferView":185,
			"componentType":5126,
			"count":2,
			"type":"VEC4"
		},
		{
			"bufferView":186,
			"componentType":5126,
			"count":2,
			"type":"VEC3"
		},
		{
			"bufferView":187,
			"componentType":5126,
			"count":2,
			"type":"VEC3"
		},
		{
			"bufferView":188,
			"componentType":5126,
			"count":25,
			"type":"VEC4"
		},
		{
			"bufferView":189,
			"componentType":5126,
			"count":2,
			"type":"VEC3"
		},
		{
			"bufferView":190,
			"componentType":5126,
			"count":2,
			"type":"VEC3"
		},
		{
			"bufferView":191,
			"componentType":5126,
			"count":2,
			"type":"VEC4"
		},
		{
			"bufferView":192,
			"componentType":5126,
			"count":2,
			"type":"VEC3"
		},
		{
			"bufferView":193,
			"componentType":5126,
			"count":2,
			"type":"VEC3"
		},
		{
			"bufferView":194,
			"componentType":5126,
			"count":25,
			"type":"VEC4"
		},
		{
			"bufferView":195,
			"componentType":5126,
			"count":2,
			"type":"VEC3"
		},
		{
			"bufferView":196,
			"componentType":5126,
			"count":2,
			"type":"VEC3"
		},
		{
			"bufferView":197,
			"componentType":5126,
			"count":25,
			"type":"VEC4"
		},
		{
			"bufferView":198,
			"componentType":5126,
			"count":2,
			"type":"VEC3"
		},
		{
			"bufferView":199,
			"componentType":5126,
			"count":2,
			"type":"VEC3"
		},
		{
			"bufferView":200,
			"componentType":5126,
			"count":2,
			"type":"VEC4"
		},
		{
			"bufferView":201,
			"componentType":5126,
			"count":2,
			"type":"VEC3"
		},
		{
			"bufferView":202,
			"componentType":5126,
			"count":2,
			"type":"VEC3"
		},
		{
			"bufferView":203,
			"componentType":5126,
			"count":25,
			"type":"VEC4"
		},
		{
			"bufferView":204,
			"componentType":5126,
			"count":2,
			"type":"VEC3"
		},
		{
			"bufferView":205,
			"componentType":5126,
			"count":2,
			"type":"VEC3"
		},
		{
			"bufferView":206,
			"componentType":5126,
			"count":25,
			"type":"VEC4"
		},
		{
			"bufferView":207,
			"componentType":5126,
			"count":2,
			"type":"VEC3"
		},
		{
			"bufferView":208,
			"componentType":5126,
			"count":2,
			"type":"VEC3"
		},
		{
			"bufferView":209,
			"componentType":5126,
			"count":2,
			"type":"VEC4"
		},
		{
			"bufferView":210,
			"componentType":5126,
			"count":2,
			"type":"VEC3"
		}
	],
	"bufferViews":[
		{
			"buffer":0,
			"byteLength":74460,
			"byteOffset":0,
			"target":34962
		},
		{
			"buffer":0,
			"byteLength":74460,
			"byteOffset":74460,
			"target":34962
		},
		{
			"buffer":0,
			"byteLength":49640,
			"byteOffset":148920,
			"target":34962
		},
		{
			"buffer":0,
			"byteLength":24820,
			"byteOffset":198560,
			"target":34962
		},
		{
			"buffer":0,
			"byteLength":99280,
			"byteOffset":223380,
			"target":34962
		},
		{
			"buffer":0,
			"byteLength":45900,
			"byteOffset":322660,
			"target":34963
		},
		{
			"buffer":0,
			"byteLength":7896,
			"byteOffset":368560,
			"target":34962
		},
		{
			"buffer":0,
			"byteLength":7896,
			"byteOffset":376456,
			"target":34962
		},
		{
			"buffer":0,
			"byteLength":5264,
			"byteOffset":384352,
			"target":34962
		},
		{
			"buffer":0,
			"byteLength":2632,
			"byteOffset":389616,
			"target":34962
		},
		{
			"buffer":0,
			"byteLength":10528,
			"byteOffset":392248,
			"target":34962
		},
		{
			"buffer":0,
			"byteLength":5136,
			"byteOffset":402776,
			"target":34963
		},
		{
			"buffer":0,
			"byteLength":2640,
			"byteOffset":407912,
			"target":34962
		},
		{
			"buffer":0,
			"byteLength":2640,
			"byteOffset":410552,
			"target":34962
		},
		{
			"buffer":0,
			"byteLength":1760,
			"byteOffset":413192,
			"target":34962
		},
		{
			"buffer":0,
			"byteLength":880,
			"byteOffset":414952,
			"target":34962
		},
		{
			"buffer":0,
			"byteLength":3520,
			"byteOffset":415832,
			"target":34962
		},
		{
			"buffer":0,
			"byteLength":1440,
			"byteOffset":419352,
			"target":34963
		},
		{
			"buffer":0,
			"byteLength":1320,
			"byteOffset":420792,
			"target":34962
		},
		{
			"buffer":0,
			"byteLength":1320,
			"byteOffset":422112,
			"target":34962
		},
		{
			"buffer":0,
			"byteLength":880,
			"byteOffset":423432,
			"target":34962
		},
		{
			"buffer":0,
			"byteLength":440,
			"byteOffset":424312,
			"target":34962
		},
		{
			"buffer":0,
			"byteLength":1760,
			"byteOffset":424752,
			"target":34962
		},
		{
			"buffer":0,
			"byteLength":720,
			"byteOffset":426512,
			"target":34963
		},
		{
			"buffer":0,
			"byteLength":816,
			"byteOffset":427232,
			"target":34962
		},
		{
			"buffer":0,
			"byteLength":816,
			"byteOffset":428048,
			"target":34962
		},
		{
			"buffer":0,
			"byteLength":544,
			"byteOffset":428864,
			"target":34962
		},
		{
			"buffer":0,
			"byteLength":272,
			"byteOffset":429408,
			"target":34962
		},
		{
			"buffer":0,
			"byteLength":1088,
			"byteOffset":429680,
			"target":34962
		},
		{
			"buffer":0,
			"byteLength":288,
			"byteOffset":430768,
			"target":34963
		},
		{
			"buffer":0,
			"byteLength":1080,
			"byteOffset":431056,
			"target":34962
		},
		{
			"buffer":0,
			"byteLength":1080,
			"byteOffset":432136,
			"target":34962
		},
		{
			"buffer":0,
			"byteLength":720,
			"byteOffset":433216,
			"target":34962
		},
		{
			"buffer":0,
			"byteLength":360,
			"byteOffset":433936,
			"target":34962
		},
		{
			"buffer":0,
			"byteLength":1440,
			"byteOffset":434296,
			"target":34962
		},
		{
			"buffer":0,
			"byteLength":576,
			"byteOffset":435736,
			"target":34963
		},
		{
			"buffer":0,
			"byteLength":960,
			"byteOffset":436312,
			"target":34962
		},
		{
			"buffer":0,
			"byteLength":960,
			"byteOffset":437272,
			"target":34962
		},
		{
			"buffer":0,
			"byteLength":640,
			"byteOffset":438232,
			"target":34962
		},
		{
			"buffer":0,
			"byteLength":320,
			"byteOffset":438872,
			"target":34962
		},
		{
			"buffer":0,
			"byteLength":1280,
			"byteOffset":439192,
			"target":34962
		},
		{
			"buffer":0,
			"byteLength":480,
			"byteOffset":440472,
			"target":34963
		},
		{
			"buffer":0,
			"byteLength":1152,
			"byteOffset":440952
		},
		{
			"buffer":0,
			"byteLength":68,
			"byteOffset":442104
		},
		{
			"buffer":0,
			"byteLength":204,
			"byteOffset":442172
		},
		{
			"buffer":0,
			"byteLength":8,
			"byteOffset":442376
		},
		{
			"buffer":0,
			"byteLength":32,
			"byteOffset":442384
		},
		{
			"buffer":0,
			"byteLength":24,
			"byteOffset":442416
		},
		{
			"buffer":0,
			"byteLength":24,
			"byteOffset":442440
		},
		{
			"buffer":0,
			"byteLength":272,
			"byteOffset":442464
		},
		{
			"buffer":0,
			"byteLength":24,
			"byteOffset":442736
		},
		{
			"buffer":0,
			"byteLength":24,
			"byteOffset":442760
		},
		{
			"buffer":0,
			"byteLength":272,
			"byteOffset":442784
		},
		{
			"buffer":0,
			"byteLength":24,
			"byteOffset":443056
		},
		{
			"buffer":0,
			"byteLength":24,
			"byteOffset":443080
		},
		{
			"buffer":0,
			"byteLength":272,
			"byteOffset":443104
		},
		{
			"buffer":0,
			"byteLength":24,
			"byteOffset":443376
		},
		{
			"buffer":0,
			"byteLength":24,
			"byteOffset":443400
		},
		{
			"buffer":0,
			"byteLength":272,
			"byteOffset":443424
		},
		{
			"buffer":0,
			"byteLength":24,
			"byteOffset":443696
		},
		{
			"buffer":0,
			"byteLength":24,
			"byteOffset":443720
		},
		{
			"buffer":0,
			"byteLength":32,
			"byteOffset":443744
		},
		{
			"buffer":0,
			"byteLength":24,
			"byteOffset":443776
		},
		{
			"buffer":0,
			"byteLength":24,
			"byteOffset":443800
		},
		{
			"buffer":0,
			"byteLength":32,
			"byteOffset":443824
		},
		{
			"buffer":0,
			"byteLength":24,
			"byteOffset":443856
		},
		{
			"buffer":0,
			"byteLength":24,
			"byteOffset":443880
		},
		{
			"buffer":0,
			"byteLength":272,
			"byteOffset":443904
		},
		{
			"buffer":0,
			"byteLength":24,
			"byteOffset":444176
		},
		{
			"buffer":0,
			"byteLength":24,
			"byteOffset":444200
		},
		{
			"buffer":0,
			"byteLength":32,
			"byteOffset":444224
		},
		{
			"buffer":0,
			"byteLength":24,
			"byteOffset":444256
		},
		{
			"buffer":0,
			"byteLength":24,
			"byteOffset":444280
		},
		{
			"buffer":0,
			"byteLength":32,
			"byteOffset":444304
		},
		{
			"buffer":0,
			"byteLength":24,
			"byteOffset":444336
		},
		{
			"buffer":0,
			"byteLength":24,
			"byteOffset":444360
		},
		{
			"buffer":0,
			"byteLength":32,
			"byteOffset":444384
		},
		{
			"buffer":0,
			"byteLength":24,
			"byteOffset":444416
		},
		{
			"buffer":0,
			"byteLength":24,
			"byteOffset":444440
		},
		{
			"buffer":0,
			"byteLength":32,
			"byteOffset":444464
		},
		{
			"buffer":0,
			"byteLength":24,
			"byteOffset":444496
		},
		{
			"buffer":0,
			"byteLength":24,
			"byteOffset":444520
		},
		{
			"buffer":0,
			"byteLength":32,
			"byteOffset":444544
		},
		{
			"buffer":0,
			"byteLength":24,
			"byteOffset":444576
		},
		{
			"buffer":0,
			"byteLength":24,
			"byteOffset":444600
		},
		{
			"buffer":0,
			"byteLength":32,
			"byteOffset":444624
		},
		{
			"buffer":0,
			"byteLength":24,
			"byteOffset":444656
		},
		{
			"buffer":0,
			"byteLength":24,
			"byteOffset":444680
		},
		{
			"buffer":0,
			"byteLength":32,
			"byteOffset":444704
		},
		{
			"buffer":0,
			"byteLength":24,
			"byteOffset":444736
		},
		{
			"buffer":0,
			"byteLength":24,
			"byteOffset":444760
		},
		{
			"buffer":0,
			"byteLength":32,
			"byteOffset":444784
		},
		{
			"buffer":0,
			"byteLength":24,
			"byteOffset":444816
		},
		{
			"buffer":0,
			"byteLength":24,
			"byteOffset":444840
		},
		{
			"buffer":0,
			"byteLength":32,
			"byteOffset":444864
		},
		{
			"buffer":0,
			"byteLength":24,
			"byteOffset":444896
		},
		{
			"buffer":0,
			"byteLength":24,
			"byteOffset":444920
		},
		{
			"buffer":0,
			"byteLength":32,
			"byteOffset":444944
		},
		{
			"buffer":0,
			"byteLength":24,
			"byteOffset":444976
		},
		{
			"buffer":0,
			"byteLength":8,
			"byteOffset":445000
		},
		{
			"buffer":0,
			"byteLength":24,
			"byteOffset":445008
		},
		{
			"buffer":0,
			"byteLength":32,
			"byteOffset":445032
		},
		{
			"buffer":0,
			"byteLength":24,
			"byteOffset":445064
		},
		{
			"buffer":0,
			"byteLength":24,
			"byteOffset":445088
		},
		{
			"buffer":0,
			"byteLength":244,
			"byteOffset":445112
		},
		{
			"buffer":0,
			"byteLength":976,
			"byteOffset":445356
		},
		{
			"buffer":0,
			"byteLength":24,
			"byteOffset":446332
		},
		{
			"buffer":0,
			"byteLength":24,
			"byteOffset":446356
		},
		{
			"buffer":0,
			"byteLength":32,
			"byteOffset":446380
		},
		{
			"buffer":0,
			"byteLength":24,
			"byteOffset":446412
		},
		{
			"buffer":0,
			"byteLength":24,
			"byteOffset":446436
		},
		{
			"buffer":0,
			"byteLength":976,
			"byteOffset":446460
		},
		{
			"buffer":0,
			"byteLength":24,
			"byteOffset":447436
		},
		{
			"buffer":0,
			"byteLength":24,
			"byteOffset":447460
		},
		{
			"buffer":0,
			"byteLength":32,
			"byteOffset":447484
		},
		{
			"buffer":0,
			"byteLength":24,
			"byteOffset":447516
		},
		{
			"buffer":0,
			"byteLength":24,
			"byteOffset":447540
		},
		{
			"buffer":0,
			"byteLength":32,
			"byteOffset":447564
		},
		{
			"buffer":0,
			"byteLength":24,
			"byteOffset":447596
		},
		{
			"buffer":0,
			"byteLength":24,
			"byteOffset":447620
		},
		{
			"buffer":0,
			"byteLength":32,
			"byteOffset":447644
		},
		{
			"buffer":0,
			"byteLength":24,
			"byteOffset":447676
		},
		{
			"buffer":0,
			"byteLength":24,
			"byteOffset":447700
		},
		{
			"buffer":0,
			"byteLength":32,
			"byteOffset":447724
		},
		{
			"buffer":0,
			"byteLength":24,
			"byteOffset":447756
		},
		{
			"buffer":0,
			"byteLength":24,
			"byteOffset":447780
		},
		{
			"buffer":0,
			"byteLength":32,
			"byteOffset":447804
		},
		{
			"buffer":0,
			"byteLength":24,
			"byteOffset":447836
		},
		{
			"buffer":0,
			"byteLength":24,
			"byteOffset":447860
		},
		{
			"buffer":0,
			"byteLength":32,
			"byteOffset":447884
		},
		{
			"buffer":0,
			"byteLength":24,
			"byteOffset":447916
		},
		{
			"buffer":0,
			"byteLength":24,
			"byteOffset":447940
		},
		{
			"buffer":0,
			"byteLength":976,
			"byteOffset":447964
		},
		{
			"buffer":0,
			"byteLength":24,
			"byteOffset":448940
		},
		{
			"buffer":0,
			"byteLength":24,
			"byteOffset":448964
		},
		{
			"buffer":0,
			"byteLength":976,
			"byteOffset":448988
		},
		{
			"buffer":0,
			"byteLength":24,
			"byteOffset":449964
		},
		{
			"buffer":0,
			"byteLength":24,
			"byteOffset":449988
		},
		{
			"buffer":0,
			"byteLength":32,
			"byteOffset":450012
		},
		{
			"buffer":0,
			"byteLength":24,
			"byteOffset":450044
		},
		{
			"buffer":0,
			"byteLength":24,
			"byteOffset":450068
		},
		{
			"buffer":0,
			"byteLength":32,
			"byteOffset":450092
		},
		{
			"buffer":0,
			"byteLength":24,
			"byteOffset":450124
		},
		{
			"buffer":0,
			"byteLength":24,
			"byteOffset":450148
		},
		{
			"buffer":0,
			"byteLength":32,
			"byteOffset":450172
		},
		{
			"buffer":0,
			"byteLength":24,
			"byteOffset":450204
		},
		{
			"buffer":0,
			"byteLength":24,
			"byteOffset":450228
		},
		{
			"buffer":0,
			"byteLength":32,
			"byteOffset":450252
		},
		{
			"buffer":0,
			"byteLength":24,
			"byteOffset":450284
		},
		{
			"buffer":0,
			"byteLength":24,
			"byteOffset":450308
		},
		{
			"buffer":0,
			"byteLength":32,
			"byteOffset":450332
		},
		{
			"buffer":0,
			"byteLength":24,
			"byteOffset":450364
		},
		{
			"buffer":0,
			"byteLength":24,
			"byteOffset":450388
		},
		{
			"buffer":0,
			"byteLength":32,
			"byteOffset":450412
		},
		{
			"buffer":0,
			"byteLength":24,
			"byteOffset":450444
		},
		{
			"buffer":0,
			"byteLength":100,
			"byteOffset":450468
		},
		{
			"buffer":0,
			"byteLength":300,
			"byteOffset":450568
		},
		{
			"buffer":0,
			"byteLength":8,
			"byteOffset":450868
		},
		{
			"buffer":0,
			"byteLength":32,
			"byteOffset":450876
		},
		{
			"buffer":0,
			"byteLength":24,
			"byteOffset":450908
		},
		{
			"buffer":0,
			"byteLength":24,
			"byteOffset":450932
		},
		{
			"buffer":0,
			"byteLength":32,
			"byteOffset":450956
		},
		{
			"buffer":0,
			"byteLength":24,
			"byteOffset":450988
		},
		{
			"buffer":0,
			"byteLength":24,
			"byteOffset":451012
		},
		{
			"buffer":0,
			"byteLength":32,
			"byteOffset":451036
		},
		{
			"buffer":0,
			"byteLength":24,
			"byteOffset":451068
		},
		{
			"buffer":0,
			"byteLength":24,
			"byteOffset":451092
		},
		{
			"buffer":0,
			"byteLength":400,
			"byteOffset":451116
		},
		{
			"buffer":0,
			"byteLength":24,
			"byteOffset":451516
		},
		{
			"buffer":0,
			"byteLength":24,
			"byteOffset":451540
		},
		{
			"buffer":0,
			"byteLength":400,
			"byteOffset":451564
		},
		{
			"buffer":0,
			"byteLength":24,
			"byteOffset":451964
		},
		{
			"buffer":0,
			"byteLength":24,
			"byteOffset":451988
		},
		{
			"buffer":0,
			"byteLength":400,
			"byteOffset":452012
		},
		{
			"buffer":0,
			"byteLength":24,
			"byteOffset":452412
		},
		{
			"buffer":0,
			"byteLength":24,
			"byteOffset":452436
		},
		{
			"buffer":0,
			"byteLength":32,
			"byteOffset":452460
		},
		{
			"buffer":0,
			"byteLength":24,
			"byteOffset":452492
		},
		{
			"buffer":0,
			"byteLength":24,
			"byteOffset":452516
		},
		{
			"buffer":0,
			"byteLength":400,
			"byteOffset":452540
		},
		{
			"buffer":0,
			"byteLength":24,
			"byteOffset":452940
		},
		{
			"buffer":0,
			"byteLength":24,
			"byteOffset":452964
		},
		{
			"buffer":0,
			"byteLength":400,
			"byteOffset":452988
		},
		{
			"buffer":0,
			"byteLength":24,
			"byteOffset":453388
		},
		{
			"buffer":0,
			"byteLength":24,
			"byteOffset":453412
		},
		{
			"buffer":0,
			"byteLength":32,
			"byteOffset":453436
		},
		{
			"buffer":0,
			"byteLength":24,
			"byteOffset":453468
		},
		{
			"buffer":0,
			"byteLength":24,
			"byteOffset":453492
		},
		{
			"buffer":0,
			"byteLength":400,
			"byteOffset":453516
		},
		{
			"buffer":0,
			"byteLength":24,
			"byteOffset":453916
		},
		{
			"buffer":0,
			"byteLength":24,
			"byteOffset":453940
		},
		{
			"buffer":0,
			"byteLength":32,
			"byteOffset":453964
		},
		{
			"buffer":0,
			"byteLength":24,
			"byteOffset":453996
		},
		{
			"buffer":0,
			"byteLength":24,
			"byteOffset":454020
		},
		{
			"buffer":0,
			"byteLength":400,
			"byteOffset":454044
		},
		{
			"buffer":0,
			"byteLength":24,
			"byteOffset":454444
		},
		{
			"buffer":0,
			"byteLength":24,
			"byteOffset":454468
		},
		{
			"buffer":0,
			"byteLength":400,
			"byteOffset":454492
		},
		{
			"buffer":0,
			"byteLength":24,
			"byteOffset":454892
		},
		{
			"buffer":0,
			"byteLength":24,
			"byteOffset":454916
		},
		{
			"buffer":0,
			"byteLength":32,
			"byteOffset":454940
		},
		{
			"buffer":0,
			"byteLength":24,
			"byteOffset":454972
		},
		{
			"buffer":0,
			"byteLength":24,
			"byteOffset":454996
		},
		{
			"buffer":0,
			"byteLength":400,
			"byteOffset":455020
		},
		{
			"buffer":0,
			"byteLength":24,
			"byteOffset":455420
		},
		{
			"buffer":0,
			"byteLength":24,
			"byteOffset":455444
		},
		{
			"buffer":0,
			"byteLength":400,
			"byteOffset":455468
		},
		{
			"buffer":0,
			"byteLength":24,
			"byteOffset":455868
		},
		{
			"buffer":0,
			"byteLength":24,
			"byteOffset":455892
		},
		{
			"buffer":0,
			"byteLength":32,
			"byteOffset":455916
		},
		{
			"buffer":0,
			"byteLength":24,
			"byteOffset":455948
		}
	],
	"samplers":[
		{
			"magFilter":9729,
			"minFilter":9987
		}
	],
	"buffers":[
		{
			"byteLength":455972,
			"uri":"direwolf_leader.bin"
		}
	]
}
