{
	"asset":{
		"generator":"Khronos glTF Blender I/O v4.2.57",
		"version":"2.0"
	},
	"extensionsUsed":[
		"KHR_materials_clearcoat",
		"KHR_materials_sheen"
	],
	"scene":0,
	"scenes":[
		{
			"name":"Scene",
			"nodes":[
				18
			]
		}
	],
	"nodes":[
		{
			"name":"head",
			"scale":[
				1,
				0.9999999403953552,
				1
			],
			"translation":[
				0,
				0.07200002670288086,
				0
			]
		},
		{
			"children":[
				0
			],
			"name":"neck",
			"translation":[
				0,
				0.15119999647140503,
				0
			]
		},
		{
			"name":"hand.R",
			"rotation":[
				-0.004066501744091511,
				-0.02869982086122036,
				0.030804067850112915,
				0.9991050362586975
			],
			"scale":[
				0.9999999403953552,
				1.0000001192092896,
				0.9999999403953552
			],
			"translation":[
				4.417961463332176e-08,
				0.18188296258449554,
				-1.3969838619232178e-09
			]
		},
		{
			"children":[
				2
			],
			"name":"forearm.R",
			"rotation":[
				0.042591217905282974,
				-0.06978468596935272,
				0.08124940097332001,
				0.9933350682258606
			],
			"translation":[
				-7.799826562404633e-09,
				0.2014937400817871,
				-1.1175870895385742e-08
			]
		},
		{
			"children":[
				3
			],
			"name":"upper_arm.R",
			"rotation":[
				0.9822396039962769,
				0.13267487287521362,
				0.13267512619495392,
				0.0002687016094569117
			],
			"scale":[
				0.9999983310699463,
				0.9999998211860657,
				1
			],
			"translation":[
				0.21772800385951996,
				0.1151999831199646,
				0
			]
		},
		{
			"name":"hand.L",
			"rotation":[
				-0.004066501744091511,
				0.02869982086122036,
				-0.030804067850112915,
				0.9991050362586975
			],
			"scale":[
				0.9999999403953552,
				1.0000001192092896,
				0.9999999403953552
			],
			"translation":[
				-4.417961463332176e-08,
				0.18188296258449554,
				-1.3969838619232178e-09
			]
		},
		{
			"children":[
				5
			],
			"name":"forearm.L",
			"rotation":[
				0.042591217905282974,
				0.06978468596935272,
				-0.08124940097332001,
				0.9933350682258606
			],
			"translation":[
				7.799826562404633e-09,
				0.2014937400817871,
				-1.1175870895385742e-08
			]
		},
		{
			"children":[
				6
			],
			"name":"upper_arm.L",
			"rotation":[
				0.9822396039962769,
				-0.13267487287521362,
				-0.13267512619495392,
				0.0002687016094569117
			],
			"scale":[
				0.9999983310699463,
				0.9999998211860657,
				1
			],
			"translation":[
				-0.21772800385951996,
				0.1151999831199646,
				0
			]
		},
		{
			"children":[
				1,
				4,
				7
			],
			"name":"chest",
			"translation":[
				0,
				0.12240004539489746,
				0
			]
		},
		{
			"children":[
				8
			],
			"name":"spine",
			"rotation":[
				-3.552713678800501e-15,
				0,
				0,
				1
			],
			"translation":[
				0,
				0.10800015926361084,
				0
			]
		},
		{
			"name":"foot.R",
			"rotation":[
				0.5914181470870972,
				-1.1640896024900371e-09,
				-1.2439298723021519e-11,
				0.8063650131225586
			],
			"scale":[
				1,
				1,
				0.9999998807907104
			],
			"translation":[
				7.380584143845681e-09,
				0.2956247329711914,
				5.753051368628803e-10
			]
		},
		{
			"children":[
				10
			],
			"name":"shin.R",
			"rotation":[
				-0.041594941169023514,
				-0.013808002695441246,
				0.013086955063045025,
				0.9989534020423889
			],
			"scale":[
				1,
				0.9999999403953552,
				1
			],
			"translation":[
				1.0040821507573128e-09,
				0.2954365015029907,
				-1.3969838619232178e-09
			]
		},
		{
			"children":[
				11
			],
			"name":"thigh.R",
			"rotation":[
				-0.9997093677520752,
				-0.01345231756567955,
				-0.013452447019517422,
				0.014807697385549545
			],
			"scale":[
				1.000000238418579,
				0.9999999403953552,
				1.0000003576278687
			],
			"translation":[
				0.09273600578308105,
				-0.014399886131286621,
				0
			]
		},
		{
			"name":"foot.L",
			"rotation":[
				0.5914181470870972,
				1.1640896024900371e-09,
				1.2439298723021519e-11,
				0.8063650131225586
			],
			"scale":[
				1,
				1,
				0.9999998807907104
			],
			"translation":[
				-7.380584143845681e-09,
				0.2956247329711914,
				5.753051368628803e-10
			]
		},
		{
			"children":[
				13
			],
			"name":"shin.L",
			"rotation":[
				-0.041594941169023514,
				0.013808002695441246,
				-0.013086955063045025,
				0.9989534020423889
			],
			"scale":[
				1,
				0.9999999403953552,
				1
			],
			"translation":[
				-1.0040821507573128e-09,
				0.2954365015029907,
				-1.3969838619232178e-09
			]
		},
		{
			"children":[
				14
			],
			"name":"thigh.L",
			"rotation":[
				-0.9997093677520752,
				0.01345231756567955,
				0.013452447019517422,
				0.014807697385549545
			],
			"scale":[
				1.000000238418579,
				0.9999999403953552,
				1.0000003576278687
			],
			"translation":[
				-0.09273600578308105,
				-0.014399886131286621,
				0
			]
		},
		{
			"children":[
				9,
				12,
				15
			],
			"name":"hips",
			"rotation":[
				-2.980232594040899e-08,
				0,
				0,
				1
			],
			"scale":[
				1,
				0.9999999403953552,
				0.9999999403953552
			],
			"translation":[
				0,
				0.6696000099182129,
				0
			]
		},
		{
			"mesh":0,
			"name":"dwarf",
			"skin":0
		},
		{
			"children":[
				17,
				16
			],
			"name":"dwarf_rig"
		}
	],
	"animations":[
		{
			"channels":[
				{
					"sampler":0,
					"target":{
						"node":16,
						"path":"translation"
					}
				},
				{
					"sampler":1,
					"target":{
						"node":16,
						"path":"rotation"
					}
				},
				{
					"sampler":2,
					"target":{
						"node":16,
						"path":"scale"
					}
				},
				{
					"sampler":3,
					"target":{
						"node":9,
						"path":"translation"
					}
				},
				{
					"sampler":4,
					"target":{
						"node":9,
						"path":"rotation"
					}
				},
				{
					"sampler":5,
					"target":{
						"node":9,
						"path":"scale"
					}
				},
				{
					"sampler":6,
					"target":{
						"node":8,
						"path":"translation"
					}
				},
				{
					"sampler":7,
					"target":{
						"node":8,
						"path":"rotation"
					}
				},
				{
					"sampler":8,
					"target":{
						"node":8,
						"path":"scale"
					}
				},
				{
					"sampler":9,
					"target":{
						"node":1,
						"path":"translation"
					}
				},
				{
					"sampler":10,
					"target":{
						"node":1,
						"path":"rotation"
					}
				},
				{
					"sampler":11,
					"target":{
						"node":1,
						"path":"scale"
					}
				},
				{
					"sampler":12,
					"target":{
						"node":0,
						"path":"translation"
					}
				},
				{
					"sampler":13,
					"target":{
						"node":0,
						"path":"rotation"
					}
				},
				{
					"sampler":14,
					"target":{
						"node":0,
						"path":"scale"
					}
				},
				{
					"sampler":15,
					"target":{
						"node":4,
						"path":"translation"
					}
				},
				{
					"sampler":16,
					"target":{
						"node":4,
						"path":"rotation"
					}
				},
				{
					"sampler":17,
					"target":{
						"node":4,
						"path":"scale"
					}
				},
				{
					"sampler":18,
					"target":{
						"node":3,
						"path":"translation"
					}
				},
				{
					"sampler":19,
					"target":{
						"node":3,
						"path":"rotation"
					}
				},
				{
					"sampler":20,
					"target":{
						"node":3,
						"path":"scale"
					}
				},
				{
					"sampler":21,
					"target":{
						"node":2,
						"path":"translation"
					}
				},
				{
					"sampler":22,
					"target":{
						"node":2,
						"path":"rotation"
					}
				},
				{
					"sampler":23,
					"target":{
						"node":2,
						"path":"scale"
					}
				},
				{
					"sampler":24,
					"target":{
						"node":7,
						"path":"translation"
					}
				},
				{
					"sampler":25,
					"target":{
						"node":7,
						"path":"rotation"
					}
				},
				{
					"sampler":26,
					"target":{
						"node":7,
						"path":"scale"
					}
				},
				{
					"sampler":27,
					"target":{
						"node":6,
						"path":"translation"
					}
				},
				{
					"sampler":28,
					"target":{
						"node":6,
						"path":"rotation"
					}
				},
				{
					"sampler":29,
					"target":{
						"node":6,
						"path":"scale"
					}
				},
				{
					"sampler":30,
					"target":{
						"node":5,
						"path":"translation"
					}
				},
				{
					"sampler":31,
					"target":{
						"node":5,
						"path":"rotation"
					}
				},
				{
					"sampler":32,
					"target":{
						"node":5,
						"path":"scale"
					}
				},
				{
					"sampler":33,
					"target":{
						"node":12,
						"path":"translation"
					}
				},
				{
					"sampler":34,
					"target":{
						"node":12,
						"path":"rotation"
					}
				},
				{
					"sampler":35,
					"target":{
						"node":12,
						"path":"scale"
					}
				},
				{
					"sampler":36,
					"target":{
						"node":11,
						"path":"translation"
					}
				},
				{
					"sampler":37,
					"target":{
						"node":11,
						"path":"rotation"
					}
				},
				{
					"sampler":38,
					"target":{
						"node":11,
						"path":"scale"
					}
				},
				{
					"sampler":39,
					"target":{
						"node":10,
						"path":"translation"
					}
				},
				{
					"sampler":40,
					"target":{
						"node":10,
						"path":"rotation"
					}
				},
				{
					"sampler":41,
					"target":{
						"node":10,
						"path":"scale"
					}
				},
				{
					"sampler":42,
					"target":{
						"node":15,
						"path":"translation"
					}
				},
				{
					"sampler":43,
					"target":{
						"node":15,
						"path":"rotation"
					}
				},
				{
					"sampler":44,
					"target":{
						"node":15,
						"path":"scale"
					}
				},
				{
					"sampler":45,
					"target":{
						"node":14,
						"path":"translation"
					}
				},
				{
					"sampler":46,
					"target":{
						"node":14,
						"path":"rotation"
					}
				},
				{
					"sampler":47,
					"target":{
						"node":14,
						"path":"scale"
					}
				},
				{
					"sampler":48,
					"target":{
						"node":13,
						"path":"translation"
					}
				},
				{
					"sampler":49,
					"target":{
						"node":13,
						"path":"rotation"
					}
				},
				{
					"sampler":50,
					"target":{
						"node":13,
						"path":"scale"
					}
				}
			],
			"name":"attack",
			"samplers":[
				{
					"input":78,
					"interpolation":"STEP",
					"output":79
				},
				{
					"input":78,
					"interpolation":"STEP",
					"output":80
				},
				{
					"input":78,
					"interpolation":"STEP",
					"output":81
				},
				{
					"input":78,
					"interpolation":"STEP",
					"output":82
				},
				{
					"input":78,
					"interpolation":"STEP",
					"output":83
				},
				{
					"input":78,
					"interpolation":"STEP",
					"output":84
				},
				{
					"input":78,
					"interpolation":"STEP",
					"output":85
				},
				{
					"input":86,
					"interpolation":"LINEAR",
					"output":87
				},
				{
					"input":78,
					"interpolation":"STEP",
					"output":88
				},
				{
					"input":78,
					"interpolation":"STEP",
					"output":89
				},
				{
					"input":78,
					"interpolation":"STEP",
					"output":90
				},
				{
					"input":78,
					"interpolation":"STEP",
					"output":91
				},
				{
					"input":78,
					"interpolation":"STEP",
					"output":92
				},
				{
					"input":78,
					"interpolation":"STEP",
					"output":93
				},
				{
					"input":78,
					"interpolation":"STEP",
					"output":94
				},
				{
					"input":78,
					"interpolation":"STEP",
					"output":95
				},
				{
					"input":86,
					"interpolation":"LINEAR",
					"output":96
				},
				{
					"input":78,
					"interpolation":"STEP",
					"output":97
				},
				{
					"input":78,
					"interpolation":"LINEAR",
					"output":98
				},
				{
					"input":86,
					"interpolation":"LINEAR",
					"output":99
				},
				{
					"input":78,
					"interpolation":"STEP",
					"output":100
				},
				{
					"input":78,
					"interpolation":"LINEAR",
					"output":101
				},
				{
					"input":78,
					"interpolation":"LINEAR",
					"output":102
				},
				{
					"input":78,
					"interpolation":"STEP",
					"output":103
				},
				{
					"input":78,
					"interpolation":"STEP",
					"output":104
				},
				{
					"input":86,
					"interpolation":"LINEAR",
					"output":105
				},
				{
					"input":78,
					"interpolation":"STEP",
					"output":106
				},
				{
					"input":78,
					"interpolation":"STEP",
					"output":107
				},
				{
					"input":78,
					"interpolation":"STEP",
					"output":108
				},
				{
					"input":78,
					"interpolation":"STEP",
					"output":109
				},
				{
					"input":78,
					"interpolation":"STEP",
					"output":110
				},
				{
					"input":78,
					"interpolation":"STEP",
					"output":111
				},
				{
					"input":78,
					"interpolation":"STEP",
					"output":112
				},
				{
					"input":78,
					"interpolation":"STEP",
					"output":113
				},
				{
					"input":86,
					"interpolation":"LINEAR",
					"output":114
				},
				{
					"input":78,
					"interpolation":"STEP",
					"output":115
				},
				{
					"input":78,
					"interpolation":"LINEAR",
					"output":116
				},
				{
					"input":78,
					"interpolation":"LINEAR",
					"output":117
				},
				{
					"input":78,
					"interpolation":"STEP",
					"output":118
				},
				{
					"input":78,
					"interpolation":"LINEAR",
					"output":119
				},
				{
					"input":78,
					"interpolation":"LINEAR",
					"output":120
				},
				{
					"input":78,
					"interpolation":"STEP",
					"output":121
				},
				{
					"input":78,
					"interpolation":"STEP",
					"output":122
				},
				{
					"input":86,
					"interpolation":"LINEAR",
					"output":123
				},
				{
					"input":78,
					"interpolation":"STEP",
					"output":124
				},
				{
					"input":78,
					"interpolation":"LINEAR",
					"output":125
				},
				{
					"input":78,
					"interpolation":"LINEAR",
					"output":126
				},
				{
					"input":78,
					"interpolation":"STEP",
					"output":127
				},
				{
					"input":78,
					"interpolation":"LINEAR",
					"output":128
				},
				{
					"input":78,
					"interpolation":"LINEAR",
					"output":129
				},
				{
					"input":78,
					"interpolation":"STEP",
					"output":130
				}
			]
		},
		{
			"channels":[
				{
					"sampler":0,
					"target":{
						"node":16,
						"path":"translation"
					}
				},
				{
					"sampler":1,
					"target":{
						"node":16,
						"path":"rotation"
					}
				},
				{
					"sampler":2,
					"target":{
						"node":16,
						"path":"scale"
					}
				},
				{
					"sampler":3,
					"target":{
						"node":9,
						"path":"translation"
					}
				},
				{
					"sampler":4,
					"target":{
						"node":9,
						"path":"rotation"
					}
				},
				{
					"sampler":5,
					"target":{
						"node":9,
						"path":"scale"
					}
				},
				{
					"sampler":6,
					"target":{
						"node":8,
						"path":"translation"
					}
				},
				{
					"sampler":7,
					"target":{
						"node":8,
						"path":"rotation"
					}
				},
				{
					"sampler":8,
					"target":{
						"node":8,
						"path":"scale"
					}
				},
				{
					"sampler":9,
					"target":{
						"node":1,
						"path":"translation"
					}
				},
				{
					"sampler":10,
					"target":{
						"node":1,
						"path":"rotation"
					}
				},
				{
					"sampler":11,
					"target":{
						"node":1,
						"path":"scale"
					}
				},
				{
					"sampler":12,
					"target":{
						"node":0,
						"path":"translation"
					}
				},
				{
					"sampler":13,
					"target":{
						"node":0,
						"path":"rotation"
					}
				},
				{
					"sampler":14,
					"target":{
						"node":0,
						"path":"scale"
					}
				},
				{
					"sampler":15,
					"target":{
						"node":4,
						"path":"translation"
					}
				},
				{
					"sampler":16,
					"target":{
						"node":4,
						"path":"rotation"
					}
				},
				{
					"sampler":17,
					"target":{
						"node":4,
						"path":"scale"
					}
				},
				{
					"sampler":18,
					"target":{
						"node":3,
						"path":"translation"
					}
				},
				{
					"sampler":19,
					"target":{
						"node":3,
						"path":"rotation"
					}
				},
				{
					"sampler":20,
					"target":{
						"node":3,
						"path":"scale"
					}
				},
				{
					"sampler":21,
					"target":{
						"node":2,
						"path":"translation"
					}
				},
				{
					"sampler":22,
					"target":{
						"node":2,
						"path":"rotation"
					}
				},
				{
					"sampler":23,
					"target":{
						"node":2,
						"path":"scale"
					}
				},
				{
					"sampler":24,
					"target":{
						"node":7,
						"path":"translation"
					}
				},
				{
					"sampler":25,
					"target":{
						"node":7,
						"path":"rotation"
					}
				},
				{
					"sampler":26,
					"target":{
						"node":7,
						"path":"scale"
					}
				},
				{
					"sampler":27,
					"target":{
						"node":6,
						"path":"translation"
					}
				},
				{
					"sampler":28,
					"target":{
						"node":6,
						"path":"rotation"
					}
				},
				{
					"sampler":29,
					"target":{
						"node":6,
						"path":"scale"
					}
				},
				{
					"sampler":30,
					"target":{
						"node":5,
						"path":"translation"
					}
				},
				{
					"sampler":31,
					"target":{
						"node":5,
						"path":"rotation"
					}
				},
				{
					"sampler":32,
					"target":{
						"node":5,
						"path":"scale"
					}
				},
				{
					"sampler":33,
					"target":{
						"node":12,
						"path":"translation"
					}
				},
				{
					"sampler":34,
					"target":{
						"node":12,
						"path":"rotation"
					}
				},
				{
					"sampler":35,
					"target":{
						"node":12,
						"path":"scale"
					}
				},
				{
					"sampler":36,
					"target":{
						"node":11,
						"path":"translation"
					}
				},
				{
					"sampler":37,
					"target":{
						"node":11,
						"path":"rotation"
					}
				},
				{
					"sampler":38,
					"target":{
						"node":11,
						"path":"scale"
					}
				},
				{
					"sampler":39,
					"target":{
						"node":10,
						"path":"translation"
					}
				},
				{
					"sampler":40,
					"target":{
						"node":10,
						"path":"rotation"
					}
				},
				{
					"sampler":41,
					"target":{
						"node":10,
						"path":"scale"
					}
				},
				{
					"sampler":42,
					"target":{
						"node":15,
						"path":"translation"
					}
				},
				{
					"sampler":43,
					"target":{
						"node":15,
						"path":"rotation"
					}
				},
				{
					"sampler":44,
					"target":{
						"node":15,
						"path":"scale"
					}
				},
				{
					"sampler":45,
					"target":{
						"node":14,
						"path":"translation"
					}
				},
				{
					"sampler":46,
					"target":{
						"node":14,
						"path":"rotation"
					}
				},
				{
					"sampler":47,
					"target":{
						"node":14,
						"path":"scale"
					}
				},
				{
					"sampler":48,
					"target":{
						"node":13,
						"path":"translation"
					}
				},
				{
					"sampler":49,
					"target":{
						"node":13,
						"path":"rotation"
					}
				},
				{
					"sampler":50,
					"target":{
						"node":13,
						"path":"scale"
					}
				}
			],
			"name":"idle",
			"samplers":[
				{
					"input":131,
					"interpolation":"LINEAR",
					"output":132
				},
				{
					"input":133,
					"interpolation":"STEP",
					"output":134
				},
				{
					"input":133,
					"interpolation":"STEP",
					"output":135
				},
				{
					"input":133,
					"interpolation":"STEP",
					"output":136
				},
				{
					"input":133,
					"interpolation":"STEP",
					"output":137
				},
				{
					"input":133,
					"interpolation":"STEP",
					"output":138
				},
				{
					"input":133,
					"interpolation":"STEP",
					"output":139
				},
				{
					"input":131,
					"interpolation":"LINEAR",
					"output":140
				},
				{
					"input":133,
					"interpolation":"STEP",
					"output":141
				},
				{
					"input":133,
					"interpolation":"STEP",
					"output":142
				},
				{
					"input":133,
					"interpolation":"STEP",
					"output":143
				},
				{
					"input":133,
					"interpolation":"STEP",
					"output":144
				},
				{
					"input":133,
					"interpolation":"STEP",
					"output":145
				},
				{
					"input":131,
					"interpolation":"LINEAR",
					"output":146
				},
				{
					"input":133,
					"interpolation":"STEP",
					"output":147
				},
				{
					"input":133,
					"interpolation":"STEP",
					"output":148
				},
				{
					"input":131,
					"interpolation":"LINEAR",
					"output":149
				},
				{
					"input":133,
					"interpolation":"STEP",
					"output":150
				},
				{
					"input":133,
					"interpolation":"STEP",
					"output":151
				},
				{
					"input":133,
					"interpolation":"STEP",
					"output":152
				},
				{
					"input":133,
					"interpolation":"STEP",
					"output":153
				},
				{
					"input":133,
					"interpolation":"STEP",
					"output":154
				},
				{
					"input":133,
					"interpolation":"STEP",
					"output":155
				},
				{
					"input":133,
					"interpolation":"STEP",
					"output":156
				},
				{
					"input":133,
					"interpolation":"STEP",
					"output":157
				},
				{
					"input":131,
					"interpolation":"LINEAR",
					"output":158
				},
				{
					"input":133,
					"interpolation":"STEP",
					"output":159
				},
				{
					"input":133,
					"interpolation":"STEP",
					"output":160
				},
				{
					"input":133,
					"interpolation":"STEP",
					"output":161
				},
				{
					"input":133,
					"interpolation":"STEP",
					"output":162
				},
				{
					"input":133,
					"interpolation":"STEP",
					"output":163
				},
				{
					"input":133,
					"interpolation":"STEP",
					"output":164
				},
				{
					"input":133,
					"interpolation":"STEP",
					"output":165
				},
				{
					"input":133,
					"interpolation":"STEP",
					"output":166
				},
				{
					"input":133,
					"interpolation":"STEP",
					"output":167
				},
				{
					"input":133,
					"interpolation":"STEP",
					"output":168
				},
				{
					"input":133,
					"interpolation":"STEP",
					"output":169
				},
				{
					"input":133,
					"interpolation":"STEP",
					"output":170
				},
				{
					"input":133,
					"interpolation":"STEP",
					"output":171
				},
				{
					"input":133,
					"interpolation":"STEP",
					"output":172
				},
				{
					"input":133,
					"interpolation":"STEP",
					"output":173
				},
				{
					"input":133,
					"interpolation":"STEP",
					"output":174
				},
				{
					"input":133,
					"interpolation":"STEP",
					"output":175
				},
				{
					"input":133,
					"interpolation":"STEP",
					"output":176
				},
				{
					"input":133,
					"interpolation":"STEP",
					"output":177
				},
				{
					"input":133,
					"interpolation":"STEP",
					"output":178
				},
				{
					"input":133,
					"interpolation":"STEP",
					"output":179
				},
				{
					"input":133,
					"interpolation":"STEP",
					"output":180
				},
				{
					"input":133,
					"interpolation":"STEP",
					"output":181
				},
				{
					"input":133,
					"interpolation":"STEP",
					"output":182
				},
				{
					"input":133,
					"interpolation":"STEP",
					"output":183
				}
			]
		},
		{
			"channels":[
				{
					"sampler":0,
					"target":{
						"node":16,
						"path":"translation"
					}
				},
				{
					"sampler":1,
					"target":{
						"node":16,
						"path":"rotation"
					}
				},
				{
					"sampler":2,
					"target":{
						"node":16,
						"path":"scale"
					}
				},
				{
					"sampler":3,
					"target":{
						"node":9,
						"path":"translation"
					}
				},
				{
					"sampler":4,
					"target":{
						"node":9,
						"path":"rotation"
					}
				},
				{
					"sampler":5,
					"target":{
						"node":9,
						"path":"scale"
					}
				},
				{
					"sampler":6,
					"target":{
						"node":8,
						"path":"translation"
					}
				},
				{
					"sampler":7,
					"target":{
						"node":8,
						"path":"rotation"
					}
				},
				{
					"sampler":8,
					"target":{
						"node":8,
						"path":"scale"
					}
				},
				{
					"sampler":9,
					"target":{
						"node":1,
						"path":"translation"
					}
				},
				{
					"sampler":10,
					"target":{
						"node":1,
						"path":"rotation"
					}
				},
				{
					"sampler":11,
					"target":{
						"node":1,
						"path":"scale"
					}
				},
				{
					"sampler":12,
					"target":{
						"node":0,
						"path":"translation"
					}
				},
				{
					"sampler":13,
					"target":{
						"node":0,
						"path":"rotation"
					}
				},
				{
					"sampler":14,
					"target":{
						"node":0,
						"path":"scale"
					}
				},
				{
					"sampler":15,
					"target":{
						"node":4,
						"path":"translation"
					}
				},
				{
					"sampler":16,
					"target":{
						"node":4,
						"path":"rotation"
					}
				},
				{
					"sampler":17,
					"target":{
						"node":4,
						"path":"scale"
					}
				},
				{
					"sampler":18,
					"target":{
						"node":3,
						"path":"translation"
					}
				},
				{
					"sampler":19,
					"target":{
						"node":3,
						"path":"rotation"
					}
				},
				{
					"sampler":20,
					"target":{
						"node":3,
						"path":"scale"
					}
				},
				{
					"sampler":21,
					"target":{
						"node":2,
						"path":"translation"
					}
				},
				{
					"sampler":22,
					"target":{
						"node":2,
						"path":"rotation"
					}
				},
				{
					"sampler":23,
					"target":{
						"node":2,
						"path":"scale"
					}
				},
				{
					"sampler":24,
					"target":{
						"node":7,
						"path":"translation"
					}
				},
				{
					"sampler":25,
					"target":{
						"node":7,
						"path":"rotation"
					}
				},
				{
					"sampler":26,
					"target":{
						"node":7,
						"path":"scale"
					}
				},
				{
					"sampler":27,
					"target":{
						"node":6,
						"path":"translation"
					}
				},
				{
					"sampler":28,
					"target":{
						"node":6,
						"path":"rotation"
					}
				},
				{
					"sampler":29,
					"target":{
						"node":6,
						"path":"scale"
					}
				},
				{
					"sampler":30,
					"target":{
						"node":5,
						"path":"translation"
					}
				},
				{
					"sampler":31,
					"target":{
						"node":5,
						"path":"rotation"
					}
				},
				{
					"sampler":32,
					"target":{
						"node":5,
						"path":"scale"
					}
				},
				{
					"sampler":33,
					"target":{
						"node":12,
						"path":"translation"
					}
				},
				{
					"sampler":34,
					"target":{
						"node":12,
						"path":"rotation"
					}
				},
				{
					"sampler":35,
					"target":{
						"node":12,
						"path":"scale"
					}
				},
				{
					"sampler":36,
					"target":{
						"node":11,
						"path":"translation"
					}
				},
				{
					"sampler":37,
					"target":{
						"node":11,
						"path":"rotation"
					}
				},
				{
					"sampler":38,
					"target":{
						"node":11,
						"path":"scale"
					}
				},
				{
					"sampler":39,
					"target":{
						"node":10,
						"path":"translation"
					}
				},
				{
					"sampler":40,
					"target":{
						"node":10,
						"path":"rotation"
					}
				},
				{
					"sampler":41,
					"target":{
						"node":10,
						"path":"scale"
					}
				},
				{
					"sampler":42,
					"target":{
						"node":15,
						"path":"translation"
					}
				},
				{
					"sampler":43,
					"target":{
						"node":15,
						"path":"rotation"
					}
				},
				{
					"sampler":44,
					"target":{
						"node":15,
						"path":"scale"
					}
				},
				{
					"sampler":45,
					"target":{
						"node":14,
						"path":"translation"
					}
				},
				{
					"sampler":46,
					"target":{
						"node":14,
						"path":"rotation"
					}
				},
				{
					"sampler":47,
					"target":{
						"node":14,
						"path":"scale"
					}
				},
				{
					"sampler":48,
					"target":{
						"node":13,
						"path":"translation"
					}
				},
				{
					"sampler":49,
					"target":{
						"node":13,
						"path":"rotation"
					}
				},
				{
					"sampler":50,
					"target":{
						"node":13,
						"path":"scale"
					}
				}
			],
			"name":"walk",
			"samplers":[
				{
					"input":184,
					"interpolation":"LINEAR",
					"output":185
				},
				{
					"input":184,
					"interpolation":"LINEAR",
					"output":186
				},
				{
					"input":187,
					"interpolation":"STEP",
					"output":188
				},
				{
					"input":187,
					"interpolation":"STEP",
					"output":189
				},
				{
					"input":187,
					"interpolation":"STEP",
					"output":190
				},
				{
					"input":187,
					"interpolation":"STEP",
					"output":191
				},
				{
					"input":187,
					"interpolation":"STEP",
					"output":192
				},
				{
					"input":184,
					"interpolation":"LINEAR",
					"output":193
				},
				{
					"input":187,
					"interpolation":"STEP",
					"output":194
				},
				{
					"input":187,
					"interpolation":"STEP",
					"output":195
				},
				{
					"input":187,
					"interpolation":"STEP",
					"output":196
				},
				{
					"input":187,
					"interpolation":"STEP",
					"output":197
				},
				{
					"input":187,
					"interpolation":"STEP",
					"output":198
				},
				{
					"input":187,
					"interpolation":"STEP",
					"output":199
				},
				{
					"input":187,
					"interpolation":"STEP",
					"output":200
				},
				{
					"input":187,
					"interpolation":"STEP",
					"output":201
				},
				{
					"input":184,
					"interpolation":"LINEAR",
					"output":202
				},
				{
					"input":187,
					"interpolation":"STEP",
					"output":203
				},
				{
					"input":187,
					"interpolation":"STEP",
					"output":204
				},
				{
					"input":187,
					"interpolation":"STEP",
					"output":205
				},
				{
					"input":187,
					"interpolation":"STEP",
					"output":206
				},
				{
					"input":187,
					"interpolation":"STEP",
					"output":207
				},
				{
					"input":187,
					"interpolation":"STEP",
					"output":208
				},
				{
					"input":187,
					"interpolation":"STEP",
					"output":209
				},
				{
					"input":187,
					"interpolation":"STEP",
					"output":210
				},
				{
					"input":184,
					"interpolation":"LINEAR",
					"output":211
				},
				{
					"input":187,
					"interpolation":"STEP",
					"output":212
				},
				{
					"input":187,
					"interpolation":"STEP",
					"output":213
				},
				{
					"input":187,
					"interpolation":"STEP",
					"output":214
				},
				{
					"input":187,
					"interpolation":"STEP",
					"output":215
				},
				{
					"input":187,
					"interpolation":"STEP",
					"output":216
				},
				{
					"input":187,
					"interpolation":"STEP",
					"output":217
				},
				{
					"input":187,
					"interpolation":"STEP",
					"output":218
				},
				{
					"input":187,
					"interpolation":"STEP",
					"output":219
				},
				{
					"input":184,
					"interpolation":"LINEAR",
					"output":220
				},
				{
					"input":187,
					"interpolation":"STEP",
					"output":221
				},
				{
					"input":187,
					"interpolation":"STEP",
					"output":222
				},
				{
					"input":184,
					"interpolation":"LINEAR",
					"output":223
				},
				{
					"input":187,
					"interpolation":"STEP",
					"output":224
				},
				{
					"input":187,
					"interpolation":"STEP",
					"output":225
				},
				{
					"input":184,
					"interpolation":"LINEAR",
					"output":226
				},
				{
					"input":187,
					"interpolation":"STEP",
					"output":227
				},
				{
					"input":187,
					"interpolation":"STEP",
					"output":228
				},
				{
					"input":184,
					"interpolation":"LINEAR",
					"output":229
				},
				{
					"input":187,
					"interpolation":"STEP",
					"output":230
				},
				{
					"input":187,
					"interpolation":"STEP",
					"output":231
				},
				{
					"input":184,
					"interpolation":"LINEAR",
					"output":232
				},
				{
					"input":187,
					"interpolation":"STEP",
					"output":233
				},
				{
					"input":187,
					"interpolation":"STEP",
					"output":234
				},
				{
					"input":184,
					"interpolation":"LINEAR",
					"output":235
				},
				{
					"input":187,
					"interpolation":"STEP",
					"output":236
				}
			]
		}
	],
	"materials":[
		{
			"name":"skin",
			"normalTexture":{
				"index":0,
				"scale":0.4000000059604645
			},
			"pbrMetallicRoughness":{
				"baseColorFactor":[
					0.7874122858047485,
					0.47699978947639465,
					0.31854677200317383,
					1
				],
				"metallicFactor":0,
				"roughnessFactor":0.550000011920929
			}
		},
		{
			"extensions":{
				"KHR_materials_sheen":{
					"sheenColorFactor":[
						1.0,
						1.0,
						1.0
					],
					"sheenRoughnessFactor":0.5
				}
			},
			"name":"hair",
			"normalTexture":{
				"index":1,
				"scale":0.800000011920929
			},
			"pbrMetallicRoughness":{
				"baseColorFactor":[
					0.21404114365577698,
					0.07323895394802094,
					0.01960664801299572,
					1
				],
				"metallicFactor":0,
				"roughnessFactor":0.44999998807907104
			}
		},
		{
			"extensions":{
				"KHR_materials_sheen":{
					"sheenColorFactor":[
						1.0,
						1.0,
						1.0
					],
					"sheenRoughnessFactor":0.5
				}
			},
			"name":"outfit",
			"normalTexture":{
				"index":2,
				"scale":0.6000000238418579
			},
			"pbrMetallicRoughness":{
				"baseColorFactor":[
					0.10048151016235352,
					0.07323895394802094,
					0.13286831974983215,
					1
				],
				"metallicFactor":0,
				"roughnessFactor":0.75
			}
		},
		{
			"name":"outfit2",
			"normalTexture":{
				"index":3,
				"scale":0.4000000059604645
			},
			"pbrMetallicRoughness":{
				"baseColorFactor":[
					0.31854677200317383,
					0.21404114365577698,
					0.07323895394802094,
					1
				],
				"metallicFactor":0,
				"roughnessFactor":0.6000000238418579
			}
		},
		{
			"name":"pants",
			"normalTexture":{
				"index":4,
				"scale":0.6000000238418579
			},
			"pbrMetallicRoughness":{
				"baseColorFactor":[
					0.04889732599258423,
					0.036306485533714294,
					0.06372379511594772,
					1
				],
				"metallicFactor":0,
				"roughnessFactor":0.800000011920929
			}
		},
		{
			"extensions":{
				"KHR_materials_clearcoat":{
					"clearcoatFactor":0.30000001192092896
				}
			},
			"name":"boots",
			"normalTexture":{
				"index":5,
				"scale":0.800000011920929
			},
			"pbrMetallicRoughness":{
				"baseColorFactor":[
					0.0134117491543293,
					0.010022825561463833,
					0.010022825561463833,
					1
				],
				"metallicFactor":0,
				"roughnessFactor":0.44999998807907104
			}
		},
		{
			"name":"eye_white",
			"pbrMetallicRoughness":{
				"baseColorFactor":[
					0.8900054097175598,
					0.8900054097175598,
					0.8900054097175598,
					1
				],
				"metallicFactor":0,
				"roughnessFactor":0.20000000298023224
			}
		},
		{
			"emissiveFactor":[
				0.011763989275256348,
				0.011763989275256348,
				0.019862860485428957
			],
			"name":"iris",
			"pbrMetallicRoughness":{
				"baseColorFactor":[
					0.01960664801299572,
					0.01960664801299572,
					0.03310476616024971,
					1
				],
				"metallicFactor":0,
				"roughnessFactor":0.15000000596046448
			}
		},
		{
			"name":"pupil",
			"pbrMetallicRoughness":{
				"baseColorFactor":[
					0.0015479875728487968,
					0.0015479875728487968,
					0.0023219813592731953,
					1
				],
				"metallicFactor":0,
				"roughnessFactor":0.10000000149011612
			}
		},
		{
			"name":"lips",
			"pbrMetallicRoughness":{
				"baseColorFactor":[
					0.3546920716762543,
					0.21776217222213745,
					0.1473190039396286,
					1
				],
				"metallicFactor":0,
				"roughnessFactor":0.4000000059604645
			}
		},
		{
			"name":"buckle",
			"pbrMetallicRoughness":{
				"baseColorFactor":[
					0.6920710802078247,
					0.4479884207248688,
					0.07323895394802094,
					1
				],
				"metallicFactor":0.8999999761581421,
				"roughnessFactor":0.30000001192092896
			}
		},
		{
			"name":"blade",
			"normalTexture":{
				"index":6,
				"scale":0.30000001192092896
			},
			"pbrMetallicRoughness":{
				"baseColorFactor":[
					0.7484140992164612,
					0.7874122858047485,
					0.8900054097175598,
					1
				],
				"metallicFactor":0.550000011920929,
				"roughnessFactor":0.2199999988079071
			}
		},
		{
			"name":"handle",
			"normalTexture":{
				"index":7,
				"scale":0.6000000238418579
			},
			"pbrMetallicRoughness":{
				"baseColorFactor":[
					0.0134117491543293,
					0.007194409146904945,
					0.004896310158073902,
					1
				],
				"metallicFactor":0,
				"roughnessFactor":0.6000000238418579
			}
		}
	],
	"meshes":[
		{
			"name":"dwarf",
			"primitives":[
				{
					"attributes":{
						"POSITION":0,
						"NORMAL":1,
						"TEXCOORD_0":2,
						"JOINTS_0":3,
						"WEIGHTS_0":4
					},
					"indices":5,
					"material":0
				},
				{
					"attributes":{
						"POSITION":6,
						"NORMAL":7,
						"TEXCOORD_0":8,
						"JOINTS_0":9,
						"WEIGHTS_0":10
					},
					"indices":11,
					"material":1
				},
				{
					"attributes":{
						"POSITION":12,
						"NORMAL":13,
						"TEXCOORD_0":14,
						"JOINTS_0":15,
						"WEIGHTS_0":16
					},
					"indices":17,
					"material":2
				},
				{
					"attributes":{
						"POSITION":18,
						"NORMAL":19,
						"TEXCOORD_0":20,
						"JOINTS_0":21,
						"WEIGHTS_0":22
					},
					"indices":23,
					"material":3
				},
				{
					"attributes":{
						"POSITION":24,
						"NORMAL":25,
						"TEXCOORD_0":26,
						"JOINTS_0":27,
						"WEIGHTS_0":28
					},
					"indices":29,
					"material":4
				},
				{
					"attributes":{
						"POSITION":30,
						"NORMAL":31,
						"TEXCOORD_0":32,
						"JOINTS_0":33,
						"WEIGHTS_0":34
					},
					"indices":35,
					"material":5
				},
				{
					"attributes":{
						"POSITION":36,
						"NORMAL":37,
						"TEXCOORD_0":38,
						"JOINTS_0":39,
						"WEIGHTS_0":40
					},
					"indices":41,
					"material":6
				},
				{
					"attributes":{
						"POSITION":42,
						"NORMAL":43,
						"TEXCOORD_0":44,
						"JOINTS_0":45,
						"WEIGHTS_0":46
					},
					"indices":47,
					"material":7
				},
				{
					"attributes":{
						"POSITION":48,
						"NORMAL":49,
						"TEXCOORD_0":50,
						"JOINTS_0":51,
						"WEIGHTS_0":52
					},
					"indices":53,
					"material":8
				},
				{
					"attributes":{
						"POSITION":54,
						"NORMAL":55,
						"TEXCOORD_0":56,
						"JOINTS_0":57,
						"WEIGHTS_0":58
					},
					"indices":59,
					"material":9
				},
				{
					"attributes":{
						"POSITION":60,
						"NORMAL":61,
						"TEXCOORD_0":62,
						"JOINTS_0":63,
						"WEIGHTS_0":64
					},
					"indices":65,
					"material":10
				},
				{
					"attributes":{
						"POSITION":66,
						"NORMAL":67,
						"TEXCOORD_0":68,
						"JOINTS_0":69,
						"WEIGHTS_0":70
					},
					"indices":65,
					"material":11
				},
				{
					"attributes":{
						"POSITION":71,
						"NORMAL":72,
						"TEXCOORD_0":73,
						"JOINTS_0":74,
						"WEIGHTS_0":75
					},
					"indices":76,
					"material":12
				}
			]
		}
	],
	"textures":[
		{
			"sampler":0,
			"source":0
		},
		{
			"sampler":0,
			"source":1
		},
		{
			"sampler":0,
			"source":2
		},
		{
			"sampler":0,
			"source":2
		},
		{
			"sampler":0,
			"source":2
		},
		{
			"sampler":0,
			"source":3
		},
		{
			"sampler":0,
			"source":4
		},
		{
			"sampler":0,
			"source":3
		}
	],
	"images":[
		{
			"mimeType":"image/png",
			"name":"N_skin",
			"uri":"texturas/N_skin.png"
		},
		{
			"mimeType":"image/png",
			"name":"N_hair",
			"uri":"texturas/N_hair.png"
		},
		{
			"mimeType":"image/png",
			"name":"N_cloth",
			"uri":"texturas/N_cloth.png"
		},
		{
			"mimeType":"image/png",
			"name":"N_leather",
			"uri":"texturas/N_leather.png"
		},
		{
			"mimeType":"image/png",
			"name":"N_metal",
			"uri":"texturas/N_metal.png"
		}
	],
	"skins":[
		{
			"inverseBindMatrices":77,
			"joints":[
				16,
				9,
				8,
				1,
				0,
				4,
				3,
				2,
				7,
				6,
				5,
				12,
				11,
				10,
				15,
				14,
				13
			],
			"name":"dwarf_rig"
		}
	],
	"accessors":[
		{
			"bufferView":0,
			"componentType":5126,
			"count":1436,
			"max":[
				0.31088986992836,
				1.2844799757003784,
				0.07719304412603378
			],
			"min":[
				-0.31088986992836,
				0.564816951751709,
				-0.08357524871826172
			],
			"type":"VEC3"
		},
		{
			"bufferView":1,
			"componentType":5126,
			"count":1436,
			"type":"VEC3"
		},
		{
			"bufferView":2,
			"componentType":5126,
			"count":1436,
			"type":"VEC2"
		},
		{
			"bufferView":3,
			"componentType":5121,
			"count":1436,
			"type":"VEC4"
		},
		{
			"bufferView":4,
			"componentType":5126,
			"count":1436,
			"type":"VEC4"
		},
		{
			"bufferView":5,
			"componentType":5123,
			"count":5880,
			"type":"SCALAR"
		},
		{
			"bufferView":6,
			"componentType":5126,
			"count":3862,
			"max":[
				0.08539513498544693,
				1.3027058839797974,
				0.10056254267692566
			],
			"min":[
				-0.0841885656118393,
				1.0475255250930786,
				-0.08475139737129211
			],
			"type":"VEC3"
		},
		{
			"bufferView":7,
			"componentType":5126,
			"count":3862,
			"type":"VEC3"
		},
		{
			"bufferView":8,
			"componentType":5126,
			"count":3862,
			"type":"VEC2"
		},
		{
			"bufferView":9,
			"componentType":5121,
			"count":3862,
			"type":"VEC4"
		},
		{
			"bufferView":10,
			"componentType":5126,
			"count":3862,
			"type":"VEC4"
		},
		{
			"bufferView":11,
			"componentType":5123,
			"count":11568,
			"type":"SCALAR"
		},
		{
			"bufferView":12,
			"componentType":5126,
			"count":1091,
			"max":[
				0.3164588510990143,
				1.0614665746688843,
				0.13258378207683563
			],
			"min":[
				-0.3164588510990143,
				0.667059063911438,
				-0.13378383219242096
			],
			"type":"VEC3"
		},
		{
			"bufferView":13,
			"componentType":5126,
			"count":1091,
			"type":"VEC3"
		},
		{
			"bufferView":14,
			"componentType":5126,
			"count":1091,
			"type":"VEC2"
		},
		{
			"bufferView":15,
			"componentType":5121,
			"count":1091,
			"type":"VEC4"
		},
		{
			"bufferView":16,
			"componentType":5126,
			"count":1091,
			"type":"VEC4"
		},
		{
			"bufferView":17,
			"componentType":5123,
			"count":4872,
			"type":"SCALAR"
		},
		{
			"bufferView":18,
			"componentType":5126,
			"count":60,
			"max":[
				0.13789348304271698,
				0.7282025218009949,
				0.13629981875419617
			],
			"min":[
				-0.13789348304271698,
				0.6325123310089111,
				-0.13726606965065002
			],
			"type":"VEC3"
		},
		{
			"bufferView":19,
			"componentType":5126,
			"count":60,
			"type":"VEC3"
		},
		{
			"bufferView":20,
			"componentType":5126,
			"count":60,
			"type":"VEC2"
		},
		{
			"bufferView":21,
			"componentType":5121,
			"count":60,
			"type":"VEC4"
		},
		{
			"bufferView":22,
			"componentType":5126,
			"count":60,
			"type":"VEC4"
		},
		{
			"bufferView":23,
			"componentType":5123,
			"count":168,
			"type":"SCALAR"
		},
		{
			"bufferView":24,
			"componentType":5126,
			"count":673,
			"max":[
				0.31249329447746277,
				0.6836051940917969,
				0.1351587027311325
			],
			"min":[
				-0.3124932646751404,
				0.2100488543510437,
				-0.1362645924091339
			],
			"type":"VEC3"
		},
		{
			"bufferView":25,
			"componentType":5126,
			"count":673,
			"type":"VEC3"
		},
		{
			"bufferView":26,
			"componentType":5126,
			"count":673,
			"type":"VEC2"
		},
		{
			"bufferView":27,
			"componentType":5121,
			"count":673,
			"type":"VEC4"
		},
		{
			"bufferView":28,
			"componentType":5126,
			"count":673,
			"type":"VEC4"
		},
		{
			"bufferView":29,
			"componentType":5123,
			"count":2808,
			"type":"SCALAR"
		},
		{
			"bufferView":30,
			"componentType":5126,
			"count":874,
			"max":[
				0.15818212926387787,
				0.21519814431667328,
				0.06527072936296463
			],
			"min":[
				-0.15818215906620026,
				0.005474224220961332,
				-0.10088598728179932
			],
			"type":"VEC3"
		},
		{
			"bufferView":31,
			"componentType":5126,
			"count":874,
			"type":"VEC3"
		},
		{
			"bufferView":32,
			"componentType":5126,
			"count":874,
			"type":"VEC2"
		},
		{
			"bufferView":33,
			"componentType":5121,
			"count":874,
			"type":"VEC4"
		},
		{
			"bufferView":34,
			"componentType":5126,
			"count":874,
			"type":"VEC4"
		},
		{
			"bufferView":35,
			"componentType":5123,
			"count":3840,
			"type":"SCALAR"
		},
		{
			"bufferView":36,
			"componentType":5126,
			"count":304,
			"max":[
				0.036720000207424164,
				1.2142800092697144,
				-0.05040000379085541
			],
			"min":[
				-0.036720000207424164,
				1.1977200508117676,
				-0.06336000561714172
			],
			"type":"VEC3"
		},
		{
			"bufferView":37,
			"componentType":5126,
			"count":304,
			"type":"VEC3"
		},
		{
			"bufferView":38,
			"componentType":5126,
			"count":304,
			"type":"VEC2"
		},
		{
			"bufferView":39,
			"componentType":5121,
			"count":304,
			"type":"VEC4"
		},
		{
			"bufferView":40,
			"componentType":5126,
			"count":304,
			"type":"VEC4"
		},
		{
			"bufferView":41,
			"componentType":5123,
			"count":1152,
			"type":"SCALAR"
		},
		{
			"bufferView":42,
			"componentType":5126,
			"count":220,
			"max":[
				0.0313200019299984,
				1.2130560874938965,
				-0.05847857892513275
			],
			"min":[
				-0.0313200019299984,
				1.198944091796875,
				-0.06464143097400665
			],
			"type":"VEC3"
		},
		{
			"bufferView":43,
			"componentType":5126,
			"count":220,
			"type":"VEC3"
		},
		{
			"bufferView":44,
			"componentType":5126,
			"count":220,
			"type":"VEC2"
		},
		{
			"bufferView":45,
			"componentType":5121,
			"count":220,
			"type":"VEC4"
		},
		{
			"bufferView":46,
			"componentType":5126,
			"count":220,
			"type":"VEC4"
		},
		{
			"bufferView":47,
			"componentType":5123,
			"count":720,
			"type":"SCALAR"
		},
		{
			"bufferView":48,
			"componentType":5126,
			"count":160,
			"max":[
				0.027355995029211044,
				1.2092400789260864,
				-0.06256648153066635
			],
			"min":[
				-0.027355995029211044,
				1.202760100364685,
				-0.06530552357435226
			],
			"type":"VEC3"
		},
		{
			"bufferView":49,
			"componentType":5126,
			"count":160,
			"type":"VEC3"
		},
		{
			"bufferView":50,
			"componentType":5126,
			"count":160,
			"type":"VEC2"
		},
		{
			"bufferView":51,
			"componentType":5121,
			"count":160,
			"type":"VEC4"
		},
		{
			"bufferView":52,
			"componentType":5126,
			"count":160,
			"type":"VEC4"
		},
		{
			"bufferView":53,
			"componentType":5123,
			"count":480,
			"type":"SCALAR"
		},
		{
			"bufferView":54,
			"componentType":5126,
			"count":98,
			"max":[
				0.013679999858140945,
				1.1574000120162964,
				-0.0559585802257061
			],
			"min":[
				-0.013679999858140945,
				1.150920033454895,
				-0.0621214285492897
			],
			"type":"VEC3"
		},
		{
			"bufferView":55,
			"componentType":5126,
			"count":98,
			"type":"VEC3"
		},
		{
			"bufferView":56,
			"componentType":5126,
			"count":98,
			"type":"VEC2"
		},
		{
			"bufferView":57,
			"componentType":5121,
			"count":98,
			"type":"VEC4"
		},
		{
			"bufferView":58,
			"componentType":5126,
			"count":98,
			"type":"VEC4"
		},
		{
			"bufferView":59,
			"componentType":5123,
			"count":360,
			"type":"SCALAR"
		},
		{
			"bufferView":60,
			"componentType":5126,
			"count":24,
			"max":[
				0.018000001087784767,
				0.6984000205993652,
				-0.09504000097513199
			],
			"min":[
				-0.018000001087784767,
				0.6696000099182129,
				-0.10367999970912933
			],
			"type":"VEC3"
		},
		{
			"bufferView":61,
			"componentType":5126,
			"count":24,
			"type":"VEC3"
		},
		{
			"bufferView":62,
			"componentType":5126,
			"count":24,
			"type":"VEC2"
		},
		{
			"bufferView":63,
			"componentType":5121,
			"count":24,
			"type":"VEC4"
		},
		{
			"bufferView":64,
			"componentType":5126,
			"count":24,
			"type":"VEC4"
		},
		{
			"bufferView":65,
			"componentType":5123,
			"count":36,
			"type":"SCALAR"
		},
		{
			"bufferView":66,
			"componentType":5126,
			"count":24,
			"max":[
				0.3334464132785797,
				1.0440000295639038,
				0.06840000301599503
			],
			"min":[
				0.26144641637802124,
				0.9720000624656677,
				-0.10440000146627426
			],
			"type":"VEC3"
		},
		{
			"bufferView":67,
			"componentType":5126,
			"count":24,
			"type":"VEC3"
		},
		{
			"bufferView":68,
			"componentType":5126,
			"count":24,
			"type":"VEC2"
		},
		{
			"bufferView":69,
			"componentType":5121,
			"count":24,
			"type":"VEC4"
		},
		{
			"bufferView":70,
			"componentType":5126,
			"count":24,
			"type":"VEC4"
		},
		{
			"bufferView":71,
			"componentType":5126,
			"count":42,
			"max":[
				0.3082464039325714,
				0.9719999432563782,
				-0.007199999410659075
			],
			"min":[
				0.28664642572402954,
				0.5039999485015869,
				-0.028800001367926598
			],
			"type":"VEC3"
		},
		{
			"bufferView":72,
			"componentType":5126,
			"count":42,
			"type":"VEC3"
		},
		{
			"bufferView":73,
			"componentType":5126,
			"count":42,
			"type":"VEC2"
		},
		{
			"bufferView":74,
			"componentType":5121,
			"count":42,
			"type":"VEC4"
		},
		{
			"bufferView":75,
			"componentType":5126,
			"count":42,
			"type":"VEC4"
		},
		{
			"bufferView":76,
			"componentType":5123,
			"count":96,
			"type":"SCALAR"
		},
		{
			"bufferView":77,
			"componentType":5126,
			"count":17,
			"type":"MAT4"
		},
		{
			"bufferView":78,
			"componentType":5126,
			"count":2,
			"max":[
				0.6
			],
			"min":[
				0
			],
			"type":"SCALAR"
		},
		{
			"bufferView":79,
			"componentType":5126,
			"count":2,
			"type":"VEC3"
		},
		{
			"bufferView":80,
			"componentType":5126,
			"count":2,
			"type":"VEC4"
		},
		{
			"bufferView":81,
			"componentType":5126,
			"count":2,
			"type":"VEC3"
		},
		{
			"bufferView":82,
			"componentType":5126,
			"count":2,
			"type":"VEC3"
		},
		{
			"bufferView":83,
			"componentType":5126,
			"count":2,
			"type":"VEC4"
		},
		{
			"bufferView":84,
			"componentType":5126,
			"count":2,
			"type":"VEC3"
		},
		{
			"bufferView":85,
			"componentType":5126,
			"count":2,
			"type":"VEC3"
		},
		{
			"bufferView":86,
			"componentType":5126,
			"count":19,
			"max":[
				0.6
			],
			"min":[
				0
			],
			"type":"SCALAR"
		},
		{
			"bufferView":87,
			"componentType":5126,
			"count":19,
			"type":"VEC4"
		},
		{
			"bufferView":88,
			"componentType":5126,
			"count":2,
			"type":"VEC3"
		},
		{
			"bufferView":89,
			"componentType":5126,
			"count":2,
			"type":"VEC3"
		},
		{
			"bufferView":90,
			"componentType":5126,
			"count":2,
			"type":"VEC4"
		},
		{
			"bufferView":91,
			"componentType":5126,
			"count":2,
			"type":"VEC3"
		},
		{
			"bufferView":92,
			"componentType":5126,
			"count":2,
			"type":"VEC3"
		},
		{
			"bufferView":93,
			"componentType":5126,
			"count":2,
			"type":"VEC4"
		},
		{
			"bufferView":94,
			"componentType":5126,
			"count":2,
			"type":"VEC3"
		},
		{
			"bufferView":95,
			"componentType":5126,
			"count":2,
			"type":"VEC3"
		},
		{
			"bufferView":96,
			"componentType":5126,
			"count":19,
			"type":"VEC4"
		},
		{
			"bufferView":97,
			"componentType":5126,
			"count":2,
			"type":"VEC3"
		},
		{
			"bufferView":98,
			"componentType":5126,
			"count":2,
			"type":"VEC3"
		},
		{
			"bufferView":99,
			"componentType":5126,
			"count":19,
			"type":"VEC4"
		},
		{
			"bufferView":100,
			"componentType":5126,
			"count":2,
			"type":"VEC3"
		},
		{
			"bufferView":101,
			"componentType":5126,
			"count":2,
			"type":"VEC3"
		},
		{
			"bufferView":102,
			"componentType":5126,
			"count":2,
			"type":"VEC4"
		},
		{
			"bufferView":103,
			"componentType":5126,
			"count":2,
			"type":"VEC3"
		},
		{
			"bufferView":104,
			"componentType":5126,
			"count":2,
			"type":"VEC3"
		},
		{
			"bufferView":105,
			"componentType":5126,
			"count":19,
			"type":"VEC4"
		},
		{
			"bufferView":106,
			"componentType":5126,
			"count":2,
			"type":"VEC3"
		},
		{
			"bufferView":107,
			"componentType":5126,
			"count":2,
			"type":"VEC3"
		},
		{
			"bufferView":108,
			"componentType":5126,
			"count":2,
			"type":"VEC4"
		},
		{
			"bufferView":109,
			"componentType":5126,
			"count":2,
			"type":"VEC3"
		},
		{
			"bufferView":110,
			"componentType":5126,
			"count":2,
			"type":"VEC3"
		},
		{
			"bufferView":111,
			"componentType":5126,
			"count":2,
			"type":"VEC4"
		},
		{
			"bufferView":112,
			"componentType":5126,
			"count":2,
			"type":"VEC3"
		},
		{
			"bufferView":113,
			"componentType":5126,
			"count":2,
			"type":"VEC3"
		},
		{
			"bufferView":114,
			"componentType":5126,
			"count":19,
			"type":"VEC4"
		},
		{
			"bufferView":115,
			"componentType":5126,
			"count":2,
			"type":"VEC3"
		},
		{
			"bufferView":116,
			"componentType":5126,
			"count":2,
			"type":"VEC3"
		},
		{
			"bufferView":117,
			"componentType":5126,
			"count":2,
			"type":"VEC4"
		},
		{
			"bufferView":118,
			"componentType":5126,
			"count":2,
			"type":"VEC3"
		},
		{
			"bufferView":119,
			"componentType":5126,
			"count":2,
			"type":"VEC3"
		},
		{
			"bufferView":120,
			"componentType":5126,
			"count":2,
			"type":"VEC4"
		},
		{
			"bufferView":121,
			"componentType":5126,
			"count":2,
			"type":"VEC3"
		},
		{
			"bufferView":122,
			"componentType":5126,
			"count":2,
			"type":"VEC3"
		},
		{
			"bufferView":123,
			"componentType":5126,
			"count":19,
			"type":"VEC4"
		},
		{
			"bufferView":124,
			"componentType":5126,
			"count":2,
			"type":"VEC3"
		},
		{
			"bufferView":125,
			"componentType":5126,
			"count":2,
			"type":"VEC3"
		},
		{
			"bufferView":126,
			"componentType":5126,
			"count":2,
			"type":"VEC4"
		},
		{
			"bufferView":127,
			"componentType":5126,
			"count":2,
			"type":"VEC3"
		},
		{
			"bufferView":128,
			"componentType":5126,
			"count":2,
			"type":"VEC3"
		},
		{
			"bufferView":129,
			"componentType":5126,
			"count":2,
			"type":"VEC4"
		},
		{
			"bufferView":130,
			"componentType":5126,
			"count":2,
			"type":"VEC3"
		},
		{
			"bufferView":131,
			"componentType":5126,
			"count":61,
			"max":[
				2
			],
			"min":[
				0
			],
			"type":"SCALAR"
		},
		{
			"bufferView":132,
			"componentType":5126,
			"count":61,
			"type":"VEC3"
		},
		{
			"bufferView":133,
			"componentType":5126,
			"count":2,
			"max":[
				2
			],
			"min":[
				0
			],
			"type":"SCALAR"
		},
		{
			"bufferView":134,
			"componentType":5126,
			"count":2,
			"type":"VEC4"
		},
		{
			"bufferView":135,
			"componentType":5126,
			"count":2,
			"type":"VEC3"
		},
		{
			"bufferView":136,
			"componentType":5126,
			"count":2,
			"type":"VEC3"
		},
		{
			"bufferView":137,
			"componentType":5126,
			"count":2,
			"type":"VEC4"
		},
		{
			"bufferView":138,
			"componentType":5126,
			"count":2,
			"type":"VEC3"
		},
		{
			"bufferView":139,
			"componentType":5126,
			"count":2,
			"type":"VEC3"
		},
		{
			"bufferView":140,
			"componentType":5126,
			"count":61,
			"type":"VEC4"
		},
		{
			"bufferView":141,
			"componentType":5126,
			"count":2,
			"type":"VEC3"
		},
		{
			"bufferView":142,
			"componentType":5126,
			"count":2,
			"type":"VEC3"
		},
		{
			"bufferView":143,
			"componentType":5126,
			"count":2,
			"type":"VEC4"
		},
		{
			"bufferView":144,
			"componentType":5126,
			"count":2,
			"type":"VEC3"
		},
		{
			"bufferView":145,
			"componentType":5126,
			"count":2,
			"type":"VEC3"
		},
		{
			"bufferView":146,
			"componentType":5126,
			"count":61,
			"type":"VEC4"
		},
		{
			"bufferView":147,
			"componentType":5126,
			"count":2,
			"type":"VEC3"
		},
		{
			"bufferView":148,
			"componentType":5126,
			"count":2,
			"type":"VEC3"
		},
		{
			"bufferView":149,
			"componentType":5126,
			"count":61,
			"type":"VEC4"
		},
		{
			"bufferView":150,
			"componentType":5126,
			"count":2,
			"type":"VEC3"
		},
		{
			"bufferView":151,
			"componentType":5126,
			"count":2,
			"type":"VEC3"
		},
		{
			"bufferView":152,
			"componentType":5126,
			"count":2,
			"type":"VEC4"
		},
		{
			"bufferView":153,
			"componentType":5126,
			"count":2,
			"type":"VEC3"
		},
		{
			"bufferView":154,
			"componentType":5126,
			"count":2,
			"type":"VEC3"
		},
		{
			"bufferView":155,
			"componentType":5126,
			"count":2,
			"type":"VEC4"
		},
		{
			"bufferView":156,
			"componentType":5126,
			"count":2,
			"type":"VEC3"
		},
		{
			"bufferView":157,
			"componentType":5126,
			"count":2,
			"type":"VEC3"
		},
		{
			"bufferView":158,
			"componentType":5126,
			"count":61,
			"type":"VEC4"
		},
		{
			"bufferView":159,
			"componentType":5126,
			"count":2,
			"type":"VEC3"
		},
		{
			"bufferView":160,
			"componentType":5126,
			"count":2,
			"type":"VEC3"
		},
		{
			"bufferView":161,
			"componentType":5126,
			"count":2,
			"type":"VEC4"
		},
		{
			"bufferView":162,
			"componentType":5126,
			"count":2,
			"type":"VEC3"
		},
		{
			"bufferView":163,
			"componentType":5126,
			"count":2,
			"type":"VEC3"
		},
		{
			"bufferView":164,
			"componentType":5126,
			"count":2,
			"type":"VEC4"
		},
		{
			"bufferView":165,
			"componentType":5126,
			"count":2,
			"type":"VEC3"
		},
		{
			"bufferView":166,
			"componentType":5126,
			"count":2,
			"type":"VEC3"
		},
		{
			"bufferView":167,
			"componentType":5126,
			"count":2,
			"type":"VEC4"
		},
		{
			"bufferView":168,
			"componentType":5126,
			"count":2,
			"type":"VEC3"
		},
		{
			"bufferView":169,
			"componentType":5126,
			"count":2,
			"type":"VEC3"
		},
		{
			"bufferView":170,
			"componentType":5126,
			"count":2,
			"type":"VEC4"
		},
		{
			"bufferView":171,
			"componentType":5126,
			"count":2,
			"type":"VEC3"
		},
		{
			"bufferView":172,
			"componentType":5126,
			"count":2,
			"type":"VEC3"
		},
		{
			"bufferView":173,
			"componentType":5126,
			"count":2,
			"type":"VEC4"
		},
		{
			"bufferView":174,
			"componentType":5126,
			"count":2,
			"type":"VEC3"
		},
		{
			"bufferView":175,
			"componentType":5126,
			"count":2,
			"type":"VEC3"
		},
		{
			"bufferView":176,
			"componentType":5126,
			"count":2,
			"type":"VEC4"
		},
		{
			"bufferView":177,
			"componentType":5126,
			"count":2,
			"type":"VEC3"
		},
		{
			"bufferView":178,
			"componentType":5126,
			"count":2,
			"type":"VEC3"
		},
		{
			"bufferView":179,
			"componentType":5126,
			"count":2,
			"type":"VEC4"
		},
		{
			"bufferView":180,
			"componentType":5126,
			"count":2,
			"type":"VEC3"
		},
		{
			"bufferView":181,
			"componentType":5126,
			"count":2,
			"type":"VEC3"
		},
		{
			"bufferView":182,
			"componentType":5126,
			"count":2,
			"type":"VEC4"
		},
		{
			"bufferView":183,
			"componentType":5126,
			"count":2,
			"type":"VEC3"
		},
		{
			"bufferView":184,
			"componentType":5126,
			"count":31,
			"max":[
				1
			],
			"min":[
				0
			],
			"type":"SCALAR"
		},
		{
			"bufferView":185,
			"componentType":5126,
			"count":31,
			"type":"VEC3"
		},
		{
			"bufferView":186,
			"componentType":5126,
			"count":31,
			"type":"VEC4"
		},
		{
			"bufferView":187,
			"componentType":5126,
			"count":2,
			"max":[
				1
			],
			"min":[
				0
			],
			"type":"SCALAR"
		},
		{
			"bufferView":188,
			"componentType":5126,
			"count":2,
			"type":"VEC3"
		},
		{
			"bufferView":189,
			"componentType":5126,
			"count":2,
			"type":"VEC3"
		},
		{
			"bufferView":190,
			"componentType":5126,
			"count":2,
			"type":"VEC4"
		},
		{
			"bufferView":191,
			"componentType":5126,
			"count":2,
			"type":"VEC3"
		},
		{
			"bufferView":192,
			"componentType":5126,
			"count":2,
			"type":"VEC3"
		},
		{
			"bufferView":193,
			"componentType":5126,
			"count":31,
			"type":"VEC4"
		},
		{
			"bufferView":194,
			"componentType":5126,
			"count":2,
			"type":"VEC3"
		},
		{
			"bufferView":195,
			"componentType":5126,
			"count":2,
			"type":"VEC3"
		},
		{
			"bufferView":196,
			"componentType":5126,
			"count":2,
			"type":"VEC4"
		},
		{
			"bufferView":197,
			"componentType":5126,
			"count":2,
			"type":"VEC3"
		},
		{
			"bufferView":198,
			"componentType":5126,
			"count":2,
			"type":"VEC3"
		},
		{
			"bufferView":199,
			"componentType":5126,
			"count":2,
			"type":"VEC4"
		},
		{
			"bufferView":200,
			"componentType":5126,
			"count":2,
			"type":"VEC3"
		},
		{
			"bufferView":201,
			"componentType":5126,
			"count":2,
			"type":"VEC3"
		},
		{
			"bufferView":202,
			"componentType":5126,
			"count":31,
			"type":"VEC4"
		},
		{
			"bufferView":203,
			"componentType":5126,
			"count":2,
			"type":"VEC3"
		},
		{
			"bufferView":204,
			"componentType":5126,
			"count":2,
			"type":"VEC3"
		},
		{
			"bufferView":205,
			"componentType":5126,
			"count":2,
			"type":"VEC4"
		},
		{
			"bufferView":206,
			"componentType":5126,
			"count":2,
			"type":"VEC3"
		},
		{
			"bufferView":207,
			"componentType":5126,
			"count":2,
			"type":"VEC3"
		},
		{
			"bufferView":208,
			"componentType":5126,
			"count":2,
			"type":"VEC4"
		},
		{
			"bufferView":209,
			"componentType":5126,
			"count":2,
			"type":"VEC3"
		},
		{
			"bufferView":210,
			"componentType":5126,
			"count":2,
			"type":"VEC3"
		},
		{
			"bufferView":211,
			"componentType":5126,
			"count":31,
			"type":"VEC4"
		},
		{
			"bufferView":212,
			"componentType":5126,
			"count":2,
			"type":"VEC3"
		},
		{
			"bufferView":213,
			"componentType":5126,
			"count":2,
			"type":"VEC3"
		},
		{
			"bufferView":214,
			"componentType":5126,
			"count":2,
			"type":"VEC4"
		},
		{
			"bufferView":215,
			"componentType":5126,
			"count":2,
			"type":"VEC3"
		},
		{
			"bufferView":216,
			"componentType":5126,
			"count":2,
			"type":"VEC3"
		},
		{
			"bufferView":217,
			"componentType":5126,
			"count":2,
			"type":"VEC4"
		},
		{
			"bufferView":218,
			"componentType":5126,
			"count":2,
			"type":"VEC3"
		},
		{
			"bufferView":219,
			"componentType":5126,
			"count":2,
			"type":"VEC3"
		},
		{
			"bufferView":220,
			"componentType":5126,
			"count":31,
			"type":"VEC4"
		},
		{
			"bufferView":221,
			"componentType":5126,
			"count":2,
			"type":"VEC3"
		},
		{
			"bufferView":222,
			"componentType":5126,
			"count":2,
			"type":"VEC3"
		},
		{
			"bufferView":223,
			"componentType":5126,
			"count":31,
			"type":"VEC4"
		},
		{
			"bufferView":224,
			"componentType":5126,
			"count":2,
			"type":"VEC3"
		},
		{
			"bufferView":225,
			"componentType":5126,
			"count":2,
			"type":"VEC3"
		},
		{
			"bufferView":226,
			"componentType":5126,
			"count":31,
			"type":"VEC4"
		},
		{
			"bufferView":227,
			"componentType":5126,
			"count":2,
			"type":"VEC3"
		},
		{
			"bufferView":228,
			"componentType":5126,
			"count":2,
			"type":"VEC3"
		},
		{
			"bufferView":229,
			"componentType":5126,
			"count":31,
			"type":"VEC4"
		},
		{
			"bufferView":230,
			"componentType":5126,
			"count":2,
			"type":"VEC3"
		},
		{
			"bufferView":231,
			"componentType":5126,
			"count":2,
			"type":"VEC3"
		},
		{
			"bufferView":232,
			"componentType":5126,
			"count":31,
			"type":"VEC4"
		},
		{
			"bufferView":233,
			"componentType":5126,
			"count":2,
			"type":"VEC3"
		},
		{
			"bufferView":234,
			"componentType":5126,
			"count":2,
			"type":"VEC3"
		},
		{
			"bufferView":235,
			"componentType":5126,
			"count":31,
			"type":"VEC4"
		},
		{
			"bufferView":236,
			"componentType":5126,
			"count":2,
			"type":"VEC3"
		}
	],
	"bufferViews":[
		{
			"buffer":0,
			"byteLength":17232,
			"byteOffset":0,
			"target":34962
		},
		{
			"buffer":0,
			"byteLength":17232,
			"byteOffset":17232,
			"target":34962
		},
		{
			"buffer":0,
			"byteLength":11488,
			"byteOffset":34464,
			"target":34962
		},
		{
			"buffer":0,
			"byteLength":5744,
			"byteOffset":45952,
			"target":34962
		},
		{
			"buffer":0,
			"byteLength":22976,
			"byteOffset":51696,
			"target":34962
		},
		{
			"buffer":0,
			"byteLength":11760,
			"byteOffset":74672,
			"target":34963
		},
		{
			"buffer":0,
			"byteLength":46344,
			"byteOffset":86432,
			"target":34962
		},
		{
			"buffer":0,
			"byteLength":46344,
			"byteOffset":132776,
			"target":34962
		},
		{
			"buffer":0,
			"byteLength":30896,
			"byteOffset":179120,
			"target":34962
		},
		{
			"buffer":0,
			"byteLength":15448,
			"byteOffset":210016,
			"target":34962
		},
		{
			"buffer":0,
			"byteLength":61792,
			"byteOffset":225464,
			"target":34962
		},
		{
			"buffer":0,
			"byteLength":23136,
			"byteOffset":287256,
			"target":34963
		},
		{
			"buffer":0,
			"byteLength":13092,
			"byteOffset":310392,
			"target":34962
		},
		{
			"buffer":0,
			"byteLength":13092,
			"byteOffset":323484,
			"target":34962
		},
		{
			"buffer":0,
			"byteLength":8728,
			"byteOffset":336576,
			"target":34962
		},
		{
			"buffer":0,
			"byteLength":4364,
			"byteOffset":345304,
			"target":34962
		},
		{
			"buffer":0,
			"byteLength":17456,
			"byteOffset":349668,
			"target":34962
		},
		{
			"buffer":0,
			"byteLength":9744,
			"byteOffset":367124,
			"target":34963
		},
		{
			"buffer":0,
			"byteLength":720,
			"byteOffset":376868,
			"target":34962
		},
		{
			"buffer":0,
			"byteLength":720,
			"byteOffset":377588,
			"target":34962
		},
		{
			"buffer":0,
			"byteLength":480,
			"byteOffset":378308,
			"target":34962
		},
		{
			"buffer":0,
			"byteLength":240,
			"byteOffset":378788,
			"target":34962
		},
		{
			"buffer":0,
			"byteLength":960,
			"byteOffset":379028,
			"target":34962
		},
		{
			"buffer":0,
			"byteLength":336,
			"byteOffset":379988,
			"target":34963
		},
		{
			"buffer":0,
			"byteLength":8076,
			"byteOffset":380324,
			"target":34962
		},
		{
			"buffer":0,
			"byteLength":8076,
			"byteOffset":388400,
			"target":34962
		},
		{
			"buffer":0,
			"byteLength":5384,
			"byteOffset":396476,
			"target":34962
		},
		{
			"buffer":0,
			"byteLength":2692,
			"byteOffset":401860,
			"target":34962
		},
		{
			"buffer":0,
			"byteLength":10768,
			"byteOffset":404552,
			"target":34962
		},
		{
			"buffer":0,
			"byteLength":5616,
			"byteOffset":415320,
			"target":34963
		},
		{
			"buffer":0,
			"byteLength":10488,
			"byteOffset":420936,
			"target":34962
		},
		{
			"buffer":0,
			"byteLength":10488,
			"byteOffset":431424,
			"target":34962
		},
		{
			"buffer":0,
			"byteLength":6992,
			"byteOffset":441912,
			"target":34962
		},
		{
			"buffer":0,
			"byteLength":3496,
			"byteOffset":448904,
			"target":34962
		},
		{
			"buffer":0,
			"byteLength":13984,
			"byteOffset":452400,
			"target":34962
		},
		{
			"buffer":0,
			"byteLength":7680,
			"byteOffset":466384,
			"target":34963
		},
		{
			"buffer":0,
			"byteLength":3648,
			"byteOffset":474064,
			"target":34962
		},
		{
			"buffer":0,
			"byteLength":3648,
			"byteOffset":477712,
			"target":34962
		},
		{
			"buffer":0,
			"byteLength":2432,
			"byteOffset":481360,
			"target":34962
		},
		{
			"buffer":0,
			"byteLength":1216,
			"byteOffset":483792,
			"target":34962
		},
		{
			"buffer":0,
			"byteLength":4864,
			"byteOffset":485008,
			"target":34962
		},
		{
			"buffer":0,
			"byteLength":2304,
			"byteOffset":489872,
			"target":34963
		},
		{
			"buffer":0,
			"byteLength":2640,
			"byteOffset":492176,
			"target":34962
		},
		{
			"buffer":0,
			"byteLength":2640,
			"byteOffset":494816,
			"target":34962
		},
		{
			"buffer":0,
			"byteLength":1760,
			"byteOffset":497456,
			"target":34962
		},
		{
			"buffer":0,
			"byteLength":880,
			"byteOffset":499216,
			"target":34962
		},
		{
			"buffer":0,
			"byteLength":3520,
			"byteOffset":500096,
			"target":34962
		},
		{
			"buffer":0,
			"byteLength":1440,
			"byteOffset":503616,
			"target":34963
		},
		{
			"buffer":0,
			"byteLength":1920,
			"byteOffset":505056,
			"target":34962
		},
		{
			"buffer":0,
			"byteLength":1920,
			"byteOffset":506976,
			"target":34962
		},
		{
			"buffer":0,
			"byteLength":1280,
			"byteOffset":508896,
			"target":34962
		},
		{
			"buffer":0,
			"byteLength":640,
			"byteOffset":510176,
			"target":34962
		},
		{
			"buffer":0,
			"byteLength":2560,
			"byteOffset":510816,
			"target":34962
		},
		{
			"buffer":0,
			"byteLength":960,
			"byteOffset":513376,
			"target":34963
		},
		{
			"buffer":0,
			"byteLength":1176,
			"byteOffset":514336,
			"target":34962
		},
		{
			"buffer":0,
			"byteLength":1176,
			"byteOffset":515512,
			"target":34962
		},
		{
			"buffer":0,
			"byteLength":784,
			"byteOffset":516688,
			"target":34962
		},
		{
			"buffer":0,
			"byteLength":392,
			"byteOffset":517472,
			"target":34962
		},
		{
			"buffer":0,
			"byteLength":1568,
			"byteOffset":517864,
			"target":34962
		},
		{
			"buffer":0,
			"byteLength":720,
			"byteOffset":519432,
			"target":34963
		},
		{
			"buffer":0,
			"byteLength":288,
			"byteOffset":520152,
			"target":34962
		},
		{
			"buffer":0,
			"byteLength":288,
			"byteOffset":520440,
			"target":34962
		},
		{
			"buffer":0,
			"byteLength":192,
			"byteOffset":520728,
			"target":34962
		},
		{
			"buffer":0,
			"byteLength":96,
			"byteOffset":520920,
			"target":34962
		},
		{
			"buffer":0,
			"byteLength":384,
			"byteOffset":521016,
			"target":34962
		},
		{
			"buffer":0,
			"byteLength":72,
			"byteOffset":521400,
			"target":34963
		},
		{
			"buffer":0,
			"byteLength":288,
			"byteOffset":521472,
			"target":34962
		},
		{
			"buffer":0,
			"byteLength":288,
			"byteOffset":521760,
			"target":34962
		},
		{
			"buffer":0,
			"byteLength":192,
			"byteOffset":522048,
			"target":34962
		},
		{
			"buffer":0,
			"byteLength":96,
			"byteOffset":522240,
			"target":34962
		},
		{
			"buffer":0,
			"byteLength":384,
			"byteOffset":522336,
			"target":34962
		},
		{
			"buffer":0,
			"byteLength":504,
			"byteOffset":522720,
			"target":34962
		},
		{
			"buffer":0,
			"byteLength":504,
			"byteOffset":523224,
			"target":34962
		},
		{
			"buffer":0,
			"byteLength":336,
			"byteOffset":523728,
			"target":34962
		},
		{
			"buffer":0,
			"byteLength":168,
			"byteOffset":524064,
			"target":34962
		},
		{
			"buffer":0,
			"byteLength":672,
			"byteOffset":524232,
			"target":34962
		},
		{
			"buffer":0,
			"byteLength":192,
			"byteOffset":524904,
			"target":34963
		},
		{
			"buffer":0,
			"byteLength":1088,
			"byteOffset":525096
		},
		{
			"buffer":0,
			"byteLength":8,
			"byteOffset":526184
		},
		{
			"buffer":0,
			"byteLength":24,
			"byteOffset":526192
		},
		{
			"buffer":0,
			"byteLength":32,
			"byteOffset":526216
		},
		{
			"buffer":0,
			"byteLength":24,
			"byteOffset":526248
		},
		{
			"buffer":0,
			"byteLength":24,
			"byteOffset":526272
		},
		{
			"buffer":0,
			"byteLength":32,
			"byteOffset":526296
		},
		{
			"buffer":0,
			"byteLength":24,
			"byteOffset":526328
		},
		{
			"buffer":0,
			"byteLength":24,
			"byteOffset":526352
		},
		{
			"buffer":0,
			"byteLength":76,
			"byteOffset":526376
		},
		{
			"buffer":0,
			"byteLength":304,
			"byteOffset":526452
		},
		{
			"buffer":0,
			"byteLength":24,
			"byteOffset":526756
		},
		{
			"buffer":0,
			"byteLength":24,
			"byteOffset":526780
		},
		{
			"buffer":0,
			"byteLength":32,
			"byteOffset":526804
		},
		{
			"buffer":0,
			"byteLength":24,
			"byteOffset":526836
		},
		{
			"buffer":0,
			"byteLength":24,
			"byteOffset":526860
		},
		{
			"buffer":0,
			"byteLength":32,
			"byteOffset":526884
		},
		{
			"buffer":0,
			"byteLength":24,
			"byteOffset":526916
		},
		{
			"buffer":0,
			"byteLength":24,
			"byteOffset":526940
		},
		{
			"buffer":0,
			"byteLength":304,
			"byteOffset":526964
		},
		{
			"buffer":0,
			"byteLength":24,
			"byteOffset":527268
		},
		{
			"buffer":0,
			"byteLength":24,
			"byteOffset":527292
		},
		{
			"buffer":0,
			"byteLength":304,
			"byteOffset":527316
		},
		{
			"buffer":0,
			"byteLength":24,
			"byteOffset":527620
		},
		{
			"buffer":0,
			"byteLength":24,
			"byteOffset":527644
		},
		{
			"buffer":0,
			"byteLength":32,
			"byteOffset":527668
		},
		{
			"buffer":0,
			"byteLength":24,
			"byteOffset":527700
		},
		{
			"buffer":0,
			"byteLength":24,
			"byteOffset":527724
		},
		{
			"buffer":0,
			"byteLength":304,
			"byteOffset":527748
		},
		{
			"buffer":0,
			"byteLength":24,
			"byteOffset":528052
		},
		{
			"buffer":0,
			"byteLength":24,
			"byteOffset":528076
		},
		{
			"buffer":0,
			"byteLength":32,
			"byteOffset":528100
		},
		{
			"buffer":0,
			"byteLength":24,
			"byteOffset":528132
		},
		{
			"buffer":0,
			"byteLength":24,
			"byteOffset":528156
		},
		{
			"buffer":0,
			"byteLength":32,
			"byteOffset":528180
		},
		{
			"buffer":0,
			"byteLength":24,
			"byteOffset":528212
		},
		{
			"buffer":0,
			"byteLength":24,
			"byteOffset":528236
		},
		{
			"buffer":0,
			"byteLength":304,
			"byteOffset":528260
		},
		{
			"buffer":0,
			"byteLength":24,
			"byteOffset":528564
		},
		{
			"buffer":0,
			"byteLength":24,
			"byteOffset":528588
		},
		{
			"buffer":0,
			"byteLength":32,
			"byteOffset":528612
		},
		{
			"buffer":0,
			"byteLength":24,
			"byteOffset":528644
		},
		{
			"buffer":0,
			"byteLength":24,
			"byteOffset":528668
		},
		{
			"buffer":0,
			"byteLength":32,
			"byteOffset":528692
		},
		{
			"buffer":0,
			"byteLength":24,
			"byteOffset":528724
		},
		{
			"buffer":0,
			"byteLength":24,
			"byteOffset":528748
		},
		{
			"buffer":0,
			"byteLength":304,
			"byteOffset":528772
		},
		{
			"buffer":0,
			"byteLength":24,
			"byteOffset":529076
		},
		{
			"buffer":0,
			"byteLength":24,
			"byteOffset":529100
		},
		{
			"buffer":0,
			"byteLength":32,
			"byteOffset":529124
		},
		{
			"buffer":0,
			"byteLength":24,
			"byteOffset":529156
		},
		{
			"buffer":0,
			"byteLength":24,
			"byteOffset":529180
		},
		{
			"buffer":0,
			"byteLength":32,
			"byteOffset":529204
		},
		{
			"buffer":0,
			"byteLength":24,
			"byteOffset":529236
		},
		{
			"buffer":0,
			"byteLength":244,
			"byteOffset":529260
		},
		{
			"buffer":0,
			"byteLength":732,
			"byteOffset":529504
		},
		{
			"buffer":0,
			"byteLength":8,
			"byteOffset":530236
		},
		{
			"buffer":0,
			"byteLength":32,
			"byteOffset":530244
		},
		{
			"buffer":0,
			"byteLength":24,
			"byteOffset":530276
		},
		{
			"buffer":0,
			"byteLength":24,
			"byteOffset":530300
		},
		{
			"buffer":0,
			"byteLength":32,
			"byteOffset":530324
		},
		{
			"buffer":0,
			"byteLength":24,
			"byteOffset":530356
		},
		{
			"buffer":0,
			"byteLength":24,
			"byteOffset":530380
		},
		{
			"buffer":0,
			"byteLength":976,
			"byteOffset":530404
		},
		{
			"buffer":0,
			"byteLength":24,
			"byteOffset":531380
		},
		{
			"buffer":0,
			"byteLength":24,
			"byteOffset":531404
		},
		{
			"buffer":0,
			"byteLength":32,
			"byteOffset":531428
		},
		{
			"buffer":0,
			"byteLength":24,
			"byteOffset":531460
		},
		{
			"buffer":0,
			"byteLength":24,
			"byteOffset":531484
		},
		{
			"buffer":0,
			"byteLength":976,
			"byteOffset":531508
		},
		{
			"buffer":0,
			"byteLength":24,
			"byteOffset":532484
		},
		{
			"buffer":0,
			"byteLength":24,
			"byteOffset":532508
		},
		{
			"buffer":0,
			"byteLength":976,
			"byteOffset":532532
		},
		{
			"buffer":0,
			"byteLength":24,
			"byteOffset":533508
		},
		{
			"buffer":0,
			"byteLength":24,
			"byteOffset":533532
		},
		{
			"buffer":0,
			"byteLength":32,
			"byteOffset":533556
		},
		{
			"buffer":0,
			"byteLength":24,
			"byteOffset":533588
		},
		{
			"buffer":0,
			"byteLength":24,
			"byteOffset":533612
		},
		{
			"buffer":0,
			"byteLength":32,
			"byteOffset":533636
		},
		{
			"buffer":0,
			"byteLength":24,
			"byteOffset":533668
		},
		{
			"buffer":0,
			"byteLength":24,
			"byteOffset":533692
		},
		{
			"buffer":0,
			"byteLength":976,
			"byteOffset":533716
		},
		{
			"buffer":0,
			"byteLength":24,
			"byteOffset":534692
		},
		{
			"buffer":0,
			"byteLength":24,
			"byteOffset":534716
		},
		{
			"buffer":0,
			"byteLength":32,
			"byteOffset":534740
		},
		{
			"buffer":0,
			"byteLength":24,
			"byteOffset":534772
		},
		{
			"buffer":0,
			"byteLength":24,
			"byteOffset":534796
		},
		{
			"buffer":0,
			"byteLength":32,
			"byteOffset":534820
		},
		{
			"buffer":0,
			"byteLength":24,
			"byteOffset":534852
		},
		{
			"buffer":0,
			"byteLength":24,
			"byteOffset":534876
		},
		{
			"buffer":0,
			"byteLength":32,
			"byteOffset":534900
		},
		{
			"buffer":0,
			"byteLength":24,
			"byteOffset":534932
		},
		{
			"buffer":0,
			"byteLength":24,
			"byteOffset":534956
		},
		{
			"buffer":0,
			"byteLength":32,
			"byteOffset":534980
		},
		{
			"buffer":0,
			"byteLength":24,
			"byteOffset":535012
		},
		{
			"buffer":0,
			"byteLength":24,
			"byteOffset":535036
		},
		{
			"buffer":0,
			"byteLength":32,
			"byteOffset":535060
		},
		{
			"buffer":0,
			"byteLength":24,
			"byteOffset":535092
		},
		{
			"buffer":0,
			"byteLength":24,
			"byteOffset":535116
		},
		{
			"buffer":0,
			"byteLength":32,
			"byteOffset":535140
		},
		{
			"buffer":0,
			"byteLength":24,
			"byteOffset":535172
		},
		{
			"buffer":0,
			"byteLength":24,
			"byteOffset":535196
		},
		{
			"buffer":0,
			"byteLength":32,
			"byteOffset":535220
		},
		{
			"buffer":0,
			"byteLength":24,
			"byteOffset":535252
		},
		{
			"buffer":0,
			"byteLength":24,
			"byteOffset":535276
		},
		{
			"buffer":0,
			"byteLength":32,
			"byteOffset":535300
		},
		{
			"buffer":0,
			"byteLength":24,
			"byteOffset":535332
		},
		{
			"buffer":0,
			"byteLength":124,
			"byteOffset":535356
		},
		{
			"buffer":0,
			"byteLength":372,
			"byteOffset":535480
		},
		{
			"buffer":0,
			"byteLength":496,
			"byteOffset":535852
		},
		{
			"buffer":0,
			"byteLength":8,
			"byteOffset":536348
		},
		{
			"buffer":0,
			"byteLength":24,
			"byteOffset":536356
		},
		{
			"buffer":0,
			"byteLength":24,
			"byteOffset":536380
		},
		{
			"buffer":0,
			"byteLength":32,
			"byteOffset":536404
		},
		{
			"buffer":0,
			"byteLength":24,
			"byteOffset":536436
		},
		{
			"buffer":0,
			"byteLength":24,
			"byteOffset":536460
		},
		{
			"buffer":0,
			"byteLength":496,
			"byteOffset":536484
		},
		{
			"buffer":0,
			"byteLength":24,
			"byteOffset":536980
		},
		{
			"buffer":0,
			"byteLength":24,
			"byteOffset":537004
		},
		{
			"buffer":0,
			"byteLength":32,
			"byteOffset":537028
		},
		{
			"buffer":0,
			"byteLength":24,
			"byteOffset":537060
		},
		{
			"buffer":0,
			"byteLength":24,
			"byteOffset":537084
		},
		{
			"buffer":0,
			"byteLength":32,
			"byteOffset":537108
		},
		{
			"buffer":0,
			"byteLength":24,
			"byteOffset":537140
		},
		{
			"buffer":0,
			"byteLength":24,
			"byteOffset":537164
		},
		{
			"buffer":0,
			"byteLength":496,
			"byteOffset":537188
		},
		{
			"buffer":0,
			"byteLength":24,
			"byteOffset":537684
		},
		{
			"buffer":0,
			"byteLength":24,
			"byteOffset":537708
		},
		{
			"buffer":0,
			"byteLength":32,
			"byteOffset":537732
		},
		{
			"buffer":0,
			"byteLength":24,
			"byteOffset":537764
		},
		{
			"buffer":0,
			"byteLength":24,
			"byteOffset":537788
		},
		{
			"buffer":0,
			"byteLength":32,
			"byteOffset":537812
		},
		{
			"buffer":0,
			"byteLength":24,
			"byteOffset":537844
		},
		{
			"buffer":0,
			"byteLength":24,
			"byteOffset":537868
		},
		{
			"buffer":0,
			"byteLength":496,
			"byteOffset":537892
		},
		{
			"buffer":0,
			"byteLength":24,
			"byteOffset":538388
		},
		{
			"buffer":0,
			"byteLength":24,
			"byteOffset":538412
		},
		{
			"buffer":0,
			"byteLength":32,
			"byteOffset":538436
		},
		{
			"buffer":0,
			"byteLength":24,
			"byteOffset":538468
		},
		{
			"buffer":0,
			"byteLength":24,
			"byteOffset":538492
		},
		{
			"buffer":0,
			"byteLength":32,
			"byteOffset":538516
		},
		{
			"buffer":0,
			"byteLength":24,
			"byteOffset":538548
		},
		{
			"buffer":0,
			"byteLength":24,
			"byteOffset":538572
		},
		{
			"buffer":0,
			"byteLength":496,
			"byteOffset":538596
		},
		{
			"buffer":0,
			"byteLength":24,
			"byteOffset":539092
		},
		{
			"buffer":0,
			"byteLength":24,
			"byteOffset":539116
		},
		{
			"buffer":0,
			"byteLength":496,
			"byteOffset":539140
		},
		{
			"buffer":0,
			"byteLength":24,
			"byteOffset":539636
		},
		{
			"buffer":0,
			"byteLength":24,
			"byteOffset":539660
		},
		{
			"buffer":0,
			"byteLength":496,
			"byteOffset":539684
		},
		{
			"buffer":0,
			"byteLength":24,
			"byteOffset":540180
		},
		{
			"buffer":0,
			"byteLength":24,
			"byteOffset":540204
		},
		{
			"buffer":0,
			"byteLength":496,
			"byteOffset":540228
		},
		{
			"buffer":0,
			"byteLength":24,
			"byteOffset":540724
		},
		{
			"buffer":0,
			"byteLength":24,
			"byteOffset":540748
		},
		{
			"buffer":0,
			"byteLength":496,
			"byteOffset":540772
		},
		{
			"buffer":0,
			"byteLength":24,
			"byteOffset":541268
		},
		{
			"buffer":0,
			"byteLength":24,
			"byteOffset":541292
		},
		{
			"buffer":0,
			"byteLength":496,
			"byteOffset":541316
		},
		{
			"buffer":0,
			"byteLength":24,
			"byteOffset":541812
		}
	],
	"samplers":[
		{
			"magFilter":9729,
			"minFilter":9987
		}
	],
	"buffers":[
		{
			"byteLength":541836,
			"uri":"dwarf.bin"
		}
	]
}
