{
	"asset":{
		"generator":"Khronos glTF Blender I/O v4.2.57",
		"version":"2.0"
	},
	"extensionsUsed":[
		"KHR_materials_clearcoat",
		"KHR_materials_sheen"
	],
	"scene":0,
	"scenes":[
		{
			"name":"Scene",
			"nodes":[
				18
			]
		}
	],
	"nodes":[
		{
			"name":"head",
			"translation":[
				0,
				0.09999990463256836,
				0
			]
		},
		{
			"children":[
				0
			],
			"name":"neck",
			"translation":[
				0,
				0.21000003814697266,
				0
			]
		},
		{
			"name":"hand.R",
			"rotation":[
				-0.0023571813944727182,
				-0.016418322920799255,
				0.017660969868302345,
				0.9997064471244812
			],
			"translation":[
				-1.9208528101444244e-09,
				0.2513878643512726,
				-2.7939677238464355e-09
			]
		},
		{
			"children":[
				2
			],
			"name":"forearm.R",
			"rotation":[
				0.05022275075316429,
				-0.05592827498912811,
				0.06416802108287811,
				0.9951040744781494
			],
			"scale":[
				1,
				1.0000001192092896,
				1
			],
			"translation":[
				3.91155481338501e-08,
				0.27479061484336853,
				-2.7939677238464355e-09
			]
		},
		{
			"children":[
				3
			],
			"name":"upper_arm.R",
			"rotation":[
				0.9912914633750916,
				0.09286591410636902,
				0.09286512434482574,
				0.009655661880970001
			],
			"scale":[
				1.0000052452087402,
				1.0000001192092896,
				1.000000238418579
			],
			"translation":[
				0.1720000058412552,
				0.15999996662139893,
				0
			]
		},
		{
			"name":"hand.L",
			"rotation":[
				-0.0023571813944727182,
				0.016418322920799255,
				-0.017660969868302345,
				0.9997064471244812
			],
			"translation":[
				1.9208528101444244e-09,
				0.2513878643512726,
				-2.7939677238464355e-09
			]
		},
		{
			"children":[
				5
			],
			"name":"forearm.L",
			"rotation":[
				0.05022275075316429,
				0.05592827498912811,
				-0.06416802108287811,
				0.9951040744781494
			],
			"scale":[
				1,
				1.0000001192092896,
				1
			],
			"translation":[
				-3.91155481338501e-08,
				0.27479061484336853,
				-2.7939677238464355e-09
			]
		},
		{
			"children":[
				6
			],
			"name":"upper_arm.L",
			"rotation":[
				0.9912914633750916,
				-0.09286591410636902,
				-0.09286512434482574,
				0.009655661880970001
			],
			"scale":[
				1.0000052452087402,
				1.0000001192092896,
				1.000000238418579
			],
			"translation":[
				-0.1720000058412552,
				0.15999996662139893,
				0
			]
		},
		{
			"children":[
				1,
				4,
				7
			],
			"name":"chest",
			"translation":[
				0,
				0.16999995708465576,
				0
			]
		},
		{
			"children":[
				8
			],
			"name":"spine",
			"translation":[
				0,
				0.15000003576278687,
				0
			]
		},
		{
			"name":"foot.R",
			"rotation":[
				0.5914181470870972,
				2.087205963618999e-09,
				-3.036795537258996e-10,
				0.8063650131225586
			],
			"translation":[
				-7.328945450524316e-09,
				0.4105897545814514,
				-2.2662050014332635e-10
			]
		},
		{
			"children":[
				10
			],
			"name":"shin.R",
			"rotation":[
				-0.04152866080403328,
				-0.010850693099200726,
				0.010284049436450005,
				0.9990255236625671
			],
			"scale":[
				1,
				1.0000001192092896,
				1
			],
			"translation":[
				-4.103640094399452e-09,
				0.4102700352668762,
				-1.1641532182693481e-09
			]
		},
		{
			"children":[
				11
			],
			"name":"thigh.R",
			"rotation":[
				-0.9997796416282654,
				-0.010571159422397614,
				-0.010571259073913097,
				0.014739512465894222
			],
			"scale":[
				1.0000001192092896,
				1,
				1.000000238418579
			],
			"translation":[
				0.10119999945163727,
				-0.019999980926513672,
				0
			]
		},
		{
			"name":"foot.L",
			"rotation":[
				0.5914181470870972,
				-2.087205963618999e-09,
				3.036795537258996e-10,
				0.8063650131225586
			],
			"translation":[
				7.328945450524316e-09,
				0.4105897545814514,
				-2.2662050014332635e-10
			]
		},
		{
			"children":[
				13
			],
			"name":"shin.L",
			"rotation":[
				-0.04152866080403328,
				0.010850693099200726,
				-0.010284049436450005,
				0.9990255236625671
			],
			"scale":[
				1,
				1.0000001192092896,
				1
			],
			"translation":[
				4.103640094399452e-09,
				0.4102700352668762,
				-1.1641532182693481e-09
			]
		},
		{
			"children":[
				14
			],
			"name":"thigh.L",
			"rotation":[
				-0.9997796416282654,
				0.010571159422397614,
				0.010571259073913097,
				0.014739512465894222
			],
			"scale":[
				1.0000001192092896,
				1,
				1.000000238418579
			],
			"translation":[
				-0.10119999945163727,
				-0.019999980926513672,
				0
			]
		},
		{
			"children":[
				9,
				12,
				15
			],
			"name":"hips",
			"translation":[
				0,
				0.9300000071525574,
				0
			]
		},
		{
			"mesh":0,
			"name":"elmesia",
			"skin":0
		},
		{
			"children":[
				17,
				16
			],
			"name":"elmesia_rig"
		}
	],
	"animations":[
		{
			"channels":[
				{
					"sampler":0,
					"target":{
						"node":16,
						"path":"translation"
					}
				},
				{
					"sampler":1,
					"target":{
						"node":16,
						"path":"rotation"
					}
				},
				{
					"sampler":2,
					"target":{
						"node":16,
						"path":"scale"
					}
				},
				{
					"sampler":3,
					"target":{
						"node":9,
						"path":"translation"
					}
				},
				{
					"sampler":4,
					"target":{
						"node":9,
						"path":"rotation"
					}
				},
				{
					"sampler":5,
					"target":{
						"node":9,
						"path":"scale"
					}
				},
				{
					"sampler":6,
					"target":{
						"node":8,
						"path":"translation"
					}
				},
				{
					"sampler":7,
					"target":{
						"node":8,
						"path":"rotation"
					}
				},
				{
					"sampler":8,
					"target":{
						"node":8,
						"path":"scale"
					}
				},
				{
					"sampler":9,
					"target":{
						"node":1,
						"path":"translation"
					}
				},
				{
					"sampler":10,
					"target":{
						"node":1,
						"path":"rotation"
					}
				},
				{
					"sampler":11,
					"target":{
						"node":1,
						"path":"scale"
					}
				},
				{
					"sampler":12,
					"target":{
						"node":0,
						"path":"translation"
					}
				},
				{
					"sampler":13,
					"target":{
						"node":0,
						"path":"rotation"
					}
				},
				{
					"sampler":14,
					"target":{
						"node":0,
						"path":"scale"
					}
				},
				{
					"sampler":15,
					"target":{
						"node":4,
						"path":"translation"
					}
				},
				{
					"sampler":16,
					"target":{
						"node":4,
						"path":"rotation"
					}
				},
				{
					"sampler":17,
					"target":{
						"node":4,
						"path":"scale"
					}
				},
				{
					"sampler":18,
					"target":{
						"node":3,
						"path":"translation"
					}
				},
				{
					"sampler":19,
					"target":{
						"node":3,
						"path":"rotation"
					}
				},
				{
					"sampler":20,
					"target":{
						"node":3,
						"path":"scale"
					}
				},
				{
					"sampler":21,
					"target":{
						"node":2,
						"path":"translation"
					}
				},
				{
					"sampler":22,
					"target":{
						"node":2,
						"path":"rotation"
					}
				},
				{
					"sampler":23,
					"target":{
						"node":2,
						"path":"scale"
					}
				},
				{
					"sampler":24,
					"target":{
						"node":7,
						"path":"translation"
					}
				},
				{
					"sampler":25,
					"target":{
						"node":7,
						"path":"rotation"
					}
				},
				{
					"sampler":26,
					"target":{
						"node":7,
						"path":"scale"
					}
				},
				{
					"sampler":27,
					"target":{
						"node":6,
						"path":"translation"
					}
				},
				{
					"sampler":28,
					"target":{
						"node":6,
						"path":"rotation"
					}
				},
				{
					"sampler":29,
					"target":{
						"node":6,
						"path":"scale"
					}
				},
				{
					"sampler":30,
					"target":{
						"node":5,
						"path":"translation"
					}
				},
				{
					"sampler":31,
					"target":{
						"node":5,
						"path":"rotation"
					}
				},
				{
					"sampler":32,
					"target":{
						"node":5,
						"path":"scale"
					}
				},
				{
					"sampler":33,
					"target":{
						"node":12,
						"path":"translation"
					}
				},
				{
					"sampler":34,
					"target":{
						"node":12,
						"path":"rotation"
					}
				},
				{
					"sampler":35,
					"target":{
						"node":12,
						"path":"scale"
					}
				},
				{
					"sampler":36,
					"target":{
						"node":11,
						"path":"translation"
					}
				},
				{
					"sampler":37,
					"target":{
						"node":11,
						"path":"rotation"
					}
				},
				{
					"sampler":38,
					"target":{
						"node":11,
						"path":"scale"
					}
				},
				{
					"sampler":39,
					"target":{
						"node":10,
						"path":"translation"
					}
				},
				{
					"sampler":40,
					"target":{
						"node":10,
						"path":"rotation"
					}
				},
				{
					"sampler":41,
					"target":{
						"node":10,
						"path":"scale"
					}
				},
				{
					"sampler":42,
					"target":{
						"node":15,
						"path":"translation"
					}
				},
				{
					"sampler":43,
					"target":{
						"node":15,
						"path":"rotation"
					}
				},
				{
					"sampler":44,
					"target":{
						"node":15,
						"path":"scale"
					}
				},
				{
					"sampler":45,
					"target":{
						"node":14,
						"path":"translation"
					}
				},
				{
					"sampler":46,
					"target":{
						"node":14,
						"path":"rotation"
					}
				},
				{
					"sampler":47,
					"target":{
						"node":14,
						"path":"scale"
					}
				},
				{
					"sampler":48,
					"target":{
						"node":13,
						"path":"translation"
					}
				},
				{
					"sampler":49,
					"target":{
						"node":13,
						"path":"rotation"
					}
				},
				{
					"sampler":50,
					"target":{
						"node":13,
						"path":"scale"
					}
				}
			],
			"name":"attack",
			"samplers":[
				{
					"input":73,
					"interpolation":"STEP",
					"output":74
				},
				{
					"input":73,
					"interpolation":"STEP",
					"output":75
				},
				{
					"input":73,
					"interpolation":"STEP",
					"output":76
				},
				{
					"input":73,
					"interpolation":"STEP",
					"output":77
				},
				{
					"input":73,
					"interpolation":"STEP",
					"output":78
				},
				{
					"input":73,
					"interpolation":"STEP",
					"output":79
				},
				{
					"input":73,
					"interpolation":"STEP",
					"output":80
				},
				{
					"input":81,
					"interpolation":"LINEAR",
					"output":82
				},
				{
					"input":73,
					"interpolation":"STEP",
					"output":83
				},
				{
					"input":73,
					"interpolation":"STEP",
					"output":84
				},
				{
					"input":73,
					"interpolation":"STEP",
					"output":85
				},
				{
					"input":73,
					"interpolation":"STEP",
					"output":86
				},
				{
					"input":73,
					"interpolation":"STEP",
					"output":87
				},
				{
					"input":73,
					"interpolation":"STEP",
					"output":88
				},
				{
					"input":73,
					"interpolation":"STEP",
					"output":89
				},
				{
					"input":73,
					"interpolation":"STEP",
					"output":90
				},
				{
					"input":81,
					"interpolation":"LINEAR",
					"output":91
				},
				{
					"input":73,
					"interpolation":"STEP",
					"output":92
				},
				{
					"input":73,
					"interpolation":"STEP",
					"output":93
				},
				{
					"input":81,
					"interpolation":"LINEAR",
					"output":94
				},
				{
					"input":73,
					"interpolation":"STEP",
					"output":95
				},
				{
					"input":73,
					"interpolation":"LINEAR",
					"output":96
				},
				{
					"input":73,
					"interpolation":"LINEAR",
					"output":97
				},
				{
					"input":73,
					"interpolation":"STEP",
					"output":98
				},
				{
					"input":73,
					"interpolation":"STEP",
					"output":99
				},
				{
					"input":81,
					"interpolation":"LINEAR",
					"output":100
				},
				{
					"input":73,
					"interpolation":"STEP",
					"output":101
				},
				{
					"input":73,
					"interpolation":"STEP",
					"output":102
				},
				{
					"input":73,
					"interpolation":"STEP",
					"output":103
				},
				{
					"input":73,
					"interpolation":"STEP",
					"output":104
				},
				{
					"input":73,
					"interpolation":"STEP",
					"output":105
				},
				{
					"input":73,
					"interpolation":"STEP",
					"output":106
				},
				{
					"input":73,
					"interpolation":"STEP",
					"output":107
				},
				{
					"input":73,
					"interpolation":"STEP",
					"output":108
				},
				{
					"input":81,
					"interpolation":"LINEAR",
					"output":109
				},
				{
					"input":73,
					"interpolation":"STEP",
					"output":110
				},
				{
					"input":73,
					"interpolation":"LINEAR",
					"output":111
				},
				{
					"input":73,
					"interpolation":"LINEAR",
					"output":112
				},
				{
					"input":73,
					"interpolation":"STEP",
					"output":113
				},
				{
					"input":73,
					"interpolation":"LINEAR",
					"output":114
				},
				{
					"input":73,
					"interpolation":"LINEAR",
					"output":115
				},
				{
					"input":73,
					"interpolation":"STEP",
					"output":116
				},
				{
					"input":73,
					"interpolation":"STEP",
					"output":117
				},
				{
					"input":81,
					"interpolation":"LINEAR",
					"output":118
				},
				{
					"input":73,
					"interpolation":"STEP",
					"output":119
				},
				{
					"input":73,
					"interpolation":"LINEAR",
					"output":120
				},
				{
					"input":73,
					"interpolation":"LINEAR",
					"output":121
				},
				{
					"input":73,
					"interpolation":"STEP",
					"output":122
				},
				{
					"input":73,
					"interpolation":"LINEAR",
					"output":123
				},
				{
					"input":73,
					"interpolation":"LINEAR",
					"output":124
				},
				{
					"input":73,
					"interpolation":"STEP",
					"output":125
				}
			]
		},
		{
			"channels":[
				{
					"sampler":0,
					"target":{
						"node":16,
						"path":"translation"
					}
				},
				{
					"sampler":1,
					"target":{
						"node":16,
						"path":"rotation"
					}
				},
				{
					"sampler":2,
					"target":{
						"node":16,
						"path":"scale"
					}
				},
				{
					"sampler":3,
					"target":{
						"node":9,
						"path":"translation"
					}
				},
				{
					"sampler":4,
					"target":{
						"node":9,
						"path":"rotation"
					}
				},
				{
					"sampler":5,
					"target":{
						"node":9,
						"path":"scale"
					}
				},
				{
					"sampler":6,
					"target":{
						"node":8,
						"path":"translation"
					}
				},
				{
					"sampler":7,
					"target":{
						"node":8,
						"path":"rotation"
					}
				},
				{
					"sampler":8,
					"target":{
						"node":8,
						"path":"scale"
					}
				},
				{
					"sampler":9,
					"target":{
						"node":1,
						"path":"translation"
					}
				},
				{
					"sampler":10,
					"target":{
						"node":1,
						"path":"rotation"
					}
				},
				{
					"sampler":11,
					"target":{
						"node":1,
						"path":"scale"
					}
				},
				{
					"sampler":12,
					"target":{
						"node":0,
						"path":"translation"
					}
				},
				{
					"sampler":13,
					"target":{
						"node":0,
						"path":"rotation"
					}
				},
				{
					"sampler":14,
					"target":{
						"node":0,
						"path":"scale"
					}
				},
				{
					"sampler":15,
					"target":{
						"node":4,
						"path":"translation"
					}
				},
				{
					"sampler":16,
					"target":{
						"node":4,
						"path":"rotation"
					}
				},
				{
					"sampler":17,
					"target":{
						"node":4,
						"path":"scale"
					}
				},
				{
					"sampler":18,
					"target":{
						"node":3,
						"path":"translation"
					}
				},
				{
					"sampler":19,
					"target":{
						"node":3,
						"path":"rotation"
					}
				},
				{
					"sampler":20,
					"target":{
						"node":3,
						"path":"scale"
					}
				},
				{
					"sampler":21,
					"target":{
						"node":2,
						"path":"translation"
					}
				},
				{
					"sampler":22,
					"target":{
						"node":2,
						"path":"rotation"
					}
				},
				{
					"sampler":23,
					"target":{
						"node":2,
						"path":"scale"
					}
				},
				{
					"sampler":24,
					"target":{
						"node":7,
						"path":"translation"
					}
				},
				{
					"sampler":25,
					"target":{
						"node":7,
						"path":"rotation"
					}
				},
				{
					"sampler":26,
					"target":{
						"node":7,
						"path":"scale"
					}
				},
				{
					"sampler":27,
					"target":{
						"node":6,
						"path":"translation"
					}
				},
				{
					"sampler":28,
					"target":{
						"node":6,
						"path":"rotation"
					}
				},
				{
					"sampler":29,
					"target":{
						"node":6,
						"path":"scale"
					}
				},
				{
					"sampler":30,
					"target":{
						"node":5,
						"path":"translation"
					}
				},
				{
					"sampler":31,
					"target":{
						"node":5,
						"path":"rotation"
					}
				},
				{
					"sampler":32,
					"target":{
						"node":5,
						"path":"scale"
					}
				},
				{
					"sampler":33,
					"target":{
						"node":12,
						"path":"translation"
					}
				},
				{
					"sampler":34,
					"target":{
						"node":12,
						"path":"rotation"
					}
				},
				{
					"sampler":35,
					"target":{
						"node":12,
						"path":"scale"
					}
				},
				{
					"sampler":36,
					"target":{
						"node":11,
						"path":"translation"
					}
				},
				{
					"sampler":37,
					"target":{
						"node":11,
						"path":"rotation"
					}
				},
				{
					"sampler":38,
					"target":{
						"node":11,
						"path":"scale"
					}
				},
				{
					"sampler":39,
					"target":{
						"node":10,
						"path":"translation"
					}
				},
				{
					"sampler":40,
					"target":{
						"node":10,
						"path":"rotation"
					}
				},
				{
					"sampler":41,
					"target":{
						"node":10,
						"path":"scale"
					}
				},
				{
					"sampler":42,
					"target":{
						"node":15,
						"path":"translation"
					}
				},
				{
					"sampler":43,
					"target":{
						"node":15,
						"path":"rotation"
					}
				},
				{
					"sampler":44,
					"target":{
						"node":15,
						"path":"scale"
					}
				},
				{
					"sampler":45,
					"target":{
						"node":14,
						"path":"translation"
					}
				},
				{
					"sampler":46,
					"target":{
						"node":14,
						"path":"rotation"
					}
				},
				{
					"sampler":47,
					"target":{
						"node":14,
						"path":"scale"
					}
				},
				{
					"sampler":48,
					"target":{
						"node":13,
						"path":"translation"
					}
				},
				{
					"sampler":49,
					"target":{
						"node":13,
						"path":"rotation"
					}
				},
				{
					"sampler":50,
					"target":{
						"node":13,
						"path":"scale"
					}
				}
			],
			"name":"idle",
			"samplers":[
				{
					"input":126,
					"interpolation":"LINEAR",
					"output":127
				},
				{
					"input":128,
					"interpolation":"STEP",
					"output":129
				},
				{
					"input":128,
					"interpolation":"STEP",
					"output":130
				},
				{
					"input":128,
					"interpolation":"STEP",
					"output":131
				},
				{
					"input":128,
					"interpolation":"STEP",
					"output":132
				},
				{
					"input":128,
					"interpolation":"STEP",
					"output":133
				},
				{
					"input":128,
					"interpolation":"STEP",
					"output":134
				},
				{
					"input":126,
					"interpolation":"LINEAR",
					"output":135
				},
				{
					"input":128,
					"interpolation":"STEP",
					"output":136
				},
				{
					"input":128,
					"interpolation":"STEP",
					"output":137
				},
				{
					"input":128,
					"interpolation":"STEP",
					"output":138
				},
				{
					"input":128,
					"interpolation":"STEP",
					"output":139
				},
				{
					"input":128,
					"interpolation":"STEP",
					"output":140
				},
				{
					"input":126,
					"interpolation":"LINEAR",
					"output":141
				},
				{
					"input":128,
					"interpolation":"STEP",
					"output":142
				},
				{
					"input":128,
					"interpolation":"STEP",
					"output":143
				},
				{
					"input":126,
					"interpolation":"LINEAR",
					"output":144
				},
				{
					"input":128,
					"interpolation":"STEP",
					"output":145
				},
				{
					"input":128,
					"interpolation":"STEP",
					"output":146
				},
				{
					"input":128,
					"interpolation":"STEP",
					"output":147
				},
				{
					"input":128,
					"interpolation":"STEP",
					"output":148
				},
				{
					"input":128,
					"interpolation":"STEP",
					"output":149
				},
				{
					"input":128,
					"interpolation":"STEP",
					"output":150
				},
				{
					"input":128,
					"interpolation":"STEP",
					"output":151
				},
				{
					"input":128,
					"interpolation":"STEP",
					"output":152
				},
				{
					"input":126,
					"interpolation":"LINEAR",
					"output":153
				},
				{
					"input":128,
					"interpolation":"STEP",
					"output":154
				},
				{
					"input":128,
					"interpolation":"STEP",
					"output":155
				},
				{
					"input":128,
					"interpolation":"STEP",
					"output":156
				},
				{
					"input":128,
					"interpolation":"STEP",
					"output":157
				},
				{
					"input":128,
					"interpolation":"STEP",
					"output":158
				},
				{
					"input":128,
					"interpolation":"STEP",
					"output":159
				},
				{
					"input":128,
					"interpolation":"STEP",
					"output":160
				},
				{
					"input":128,
					"interpolation":"STEP",
					"output":161
				},
				{
					"input":128,
					"interpolation":"STEP",
					"output":162
				},
				{
					"input":128,
					"interpolation":"STEP",
					"output":163
				},
				{
					"input":128,
					"interpolation":"STEP",
					"output":164
				},
				{
					"input":128,
					"interpolation":"STEP",
					"output":165
				},
				{
					"input":128,
					"interpolation":"STEP",
					"output":166
				},
				{
					"input":128,
					"interpolation":"STEP",
					"output":167
				},
				{
					"input":128,
					"interpolation":"STEP",
					"output":168
				},
				{
					"input":128,
					"interpolation":"STEP",
					"output":169
				},
				{
					"input":128,
					"interpolation":"STEP",
					"output":170
				},
				{
					"input":128,
					"interpolation":"STEP",
					"output":171
				},
				{
					"input":128,
					"interpolation":"STEP",
					"output":172
				},
				{
					"input":128,
					"interpolation":"STEP",
					"output":173
				},
				{
					"input":128,
					"interpolation":"STEP",
					"output":174
				},
				{
					"input":128,
					"interpolation":"STEP",
					"output":175
				},
				{
					"input":128,
					"interpolation":"STEP",
					"output":176
				},
				{
					"input":128,
					"interpolation":"STEP",
					"output":177
				},
				{
					"input":128,
					"interpolation":"STEP",
					"output":178
				}
			]
		},
		{
			"channels":[
				{
					"sampler":0,
					"target":{
						"node":16,
						"path":"translation"
					}
				},
				{
					"sampler":1,
					"target":{
						"node":16,
						"path":"rotation"
					}
				},
				{
					"sampler":2,
					"target":{
						"node":16,
						"path":"scale"
					}
				},
				{
					"sampler":3,
					"target":{
						"node":9,
						"path":"translation"
					}
				},
				{
					"sampler":4,
					"target":{
						"node":9,
						"path":"rotation"
					}
				},
				{
					"sampler":5,
					"target":{
						"node":9,
						"path":"scale"
					}
				},
				{
					"sampler":6,
					"target":{
						"node":8,
						"path":"translation"
					}
				},
				{
					"sampler":7,
					"target":{
						"node":8,
						"path":"rotation"
					}
				},
				{
					"sampler":8,
					"target":{
						"node":8,
						"path":"scale"
					}
				},
				{
					"sampler":9,
					"target":{
						"node":1,
						"path":"translation"
					}
				},
				{
					"sampler":10,
					"target":{
						"node":1,
						"path":"rotation"
					}
				},
				{
					"sampler":11,
					"target":{
						"node":1,
						"path":"scale"
					}
				},
				{
					"sampler":12,
					"target":{
						"node":0,
						"path":"translation"
					}
				},
				{
					"sampler":13,
					"target":{
						"node":0,
						"path":"rotation"
					}
				},
				{
					"sampler":14,
					"target":{
						"node":0,
						"path":"scale"
					}
				},
				{
					"sampler":15,
					"target":{
						"node":4,
						"path":"translation"
					}
				},
				{
					"sampler":16,
					"target":{
						"node":4,
						"path":"rotation"
					}
				},
				{
					"sampler":17,
					"target":{
						"node":4,
						"path":"scale"
					}
				},
				{
					"sampler":18,
					"target":{
						"node":3,
						"path":"translation"
					}
				},
				{
					"sampler":19,
					"target":{
						"node":3,
						"path":"rotation"
					}
				},
				{
					"sampler":20,
					"target":{
						"node":3,
						"path":"scale"
					}
				},
				{
					"sampler":21,
					"target":{
						"node":2,
						"path":"translation"
					}
				},
				{
					"sampler":22,
					"target":{
						"node":2,
						"path":"rotation"
					}
				},
				{
					"sampler":23,
					"target":{
						"node":2,
						"path":"scale"
					}
				},
				{
					"sampler":24,
					"target":{
						"node":7,
						"path":"translation"
					}
				},
				{
					"sampler":25,
					"target":{
						"node":7,
						"path":"rotation"
					}
				},
				{
					"sampler":26,
					"target":{
						"node":7,
						"path":"scale"
					}
				},
				{
					"sampler":27,
					"target":{
						"node":6,
						"path":"translation"
					}
				},
				{
					"sampler":28,
					"target":{
						"node":6,
						"path":"rotation"
					}
				},
				{
					"sampler":29,
					"target":{
						"node":6,
						"path":"scale"
					}
				},
				{
					"sampler":30,
					"target":{
						"node":5,
						"path":"translation"
					}
				},
				{
					"sampler":31,
					"target":{
						"node":5,
						"path":"rotation"
					}
				},
				{
					"sampler":32,
					"target":{
						"node":5,
						"path":"scale"
					}
				},
				{
					"sampler":33,
					"target":{
						"node":12,
						"path":"translation"
					}
				},
				{
					"sampler":34,
					"target":{
						"node":12,
						"path":"rotation"
					}
				},
				{
					"sampler":35,
					"target":{
						"node":12,
						"path":"scale"
					}
				},
				{
					"sampler":36,
					"target":{
						"node":11,
						"path":"translation"
					}
				},
				{
					"sampler":37,
					"target":{
						"node":11,
						"path":"rotation"
					}
				},
				{
					"sampler":38,
					"target":{
						"node":11,
						"path":"scale"
					}
				},
				{
					"sampler":39,
					"target":{
						"node":10,
						"path":"translation"
					}
				},
				{
					"sampler":40,
					"target":{
						"node":10,
						"path":"rotation"
					}
				},
				{
					"sampler":41,
					"target":{
						"node":10,
						"path":"scale"
					}
				},
				{
					"sampler":42,
					"target":{
						"node":15,
						"path":"translation"
					}
				},
				{
					"sampler":43,
					"target":{
						"node":15,
						"path":"rotation"
					}
				},
				{
					"sampler":44,
					"target":{
						"node":15,
						"path":"scale"
					}
				},
				{
					"sampler":45,
					"target":{
						"node":14,
						"path":"translation"
					}
				},
				{
					"sampler":46,
					"target":{
						"node":14,
						"path":"rotation"
					}
				},
				{
					"sampler":47,
					"target":{
						"node":14,
						"path":"scale"
					}
				},
				{
					"sampler":48,
					"target":{
						"node":13,
						"path":"translation"
					}
				},
				{
					"sampler":49,
					"target":{
						"node":13,
						"path":"rotation"
					}
				},
				{
					"sampler":50,
					"target":{
						"node":13,
						"path":"scale"
					}
				}
			],
			"name":"walk",
			"samplers":[
				{
					"input":179,
					"interpolation":"LINEAR",
					"output":180
				},
				{
					"input":179,
					"interpolation":"LINEAR",
					"output":181
				},
				{
					"input":182,
					"interpolation":"STEP",
					"output":183
				},
				{
					"input":182,
					"interpolation":"STEP",
					"output":184
				},
				{
					"input":182,
					"interpolation":"STEP",
					"output":185
				},
				{
					"input":182,
					"interpolation":"STEP",
					"output":186
				},
				{
					"input":182,
					"interpolation":"STEP",
					"output":187
				},
				{
					"input":179,
					"interpolation":"LINEAR",
					"output":188
				},
				{
					"input":182,
					"interpolation":"STEP",
					"output":189
				},
				{
					"input":182,
					"interpolation":"STEP",
					"output":190
				},
				{
					"input":182,
					"interpolation":"STEP",
					"output":191
				},
				{
					"input":182,
					"interpolation":"STEP",
					"output":192
				},
				{
					"input":182,
					"interpolation":"STEP",
					"output":193
				},
				{
					"input":182,
					"interpolation":"STEP",
					"output":194
				},
				{
					"input":182,
					"interpolation":"STEP",
					"output":195
				},
				{
					"input":182,
					"interpolation":"STEP",
					"output":196
				},
				{
					"input":179,
					"interpolation":"LINEAR",
					"output":197
				},
				{
					"input":182,
					"interpolation":"STEP",
					"output":198
				},
				{
					"input":182,
					"interpolation":"STEP",
					"output":199
				},
				{
					"input":182,
					"interpolation":"STEP",
					"output":200
				},
				{
					"input":182,
					"interpolation":"STEP",
					"output":201
				},
				{
					"input":182,
					"interpolation":"STEP",
					"output":202
				},
				{
					"input":182,
					"interpolation":"STEP",
					"output":203
				},
				{
					"input":182,
					"interpolation":"STEP",
					"output":204
				},
				{
					"input":182,
					"interpolation":"STEP",
					"output":205
				},
				{
					"input":179,
					"interpolation":"LINEAR",
					"output":206
				},
				{
					"input":182,
					"interpolation":"STEP",
					"output":207
				},
				{
					"input":182,
					"interpolation":"STEP",
					"output":208
				},
				{
					"input":182,
					"interpolation":"STEP",
					"output":209
				},
				{
					"input":182,
					"interpolation":"STEP",
					"output":210
				},
				{
					"input":182,
					"interpolation":"STEP",
					"output":211
				},
				{
					"input":182,
					"interpolation":"STEP",
					"output":212
				},
				{
					"input":182,
					"interpolation":"STEP",
					"output":213
				},
				{
					"input":182,
					"interpolation":"STEP",
					"output":214
				},
				{
					"input":179,
					"interpolation":"LINEAR",
					"output":215
				},
				{
					"input":182,
					"interpolation":"STEP",
					"output":216
				},
				{
					"input":182,
					"interpolation":"STEP",
					"output":217
				},
				{
					"input":179,
					"interpolation":"LINEAR",
					"output":218
				},
				{
					"input":182,
					"interpolation":"STEP",
					"output":219
				},
				{
					"input":182,
					"interpolation":"STEP",
					"output":220
				},
				{
					"input":179,
					"interpolation":"LINEAR",
					"output":221
				},
				{
					"input":182,
					"interpolation":"STEP",
					"output":222
				},
				{
					"input":182,
					"interpolation":"STEP",
					"output":223
				},
				{
					"input":179,
					"interpolation":"LINEAR",
					"output":224
				},
				{
					"input":182,
					"interpolation":"STEP",
					"output":225
				},
				{
					"input":182,
					"interpolation":"STEP",
					"output":226
				},
				{
					"input":179,
					"interpolation":"LINEAR",
					"output":227
				},
				{
					"input":182,
					"interpolation":"STEP",
					"output":228
				},
				{
					"input":182,
					"interpolation":"STEP",
					"output":229
				},
				{
					"input":179,
					"interpolation":"LINEAR",
					"output":230
				},
				{
					"input":182,
					"interpolation":"STEP",
					"output":231
				}
			]
		}
	],
	"materials":[
		{
			"name":"skin",
			"normalTexture":{
				"index":0,
				"scale":0.4000000059604645
			},
			"pbrMetallicRoughness":{
				"baseColorFactor":[
					0.9551045894622803,
					0.7105664610862732,
					0.5382355451583862,
					1
				],
				"metallicFactor":0,
				"roughnessFactor":0.550000011920929
			}
		},
		{
			"extensions":{
				"KHR_materials_sheen":{
					"sheenColorFactor":[
						1.0,
						1.0,
						1.0
					],
					"sheenRoughnessFactor":0.5
				}
			},
			"name":"hair",
			"normalTexture":{
				"index":1,
				"scale":0.800000011920929
			},
			"pbrMetallicRoughness":{
				"baseColorFactor":[
					0.8900054097175598,
					0.7874122858047485,
					0.4479884207248688,
					1
				],
				"metallicFactor":0,
				"roughnessFactor":0.44999998807907104
			}
		},
		{
			"extensions":{
				"KHR_materials_sheen":{
					"sheenColorFactor":[
						1.0,
						1.0,
						1.0
					],
					"sheenRoughnessFactor":0.5
				}
			},
			"name":"outfit",
			"normalTexture":{
				"index":2,
				"scale":0.6000000238418579
			},
			"pbrMetallicRoughness":{
				"baseColorFactor":[
					0.8900054097175598,
					0.8900054097175598,
					0.7874122858047485,
					1
				],
				"metallicFactor":0,
				"roughnessFactor":0.75
			}
		},
		{
			"name":"outfit2",
			"normalTexture":{
				"index":3,
				"scale":0.4000000059604645
			},
			"pbrMetallicRoughness":{
				"baseColorFactor":[
					0.07323895394802094,
					0.4479884207248688,
					0.13286831974983215,
					1
				],
				"metallicFactor":0,
				"roughnessFactor":0.6000000238418579
			}
		},
		{
			"name":"pants",
			"normalTexture":{
				"index":4,
				"scale":0.6000000238418579
			},
			"pbrMetallicRoughness":{
				"baseColorFactor":[
					0.3997533321380615,
					0.3997533321380615,
					0.3546920716762543,
					1
				],
				"metallicFactor":0,
				"roughnessFactor":0.800000011920929
			}
		},
		{
			"extensions":{
				"KHR_materials_clearcoat":{
					"clearcoatFactor":0.30000001192092896
				}
			},
			"name":"boots",
			"normalTexture":{
				"index":5,
				"scale":0.800000011920929
			},
			"pbrMetallicRoughness":{
				"baseColorFactor":[
					0.0134117491543293,
					0.010022825561463833,
					0.010022825561463833,
					1
				],
				"metallicFactor":0,
				"roughnessFactor":0.44999998807907104
			}
		},
		{
			"name":"eye_white",
			"pbrMetallicRoughness":{
				"baseColorFactor":[
					0.8900054097175598,
					0.8900054097175598,
					0.8900054097175598,
					1
				],
				"metallicFactor":0,
				"roughnessFactor":0.20000000298023224
			}
		},
		{
			"emissiveFactor":[
				0.011763989275256348,
				0.011763989275256348,
				0.019862860485428957
			],
			"name":"iris",
			"pbrMetallicRoughness":{
				"baseColorFactor":[
					0.01960664801299572,
					0.01960664801299572,
					0.03310476616024971,
					1
				],
				"metallicFactor":0,
				"roughnessFactor":0.15000000596046448
			}
		},
		{
			"name":"pupil",
			"pbrMetallicRoughness":{
				"baseColorFactor":[
					0.0015479875728487968,
					0.0015479875728487968,
					0.0023219813592731953,
					1
				],
				"metallicFactor":0,
				"roughnessFactor":0.10000000149011612
			}
		},
		{
			"name":"lips",
			"pbrMetallicRoughness":{
				"baseColorFactor":[
					0.4283095896244049,
					0.32088616490364075,
					0.2448643445968628,
					1
				],
				"metallicFactor":0,
				"roughnessFactor":0.4000000059604645
			}
		},
		{
			"doubleSided":true,
			"name":"skirt",
			"normalTexture":{
				"index":6,
				"scale":0.6000000238418579
			},
			"pbrMetallicRoughness":{
				"baseColorFactor":[
					0.07323895394802094,
					0.4479884207248688,
					0.13286831974983215,
					1
				],
				"metallicFactor":0,
				"roughnessFactor":0.699999988079071
			}
		},
		{
			"name":"buckle",
			"pbrMetallicRoughness":{
				"baseColorFactor":[
					0.6920710802078247,
					0.4479884207248688,
					0.07323895394802094,
					1
				],
				"metallicFactor":0.8999999761581421,
				"roughnessFactor":0.30000001192092896
			}
		}
	],
	"meshes":[
		{
			"name":"elmesia",
			"primitives":[
				{
					"attributes":{
						"POSITION":0,
						"NORMAL":1,
						"TEXCOORD_0":2,
						"JOINTS_0":3,
						"WEIGHTS_0":4
					},
					"indices":5,
					"material":0
				},
				{
					"attributes":{
						"POSITION":6,
						"NORMAL":7,
						"TEXCOORD_0":8,
						"JOINTS_0":9,
						"WEIGHTS_0":10
					},
					"indices":11,
					"material":1
				},
				{
					"attributes":{
						"POSITION":12,
						"NORMAL":13,
						"TEXCOORD_0":14,
						"JOINTS_0":15,
						"WEIGHTS_0":16
					},
					"indices":17,
					"material":2
				},
				{
					"attributes":{
						"POSITION":18,
						"NORMAL":19,
						"TEXCOORD_0":20,
						"JOINTS_0":21,
						"WEIGHTS_0":22
					},
					"indices":23,
					"material":3
				},
				{
					"attributes":{
						"POSITION":24,
						"NORMAL":25,
						"TEXCOORD_0":26,
						"JOINTS_0":27,
						"WEIGHTS_0":28
					},
					"indices":29,
					"material":4
				},
				{
					"attributes":{
						"POSITION":30,
						"NORMAL":31,
						"TEXCOORD_0":32,
						"JOINTS_0":33,
						"WEIGHTS_0":34
					},
					"indices":35,
					"material":5
				},
				{
					"attributes":{
						"POSITION":36,
						"NORMAL":37,
						"TEXCOORD_0":38,
						"JOINTS_0":39,
						"WEIGHTS_0":40
					},
					"indices":41,
					"material":6
				},
				{
					"attributes":{
						"POSITION":42,
						"NORMAL":43,
						"TEXCOORD_0":44,
						"JOINTS_0":45,
						"WEIGHTS_0":46
					},
					"indices":47,
					"material":7
				},
				{
					"attributes":{
						"POSITION":48,
						"NORMAL":49,
						"TEXCOORD_0":50,
						"JOINTS_0":51,
						"WEIGHTS_0":52
					},
					"indices":53,
					"material":8
				},
				{
					"attributes":{
						"POSITION":54,
						"NORMAL":55,
						"TEXCOORD_0":56,
						"JOINTS_0":57,
						"WEIGHTS_0":58
					},
					"indices":59,
					"material":9
				},
				{
					"attributes":{
						"POSITION":60,
						"NORMAL":61,
						"TEXCOORD_0":62,
						"JOINTS_0":63,
						"WEIGHTS_0":64
					},
					"indices":65,
					"material":10
				},
				{
					"attributes":{
						"POSITION":66,
						"NORMAL":67,
						"TEXCOORD_0":68,
						"JOINTS_0":69,
						"WEIGHTS_0":70
					},
					"indices":71,
					"material":11
				}
			]
		}
	],
	"textures":[
		{
			"sampler":0,
			"source":0
		},
		{
			"sampler":0,
			"source":1
		},
		{
			"sampler":0,
			"source":2
		},
		{
			"sampler":0,
			"source":2
		},
		{
			"sampler":0,
			"source":2
		},
		{
			"sampler":0,
			"source":3
		},
		{
			"sampler":0,
			"source":2
		}
	],
	"images":[
		{
			"mimeType":"image/png",
			"name":"N_skin",
			"uri":"texturas/N_skin.png"
		},
		{
			"mimeType":"image/png",
			"name":"N_hair",
			"uri":"texturas/N_hair.png"
		},
		{
			"mimeType":"image/png",
			"name":"N_cloth",
			"uri":"texturas/N_cloth.png"
		},
		{
			"mimeType":"image/png",
			"name":"N_leather",
			"uri":"texturas/N_leather.png"
		}
	],
	"skins":[
		{
			"inverseBindMatrices":72,
			"joints":[
				16,
				9,
				8,
				1,
				0,
				4,
				3,
				2,
				7,
				6,
				5,
				12,
				11,
				10,
				15,
				14,
				13
			],
			"name":"elmesia_rig"
		}
	],
	"accessors":[
		{
			"bufferView":0,
			"componentType":5126,
			"count":1301,
			"max":[
				0.2644500136375427,
				1.7839999198913574,
				0.10721255838871002
			],
			"min":[
				-0.2644500136375427,
				0.7844678163528442,
				-0.11607673019170761
			],
			"type":"VEC3"
		},
		{
			"bufferView":1,
			"componentType":5126,
			"count":1301,
			"type":"VEC3"
		},
		{
			"bufferView":2,
			"componentType":5126,
			"count":1301,
			"type":"VEC2"
		},
		{
			"bufferView":3,
			"componentType":5121,
			"count":1301,
			"type":"VEC4"
		},
		{
			"bufferView":4,
			"componentType":5126,
			"count":1301,
			"type":"VEC4"
		},
		{
			"bufferView":5,
			"componentType":5123,
			"count":5376,
			"type":"SCALAR"
		},
		{
			"bufferView":6,
			"componentType":5126,
			"count":2869,
			"max":[
				0.13696196675300598,
				1.8110582828521729,
				0.19706261157989502
			],
			"min":[
				-0.13832247257232666,
				0.985864520072937,
				-0.12009954452514648
			],
			"type":"VEC3"
		},
		{
			"bufferView":7,
			"componentType":5126,
			"count":2869,
			"type":"VEC3"
		},
		{
			"bufferView":8,
			"componentType":5126,
			"count":2869,
			"type":"VEC2"
		},
		{
			"bufferView":9,
			"componentType":5121,
			"count":2869,
			"type":"VEC4"
		},
		{
			"bufferView":10,
			"componentType":5126,
			"count":2869,
			"type":"VEC4"
		},
		{
			"bufferView":11,
			"componentType":5123,
			"count":10296,
			"type":"SCALAR"
		},
		{
			"bufferView":12,
			"componentType":5126,
			"count":1916,
			"max":[
				0.26701557636260986,
				1.46880304813385,
				0.09008977562189102
			],
			"min":[
				-0.2670155465602875,
				0.9226043820381165,
				-0.11999999731779099
			],
			"type":"VEC3"
		},
		{
			"bufferView":13,
			"componentType":5126,
			"count":1916,
			"type":"VEC3"
		},
		{
			"bufferView":14,
			"componentType":5126,
			"count":1916,
			"type":"VEC2"
		},
		{
			"bufferView":15,
			"componentType":5121,
			"count":1916,
			"type":"VEC4"
		},
		{
			"bufferView":16,
			"componentType":5126,
			"count":1916,
			"type":"VEC4"
		},
		{
			"bufferView":17,
			"componentType":5123,
			"count":8652,
			"type":"SCALAR"
		},
		{
			"bufferView":18,
			"componentType":5126,
			"count":76,
			"max":[
				0.1578424572944641,
				0.9976312518119812,
				0.10683226585388184
			],
			"min":[
				-0.1578424572944641,
				0.8799242973327637,
				-0.1086927279829979
			],
			"type":"VEC3"
		},
		{
			"bufferView":19,
			"componentType":5126,
			"count":76,
			"type":"VEC3"
		},
		{
			"bufferView":20,
			"componentType":5126,
			"count":76,
			"type":"VEC2"
		},
		{
			"bufferView":21,
			"componentType":5121,
			"count":76,
			"type":"VEC4"
		},
		{
			"bufferView":22,
			"componentType":5126,
			"count":76,
			"type":"VEC4"
		},
		{
			"bufferView":23,
			"componentType":5123,
			"count":264,
			"type":"SCALAR"
		},
		{
			"bufferView":24,
			"componentType":5126,
			"count":995,
			"max":[
				0.2652694880962372,
				0.9446630477905273,
				0.10655373334884644
			],
			"min":[
				-0.2652694880962372,
				0.3014695644378662,
				-0.1086927279829979
			],
			"type":"VEC3"
		},
		{
			"bufferView":25,
			"componentType":5126,
			"count":995,
			"type":"VEC3"
		},
		{
			"bufferView":26,
			"componentType":5126,
			"count":995,
			"type":"VEC2"
		},
		{
			"bufferView":27,
			"componentType":5121,
			"count":995,
			"type":"VEC4"
		},
		{
			"bufferView":28,
			"componentType":5126,
			"count":995,
			"type":"VEC4"
		},
		{
			"bufferView":29,
			"componentType":5123,
			"count":4380,
			"type":"SCALAR"
		},
		{
			"bufferView":30,
			"componentType":5126,
			"count":1034,
			"max":[
				0.1704442948102951,
				0.3071763813495636,
				0.07375719398260117
			],
			"min":[
				-0.1704442799091339,
				0.007599386852234602,
				-0.14012038707733154
			],
			"type":"VEC3"
		},
		{
			"bufferView":31,
			"componentType":5126,
			"count":1034,
			"type":"VEC3"
		},
		{
			"bufferView":32,
			"componentType":5126,
			"count":1034,
			"type":"VEC2"
		},
		{
			"bufferView":33,
			"componentType":5121,
			"count":1034,
			"type":"VEC4"
		},
		{
			"bufferView":34,
			"componentType":5126,
			"count":1034,
			"type":"VEC4"
		},
		{
			"bufferView":35,
			"componentType":5123,
			"count":4608,
			"type":"SCALAR"
		},
		{
			"bufferView":36,
			"componentType":5126,
			"count":304,
			"max":[
				0.050999999046325684,
				1.6864999532699585,
				-0.07000000029802322
			],
			"min":[
				-0.050999999046325684,
				1.6634999513626099,
				-0.08799999952316284
			],
			"type":"VEC3"
		},
		{
			"bufferView":37,
			"componentType":5126,
			"count":304,
			"type":"VEC3"
		},
		{
			"bufferView":38,
			"componentType":5126,
			"count":304,
			"type":"VEC2"
		},
		{
			"bufferView":39,
			"componentType":5121,
			"count":304,
			"type":"VEC4"
		},
		{
			"bufferView":40,
			"componentType":5126,
			"count":304,
			"type":"VEC4"
		},
		{
			"bufferView":41,
			"componentType":5123,
			"count":1152,
			"type":"SCALAR"
		},
		{
			"bufferView":42,
			"componentType":5126,
			"count":220,
			"max":[
				0.04349999874830246,
				1.6848000288009644,
				-0.08122024685144424
			],
			"min":[
				-0.04349999874830246,
				1.6651999950408936,
				-0.08977975696325302
			],
			"type":"VEC3"
		},
		{
			"bufferView":43,
			"componentType":5126,
			"count":220,
			"type":"VEC3"
		},
		{
			"bufferView":44,
			"componentType":5126,
			"count":220,
			"type":"VEC2"
		},
		{
			"bufferView":45,
			"componentType":5121,
			"count":220,
			"type":"VEC4"
		},
		{
			"bufferView":46,
			"componentType":5126,
			"count":220,
			"type":"VEC4"
		},
		{
			"bufferView":47,
			"componentType":5123,
			"count":720,
			"type":"SCALAR"
		},
		{
			"bufferView":48,
			"componentType":5126,
			"count":160,
			"max":[
				0.03799443691968918,
				1.6794999837875366,
				-0.08689788728952408
			],
			"min":[
				-0.03799443691968918,
				1.6705000400543213,
				-0.0907021164894104
			],
			"type":"VEC3"
		},
		{
			"bufferView":49,
			"componentType":5126,
			"count":160,
			"type":"VEC3"
		},
		{
			"bufferView":50,
			"componentType":5126,
			"count":160,
			"type":"VEC2"
		},
		{
			"bufferView":51,
			"componentType":5121,
			"count":160,
			"type":"VEC4"
		},
		{
			"bufferView":52,
			"componentType":5126,
			"count":160,
			"type":"VEC4"
		},
		{
			"bufferView":53,
			"componentType":5123,
			"count":480,
			"type":"SCALAR"
		},
		{
			"bufferView":54,
			"componentType":5126,
			"count":98,
			"max":[
				0.01899999938905239,
				1.6074999570846558,
				-0.07772024720907211
			],
			"min":[
				-0.01899999938905239,
				1.5985000133514404,
				-0.08627975732088089
			],
			"type":"VEC3"
		},
		{
			"bufferView":55,
			"componentType":5126,
			"count":98,
			"type":"VEC3"
		},
		{
			"bufferView":56,
			"componentType":5126,
			"count":98,
			"type":"VEC2"
		},
		{
			"bufferView":57,
			"componentType":5121,
			"count":98,
			"type":"VEC4"
		},
		{
			"bufferView":58,
			"componentType":5126,
			"count":98,
			"type":"VEC4"
		},
		{
			"bufferView":59,
			"componentType":5123,
			"count":360,
			"type":"SCALAR"
		},
		{
			"bufferView":60,
			"componentType":5126,
			"count":78,
			"max":[
				0.2639999985694885,
				1,
				0.2090502828359604
			],
			"min":[
				-0.2639999985694885,
				0.6800000071525574,
				-0.2090502828359604
			],
			"type":"VEC3"
		},
		{
			"bufferView":61,
			"componentType":5126,
			"count":78,
			"type":"VEC3"
		},
		{
			"bufferView":62,
			"componentType":5126,
			"count":78,
			"type":"VEC2"
		},
		{
			"bufferView":63,
			"componentType":5121,
			"count":78,
			"type":"VEC4"
		},
		{
			"bufferView":64,
			"componentType":5126,
			"count":78,
			"type":"VEC4"
		},
		{
			"bufferView":65,
			"componentType":5123,
			"count":264,
			"type":"SCALAR"
		},
		{
			"bufferView":66,
			"componentType":5126,
			"count":24,
			"max":[
				0.02500000037252903,
				0.9700000286102295,
				-0.10350000113248825
			],
			"min":[
				-0.02500000037252903,
				0.9300000071525574,
				-0.11550000309944153
			],
			"type":"VEC3"
		},
		{
			"bufferView":67,
			"componentType":5126,
			"count":24,
			"type":"VEC3"
		},
		{
			"bufferView":68,
			"componentType":5126,
			"count":24,
			"type":"VEC2"
		},
		{
			"bufferView":69,
			"componentType":5121,
			"count":24,
			"type":"VEC4"
		},
		{
			"bufferView":70,
			"componentType":5126,
			"count":24,
			"type":"VEC4"
		},
		{
			"bufferView":71,
			"componentType":5123,
			"count":36,
			"type":"SCALAR"
		},
		{
			"bufferView":72,
			"componentType":5126,
			"count":17,
			"type":"MAT4"
		},
		{
			"bufferView":73,
			"componentType":5126,
			"count":2,
			"max":[
				0.6
			],
			"min":[
				0
			],
			"type":"SCALAR"
		},
		{
			"bufferView":74,
			"componentType":5126,
			"count":2,
			"type":"VEC3"
		},
		{
			"bufferView":75,
			"componentType":5126,
			"count":2,
			"type":"VEC4"
		},
		{
			"bufferView":76,
			"componentType":5126,
			"count":2,
			"type":"VEC3"
		},
		{
			"bufferView":77,
			"componentType":5126,
			"count":2,
			"type":"VEC3"
		},
		{
			"bufferView":78,
			"componentType":5126,
			"count":2,
			"type":"VEC4"
		},
		{
			"bufferView":79,
			"componentType":5126,
			"count":2,
			"type":"VEC3"
		},
		{
			"bufferView":80,
			"componentType":5126,
			"count":2,
			"type":"VEC3"
		},
		{
			"bufferView":81,
			"componentType":5126,
			"count":19,
			"max":[
				0.6
			],
			"min":[
				0
			],
			"type":"SCALAR"
		},
		{
			"bufferView":82,
			"componentType":5126,
			"count":19,
			"type":"VEC4"
		},
		{
			"bufferView":83,
			"componentType":5126,
			"count":2,
			"type":"VEC3"
		},
		{
			"bufferView":84,
			"componentType":5126,
			"count":2,
			"type":"VEC3"
		},
		{
			"bufferView":85,
			"componentType":5126,
			"count":2,
			"type":"VEC4"
		},
		{
			"bufferView":86,
			"componentType":5126,
			"count":2,
			"type":"VEC3"
		},
		{
			"bufferView":87,
			"componentType":5126,
			"count":2,
			"type":"VEC3"
		},
		{
			"bufferView":88,
			"componentType":5126,
			"count":2,
			"type":"VEC4"
		},
		{
			"bufferView":89,
			"componentType":5126,
			"count":2,
			"type":"VEC3"
		},
		{
			"bufferView":90,
			"componentType":5126,
			"count":2,
			"type":"VEC3"
		},
		{
			"bufferView":91,
			"componentType":5126,
			"count":19,
			"type":"VEC4"
		},
		{
			"bufferView":92,
			"componentType":5126,
			"count":2,
			"type":"VEC3"
		},
		{
			"bufferView":93,
			"componentType":5126,
			"count":2,
			"type":"VEC3"
		},
		{
			"bufferView":94,
			"componentType":5126,
			"count":19,
			"type":"VEC4"
		},
		{
			"bufferView":95,
			"componentType":5126,
			"count":2,
			"type":"VEC3"
		},
		{
			"bufferView":96,
			"componentType":5126,
			"count":2,
			"type":"VEC3"
		},
		{
			"bufferView":97,
			"componentType":5126,
			"count":2,
			"type":"VEC4"
		},
		{
			"bufferView":98,
			"componentType":5126,
			"count":2,
			"type":"VEC3"
		},
		{
			"bufferView":99,
			"componentType":5126,
			"count":2,
			"type":"VEC3"
		},
		{
			"bufferView":100,
			"componentType":5126,
			"count":19,
			"type":"VEC4"
		},
		{
			"bufferView":101,
			"componentType":5126,
			"count":2,
			"type":"VEC3"
		},
		{
			"bufferView":102,
			"componentType":5126,
			"count":2,
			"type":"VEC3"
		},
		{
			"bufferView":103,
			"componentType":5126,
			"count":2,
			"type":"VEC4"
		},
		{
			"bufferView":104,
			"componentType":5126,
			"count":2,
			"type":"VEC3"
		},
		{
			"bufferView":105,
			"componentType":5126,
			"count":2,
			"type":"VEC3"
		},
		{
			"bufferView":106,
			"componentType":5126,
			"count":2,
			"type":"VEC4"
		},
		{
			"bufferView":107,
			"componentType":5126,
			"count":2,
			"type":"VEC3"
		},
		{
			"bufferView":108,
			"componentType":5126,
			"count":2,
			"type":"VEC3"
		},
		{
			"bufferView":109,
			"componentType":5126,
			"count":19,
			"type":"VEC4"
		},
		{
			"bufferView":110,
			"componentType":5126,
			"count":2,
			"type":"VEC3"
		},
		{
			"bufferView":111,
			"componentType":5126,
			"count":2,
			"type":"VEC3"
		},
		{
			"bufferView":112,
			"componentType":5126,
			"count":2,
			"type":"VEC4"
		},
		{
			"bufferView":113,
			"componentType":5126,
			"count":2,
			"type":"VEC3"
		},
		{
			"bufferView":114,
			"componentType":5126,
			"count":2,
			"type":"VEC3"
		},
		{
			"bufferView":115,
			"componentType":5126,
			"count":2,
			"type":"VEC4"
		},
		{
			"bufferView":116,
			"componentType":5126,
			"count":2,
			"type":"VEC3"
		},
		{
			"bufferView":117,
			"componentType":5126,
			"count":2,
			"type":"VEC3"
		},
		{
			"bufferView":118,
			"componentType":5126,
			"count":19,
			"type":"VEC4"
		},
		{
			"bufferView":119,
			"componentType":5126,
			"count":2,
			"type":"VEC3"
		},
		{
			"bufferView":120,
			"componentType":5126,
			"count":2,
			"type":"VEC3"
		},
		{
			"bufferView":121,
			"componentType":5126,
			"count":2,
			"type":"VEC4"
		},
		{
			"bufferView":122,
			"componentType":5126,
			"count":2,
			"type":"VEC3"
		},
		{
			"bufferView":123,
			"componentType":5126,
			"count":2,
			"type":"VEC3"
		},
		{
			"bufferView":124,
			"componentType":5126,
			"count":2,
			"type":"VEC4"
		},
		{
			"bufferView":125,
			"componentType":5126,
			"count":2,
			"type":"VEC3"
		},
		{
			"bufferView":126,
			"componentType":5126,
			"count":61,
			"max":[
				2
			],
			"min":[
				0
			],
			"type":"SCALAR"
		},
		{
			"bufferView":127,
			"componentType":5126,
			"count":61,
			"type":"VEC3"
		},
		{
			"bufferView":128,
			"componentType":5126,
			"count":2,
			"max":[
				2
			],
			"min":[
				0
			],
			"type":"SCALAR"
		},
		{
			"bufferView":129,
			"componentType":5126,
			"count":2,
			"type":"VEC4"
		},
		{
			"bufferView":130,
			"componentType":5126,
			"count":2,
			"type":"VEC3"
		},
		{
			"bufferView":131,
			"componentType":5126,
			"count":2,
			"type":"VEC3"
		},
		{
			"bufferView":132,
			"componentType":5126,
			"count":2,
			"type":"VEC4"
		},
		{
			"bufferView":133,
			"componentType":5126,
			"count":2,
			"type":"VEC3"
		},
		{
			"bufferView":134,
			"componentType":5126,
			"count":2,
			"type":"VEC3"
		},
		{
			"bufferView":135,
			"componentType":5126,
			"count":61,
			"type":"VEC4"
		},
		{
			"bufferView":136,
			"componentType":5126,
			"count":2,
			"type":"VEC3"
		},
		{
			"bufferView":137,
			"componentType":5126,
			"count":2,
			"type":"VEC3"
		},
		{
			"bufferView":138,
			"componentType":5126,
			"count":2,
			"type":"VEC4"
		},
		{
			"bufferView":139,
			"componentType":5126,
			"count":2,
			"type":"VEC3"
		},
		{
			"bufferView":140,
			"componentType":5126,
			"count":2,
			"type":"VEC3"
		},
		{
			"bufferView":141,
			"componentType":5126,
			"count":61,
			"type":"VEC4"
		},
		{
			"bufferView":142,
			"componentType":5126,
			"count":2,
			"type":"VEC3"
		},
		{
			"bufferView":143,
			"componentType":5126,
			"count":2,
			"type":"VEC3"
		},
		{
			"bufferView":144,
			"componentType":5126,
			"count":61,
			"type":"VEC4"
		},
		{
			"bufferView":145,
			"componentType":5126,
			"count":2,
			"type":"VEC3"
		},
		{
			"bufferView":146,
			"componentType":5126,
			"count":2,
			"type":"VEC3"
		},
		{
			"bufferView":147,
			"componentType":5126,
			"count":2,
			"type":"VEC4"
		},
		{
			"bufferView":148,
			"componentType":5126,
			"count":2,
			"type":"VEC3"
		},
		{
			"bufferView":149,
			"componentType":5126,
			"count":2,
			"type":"VEC3"
		},
		{
			"bufferView":150,
			"componentType":5126,
			"count":2,
			"type":"VEC4"
		},
		{
			"bufferView":151,
			"componentType":5126,
			"count":2,
			"type":"VEC3"
		},
		{
			"bufferView":152,
			"componentType":5126,
			"count":2,
			"type":"VEC3"
		},
		{
			"bufferView":153,
			"componentType":5126,
			"count":61,
			"type":"VEC4"
		},
		{
			"bufferView":154,
			"componentType":5126,
			"count":2,
			"type":"VEC3"
		},
		{
			"bufferView":155,
			"componentType":5126,
			"count":2,
			"type":"VEC3"
		},
		{
			"bufferView":156,
			"componentType":5126,
			"count":2,
			"type":"VEC4"
		},
		{
			"bufferView":157,
			"componentType":5126,
			"count":2,
			"type":"VEC3"
		},
		{
			"bufferView":158,
			"componentType":5126,
			"count":2,
			"type":"VEC3"
		},
		{
			"bufferView":159,
			"componentType":5126,
			"count":2,
			"type":"VEC4"
		},
		{
			"bufferView":160,
			"componentType":5126,
			"count":2,
			"type":"VEC3"
		},
		{
			"bufferView":161,
			"componentType":5126,
			"count":2,
			"type":"VEC3"
		},
		{
			"bufferView":162,
			"componentType":5126,
			"count":2,
			"type":"VEC4"
		},
		{
			"bufferView":163,
			"componentType":5126,
			"count":2,
			"type":"VEC3"
		},
		{
			"bufferView":164,
			"componentType":5126,
			"count":2,
			"type":"VEC3"
		},
		{
			"bufferView":165,
			"componentType":5126,
			"count":2,
			"type":"VEC4"
		},
		{
			"bufferView":166,
			"componentType":5126,
			"count":2,
			"type":"VEC3"
		},
		{
			"bufferView":167,
			"componentType":5126,
			"count":2,
			"type":"VEC3"
		},
		{
			"bufferView":168,
			"componentType":5126,
			"count":2,
			"type":"VEC4"
		},
		{
			"bufferView":169,
			"componentType":5126,
			"count":2,
			"type":"VEC3"
		},
		{
			"bufferView":170,
			"componentType":5126,
			"count":2,
			"type":"VEC3"
		},
		{
			"bufferView":171,
			"componentType":5126,
			"count":2,
			"type":"VEC4"
		},
		{
			"bufferView":172,
			"componentType":5126,
			"count":2,
			"type":"VEC3"
		},
		{
			"bufferView":173,
			"componentType":5126,
			"count":2,
			"type":"VEC3"
		},
		{
			"bufferView":174,
			"componentType":5126,
			"count":2,
			"type":"VEC4"
		},
		{
			"bufferView":175,
			"componentType":5126,
			"count":2,
			"type":"VEC3"
		},
		{
			"bufferView":176,
			"componentType":5126,
			"count":2,
			"type":"VEC3"
		},
		{
			"bufferView":177,
			"componentType":5126,
			"count":2,
			"type":"VEC4"
		},
		{
			"bufferView":178,
			"componentType":5126,
			"count":2,
			"type":"VEC3"
		},
		{
			"bufferView":179,
			"componentType":5126,
			"count":31,
			"max":[
				1
			],
			"min":[
				0
			],
			"type":"SCALAR"
		},
		{
			"bufferView":180,
			"componentType":5126,
			"count":31,
			"type":"VEC3"
		},
		{
			"bufferView":181,
			"componentType":5126,
			"count":31,
			"type":"VEC4"
		},
		{
			"bufferView":182,
			"componentType":5126,
			"count":2,
			"max":[
				1
			],
			"min":[
				0
			],
			"type":"SCALAR"
		},
		{
			"bufferView":183,
			"componentType":5126,
			"count":2,
			"type":"VEC3"
		},
		{
			"bufferView":184,
			"componentType":5126,
			"count":2,
			"type":"VEC3"
		},
		{
			"bufferView":185,
			"componentType":5126,
			"count":2,
			"type":"VEC4"
		},
		{
			"bufferView":186,
			"componentType":5126,
			"count":2,
			"type":"VEC3"
		},
		{
			"bufferView":187,
			"componentType":5126,
			"count":2,
			"type":"VEC3"
		},
		{
			"bufferView":188,
			"componentType":5126,
			"count":31,
			"type":"VEC4"
		},
		{
			"bufferView":189,
			"componentType":5126,
			"count":2,
			"type":"VEC3"
		},
		{
			"bufferView":190,
			"componentType":5126,
			"count":2,
			"type":"VEC3"
		},
		{
			"bufferView":191,
			"componentType":5126,
			"count":2,
			"type":"VEC4"
		},
		{
			"bufferView":192,
			"componentType":5126,
			"count":2,
			"type":"VEC3"
		},
		{
			"bufferView":193,
			"componentType":5126,
			"count":2,
			"type":"VEC3"
		},
		{
			"bufferView":194,
			"componentType":5126,
			"count":2,
			"type":"VEC4"
		},
		{
			"bufferView":195,
			"componentType":5126,
			"count":2,
			"type":"VEC3"
		},
		{
			"bufferView":196,
			"componentType":5126,
			"count":2,
			"type":"VEC3"
		},
		{
			"bufferView":197,
			"componentType":5126,
			"count":31,
			"type":"VEC4"
		},
		{
			"bufferView":198,
			"componentType":5126,
			"count":2,
			"type":"VEC3"
		},
		{
			"bufferView":199,
			"componentType":5126,
			"count":2,
			"type":"VEC3"
		},
		{
			"bufferView":200,
			"componentType":5126,
			"count":2,
			"type":"VEC4"
		},
		{
			"bufferView":201,
			"componentType":5126,
			"count":2,
			"type":"VEC3"
		},
		{
			"bufferView":202,
			"componentType":5126,
			"count":2,
			"type":"VEC3"
		},
		{
			"bufferView":203,
			"componentType":5126,
			"count":2,
			"type":"VEC4"
		},
		{
			"bufferView":204,
			"componentType":5126,
			"count":2,
			"type":"VEC3"
		},
		{
			"bufferView":205,
			"componentType":5126,
			"count":2,
			"type":"VEC3"
		},
		{
			"bufferView":206,
			"componentType":5126,
			"count":31,
			"type":"VEC4"
		},
		{
			"bufferView":207,
			"componentType":5126,
			"count":2,
			"type":"VEC3"
		},
		{
			"bufferView":208,
			"componentType":5126,
			"count":2,
			"type":"VEC3"
		},
		{
			"bufferView":209,
			"componentType":5126,
			"count":2,
			"type":"VEC4"
		},
		{
			"bufferView":210,
			"componentType":5126,
			"count":2,
			"type":"VEC3"
		},
		{
			"bufferView":211,
			"componentType":5126,
			"count":2,
			"type":"VEC3"
		},
		{
			"bufferView":212,
			"componentType":5126,
			"count":2,
			"type":"VEC4"
		},
		{
			"bufferView":213,
			"componentType":5126,
			"count":2,
			"type":"VEC3"
		},
		{
			"bufferView":214,
			"componentType":5126,
			"count":2,
			"type":"VEC3"
		},
		{
			"bufferView":215,
			"componentType":5126,
			"count":31,
			"type":"VEC4"
		},
		{
			"bufferView":216,
			"componentType":5126,
			"count":2,
			"type":"VEC3"
		},
		{
			"bufferView":217,
			"componentType":5126,
			"count":2,
			"type":"VEC3"
		},
		{
			"bufferView":218,
			"componentType":5126,
			"count":31,
			"type":"VEC4"
		},
		{
			"bufferView":219,
			"componentType":5126,
			"count":2,
			"type":"VEC3"
		},
		{
			"bufferView":220,
			"componentType":5126,
			"count":2,
			"type":"VEC3"
		},
		{
			"bufferView":221,
			"componentType":5126,
			"count":31,
			"type":"VEC4"
		},
		{
			"bufferView":222,
			"componentType":5126,
			"count":2,
			"type":"VEC3"
		},
		{
			"bufferView":223,
			"componentType":5126,
			"count":2,
			"type":"VEC3"
		},
		{
			"bufferView":224,
			"componentType":5126,
			"count":31,
			"type":"VEC4"
		},
		{
			"bufferView":225,
			"componentType":5126,
			"count":2,
			"type":"VEC3"
		},
		{
			"bufferView":226,
			"componentType":5126,
			"count":2,
			"type":"VEC3"
		},
		{
			"bufferView":227,
			"componentType":5126,
			"count":31,
			"type":"VEC4"
		},
		{
			"bufferView":228,
			"componentType":5126,
			"count":2,
			"type":"VEC3"
		},
		{
			"bufferView":229,
			"componentType":5126,
			"count":2,
			"type":"VEC3"
		},
		{
			"bufferView":230,
			"componentType":5126,
			"count":31,
			"type":"VEC4"
		},
		{
			"bufferView":231,
			"componentType":5126,
			"count":2,
			"type":"VEC3"
		}
	],
	"bufferViews":[
		{
			"buffer":0,
			"byteLength":15612,
			"byteOffset":0,
			"target":34962
		},
		{
			"buffer":0,
			"byteLength":15612,
			"byteOffset":15612,
			"target":34962
		},
		{
			"buffer":0,
			"byteLength":10408,
			"byteOffset":31224,
			"target":34962
		},
		{
			"buffer":0,
			"byteLength":5204,
			"byteOffset":41632,
			"target":34962
		},
		{
			"buffer":0,
			"byteLength":20816,
			"byteOffset":46836,
			"target":34962
		},
		{
			"buffer":0,
			"byteLength":10752,
			"byteOffset":67652,
			"target":34963
		},
		{
			"buffer":0,
			"byteLength":34428,
			"byteOffset":78404,
			"target":34962
		},
		{
			"buffer":0,
			"byteLength":34428,
			"byteOffset":112832,
			"target":34962
		},
		{
			"buffer":0,
			"byteLength":22952,
			"byteOffset":147260,
			"target":34962
		},
		{
			"buffer":0,
			"byteLength":11476,
			"byteOffset":170212,
			"target":34962
		},
		{
			"buffer":0,
			"byteLength":45904,
			"byteOffset":181688,
			"target":34962
		},
		{
			"buffer":0,
			"byteLength":20592,
			"byteOffset":227592,
			"target":34963
		},
		{
			"buffer":0,
			"byteLength":22992,
			"byteOffset":248184,
			"target":34962
		},
		{
			"buffer":0,
			"byteLength":22992,
			"byteOffset":271176,
			"target":34962
		},
		{
			"buffer":0,
			"byteLength":15328,
			"byteOffset":294168,
			"target":34962
		},
		{
			"buffer":0,
			"byteLength":7664,
			"byteOffset":309496,
			"target":34962
		},
		{
			"buffer":0,
			"byteLength":30656,
			"byteOffset":317160,
			"target":34962
		},
		{
			"buffer":0,
			"byteLength":17304,
			"byteOffset":347816,
			"target":34963
		},
		{
			"buffer":0,
			"byteLength":912,
			"byteOffset":365120,
			"target":34962
		},
		{
			"buffer":0,
			"byteLength":912,
			"byteOffset":366032,
			"target":34962
		},
		{
			"buffer":0,
			"byteLength":608,
			"byteOffset":366944,
			"target":34962
		},
		{
			"buffer":0,
			"byteLength":304,
			"byteOffset":367552,
			"target":34962
		},
		{
			"buffer":0,
			"byteLength":1216,
			"byteOffset":367856,
			"target":34962
		},
		{
			"buffer":0,
			"byteLength":528,
			"byteOffset":369072,
			"target":34963
		},
		{
			"buffer":0,
			"byteLength":11940,
			"byteOffset":369600,
			"target":34962
		},
		{
			"buffer":0,
			"byteLength":11940,
			"byteOffset":381540,
			"target":34962
		},
		{
			"buffer":0,
			"byteLength":7960,
			"byteOffset":393480,
			"target":34962
		},
		{
			"buffer":0,
			"byteLength":3980,
			"byteOffset":401440,
			"target":34962
		},
		{
			"buffer":0,
			"byteLength":15920,
			"byteOffset":405420,
			"target":34962
		},
		{
			"buffer":0,
			"byteLength":8760,
			"byteOffset":421340,
			"target":34963
		},
		{
			"buffer":0,
			"byteLength":12408,
			"byteOffset":430100,
			"target":34962
		},
		{
			"buffer":0,
			"byteLength":12408,
			"byteOffset":442508,
			"target":34962
		},
		{
			"buffer":0,
			"byteLength":8272,
			"byteOffset":454916,
			"target":34962
		},
		{
			"buffer":0,
			"byteLength":4136,
			"byteOffset":463188,
			"target":34962
		},
		{
			"buffer":0,
			"byteLength":16544,
			"byteOffset":467324,
			"target":34962
		},
		{
			"buffer":0,
			"byteLength":9216,
			"byteOffset":483868,
			"target":34963
		},
		{
			"buffer":0,
			"byteLength":3648,
			"byteOffset":493084,
			"target":34962
		},
		{
			"buffer":0,
			"byteLength":3648,
			"byteOffset":496732,
			"target":34962
		},
		{
			"buffer":0,
			"byteLength":2432,
			"byteOffset":500380,
			"target":34962
		},
		{
			"buffer":0,
			"byteLength":1216,
			"byteOffset":502812,
			"target":34962
		},
		{
			"buffer":0,
			"byteLength":4864,
			"byteOffset":504028,
			"target":34962
		},
		{
			"buffer":0,
			"byteLength":2304,
			"byteOffset":508892,
			"target":34963
		},
		{
			"buffer":0,
			"byteLength":2640,
			"byteOffset":511196,
			"target":34962
		},
		{
			"buffer":0,
			"byteLength":2640,
			"byteOffset":513836,
			"target":34962
		},
		{
			"buffer":0,
			"byteLength":1760,
			"byteOffset":516476,
			"target":34962
		},
		{
			"buffer":0,
			"byteLength":880,
			"byteOffset":518236,
			"target":34962
		},
		{
			"buffer":0,
			"byteLength":3520,
			"byteOffset":519116,
			"target":34962
		},
		{
			"buffer":0,
			"byteLength":1440,
			"byteOffset":522636,
			"target":34963
		},
		{
			"buffer":0,
			"byteLength":1920,
			"byteOffset":524076,
			"target":34962
		},
		{
			"buffer":0,
			"byteLength":1920,
			"byteOffset":525996,
			"target":34962
		},
		{
			"buffer":0,
			"byteLength":1280,
			"byteOffset":527916,
			"target":34962
		},
		{
			"buffer":0,
			"byteLength":640,
			"byteOffset":529196,
			"target":34962
		},
		{
			"buffer":0,
			"byteLength":2560,
			"byteOffset":529836,
			"target":34962
		},
		{
			"buffer":0,
			"byteLength":960,
			"byteOffset":532396,
			"target":34963
		},
		{
			"buffer":0,
			"byteLength":1176,
			"byteOffset":533356,
			"target":34962
		},
		{
			"buffer":0,
			"byteLength":1176,
			"byteOffset":534532,
			"target":34962
		},
		{
			"buffer":0,
			"byteLength":784,
			"byteOffset":535708,
			"target":34962
		},
		{
			"buffer":0,
			"byteLength":392,
			"byteOffset":536492,
			"target":34962
		},
		{
			"buffer":0,
			"byteLength":1568,
			"byteOffset":536884,
			"target":34962
		},
		{
			"buffer":0,
			"byteLength":720,
			"byteOffset":538452,
			"target":34963
		},
		{
			"buffer":0,
			"byteLength":936,
			"byteOffset":539172,
			"target":34962
		},
		{
			"buffer":0,
			"byteLength":936,
			"byteOffset":540108,
			"target":34962
		},
		{
			"buffer":0,
			"byteLength":624,
			"byteOffset":541044,
			"target":34962
		},
		{
			"buffer":0,
			"byteLength":312,
			"byteOffset":541668,
			"target":34962
		},
		{
			"buffer":0,
			"byteLength":1248,
			"byteOffset":541980,
			"target":34962
		},
		{
			"buffer":0,
			"byteLength":528,
			"byteOffset":543228,
			"target":34963
		},
		{
			"buffer":0,
			"byteLength":288,
			"byteOffset":543756,
			"target":34962
		},
		{
			"buffer":0,
			"byteLength":288,
			"byteOffset":544044,
			"target":34962
		},
		{
			"buffer":0,
			"byteLength":192,
			"byteOffset":544332,
			"target":34962
		},
		{
			"buffer":0,
			"byteLength":96,
			"byteOffset":544524,
			"target":34962
		},
		{
			"buffer":0,
			"byteLength":384,
			"byteOffset":544620,
			"target":34962
		},
		{
			"buffer":0,
			"byteLength":72,
			"byteOffset":545004,
			"target":34963
		},
		{
			"buffer":0,
			"byteLength":1088,
			"byteOffset":545076
		},
		{
			"buffer":0,
			"byteLength":8,
			"byteOffset":546164
		},
		{
			"buffer":0,
			"byteLength":24,
			"byteOffset":546172
		},
		{
			"buffer":0,
			"byteLength":32,
			"byteOffset":546196
		},
		{
			"buffer":0,
			"byteLength":24,
			"byteOffset":546228
		},
		{
			"buffer":0,
			"byteLength":24,
			"byteOffset":546252
		},
		{
			"buffer":0,
			"byteLength":32,
			"byteOffset":546276
		},
		{
			"buffer":0,
			"byteLength":24,
			"byteOffset":546308
		},
		{
			"buffer":0,
			"byteLength":24,
			"byteOffset":546332
		},
		{
			"buffer":0,
			"byteLength":76,
			"byteOffset":546356
		},
		{
			"buffer":0,
			"byteLength":304,
			"byteOffset":546432
		},
		{
			"buffer":0,
			"byteLength":24,
			"byteOffset":546736
		},
		{
			"buffer":0,
			"byteLength":24,
			"byteOffset":546760
		},
		{
			"buffer":0,
			"byteLength":32,
			"byteOffset":546784
		},
		{
			"buffer":0,
			"byteLength":24,
			"byteOffset":546816
		},
		{
			"buffer":0,
			"byteLength":24,
			"byteOffset":546840
		},
		{
			"buffer":0,
			"byteLength":32,
			"byteOffset":546864
		},
		{
			"buffer":0,
			"byteLength":24,
			"byteOffset":546896
		},
		{
			"buffer":0,
			"byteLength":24,
			"byteOffset":546920
		},
		{
			"buffer":0,
			"byteLength":304,
			"byteOffset":546944
		},
		{
			"buffer":0,
			"byteLength":24,
			"byteOffset":547248
		},
		{
			"buffer":0,
			"byteLength":24,
			"byteOffset":547272
		},
		{
			"buffer":0,
			"byteLength":304,
			"byteOffset":547296
		},
		{
			"buffer":0,
			"byteLength":24,
			"byteOffset":547600
		},
		{
			"buffer":0,
			"byteLength":24,
			"byteOffset":547624
		},
		{
			"buffer":0,
			"byteLength":32,
			"byteOffset":547648
		},
		{
			"buffer":0,
			"byteLength":24,
			"byteOffset":547680
		},
		{
			"buffer":0,
			"byteLength":24,
			"byteOffset":547704
		},
		{
			"buffer":0,
			"byteLength":304,
			"byteOffset":547728
		},
		{
			"buffer":0,
			"byteLength":24,
			"byteOffset":548032
		},
		{
			"buffer":0,
			"byteLength":24,
			"byteOffset":548056
		},
		{
			"buffer":0,
			"byteLength":32,
			"byteOffset":548080
		},
		{
			"buffer":0,
			"byteLength":24,
			"byteOffset":548112
		},
		{
			"buffer":0,
			"byteLength":24,
			"byteOffset":548136
		},
		{
			"buffer":0,
			"byteLength":32,
			"byteOffset":548160
		},
		{
			"buffer":0,
			"byteLength":24,
			"byteOffset":548192
		},
		{
			"buffer":0,
			"byteLength":24,
			"byteOffset":548216
		},
		{
			"buffer":0,
			"byteLength":304,
			"byteOffset":548240
		},
		{
			"buffer":0,
			"byteLength":24,
			"byteOffset":548544
		},
		{
			"buffer":0,
			"byteLength":24,
			"byteOffset":548568
		},
		{
			"buffer":0,
			"byteLength":32,
			"byteOffset":548592
		},
		{
			"buffer":0,
			"byteLength":24,
			"byteOffset":548624
		},
		{
			"buffer":0,
			"byteLength":24,
			"byteOffset":548648
		},
		{
			"buffer":0,
			"byteLength":32,
			"byteOffset":548672
		},
		{
			"buffer":0,
			"byteLength":24,
			"byteOffset":548704
		},
		{
			"buffer":0,
			"byteLength":24,
			"byteOffset":548728
		},
		{
			"buffer":0,
			"byteLength":304,
			"byteOffset":548752
		},
		{
			"buffer":0,
			"byteLength":24,
			"byteOffset":549056
		},
		{
			"buffer":0,
			"byteLength":24,
			"byteOffset":549080
		},
		{
			"buffer":0,
			"byteLength":32,
			"byteOffset":549104
		},
		{
			"buffer":0,
			"byteLength":24,
			"byteOffset":549136
		},
		{
			"buffer":0,
			"byteLength":24,
			"byteOffset":549160
		},
		{
			"buffer":0,
			"byteLength":32,
			"byteOffset":549184
		},
		{
			"buffer":0,
			"byteLength":24,
			"byteOffset":549216
		},
		{
			"buffer":0,
			"byteLength":244,
			"byteOffset":549240
		},
		{
			"buffer":0,
			"byteLength":732,
			"byteOffset":549484
		},
		{
			"buffer":0,
			"byteLength":8,
			"byteOffset":550216
		},
		{
			"buffer":0,
			"byteLength":32,
			"byteOffset":550224
		},
		{
			"buffer":0,
			"byteLength":24,
			"byteOffset":550256
		},
		{
			"buffer":0,
			"byteLength":24,
			"byteOffset":550280
		},
		{
			"buffer":0,
			"byteLength":32,
			"byteOffset":550304
		},
		{
			"buffer":0,
			"byteLength":24,
			"byteOffset":550336
		},
		{
			"buffer":0,
			"byteLength":24,
			"byteOffset":550360
		},
		{
			"buffer":0,
			"byteLength":976,
			"byteOffset":550384
		},
		{
			"buffer":0,
			"byteLength":24,
			"byteOffset":551360
		},
		{
			"buffer":0,
			"byteLength":24,
			"byteOffset":551384
		},
		{
			"buffer":0,
			"byteLength":32,
			"byteOffset":551408
		},
		{
			"buffer":0,
			"byteLength":24,
			"byteOffset":551440
		},
		{
			"buffer":0,
			"byteLength":24,
			"byteOffset":551464
		},
		{
			"buffer":0,
			"byteLength":976,
			"byteOffset":551488
		},
		{
			"buffer":0,
			"byteLength":24,
			"byteOffset":552464
		},
		{
			"buffer":0,
			"byteLength":24,
			"byteOffset":552488
		},
		{
			"buffer":0,
			"byteLength":976,
			"byteOffset":552512
		},
		{
			"buffer":0,
			"byteLength":24,
			"byteOffset":553488
		},
		{
			"buffer":0,
			"byteLength":24,
			"byteOffset":553512
		},
		{
			"buffer":0,
			"byteLength":32,
			"byteOffset":553536
		},
		{
			"buffer":0,
			"byteLength":24,
			"byteOffset":553568
		},
		{
			"buffer":0,
			"byteLength":24,
			"byteOffset":553592
		},
		{
			"buffer":0,
			"byteLength":32,
			"byteOffset":553616
		},
		{
			"buffer":0,
			"byteLength":24,
			"byteOffset":553648
		},
		{
			"buffer":0,
			"byteLength":24,
			"byteOffset":553672
		},
		{
			"buffer":0,
			"byteLength":976,
			"byteOffset":553696
		},
		{
			"buffer":0,
			"byteLength":24,
			"byteOffset":554672
		},
		{
			"buffer":0,
			"byteLength":24,
			"byteOffset":554696
		},
		{
			"buffer":0,
			"byteLength":32,
			"byteOffset":554720
		},
		{
			"buffer":0,
			"byteLength":24,
			"byteOffset":554752
		},
		{
			"buffer":0,
			"byteLength":24,
			"byteOffset":554776
		},
		{
			"buffer":0,
			"byteLength":32,
			"byteOffset":554800
		},
		{
			"buffer":0,
			"byteLength":24,
			"byteOffset":554832
		},
		{
			"buffer":0,
			"byteLength":24,
			"byteOffset":554856
		},
		{
			"buffer":0,
			"byteLength":32,
			"byteOffset":554880
		},
		{
			"buffer":0,
			"byteLength":24,
			"byteOffset":554912
		},
		{
			"buffer":0,
			"byteLength":24,
			"byteOffset":554936
		},
		{
			"buffer":0,
			"byteLength":32,
			"byteOffset":554960
		},
		{
			"buffer":0,
			"byteLength":24,
			"byteOffset":554992
		},
		{
			"buffer":0,
			"byteLength":24,
			"byteOffset":555016
		},
		{
			"buffer":0,
			"byteLength":32,
			"byteOffset":555040
		},
		{
			"buffer":0,
			"byteLength":24,
			"byteOffset":555072
		},
		{
			"buffer":0,
			"byteLength":24,
			"byteOffset":555096
		},
		{
			"buffer":0,
			"byteLength":32,
			"byteOffset":555120
		},
		{
			"buffer":0,
			"byteLength":24,
			"byteOffset":555152
		},
		{
			"buffer":0,
			"byteLength":24,
			"byteOffset":555176
		},
		{
			"buffer":0,
			"byteLength":32,
			"byteOffset":555200
		},
		{
			"buffer":0,
			"byteLength":24,
			"byteOffset":555232
		},
		{
			"buffer":0,
			"byteLength":24,
			"byteOffset":555256
		},
		{
			"buffer":0,
			"byteLength":32,
			"byteOffset":555280
		},
		{
			"buffer":0,
			"byteLength":24,
			"byteOffset":555312
		},
		{
			"buffer":0,
			"byteLength":124,
			"byteOffset":555336
		},
		{
			"buffer":0,
			"byteLength":372,
			"byteOffset":555460
		},
		{
			"buffer":0,
			"byteLength":496,
			"byteOffset":555832
		},
		{
			"buffer":0,
			"byteLength":8,
			"byteOffset":556328
		},
		{
			"buffer":0,
			"byteLength":24,
			"byteOffset":556336
		},
		{
			"buffer":0,
			"byteLength":24,
			"byteOffset":556360
		},
		{
			"buffer":0,
			"byteLength":32,
			"byteOffset":556384
		},
		{
			"buffer":0,
			"byteLength":24,
			"byteOffset":556416
		},
		{
			"buffer":0,
			"byteLength":24,
			"byteOffset":556440
		},
		{
			"buffer":0,
			"byteLength":496,
			"byteOffset":556464
		},
		{
			"buffer":0,
			"byteLength":24,
			"byteOffset":556960
		},
		{
			"buffer":0,
			"byteLength":24,
			"byteOffset":556984
		},
		{
			"buffer":0,
			"byteLength":32,
			"byteOffset":557008
		},
		{
			"buffer":0,
			"byteLength":24,
			"byteOffset":557040
		},
		{
			"buffer":0,
			"byteLength":24,
			"byteOffset":557064
		},
		{
			"buffer":0,
			"byteLength":32,
			"byteOffset":557088
		},
		{
			"buffer":0,
			"byteLength":24,
			"byteOffset":557120
		},
		{
			"buffer":0,
			"byteLength":24,
			"byteOffset":557144
		},
		{
			"buffer":0,
			"byteLength":496,
			"byteOffset":557168
		},
		{
			"buffer":0,
			"byteLength":24,
			"byteOffset":557664
		},
		{
			"buffer":0,
			"byteLength":24,
			"byteOffset":557688
		},
		{
			"buffer":0,
			"byteLength":32,
			"byteOffset":557712
		},
		{
			"buffer":0,
			"byteLength":24,
			"byteOffset":557744
		},
		{
			"buffer":0,
			"byteLength":24,
			"byteOffset":557768
		},
		{
			"buffer":0,
			"byteLength":32,
			"byteOffset":557792
		},
		{
			"buffer":0,
			"byteLength":24,
			"byteOffset":557824
		},
		{
			"buffer":0,
			"byteLength":24,
			"byteOffset":557848
		},
		{
			"buffer":0,
			"byteLength":496,
			"byteOffset":557872
		},
		{
			"buffer":0,
			"byteLength":24,
			"byteOffset":558368
		},
		{
			"buffer":0,
			"byteLength":24,
			"byteOffset":558392
		},
		{
			"buffer":0,
			"byteLength":32,
			"byteOffset":558416
		},
		{
			"buffer":0,
			"byteLength":24,
			"byteOffset":558448
		},
		{
			"buffer":0,
			"byteLength":24,
			"byteOffset":558472
		},
		{
			"buffer":0,
			"byteLength":32,
			"byteOffset":558496
		},
		{
			"buffer":0,
			"byteLength":24,
			"byteOffset":558528
		},
		{
			"buffer":0,
			"byteLength":24,
			"byteOffset":558552
		},
		{
			"buffer":0,
			"byteLength":496,
			"byteOffset":558576
		},
		{
			"buffer":0,
			"byteLength":24,
			"byteOffset":559072
		},
		{
			"buffer":0,
			"byteLength":24,
			"byteOffset":559096
		},
		{
			"buffer":0,
			"byteLength":496,
			"byteOffset":559120
		},
		{
			"buffer":0,
			"byteLength":24,
			"byteOffset":559616
		},
		{
			"buffer":0,
			"byteLength":24,
			"byteOffset":559640
		},
		{
			"buffer":0,
			"byteLength":496,
			"byteOffset":559664
		},
		{
			"buffer":0,
			"byteLength":24,
			"byteOffset":560160
		},
		{
			"buffer":0,
			"byteLength":24,
			"byteOffset":560184
		},
		{
			"buffer":0,
			"byteLength":496,
			"byteOffset":560208
		},
		{
			"buffer":0,
			"byteLength":24,
			"byteOffset":560704
		},
		{
			"buffer":0,
			"byteLength":24,
			"byteOffset":560728
		},
		{
			"buffer":0,
			"byteLength":496,
			"byteOffset":560752
		},
		{
			"buffer":0,
			"byteLength":24,
			"byteOffset":561248
		},
		{
			"buffer":0,
			"byteLength":24,
			"byteOffset":561272
		},
		{
			"buffer":0,
			"byteLength":496,
			"byteOffset":561296
		},
		{
			"buffer":0,
			"byteLength":24,
			"byteOffset":561792
		}
	],
	"samplers":[
		{
			"magFilter":9729,
			"minFilter":9987
		}
	],
	"buffers":[
		{
			"byteLength":561816,
			"uri":"elmesia.bin"
		}
	]
}
