{
	"asset":{
		"generator":"Khronos glTF Blender I/O v4.2.57",
		"version":"2.0"
	},
	"extensionsUsed":[
		"KHR_materials_clearcoat",
		"KHR_materials_emissive_strength",
		"KHR_materials_sheen"
	],
	"scene":0,
	"scenes":[
		{
			"name":"Scene",
			"nodes":[
				18
			]
		}
	],
	"nodes":[
		{
			"name":"head",
			"scale":[
				1,
				0.9999999403953552,
				1
			],
			"translation":[
				0,
				0.08999991416931152,
				0
			]
		},
		{
			"children":[
				0
			],
			"name":"neck",
			"translation":[
				0,
				0.18900001049041748,
				0
			]
		},
		{
			"name":"hand.R",
			"rotation":[
				-0.0023571928031742573,
				-0.016418326646089554,
				0.017660995945334435,
				0.9997064471244812
			],
			"scale":[
				1,
				0.9999999403953552,
				1
			],
			"translation":[
				9.953510016202927e-09,
				0.22624915838241577,
				-2.7939677238464355e-09
			]
		},
		{
			"children":[
				2
			],
			"name":"forearm.R",
			"rotation":[
				0.05022275820374489,
				-0.05592823028564453,
				0.06416800618171692,
				0.9951040744781494
			],
			"scale":[
				0.9999998807907104,
				1,
				1
			],
			"translation":[
				6.449408829212189e-08,
				0.24731169641017914,
				4.190951585769653e-09
			]
		},
		{
			"children":[
				3
			],
			"name":"upper_arm.R",
			"rotation":[
				0.9912914633750916,
				0.09286590665578842,
				0.09286509454250336,
				0.00965566374361515
			],
			"scale":[
				1.0000051259994507,
				1.0000001192092896,
				1.0000001192092896
			],
			"translation":[
				0.15479999780654907,
				0.14399993419647217,
				0
			]
		},
		{
			"name":"hand.L",
			"rotation":[
				-0.0023571928031742573,
				0.016418326646089554,
				-0.017660995945334435,
				0.9997064471244812
			],
			"scale":[
				1,
				0.9999999403953552,
				1
			],
			"translation":[
				-9.953510016202927e-09,
				0.22624915838241577,
				-2.7939677238464355e-09
			]
		},
		{
			"children":[
				5
			],
			"name":"forearm.L",
			"rotation":[
				0.05022275820374489,
				0.05592823028564453,
				-0.06416800618171692,
				0.9951040744781494
			],
			"scale":[
				0.9999998807907104,
				1,
				1
			],
			"translation":[
				-6.449408829212189e-08,
				0.24731169641017914,
				4.190951585769653e-09
			]
		},
		{
			"children":[
				6
			],
			"name":"upper_arm.L",
			"rotation":[
				0.9912914633750916,
				-0.09286590665578842,
				-0.09286509454250336,
				0.00965566374361515
			],
			"scale":[
				1.0000051259994507,
				1.0000001192092896,
				1.0000001192092896
			],
			"translation":[
				-0.15479999780654907,
				0.14399993419647217,
				0
			]
		},
		{
			"children":[
				1,
				4,
				7
			],
			"name":"chest",
			"translation":[
				0,
				0.15299999713897705,
				0
			]
		},
		{
			"children":[
				8
			],
			"name":"spine",
			"translation":[
				0,
				0.13499999046325684,
				0
			]
		},
		{
			"name":"foot.R",
			"rotation":[
				0.5914181470870972,
				2.0654286614352202e-10,
				2.8161981080465637e-10,
				0.8063650727272034
			],
			"translation":[
				-7.394421075446189e-09,
				0.3695308268070221,
				4.89421836391557e-11
			]
		},
		{
			"children":[
				10
			],
			"name":"shin.R",
			"rotation":[
				-0.04152866080403328,
				-0.010850721038877964,
				0.010284051299095154,
				0.9990254640579224
			],
			"scale":[
				1,
				1.0000001192092896,
				1.0000001192092896
			],
			"translation":[
				-4.511093720793724e-09,
				0.3692430555820465,
				2.3283064365386963e-10
			]
		},
		{
			"children":[
				11
			],
			"name":"thigh.R",
			"rotation":[
				-0.9997796416282654,
				-0.010571165010333061,
				-0.010571296326816082,
				0.014739511534571648
			],
			"scale":[
				1.0000001192092896,
				0.9999999403953552,
				1.000000238418579
			],
			"translation":[
				0.09107999503612518,
				-0.018000006675720215,
				0
			]
		},
		{
			"name":"foot.L",
			"rotation":[
				0.5914181470870972,
				-2.0654286614352202e-10,
				-2.8161981080465637e-10,
				0.8063650727272034
			],
			"translation":[
				7.394421075446189e-09,
				0.3695308268070221,
				4.89421836391557e-11
			]
		},
		{
			"children":[
				13
			],
			"name":"shin.L",
			"rotation":[
				-0.04152866080403328,
				0.010850721038877964,
				-0.010284051299095154,
				0.9990254640579224
			],
			"scale":[
				1,
				1.0000001192092896,
				1.0000001192092896
			],
			"translation":[
				4.511093720793724e-09,
				0.3692430555820465,
				2.3283064365386963e-10
			]
		},
		{
			"children":[
				14
			],
			"name":"thigh.L",
			"rotation":[
				-0.9997796416282654,
				0.010571165010333061,
				0.010571296326816082,
				0.014739511534571648
			],
			"scale":[
				1.0000001192092896,
				0.9999999403953552,
				1.000000238418579
			],
			"translation":[
				-0.09107999503612518,
				-0.018000006675720215,
				0
			]
		},
		{
			"children":[
				9,
				12,
				15
			],
			"name":"hips",
			"translation":[
				0,
				0.8370000123977661,
				0
			]
		},
		{
			"mesh":0,
			"name":"eren",
			"skin":0
		},
		{
			"children":[
				17,
				16
			],
			"name":"eren_rig"
		}
	],
	"animations":[
		{
			"channels":[
				{
					"sampler":0,
					"target":{
						"node":16,
						"path":"translation"
					}
				},
				{
					"sampler":1,
					"target":{
						"node":16,
						"path":"rotation"
					}
				},
				{
					"sampler":2,
					"target":{
						"node":16,
						"path":"scale"
					}
				},
				{
					"sampler":3,
					"target":{
						"node":9,
						"path":"translation"
					}
				},
				{
					"sampler":4,
					"target":{
						"node":9,
						"path":"rotation"
					}
				},
				{
					"sampler":5,
					"target":{
						"node":9,
						"path":"scale"
					}
				},
				{
					"sampler":6,
					"target":{
						"node":8,
						"path":"translation"
					}
				},
				{
					"sampler":7,
					"target":{
						"node":8,
						"path":"rotation"
					}
				},
				{
					"sampler":8,
					"target":{
						"node":8,
						"path":"scale"
					}
				},
				{
					"sampler":9,
					"target":{
						"node":1,
						"path":"translation"
					}
				},
				{
					"sampler":10,
					"target":{
						"node":1,
						"path":"rotation"
					}
				},
				{
					"sampler":11,
					"target":{
						"node":1,
						"path":"scale"
					}
				},
				{
					"sampler":12,
					"target":{
						"node":0,
						"path":"translation"
					}
				},
				{
					"sampler":13,
					"target":{
						"node":0,
						"path":"rotation"
					}
				},
				{
					"sampler":14,
					"target":{
						"node":0,
						"path":"scale"
					}
				},
				{
					"sampler":15,
					"target":{
						"node":4,
						"path":"translation"
					}
				},
				{
					"sampler":16,
					"target":{
						"node":4,
						"path":"rotation"
					}
				},
				{
					"sampler":17,
					"target":{
						"node":4,
						"path":"scale"
					}
				},
				{
					"sampler":18,
					"target":{
						"node":3,
						"path":"translation"
					}
				},
				{
					"sampler":19,
					"target":{
						"node":3,
						"path":"rotation"
					}
				},
				{
					"sampler":20,
					"target":{
						"node":3,
						"path":"scale"
					}
				},
				{
					"sampler":21,
					"target":{
						"node":2,
						"path":"translation"
					}
				},
				{
					"sampler":22,
					"target":{
						"node":2,
						"path":"rotation"
					}
				},
				{
					"sampler":23,
					"target":{
						"node":2,
						"path":"scale"
					}
				},
				{
					"sampler":24,
					"target":{
						"node":7,
						"path":"translation"
					}
				},
				{
					"sampler":25,
					"target":{
						"node":7,
						"path":"rotation"
					}
				},
				{
					"sampler":26,
					"target":{
						"node":7,
						"path":"scale"
					}
				},
				{
					"sampler":27,
					"target":{
						"node":6,
						"path":"translation"
					}
				},
				{
					"sampler":28,
					"target":{
						"node":6,
						"path":"rotation"
					}
				},
				{
					"sampler":29,
					"target":{
						"node":6,
						"path":"scale"
					}
				},
				{
					"sampler":30,
					"target":{
						"node":5,
						"path":"translation"
					}
				},
				{
					"sampler":31,
					"target":{
						"node":5,
						"path":"rotation"
					}
				},
				{
					"sampler":32,
					"target":{
						"node":5,
						"path":"scale"
					}
				},
				{
					"sampler":33,
					"target":{
						"node":12,
						"path":"translation"
					}
				},
				{
					"sampler":34,
					"target":{
						"node":12,
						"path":"rotation"
					}
				},
				{
					"sampler":35,
					"target":{
						"node":12,
						"path":"scale"
					}
				},
				{
					"sampler":36,
					"target":{
						"node":11,
						"path":"translation"
					}
				},
				{
					"sampler":37,
					"target":{
						"node":11,
						"path":"rotation"
					}
				},
				{
					"sampler":38,
					"target":{
						"node":11,
						"path":"scale"
					}
				},
				{
					"sampler":39,
					"target":{
						"node":10,
						"path":"translation"
					}
				},
				{
					"sampler":40,
					"target":{
						"node":10,
						"path":"rotation"
					}
				},
				{
					"sampler":41,
					"target":{
						"node":10,
						"path":"scale"
					}
				},
				{
					"sampler":42,
					"target":{
						"node":15,
						"path":"translation"
					}
				},
				{
					"sampler":43,
					"target":{
						"node":15,
						"path":"rotation"
					}
				},
				{
					"sampler":44,
					"target":{
						"node":15,
						"path":"scale"
					}
				},
				{
					"sampler":45,
					"target":{
						"node":14,
						"path":"translation"
					}
				},
				{
					"sampler":46,
					"target":{
						"node":14,
						"path":"rotation"
					}
				},
				{
					"sampler":47,
					"target":{
						"node":14,
						"path":"scale"
					}
				},
				{
					"sampler":48,
					"target":{
						"node":13,
						"path":"translation"
					}
				},
				{
					"sampler":49,
					"target":{
						"node":13,
						"path":"rotation"
					}
				},
				{
					"sampler":50,
					"target":{
						"node":13,
						"path":"scale"
					}
				}
			],
			"name":"attack",
			"samplers":[
				{
					"input":85,
					"interpolation":"STEP",
					"output":86
				},
				{
					"input":85,
					"interpolation":"STEP",
					"output":87
				},
				{
					"input":85,
					"interpolation":"STEP",
					"output":88
				},
				{
					"input":85,
					"interpolation":"STEP",
					"output":89
				},
				{
					"input":85,
					"interpolation":"STEP",
					"output":90
				},
				{
					"input":85,
					"interpolation":"STEP",
					"output":91
				},
				{
					"input":85,
					"interpolation":"STEP",
					"output":92
				},
				{
					"input":93,
					"interpolation":"LINEAR",
					"output":94
				},
				{
					"input":85,
					"interpolation":"STEP",
					"output":95
				},
				{
					"input":85,
					"interpolation":"STEP",
					"output":96
				},
				{
					"input":85,
					"interpolation":"STEP",
					"output":97
				},
				{
					"input":85,
					"interpolation":"STEP",
					"output":98
				},
				{
					"input":85,
					"interpolation":"STEP",
					"output":99
				},
				{
					"input":85,
					"interpolation":"STEP",
					"output":100
				},
				{
					"input":85,
					"interpolation":"STEP",
					"output":101
				},
				{
					"input":85,
					"interpolation":"STEP",
					"output":102
				},
				{
					"input":93,
					"interpolation":"LINEAR",
					"output":103
				},
				{
					"input":85,
					"interpolation":"STEP",
					"output":104
				},
				{
					"input":85,
					"interpolation":"STEP",
					"output":105
				},
				{
					"input":93,
					"interpolation":"LINEAR",
					"output":106
				},
				{
					"input":85,
					"interpolation":"STEP",
					"output":107
				},
				{
					"input":85,
					"interpolation":"STEP",
					"output":108
				},
				{
					"input":85,
					"interpolation":"STEP",
					"output":109
				},
				{
					"input":85,
					"interpolation":"STEP",
					"output":110
				},
				{
					"input":85,
					"interpolation":"STEP",
					"output":111
				},
				{
					"input":93,
					"interpolation":"LINEAR",
					"output":112
				},
				{
					"input":85,
					"interpolation":"STEP",
					"output":113
				},
				{
					"input":85,
					"interpolation":"STEP",
					"output":114
				},
				{
					"input":85,
					"interpolation":"STEP",
					"output":115
				},
				{
					"input":85,
					"interpolation":"STEP",
					"output":116
				},
				{
					"input":85,
					"interpolation":"STEP",
					"output":117
				},
				{
					"input":85,
					"interpolation":"STEP",
					"output":118
				},
				{
					"input":85,
					"interpolation":"STEP",
					"output":119
				},
				{
					"input":85,
					"interpolation":"STEP",
					"output":120
				},
				{
					"input":93,
					"interpolation":"LINEAR",
					"output":121
				},
				{
					"input":85,
					"interpolation":"STEP",
					"output":122
				},
				{
					"input":85,
					"interpolation":"LINEAR",
					"output":123
				},
				{
					"input":85,
					"interpolation":"LINEAR",
					"output":124
				},
				{
					"input":85,
					"interpolation":"STEP",
					"output":125
				},
				{
					"input":85,
					"interpolation":"LINEAR",
					"output":126
				},
				{
					"input":85,
					"interpolation":"LINEAR",
					"output":127
				},
				{
					"input":85,
					"interpolation":"STEP",
					"output":128
				},
				{
					"input":85,
					"interpolation":"STEP",
					"output":129
				},
				{
					"input":93,
					"interpolation":"LINEAR",
					"output":130
				},
				{
					"input":85,
					"interpolation":"STEP",
					"output":131
				},
				{
					"input":85,
					"interpolation":"LINEAR",
					"output":132
				},
				{
					"input":85,
					"interpolation":"LINEAR",
					"output":133
				},
				{
					"input":85,
					"interpolation":"STEP",
					"output":134
				},
				{
					"input":85,
					"interpolation":"LINEAR",
					"output":135
				},
				{
					"input":85,
					"interpolation":"LINEAR",
					"output":136
				},
				{
					"input":85,
					"interpolation":"STEP",
					"output":137
				}
			]
		},
		{
			"channels":[
				{
					"sampler":0,
					"target":{
						"node":16,
						"path":"translation"
					}
				},
				{
					"sampler":1,
					"target":{
						"node":16,
						"path":"rotation"
					}
				},
				{
					"sampler":2,
					"target":{
						"node":16,
						"path":"scale"
					}
				},
				{
					"sampler":3,
					"target":{
						"node":9,
						"path":"translation"
					}
				},
				{
					"sampler":4,
					"target":{
						"node":9,
						"path":"rotation"
					}
				},
				{
					"sampler":5,
					"target":{
						"node":9,
						"path":"scale"
					}
				},
				{
					"sampler":6,
					"target":{
						"node":8,
						"path":"translation"
					}
				},
				{
					"sampler":7,
					"target":{
						"node":8,
						"path":"rotation"
					}
				},
				{
					"sampler":8,
					"target":{
						"node":8,
						"path":"scale"
					}
				},
				{
					"sampler":9,
					"target":{
						"node":1,
						"path":"translation"
					}
				},
				{
					"sampler":10,
					"target":{
						"node":1,
						"path":"rotation"
					}
				},
				{
					"sampler":11,
					"target":{
						"node":1,
						"path":"scale"
					}
				},
				{
					"sampler":12,
					"target":{
						"node":0,
						"path":"translation"
					}
				},
				{
					"sampler":13,
					"target":{
						"node":0,
						"path":"rotation"
					}
				},
				{
					"sampler":14,
					"target":{
						"node":0,
						"path":"scale"
					}
				},
				{
					"sampler":15,
					"target":{
						"node":4,
						"path":"translation"
					}
				},
				{
					"sampler":16,
					"target":{
						"node":4,
						"path":"rotation"
					}
				},
				{
					"sampler":17,
					"target":{
						"node":4,
						"path":"scale"
					}
				},
				{
					"sampler":18,
					"target":{
						"node":3,
						"path":"translation"
					}
				},
				{
					"sampler":19,
					"target":{
						"node":3,
						"path":"rotation"
					}
				},
				{
					"sampler":20,
					"target":{
						"node":3,
						"path":"scale"
					}
				},
				{
					"sampler":21,
					"target":{
						"node":2,
						"path":"translation"
					}
				},
				{
					"sampler":22,
					"target":{
						"node":2,
						"path":"rotation"
					}
				},
				{
					"sampler":23,
					"target":{
						"node":2,
						"path":"scale"
					}
				},
				{
					"sampler":24,
					"target":{
						"node":7,
						"path":"translation"
					}
				},
				{
					"sampler":25,
					"target":{
						"node":7,
						"path":"rotation"
					}
				},
				{
					"sampler":26,
					"target":{
						"node":7,
						"path":"scale"
					}
				},
				{
					"sampler":27,
					"target":{
						"node":6,
						"path":"translation"
					}
				},
				{
					"sampler":28,
					"target":{
						"node":6,
						"path":"rotation"
					}
				},
				{
					"sampler":29,
					"target":{
						"node":6,
						"path":"scale"
					}
				},
				{
					"sampler":30,
					"target":{
						"node":5,
						"path":"translation"
					}
				},
				{
					"sampler":31,
					"target":{
						"node":5,
						"path":"rotation"
					}
				},
				{
					"sampler":32,
					"target":{
						"node":5,
						"path":"scale"
					}
				},
				{
					"sampler":33,
					"target":{
						"node":12,
						"path":"translation"
					}
				},
				{
					"sampler":34,
					"target":{
						"node":12,
						"path":"rotation"
					}
				},
				{
					"sampler":35,
					"target":{
						"node":12,
						"path":"scale"
					}
				},
				{
					"sampler":36,
					"target":{
						"node":11,
						"path":"translation"
					}
				},
				{
					"sampler":37,
					"target":{
						"node":11,
						"path":"rotation"
					}
				},
				{
					"sampler":38,
					"target":{
						"node":11,
						"path":"scale"
					}
				},
				{
					"sampler":39,
					"target":{
						"node":10,
						"path":"translation"
					}
				},
				{
					"sampler":40,
					"target":{
						"node":10,
						"path":"rotation"
					}
				},
				{
					"sampler":41,
					"target":{
						"node":10,
						"path":"scale"
					}
				},
				{
					"sampler":42,
					"target":{
						"node":15,
						"path":"translation"
					}
				},
				{
					"sampler":43,
					"target":{
						"node":15,
						"path":"rotation"
					}
				},
				{
					"sampler":44,
					"target":{
						"node":15,
						"path":"scale"
					}
				},
				{
					"sampler":45,
					"target":{
						"node":14,
						"path":"translation"
					}
				},
				{
					"sampler":46,
					"target":{
						"node":14,
						"path":"rotation"
					}
				},
				{
					"sampler":47,
					"target":{
						"node":14,
						"path":"scale"
					}
				},
				{
					"sampler":48,
					"target":{
						"node":13,
						"path":"translation"
					}
				},
				{
					"sampler":49,
					"target":{
						"node":13,
						"path":"rotation"
					}
				},
				{
					"sampler":50,
					"target":{
						"node":13,
						"path":"scale"
					}
				}
			],
			"name":"idle",
			"samplers":[
				{
					"input":138,
					"interpolation":"LINEAR",
					"output":139
				},
				{
					"input":140,
					"interpolation":"STEP",
					"output":141
				},
				{
					"input":140,
					"interpolation":"STEP",
					"output":142
				},
				{
					"input":140,
					"interpolation":"STEP",
					"output":143
				},
				{
					"input":140,
					"interpolation":"STEP",
					"output":144
				},
				{
					"input":140,
					"interpolation":"STEP",
					"output":145
				},
				{
					"input":140,
					"interpolation":"STEP",
					"output":146
				},
				{
					"input":138,
					"interpolation":"LINEAR",
					"output":147
				},
				{
					"input":140,
					"interpolation":"STEP",
					"output":148
				},
				{
					"input":140,
					"interpolation":"STEP",
					"output":149
				},
				{
					"input":140,
					"interpolation":"STEP",
					"output":150
				},
				{
					"input":140,
					"interpolation":"STEP",
					"output":151
				},
				{
					"input":140,
					"interpolation":"STEP",
					"output":152
				},
				{
					"input":138,
					"interpolation":"LINEAR",
					"output":153
				},
				{
					"input":140,
					"interpolation":"STEP",
					"output":154
				},
				{
					"input":140,
					"interpolation":"STEP",
					"output":155
				},
				{
					"input":138,
					"interpolation":"LINEAR",
					"output":156
				},
				{
					"input":140,
					"interpolation":"STEP",
					"output":157
				},
				{
					"input":140,
					"interpolation":"STEP",
					"output":158
				},
				{
					"input":140,
					"interpolation":"STEP",
					"output":159
				},
				{
					"input":140,
					"interpolation":"STEP",
					"output":160
				},
				{
					"input":140,
					"interpolation":"STEP",
					"output":161
				},
				{
					"input":140,
					"interpolation":"STEP",
					"output":162
				},
				{
					"input":140,
					"interpolation":"STEP",
					"output":163
				},
				{
					"input":140,
					"interpolation":"STEP",
					"output":164
				},
				{
					"input":138,
					"interpolation":"LINEAR",
					"output":165
				},
				{
					"input":140,
					"interpolation":"STEP",
					"output":166
				},
				{
					"input":140,
					"interpolation":"STEP",
					"output":167
				},
				{
					"input":140,
					"interpolation":"STEP",
					"output":168
				},
				{
					"input":140,
					"interpolation":"STEP",
					"output":169
				},
				{
					"input":140,
					"interpolation":"STEP",
					"output":170
				},
				{
					"input":140,
					"interpolation":"STEP",
					"output":171
				},
				{
					"input":140,
					"interpolation":"STEP",
					"output":172
				},
				{
					"input":140,
					"interpolation":"STEP",
					"output":173
				},
				{
					"input":140,
					"interpolation":"STEP",
					"output":174
				},
				{
					"input":140,
					"interpolation":"STEP",
					"output":175
				},
				{
					"input":140,
					"interpolation":"STEP",
					"output":176
				},
				{
					"input":140,
					"interpolation":"STEP",
					"output":177
				},
				{
					"input":140,
					"interpolation":"STEP",
					"output":178
				},
				{
					"input":140,
					"interpolation":"STEP",
					"output":179
				},
				{
					"input":140,
					"interpolation":"STEP",
					"output":180
				},
				{
					"input":140,
					"interpolation":"STEP",
					"output":181
				},
				{
					"input":140,
					"interpolation":"STEP",
					"output":182
				},
				{
					"input":140,
					"interpolation":"STEP",
					"output":183
				},
				{
					"input":140,
					"interpolation":"STEP",
					"output":184
				},
				{
					"input":140,
					"interpolation":"STEP",
					"output":185
				},
				{
					"input":140,
					"interpolation":"STEP",
					"output":186
				},
				{
					"input":140,
					"interpolation":"STEP",
					"output":187
				},
				{
					"input":140,
					"interpolation":"STEP",
					"output":188
				},
				{
					"input":140,
					"interpolation":"STEP",
					"output":189
				},
				{
					"input":140,
					"interpolation":"STEP",
					"output":190
				}
			]
		},
		{
			"channels":[
				{
					"sampler":0,
					"target":{
						"node":16,
						"path":"translation"
					}
				},
				{
					"sampler":1,
					"target":{
						"node":16,
						"path":"rotation"
					}
				},
				{
					"sampler":2,
					"target":{
						"node":16,
						"path":"scale"
					}
				},
				{
					"sampler":3,
					"target":{
						"node":9,
						"path":"translation"
					}
				},
				{
					"sampler":4,
					"target":{
						"node":9,
						"path":"rotation"
					}
				},
				{
					"sampler":5,
					"target":{
						"node":9,
						"path":"scale"
					}
				},
				{
					"sampler":6,
					"target":{
						"node":8,
						"path":"translation"
					}
				},
				{
					"sampler":7,
					"target":{
						"node":8,
						"path":"rotation"
					}
				},
				{
					"sampler":8,
					"target":{
						"node":8,
						"path":"scale"
					}
				},
				{
					"sampler":9,
					"target":{
						"node":1,
						"path":"translation"
					}
				},
				{
					"sampler":10,
					"target":{
						"node":1,
						"path":"rotation"
					}
				},
				{
					"sampler":11,
					"target":{
						"node":1,
						"path":"scale"
					}
				},
				{
					"sampler":12,
					"target":{
						"node":0,
						"path":"translation"
					}
				},
				{
					"sampler":13,
					"target":{
						"node":0,
						"path":"rotation"
					}
				},
				{
					"sampler":14,
					"target":{
						"node":0,
						"path":"scale"
					}
				},
				{
					"sampler":15,
					"target":{
						"node":4,
						"path":"translation"
					}
				},
				{
					"sampler":16,
					"target":{
						"node":4,
						"path":"rotation"
					}
				},
				{
					"sampler":17,
					"target":{
						"node":4,
						"path":"scale"
					}
				},
				{
					"sampler":18,
					"target":{
						"node":3,
						"path":"translation"
					}
				},
				{
					"sampler":19,
					"target":{
						"node":3,
						"path":"rotation"
					}
				},
				{
					"sampler":20,
					"target":{
						"node":3,
						"path":"scale"
					}
				},
				{
					"sampler":21,
					"target":{
						"node":2,
						"path":"translation"
					}
				},
				{
					"sampler":22,
					"target":{
						"node":2,
						"path":"rotation"
					}
				},
				{
					"sampler":23,
					"target":{
						"node":2,
						"path":"scale"
					}
				},
				{
					"sampler":24,
					"target":{
						"node":7,
						"path":"translation"
					}
				},
				{
					"sampler":25,
					"target":{
						"node":7,
						"path":"rotation"
					}
				},
				{
					"sampler":26,
					"target":{
						"node":7,
						"path":"scale"
					}
				},
				{
					"sampler":27,
					"target":{
						"node":6,
						"path":"translation"
					}
				},
				{
					"sampler":28,
					"target":{
						"node":6,
						"path":"rotation"
					}
				},
				{
					"sampler":29,
					"target":{
						"node":6,
						"path":"scale"
					}
				},
				{
					"sampler":30,
					"target":{
						"node":5,
						"path":"translation"
					}
				},
				{
					"sampler":31,
					"target":{
						"node":5,
						"path":"rotation"
					}
				},
				{
					"sampler":32,
					"target":{
						"node":5,
						"path":"scale"
					}
				},
				{
					"sampler":33,
					"target":{
						"node":12,
						"path":"translation"
					}
				},
				{
					"sampler":34,
					"target":{
						"node":12,
						"path":"rotation"
					}
				},
				{
					"sampler":35,
					"target":{
						"node":12,
						"path":"scale"
					}
				},
				{
					"sampler":36,
					"target":{
						"node":11,
						"path":"translation"
					}
				},
				{
					"sampler":37,
					"target":{
						"node":11,
						"path":"rotation"
					}
				},
				{
					"sampler":38,
					"target":{
						"node":11,
						"path":"scale"
					}
				},
				{
					"sampler":39,
					"target":{
						"node":10,
						"path":"translation"
					}
				},
				{
					"sampler":40,
					"target":{
						"node":10,
						"path":"rotation"
					}
				},
				{
					"sampler":41,
					"target":{
						"node":10,
						"path":"scale"
					}
				},
				{
					"sampler":42,
					"target":{
						"node":15,
						"path":"translation"
					}
				},
				{
					"sampler":43,
					"target":{
						"node":15,
						"path":"rotation"
					}
				},
				{
					"sampler":44,
					"target":{
						"node":15,
						"path":"scale"
					}
				},
				{
					"sampler":45,
					"target":{
						"node":14,
						"path":"translation"
					}
				},
				{
					"sampler":46,
					"target":{
						"node":14,
						"path":"rotation"
					}
				},
				{
					"sampler":47,
					"target":{
						"node":14,
						"path":"scale"
					}
				},
				{
					"sampler":48,
					"target":{
						"node":13,
						"path":"translation"
					}
				},
				{
					"sampler":49,
					"target":{
						"node":13,
						"path":"rotation"
					}
				},
				{
					"sampler":50,
					"target":{
						"node":13,
						"path":"scale"
					}
				}
			],
			"name":"walk",
			"samplers":[
				{
					"input":191,
					"interpolation":"LINEAR",
					"output":192
				},
				{
					"input":191,
					"interpolation":"LINEAR",
					"output":193
				},
				{
					"input":194,
					"interpolation":"STEP",
					"output":195
				},
				{
					"input":194,
					"interpolation":"STEP",
					"output":196
				},
				{
					"input":194,
					"interpolation":"STEP",
					"output":197
				},
				{
					"input":194,
					"interpolation":"STEP",
					"output":198
				},
				{
					"input":194,
					"interpolation":"STEP",
					"output":199
				},
				{
					"input":191,
					"interpolation":"LINEAR",
					"output":200
				},
				{
					"input":194,
					"interpolation":"STEP",
					"output":201
				},
				{
					"input":194,
					"interpolation":"STEP",
					"output":202
				},
				{
					"input":194,
					"interpolation":"STEP",
					"output":203
				},
				{
					"input":194,
					"interpolation":"STEP",
					"output":204
				},
				{
					"input":194,
					"interpolation":"STEP",
					"output":205
				},
				{
					"input":194,
					"interpolation":"STEP",
					"output":206
				},
				{
					"input":194,
					"interpolation":"STEP",
					"output":207
				},
				{
					"input":194,
					"interpolation":"STEP",
					"output":208
				},
				{
					"input":191,
					"interpolation":"LINEAR",
					"output":209
				},
				{
					"input":194,
					"interpolation":"STEP",
					"output":210
				},
				{
					"input":194,
					"interpolation":"STEP",
					"output":211
				},
				{
					"input":194,
					"interpolation":"STEP",
					"output":212
				},
				{
					"input":194,
					"interpolation":"STEP",
					"output":213
				},
				{
					"input":194,
					"interpolation":"STEP",
					"output":214
				},
				{
					"input":194,
					"interpolation":"STEP",
					"output":215
				},
				{
					"input":194,
					"interpolation":"STEP",
					"output":216
				},
				{
					"input":194,
					"interpolation":"STEP",
					"output":217
				},
				{
					"input":191,
					"interpolation":"LINEAR",
					"output":218
				},
				{
					"input":194,
					"interpolation":"STEP",
					"output":219
				},
				{
					"input":194,
					"interpolation":"STEP",
					"output":220
				},
				{
					"input":194,
					"interpolation":"STEP",
					"output":221
				},
				{
					"input":194,
					"interpolation":"STEP",
					"output":222
				},
				{
					"input":194,
					"interpolation":"STEP",
					"output":223
				},
				{
					"input":194,
					"interpolation":"STEP",
					"output":224
				},
				{
					"input":194,
					"interpolation":"STEP",
					"output":225
				},
				{
					"input":194,
					"interpolation":"STEP",
					"output":226
				},
				{
					"input":191,
					"interpolation":"LINEAR",
					"output":227
				},
				{
					"input":194,
					"interpolation":"STEP",
					"output":228
				},
				{
					"input":194,
					"interpolation":"STEP",
					"output":229
				},
				{
					"input":191,
					"interpolation":"LINEAR",
					"output":230
				},
				{
					"input":194,
					"interpolation":"STEP",
					"output":231
				},
				{
					"input":194,
					"interpolation":"STEP",
					"output":232
				},
				{
					"input":191,
					"interpolation":"LINEAR",
					"output":233
				},
				{
					"input":194,
					"interpolation":"STEP",
					"output":234
				},
				{
					"input":194,
					"interpolation":"STEP",
					"output":235
				},
				{
					"input":191,
					"interpolation":"LINEAR",
					"output":236
				},
				{
					"input":194,
					"interpolation":"STEP",
					"output":237
				},
				{
					"input":194,
					"interpolation":"STEP",
					"output":238
				},
				{
					"input":191,
					"interpolation":"LINEAR",
					"output":239
				},
				{
					"input":194,
					"interpolation":"STEP",
					"output":240
				},
				{
					"input":194,
					"interpolation":"STEP",
					"output":241
				},
				{
					"input":191,
					"interpolation":"LINEAR",
					"output":242
				},
				{
					"input":194,
					"interpolation":"STEP",
					"output":243
				}
			]
		}
	],
	"materials":[
		{
			"name":"skin",
			"normalTexture":{
				"index":0,
				"scale":0.4000000059604645
			},
			"pbrMetallicRoughness":{
				"baseColorFactor":[
					0.9551045894622803,
					0.7105664610862732,
					0.5382355451583862,
					1
				],
				"metallicFactor":0,
				"roughnessFactor":0.550000011920929
			}
		},
		{
			"extensions":{
				"KHR_materials_sheen":{
					"sheenColorFactor":[
						1.0,
						1.0,
						1.0
					],
					"sheenRoughnessFactor":0.5
				}
			},
			"name":"hair",
			"normalTexture":{
				"index":1,
				"scale":0.800000011920929
			},
			"pbrMetallicRoughness":{
				"baseColorFactor":[
					0.8900054097175598,
					0.6038273572921753,
					0.13286831974983215,
					1
				],
				"metallicFactor":0,
				"roughnessFactor":0.44999998807907104
			}
		},
		{
			"extensions":{
				"KHR_materials_sheen":{
					"sheenColorFactor":[
						1.0,
						1.0,
						1.0
					],
					"sheenRoughnessFactor":0.5
				}
			},
			"name":"outfit",
			"normalTexture":{
				"index":2,
				"scale":0.6000000238418579
			},
			"pbrMetallicRoughness":{
				"baseColorFactor":[
					0.13286831974983215,
					0.2632734179496765,
					0.07323895394802094,
					1
				],
				"metallicFactor":0,
				"roughnessFactor":0.75
			}
		},
		{
			"name":"outfit2",
			"normalTexture":{
				"index":3,
				"scale":0.4000000059604645
			},
			"pbrMetallicRoughness":{
				"baseColorFactor":[
					0.6038273572921753,
					0.4479884207248688,
					0.21404114365577698,
					1
				],
				"metallicFactor":0,
				"roughnessFactor":0.6000000238418579
			}
		},
		{
			"name":"pants",
			"normalTexture":{
				"index":4,
				"scale":0.6000000238418579
			},
			"pbrMetallicRoughness":{
				"baseColorFactor":[
					0.06372379511594772,
					0.12259718775749207,
					0.036306485533714294,
					1
				],
				"metallicFactor":0,
				"roughnessFactor":0.800000011920929
			}
		},
		{
			"extensions":{
				"KHR_materials_clearcoat":{
					"clearcoatFactor":0.30000001192092896
				}
			},
			"name":"boots",
			"normalTexture":{
				"index":5,
				"scale":0.800000011920929
			},
			"pbrMetallicRoughness":{
				"baseColorFactor":[
					0.0134117491543293,
					0.010022825561463833,
					0.010022825561463833,
					1
				],
				"metallicFactor":0,
				"roughnessFactor":0.44999998807907104
			}
		},
		{
			"name":"eye_white",
			"pbrMetallicRoughness":{
				"baseColorFactor":[
					0.8900054097175598,
					0.8900054097175598,
					0.8900054097175598,
					1
				],
				"metallicFactor":0,
				"roughnessFactor":0.20000000298023224
			}
		},
		{
			"emissiveFactor":[
				0.011763989275256348,
				0.011763989275256348,
				0.019862860485428957
			],
			"name":"iris",
			"pbrMetallicRoughness":{
				"baseColorFactor":[
					0.01960664801299572,
					0.01960664801299572,
					0.03310476616024971,
					1
				],
				"metallicFactor":0,
				"roughnessFactor":0.15000000596046448
			}
		},
		{
			"name":"pupil",
			"pbrMetallicRoughness":{
				"baseColorFactor":[
					0.0015479875728487968,
					0.0015479875728487968,
					0.0023219813592731953,
					1
				],
				"metallicFactor":0,
				"roughnessFactor":0.10000000149011612
			}
		},
		{
			"name":"lips",
			"pbrMetallicRoughness":{
				"baseColorFactor":[
					0.4283095896244049,
					0.32088616490364075,
					0.2448643445968628,
					1
				],
				"metallicFactor":0,
				"roughnessFactor":0.4000000059604645
			}
		},
		{
			"doubleSided":true,
			"name":"skirt",
			"normalTexture":{
				"index":6,
				"scale":0.6000000238418579
			},
			"pbrMetallicRoughness":{
				"baseColorFactor":[
					0.6038273572921753,
					0.4479884207248688,
					0.21404114365577698,
					1
				],
				"metallicFactor":0,
				"roughnessFactor":0.699999988079071
			}
		},
		{
			"name":"buckle",
			"pbrMetallicRoughness":{
				"baseColorFactor":[
					0.6920710802078247,
					0.4479884207248688,
					0.07323895394802094,
					1
				],
				"metallicFactor":0.8999999761581421,
				"roughnessFactor":0.30000001192092896
			}
		},
		{
			"name":"wood",
			"normalTexture":{
				"index":7,
				"scale":0.6000000238418579
			},
			"pbrMetallicRoughness":{
				"baseColorFactor":[
					0.17064493894577026,
					0.07323895394802094,
					0.027211781591176987,
					1
				],
				"metallicFactor":0,
				"roughnessFactor":0.699999988079071
			}
		},
		{
			"emissiveFactor":[
				0.21404114365577698,
				0.6038273572921753,
				1
			],
			"extensions":{
				"KHR_materials_emissive_strength":{
					"emissiveStrength":3
				}
			},
			"name":"orb",
			"pbrMetallicRoughness":{
				"baseColorFactor":[
					0.21404114365577698,
					0.6038273572921753,
					1,
					1
				],
				"metallicFactor":0,
				"roughnessFactor":0.05000000074505806
			}
		}
	],
	"meshes":[
		{
			"name":"eren",
			"primitives":[
				{
					"attributes":{
						"POSITION":0,
						"NORMAL":1,
						"TEXCOORD_0":2,
						"JOINTS_0":3,
						"WEIGHTS_0":4
					},
					"indices":5,
					"material":0
				},
				{
					"attributes":{
						"POSITION":6,
						"NORMAL":7,
						"TEXCOORD_0":8,
						"JOINTS_0":9,
						"WEIGHTS_0":10
					},
					"indices":11,
					"material":1
				},
				{
					"attributes":{
						"POSITION":12,
						"NORMAL":13,
						"TEXCOORD_0":14,
						"JOINTS_0":15,
						"WEIGHTS_0":16
					},
					"indices":17,
					"material":2
				},
				{
					"attributes":{
						"POSITION":18,
						"NORMAL":19,
						"TEXCOORD_0":20,
						"JOINTS_0":21,
						"WEIGHTS_0":22
					},
					"indices":23,
					"material":3
				},
				{
					"attributes":{
						"POSITION":24,
						"NORMAL":25,
						"TEXCOORD_0":26,
						"JOINTS_0":27,
						"WEIGHTS_0":28
					},
					"indices":29,
					"material":4
				},
				{
					"attributes":{
						"POSITION":30,
						"NORMAL":31,
						"TEXCOORD_0":32,
						"JOINTS_0":33,
						"WEIGHTS_0":34
					},
					"indices":35,
					"material":5
				},
				{
					"attributes":{
						"POSITION":36,
						"NORMAL":37,
						"TEXCOORD_0":38,
						"JOINTS_0":39,
						"WEIGHTS_0":40
					},
					"indices":41,
					"material":6
				},
				{
					"attributes":{
						"POSITION":42,
						"NORMAL":43,
						"TEXCOORD_0":44,
						"JOINTS_0":45,
						"WEIGHTS_0":46
					},
					"indices":47,
					"material":7
				},
				{
					"attributes":{
						"POSITION":48,
						"NORMAL":49,
						"TEXCOORD_0":50,
						"JOINTS_0":51,
						"WEIGHTS_0":52
					},
					"indices":53,
					"material":8
				},
				{
					"attributes":{
						"POSITION":54,
						"NORMAL":55,
						"TEXCOORD_0":56,
						"JOINTS_0":57,
						"WEIGHTS_0":58
					},
					"indices":59,
					"material":9
				},
				{
					"attributes":{
						"POSITION":60,
						"NORMAL":61,
						"TEXCOORD_0":62,
						"JOINTS_0":63,
						"WEIGHTS_0":64
					},
					"indices":65,
					"material":10
				},
				{
					"attributes":{
						"POSITION":66,
						"NORMAL":67,
						"TEXCOORD_0":68,
						"JOINTS_0":69,
						"WEIGHTS_0":70
					},
					"indices":71,
					"material":11
				},
				{
					"attributes":{
						"POSITION":72,
						"NORMAL":73,
						"TEXCOORD_0":74,
						"JOINTS_0":75,
						"WEIGHTS_0":76
					},
					"indices":77,
					"material":12
				},
				{
					"attributes":{
						"POSITION":78,
						"NORMAL":79,
						"TEXCOORD_0":80,
						"JOINTS_0":81,
						"WEIGHTS_0":82
					},
					"indices":83,
					"material":13
				}
			]
		}
	],
	"textures":[
		{
			"sampler":0,
			"source":0
		},
		{
			"sampler":0,
			"source":1
		},
		{
			"sampler":0,
			"source":2
		},
		{
			"sampler":0,
			"source":2
		},
		{
			"sampler":0,
			"source":2
		},
		{
			"sampler":0,
			"source":3
		},
		{
			"sampler":0,
			"source":2
		},
		{
			"sampler":0,
			"source":3
		}
	],
	"images":[
		{
			"mimeType":"image/png",
			"name":"N_skin",
			"uri":"texturas/N_skin.png"
		},
		{
			"mimeType":"image/png",
			"name":"N_hair",
			"uri":"texturas/N_hair.png"
		},
		{
			"mimeType":"image/png",
			"name":"N_cloth",
			"uri":"texturas/N_cloth.png"
		},
		{
			"mimeType":"image/png",
			"name":"N_leather",
			"uri":"texturas/N_leather.png"
		}
	],
	"skins":[
		{
			"inverseBindMatrices":84,
			"joints":[
				16,
				9,
				8,
				1,
				0,
				4,
				3,
				2,
				7,
				6,
				5,
				12,
				11,
				10,
				15,
				14,
				13
			],
			"name":"eren_rig"
		}
	],
	"accessors":[
		{
			"bufferView":0,
			"componentType":5126,
			"count":1301,
			"max":[
				0.23800501227378845,
				1.6055998802185059,
				0.09649129956960678
			],
			"min":[
				-0.23800501227378845,
				0.7060210108757019,
				-0.10446905344724655
			],
			"type":"VEC3"
		},
		{
			"bufferView":1,
			"componentType":5126,
			"count":1301,
			"type":"VEC3"
		},
		{
			"bufferView":2,
			"componentType":5126,
			"count":1301,
			"type":"VEC2"
		},
		{
			"bufferView":3,
			"componentType":5121,
			"count":1301,
			"type":"VEC4"
		},
		{
			"bufferView":4,
			"componentType":5126,
			"count":1301,
			"type":"VEC4"
		},
		{
			"bufferView":5,
			"componentType":5123,
			"count":5376,
			"type":"SCALAR"
		},
		{
			"bufferView":6,
			"componentType":5126,
			"count":4347,
			"max":[
				0.23032324016094208,
				1.629021406173706,
				0.12595154345035553
			],
			"min":[
				-0.22863122820854187,
				1.0685946941375732,
				-0.1057596430182457
			],
			"type":"VEC3"
		},
		{
			"bufferView":7,
			"componentType":5126,
			"count":4347,
			"type":"VEC3"
		},
		{
			"bufferView":8,
			"componentType":5126,
			"count":4347,
			"type":"VEC2"
		},
		{
			"bufferView":9,
			"componentType":5121,
			"count":4347,
			"type":"VEC4"
		},
		{
			"bufferView":10,
			"componentType":5126,
			"count":4347,
			"type":"VEC4"
		},
		{
			"bufferView":11,
			"componentType":5123,
			"count":12648,
			"type":"SCALAR"
		},
		{
			"bufferView":12,
			"componentType":5126,
			"count":1916,
			"max":[
				0.24031400680541992,
				1.3219226598739624,
				0.08108079433441162
			],
			"min":[
				-0.24031399190425873,
				0.8303439021110535,
				-0.10799999535083771
			],
			"type":"VEC3"
		},
		{
			"bufferView":13,
			"componentType":5126,
			"count":1916,
			"type":"VEC3"
		},
		{
			"bufferView":14,
			"componentType":5126,
			"count":1916,
			"type":"VEC2"
		},
		{
			"bufferView":15,
			"componentType":5121,
			"count":1916,
			"type":"VEC4"
		},
		{
			"bufferView":16,
			"componentType":5126,
			"count":1916,
			"type":"VEC4"
		},
		{
			"bufferView":17,
			"componentType":5123,
			"count":8652,
			"type":"SCALAR"
		},
		{
			"bufferView":18,
			"componentType":5126,
			"count":76,
			"max":[
				0.14205820858478546,
				0.8978680968284607,
				0.0961490347981453
			],
			"min":[
				-0.14205820858478546,
				0.7919318675994873,
				-0.09782345592975616
			],
			"type":"VEC3"
		},
		{
			"bufferView":19,
			"componentType":5126,
			"count":76,
			"type":"VEC3"
		},
		{
			"bufferView":20,
			"componentType":5126,
			"count":76,
			"type":"VEC2"
		},
		{
			"bufferView":21,
			"componentType":5121,
			"count":76,
			"type":"VEC4"
		},
		{
			"bufferView":22,
			"componentType":5126,
			"count":76,
			"type":"VEC4"
		},
		{
			"bufferView":23,
			"componentType":5123,
			"count":264,
			"type":"SCALAR"
		},
		{
			"bufferView":24,
			"componentType":5126,
			"count":995,
			"max":[
				0.23874253034591675,
				0.8501967191696167,
				0.09589836001396179
			],
			"min":[
				-0.23874253034591675,
				0.2713226079940796,
				-0.09782345592975616
			],
			"type":"VEC3"
		},
		{
			"bufferView":25,
			"componentType":5126,
			"count":995,
			"type":"VEC3"
		},
		{
			"bufferView":26,
			"componentType":5126,
			"count":995,
			"type":"VEC2"
		},
		{
			"bufferView":27,
			"componentType":5121,
			"count":995,
			"type":"VEC4"
		},
		{
			"bufferView":28,
			"componentType":5126,
			"count":995,
			"type":"VEC4"
		},
		{
			"bufferView":29,
			"componentType":5123,
			"count":4380,
			"type":"SCALAR"
		},
		{
			"bufferView":30,
			"componentType":5126,
			"count":1034,
			"max":[
				0.15339985489845276,
				0.276458740234375,
				0.06638146936893463
			],
			"min":[
				-0.15339985489845276,
				0.006839448120445013,
				-0.1261083483695984
			],
			"type":"VEC3"
		},
		{
			"bufferView":31,
			"componentType":5126,
			"count":1034,
			"type":"VEC3"
		},
		{
			"bufferView":32,
			"componentType":5126,
			"count":1034,
			"type":"VEC2"
		},
		{
			"bufferView":33,
			"componentType":5121,
			"count":1034,
			"type":"VEC4"
		},
		{
			"bufferView":34,
			"componentType":5126,
			"count":1034,
			"type":"VEC4"
		},
		{
			"bufferView":35,
			"componentType":5123,
			"count":4608,
			"type":"SCALAR"
		},
		{
			"bufferView":36,
			"componentType":5126,
			"count":304,
			"max":[
				0.045899998396635056,
				1.5178499221801758,
				-0.06300000101327896
			],
			"min":[
				-0.045899998396635056,
				1.49714994430542,
				-0.07919999957084656
			],
			"type":"VEC3"
		},
		{
			"bufferView":37,
			"componentType":5126,
			"count":304,
			"type":"VEC3"
		},
		{
			"bufferView":38,
			"componentType":5126,
			"count":304,
			"type":"VEC2"
		},
		{
			"bufferView":39,
			"componentType":5121,
			"count":304,
			"type":"VEC4"
		},
		{
			"bufferView":40,
			"componentType":5126,
			"count":304,
			"type":"VEC4"
		},
		{
			"bufferView":41,
			"componentType":5123,
			"count":1152,
			"type":"SCALAR"
		},
		{
			"bufferView":42,
			"componentType":5126,
			"count":220,
			"max":[
				0.03914999961853027,
				1.516319990158081,
				-0.07309821993112564
			],
			"min":[
				-0.03914999961853027,
				1.4986799955368042,
				-0.08080177754163742
			],
			"type":"VEC3"
		},
		{
			"bufferView":43,
			"componentType":5126,
			"count":220,
			"type":"VEC3"
		},
		{
			"bufferView":44,
			"componentType":5126,
			"count":220,
			"type":"VEC2"
		},
		{
			"bufferView":45,
			"componentType":5121,
			"count":220,
			"type":"VEC4"
		},
		{
			"bufferView":46,
			"componentType":5126,
			"count":220,
			"type":"VEC4"
		},
		{
			"bufferView":47,
			"componentType":5123,
			"count":720,
			"type":"SCALAR"
		},
		{
			"bufferView":48,
			"componentType":5126,
			"count":160,
			"max":[
				0.03419499099254608,
				1.511549949645996,
				-0.07820809632539749
			],
			"min":[
				-0.03419499099254608,
				1.5034500360488892,
				-0.08163190633058548
			],
			"type":"VEC3"
		},
		{
			"bufferView":49,
			"componentType":5126,
			"count":160,
			"type":"VEC3"
		},
		{
			"bufferView":50,
			"componentType":5126,
			"count":160,
			"type":"VEC2"
		},
		{
			"bufferView":51,
			"componentType":5121,
			"count":160,
			"type":"VEC4"
		},
		{
			"bufferView":52,
			"componentType":5126,
			"count":160,
			"type":"VEC4"
		},
		{
			"bufferView":53,
			"componentType":5123,
			"count":480,
			"type":"SCALAR"
		},
		{
			"bufferView":54,
			"componentType":5126,
			"count":98,
			"max":[
				0.017099998891353607,
				1.4467499256134033,
				-0.0699482187628746
			],
			"min":[
				-0.017099998891353607,
				1.4386500120162964,
				-0.07765177637338638
			],
			"type":"VEC3"
		},
		{
			"bufferView":55,
			"componentType":5126,
			"count":98,
			"type":"VEC3"
		},
		{
			"bufferView":56,
			"componentType":5126,
			"count":98,
			"type":"VEC2"
		},
		{
			"bufferView":57,
			"componentType":5121,
			"count":98,
			"type":"VEC4"
		},
		{
			"bufferView":58,
			"componentType":5126,
			"count":98,
			"type":"VEC4"
		},
		{
			"bufferView":59,
			"componentType":5123,
			"count":360,
			"type":"SCALAR"
		},
		{
			"bufferView":60,
			"componentType":5126,
			"count":78,
			"max":[
				0.23759999871253967,
				0.8999999761581421,
				0.188145250082016
			],
			"min":[
				-0.23759999871253967,
				0.6119999885559082,
				-0.188145250082016
			],
			"type":"VEC3"
		},
		{
			"bufferView":61,
			"componentType":5126,
			"count":78,
			"type":"VEC3"
		},
		{
			"bufferView":62,
			"componentType":5126,
			"count":78,
			"type":"VEC2"
		},
		{
			"bufferView":63,
			"componentType":5121,
			"count":78,
			"type":"VEC4"
		},
		{
			"bufferView":64,
			"componentType":5126,
			"count":78,
			"type":"VEC4"
		},
		{
			"bufferView":65,
			"componentType":5123,
			"count":264,
			"type":"SCALAR"
		},
		{
			"bufferView":66,
			"componentType":5126,
			"count":24,
			"max":[
				0.022499999031424522,
				0.8730000257492065,
				-0.09314999729394913
			],
			"min":[
				-0.022499999031424522,
				0.8370000123977661,
				-0.10395000129938126
			],
			"type":"VEC3"
		},
		{
			"bufferView":67,
			"componentType":5126,
			"count":24,
			"type":"VEC3"
		},
		{
			"bufferView":68,
			"componentType":5126,
			"count":24,
			"type":"VEC2"
		},
		{
			"bufferView":69,
			"componentType":5121,
			"count":24,
			"type":"VEC4"
		},
		{
			"bufferView":70,
			"componentType":5126,
			"count":24,
			"type":"VEC4"
		},
		{
			"bufferView":71,
			"componentType":5123,
			"count":36,
			"type":"SCALAR"
		},
		{
			"bufferView":72,
			"componentType":5126,
			"count":42,
			"max":[
				0.2372399866580963,
				1.3949998617172241,
				-0.00449999887496233
			],
			"min":[
				0.20123998820781708,
				0.0899999663233757,
				-0.04049999639391899
			],
			"type":"VEC3"
		},
		{
			"bufferView":73,
			"componentType":5126,
			"count":42,
			"type":"VEC3"
		},
		{
			"bufferView":74,
			"componentType":5126,
			"count":42,
			"type":"VEC2"
		},
		{
			"bufferView":75,
			"componentType":5121,
			"count":42,
			"type":"VEC4"
		},
		{
			"bufferView":76,
			"componentType":5126,
			"count":42,
			"type":"VEC4"
		},
		{
			"bufferView":77,
			"componentType":5123,
			"count":96,
			"type":"SCALAR"
		},
		{
			"bufferView":78,
			"componentType":5126,
			"count":218,
			"max":[
				0.27323997020721436,
				1.5299997329711914,
				0.030146107077598572
			],
			"min":[
				0.16523998975753784,
				1.4219999313354492,
				-0.07514610141515732
			],
			"type":"VEC3"
		},
		{
			"bufferView":79,
			"componentType":5126,
			"count":218,
			"type":"VEC3"
		},
		{
			"bufferView":80,
			"componentType":5126,
			"count":218,
			"type":"VEC2"
		},
		{
			"bufferView":81,
			"componentType":5121,
			"count":218,
			"type":"VEC4"
		},
		{
			"bufferView":82,
			"componentType":5126,
			"count":218,
			"type":"VEC4"
		},
		{
			"bufferView":83,
			"componentType":5123,
			"count":840,
			"type":"SCALAR"
		},
		{
			"bufferView":84,
			"componentType":5126,
			"count":17,
			"type":"MAT4"
		},
		{
			"bufferView":85,
			"componentType":5126,
			"count":2,
			"max":[
				0.6
			],
			"min":[
				0
			],
			"type":"SCALAR"
		},
		{
			"bufferView":86,
			"componentType":5126,
			"count":2,
			"type":"VEC3"
		},
		{
			"bufferView":87,
			"componentType":5126,
			"count":2,
			"type":"VEC4"
		},
		{
			"bufferView":88,
			"componentType":5126,
			"count":2,
			"type":"VEC3"
		},
		{
			"bufferView":89,
			"componentType":5126,
			"count":2,
			"type":"VEC3"
		},
		{
			"bufferView":90,
			"componentType":5126,
			"count":2,
			"type":"VEC4"
		},
		{
			"bufferView":91,
			"componentType":5126,
			"count":2,
			"type":"VEC3"
		},
		{
			"bufferView":92,
			"componentType":5126,
			"count":2,
			"type":"VEC3"
		},
		{
			"bufferView":93,
			"componentType":5126,
			"count":19,
			"max":[
				0.6
			],
			"min":[
				0
			],
			"type":"SCALAR"
		},
		{
			"bufferView":94,
			"componentType":5126,
			"count":19,
			"type":"VEC4"
		},
		{
			"bufferView":95,
			"componentType":5126,
			"count":2,
			"type":"VEC3"
		},
		{
			"bufferView":96,
			"componentType":5126,
			"count":2,
			"type":"VEC3"
		},
		{
			"bufferView":97,
			"componentType":5126,
			"count":2,
			"type":"VEC4"
		},
		{
			"bufferView":98,
			"componentType":5126,
			"count":2,
			"type":"VEC3"
		},
		{
			"bufferView":99,
			"componentType":5126,
			"count":2,
			"type":"VEC3"
		},
		{
			"bufferView":100,
			"componentType":5126,
			"count":2,
			"type":"VEC4"
		},
		{
			"bufferView":101,
			"componentType":5126,
			"count":2,
			"type":"VEC3"
		},
		{
			"bufferView":102,
			"componentType":5126,
			"count":2,
			"type":"VEC3"
		},
		{
			"bufferView":103,
			"componentType":5126,
			"count":19,
			"type":"VEC4"
		},
		{
			"bufferView":104,
			"componentType":5126,
			"count":2,
			"type":"VEC3"
		},
		{
			"bufferView":105,
			"componentType":5126,
			"count":2,
			"type":"VEC3"
		},
		{
			"bufferView":106,
			"componentType":5126,
			"count":19,
			"type":"VEC4"
		},
		{
			"bufferView":107,
			"componentType":5126,
			"count":2,
			"type":"VEC3"
		},
		{
			"bufferView":108,
			"componentType":5126,
			"count":2,
			"type":"VEC3"
		},
		{
			"bufferView":109,
			"componentType":5126,
			"count":2,
			"type":"VEC4"
		},
		{
			"bufferView":110,
			"componentType":5126,
			"count":2,
			"type":"VEC3"
		},
		{
			"bufferView":111,
			"componentType":5126,
			"count":2,
			"type":"VEC3"
		},
		{
			"bufferView":112,
			"componentType":5126,
			"count":19,
			"type":"VEC4"
		},
		{
			"bufferView":113,
			"componentType":5126,
			"count":2,
			"type":"VEC3"
		},
		{
			"bufferView":114,
			"componentType":5126,
			"count":2,
			"type":"VEC3"
		},
		{
			"bufferView":115,
			"componentType":5126,
			"count":2,
			"type":"VEC4"
		},
		{
			"bufferView":116,
			"componentType":5126,
			"count":2,
			"type":"VEC3"
		},
		{
			"bufferView":117,
			"componentType":5126,
			"count":2,
			"type":"VEC3"
		},
		{
			"bufferView":118,
			"componentType":5126,
			"count":2,
			"type":"VEC4"
		},
		{
			"bufferView":119,
			"componentType":5126,
			"count":2,
			"type":"VEC3"
		},
		{
			"bufferView":120,
			"componentType":5126,
			"count":2,
			"type":"VEC3"
		},
		{
			"bufferView":121,
			"componentType":5126,
			"count":19,
			"type":"VEC4"
		},
		{
			"bufferView":122,
			"componentType":5126,
			"count":2,
			"type":"VEC3"
		},
		{
			"bufferView":123,
			"componentType":5126,
			"count":2,
			"type":"VEC3"
		},
		{
			"bufferView":124,
			"componentType":5126,
			"count":2,
			"type":"VEC4"
		},
		{
			"bufferView":125,
			"componentType":5126,
			"count":2,
			"type":"VEC3"
		},
		{
			"bufferView":126,
			"componentType":5126,
			"count":2,
			"type":"VEC3"
		},
		{
			"bufferView":127,
			"componentType":5126,
			"count":2,
			"type":"VEC4"
		},
		{
			"bufferView":128,
			"componentType":5126,
			"count":2,
			"type":"VEC3"
		},
		{
			"bufferView":129,
			"componentType":5126,
			"count":2,
			"type":"VEC3"
		},
		{
			"bufferView":130,
			"componentType":5126,
			"count":19,
			"type":"VEC4"
		},
		{
			"bufferView":131,
			"componentType":5126,
			"count":2,
			"type":"VEC3"
		},
		{
			"bufferView":132,
			"componentType":5126,
			"count":2,
			"type":"VEC3"
		},
		{
			"bufferView":133,
			"componentType":5126,
			"count":2,
			"type":"VEC4"
		},
		{
			"bufferView":134,
			"componentType":5126,
			"count":2,
			"type":"VEC3"
		},
		{
			"bufferView":135,
			"componentType":5126,
			"count":2,
			"type":"VEC3"
		},
		{
			"bufferView":136,
			"componentType":5126,
			"count":2,
			"type":"VEC4"
		},
		{
			"bufferView":137,
			"componentType":5126,
			"count":2,
			"type":"VEC3"
		},
		{
			"bufferView":138,
			"componentType":5126,
			"count":61,
			"max":[
				2
			],
			"min":[
				0
			],
			"type":"SCALAR"
		},
		{
			"bufferView":139,
			"componentType":5126,
			"count":61,
			"type":"VEC3"
		},
		{
			"bufferView":140,
			"componentType":5126,
			"count":2,
			"max":[
				2
			],
			"min":[
				0
			],
			"type":"SCALAR"
		},
		{
			"bufferView":141,
			"componentType":5126,
			"count":2,
			"type":"VEC4"
		},
		{
			"bufferView":142,
			"componentType":5126,
			"count":2,
			"type":"VEC3"
		},
		{
			"bufferView":143,
			"componentType":5126,
			"count":2,
			"type":"VEC3"
		},
		{
			"bufferView":144,
			"componentType":5126,
			"count":2,
			"type":"VEC4"
		},
		{
			"bufferView":145,
			"componentType":5126,
			"count":2,
			"type":"VEC3"
		},
		{
			"bufferView":146,
			"componentType":5126,
			"count":2,
			"type":"VEC3"
		},
		{
			"bufferView":147,
			"componentType":5126,
			"count":61,
			"type":"VEC4"
		},
		{
			"bufferView":148,
			"componentType":5126,
			"count":2,
			"type":"VEC3"
		},
		{
			"bufferView":149,
			"componentType":5126,
			"count":2,
			"type":"VEC3"
		},
		{
			"bufferView":150,
			"componentType":5126,
			"count":2,
			"type":"VEC4"
		},
		{
			"bufferView":151,
			"componentType":5126,
			"count":2,
			"type":"VEC3"
		},
		{
			"bufferView":152,
			"componentType":5126,
			"count":2,
			"type":"VEC3"
		},
		{
			"bufferView":153,
			"componentType":5126,
			"count":61,
			"type":"VEC4"
		},
		{
			"bufferView":154,
			"componentType":5126,
			"count":2,
			"type":"VEC3"
		},
		{
			"bufferView":155,
			"componentType":5126,
			"count":2,
			"type":"VEC3"
		},
		{
			"bufferView":156,
			"componentType":5126,
			"count":61,
			"type":"VEC4"
		},
		{
			"bufferView":157,
			"componentType":5126,
			"count":2,
			"type":"VEC3"
		},
		{
			"bufferView":158,
			"componentType":5126,
			"count":2,
			"type":"VEC3"
		},
		{
			"bufferView":159,
			"componentType":5126,
			"count":2,
			"type":"VEC4"
		},
		{
			"bufferView":160,
			"componentType":5126,
			"count":2,
			"type":"VEC3"
		},
		{
			"bufferView":161,
			"componentType":5126,
			"count":2,
			"type":"VEC3"
		},
		{
			"bufferView":162,
			"componentType":5126,
			"count":2,
			"type":"VEC4"
		},
		{
			"bufferView":163,
			"componentType":5126,
			"count":2,
			"type":"VEC3"
		},
		{
			"bufferView":164,
			"componentType":5126,
			"count":2,
			"type":"VEC3"
		},
		{
			"bufferView":165,
			"componentType":5126,
			"count":61,
			"type":"VEC4"
		},
		{
			"bufferView":166,
			"componentType":5126,
			"count":2,
			"type":"VEC3"
		},
		{
			"bufferView":167,
			"componentType":5126,
			"count":2,
			"type":"VEC3"
		},
		{
			"bufferView":168,
			"componentType":5126,
			"count":2,
			"type":"VEC4"
		},
		{
			"bufferView":169,
			"componentType":5126,
			"count":2,
			"type":"VEC3"
		},
		{
			"bufferView":170,
			"componentType":5126,
			"count":2,
			"type":"VEC3"
		},
		{
			"bufferView":171,
			"componentType":5126,
			"count":2,
			"type":"VEC4"
		},
		{
			"bufferView":172,
			"componentType":5126,
			"count":2,
			"type":"VEC3"
		},
		{
			"bufferView":173,
			"componentType":5126,
			"count":2,
			"type":"VEC3"
		},
		{
			"bufferView":174,
			"componentType":5126,
			"count":2,
			"type":"VEC4"
		},
		{
			"bufferView":175,
			"componentType":5126,
			"count":2,
			"type":"VEC3"
		},
		{
			"bufferView":176,
			"componentType":5126,
			"count":2,
			"type":"VEC3"
		},
		{
			"bufferView":177,
			"componentType":5126,
			"count":2,
			"type":"VEC4"
		},
		{
			"bufferView":178,
			"componentType":5126,
			"count":2,
			"type":"VEC3"
		},
		{
			"bufferView":179,
			"componentType":5126,
			"count":2,
			"type":"VEC3"
		},
		{
			"bufferView":180,
			"componentType":5126,
			"count":2,
			"type":"VEC4"
		},
		{
			"bufferView":181,
			"componentType":5126,
			"count":2,
			"type":"VEC3"
		},
		{
			"bufferView":182,
			"componentType":5126,
			"count":2,
			"type":"VEC3"
		},
		{
			"bufferView":183,
			"componentType":5126,
			"count":2,
			"type":"VEC4"
		},
		{
			"bufferView":184,
			"componentType":5126,
			"count":2,
			"type":"VEC3"
		},
		{
			"bufferView":185,
			"componentType":5126,
			"count":2,
			"type":"VEC3"
		},
		{
			"bufferView":186,
			"componentType":5126,
			"count":2,
			"type":"VEC4"
		},
		{
			"bufferView":187,
			"componentType":5126,
			"count":2,
			"type":"VEC3"
		},
		{
			"bufferView":188,
			"componentType":5126,
			"count":2,
			"type":"VEC3"
		},
		{
			"bufferView":189,
			"componentType":5126,
			"count":2,
			"type":"VEC4"
		},
		{
			"bufferView":190,
			"componentType":5126,
			"count":2,
			"type":"VEC3"
		},
		{
			"bufferView":191,
			"componentType":5126,
			"count":31,
			"max":[
				1
			],
			"min":[
				0
			],
			"type":"SCALAR"
		},
		{
			"bufferView":192,
			"componentType":5126,
			"count":31,
			"type":"VEC3"
		},
		{
			"bufferView":193,
			"componentType":5126,
			"count":31,
			"type":"VEC4"
		},
		{
			"bufferView":194,
			"componentType":5126,
			"count":2,
			"max":[
				1
			],
			"min":[
				0
			],
			"type":"SCALAR"
		},
		{
			"bufferView":195,
			"componentType":5126,
			"count":2,
			"type":"VEC3"
		},
		{
			"bufferView":196,
			"componentType":5126,
			"count":2,
			"type":"VEC3"
		},
		{
			"bufferView":197,
			"componentType":5126,
			"count":2,
			"type":"VEC4"
		},
		{
			"bufferView":198,
			"componentType":5126,
			"count":2,
			"type":"VEC3"
		},
		{
			"bufferView":199,
			"componentType":5126,
			"count":2,
			"type":"VEC3"
		},
		{
			"bufferView":200,
			"componentType":5126,
			"count":31,
			"type":"VEC4"
		},
		{
			"bufferView":201,
			"componentType":5126,
			"count":2,
			"type":"VEC3"
		},
		{
			"bufferView":202,
			"componentType":5126,
			"count":2,
			"type":"VEC3"
		},
		{
			"bufferView":203,
			"componentType":5126,
			"count":2,
			"type":"VEC4"
		},
		{
			"bufferView":204,
			"componentType":5126,
			"count":2,
			"type":"VEC3"
		},
		{
			"bufferView":205,
			"componentType":5126,
			"count":2,
			"type":"VEC3"
		},
		{
			"bufferView":206,
			"componentType":5126,
			"count":2,
			"type":"VEC4"
		},
		{
			"bufferView":207,
			"componentType":5126,
			"count":2,
			"type":"VEC3"
		},
		{
			"bufferView":208,
			"componentType":5126,
			"count":2,
			"type":"VEC3"
		},
		{
			"bufferView":209,
			"componentType":5126,
			"count":31,
			"type":"VEC4"
		},
		{
			"bufferView":210,
			"componentType":5126,
			"count":2,
			"type":"VEC3"
		},
		{
			"bufferView":211,
			"componentType":5126,
			"count":2,
			"type":"VEC3"
		},
		{
			"bufferView":212,
			"componentType":5126,
			"count":2,
			"type":"VEC4"
		},
		{
			"bufferView":213,
			"componentType":5126,
			"count":2,
			"type":"VEC3"
		},
		{
			"bufferView":214,
			"componentType":5126,
			"count":2,
			"type":"VEC3"
		},
		{
			"bufferView":215,
			"componentType":5126,
			"count":2,
			"type":"VEC4"
		},
		{
			"bufferView":216,
			"componentType":5126,
			"count":2,
			"type":"VEC3"
		},
		{
			"bufferView":217,
			"componentType":5126,
			"count":2,
			"type":"VEC3"
		},
		{
			"bufferView":218,
			"componentType":5126,
			"count":31,
			"type":"VEC4"
		},
		{
			"bufferView":219,
			"componentType":5126,
			"count":2,
			"type":"VEC3"
		},
		{
			"bufferView":220,
			"componentType":5126,
			"count":2,
			"type":"VEC3"
		},
		{
			"bufferView":221,
			"componentType":5126,
			"count":2,
			"type":"VEC4"
		},
		{
			"bufferView":222,
			"componentType":5126,
			"count":2,
			"type":"VEC3"
		},
		{
			"bufferView":223,
			"componentType":5126,
			"count":2,
			"type":"VEC3"
		},
		{
			"bufferView":224,
			"componentType":5126,
			"count":2,
			"type":"VEC4"
		},
		{
			"bufferView":225,
			"componentType":5126,
			"count":2,
			"type":"VEC3"
		},
		{
			"bufferView":226,
			"componentType":5126,
			"count":2,
			"type":"VEC3"
		},
		{
			"bufferView":227,
			"componentType":5126,
			"count":31,
			"type":"VEC4"
		},
		{
			"bufferView":228,
			"componentType":5126,
			"count":2,
			"type":"VEC3"
		},
		{
			"bufferView":229,
			"componentType":5126,
			"count":2,
			"type":"VEC3"
		},
		{
			"bufferView":230,
			"componentType":5126,
			"count":31,
			"type":"VEC4"
		},
		{
			"bufferView":231,
			"componentType":5126,
			"count":2,
			"type":"VEC3"
		},
		{
			"bufferView":232,
			"componentType":5126,
			"count":2,
			"type":"VEC3"
		},
		{
			"bufferView":233,
			"componentType":5126,
			"count":31,
			"type":"VEC4"
		},
		{
			"bufferView":234,
			"componentType":5126,
			"count":2,
			"type":"VEC3"
		},
		{
			"bufferView":235,
			"componentType":5126,
			"count":2,
			"type":"VEC3"
		},
		{
			"bufferView":236,
			"componentType":5126,
			"count":31,
			"type":"VEC4"
		},
		{
			"bufferView":237,
			"componentType":5126,
			"count":2,
			"type":"VEC3"
		},
		{
			"bufferView":238,
			"componentType":5126,
			"count":2,
			"type":"VEC3"
		},
		{
			"bufferView":239,
			"componentType":5126,
			"count":31,
			"type":"VEC4"
		},
		{
			"bufferView":240,
			"componentType":5126,
			"count":2,
			"type":"VEC3"
		},
		{
			"bufferView":241,
			"componentType":5126,
			"count":2,
			"type":"VEC3"
		},
		{
			"bufferView":242,
			"componentType":5126,
			"count":31,
			"type":"VEC4"
		},
		{
			"bufferView":243,
			"componentType":5126,
			"count":2,
			"type":"VEC3"
		}
	],
	"bufferViews":[
		{
			"buffer":0,
			"byteLength":15612,
			"byteOffset":0,
			"target":34962
		},
		{
			"buffer":0,
			"byteLength":15612,
			"byteOffset":15612,
			"target":34962
		},
		{
			"buffer":0,
			"byteLength":10408,
			"byteOffset":31224,
			"target":34962
		},
		{
			"buffer":0,
			"byteLength":5204,
			"byteOffset":41632,
			"target":34962
		},
		{
			"buffer":0,
			"byteLength":20816,
			"byteOffset":46836,
			"target":34962
		},
		{
			"buffer":0,
			"byteLength":10752,
			"byteOffset":67652,
			"target":34963
		},
		{
			"buffer":0,
			"byteLength":52164,
			"byteOffset":78404,
			"target":34962
		},
		{
			"buffer":0,
			"byteLength":52164,
			"byteOffset":130568,
			"target":34962
		},
		{
			"buffer":0,
			"byteLength":34776,
			"byteOffset":182732,
			"target":34962
		},
		{
			"buffer":0,
			"byteLength":17388,
			"byteOffset":217508,
			"target":34962
		},
		{
			"buffer":0,
			"byteLength":69552,
			"byteOffset":234896,
			"target":34962
		},
		{
			"buffer":0,
			"byteLength":25296,
			"byteOffset":304448,
			"target":34963
		},
		{
			"buffer":0,
			"byteLength":22992,
			"byteOffset":329744,
			"target":34962
		},
		{
			"buffer":0,
			"byteLength":22992,
			"byteOffset":352736,
			"target":34962
		},
		{
			"buffer":0,
			"byteLength":15328,
			"byteOffset":375728,
			"target":34962
		},
		{
			"buffer":0,
			"byteLength":7664,
			"byteOffset":391056,
			"target":34962
		},
		{
			"buffer":0,
			"byteLength":30656,
			"byteOffset":398720,
			"target":34962
		},
		{
			"buffer":0,
			"byteLength":17304,
			"byteOffset":429376,
			"target":34963
		},
		{
			"buffer":0,
			"byteLength":912,
			"byteOffset":446680,
			"target":34962
		},
		{
			"buffer":0,
			"byteLength":912,
			"byteOffset":447592,
			"target":34962
		},
		{
			"buffer":0,
			"byteLength":608,
			"byteOffset":448504,
			"target":34962
		},
		{
			"buffer":0,
			"byteLength":304,
			"byteOffset":449112,
			"target":34962
		},
		{
			"buffer":0,
			"byteLength":1216,
			"byteOffset":449416,
			"target":34962
		},
		{
			"buffer":0,
			"byteLength":528,
			"byteOffset":450632,
			"target":34963
		},
		{
			"buffer":0,
			"byteLength":11940,
			"byteOffset":451160,
			"target":34962
		},
		{
			"buffer":0,
			"byteLength":11940,
			"byteOffset":463100,
			"target":34962
		},
		{
			"buffer":0,
			"byteLength":7960,
			"byteOffset":475040,
			"target":34962
		},
		{
			"buffer":0,
			"byteLength":3980,
			"byteOffset":483000,
			"target":34962
		},
		{
			"buffer":0,
			"byteLength":15920,
			"byteOffset":486980,
			"target":34962
		},
		{
			"buffer":0,
			"byteLength":8760,
			"byteOffset":502900,
			"target":34963
		},
		{
			"buffer":0,
			"byteLength":12408,
			"byteOffset":511660,
			"target":34962
		},
		{
			"buffer":0,
			"byteLength":12408,
			"byteOffset":524068,
			"target":34962
		},
		{
			"buffer":0,
			"byteLength":8272,
			"byteOffset":536476,
			"target":34962
		},
		{
			"buffer":0,
			"byteLength":4136,
			"byteOffset":544748,
			"target":34962
		},
		{
			"buffer":0,
			"byteLength":16544,
			"byteOffset":548884,
			"target":34962
		},
		{
			"buffer":0,
			"byteLength":9216,
			"byteOffset":565428,
			"target":34963
		},
		{
			"buffer":0,
			"byteLength":3648,
			"byteOffset":574644,
			"target":34962
		},
		{
			"buffer":0,
			"byteLength":3648,
			"byteOffset":578292,
			"target":34962
		},
		{
			"buffer":0,
			"byteLength":2432,
			"byteOffset":581940,
			"target":34962
		},
		{
			"buffer":0,
			"byteLength":1216,
			"byteOffset":584372,
			"target":34962
		},
		{
			"buffer":0,
			"byteLength":4864,
			"byteOffset":585588,
			"target":34962
		},
		{
			"buffer":0,
			"byteLength":2304,
			"byteOffset":590452,
			"target":34963
		},
		{
			"buffer":0,
			"byteLength":2640,
			"byteOffset":592756,
			"target":34962
		},
		{
			"buffer":0,
			"byteLength":2640,
			"byteOffset":595396,
			"target":34962
		},
		{
			"buffer":0,
			"byteLength":1760,
			"byteOffset":598036,
			"target":34962
		},
		{
			"buffer":0,
			"byteLength":880,
			"byteOffset":599796,
			"target":34962
		},
		{
			"buffer":0,
			"byteLength":3520,
			"byteOffset":600676,
			"target":34962
		},
		{
			"buffer":0,
			"byteLength":1440,
			"byteOffset":604196,
			"target":34963
		},
		{
			"buffer":0,
			"byteLength":1920,
			"byteOffset":605636,
			"target":34962
		},
		{
			"buffer":0,
			"byteLength":1920,
			"byteOffset":607556,
			"target":34962
		},
		{
			"buffer":0,
			"byteLength":1280,
			"byteOffset":609476,
			"target":34962
		},
		{
			"buffer":0,
			"byteLength":640,
			"byteOffset":610756,
			"target":34962
		},
		{
			"buffer":0,
			"byteLength":2560,
			"byteOffset":611396,
			"target":34962
		},
		{
			"buffer":0,
			"byteLength":960,
			"byteOffset":613956,
			"target":34963
		},
		{
			"buffer":0,
			"byteLength":1176,
			"byteOffset":614916,
			"target":34962
		},
		{
			"buffer":0,
			"byteLength":1176,
			"byteOffset":616092,
			"target":34962
		},
		{
			"buffer":0,
			"byteLength":784,
			"byteOffset":617268,
			"target":34962
		},
		{
			"buffer":0,
			"byteLength":392,
			"byteOffset":618052,
			"target":34962
		},
		{
			"buffer":0,
			"byteLength":1568,
			"byteOffset":618444,
			"target":34962
		},
		{
			"buffer":0,
			"byteLength":720,
			"byteOffset":620012,
			"target":34963
		},
		{
			"buffer":0,
			"byteLength":936,
			"byteOffset":620732,
			"target":34962
		},
		{
			"buffer":0,
			"byteLength":936,
			"byteOffset":621668,
			"target":34962
		},
		{
			"buffer":0,
			"byteLength":624,
			"byteOffset":622604,
			"target":34962
		},
		{
			"buffer":0,
			"byteLength":312,
			"byteOffset":623228,
			"target":34962
		},
		{
			"buffer":0,
			"byteLength":1248,
			"byteOffset":623540,
			"target":34962
		},
		{
			"buffer":0,
			"byteLength":528,
			"byteOffset":624788,
			"target":34963
		},
		{
			"buffer":0,
			"byteLength":288,
			"byteOffset":625316,
			"target":34962
		},
		{
			"buffer":0,
			"byteLength":288,
			"byteOffset":625604,
			"target":34962
		},
		{
			"buffer":0,
			"byteLength":192,
			"byteOffset":625892,
			"target":34962
		},
		{
			"buffer":0,
			"byteLength":96,
			"byteOffset":626084,
			"target":34962
		},
		{
			"buffer":0,
			"byteLength":384,
			"byteOffset":626180,
			"target":34962
		},
		{
			"buffer":0,
			"byteLength":72,
			"byteOffset":626564,
			"target":34963
		},
		{
			"buffer":0,
			"byteLength":504,
			"byteOffset":626636,
			"target":34962
		},
		{
			"buffer":0,
			"byteLength":504,
			"byteOffset":627140,
			"target":34962
		},
		{
			"buffer":0,
			"byteLength":336,
			"byteOffset":627644,
			"target":34962
		},
		{
			"buffer":0,
			"byteLength":168,
			"byteOffset":627980,
			"target":34962
		},
		{
			"buffer":0,
			"byteLength":672,
			"byteOffset":628148,
			"target":34962
		},
		{
			"buffer":0,
			"byteLength":192,
			"byteOffset":628820,
			"target":34963
		},
		{
			"buffer":0,
			"byteLength":2616,
			"byteOffset":629012,
			"target":34962
		},
		{
			"buffer":0,
			"byteLength":2616,
			"byteOffset":631628,
			"target":34962
		},
		{
			"buffer":0,
			"byteLength":1744,
			"byteOffset":634244,
			"target":34962
		},
		{
			"buffer":0,
			"byteLength":872,
			"byteOffset":635988,
			"target":34962
		},
		{
			"buffer":0,
			"byteLength":3488,
			"byteOffset":636860,
			"target":34962
		},
		{
			"buffer":0,
			"byteLength":1680,
			"byteOffset":640348,
			"target":34963
		},
		{
			"buffer":0,
			"byteLength":1088,
			"byteOffset":642028
		},
		{
			"buffer":0,
			"byteLength":8,
			"byteOffset":643116
		},
		{
			"buffer":0,
			"byteLength":24,
			"byteOffset":643124
		},
		{
			"buffer":0,
			"byteLength":32,
			"byteOffset":643148
		},
		{
			"buffer":0,
			"byteLength":24,
			"byteOffset":643180
		},
		{
			"buffer":0,
			"byteLength":24,
			"byteOffset":643204
		},
		{
			"buffer":0,
			"byteLength":32,
			"byteOffset":643228
		},
		{
			"buffer":0,
			"byteLength":24,
			"byteOffset":643260
		},
		{
			"buffer":0,
			"byteLength":24,
			"byteOffset":643284
		},
		{
			"buffer":0,
			"byteLength":76,
			"byteOffset":643308
		},
		{
			"buffer":0,
			"byteLength":304,
			"byteOffset":643384
		},
		{
			"buffer":0,
			"byteLength":24,
			"byteOffset":643688
		},
		{
			"buffer":0,
			"byteLength":24,
			"byteOffset":643712
		},
		{
			"buffer":0,
			"byteLength":32,
			"byteOffset":643736
		},
		{
			"buffer":0,
			"byteLength":24,
			"byteOffset":643768
		},
		{
			"buffer":0,
			"byteLength":24,
			"byteOffset":643792
		},
		{
			"buffer":0,
			"byteLength":32,
			"byteOffset":643816
		},
		{
			"buffer":0,
			"byteLength":24,
			"byteOffset":643848
		},
		{
			"buffer":0,
			"byteLength":24,
			"byteOffset":643872
		},
		{
			"buffer":0,
			"byteLength":304,
			"byteOffset":643896
		},
		{
			"buffer":0,
			"byteLength":24,
			"byteOffset":644200
		},
		{
			"buffer":0,
			"byteLength":24,
			"byteOffset":644224
		},
		{
			"buffer":0,
			"byteLength":304,
			"byteOffset":644248
		},
		{
			"buffer":0,
			"byteLength":24,
			"byteOffset":644552
		},
		{
			"buffer":0,
			"byteLength":24,
			"byteOffset":644576
		},
		{
			"buffer":0,
			"byteLength":32,
			"byteOffset":644600
		},
		{
			"buffer":0,
			"byteLength":24,
			"byteOffset":644632
		},
		{
			"buffer":0,
			"byteLength":24,
			"byteOffset":644656
		},
		{
			"buffer":0,
			"byteLength":304,
			"byteOffset":644680
		},
		{
			"buffer":0,
			"byteLength":24,
			"byteOffset":644984
		},
		{
			"buffer":0,
			"byteLength":24,
			"byteOffset":645008
		},
		{
			"buffer":0,
			"byteLength":32,
			"byteOffset":645032
		},
		{
			"buffer":0,
			"byteLength":24,
			"byteOffset":645064
		},
		{
			"buffer":0,
			"byteLength":24,
			"byteOffset":645088
		},
		{
			"buffer":0,
			"byteLength":32,
			"byteOffset":645112
		},
		{
			"buffer":0,
			"byteLength":24,
			"byteOffset":645144
		},
		{
			"buffer":0,
			"byteLength":24,
			"byteOffset":645168
		},
		{
			"buffer":0,
			"byteLength":304,
			"byteOffset":645192
		},
		{
			"buffer":0,
			"byteLength":24,
			"byteOffset":645496
		},
		{
			"buffer":0,
			"byteLength":24,
			"byteOffset":645520
		},
		{
			"buffer":0,
			"byteLength":32,
			"byteOffset":645544
		},
		{
			"buffer":0,
			"byteLength":24,
			"byteOffset":645576
		},
		{
			"buffer":0,
			"byteLength":24,
			"byteOffset":645600
		},
		{
			"buffer":0,
			"byteLength":32,
			"byteOffset":645624
		},
		{
			"buffer":0,
			"byteLength":24,
			"byteOffset":645656
		},
		{
			"buffer":0,
			"byteLength":24,
			"byteOffset":645680
		},
		{
			"buffer":0,
			"byteLength":304,
			"byteOffset":645704
		},
		{
			"buffer":0,
			"byteLength":24,
			"byteOffset":646008
		},
		{
			"buffer":0,
			"byteLength":24,
			"byteOffset":646032
		},
		{
			"buffer":0,
			"byteLength":32,
			"byteOffset":646056
		},
		{
			"buffer":0,
			"byteLength":24,
			"byteOffset":646088
		},
		{
			"buffer":0,
			"byteLength":24,
			"byteOffset":646112
		},
		{
			"buffer":0,
			"byteLength":32,
			"byteOffset":646136
		},
		{
			"buffer":0,
			"byteLength":24,
			"byteOffset":646168
		},
		{
			"buffer":0,
			"byteLength":244,
			"byteOffset":646192
		},
		{
			"buffer":0,
			"byteLength":732,
			"byteOffset":646436
		},
		{
			"buffer":0,
			"byteLength":8,
			"byteOffset":647168
		},
		{
			"buffer":0,
			"byteLength":32,
			"byteOffset":647176
		},
		{
			"buffer":0,
			"byteLength":24,
			"byteOffset":647208
		},
		{
			"buffer":0,
			"byteLength":24,
			"byteOffset":647232
		},
		{
			"buffer":0,
			"byteLength":32,
			"byteOffset":647256
		},
		{
			"buffer":0,
			"byteLength":24,
			"byteOffset":647288
		},
		{
			"buffer":0,
			"byteLength":24,
			"byteOffset":647312
		},
		{
			"buffer":0,
			"byteLength":976,
			"byteOffset":647336
		},
		{
			"buffer":0,
			"byteLength":24,
			"byteOffset":648312
		},
		{
			"buffer":0,
			"byteLength":24,
			"byteOffset":648336
		},
		{
			"buffer":0,
			"byteLength":32,
			"byteOffset":648360
		},
		{
			"buffer":0,
			"byteLength":24,
			"byteOffset":648392
		},
		{
			"buffer":0,
			"byteLength":24,
			"byteOffset":648416
		},
		{
			"buffer":0,
			"byteLength":976,
			"byteOffset":648440
		},
		{
			"buffer":0,
			"byteLength":24,
			"byteOffset":649416
		},
		{
			"buffer":0,
			"byteLength":24,
			"byteOffset":649440
		},
		{
			"buffer":0,
			"byteLength":976,
			"byteOffset":649464
		},
		{
			"buffer":0,
			"byteLength":24,
			"byteOffset":650440
		},
		{
			"buffer":0,
			"byteLength":24,
			"byteOffset":650464
		},
		{
			"buffer":0,
			"byteLength":32,
			"byteOffset":650488
		},
		{
			"buffer":0,
			"byteLength":24,
			"byteOffset":650520
		},
		{
			"buffer":0,
			"byteLength":24,
			"byteOffset":650544
		},
		{
			"buffer":0,
			"byteLength":32,
			"byteOffset":650568
		},
		{
			"buffer":0,
			"byteLength":24,
			"byteOffset":650600
		},
		{
			"buffer":0,
			"byteLength":24,
			"byteOffset":650624
		},
		{
			"buffer":0,
			"byteLength":976,
			"byteOffset":650648
		},
		{
			"buffer":0,
			"byteLength":24,
			"byteOffset":651624
		},
		{
			"buffer":0,
			"byteLength":24,
			"byteOffset":651648
		},
		{
			"buffer":0,
			"byteLength":32,
			"byteOffset":651672
		},
		{
			"buffer":0,
			"byteLength":24,
			"byteOffset":651704
		},
		{
			"buffer":0,
			"byteLength":24,
			"byteOffset":651728
		},
		{
			"buffer":0,
			"byteLength":32,
			"byteOffset":651752
		},
		{
			"buffer":0,
			"byteLength":24,
			"byteOffset":651784
		},
		{
			"buffer":0,
			"byteLength":24,
			"byteOffset":651808
		},
		{
			"buffer":0,
			"byteLength":32,
			"byteOffset":651832
		},
		{
			"buffer":0,
			"byteLength":24,
			"byteOffset":651864
		},
		{
			"buffer":0,
			"byteLength":24,
			"byteOffset":651888
		},
		{
			"buffer":0,
			"byteLength":32,
			"byteOffset":651912
		},
		{
			"buffer":0,
			"byteLength":24,
			"byteOffset":651944
		},
		{
			"buffer":0,
			"byteLength":24,
			"byteOffset":651968
		},
		{
			"buffer":0,
			"byteLength":32,
			"byteOffset":651992
		},
		{
			"buffer":0,
			"byteLength":24,
			"byteOffset":652024
		},
		{
			"buffer":0,
			"byteLength":24,
			"byteOffset":652048
		},
		{
			"buffer":0,
			"byteLength":32,
			"byteOffset":652072
		},
		{
			"buffer":0,
			"byteLength":24,
			"byteOffset":652104
		},
		{
			"buffer":0,
			"byteLength":24,
			"byteOffset":652128
		},
		{
			"buffer":0,
			"byteLength":32,
			"byteOffset":652152
		},
		{
			"buffer":0,
			"byteLength":24,
			"byteOffset":652184
		},
		{
			"buffer":0,
			"byteLength":24,
			"byteOffset":652208
		},
		{
			"buffer":0,
			"byteLength":32,
			"byteOffset":652232
		},
		{
			"buffer":0,
			"byteLength":24,
			"byteOffset":652264
		},
		{
			"buffer":0,
			"byteLength":124,
			"byteOffset":652288
		},
		{
			"buffer":0,
			"byteLength":372,
			"byteOffset":652412
		},
		{
			"buffer":0,
			"byteLength":496,
			"byteOffset":652784
		},
		{
			"buffer":0,
			"byteLength":8,
			"byteOffset":653280
		},
		{
			"buffer":0,
			"byteLength":24,
			"byteOffset":653288
		},
		{
			"buffer":0,
			"byteLength":24,
			"byteOffset":653312
		},
		{
			"buffer":0,
			"byteLength":32,
			"byteOffset":653336
		},
		{
			"buffer":0,
			"byteLength":24,
			"byteOffset":653368
		},
		{
			"buffer":0,
			"byteLength":24,
			"byteOffset":653392
		},
		{
			"buffer":0,
			"byteLength":496,
			"byteOffset":653416
		},
		{
			"buffer":0,
			"byteLength":24,
			"byteOffset":653912
		},
		{
			"buffer":0,
			"byteLength":24,
			"byteOffset":653936
		},
		{
			"buffer":0,
			"byteLength":32,
			"byteOffset":653960
		},
		{
			"buffer":0,
			"byteLength":24,
			"byteOffset":653992
		},
		{
			"buffer":0,
			"byteLength":24,
			"byteOffset":654016
		},
		{
			"buffer":0,
			"byteLength":32,
			"byteOffset":654040
		},
		{
			"buffer":0,
			"byteLength":24,
			"byteOffset":654072
		},
		{
			"buffer":0,
			"byteLength":24,
			"byteOffset":654096
		},
		{
			"buffer":0,
			"byteLength":496,
			"byteOffset":654120
		},
		{
			"buffer":0,
			"byteLength":24,
			"byteOffset":654616
		},
		{
			"buffer":0,
			"byteLength":24,
			"byteOffset":654640
		},
		{
			"buffer":0,
			"byteLength":32,
			"byteOffset":654664
		},
		{
			"buffer":0,
			"byteLength":24,
			"byteOffset":654696
		},
		{
			"buffer":0,
			"byteLength":24,
			"byteOffset":654720
		},
		{
			"buffer":0,
			"byteLength":32,
			"byteOffset":654744
		},
		{
			"buffer":0,
			"byteLength":24,
			"byteOffset":654776
		},
		{
			"buffer":0,
			"byteLength":24,
			"byteOffset":654800
		},
		{
			"buffer":0,
			"byteLength":496,
			"byteOffset":654824
		},
		{
			"buffer":0,
			"byteLength":24,
			"byteOffset":655320
		},
		{
			"buffer":0,
			"byteLength":24,
			"byteOffset":655344
		},
		{
			"buffer":0,
			"byteLength":32,
			"byteOffset":655368
		},
		{
			"buffer":0,
			"byteLength":24,
			"byteOffset":655400
		},
		{
			"buffer":0,
			"byteLength":24,
			"byteOffset":655424
		},
		{
			"buffer":0,
			"byteLength":32,
			"byteOffset":655448
		},
		{
			"buffer":0,
			"byteLength":24,
			"byteOffset":655480
		},
		{
			"buffer":0,
			"byteLength":24,
			"byteOffset":655504
		},
		{
			"buffer":0,
			"byteLength":496,
			"byteOffset":655528
		},
		{
			"buffer":0,
			"byteLength":24,
			"byteOffset":656024
		},
		{
			"buffer":0,
			"byteLength":24,
			"byteOffset":656048
		},
		{
			"buffer":0,
			"byteLength":496,
			"byteOffset":656072
		},
		{
			"buffer":0,
			"byteLength":24,
			"byteOffset":656568
		},
		{
			"buffer":0,
			"byteLength":24,
			"byteOffset":656592
		},
		{
			"buffer":0,
			"byteLength":496,
			"byteOffset":656616
		},
		{
			"buffer":0,
			"byteLength":24,
			"byteOffset":657112
		},
		{
			"buffer":0,
			"byteLength":24,
			"byteOffset":657136
		},
		{
			"buffer":0,
			"byteLength":496,
			"byteOffset":657160
		},
		{
			"buffer":0,
			"byteLength":24,
			"byteOffset":657656
		},
		{
			"buffer":0,
			"byteLength":24,
			"byteOffset":657680
		},
		{
			"buffer":0,
			"byteLength":496,
			"byteOffset":657704
		},
		{
			"buffer":0,
			"byteLength":24,
			"byteOffset":658200
		},
		{
			"buffer":0,
			"byteLength":24,
			"byteOffset":658224
		},
		{
			"buffer":0,
			"byteLength":496,
			"byteOffset":658248
		},
		{
			"buffer":0,
			"byteLength":24,
			"byteOffset":658744
		}
	],
	"samplers":[
		{
			"magFilter":9729,
			"minFilter":9987
		}
	],
	"buffers":[
		{
			"byteLength":658768,
			"uri":"eren.bin"
		}
	]
}
