{
	"asset":{
		"generator":"Khronos glTF Blender I/O v4.2.57",
		"version":"2.0"
	},
	"extensionsUsed":[
		"KHR_materials_clearcoat",
		"KHR_materials_sheen"
	],
	"scene":0,
	"scenes":[
		{
			"name":"Scene",
			"nodes":[
				22
			]
		}
	],
	"nodes":[
		{
			"name":"wing_tip.R",
			"rotation":[
				-0.5077806711196899,
				-0.5573583245277405,
				-0.04700807109475136,
				0.6552104353904724
			],
			"scale":[
				1,
				1,
				1.0000001192092896
			],
			"translation":[
				-2.2351741790771484e-08,
				0.4715930223464966,
				-8.940696716308594e-08
			]
		},
		{
			"children":[
				0
			],
			"name":"wing.R",
			"rotation":[
				-0.0879097431898117,
				-0.4420471787452698,
				-0.4420471787452698,
				0.7755388021469116
			],
			"translation":[
				0.05999999865889549,
				0.11000001430511475,
				0.11999999731779099
			]
		},
		{
			"name":"wing_tip.L",
			"rotation":[
				-0.5077806711196899,
				0.5573583245277405,
				0.04700807109475136,
				0.6552104353904724
			],
			"scale":[
				1,
				1,
				1.0000001192092896
			],
			"translation":[
				2.2351741790771484e-08,
				0.4715930223464966,
				-8.940696716308594e-08
			]
		},
		{
			"children":[
				2
			],
			"name":"wing.L",
			"rotation":[
				-0.0879097431898117,
				0.4420471787452698,
				0.4420471787452698,
				0.7755388021469116
			],
			"translation":[
				-0.05999999865889549,
				0.11000001430511475,
				0.11999999731779099
			]
		},
		{
			"name":"head",
			"translation":[
				0,
				0.09999990463256836,
				0
			]
		},
		{
			"children":[
				4
			],
			"name":"neck",
			"translation":[
				0,
				0.21000003814697266,
				0
			]
		},
		{
			"name":"hand.R",
			"rotation":[
				-0.0023571813944727182,
				-0.016418322920799255,
				0.017660969868302345,
				0.9997064471244812
			],
			"translation":[
				-1.9208528101444244e-09,
				0.2513878643512726,
				-2.7939677238464355e-09
			]
		},
		{
			"children":[
				6
			],
			"name":"forearm.R",
			"rotation":[
				0.05022275075316429,
				-0.05592827498912811,
				0.06416802108287811,
				0.9951040744781494
			],
			"scale":[
				1,
				1.0000001192092896,
				1
			],
			"translation":[
				3.91155481338501e-08,
				0.27479061484336853,
				-2.7939677238464355e-09
			]
		},
		{
			"children":[
				7
			],
			"name":"upper_arm.R",
			"rotation":[
				0.9912914633750916,
				0.09286591410636902,
				0.09286512434482574,
				0.009655661880970001
			],
			"scale":[
				1.0000052452087402,
				1.0000001192092896,
				1.000000238418579
			],
			"translation":[
				0.1720000058412552,
				0.15999996662139893,
				0
			]
		},
		{
			"name":"hand.L",
			"rotation":[
				-0.0023571813944727182,
				0.016418322920799255,
				-0.017660969868302345,
				0.9997064471244812
			],
			"translation":[
				1.9208528101444244e-09,
				0.2513878643512726,
				-2.7939677238464355e-09
			]
		},
		{
			"children":[
				9
			],
			"name":"forearm.L",
			"rotation":[
				0.05022275075316429,
				0.05592827498912811,
				-0.06416802108287811,
				0.9951040744781494
			],
			"scale":[
				1,
				1.0000001192092896,
				1
			],
			"translation":[
				-3.91155481338501e-08,
				0.27479061484336853,
				-2.7939677238464355e-09
			]
		},
		{
			"children":[
				10
			],
			"name":"upper_arm.L",
			"rotation":[
				0.9912914633750916,
				-0.09286591410636902,
				-0.09286512434482574,
				0.009655661880970001
			],
			"scale":[
				1.0000052452087402,
				1.0000001192092896,
				1.000000238418579
			],
			"translation":[
				-0.1720000058412552,
				0.15999996662139893,
				0
			]
		},
		{
			"children":[
				1,
				3,
				5,
				8,
				11
			],
			"name":"chest",
			"translation":[
				0,
				0.16999995708465576,
				0
			]
		},
		{
			"children":[
				12
			],
			"name":"spine",
			"translation":[
				0,
				0.15000003576278687,
				0
			]
		},
		{
			"name":"foot.R",
			"rotation":[
				0.5914181470870972,
				2.087205963618999e-09,
				-3.036795537258996e-10,
				0.8063650131225586
			],
			"translation":[
				-7.328945450524316e-09,
				0.4105897545814514,
				-2.2662050014332635e-10
			]
		},
		{
			"children":[
				14
			],
			"name":"shin.R",
			"rotation":[
				-0.04152866080403328,
				-0.010850693099200726,
				0.010284049436450005,
				0.9990255236625671
			],
			"scale":[
				1,
				1.0000001192092896,
				1
			],
			"translation":[
				-4.103640094399452e-09,
				0.4102700352668762,
				-1.1641532182693481e-09
			]
		},
		{
			"children":[
				15
			],
			"name":"thigh.R",
			"rotation":[
				-0.9997796416282654,
				-0.010571159422397614,
				-0.010571259073913097,
				0.014739512465894222
			],
			"scale":[
				1.0000001192092896,
				1,
				1.000000238418579
			],
			"translation":[
				0.10119999945163727,
				-0.019999980926513672,
				0
			]
		},
		{
			"name":"foot.L",
			"rotation":[
				0.5914181470870972,
				-2.087205963618999e-09,
				3.036795537258996e-10,
				0.8063650131225586
			],
			"translation":[
				7.328945450524316e-09,
				0.4105897545814514,
				-2.2662050014332635e-10
			]
		},
		{
			"children":[
				17
			],
			"name":"shin.L",
			"rotation":[
				-0.04152866080403328,
				0.010850693099200726,
				-0.010284049436450005,
				0.9990255236625671
			],
			"scale":[
				1,
				1.0000001192092896,
				1
			],
			"translation":[
				4.103640094399452e-09,
				0.4102700352668762,
				-1.1641532182693481e-09
			]
		},
		{
			"children":[
				18
			],
			"name":"thigh.L",
			"rotation":[
				-0.9997796416282654,
				0.010571159422397614,
				0.010571259073913097,
				0.014739512465894222
			],
			"scale":[
				1.0000001192092896,
				1,
				1.000000238418579
			],
			"translation":[
				-0.10119999945163727,
				-0.019999980926513672,
				0
			]
		},
		{
			"children":[
				13,
				16,
				19
			],
			"name":"hips",
			"translation":[
				0,
				0.9300000071525574,
				0
			]
		},
		{
			"mesh":0,
			"name":"frey",
			"skin":0
		},
		{
			"children":[
				21,
				20
			],
			"name":"frey_rig"
		}
	],
	"animations":[
		{
			"channels":[
				{
					"sampler":0,
					"target":{
						"node":20,
						"path":"translation"
					}
				},
				{
					"sampler":1,
					"target":{
						"node":20,
						"path":"rotation"
					}
				},
				{
					"sampler":2,
					"target":{
						"node":20,
						"path":"scale"
					}
				},
				{
					"sampler":3,
					"target":{
						"node":13,
						"path":"translation"
					}
				},
				{
					"sampler":4,
					"target":{
						"node":13,
						"path":"rotation"
					}
				},
				{
					"sampler":5,
					"target":{
						"node":13,
						"path":"scale"
					}
				},
				{
					"sampler":6,
					"target":{
						"node":12,
						"path":"translation"
					}
				},
				{
					"sampler":7,
					"target":{
						"node":12,
						"path":"rotation"
					}
				},
				{
					"sampler":8,
					"target":{
						"node":12,
						"path":"scale"
					}
				},
				{
					"sampler":9,
					"target":{
						"node":1,
						"path":"translation"
					}
				},
				{
					"sampler":10,
					"target":{
						"node":1,
						"path":"rotation"
					}
				},
				{
					"sampler":11,
					"target":{
						"node":1,
						"path":"scale"
					}
				},
				{
					"sampler":12,
					"target":{
						"node":0,
						"path":"translation"
					}
				},
				{
					"sampler":13,
					"target":{
						"node":0,
						"path":"rotation"
					}
				},
				{
					"sampler":14,
					"target":{
						"node":0,
						"path":"scale"
					}
				},
				{
					"sampler":15,
					"target":{
						"node":3,
						"path":"translation"
					}
				},
				{
					"sampler":16,
					"target":{
						"node":3,
						"path":"rotation"
					}
				},
				{
					"sampler":17,
					"target":{
						"node":3,
						"path":"scale"
					}
				},
				{
					"sampler":18,
					"target":{
						"node":2,
						"path":"translation"
					}
				},
				{
					"sampler":19,
					"target":{
						"node":2,
						"path":"rotation"
					}
				},
				{
					"sampler":20,
					"target":{
						"node":2,
						"path":"scale"
					}
				},
				{
					"sampler":21,
					"target":{
						"node":5,
						"path":"translation"
					}
				},
				{
					"sampler":22,
					"target":{
						"node":5,
						"path":"rotation"
					}
				},
				{
					"sampler":23,
					"target":{
						"node":5,
						"path":"scale"
					}
				},
				{
					"sampler":24,
					"target":{
						"node":4,
						"path":"translation"
					}
				},
				{
					"sampler":25,
					"target":{
						"node":4,
						"path":"rotation"
					}
				},
				{
					"sampler":26,
					"target":{
						"node":4,
						"path":"scale"
					}
				},
				{
					"sampler":27,
					"target":{
						"node":8,
						"path":"translation"
					}
				},
				{
					"sampler":28,
					"target":{
						"node":8,
						"path":"rotation"
					}
				},
				{
					"sampler":29,
					"target":{
						"node":8,
						"path":"scale"
					}
				},
				{
					"sampler":30,
					"target":{
						"node":7,
						"path":"translation"
					}
				},
				{
					"sampler":31,
					"target":{
						"node":7,
						"path":"rotation"
					}
				},
				{
					"sampler":32,
					"target":{
						"node":7,
						"path":"scale"
					}
				},
				{
					"sampler":33,
					"target":{
						"node":6,
						"path":"translation"
					}
				},
				{
					"sampler":34,
					"target":{
						"node":6,
						"path":"rotation"
					}
				},
				{
					"sampler":35,
					"target":{
						"node":6,
						"path":"scale"
					}
				},
				{
					"sampler":36,
					"target":{
						"node":11,
						"path":"translation"
					}
				},
				{
					"sampler":37,
					"target":{
						"node":11,
						"path":"rotation"
					}
				},
				{
					"sampler":38,
					"target":{
						"node":11,
						"path":"scale"
					}
				},
				{
					"sampler":39,
					"target":{
						"node":10,
						"path":"translation"
					}
				},
				{
					"sampler":40,
					"target":{
						"node":10,
						"path":"rotation"
					}
				},
				{
					"sampler":41,
					"target":{
						"node":10,
						"path":"scale"
					}
				},
				{
					"sampler":42,
					"target":{
						"node":9,
						"path":"translation"
					}
				},
				{
					"sampler":43,
					"target":{
						"node":9,
						"path":"rotation"
					}
				},
				{
					"sampler":44,
					"target":{
						"node":9,
						"path":"scale"
					}
				},
				{
					"sampler":45,
					"target":{
						"node":16,
						"path":"translation"
					}
				},
				{
					"sampler":46,
					"target":{
						"node":16,
						"path":"rotation"
					}
				},
				{
					"sampler":47,
					"target":{
						"node":16,
						"path":"scale"
					}
				},
				{
					"sampler":48,
					"target":{
						"node":15,
						"path":"translation"
					}
				},
				{
					"sampler":49,
					"target":{
						"node":15,
						"path":"rotation"
					}
				},
				{
					"sampler":50,
					"target":{
						"node":15,
						"path":"scale"
					}
				},
				{
					"sampler":51,
					"target":{
						"node":14,
						"path":"translation"
					}
				},
				{
					"sampler":52,
					"target":{
						"node":14,
						"path":"rotation"
					}
				},
				{
					"sampler":53,
					"target":{
						"node":14,
						"path":"scale"
					}
				},
				{
					"sampler":54,
					"target":{
						"node":19,
						"path":"translation"
					}
				},
				{
					"sampler":55,
					"target":{
						"node":19,
						"path":"rotation"
					}
				},
				{
					"sampler":56,
					"target":{
						"node":19,
						"path":"scale"
					}
				},
				{
					"sampler":57,
					"target":{
						"node":18,
						"path":"translation"
					}
				},
				{
					"sampler":58,
					"target":{
						"node":18,
						"path":"rotation"
					}
				},
				{
					"sampler":59,
					"target":{
						"node":18,
						"path":"scale"
					}
				},
				{
					"sampler":60,
					"target":{
						"node":17,
						"path":"translation"
					}
				},
				{
					"sampler":61,
					"target":{
						"node":17,
						"path":"rotation"
					}
				},
				{
					"sampler":62,
					"target":{
						"node":17,
						"path":"scale"
					}
				}
			],
			"name":"attack",
			"samplers":[
				{
					"input":79,
					"interpolation":"STEP",
					"output":80
				},
				{
					"input":79,
					"interpolation":"STEP",
					"output":81
				},
				{
					"input":79,
					"interpolation":"STEP",
					"output":82
				},
				{
					"input":79,
					"interpolation":"STEP",
					"output":83
				},
				{
					"input":79,
					"interpolation":"STEP",
					"output":84
				},
				{
					"input":79,
					"interpolation":"STEP",
					"output":85
				},
				{
					"input":79,
					"interpolation":"STEP",
					"output":86
				},
				{
					"input":87,
					"interpolation":"LINEAR",
					"output":88
				},
				{
					"input":79,
					"interpolation":"STEP",
					"output":89
				},
				{
					"input":79,
					"interpolation":"STEP",
					"output":90
				},
				{
					"input":79,
					"interpolation":"STEP",
					"output":91
				},
				{
					"input":79,
					"interpolation":"STEP",
					"output":92
				},
				{
					"input":79,
					"interpolation":"STEP",
					"output":93
				},
				{
					"input":79,
					"interpolation":"STEP",
					"output":94
				},
				{
					"input":79,
					"interpolation":"STEP",
					"output":95
				},
				{
					"input":79,
					"interpolation":"STEP",
					"output":96
				},
				{
					"input":79,
					"interpolation":"STEP",
					"output":97
				},
				{
					"input":79,
					"interpolation":"STEP",
					"output":98
				},
				{
					"input":79,
					"interpolation":"STEP",
					"output":99
				},
				{
					"input":79,
					"interpolation":"STEP",
					"output":100
				},
				{
					"input":79,
					"interpolation":"STEP",
					"output":101
				},
				{
					"input":79,
					"interpolation":"STEP",
					"output":102
				},
				{
					"input":79,
					"interpolation":"STEP",
					"output":103
				},
				{
					"input":79,
					"interpolation":"STEP",
					"output":104
				},
				{
					"input":79,
					"interpolation":"STEP",
					"output":105
				},
				{
					"input":79,
					"interpolation":"STEP",
					"output":106
				},
				{
					"input":79,
					"interpolation":"STEP",
					"output":107
				},
				{
					"input":79,
					"interpolation":"STEP",
					"output":108
				},
				{
					"input":87,
					"interpolation":"LINEAR",
					"output":109
				},
				{
					"input":79,
					"interpolation":"STEP",
					"output":110
				},
				{
					"input":79,
					"interpolation":"STEP",
					"output":111
				},
				{
					"input":87,
					"interpolation":"LINEAR",
					"output":112
				},
				{
					"input":79,
					"interpolation":"STEP",
					"output":113
				},
				{
					"input":79,
					"interpolation":"LINEAR",
					"output":114
				},
				{
					"input":79,
					"interpolation":"LINEAR",
					"output":115
				},
				{
					"input":79,
					"interpolation":"STEP",
					"output":116
				},
				{
					"input":79,
					"interpolation":"STEP",
					"output":117
				},
				{
					"input":87,
					"interpolation":"LINEAR",
					"output":118
				},
				{
					"input":79,
					"interpolation":"STEP",
					"output":119
				},
				{
					"input":79,
					"interpolation":"STEP",
					"output":120
				},
				{
					"input":79,
					"interpolation":"STEP",
					"output":121
				},
				{
					"input":79,
					"interpolation":"STEP",
					"output":122
				},
				{
					"input":79,
					"interpolation":"STEP",
					"output":123
				},
				{
					"input":79,
					"interpolation":"STEP",
					"output":124
				},
				{
					"input":79,
					"interpolation":"STEP",
					"output":125
				},
				{
					"input":79,
					"interpolation":"STEP",
					"output":126
				},
				{
					"input":87,
					"interpolation":"LINEAR",
					"output":127
				},
				{
					"input":79,
					"interpolation":"STEP",
					"output":128
				},
				{
					"input":79,
					"interpolation":"LINEAR",
					"output":129
				},
				{
					"input":79,
					"interpolation":"LINEAR",
					"output":130
				},
				{
					"input":79,
					"interpolation":"STEP",
					"output":131
				},
				{
					"input":79,
					"interpolation":"LINEAR",
					"output":132
				},
				{
					"input":79,
					"interpolation":"LINEAR",
					"output":133
				},
				{
					"input":79,
					"interpolation":"STEP",
					"output":134
				},
				{
					"input":79,
					"interpolation":"STEP",
					"output":135
				},
				{
					"input":87,
					"interpolation":"LINEAR",
					"output":136
				},
				{
					"input":79,
					"interpolation":"STEP",
					"output":137
				},
				{
					"input":79,
					"interpolation":"LINEAR",
					"output":138
				},
				{
					"input":79,
					"interpolation":"LINEAR",
					"output":139
				},
				{
					"input":79,
					"interpolation":"STEP",
					"output":140
				},
				{
					"input":79,
					"interpolation":"LINEAR",
					"output":141
				},
				{
					"input":79,
					"interpolation":"LINEAR",
					"output":142
				},
				{
					"input":79,
					"interpolation":"STEP",
					"output":143
				}
			]
		},
		{
			"channels":[
				{
					"sampler":0,
					"target":{
						"node":20,
						"path":"translation"
					}
				},
				{
					"sampler":1,
					"target":{
						"node":20,
						"path":"rotation"
					}
				},
				{
					"sampler":2,
					"target":{
						"node":20,
						"path":"scale"
					}
				},
				{
					"sampler":3,
					"target":{
						"node":13,
						"path":"translation"
					}
				},
				{
					"sampler":4,
					"target":{
						"node":13,
						"path":"rotation"
					}
				},
				{
					"sampler":5,
					"target":{
						"node":13,
						"path":"scale"
					}
				},
				{
					"sampler":6,
					"target":{
						"node":12,
						"path":"translation"
					}
				},
				{
					"sampler":7,
					"target":{
						"node":12,
						"path":"rotation"
					}
				},
				{
					"sampler":8,
					"target":{
						"node":12,
						"path":"scale"
					}
				},
				{
					"sampler":9,
					"target":{
						"node":1,
						"path":"translation"
					}
				},
				{
					"sampler":10,
					"target":{
						"node":1,
						"path":"rotation"
					}
				},
				{
					"sampler":11,
					"target":{
						"node":1,
						"path":"scale"
					}
				},
				{
					"sampler":12,
					"target":{
						"node":0,
						"path":"translation"
					}
				},
				{
					"sampler":13,
					"target":{
						"node":0,
						"path":"rotation"
					}
				},
				{
					"sampler":14,
					"target":{
						"node":0,
						"path":"scale"
					}
				},
				{
					"sampler":15,
					"target":{
						"node":3,
						"path":"translation"
					}
				},
				{
					"sampler":16,
					"target":{
						"node":3,
						"path":"rotation"
					}
				},
				{
					"sampler":17,
					"target":{
						"node":3,
						"path":"scale"
					}
				},
				{
					"sampler":18,
					"target":{
						"node":2,
						"path":"translation"
					}
				},
				{
					"sampler":19,
					"target":{
						"node":2,
						"path":"rotation"
					}
				},
				{
					"sampler":20,
					"target":{
						"node":2,
						"path":"scale"
					}
				},
				{
					"sampler":21,
					"target":{
						"node":5,
						"path":"translation"
					}
				},
				{
					"sampler":22,
					"target":{
						"node":5,
						"path":"rotation"
					}
				},
				{
					"sampler":23,
					"target":{
						"node":5,
						"path":"scale"
					}
				},
				{
					"sampler":24,
					"target":{
						"node":4,
						"path":"translation"
					}
				},
				{
					"sampler":25,
					"target":{
						"node":4,
						"path":"rotation"
					}
				},
				{
					"sampler":26,
					"target":{
						"node":4,
						"path":"scale"
					}
				},
				{
					"sampler":27,
					"target":{
						"node":8,
						"path":"translation"
					}
				},
				{
					"sampler":28,
					"target":{
						"node":8,
						"path":"rotation"
					}
				},
				{
					"sampler":29,
					"target":{
						"node":8,
						"path":"scale"
					}
				},
				{
					"sampler":30,
					"target":{
						"node":7,
						"path":"translation"
					}
				},
				{
					"sampler":31,
					"target":{
						"node":7,
						"path":"rotation"
					}
				},
				{
					"sampler":32,
					"target":{
						"node":7,
						"path":"scale"
					}
				},
				{
					"sampler":33,
					"target":{
						"node":6,
						"path":"translation"
					}
				},
				{
					"sampler":34,
					"target":{
						"node":6,
						"path":"rotation"
					}
				},
				{
					"sampler":35,
					"target":{
						"node":6,
						"path":"scale"
					}
				},
				{
					"sampler":36,
					"target":{
						"node":11,
						"path":"translation"
					}
				},
				{
					"sampler":37,
					"target":{
						"node":11,
						"path":"rotation"
					}
				},
				{
					"sampler":38,
					"target":{
						"node":11,
						"path":"scale"
					}
				},
				{
					"sampler":39,
					"target":{
						"node":10,
						"path":"translation"
					}
				},
				{
					"sampler":40,
					"target":{
						"node":10,
						"path":"rotation"
					}
				},
				{
					"sampler":41,
					"target":{
						"node":10,
						"path":"scale"
					}
				},
				{
					"sampler":42,
					"target":{
						"node":9,
						"path":"translation"
					}
				},
				{
					"sampler":43,
					"target":{
						"node":9,
						"path":"rotation"
					}
				},
				{
					"sampler":44,
					"target":{
						"node":9,
						"path":"scale"
					}
				},
				{
					"sampler":45,
					"target":{
						"node":16,
						"path":"translation"
					}
				},
				{
					"sampler":46,
					"target":{
						"node":16,
						"path":"rotation"
					}
				},
				{
					"sampler":47,
					"target":{
						"node":16,
						"path":"scale"
					}
				},
				{
					"sampler":48,
					"target":{
						"node":15,
						"path":"translation"
					}
				},
				{
					"sampler":49,
					"target":{
						"node":15,
						"path":"rotation"
					}
				},
				{
					"sampler":50,
					"target":{
						"node":15,
						"path":"scale"
					}
				},
				{
					"sampler":51,
					"target":{
						"node":14,
						"path":"translation"
					}
				},
				{
					"sampler":52,
					"target":{
						"node":14,
						"path":"rotation"
					}
				},
				{
					"sampler":53,
					"target":{
						"node":14,
						"path":"scale"
					}
				},
				{
					"sampler":54,
					"target":{
						"node":19,
						"path":"translation"
					}
				},
				{
					"sampler":55,
					"target":{
						"node":19,
						"path":"rotation"
					}
				},
				{
					"sampler":56,
					"target":{
						"node":19,
						"path":"scale"
					}
				},
				{
					"sampler":57,
					"target":{
						"node":18,
						"path":"translation"
					}
				},
				{
					"sampler":58,
					"target":{
						"node":18,
						"path":"rotation"
					}
				},
				{
					"sampler":59,
					"target":{
						"node":18,
						"path":"scale"
					}
				},
				{
					"sampler":60,
					"target":{
						"node":17,
						"path":"translation"
					}
				},
				{
					"sampler":61,
					"target":{
						"node":17,
						"path":"rotation"
					}
				},
				{
					"sampler":62,
					"target":{
						"node":17,
						"path":"scale"
					}
				}
			],
			"name":"idle",
			"samplers":[
				{
					"input":144,
					"interpolation":"LINEAR",
					"output":145
				},
				{
					"input":146,
					"interpolation":"STEP",
					"output":147
				},
				{
					"input":146,
					"interpolation":"STEP",
					"output":148
				},
				{
					"input":146,
					"interpolation":"STEP",
					"output":149
				},
				{
					"input":146,
					"interpolation":"STEP",
					"output":150
				},
				{
					"input":146,
					"interpolation":"STEP",
					"output":151
				},
				{
					"input":146,
					"interpolation":"STEP",
					"output":152
				},
				{
					"input":144,
					"interpolation":"LINEAR",
					"output":153
				},
				{
					"input":146,
					"interpolation":"STEP",
					"output":154
				},
				{
					"input":146,
					"interpolation":"STEP",
					"output":155
				},
				{
					"input":144,
					"interpolation":"LINEAR",
					"output":156
				},
				{
					"input":146,
					"interpolation":"STEP",
					"output":157
				},
				{
					"input":146,
					"interpolation":"STEP",
					"output":158
				},
				{
					"input":146,
					"interpolation":"STEP",
					"output":159
				},
				{
					"input":146,
					"interpolation":"STEP",
					"output":160
				},
				{
					"input":146,
					"interpolation":"STEP",
					"output":161
				},
				{
					"input":144,
					"interpolation":"LINEAR",
					"output":162
				},
				{
					"input":146,
					"interpolation":"STEP",
					"output":163
				},
				{
					"input":146,
					"interpolation":"STEP",
					"output":164
				},
				{
					"input":146,
					"interpolation":"STEP",
					"output":165
				},
				{
					"input":146,
					"interpolation":"STEP",
					"output":166
				},
				{
					"input":146,
					"interpolation":"STEP",
					"output":167
				},
				{
					"input":146,
					"interpolation":"STEP",
					"output":168
				},
				{
					"input":146,
					"interpolation":"STEP",
					"output":169
				},
				{
					"input":146,
					"interpolation":"STEP",
					"output":170
				},
				{
					"input":144,
					"interpolation":"LINEAR",
					"output":171
				},
				{
					"input":146,
					"interpolation":"STEP",
					"output":172
				},
				{
					"input":146,
					"interpolation":"STEP",
					"output":173
				},
				{
					"input":144,
					"interpolation":"LINEAR",
					"output":174
				},
				{
					"input":146,
					"interpolation":"STEP",
					"output":175
				},
				{
					"input":146,
					"interpolation":"STEP",
					"output":176
				},
				{
					"input":146,
					"interpolation":"STEP",
					"output":177
				},
				{
					"input":146,
					"interpolation":"STEP",
					"output":178
				},
				{
					"input":146,
					"interpolation":"STEP",
					"output":179
				},
				{
					"input":146,
					"interpolation":"STEP",
					"output":180
				},
				{
					"input":146,
					"interpolation":"STEP",
					"output":181
				},
				{
					"input":146,
					"interpolation":"STEP",
					"output":182
				},
				{
					"input":144,
					"interpolation":"LINEAR",
					"output":183
				},
				{
					"input":146,
					"interpolation":"STEP",
					"output":184
				},
				{
					"input":146,
					"interpolation":"STEP",
					"output":185
				},
				{
					"input":146,
					"interpolation":"STEP",
					"output":186
				},
				{
					"input":146,
					"interpolation":"STEP",
					"output":187
				},
				{
					"input":146,
					"interpolation":"STEP",
					"output":188
				},
				{
					"input":146,
					"interpolation":"STEP",
					"output":189
				},
				{
					"input":146,
					"interpolation":"STEP",
					"output":190
				},
				{
					"input":146,
					"interpolation":"STEP",
					"output":191
				},
				{
					"input":146,
					"interpolation":"STEP",
					"output":192
				},
				{
					"input":146,
					"interpolation":"STEP",
					"output":193
				},
				{
					"input":146,
					"interpolation":"STEP",
					"output":194
				},
				{
					"input":146,
					"interpolation":"STEP",
					"output":195
				},
				{
					"input":146,
					"interpolation":"STEP",
					"output":196
				},
				{
					"input":146,
					"interpolation":"STEP",
					"output":197
				},
				{
					"input":146,
					"interpolation":"STEP",
					"output":198
				},
				{
					"input":146,
					"interpolation":"STEP",
					"output":199
				},
				{
					"input":146,
					"interpolation":"STEP",
					"output":200
				},
				{
					"input":146,
					"interpolation":"STEP",
					"output":201
				},
				{
					"input":146,
					"interpolation":"STEP",
					"output":202
				},
				{
					"input":146,
					"interpolation":"STEP",
					"output":203
				},
				{
					"input":146,
					"interpolation":"STEP",
					"output":204
				},
				{
					"input":146,
					"interpolation":"STEP",
					"output":205
				},
				{
					"input":146,
					"interpolation":"STEP",
					"output":206
				},
				{
					"input":146,
					"interpolation":"STEP",
					"output":207
				},
				{
					"input":146,
					"interpolation":"STEP",
					"output":208
				}
			]
		},
		{
			"channels":[
				{
					"sampler":0,
					"target":{
						"node":20,
						"path":"translation"
					}
				},
				{
					"sampler":1,
					"target":{
						"node":20,
						"path":"rotation"
					}
				},
				{
					"sampler":2,
					"target":{
						"node":20,
						"path":"scale"
					}
				},
				{
					"sampler":3,
					"target":{
						"node":13,
						"path":"translation"
					}
				},
				{
					"sampler":4,
					"target":{
						"node":13,
						"path":"rotation"
					}
				},
				{
					"sampler":5,
					"target":{
						"node":13,
						"path":"scale"
					}
				},
				{
					"sampler":6,
					"target":{
						"node":12,
						"path":"translation"
					}
				},
				{
					"sampler":7,
					"target":{
						"node":12,
						"path":"rotation"
					}
				},
				{
					"sampler":8,
					"target":{
						"node":12,
						"path":"scale"
					}
				},
				{
					"sampler":9,
					"target":{
						"node":1,
						"path":"translation"
					}
				},
				{
					"sampler":10,
					"target":{
						"node":1,
						"path":"rotation"
					}
				},
				{
					"sampler":11,
					"target":{
						"node":1,
						"path":"scale"
					}
				},
				{
					"sampler":12,
					"target":{
						"node":0,
						"path":"translation"
					}
				},
				{
					"sampler":13,
					"target":{
						"node":0,
						"path":"rotation"
					}
				},
				{
					"sampler":14,
					"target":{
						"node":0,
						"path":"scale"
					}
				},
				{
					"sampler":15,
					"target":{
						"node":3,
						"path":"translation"
					}
				},
				{
					"sampler":16,
					"target":{
						"node":3,
						"path":"rotation"
					}
				},
				{
					"sampler":17,
					"target":{
						"node":3,
						"path":"scale"
					}
				},
				{
					"sampler":18,
					"target":{
						"node":2,
						"path":"translation"
					}
				},
				{
					"sampler":19,
					"target":{
						"node":2,
						"path":"rotation"
					}
				},
				{
					"sampler":20,
					"target":{
						"node":2,
						"path":"scale"
					}
				},
				{
					"sampler":21,
					"target":{
						"node":5,
						"path":"translation"
					}
				},
				{
					"sampler":22,
					"target":{
						"node":5,
						"path":"rotation"
					}
				},
				{
					"sampler":23,
					"target":{
						"node":5,
						"path":"scale"
					}
				},
				{
					"sampler":24,
					"target":{
						"node":4,
						"path":"translation"
					}
				},
				{
					"sampler":25,
					"target":{
						"node":4,
						"path":"rotation"
					}
				},
				{
					"sampler":26,
					"target":{
						"node":4,
						"path":"scale"
					}
				},
				{
					"sampler":27,
					"target":{
						"node":8,
						"path":"translation"
					}
				},
				{
					"sampler":28,
					"target":{
						"node":8,
						"path":"rotation"
					}
				},
				{
					"sampler":29,
					"target":{
						"node":8,
						"path":"scale"
					}
				},
				{
					"sampler":30,
					"target":{
						"node":7,
						"path":"translation"
					}
				},
				{
					"sampler":31,
					"target":{
						"node":7,
						"path":"rotation"
					}
				},
				{
					"sampler":32,
					"target":{
						"node":7,
						"path":"scale"
					}
				},
				{
					"sampler":33,
					"target":{
						"node":6,
						"path":"translation"
					}
				},
				{
					"sampler":34,
					"target":{
						"node":6,
						"path":"rotation"
					}
				},
				{
					"sampler":35,
					"target":{
						"node":6,
						"path":"scale"
					}
				},
				{
					"sampler":36,
					"target":{
						"node":11,
						"path":"translation"
					}
				},
				{
					"sampler":37,
					"target":{
						"node":11,
						"path":"rotation"
					}
				},
				{
					"sampler":38,
					"target":{
						"node":11,
						"path":"scale"
					}
				},
				{
					"sampler":39,
					"target":{
						"node":10,
						"path":"translation"
					}
				},
				{
					"sampler":40,
					"target":{
						"node":10,
						"path":"rotation"
					}
				},
				{
					"sampler":41,
					"target":{
						"node":10,
						"path":"scale"
					}
				},
				{
					"sampler":42,
					"target":{
						"node":9,
						"path":"translation"
					}
				},
				{
					"sampler":43,
					"target":{
						"node":9,
						"path":"rotation"
					}
				},
				{
					"sampler":44,
					"target":{
						"node":9,
						"path":"scale"
					}
				},
				{
					"sampler":45,
					"target":{
						"node":16,
						"path":"translation"
					}
				},
				{
					"sampler":46,
					"target":{
						"node":16,
						"path":"rotation"
					}
				},
				{
					"sampler":47,
					"target":{
						"node":16,
						"path":"scale"
					}
				},
				{
					"sampler":48,
					"target":{
						"node":15,
						"path":"translation"
					}
				},
				{
					"sampler":49,
					"target":{
						"node":15,
						"path":"rotation"
					}
				},
				{
					"sampler":50,
					"target":{
						"node":15,
						"path":"scale"
					}
				},
				{
					"sampler":51,
					"target":{
						"node":14,
						"path":"translation"
					}
				},
				{
					"sampler":52,
					"target":{
						"node":14,
						"path":"rotation"
					}
				},
				{
					"sampler":53,
					"target":{
						"node":14,
						"path":"scale"
					}
				},
				{
					"sampler":54,
					"target":{
						"node":19,
						"path":"translation"
					}
				},
				{
					"sampler":55,
					"target":{
						"node":19,
						"path":"rotation"
					}
				},
				{
					"sampler":56,
					"target":{
						"node":19,
						"path":"scale"
					}
				},
				{
					"sampler":57,
					"target":{
						"node":18,
						"path":"translation"
					}
				},
				{
					"sampler":58,
					"target":{
						"node":18,
						"path":"rotation"
					}
				},
				{
					"sampler":59,
					"target":{
						"node":18,
						"path":"scale"
					}
				},
				{
					"sampler":60,
					"target":{
						"node":17,
						"path":"translation"
					}
				},
				{
					"sampler":61,
					"target":{
						"node":17,
						"path":"rotation"
					}
				},
				{
					"sampler":62,
					"target":{
						"node":17,
						"path":"scale"
					}
				}
			],
			"name":"walk",
			"samplers":[
				{
					"input":209,
					"interpolation":"LINEAR",
					"output":210
				},
				{
					"input":209,
					"interpolation":"LINEAR",
					"output":211
				},
				{
					"input":212,
					"interpolation":"STEP",
					"output":213
				},
				{
					"input":212,
					"interpolation":"STEP",
					"output":214
				},
				{
					"input":212,
					"interpolation":"STEP",
					"output":215
				},
				{
					"input":212,
					"interpolation":"STEP",
					"output":216
				},
				{
					"input":212,
					"interpolation":"STEP",
					"output":217
				},
				{
					"input":209,
					"interpolation":"LINEAR",
					"output":218
				},
				{
					"input":212,
					"interpolation":"STEP",
					"output":219
				},
				{
					"input":212,
					"interpolation":"STEP",
					"output":220
				},
				{
					"input":209,
					"interpolation":"LINEAR",
					"output":221
				},
				{
					"input":212,
					"interpolation":"STEP",
					"output":222
				},
				{
					"input":212,
					"interpolation":"STEP",
					"output":223
				},
				{
					"input":212,
					"interpolation":"STEP",
					"output":224
				},
				{
					"input":212,
					"interpolation":"STEP",
					"output":225
				},
				{
					"input":212,
					"interpolation":"STEP",
					"output":226
				},
				{
					"input":209,
					"interpolation":"LINEAR",
					"output":227
				},
				{
					"input":212,
					"interpolation":"STEP",
					"output":228
				},
				{
					"input":212,
					"interpolation":"STEP",
					"output":229
				},
				{
					"input":212,
					"interpolation":"STEP",
					"output":230
				},
				{
					"input":212,
					"interpolation":"STEP",
					"output":231
				},
				{
					"input":212,
					"interpolation":"STEP",
					"output":232
				},
				{
					"input":212,
					"interpolation":"STEP",
					"output":233
				},
				{
					"input":212,
					"interpolation":"STEP",
					"output":234
				},
				{
					"input":212,
					"interpolation":"STEP",
					"output":235
				},
				{
					"input":212,
					"interpolation":"STEP",
					"output":236
				},
				{
					"input":212,
					"interpolation":"STEP",
					"output":237
				},
				{
					"input":212,
					"interpolation":"STEP",
					"output":238
				},
				{
					"input":209,
					"interpolation":"LINEAR",
					"output":239
				},
				{
					"input":212,
					"interpolation":"STEP",
					"output":240
				},
				{
					"input":212,
					"interpolation":"STEP",
					"output":241
				},
				{
					"input":212,
					"interpolation":"STEP",
					"output":242
				},
				{
					"input":212,
					"interpolation":"STEP",
					"output":243
				},
				{
					"input":212,
					"interpolation":"STEP",
					"output":244
				},
				{
					"input":212,
					"interpolation":"STEP",
					"output":245
				},
				{
					"input":212,
					"interpolation":"STEP",
					"output":246
				},
				{
					"input":212,
					"interpolation":"STEP",
					"output":247
				},
				{
					"input":209,
					"interpolation":"LINEAR",
					"output":248
				},
				{
					"input":212,
					"interpolation":"STEP",
					"output":249
				},
				{
					"input":212,
					"interpolation":"STEP",
					"output":250
				},
				{
					"input":212,
					"interpolation":"STEP",
					"output":251
				},
				{
					"input":212,
					"interpolation":"STEP",
					"output":252
				},
				{
					"input":212,
					"interpolation":"STEP",
					"output":253
				},
				{
					"input":212,
					"interpolation":"STEP",
					"output":254
				},
				{
					"input":212,
					"interpolation":"STEP",
					"output":255
				},
				{
					"input":212,
					"interpolation":"STEP",
					"output":256
				},
				{
					"input":209,
					"interpolation":"LINEAR",
					"output":257
				},
				{
					"input":212,
					"interpolation":"STEP",
					"output":258
				},
				{
					"input":212,
					"interpolation":"STEP",
					"output":259
				},
				{
					"input":209,
					"interpolation":"LINEAR",
					"output":260
				},
				{
					"input":212,
					"interpolation":"STEP",
					"output":261
				},
				{
					"input":212,
					"interpolation":"STEP",
					"output":262
				},
				{
					"input":209,
					"interpolation":"LINEAR",
					"output":263
				},
				{
					"input":212,
					"interpolation":"STEP",
					"output":264
				},
				{
					"input":212,
					"interpolation":"STEP",
					"output":265
				},
				{
					"input":209,
					"interpolation":"LINEAR",
					"output":266
				},
				{
					"input":212,
					"interpolation":"STEP",
					"output":267
				},
				{
					"input":212,
					"interpolation":"STEP",
					"output":268
				},
				{
					"input":209,
					"interpolation":"LINEAR",
					"output":269
				},
				{
					"input":212,
					"interpolation":"STEP",
					"output":270
				},
				{
					"input":212,
					"interpolation":"STEP",
					"output":271
				},
				{
					"input":209,
					"interpolation":"LINEAR",
					"output":272
				},
				{
					"input":212,
					"interpolation":"STEP",
					"output":273
				}
			]
		}
	],
	"materials":[
		{
			"name":"skin",
			"normalTexture":{
				"index":0,
				"scale":0.4000000059604645
			},
			"pbrMetallicRoughness":{
				"baseColorFactor":[
					0.9551045894622803,
					0.7105664610862732,
					0.5382355451583862,
					1
				],
				"metallicFactor":0,
				"roughnessFactor":0.550000011920929
			}
		},
		{
			"extensions":{
				"KHR_materials_sheen":{
					"sheenColorFactor":[
						1.0,
						1.0,
						1.0
					],
					"sheenRoughnessFactor":0.5
				}
			},
			"name":"hair",
			"normalTexture":{
				"index":1,
				"scale":0.800000011920929
			},
			"pbrMetallicRoughness":{
				"baseColorFactor":[
					0.03310476616024971,
					0.10048151016235352,
					0.07323895394802094,
					1
				],
				"metallicFactor":0,
				"roughnessFactor":0.44999998807907104
			}
		},
		{
			"extensions":{
				"KHR_materials_sheen":{
					"sheenColorFactor":[
						1.0,
						1.0,
						1.0
					],
					"sheenRoughnessFactor":0.5
				}
			},
			"name":"outfit",
			"normalTexture":{
				"index":2,
				"scale":0.6000000238418579
			},
			"pbrMetallicRoughness":{
				"baseColorFactor":[
					0.03310476616024971,
					0.13286831974983215,
					0.10048151016235352,
					1
				],
				"metallicFactor":0,
				"roughnessFactor":0.75
			}
		},
		{
			"name":"outfit2",
			"normalTexture":{
				"index":3,
				"scale":0.4000000059604645
			},
			"pbrMetallicRoughness":{
				"baseColorFactor":[
					0.6038273572921753,
					0.4479884207248688,
					0.13286831974983215,
					1
				],
				"metallicFactor":0,
				"roughnessFactor":0.6000000238418579
			}
		},
		{
			"name":"pants",
			"normalTexture":{
				"index":4,
				"scale":0.6000000238418579
			},
			"pbrMetallicRoughness":{
				"baseColorFactor":[
					0.017389101907610893,
					0.06372379511594772,
					0.04889732599258423,
					1
				],
				"metallicFactor":0,
				"roughnessFactor":0.800000011920929
			}
		},
		{
			"extensions":{
				"KHR_materials_clearcoat":{
					"clearcoatFactor":0.30000001192092896
				}
			},
			"name":"boots",
			"normalTexture":{
				"index":5,
				"scale":0.800000011920929
			},
			"pbrMetallicRoughness":{
				"baseColorFactor":[
					0.0134117491543293,
					0.010022825561463833,
					0.010022825561463833,
					1
				],
				"metallicFactor":0,
				"roughnessFactor":0.44999998807907104
			}
		},
		{
			"name":"eye_white",
			"pbrMetallicRoughness":{
				"baseColorFactor":[
					0.8900054097175598,
					0.8900054097175598,
					0.8900054097175598,
					1
				],
				"metallicFactor":0,
				"roughnessFactor":0.20000000298023224
			}
		},
		{
			"emissiveFactor":[
				0.011763989275256348,
				0.011763989275256348,
				0.019862860485428957
			],
			"name":"iris",
			"pbrMetallicRoughness":{
				"baseColorFactor":[
					0.01960664801299572,
					0.01960664801299572,
					0.03310476616024971,
					1
				],
				"metallicFactor":0,
				"roughnessFactor":0.15000000596046448
			}
		},
		{
			"name":"pupil",
			"pbrMetallicRoughness":{
				"baseColorFactor":[
					0.0015479875728487968,
					0.0015479875728487968,
					0.0023219813592731953,
					1
				],
				"metallicFactor":0,
				"roughnessFactor":0.10000000149011612
			}
		},
		{
			"name":"lips",
			"pbrMetallicRoughness":{
				"baseColorFactor":[
					0.4283095896244049,
					0.32088616490364075,
					0.2448643445968628,
					1
				],
				"metallicFactor":0,
				"roughnessFactor":0.4000000059604645
			}
		},
		{
			"doubleSided":true,
			"name":"skirt",
			"normalTexture":{
				"index":6,
				"scale":0.6000000238418579
			},
			"pbrMetallicRoughness":{
				"baseColorFactor":[
					0.6038273572921753,
					0.4479884207248688,
					0.13286831974983215,
					1
				],
				"metallicFactor":0,
				"roughnessFactor":0.699999988079071
			}
		},
		{
			"name":"buckle",
			"pbrMetallicRoughness":{
				"baseColorFactor":[
					0.6920710802078247,
					0.4479884207248688,
					0.07323895394802094,
					1
				],
				"metallicFactor":0.8999999761581421,
				"roughnessFactor":0.30000001192092896
			}
		},
		{
			"doubleSided":true,
			"name":"wing",
			"normalTexture":{
				"index":7,
				"scale":0.6000000238418579
			},
			"pbrMetallicRoughness":{
				"baseColorFactor":[
					0.07323895394802094,
					0.2632734179496765,
					0.17064493894577026,
					1
				],
				"metallicFactor":0,
				"roughnessFactor":0.5
			}
		}
	],
	"meshes":[
		{
			"name":"frey",
			"primitives":[
				{
					"attributes":{
						"POSITION":0,
						"NORMAL":1,
						"TEXCOORD_0":2,
						"JOINTS_0":3,
						"WEIGHTS_0":4
					},
					"indices":5,
					"material":0
				},
				{
					"attributes":{
						"POSITION":6,
						"NORMAL":7,
						"TEXCOORD_0":8,
						"JOINTS_0":9,
						"WEIGHTS_0":10
					},
					"indices":11,
					"material":1
				},
				{
					"attributes":{
						"POSITION":12,
						"NORMAL":13,
						"TEXCOORD_0":14,
						"JOINTS_0":15,
						"WEIGHTS_0":16
					},
					"indices":17,
					"material":2
				},
				{
					"attributes":{
						"POSITION":18,
						"NORMAL":19,
						"TEXCOORD_0":20,
						"JOINTS_0":21,
						"WEIGHTS_0":22
					},
					"indices":23,
					"material":3
				},
				{
					"attributes":{
						"POSITION":24,
						"NORMAL":25,
						"TEXCOORD_0":26,
						"JOINTS_0":27,
						"WEIGHTS_0":28
					},
					"indices":29,
					"material":4
				},
				{
					"attributes":{
						"POSITION":30,
						"NORMAL":31,
						"TEXCOORD_0":32,
						"JOINTS_0":33,
						"WEIGHTS_0":34
					},
					"indices":35,
					"material":5
				},
				{
					"attributes":{
						"POSITION":36,
						"NORMAL":37,
						"TEXCOORD_0":38,
						"JOINTS_0":39,
						"WEIGHTS_0":40
					},
					"indices":41,
					"material":6
				},
				{
					"attributes":{
						"POSITION":42,
						"NORMAL":43,
						"TEXCOORD_0":44,
						"JOINTS_0":45,
						"WEIGHTS_0":46
					},
					"indices":47,
					"material":7
				},
				{
					"attributes":{
						"POSITION":48,
						"NORMAL":49,
						"TEXCOORD_0":50,
						"JOINTS_0":51,
						"WEIGHTS_0":52
					},
					"indices":53,
					"material":8
				},
				{
					"attributes":{
						"POSITION":54,
						"NORMAL":55,
						"TEXCOORD_0":56,
						"JOINTS_0":57,
						"WEIGHTS_0":58
					},
					"indices":59,
					"material":9
				},
				{
					"attributes":{
						"POSITION":60,
						"NORMAL":61,
						"TEXCOORD_0":62,
						"JOINTS_0":63,
						"WEIGHTS_0":64
					},
					"indices":65,
					"material":10
				},
				{
					"attributes":{
						"POSITION":66,
						"NORMAL":67,
						"TEXCOORD_0":68,
						"JOINTS_0":69,
						"WEIGHTS_0":70
					},
					"indices":71,
					"material":11
				},
				{
					"attributes":{
						"POSITION":72,
						"NORMAL":73,
						"TEXCOORD_0":74,
						"JOINTS_0":75,
						"WEIGHTS_0":76
					},
					"indices":77,
					"material":12
				}
			]
		}
	],
	"textures":[
		{
			"sampler":0,
			"source":0
		},
		{
			"sampler":0,
			"source":1
		},
		{
			"sampler":0,
			"source":2
		},
		{
			"sampler":0,
			"source":2
		},
		{
			"sampler":0,
			"source":2
		},
		{
			"sampler":0,
			"source":3
		},
		{
			"sampler":0,
			"source":2
		},
		{
			"sampler":0,
			"source":4
		}
	],
	"images":[
		{
			"mimeType":"image/png",
			"name":"N_skin",
			"uri":"texturas/N_skin.png"
		},
		{
			"mimeType":"image/png",
			"name":"N_hair",
			"uri":"texturas/N_hair.png"
		},
		{
			"mimeType":"image/png",
			"name":"N_cloth",
			"uri":"texturas/N_cloth.png"
		},
		{
			"mimeType":"image/png",
			"name":"N_leather",
			"uri":"texturas/N_leather.png"
		},
		{
			"mimeType":"image/png",
			"name":"N_fur",
			"uri":"texturas/N_fur.png"
		}
	],
	"skins":[
		{
			"inverseBindMatrices":78,
			"joints":[
				20,
				13,
				12,
				1,
				0,
				3,
				2,
				5,
				4,
				8,
				7,
				6,
				11,
				10,
				9,
				16,
				15,
				14,
				19,
				18,
				17
			],
			"name":"frey_rig"
		}
	],
	"accessors":[
		{
			"bufferView":0,
			"componentType":5126,
			"count":1409,
			"max":[
				0.2644500136375427,
				1.7839999198913574,
				0.10721255838871002
			],
			"min":[
				-0.2644500136375427,
				0.7844678163528442,
				-0.11607673019170761
			],
			"type":"VEC3"
		},
		{
			"bufferView":1,
			"componentType":5126,
			"count":1409,
			"type":"VEC3"
		},
		{
			"bufferView":2,
			"componentType":5126,
			"count":1409,
			"type":"VEC2"
		},
		{
			"bufferView":3,
			"componentType":5121,
			"count":1409,
			"type":"VEC4"
		},
		{
			"bufferView":4,
			"componentType":5126,
			"count":1409,
			"type":"VEC4"
		},
		{
			"bufferView":5,
			"componentType":5123,
			"count":5808,
			"type":"SCALAR"
		},
		{
			"bufferView":6,
			"componentType":5126,
			"count":2925,
			"max":[
				0.14097175002098083,
				1.8106366395950317,
				0.19576367735862732
			],
			"min":[
				-0.13999098539352417,
				0.9752910137176514,
				-0.12009954452514648
			],
			"type":"VEC3"
		},
		{
			"bufferView":7,
			"componentType":5126,
			"count":2925,
			"type":"VEC3"
		},
		{
			"bufferView":8,
			"componentType":5126,
			"count":2925,
			"type":"VEC2"
		},
		{
			"bufferView":9,
			"componentType":5121,
			"count":2925,
			"type":"VEC4"
		},
		{
			"bufferView":10,
			"componentType":5126,
			"count":2925,
			"type":"VEC4"
		},
		{
			"bufferView":11,
			"componentType":5123,
			"count":10392,
			"type":"SCALAR"
		},
		{
			"bufferView":12,
			"componentType":5126,
			"count":1916,
			"max":[
				0.26701557636260986,
				1.46880304813385,
				0.09008977562189102
			],
			"min":[
				-0.2670155465602875,
				0.9226043820381165,
				-0.11999999731779099
			],
			"type":"VEC3"
		},
		{
			"bufferView":13,
			"componentType":5126,
			"count":1916,
			"type":"VEC3"
		},
		{
			"bufferView":14,
			"componentType":5126,
			"count":1916,
			"type":"VEC2"
		},
		{
			"bufferView":15,
			"componentType":5121,
			"count":1916,
			"type":"VEC4"
		},
		{
			"bufferView":16,
			"componentType":5126,
			"count":1916,
			"type":"VEC4"
		},
		{
			"bufferView":17,
			"componentType":5123,
			"count":8652,
			"type":"SCALAR"
		},
		{
			"bufferView":18,
			"componentType":5126,
			"count":76,
			"max":[
				0.1578424572944641,
				0.9976312518119812,
				0.10683226585388184
			],
			"min":[
				-0.1578424572944641,
				0.8799242973327637,
				-0.1086927279829979
			],
			"type":"VEC3"
		},
		{
			"bufferView":19,
			"componentType":5126,
			"count":76,
			"type":"VEC3"
		},
		{
			"bufferView":20,
			"componentType":5126,
			"count":76,
			"type":"VEC2"
		},
		{
			"bufferView":21,
			"componentType":5121,
			"count":76,
			"type":"VEC4"
		},
		{
			"bufferView":22,
			"componentType":5126,
			"count":76,
			"type":"VEC4"
		},
		{
			"bufferView":23,
			"componentType":5123,
			"count":264,
			"type":"SCALAR"
		},
		{
			"bufferView":24,
			"componentType":5126,
			"count":995,
			"max":[
				0.2652694880962372,
				0.9446630477905273,
				0.10655373334884644
			],
			"min":[
				-0.2652694880962372,
				0.3014695644378662,
				-0.1086927279829979
			],
			"type":"VEC3"
		},
		{
			"bufferView":25,
			"componentType":5126,
			"count":995,
			"type":"VEC3"
		},
		{
			"bufferView":26,
			"componentType":5126,
			"count":995,
			"type":"VEC2"
		},
		{
			"bufferView":27,
			"componentType":5121,
			"count":995,
			"type":"VEC4"
		},
		{
			"bufferView":28,
			"componentType":5126,
			"count":995,
			"type":"VEC4"
		},
		{
			"bufferView":29,
			"componentType":5123,
			"count":4380,
			"type":"SCALAR"
		},
		{
			"bufferView":30,
			"componentType":5126,
			"count":1034,
			"max":[
				0.1704442948102951,
				0.3071763813495636,
				0.07375719398260117
			],
			"min":[
				-0.1704442799091339,
				0.007599386852234602,
				-0.14012038707733154
			],
			"type":"VEC3"
		},
		{
			"bufferView":31,
			"componentType":5126,
			"count":1034,
			"type":"VEC3"
		},
		{
			"bufferView":32,
			"componentType":5126,
			"count":1034,
			"type":"VEC2"
		},
		{
			"bufferView":33,
			"componentType":5121,
			"count":1034,
			"type":"VEC4"
		},
		{
			"bufferView":34,
			"componentType":5126,
			"count":1034,
			"type":"VEC4"
		},
		{
			"bufferView":35,
			"componentType":5123,
			"count":4608,
			"type":"SCALAR"
		},
		{
			"bufferView":36,
			"componentType":5126,
			"count":304,
			"max":[
				0.050999999046325684,
				1.6864999532699585,
				-0.07000000029802322
			],
			"min":[
				-0.050999999046325684,
				1.6634999513626099,
				-0.08799999952316284
			],
			"type":"VEC3"
		},
		{
			"bufferView":37,
			"componentType":5126,
			"count":304,
			"type":"VEC3"
		},
		{
			"bufferView":38,
			"componentType":5126,
			"count":304,
			"type":"VEC2"
		},
		{
			"bufferView":39,
			"componentType":5121,
			"count":304,
			"type":"VEC4"
		},
		{
			"bufferView":40,
			"componentType":5126,
			"count":304,
			"type":"VEC4"
		},
		{
			"bufferView":41,
			"componentType":5123,
			"count":1152,
			"type":"SCALAR"
		},
		{
			"bufferView":42,
			"componentType":5126,
			"count":220,
			"max":[
				0.04349999874830246,
				1.6848000288009644,
				-0.08122024685144424
			],
			"min":[
				-0.04349999874830246,
				1.6651999950408936,
				-0.08977975696325302
			],
			"type":"VEC3"
		},
		{
			"bufferView":43,
			"componentType":5126,
			"count":220,
			"type":"VEC3"
		},
		{
			"bufferView":44,
			"componentType":5126,
			"count":220,
			"type":"VEC2"
		},
		{
			"bufferView":45,
			"componentType":5121,
			"count":220,
			"type":"VEC4"
		},
		{
			"bufferView":46,
			"componentType":5126,
			"count":220,
			"type":"VEC4"
		},
		{
			"bufferView":47,
			"componentType":5123,
			"count":720,
			"type":"SCALAR"
		},
		{
			"bufferView":48,
			"componentType":5126,
			"count":160,
			"max":[
				0.03799443691968918,
				1.6794999837875366,
				-0.08689788728952408
			],
			"min":[
				-0.03799443691968918,
				1.6705000400543213,
				-0.0907021164894104
			],
			"type":"VEC3"
		},
		{
			"bufferView":49,
			"componentType":5126,
			"count":160,
			"type":"VEC3"
		},
		{
			"bufferView":50,
			"componentType":5126,
			"count":160,
			"type":"VEC2"
		},
		{
			"bufferView":51,
			"componentType":5121,
			"count":160,
			"type":"VEC4"
		},
		{
			"bufferView":52,
			"componentType":5126,
			"count":160,
			"type":"VEC4"
		},
		{
			"bufferView":53,
			"componentType":5123,
			"count":480,
			"type":"SCALAR"
		},
		{
			"bufferView":54,
			"componentType":5126,
			"count":98,
			"max":[
				0.01899999938905239,
				1.6074999570846558,
				-0.07772024720907211
			],
			"min":[
				-0.01899999938905239,
				1.5985000133514404,
				-0.08627975732088089
			],
			"type":"VEC3"
		},
		{
			"bufferView":55,
			"componentType":5126,
			"count":98,
			"type":"VEC3"
		},
		{
			"bufferView":56,
			"componentType":5126,
			"count":98,
			"type":"VEC2"
		},
		{
			"bufferView":57,
			"componentType":5121,
			"count":98,
			"type":"VEC4"
		},
		{
			"bufferView":58,
			"componentType":5126,
			"count":98,
			"type":"VEC4"
		},
		{
			"bufferView":59,
			"componentType":5123,
			"count":360,
			"type":"SCALAR"
		},
		{
			"bufferView":60,
			"componentType":5126,
			"count":78,
			"max":[
				0.2639999985694885,
				1,
				0.2090502828359604
			],
			"min":[
				-0.2639999985694885,
				0.6800000071525574,
				-0.2090502828359604
			],
			"type":"VEC3"
		},
		{
			"bufferView":61,
			"componentType":5126,
			"count":78,
			"type":"VEC3"
		},
		{
			"bufferView":62,
			"componentType":5126,
			"count":78,
			"type":"VEC2"
		},
		{
			"bufferView":63,
			"componentType":5121,
			"count":78,
			"type":"VEC4"
		},
		{
			"bufferView":64,
			"componentType":5126,
			"count":78,
			"type":"VEC4"
		},
		{
			"bufferView":65,
			"componentType":5123,
			"count":264,
			"type":"SCALAR"
		},
		{
			"bufferView":66,
			"componentType":5126,
			"count":24,
			"max":[
				0.02500000037252903,
				0.9700000286102295,
				-0.10350000113248825
			],
			"min":[
				-0.02500000037252903,
				0.9300000071525574,
				-0.11550000309944153
			],
			"type":"VEC3"
		},
		{
			"bufferView":67,
			"componentType":5126,
			"count":24,
			"type":"VEC3"
		},
		{
			"bufferView":68,
			"componentType":5126,
			"count":24,
			"type":"VEC2"
		},
		{
			"bufferView":69,
			"componentType":5121,
			"count":24,
			"type":"VEC4"
		},
		{
			"bufferView":70,
			"componentType":5126,
			"count":24,
			"type":"VEC4"
		},
		{
			"bufferView":71,
			"componentType":5123,
			"count":36,
			"type":"SCALAR"
		},
		{
			"bufferView":72,
			"componentType":5126,
			"count":896,
			"max":[
				1.0508606433868408,
				1.7924519777297974,
				0.40947574377059937
			],
			"min":[
				-1.0508606433868408,
				1.0097415447235107,
				0.0715753436088562
			],
			"type":"VEC3"
		},
		{
			"bufferView":73,
			"componentType":5126,
			"count":896,
			"type":"VEC3"
		},
		{
			"bufferView":74,
			"componentType":5126,
			"count":896,
			"type":"VEC2"
		},
		{
			"bufferView":75,
			"componentType":5121,
			"count":896,
			"type":"VEC4"
		},
		{
			"bufferView":76,
			"componentType":5126,
			"count":896,
			"type":"VEC4"
		},
		{
			"bufferView":77,
			"componentType":5123,
			"count":3024,
			"type":"SCALAR"
		},
		{
			"bufferView":78,
			"componentType":5126,
			"count":21,
			"type":"MAT4"
		},
		{
			"bufferView":79,
			"componentType":5126,
			"count":2,
			"max":[
				0.6
			],
			"min":[
				0
			],
			"type":"SCALAR"
		},
		{
			"bufferView":80,
			"componentType":5126,
			"count":2,
			"type":"VEC3"
		},
		{
			"bufferView":81,
			"componentType":5126,
			"count":2,
			"type":"VEC4"
		},
		{
			"bufferView":82,
			"componentType":5126,
			"count":2,
			"type":"VEC3"
		},
		{
			"bufferView":83,
			"componentType":5126,
			"count":2,
			"type":"VEC3"
		},
		{
			"bufferView":84,
			"componentType":5126,
			"count":2,
			"type":"VEC4"
		},
		{
			"bufferView":85,
			"componentType":5126,
			"count":2,
			"type":"VEC3"
		},
		{
			"bufferView":86,
			"componentType":5126,
			"count":2,
			"type":"VEC3"
		},
		{
			"bufferView":87,
			"componentType":5126,
			"count":19,
			"max":[
				0.6
			],
			"min":[
				0
			],
			"type":"SCALAR"
		},
		{
			"bufferView":88,
			"componentType":5126,
			"count":19,
			"type":"VEC4"
		},
		{
			"bufferView":89,
			"componentType":5126,
			"count":2,
			"type":"VEC3"
		},
		{
			"bufferView":90,
			"componentType":5126,
			"count":2,
			"type":"VEC3"
		},
		{
			"bufferView":91,
			"componentType":5126,
			"count":2,
			"type":"VEC4"
		},
		{
			"bufferView":92,
			"componentType":5126,
			"count":2,
			"type":"VEC3"
		},
		{
			"bufferView":93,
			"componentType":5126,
			"count":2,
			"type":"VEC3"
		},
		{
			"bufferView":94,
			"componentType":5126,
			"count":2,
			"type":"VEC4"
		},
		{
			"bufferView":95,
			"componentType":5126,
			"count":2,
			"type":"VEC3"
		},
		{
			"bufferView":96,
			"componentType":5126,
			"count":2,
			"type":"VEC3"
		},
		{
			"bufferView":97,
			"componentType":5126,
			"count":2,
			"type":"VEC4"
		},
		{
			"bufferView":98,
			"componentType":5126,
			"count":2,
			"type":"VEC3"
		},
		{
			"bufferView":99,
			"componentType":5126,
			"count":2,
			"type":"VEC3"
		},
		{
			"bufferView":100,
			"componentType":5126,
			"count":2,
			"type":"VEC4"
		},
		{
			"bufferView":101,
			"componentType":5126,
			"count":2,
			"type":"VEC3"
		},
		{
			"bufferView":102,
			"componentType":5126,
			"count":2,
			"type":"VEC3"
		},
		{
			"bufferView":103,
			"componentType":5126,
			"count":2,
			"type":"VEC4"
		},
		{
			"bufferView":104,
			"componentType":5126,
			"count":2,
			"type":"VEC3"
		},
		{
			"bufferView":105,
			"componentType":5126,
			"count":2,
			"type":"VEC3"
		},
		{
			"bufferView":106,
			"componentType":5126,
			"count":2,
			"type":"VEC4"
		},
		{
			"bufferView":107,
			"componentType":5126,
			"count":2,
			"type":"VEC3"
		},
		{
			"bufferView":108,
			"componentType":5126,
			"count":2,
			"type":"VEC3"
		},
		{
			"bufferView":109,
			"componentType":5126,
			"count":19,
			"type":"VEC4"
		},
		{
			"bufferView":110,
			"componentType":5126,
			"count":2,
			"type":"VEC3"
		},
		{
			"bufferView":111,
			"componentType":5126,
			"count":2,
			"type":"VEC3"
		},
		{
			"bufferView":112,
			"componentType":5126,
			"count":19,
			"type":"VEC4"
		},
		{
			"bufferView":113,
			"componentType":5126,
			"count":2,
			"type":"VEC3"
		},
		{
			"bufferView":114,
			"componentType":5126,
			"count":2,
			"type":"VEC3"
		},
		{
			"bufferView":115,
			"componentType":5126,
			"count":2,
			"type":"VEC4"
		},
		{
			"bufferView":116,
			"componentType":5126,
			"count":2,
			"type":"VEC3"
		},
		{
			"bufferView":117,
			"componentType":5126,
			"count":2,
			"type":"VEC3"
		},
		{
			"bufferView":118,
			"componentType":5126,
			"count":19,
			"type":"VEC4"
		},
		{
			"bufferView":119,
			"componentType":5126,
			"count":2,
			"type":"VEC3"
		},
		{
			"bufferView":120,
			"componentType":5126,
			"count":2,
			"type":"VEC3"
		},
		{
			"bufferView":121,
			"componentType":5126,
			"count":2,
			"type":"VEC4"
		},
		{
			"bufferView":122,
			"componentType":5126,
			"count":2,
			"type":"VEC3"
		},
		{
			"bufferView":123,
			"componentType":5126,
			"count":2,
			"type":"VEC3"
		},
		{
			"bufferView":124,
			"componentType":5126,
			"count":2,
			"type":"VEC4"
		},
		{
			"bufferView":125,
			"componentType":5126,
			"count":2,
			"type":"VEC3"
		},
		{
			"bufferView":126,
			"componentType":5126,
			"count":2,
			"type":"VEC3"
		},
		{
			"bufferView":127,
			"componentType":5126,
			"count":19,
			"type":"VEC4"
		},
		{
			"bufferView":128,
			"componentType":5126,
			"count":2,
			"type":"VEC3"
		},
		{
			"bufferView":129,
			"componentType":5126,
			"count":2,
			"type":"VEC3"
		},
		{
			"bufferView":130,
			"componentType":5126,
			"count":2,
			"type":"VEC4"
		},
		{
			"bufferView":131,
			"componentType":5126,
			"count":2,
			"type":"VEC3"
		},
		{
			"bufferView":132,
			"componentType":5126,
			"count":2,
			"type":"VEC3"
		},
		{
			"bufferView":133,
			"componentType":5126,
			"count":2,
			"type":"VEC4"
		},
		{
			"bufferView":134,
			"componentType":5126,
			"count":2,
			"type":"VEC3"
		},
		{
			"bufferView":135,
			"componentType":5126,
			"count":2,
			"type":"VEC3"
		},
		{
			"bufferView":136,
			"componentType":5126,
			"count":19,
			"type":"VEC4"
		},
		{
			"bufferView":137,
			"componentType":5126,
			"count":2,
			"type":"VEC3"
		},
		{
			"bufferView":138,
			"componentType":5126,
			"count":2,
			"type":"VEC3"
		},
		{
			"bufferView":139,
			"componentType":5126,
			"count":2,
			"type":"VEC4"
		},
		{
			"bufferView":140,
			"componentType":5126,
			"count":2,
			"type":"VEC3"
		},
		{
			"bufferView":141,
			"componentType":5126,
			"count":2,
			"type":"VEC3"
		},
		{
			"bufferView":142,
			"componentType":5126,
			"count":2,
			"type":"VEC4"
		},
		{
			"bufferView":143,
			"componentType":5126,
			"count":2,
			"type":"VEC3"
		},
		{
			"bufferView":144,
			"componentType":5126,
			"count":61,
			"max":[
				2
			],
			"min":[
				0
			],
			"type":"SCALAR"
		},
		{
			"bufferView":145,
			"componentType":5126,
			"count":61,
			"type":"VEC3"
		},
		{
			"bufferView":146,
			"componentType":5126,
			"count":2,
			"max":[
				2
			],
			"min":[
				0
			],
			"type":"SCALAR"
		},
		{
			"bufferView":147,
			"componentType":5126,
			"count":2,
			"type":"VEC4"
		},
		{
			"bufferView":148,
			"componentType":5126,
			"count":2,
			"type":"VEC3"
		},
		{
			"bufferView":149,
			"componentType":5126,
			"count":2,
			"type":"VEC3"
		},
		{
			"bufferView":150,
			"componentType":5126,
			"count":2,
			"type":"VEC4"
		},
		{
			"bufferView":151,
			"componentType":5126,
			"count":2,
			"type":"VEC3"
		},
		{
			"bufferView":152,
			"componentType":5126,
			"count":2,
			"type":"VEC3"
		},
		{
			"bufferView":153,
			"componentType":5126,
			"count":61,
			"type":"VEC4"
		},
		{
			"bufferView":154,
			"componentType":5126,
			"count":2,
			"type":"VEC3"
		},
		{
			"bufferView":155,
			"componentType":5126,
			"count":2,
			"type":"VEC3"
		},
		{
			"bufferView":156,
			"componentType":5126,
			"count":61,
			"type":"VEC4"
		},
		{
			"bufferView":157,
			"componentType":5126,
			"count":2,
			"type":"VEC3"
		},
		{
			"bufferView":158,
			"componentType":5126,
			"count":2,
			"type":"VEC3"
		},
		{
			"bufferView":159,
			"componentType":5126,
			"count":2,
			"type":"VEC4"
		},
		{
			"bufferView":160,
			"componentType":5126,
			"count":2,
			"type":"VEC3"
		},
		{
			"bufferView":161,
			"componentType":5126,
			"count":2,
			"type":"VEC3"
		},
		{
			"bufferView":162,
			"componentType":5126,
			"count":61,
			"type":"VEC4"
		},
		{
			"bufferView":163,
			"componentType":5126,
			"count":2,
			"type":"VEC3"
		},
		{
			"bufferView":164,
			"componentType":5126,
			"count":2,
			"type":"VEC3"
		},
		{
			"bufferView":165,
			"componentType":5126,
			"count":2,
			"type":"VEC4"
		},
		{
			"bufferView":166,
			"componentType":5126,
			"count":2,
			"type":"VEC3"
		},
		{
			"bufferView":167,
			"componentType":5126,
			"count":2,
			"type":"VEC3"
		},
		{
			"bufferView":168,
			"componentType":5126,
			"count":2,
			"type":"VEC4"
		},
		{
			"bufferView":169,
			"componentType":5126,
			"count":2,
			"type":"VEC3"
		},
		{
			"bufferView":170,
			"componentType":5126,
			"count":2,
			"type":"VEC3"
		},
		{
			"bufferView":171,
			"componentType":5126,
			"count":61,
			"type":"VEC4"
		},
		{
			"bufferView":172,
			"componentType":5126,
			"count":2,
			"type":"VEC3"
		},
		{
			"bufferView":173,
			"componentType":5126,
			"count":2,
			"type":"VEC3"
		},
		{
			"bufferView":174,
			"componentType":5126,
			"count":61,
			"type":"VEC4"
		},
		{
			"bufferView":175,
			"componentType":5126,
			"count":2,
			"type":"VEC3"
		},
		{
			"bufferView":176,
			"componentType":5126,
			"count":2,
			"type":"VEC3"
		},
		{
			"bufferView":177,
			"componentType":5126,
			"count":2,
			"type":"VEC4"
		},
		{
			"bufferView":178,
			"componentType":5126,
			"count":2,
			"type":"VEC3"
		},
		{
			"bufferView":179,
			"componentType":5126,
			"count":2,
			"type":"VEC3"
		},
		{
			"bufferView":180,
			"componentType":5126,
			"count":2,
			"type":"VEC4"
		},
		{
			"bufferView":181,
			"componentType":5126,
			"count":2,
			"type":"VEC3"
		},
		{
			"bufferView":182,
			"componentType":5126,
			"count":2,
			"type":"VEC3"
		},
		{
			"bufferView":183,
			"componentType":5126,
			"count":61,
			"type":"VEC4"
		},
		{
			"bufferView":184,
			"componentType":5126,
			"count":2,
			"type":"VEC3"
		},
		{
			"bufferView":185,
			"componentType":5126,
			"count":2,
			"type":"VEC3"
		},
		{
			"bufferView":186,
			"componentType":5126,
			"count":2,
			"type":"VEC4"
		},
		{
			"bufferView":187,
			"componentType":5126,
			"count":2,
			"type":"VEC3"
		},
		{
			"bufferView":188,
			"componentType":5126,
			"count":2,
			"type":"VEC3"
		},
		{
			"bufferView":189,
			"componentType":5126,
			"count":2,
			"type":"VEC4"
		},
		{
			"bufferView":190,
			"componentType":5126,
			"count":2,
			"type":"VEC3"
		},
		{
			"bufferView":191,
			"componentType":5126,
			"count":2,
			"type":"VEC3"
		},
		{
			"bufferView":192,
			"componentType":5126,
			"count":2,
			"type":"VEC4"
		},
		{
			"bufferView":193,
			"componentType":5126,
			"count":2,
			"type":"VEC3"
		},
		{
			"bufferView":194,
			"componentType":5126,
			"count":2,
			"type":"VEC3"
		},
		{
			"bufferView":195,
			"componentType":5126,
			"count":2,
			"type":"VEC4"
		},
		{
			"bufferView":196,
			"componentType":5126,
			"count":2,
			"type":"VEC3"
		},
		{
			"bufferView":197,
			"componentType":5126,
			"count":2,
			"type":"VEC3"
		},
		{
			"bufferView":198,
			"componentType":5126,
			"count":2,
			"type":"VEC4"
		},
		{
			"bufferView":199,
			"componentType":5126,
			"count":2,
			"type":"VEC3"
		},
		{
			"bufferView":200,
			"componentType":5126,
			"count":2,
			"type":"VEC3"
		},
		{
			"bufferView":201,
			"componentType":5126,
			"count":2,
			"type":"VEC4"
		},
		{
			"bufferView":202,
			"componentType":5126,
			"count":2,
			"type":"VEC3"
		},
		{
			"bufferView":203,
			"componentType":5126,
			"count":2,
			"type":"VEC3"
		},
		{
			"bufferView":204,
			"componentType":5126,
			"count":2,
			"type":"VEC4"
		},
		{
			"bufferView":205,
			"componentType":5126,
			"count":2,
			"type":"VEC3"
		},
		{
			"bufferView":206,
			"componentType":5126,
			"count":2,
			"type":"VEC3"
		},
		{
			"bufferView":207,
			"componentType":5126,
			"count":2,
			"type":"VEC4"
		},
		{
			"bufferView":208,
			"componentType":5126,
			"count":2,
			"type":"VEC3"
		},
		{
			"bufferView":209,
			"componentType":5126,
			"count":31,
			"max":[
				1
			],
			"min":[
				0
			],
			"type":"SCALAR"
		},
		{
			"bufferView":210,
			"componentType":5126,
			"count":31,
			"type":"VEC3"
		},
		{
			"bufferView":211,
			"componentType":5126,
			"count":31,
			"type":"VEC4"
		},
		{
			"bufferView":212,
			"componentType":5126,
			"count":2,
			"max":[
				1
			],
			"min":[
				0
			],
			"type":"SCALAR"
		},
		{
			"bufferView":213,
			"componentType":5126,
			"count":2,
			"type":"VEC3"
		},
		{
			"bufferView":214,
			"componentType":5126,
			"count":2,
			"type":"VEC3"
		},
		{
			"bufferView":215,
			"componentType":5126,
			"count":2,
			"type":"VEC4"
		},
		{
			"bufferView":216,
			"componentType":5126,
			"count":2,
			"type":"VEC3"
		},
		{
			"bufferView":217,
			"componentType":5126,
			"count":2,
			"type":"VEC3"
		},
		{
			"bufferView":218,
			"componentType":5126,
			"count":31,
			"type":"VEC4"
		},
		{
			"bufferView":219,
			"componentType":5126,
			"count":2,
			"type":"VEC3"
		},
		{
			"bufferView":220,
			"componentType":5126,
			"count":2,
			"type":"VEC3"
		},
		{
			"bufferView":221,
			"componentType":5126,
			"count":31,
			"type":"VEC4"
		},
		{
			"bufferView":222,
			"componentType":5126,
			"count":2,
			"type":"VEC3"
		},
		{
			"bufferView":223,
			"componentType":5126,
			"count":2,
			"type":"VEC3"
		},
		{
			"bufferView":224,
			"componentType":5126,
			"count":2,
			"type":"VEC4"
		},
		{
			"bufferView":225,
			"componentType":5126,
			"count":2,
			"type":"VEC3"
		},
		{
			"bufferView":226,
			"componentType":5126,
			"count":2,
			"type":"VEC3"
		},
		{
			"bufferView":227,
			"componentType":5126,
			"count":31,
			"type":"VEC4"
		},
		{
			"bufferView":228,
			"componentType":5126,
			"count":2,
			"type":"VEC3"
		},
		{
			"bufferView":229,
			"componentType":5126,
			"count":2,
			"type":"VEC3"
		},
		{
			"bufferView":230,
			"componentType":5126,
			"count":2,
			"type":"VEC4"
		},
		{
			"bufferView":231,
			"componentType":5126,
			"count":2,
			"type":"VEC3"
		},
		{
			"bufferView":232,
			"componentType":5126,
			"count":2,
			"type":"VEC3"
		},
		{
			"bufferView":233,
			"componentType":5126,
			"count":2,
			"type":"VEC4"
		},
		{
			"bufferView":234,
			"componentType":5126,
			"count":2,
			"type":"VEC3"
		},
		{
			"bufferView":235,
			"componentType":5126,
			"count":2,
			"type":"VEC3"
		},
		{
			"bufferView":236,
			"componentType":5126,
			"count":2,
			"type":"VEC4"
		},
		{
			"bufferView":237,
			"componentType":5126,
			"count":2,
			"type":"VEC3"
		},
		{
			"bufferView":238,
			"componentType":5126,
			"count":2,
			"type":"VEC3"
		},
		{
			"bufferView":239,
			"componentType":5126,
			"count":31,
			"type":"VEC4"
		},
		{
			"bufferView":240,
			"componentType":5126,
			"count":2,
			"type":"VEC3"
		},
		{
			"bufferView":241,
			"componentType":5126,
			"count":2,
			"type":"VEC3"
		},
		{
			"bufferView":242,
			"componentType":5126,
			"count":2,
			"type":"VEC4"
		},
		{
			"bufferView":243,
			"componentType":5126,
			"count":2,
			"type":"VEC3"
		},
		{
			"bufferView":244,
			"componentType":5126,
			"count":2,
			"type":"VEC3"
		},
		{
			"bufferView":245,
			"componentType":5126,
			"count":2,
			"type":"VEC4"
		},
		{
			"bufferView":246,
			"componentType":5126,
			"count":2,
			"type":"VEC3"
		},
		{
			"bufferView":247,
			"componentType":5126,
			"count":2,
			"type":"VEC3"
		},
		{
			"bufferView":248,
			"componentType":5126,
			"count":31,
			"type":"VEC4"
		},
		{
			"bufferView":249,
			"componentType":5126,
			"count":2,
			"type":"VEC3"
		},
		{
			"bufferView":250,
			"componentType":5126,
			"count":2,
			"type":"VEC3"
		},
		{
			"bufferView":251,
			"componentType":5126,
			"count":2,
			"type":"VEC4"
		},
		{
			"bufferView":252,
			"componentType":5126,
			"count":2,
			"type":"VEC3"
		},
		{
			"bufferView":253,
			"componentType":5126,
			"count":2,
			"type":"VEC3"
		},
		{
			"bufferView":254,
			"componentType":5126,
			"count":2,
			"type":"VEC4"
		},
		{
			"bufferView":255,
			"componentType":5126,
			"count":2,
			"type":"VEC3"
		},
		{
			"bufferView":256,
			"componentType":5126,
			"count":2,
			"type":"VEC3"
		},
		{
			"bufferView":257,
			"componentType":5126,
			"count":31,
			"type":"VEC4"
		},
		{
			"bufferView":258,
			"componentType":5126,
			"count":2,
			"type":"VEC3"
		},
		{
			"bufferView":259,
			"componentType":5126,
			"count":2,
			"type":"VEC3"
		},
		{
			"bufferView":260,
			"componentType":5126,
			"count":31,
			"type":"VEC4"
		},
		{
			"bufferView":261,
			"componentType":5126,
			"count":2,
			"type":"VEC3"
		},
		{
			"bufferView":262,
			"componentType":5126,
			"count":2,
			"type":"VEC3"
		},
		{
			"bufferView":263,
			"componentType":5126,
			"count":31,
			"type":"VEC4"
		},
		{
			"bufferView":264,
			"componentType":5126,
			"count":2,
			"type":"VEC3"
		},
		{
			"bufferView":265,
			"componentType":5126,
			"count":2,
			"type":"VEC3"
		},
		{
			"bufferView":266,
			"componentType":5126,
			"count":31,
			"type":"VEC4"
		},
		{
			"bufferView":267,
			"componentType":5126,
			"count":2,
			"type":"VEC3"
		},
		{
			"bufferView":268,
			"componentType":5126,
			"count":2,
			"type":"VEC3"
		},
		{
			"bufferView":269,
			"componentType":5126,
			"count":31,
			"type":"VEC4"
		},
		{
			"bufferView":270,
			"componentType":5126,
			"count":2,
			"type":"VEC3"
		},
		{
			"bufferView":271,
			"componentType":5126,
			"count":2,
			"type":"VEC3"
		},
		{
			"bufferView":272,
			"componentType":5126,
			"count":31,
			"type":"VEC4"
		},
		{
			"bufferView":273,
			"componentType":5126,
			"count":2,
			"type":"VEC3"
		}
	],
	"bufferViews":[
		{
			"buffer":0,
			"byteLength":16908,
			"byteOffset":0,
			"target":34962
		},
		{
			"buffer":0,
			"byteLength":16908,
			"byteOffset":16908,
			"target":34962
		},
		{
			"buffer":0,
			"byteLength":11272,
			"byteOffset":33816,
			"target":34962
		},
		{
			"buffer":0,
			"byteLength":5636,
			"byteOffset":45088,
			"target":34962
		},
		{
			"buffer":0,
			"byteLength":22544,
			"byteOffset":50724,
			"target":34962
		},
		{
			"buffer":0,
			"byteLength":11616,
			"byteOffset":73268,
			"target":34963
		},
		{
			"buffer":0,
			"byteLength":35100,
			"byteOffset":84884,
			"target":34962
		},
		{
			"buffer":0,
			"byteLength":35100,
			"byteOffset":119984,
			"target":34962
		},
		{
			"buffer":0,
			"byteLength":23400,
			"byteOffset":155084,
			"target":34962
		},
		{
			"buffer":0,
			"byteLength":11700,
			"byteOffset":178484,
			"target":34962
		},
		{
			"buffer":0,
			"byteLength":46800,
			"byteOffset":190184,
			"target":34962
		},
		{
			"buffer":0,
			"byteLength":20784,
			"byteOffset":236984,
			"target":34963
		},
		{
			"buffer":0,
			"byteLength":22992,
			"byteOffset":257768,
			"target":34962
		},
		{
			"buffer":0,
			"byteLength":22992,
			"byteOffset":280760,
			"target":34962
		},
		{
			"buffer":0,
			"byteLength":15328,
			"byteOffset":303752,
			"target":34962
		},
		{
			"buffer":0,
			"byteLength":7664,
			"byteOffset":319080,
			"target":34962
		},
		{
			"buffer":0,
			"byteLength":30656,
			"byteOffset":326744,
			"target":34962
		},
		{
			"buffer":0,
			"byteLength":17304,
			"byteOffset":357400,
			"target":34963
		},
		{
			"buffer":0,
			"byteLength":912,
			"byteOffset":374704,
			"target":34962
		},
		{
			"buffer":0,
			"byteLength":912,
			"byteOffset":375616,
			"target":34962
		},
		{
			"buffer":0,
			"byteLength":608,
			"byteOffset":376528,
			"target":34962
		},
		{
			"buffer":0,
			"byteLength":304,
			"byteOffset":377136,
			"target":34962
		},
		{
			"buffer":0,
			"byteLength":1216,
			"byteOffset":377440,
			"target":34962
		},
		{
			"buffer":0,
			"byteLength":528,
			"byteOffset":378656,
			"target":34963
		},
		{
			"buffer":0,
			"byteLength":11940,
			"byteOffset":379184,
			"target":34962
		},
		{
			"buffer":0,
			"byteLength":11940,
			"byteOffset":391124,
			"target":34962
		},
		{
			"buffer":0,
			"byteLength":7960,
			"byteOffset":403064,
			"target":34962
		},
		{
			"buffer":0,
			"byteLength":3980,
			"byteOffset":411024,
			"target":34962
		},
		{
			"buffer":0,
			"byteLength":15920,
			"byteOffset":415004,
			"target":34962
		},
		{
			"buffer":0,
			"byteLength":8760,
			"byteOffset":430924,
			"target":34963
		},
		{
			"buffer":0,
			"byteLength":12408,
			"byteOffset":439684,
			"target":34962
		},
		{
			"buffer":0,
			"byteLength":12408,
			"byteOffset":452092,
			"target":34962
		},
		{
			"buffer":0,
			"byteLength":8272,
			"byteOffset":464500,
			"target":34962
		},
		{
			"buffer":0,
			"byteLength":4136,
			"byteOffset":472772,
			"target":34962
		},
		{
			"buffer":0,
			"byteLength":16544,
			"byteOffset":476908,
			"target":34962
		},
		{
			"buffer":0,
			"byteLength":9216,
			"byteOffset":493452,
			"target":34963
		},
		{
			"buffer":0,
			"byteLength":3648,
			"byteOffset":502668,
			"target":34962
		},
		{
			"buffer":0,
			"byteLength":3648,
			"byteOffset":506316,
			"target":34962
		},
		{
			"buffer":0,
			"byteLength":2432,
			"byteOffset":509964,
			"target":34962
		},
		{
			"buffer":0,
			"byteLength":1216,
			"byteOffset":512396,
			"target":34962
		},
		{
			"buffer":0,
			"byteLength":4864,
			"byteOffset":513612,
			"target":34962
		},
		{
			"buffer":0,
			"byteLength":2304,
			"byteOffset":518476,
			"target":34963
		},
		{
			"buffer":0,
			"byteLength":2640,
			"byteOffset":520780,
			"target":34962
		},
		{
			"buffer":0,
			"byteLength":2640,
			"byteOffset":523420,
			"target":34962
		},
		{
			"buffer":0,
			"byteLength":1760,
			"byteOffset":526060,
			"target":34962
		},
		{
			"buffer":0,
			"byteLength":880,
			"byteOffset":527820,
			"target":34962
		},
		{
			"buffer":0,
			"byteLength":3520,
			"byteOffset":528700,
			"target":34962
		},
		{
			"buffer":0,
			"byteLength":1440,
			"byteOffset":532220,
			"target":34963
		},
		{
			"buffer":0,
			"byteLength":1920,
			"byteOffset":533660,
			"target":34962
		},
		{
			"buffer":0,
			"byteLength":1920,
			"byteOffset":535580,
			"target":34962
		},
		{
			"buffer":0,
			"byteLength":1280,
			"byteOffset":537500,
			"target":34962
		},
		{
			"buffer":0,
			"byteLength":640,
			"byteOffset":538780,
			"target":34962
		},
		{
			"buffer":0,
			"byteLength":2560,
			"byteOffset":539420,
			"target":34962
		},
		{
			"buffer":0,
			"byteLength":960,
			"byteOffset":541980,
			"target":34963
		},
		{
			"buffer":0,
			"byteLength":1176,
			"byteOffset":542940,
			"target":34962
		},
		{
			"buffer":0,
			"byteLength":1176,
			"byteOffset":544116,
			"target":34962
		},
		{
			"buffer":0,
			"byteLength":784,
			"byteOffset":545292,
			"target":34962
		},
		{
			"buffer":0,
			"byteLength":392,
			"byteOffset":546076,
			"target":34962
		},
		{
			"buffer":0,
			"byteLength":1568,
			"byteOffset":546468,
			"target":34962
		},
		{
			"buffer":0,
			"byteLength":720,
			"byteOffset":548036,
			"target":34963
		},
		{
			"buffer":0,
			"byteLength":936,
			"byteOffset":548756,
			"target":34962
		},
		{
			"buffer":0,
			"byteLength":936,
			"byteOffset":549692,
			"target":34962
		},
		{
			"buffer":0,
			"byteLength":624,
			"byteOffset":550628,
			"target":34962
		},
		{
			"buffer":0,
			"byteLength":312,
			"byteOffset":551252,
			"target":34962
		},
		{
			"buffer":0,
			"byteLength":1248,
			"byteOffset":551564,
			"target":34962
		},
		{
			"buffer":0,
			"byteLength":528,
			"byteOffset":552812,
			"target":34963
		},
		{
			"buffer":0,
			"byteLength":288,
			"byteOffset":553340,
			"target":34962
		},
		{
			"buffer":0,
			"byteLength":288,
			"byteOffset":553628,
			"target":34962
		},
		{
			"buffer":0,
			"byteLength":192,
			"byteOffset":553916,
			"target":34962
		},
		{
			"buffer":0,
			"byteLength":96,
			"byteOffset":554108,
			"target":34962
		},
		{
			"buffer":0,
			"byteLength":384,
			"byteOffset":554204,
			"target":34962
		},
		{
			"buffer":0,
			"byteLength":72,
			"byteOffset":554588,
			"target":34963
		},
		{
			"buffer":0,
			"byteLength":10752,
			"byteOffset":554660,
			"target":34962
		},
		{
			"buffer":0,
			"byteLength":10752,
			"byteOffset":565412,
			"target":34962
		},
		{
			"buffer":0,
			"byteLength":7168,
			"byteOffset":576164,
			"target":34962
		},
		{
			"buffer":0,
			"byteLength":3584,
			"byteOffset":583332,
			"target":34962
		},
		{
			"buffer":0,
			"byteLength":14336,
			"byteOffset":586916,
			"target":34962
		},
		{
			"buffer":0,
			"byteLength":6048,
			"byteOffset":601252,
			"target":34963
		},
		{
			"buffer":0,
			"byteLength":1344,
			"byteOffset":607300
		},
		{
			"buffer":0,
			"byteLength":8,
			"byteOffset":608644
		},
		{
			"buffer":0,
			"byteLength":24,
			"byteOffset":608652
		},
		{
			"buffer":0,
			"byteLength":32,
			"byteOffset":608676
		},
		{
			"buffer":0,
			"byteLength":24,
			"byteOffset":608708
		},
		{
			"buffer":0,
			"byteLength":24,
			"byteOffset":608732
		},
		{
			"buffer":0,
			"byteLength":32,
			"byteOffset":608756
		},
		{
			"buffer":0,
			"byteLength":24,
			"byteOffset":608788
		},
		{
			"buffer":0,
			"byteLength":24,
			"byteOffset":608812
		},
		{
			"buffer":0,
			"byteLength":76,
			"byteOffset":608836
		},
		{
			"buffer":0,
			"byteLength":304,
			"byteOffset":608912
		},
		{
			"buffer":0,
			"byteLength":24,
			"byteOffset":609216
		},
		{
			"buffer":0,
			"byteLength":24,
			"byteOffset":609240
		},
		{
			"buffer":0,
			"byteLength":32,
			"byteOffset":609264
		},
		{
			"buffer":0,
			"byteLength":24,
			"byteOffset":609296
		},
		{
			"buffer":0,
			"byteLength":24,
			"byteOffset":609320
		},
		{
			"buffer":0,
			"byteLength":32,
			"byteOffset":609344
		},
		{
			"buffer":0,
			"byteLength":24,
			"byteOffset":609376
		},
		{
			"buffer":0,
			"byteLength":24,
			"byteOffset":609400
		},
		{
			"buffer":0,
			"byteLength":32,
			"byteOffset":609424
		},
		{
			"buffer":0,
			"byteLength":24,
			"byteOffset":609456
		},
		{
			"buffer":0,
			"byteLength":24,
			"byteOffset":609480
		},
		{
			"buffer":0,
			"byteLength":32,
			"byteOffset":609504
		},
		{
			"buffer":0,
			"byteLength":24,
			"byteOffset":609536
		},
		{
			"buffer":0,
			"byteLength":24,
			"byteOffset":609560
		},
		{
			"buffer":0,
			"byteLength":32,
			"byteOffset":609584
		},
		{
			"buffer":0,
			"byteLength":24,
			"byteOffset":609616
		},
		{
			"buffer":0,
			"byteLength":24,
			"byteOffset":609640
		},
		{
			"buffer":0,
			"byteLength":32,
			"byteOffset":609664
		},
		{
			"buffer":0,
			"byteLength":24,
			"byteOffset":609696
		},
		{
			"buffer":0,
			"byteLength":24,
			"byteOffset":609720
		},
		{
			"buffer":0,
			"byteLength":304,
			"byteOffset":609744
		},
		{
			"buffer":0,
			"byteLength":24,
			"byteOffset":610048
		},
		{
			"buffer":0,
			"byteLength":24,
			"byteOffset":610072
		},
		{
			"buffer":0,
			"byteLength":304,
			"byteOffset":610096
		},
		{
			"buffer":0,
			"byteLength":24,
			"byteOffset":610400
		},
		{
			"buffer":0,
			"byteLength":24,
			"byteOffset":610424
		},
		{
			"buffer":0,
			"byteLength":32,
			"byteOffset":610448
		},
		{
			"buffer":0,
			"byteLength":24,
			"byteOffset":610480
		},
		{
			"buffer":0,
			"byteLength":24,
			"byteOffset":610504
		},
		{
			"buffer":0,
			"byteLength":304,
			"byteOffset":610528
		},
		{
			"buffer":0,
			"byteLength":24,
			"byteOffset":610832
		},
		{
			"buffer":0,
			"byteLength":24,
			"byteOffset":610856
		},
		{
			"buffer":0,
			"byteLength":32,
			"byteOffset":610880
		},
		{
			"buffer":0,
			"byteLength":24,
			"byteOffset":610912
		},
		{
			"buffer":0,
			"byteLength":24,
			"byteOffset":610936
		},
		{
			"buffer":0,
			"byteLength":32,
			"byteOffset":610960
		},
		{
			"buffer":0,
			"byteLength":24,
			"byteOffset":610992
		},
		{
			"buffer":0,
			"byteLength":24,
			"byteOffset":611016
		},
		{
			"buffer":0,
			"byteLength":304,
			"byteOffset":611040
		},
		{
			"buffer":0,
			"byteLength":24,
			"byteOffset":611344
		},
		{
			"buffer":0,
			"byteLength":24,
			"byteOffset":611368
		},
		{
			"buffer":0,
			"byteLength":32,
			"byteOffset":611392
		},
		{
			"buffer":0,
			"byteLength":24,
			"byteOffset":611424
		},
		{
			"buffer":0,
			"byteLength":24,
			"byteOffset":611448
		},
		{
			"buffer":0,
			"byteLength":32,
			"byteOffset":611472
		},
		{
			"buffer":0,
			"byteLength":24,
			"byteOffset":611504
		},
		{
			"buffer":0,
			"byteLength":24,
			"byteOffset":611528
		},
		{
			"buffer":0,
			"byteLength":304,
			"byteOffset":611552
		},
		{
			"buffer":0,
			"byteLength":24,
			"byteOffset":611856
		},
		{
			"buffer":0,
			"byteLength":24,
			"byteOffset":611880
		},
		{
			"buffer":0,
			"byteLength":32,
			"byteOffset":611904
		},
		{
			"buffer":0,
			"byteLength":24,
			"byteOffset":611936
		},
		{
			"buffer":0,
			"byteLength":24,
			"byteOffset":611960
		},
		{
			"buffer":0,
			"byteLength":32,
			"byteOffset":611984
		},
		{
			"buffer":0,
			"byteLength":24,
			"byteOffset":612016
		},
		{
			"buffer":0,
			"byteLength":244,
			"byteOffset":612040
		},
		{
			"buffer":0,
			"byteLength":732,
			"byteOffset":612284
		},
		{
			"buffer":0,
			"byteLength":8,
			"byteOffset":613016
		},
		{
			"buffer":0,
			"byteLength":32,
			"byteOffset":613024
		},
		{
			"buffer":0,
			"byteLength":24,
			"byteOffset":613056
		},
		{
			"buffer":0,
			"byteLength":24,
			"byteOffset":613080
		},
		{
			"buffer":0,
			"byteLength":32,
			"byteOffset":613104
		},
		{
			"buffer":0,
			"byteLength":24,
			"byteOffset":613136
		},
		{
			"buffer":0,
			"byteLength":24,
			"byteOffset":613160
		},
		{
			"buffer":0,
			"byteLength":976,
			"byteOffset":613184
		},
		{
			"buffer":0,
			"byteLength":24,
			"byteOffset":614160
		},
		{
			"buffer":0,
			"byteLength":24,
			"byteOffset":614184
		},
		{
			"buffer":0,
			"byteLength":976,
			"byteOffset":614208
		},
		{
			"buffer":0,
			"byteLength":24,
			"byteOffset":615184
		},
		{
			"buffer":0,
			"byteLength":24,
			"byteOffset":615208
		},
		{
			"buffer":0,
			"byteLength":32,
			"byteOffset":615232
		},
		{
			"buffer":0,
			"byteLength":24,
			"byteOffset":615264
		},
		{
			"buffer":0,
			"byteLength":24,
			"byteOffset":615288
		},
		{
			"buffer":0,
			"byteLength":976,
			"byteOffset":615312
		},
		{
			"buffer":0,
			"byteLength":24,
			"byteOffset":616288
		},
		{
			"buffer":0,
			"byteLength":24,
			"byteOffset":616312
		},
		{
			"buffer":0,
			"byteLength":32,
			"byteOffset":616336
		},
		{
			"buffer":0,
			"byteLength":24,
			"byteOffset":616368
		},
		{
			"buffer":0,
			"byteLength":24,
			"byteOffset":616392
		},
		{
			"buffer":0,
			"byteLength":32,
			"byteOffset":616416
		},
		{
			"buffer":0,
			"byteLength":24,
			"byteOffset":616448
		},
		{
			"buffer":0,
			"byteLength":24,
			"byteOffset":616472
		},
		{
			"buffer":0,
			"byteLength":976,
			"byteOffset":616496
		},
		{
			"buffer":0,
			"byteLength":24,
			"byteOffset":617472
		},
		{
			"buffer":0,
			"byteLength":24,
			"byteOffset":617496
		},
		{
			"buffer":0,
			"byteLength":976,
			"byteOffset":617520
		},
		{
			"buffer":0,
			"byteLength":24,
			"byteOffset":618496
		},
		{
			"buffer":0,
			"byteLength":24,
			"byteOffset":618520
		},
		{
			"buffer":0,
			"byteLength":32,
			"byteOffset":618544
		},
		{
			"buffer":0,
			"byteLength":24,
			"byteOffset":618576
		},
		{
			"buffer":0,
			"byteLength":24,
			"byteOffset":618600
		},
		{
			"buffer":0,
			"byteLength":32,
			"byteOffset":618624
		},
		{
			"buffer":0,
			"byteLength":24,
			"byteOffset":618656
		},
		{
			"buffer":0,
			"byteLength":24,
			"byteOffset":618680
		},
		{
			"buffer":0,
			"byteLength":976,
			"byteOffset":618704
		},
		{
			"buffer":0,
			"byteLength":24,
			"byteOffset":619680
		},
		{
			"buffer":0,
			"byteLength":24,
			"byteOffset":619704
		},
		{
			"buffer":0,
			"byteLength":32,
			"byteOffset":619728
		},
		{
			"buffer":0,
			"byteLength":24,
			"byteOffset":619760
		},
		{
			"buffer":0,
			"byteLength":24,
			"byteOffset":619784
		},
		{
			"buffer":0,
			"byteLength":32,
			"byteOffset":619808
		},
		{
			"buffer":0,
			"byteLength":24,
			"byteOffset":619840
		},
		{
			"buffer":0,
			"byteLength":24,
			"byteOffset":619864
		},
		{
			"buffer":0,
			"byteLength":32,
			"byteOffset":619888
		},
		{
			"buffer":0,
			"byteLength":24,
			"byteOffset":619920
		},
		{
			"buffer":0,
			"byteLength":24,
			"byteOffset":619944
		},
		{
			"buffer":0,
			"byteLength":32,
			"byteOffset":619968
		},
		{
			"buffer":0,
			"byteLength":24,
			"byteOffset":620000
		},
		{
			"buffer":0,
			"byteLength":24,
			"byteOffset":620024
		},
		{
			"buffer":0,
			"byteLength":32,
			"byteOffset":620048
		},
		{
			"buffer":0,
			"byteLength":24,
			"byteOffset":620080
		},
		{
			"buffer":0,
			"byteLength":24,
			"byteOffset":620104
		},
		{
			"buffer":0,
			"byteLength":32,
			"byteOffset":620128
		},
		{
			"buffer":0,
			"byteLength":24,
			"byteOffset":620160
		},
		{
			"buffer":0,
			"byteLength":24,
			"byteOffset":620184
		},
		{
			"buffer":0,
			"byteLength":32,
			"byteOffset":620208
		},
		{
			"buffer":0,
			"byteLength":24,
			"byteOffset":620240
		},
		{
			"buffer":0,
			"byteLength":24,
			"byteOffset":620264
		},
		{
			"buffer":0,
			"byteLength":32,
			"byteOffset":620288
		},
		{
			"buffer":0,
			"byteLength":24,
			"byteOffset":620320
		},
		{
			"buffer":0,
			"byteLength":124,
			"byteOffset":620344
		},
		{
			"buffer":0,
			"byteLength":372,
			"byteOffset":620468
		},
		{
			"buffer":0,
			"byteLength":496,
			"byteOffset":620840
		},
		{
			"buffer":0,
			"byteLength":8,
			"byteOffset":621336
		},
		{
			"buffer":0,
			"byteLength":24,
			"byteOffset":621344
		},
		{
			"buffer":0,
			"byteLength":24,
			"byteOffset":621368
		},
		{
			"buffer":0,
			"byteLength":32,
			"byteOffset":621392
		},
		{
			"buffer":0,
			"byteLength":24,
			"byteOffset":621424
		},
		{
			"buffer":0,
			"byteLength":24,
			"byteOffset":621448
		},
		{
			"buffer":0,
			"byteLength":496,
			"byteOffset":621472
		},
		{
			"buffer":0,
			"byteLength":24,
			"byteOffset":621968
		},
		{
			"buffer":0,
			"byteLength":24,
			"byteOffset":621992
		},
		{
			"buffer":0,
			"byteLength":496,
			"byteOffset":622016
		},
		{
			"buffer":0,
			"byteLength":24,
			"byteOffset":622512
		},
		{
			"buffer":0,
			"byteLength":24,
			"byteOffset":622536
		},
		{
			"buffer":0,
			"byteLength":32,
			"byteOffset":622560
		},
		{
			"buffer":0,
			"byteLength":24,
			"byteOffset":622592
		},
		{
			"buffer":0,
			"byteLength":24,
			"byteOffset":622616
		},
		{
			"buffer":0,
			"byteLength":496,
			"byteOffset":622640
		},
		{
			"buffer":0,
			"byteLength":24,
			"byteOffset":623136
		},
		{
			"buffer":0,
			"byteLength":24,
			"byteOffset":623160
		},
		{
			"buffer":0,
			"byteLength":32,
			"byteOffset":623184
		},
		{
			"buffer":0,
			"byteLength":24,
			"byteOffset":623216
		},
		{
			"buffer":0,
			"byteLength":24,
			"byteOffset":623240
		},
		{
			"buffer":0,
			"byteLength":32,
			"byteOffset":623264
		},
		{
			"buffer":0,
			"byteLength":24,
			"byteOffset":623296
		},
		{
			"buffer":0,
			"byteLength":24,
			"byteOffset":623320
		},
		{
			"buffer":0,
			"byteLength":32,
			"byteOffset":623344
		},
		{
			"buffer":0,
			"byteLength":24,
			"byteOffset":623376
		},
		{
			"buffer":0,
			"byteLength":24,
			"byteOffset":623400
		},
		{
			"buffer":0,
			"byteLength":496,
			"byteOffset":623424
		},
		{
			"buffer":0,
			"byteLength":24,
			"byteOffset":623920
		},
		{
			"buffer":0,
			"byteLength":24,
			"byteOffset":623944
		},
		{
			"buffer":0,
			"byteLength":32,
			"byteOffset":623968
		},
		{
			"buffer":0,
			"byteLength":24,
			"byteOffset":624000
		},
		{
			"buffer":0,
			"byteLength":24,
			"byteOffset":624024
		},
		{
			"buffer":0,
			"byteLength":32,
			"byteOffset":624048
		},
		{
			"buffer":0,
			"byteLength":24,
			"byteOffset":624080
		},
		{
			"buffer":0,
			"byteLength":24,
			"byteOffset":624104
		},
		{
			"buffer":0,
			"byteLength":496,
			"byteOffset":624128
		},
		{
			"buffer":0,
			"byteLength":24,
			"byteOffset":624624
		},
		{
			"buffer":0,
			"byteLength":24,
			"byteOffset":624648
		},
		{
			"buffer":0,
			"byteLength":32,
			"byteOffset":624672
		},
		{
			"buffer":0,
			"byteLength":24,
			"byteOffset":624704
		},
		{
			"buffer":0,
			"byteLength":24,
			"byteOffset":624728
		},
		{
			"buffer":0,
			"byteLength":32,
			"byteOffset":624752
		},
		{
			"buffer":0,
			"byteLength":24,
			"byteOffset":624784
		},
		{
			"buffer":0,
			"byteLength":24,
			"byteOffset":624808
		},
		{
			"buffer":0,
			"byteLength":496,
			"byteOffset":624832
		},
		{
			"buffer":0,
			"byteLength":24,
			"byteOffset":625328
		},
		{
			"buffer":0,
			"byteLength":24,
			"byteOffset":625352
		},
		{
			"buffer":0,
			"byteLength":496,
			"byteOffset":625376
		},
		{
			"buffer":0,
			"byteLength":24,
			"byteOffset":625872
		},
		{
			"buffer":0,
			"byteLength":24,
			"byteOffset":625896
		},
		{
			"buffer":0,
			"byteLength":496,
			"byteOffset":625920
		},
		{
			"buffer":0,
			"byteLength":24,
			"byteOffset":626416
		},
		{
			"buffer":0,
			"byteLength":24,
			"byteOffset":626440
		},
		{
			"buffer":0,
			"byteLength":496,
			"byteOffset":626464
		},
		{
			"buffer":0,
			"byteLength":24,
			"byteOffset":626960
		},
		{
			"buffer":0,
			"byteLength":24,
			"byteOffset":626984
		},
		{
			"buffer":0,
			"byteLength":496,
			"byteOffset":627008
		},
		{
			"buffer":0,
			"byteLength":24,
			"byteOffset":627504
		},
		{
			"buffer":0,
			"byteLength":24,
			"byteOffset":627528
		},
		{
			"buffer":0,
			"byteLength":496,
			"byteOffset":627552
		},
		{
			"buffer":0,
			"byteLength":24,
			"byteOffset":628048
		}
	],
	"samplers":[
		{
			"magFilter":9729,
			"minFilter":9987
		}
	],
	"buffers":[
		{
			"byteLength":628072,
			"uri":"frey.bin"
		}
	]
}
