{
	"asset":{
		"generator":"Khronos glTF Blender I/O v4.2.57",
		"version":"2.0"
	},
	"extensionsUsed":[
		"KHR_materials_clearcoat",
		"KHR_materials_sheen"
	],
	"scene":0,
	"scenes":[
		{
			"name":"Scene",
			"nodes":[
				20
			]
		}
	],
	"nodes":[
		{
			"name":"tail2",
			"rotation":[
				0.023463528603315353,
				0,
				0,
				0.9997246861457825
			],
			"scale":[
				1,
				0.9999999403953552,
				0.9999999403953552
			],
			"translation":[
				0,
				0.6705490350723267,
				0
			]
		},
		{
			"children":[
				0
			],
			"name":"tail1",
			"rotation":[
				0.9099941253662109,
				0,
				0,
				0.4146212339401245
			],
			"scale":[
				1,
				0.9999999403953552,
				0.9999998211860657
			],
			"translation":[
				0,
				0.02199995517730713,
				0.0990000069141388
			]
		},
		{
			"name":"head",
			"scale":[
				1,
				0.9999999403953552,
				1
			],
			"translation":[
				0,
				0.1099998950958252,
				0
			]
		},
		{
			"children":[
				2
			],
			"name":"neck",
			"translation":[
				0,
				0.23100006580352783,
				0
			]
		},
		{
			"name":"hand.R",
			"rotation":[
				-0.0028319046832621098,
				-0.020585274323821068,
				0.022129911929368973,
				0.9995391368865967
			],
			"scale":[
				1.0000001192092896,
				1,
				0.9999999403953552
			],
			"translation":[
				1.1641532182693481e-08,
				0.2768995463848114,
				-4.6566128730773926e-09
			]
		},
		{
			"children":[
				4
			],
			"name":"forearm.R",
			"rotation":[
				0.04786806181073189,
				-0.06073947250843048,
				0.07015372812747955,
				0.9945339560508728
			],
			"scale":[
				0.9999998807907104,
				1,
				0.9999999403953552
			],
			"translation":[
				-9.569339454174042e-08,
				0.3039281964302063,
				-7.450580596923828e-09
			]
		},
		{
			"children":[
				5
			],
			"name":"upper_arm.R",
			"rotation":[
				0.9885599613189697,
				0.1065431758761406,
				0.10654225945472717,
				0.006823007017374039
			],
			"scale":[
				1.0000059604644775,
				1.0000003576278687,
				1.0000001192092896
			],
			"translation":[
				0.23760001361370087,
				0.17599999904632568,
				0
			]
		},
		{
			"name":"hand.L",
			"rotation":[
				-0.0028319046832621098,
				0.020585274323821068,
				-0.022129911929368973,
				0.9995391368865967
			],
			"scale":[
				1.0000001192092896,
				1,
				0.9999999403953552
			],
			"translation":[
				-1.1641532182693481e-08,
				0.2768995463848114,
				-4.6566128730773926e-09
			]
		},
		{
			"children":[
				7
			],
			"name":"forearm.L",
			"rotation":[
				0.04786806181073189,
				0.06073947250843048,
				-0.07015372812747955,
				0.9945339560508728
			],
			"scale":[
				0.9999998807907104,
				1,
				0.9999999403953552
			],
			"translation":[
				9.569339454174042e-08,
				0.3039281964302063,
				-7.450580596923828e-09
			]
		},
		{
			"children":[
				8
			],
			"name":"upper_arm.L",
			"rotation":[
				0.9885599613189697,
				-0.1065431758761406,
				-0.10654225945472717,
				0.006823007017374039
			],
			"scale":[
				1.0000059604644775,
				1.0000003576278687,
				1.0000001192092896
			],
			"translation":[
				-0.23760001361370087,
				0.17599999904632568,
				0
			]
		},
		{
			"children":[
				3,
				6,
				9
			],
			"name":"chest",
			"translation":[
				0,
				0.18699991703033447,
				0
			]
		},
		{
			"children":[
				10
			],
			"name":"spine",
			"translation":[
				0,
				0.1650000810623169,
				0
			]
		},
		{
			"name":"foot.R",
			"rotation":[
				0.5914180278778076,
				-1.605243160618386e-09,
				9.607921125365237e-10,
				0.8063651323318481
			],
			"scale":[
				1,
				1.0000001192092896,
				1
			],
			"translation":[
				-7.424219905516338e-09,
				0.4516488313674927,
				3.653717328688799e-10
			]
		},
		{
			"children":[
				12
			],
			"name":"shin.R",
			"rotation":[
				-0.04151010140776634,
				-0.009864666499197483,
				0.009349511936306953,
				0.9990456104278564
			],
			"translation":[
				-5.4424162954092026e-09,
				0.4512789249420166,
				-2.3283064365386963e-09
			]
		},
		{
			"children":[
				13
			],
			"name":"thigh.R",
			"rotation":[
				-0.9997993111610413,
				-0.009610531851649284,
				-0.009610628709197044,
				0.014720415696501732
			],
			"scale":[
				1,
				1,
				1.000000238418579
			],
			"translation":[
				0.10119999945163727,
				-0.02199995517730713,
				0
			]
		},
		{
			"name":"foot.L",
			"rotation":[
				0.5914180278778076,
				1.605243160618386e-09,
				-9.607921125365237e-10,
				0.8063651323318481
			],
			"scale":[
				1,
				1.0000001192092896,
				1
			],
			"translation":[
				7.424219905516338e-09,
				0.4516488313674927,
				3.653717328688799e-10
			]
		},
		{
			"children":[
				15
			],
			"name":"shin.L",
			"rotation":[
				-0.04151010140776634,
				0.009864666499197483,
				-0.009349511936306953,
				0.9990456104278564
			],
			"translation":[
				5.4424162954092026e-09,
				0.4512789249420166,
				-2.3283064365386963e-09
			]
		},
		{
			"children":[
				16
			],
			"name":"thigh.L",
			"rotation":[
				-0.9997993111610413,
				0.009610531851649284,
				0.009610628709197044,
				0.014720415696501732
			],
			"scale":[
				1,
				1,
				1.000000238418579
			],
			"translation":[
				-0.10119999945163727,
				-0.02199995517730713,
				0
			]
		},
		{
			"children":[
				1,
				11,
				14,
				17
			],
			"name":"hips",
			"translation":[
				0,
				1.0230000019073486,
				0
			]
		},
		{
			"mesh":0,
			"name":"gabiru",
			"skin":0
		},
		{
			"children":[
				19,
				18
			],
			"name":"gabiru_rig"
		}
	],
	"animations":[
		{
			"channels":[
				{
					"sampler":0,
					"target":{
						"node":18,
						"path":"translation"
					}
				},
				{
					"sampler":1,
					"target":{
						"node":18,
						"path":"rotation"
					}
				},
				{
					"sampler":2,
					"target":{
						"node":18,
						"path":"scale"
					}
				},
				{
					"sampler":3,
					"target":{
						"node":1,
						"path":"translation"
					}
				},
				{
					"sampler":4,
					"target":{
						"node":1,
						"path":"rotation"
					}
				},
				{
					"sampler":5,
					"target":{
						"node":1,
						"path":"scale"
					}
				},
				{
					"sampler":6,
					"target":{
						"node":0,
						"path":"translation"
					}
				},
				{
					"sampler":7,
					"target":{
						"node":0,
						"path":"rotation"
					}
				},
				{
					"sampler":8,
					"target":{
						"node":0,
						"path":"scale"
					}
				},
				{
					"sampler":9,
					"target":{
						"node":11,
						"path":"translation"
					}
				},
				{
					"sampler":10,
					"target":{
						"node":11,
						"path":"rotation"
					}
				},
				{
					"sampler":11,
					"target":{
						"node":11,
						"path":"scale"
					}
				},
				{
					"sampler":12,
					"target":{
						"node":10,
						"path":"translation"
					}
				},
				{
					"sampler":13,
					"target":{
						"node":10,
						"path":"rotation"
					}
				},
				{
					"sampler":14,
					"target":{
						"node":10,
						"path":"scale"
					}
				},
				{
					"sampler":15,
					"target":{
						"node":3,
						"path":"translation"
					}
				},
				{
					"sampler":16,
					"target":{
						"node":3,
						"path":"rotation"
					}
				},
				{
					"sampler":17,
					"target":{
						"node":3,
						"path":"scale"
					}
				},
				{
					"sampler":18,
					"target":{
						"node":2,
						"path":"translation"
					}
				},
				{
					"sampler":19,
					"target":{
						"node":2,
						"path":"rotation"
					}
				},
				{
					"sampler":20,
					"target":{
						"node":2,
						"path":"scale"
					}
				},
				{
					"sampler":21,
					"target":{
						"node":6,
						"path":"translation"
					}
				},
				{
					"sampler":22,
					"target":{
						"node":6,
						"path":"rotation"
					}
				},
				{
					"sampler":23,
					"target":{
						"node":6,
						"path":"scale"
					}
				},
				{
					"sampler":24,
					"target":{
						"node":5,
						"path":"translation"
					}
				},
				{
					"sampler":25,
					"target":{
						"node":5,
						"path":"rotation"
					}
				},
				{
					"sampler":26,
					"target":{
						"node":5,
						"path":"scale"
					}
				},
				{
					"sampler":27,
					"target":{
						"node":4,
						"path":"translation"
					}
				},
				{
					"sampler":28,
					"target":{
						"node":4,
						"path":"rotation"
					}
				},
				{
					"sampler":29,
					"target":{
						"node":4,
						"path":"scale"
					}
				},
				{
					"sampler":30,
					"target":{
						"node":9,
						"path":"translation"
					}
				},
				{
					"sampler":31,
					"target":{
						"node":9,
						"path":"rotation"
					}
				},
				{
					"sampler":32,
					"target":{
						"node":9,
						"path":"scale"
					}
				},
				{
					"sampler":33,
					"target":{
						"node":8,
						"path":"translation"
					}
				},
				{
					"sampler":34,
					"target":{
						"node":8,
						"path":"rotation"
					}
				},
				{
					"sampler":35,
					"target":{
						"node":8,
						"path":"scale"
					}
				},
				{
					"sampler":36,
					"target":{
						"node":7,
						"path":"translation"
					}
				},
				{
					"sampler":37,
					"target":{
						"node":7,
						"path":"rotation"
					}
				},
				{
					"sampler":38,
					"target":{
						"node":7,
						"path":"scale"
					}
				},
				{
					"sampler":39,
					"target":{
						"node":14,
						"path":"translation"
					}
				},
				{
					"sampler":40,
					"target":{
						"node":14,
						"path":"rotation"
					}
				},
				{
					"sampler":41,
					"target":{
						"node":14,
						"path":"scale"
					}
				},
				{
					"sampler":42,
					"target":{
						"node":13,
						"path":"translation"
					}
				},
				{
					"sampler":43,
					"target":{
						"node":13,
						"path":"rotation"
					}
				},
				{
					"sampler":44,
					"target":{
						"node":13,
						"path":"scale"
					}
				},
				{
					"sampler":45,
					"target":{
						"node":12,
						"path":"translation"
					}
				},
				{
					"sampler":46,
					"target":{
						"node":12,
						"path":"rotation"
					}
				},
				{
					"sampler":47,
					"target":{
						"node":12,
						"path":"scale"
					}
				},
				{
					"sampler":48,
					"target":{
						"node":17,
						"path":"translation"
					}
				},
				{
					"sampler":49,
					"target":{
						"node":17,
						"path":"rotation"
					}
				},
				{
					"sampler":50,
					"target":{
						"node":17,
						"path":"scale"
					}
				},
				{
					"sampler":51,
					"target":{
						"node":16,
						"path":"translation"
					}
				},
				{
					"sampler":52,
					"target":{
						"node":16,
						"path":"rotation"
					}
				},
				{
					"sampler":53,
					"target":{
						"node":16,
						"path":"scale"
					}
				},
				{
					"sampler":54,
					"target":{
						"node":15,
						"path":"translation"
					}
				},
				{
					"sampler":55,
					"target":{
						"node":15,
						"path":"rotation"
					}
				},
				{
					"sampler":56,
					"target":{
						"node":15,
						"path":"scale"
					}
				}
			],
			"name":"attack",
			"samplers":[
				{
					"input":79,
					"interpolation":"STEP",
					"output":80
				},
				{
					"input":79,
					"interpolation":"STEP",
					"output":81
				},
				{
					"input":79,
					"interpolation":"STEP",
					"output":82
				},
				{
					"input":79,
					"interpolation":"STEP",
					"output":83
				},
				{
					"input":79,
					"interpolation":"STEP",
					"output":84
				},
				{
					"input":79,
					"interpolation":"STEP",
					"output":85
				},
				{
					"input":79,
					"interpolation":"STEP",
					"output":86
				},
				{
					"input":79,
					"interpolation":"STEP",
					"output":87
				},
				{
					"input":79,
					"interpolation":"STEP",
					"output":88
				},
				{
					"input":79,
					"interpolation":"STEP",
					"output":89
				},
				{
					"input":79,
					"interpolation":"STEP",
					"output":90
				},
				{
					"input":79,
					"interpolation":"STEP",
					"output":91
				},
				{
					"input":79,
					"interpolation":"STEP",
					"output":92
				},
				{
					"input":93,
					"interpolation":"LINEAR",
					"output":94
				},
				{
					"input":79,
					"interpolation":"STEP",
					"output":95
				},
				{
					"input":79,
					"interpolation":"STEP",
					"output":96
				},
				{
					"input":79,
					"interpolation":"STEP",
					"output":97
				},
				{
					"input":79,
					"interpolation":"STEP",
					"output":98
				},
				{
					"input":79,
					"interpolation":"STEP",
					"output":99
				},
				{
					"input":79,
					"interpolation":"STEP",
					"output":100
				},
				{
					"input":79,
					"interpolation":"STEP",
					"output":101
				},
				{
					"input":79,
					"interpolation":"STEP",
					"output":102
				},
				{
					"input":93,
					"interpolation":"LINEAR",
					"output":103
				},
				{
					"input":79,
					"interpolation":"STEP",
					"output":104
				},
				{
					"input":79,
					"interpolation":"STEP",
					"output":105
				},
				{
					"input":93,
					"interpolation":"LINEAR",
					"output":106
				},
				{
					"input":79,
					"interpolation":"STEP",
					"output":107
				},
				{
					"input":79,
					"interpolation":"STEP",
					"output":108
				},
				{
					"input":79,
					"interpolation":"STEP",
					"output":109
				},
				{
					"input":79,
					"interpolation":"STEP",
					"output":110
				},
				{
					"input":79,
					"interpolation":"STEP",
					"output":111
				},
				{
					"input":93,
					"interpolation":"LINEAR",
					"output":112
				},
				{
					"input":79,
					"interpolation":"STEP",
					"output":113
				},
				{
					"input":79,
					"interpolation":"STEP",
					"output":114
				},
				{
					"input":79,
					"interpolation":"STEP",
					"output":115
				},
				{
					"input":79,
					"interpolation":"STEP",
					"output":116
				},
				{
					"input":79,
					"interpolation":"STEP",
					"output":117
				},
				{
					"input":79,
					"interpolation":"STEP",
					"output":118
				},
				{
					"input":79,
					"interpolation":"STEP",
					"output":119
				},
				{
					"input":79,
					"interpolation":"STEP",
					"output":120
				},
				{
					"input":93,
					"interpolation":"LINEAR",
					"output":121
				},
				{
					"input":79,
					"interpolation":"STEP",
					"output":122
				},
				{
					"input":79,
					"interpolation":"LINEAR",
					"output":123
				},
				{
					"input":79,
					"interpolation":"LINEAR",
					"output":124
				},
				{
					"input":79,
					"interpolation":"STEP",
					"output":125
				},
				{
					"input":79,
					"interpolation":"LINEAR",
					"output":126
				},
				{
					"input":79,
					"interpolation":"LINEAR",
					"output":127
				},
				{
					"input":79,
					"interpolation":"STEP",
					"output":128
				},
				{
					"input":79,
					"interpolation":"STEP",
					"output":129
				},
				{
					"input":93,
					"interpolation":"LINEAR",
					"output":130
				},
				{
					"input":79,
					"interpolation":"STEP",
					"output":131
				},
				{
					"input":79,
					"interpolation":"LINEAR",
					"output":132
				},
				{
					"input":79,
					"interpolation":"LINEAR",
					"output":133
				},
				{
					"input":79,
					"interpolation":"STEP",
					"output":134
				},
				{
					"input":79,
					"interpolation":"LINEAR",
					"output":135
				},
				{
					"input":79,
					"interpolation":"LINEAR",
					"output":136
				},
				{
					"input":79,
					"interpolation":"STEP",
					"output":137
				}
			]
		},
		{
			"channels":[
				{
					"sampler":0,
					"target":{
						"node":18,
						"path":"translation"
					}
				},
				{
					"sampler":1,
					"target":{
						"node":18,
						"path":"rotation"
					}
				},
				{
					"sampler":2,
					"target":{
						"node":18,
						"path":"scale"
					}
				},
				{
					"sampler":3,
					"target":{
						"node":1,
						"path":"translation"
					}
				},
				{
					"sampler":4,
					"target":{
						"node":1,
						"path":"rotation"
					}
				},
				{
					"sampler":5,
					"target":{
						"node":1,
						"path":"scale"
					}
				},
				{
					"sampler":6,
					"target":{
						"node":0,
						"path":"translation"
					}
				},
				{
					"sampler":7,
					"target":{
						"node":0,
						"path":"rotation"
					}
				},
				{
					"sampler":8,
					"target":{
						"node":0,
						"path":"scale"
					}
				},
				{
					"sampler":9,
					"target":{
						"node":11,
						"path":"translation"
					}
				},
				{
					"sampler":10,
					"target":{
						"node":11,
						"path":"rotation"
					}
				},
				{
					"sampler":11,
					"target":{
						"node":11,
						"path":"scale"
					}
				},
				{
					"sampler":12,
					"target":{
						"node":10,
						"path":"translation"
					}
				},
				{
					"sampler":13,
					"target":{
						"node":10,
						"path":"rotation"
					}
				},
				{
					"sampler":14,
					"target":{
						"node":10,
						"path":"scale"
					}
				},
				{
					"sampler":15,
					"target":{
						"node":3,
						"path":"translation"
					}
				},
				{
					"sampler":16,
					"target":{
						"node":3,
						"path":"rotation"
					}
				},
				{
					"sampler":17,
					"target":{
						"node":3,
						"path":"scale"
					}
				},
				{
					"sampler":18,
					"target":{
						"node":2,
						"path":"translation"
					}
				},
				{
					"sampler":19,
					"target":{
						"node":2,
						"path":"rotation"
					}
				},
				{
					"sampler":20,
					"target":{
						"node":2,
						"path":"scale"
					}
				},
				{
					"sampler":21,
					"target":{
						"node":6,
						"path":"translation"
					}
				},
				{
					"sampler":22,
					"target":{
						"node":6,
						"path":"rotation"
					}
				},
				{
					"sampler":23,
					"target":{
						"node":6,
						"path":"scale"
					}
				},
				{
					"sampler":24,
					"target":{
						"node":5,
						"path":"translation"
					}
				},
				{
					"sampler":25,
					"target":{
						"node":5,
						"path":"rotation"
					}
				},
				{
					"sampler":26,
					"target":{
						"node":5,
						"path":"scale"
					}
				},
				{
					"sampler":27,
					"target":{
						"node":4,
						"path":"translation"
					}
				},
				{
					"sampler":28,
					"target":{
						"node":4,
						"path":"rotation"
					}
				},
				{
					"sampler":29,
					"target":{
						"node":4,
						"path":"scale"
					}
				},
				{
					"sampler":30,
					"target":{
						"node":9,
						"path":"translation"
					}
				},
				{
					"sampler":31,
					"target":{
						"node":9,
						"path":"rotation"
					}
				},
				{
					"sampler":32,
					"target":{
						"node":9,
						"path":"scale"
					}
				},
				{
					"sampler":33,
					"target":{
						"node":8,
						"path":"translation"
					}
				},
				{
					"sampler":34,
					"target":{
						"node":8,
						"path":"rotation"
					}
				},
				{
					"sampler":35,
					"target":{
						"node":8,
						"path":"scale"
					}
				},
				{
					"sampler":36,
					"target":{
						"node":7,
						"path":"translation"
					}
				},
				{
					"sampler":37,
					"target":{
						"node":7,
						"path":"rotation"
					}
				},
				{
					"sampler":38,
					"target":{
						"node":7,
						"path":"scale"
					}
				},
				{
					"sampler":39,
					"target":{
						"node":14,
						"path":"translation"
					}
				},
				{
					"sampler":40,
					"target":{
						"node":14,
						"path":"rotation"
					}
				},
				{
					"sampler":41,
					"target":{
						"node":14,
						"path":"scale"
					}
				},
				{
					"sampler":42,
					"target":{
						"node":13,
						"path":"translation"
					}
				},
				{
					"sampler":43,
					"target":{
						"node":13,
						"path":"rotation"
					}
				},
				{
					"sampler":44,
					"target":{
						"node":13,
						"path":"scale"
					}
				},
				{
					"sampler":45,
					"target":{
						"node":12,
						"path":"translation"
					}
				},
				{
					"sampler":46,
					"target":{
						"node":12,
						"path":"rotation"
					}
				},
				{
					"sampler":47,
					"target":{
						"node":12,
						"path":"scale"
					}
				},
				{
					"sampler":48,
					"target":{
						"node":17,
						"path":"translation"
					}
				},
				{
					"sampler":49,
					"target":{
						"node":17,
						"path":"rotation"
					}
				},
				{
					"sampler":50,
					"target":{
						"node":17,
						"path":"scale"
					}
				},
				{
					"sampler":51,
					"target":{
						"node":16,
						"path":"translation"
					}
				},
				{
					"sampler":52,
					"target":{
						"node":16,
						"path":"rotation"
					}
				},
				{
					"sampler":53,
					"target":{
						"node":16,
						"path":"scale"
					}
				},
				{
					"sampler":54,
					"target":{
						"node":15,
						"path":"translation"
					}
				},
				{
					"sampler":55,
					"target":{
						"node":15,
						"path":"rotation"
					}
				},
				{
					"sampler":56,
					"target":{
						"node":15,
						"path":"scale"
					}
				}
			],
			"name":"idle",
			"samplers":[
				{
					"input":138,
					"interpolation":"LINEAR",
					"output":139
				},
				{
					"input":140,
					"interpolation":"STEP",
					"output":141
				},
				{
					"input":140,
					"interpolation":"STEP",
					"output":142
				},
				{
					"input":140,
					"interpolation":"STEP",
					"output":143
				},
				{
					"input":138,
					"interpolation":"LINEAR",
					"output":144
				},
				{
					"input":140,
					"interpolation":"STEP",
					"output":145
				},
				{
					"input":140,
					"interpolation":"STEP",
					"output":146
				},
				{
					"input":140,
					"interpolation":"STEP",
					"output":147
				},
				{
					"input":140,
					"interpolation":"STEP",
					"output":148
				},
				{
					"input":140,
					"interpolation":"STEP",
					"output":149
				},
				{
					"input":140,
					"interpolation":"STEP",
					"output":150
				},
				{
					"input":140,
					"interpolation":"STEP",
					"output":151
				},
				{
					"input":140,
					"interpolation":"STEP",
					"output":152
				},
				{
					"input":138,
					"interpolation":"LINEAR",
					"output":153
				},
				{
					"input":140,
					"interpolation":"STEP",
					"output":154
				},
				{
					"input":140,
					"interpolation":"STEP",
					"output":155
				},
				{
					"input":140,
					"interpolation":"STEP",
					"output":156
				},
				{
					"input":140,
					"interpolation":"STEP",
					"output":157
				},
				{
					"input":140,
					"interpolation":"STEP",
					"output":158
				},
				{
					"input":138,
					"interpolation":"LINEAR",
					"output":159
				},
				{
					"input":140,
					"interpolation":"STEP",
					"output":160
				},
				{
					"input":140,
					"interpolation":"STEP",
					"output":161
				},
				{
					"input":138,
					"interpolation":"LINEAR",
					"output":162
				},
				{
					"input":140,
					"interpolation":"STEP",
					"output":163
				},
				{
					"input":140,
					"interpolation":"STEP",
					"output":164
				},
				{
					"input":140,
					"interpolation":"STEP",
					"output":165
				},
				{
					"input":140,
					"interpolation":"STEP",
					"output":166
				},
				{
					"input":140,
					"interpolation":"STEP",
					"output":167
				},
				{
					"input":140,
					"interpolation":"STEP",
					"output":168
				},
				{
					"input":140,
					"interpolation":"STEP",
					"output":169
				},
				{
					"input":140,
					"interpolation":"STEP",
					"output":170
				},
				{
					"input":138,
					"interpolation":"LINEAR",
					"output":171
				},
				{
					"input":140,
					"interpolation":"STEP",
					"output":172
				},
				{
					"input":140,
					"interpolation":"STEP",
					"output":173
				},
				{
					"input":140,
					"interpolation":"STEP",
					"output":174
				},
				{
					"input":140,
					"interpolation":"STEP",
					"output":175
				},
				{
					"input":140,
					"interpolation":"STEP",
					"output":176
				},
				{
					"input":140,
					"interpolation":"STEP",
					"output":177
				},
				{
					"input":140,
					"interpolation":"STEP",
					"output":178
				},
				{
					"input":140,
					"interpolation":"STEP",
					"output":179
				},
				{
					"input":140,
					"interpolation":"STEP",
					"output":180
				},
				{
					"input":140,
					"interpolation":"STEP",
					"output":181
				},
				{
					"input":140,
					"interpolation":"STEP",
					"output":182
				},
				{
					"input":140,
					"interpolation":"STEP",
					"output":183
				},
				{
					"input":140,
					"interpolation":"STEP",
					"output":184
				},
				{
					"input":140,
					"interpolation":"STEP",
					"output":185
				},
				{
					"input":140,
					"interpolation":"STEP",
					"output":186
				},
				{
					"input":140,
					"interpolation":"STEP",
					"output":187
				},
				{
					"input":140,
					"interpolation":"STEP",
					"output":188
				},
				{
					"input":140,
					"interpolation":"STEP",
					"output":189
				},
				{
					"input":140,
					"interpolation":"STEP",
					"output":190
				},
				{
					"input":140,
					"interpolation":"STEP",
					"output":191
				},
				{
					"input":140,
					"interpolation":"STEP",
					"output":192
				},
				{
					"input":140,
					"interpolation":"STEP",
					"output":193
				},
				{
					"input":140,
					"interpolation":"STEP",
					"output":194
				},
				{
					"input":140,
					"interpolation":"STEP",
					"output":195
				},
				{
					"input":140,
					"interpolation":"STEP",
					"output":196
				}
			]
		},
		{
			"channels":[
				{
					"sampler":0,
					"target":{
						"node":18,
						"path":"translation"
					}
				},
				{
					"sampler":1,
					"target":{
						"node":18,
						"path":"rotation"
					}
				},
				{
					"sampler":2,
					"target":{
						"node":18,
						"path":"scale"
					}
				},
				{
					"sampler":3,
					"target":{
						"node":1,
						"path":"translation"
					}
				},
				{
					"sampler":4,
					"target":{
						"node":1,
						"path":"rotation"
					}
				},
				{
					"sampler":5,
					"target":{
						"node":1,
						"path":"scale"
					}
				},
				{
					"sampler":6,
					"target":{
						"node":0,
						"path":"translation"
					}
				},
				{
					"sampler":7,
					"target":{
						"node":0,
						"path":"rotation"
					}
				},
				{
					"sampler":8,
					"target":{
						"node":0,
						"path":"scale"
					}
				},
				{
					"sampler":9,
					"target":{
						"node":11,
						"path":"translation"
					}
				},
				{
					"sampler":10,
					"target":{
						"node":11,
						"path":"rotation"
					}
				},
				{
					"sampler":11,
					"target":{
						"node":11,
						"path":"scale"
					}
				},
				{
					"sampler":12,
					"target":{
						"node":10,
						"path":"translation"
					}
				},
				{
					"sampler":13,
					"target":{
						"node":10,
						"path":"rotation"
					}
				},
				{
					"sampler":14,
					"target":{
						"node":10,
						"path":"scale"
					}
				},
				{
					"sampler":15,
					"target":{
						"node":3,
						"path":"translation"
					}
				},
				{
					"sampler":16,
					"target":{
						"node":3,
						"path":"rotation"
					}
				},
				{
					"sampler":17,
					"target":{
						"node":3,
						"path":"scale"
					}
				},
				{
					"sampler":18,
					"target":{
						"node":2,
						"path":"translation"
					}
				},
				{
					"sampler":19,
					"target":{
						"node":2,
						"path":"rotation"
					}
				},
				{
					"sampler":20,
					"target":{
						"node":2,
						"path":"scale"
					}
				},
				{
					"sampler":21,
					"target":{
						"node":6,
						"path":"translation"
					}
				},
				{
					"sampler":22,
					"target":{
						"node":6,
						"path":"rotation"
					}
				},
				{
					"sampler":23,
					"target":{
						"node":6,
						"path":"scale"
					}
				},
				{
					"sampler":24,
					"target":{
						"node":5,
						"path":"translation"
					}
				},
				{
					"sampler":25,
					"target":{
						"node":5,
						"path":"rotation"
					}
				},
				{
					"sampler":26,
					"target":{
						"node":5,
						"path":"scale"
					}
				},
				{
					"sampler":27,
					"target":{
						"node":4,
						"path":"translation"
					}
				},
				{
					"sampler":28,
					"target":{
						"node":4,
						"path":"rotation"
					}
				},
				{
					"sampler":29,
					"target":{
						"node":4,
						"path":"scale"
					}
				},
				{
					"sampler":30,
					"target":{
						"node":9,
						"path":"translation"
					}
				},
				{
					"sampler":31,
					"target":{
						"node":9,
						"path":"rotation"
					}
				},
				{
					"sampler":32,
					"target":{
						"node":9,
						"path":"scale"
					}
				},
				{
					"sampler":33,
					"target":{
						"node":8,
						"path":"translation"
					}
				},
				{
					"sampler":34,
					"target":{
						"node":8,
						"path":"rotation"
					}
				},
				{
					"sampler":35,
					"target":{
						"node":8,
						"path":"scale"
					}
				},
				{
					"sampler":36,
					"target":{
						"node":7,
						"path":"translation"
					}
				},
				{
					"sampler":37,
					"target":{
						"node":7,
						"path":"rotation"
					}
				},
				{
					"sampler":38,
					"target":{
						"node":7,
						"path":"scale"
					}
				},
				{
					"sampler":39,
					"target":{
						"node":14,
						"path":"translation"
					}
				},
				{
					"sampler":40,
					"target":{
						"node":14,
						"path":"rotation"
					}
				},
				{
					"sampler":41,
					"target":{
						"node":14,
						"path":"scale"
					}
				},
				{
					"sampler":42,
					"target":{
						"node":13,
						"path":"translation"
					}
				},
				{
					"sampler":43,
					"target":{
						"node":13,
						"path":"rotation"
					}
				},
				{
					"sampler":44,
					"target":{
						"node":13,
						"path":"scale"
					}
				},
				{
					"sampler":45,
					"target":{
						"node":12,
						"path":"translation"
					}
				},
				{
					"sampler":46,
					"target":{
						"node":12,
						"path":"rotation"
					}
				},
				{
					"sampler":47,
					"target":{
						"node":12,
						"path":"scale"
					}
				},
				{
					"sampler":48,
					"target":{
						"node":17,
						"path":"translation"
					}
				},
				{
					"sampler":49,
					"target":{
						"node":17,
						"path":"rotation"
					}
				},
				{
					"sampler":50,
					"target":{
						"node":17,
						"path":"scale"
					}
				},
				{
					"sampler":51,
					"target":{
						"node":16,
						"path":"translation"
					}
				},
				{
					"sampler":52,
					"target":{
						"node":16,
						"path":"rotation"
					}
				},
				{
					"sampler":53,
					"target":{
						"node":16,
						"path":"scale"
					}
				},
				{
					"sampler":54,
					"target":{
						"node":15,
						"path":"translation"
					}
				},
				{
					"sampler":55,
					"target":{
						"node":15,
						"path":"rotation"
					}
				},
				{
					"sampler":56,
					"target":{
						"node":15,
						"path":"scale"
					}
				}
			],
			"name":"walk",
			"samplers":[
				{
					"input":197,
					"interpolation":"LINEAR",
					"output":198
				},
				{
					"input":197,
					"interpolation":"LINEAR",
					"output":199
				},
				{
					"input":200,
					"interpolation":"STEP",
					"output":201
				},
				{
					"input":200,
					"interpolation":"STEP",
					"output":202
				},
				{
					"input":197,
					"interpolation":"LINEAR",
					"output":203
				},
				{
					"input":200,
					"interpolation":"STEP",
					"output":204
				},
				{
					"input":200,
					"interpolation":"STEP",
					"output":205
				},
				{
					"input":200,
					"interpolation":"STEP",
					"output":206
				},
				{
					"input":200,
					"interpolation":"STEP",
					"output":207
				},
				{
					"input":200,
					"interpolation":"STEP",
					"output":208
				},
				{
					"input":200,
					"interpolation":"STEP",
					"output":209
				},
				{
					"input":200,
					"interpolation":"STEP",
					"output":210
				},
				{
					"input":200,
					"interpolation":"STEP",
					"output":211
				},
				{
					"input":197,
					"interpolation":"LINEAR",
					"output":212
				},
				{
					"input":200,
					"interpolation":"STEP",
					"output":213
				},
				{
					"input":200,
					"interpolation":"STEP",
					"output":214
				},
				{
					"input":200,
					"interpolation":"STEP",
					"output":215
				},
				{
					"input":200,
					"interpolation":"STEP",
					"output":216
				},
				{
					"input":200,
					"interpolation":"STEP",
					"output":217
				},
				{
					"input":200,
					"interpolation":"STEP",
					"output":218
				},
				{
					"input":200,
					"interpolation":"STEP",
					"output":219
				},
				{
					"input":200,
					"interpolation":"STEP",
					"output":220
				},
				{
					"input":197,
					"interpolation":"LINEAR",
					"output":221
				},
				{
					"input":200,
					"interpolation":"STEP",
					"output":222
				},
				{
					"input":200,
					"interpolation":"STEP",
					"output":223
				},
				{
					"input":200,
					"interpolation":"STEP",
					"output":224
				},
				{
					"input":200,
					"interpolation":"STEP",
					"output":225
				},
				{
					"input":200,
					"interpolation":"STEP",
					"output":226
				},
				{
					"input":200,
					"interpolation":"STEP",
					"output":227
				},
				{
					"input":200,
					"interpolation":"STEP",
					"output":228
				},
				{
					"input":200,
					"interpolation":"STEP",
					"output":229
				},
				{
					"input":197,
					"interpolation":"LINEAR",
					"output":230
				},
				{
					"input":200,
					"interpolation":"STEP",
					"output":231
				},
				{
					"input":200,
					"interpolation":"STEP",
					"output":232
				},
				{
					"input":200,
					"interpolation":"STEP",
					"output":233
				},
				{
					"input":200,
					"interpolation":"STEP",
					"output":234
				},
				{
					"input":200,
					"interpolation":"STEP",
					"output":235
				},
				{
					"input":200,
					"interpolation":"STEP",
					"output":236
				},
				{
					"input":200,
					"interpolation":"STEP",
					"output":237
				},
				{
					"input":200,
					"interpolation":"STEP",
					"output":238
				},
				{
					"input":197,
					"interpolation":"LINEAR",
					"output":239
				},
				{
					"input":200,
					"interpolation":"STEP",
					"output":240
				},
				{
					"input":200,
					"interpolation":"STEP",
					"output":241
				},
				{
					"input":197,
					"interpolation":"LINEAR",
					"output":242
				},
				{
					"input":200,
					"interpolation":"STEP",
					"output":243
				},
				{
					"input":200,
					"interpolation":"STEP",
					"output":244
				},
				{
					"input":197,
					"interpolation":"LINEAR",
					"output":245
				},
				{
					"input":200,
					"interpolation":"STEP",
					"output":246
				},
				{
					"input":200,
					"interpolation":"STEP",
					"output":247
				},
				{
					"input":197,
					"interpolation":"LINEAR",
					"output":248
				},
				{
					"input":200,
					"interpolation":"STEP",
					"output":249
				},
				{
					"input":200,
					"interpolation":"STEP",
					"output":250
				},
				{
					"input":197,
					"interpolation":"LINEAR",
					"output":251
				},
				{
					"input":200,
					"interpolation":"STEP",
					"output":252
				},
				{
					"input":200,
					"interpolation":"STEP",
					"output":253
				},
				{
					"input":197,
					"interpolation":"LINEAR",
					"output":254
				},
				{
					"input":200,
					"interpolation":"STEP",
					"output":255
				}
			]
		}
	],
	"materials":[
		{
			"name":"skin",
			"normalTexture":{
				"index":0,
				"scale":0.4000000059604645
			},
			"pbrMetallicRoughness":{
				"baseColorFactor":[
					0.07323895394802094,
					0.31854677200317383,
					0.10048151016235352,
					1
				],
				"metallicFactor":0,
				"roughnessFactor":0.550000011920929
			}
		},
		{
			"extensions":{
				"KHR_materials_sheen":{
					"sheenColorFactor":[
						1.0,
						1.0,
						1.0
					],
					"sheenRoughnessFactor":0.5
				}
			},
			"name":"outfit",
			"normalTexture":{
				"index":1,
				"scale":0.6000000238418579
			},
			"pbrMetallicRoughness":{
				"baseColorFactor":[
					0.31854677200317383,
					0.03310476616024971,
					0.01960664801299572,
					1
				],
				"metallicFactor":0,
				"roughnessFactor":0.75
			}
		},
		{
			"name":"outfit2",
			"normalTexture":{
				"index":2,
				"scale":0.4000000059604645
			},
			"pbrMetallicRoughness":{
				"baseColorFactor":[
					0.7874122858047485,
					0.5225215554237366,
					0.03310476616024971,
					1
				],
				"metallicFactor":0,
				"roughnessFactor":0.6000000238418579
			}
		},
		{
			"name":"pants",
			"normalTexture":{
				"index":3,
				"scale":0.6000000238418579
			},
			"pbrMetallicRoughness":{
				"baseColorFactor":[
					0.1473190039396286,
					0.017389101907610893,
					0.010816383175551891,
					1
				],
				"metallicFactor":0,
				"roughnessFactor":0.800000011920929
			}
		},
		{
			"extensions":{
				"KHR_materials_clearcoat":{
					"clearcoatFactor":0.30000001192092896
				}
			},
			"name":"boots",
			"normalTexture":{
				"index":4,
				"scale":0.800000011920929
			},
			"pbrMetallicRoughness":{
				"baseColorFactor":[
					0.0134117491543293,
					0.010022825561463833,
					0.010022825561463833,
					1
				],
				"metallicFactor":0,
				"roughnessFactor":0.44999998807907104
			}
		},
		{
			"name":"eye_white",
			"pbrMetallicRoughness":{
				"baseColorFactor":[
					0.8900054097175598,
					0.8900054097175598,
					0.8900054097175598,
					1
				],
				"metallicFactor":0,
				"roughnessFactor":0.20000000298023224
			}
		},
		{
			"emissiveFactor":[
				0.011763989275256348,
				0.011763989275256348,
				0.019862860485428957
			],
			"name":"iris",
			"pbrMetallicRoughness":{
				"baseColorFactor":[
					0.01960664801299572,
					0.01960664801299572,
					0.03310476616024971,
					1
				],
				"metallicFactor":0,
				"roughnessFactor":0.15000000596046448
			}
		},
		{
			"name":"pupil",
			"pbrMetallicRoughness":{
				"baseColorFactor":[
					0.0015479875728487968,
					0.0015479875728487968,
					0.0023219813592731953,
					1
				],
				"metallicFactor":0,
				"roughnessFactor":0.10000000149011612
			}
		},
		{
			"doubleSided":true,
			"extensions":{
				"KHR_materials_sheen":{
					"sheenColorFactor":[
						1.0,
						1.0,
						1.0
					],
					"sheenRoughnessFactor":0.5
				}
			},
			"name":"cape",
			"normalTexture":{
				"index":5,
				"scale":0.699999988079071
			},
			"pbrMetallicRoughness":{
				"baseColorFactor":[
					0.5225215554237366,
					0.01960664801299572,
					0.01960664801299572,
					1
				],
				"metallicFactor":0,
				"roughnessFactor":0.75
			}
		},
		{
			"name":"buckle",
			"pbrMetallicRoughness":{
				"baseColorFactor":[
					0.6920710802078247,
					0.4479884207248688,
					0.07323895394802094,
					1
				],
				"metallicFactor":0.8999999761581421,
				"roughnessFactor":0.30000001192092896
			}
		},
		{
			"name":"tail",
			"normalTexture":{
				"index":6,
				"scale":0.800000011920929
			},
			"pbrMetallicRoughness":{
				"baseColorFactor":[
					0.07323895394802094,
					0.31854677200317383,
					0.10048151016235352,
					1
				],
				"metallicFactor":0,
				"roughnessFactor":0.5
			}
		},
		{
			"name":"blade",
			"normalTexture":{
				"index":7,
				"scale":0.30000001192092896
			},
			"pbrMetallicRoughness":{
				"baseColorFactor":[
					0.7484140992164612,
					0.7874122858047485,
					0.8900054097175598,
					1
				],
				"metallicFactor":0.550000011920929,
				"roughnessFactor":0.2199999988079071
			}
		},
		{
			"name":"handle",
			"normalTexture":{
				"index":8,
				"scale":0.6000000238418579
			},
			"pbrMetallicRoughness":{
				"baseColorFactor":[
					0.0134117491543293,
					0.007194409146904945,
					0.004896310158073902,
					1
				],
				"metallicFactor":0,
				"roughnessFactor":0.6000000238418579
			}
		}
	],
	"meshes":[
		{
			"name":"gabiru",
			"primitives":[
				{
					"attributes":{
						"POSITION":0,
						"NORMAL":1,
						"TEXCOORD_0":2,
						"JOINTS_0":3,
						"WEIGHTS_0":4
					},
					"indices":5,
					"material":0
				},
				{
					"attributes":{
						"POSITION":6,
						"NORMAL":7,
						"TEXCOORD_0":8,
						"JOINTS_0":9,
						"WEIGHTS_0":10
					},
					"indices":11,
					"material":1
				},
				{
					"attributes":{
						"POSITION":12,
						"NORMAL":13,
						"TEXCOORD_0":14,
						"JOINTS_0":15,
						"WEIGHTS_0":16
					},
					"indices":17,
					"material":2
				},
				{
					"attributes":{
						"POSITION":18,
						"NORMAL":19,
						"TEXCOORD_0":20,
						"JOINTS_0":21,
						"WEIGHTS_0":22
					},
					"indices":23,
					"material":3
				},
				{
					"attributes":{
						"POSITION":24,
						"NORMAL":25,
						"TEXCOORD_0":26,
						"JOINTS_0":27,
						"WEIGHTS_0":28
					},
					"indices":29,
					"material":4
				},
				{
					"attributes":{
						"POSITION":30,
						"NORMAL":31,
						"TEXCOORD_0":32,
						"JOINTS_0":33,
						"WEIGHTS_0":34
					},
					"indices":35,
					"material":5
				},
				{
					"attributes":{
						"POSITION":36,
						"NORMAL":37,
						"TEXCOORD_0":38,
						"JOINTS_0":39,
						"WEIGHTS_0":40
					},
					"indices":41,
					"material":6
				},
				{
					"attributes":{
						"POSITION":42,
						"NORMAL":43,
						"TEXCOORD_0":44,
						"JOINTS_0":45,
						"WEIGHTS_0":46
					},
					"indices":47,
					"material":7
				},
				{
					"attributes":{
						"POSITION":48,
						"NORMAL":49,
						"TEXCOORD_0":50,
						"JOINTS_0":51,
						"WEIGHTS_0":52
					},
					"indices":53,
					"material":8
				},
				{
					"attributes":{
						"POSITION":54,
						"NORMAL":55,
						"TEXCOORD_0":56,
						"JOINTS_0":57,
						"WEIGHTS_0":58
					},
					"indices":59,
					"material":9
				},
				{
					"attributes":{
						"POSITION":60,
						"NORMAL":61,
						"TEXCOORD_0":62,
						"JOINTS_0":63,
						"WEIGHTS_0":64
					},
					"indices":65,
					"material":10
				},
				{
					"attributes":{
						"POSITION":66,
						"NORMAL":67,
						"TEXCOORD_0":68,
						"JOINTS_0":69,
						"WEIGHTS_0":70
					},
					"indices":71,
					"material":11
				},
				{
					"attributes":{
						"POSITION":72,
						"NORMAL":73,
						"TEXCOORD_0":74,
						"JOINTS_0":75,
						"WEIGHTS_0":76
					},
					"indices":77,
					"material":12
				}
			]
		}
	],
	"textures":[
		{
			"sampler":0,
			"source":0
		},
		{
			"sampler":0,
			"source":1
		},
		{
			"sampler":0,
			"source":1
		},
		{
			"sampler":0,
			"source":1
		},
		{
			"sampler":0,
			"source":2
		},
		{
			"sampler":0,
			"source":1
		},
		{
			"sampler":0,
			"source":3
		},
		{
			"sampler":0,
			"source":4
		},
		{
			"sampler":0,
			"source":2
		}
	],
	"images":[
		{
			"mimeType":"image/png",
			"name":"N_skin",
			"uri":"texturas/N_skin.png"
		},
		{
			"mimeType":"image/png",
			"name":"N_cloth",
			"uri":"texturas/N_cloth.png"
		},
		{
			"mimeType":"image/png",
			"name":"N_leather",
			"uri":"texturas/N_leather.png"
		},
		{
			"mimeType":"image/png",
			"name":"N_scale",
			"uri":"texturas/N_scale.png"
		},
		{
			"mimeType":"image/png",
			"name":"N_metal",
			"uri":"texturas/N_metal.png"
		}
	],
	"skins":[
		{
			"inverseBindMatrices":78,
			"joints":[
				18,
				1,
				0,
				11,
				10,
				3,
				2,
				6,
				5,
				4,
				9,
				8,
				7,
				14,
				13,
				12,
				17,
				16,
				15
			],
			"name":"gabiru_rig"
		}
	],
	"accessors":[
		{
			"bufferView":0,
			"componentType":5126,
			"count":1239,
			"max":[
				0.3528943955898285,
				1.962399959564209,
				0.11793381720781326
			],
			"min":[
				-0.3528943955898285,
				0.8629147410392761,
				-0.2677837312221527
			],
			"type":"VEC3"
		},
		{
			"bufferView":1,
			"componentType":5126,
			"count":1239,
			"type":"VEC3"
		},
		{
			"bufferView":2,
			"componentType":5126,
			"count":1239,
			"type":"VEC2"
		},
		{
			"bufferView":3,
			"componentType":5121,
			"count":1239,
			"type":"VEC4"
		},
		{
			"bufferView":4,
			"componentType":5126,
			"count":1239,
			"type":"VEC4"
		},
		{
			"bufferView":5,
			"componentType":5123,
			"count":5232,
			"type":"SCALAR"
		},
		{
			"bufferView":6,
			"componentType":5126,
			"count":1461,
			"max":[
				0.3571087718009949,
				1.6216338872909546,
				0.12338922172784805
			],
			"min":[
				-0.3571087718009949,
				1.0227553844451904,
				-0.12288814038038254
			],
			"type":"VEC3"
		},
		{
			"bufferView":7,
			"componentType":5126,
			"count":1461,
			"type":"VEC3"
		},
		{
			"bufferView":8,
			"componentType":5126,
			"count":1461,
			"type":"VEC2"
		},
		{
			"bufferView":9,
			"componentType":5121,
			"count":1461,
			"type":"VEC4"
		},
		{
			"bufferView":10,
			"componentType":5126,
			"count":1461,
			"type":"VEC4"
		},
		{
			"bufferView":11,
			"componentType":5123,
			"count":6648,
			"type":"SCALAR"
		},
		{
			"bufferView":12,
			"componentType":5126,
			"count":65,
			"max":[
				0.1569206714630127,
				1.1351046562194824,
				0.12522439658641815
			],
			"min":[
				-0.1569206714630127,
				0.9639427065849304,
				-0.12670059502124786
			],
			"type":"VEC3"
		},
		{
			"bufferView":13,
			"componentType":5126,
			"count":65,
			"type":"VEC3"
		},
		{
			"bufferView":14,
			"componentType":5126,
			"count":65,
			"type":"VEC2"
		},
		{
			"bufferView":15,
			"componentType":5121,
			"count":65,
			"type":"VEC4"
		},
		{
			"bufferView":16,
			"componentType":5126,
			"count":65,
			"type":"VEC4"
		},
		{
			"bufferView":17,
			"componentType":5123,
			"count":192,
			"type":"SCALAR"
		},
		{
			"bufferView":18,
			"componentType":5126,
			"count":977,
			"max":[
				0.35414159297943115,
				1.031027913093567,
				0.12192118167877197
			],
			"min":[
				-0.35414156317710876,
				0.3300668001174927,
				-0.12387771159410477
			],
			"type":"VEC3"
		},
		{
			"bufferView":19,
			"componentType":5126,
			"count":977,
			"type":"VEC3"
		},
		{
			"bufferView":20,
			"componentType":5126,
			"count":977,
			"type":"VEC2"
		},
		{
			"bufferView":21,
			"componentType":5121,
			"count":977,
			"type":"VEC4"
		},
		{
			"bufferView":22,
			"componentType":5126,
			"count":977,
			"type":"VEC4"
		},
		{
			"bufferView":23,
			"componentType":5123,
			"count":4332,
			"type":"SCALAR"
		},
		{
			"bufferView":24,
			"componentType":5126,
			"count":1034,
			"max":[
				0.1830880343914032,
				0.3370917737483978,
				0.08742524683475494
			],
			"min":[
				-0.1830880492925644,
				0.00835762545466423,
				-0.15413285791873932
			],
			"type":"VEC3"
		},
		{
			"bufferView":25,
			"componentType":5126,
			"count":1034,
			"type":"VEC3"
		},
		{
			"bufferView":26,
			"componentType":5126,
			"count":1034,
			"type":"VEC2"
		},
		{
			"bufferView":27,
			"componentType":5121,
			"count":1034,
			"type":"VEC4"
		},
		{
			"bufferView":28,
			"componentType":5126,
			"count":1034,
			"type":"VEC4"
		},
		{
			"bufferView":29,
			"componentType":5123,
			"count":4608,
			"type":"SCALAR"
		},
		{
			"bufferView":30,
			"componentType":5126,
			"count":304,
			"max":[
				0.09569999575614929,
				1.8716500997543335,
				-0.045100003480911255
			],
			"min":[
				-0.09569999575614929,
				1.846350073814392,
				-0.0649000033736229
			],
			"type":"VEC3"
		},
		{
			"bufferView":31,
			"componentType":5126,
			"count":304,
			"type":"VEC3"
		},
		{
			"bufferView":32,
			"componentType":5126,
			"count":304,
			"type":"VEC2"
		},
		{
			"bufferView":33,
			"componentType":5121,
			"count":304,
			"type":"VEC4"
		},
		{
			"bufferView":34,
			"componentType":5126,
			"count":304,
			"type":"VEC4"
		},
		{
			"bufferView":35,
			"componentType":5123,
			"count":1152,
			"type":"SCALAR"
		},
		{
			"bufferView":36,
			"componentType":5126,
			"count":220,
			"max":[
				0.08744999766349792,
				1.8697800636291504,
				-0.05744227021932602
			],
			"min":[
				-0.08744999766349792,
				1.8482199907302856,
				-0.0668577328324318
			],
			"type":"VEC3"
		},
		{
			"bufferView":37,
			"componentType":5126,
			"count":220,
			"type":"VEC3"
		},
		{
			"bufferView":38,
			"componentType":5126,
			"count":220,
			"type":"VEC2"
		},
		{
			"bufferView":39,
			"componentType":5121,
			"count":220,
			"type":"VEC4"
		},
		{
			"bufferView":40,
			"componentType":5126,
			"count":220,
			"type":"VEC4"
		},
		{
			"bufferView":41,
			"componentType":5123,
			"count":720,
			"type":"SCALAR"
		},
		{
			"bufferView":42,
			"componentType":5126,
			"count":268,
			"max":[
				0.08139388263225555,
				1.8639500141143799,
				-0.06368767470121384
			],
			"min":[
				-0.08139388263225555,
				1.7831001281738281,
				-0.27331051230430603
			],
			"type":"VEC3"
		},
		{
			"bufferView":43,
			"componentType":5126,
			"count":268,
			"type":"VEC3"
		},
		{
			"bufferView":44,
			"componentType":5126,
			"count":268,
			"type":"VEC2"
		},
		{
			"bufferView":45,
			"componentType":5121,
			"count":268,
			"type":"VEC4"
		},
		{
			"bufferView":46,
			"componentType":5126,
			"count":268,
			"type":"VEC4"
		},
		{
			"bufferView":47,
			"componentType":5123,
			"count":768,
			"type":"SCALAR"
		},
		{
			"bufferView":48,
			"componentType":5126,
			"count":56,
			"max":[
				0.38016000390052795,
				1.5840001106262207,
				0.3295600116252899
			],
			"min":[
				-0.38016000390052795,
				0.48399999737739563,
				0.164560005068779
			],
			"type":"VEC3"
		},
		{
			"bufferView":49,
			"componentType":5126,
			"count":56,
			"type":"VEC3"
		},
		{
			"bufferView":50,
			"componentType":5126,
			"count":56,
			"type":"VEC2"
		},
		{
			"bufferView":51,
			"componentType":5121,
			"count":56,
			"type":"VEC4"
		},
		{
			"bufferView":52,
			"componentType":5126,
			"count":56,
			"type":"VEC4"
		},
		{
			"bufferView":53,
			"componentType":5123,
			"count":252,
			"type":"SCALAR"
		},
		{
			"bufferView":54,
			"componentType":5126,
			"count":24,
			"max":[
				0.027500001713633537,
				1.0670000314712524,
				-0.10339999943971634
			],
			"min":[
				-0.027500001713633537,
				1.0230000019073486,
				-0.11659999936819077
			],
			"type":"VEC3"
		},
		{
			"bufferView":55,
			"componentType":5126,
			"count":24,
			"type":"VEC3"
		},
		{
			"bufferView":56,
			"componentType":5126,
			"count":24,
			"type":"VEC2"
		},
		{
			"bufferView":57,
			"componentType":5121,
			"count":24,
			"type":"VEC4"
		},
		{
			"bufferView":58,
			"componentType":5126,
			"count":24,
			"type":"VEC4"
		},
		{
			"bufferView":59,
			"componentType":5123,
			"count":36,
			"type":"SCALAR"
		},
		{
			"bufferView":60,
			"componentType":5126,
			"count":96,
			"max":[
				0.09350000321865082,
				1.1206088066101074,
				1.1034992933273315
			],
			"min":[
				-0.09350000321865082,
				0.12811197340488434,
				0.05219455808401108
			],
			"type":"VEC3"
		},
		{
			"bufferView":61,
			"componentType":5126,
			"count":96,
			"type":"VEC3"
		},
		{
			"bufferView":62,
			"componentType":5126,
			"count":96,
			"type":"VEC2"
		},
		{
			"bufferView":63,
			"componentType":5121,
			"count":96,
			"type":"VEC4"
		},
		{
			"bufferView":64,
			"componentType":5126,
			"count":96,
			"type":"VEC4"
		},
		{
			"bufferView":65,
			"componentType":5123,
			"count":300,
			"type":"SCALAR"
		},
		{
			"bufferView":66,
			"componentType":5126,
			"count":42,
			"max":[
				0.34078001976013184,
				2.5299999713897705,
				0.016500001773238182
			],
			"min":[
				0.3209800124168396,
				2.200000047683716,
				-0.07149999588727951
			],
			"type":"VEC3"
		},
		{
			"bufferView":67,
			"componentType":5126,
			"count":42,
			"type":"VEC3"
		},
		{
			"bufferView":68,
			"componentType":5126,
			"count":42,
			"type":"VEC2"
		},
		{
			"bufferView":69,
			"componentType":5121,
			"count":42,
			"type":"VEC4"
		},
		{
			"bufferView":70,
			"componentType":5126,
			"count":42,
			"type":"VEC4"
		},
		{
			"bufferView":71,
			"componentType":5123,
			"count":72,
			"type":"SCALAR"
		},
		{
			"bufferView":72,
			"componentType":5126,
			"count":42,
			"max":[
				0.3462800085544586,
				2.200000047683716,
				-0.012099998071789742
			],
			"min":[
				0.31547999382019043,
				0.10999996215105057,
				-0.04289999604225159
			],
			"type":"VEC3"
		},
		{
			"bufferView":73,
			"componentType":5126,
			"count":42,
			"type":"VEC3"
		},
		{
			"bufferView":74,
			"componentType":5126,
			"count":42,
			"type":"VEC2"
		},
		{
			"bufferView":75,
			"componentType":5121,
			"count":42,
			"type":"VEC4"
		},
		{
			"bufferView":76,
			"componentType":5126,
			"count":42,
			"type":"VEC4"
		},
		{
			"bufferView":77,
			"componentType":5123,
			"count":96,
			"type":"SCALAR"
		},
		{
			"bufferView":78,
			"componentType":5126,
			"count":19,
			"type":"MAT4"
		},
		{
			"bufferView":79,
			"componentType":5126,
			"count":2,
			"max":[
				0.6
			],
			"min":[
				0
			],
			"type":"SCALAR"
		},
		{
			"bufferView":80,
			"componentType":5126,
			"count":2,
			"type":"VEC3"
		},
		{
			"bufferView":81,
			"componentType":5126,
			"count":2,
			"type":"VEC4"
		},
		{
			"bufferView":82,
			"componentType":5126,
			"count":2,
			"type":"VEC3"
		},
		{
			"bufferView":83,
			"componentType":5126,
			"count":2,
			"type":"VEC3"
		},
		{
			"bufferView":84,
			"componentType":5126,
			"count":2,
			"type":"VEC4"
		},
		{
			"bufferView":85,
			"componentType":5126,
			"count":2,
			"type":"VEC3"
		},
		{
			"bufferView":86,
			"componentType":5126,
			"count":2,
			"type":"VEC3"
		},
		{
			"bufferView":87,
			"componentType":5126,
			"count":2,
			"type":"VEC4"
		},
		{
			"bufferView":88,
			"componentType":5126,
			"count":2,
			"type":"VEC3"
		},
		{
			"bufferView":89,
			"componentType":5126,
			"count":2,
			"type":"VEC3"
		},
		{
			"bufferView":90,
			"componentType":5126,
			"count":2,
			"type":"VEC4"
		},
		{
			"bufferView":91,
			"componentType":5126,
			"count":2,
			"type":"VEC3"
		},
		{
			"bufferView":92,
			"componentType":5126,
			"count":2,
			"type":"VEC3"
		},
		{
			"bufferView":93,
			"componentType":5126,
			"count":19,
			"max":[
				0.6
			],
			"min":[
				0
			],
			"type":"SCALAR"
		},
		{
			"bufferView":94,
			"componentType":5126,
			"count":19,
			"type":"VEC4"
		},
		{
			"bufferView":95,
			"componentType":5126,
			"count":2,
			"type":"VEC3"
		},
		{
			"bufferView":96,
			"componentType":5126,
			"count":2,
			"type":"VEC3"
		},
		{
			"bufferView":97,
			"componentType":5126,
			"count":2,
			"type":"VEC4"
		},
		{
			"bufferView":98,
			"componentType":5126,
			"count":2,
			"type":"VEC3"
		},
		{
			"bufferView":99,
			"componentType":5126,
			"count":2,
			"type":"VEC3"
		},
		{
			"bufferView":100,
			"componentType":5126,
			"count":2,
			"type":"VEC4"
		},
		{
			"bufferView":101,
			"componentType":5126,
			"count":2,
			"type":"VEC3"
		},
		{
			"bufferView":102,
			"componentType":5126,
			"count":2,
			"type":"VEC3"
		},
		{
			"bufferView":103,
			"componentType":5126,
			"count":19,
			"type":"VEC4"
		},
		{
			"bufferView":104,
			"componentType":5126,
			"count":2,
			"type":"VEC3"
		},
		{
			"bufferView":105,
			"componentType":5126,
			"count":2,
			"type":"VEC3"
		},
		{
			"bufferView":106,
			"componentType":5126,
			"count":19,
			"type":"VEC4"
		},
		{
			"bufferView":107,
			"componentType":5126,
			"count":2,
			"type":"VEC3"
		},
		{
			"bufferView":108,
			"componentType":5126,
			"count":2,
			"type":"VEC3"
		},
		{
			"bufferView":109,
			"componentType":5126,
			"count":2,
			"type":"VEC4"
		},
		{
			"bufferView":110,
			"componentType":5126,
			"count":2,
			"type":"VEC3"
		},
		{
			"bufferView":111,
			"componentType":5126,
			"count":2,
			"type":"VEC3"
		},
		{
			"bufferView":112,
			"componentType":5126,
			"count":19,
			"type":"VEC4"
		},
		{
			"bufferView":113,
			"componentType":5126,
			"count":2,
			"type":"VEC3"
		},
		{
			"bufferView":114,
			"componentType":5126,
			"count":2,
			"type":"VEC3"
		},
		{
			"bufferView":115,
			"componentType":5126,
			"count":2,
			"type":"VEC4"
		},
		{
			"bufferView":116,
			"componentType":5126,
			"count":2,
			"type":"VEC3"
		},
		{
			"bufferView":117,
			"componentType":5126,
			"count":2,
			"type":"VEC3"
		},
		{
			"bufferView":118,
			"componentType":5126,
			"count":2,
			"type":"VEC4"
		},
		{
			"bufferView":119,
			"componentType":5126,
			"count":2,
			"type":"VEC3"
		},
		{
			"bufferView":120,
			"componentType":5126,
			"count":2,
			"type":"VEC3"
		},
		{
			"bufferView":121,
			"componentType":5126,
			"count":19,
			"type":"VEC4"
		},
		{
			"bufferView":122,
			"componentType":5126,
			"count":2,
			"type":"VEC3"
		},
		{
			"bufferView":123,
			"componentType":5126,
			"count":2,
			"type":"VEC3"
		},
		{
			"bufferView":124,
			"componentType":5126,
			"count":2,
			"type":"VEC4"
		},
		{
			"bufferView":125,
			"componentType":5126,
			"count":2,
			"type":"VEC3"
		},
		{
			"bufferView":126,
			"componentType":5126,
			"count":2,
			"type":"VEC3"
		},
		{
			"bufferView":127,
			"componentType":5126,
			"count":2,
			"type":"VEC4"
		},
		{
			"bufferView":128,
			"componentType":5126,
			"count":2,
			"type":"VEC3"
		},
		{
			"bufferView":129,
			"componentType":5126,
			"count":2,
			"type":"VEC3"
		},
		{
			"bufferView":130,
			"componentType":5126,
			"count":19,
			"type":"VEC4"
		},
		{
			"bufferView":131,
			"componentType":5126,
			"count":2,
			"type":"VEC3"
		},
		{
			"bufferView":132,
			"componentType":5126,
			"count":2,
			"type":"VEC3"
		},
		{
			"bufferView":133,
			"componentType":5126,
			"count":2,
			"type":"VEC4"
		},
		{
			"bufferView":134,
			"componentType":5126,
			"count":2,
			"type":"VEC3"
		},
		{
			"bufferView":135,
			"componentType":5126,
			"count":2,
			"type":"VEC3"
		},
		{
			"bufferView":136,
			"componentType":5126,
			"count":2,
			"type":"VEC4"
		},
		{
			"bufferView":137,
			"componentType":5126,
			"count":2,
			"type":"VEC3"
		},
		{
			"bufferView":138,
			"componentType":5126,
			"count":61,
			"max":[
				2
			],
			"min":[
				0
			],
			"type":"SCALAR"
		},
		{
			"bufferView":139,
			"componentType":5126,
			"count":61,
			"type":"VEC3"
		},
		{
			"bufferView":140,
			"componentType":5126,
			"count":2,
			"max":[
				2
			],
			"min":[
				0
			],
			"type":"SCALAR"
		},
		{
			"bufferView":141,
			"componentType":5126,
			"count":2,
			"type":"VEC4"
		},
		{
			"bufferView":142,
			"componentType":5126,
			"count":2,
			"type":"VEC3"
		},
		{
			"bufferView":143,
			"componentType":5126,
			"count":2,
			"type":"VEC3"
		},
		{
			"bufferView":144,
			"componentType":5126,
			"count":61,
			"type":"VEC4"
		},
		{
			"bufferView":145,
			"componentType":5126,
			"count":2,
			"type":"VEC3"
		},
		{
			"bufferView":146,
			"componentType":5126,
			"count":2,
			"type":"VEC3"
		},
		{
			"bufferView":147,
			"componentType":5126,
			"count":2,
			"type":"VEC4"
		},
		{
			"bufferView":148,
			"componentType":5126,
			"count":2,
			"type":"VEC3"
		},
		{
			"bufferView":149,
			"componentType":5126,
			"count":2,
			"type":"VEC3"
		},
		{
			"bufferView":150,
			"componentType":5126,
			"count":2,
			"type":"VEC4"
		},
		{
			"bufferView":151,
			"componentType":5126,
			"count":2,
			"type":"VEC3"
		},
		{
			"bufferView":152,
			"componentType":5126,
			"count":2,
			"type":"VEC3"
		},
		{
			"bufferView":153,
			"componentType":5126,
			"count":61,
			"type":"VEC4"
		},
		{
			"bufferView":154,
			"componentType":5126,
			"count":2,
			"type":"VEC3"
		},
		{
			"bufferView":155,
			"componentType":5126,
			"count":2,
			"type":"VEC3"
		},
		{
			"bufferView":156,
			"componentType":5126,
			"count":2,
			"type":"VEC4"
		},
		{
			"bufferView":157,
			"componentType":5126,
			"count":2,
			"type":"VEC3"
		},
		{
			"bufferView":158,
			"componentType":5126,
			"count":2,
			"type":"VEC3"
		},
		{
			"bufferView":159,
			"componentType":5126,
			"count":61,
			"type":"VEC4"
		},
		{
			"bufferView":160,
			"componentType":5126,
			"count":2,
			"type":"VEC3"
		},
		{
			"bufferView":161,
			"componentType":5126,
			"count":2,
			"type":"VEC3"
		},
		{
			"bufferView":162,
			"componentType":5126,
			"count":61,
			"type":"VEC4"
		},
		{
			"bufferView":163,
			"componentType":5126,
			"count":2,
			"type":"VEC3"
		},
		{
			"bufferView":164,
			"componentType":5126,
			"count":2,
			"type":"VEC3"
		},
		{
			"bufferView":165,
			"componentType":5126,
			"count":2,
			"type":"VEC4"
		},
		{
			"bufferView":166,
			"componentType":5126,
			"count":2,
			"type":"VEC3"
		},
		{
			"bufferView":167,
			"componentType":5126,
			"count":2,
			"type":"VEC3"
		},
		{
			"bufferView":168,
			"componentType":5126,
			"count":2,
			"type":"VEC4"
		},
		{
			"bufferView":169,
			"componentType":5126,
			"count":2,
			"type":"VEC3"
		},
		{
			"bufferView":170,
			"componentType":5126,
			"count":2,
			"type":"VEC3"
		},
		{
			"bufferView":171,
			"componentType":5126,
			"count":61,
			"type":"VEC4"
		},
		{
			"bufferView":172,
			"componentType":5126,
			"count":2,
			"type":"VEC3"
		},
		{
			"bufferView":173,
			"componentType":5126,
			"count":2,
			"type":"VEC3"
		},
		{
			"bufferView":174,
			"componentType":5126,
			"count":2,
			"type":"VEC4"
		},
		{
			"bufferView":175,
			"componentType":5126,
			"count":2,
			"type":"VEC3"
		},
		{
			"bufferView":176,
			"componentType":5126,
			"count":2,
			"type":"VEC3"
		},
		{
			"bufferView":177,
			"componentType":5126,
			"count":2,
			"type":"VEC4"
		},
		{
			"bufferView":178,
			"componentType":5126,
			"count":2,
			"type":"VEC3"
		},
		{
			"bufferView":179,
			"componentType":5126,
			"count":2,
			"type":"VEC3"
		},
		{
			"bufferView":180,
			"componentType":5126,
			"count":2,
			"type":"VEC4"
		},
		{
			"bufferView":181,
			"componentType":5126,
			"count":2,
			"type":"VEC3"
		},
		{
			"bufferView":182,
			"componentType":5126,
			"count":2,
			"type":"VEC3"
		},
		{
			"bufferView":183,
			"componentType":5126,
			"count":2,
			"type":"VEC4"
		},
		{
			"bufferView":184,
			"componentType":5126,
			"count":2,
			"type":"VEC3"
		},
		{
			"bufferView":185,
			"componentType":5126,
			"count":2,
			"type":"VEC3"
		},
		{
			"bufferView":186,
			"componentType":5126,
			"count":2,
			"type":"VEC4"
		},
		{
			"bufferView":187,
			"componentType":5126,
			"count":2,
			"type":"VEC3"
		},
		{
			"bufferView":188,
			"componentType":5126,
			"count":2,
			"type":"VEC3"
		},
		{
			"bufferView":189,
			"componentType":5126,
			"count":2,
			"type":"VEC4"
		},
		{
			"bufferView":190,
			"componentType":5126,
			"count":2,
			"type":"VEC3"
		},
		{
			"bufferView":191,
			"componentType":5126,
			"count":2,
			"type":"VEC3"
		},
		{
			"bufferView":192,
			"componentType":5126,
			"count":2,
			"type":"VEC4"
		},
		{
			"bufferView":193,
			"componentType":5126,
			"count":2,
			"type":"VEC3"
		},
		{
			"bufferView":194,
			"componentType":5126,
			"count":2,
			"type":"VEC3"
		},
		{
			"bufferView":195,
			"componentType":5126,
			"count":2,
			"type":"VEC4"
		},
		{
			"bufferView":196,
			"componentType":5126,
			"count":2,
			"type":"VEC3"
		},
		{
			"bufferView":197,
			"componentType":5126,
			"count":31,
			"max":[
				1
			],
			"min":[
				0
			],
			"type":"SCALAR"
		},
		{
			"bufferView":198,
			"componentType":5126,
			"count":31,
			"type":"VEC3"
		},
		{
			"bufferView":199,
			"componentType":5126,
			"count":31,
			"type":"VEC4"
		},
		{
			"bufferView":200,
			"componentType":5126,
			"count":2,
			"max":[
				1
			],
			"min":[
				0
			],
			"type":"SCALAR"
		},
		{
			"bufferView":201,
			"componentType":5126,
			"count":2,
			"type":"VEC3"
		},
		{
			"bufferView":202,
			"componentType":5126,
			"count":2,
			"type":"VEC3"
		},
		{
			"bufferView":203,
			"componentType":5126,
			"count":31,
			"type":"VEC4"
		},
		{
			"bufferView":204,
			"componentType":5126,
			"count":2,
			"type":"VEC3"
		},
		{
			"bufferView":205,
			"componentType":5126,
			"count":2,
			"type":"VEC3"
		},
		{
			"bufferView":206,
			"componentType":5126,
			"count":2,
			"type":"VEC4"
		},
		{
			"bufferView":207,
			"componentType":5126,
			"count":2,
			"type":"VEC3"
		},
		{
			"bufferView":208,
			"componentType":5126,
			"count":2,
			"type":"VEC3"
		},
		{
			"bufferView":209,
			"componentType":5126,
			"count":2,
			"type":"VEC4"
		},
		{
			"bufferView":210,
			"componentType":5126,
			"count":2,
			"type":"VEC3"
		},
		{
			"bufferView":211,
			"componentType":5126,
			"count":2,
			"type":"VEC3"
		},
		{
			"bufferView":212,
			"componentType":5126,
			"count":31,
			"type":"VEC4"
		},
		{
			"bufferView":213,
			"componentType":5126,
			"count":2,
			"type":"VEC3"
		},
		{
			"bufferView":214,
			"componentType":5126,
			"count":2,
			"type":"VEC3"
		},
		{
			"bufferView":215,
			"componentType":5126,
			"count":2,
			"type":"VEC4"
		},
		{
			"bufferView":216,
			"componentType":5126,
			"count":2,
			"type":"VEC3"
		},
		{
			"bufferView":217,
			"componentType":5126,
			"count":2,
			"type":"VEC3"
		},
		{
			"bufferView":218,
			"componentType":5126,
			"count":2,
			"type":"VEC4"
		},
		{
			"bufferView":219,
			"componentType":5126,
			"count":2,
			"type":"VEC3"
		},
		{
			"bufferView":220,
			"componentType":5126,
			"count":2,
			"type":"VEC3"
		},
		{
			"bufferView":221,
			"componentType":5126,
			"count":31,
			"type":"VEC4"
		},
		{
			"bufferView":222,
			"componentType":5126,
			"count":2,
			"type":"VEC3"
		},
		{
			"bufferView":223,
			"componentType":5126,
			"count":2,
			"type":"VEC3"
		},
		{
			"bufferView":224,
			"componentType":5126,
			"count":2,
			"type":"VEC4"
		},
		{
			"bufferView":225,
			"componentType":5126,
			"count":2,
			"type":"VEC3"
		},
		{
			"bufferView":226,
			"componentType":5126,
			"count":2,
			"type":"VEC3"
		},
		{
			"bufferView":227,
			"componentType":5126,
			"count":2,
			"type":"VEC4"
		},
		{
			"bufferView":228,
			"componentType":5126,
			"count":2,
			"type":"VEC3"
		},
		{
			"bufferView":229,
			"componentType":5126,
			"count":2,
			"type":"VEC3"
		},
		{
			"bufferView":230,
			"componentType":5126,
			"count":31,
			"type":"VEC4"
		},
		{
			"bufferView":231,
			"componentType":5126,
			"count":2,
			"type":"VEC3"
		},
		{
			"bufferView":232,
			"componentType":5126,
			"count":2,
			"type":"VEC3"
		},
		{
			"bufferView":233,
			"componentType":5126,
			"count":2,
			"type":"VEC4"
		},
		{
			"bufferView":234,
			"componentType":5126,
			"count":2,
			"type":"VEC3"
		},
		{
			"bufferView":235,
			"componentType":5126,
			"count":2,
			"type":"VEC3"
		},
		{
			"bufferView":236,
			"componentType":5126,
			"count":2,
			"type":"VEC4"
		},
		{
			"bufferView":237,
			"componentType":5126,
			"count":2,
			"type":"VEC3"
		},
		{
			"bufferView":238,
			"componentType":5126,
			"count":2,
			"type":"VEC3"
		},
		{
			"bufferView":239,
			"componentType":5126,
			"count":31,
			"type":"VEC4"
		},
		{
			"bufferView":240,
			"componentType":5126,
			"count":2,
			"type":"VEC3"
		},
		{
			"bufferView":241,
			"componentType":5126,
			"count":2,
			"type":"VEC3"
		},
		{
			"bufferView":242,
			"componentType":5126,
			"count":31,
			"type":"VEC4"
		},
		{
			"bufferView":243,
			"componentType":5126,
			"count":2,
			"type":"VEC3"
		},
		{
			"bufferView":244,
			"componentType":5126,
			"count":2,
			"type":"VEC3"
		},
		{
			"bufferView":245,
			"componentType":5126,
			"count":31,
			"type":"VEC4"
		},
		{
			"bufferView":246,
			"componentType":5126,
			"count":2,
			"type":"VEC3"
		},
		{
			"bufferView":247,
			"componentType":5126,
			"count":2,
			"type":"VEC3"
		},
		{
			"bufferView":248,
			"componentType":5126,
			"count":31,
			"type":"VEC4"
		},
		{
			"bufferView":249,
			"componentType":5126,
			"count":2,
			"type":"VEC3"
		},
		{
			"bufferView":250,
			"componentType":5126,
			"count":2,
			"type":"VEC3"
		},
		{
			"bufferView":251,
			"componentType":5126,
			"count":31,
			"type":"VEC4"
		},
		{
			"bufferView":252,
			"componentType":5126,
			"count":2,
			"type":"VEC3"
		},
		{
			"bufferView":253,
			"componentType":5126,
			"count":2,
			"type":"VEC3"
		},
		{
			"bufferView":254,
			"componentType":5126,
			"count":31,
			"type":"VEC4"
		},
		{
			"bufferView":255,
			"componentType":5126,
			"count":2,
			"type":"VEC3"
		}
	],
	"bufferViews":[
		{
			"buffer":0,
			"byteLength":14868,
			"byteOffset":0,
			"target":34962
		},
		{
			"buffer":0,
			"byteLength":14868,
			"byteOffset":14868,
			"target":34962
		},
		{
			"buffer":0,
			"byteLength":9912,
			"byteOffset":29736,
			"target":34962
		},
		{
			"buffer":0,
			"byteLength":4956,
			"byteOffset":39648,
			"target":34962
		},
		{
			"buffer":0,
			"byteLength":19824,
			"byteOffset":44604,
			"target":34962
		},
		{
			"buffer":0,
			"byteLength":10464,
			"byteOffset":64428,
			"target":34963
		},
		{
			"buffer":0,
			"byteLength":17532,
			"byteOffset":74892,
			"target":34962
		},
		{
			"buffer":0,
			"byteLength":17532,
			"byteOffset":92424,
			"target":34962
		},
		{
			"buffer":0,
			"byteLength":11688,
			"byteOffset":109956,
			"target":34962
		},
		{
			"buffer":0,
			"byteLength":5844,
			"byteOffset":121644,
			"target":34962
		},
		{
			"buffer":0,
			"byteLength":23376,
			"byteOffset":127488,
			"target":34962
		},
		{
			"buffer":0,
			"byteLength":13296,
			"byteOffset":150864,
			"target":34963
		},
		{
			"buffer":0,
			"byteLength":780,
			"byteOffset":164160,
			"target":34962
		},
		{
			"buffer":0,
			"byteLength":780,
			"byteOffset":164940,
			"target":34962
		},
		{
			"buffer":0,
			"byteLength":520,
			"byteOffset":165720,
			"target":34962
		},
		{
			"buffer":0,
			"byteLength":260,
			"byteOffset":166240,
			"target":34962
		},
		{
			"buffer":0,
			"byteLength":1040,
			"byteOffset":166500,
			"target":34962
		},
		{
			"buffer":0,
			"byteLength":384,
			"byteOffset":167540,
			"target":34963
		},
		{
			"buffer":0,
			"byteLength":11724,
			"byteOffset":167924,
			"target":34962
		},
		{
			"buffer":0,
			"byteLength":11724,
			"byteOffset":179648,
			"target":34962
		},
		{
			"buffer":0,
			"byteLength":7816,
			"byteOffset":191372,
			"target":34962
		},
		{
			"buffer":0,
			"byteLength":3908,
			"byteOffset":199188,
			"target":34962
		},
		{
			"buffer":0,
			"byteLength":15632,
			"byteOffset":203096,
			"target":34962
		},
		{
			"buffer":0,
			"byteLength":8664,
			"byteOffset":218728,
			"target":34963
		},
		{
			"buffer":0,
			"byteLength":12408,
			"byteOffset":227392,
			"target":34962
		},
		{
			"buffer":0,
			"byteLength":12408,
			"byteOffset":239800,
			"target":34962
		},
		{
			"buffer":0,
			"byteLength":8272,
			"byteOffset":252208,
			"target":34962
		},
		{
			"buffer":0,
			"byteLength":4136,
			"byteOffset":260480,
			"target":34962
		},
		{
			"buffer":0,
			"byteLength":16544,
			"byteOffset":264616,
			"target":34962
		},
		{
			"buffer":0,
			"byteLength":9216,
			"byteOffset":281160,
			"target":34963
		},
		{
			"buffer":0,
			"byteLength":3648,
			"byteOffset":290376,
			"target":34962
		},
		{
			"buffer":0,
			"byteLength":3648,
			"byteOffset":294024,
			"target":34962
		},
		{
			"buffer":0,
			"byteLength":2432,
			"byteOffset":297672,
			"target":34962
		},
		{
			"buffer":0,
			"byteLength":1216,
			"byteOffset":300104,
			"target":34962
		},
		{
			"buffer":0,
			"byteLength":4864,
			"byteOffset":301320,
			"target":34962
		},
		{
			"buffer":0,
			"byteLength":2304,
			"byteOffset":306184,
			"target":34963
		},
		{
			"buffer":0,
			"byteLength":2640,
			"byteOffset":308488,
			"target":34962
		},
		{
			"buffer":0,
			"byteLength":2640,
			"byteOffset":311128,
			"target":34962
		},
		{
			"buffer":0,
			"byteLength":1760,
			"byteOffset":313768,
			"target":34962
		},
		{
			"buffer":0,
			"byteLength":880,
			"byteOffset":315528,
			"target":34962
		},
		{
			"buffer":0,
			"byteLength":3520,
			"byteOffset":316408,
			"target":34962
		},
		{
			"buffer":0,
			"byteLength":1440,
			"byteOffset":319928,
			"target":34963
		},
		{
			"buffer":0,
			"byteLength":3216,
			"byteOffset":321368,
			"target":34962
		},
		{
			"buffer":0,
			"byteLength":3216,
			"byteOffset":324584,
			"target":34962
		},
		{
			"buffer":0,
			"byteLength":2144,
			"byteOffset":327800,
			"target":34962
		},
		{
			"buffer":0,
			"byteLength":1072,
			"byteOffset":329944,
			"target":34962
		},
		{
			"buffer":0,
			"byteLength":4288,
			"byteOffset":331016,
			"target":34962
		},
		{
			"buffer":0,
			"byteLength":1536,
			"byteOffset":335304,
			"target":34963
		},
		{
			"buffer":0,
			"byteLength":672,
			"byteOffset":336840,
			"target":34962
		},
		{
			"buffer":0,
			"byteLength":672,
			"byteOffset":337512,
			"target":34962
		},
		{
			"buffer":0,
			"byteLength":448,
			"byteOffset":338184,
			"target":34962
		},
		{
			"buffer":0,
			"byteLength":224,
			"byteOffset":338632,
			"target":34962
		},
		{
			"buffer":0,
			"byteLength":896,
			"byteOffset":338856,
			"target":34962
		},
		{
			"buffer":0,
			"byteLength":504,
			"byteOffset":339752,
			"target":34963
		},
		{
			"buffer":0,
			"byteLength":288,
			"byteOffset":340256,
			"target":34962
		},
		{
			"buffer":0,
			"byteLength":288,
			"byteOffset":340544,
			"target":34962
		},
		{
			"buffer":0,
			"byteLength":192,
			"byteOffset":340832,
			"target":34962
		},
		{
			"buffer":0,
			"byteLength":96,
			"byteOffset":341024,
			"target":34962
		},
		{
			"buffer":0,
			"byteLength":384,
			"byteOffset":341120,
			"target":34962
		},
		{
			"buffer":0,
			"byteLength":72,
			"byteOffset":341504,
			"target":34963
		},
		{
			"buffer":0,
			"byteLength":1152,
			"byteOffset":341576,
			"target":34962
		},
		{
			"buffer":0,
			"byteLength":1152,
			"byteOffset":342728,
			"target":34962
		},
		{
			"buffer":0,
			"byteLength":768,
			"byteOffset":343880,
			"target":34962
		},
		{
			"buffer":0,
			"byteLength":384,
			"byteOffset":344648,
			"target":34962
		},
		{
			"buffer":0,
			"byteLength":1536,
			"byteOffset":345032,
			"target":34962
		},
		{
			"buffer":0,
			"byteLength":600,
			"byteOffset":346568,
			"target":34963
		},
		{
			"buffer":0,
			"byteLength":504,
			"byteOffset":347168,
			"target":34962
		},
		{
			"buffer":0,
			"byteLength":504,
			"byteOffset":347672,
			"target":34962
		},
		{
			"buffer":0,
			"byteLength":336,
			"byteOffset":348176,
			"target":34962
		},
		{
			"buffer":0,
			"byteLength":168,
			"byteOffset":348512,
			"target":34962
		},
		{
			"buffer":0,
			"byteLength":672,
			"byteOffset":348680,
			"target":34962
		},
		{
			"buffer":0,
			"byteLength":144,
			"byteOffset":349352,
			"target":34963
		},
		{
			"buffer":0,
			"byteLength":504,
			"byteOffset":349496,
			"target":34962
		},
		{
			"buffer":0,
			"byteLength":504,
			"byteOffset":350000,
			"target":34962
		},
		{
			"buffer":0,
			"byteLength":336,
			"byteOffset":350504,
			"target":34962
		},
		{
			"buffer":0,
			"byteLength":168,
			"byteOffset":350840,
			"target":34962
		},
		{
			"buffer":0,
			"byteLength":672,
			"byteOffset":351008,
			"target":34962
		},
		{
			"buffer":0,
			"byteLength":192,
			"byteOffset":351680,
			"target":34963
		},
		{
			"buffer":0,
			"byteLength":1216,
			"byteOffset":351872
		},
		{
			"buffer":0,
			"byteLength":8,
			"byteOffset":353088
		},
		{
			"buffer":0,
			"byteLength":24,
			"byteOffset":353096
		},
		{
			"buffer":0,
			"byteLength":32,
			"byteOffset":353120
		},
		{
			"buffer":0,
			"byteLength":24,
			"byteOffset":353152
		},
		{
			"buffer":0,
			"byteLength":24,
			"byteOffset":353176
		},
		{
			"buffer":0,
			"byteLength":32,
			"byteOffset":353200
		},
		{
			"buffer":0,
			"byteLength":24,
			"byteOffset":353232
		},
		{
			"buffer":0,
			"byteLength":24,
			"byteOffset":353256
		},
		{
			"buffer":0,
			"byteLength":32,
			"byteOffset":353280
		},
		{
			"buffer":0,
			"byteLength":24,
			"byteOffset":353312
		},
		{
			"buffer":0,
			"byteLength":24,
			"byteOffset":353336
		},
		{
			"buffer":0,
			"byteLength":32,
			"byteOffset":353360
		},
		{
			"buffer":0,
			"byteLength":24,
			"byteOffset":353392
		},
		{
			"buffer":0,
			"byteLength":24,
			"byteOffset":353416
		},
		{
			"buffer":0,
			"byteLength":76,
			"byteOffset":353440
		},
		{
			"buffer":0,
			"byteLength":304,
			"byteOffset":353516
		},
		{
			"buffer":0,
			"byteLength":24,
			"byteOffset":353820
		},
		{
			"buffer":0,
			"byteLength":24,
			"byteOffset":353844
		},
		{
			"buffer":0,
			"byteLength":32,
			"byteOffset":353868
		},
		{
			"buffer":0,
			"byteLength":24,
			"byteOffset":353900
		},
		{
			"buffer":0,
			"byteLength":24,
			"byteOffset":353924
		},
		{
			"buffer":0,
			"byteLength":32,
			"byteOffset":353948
		},
		{
			"buffer":0,
			"byteLength":24,
			"byteOffset":353980
		},
		{
			"buffer":0,
			"byteLength":24,
			"byteOffset":354004
		},
		{
			"buffer":0,
			"byteLength":304,
			"byteOffset":354028
		},
		{
			"buffer":0,
			"byteLength":24,
			"byteOffset":354332
		},
		{
			"buffer":0,
			"byteLength":24,
			"byteOffset":354356
		},
		{
			"buffer":0,
			"byteLength":304,
			"byteOffset":354380
		},
		{
			"buffer":0,
			"byteLength":24,
			"byteOffset":354684
		},
		{
			"buffer":0,
			"byteLength":24,
			"byteOffset":354708
		},
		{
			"buffer":0,
			"byteLength":32,
			"byteOffset":354732
		},
		{
			"buffer":0,
			"byteLength":24,
			"byteOffset":354764
		},
		{
			"buffer":0,
			"byteLength":24,
			"byteOffset":354788
		},
		{
			"buffer":0,
			"byteLength":304,
			"byteOffset":354812
		},
		{
			"buffer":0,
			"byteLength":24,
			"byteOffset":355116
		},
		{
			"buffer":0,
			"byteLength":24,
			"byteOffset":355140
		},
		{
			"buffer":0,
			"byteLength":32,
			"byteOffset":355164
		},
		{
			"buffer":0,
			"byteLength":24,
			"byteOffset":355196
		},
		{
			"buffer":0,
			"byteLength":24,
			"byteOffset":355220
		},
		{
			"buffer":0,
			"byteLength":32,
			"byteOffset":355244
		},
		{
			"buffer":0,
			"byteLength":24,
			"byteOffset":355276
		},
		{
			"buffer":0,
			"byteLength":24,
			"byteOffset":355300
		},
		{
			"buffer":0,
			"byteLength":304,
			"byteOffset":355324
		},
		{
			"buffer":0,
			"byteLength":24,
			"byteOffset":355628
		},
		{
			"buffer":0,
			"byteLength":24,
			"byteOffset":355652
		},
		{
			"buffer":0,
			"byteLength":32,
			"byteOffset":355676
		},
		{
			"buffer":0,
			"byteLength":24,
			"byteOffset":355708
		},
		{
			"buffer":0,
			"byteLength":24,
			"byteOffset":355732
		},
		{
			"buffer":0,
			"byteLength":32,
			"byteOffset":355756
		},
		{
			"buffer":0,
			"byteLength":24,
			"byteOffset":355788
		},
		{
			"buffer":0,
			"byteLength":24,
			"byteOffset":355812
		},
		{
			"buffer":0,
			"byteLength":304,
			"byteOffset":355836
		},
		{
			"buffer":0,
			"byteLength":24,
			"byteOffset":356140
		},
		{
			"buffer":0,
			"byteLength":24,
			"byteOffset":356164
		},
		{
			"buffer":0,
			"byteLength":32,
			"byteOffset":356188
		},
		{
			"buffer":0,
			"byteLength":24,
			"byteOffset":356220
		},
		{
			"buffer":0,
			"byteLength":24,
			"byteOffset":356244
		},
		{
			"buffer":0,
			"byteLength":32,
			"byteOffset":356268
		},
		{
			"buffer":0,
			"byteLength":24,
			"byteOffset":356300
		},
		{
			"buffer":0,
			"byteLength":244,
			"byteOffset":356324
		},
		{
			"buffer":0,
			"byteLength":732,
			"byteOffset":356568
		},
		{
			"buffer":0,
			"byteLength":8,
			"byteOffset":357300
		},
		{
			"buffer":0,
			"byteLength":32,
			"byteOffset":357308
		},
		{
			"buffer":0,
			"byteLength":24,
			"byteOffset":357340
		},
		{
			"buffer":0,
			"byteLength":24,
			"byteOffset":357364
		},
		{
			"buffer":0,
			"byteLength":976,
			"byteOffset":357388
		},
		{
			"buffer":0,
			"byteLength":24,
			"byteOffset":358364
		},
		{
			"buffer":0,
			"byteLength":24,
			"byteOffset":358388
		},
		{
			"buffer":0,
			"byteLength":32,
			"byteOffset":358412
		},
		{
			"buffer":0,
			"byteLength":24,
			"byteOffset":358444
		},
		{
			"buffer":0,
			"byteLength":24,
			"byteOffset":358468
		},
		{
			"buffer":0,
			"byteLength":32,
			"byteOffset":358492
		},
		{
			"buffer":0,
			"byteLength":24,
			"byteOffset":358524
		},
		{
			"buffer":0,
			"byteLength":24,
			"byteOffset":358548
		},
		{
			"buffer":0,
			"byteLength":976,
			"byteOffset":358572
		},
		{
			"buffer":0,
			"byteLength":24,
			"byteOffset":359548
		},
		{
			"buffer":0,
			"byteLength":24,
			"byteOffset":359572
		},
		{
			"buffer":0,
			"byteLength":32,
			"byteOffset":359596
		},
		{
			"buffer":0,
			"byteLength":24,
			"byteOffset":359628
		},
		{
			"buffer":0,
			"byteLength":24,
			"byteOffset":359652
		},
		{
			"buffer":0,
			"byteLength":976,
			"byteOffset":359676
		},
		{
			"buffer":0,
			"byteLength":24,
			"byteOffset":360652
		},
		{
			"buffer":0,
			"byteLength":24,
			"byteOffset":360676
		},
		{
			"buffer":0,
			"byteLength":976,
			"byteOffset":360700
		},
		{
			"buffer":0,
			"byteLength":24,
			"byteOffset":361676
		},
		{
			"buffer":0,
			"byteLength":24,
			"byteOffset":361700
		},
		{
			"buffer":0,
			"byteLength":32,
			"byteOffset":361724
		},
		{
			"buffer":0,
			"byteLength":24,
			"byteOffset":361756
		},
		{
			"buffer":0,
			"byteLength":24,
			"byteOffset":361780
		},
		{
			"buffer":0,
			"byteLength":32,
			"byteOffset":361804
		},
		{
			"buffer":0,
			"byteLength":24,
			"byteOffset":361836
		},
		{
			"buffer":0,
			"byteLength":24,
			"byteOffset":361860
		},
		{
			"buffer":0,
			"byteLength":976,
			"byteOffset":361884
		},
		{
			"buffer":0,
			"byteLength":24,
			"byteOffset":362860
		},
		{
			"buffer":0,
			"byteLength":24,
			"byteOffset":362884
		},
		{
			"buffer":0,
			"byteLength":32,
			"byteOffset":362908
		},
		{
			"buffer":0,
			"byteLength":24,
			"byteOffset":362940
		},
		{
			"buffer":0,
			"byteLength":24,
			"byteOffset":362964
		},
		{
			"buffer":0,
			"byteLength":32,
			"byteOffset":362988
		},
		{
			"buffer":0,
			"byteLength":24,
			"byteOffset":363020
		},
		{
			"buffer":0,
			"byteLength":24,
			"byteOffset":363044
		},
		{
			"buffer":0,
			"byteLength":32,
			"byteOffset":363068
		},
		{
			"buffer":0,
			"byteLength":24,
			"byteOffset":363100
		},
		{
			"buffer":0,
			"byteLength":24,
			"byteOffset":363124
		},
		{
			"buffer":0,
			"byteLength":32,
			"byteOffset":363148
		},
		{
			"buffer":0,
			"byteLength":24,
			"byteOffset":363180
		},
		{
			"buffer":0,
			"byteLength":24,
			"byteOffset":363204
		},
		{
			"buffer":0,
			"byteLength":32,
			"byteOffset":363228
		},
		{
			"buffer":0,
			"byteLength":24,
			"byteOffset":363260
		},
		{
			"buffer":0,
			"byteLength":24,
			"byteOffset":363284
		},
		{
			"buffer":0,
			"byteLength":32,
			"byteOffset":363308
		},
		{
			"buffer":0,
			"byteLength":24,
			"byteOffset":363340
		},
		{
			"buffer":0,
			"byteLength":24,
			"byteOffset":363364
		},
		{
			"buffer":0,
			"byteLength":32,
			"byteOffset":363388
		},
		{
			"buffer":0,
			"byteLength":24,
			"byteOffset":363420
		},
		{
			"buffer":0,
			"byteLength":24,
			"byteOffset":363444
		},
		{
			"buffer":0,
			"byteLength":32,
			"byteOffset":363468
		},
		{
			"buffer":0,
			"byteLength":24,
			"byteOffset":363500
		},
		{
			"buffer":0,
			"byteLength":124,
			"byteOffset":363524
		},
		{
			"buffer":0,
			"byteLength":372,
			"byteOffset":363648
		},
		{
			"buffer":0,
			"byteLength":496,
			"byteOffset":364020
		},
		{
			"buffer":0,
			"byteLength":8,
			"byteOffset":364516
		},
		{
			"buffer":0,
			"byteLength":24,
			"byteOffset":364524
		},
		{
			"buffer":0,
			"byteLength":24,
			"byteOffset":364548
		},
		{
			"buffer":0,
			"byteLength":496,
			"byteOffset":364572
		},
		{
			"buffer":0,
			"byteLength":24,
			"byteOffset":365068
		},
		{
			"buffer":0,
			"byteLength":24,
			"byteOffset":365092
		},
		{
			"buffer":0,
			"byteLength":32,
			"byteOffset":365116
		},
		{
			"buffer":0,
			"byteLength":24,
			"byteOffset":365148
		},
		{
			"buffer":0,
			"byteLength":24,
			"byteOffset":365172
		},
		{
			"buffer":0,
			"byteLength":32,
			"byteOffset":365196
		},
		{
			"buffer":0,
			"byteLength":24,
			"byteOffset":365228
		},
		{
			"buffer":0,
			"byteLength":24,
			"byteOffset":365252
		},
		{
			"buffer":0,
			"byteLength":496,
			"byteOffset":365276
		},
		{
			"buffer":0,
			"byteLength":24,
			"byteOffset":365772
		},
		{
			"buffer":0,
			"byteLength":24,
			"byteOffset":365796
		},
		{
			"buffer":0,
			"byteLength":32,
			"byteOffset":365820
		},
		{
			"buffer":0,
			"byteLength":24,
			"byteOffset":365852
		},
		{
			"buffer":0,
			"byteLength":24,
			"byteOffset":365876
		},
		{
			"buffer":0,
			"byteLength":32,
			"byteOffset":365900
		},
		{
			"buffer":0,
			"byteLength":24,
			"byteOffset":365932
		},
		{
			"buffer":0,
			"byteLength":24,
			"byteOffset":365956
		},
		{
			"buffer":0,
			"byteLength":496,
			"byteOffset":365980
		},
		{
			"buffer":0,
			"byteLength":24,
			"byteOffset":366476
		},
		{
			"buffer":0,
			"byteLength":24,
			"byteOffset":366500
		},
		{
			"buffer":0,
			"byteLength":32,
			"byteOffset":366524
		},
		{
			"buffer":0,
			"byteLength":24,
			"byteOffset":366556
		},
		{
			"buffer":0,
			"byteLength":24,
			"byteOffset":366580
		},
		{
			"buffer":0,
			"byteLength":32,
			"byteOffset":366604
		},
		{
			"buffer":0,
			"byteLength":24,
			"byteOffset":366636
		},
		{
			"buffer":0,
			"byteLength":24,
			"byteOffset":366660
		},
		{
			"buffer":0,
			"byteLength":496,
			"byteOffset":366684
		},
		{
			"buffer":0,
			"byteLength":24,
			"byteOffset":367180
		},
		{
			"buffer":0,
			"byteLength":24,
			"byteOffset":367204
		},
		{
			"buffer":0,
			"byteLength":32,
			"byteOffset":367228
		},
		{
			"buffer":0,
			"byteLength":24,
			"byteOffset":367260
		},
		{
			"buffer":0,
			"byteLength":24,
			"byteOffset":367284
		},
		{
			"buffer":0,
			"byteLength":32,
			"byteOffset":367308
		},
		{
			"buffer":0,
			"byteLength":24,
			"byteOffset":367340
		},
		{
			"buffer":0,
			"byteLength":24,
			"byteOffset":367364
		},
		{
			"buffer":0,
			"byteLength":496,
			"byteOffset":367388
		},
		{
			"buffer":0,
			"byteLength":24,
			"byteOffset":367884
		},
		{
			"buffer":0,
			"byteLength":24,
			"byteOffset":367908
		},
		{
			"buffer":0,
			"byteLength":496,
			"byteOffset":367932
		},
		{
			"buffer":0,
			"byteLength":24,
			"byteOffset":368428
		},
		{
			"buffer":0,
			"byteLength":24,
			"byteOffset":368452
		},
		{
			"buffer":0,
			"byteLength":496,
			"byteOffset":368476
		},
		{
			"buffer":0,
			"byteLength":24,
			"byteOffset":368972
		},
		{
			"buffer":0,
			"byteLength":24,
			"byteOffset":368996
		},
		{
			"buffer":0,
			"byteLength":496,
			"byteOffset":369020
		},
		{
			"buffer":0,
			"byteLength":24,
			"byteOffset":369516
		},
		{
			"buffer":0,
			"byteLength":24,
			"byteOffset":369540
		},
		{
			"buffer":0,
			"byteLength":496,
			"byteOffset":369564
		},
		{
			"buffer":0,
			"byteLength":24,
			"byteOffset":370060
		},
		{
			"buffer":0,
			"byteLength":24,
			"byteOffset":370084
		},
		{
			"buffer":0,
			"byteLength":496,
			"byteOffset":370108
		},
		{
			"buffer":0,
			"byteLength":24,
			"byteOffset":370604
		}
	],
	"samplers":[
		{
			"magFilter":9729,
			"minFilter":9987
		}
	],
	"buffers":[
		{
			"byteLength":370628,
			"uri":"gabiru.bin"
		}
	]
}
