{
	"asset":{
		"generator":"Khronos glTF Blender I/O v4.2.57",
		"version":"2.0"
	},
	"extensionsUsed":[
		"KHR_materials_clearcoat",
		"KHR_materials_sheen"
	],
	"scene":0,
	"scenes":[
		{
			"name":"Scene",
			"nodes":[
				18
			]
		}
	],
	"nodes":[
		{
			"name":"head",
			"translation":[
				0,
				0.09499990940093994,
				0
			]
		},
		{
			"children":[
				0
			],
			"name":"neck",
			"translation":[
				0,
				0.1994999647140503,
				0
			]
		},
		{
			"name":"hand.R",
			"rotation":[
				-0.004436376970261335,
				-0.030710920691490173,
				0.032947003841400146,
				0.9989753365516663
			],
			"scale":[
				1,
				1.0000001192092896,
				1
			],
			"translation":[
				3.888271749019623e-08,
				0.24023887515068054,
				-3.073364496231079e-08
			]
		},
		{
			"children":[
				2
			],
			"name":"forearm.R",
			"rotation":[
				0.041150789707899094,
				-0.07195530831813812,
				0.08387460559606552,
				0.9930227398872375
			],
			"scale":[
				1,
				0.9999998807907104,
				0.9999998211860657
			],
			"translation":[
				-8.847564458847046e-09,
				0.2668178975582123,
				-7.450580596923828e-09
			]
		},
		{
			"children":[
				3
			],
			"name":"upper_arm.R",
			"rotation":[
				-0.9804754853248596,
				-0.1390422135591507,
				-0.13904210925102234,
				0.0015608008252456784
			],
			"scale":[
				1.0000004768371582,
				1,
				0.9999999403953552
			],
			"translation":[
				0.3077999949455261,
				0.15199995040893555,
				0
			]
		},
		{
			"name":"hand.L",
			"rotation":[
				-0.004436376970261335,
				0.030710920691490173,
				-0.032947003841400146,
				0.9989753365516663
			],
			"scale":[
				1,
				1.0000001192092896,
				1
			],
			"translation":[
				-3.888271749019623e-08,
				0.24023887515068054,
				-3.073364496231079e-08
			]
		},
		{
			"children":[
				5
			],
			"name":"forearm.L",
			"rotation":[
				0.041150789707899094,
				0.07195530831813812,
				-0.08387460559606552,
				0.9930227398872375
			],
			"scale":[
				1,
				0.9999998807907104,
				0.9999998211860657
			],
			"translation":[
				8.847564458847046e-09,
				0.2668178975582123,
				-7.450580596923828e-09
			]
		},
		{
			"children":[
				6
			],
			"name":"upper_arm.L",
			"rotation":[
				-0.9804754853248596,
				0.1390422135591507,
				0.13904210925102234,
				0.0015608008252456784
			],
			"scale":[
				1.0000004768371582,
				1,
				0.9999999403953552
			],
			"translation":[
				-0.3077999949455261,
				0.15199995040893555,
				0
			]
		},
		{
			"children":[
				1,
				4,
				7
			],
			"name":"chest",
			"translation":[
				0,
				0.1614999771118164,
				0
			]
		},
		{
			"children":[
				8
			],
			"name":"spine",
			"translation":[
				0,
				0.14250004291534424,
				0
			]
		},
		{
			"name":"foot.R",
			"rotation":[
				0.5914180278778076,
				-3.079167587571874e-09,
				5.25923526950578e-10,
				0.8063651323318481
			],
			"translation":[
				-1.585104547618954e-10,
				0.39006033539772034,
				-5.969269523120602e-10
			]
		},
		{
			"children":[
				10
			],
			"name":"shin.R",
			"rotation":[
				-0.04162056744098663,
				-0.014793490059673786,
				0.014020975679159164,
				0.9989255666732788
			],
			"scale":[
				0.9999998807907104,
				0.9999998807907104,
				1
			],
			"translation":[
				-2.3283064365386963e-09,
				0.38983339071273804,
				-4.656612873077393e-10
			]
		},
		{
			"children":[
				11
			],
			"name":"thigh.R",
			"rotation":[
				-0.9996822476387024,
				-0.014412411488592625,
				-0.01441258192062378,
				0.014834053814411163
			],
			"scale":[
				1.0000003576278687,
				1,
				1.0000003576278687
			],
			"translation":[
				0.13109999895095825,
				-0.018999993801116943,
				0
			]
		},
		{
			"name":"foot.L",
			"rotation":[
				0.5914180278778076,
				3.079167587571874e-09,
				-5.25923526950578e-10,
				0.8063651323318481
			],
			"translation":[
				1.585104547618954e-10,
				0.39006033539772034,
				-5.969269523120602e-10
			]
		},
		{
			"children":[
				13
			],
			"name":"shin.L",
			"rotation":[
				-0.04162056744098663,
				0.014793490059673786,
				-0.014020975679159164,
				0.9989255666732788
			],
			"scale":[
				0.9999998807907104,
				0.9999998807907104,
				1
			],
			"translation":[
				2.3283064365386963e-09,
				0.38983339071273804,
				-4.656612873077393e-10
			]
		},
		{
			"children":[
				14
			],
			"name":"thigh.L",
			"rotation":[
				-0.9996822476387024,
				0.014412411488592625,
				0.01441258192062378,
				0.014834053814411163
			],
			"scale":[
				1.0000003576278687,
				1,
				1.0000003576278687
			],
			"translation":[
				-0.13109999895095825,
				-0.018999993801116943,
				0
			]
		},
		{
			"children":[
				9,
				12,
				15
			],
			"name":"hips",
			"translation":[
				0,
				0.8834999799728394,
				0
			]
		},
		{
			"mesh":0,
			"name":"gazel",
			"skin":0
		},
		{
			"children":[
				17,
				16
			],
			"name":"gazel_rig"
		}
	],
	"animations":[
		{
			"channels":[
				{
					"sampler":0,
					"target":{
						"node":16,
						"path":"translation"
					}
				},
				{
					"sampler":1,
					"target":{
						"node":16,
						"path":"rotation"
					}
				},
				{
					"sampler":2,
					"target":{
						"node":16,
						"path":"scale"
					}
				},
				{
					"sampler":3,
					"target":{
						"node":9,
						"path":"translation"
					}
				},
				{
					"sampler":4,
					"target":{
						"node":9,
						"path":"rotation"
					}
				},
				{
					"sampler":5,
					"target":{
						"node":9,
						"path":"scale"
					}
				},
				{
					"sampler":6,
					"target":{
						"node":8,
						"path":"translation"
					}
				},
				{
					"sampler":7,
					"target":{
						"node":8,
						"path":"rotation"
					}
				},
				{
					"sampler":8,
					"target":{
						"node":8,
						"path":"scale"
					}
				},
				{
					"sampler":9,
					"target":{
						"node":1,
						"path":"translation"
					}
				},
				{
					"sampler":10,
					"target":{
						"node":1,
						"path":"rotation"
					}
				},
				{
					"sampler":11,
					"target":{
						"node":1,
						"path":"scale"
					}
				},
				{
					"sampler":12,
					"target":{
						"node":0,
						"path":"translation"
					}
				},
				{
					"sampler":13,
					"target":{
						"node":0,
						"path":"rotation"
					}
				},
				{
					"sampler":14,
					"target":{
						"node":0,
						"path":"scale"
					}
				},
				{
					"sampler":15,
					"target":{
						"node":4,
						"path":"translation"
					}
				},
				{
					"sampler":16,
					"target":{
						"node":4,
						"path":"rotation"
					}
				},
				{
					"sampler":17,
					"target":{
						"node":4,
						"path":"scale"
					}
				},
				{
					"sampler":18,
					"target":{
						"node":3,
						"path":"translation"
					}
				},
				{
					"sampler":19,
					"target":{
						"node":3,
						"path":"rotation"
					}
				},
				{
					"sampler":20,
					"target":{
						"node":3,
						"path":"scale"
					}
				},
				{
					"sampler":21,
					"target":{
						"node":2,
						"path":"translation"
					}
				},
				{
					"sampler":22,
					"target":{
						"node":2,
						"path":"rotation"
					}
				},
				{
					"sampler":23,
					"target":{
						"node":2,
						"path":"scale"
					}
				},
				{
					"sampler":24,
					"target":{
						"node":7,
						"path":"translation"
					}
				},
				{
					"sampler":25,
					"target":{
						"node":7,
						"path":"rotation"
					}
				},
				{
					"sampler":26,
					"target":{
						"node":7,
						"path":"scale"
					}
				},
				{
					"sampler":27,
					"target":{
						"node":6,
						"path":"translation"
					}
				},
				{
					"sampler":28,
					"target":{
						"node":6,
						"path":"rotation"
					}
				},
				{
					"sampler":29,
					"target":{
						"node":6,
						"path":"scale"
					}
				},
				{
					"sampler":30,
					"target":{
						"node":5,
						"path":"translation"
					}
				},
				{
					"sampler":31,
					"target":{
						"node":5,
						"path":"rotation"
					}
				},
				{
					"sampler":32,
					"target":{
						"node":5,
						"path":"scale"
					}
				},
				{
					"sampler":33,
					"target":{
						"node":12,
						"path":"translation"
					}
				},
				{
					"sampler":34,
					"target":{
						"node":12,
						"path":"rotation"
					}
				},
				{
					"sampler":35,
					"target":{
						"node":12,
						"path":"scale"
					}
				},
				{
					"sampler":36,
					"target":{
						"node":11,
						"path":"translation"
					}
				},
				{
					"sampler":37,
					"target":{
						"node":11,
						"path":"rotation"
					}
				},
				{
					"sampler":38,
					"target":{
						"node":11,
						"path":"scale"
					}
				},
				{
					"sampler":39,
					"target":{
						"node":10,
						"path":"translation"
					}
				},
				{
					"sampler":40,
					"target":{
						"node":10,
						"path":"rotation"
					}
				},
				{
					"sampler":41,
					"target":{
						"node":10,
						"path":"scale"
					}
				},
				{
					"sampler":42,
					"target":{
						"node":15,
						"path":"translation"
					}
				},
				{
					"sampler":43,
					"target":{
						"node":15,
						"path":"rotation"
					}
				},
				{
					"sampler":44,
					"target":{
						"node":15,
						"path":"scale"
					}
				},
				{
					"sampler":45,
					"target":{
						"node":14,
						"path":"translation"
					}
				},
				{
					"sampler":46,
					"target":{
						"node":14,
						"path":"rotation"
					}
				},
				{
					"sampler":47,
					"target":{
						"node":14,
						"path":"scale"
					}
				},
				{
					"sampler":48,
					"target":{
						"node":13,
						"path":"translation"
					}
				},
				{
					"sampler":49,
					"target":{
						"node":13,
						"path":"rotation"
					}
				},
				{
					"sampler":50,
					"target":{
						"node":13,
						"path":"scale"
					}
				}
			],
			"name":"attack",
			"samplers":[
				{
					"input":96,
					"interpolation":"STEP",
					"output":97
				},
				{
					"input":96,
					"interpolation":"STEP",
					"output":98
				},
				{
					"input":96,
					"interpolation":"STEP",
					"output":99
				},
				{
					"input":96,
					"interpolation":"STEP",
					"output":100
				},
				{
					"input":96,
					"interpolation":"STEP",
					"output":101
				},
				{
					"input":96,
					"interpolation":"STEP",
					"output":102
				},
				{
					"input":96,
					"interpolation":"STEP",
					"output":103
				},
				{
					"input":104,
					"interpolation":"LINEAR",
					"output":105
				},
				{
					"input":96,
					"interpolation":"STEP",
					"output":106
				},
				{
					"input":96,
					"interpolation":"STEP",
					"output":107
				},
				{
					"input":96,
					"interpolation":"STEP",
					"output":108
				},
				{
					"input":96,
					"interpolation":"STEP",
					"output":109
				},
				{
					"input":96,
					"interpolation":"STEP",
					"output":110
				},
				{
					"input":96,
					"interpolation":"STEP",
					"output":111
				},
				{
					"input":96,
					"interpolation":"STEP",
					"output":112
				},
				{
					"input":96,
					"interpolation":"STEP",
					"output":113
				},
				{
					"input":104,
					"interpolation":"LINEAR",
					"output":114
				},
				{
					"input":96,
					"interpolation":"STEP",
					"output":115
				},
				{
					"input":96,
					"interpolation":"STEP",
					"output":116
				},
				{
					"input":104,
					"interpolation":"LINEAR",
					"output":117
				},
				{
					"input":96,
					"interpolation":"STEP",
					"output":118
				},
				{
					"input":96,
					"interpolation":"STEP",
					"output":119
				},
				{
					"input":96,
					"interpolation":"STEP",
					"output":120
				},
				{
					"input":96,
					"interpolation":"STEP",
					"output":121
				},
				{
					"input":96,
					"interpolation":"STEP",
					"output":122
				},
				{
					"input":104,
					"interpolation":"LINEAR",
					"output":123
				},
				{
					"input":96,
					"interpolation":"STEP",
					"output":124
				},
				{
					"input":96,
					"interpolation":"STEP",
					"output":125
				},
				{
					"input":96,
					"interpolation":"STEP",
					"output":126
				},
				{
					"input":96,
					"interpolation":"STEP",
					"output":127
				},
				{
					"input":96,
					"interpolation":"STEP",
					"output":128
				},
				{
					"input":96,
					"interpolation":"STEP",
					"output":129
				},
				{
					"input":96,
					"interpolation":"STEP",
					"output":130
				},
				{
					"input":96,
					"interpolation":"STEP",
					"output":131
				},
				{
					"input":104,
					"interpolation":"LINEAR",
					"output":132
				},
				{
					"input":96,
					"interpolation":"STEP",
					"output":133
				},
				{
					"input":96,
					"interpolation":"LINEAR",
					"output":134
				},
				{
					"input":96,
					"interpolation":"LINEAR",
					"output":135
				},
				{
					"input":96,
					"interpolation":"STEP",
					"output":136
				},
				{
					"input":96,
					"interpolation":"LINEAR",
					"output":137
				},
				{
					"input":96,
					"interpolation":"LINEAR",
					"output":138
				},
				{
					"input":96,
					"interpolation":"STEP",
					"output":139
				},
				{
					"input":96,
					"interpolation":"STEP",
					"output":140
				},
				{
					"input":104,
					"interpolation":"LINEAR",
					"output":141
				},
				{
					"input":96,
					"interpolation":"STEP",
					"output":142
				},
				{
					"input":96,
					"interpolation":"LINEAR",
					"output":143
				},
				{
					"input":96,
					"interpolation":"LINEAR",
					"output":144
				},
				{
					"input":96,
					"interpolation":"STEP",
					"output":145
				},
				{
					"input":96,
					"interpolation":"LINEAR",
					"output":146
				},
				{
					"input":96,
					"interpolation":"LINEAR",
					"output":147
				},
				{
					"input":96,
					"interpolation":"STEP",
					"output":148
				}
			]
		},
		{
			"channels":[
				{
					"sampler":0,
					"target":{
						"node":16,
						"path":"translation"
					}
				},
				{
					"sampler":1,
					"target":{
						"node":16,
						"path":"rotation"
					}
				},
				{
					"sampler":2,
					"target":{
						"node":16,
						"path":"scale"
					}
				},
				{
					"sampler":3,
					"target":{
						"node":9,
						"path":"translation"
					}
				},
				{
					"sampler":4,
					"target":{
						"node":9,
						"path":"rotation"
					}
				},
				{
					"sampler":5,
					"target":{
						"node":9,
						"path":"scale"
					}
				},
				{
					"sampler":6,
					"target":{
						"node":8,
						"path":"translation"
					}
				},
				{
					"sampler":7,
					"target":{
						"node":8,
						"path":"rotation"
					}
				},
				{
					"sampler":8,
					"target":{
						"node":8,
						"path":"scale"
					}
				},
				{
					"sampler":9,
					"target":{
						"node":1,
						"path":"translation"
					}
				},
				{
					"sampler":10,
					"target":{
						"node":1,
						"path":"rotation"
					}
				},
				{
					"sampler":11,
					"target":{
						"node":1,
						"path":"scale"
					}
				},
				{
					"sampler":12,
					"target":{
						"node":0,
						"path":"translation"
					}
				},
				{
					"sampler":13,
					"target":{
						"node":0,
						"path":"rotation"
					}
				},
				{
					"sampler":14,
					"target":{
						"node":0,
						"path":"scale"
					}
				},
				{
					"sampler":15,
					"target":{
						"node":4,
						"path":"translation"
					}
				},
				{
					"sampler":16,
					"target":{
						"node":4,
						"path":"rotation"
					}
				},
				{
					"sampler":17,
					"target":{
						"node":4,
						"path":"scale"
					}
				},
				{
					"sampler":18,
					"target":{
						"node":3,
						"path":"translation"
					}
				},
				{
					"sampler":19,
					"target":{
						"node":3,
						"path":"rotation"
					}
				},
				{
					"sampler":20,
					"target":{
						"node":3,
						"path":"scale"
					}
				},
				{
					"sampler":21,
					"target":{
						"node":2,
						"path":"translation"
					}
				},
				{
					"sampler":22,
					"target":{
						"node":2,
						"path":"rotation"
					}
				},
				{
					"sampler":23,
					"target":{
						"node":2,
						"path":"scale"
					}
				},
				{
					"sampler":24,
					"target":{
						"node":7,
						"path":"translation"
					}
				},
				{
					"sampler":25,
					"target":{
						"node":7,
						"path":"rotation"
					}
				},
				{
					"sampler":26,
					"target":{
						"node":7,
						"path":"scale"
					}
				},
				{
					"sampler":27,
					"target":{
						"node":6,
						"path":"translation"
					}
				},
				{
					"sampler":28,
					"target":{
						"node":6,
						"path":"rotation"
					}
				},
				{
					"sampler":29,
					"target":{
						"node":6,
						"path":"scale"
					}
				},
				{
					"sampler":30,
					"target":{
						"node":5,
						"path":"translation"
					}
				},
				{
					"sampler":31,
					"target":{
						"node":5,
						"path":"rotation"
					}
				},
				{
					"sampler":32,
					"target":{
						"node":5,
						"path":"scale"
					}
				},
				{
					"sampler":33,
					"target":{
						"node":12,
						"path":"translation"
					}
				},
				{
					"sampler":34,
					"target":{
						"node":12,
						"path":"rotation"
					}
				},
				{
					"sampler":35,
					"target":{
						"node":12,
						"path":"scale"
					}
				},
				{
					"sampler":36,
					"target":{
						"node":11,
						"path":"translation"
					}
				},
				{
					"sampler":37,
					"target":{
						"node":11,
						"path":"rotation"
					}
				},
				{
					"sampler":38,
					"target":{
						"node":11,
						"path":"scale"
					}
				},
				{
					"sampler":39,
					"target":{
						"node":10,
						"path":"translation"
					}
				},
				{
					"sampler":40,
					"target":{
						"node":10,
						"path":"rotation"
					}
				},
				{
					"sampler":41,
					"target":{
						"node":10,
						"path":"scale"
					}
				},
				{
					"sampler":42,
					"target":{
						"node":15,
						"path":"translation"
					}
				},
				{
					"sampler":43,
					"target":{
						"node":15,
						"path":"rotation"
					}
				},
				{
					"sampler":44,
					"target":{
						"node":15,
						"path":"scale"
					}
				},
				{
					"sampler":45,
					"target":{
						"node":14,
						"path":"translation"
					}
				},
				{
					"sampler":46,
					"target":{
						"node":14,
						"path":"rotation"
					}
				},
				{
					"sampler":47,
					"target":{
						"node":14,
						"path":"scale"
					}
				},
				{
					"sampler":48,
					"target":{
						"node":13,
						"path":"translation"
					}
				},
				{
					"sampler":49,
					"target":{
						"node":13,
						"path":"rotation"
					}
				},
				{
					"sampler":50,
					"target":{
						"node":13,
						"path":"scale"
					}
				}
			],
			"name":"idle",
			"samplers":[
				{
					"input":149,
					"interpolation":"LINEAR",
					"output":150
				},
				{
					"input":151,
					"interpolation":"STEP",
					"output":152
				},
				{
					"input":151,
					"interpolation":"STEP",
					"output":153
				},
				{
					"input":151,
					"interpolation":"STEP",
					"output":154
				},
				{
					"input":151,
					"interpolation":"STEP",
					"output":155
				},
				{
					"input":151,
					"interpolation":"STEP",
					"output":156
				},
				{
					"input":151,
					"interpolation":"STEP",
					"output":157
				},
				{
					"input":149,
					"interpolation":"LINEAR",
					"output":158
				},
				{
					"input":151,
					"interpolation":"STEP",
					"output":159
				},
				{
					"input":151,
					"interpolation":"STEP",
					"output":160
				},
				{
					"input":151,
					"interpolation":"STEP",
					"output":161
				},
				{
					"input":151,
					"interpolation":"STEP",
					"output":162
				},
				{
					"input":151,
					"interpolation":"STEP",
					"output":163
				},
				{
					"input":149,
					"interpolation":"LINEAR",
					"output":164
				},
				{
					"input":151,
					"interpolation":"STEP",
					"output":165
				},
				{
					"input":151,
					"interpolation":"STEP",
					"output":166
				},
				{
					"input":149,
					"interpolation":"LINEAR",
					"output":167
				},
				{
					"input":151,
					"interpolation":"STEP",
					"output":168
				},
				{
					"input":151,
					"interpolation":"STEP",
					"output":169
				},
				{
					"input":151,
					"interpolation":"STEP",
					"output":170
				},
				{
					"input":151,
					"interpolation":"STEP",
					"output":171
				},
				{
					"input":151,
					"interpolation":"STEP",
					"output":172
				},
				{
					"input":151,
					"interpolation":"STEP",
					"output":173
				},
				{
					"input":151,
					"interpolation":"STEP",
					"output":174
				},
				{
					"input":151,
					"interpolation":"STEP",
					"output":175
				},
				{
					"input":149,
					"interpolation":"LINEAR",
					"output":176
				},
				{
					"input":151,
					"interpolation":"STEP",
					"output":177
				},
				{
					"input":151,
					"interpolation":"STEP",
					"output":178
				},
				{
					"input":151,
					"interpolation":"STEP",
					"output":179
				},
				{
					"input":151,
					"interpolation":"STEP",
					"output":180
				},
				{
					"input":151,
					"interpolation":"STEP",
					"output":181
				},
				{
					"input":151,
					"interpolation":"STEP",
					"output":182
				},
				{
					"input":151,
					"interpolation":"STEP",
					"output":183
				},
				{
					"input":151,
					"interpolation":"STEP",
					"output":184
				},
				{
					"input":151,
					"interpolation":"STEP",
					"output":185
				},
				{
					"input":151,
					"interpolation":"STEP",
					"output":186
				},
				{
					"input":151,
					"interpolation":"STEP",
					"output":187
				},
				{
					"input":151,
					"interpolation":"STEP",
					"output":188
				},
				{
					"input":151,
					"interpolation":"STEP",
					"output":189
				},
				{
					"input":151,
					"interpolation":"STEP",
					"output":190
				},
				{
					"input":151,
					"interpolation":"STEP",
					"output":191
				},
				{
					"input":151,
					"interpolation":"STEP",
					"output":192
				},
				{
					"input":151,
					"interpolation":"STEP",
					"output":193
				},
				{
					"input":151,
					"interpolation":"STEP",
					"output":194
				},
				{
					"input":151,
					"interpolation":"STEP",
					"output":195
				},
				{
					"input":151,
					"interpolation":"STEP",
					"output":196
				},
				{
					"input":151,
					"interpolation":"STEP",
					"output":197
				},
				{
					"input":151,
					"interpolation":"STEP",
					"output":198
				},
				{
					"input":151,
					"interpolation":"STEP",
					"output":199
				},
				{
					"input":151,
					"interpolation":"STEP",
					"output":200
				},
				{
					"input":151,
					"interpolation":"STEP",
					"output":201
				}
			]
		},
		{
			"channels":[
				{
					"sampler":0,
					"target":{
						"node":16,
						"path":"translation"
					}
				},
				{
					"sampler":1,
					"target":{
						"node":16,
						"path":"rotation"
					}
				},
				{
					"sampler":2,
					"target":{
						"node":16,
						"path":"scale"
					}
				},
				{
					"sampler":3,
					"target":{
						"node":9,
						"path":"translation"
					}
				},
				{
					"sampler":4,
					"target":{
						"node":9,
						"path":"rotation"
					}
				},
				{
					"sampler":5,
					"target":{
						"node":9,
						"path":"scale"
					}
				},
				{
					"sampler":6,
					"target":{
						"node":8,
						"path":"translation"
					}
				},
				{
					"sampler":7,
					"target":{
						"node":8,
						"path":"rotation"
					}
				},
				{
					"sampler":8,
					"target":{
						"node":8,
						"path":"scale"
					}
				},
				{
					"sampler":9,
					"target":{
						"node":1,
						"path":"translation"
					}
				},
				{
					"sampler":10,
					"target":{
						"node":1,
						"path":"rotation"
					}
				},
				{
					"sampler":11,
					"target":{
						"node":1,
						"path":"scale"
					}
				},
				{
					"sampler":12,
					"target":{
						"node":0,
						"path":"translation"
					}
				},
				{
					"sampler":13,
					"target":{
						"node":0,
						"path":"rotation"
					}
				},
				{
					"sampler":14,
					"target":{
						"node":0,
						"path":"scale"
					}
				},
				{
					"sampler":15,
					"target":{
						"node":4,
						"path":"translation"
					}
				},
				{
					"sampler":16,
					"target":{
						"node":4,
						"path":"rotation"
					}
				},
				{
					"sampler":17,
					"target":{
						"node":4,
						"path":"scale"
					}
				},
				{
					"sampler":18,
					"target":{
						"node":3,
						"path":"translation"
					}
				},
				{
					"sampler":19,
					"target":{
						"node":3,
						"path":"rotation"
					}
				},
				{
					"sampler":20,
					"target":{
						"node":3,
						"path":"scale"
					}
				},
				{
					"sampler":21,
					"target":{
						"node":2,
						"path":"translation"
					}
				},
				{
					"sampler":22,
					"target":{
						"node":2,
						"path":"rotation"
					}
				},
				{
					"sampler":23,
					"target":{
						"node":2,
						"path":"scale"
					}
				},
				{
					"sampler":24,
					"target":{
						"node":7,
						"path":"translation"
					}
				},
				{
					"sampler":25,
					"target":{
						"node":7,
						"path":"rotation"
					}
				},
				{
					"sampler":26,
					"target":{
						"node":7,
						"path":"scale"
					}
				},
				{
					"sampler":27,
					"target":{
						"node":6,
						"path":"translation"
					}
				},
				{
					"sampler":28,
					"target":{
						"node":6,
						"path":"rotation"
					}
				},
				{
					"sampler":29,
					"target":{
						"node":6,
						"path":"scale"
					}
				},
				{
					"sampler":30,
					"target":{
						"node":5,
						"path":"translation"
					}
				},
				{
					"sampler":31,
					"target":{
						"node":5,
						"path":"rotation"
					}
				},
				{
					"sampler":32,
					"target":{
						"node":5,
						"path":"scale"
					}
				},
				{
					"sampler":33,
					"target":{
						"node":12,
						"path":"translation"
					}
				},
				{
					"sampler":34,
					"target":{
						"node":12,
						"path":"rotation"
					}
				},
				{
					"sampler":35,
					"target":{
						"node":12,
						"path":"scale"
					}
				},
				{
					"sampler":36,
					"target":{
						"node":11,
						"path":"translation"
					}
				},
				{
					"sampler":37,
					"target":{
						"node":11,
						"path":"rotation"
					}
				},
				{
					"sampler":38,
					"target":{
						"node":11,
						"path":"scale"
					}
				},
				{
					"sampler":39,
					"target":{
						"node":10,
						"path":"translation"
					}
				},
				{
					"sampler":40,
					"target":{
						"node":10,
						"path":"rotation"
					}
				},
				{
					"sampler":41,
					"target":{
						"node":10,
						"path":"scale"
					}
				},
				{
					"sampler":42,
					"target":{
						"node":15,
						"path":"translation"
					}
				},
				{
					"sampler":43,
					"target":{
						"node":15,
						"path":"rotation"
					}
				},
				{
					"sampler":44,
					"target":{
						"node":15,
						"path":"scale"
					}
				},
				{
					"sampler":45,
					"target":{
						"node":14,
						"path":"translation"
					}
				},
				{
					"sampler":46,
					"target":{
						"node":14,
						"path":"rotation"
					}
				},
				{
					"sampler":47,
					"target":{
						"node":14,
						"path":"scale"
					}
				},
				{
					"sampler":48,
					"target":{
						"node":13,
						"path":"translation"
					}
				},
				{
					"sampler":49,
					"target":{
						"node":13,
						"path":"rotation"
					}
				},
				{
					"sampler":50,
					"target":{
						"node":13,
						"path":"scale"
					}
				}
			],
			"name":"walk",
			"samplers":[
				{
					"input":202,
					"interpolation":"LINEAR",
					"output":203
				},
				{
					"input":202,
					"interpolation":"LINEAR",
					"output":204
				},
				{
					"input":205,
					"interpolation":"STEP",
					"output":206
				},
				{
					"input":205,
					"interpolation":"STEP",
					"output":207
				},
				{
					"input":205,
					"interpolation":"STEP",
					"output":208
				},
				{
					"input":205,
					"interpolation":"STEP",
					"output":209
				},
				{
					"input":205,
					"interpolation":"STEP",
					"output":210
				},
				{
					"input":202,
					"interpolation":"LINEAR",
					"output":211
				},
				{
					"input":205,
					"interpolation":"STEP",
					"output":212
				},
				{
					"input":205,
					"interpolation":"STEP",
					"output":213
				},
				{
					"input":205,
					"interpolation":"STEP",
					"output":214
				},
				{
					"input":205,
					"interpolation":"STEP",
					"output":215
				},
				{
					"input":205,
					"interpolation":"STEP",
					"output":216
				},
				{
					"input":205,
					"interpolation":"STEP",
					"output":217
				},
				{
					"input":205,
					"interpolation":"STEP",
					"output":218
				},
				{
					"input":205,
					"interpolation":"STEP",
					"output":219
				},
				{
					"input":202,
					"interpolation":"LINEAR",
					"output":220
				},
				{
					"input":205,
					"interpolation":"STEP",
					"output":221
				},
				{
					"input":205,
					"interpolation":"STEP",
					"output":222
				},
				{
					"input":205,
					"interpolation":"STEP",
					"output":223
				},
				{
					"input":205,
					"interpolation":"STEP",
					"output":224
				},
				{
					"input":205,
					"interpolation":"STEP",
					"output":225
				},
				{
					"input":205,
					"interpolation":"STEP",
					"output":226
				},
				{
					"input":205,
					"interpolation":"STEP",
					"output":227
				},
				{
					"input":205,
					"interpolation":"STEP",
					"output":228
				},
				{
					"input":202,
					"interpolation":"LINEAR",
					"output":229
				},
				{
					"input":205,
					"interpolation":"STEP",
					"output":230
				},
				{
					"input":205,
					"interpolation":"STEP",
					"output":231
				},
				{
					"input":205,
					"interpolation":"STEP",
					"output":232
				},
				{
					"input":205,
					"interpolation":"STEP",
					"output":233
				},
				{
					"input":205,
					"interpolation":"STEP",
					"output":234
				},
				{
					"input":205,
					"interpolation":"STEP",
					"output":235
				},
				{
					"input":205,
					"interpolation":"STEP",
					"output":236
				},
				{
					"input":205,
					"interpolation":"STEP",
					"output":237
				},
				{
					"input":202,
					"interpolation":"LINEAR",
					"output":238
				},
				{
					"input":205,
					"interpolation":"STEP",
					"output":239
				},
				{
					"input":205,
					"interpolation":"STEP",
					"output":240
				},
				{
					"input":202,
					"interpolation":"LINEAR",
					"output":241
				},
				{
					"input":205,
					"interpolation":"STEP",
					"output":242
				},
				{
					"input":205,
					"interpolation":"STEP",
					"output":243
				},
				{
					"input":202,
					"interpolation":"LINEAR",
					"output":244
				},
				{
					"input":205,
					"interpolation":"STEP",
					"output":245
				},
				{
					"input":205,
					"interpolation":"STEP",
					"output":246
				},
				{
					"input":202,
					"interpolation":"LINEAR",
					"output":247
				},
				{
					"input":205,
					"interpolation":"STEP",
					"output":248
				},
				{
					"input":205,
					"interpolation":"STEP",
					"output":249
				},
				{
					"input":202,
					"interpolation":"LINEAR",
					"output":250
				},
				{
					"input":205,
					"interpolation":"STEP",
					"output":251
				},
				{
					"input":205,
					"interpolation":"STEP",
					"output":252
				},
				{
					"input":202,
					"interpolation":"LINEAR",
					"output":253
				},
				{
					"input":205,
					"interpolation":"STEP",
					"output":254
				}
			]
		}
	],
	"materials":[
		{
			"name":"skin",
			"normalTexture":{
				"index":0,
				"scale":0.4000000059604645
			},
			"pbrMetallicRoughness":{
				"baseColorFactor":[
					0.7874122858047485,
					0.47699978947639465,
					0.31854677200317383,
					1
				],
				"metallicFactor":0,
				"roughnessFactor":0.550000011920929
			}
		},
		{
			"extensions":{
				"KHR_materials_sheen":{
					"sheenColorFactor":[
						1.0,
						1.0,
						1.0
					],
					"sheenRoughnessFactor":0.5
				}
			},
			"name":"hair",
			"normalTexture":{
				"index":1,
				"scale":0.800000011920929
			},
			"pbrMetallicRoughness":{
				"baseColorFactor":[
					0.07323895394802094,
					0.03310476616024971,
					0.010022825561463833,
					1
				],
				"metallicFactor":0,
				"roughnessFactor":0.44999998807907104
			}
		},
		{
			"extensions":{
				"KHR_materials_sheen":{
					"sheenColorFactor":[
						1.0,
						1.0,
						1.0
					],
					"sheenRoughnessFactor":0.5
				}
			},
			"name":"outfit",
			"normalTexture":{
				"index":2,
				"scale":0.6000000238418579
			},
			"pbrMetallicRoughness":{
				"baseColorFactor":[
					0.31854677200317383,
					0.21404114365577698,
					0.01960664801299572,
					1
				],
				"metallicFactor":0,
				"roughnessFactor":0.75
			}
		},
		{
			"name":"outfit2",
			"normalTexture":{
				"index":3,
				"scale":0.4000000059604645
			},
			"pbrMetallicRoughness":{
				"baseColorFactor":[
					0.6038273572921753,
					0.010022825561463833,
					0.010022825561463833,
					1
				],
				"metallicFactor":0,
				"roughnessFactor":0.6000000238418579
			}
		},
		{
			"name":"pants",
			"normalTexture":{
				"index":4,
				"scale":0.6000000238418579
			},
			"pbrMetallicRoughness":{
				"baseColorFactor":[
					0.1473190039396286,
					0.10048151016235352,
					0.010816383175551891,
					1
				],
				"metallicFactor":0,
				"roughnessFactor":0.800000011920929
			}
		},
		{
			"extensions":{
				"KHR_materials_clearcoat":{
					"clearcoatFactor":0.30000001192092896
				}
			},
			"name":"boots",
			"normalTexture":{
				"index":5,
				"scale":0.800000011920929
			},
			"pbrMetallicRoughness":{
				"baseColorFactor":[
					0.0134117491543293,
					0.010022825561463833,
					0.010022825561463833,
					1
				],
				"metallicFactor":0,
				"roughnessFactor":0.44999998807907104
			}
		},
		{
			"name":"eye_white",
			"pbrMetallicRoughness":{
				"baseColorFactor":[
					0.8900054097175598,
					0.8900054097175598,
					0.8900054097175598,
					1
				],
				"metallicFactor":0,
				"roughnessFactor":0.20000000298023224
			}
		},
		{
			"emissiveFactor":[
				0.011763989275256348,
				0.011763989275256348,
				0.019862860485428957
			],
			"name":"iris",
			"pbrMetallicRoughness":{
				"baseColorFactor":[
					0.01960664801299572,
					0.01960664801299572,
					0.03310476616024971,
					1
				],
				"metallicFactor":0,
				"roughnessFactor":0.15000000596046448
			}
		},
		{
			"name":"pupil",
			"pbrMetallicRoughness":{
				"baseColorFactor":[
					0.0015479875728487968,
					0.0015479875728487968,
					0.0023219813592731953,
					1
				],
				"metallicFactor":0,
				"roughnessFactor":0.10000000149011612
			}
		},
		{
			"name":"lips",
			"pbrMetallicRoughness":{
				"baseColorFactor":[
					0.3546920716762543,
					0.21776217222213745,
					0.1473190039396286,
					1
				],
				"metallicFactor":0,
				"roughnessFactor":0.4000000059604645
			}
		},
		{
			"name":"metal",
			"normalTexture":{
				"index":6,
				"scale":0.5
			},
			"pbrMetallicRoughness":{
				"baseColorFactor":[
					0.5225215554237366,
					0.5542217493057251,
					0.6038273572921753,
					1
				],
				"metallicFactor":0.6000000238418579,
				"roughnessFactor":0.30000001192092896
			}
		},
		{
			"doubleSided":true,
			"extensions":{
				"KHR_materials_sheen":{
					"sheenColorFactor":[
						1.0,
						1.0,
						1.0
					],
					"sheenRoughnessFactor":0.5
				}
			},
			"name":"cape",
			"normalTexture":{
				"index":7,
				"scale":0.699999988079071
			},
			"pbrMetallicRoughness":{
				"baseColorFactor":[
					0.31854677200317383,
					0.003935939632356167,
					0.003935939632356167,
					1
				],
				"metallicFactor":0,
				"roughnessFactor":0.75
			}
		},
		{
			"name":"buckle",
			"pbrMetallicRoughness":{
				"baseColorFactor":[
					0.6920710802078247,
					0.4479884207248688,
					0.07323895394802094,
					1
				],
				"metallicFactor":0.8999999761581421,
				"roughnessFactor":0.30000001192092896
			}
		},
		{
			"name":"blade",
			"normalTexture":{
				"index":8,
				"scale":0.30000001192092896
			},
			"pbrMetallicRoughness":{
				"baseColorFactor":[
					0.7484140992164612,
					0.7874122858047485,
					0.8900054097175598,
					1
				],
				"metallicFactor":0.550000011920929,
				"roughnessFactor":0.2199999988079071
			}
		},
		{
			"name":"handle",
			"normalTexture":{
				"index":9,
				"scale":0.6000000238418579
			},
			"pbrMetallicRoughness":{
				"baseColorFactor":[
					0.0134117491543293,
					0.007194409146904945,
					0.004896310158073902,
					1
				],
				"metallicFactor":0,
				"roughnessFactor":0.6000000238418579
			}
		},
		{
			"name":"guard",
			"pbrMetallicRoughness":{
				"baseColorFactor":[
					0.6038273572921753,
					0.38005632162094116,
					0.05087608844041824,
					1
				],
				"metallicFactor":0.8999999761581421,
				"roughnessFactor":0.30000001192092896
			}
		}
	],
	"meshes":[
		{
			"name":"gazel",
			"primitives":[
				{
					"attributes":{
						"POSITION":0,
						"NORMAL":1,
						"TEXCOORD_0":2,
						"JOINTS_0":3,
						"WEIGHTS_0":4
					},
					"indices":5,
					"material":0
				},
				{
					"attributes":{
						"POSITION":6,
						"NORMAL":7,
						"TEXCOORD_0":8,
						"JOINTS_0":9,
						"WEIGHTS_0":10
					},
					"indices":11,
					"material":1
				},
				{
					"attributes":{
						"POSITION":12,
						"NORMAL":13,
						"TEXCOORD_0":14,
						"JOINTS_0":15,
						"WEIGHTS_0":16
					},
					"indices":17,
					"material":2
				},
				{
					"attributes":{
						"POSITION":18,
						"NORMAL":19,
						"TEXCOORD_0":20,
						"JOINTS_0":21,
						"WEIGHTS_0":22
					},
					"indices":23,
					"material":3
				},
				{
					"attributes":{
						"POSITION":24,
						"NORMAL":25,
						"TEXCOORD_0":26,
						"JOINTS_0":27,
						"WEIGHTS_0":28
					},
					"indices":29,
					"material":4
				},
				{
					"attributes":{
						"POSITION":30,
						"NORMAL":31,
						"TEXCOORD_0":32,
						"JOINTS_0":33,
						"WEIGHTS_0":34
					},
					"indices":35,
					"material":5
				},
				{
					"attributes":{
						"POSITION":36,
						"NORMAL":37,
						"TEXCOORD_0":38,
						"JOINTS_0":39,
						"WEIGHTS_0":40
					},
					"indices":41,
					"material":6
				},
				{
					"attributes":{
						"POSITION":42,
						"NORMAL":43,
						"TEXCOORD_0":44,
						"JOINTS_0":45,
						"WEIGHTS_0":46
					},
					"indices":47,
					"material":7
				},
				{
					"attributes":{
						"POSITION":48,
						"NORMAL":49,
						"TEXCOORD_0":50,
						"JOINTS_0":51,
						"WEIGHTS_0":52
					},
					"indices":53,
					"material":8
				},
				{
					"attributes":{
						"POSITION":54,
						"NORMAL":55,
						"TEXCOORD_0":56,
						"JOINTS_0":57,
						"WEIGHTS_0":58
					},
					"indices":59,
					"material":9
				},
				{
					"attributes":{
						"POSITION":60,
						"NORMAL":61,
						"TEXCOORD_0":62,
						"JOINTS_0":63,
						"WEIGHTS_0":64
					},
					"indices":65,
					"material":10
				},
				{
					"attributes":{
						"POSITION":66,
						"NORMAL":67,
						"TEXCOORD_0":68,
						"JOINTS_0":69,
						"WEIGHTS_0":70
					},
					"indices":71,
					"material":11
				},
				{
					"attributes":{
						"POSITION":72,
						"NORMAL":73,
						"TEXCOORD_0":74,
						"JOINTS_0":75,
						"WEIGHTS_0":76
					},
					"indices":77,
					"material":12
				},
				{
					"attributes":{
						"POSITION":78,
						"NORMAL":79,
						"TEXCOORD_0":80,
						"JOINTS_0":81,
						"WEIGHTS_0":82
					},
					"indices":83,
					"material":13
				},
				{
					"attributes":{
						"POSITION":84,
						"NORMAL":85,
						"TEXCOORD_0":86,
						"JOINTS_0":87,
						"WEIGHTS_0":88
					},
					"indices":89,
					"material":14
				},
				{
					"attributes":{
						"POSITION":90,
						"NORMAL":91,
						"TEXCOORD_0":92,
						"JOINTS_0":93,
						"WEIGHTS_0":94
					},
					"indices":77,
					"material":15
				}
			]
		}
	],
	"textures":[
		{
			"sampler":0,
			"source":0
		},
		{
			"sampler":0,
			"source":1
		},
		{
			"sampler":0,
			"source":2
		},
		{
			"sampler":0,
			"source":2
		},
		{
			"sampler":0,
			"source":2
		},
		{
			"sampler":0,
			"source":3
		},
		{
			"sampler":0,
			"source":4
		},
		{
			"sampler":0,
			"source":2
		},
		{
			"sampler":0,
			"source":4
		},
		{
			"sampler":0,
			"source":3
		}
	],
	"images":[
		{
			"mimeType":"image/png",
			"name":"N_skin",
			"uri":"texturas/N_skin.png"
		},
		{
			"mimeType":"image/png",
			"name":"N_hair",
			"uri":"texturas/N_hair.png"
		},
		{
			"mimeType":"image/png",
			"name":"N_cloth",
			"uri":"texturas/N_cloth.png"
		},
		{
			"mimeType":"image/png",
			"name":"N_leather",
			"uri":"texturas/N_leather.png"
		},
		{
			"mimeType":"image/png",
			"name":"N_metal",
			"uri":"texturas/N_metal.png"
		}
	],
	"skins":[
		{
			"inverseBindMatrices":95,
			"joints":[
				16,
				9,
				8,
				1,
				0,
				4,
				3,
				2,
				7,
				6,
				5,
				12,
				11,
				10,
				15,
				14,
				13
			],
			"name":"gazel_rig"
		}
	],
	"accessors":[
		{
			"bufferView":0,
			"componentType":5126,
			"count":985,
			"max":[
				0.1470096856355667,
				1.6947999000549316,
				0.1018519327044487
			],
			"min":[
				-0.1470096856355667,
				1.392975926399231,
				-0.11027289181947708
			],
			"type":"VEC3"
		},
		{
			"bufferView":1,
			"componentType":5126,
			"count":985,
			"type":"VEC3"
		},
		{
			"bufferView":2,
			"componentType":5126,
			"count":985,
			"type":"VEC2"
		},
		{
			"bufferView":3,
			"componentType":5121,
			"count":985,
			"type":"VEC4"
		},
		{
			"bufferView":4,
			"componentType":5126,
			"count":985,
			"type":"VEC4"
		},
		{
			"bufferView":5,
			"componentType":5123,
			"count":3984,
			"type":"SCALAR"
		},
		{
			"bufferView":6,
			"componentType":5126,
			"count":3843,
			"max":[
				0.11363326013088226,
				1.7197821140289307,
				0.13093358278274536
			],
			"min":[
				-0.11129222065210342,
				1.3876492977142334,
				-0.11139116436243057
			],
			"type":"VEC3"
		},
		{
			"bufferView":7,
			"componentType":5126,
			"count":3843,
			"type":"VEC3"
		},
		{
			"bufferView":8,
			"componentType":5126,
			"count":3843,
			"type":"VEC2"
		},
		{
			"bufferView":9,
			"componentType":5121,
			"count":3843,
			"type":"VEC4"
		},
		{
			"bufferView":10,
			"componentType":5126,
			"count":3843,
			"type":"VEC4"
		},
		{
			"bufferView":11,
			"componentType":5123,
			"count":11568,
			"type":"SCALAR"
		},
		{
			"bufferView":12,
			"componentType":5126,
			"count":1080,
			"max":[
				0.44479134678840637,
				1.396068811416626,
				0.19392338395118713
			],
			"min":[
				-0.44479134678840637,
				0.8794897794723511,
				-0.19553084671497345
			],
			"type":"VEC3"
		},
		{
			"bufferView":13,
			"componentType":5126,
			"count":1080,
			"type":"VEC3"
		},
		{
			"bufferView":14,
			"componentType":5126,
			"count":1080,
			"type":"VEC2"
		},
		{
			"bufferView":15,
			"componentType":5121,
			"count":1080,
			"type":"VEC4"
		},
		{
			"bufferView":16,
			"componentType":5126,
			"count":1080,
			"type":"VEC4"
		},
		{
			"bufferView":17,
			"componentType":5123,
			"count":4848,
			"type":"SCALAR"
		},
		{
			"bufferView":18,
			"componentType":5126,
			"count":60,
			"max":[
				0.1933669149875641,
				0.9622141122817993,
				0.19985131919384003
			],
			"min":[
				-0.19336692988872528,
				0.8343477845191956,
				-0.20112621784210205
			],
			"type":"VEC3"
		},
		{
			"bufferView":19,
			"componentType":5126,
			"count":60,
			"type":"VEC3"
		},
		{
			"bufferView":20,
			"componentType":5126,
			"count":60,
			"type":"VEC2"
		},
		{
			"bufferView":21,
			"componentType":5121,
			"count":60,
			"type":"VEC4"
		},
		{
			"bufferView":22,
			"componentType":5126,
			"count":60,
			"type":"VEC4"
		},
		{
			"bufferView":23,
			"componentType":5123,
			"count":168,
			"type":"SCALAR"
		},
		{
			"bufferView":24,
			"componentType":5126,
			"count":675,
			"max":[
				0.43886247277259827,
				0.902079164981842,
				0.19884873926639557
			],
			"min":[
				-0.4388624429702759,
				0.2766532301902771,
				-0.20025424659252167
			],
			"type":"VEC3"
		},
		{
			"bufferView":25,
			"componentType":5126,
			"count":675,
			"type":"VEC3"
		},
		{
			"bufferView":26,
			"componentType":5126,
			"count":675,
			"type":"VEC2"
		},
		{
			"bufferView":27,
			"componentType":5121,
			"count":675,
			"type":"VEC4"
		},
		{
			"bufferView":28,
			"componentType":5126,
			"count":675,
			"type":"VEC4"
		},
		{
			"bufferView":29,
			"componentType":5123,
			"count":2808,
			"type":"SCALAR"
		},
		{
			"bufferView":30,
			"componentType":5126,
			"count":1332,
			"max":[
				0.4365265667438507,
				0.8618913888931274,
				0.08929303288459778
			],
			"min":[
				-0.4365265667438507,
				0.007223861292004585,
				-0.13311320543289185
			],
			"type":"VEC3"
		},
		{
			"bufferView":31,
			"componentType":5126,
			"count":1332,
			"type":"VEC3"
		},
		{
			"bufferView":32,
			"componentType":5126,
			"count":1332,
			"type":"VEC2"
		},
		{
			"bufferView":33,
			"componentType":5121,
			"count":1332,
			"type":"VEC4"
		},
		{
			"bufferView":34,
			"componentType":5126,
			"count":1332,
			"type":"VEC4"
		},
		{
			"bufferView":35,
			"componentType":5123,
			"count":5760,
			"type":"SCALAR"
		},
		{
			"bufferView":36,
			"componentType":5126,
			"count":304,
			"max":[
				0.04844999685883522,
				1.6021748781204224,
				-0.06650000065565109
			],
			"min":[
				-0.04844999685883522,
				1.5803248882293701,
				-0.0835999995470047
			],
			"type":"VEC3"
		},
		{
			"bufferView":37,
			"componentType":5126,
			"count":304,
			"type":"VEC3"
		},
		{
			"bufferView":38,
			"componentType":5126,
			"count":304,
			"type":"VEC2"
		},
		{
			"bufferView":39,
			"componentType":5121,
			"count":304,
			"type":"VEC4"
		},
		{
			"bufferView":40,
			"componentType":5126,
			"count":304,
			"type":"VEC4"
		},
		{
			"bufferView":41,
			"componentType":5123,
			"count":1152,
			"type":"SCALAR"
		},
		{
			"bufferView":42,
			"componentType":5126,
			"count":220,
			"max":[
				0.04132499918341637,
				1.600559949874878,
				-0.07715923339128494
			],
			"min":[
				-0.04132499918341637,
				1.581939935684204,
				-0.08529076725244522
			],
			"type":"VEC3"
		},
		{
			"bufferView":43,
			"componentType":5126,
			"count":220,
			"type":"VEC3"
		},
		{
			"bufferView":44,
			"componentType":5126,
			"count":220,
			"type":"VEC2"
		},
		{
			"bufferView":45,
			"componentType":5121,
			"count":220,
			"type":"VEC4"
		},
		{
			"bufferView":46,
			"componentType":5126,
			"count":220,
			"type":"VEC4"
		},
		{
			"bufferView":47,
			"componentType":5123,
			"count":720,
			"type":"SCALAR"
		},
		{
			"bufferView":48,
			"componentType":5126,
			"count":160,
			"max":[
				0.03609471395611763,
				1.5955249071121216,
				-0.08255299180746078
			],
			"min":[
				-0.03609471395611763,
				1.5869749784469604,
				-0.08616700768470764
			],
			"type":"VEC3"
		},
		{
			"bufferView":49,
			"componentType":5126,
			"count":160,
			"type":"VEC3"
		},
		{
			"bufferView":50,
			"componentType":5126,
			"count":160,
			"type":"VEC2"
		},
		{
			"bufferView":51,
			"componentType":5121,
			"count":160,
			"type":"VEC4"
		},
		{
			"bufferView":52,
			"componentType":5126,
			"count":160,
			"type":"VEC4"
		},
		{
			"bufferView":53,
			"componentType":5123,
			"count":480,
			"type":"SCALAR"
		},
		{
			"bufferView":54,
			"componentType":5126,
			"count":98,
			"max":[
				0.018050000071525574,
				1.5271248817443848,
				-0.07383423298597336
			],
			"min":[
				-0.018050000071525574,
				1.5185749530792236,
				-0.08196576684713364
			],
			"type":"VEC3"
		},
		{
			"bufferView":55,
			"componentType":5126,
			"count":98,
			"type":"VEC3"
		},
		{
			"bufferView":56,
			"componentType":5126,
			"count":98,
			"type":"VEC2"
		},
		{
			"bufferView":57,
			"componentType":5121,
			"count":98,
			"type":"VEC4"
		},
		{
			"bufferView":58,
			"componentType":5126,
			"count":98,
			"type":"VEC4"
		},
		{
			"bufferView":59,
			"componentType":5123,
			"count":360,
			"type":"SCALAR"
		},
		{
			"bufferView":60,
			"componentType":5126,
			"count":610,
			"max":[
				0.3837999999523163,
				1.406000018119812,
				0.06946361809968948
			],
			"min":[
				-0.3837999999523163,
				1.0544999837875366,
				-0.1220567375421524
			],
			"type":"VEC3"
		},
		{
			"bufferView":61,
			"componentType":5126,
			"count":610,
			"type":"VEC3"
		},
		{
			"bufferView":62,
			"componentType":5126,
			"count":610,
			"type":"VEC2"
		},
		{
			"bufferView":63,
			"componentType":5121,
			"count":610,
			"type":"VEC4"
		},
		{
			"bufferView":64,
			"componentType":5126,
			"count":610,
			"type":"VEC4"
		},
		{
			"bufferView":65,
			"componentType":5123,
			"count":2424,
			"type":"SCALAR"
		},
		{
			"bufferView":66,
			"componentType":5126,
			"count":56,
			"max":[
				0.49248000979423523,
				1.3680000305175781,
				0.3461799919605255
			],
			"min":[
				-0.49248000979423523,
				0.4179999828338623,
				0.20367999374866486
			],
			"type":"VEC3"
		},
		{
			"bufferView":67,
			"componentType":5126,
			"count":56,
			"type":"VEC3"
		},
		{
			"bufferView":68,
			"componentType":5126,
			"count":56,
			"type":"VEC2"
		},
		{
			"bufferView":69,
			"componentType":5121,
			"count":56,
			"type":"VEC4"
		},
		{
			"bufferView":70,
			"componentType":5126,
			"count":56,
			"type":"VEC4"
		},
		{
			"bufferView":71,
			"componentType":5123,
			"count":252,
			"type":"SCALAR"
		},
		{
			"bufferView":72,
			"componentType":5126,
			"count":24,
			"max":[
				0.023749999701976776,
				0.921500027179718,
				-0.13442499935626984
			],
			"min":[
				-0.023749999701976776,
				0.8834999799728394,
				-0.14582499861717224
			],
			"type":"VEC3"
		},
		{
			"bufferView":73,
			"componentType":5126,
			"count":24,
			"type":"VEC3"
		},
		{
			"bufferView":74,
			"componentType":5126,
			"count":24,
			"type":"VEC2"
		},
		{
			"bufferView":75,
			"componentType":5121,
			"count":24,
			"type":"VEC4"
		},
		{
			"bufferView":76,
			"componentType":5126,
			"count":24,
			"type":"VEC4"
		},
		{
			"bufferView":77,
			"componentType":5123,
			"count":36,
			"type":"SCALAR"
		},
		{
			"bufferView":78,
			"componentType":5126,
			"count":108,
			"max":[
				0.4248400032520294,
				0.748304545879364,
				-0.08428448438644409
			],
			"min":[
				0.41343995928764343,
				0.40640926361083984,
				-0.8095071911811829
			],
			"type":"VEC3"
		},
		{
			"bufferView":79,
			"componentType":5126,
			"count":108,
			"type":"VEC3"
		},
		{
			"bufferView":80,
			"componentType":5126,
			"count":108,
			"type":"VEC2"
		},
		{
			"bufferView":81,
			"componentType":5121,
			"count":108,
			"type":"VEC4"
		},
		{
			"bufferView":82,
			"componentType":5126,
			"count":108,
			"type":"VEC4"
		},
		{
			"bufferView":83,
			"componentType":5123,
			"count":156,
			"type":"SCALAR"
		},
		{
			"bufferView":84,
			"componentType":5126,
			"count":42,
			"max":[
				0.4343400001525879,
				0.8128458261489868,
				0.06912008672952652
			],
			"min":[
				0.40393999218940735,
				0.7227479219436646,
				-0.0819670706987381
			],
			"type":"VEC3"
		},
		{
			"bufferView":85,
			"componentType":5126,
			"count":42,
			"type":"VEC3"
		},
		{
			"bufferView":86,
			"componentType":5126,
			"count":42,
			"type":"VEC2"
		},
		{
			"bufferView":87,
			"componentType":5121,
			"count":42,
			"type":"VEC4"
		},
		{
			"bufferView":88,
			"componentType":5126,
			"count":42,
			"type":"VEC4"
		},
		{
			"bufferView":89,
			"componentType":5123,
			"count":96,
			"type":"SCALAR"
		},
		{
			"bufferView":90,
			"componentType":5126,
			"count":24,
			"max":[
				0.5141399502754211,
				0.7469606995582581,
				-0.0725177749991417
			],
			"min":[
				0.3241399824619293,
				0.718460738658905,
				-0.09626777470111847
			],
			"type":"VEC3"
		},
		{
			"bufferView":91,
			"componentType":5126,
			"count":24,
			"type":"VEC3"
		},
		{
			"bufferView":92,
			"componentType":5126,
			"count":24,
			"type":"VEC2"
		},
		{
			"bufferView":93,
			"componentType":5121,
			"count":24,
			"type":"VEC4"
		},
		{
			"bufferView":94,
			"componentType":5126,
			"count":24,
			"type":"VEC4"
		},
		{
			"bufferView":95,
			"componentType":5126,
			"count":17,
			"type":"MAT4"
		},
		{
			"bufferView":96,
			"componentType":5126,
			"count":2,
			"max":[
				0.6
			],
			"min":[
				0
			],
			"type":"SCALAR"
		},
		{
			"bufferView":97,
			"componentType":5126,
			"count":2,
			"type":"VEC3"
		},
		{
			"bufferView":98,
			"componentType":5126,
			"count":2,
			"type":"VEC4"
		},
		{
			"bufferView":99,
			"componentType":5126,
			"count":2,
			"type":"VEC3"
		},
		{
			"bufferView":100,
			"componentType":5126,
			"count":2,
			"type":"VEC3"
		},
		{
			"bufferView":101,
			"componentType":5126,
			"count":2,
			"type":"VEC4"
		},
		{
			"bufferView":102,
			"componentType":5126,
			"count":2,
			"type":"VEC3"
		},
		{
			"bufferView":103,
			"componentType":5126,
			"count":2,
			"type":"VEC3"
		},
		{
			"bufferView":104,
			"componentType":5126,
			"count":19,
			"max":[
				0.6
			],
			"min":[
				0
			],
			"type":"SCALAR"
		},
		{
			"bufferView":105,
			"componentType":5126,
			"count":19,
			"type":"VEC4"
		},
		{
			"bufferView":106,
			"componentType":5126,
			"count":2,
			"type":"VEC3"
		},
		{
			"bufferView":107,
			"componentType":5126,
			"count":2,
			"type":"VEC3"
		},
		{
			"bufferView":108,
			"componentType":5126,
			"count":2,
			"type":"VEC4"
		},
		{
			"bufferView":109,
			"componentType":5126,
			"count":2,
			"type":"VEC3"
		},
		{
			"bufferView":110,
			"componentType":5126,
			"count":2,
			"type":"VEC3"
		},
		{
			"bufferView":111,
			"componentType":5126,
			"count":2,
			"type":"VEC4"
		},
		{
			"bufferView":112,
			"componentType":5126,
			"count":2,
			"type":"VEC3"
		},
		{
			"bufferView":113,
			"componentType":5126,
			"count":2,
			"type":"VEC3"
		},
		{
			"bufferView":114,
			"componentType":5126,
			"count":19,
			"type":"VEC4"
		},
		{
			"bufferView":115,
			"componentType":5126,
			"count":2,
			"type":"VEC3"
		},
		{
			"bufferView":116,
			"componentType":5126,
			"count":2,
			"type":"VEC3"
		},
		{
			"bufferView":117,
			"componentType":5126,
			"count":19,
			"type":"VEC4"
		},
		{
			"bufferView":118,
			"componentType":5126,
			"count":2,
			"type":"VEC3"
		},
		{
			"bufferView":119,
			"componentType":5126,
			"count":2,
			"type":"VEC3"
		},
		{
			"bufferView":120,
			"componentType":5126,
			"count":2,
			"type":"VEC4"
		},
		{
			"bufferView":121,
			"componentType":5126,
			"count":2,
			"type":"VEC3"
		},
		{
			"bufferView":122,
			"componentType":5126,
			"count":2,
			"type":"VEC3"
		},
		{
			"bufferView":123,
			"componentType":5126,
			"count":19,
			"type":"VEC4"
		},
		{
			"bufferView":124,
			"componentType":5126,
			"count":2,
			"type":"VEC3"
		},
		{
			"bufferView":125,
			"componentType":5126,
			"count":2,
			"type":"VEC3"
		},
		{
			"bufferView":126,
			"componentType":5126,
			"count":2,
			"type":"VEC4"
		},
		{
			"bufferView":127,
			"componentType":5126,
			"count":2,
			"type":"VEC3"
		},
		{
			"bufferView":128,
			"componentType":5126,
			"count":2,
			"type":"VEC3"
		},
		{
			"bufferView":129,
			"componentType":5126,
			"count":2,
			"type":"VEC4"
		},
		{
			"bufferView":130,
			"componentType":5126,
			"count":2,
			"type":"VEC3"
		},
		{
			"bufferView":131,
			"componentType":5126,
			"count":2,
			"type":"VEC3"
		},
		{
			"bufferView":132,
			"componentType":5126,
			"count":19,
			"type":"VEC4"
		},
		{
			"bufferView":133,
			"componentType":5126,
			"count":2,
			"type":"VEC3"
		},
		{
			"bufferView":134,
			"componentType":5126,
			"count":2,
			"type":"VEC3"
		},
		{
			"bufferView":135,
			"componentType":5126,
			"count":2,
			"type":"VEC4"
		},
		{
			"bufferView":136,
			"componentType":5126,
			"count":2,
			"type":"VEC3"
		},
		{
			"bufferView":137,
			"componentType":5126,
			"count":2,
			"type":"VEC3"
		},
		{
			"bufferView":138,
			"componentType":5126,
			"count":2,
			"type":"VEC4"
		},
		{
			"bufferView":139,
			"componentType":5126,
			"count":2,
			"type":"VEC3"
		},
		{
			"bufferView":140,
			"componentType":5126,
			"count":2,
			"type":"VEC3"
		},
		{
			"bufferView":141,
			"componentType":5126,
			"count":19,
			"type":"VEC4"
		},
		{
			"bufferView":142,
			"componentType":5126,
			"count":2,
			"type":"VEC3"
		},
		{
			"bufferView":143,
			"componentType":5126,
			"count":2,
			"type":"VEC3"
		},
		{
			"bufferView":144,
			"componentType":5126,
			"count":2,
			"type":"VEC4"
		},
		{
			"bufferView":145,
			"componentType":5126,
			"count":2,
			"type":"VEC3"
		},
		{
			"bufferView":146,
			"componentType":5126,
			"count":2,
			"type":"VEC3"
		},
		{
			"bufferView":147,
			"componentType":5126,
			"count":2,
			"type":"VEC4"
		},
		{
			"bufferView":148,
			"componentType":5126,
			"count":2,
			"type":"VEC3"
		},
		{
			"bufferView":149,
			"componentType":5126,
			"count":61,
			"max":[
				2
			],
			"min":[
				0
			],
			"type":"SCALAR"
		},
		{
			"bufferView":150,
			"componentType":5126,
			"count":61,
			"type":"VEC3"
		},
		{
			"bufferView":151,
			"componentType":5126,
			"count":2,
			"max":[
				2
			],
			"min":[
				0
			],
			"type":"SCALAR"
		},
		{
			"bufferView":152,
			"componentType":5126,
			"count":2,
			"type":"VEC4"
		},
		{
			"bufferView":153,
			"componentType":5126,
			"count":2,
			"type":"VEC3"
		},
		{
			"bufferView":154,
			"componentType":5126,
			"count":2,
			"type":"VEC3"
		},
		{
			"bufferView":155,
			"componentType":5126,
			"count":2,
			"type":"VEC4"
		},
		{
			"bufferView":156,
			"componentType":5126,
			"count":2,
			"type":"VEC3"
		},
		{
			"bufferView":157,
			"componentType":5126,
			"count":2,
			"type":"VEC3"
		},
		{
			"bufferView":158,
			"componentType":5126,
			"count":61,
			"type":"VEC4"
		},
		{
			"bufferView":159,
			"componentType":5126,
			"count":2,
			"type":"VEC3"
		},
		{
			"bufferView":160,
			"componentType":5126,
			"count":2,
			"type":"VEC3"
		},
		{
			"bufferView":161,
			"componentType":5126,
			"count":2,
			"type":"VEC4"
		},
		{
			"bufferView":162,
			"componentType":5126,
			"count":2,
			"type":"VEC3"
		},
		{
			"bufferView":163,
			"componentType":5126,
			"count":2,
			"type":"VEC3"
		},
		{
			"bufferView":164,
			"componentType":5126,
			"count":61,
			"type":"VEC4"
		},
		{
			"bufferView":165,
			"componentType":5126,
			"count":2,
			"type":"VEC3"
		},
		{
			"bufferView":166,
			"componentType":5126,
			"count":2,
			"type":"VEC3"
		},
		{
			"bufferView":167,
			"componentType":5126,
			"count":61,
			"type":"VEC4"
		},
		{
			"bufferView":168,
			"componentType":5126,
			"count":2,
			"type":"VEC3"
		},
		{
			"bufferView":169,
			"componentType":5126,
			"count":2,
			"type":"VEC3"
		},
		{
			"bufferView":170,
			"componentType":5126,
			"count":2,
			"type":"VEC4"
		},
		{
			"bufferView":171,
			"componentType":5126,
			"count":2,
			"type":"VEC3"
		},
		{
			"bufferView":172,
			"componentType":5126,
			"count":2,
			"type":"VEC3"
		},
		{
			"bufferView":173,
			"componentType":5126,
			"count":2,
			"type":"VEC4"
		},
		{
			"bufferView":174,
			"componentType":5126,
			"count":2,
			"type":"VEC3"
		},
		{
			"bufferView":175,
			"componentType":5126,
			"count":2,
			"type":"VEC3"
		},
		{
			"bufferView":176,
			"componentType":5126,
			"count":61,
			"type":"VEC4"
		},
		{
			"bufferView":177,
			"componentType":5126,
			"count":2,
			"type":"VEC3"
		},
		{
			"bufferView":178,
			"componentType":5126,
			"count":2,
			"type":"VEC3"
		},
		{
			"bufferView":179,
			"componentType":5126,
			"count":2,
			"type":"VEC4"
		},
		{
			"bufferView":180,
			"componentType":5126,
			"count":2,
			"type":"VEC3"
		},
		{
			"bufferView":181,
			"componentType":5126,
			"count":2,
			"type":"VEC3"
		},
		{
			"bufferView":182,
			"componentType":5126,
			"count":2,
			"type":"VEC4"
		},
		{
			"bufferView":183,
			"componentType":5126,
			"count":2,
			"type":"VEC3"
		},
		{
			"bufferView":184,
			"componentType":5126,
			"count":2,
			"type":"VEC3"
		},
		{
			"bufferView":185,
			"componentType":5126,
			"count":2,
			"type":"VEC4"
		},
		{
			"bufferView":186,
			"componentType":5126,
			"count":2,
			"type":"VEC3"
		},
		{
			"bufferView":187,
			"componentType":5126,
			"count":2,
			"type":"VEC3"
		},
		{
			"bufferView":188,
			"componentType":5126,
			"count":2,
			"type":"VEC4"
		},
		{
			"bufferView":189,
			"componentType":5126,
			"count":2,
			"type":"VEC3"
		},
		{
			"bufferView":190,
			"componentType":5126,
			"count":2,
			"type":"VEC3"
		},
		{
			"bufferView":191,
			"componentType":5126,
			"count":2,
			"type":"VEC4"
		},
		{
			"bufferView":192,
			"componentType":5126,
			"count":2,
			"type":"VEC3"
		},
		{
			"bufferView":193,
			"componentType":5126,
			"count":2,
			"type":"VEC3"
		},
		{
			"bufferView":194,
			"componentType":5126,
			"count":2,
			"type":"VEC4"
		},
		{
			"bufferView":195,
			"componentType":5126,
			"count":2,
			"type":"VEC3"
		},
		{
			"bufferView":196,
			"componentType":5126,
			"count":2,
			"type":"VEC3"
		},
		{
			"bufferView":197,
			"componentType":5126,
			"count":2,
			"type":"VEC4"
		},
		{
			"bufferView":198,
			"componentType":5126,
			"count":2,
			"type":"VEC3"
		},
		{
			"bufferView":199,
			"componentType":5126,
			"count":2,
			"type":"VEC3"
		},
		{
			"bufferView":200,
			"componentType":5126,
			"count":2,
			"type":"VEC4"
		},
		{
			"bufferView":201,
			"componentType":5126,
			"count":2,
			"type":"VEC3"
		},
		{
			"bufferView":202,
			"componentType":5126,
			"count":31,
			"max":[
				1
			],
			"min":[
				0
			],
			"type":"SCALAR"
		},
		{
			"bufferView":203,
			"componentType":5126,
			"count":31,
			"type":"VEC3"
		},
		{
			"bufferView":204,
			"componentType":5126,
			"count":31,
			"type":"VEC4"
		},
		{
			"bufferView":205,
			"componentType":5126,
			"count":2,
			"max":[
				1
			],
			"min":[
				0
			],
			"type":"SCALAR"
		},
		{
			"bufferView":206,
			"componentType":5126,
			"count":2,
			"type":"VEC3"
		},
		{
			"bufferView":207,
			"componentType":5126,
			"count":2,
			"type":"VEC3"
		},
		{
			"bufferView":208,
			"componentType":5126,
			"count":2,
			"type":"VEC4"
		},
		{
			"bufferView":209,
			"componentType":5126,
			"count":2,
			"type":"VEC3"
		},
		{
			"bufferView":210,
			"componentType":5126,
			"count":2,
			"type":"VEC3"
		},
		{
			"bufferView":211,
			"componentType":5126,
			"count":31,
			"type":"VEC4"
		},
		{
			"bufferView":212,
			"componentType":5126,
			"count":2,
			"type":"VEC3"
		},
		{
			"bufferView":213,
			"componentType":5126,
			"count":2,
			"type":"VEC3"
		},
		{
			"bufferView":214,
			"componentType":5126,
			"count":2,
			"type":"VEC4"
		},
		{
			"bufferView":215,
			"componentType":5126,
			"count":2,
			"type":"VEC3"
		},
		{
			"bufferView":216,
			"componentType":5126,
			"count":2,
			"type":"VEC3"
		},
		{
			"bufferView":217,
			"componentType":5126,
			"count":2,
			"type":"VEC4"
		},
		{
			"bufferView":218,
			"componentType":5126,
			"count":2,
			"type":"VEC3"
		},
		{
			"bufferView":219,
			"componentType":5126,
			"count":2,
			"type":"VEC3"
		},
		{
			"bufferView":220,
			"componentType":5126,
			"count":31,
			"type":"VEC4"
		},
		{
			"bufferView":221,
			"componentType":5126,
			"count":2,
			"type":"VEC3"
		},
		{
			"bufferView":222,
			"componentType":5126,
			"count":2,
			"type":"VEC3"
		},
		{
			"bufferView":223,
			"componentType":5126,
			"count":2,
			"type":"VEC4"
		},
		{
			"bufferView":224,
			"componentType":5126,
			"count":2,
			"type":"VEC3"
		},
		{
			"bufferView":225,
			"componentType":5126,
			"count":2,
			"type":"VEC3"
		},
		{
			"bufferView":226,
			"componentType":5126,
			"count":2,
			"type":"VEC4"
		},
		{
			"bufferView":227,
			"componentType":5126,
			"count":2,
			"type":"VEC3"
		},
		{
			"bufferView":228,
			"componentType":5126,
			"count":2,
			"type":"VEC3"
		},
		{
			"bufferView":229,
			"componentType":5126,
			"count":31,
			"type":"VEC4"
		},
		{
			"bufferView":230,
			"componentType":5126,
			"count":2,
			"type":"VEC3"
		},
		{
			"bufferView":231,
			"componentType":5126,
			"count":2,
			"type":"VEC3"
		},
		{
			"bufferView":232,
			"componentType":5126,
			"count":2,
			"type":"VEC4"
		},
		{
			"bufferView":233,
			"componentType":5126,
			"count":2,
			"type":"VEC3"
		},
		{
			"bufferView":234,
			"componentType":5126,
			"count":2,
			"type":"VEC3"
		},
		{
			"bufferView":235,
			"componentType":5126,
			"count":2,
			"type":"VEC4"
		},
		{
			"bufferView":236,
			"componentType":5126,
			"count":2,
			"type":"VEC3"
		},
		{
			"bufferView":237,
			"componentType":5126,
			"count":2,
			"type":"VEC3"
		},
		{
			"bufferView":238,
			"componentType":5126,
			"count":31,
			"type":"VEC4"
		},
		{
			"bufferView":239,
			"componentType":5126,
			"count":2,
			"type":"VEC3"
		},
		{
			"bufferView":240,
			"componentType":5126,
			"count":2,
			"type":"VEC3"
		},
		{
			"bufferView":241,
			"componentType":5126,
			"count":31,
			"type":"VEC4"
		},
		{
			"bufferView":242,
			"componentType":5126,
			"count":2,
			"type":"VEC3"
		},
		{
			"bufferView":243,
			"componentType":5126,
			"count":2,
			"type":"VEC3"
		},
		{
			"bufferView":244,
			"componentType":5126,
			"count":31,
			"type":"VEC4"
		},
		{
			"bufferView":245,
			"componentType":5126,
			"count":2,
			"type":"VEC3"
		},
		{
			"bufferView":246,
			"componentType":5126,
			"count":2,
			"type":"VEC3"
		},
		{
			"bufferView":247,
			"componentType":5126,
			"count":31,
			"type":"VEC4"
		},
		{
			"bufferView":248,
			"componentType":5126,
			"count":2,
			"type":"VEC3"
		},
		{
			"bufferView":249,
			"componentType":5126,
			"count":2,
			"type":"VEC3"
		},
		{
			"bufferView":250,
			"componentType":5126,
			"count":31,
			"type":"VEC4"
		},
		{
			"bufferView":251,
			"componentType":5126,
			"count":2,
			"type":"VEC3"
		},
		{
			"bufferView":252,
			"componentType":5126,
			"count":2,
			"type":"VEC3"
		},
		{
			"bufferView":253,
			"componentType":5126,
			"count":31,
			"type":"VEC4"
		},
		{
			"bufferView":254,
			"componentType":5126,
			"count":2,
			"type":"VEC3"
		}
	],
	"bufferViews":[
		{
			"buffer":0,
			"byteLength":11820,
			"byteOffset":0,
			"target":34962
		},
		{
			"buffer":0,
			"byteLength":11820,
			"byteOffset":11820,
			"target":34962
		},
		{
			"buffer":0,
			"byteLength":7880,
			"byteOffset":23640,
			"target":34962
		},
		{
			"buffer":0,
			"byteLength":3940,
			"byteOffset":31520,
			"target":34962
		},
		{
			"buffer":0,
			"byteLength":15760,
			"byteOffset":35460,
			"target":34962
		},
		{
			"buffer":0,
			"byteLength":7968,
			"byteOffset":51220,
			"target":34963
		},
		{
			"buffer":0,
			"byteLength":46116,
			"byteOffset":59188,
			"target":34962
		},
		{
			"buffer":0,
			"byteLength":46116,
			"byteOffset":105304,
			"target":34962
		},
		{
			"buffer":0,
			"byteLength":30744,
			"byteOffset":151420,
			"target":34962
		},
		{
			"buffer":0,
			"byteLength":15372,
			"byteOffset":182164,
			"target":34962
		},
		{
			"buffer":0,
			"byteLength":61488,
			"byteOffset":197536,
			"target":34962
		},
		{
			"buffer":0,
			"byteLength":23136,
			"byteOffset":259024,
			"target":34963
		},
		{
			"buffer":0,
			"byteLength":12960,
			"byteOffset":282160,
			"target":34962
		},
		{
			"buffer":0,
			"byteLength":12960,
			"byteOffset":295120,
			"target":34962
		},
		{
			"buffer":0,
			"byteLength":8640,
			"byteOffset":308080,
			"target":34962
		},
		{
			"buffer":0,
			"byteLength":4320,
			"byteOffset":316720,
			"target":34962
		},
		{
			"buffer":0,
			"byteLength":17280,
			"byteOffset":321040,
			"target":34962
		},
		{
			"buffer":0,
			"byteLength":9696,
			"byteOffset":338320,
			"target":34963
		},
		{
			"buffer":0,
			"byteLength":720,
			"byteOffset":348016,
			"target":34962
		},
		{
			"buffer":0,
			"byteLength":720,
			"byteOffset":348736,
			"target":34962
		},
		{
			"buffer":0,
			"byteLength":480,
			"byteOffset":349456,
			"target":34962
		},
		{
			"buffer":0,
			"byteLength":240,
			"byteOffset":349936,
			"target":34962
		},
		{
			"buffer":0,
			"byteLength":960,
			"byteOffset":350176,
			"target":34962
		},
		{
			"buffer":0,
			"byteLength":336,
			"byteOffset":351136,
			"target":34963
		},
		{
			"buffer":0,
			"byteLength":8100,
			"byteOffset":351472,
			"target":34962
		},
		{
			"buffer":0,
			"byteLength":8100,
			"byteOffset":359572,
			"target":34962
		},
		{
			"buffer":0,
			"byteLength":5400,
			"byteOffset":367672,
			"target":34962
		},
		{
			"buffer":0,
			"byteLength":2700,
			"byteOffset":373072,
			"target":34962
		},
		{
			"buffer":0,
			"byteLength":10800,
			"byteOffset":375772,
			"target":34962
		},
		{
			"buffer":0,
			"byteLength":5616,
			"byteOffset":386572,
			"target":34963
		},
		{
			"buffer":0,
			"byteLength":15984,
			"byteOffset":392188,
			"target":34962
		},
		{
			"buffer":0,
			"byteLength":15984,
			"byteOffset":408172,
			"target":34962
		},
		{
			"buffer":0,
			"byteLength":10656,
			"byteOffset":424156,
			"target":34962
		},
		{
			"buffer":0,
			"byteLength":5328,
			"byteOffset":434812,
			"target":34962
		},
		{
			"buffer":0,
			"byteLength":21312,
			"byteOffset":440140,
			"target":34962
		},
		{
			"buffer":0,
			"byteLength":11520,
			"byteOffset":461452,
			"target":34963
		},
		{
			"buffer":0,
			"byteLength":3648,
			"byteOffset":472972,
			"target":34962
		},
		{
			"buffer":0,
			"byteLength":3648,
			"byteOffset":476620,
			"target":34962
		},
		{
			"buffer":0,
			"byteLength":2432,
			"byteOffset":480268,
			"target":34962
		},
		{
			"buffer":0,
			"byteLength":1216,
			"byteOffset":482700,
			"target":34962
		},
		{
			"buffer":0,
			"byteLength":4864,
			"byteOffset":483916,
			"target":34962
		},
		{
			"buffer":0,
			"byteLength":2304,
			"byteOffset":488780,
			"target":34963
		},
		{
			"buffer":0,
			"byteLength":2640,
			"byteOffset":491084,
			"target":34962
		},
		{
			"buffer":0,
			"byteLength":2640,
			"byteOffset":493724,
			"target":34962
		},
		{
			"buffer":0,
			"byteLength":1760,
			"byteOffset":496364,
			"target":34962
		},
		{
			"buffer":0,
			"byteLength":880,
			"byteOffset":498124,
			"target":34962
		},
		{
			"buffer":0,
			"byteLength":3520,
			"byteOffset":499004,
			"target":34962
		},
		{
			"buffer":0,
			"byteLength":1440,
			"byteOffset":502524,
			"target":34963
		},
		{
			"buffer":0,
			"byteLength":1920,
			"byteOffset":503964,
			"target":34962
		},
		{
			"buffer":0,
			"byteLength":1920,
			"byteOffset":505884,
			"target":34962
		},
		{
			"buffer":0,
			"byteLength":1280,
			"byteOffset":507804,
			"target":34962
		},
		{
			"buffer":0,
			"byteLength":640,
			"byteOffset":509084,
			"target":34962
		},
		{
			"buffer":0,
			"byteLength":2560,
			"byteOffset":509724,
			"target":34962
		},
		{
			"buffer":0,
			"byteLength":960,
			"byteOffset":512284,
			"target":34963
		},
		{
			"buffer":0,
			"byteLength":1176,
			"byteOffset":513244,
			"target":34962
		},
		{
			"buffer":0,
			"byteLength":1176,
			"byteOffset":514420,
			"target":34962
		},
		{
			"buffer":0,
			"byteLength":784,
			"byteOffset":515596,
			"target":34962
		},
		{
			"buffer":0,
			"byteLength":392,
			"byteOffset":516380,
			"target":34962
		},
		{
			"buffer":0,
			"byteLength":1568,
			"byteOffset":516772,
			"target":34962
		},
		{
			"buffer":0,
			"byteLength":720,
			"byteOffset":518340,
			"target":34963
		},
		{
			"buffer":0,
			"byteLength":7320,
			"byteOffset":519060,
			"target":34962
		},
		{
			"buffer":0,
			"byteLength":7320,
			"byteOffset":526380,
			"target":34962
		},
		{
			"buffer":0,
			"byteLength":4880,
			"byteOffset":533700,
			"target":34962
		},
		{
			"buffer":0,
			"byteLength":2440,
			"byteOffset":538580,
			"target":34962
		},
		{
			"buffer":0,
			"byteLength":9760,
			"byteOffset":541020,
			"target":34962
		},
		{
			"buffer":0,
			"byteLength":4848,
			"byteOffset":550780,
			"target":34963
		},
		{
			"buffer":0,
			"byteLength":672,
			"byteOffset":555628,
			"target":34962
		},
		{
			"buffer":0,
			"byteLength":672,
			"byteOffset":556300,
			"target":34962
		},
		{
			"buffer":0,
			"byteLength":448,
			"byteOffset":556972,
			"target":34962
		},
		{
			"buffer":0,
			"byteLength":224,
			"byteOffset":557420,
			"target":34962
		},
		{
			"buffer":0,
			"byteLength":896,
			"byteOffset":557644,
			"target":34962
		},
		{
			"buffer":0,
			"byteLength":504,
			"byteOffset":558540,
			"target":34963
		},
		{
			"buffer":0,
			"byteLength":288,
			"byteOffset":559044,
			"target":34962
		},
		{
			"buffer":0,
			"byteLength":288,
			"byteOffset":559332,
			"target":34962
		},
		{
			"buffer":0,
			"byteLength":192,
			"byteOffset":559620,
			"target":34962
		},
		{
			"buffer":0,
			"byteLength":96,
			"byteOffset":559812,
			"target":34962
		},
		{
			"buffer":0,
			"byteLength":384,
			"byteOffset":559908,
			"target":34962
		},
		{
			"buffer":0,
			"byteLength":72,
			"byteOffset":560292,
			"target":34963
		},
		{
			"buffer":0,
			"byteLength":1296,
			"byteOffset":560364,
			"target":34962
		},
		{
			"buffer":0,
			"byteLength":1296,
			"byteOffset":561660,
			"target":34962
		},
		{
			"buffer":0,
			"byteLength":864,
			"byteOffset":562956,
			"target":34962
		},
		{
			"buffer":0,
			"byteLength":432,
			"byteOffset":563820,
			"target":34962
		},
		{
			"buffer":0,
			"byteLength":1728,
			"byteOffset":564252,
			"target":34962
		},
		{
			"buffer":0,
			"byteLength":312,
			"byteOffset":565980,
			"target":34963
		},
		{
			"buffer":0,
			"byteLength":504,
			"byteOffset":566292,
			"target":34962
		},
		{
			"buffer":0,
			"byteLength":504,
			"byteOffset":566796,
			"target":34962
		},
		{
			"buffer":0,
			"byteLength":336,
			"byteOffset":567300,
			"target":34962
		},
		{
			"buffer":0,
			"byteLength":168,
			"byteOffset":567636,
			"target":34962
		},
		{
			"buffer":0,
			"byteLength":672,
			"byteOffset":567804,
			"target":34962
		},
		{
			"buffer":0,
			"byteLength":192,
			"byteOffset":568476,
			"target":34963
		},
		{
			"buffer":0,
			"byteLength":288,
			"byteOffset":568668,
			"target":34962
		},
		{
			"buffer":0,
			"byteLength":288,
			"byteOffset":568956,
			"target":34962
		},
		{
			"buffer":0,
			"byteLength":192,
			"byteOffset":569244,
			"target":34962
		},
		{
			"buffer":0,
			"byteLength":96,
			"byteOffset":569436,
			"target":34962
		},
		{
			"buffer":0,
			"byteLength":384,
			"byteOffset":569532,
			"target":34962
		},
		{
			"buffer":0,
			"byteLength":1088,
			"byteOffset":569916
		},
		{
			"buffer":0,
			"byteLength":8,
			"byteOffset":571004
		},
		{
			"buffer":0,
			"byteLength":24,
			"byteOffset":571012
		},
		{
			"buffer":0,
			"byteLength":32,
			"byteOffset":571036
		},
		{
			"buffer":0,
			"byteLength":24,
			"byteOffset":571068
		},
		{
			"buffer":0,
			"byteLength":24,
			"byteOffset":571092
		},
		{
			"buffer":0,
			"byteLength":32,
			"byteOffset":571116
		},
		{
			"buffer":0,
			"byteLength":24,
			"byteOffset":571148
		},
		{
			"buffer":0,
			"byteLength":24,
			"byteOffset":571172
		},
		{
			"buffer":0,
			"byteLength":76,
			"byteOffset":571196
		},
		{
			"buffer":0,
			"byteLength":304,
			"byteOffset":571272
		},
		{
			"buffer":0,
			"byteLength":24,
			"byteOffset":571576
		},
		{
			"buffer":0,
			"byteLength":24,
			"byteOffset":571600
		},
		{
			"buffer":0,
			"byteLength":32,
			"byteOffset":571624
		},
		{
			"buffer":0,
			"byteLength":24,
			"byteOffset":571656
		},
		{
			"buffer":0,
			"byteLength":24,
			"byteOffset":571680
		},
		{
			"buffer":0,
			"byteLength":32,
			"byteOffset":571704
		},
		{
			"buffer":0,
			"byteLength":24,
			"byteOffset":571736
		},
		{
			"buffer":0,
			"byteLength":24,
			"byteOffset":571760
		},
		{
			"buffer":0,
			"byteLength":304,
			"byteOffset":571784
		},
		{
			"buffer":0,
			"byteLength":24,
			"byteOffset":572088
		},
		{
			"buffer":0,
			"byteLength":24,
			"byteOffset":572112
		},
		{
			"buffer":0,
			"byteLength":304,
			"byteOffset":572136
		},
		{
			"buffer":0,
			"byteLength":24,
			"byteOffset":572440
		},
		{
			"buffer":0,
			"byteLength":24,
			"byteOffset":572464
		},
		{
			"buffer":0,
			"byteLength":32,
			"byteOffset":572488
		},
		{
			"buffer":0,
			"byteLength":24,
			"byteOffset":572520
		},
		{
			"buffer":0,
			"byteLength":24,
			"byteOffset":572544
		},
		{
			"buffer":0,
			"byteLength":304,
			"byteOffset":572568
		},
		{
			"buffer":0,
			"byteLength":24,
			"byteOffset":572872
		},
		{
			"buffer":0,
			"byteLength":24,
			"byteOffset":572896
		},
		{
			"buffer":0,
			"byteLength":32,
			"byteOffset":572920
		},
		{
			"buffer":0,
			"byteLength":24,
			"byteOffset":572952
		},
		{
			"buffer":0,
			"byteLength":24,
			"byteOffset":572976
		},
		{
			"buffer":0,
			"byteLength":32,
			"byteOffset":573000
		},
		{
			"buffer":0,
			"byteLength":24,
			"byteOffset":573032
		},
		{
			"buffer":0,
			"byteLength":24,
			"byteOffset":573056
		},
		{
			"buffer":0,
			"byteLength":304,
			"byteOffset":573080
		},
		{
			"buffer":0,
			"byteLength":24,
			"byteOffset":573384
		},
		{
			"buffer":0,
			"byteLength":24,
			"byteOffset":573408
		},
		{
			"buffer":0,
			"byteLength":32,
			"byteOffset":573432
		},
		{
			"buffer":0,
			"byteLength":24,
			"byteOffset":573464
		},
		{
			"buffer":0,
			"byteLength":24,
			"byteOffset":573488
		},
		{
			"buffer":0,
			"byteLength":32,
			"byteOffset":573512
		},
		{
			"buffer":0,
			"byteLength":24,
			"byteOffset":573544
		},
		{
			"buffer":0,
			"byteLength":24,
			"byteOffset":573568
		},
		{
			"buffer":0,
			"byteLength":304,
			"byteOffset":573592
		},
		{
			"buffer":0,
			"byteLength":24,
			"byteOffset":573896
		},
		{
			"buffer":0,
			"byteLength":24,
			"byteOffset":573920
		},
		{
			"buffer":0,
			"byteLength":32,
			"byteOffset":573944
		},
		{
			"buffer":0,
			"byteLength":24,
			"byteOffset":573976
		},
		{
			"buffer":0,
			"byteLength":24,
			"byteOffset":574000
		},
		{
			"buffer":0,
			"byteLength":32,
			"byteOffset":574024
		},
		{
			"buffer":0,
			"byteLength":24,
			"byteOffset":574056
		},
		{
			"buffer":0,
			"byteLength":244,
			"byteOffset":574080
		},
		{
			"buffer":0,
			"byteLength":732,
			"byteOffset":574324
		},
		{
			"buffer":0,
			"byteLength":8,
			"byteOffset":575056
		},
		{
			"buffer":0,
			"byteLength":32,
			"byteOffset":575064
		},
		{
			"buffer":0,
			"byteLength":24,
			"byteOffset":575096
		},
		{
			"buffer":0,
			"byteLength":24,
			"byteOffset":575120
		},
		{
			"buffer":0,
			"byteLength":32,
			"byteOffset":575144
		},
		{
			"buffer":0,
			"byteLength":24,
			"byteOffset":575176
		},
		{
			"buffer":0,
			"byteLength":24,
			"byteOffset":575200
		},
		{
			"buffer":0,
			"byteLength":976,
			"byteOffset":575224
		},
		{
			"buffer":0,
			"byteLength":24,
			"byteOffset":576200
		},
		{
			"buffer":0,
			"byteLength":24,
			"byteOffset":576224
		},
		{
			"buffer":0,
			"byteLength":32,
			"byteOffset":576248
		},
		{
			"buffer":0,
			"byteLength":24,
			"byteOffset":576280
		},
		{
			"buffer":0,
			"byteLength":24,
			"byteOffset":576304
		},
		{
			"buffer":0,
			"byteLength":976,
			"byteOffset":576328
		},
		{
			"buffer":0,
			"byteLength":24,
			"byteOffset":577304
		},
		{
			"buffer":0,
			"byteLength":24,
			"byteOffset":577328
		},
		{
			"buffer":0,
			"byteLength":976,
			"byteOffset":577352
		},
		{
			"buffer":0,
			"byteLength":24,
			"byteOffset":578328
		},
		{
			"buffer":0,
			"byteLength":24,
			"byteOffset":578352
		},
		{
			"buffer":0,
			"byteLength":32,
			"byteOffset":578376
		},
		{
			"buffer":0,
			"byteLength":24,
			"byteOffset":578408
		},
		{
			"buffer":0,
			"byteLength":24,
			"byteOffset":578432
		},
		{
			"buffer":0,
			"byteLength":32,
			"byteOffset":578456
		},
		{
			"buffer":0,
			"byteLength":24,
			"byteOffset":578488
		},
		{
			"buffer":0,
			"byteLength":24,
			"byteOffset":578512
		},
		{
			"buffer":0,
			"byteLength":976,
			"byteOffset":578536
		},
		{
			"buffer":0,
			"byteLength":24,
			"byteOffset":579512
		},
		{
			"buffer":0,
			"byteLength":24,
			"byteOffset":579536
		},
		{
			"buffer":0,
			"byteLength":32,
			"byteOffset":579560
		},
		{
			"buffer":0,
			"byteLength":24,
			"byteOffset":579592
		},
		{
			"buffer":0,
			"byteLength":24,
			"byteOffset":579616
		},
		{
			"buffer":0,
			"byteLength":32,
			"byteOffset":579640
		},
		{
			"buffer":0,
			"byteLength":24,
			"byteOffset":579672
		},
		{
			"buffer":0,
			"byteLength":24,
			"byteOffset":579696
		},
		{
			"buffer":0,
			"byteLength":32,
			"byteOffset":579720
		},
		{
			"buffer":0,
			"byteLength":24,
			"byteOffset":579752
		},
		{
			"buffer":0,
			"byteLength":24,
			"byteOffset":579776
		},
		{
			"buffer":0,
			"byteLength":32,
			"byteOffset":579800
		},
		{
			"buffer":0,
			"byteLength":24,
			"byteOffset":579832
		},
		{
			"buffer":0,
			"byteLength":24,
			"byteOffset":579856
		},
		{
			"buffer":0,
			"byteLength":32,
			"byteOffset":579880
		},
		{
			"buffer":0,
			"byteLength":24,
			"byteOffset":579912
		},
		{
			"buffer":0,
			"byteLength":24,
			"byteOffset":579936
		},
		{
			"buffer":0,
			"byteLength":32,
			"byteOffset":579960
		},
		{
			"buffer":0,
			"byteLength":24,
			"byteOffset":579992
		},
		{
			"buffer":0,
			"byteLength":24,
			"byteOffset":580016
		},
		{
			"buffer":0,
			"byteLength":32,
			"byteOffset":580040
		},
		{
			"buffer":0,
			"byteLength":24,
			"byteOffset":580072
		},
		{
			"buffer":0,
			"byteLength":24,
			"byteOffset":580096
		},
		{
			"buffer":0,
			"byteLength":32,
			"byteOffset":580120
		},
		{
			"buffer":0,
			"byteLength":24,
			"byteOffset":580152
		},
		{
			"buffer":0,
			"byteLength":124,
			"byteOffset":580176
		},
		{
			"buffer":0,
			"byteLength":372,
			"byteOffset":580300
		},
		{
			"buffer":0,
			"byteLength":496,
			"byteOffset":580672
		},
		{
			"buffer":0,
			"byteLength":8,
			"byteOffset":581168
		},
		{
			"buffer":0,
			"byteLength":24,
			"byteOffset":581176
		},
		{
			"buffer":0,
			"byteLength":24,
			"byteOffset":581200
		},
		{
			"buffer":0,
			"byteLength":32,
			"byteOffset":581224
		},
		{
			"buffer":0,
			"byteLength":24,
			"byteOffset":581256
		},
		{
			"buffer":0,
			"byteLength":24,
			"byteOffset":581280
		},
		{
			"buffer":0,
			"byteLength":496,
			"byteOffset":581304
		},
		{
			"buffer":0,
			"byteLength":24,
			"byteOffset":581800
		},
		{
			"buffer":0,
			"byteLength":24,
			"byteOffset":581824
		},
		{
			"buffer":0,
			"byteLength":32,
			"byteOffset":581848
		},
		{
			"buffer":0,
			"byteLength":24,
			"byteOffset":581880
		},
		{
			"buffer":0,
			"byteLength":24,
			"byteOffset":581904
		},
		{
			"buffer":0,
			"byteLength":32,
			"byteOffset":581928
		},
		{
			"buffer":0,
			"byteLength":24,
			"byteOffset":581960
		},
		{
			"buffer":0,
			"byteLength":24,
			"byteOffset":581984
		},
		{
			"buffer":0,
			"byteLength":496,
			"byteOffset":582008
		},
		{
			"buffer":0,
			"byteLength":24,
			"byteOffset":582504
		},
		{
			"buffer":0,
			"byteLength":24,
			"byteOffset":582528
		},
		{
			"buffer":0,
			"byteLength":32,
			"byteOffset":582552
		},
		{
			"buffer":0,
			"byteLength":24,
			"byteOffset":582584
		},
		{
			"buffer":0,
			"byteLength":24,
			"byteOffset":582608
		},
		{
			"buffer":0,
			"byteLength":32,
			"byteOffset":582632
		},
		{
			"buffer":0,
			"byteLength":24,
			"byteOffset":582664
		},
		{
			"buffer":0,
			"byteLength":24,
			"byteOffset":582688
		},
		{
			"buffer":0,
			"byteLength":496,
			"byteOffset":582712
		},
		{
			"buffer":0,
			"byteLength":24,
			"byteOffset":583208
		},
		{
			"buffer":0,
			"byteLength":24,
			"byteOffset":583232
		},
		{
			"buffer":0,
			"byteLength":32,
			"byteOffset":583256
		},
		{
			"buffer":0,
			"byteLength":24,
			"byteOffset":583288
		},
		{
			"buffer":0,
			"byteLength":24,
			"byteOffset":583312
		},
		{
			"buffer":0,
			"byteLength":32,
			"byteOffset":583336
		},
		{
			"buffer":0,
			"byteLength":24,
			"byteOffset":583368
		},
		{
			"buffer":0,
			"byteLength":24,
			"byteOffset":583392
		},
		{
			"buffer":0,
			"byteLength":496,
			"byteOffset":583416
		},
		{
			"buffer":0,
			"byteLength":24,
			"byteOffset":583912
		},
		{
			"buffer":0,
			"byteLength":24,
			"byteOffset":583936
		},
		{
			"buffer":0,
			"byteLength":496,
			"byteOffset":583960
		},
		{
			"buffer":0,
			"byteLength":24,
			"byteOffset":584456
		},
		{
			"buffer":0,
			"byteLength":24,
			"byteOffset":584480
		},
		{
			"buffer":0,
			"byteLength":496,
			"byteOffset":584504
		},
		{
			"buffer":0,
			"byteLength":24,
			"byteOffset":585000
		},
		{
			"buffer":0,
			"byteLength":24,
			"byteOffset":585024
		},
		{
			"buffer":0,
			"byteLength":496,
			"byteOffset":585048
		},
		{
			"buffer":0,
			"byteLength":24,
			"byteOffset":585544
		},
		{
			"buffer":0,
			"byteLength":24,
			"byteOffset":585568
		},
		{
			"buffer":0,
			"byteLength":496,
			"byteOffset":585592
		},
		{
			"buffer":0,
			"byteLength":24,
			"byteOffset":586088
		},
		{
			"buffer":0,
			"byteLength":24,
			"byteOffset":586112
		},
		{
			"buffer":0,
			"byteLength":496,
			"byteOffset":586136
		},
		{
			"buffer":0,
			"byteLength":24,
			"byteOffset":586632
		}
	],
	"samplers":[
		{
			"magFilter":9729,
			"minFilter":9987
		}
	],
	"buffers":[
		{
			"byteLength":586656,
			"uri":"gazel.bin"
		}
	]
}
