{
	"asset":{
		"generator":"Khronos glTF Blender I/O v4.2.57",
		"version":"2.0"
	},
	"extensionsUsed":[
		"KHR_materials_clearcoat",
		"KHR_materials_sheen"
	],
	"scene":0,
	"scenes":[
		{
			"name":"Scene",
			"nodes":[
				18
			]
		}
	],
	"nodes":[
		{
			"name":"head",
			"translation":[
				0,
				0.12999999523162842,
				0
			]
		},
		{
			"children":[
				0
			],
			"name":"neck",
			"translation":[
				0,
				0.2730001211166382,
				0
			]
		},
		{
			"name":"hand.R",
			"rotation":[
				-0.004436370451003313,
				-0.030711006373167038,
				0.03294704481959343,
				0.9989752769470215
			],
			"translation":[
				-3.387685865163803e-08,
				0.3287478983402252,
				6.51925802230835e-09
			]
		},
		{
			"children":[
				2
			],
			"name":"forearm.R",
			"rotation":[
				0.041150759905576706,
				-0.07195524126291275,
				0.0838746502995491,
				0.9930227398872375
			],
			"scale":[
				0.9999999403953552,
				1,
				0.9999999403953552
			],
			"translation":[
				-4.307366907596588e-08,
				0.36511942744255066,
				2.3283064365386963e-08
			]
		},
		{
			"children":[
				3
			],
			"name":"upper_arm.R",
			"rotation":[
				-0.9804754853248596,
				-0.1390419602394104,
				-0.1390421837568283,
				0.0015607656678184867
			],
			"scale":[
				0.9999984502792358,
				0.9999998807907104,
				0.9999998807907104
			],
			"translation":[
				0.4211999773979187,
				0.2080000638961792,
				0
			]
		},
		{
			"name":"hand.L",
			"rotation":[
				-0.004436370451003313,
				0.030711006373167038,
				-0.03294704481959343,
				0.9989752769470215
			],
			"translation":[
				3.387685865163803e-08,
				0.3287478983402252,
				6.51925802230835e-09
			]
		},
		{
			"children":[
				5
			],
			"name":"forearm.L",
			"rotation":[
				0.041150759905576706,
				0.07195524126291275,
				-0.0838746502995491,
				0.9930227398872375
			],
			"scale":[
				0.9999999403953552,
				1,
				0.9999999403953552
			],
			"translation":[
				4.307366907596588e-08,
				0.36511942744255066,
				2.3283064365386963e-08
			]
		},
		{
			"children":[
				6
			],
			"name":"upper_arm.L",
			"rotation":[
				-0.9804754853248596,
				0.1390419602394104,
				0.1390421837568283,
				0.0015607656678184867
			],
			"scale":[
				0.9999984502792358,
				0.9999998807907104,
				0.9999998807907104
			],
			"translation":[
				-0.4211999773979187,
				0.2080000638961792,
				0
			]
		},
		{
			"children":[
				1,
				4,
				7
			],
			"name":"chest",
			"translation":[
				0,
				0.221000075340271,
				0
			]
		},
		{
			"children":[
				8
			],
			"name":"spine",
			"scale":[
				1,
				0.9999999403953552,
				1
			],
			"translation":[
				0,
				0.1950000524520874,
				0
			]
		},
		{
			"name":"foot.R",
			"rotation":[
				0.5914180278778076,
				-2.3281754302217905e-09,
				-2.487831642083993e-11,
				0.8063651323318481
			],
			"scale":[
				1,
				1.0000001192092896,
				1.0000001192092896
			],
			"translation":[
				-2.527653641948291e-10,
				0.5337667465209961,
				-9.265477274311706e-10
			]
		},
		{
			"children":[
				10
			],
			"name":"shin.R",
			"rotation":[
				-0.04162056744098663,
				-0.01479349285364151,
				0.014021001756191254,
				0.9989255666732788
			],
			"scale":[
				0.9999999403953552,
				1,
				1
			],
			"translation":[
				-6.693881005048752e-09,
				0.5334563851356506,
				4.656612873077393e-10
			]
		},
		{
			"children":[
				11
			],
			"name":"thigh.R",
			"rotation":[
				-0.9996822476387024,
				-0.014412437565624714,
				-0.014412611722946167,
				0.014834051951766014
			],
			"scale":[
				1.0000003576278687,
				1,
				1.0000003576278687
			],
			"translation":[
				0.1793999820947647,
				-0.026000022888183594,
				0
			]
		},
		{
			"name":"foot.L",
			"rotation":[
				0.5914180278778076,
				2.3281754302217905e-09,
				2.487831642083993e-11,
				0.8063651323318481
			],
			"scale":[
				1,
				1.0000001192092896,
				1.0000001192092896
			],
			"translation":[
				2.527653641948291e-10,
				0.5337667465209961,
				-9.265477274311706e-10
			]
		},
		{
			"children":[
				13
			],
			"name":"shin.L",
			"rotation":[
				-0.04162056744098663,
				0.01479349285364151,
				-0.014021001756191254,
				0.9989255666732788
			],
			"scale":[
				0.9999999403953552,
				1,
				1
			],
			"translation":[
				6.693881005048752e-09,
				0.5334563851356506,
				4.656612873077393e-10
			]
		},
		{
			"children":[
				14
			],
			"name":"thigh.L",
			"rotation":[
				-0.9996822476387024,
				0.014412437565624714,
				0.014412611722946167,
				0.014834051951766014
			],
			"scale":[
				1.0000003576278687,
				1,
				1.0000003576278687
			],
			"translation":[
				-0.1793999820947647,
				-0.026000022888183594,
				0
			]
		},
		{
			"children":[
				9,
				12,
				15
			],
			"name":"hips",
			"translation":[
				0,
				1.2089999914169312,
				0
			]
		},
		{
			"mesh":0,
			"name":"geld_new",
			"skin":0
		},
		{
			"children":[
				17,
				16
			],
			"name":"geld_new_rig"
		}
	],
	"animations":[
		{
			"channels":[
				{
					"sampler":0,
					"target":{
						"node":16,
						"path":"translation"
					}
				},
				{
					"sampler":1,
					"target":{
						"node":16,
						"path":"rotation"
					}
				},
				{
					"sampler":2,
					"target":{
						"node":16,
						"path":"scale"
					}
				},
				{
					"sampler":3,
					"target":{
						"node":9,
						"path":"translation"
					}
				},
				{
					"sampler":4,
					"target":{
						"node":9,
						"path":"rotation"
					}
				},
				{
					"sampler":5,
					"target":{
						"node":9,
						"path":"scale"
					}
				},
				{
					"sampler":6,
					"target":{
						"node":8,
						"path":"translation"
					}
				},
				{
					"sampler":7,
					"target":{
						"node":8,
						"path":"rotation"
					}
				},
				{
					"sampler":8,
					"target":{
						"node":8,
						"path":"scale"
					}
				},
				{
					"sampler":9,
					"target":{
						"node":1,
						"path":"translation"
					}
				},
				{
					"sampler":10,
					"target":{
						"node":1,
						"path":"rotation"
					}
				},
				{
					"sampler":11,
					"target":{
						"node":1,
						"path":"scale"
					}
				},
				{
					"sampler":12,
					"target":{
						"node":0,
						"path":"translation"
					}
				},
				{
					"sampler":13,
					"target":{
						"node":0,
						"path":"rotation"
					}
				},
				{
					"sampler":14,
					"target":{
						"node":0,
						"path":"scale"
					}
				},
				{
					"sampler":15,
					"target":{
						"node":4,
						"path":"translation"
					}
				},
				{
					"sampler":16,
					"target":{
						"node":4,
						"path":"rotation"
					}
				},
				{
					"sampler":17,
					"target":{
						"node":4,
						"path":"scale"
					}
				},
				{
					"sampler":18,
					"target":{
						"node":3,
						"path":"translation"
					}
				},
				{
					"sampler":19,
					"target":{
						"node":3,
						"path":"rotation"
					}
				},
				{
					"sampler":20,
					"target":{
						"node":3,
						"path":"scale"
					}
				},
				{
					"sampler":21,
					"target":{
						"node":2,
						"path":"translation"
					}
				},
				{
					"sampler":22,
					"target":{
						"node":2,
						"path":"rotation"
					}
				},
				{
					"sampler":23,
					"target":{
						"node":2,
						"path":"scale"
					}
				},
				{
					"sampler":24,
					"target":{
						"node":7,
						"path":"translation"
					}
				},
				{
					"sampler":25,
					"target":{
						"node":7,
						"path":"rotation"
					}
				},
				{
					"sampler":26,
					"target":{
						"node":7,
						"path":"scale"
					}
				},
				{
					"sampler":27,
					"target":{
						"node":6,
						"path":"translation"
					}
				},
				{
					"sampler":28,
					"target":{
						"node":6,
						"path":"rotation"
					}
				},
				{
					"sampler":29,
					"target":{
						"node":6,
						"path":"scale"
					}
				},
				{
					"sampler":30,
					"target":{
						"node":5,
						"path":"translation"
					}
				},
				{
					"sampler":31,
					"target":{
						"node":5,
						"path":"rotation"
					}
				},
				{
					"sampler":32,
					"target":{
						"node":5,
						"path":"scale"
					}
				},
				{
					"sampler":33,
					"target":{
						"node":12,
						"path":"translation"
					}
				},
				{
					"sampler":34,
					"target":{
						"node":12,
						"path":"rotation"
					}
				},
				{
					"sampler":35,
					"target":{
						"node":12,
						"path":"scale"
					}
				},
				{
					"sampler":36,
					"target":{
						"node":11,
						"path":"translation"
					}
				},
				{
					"sampler":37,
					"target":{
						"node":11,
						"path":"rotation"
					}
				},
				{
					"sampler":38,
					"target":{
						"node":11,
						"path":"scale"
					}
				},
				{
					"sampler":39,
					"target":{
						"node":10,
						"path":"translation"
					}
				},
				{
					"sampler":40,
					"target":{
						"node":10,
						"path":"rotation"
					}
				},
				{
					"sampler":41,
					"target":{
						"node":10,
						"path":"scale"
					}
				},
				{
					"sampler":42,
					"target":{
						"node":15,
						"path":"translation"
					}
				},
				{
					"sampler":43,
					"target":{
						"node":15,
						"path":"rotation"
					}
				},
				{
					"sampler":44,
					"target":{
						"node":15,
						"path":"scale"
					}
				},
				{
					"sampler":45,
					"target":{
						"node":14,
						"path":"translation"
					}
				},
				{
					"sampler":46,
					"target":{
						"node":14,
						"path":"rotation"
					}
				},
				{
					"sampler":47,
					"target":{
						"node":14,
						"path":"scale"
					}
				},
				{
					"sampler":48,
					"target":{
						"node":13,
						"path":"translation"
					}
				},
				{
					"sampler":49,
					"target":{
						"node":13,
						"path":"rotation"
					}
				},
				{
					"sampler":50,
					"target":{
						"node":13,
						"path":"scale"
					}
				}
			],
			"name":"attack",
			"samplers":[
				{
					"input":79,
					"interpolation":"STEP",
					"output":80
				},
				{
					"input":79,
					"interpolation":"STEP",
					"output":81
				},
				{
					"input":79,
					"interpolation":"STEP",
					"output":82
				},
				{
					"input":79,
					"interpolation":"STEP",
					"output":83
				},
				{
					"input":79,
					"interpolation":"STEP",
					"output":84
				},
				{
					"input":79,
					"interpolation":"STEP",
					"output":85
				},
				{
					"input":79,
					"interpolation":"STEP",
					"output":86
				},
				{
					"input":87,
					"interpolation":"LINEAR",
					"output":88
				},
				{
					"input":79,
					"interpolation":"STEP",
					"output":89
				},
				{
					"input":79,
					"interpolation":"STEP",
					"output":90
				},
				{
					"input":79,
					"interpolation":"STEP",
					"output":91
				},
				{
					"input":79,
					"interpolation":"STEP",
					"output":92
				},
				{
					"input":79,
					"interpolation":"STEP",
					"output":93
				},
				{
					"input":79,
					"interpolation":"STEP",
					"output":94
				},
				{
					"input":79,
					"interpolation":"STEP",
					"output":95
				},
				{
					"input":79,
					"interpolation":"STEP",
					"output":96
				},
				{
					"input":87,
					"interpolation":"LINEAR",
					"output":97
				},
				{
					"input":79,
					"interpolation":"STEP",
					"output":98
				},
				{
					"input":79,
					"interpolation":"LINEAR",
					"output":99
				},
				{
					"input":87,
					"interpolation":"LINEAR",
					"output":100
				},
				{
					"input":79,
					"interpolation":"STEP",
					"output":101
				},
				{
					"input":79,
					"interpolation":"LINEAR",
					"output":102
				},
				{
					"input":79,
					"interpolation":"LINEAR",
					"output":103
				},
				{
					"input":79,
					"interpolation":"STEP",
					"output":104
				},
				{
					"input":79,
					"interpolation":"STEP",
					"output":105
				},
				{
					"input":87,
					"interpolation":"LINEAR",
					"output":106
				},
				{
					"input":79,
					"interpolation":"STEP",
					"output":107
				},
				{
					"input":79,
					"interpolation":"STEP",
					"output":108
				},
				{
					"input":79,
					"interpolation":"STEP",
					"output":109
				},
				{
					"input":79,
					"interpolation":"STEP",
					"output":110
				},
				{
					"input":79,
					"interpolation":"STEP",
					"output":111
				},
				{
					"input":79,
					"interpolation":"STEP",
					"output":112
				},
				{
					"input":79,
					"interpolation":"STEP",
					"output":113
				},
				{
					"input":79,
					"interpolation":"STEP",
					"output":114
				},
				{
					"input":87,
					"interpolation":"LINEAR",
					"output":115
				},
				{
					"input":79,
					"interpolation":"STEP",
					"output":116
				},
				{
					"input":79,
					"interpolation":"LINEAR",
					"output":117
				},
				{
					"input":79,
					"interpolation":"LINEAR",
					"output":118
				},
				{
					"input":79,
					"interpolation":"STEP",
					"output":119
				},
				{
					"input":79,
					"interpolation":"LINEAR",
					"output":120
				},
				{
					"input":79,
					"interpolation":"LINEAR",
					"output":121
				},
				{
					"input":79,
					"interpolation":"STEP",
					"output":122
				},
				{
					"input":79,
					"interpolation":"STEP",
					"output":123
				},
				{
					"input":87,
					"interpolation":"LINEAR",
					"output":124
				},
				{
					"input":79,
					"interpolation":"STEP",
					"output":125
				},
				{
					"input":79,
					"interpolation":"LINEAR",
					"output":126
				},
				{
					"input":79,
					"interpolation":"LINEAR",
					"output":127
				},
				{
					"input":79,
					"interpolation":"STEP",
					"output":128
				},
				{
					"input":79,
					"interpolation":"LINEAR",
					"output":129
				},
				{
					"input":79,
					"interpolation":"LINEAR",
					"output":130
				},
				{
					"input":79,
					"interpolation":"STEP",
					"output":131
				}
			]
		},
		{
			"channels":[
				{
					"sampler":0,
					"target":{
						"node":16,
						"path":"translation"
					}
				},
				{
					"sampler":1,
					"target":{
						"node":16,
						"path":"rotation"
					}
				},
				{
					"sampler":2,
					"target":{
						"node":16,
						"path":"scale"
					}
				},
				{
					"sampler":3,
					"target":{
						"node":9,
						"path":"translation"
					}
				},
				{
					"sampler":4,
					"target":{
						"node":9,
						"path":"rotation"
					}
				},
				{
					"sampler":5,
					"target":{
						"node":9,
						"path":"scale"
					}
				},
				{
					"sampler":6,
					"target":{
						"node":8,
						"path":"translation"
					}
				},
				{
					"sampler":7,
					"target":{
						"node":8,
						"path":"rotation"
					}
				},
				{
					"sampler":8,
					"target":{
						"node":8,
						"path":"scale"
					}
				},
				{
					"sampler":9,
					"target":{
						"node":1,
						"path":"translation"
					}
				},
				{
					"sampler":10,
					"target":{
						"node":1,
						"path":"rotation"
					}
				},
				{
					"sampler":11,
					"target":{
						"node":1,
						"path":"scale"
					}
				},
				{
					"sampler":12,
					"target":{
						"node":0,
						"path":"translation"
					}
				},
				{
					"sampler":13,
					"target":{
						"node":0,
						"path":"rotation"
					}
				},
				{
					"sampler":14,
					"target":{
						"node":0,
						"path":"scale"
					}
				},
				{
					"sampler":15,
					"target":{
						"node":4,
						"path":"translation"
					}
				},
				{
					"sampler":16,
					"target":{
						"node":4,
						"path":"rotation"
					}
				},
				{
					"sampler":17,
					"target":{
						"node":4,
						"path":"scale"
					}
				},
				{
					"sampler":18,
					"target":{
						"node":3,
						"path":"translation"
					}
				},
				{
					"sampler":19,
					"target":{
						"node":3,
						"path":"rotation"
					}
				},
				{
					"sampler":20,
					"target":{
						"node":3,
						"path":"scale"
					}
				},
				{
					"sampler":21,
					"target":{
						"node":2,
						"path":"translation"
					}
				},
				{
					"sampler":22,
					"target":{
						"node":2,
						"path":"rotation"
					}
				},
				{
					"sampler":23,
					"target":{
						"node":2,
						"path":"scale"
					}
				},
				{
					"sampler":24,
					"target":{
						"node":7,
						"path":"translation"
					}
				},
				{
					"sampler":25,
					"target":{
						"node":7,
						"path":"rotation"
					}
				},
				{
					"sampler":26,
					"target":{
						"node":7,
						"path":"scale"
					}
				},
				{
					"sampler":27,
					"target":{
						"node":6,
						"path":"translation"
					}
				},
				{
					"sampler":28,
					"target":{
						"node":6,
						"path":"rotation"
					}
				},
				{
					"sampler":29,
					"target":{
						"node":6,
						"path":"scale"
					}
				},
				{
					"sampler":30,
					"target":{
						"node":5,
						"path":"translation"
					}
				},
				{
					"sampler":31,
					"target":{
						"node":5,
						"path":"rotation"
					}
				},
				{
					"sampler":32,
					"target":{
						"node":5,
						"path":"scale"
					}
				},
				{
					"sampler":33,
					"target":{
						"node":12,
						"path":"translation"
					}
				},
				{
					"sampler":34,
					"target":{
						"node":12,
						"path":"rotation"
					}
				},
				{
					"sampler":35,
					"target":{
						"node":12,
						"path":"scale"
					}
				},
				{
					"sampler":36,
					"target":{
						"node":11,
						"path":"translation"
					}
				},
				{
					"sampler":37,
					"target":{
						"node":11,
						"path":"rotation"
					}
				},
				{
					"sampler":38,
					"target":{
						"node":11,
						"path":"scale"
					}
				},
				{
					"sampler":39,
					"target":{
						"node":10,
						"path":"translation"
					}
				},
				{
					"sampler":40,
					"target":{
						"node":10,
						"path":"rotation"
					}
				},
				{
					"sampler":41,
					"target":{
						"node":10,
						"path":"scale"
					}
				},
				{
					"sampler":42,
					"target":{
						"node":15,
						"path":"translation"
					}
				},
				{
					"sampler":43,
					"target":{
						"node":15,
						"path":"rotation"
					}
				},
				{
					"sampler":44,
					"target":{
						"node":15,
						"path":"scale"
					}
				},
				{
					"sampler":45,
					"target":{
						"node":14,
						"path":"translation"
					}
				},
				{
					"sampler":46,
					"target":{
						"node":14,
						"path":"rotation"
					}
				},
				{
					"sampler":47,
					"target":{
						"node":14,
						"path":"scale"
					}
				},
				{
					"sampler":48,
					"target":{
						"node":13,
						"path":"translation"
					}
				},
				{
					"sampler":49,
					"target":{
						"node":13,
						"path":"rotation"
					}
				},
				{
					"sampler":50,
					"target":{
						"node":13,
						"path":"scale"
					}
				}
			],
			"name":"idle",
			"samplers":[
				{
					"input":132,
					"interpolation":"LINEAR",
					"output":133
				},
				{
					"input":134,
					"interpolation":"STEP",
					"output":135
				},
				{
					"input":134,
					"interpolation":"STEP",
					"output":136
				},
				{
					"input":134,
					"interpolation":"STEP",
					"output":137
				},
				{
					"input":134,
					"interpolation":"STEP",
					"output":138
				},
				{
					"input":134,
					"interpolation":"STEP",
					"output":139
				},
				{
					"input":134,
					"interpolation":"STEP",
					"output":140
				},
				{
					"input":132,
					"interpolation":"LINEAR",
					"output":141
				},
				{
					"input":134,
					"interpolation":"STEP",
					"output":142
				},
				{
					"input":134,
					"interpolation":"STEP",
					"output":143
				},
				{
					"input":134,
					"interpolation":"STEP",
					"output":144
				},
				{
					"input":134,
					"interpolation":"STEP",
					"output":145
				},
				{
					"input":134,
					"interpolation":"STEP",
					"output":146
				},
				{
					"input":132,
					"interpolation":"LINEAR",
					"output":147
				},
				{
					"input":134,
					"interpolation":"STEP",
					"output":148
				},
				{
					"input":134,
					"interpolation":"STEP",
					"output":149
				},
				{
					"input":132,
					"interpolation":"LINEAR",
					"output":150
				},
				{
					"input":134,
					"interpolation":"STEP",
					"output":151
				},
				{
					"input":134,
					"interpolation":"STEP",
					"output":152
				},
				{
					"input":134,
					"interpolation":"STEP",
					"output":153
				},
				{
					"input":134,
					"interpolation":"STEP",
					"output":154
				},
				{
					"input":134,
					"interpolation":"STEP",
					"output":155
				},
				{
					"input":134,
					"interpolation":"STEP",
					"output":156
				},
				{
					"input":134,
					"interpolation":"STEP",
					"output":157
				},
				{
					"input":134,
					"interpolation":"STEP",
					"output":158
				},
				{
					"input":132,
					"interpolation":"LINEAR",
					"output":159
				},
				{
					"input":134,
					"interpolation":"STEP",
					"output":160
				},
				{
					"input":134,
					"interpolation":"STEP",
					"output":161
				},
				{
					"input":134,
					"interpolation":"STEP",
					"output":162
				},
				{
					"input":134,
					"interpolation":"STEP",
					"output":163
				},
				{
					"input":134,
					"interpolation":"STEP",
					"output":164
				},
				{
					"input":134,
					"interpolation":"STEP",
					"output":165
				},
				{
					"input":134,
					"interpolation":"STEP",
					"output":166
				},
				{
					"input":134,
					"interpolation":"STEP",
					"output":167
				},
				{
					"input":134,
					"interpolation":"STEP",
					"output":168
				},
				{
					"input":134,
					"interpolation":"STEP",
					"output":169
				},
				{
					"input":134,
					"interpolation":"STEP",
					"output":170
				},
				{
					"input":134,
					"interpolation":"STEP",
					"output":171
				},
				{
					"input":134,
					"interpolation":"STEP",
					"output":172
				},
				{
					"input":134,
					"interpolation":"STEP",
					"output":173
				},
				{
					"input":134,
					"interpolation":"STEP",
					"output":174
				},
				{
					"input":134,
					"interpolation":"STEP",
					"output":175
				},
				{
					"input":134,
					"interpolation":"STEP",
					"output":176
				},
				{
					"input":134,
					"interpolation":"STEP",
					"output":177
				},
				{
					"input":134,
					"interpolation":"STEP",
					"output":178
				},
				{
					"input":134,
					"interpolation":"STEP",
					"output":179
				},
				{
					"input":134,
					"interpolation":"STEP",
					"output":180
				},
				{
					"input":134,
					"interpolation":"STEP",
					"output":181
				},
				{
					"input":134,
					"interpolation":"STEP",
					"output":182
				},
				{
					"input":134,
					"interpolation":"STEP",
					"output":183
				},
				{
					"input":134,
					"interpolation":"STEP",
					"output":184
				}
			]
		},
		{
			"channels":[
				{
					"sampler":0,
					"target":{
						"node":16,
						"path":"translation"
					}
				},
				{
					"sampler":1,
					"target":{
						"node":16,
						"path":"rotation"
					}
				},
				{
					"sampler":2,
					"target":{
						"node":16,
						"path":"scale"
					}
				},
				{
					"sampler":3,
					"target":{
						"node":9,
						"path":"translation"
					}
				},
				{
					"sampler":4,
					"target":{
						"node":9,
						"path":"rotation"
					}
				},
				{
					"sampler":5,
					"target":{
						"node":9,
						"path":"scale"
					}
				},
				{
					"sampler":6,
					"target":{
						"node":8,
						"path":"translation"
					}
				},
				{
					"sampler":7,
					"target":{
						"node":8,
						"path":"rotation"
					}
				},
				{
					"sampler":8,
					"target":{
						"node":8,
						"path":"scale"
					}
				},
				{
					"sampler":9,
					"target":{
						"node":1,
						"path":"translation"
					}
				},
				{
					"sampler":10,
					"target":{
						"node":1,
						"path":"rotation"
					}
				},
				{
					"sampler":11,
					"target":{
						"node":1,
						"path":"scale"
					}
				},
				{
					"sampler":12,
					"target":{
						"node":0,
						"path":"translation"
					}
				},
				{
					"sampler":13,
					"target":{
						"node":0,
						"path":"rotation"
					}
				},
				{
					"sampler":14,
					"target":{
						"node":0,
						"path":"scale"
					}
				},
				{
					"sampler":15,
					"target":{
						"node":4,
						"path":"translation"
					}
				},
				{
					"sampler":16,
					"target":{
						"node":4,
						"path":"rotation"
					}
				},
				{
					"sampler":17,
					"target":{
						"node":4,
						"path":"scale"
					}
				},
				{
					"sampler":18,
					"target":{
						"node":3,
						"path":"translation"
					}
				},
				{
					"sampler":19,
					"target":{
						"node":3,
						"path":"rotation"
					}
				},
				{
					"sampler":20,
					"target":{
						"node":3,
						"path":"scale"
					}
				},
				{
					"sampler":21,
					"target":{
						"node":2,
						"path":"translation"
					}
				},
				{
					"sampler":22,
					"target":{
						"node":2,
						"path":"rotation"
					}
				},
				{
					"sampler":23,
					"target":{
						"node":2,
						"path":"scale"
					}
				},
				{
					"sampler":24,
					"target":{
						"node":7,
						"path":"translation"
					}
				},
				{
					"sampler":25,
					"target":{
						"node":7,
						"path":"rotation"
					}
				},
				{
					"sampler":26,
					"target":{
						"node":7,
						"path":"scale"
					}
				},
				{
					"sampler":27,
					"target":{
						"node":6,
						"path":"translation"
					}
				},
				{
					"sampler":28,
					"target":{
						"node":6,
						"path":"rotation"
					}
				},
				{
					"sampler":29,
					"target":{
						"node":6,
						"path":"scale"
					}
				},
				{
					"sampler":30,
					"target":{
						"node":5,
						"path":"translation"
					}
				},
				{
					"sampler":31,
					"target":{
						"node":5,
						"path":"rotation"
					}
				},
				{
					"sampler":32,
					"target":{
						"node":5,
						"path":"scale"
					}
				},
				{
					"sampler":33,
					"target":{
						"node":12,
						"path":"translation"
					}
				},
				{
					"sampler":34,
					"target":{
						"node":12,
						"path":"rotation"
					}
				},
				{
					"sampler":35,
					"target":{
						"node":12,
						"path":"scale"
					}
				},
				{
					"sampler":36,
					"target":{
						"node":11,
						"path":"translation"
					}
				},
				{
					"sampler":37,
					"target":{
						"node":11,
						"path":"rotation"
					}
				},
				{
					"sampler":38,
					"target":{
						"node":11,
						"path":"scale"
					}
				},
				{
					"sampler":39,
					"target":{
						"node":10,
						"path":"translation"
					}
				},
				{
					"sampler":40,
					"target":{
						"node":10,
						"path":"rotation"
					}
				},
				{
					"sampler":41,
					"target":{
						"node":10,
						"path":"scale"
					}
				},
				{
					"sampler":42,
					"target":{
						"node":15,
						"path":"translation"
					}
				},
				{
					"sampler":43,
					"target":{
						"node":15,
						"path":"rotation"
					}
				},
				{
					"sampler":44,
					"target":{
						"node":15,
						"path":"scale"
					}
				},
				{
					"sampler":45,
					"target":{
						"node":14,
						"path":"translation"
					}
				},
				{
					"sampler":46,
					"target":{
						"node":14,
						"path":"rotation"
					}
				},
				{
					"sampler":47,
					"target":{
						"node":14,
						"path":"scale"
					}
				},
				{
					"sampler":48,
					"target":{
						"node":13,
						"path":"translation"
					}
				},
				{
					"sampler":49,
					"target":{
						"node":13,
						"path":"rotation"
					}
				},
				{
					"sampler":50,
					"target":{
						"node":13,
						"path":"scale"
					}
				}
			],
			"name":"walk",
			"samplers":[
				{
					"input":185,
					"interpolation":"LINEAR",
					"output":186
				},
				{
					"input":185,
					"interpolation":"LINEAR",
					"output":187
				},
				{
					"input":188,
					"interpolation":"STEP",
					"output":189
				},
				{
					"input":188,
					"interpolation":"STEP",
					"output":190
				},
				{
					"input":188,
					"interpolation":"STEP",
					"output":191
				},
				{
					"input":188,
					"interpolation":"STEP",
					"output":192
				},
				{
					"input":188,
					"interpolation":"STEP",
					"output":193
				},
				{
					"input":185,
					"interpolation":"LINEAR",
					"output":194
				},
				{
					"input":188,
					"interpolation":"STEP",
					"output":195
				},
				{
					"input":188,
					"interpolation":"STEP",
					"output":196
				},
				{
					"input":188,
					"interpolation":"STEP",
					"output":197
				},
				{
					"input":188,
					"interpolation":"STEP",
					"output":198
				},
				{
					"input":188,
					"interpolation":"STEP",
					"output":199
				},
				{
					"input":188,
					"interpolation":"STEP",
					"output":200
				},
				{
					"input":188,
					"interpolation":"STEP",
					"output":201
				},
				{
					"input":188,
					"interpolation":"STEP",
					"output":202
				},
				{
					"input":185,
					"interpolation":"LINEAR",
					"output":203
				},
				{
					"input":188,
					"interpolation":"STEP",
					"output":204
				},
				{
					"input":188,
					"interpolation":"STEP",
					"output":205
				},
				{
					"input":188,
					"interpolation":"STEP",
					"output":206
				},
				{
					"input":188,
					"interpolation":"STEP",
					"output":207
				},
				{
					"input":188,
					"interpolation":"STEP",
					"output":208
				},
				{
					"input":188,
					"interpolation":"STEP",
					"output":209
				},
				{
					"input":188,
					"interpolation":"STEP",
					"output":210
				},
				{
					"input":188,
					"interpolation":"STEP",
					"output":211
				},
				{
					"input":185,
					"interpolation":"LINEAR",
					"output":212
				},
				{
					"input":188,
					"interpolation":"STEP",
					"output":213
				},
				{
					"input":188,
					"interpolation":"STEP",
					"output":214
				},
				{
					"input":188,
					"interpolation":"STEP",
					"output":215
				},
				{
					"input":188,
					"interpolation":"STEP",
					"output":216
				},
				{
					"input":188,
					"interpolation":"STEP",
					"output":217
				},
				{
					"input":188,
					"interpolation":"STEP",
					"output":218
				},
				{
					"input":188,
					"interpolation":"STEP",
					"output":219
				},
				{
					"input":188,
					"interpolation":"STEP",
					"output":220
				},
				{
					"input":185,
					"interpolation":"LINEAR",
					"output":221
				},
				{
					"input":188,
					"interpolation":"STEP",
					"output":222
				},
				{
					"input":188,
					"interpolation":"STEP",
					"output":223
				},
				{
					"input":185,
					"interpolation":"LINEAR",
					"output":224
				},
				{
					"input":188,
					"interpolation":"STEP",
					"output":225
				},
				{
					"input":188,
					"interpolation":"STEP",
					"output":226
				},
				{
					"input":185,
					"interpolation":"LINEAR",
					"output":227
				},
				{
					"input":188,
					"interpolation":"STEP",
					"output":228
				},
				{
					"input":188,
					"interpolation":"STEP",
					"output":229
				},
				{
					"input":185,
					"interpolation":"LINEAR",
					"output":230
				},
				{
					"input":188,
					"interpolation":"STEP",
					"output":231
				},
				{
					"input":188,
					"interpolation":"STEP",
					"output":232
				},
				{
					"input":185,
					"interpolation":"LINEAR",
					"output":233
				},
				{
					"input":188,
					"interpolation":"STEP",
					"output":234
				},
				{
					"input":188,
					"interpolation":"STEP",
					"output":235
				},
				{
					"input":185,
					"interpolation":"LINEAR",
					"output":236
				},
				{
					"input":188,
					"interpolation":"STEP",
					"output":237
				}
			]
		}
	],
	"materials":[
		{
			"name":"skin",
			"normalTexture":{
				"index":0,
				"scale":0.4000000059604645
			},
			"pbrMetallicRoughness":{
				"baseColorFactor":[
					0.31854677200317383,
					0.2632734179496765,
					0.17064493894577026,
					1
				],
				"metallicFactor":0,
				"roughnessFactor":0.550000011920929
			}
		},
		{
			"extensions":{
				"KHR_materials_sheen":{
					"sheenColorFactor":[
						1.0,
						1.0,
						1.0
					],
					"sheenRoughnessFactor":0.5
				}
			},
			"name":"hair",
			"normalTexture":{
				"index":1,
				"scale":0.800000011920929
			},
			"pbrMetallicRoughness":{
				"baseColorFactor":[
					0.07323895394802094,
					0.05087608844041824,
					0.03310476616024971,
					1
				],
				"metallicFactor":0,
				"roughnessFactor":0.44999998807907104
			}
		},
		{
			"extensions":{
				"KHR_materials_sheen":{
					"sheenColorFactor":[
						1.0,
						1.0,
						1.0
					],
					"sheenRoughnessFactor":0.5
				}
			},
			"name":"outfit",
			"normalTexture":{
				"index":2,
				"scale":0.6000000238418579
			},
			"pbrMetallicRoughness":{
				"baseColorFactor":[
					0.21404114365577698,
					0.17064493894577026,
					0.10048151016235352,
					1
				],
				"metallicFactor":0,
				"roughnessFactor":0.75
			}
		},
		{
			"name":"outfit2",
			"normalTexture":{
				"index":3,
				"scale":0.4000000059604645
			},
			"pbrMetallicRoughness":{
				"baseColorFactor":[
					0.4479884207248688,
					0.38005632162094116,
					0.21404114365577698,
					1
				],
				"metallicFactor":0,
				"roughnessFactor":0.6000000238418579
			}
		},
		{
			"name":"pants",
			"normalTexture":{
				"index":4,
				"scale":0.6000000238418579
			},
			"pbrMetallicRoughness":{
				"baseColorFactor":[
					0.10048151016235352,
					0.08088690787553787,
					0.04889732599258423,
					1
				],
				"metallicFactor":0,
				"roughnessFactor":0.800000011920929
			}
		},
		{
			"extensions":{
				"KHR_materials_clearcoat":{
					"clearcoatFactor":0.30000001192092896
				}
			},
			"name":"boots",
			"normalTexture":{
				"index":5,
				"scale":0.800000011920929
			},
			"pbrMetallicRoughness":{
				"baseColorFactor":[
					0.0134117491543293,
					0.010022825561463833,
					0.010022825561463833,
					1
				],
				"metallicFactor":0,
				"roughnessFactor":0.44999998807907104
			}
		},
		{
			"name":"eye_white",
			"pbrMetallicRoughness":{
				"baseColorFactor":[
					0.8900054097175598,
					0.8900054097175598,
					0.8900054097175598,
					1
				],
				"metallicFactor":0,
				"roughnessFactor":0.20000000298023224
			}
		},
		{
			"emissiveFactor":[
				0.011763989275256348,
				0.011763989275256348,
				0.019862860485428957
			],
			"name":"iris",
			"pbrMetallicRoughness":{
				"baseColorFactor":[
					0.01960664801299572,
					0.01960664801299572,
					0.03310476616024971,
					1
				],
				"metallicFactor":0,
				"roughnessFactor":0.15000000596046448
			}
		},
		{
			"name":"pupil",
			"pbrMetallicRoughness":{
				"baseColorFactor":[
					0.0015479875728487968,
					0.0015479875728487968,
					0.0023219813592731953,
					1
				],
				"metallicFactor":0,
				"roughnessFactor":0.10000000149011612
			}
		},
		{
			"name":"lips",
			"pbrMetallicRoughness":{
				"baseColorFactor":[
					0.1473190039396286,
					0.12259718775749207,
					0.08088690787553787,
					1
				],
				"metallicFactor":0,
				"roughnessFactor":0.4000000059604645
			}
		},
		{
			"name":"tusk",
			"pbrMetallicRoughness":{
				"baseColorFactor":[
					0.8900054097175598,
					0.8275708556175232,
					0.6038273572921753,
					1
				],
				"metallicFactor":0,
				"roughnessFactor":0.3499999940395355
			}
		},
		{
			"name":"buckle",
			"pbrMetallicRoughness":{
				"baseColorFactor":[
					0.6920710802078247,
					0.4479884207248688,
					0.07323895394802094,
					1
				],
				"metallicFactor":0.8999999761581421,
				"roughnessFactor":0.30000001192092896
			}
		},
		{
			"name":"wood",
			"normalTexture":{
				"index":6,
				"scale":0.6000000238418579
			},
			"pbrMetallicRoughness":{
				"baseColorFactor":[
					0.13286831974983215,
					0.06372379511594772,
					0.01960664801299572,
					1
				],
				"metallicFactor":0,
				"roughnessFactor":0.800000011920929
			}
		}
	],
	"meshes":[
		{
			"name":"geld_new",
			"primitives":[
				{
					"attributes":{
						"POSITION":0,
						"NORMAL":1,
						"TEXCOORD_0":2,
						"JOINTS_0":3,
						"WEIGHTS_0":4
					},
					"indices":5,
					"material":0
				},
				{
					"attributes":{
						"POSITION":6,
						"NORMAL":7,
						"TEXCOORD_0":8,
						"JOINTS_0":9,
						"WEIGHTS_0":10
					},
					"indices":11,
					"material":1
				},
				{
					"attributes":{
						"POSITION":12,
						"NORMAL":13,
						"TEXCOORD_0":14,
						"JOINTS_0":15,
						"WEIGHTS_0":16
					},
					"indices":17,
					"material":2
				},
				{
					"attributes":{
						"POSITION":18,
						"NORMAL":19,
						"TEXCOORD_0":20,
						"JOINTS_0":21,
						"WEIGHTS_0":22
					},
					"indices":23,
					"material":3
				},
				{
					"attributes":{
						"POSITION":24,
						"NORMAL":25,
						"TEXCOORD_0":26,
						"JOINTS_0":27,
						"WEIGHTS_0":28
					},
					"indices":29,
					"material":4
				},
				{
					"attributes":{
						"POSITION":30,
						"NORMAL":31,
						"TEXCOORD_0":32,
						"JOINTS_0":33,
						"WEIGHTS_0":34
					},
					"indices":35,
					"material":5
				},
				{
					"attributes":{
						"POSITION":36,
						"NORMAL":37,
						"TEXCOORD_0":38,
						"JOINTS_0":39,
						"WEIGHTS_0":40
					},
					"indices":41,
					"material":6
				},
				{
					"attributes":{
						"POSITION":42,
						"NORMAL":43,
						"TEXCOORD_0":44,
						"JOINTS_0":45,
						"WEIGHTS_0":46
					},
					"indices":47,
					"material":7
				},
				{
					"attributes":{
						"POSITION":48,
						"NORMAL":49,
						"TEXCOORD_0":50,
						"JOINTS_0":51,
						"WEIGHTS_0":52
					},
					"indices":53,
					"material":8
				},
				{
					"attributes":{
						"POSITION":54,
						"NORMAL":55,
						"TEXCOORD_0":56,
						"JOINTS_0":57,
						"WEIGHTS_0":58
					},
					"indices":59,
					"material":9
				},
				{
					"attributes":{
						"POSITION":60,
						"NORMAL":61,
						"TEXCOORD_0":62,
						"JOINTS_0":63,
						"WEIGHTS_0":64
					},
					"indices":65,
					"material":10
				},
				{
					"attributes":{
						"POSITION":66,
						"NORMAL":67,
						"TEXCOORD_0":68,
						"JOINTS_0":69,
						"WEIGHTS_0":70
					},
					"indices":71,
					"material":11
				},
				{
					"attributes":{
						"POSITION":72,
						"NORMAL":73,
						"TEXCOORD_0":74,
						"JOINTS_0":75,
						"WEIGHTS_0":76
					},
					"indices":77,
					"material":12
				}
			]
		}
	],
	"textures":[
		{
			"sampler":0,
			"source":0
		},
		{
			"sampler":0,
			"source":1
		},
		{
			"sampler":0,
			"source":2
		},
		{
			"sampler":0,
			"source":2
		},
		{
			"sampler":0,
			"source":2
		},
		{
			"sampler":0,
			"source":3
		},
		{
			"sampler":0,
			"source":3
		}
	],
	"images":[
		{
			"mimeType":"image/png",
			"name":"N_skin",
			"uri":"texturas/N_skin.png"
		},
		{
			"mimeType":"image/png",
			"name":"N_hair",
			"uri":"texturas/N_hair.png"
		},
		{
			"mimeType":"image/png",
			"name":"N_cloth",
			"uri":"texturas/N_cloth.png"
		},
		{
			"mimeType":"image/png",
			"name":"N_leather",
			"uri":"texturas/N_leather.png"
		}
	],
	"skins":[
		{
			"inverseBindMatrices":78,
			"joints":[
				16,
				9,
				8,
				1,
				0,
				4,
				3,
				2,
				7,
				6,
				5,
				12,
				11,
				10,
				15,
				14,
				13
			],
			"name":"geld_new_rig"
		}
	],
	"accessors":[
		{
			"bufferView":0,
			"componentType":5126,
			"count":2262,
			"max":[
				0.6086618304252625,
				2.319199800491333,
				0.13937632739543915
			],
			"min":[
				-0.6086618304252625,
				1.0198081731796265,
				-0.23935537040233612
			],
			"type":"VEC3"
		},
		{
			"bufferView":1,
			"componentType":5126,
			"count":2262,
			"type":"VEC3"
		},
		{
			"bufferView":2,
			"componentType":5126,
			"count":2262,
			"type":"VEC2"
		},
		{
			"bufferView":3,
			"componentType":5121,
			"count":2262,
			"type":"VEC4"
		},
		{
			"bufferView":4,
			"componentType":5126,
			"count":2262,
			"type":"VEC4"
		},
		{
			"bufferView":5,
			"componentType":5123,
			"count":9396,
			"type":"SCALAR"
		},
		{
			"bufferView":6,
			"componentType":5126,
			"count":2707,
			"max":[
				0.15440163016319275,
				2.354363203048706,
				0.18042953312397003
			],
			"min":[
				-0.15322014689445496,
				1.991746187210083,
				-0.14479368925094604
			],
			"type":"VEC3"
		},
		{
			"bufferView":7,
			"componentType":5126,
			"count":2707,
			"type":"VEC3"
		},
		{
			"bufferView":8,
			"componentType":5126,
			"count":2707,
			"type":"VEC2"
		},
		{
			"bufferView":9,
			"componentType":5121,
			"count":2707,
			"type":"VEC4"
		},
		{
			"bufferView":10,
			"componentType":5126,
			"count":2707,
			"type":"VEC4"
		},
		{
			"bufferView":11,
			"componentType":5123,
			"count":8328,
			"type":"SCALAR"
		},
		{
			"bufferView":12,
			"componentType":5126,
			"count":370,
			"max":[
				0.5483145713806152,
				1.9104098081588745,
				0.26536881923675537
			],
			"min":[
				-0.5483145713806152,
				1.234424114227295,
				-0.26756852865219116
			],
			"type":"VEC3"
		},
		{
			"bufferView":13,
			"componentType":5126,
			"count":370,
			"type":"VEC3"
		},
		{
			"bufferView":14,
			"componentType":5126,
			"count":370,
			"type":"VEC2"
		},
		{
			"bufferView":15,
			"componentType":5121,
			"count":370,
			"type":"VEC4"
		},
		{
			"bufferView":16,
			"componentType":5126,
			"count":370,
			"type":"VEC4"
		},
		{
			"bufferView":17,
			"componentType":5123,
			"count":1380,
			"type":"SCALAR"
		},
		{
			"bufferView":18,
			"componentType":5126,
			"count":60,
			"max":[
				0.26460734009742737,
				1.3167140483856201,
				0.27348074316978455
			],
			"min":[
				-0.26460736989974976,
				1.141739010810852,
				-0.27522534132003784
			],
			"type":"VEC3"
		},
		{
			"bufferView":19,
			"componentType":5126,
			"count":60,
			"type":"VEC3"
		},
		{
			"bufferView":20,
			"componentType":5126,
			"count":60,
			"type":"VEC2"
		},
		{
			"bufferView":21,
			"componentType":5121,
			"count":60,
			"type":"VEC4"
		},
		{
			"bufferView":22,
			"componentType":5126,
			"count":60,
			"type":"VEC4"
		},
		{
			"bufferView":23,
			"componentType":5123,
			"count":168,
			"type":"SCALAR"
		},
		{
			"bufferView":24,
			"componentType":5126,
			"count":675,
			"max":[
				0.6005486249923706,
				1.234424114227295,
				0.272108793258667
			],
			"min":[
				-0.6005485653877258,
				0.3785780966281891,
				-0.2740321159362793
			],
			"type":"VEC3"
		},
		{
			"bufferView":25,
			"componentType":5126,
			"count":675,
			"type":"VEC3"
		},
		{
			"bufferView":26,
			"componentType":5126,
			"count":675,
			"type":"VEC2"
		},
		{
			"bufferView":27,
			"componentType":5121,
			"count":675,
			"type":"VEC4"
		},
		{
			"bufferView":28,
			"componentType":5126,
			"count":675,
			"type":"VEC4"
		},
		{
			"bufferView":29,
			"componentType":5123,
			"count":2808,
			"type":"SCALAR"
		},
		{
			"bufferView":30,
			"componentType":5126,
			"count":874,
			"max":[
				0.30313917994499207,
				0.38837870955467224,
				0.122190460562706
			],
			"min":[
				-0.30313920974731445,
				0.009885283187031746,
				-0.18215490877628326
			],
			"type":"VEC3"
		},
		{
			"bufferView":31,
			"componentType":5126,
			"count":874,
			"type":"VEC3"
		},
		{
			"bufferView":32,
			"componentType":5126,
			"count":874,
			"type":"VEC2"
		},
		{
			"bufferView":33,
			"componentType":5121,
			"count":874,
			"type":"VEC4"
		},
		{
			"bufferView":34,
			"componentType":5126,
			"count":874,
			"type":"VEC4"
		},
		{
			"bufferView":35,
			"componentType":5123,
			"count":3840,
			"type":"SCALAR"
		},
		{
			"bufferView":36,
			"componentType":5126,
			"count":304,
			"max":[
				0.06629999727010727,
				2.1924498081207275,
				-0.09099999815225601
			],
			"min":[
				-0.06629999727010727,
				2.1625499725341797,
				-0.1143999919295311
			],
			"type":"VEC3"
		},
		{
			"bufferView":37,
			"componentType":5126,
			"count":304,
			"type":"VEC3"
		},
		{
			"bufferView":38,
			"componentType":5126,
			"count":304,
			"type":"VEC2"
		},
		{
			"bufferView":39,
			"componentType":5121,
			"count":304,
			"type":"VEC4"
		},
		{
			"bufferView":40,
			"componentType":5126,
			"count":304,
			"type":"VEC4"
		},
		{
			"bufferView":41,
			"componentType":5123,
			"count":1152,
			"type":"SCALAR"
		},
		{
			"bufferView":42,
			"componentType":5126,
			"count":220,
			"max":[
				0.05654999613761902,
				2.190239906311035,
				-0.10558632016181946
			],
			"min":[
				-0.05654999613761902,
				2.164759874343872,
				-0.11671368032693863
			],
			"type":"VEC3"
		},
		{
			"bufferView":43,
			"componentType":5126,
			"count":220,
			"type":"VEC3"
		},
		{
			"bufferView":44,
			"componentType":5126,
			"count":220,
			"type":"VEC2"
		},
		{
			"bufferView":45,
			"componentType":5121,
			"count":220,
			"type":"VEC4"
		},
		{
			"bufferView":46,
			"componentType":5126,
			"count":220,
			"type":"VEC4"
		},
		{
			"bufferView":47,
			"componentType":5123,
			"count":720,
			"type":"SCALAR"
		},
		{
			"bufferView":48,
			"componentType":5126,
			"count":260,
			"max":[
				0.04939276725053787,
				2.183349847793579,
				-0.11296725273132324
			],
			"min":[
				-0.04939276725053787,
				2.113800048828125,
				-0.15807749330997467
			],
			"type":"VEC3"
		},
		{
			"bufferView":49,
			"componentType":5126,
			"count":260,
			"type":"VEC3"
		},
		{
			"bufferView":50,
			"componentType":5126,
			"count":260,
			"type":"VEC2"
		},
		{
			"bufferView":51,
			"componentType":5121,
			"count":260,
			"type":"VEC4"
		},
		{
			"bufferView":52,
			"componentType":5126,
			"count":260,
			"type":"VEC4"
		},
		{
			"bufferView":53,
			"componentType":5123,
			"count":768,
			"type":"SCALAR"
		},
		{
			"bufferView":54,
			"componentType":5126,
			"count":98,
			"max":[
				0.024699999019503593,
				2.089749813079834,
				-0.10103631764650345
			],
			"min":[
				-0.024699999019503593,
				2.078049898147583,
				-0.11216367781162262
			],
			"type":"VEC3"
		},
		{
			"bufferView":55,
			"componentType":5126,
			"count":98,
			"type":"VEC3"
		},
		{
			"bufferView":56,
			"componentType":5126,
			"count":98,
			"type":"VEC2"
		},
		{
			"bufferView":57,
			"componentType":5121,
			"count":98,
			"type":"VEC4"
		},
		{
			"bufferView":58,
			"componentType":5126,
			"count":98,
			"type":"VEC4"
		},
		{
			"bufferView":59,
			"componentType":5123,
			"count":360,
			"type":"SCALAR"
		},
		{
			"bufferView":60,
			"componentType":5126,
			"count":88,
			"max":[
				0.05318848416209221,
				2.1387548446655273,
				-0.08286777138710022
			],
			"min":[
				-0.05318848416209221,
				2.063263416290283,
				-0.11665189266204834
			],
			"type":"VEC3"
		},
		{
			"bufferView":61,
			"componentType":5126,
			"count":88,
			"type":"VEC3"
		},
		{
			"bufferView":62,
			"componentType":5126,
			"count":88,
			"type":"VEC2"
		},
		{
			"bufferView":63,
			"componentType":5121,
			"count":88,
			"type":"VEC4"
		},
		{
			"bufferView":64,
			"componentType":5126,
			"count":88,
			"type":"VEC4"
		},
		{
			"bufferView":65,
			"componentType":5123,
			"count":216,
			"type":"SCALAR"
		},
		{
			"bufferView":66,
			"componentType":5126,
			"count":24,
			"max":[
				0.032499998807907104,
				1.2610000371932983,
				-0.18394999206066132
			],
			"min":[
				-0.032499998807907104,
				1.2089999914169312,
				-0.19955000281333923
			],
			"type":"VEC3"
		},
		{
			"bufferView":67,
			"componentType":5126,
			"count":24,
			"type":"VEC3"
		},
		{
			"bufferView":68,
			"componentType":5126,
			"count":24,
			"type":"VEC2"
		},
		{
			"bufferView":69,
			"componentType":5121,
			"count":24,
			"type":"VEC4"
		},
		{
			"bufferView":70,
			"componentType":5126,
			"count":24,
			"type":"VEC4"
		},
		{
			"bufferView":71,
			"componentType":5123,
			"count":36,
			"type":"SCALAR"
		},
		{
			"bufferView":72,
			"componentType":5126,
			"count":64,
			"max":[
				0.6645599603652954,
				1.1108646392822266,
				0.07502393424510956
			],
			"min":[
				0.4825599789619446,
				0.5609710812568665,
				-0.9571388959884644
			],
			"type":"VEC3"
		},
		{
			"bufferView":73,
			"componentType":5126,
			"count":64,
			"type":"VEC3"
		},
		{
			"bufferView":74,
			"componentType":5126,
			"count":64,
			"type":"VEC2"
		},
		{
			"bufferView":75,
			"componentType":5121,
			"count":64,
			"type":"VEC4"
		},
		{
			"bufferView":76,
			"componentType":5126,
			"count":64,
			"type":"VEC4"
		},
		{
			"bufferView":77,
			"componentType":5123,
			"count":180,
			"type":"SCALAR"
		},
		{
			"bufferView":78,
			"componentType":5126,
			"count":17,
			"type":"MAT4"
		},
		{
			"bufferView":79,
			"componentType":5126,
			"count":2,
			"max":[
				0.6
			],
			"min":[
				0
			],
			"type":"SCALAR"
		},
		{
			"bufferView":80,
			"componentType":5126,
			"count":2,
			"type":"VEC3"
		},
		{
			"bufferView":81,
			"componentType":5126,
			"count":2,
			"type":"VEC4"
		},
		{
			"bufferView":82,
			"componentType":5126,
			"count":2,
			"type":"VEC3"
		},
		{
			"bufferView":83,
			"componentType":5126,
			"count":2,
			"type":"VEC3"
		},
		{
			"bufferView":84,
			"componentType":5126,
			"count":2,
			"type":"VEC4"
		},
		{
			"bufferView":85,
			"componentType":5126,
			"count":2,
			"type":"VEC3"
		},
		{
			"bufferView":86,
			"componentType":5126,
			"count":2,
			"type":"VEC3"
		},
		{
			"bufferView":87,
			"componentType":5126,
			"count":19,
			"max":[
				0.6
			],
			"min":[
				0
			],
			"type":"SCALAR"
		},
		{
			"bufferView":88,
			"componentType":5126,
			"count":19,
			"type":"VEC4"
		},
		{
			"bufferView":89,
			"componentType":5126,
			"count":2,
			"type":"VEC3"
		},
		{
			"bufferView":90,
			"componentType":5126,
			"count":2,
			"type":"VEC3"
		},
		{
			"bufferView":91,
			"componentType":5126,
			"count":2,
			"type":"VEC4"
		},
		{
			"bufferView":92,
			"componentType":5126,
			"count":2,
			"type":"VEC3"
		},
		{
			"bufferView":93,
			"componentType":5126,
			"count":2,
			"type":"VEC3"
		},
		{
			"bufferView":94,
			"componentType":5126,
			"count":2,
			"type":"VEC4"
		},
		{
			"bufferView":95,
			"componentType":5126,
			"count":2,
			"type":"VEC3"
		},
		{
			"bufferView":96,
			"componentType":5126,
			"count":2,
			"type":"VEC3"
		},
		{
			"bufferView":97,
			"componentType":5126,
			"count":19,
			"type":"VEC4"
		},
		{
			"bufferView":98,
			"componentType":5126,
			"count":2,
			"type":"VEC3"
		},
		{
			"bufferView":99,
			"componentType":5126,
			"count":2,
			"type":"VEC3"
		},
		{
			"bufferView":100,
			"componentType":5126,
			"count":19,
			"type":"VEC4"
		},
		{
			"bufferView":101,
			"componentType":5126,
			"count":2,
			"type":"VEC3"
		},
		{
			"bufferView":102,
			"componentType":5126,
			"count":2,
			"type":"VEC3"
		},
		{
			"bufferView":103,
			"componentType":5126,
			"count":2,
			"type":"VEC4"
		},
		{
			"bufferView":104,
			"componentType":5126,
			"count":2,
			"type":"VEC3"
		},
		{
			"bufferView":105,
			"componentType":5126,
			"count":2,
			"type":"VEC3"
		},
		{
			"bufferView":106,
			"componentType":5126,
			"count":19,
			"type":"VEC4"
		},
		{
			"bufferView":107,
			"componentType":5126,
			"count":2,
			"type":"VEC3"
		},
		{
			"bufferView":108,
			"componentType":5126,
			"count":2,
			"type":"VEC3"
		},
		{
			"bufferView":109,
			"componentType":5126,
			"count":2,
			"type":"VEC4"
		},
		{
			"bufferView":110,
			"componentType":5126,
			"count":2,
			"type":"VEC3"
		},
		{
			"bufferView":111,
			"componentType":5126,
			"count":2,
			"type":"VEC3"
		},
		{
			"bufferView":112,
			"componentType":5126,
			"count":2,
			"type":"VEC4"
		},
		{
			"bufferView":113,
			"componentType":5126,
			"count":2,
			"type":"VEC3"
		},
		{
			"bufferView":114,
			"componentType":5126,
			"count":2,
			"type":"VEC3"
		},
		{
			"bufferView":115,
			"componentType":5126,
			"count":19,
			"type":"VEC4"
		},
		{
			"bufferView":116,
			"componentType":5126,
			"count":2,
			"type":"VEC3"
		},
		{
			"bufferView":117,
			"componentType":5126,
			"count":2,
			"type":"VEC3"
		},
		{
			"bufferView":118,
			"componentType":5126,
			"count":2,
			"type":"VEC4"
		},
		{
			"bufferView":119,
			"componentType":5126,
			"count":2,
			"type":"VEC3"
		},
		{
			"bufferView":120,
			"componentType":5126,
			"count":2,
			"type":"VEC3"
		},
		{
			"bufferView":121,
			"componentType":5126,
			"count":2,
			"type":"VEC4"
		},
		{
			"bufferView":122,
			"componentType":5126,
			"count":2,
			"type":"VEC3"
		},
		{
			"bufferView":123,
			"componentType":5126,
			"count":2,
			"type":"VEC3"
		},
		{
			"bufferView":124,
			"componentType":5126,
			"count":19,
			"type":"VEC4"
		},
		{
			"bufferView":125,
			"componentType":5126,
			"count":2,
			"type":"VEC3"
		},
		{
			"bufferView":126,
			"componentType":5126,
			"count":2,
			"type":"VEC3"
		},
		{
			"bufferView":127,
			"componentType":5126,
			"count":2,
			"type":"VEC4"
		},
		{
			"bufferView":128,
			"componentType":5126,
			"count":2,
			"type":"VEC3"
		},
		{
			"bufferView":129,
			"componentType":5126,
			"count":2,
			"type":"VEC3"
		},
		{
			"bufferView":130,
			"componentType":5126,
			"count":2,
			"type":"VEC4"
		},
		{
			"bufferView":131,
			"componentType":5126,
			"count":2,
			"type":"VEC3"
		},
		{
			"bufferView":132,
			"componentType":5126,
			"count":61,
			"max":[
				2
			],
			"min":[
				0
			],
			"type":"SCALAR"
		},
		{
			"bufferView":133,
			"componentType":5126,
			"count":61,
			"type":"VEC3"
		},
		{
			"bufferView":134,
			"componentType":5126,
			"count":2,
			"max":[
				2
			],
			"min":[
				0
			],
			"type":"SCALAR"
		},
		{
			"bufferView":135,
			"componentType":5126,
			"count":2,
			"type":"VEC4"
		},
		{
			"bufferView":136,
			"componentType":5126,
			"count":2,
			"type":"VEC3"
		},
		{
			"bufferView":137,
			"componentType":5126,
			"count":2,
			"type":"VEC3"
		},
		{
			"bufferView":138,
			"componentType":5126,
			"count":2,
			"type":"VEC4"
		},
		{
			"bufferView":139,
			"componentType":5126,
			"count":2,
			"type":"VEC3"
		},
		{
			"bufferView":140,
			"componentType":5126,
			"count":2,
			"type":"VEC3"
		},
		{
			"bufferView":141,
			"componentType":5126,
			"count":61,
			"type":"VEC4"
		},
		{
			"bufferView":142,
			"componentType":5126,
			"count":2,
			"type":"VEC3"
		},
		{
			"bufferView":143,
			"componentType":5126,
			"count":2,
			"type":"VEC3"
		},
		{
			"bufferView":144,
			"componentType":5126,
			"count":2,
			"type":"VEC4"
		},
		{
			"bufferView":145,
			"componentType":5126,
			"count":2,
			"type":"VEC3"
		},
		{
			"bufferView":146,
			"componentType":5126,
			"count":2,
			"type":"VEC3"
		},
		{
			"bufferView":147,
			"componentType":5126,
			"count":61,
			"type":"VEC4"
		},
		{
			"bufferView":148,
			"componentType":5126,
			"count":2,
			"type":"VEC3"
		},
		{
			"bufferView":149,
			"componentType":5126,
			"count":2,
			"type":"VEC3"
		},
		{
			"bufferView":150,
			"componentType":5126,
			"count":61,
			"type":"VEC4"
		},
		{
			"bufferView":151,
			"componentType":5126,
			"count":2,
			"type":"VEC3"
		},
		{
			"bufferView":152,
			"componentType":5126,
			"count":2,
			"type":"VEC3"
		},
		{
			"bufferView":153,
			"componentType":5126,
			"count":2,
			"type":"VEC4"
		},
		{
			"bufferView":154,
			"componentType":5126,
			"count":2,
			"type":"VEC3"
		},
		{
			"bufferView":155,
			"componentType":5126,
			"count":2,
			"type":"VEC3"
		},
		{
			"bufferView":156,
			"componentType":5126,
			"count":2,
			"type":"VEC4"
		},
		{
			"bufferView":157,
			"componentType":5126,
			"count":2,
			"type":"VEC3"
		},
		{
			"bufferView":158,
			"componentType":5126,
			"count":2,
			"type":"VEC3"
		},
		{
			"bufferView":159,
			"componentType":5126,
			"count":61,
			"type":"VEC4"
		},
		{
			"bufferView":160,
			"componentType":5126,
			"count":2,
			"type":"VEC3"
		},
		{
			"bufferView":161,
			"componentType":5126,
			"count":2,
			"type":"VEC3"
		},
		{
			"bufferView":162,
			"componentType":5126,
			"count":2,
			"type":"VEC4"
		},
		{
			"bufferView":163,
			"componentType":5126,
			"count":2,
			"type":"VEC3"
		},
		{
			"bufferView":164,
			"componentType":5126,
			"count":2,
			"type":"VEC3"
		},
		{
			"bufferView":165,
			"componentType":5126,
			"count":2,
			"type":"VEC4"
		},
		{
			"bufferView":166,
			"componentType":5126,
			"count":2,
			"type":"VEC3"
		},
		{
			"bufferView":167,
			"componentType":5126,
			"count":2,
			"type":"VEC3"
		},
		{
			"bufferView":168,
			"componentType":5126,
			"count":2,
			"type":"VEC4"
		},
		{
			"bufferView":169,
			"componentType":5126,
			"count":2,
			"type":"VEC3"
		},
		{
			"bufferView":170,
			"componentType":5126,
			"count":2,
			"type":"VEC3"
		},
		{
			"bufferView":171,
			"componentType":5126,
			"count":2,
			"type":"VEC4"
		},
		{
			"bufferView":172,
			"componentType":5126,
			"count":2,
			"type":"VEC3"
		},
		{
			"bufferView":173,
			"componentType":5126,
			"count":2,
			"type":"VEC3"
		},
		{
			"bufferView":174,
			"componentType":5126,
			"count":2,
			"type":"VEC4"
		},
		{
			"bufferView":175,
			"componentType":5126,
			"count":2,
			"type":"VEC3"
		},
		{
			"bufferView":176,
			"componentType":5126,
			"count":2,
			"type":"VEC3"
		},
		{
			"bufferView":177,
			"componentType":5126,
			"count":2,
			"type":"VEC4"
		},
		{
			"bufferView":178,
			"componentType":5126,
			"count":2,
			"type":"VEC3"
		},
		{
			"bufferView":179,
			"componentType":5126,
			"count":2,
			"type":"VEC3"
		},
		{
			"bufferView":180,
			"componentType":5126,
			"count":2,
			"type":"VEC4"
		},
		{
			"bufferView":181,
			"componentType":5126,
			"count":2,
			"type":"VEC3"
		},
		{
			"bufferView":182,
			"componentType":5126,
			"count":2,
			"type":"VEC3"
		},
		{
			"bufferView":183,
			"componentType":5126,
			"count":2,
			"type":"VEC4"
		},
		{
			"bufferView":184,
			"componentType":5126,
			"count":2,
			"type":"VEC3"
		},
		{
			"bufferView":185,
			"componentType":5126,
			"count":31,
			"max":[
				1
			],
			"min":[
				0
			],
			"type":"SCALAR"
		},
		{
			"bufferView":186,
			"componentType":5126,
			"count":31,
			"type":"VEC3"
		},
		{
			"bufferView":187,
			"componentType":5126,
			"count":31,
			"type":"VEC4"
		},
		{
			"bufferView":188,
			"componentType":5126,
			"count":2,
			"max":[
				1
			],
			"min":[
				0
			],
			"type":"SCALAR"
		},
		{
			"bufferView":189,
			"componentType":5126,
			"count":2,
			"type":"VEC3"
		},
		{
			"bufferView":190,
			"componentType":5126,
			"count":2,
			"type":"VEC3"
		},
		{
			"bufferView":191,
			"componentType":5126,
			"count":2,
			"type":"VEC4"
		},
		{
			"bufferView":192,
			"componentType":5126,
			"count":2,
			"type":"VEC3"
		},
		{
			"bufferView":193,
			"componentType":5126,
			"count":2,
			"type":"VEC3"
		},
		{
			"bufferView":194,
			"componentType":5126,
			"count":31,
			"type":"VEC4"
		},
		{
			"bufferView":195,
			"componentType":5126,
			"count":2,
			"type":"VEC3"
		},
		{
			"bufferView":196,
			"componentType":5126,
			"count":2,
			"type":"VEC3"
		},
		{
			"bufferView":197,
			"componentType":5126,
			"count":2,
			"type":"VEC4"
		},
		{
			"bufferView":198,
			"componentType":5126,
			"count":2,
			"type":"VEC3"
		},
		{
			"bufferView":199,
			"componentType":5126,
			"count":2,
			"type":"VEC3"
		},
		{
			"bufferView":200,
			"componentType":5126,
			"count":2,
			"type":"VEC4"
		},
		{
			"bufferView":201,
			"componentType":5126,
			"count":2,
			"type":"VEC3"
		},
		{
			"bufferView":202,
			"componentType":5126,
			"count":2,
			"type":"VEC3"
		},
		{
			"bufferView":203,
			"componentType":5126,
			"count":31,
			"type":"VEC4"
		},
		{
			"bufferView":204,
			"componentType":5126,
			"count":2,
			"type":"VEC3"
		},
		{
			"bufferView":205,
			"componentType":5126,
			"count":2,
			"type":"VEC3"
		},
		{
			"bufferView":206,
			"componentType":5126,
			"count":2,
			"type":"VEC4"
		},
		{
			"bufferView":207,
			"componentType":5126,
			"count":2,
			"type":"VEC3"
		},
		{
			"bufferView":208,
			"componentType":5126,
			"count":2,
			"type":"VEC3"
		},
		{
			"bufferView":209,
			"componentType":5126,
			"count":2,
			"type":"VEC4"
		},
		{
			"bufferView":210,
			"componentType":5126,
			"count":2,
			"type":"VEC3"
		},
		{
			"bufferView":211,
			"componentType":5126,
			"count":2,
			"type":"VEC3"
		},
		{
			"bufferView":212,
			"componentType":5126,
			"count":31,
			"type":"VEC4"
		},
		{
			"bufferView":213,
			"componentType":5126,
			"count":2,
			"type":"VEC3"
		},
		{
			"bufferView":214,
			"componentType":5126,
			"count":2,
			"type":"VEC3"
		},
		{
			"bufferView":215,
			"componentType":5126,
			"count":2,
			"type":"VEC4"
		},
		{
			"bufferView":216,
			"componentType":5126,
			"count":2,
			"type":"VEC3"
		},
		{
			"bufferView":217,
			"componentType":5126,
			"count":2,
			"type":"VEC3"
		},
		{
			"bufferView":218,
			"componentType":5126,
			"count":2,
			"type":"VEC4"
		},
		{
			"bufferView":219,
			"componentType":5126,
			"count":2,
			"type":"VEC3"
		},
		{
			"bufferView":220,
			"componentType":5126,
			"count":2,
			"type":"VEC3"
		},
		{
			"bufferView":221,
			"componentType":5126,
			"count":31,
			"type":"VEC4"
		},
		{
			"bufferView":222,
			"componentType":5126,
			"count":2,
			"type":"VEC3"
		},
		{
			"bufferView":223,
			"componentType":5126,
			"count":2,
			"type":"VEC3"
		},
		{
			"bufferView":224,
			"componentType":5126,
			"count":31,
			"type":"VEC4"
		},
		{
			"bufferView":225,
			"componentType":5126,
			"count":2,
			"type":"VEC3"
		},
		{
			"bufferView":226,
			"componentType":5126,
			"count":2,
			"type":"VEC3"
		},
		{
			"bufferView":227,
			"componentType":5126,
			"count":31,
			"type":"VEC4"
		},
		{
			"bufferView":228,
			"componentType":5126,
			"count":2,
			"type":"VEC3"
		},
		{
			"bufferView":229,
			"componentType":5126,
			"count":2,
			"type":"VEC3"
		},
		{
			"bufferView":230,
			"componentType":5126,
			"count":31,
			"type":"VEC4"
		},
		{
			"bufferView":231,
			"componentType":5126,
			"count":2,
			"type":"VEC3"
		},
		{
			"bufferView":232,
			"componentType":5126,
			"count":2,
			"type":"VEC3"
		},
		{
			"bufferView":233,
			"componentType":5126,
			"count":31,
			"type":"VEC4"
		},
		{
			"bufferView":234,
			"componentType":5126,
			"count":2,
			"type":"VEC3"
		},
		{
			"bufferView":235,
			"componentType":5126,
			"count":2,
			"type":"VEC3"
		},
		{
			"bufferView":236,
			"componentType":5126,
			"count":31,
			"type":"VEC4"
		},
		{
			"bufferView":237,
			"componentType":5126,
			"count":2,
			"type":"VEC3"
		}
	],
	"bufferViews":[
		{
			"buffer":0,
			"byteLength":27144,
			"byteOffset":0,
			"target":34962
		},
		{
			"buffer":0,
			"byteLength":27144,
			"byteOffset":27144,
			"target":34962
		},
		{
			"buffer":0,
			"byteLength":18096,
			"byteOffset":54288,
			"target":34962
		},
		{
			"buffer":0,
			"byteLength":9048,
			"byteOffset":72384,
			"target":34962
		},
		{
			"buffer":0,
			"byteLength":36192,
			"byteOffset":81432,
			"target":34962
		},
		{
			"buffer":0,
			"byteLength":18792,
			"byteOffset":117624,
			"target":34963
		},
		{
			"buffer":0,
			"byteLength":32484,
			"byteOffset":136416,
			"target":34962
		},
		{
			"buffer":0,
			"byteLength":32484,
			"byteOffset":168900,
			"target":34962
		},
		{
			"buffer":0,
			"byteLength":21656,
			"byteOffset":201384,
			"target":34962
		},
		{
			"buffer":0,
			"byteLength":10828,
			"byteOffset":223040,
			"target":34962
		},
		{
			"buffer":0,
			"byteLength":43312,
			"byteOffset":233868,
			"target":34962
		},
		{
			"buffer":0,
			"byteLength":16656,
			"byteOffset":277180,
			"target":34963
		},
		{
			"buffer":0,
			"byteLength":4440,
			"byteOffset":293836,
			"target":34962
		},
		{
			"buffer":0,
			"byteLength":4440,
			"byteOffset":298276,
			"target":34962
		},
		{
			"buffer":0,
			"byteLength":2960,
			"byteOffset":302716,
			"target":34962
		},
		{
			"buffer":0,
			"byteLength":1480,
			"byteOffset":305676,
			"target":34962
		},
		{
			"buffer":0,
			"byteLength":5920,
			"byteOffset":307156,
			"target":34962
		},
		{
			"buffer":0,
			"byteLength":2760,
			"byteOffset":313076,
			"target":34963
		},
		{
			"buffer":0,
			"byteLength":720,
			"byteOffset":315836,
			"target":34962
		},
		{
			"buffer":0,
			"byteLength":720,
			"byteOffset":316556,
			"target":34962
		},
		{
			"buffer":0,
			"byteLength":480,
			"byteOffset":317276,
			"target":34962
		},
		{
			"buffer":0,
			"byteLength":240,
			"byteOffset":317756,
			"target":34962
		},
		{
			"buffer":0,
			"byteLength":960,
			"byteOffset":317996,
			"target":34962
		},
		{
			"buffer":0,
			"byteLength":336,
			"byteOffset":318956,
			"target":34963
		},
		{
			"buffer":0,
			"byteLength":8100,
			"byteOffset":319292,
			"target":34962
		},
		{
			"buffer":0,
			"byteLength":8100,
			"byteOffset":327392,
			"target":34962
		},
		{
			"buffer":0,
			"byteLength":5400,
			"byteOffset":335492,
			"target":34962
		},
		{
			"buffer":0,
			"byteLength":2700,
			"byteOffset":340892,
			"target":34962
		},
		{
			"buffer":0,
			"byteLength":10800,
			"byteOffset":343592,
			"target":34962
		},
		{
			"buffer":0,
			"byteLength":5616,
			"byteOffset":354392,
			"target":34963
		},
		{
			"buffer":0,
			"byteLength":10488,
			"byteOffset":360008,
			"target":34962
		},
		{
			"buffer":0,
			"byteLength":10488,
			"byteOffset":370496,
			"target":34962
		},
		{
			"buffer":0,
			"byteLength":6992,
			"byteOffset":380984,
			"target":34962
		},
		{
			"buffer":0,
			"byteLength":3496,
			"byteOffset":387976,
			"target":34962
		},
		{
			"buffer":0,
			"byteLength":13984,
			"byteOffset":391472,
			"target":34962
		},
		{
			"buffer":0,
			"byteLength":7680,
			"byteOffset":405456,
			"target":34963
		},
		{
			"buffer":0,
			"byteLength":3648,
			"byteOffset":413136,
			"target":34962
		},
		{
			"buffer":0,
			"byteLength":3648,
			"byteOffset":416784,
			"target":34962
		},
		{
			"buffer":0,
			"byteLength":2432,
			"byteOffset":420432,
			"target":34962
		},
		{
			"buffer":0,
			"byteLength":1216,
			"byteOffset":422864,
			"target":34962
		},
		{
			"buffer":0,
			"byteLength":4864,
			"byteOffset":424080,
			"target":34962
		},
		{
			"buffer":0,
			"byteLength":2304,
			"byteOffset":428944,
			"target":34963
		},
		{
			"buffer":0,
			"byteLength":2640,
			"byteOffset":431248,
			"target":34962
		},
		{
			"buffer":0,
			"byteLength":2640,
			"byteOffset":433888,
			"target":34962
		},
		{
			"buffer":0,
			"byteLength":1760,
			"byteOffset":436528,
			"target":34962
		},
		{
			"buffer":0,
			"byteLength":880,
			"byteOffset":438288,
			"target":34962
		},
		{
			"buffer":0,
			"byteLength":3520,
			"byteOffset":439168,
			"target":34962
		},
		{
			"buffer":0,
			"byteLength":1440,
			"byteOffset":442688,
			"target":34963
		},
		{
			"buffer":0,
			"byteLength":3120,
			"byteOffset":444128,
			"target":34962
		},
		{
			"buffer":0,
			"byteLength":3120,
			"byteOffset":447248,
			"target":34962
		},
		{
			"buffer":0,
			"byteLength":2080,
			"byteOffset":450368,
			"target":34962
		},
		{
			"buffer":0,
			"byteLength":1040,
			"byteOffset":452448,
			"target":34962
		},
		{
			"buffer":0,
			"byteLength":4160,
			"byteOffset":453488,
			"target":34962
		},
		{
			"buffer":0,
			"byteLength":1536,
			"byteOffset":457648,
			"target":34963
		},
		{
			"buffer":0,
			"byteLength":1176,
			"byteOffset":459184,
			"target":34962
		},
		{
			"buffer":0,
			"byteLength":1176,
			"byteOffset":460360,
			"target":34962
		},
		{
			"buffer":0,
			"byteLength":784,
			"byteOffset":461536,
			"target":34962
		},
		{
			"buffer":0,
			"byteLength":392,
			"byteOffset":462320,
			"target":34962
		},
		{
			"buffer":0,
			"byteLength":1568,
			"byteOffset":462712,
			"target":34962
		},
		{
			"buffer":0,
			"byteLength":720,
			"byteOffset":464280,
			"target":34963
		},
		{
			"buffer":0,
			"byteLength":1056,
			"byteOffset":465000,
			"target":34962
		},
		{
			"buffer":0,
			"byteLength":1056,
			"byteOffset":466056,
			"target":34962
		},
		{
			"buffer":0,
			"byteLength":704,
			"byteOffset":467112,
			"target":34962
		},
		{
			"buffer":0,
			"byteLength":352,
			"byteOffset":467816,
			"target":34962
		},
		{
			"buffer":0,
			"byteLength":1408,
			"byteOffset":468168,
			"target":34962
		},
		{
			"buffer":0,
			"byteLength":432,
			"byteOffset":469576,
			"target":34963
		},
		{
			"buffer":0,
			"byteLength":288,
			"byteOffset":470008,
			"target":34962
		},
		{
			"buffer":0,
			"byteLength":288,
			"byteOffset":470296,
			"target":34962
		},
		{
			"buffer":0,
			"byteLength":192,
			"byteOffset":470584,
			"target":34962
		},
		{
			"buffer":0,
			"byteLength":96,
			"byteOffset":470776,
			"target":34962
		},
		{
			"buffer":0,
			"byteLength":384,
			"byteOffset":470872,
			"target":34962
		},
		{
			"buffer":0,
			"byteLength":72,
			"byteOffset":471256,
			"target":34963
		},
		{
			"buffer":0,
			"byteLength":768,
			"byteOffset":471328,
			"target":34962
		},
		{
			"buffer":0,
			"byteLength":768,
			"byteOffset":472096,
			"target":34962
		},
		{
			"buffer":0,
			"byteLength":512,
			"byteOffset":472864,
			"target":34962
		},
		{
			"buffer":0,
			"byteLength":256,
			"byteOffset":473376,
			"target":34962
		},
		{
			"buffer":0,
			"byteLength":1024,
			"byteOffset":473632,
			"target":34962
		},
		{
			"buffer":0,
			"byteLength":360,
			"byteOffset":474656,
			"target":34963
		},
		{
			"buffer":0,
			"byteLength":1088,
			"byteOffset":475016
		},
		{
			"buffer":0,
			"byteLength":8,
			"byteOffset":476104
		},
		{
			"buffer":0,
			"byteLength":24,
			"byteOffset":476112
		},
		{
			"buffer":0,
			"byteLength":32,
			"byteOffset":476136
		},
		{
			"buffer":0,
			"byteLength":24,
			"byteOffset":476168
		},
		{
			"buffer":0,
			"byteLength":24,
			"byteOffset":476192
		},
		{
			"buffer":0,
			"byteLength":32,
			"byteOffset":476216
		},
		{
			"buffer":0,
			"byteLength":24,
			"byteOffset":476248
		},
		{
			"buffer":0,
			"byteLength":24,
			"byteOffset":476272
		},
		{
			"buffer":0,
			"byteLength":76,
			"byteOffset":476296
		},
		{
			"buffer":0,
			"byteLength":304,
			"byteOffset":476372
		},
		{
			"buffer":0,
			"byteLength":24,
			"byteOffset":476676
		},
		{
			"buffer":0,
			"byteLength":24,
			"byteOffset":476700
		},
		{
			"buffer":0,
			"byteLength":32,
			"byteOffset":476724
		},
		{
			"buffer":0,
			"byteLength":24,
			"byteOffset":476756
		},
		{
			"buffer":0,
			"byteLength":24,
			"byteOffset":476780
		},
		{
			"buffer":0,
			"byteLength":32,
			"byteOffset":476804
		},
		{
			"buffer":0,
			"byteLength":24,
			"byteOffset":476836
		},
		{
			"buffer":0,
			"byteLength":24,
			"byteOffset":476860
		},
		{
			"buffer":0,
			"byteLength":304,
			"byteOffset":476884
		},
		{
			"buffer":0,
			"byteLength":24,
			"byteOffset":477188
		},
		{
			"buffer":0,
			"byteLength":24,
			"byteOffset":477212
		},
		{
			"buffer":0,
			"byteLength":304,
			"byteOffset":477236
		},
		{
			"buffer":0,
			"byteLength":24,
			"byteOffset":477540
		},
		{
			"buffer":0,
			"byteLength":24,
			"byteOffset":477564
		},
		{
			"buffer":0,
			"byteLength":32,
			"byteOffset":477588
		},
		{
			"buffer":0,
			"byteLength":24,
			"byteOffset":477620
		},
		{
			"buffer":0,
			"byteLength":24,
			"byteOffset":477644
		},
		{
			"buffer":0,
			"byteLength":304,
			"byteOffset":477668
		},
		{
			"buffer":0,
			"byteLength":24,
			"byteOffset":477972
		},
		{
			"buffer":0,
			"byteLength":24,
			"byteOffset":477996
		},
		{
			"buffer":0,
			"byteLength":32,
			"byteOffset":478020
		},
		{
			"buffer":0,
			"byteLength":24,
			"byteOffset":478052
		},
		{
			"buffer":0,
			"byteLength":24,
			"byteOffset":478076
		},
		{
			"buffer":0,
			"byteLength":32,
			"byteOffset":478100
		},
		{
			"buffer":0,
			"byteLength":24,
			"byteOffset":478132
		},
		{
			"buffer":0,
			"byteLength":24,
			"byteOffset":478156
		},
		{
			"buffer":0,
			"byteLength":304,
			"byteOffset":478180
		},
		{
			"buffer":0,
			"byteLength":24,
			"byteOffset":478484
		},
		{
			"buffer":0,
			"byteLength":24,
			"byteOffset":478508
		},
		{
			"buffer":0,
			"byteLength":32,
			"byteOffset":478532
		},
		{
			"buffer":0,
			"byteLength":24,
			"byteOffset":478564
		},
		{
			"buffer":0,
			"byteLength":24,
			"byteOffset":478588
		},
		{
			"buffer":0,
			"byteLength":32,
			"byteOffset":478612
		},
		{
			"buffer":0,
			"byteLength":24,
			"byteOffset":478644
		},
		{
			"buffer":0,
			"byteLength":24,
			"byteOffset":478668
		},
		{
			"buffer":0,
			"byteLength":304,
			"byteOffset":478692
		},
		{
			"buffer":0,
			"byteLength":24,
			"byteOffset":478996
		},
		{
			"buffer":0,
			"byteLength":24,
			"byteOffset":479020
		},
		{
			"buffer":0,
			"byteLength":32,
			"byteOffset":479044
		},
		{
			"buffer":0,
			"byteLength":24,
			"byteOffset":479076
		},
		{
			"buffer":0,
			"byteLength":24,
			"byteOffset":479100
		},
		{
			"buffer":0,
			"byteLength":32,
			"byteOffset":479124
		},
		{
			"buffer":0,
			"byteLength":24,
			"byteOffset":479156
		},
		{
			"buffer":0,
			"byteLength":244,
			"byteOffset":479180
		},
		{
			"buffer":0,
			"byteLength":732,
			"byteOffset":479424
		},
		{
			"buffer":0,
			"byteLength":8,
			"byteOffset":480156
		},
		{
			"buffer":0,
			"byteLength":32,
			"byteOffset":480164
		},
		{
			"buffer":0,
			"byteLength":24,
			"byteOffset":480196
		},
		{
			"buffer":0,
			"byteLength":24,
			"byteOffset":480220
		},
		{
			"buffer":0,
			"byteLength":32,
			"byteOffset":480244
		},
		{
			"buffer":0,
			"byteLength":24,
			"byteOffset":480276
		},
		{
			"buffer":0,
			"byteLength":24,
			"byteOffset":480300
		},
		{
			"buffer":0,
			"byteLength":976,
			"byteOffset":480324
		},
		{
			"buffer":0,
			"byteLength":24,
			"byteOffset":481300
		},
		{
			"buffer":0,
			"byteLength":24,
			"byteOffset":481324
		},
		{
			"buffer":0,
			"byteLength":32,
			"byteOffset":481348
		},
		{
			"buffer":0,
			"byteLength":24,
			"byteOffset":481380
		},
		{
			"buffer":0,
			"byteLength":24,
			"byteOffset":481404
		},
		{
			"buffer":0,
			"byteLength":976,
			"byteOffset":481428
		},
		{
			"buffer":0,
			"byteLength":24,
			"byteOffset":482404
		},
		{
			"buffer":0,
			"byteLength":24,
			"byteOffset":482428
		},
		{
			"buffer":0,
			"byteLength":976,
			"byteOffset":482452
		},
		{
			"buffer":0,
			"byteLength":24,
			"byteOffset":483428
		},
		{
			"buffer":0,
			"byteLength":24,
			"byteOffset":483452
		},
		{
			"buffer":0,
			"byteLength":32,
			"byteOffset":483476
		},
		{
			"buffer":0,
			"byteLength":24,
			"byteOffset":483508
		},
		{
			"buffer":0,
			"byteLength":24,
			"byteOffset":483532
		},
		{
			"buffer":0,
			"byteLength":32,
			"byteOffset":483556
		},
		{
			"buffer":0,
			"byteLength":24,
			"byteOffset":483588
		},
		{
			"buffer":0,
			"byteLength":24,
			"byteOffset":483612
		},
		{
			"buffer":0,
			"byteLength":976,
			"byteOffset":483636
		},
		{
			"buffer":0,
			"byteLength":24,
			"byteOffset":484612
		},
		{
			"buffer":0,
			"byteLength":24,
			"byteOffset":484636
		},
		{
			"buffer":0,
			"byteLength":32,
			"byteOffset":484660
		},
		{
			"buffer":0,
			"byteLength":24,
			"byteOffset":484692
		},
		{
			"buffer":0,
			"byteLength":24,
			"byteOffset":484716
		},
		{
			"buffer":0,
			"byteLength":32,
			"byteOffset":484740
		},
		{
			"buffer":0,
			"byteLength":24,
			"byteOffset":484772
		},
		{
			"buffer":0,
			"byteLength":24,
			"byteOffset":484796
		},
		{
			"buffer":0,
			"byteLength":32,
			"byteOffset":484820
		},
		{
			"buffer":0,
			"byteLength":24,
			"byteOffset":484852
		},
		{
			"buffer":0,
			"byteLength":24,
			"byteOffset":484876
		},
		{
			"buffer":0,
			"byteLength":32,
			"byteOffset":484900
		},
		{
			"buffer":0,
			"byteLength":24,
			"byteOffset":484932
		},
		{
			"buffer":0,
			"byteLength":24,
			"byteOffset":484956
		},
		{
			"buffer":0,
			"byteLength":32,
			"byteOffset":484980
		},
		{
			"buffer":0,
			"byteLength":24,
			"byteOffset":485012
		},
		{
			"buffer":0,
			"byteLength":24,
			"byteOffset":485036
		},
		{
			"buffer":0,
			"byteLength":32,
			"byteOffset":485060
		},
		{
			"buffer":0,
			"byteLength":24,
			"byteOffset":485092
		},
		{
			"buffer":0,
			"byteLength":24,
			"byteOffset":485116
		},
		{
			"buffer":0,
			"byteLength":32,
			"byteOffset":485140
		},
		{
			"buffer":0,
			"byteLength":24,
			"byteOffset":485172
		},
		{
			"buffer":0,
			"byteLength":24,
			"byteOffset":485196
		},
		{
			"buffer":0,
			"byteLength":32,
			"byteOffset":485220
		},
		{
			"buffer":0,
			"byteLength":24,
			"byteOffset":485252
		},
		{
			"buffer":0,
			"byteLength":124,
			"byteOffset":485276
		},
		{
			"buffer":0,
			"byteLength":372,
			"byteOffset":485400
		},
		{
			"buffer":0,
			"byteLength":496,
			"byteOffset":485772
		},
		{
			"buffer":0,
			"byteLength":8,
			"byteOffset":486268
		},
		{
			"buffer":0,
			"byteLength":24,
			"byteOffset":486276
		},
		{
			"buffer":0,
			"byteLength":24,
			"byteOffset":486300
		},
		{
			"buffer":0,
			"byteLength":32,
			"byteOffset":486324
		},
		{
			"buffer":0,
			"byteLength":24,
			"byteOffset":486356
		},
		{
			"buffer":0,
			"byteLength":24,
			"byteOffset":486380
		},
		{
			"buffer":0,
			"byteLength":496,
			"byteOffset":486404
		},
		{
			"buffer":0,
			"byteLength":24,
			"byteOffset":486900
		},
		{
			"buffer":0,
			"byteLength":24,
			"byteOffset":486924
		},
		{
			"buffer":0,
			"byteLength":32,
			"byteOffset":486948
		},
		{
			"buffer":0,
			"byteLength":24,
			"byteOffset":486980
		},
		{
			"buffer":0,
			"byteLength":24,
			"byteOffset":487004
		},
		{
			"buffer":0,
			"byteLength":32,
			"byteOffset":487028
		},
		{
			"buffer":0,
			"byteLength":24,
			"byteOffset":487060
		},
		{
			"buffer":0,
			"byteLength":24,
			"byteOffset":487084
		},
		{
			"buffer":0,
			"byteLength":496,
			"byteOffset":487108
		},
		{
			"buffer":0,
			"byteLength":24,
			"byteOffset":487604
		},
		{
			"buffer":0,
			"byteLength":24,
			"byteOffset":487628
		},
		{
			"buffer":0,
			"byteLength":32,
			"byteOffset":487652
		},
		{
			"buffer":0,
			"byteLength":24,
			"byteOffset":487684
		},
		{
			"buffer":0,
			"byteLength":24,
			"byteOffset":487708
		},
		{
			"buffer":0,
			"byteLength":32,
			"byteOffset":487732
		},
		{
			"buffer":0,
			"byteLength":24,
			"byteOffset":487764
		},
		{
			"buffer":0,
			"byteLength":24,
			"byteOffset":487788
		},
		{
			"buffer":0,
			"byteLength":496,
			"byteOffset":487812
		},
		{
			"buffer":0,
			"byteLength":24,
			"byteOffset":488308
		},
		{
			"buffer":0,
			"byteLength":24,
			"byteOffset":488332
		},
		{
			"buffer":0,
			"byteLength":32,
			"byteOffset":488356
		},
		{
			"buffer":0,
			"byteLength":24,
			"byteOffset":488388
		},
		{
			"buffer":0,
			"byteLength":24,
			"byteOffset":488412
		},
		{
			"buffer":0,
			"byteLength":32,
			"byteOffset":488436
		},
		{
			"buffer":0,
			"byteLength":24,
			"byteOffset":488468
		},
		{
			"buffer":0,
			"byteLength":24,
			"byteOffset":488492
		},
		{
			"buffer":0,
			"byteLength":496,
			"byteOffset":488516
		},
		{
			"buffer":0,
			"byteLength":24,
			"byteOffset":489012
		},
		{
			"buffer":0,
			"byteLength":24,
			"byteOffset":489036
		},
		{
			"buffer":0,
			"byteLength":496,
			"byteOffset":489060
		},
		{
			"buffer":0,
			"byteLength":24,
			"byteOffset":489556
		},
		{
			"buffer":0,
			"byteLength":24,
			"byteOffset":489580
		},
		{
			"buffer":0,
			"byteLength":496,
			"byteOffset":489604
		},
		{
			"buffer":0,
			"byteLength":24,
			"byteOffset":490100
		},
		{
			"buffer":0,
			"byteLength":24,
			"byteOffset":490124
		},
		{
			"buffer":0,
			"byteLength":496,
			"byteOffset":490148
		},
		{
			"buffer":0,
			"byteLength":24,
			"byteOffset":490644
		},
		{
			"buffer":0,
			"byteLength":24,
			"byteOffset":490668
		},
		{
			"buffer":0,
			"byteLength":496,
			"byteOffset":490692
		},
		{
			"buffer":0,
			"byteLength":24,
			"byteOffset":491188
		},
		{
			"buffer":0,
			"byteLength":24,
			"byteOffset":491212
		},
		{
			"buffer":0,
			"byteLength":496,
			"byteOffset":491236
		},
		{
			"buffer":0,
			"byteLength":24,
			"byteOffset":491732
		}
	],
	"samplers":[
		{
			"magFilter":9729,
			"minFilter":9987
		}
	],
	"buffers":[
		{
			"byteLength":491756,
			"uri":"geld_new.bin"
		}
	]
}
