{
	"asset":{
		"generator":"Khronos glTF Blender I/O v4.2.57",
		"version":"2.0"
	},
	"extensionsUsed":[
		"KHR_materials_clearcoat",
		"KHR_materials_sheen"
	],
	"scene":0,
	"scenes":[
		{
			"name":"Scene",
			"nodes":[
				18
			]
		}
	],
	"nodes":[
		{
			"name":"head",
			"translation":[
				0,
				0.1699998378753662,
				0
			]
		},
		{
			"children":[
				0
			],
			"name":"neck",
			"translation":[
				0,
				0.35700011253356934,
				0
			]
		},
		{
			"name":"hand.R",
			"rotation":[
				-0.005688406061381102,
				-0.03669595345854759,
				0.03930393233895302,
				0.9985370635986328
			],
			"scale":[
				0.9999999403953552,
				1,
				1.0000001192092896
			],
			"translation":[
				-3.888271749019623e-08,
				0.4314507246017456,
				-3.91155481338501e-08
			]
		},
		{
			"children":[
				2
			],
			"name":"forearm.R",
			"rotation":[
				0.036578163504600525,
				-0.07823241502046585,
				0.09136712551116943,
				0.9920654296875
			],
			"scale":[
				1.0000001192092896,
				1,
				1
			],
			"translation":[
				-8.847564458847046e-09,
				0.48308444023132324,
				1.862645149230957e-08
			]
		},
		{
			"children":[
				3
			],
			"name":"upper_arm.R",
			"rotation":[
				-0.9747822284698486,
				-0.15770851075649261,
				-0.15770846605300903,
				0.007464946713298559
			],
			"scale":[
				0.9999998807907104,
				1,
				1
			],
			"translation":[
				0.6609600186347961,
				0.2720000743865967,
				0
			]
		},
		{
			"name":"hand.L",
			"rotation":[
				-0.005688406061381102,
				0.03669595345854759,
				-0.03930393233895302,
				0.9985370635986328
			],
			"scale":[
				0.9999999403953552,
				1,
				1.0000001192092896
			],
			"translation":[
				3.888271749019623e-08,
				0.4314507246017456,
				-3.91155481338501e-08
			]
		},
		{
			"children":[
				5
			],
			"name":"forearm.L",
			"rotation":[
				0.036578163504600525,
				0.07823241502046585,
				-0.09136712551116943,
				0.9920654296875
			],
			"scale":[
				1.0000001192092896,
				1,
				1
			],
			"translation":[
				8.847564458847046e-09,
				0.48308444023132324,
				1.862645149230957e-08
			]
		},
		{
			"children":[
				6
			],
			"name":"upper_arm.L",
			"rotation":[
				-0.9747822284698486,
				0.15770851075649261,
				0.15770846605300903,
				0.007464946713298559
			],
			"scale":[
				0.9999998807907104,
				1,
				1
			],
			"translation":[
				-0.6609600186347961,
				0.2720000743865967,
				0
			]
		},
		{
			"children":[
				1,
				4,
				7
			],
			"name":"chest",
			"translation":[
				0,
				0.28899991512298584,
				0
			]
		},
		{
			"children":[
				8
			],
			"name":"spine",
			"translation":[
				0,
				0.2549999952316284,
				0
			]
		},
		{
			"name":"foot.R",
			"rotation":[
				0.5914180278778076,
				4.2993955062797795e-09,
				-3.5864236025417995e-09,
				0.8063651323318481
			],
			"translation":[
				-3.874155440897198e-10,
				0.6980026960372925,
				3.1027980185172055e-10
			]
		},
		{
			"children":[
				10
			],
			"name":"shin.R",
			"rotation":[
				-0.041707996279001236,
				-0.017748909071087837,
				0.016822053119540215,
				0.9988305568695068
			],
			"scale":[
				1,
				0.9999999403953552,
				1
			],
			"translation":[
				-1.6298145055770874e-09,
				0.6977278590202332,
				9.313225746154785e-10
			]
		},
		{
			"children":[
				11
			],
			"name":"thigh.R",
			"rotation":[
				-0.9995895624160767,
				-0.01729169860482216,
				-0.017291970551013947,
				0.014923994429409504
			],
			"scale":[
				1.0000007152557373,
				1,
				1.0000004768371582
			],
			"translation":[
				0.2815200090408325,
				-0.03400003910064697,
				0
			]
		},
		{
			"name":"foot.L",
			"rotation":[
				0.5914180278778076,
				-4.2993955062797795e-09,
				3.5864236025417995e-09,
				0.8063651323318481
			],
			"translation":[
				3.874155440897198e-10,
				0.6980026960372925,
				3.1027980185172055e-10
			]
		},
		{
			"children":[
				13
			],
			"name":"shin.L",
			"rotation":[
				-0.041707996279001236,
				0.017748909071087837,
				-0.016822053119540215,
				0.9988305568695068
			],
			"scale":[
				1,
				0.9999999403953552,
				1
			],
			"translation":[
				1.6298145055770874e-09,
				0.6977278590202332,
				9.313225746154785e-10
			]
		},
		{
			"children":[
				14
			],
			"name":"thigh.L",
			"rotation":[
				-0.9995895624160767,
				0.01729169860482216,
				0.017291970551013947,
				0.014923994429409504
			],
			"scale":[
				1.0000007152557373,
				1,
				1.0000004768371582
			],
			"translation":[
				-0.2815200090408325,
				-0.03400003910064697,
				0
			]
		},
		{
			"children":[
				9,
				12,
				15
			],
			"name":"hips",
			"translation":[
				0,
				1.5810000896453857,
				0
			]
		},
		{
			"mesh":0,
			"name":"geld",
			"skin":0
		},
		{
			"children":[
				17,
				16
			],
			"name":"geld_rig"
		}
	],
	"animations":[
		{
			"channels":[
				{
					"sampler":0,
					"target":{
						"node":16,
						"path":"translation"
					}
				},
				{
					"sampler":1,
					"target":{
						"node":16,
						"path":"rotation"
					}
				},
				{
					"sampler":2,
					"target":{
						"node":16,
						"path":"scale"
					}
				},
				{
					"sampler":3,
					"target":{
						"node":9,
						"path":"translation"
					}
				},
				{
					"sampler":4,
					"target":{
						"node":9,
						"path":"rotation"
					}
				},
				{
					"sampler":5,
					"target":{
						"node":9,
						"path":"scale"
					}
				},
				{
					"sampler":6,
					"target":{
						"node":8,
						"path":"translation"
					}
				},
				{
					"sampler":7,
					"target":{
						"node":8,
						"path":"rotation"
					}
				},
				{
					"sampler":8,
					"target":{
						"node":8,
						"path":"scale"
					}
				},
				{
					"sampler":9,
					"target":{
						"node":1,
						"path":"translation"
					}
				},
				{
					"sampler":10,
					"target":{
						"node":1,
						"path":"rotation"
					}
				},
				{
					"sampler":11,
					"target":{
						"node":1,
						"path":"scale"
					}
				},
				{
					"sampler":12,
					"target":{
						"node":0,
						"path":"translation"
					}
				},
				{
					"sampler":13,
					"target":{
						"node":0,
						"path":"rotation"
					}
				},
				{
					"sampler":14,
					"target":{
						"node":0,
						"path":"scale"
					}
				},
				{
					"sampler":15,
					"target":{
						"node":4,
						"path":"translation"
					}
				},
				{
					"sampler":16,
					"target":{
						"node":4,
						"path":"rotation"
					}
				},
				{
					"sampler":17,
					"target":{
						"node":4,
						"path":"scale"
					}
				},
				{
					"sampler":18,
					"target":{
						"node":3,
						"path":"translation"
					}
				},
				{
					"sampler":19,
					"target":{
						"node":3,
						"path":"rotation"
					}
				},
				{
					"sampler":20,
					"target":{
						"node":3,
						"path":"scale"
					}
				},
				{
					"sampler":21,
					"target":{
						"node":2,
						"path":"translation"
					}
				},
				{
					"sampler":22,
					"target":{
						"node":2,
						"path":"rotation"
					}
				},
				{
					"sampler":23,
					"target":{
						"node":2,
						"path":"scale"
					}
				},
				{
					"sampler":24,
					"target":{
						"node":7,
						"path":"translation"
					}
				},
				{
					"sampler":25,
					"target":{
						"node":7,
						"path":"rotation"
					}
				},
				{
					"sampler":26,
					"target":{
						"node":7,
						"path":"scale"
					}
				},
				{
					"sampler":27,
					"target":{
						"node":6,
						"path":"translation"
					}
				},
				{
					"sampler":28,
					"target":{
						"node":6,
						"path":"rotation"
					}
				},
				{
					"sampler":29,
					"target":{
						"node":6,
						"path":"scale"
					}
				},
				{
					"sampler":30,
					"target":{
						"node":5,
						"path":"translation"
					}
				},
				{
					"sampler":31,
					"target":{
						"node":5,
						"path":"rotation"
					}
				},
				{
					"sampler":32,
					"target":{
						"node":5,
						"path":"scale"
					}
				},
				{
					"sampler":33,
					"target":{
						"node":12,
						"path":"translation"
					}
				},
				{
					"sampler":34,
					"target":{
						"node":12,
						"path":"rotation"
					}
				},
				{
					"sampler":35,
					"target":{
						"node":12,
						"path":"scale"
					}
				},
				{
					"sampler":36,
					"target":{
						"node":11,
						"path":"translation"
					}
				},
				{
					"sampler":37,
					"target":{
						"node":11,
						"path":"rotation"
					}
				},
				{
					"sampler":38,
					"target":{
						"node":11,
						"path":"scale"
					}
				},
				{
					"sampler":39,
					"target":{
						"node":10,
						"path":"translation"
					}
				},
				{
					"sampler":40,
					"target":{
						"node":10,
						"path":"rotation"
					}
				},
				{
					"sampler":41,
					"target":{
						"node":10,
						"path":"scale"
					}
				},
				{
					"sampler":42,
					"target":{
						"node":15,
						"path":"translation"
					}
				},
				{
					"sampler":43,
					"target":{
						"node":15,
						"path":"rotation"
					}
				},
				{
					"sampler":44,
					"target":{
						"node":15,
						"path":"scale"
					}
				},
				{
					"sampler":45,
					"target":{
						"node":14,
						"path":"translation"
					}
				},
				{
					"sampler":46,
					"target":{
						"node":14,
						"path":"rotation"
					}
				},
				{
					"sampler":47,
					"target":{
						"node":14,
						"path":"scale"
					}
				},
				{
					"sampler":48,
					"target":{
						"node":13,
						"path":"translation"
					}
				},
				{
					"sampler":49,
					"target":{
						"node":13,
						"path":"rotation"
					}
				},
				{
					"sampler":50,
					"target":{
						"node":13,
						"path":"scale"
					}
				}
			],
			"name":"attack",
			"samplers":[
				{
					"input":85,
					"interpolation":"STEP",
					"output":86
				},
				{
					"input":85,
					"interpolation":"STEP",
					"output":87
				},
				{
					"input":85,
					"interpolation":"STEP",
					"output":88
				},
				{
					"input":85,
					"interpolation":"STEP",
					"output":89
				},
				{
					"input":85,
					"interpolation":"STEP",
					"output":90
				},
				{
					"input":85,
					"interpolation":"STEP",
					"output":91
				},
				{
					"input":85,
					"interpolation":"STEP",
					"output":92
				},
				{
					"input":93,
					"interpolation":"LINEAR",
					"output":94
				},
				{
					"input":85,
					"interpolation":"STEP",
					"output":95
				},
				{
					"input":85,
					"interpolation":"STEP",
					"output":96
				},
				{
					"input":85,
					"interpolation":"STEP",
					"output":97
				},
				{
					"input":85,
					"interpolation":"STEP",
					"output":98
				},
				{
					"input":85,
					"interpolation":"STEP",
					"output":99
				},
				{
					"input":85,
					"interpolation":"STEP",
					"output":100
				},
				{
					"input":85,
					"interpolation":"STEP",
					"output":101
				},
				{
					"input":85,
					"interpolation":"STEP",
					"output":102
				},
				{
					"input":93,
					"interpolation":"LINEAR",
					"output":103
				},
				{
					"input":85,
					"interpolation":"STEP",
					"output":104
				},
				{
					"input":85,
					"interpolation":"LINEAR",
					"output":105
				},
				{
					"input":93,
					"interpolation":"LINEAR",
					"output":106
				},
				{
					"input":85,
					"interpolation":"STEP",
					"output":107
				},
				{
					"input":85,
					"interpolation":"LINEAR",
					"output":108
				},
				{
					"input":85,
					"interpolation":"LINEAR",
					"output":109
				},
				{
					"input":85,
					"interpolation":"STEP",
					"output":110
				},
				{
					"input":85,
					"interpolation":"STEP",
					"output":111
				},
				{
					"input":93,
					"interpolation":"LINEAR",
					"output":112
				},
				{
					"input":85,
					"interpolation":"STEP",
					"output":113
				},
				{
					"input":85,
					"interpolation":"STEP",
					"output":114
				},
				{
					"input":85,
					"interpolation":"STEP",
					"output":115
				},
				{
					"input":85,
					"interpolation":"STEP",
					"output":116
				},
				{
					"input":85,
					"interpolation":"STEP",
					"output":117
				},
				{
					"input":85,
					"interpolation":"STEP",
					"output":118
				},
				{
					"input":85,
					"interpolation":"STEP",
					"output":119
				},
				{
					"input":85,
					"interpolation":"STEP",
					"output":120
				},
				{
					"input":93,
					"interpolation":"LINEAR",
					"output":121
				},
				{
					"input":85,
					"interpolation":"STEP",
					"output":122
				},
				{
					"input":85,
					"interpolation":"LINEAR",
					"output":123
				},
				{
					"input":85,
					"interpolation":"LINEAR",
					"output":124
				},
				{
					"input":85,
					"interpolation":"STEP",
					"output":125
				},
				{
					"input":85,
					"interpolation":"LINEAR",
					"output":126
				},
				{
					"input":85,
					"interpolation":"LINEAR",
					"output":127
				},
				{
					"input":85,
					"interpolation":"STEP",
					"output":128
				},
				{
					"input":85,
					"interpolation":"STEP",
					"output":129
				},
				{
					"input":93,
					"interpolation":"LINEAR",
					"output":130
				},
				{
					"input":85,
					"interpolation":"STEP",
					"output":131
				},
				{
					"input":85,
					"interpolation":"LINEAR",
					"output":132
				},
				{
					"input":85,
					"interpolation":"LINEAR",
					"output":133
				},
				{
					"input":85,
					"interpolation":"STEP",
					"output":134
				},
				{
					"input":85,
					"interpolation":"LINEAR",
					"output":135
				},
				{
					"input":85,
					"interpolation":"LINEAR",
					"output":136
				},
				{
					"input":85,
					"interpolation":"STEP",
					"output":137
				}
			]
		},
		{
			"channels":[
				{
					"sampler":0,
					"target":{
						"node":16,
						"path":"translation"
					}
				},
				{
					"sampler":1,
					"target":{
						"node":16,
						"path":"rotation"
					}
				},
				{
					"sampler":2,
					"target":{
						"node":16,
						"path":"scale"
					}
				},
				{
					"sampler":3,
					"target":{
						"node":9,
						"path":"translation"
					}
				},
				{
					"sampler":4,
					"target":{
						"node":9,
						"path":"rotation"
					}
				},
				{
					"sampler":5,
					"target":{
						"node":9,
						"path":"scale"
					}
				},
				{
					"sampler":6,
					"target":{
						"node":8,
						"path":"translation"
					}
				},
				{
					"sampler":7,
					"target":{
						"node":8,
						"path":"rotation"
					}
				},
				{
					"sampler":8,
					"target":{
						"node":8,
						"path":"scale"
					}
				},
				{
					"sampler":9,
					"target":{
						"node":1,
						"path":"translation"
					}
				},
				{
					"sampler":10,
					"target":{
						"node":1,
						"path":"rotation"
					}
				},
				{
					"sampler":11,
					"target":{
						"node":1,
						"path":"scale"
					}
				},
				{
					"sampler":12,
					"target":{
						"node":0,
						"path":"translation"
					}
				},
				{
					"sampler":13,
					"target":{
						"node":0,
						"path":"rotation"
					}
				},
				{
					"sampler":14,
					"target":{
						"node":0,
						"path":"scale"
					}
				},
				{
					"sampler":15,
					"target":{
						"node":4,
						"path":"translation"
					}
				},
				{
					"sampler":16,
					"target":{
						"node":4,
						"path":"rotation"
					}
				},
				{
					"sampler":17,
					"target":{
						"node":4,
						"path":"scale"
					}
				},
				{
					"sampler":18,
					"target":{
						"node":3,
						"path":"translation"
					}
				},
				{
					"sampler":19,
					"target":{
						"node":3,
						"path":"rotation"
					}
				},
				{
					"sampler":20,
					"target":{
						"node":3,
						"path":"scale"
					}
				},
				{
					"sampler":21,
					"target":{
						"node":2,
						"path":"translation"
					}
				},
				{
					"sampler":22,
					"target":{
						"node":2,
						"path":"rotation"
					}
				},
				{
					"sampler":23,
					"target":{
						"node":2,
						"path":"scale"
					}
				},
				{
					"sampler":24,
					"target":{
						"node":7,
						"path":"translation"
					}
				},
				{
					"sampler":25,
					"target":{
						"node":7,
						"path":"rotation"
					}
				},
				{
					"sampler":26,
					"target":{
						"node":7,
						"path":"scale"
					}
				},
				{
					"sampler":27,
					"target":{
						"node":6,
						"path":"translation"
					}
				},
				{
					"sampler":28,
					"target":{
						"node":6,
						"path":"rotation"
					}
				},
				{
					"sampler":29,
					"target":{
						"node":6,
						"path":"scale"
					}
				},
				{
					"sampler":30,
					"target":{
						"node":5,
						"path":"translation"
					}
				},
				{
					"sampler":31,
					"target":{
						"node":5,
						"path":"rotation"
					}
				},
				{
					"sampler":32,
					"target":{
						"node":5,
						"path":"scale"
					}
				},
				{
					"sampler":33,
					"target":{
						"node":12,
						"path":"translation"
					}
				},
				{
					"sampler":34,
					"target":{
						"node":12,
						"path":"rotation"
					}
				},
				{
					"sampler":35,
					"target":{
						"node":12,
						"path":"scale"
					}
				},
				{
					"sampler":36,
					"target":{
						"node":11,
						"path":"translation"
					}
				},
				{
					"sampler":37,
					"target":{
						"node":11,
						"path":"rotation"
					}
				},
				{
					"sampler":38,
					"target":{
						"node":11,
						"path":"scale"
					}
				},
				{
					"sampler":39,
					"target":{
						"node":10,
						"path":"translation"
					}
				},
				{
					"sampler":40,
					"target":{
						"node":10,
						"path":"rotation"
					}
				},
				{
					"sampler":41,
					"target":{
						"node":10,
						"path":"scale"
					}
				},
				{
					"sampler":42,
					"target":{
						"node":15,
						"path":"translation"
					}
				},
				{
					"sampler":43,
					"target":{
						"node":15,
						"path":"rotation"
					}
				},
				{
					"sampler":44,
					"target":{
						"node":15,
						"path":"scale"
					}
				},
				{
					"sampler":45,
					"target":{
						"node":14,
						"path":"translation"
					}
				},
				{
					"sampler":46,
					"target":{
						"node":14,
						"path":"rotation"
					}
				},
				{
					"sampler":47,
					"target":{
						"node":14,
						"path":"scale"
					}
				},
				{
					"sampler":48,
					"target":{
						"node":13,
						"path":"translation"
					}
				},
				{
					"sampler":49,
					"target":{
						"node":13,
						"path":"rotation"
					}
				},
				{
					"sampler":50,
					"target":{
						"node":13,
						"path":"scale"
					}
				}
			],
			"name":"idle",
			"samplers":[
				{
					"input":138,
					"interpolation":"LINEAR",
					"output":139
				},
				{
					"input":140,
					"interpolation":"STEP",
					"output":141
				},
				{
					"input":140,
					"interpolation":"STEP",
					"output":142
				},
				{
					"input":140,
					"interpolation":"STEP",
					"output":143
				},
				{
					"input":140,
					"interpolation":"STEP",
					"output":144
				},
				{
					"input":140,
					"interpolation":"STEP",
					"output":145
				},
				{
					"input":140,
					"interpolation":"STEP",
					"output":146
				},
				{
					"input":138,
					"interpolation":"LINEAR",
					"output":147
				},
				{
					"input":140,
					"interpolation":"STEP",
					"output":148
				},
				{
					"input":140,
					"interpolation":"STEP",
					"output":149
				},
				{
					"input":140,
					"interpolation":"STEP",
					"output":150
				},
				{
					"input":140,
					"interpolation":"STEP",
					"output":151
				},
				{
					"input":140,
					"interpolation":"STEP",
					"output":152
				},
				{
					"input":138,
					"interpolation":"LINEAR",
					"output":153
				},
				{
					"input":140,
					"interpolation":"STEP",
					"output":154
				},
				{
					"input":140,
					"interpolation":"STEP",
					"output":155
				},
				{
					"input":138,
					"interpolation":"LINEAR",
					"output":156
				},
				{
					"input":140,
					"interpolation":"STEP",
					"output":157
				},
				{
					"input":140,
					"interpolation":"STEP",
					"output":158
				},
				{
					"input":140,
					"interpolation":"STEP",
					"output":159
				},
				{
					"input":140,
					"interpolation":"STEP",
					"output":160
				},
				{
					"input":140,
					"interpolation":"STEP",
					"output":161
				},
				{
					"input":140,
					"interpolation":"STEP",
					"output":162
				},
				{
					"input":140,
					"interpolation":"STEP",
					"output":163
				},
				{
					"input":140,
					"interpolation":"STEP",
					"output":164
				},
				{
					"input":138,
					"interpolation":"LINEAR",
					"output":165
				},
				{
					"input":140,
					"interpolation":"STEP",
					"output":166
				},
				{
					"input":140,
					"interpolation":"STEP",
					"output":167
				},
				{
					"input":140,
					"interpolation":"STEP",
					"output":168
				},
				{
					"input":140,
					"interpolation":"STEP",
					"output":169
				},
				{
					"input":140,
					"interpolation":"STEP",
					"output":170
				},
				{
					"input":140,
					"interpolation":"STEP",
					"output":171
				},
				{
					"input":140,
					"interpolation":"STEP",
					"output":172
				},
				{
					"input":140,
					"interpolation":"STEP",
					"output":173
				},
				{
					"input":140,
					"interpolation":"STEP",
					"output":174
				},
				{
					"input":140,
					"interpolation":"STEP",
					"output":175
				},
				{
					"input":140,
					"interpolation":"STEP",
					"output":176
				},
				{
					"input":140,
					"interpolation":"STEP",
					"output":177
				},
				{
					"input":140,
					"interpolation":"STEP",
					"output":178
				},
				{
					"input":140,
					"interpolation":"STEP",
					"output":179
				},
				{
					"input":140,
					"interpolation":"STEP",
					"output":180
				},
				{
					"input":140,
					"interpolation":"STEP",
					"output":181
				},
				{
					"input":140,
					"interpolation":"STEP",
					"output":182
				},
				{
					"input":140,
					"interpolation":"STEP",
					"output":183
				},
				{
					"input":140,
					"interpolation":"STEP",
					"output":184
				},
				{
					"input":140,
					"interpolation":"STEP",
					"output":185
				},
				{
					"input":140,
					"interpolation":"STEP",
					"output":186
				},
				{
					"input":140,
					"interpolation":"STEP",
					"output":187
				},
				{
					"input":140,
					"interpolation":"STEP",
					"output":188
				},
				{
					"input":140,
					"interpolation":"STEP",
					"output":189
				},
				{
					"input":140,
					"interpolation":"STEP",
					"output":190
				}
			]
		},
		{
			"channels":[
				{
					"sampler":0,
					"target":{
						"node":16,
						"path":"translation"
					}
				},
				{
					"sampler":1,
					"target":{
						"node":16,
						"path":"rotation"
					}
				},
				{
					"sampler":2,
					"target":{
						"node":16,
						"path":"scale"
					}
				},
				{
					"sampler":3,
					"target":{
						"node":9,
						"path":"translation"
					}
				},
				{
					"sampler":4,
					"target":{
						"node":9,
						"path":"rotation"
					}
				},
				{
					"sampler":5,
					"target":{
						"node":9,
						"path":"scale"
					}
				},
				{
					"sampler":6,
					"target":{
						"node":8,
						"path":"translation"
					}
				},
				{
					"sampler":7,
					"target":{
						"node":8,
						"path":"rotation"
					}
				},
				{
					"sampler":8,
					"target":{
						"node":8,
						"path":"scale"
					}
				},
				{
					"sampler":9,
					"target":{
						"node":1,
						"path":"translation"
					}
				},
				{
					"sampler":10,
					"target":{
						"node":1,
						"path":"rotation"
					}
				},
				{
					"sampler":11,
					"target":{
						"node":1,
						"path":"scale"
					}
				},
				{
					"sampler":12,
					"target":{
						"node":0,
						"path":"translation"
					}
				},
				{
					"sampler":13,
					"target":{
						"node":0,
						"path":"rotation"
					}
				},
				{
					"sampler":14,
					"target":{
						"node":0,
						"path":"scale"
					}
				},
				{
					"sampler":15,
					"target":{
						"node":4,
						"path":"translation"
					}
				},
				{
					"sampler":16,
					"target":{
						"node":4,
						"path":"rotation"
					}
				},
				{
					"sampler":17,
					"target":{
						"node":4,
						"path":"scale"
					}
				},
				{
					"sampler":18,
					"target":{
						"node":3,
						"path":"translation"
					}
				},
				{
					"sampler":19,
					"target":{
						"node":3,
						"path":"rotation"
					}
				},
				{
					"sampler":20,
					"target":{
						"node":3,
						"path":"scale"
					}
				},
				{
					"sampler":21,
					"target":{
						"node":2,
						"path":"translation"
					}
				},
				{
					"sampler":22,
					"target":{
						"node":2,
						"path":"rotation"
					}
				},
				{
					"sampler":23,
					"target":{
						"node":2,
						"path":"scale"
					}
				},
				{
					"sampler":24,
					"target":{
						"node":7,
						"path":"translation"
					}
				},
				{
					"sampler":25,
					"target":{
						"node":7,
						"path":"rotation"
					}
				},
				{
					"sampler":26,
					"target":{
						"node":7,
						"path":"scale"
					}
				},
				{
					"sampler":27,
					"target":{
						"node":6,
						"path":"translation"
					}
				},
				{
					"sampler":28,
					"target":{
						"node":6,
						"path":"rotation"
					}
				},
				{
					"sampler":29,
					"target":{
						"node":6,
						"path":"scale"
					}
				},
				{
					"sampler":30,
					"target":{
						"node":5,
						"path":"translation"
					}
				},
				{
					"sampler":31,
					"target":{
						"node":5,
						"path":"rotation"
					}
				},
				{
					"sampler":32,
					"target":{
						"node":5,
						"path":"scale"
					}
				},
				{
					"sampler":33,
					"target":{
						"node":12,
						"path":"translation"
					}
				},
				{
					"sampler":34,
					"target":{
						"node":12,
						"path":"rotation"
					}
				},
				{
					"sampler":35,
					"target":{
						"node":12,
						"path":"scale"
					}
				},
				{
					"sampler":36,
					"target":{
						"node":11,
						"path":"translation"
					}
				},
				{
					"sampler":37,
					"target":{
						"node":11,
						"path":"rotation"
					}
				},
				{
					"sampler":38,
					"target":{
						"node":11,
						"path":"scale"
					}
				},
				{
					"sampler":39,
					"target":{
						"node":10,
						"path":"translation"
					}
				},
				{
					"sampler":40,
					"target":{
						"node":10,
						"path":"rotation"
					}
				},
				{
					"sampler":41,
					"target":{
						"node":10,
						"path":"scale"
					}
				},
				{
					"sampler":42,
					"target":{
						"node":15,
						"path":"translation"
					}
				},
				{
					"sampler":43,
					"target":{
						"node":15,
						"path":"rotation"
					}
				},
				{
					"sampler":44,
					"target":{
						"node":15,
						"path":"scale"
					}
				},
				{
					"sampler":45,
					"target":{
						"node":14,
						"path":"translation"
					}
				},
				{
					"sampler":46,
					"target":{
						"node":14,
						"path":"rotation"
					}
				},
				{
					"sampler":47,
					"target":{
						"node":14,
						"path":"scale"
					}
				},
				{
					"sampler":48,
					"target":{
						"node":13,
						"path":"translation"
					}
				},
				{
					"sampler":49,
					"target":{
						"node":13,
						"path":"rotation"
					}
				},
				{
					"sampler":50,
					"target":{
						"node":13,
						"path":"scale"
					}
				}
			],
			"name":"walk",
			"samplers":[
				{
					"input":191,
					"interpolation":"LINEAR",
					"output":192
				},
				{
					"input":191,
					"interpolation":"LINEAR",
					"output":193
				},
				{
					"input":194,
					"interpolation":"STEP",
					"output":195
				},
				{
					"input":194,
					"interpolation":"STEP",
					"output":196
				},
				{
					"input":194,
					"interpolation":"STEP",
					"output":197
				},
				{
					"input":194,
					"interpolation":"STEP",
					"output":198
				},
				{
					"input":194,
					"interpolation":"STEP",
					"output":199
				},
				{
					"input":191,
					"interpolation":"LINEAR",
					"output":200
				},
				{
					"input":194,
					"interpolation":"STEP",
					"output":201
				},
				{
					"input":194,
					"interpolation":"STEP",
					"output":202
				},
				{
					"input":194,
					"interpolation":"STEP",
					"output":203
				},
				{
					"input":194,
					"interpolation":"STEP",
					"output":204
				},
				{
					"input":194,
					"interpolation":"STEP",
					"output":205
				},
				{
					"input":194,
					"interpolation":"STEP",
					"output":206
				},
				{
					"input":194,
					"interpolation":"STEP",
					"output":207
				},
				{
					"input":194,
					"interpolation":"STEP",
					"output":208
				},
				{
					"input":191,
					"interpolation":"LINEAR",
					"output":209
				},
				{
					"input":194,
					"interpolation":"STEP",
					"output":210
				},
				{
					"input":194,
					"interpolation":"STEP",
					"output":211
				},
				{
					"input":194,
					"interpolation":"STEP",
					"output":212
				},
				{
					"input":194,
					"interpolation":"STEP",
					"output":213
				},
				{
					"input":194,
					"interpolation":"STEP",
					"output":214
				},
				{
					"input":194,
					"interpolation":"STEP",
					"output":215
				},
				{
					"input":194,
					"interpolation":"STEP",
					"output":216
				},
				{
					"input":194,
					"interpolation":"STEP",
					"output":217
				},
				{
					"input":191,
					"interpolation":"LINEAR",
					"output":218
				},
				{
					"input":194,
					"interpolation":"STEP",
					"output":219
				},
				{
					"input":194,
					"interpolation":"STEP",
					"output":220
				},
				{
					"input":194,
					"interpolation":"STEP",
					"output":221
				},
				{
					"input":194,
					"interpolation":"STEP",
					"output":222
				},
				{
					"input":194,
					"interpolation":"STEP",
					"output":223
				},
				{
					"input":194,
					"interpolation":"STEP",
					"output":224
				},
				{
					"input":194,
					"interpolation":"STEP",
					"output":225
				},
				{
					"input":194,
					"interpolation":"STEP",
					"output":226
				},
				{
					"input":191,
					"interpolation":"LINEAR",
					"output":227
				},
				{
					"input":194,
					"interpolation":"STEP",
					"output":228
				},
				{
					"input":194,
					"interpolation":"STEP",
					"output":229
				},
				{
					"input":191,
					"interpolation":"LINEAR",
					"output":230
				},
				{
					"input":194,
					"interpolation":"STEP",
					"output":231
				},
				{
					"input":194,
					"interpolation":"STEP",
					"output":232
				},
				{
					"input":191,
					"interpolation":"LINEAR",
					"output":233
				},
				{
					"input":194,
					"interpolation":"STEP",
					"output":234
				},
				{
					"input":194,
					"interpolation":"STEP",
					"output":235
				},
				{
					"input":191,
					"interpolation":"LINEAR",
					"output":236
				},
				{
					"input":194,
					"interpolation":"STEP",
					"output":237
				},
				{
					"input":194,
					"interpolation":"STEP",
					"output":238
				},
				{
					"input":191,
					"interpolation":"LINEAR",
					"output":239
				},
				{
					"input":194,
					"interpolation":"STEP",
					"output":240
				},
				{
					"input":194,
					"interpolation":"STEP",
					"output":241
				},
				{
					"input":191,
					"interpolation":"LINEAR",
					"output":242
				},
				{
					"input":194,
					"interpolation":"STEP",
					"output":243
				}
			]
		}
	],
	"materials":[
		{
			"name":"skin",
			"normalTexture":{
				"index":0,
				"scale":0.4000000059604645
			},
			"pbrMetallicRoughness":{
				"baseColorFactor":[
					0.17064493894577026,
					0.13286831974983215,
					0.07323895394802094,
					1
				],
				"metallicFactor":0,
				"roughnessFactor":0.550000011920929
			}
		},
		{
			"extensions":{
				"KHR_materials_sheen":{
					"sheenColorFactor":[
						1.0,
						1.0,
						1.0
					],
					"sheenRoughnessFactor":0.5
				}
			},
			"name":"hair",
			"normalTexture":{
				"index":1,
				"scale":0.800000011920929
			},
			"pbrMetallicRoughness":{
				"baseColorFactor":[
					0.03310476616024971,
					0.01960664801299572,
					0.010022825561463833,
					1
				],
				"metallicFactor":0,
				"roughnessFactor":0.44999998807907104
			}
		},
		{
			"extensions":{
				"KHR_materials_sheen":{
					"sheenColorFactor":[
						1.0,
						1.0,
						1.0
					],
					"sheenRoughnessFactor":0.5
				}
			},
			"name":"outfit",
			"normalTexture":{
				"index":2,
				"scale":0.6000000238418579
			},
			"pbrMetallicRoughness":{
				"baseColorFactor":[
					0.05087608844041824,
					0.010022825561463833,
					0.010022825561463833,
					1
				],
				"metallicFactor":0,
				"roughnessFactor":0.75
			}
		},
		{
			"name":"outfit2",
			"normalTexture":{
				"index":3,
				"scale":0.4000000059604645
			},
			"pbrMetallicRoughness":{
				"baseColorFactor":[
					0.4479884207248688,
					0.31854677200317383,
					0.03310476616024971,
					1
				],
				"metallicFactor":0,
				"roughnessFactor":0.6000000238418579
			}
		},
		{
			"name":"pants",
			"normalTexture":{
				"index":4,
				"scale":0.6000000238418579
			},
			"pbrMetallicRoughness":{
				"baseColorFactor":[
					0.025842878967523575,
					0.005981059744954109,
					0.005981059744954109,
					1
				],
				"metallicFactor":0,
				"roughnessFactor":0.800000011920929
			}
		},
		{
			"extensions":{
				"KHR_materials_clearcoat":{
					"clearcoatFactor":0.30000001192092896
				}
			},
			"name":"boots",
			"normalTexture":{
				"index":5,
				"scale":0.800000011920929
			},
			"pbrMetallicRoughness":{
				"baseColorFactor":[
					0.0134117491543293,
					0.010022825561463833,
					0.010022825561463833,
					1
				],
				"metallicFactor":0,
				"roughnessFactor":0.44999998807907104
			}
		},
		{
			"name":"eye_white",
			"pbrMetallicRoughness":{
				"baseColorFactor":[
					0.8900054097175598,
					0.8900054097175598,
					0.8900054097175598,
					1
				],
				"metallicFactor":0,
				"roughnessFactor":0.20000000298023224
			}
		},
		{
			"emissiveFactor":[
				0.6000000238418579,
				0.4152426646249552,
				0.006013695575841083
			],
			"name":"iris",
			"pbrMetallicRoughness":{
				"baseColorFactor":[
					1,
					0.6920710802078247,
					0.010022825561463833,
					1
				],
				"metallicFactor":0,
				"roughnessFactor":0.15000000596046448
			}
		},
		{
			"name":"pupil",
			"pbrMetallicRoughness":{
				"baseColorFactor":[
					0.0015479875728487968,
					0.0015479875728487968,
					0.0023219813592731953,
					1
				],
				"metallicFactor":0,
				"roughnessFactor":0.10000000149011612
			}
		},
		{
			"name":"lips",
			"pbrMetallicRoughness":{
				"baseColorFactor":[
					0.08088690787553787,
					0.06372379511594772,
					0.036306485533714294,
					1
				],
				"metallicFactor":0,
				"roughnessFactor":0.4000000059604645
			}
		},
		{
			"name":"tusk",
			"pbrMetallicRoughness":{
				"baseColorFactor":[
					0.8900054097175598,
					0.8275708556175232,
					0.6038273572921753,
					1
				],
				"metallicFactor":0,
				"roughnessFactor":0.3499999940395355
			}
		},
		{
			"doubleSided":true,
			"extensions":{
				"KHR_materials_sheen":{
					"sheenColorFactor":[
						1.0,
						1.0,
						1.0
					],
					"sheenRoughnessFactor":0.5
				}
			},
			"name":"cape",
			"normalTexture":{
				"index":6,
				"scale":0.699999988079071
			},
			"pbrMetallicRoughness":{
				"baseColorFactor":[
					0.10048151016235352,
					0.003935939632356167,
					0.003935939632356167,
					1
				],
				"metallicFactor":0,
				"roughnessFactor":0.75
			}
		},
		{
			"name":"buckle",
			"pbrMetallicRoughness":{
				"baseColorFactor":[
					0.6920710802078247,
					0.4479884207248688,
					0.07323895394802094,
					1
				],
				"metallicFactor":0.8999999761581421,
				"roughnessFactor":0.30000001192092896
			}
		},
		{
			"name":"wood",
			"normalTexture":{
				"index":7,
				"scale":0.6000000238418579
			},
			"pbrMetallicRoughness":{
				"baseColorFactor":[
					0.13286831974983215,
					0.06372379511594772,
					0.01960664801299572,
					1
				],
				"metallicFactor":0,
				"roughnessFactor":0.800000011920929
			}
		}
	],
	"meshes":[
		{
			"name":"geld",
			"primitives":[
				{
					"attributes":{
						"POSITION":0,
						"NORMAL":1,
						"TEXCOORD_0":2,
						"JOINTS_0":3,
						"WEIGHTS_0":4
					},
					"indices":5,
					"material":0
				},
				{
					"attributes":{
						"POSITION":6,
						"NORMAL":7,
						"TEXCOORD_0":8,
						"JOINTS_0":9,
						"WEIGHTS_0":10
					},
					"indices":11,
					"material":1
				},
				{
					"attributes":{
						"POSITION":12,
						"NORMAL":13,
						"TEXCOORD_0":14,
						"JOINTS_0":15,
						"WEIGHTS_0":16
					},
					"indices":17,
					"material":2
				},
				{
					"attributes":{
						"POSITION":18,
						"NORMAL":19,
						"TEXCOORD_0":20,
						"JOINTS_0":21,
						"WEIGHTS_0":22
					},
					"indices":23,
					"material":3
				},
				{
					"attributes":{
						"POSITION":24,
						"NORMAL":25,
						"TEXCOORD_0":26,
						"JOINTS_0":27,
						"WEIGHTS_0":28
					},
					"indices":29,
					"material":4
				},
				{
					"attributes":{
						"POSITION":30,
						"NORMAL":31,
						"TEXCOORD_0":32,
						"JOINTS_0":33,
						"WEIGHTS_0":34
					},
					"indices":35,
					"material":5
				},
				{
					"attributes":{
						"POSITION":36,
						"NORMAL":37,
						"TEXCOORD_0":38,
						"JOINTS_0":39,
						"WEIGHTS_0":40
					},
					"indices":41,
					"material":6
				},
				{
					"attributes":{
						"POSITION":42,
						"NORMAL":43,
						"TEXCOORD_0":44,
						"JOINTS_0":45,
						"WEIGHTS_0":46
					},
					"indices":47,
					"material":7
				},
				{
					"attributes":{
						"POSITION":48,
						"NORMAL":49,
						"TEXCOORD_0":50,
						"JOINTS_0":51,
						"WEIGHTS_0":52
					},
					"indices":53,
					"material":8
				},
				{
					"attributes":{
						"POSITION":54,
						"NORMAL":55,
						"TEXCOORD_0":56,
						"JOINTS_0":57,
						"WEIGHTS_0":58
					},
					"indices":59,
					"material":9
				},
				{
					"attributes":{
						"POSITION":60,
						"NORMAL":61,
						"TEXCOORD_0":62,
						"JOINTS_0":63,
						"WEIGHTS_0":64
					},
					"indices":65,
					"material":10
				},
				{
					"attributes":{
						"POSITION":66,
						"NORMAL":67,
						"TEXCOORD_0":68,
						"JOINTS_0":69,
						"WEIGHTS_0":70
					},
					"indices":71,
					"material":11
				},
				{
					"attributes":{
						"POSITION":72,
						"NORMAL":73,
						"TEXCOORD_0":74,
						"JOINTS_0":75,
						"WEIGHTS_0":76
					},
					"indices":77,
					"material":12
				},
				{
					"attributes":{
						"POSITION":78,
						"NORMAL":79,
						"TEXCOORD_0":80,
						"JOINTS_0":81,
						"WEIGHTS_0":82
					},
					"indices":83,
					"material":13
				}
			]
		}
	],
	"textures":[
		{
			"sampler":0,
			"source":0
		},
		{
			"sampler":0,
			"source":1
		},
		{
			"sampler":0,
			"source":2
		},
		{
			"sampler":0,
			"source":2
		},
		{
			"sampler":0,
			"source":2
		},
		{
			"sampler":0,
			"source":3
		},
		{
			"sampler":0,
			"source":2
		},
		{
			"sampler":0,
			"source":3
		}
	],
	"images":[
		{
			"mimeType":"image/png",
			"name":"N_skin",
			"uri":"texturas/N_skin.png"
		},
		{
			"mimeType":"image/png",
			"name":"N_hair",
			"uri":"texturas/N_hair.png"
		},
		{
			"mimeType":"image/png",
			"name":"N_cloth",
			"uri":"texturas/N_cloth.png"
		},
		{
			"mimeType":"image/png",
			"name":"N_leather",
			"uri":"texturas/N_leather.png"
		}
	],
	"skins":[
		{
			"inverseBindMatrices":84,
			"joints":[
				16,
				9,
				8,
				1,
				0,
				4,
				3,
				2,
				7,
				6,
				5,
				12,
				11,
				10,
				15,
				14,
				13
			],
			"name":"geld_rig"
		}
	],
	"accessors":[
		{
			"bufferView":0,
			"componentType":5126,
			"count":2305,
			"max":[
				0.9416269659996033,
				3.0327999591827393,
				0.18226134777069092
			],
			"min":[
				-0.9416269659996033,
				1.3335952758789062,
				-0.4002574384212494
			],
			"type":"VEC3"
		},
		{
			"bufferView":1,
			"componentType":5126,
			"count":2305,
			"type":"VEC3"
		},
		{
			"bufferView":2,
			"componentType":5126,
			"count":2305,
			"type":"VEC2"
		},
		{
			"bufferView":3,
			"componentType":5121,
			"count":2305,
			"type":"VEC4"
		},
		{
			"bufferView":4,
			"componentType":5126,
			"count":2305,
			"type":"VEC4"
		},
		{
			"bufferView":5,
			"componentType":5123,
			"count":9600,
			"type":"SCALAR"
		},
		{
			"bufferView":6,
			"componentType":5126,
			"count":2122,
			"max":[
				0.4107359051704407,
				3.3719589710235596,
				0.49602267146110535
			],
			"min":[
				-0.4466223120689392,
				2.6979920864105225,
				-0.2715626358985901
			],
			"type":"VEC3"
		},
		{
			"bufferView":7,
			"componentType":5126,
			"count":2122,
			"type":"VEC3"
		},
		{
			"bufferView":8,
			"componentType":5126,
			"count":2122,
			"type":"VEC2"
		},
		{
			"bufferView":9,
			"componentType":5121,
			"count":2122,
			"type":"VEC4"
		},
		{
			"bufferView":10,
			"componentType":5126,
			"count":2122,
			"type":"VEC4"
		},
		{
			"bufferView":11,
			"componentType":5123,
			"count":7200,
			"type":"SCALAR"
		},
		{
			"bufferView":12,
			"componentType":5126,
			"count":340,
			"max":[
				0.847672164440155,
				2.50461745262146,
				0.4566311240196228
			],
			"min":[
				-0.8476721048355103,
				1.6146336793899536,
				-0.4596295952796936
			],
			"type":"VEC3"
		},
		{
			"bufferView":13,
			"componentType":5126,
			"count":340,
			"type":"VEC3"
		},
		{
			"bufferView":14,
			"componentType":5126,
			"count":340,
			"type":"VEC2"
		},
		{
			"bufferView":15,
			"componentType":5121,
			"count":340,
			"type":"VEC4"
		},
		{
			"bufferView":16,
			"componentType":5126,
			"count":340,
			"type":"VEC4"
		},
		{
			"bufferView":17,
			"componentType":5123,
			"count":1212,
			"type":"SCALAR"
		},
		{
			"bufferView":18,
			"componentType":5126,
			"count":58,
			"max":[
				0.4067284166812897,
				1.7291107177734375,
				0.47511374950408936
			],
			"min":[
				-0.4067283570766449,
				1.4921244382858276,
				-0.47735583782196045
			],
			"type":"VEC3"
		},
		{
			"bufferView":19,
			"componentType":5126,
			"count":58,
			"type":"VEC3"
		},
		{
			"bufferView":20,
			"componentType":5126,
			"count":58,
			"type":"VEC2"
		},
		{
			"bufferView":21,
			"componentType":5121,
			"count":58,
			"type":"VEC4"
		},
		{
			"bufferView":22,
			"componentType":5126,
			"count":58,
			"type":"VEC4"
		},
		{
			"bufferView":23,
			"componentType":5123,
			"count":156,
			"type":"SCALAR"
		},
		{
			"bufferView":24,
			"componentType":5126,
			"count":677,
			"max":[
				0.9276083707809448,
				1.6146336793899536,
				0.47511374950408936
			],
			"min":[
				-0.9276082515716553,
				0.49274930357933044,
				-0.47735583782196045
			],
			"type":"VEC3"
		},
		{
			"bufferView":25,
			"componentType":5126,
			"count":677,
			"type":"VEC3"
		},
		{
			"bufferView":26,
			"componentType":5126,
			"count":677,
			"type":"VEC2"
		},
		{
			"bufferView":27,
			"componentType":5121,
			"count":677,
			"type":"VEC4"
		},
		{
			"bufferView":28,
			"componentType":5126,
			"count":677,
			"type":"VEC4"
		},
		{
			"bufferView":29,
			"componentType":5123,
			"count":2784,
			"type":"SCALAR"
		},
		{
			"bufferView":30,
			"componentType":5126,
			"count":874,
			"max":[
				0.46447914838790894,
				0.5074692368507385,
				0.17614001035690308
			],
			"min":[
				-0.46447914838790894,
				0.012930983677506447,
				-0.2382015436887741
			],
			"type":"VEC3"
		},
		{
			"bufferView":31,
			"componentType":5126,
			"count":874,
			"type":"VEC3"
		},
		{
			"bufferView":32,
			"componentType":5126,
			"count":874,
			"type":"VEC2"
		},
		{
			"bufferView":33,
			"componentType":5121,
			"count":874,
			"type":"VEC4"
		},
		{
			"bufferView":34,
			"componentType":5126,
			"count":874,
			"type":"VEC4"
		},
		{
			"bufferView":35,
			"componentType":5123,
			"count":3840,
			"type":"SCALAR"
		},
		{
			"bufferView":36,
			"componentType":5126,
			"count":304,
			"max":[
				0.08669999986886978,
				2.8670499324798584,
				-0.11900000274181366
			],
			"min":[
				-0.08669999986886978,
				2.8279500007629395,
				-0.14959999918937683
			],
			"type":"VEC3"
		},
		{
			"bufferView":37,
			"componentType":5126,
			"count":304,
			"type":"VEC3"
		},
		{
			"bufferView":38,
			"componentType":5126,
			"count":304,
			"type":"VEC2"
		},
		{
			"bufferView":39,
			"componentType":5121,
			"count":304,
			"type":"VEC4"
		},
		{
			"bufferView":40,
			"componentType":5126,
			"count":304,
			"type":"VEC4"
		},
		{
			"bufferView":41,
			"componentType":5123,
			"count":1152,
			"type":"SCALAR"
		},
		{
			"bufferView":42,
			"componentType":5126,
			"count":220,
			"max":[
				0.07395000010728836,
				2.8641600608825684,
				-0.13807442784309387
			],
			"min":[
				-0.07395000010728836,
				2.8308401107788086,
				-0.15262559056282043
			],
			"type":"VEC3"
		},
		{
			"bufferView":43,
			"componentType":5126,
			"count":220,
			"type":"VEC3"
		},
		{
			"bufferView":44,
			"componentType":5126,
			"count":220,
			"type":"VEC2"
		},
		{
			"bufferView":45,
			"componentType":5121,
			"count":220,
			"type":"VEC4"
		},
		{
			"bufferView":46,
			"componentType":5126,
			"count":220,
			"type":"VEC4"
		},
		{
			"bufferView":47,
			"componentType":5123,
			"count":720,
			"type":"SCALAR"
		},
		{
			"bufferView":48,
			"componentType":5126,
			"count":260,
			"max":[
				0.06459054350852966,
				2.855149984359741,
				-0.1477264165878296
			],
			"min":[
				-0.06459054350852966,
				2.764200210571289,
				-0.20671674609184265
			],
			"type":"VEC3"
		},
		{
			"bufferView":49,
			"componentType":5126,
			"count":260,
			"type":"VEC3"
		},
		{
			"bufferView":50,
			"componentType":5126,
			"count":260,
			"type":"VEC2"
		},
		{
			"bufferView":51,
			"componentType":5121,
			"count":260,
			"type":"VEC4"
		},
		{
			"bufferView":52,
			"componentType":5126,
			"count":260,
			"type":"VEC4"
		},
		{
			"bufferView":53,
			"componentType":5123,
			"count":768,
			"type":"SCALAR"
		},
		{
			"bufferView":54,
			"componentType":5126,
			"count":98,
			"max":[
				0.03229999914765358,
				2.7327499389648438,
				-0.1321244239807129
			],
			"min":[
				-0.03229999914765358,
				2.7174501419067383,
				-0.14667558670043945
			],
			"type":"VEC3"
		},
		{
			"bufferView":55,
			"componentType":5126,
			"count":98,
			"type":"VEC3"
		},
		{
			"bufferView":56,
			"componentType":5126,
			"count":98,
			"type":"VEC2"
		},
		{
			"bufferView":57,
			"componentType":5121,
			"count":98,
			"type":"VEC4"
		},
		{
			"bufferView":58,
			"componentType":5126,
			"count":98,
			"type":"VEC4"
		},
		{
			"bufferView":59,
			"componentType":5123,
			"count":360,
			"type":"SCALAR"
		},
		{
			"bufferView":60,
			"componentType":5126,
			"count":88,
			"max":[
				0.0695541724562645,
				2.7968335151672363,
				-0.10836555063724518
			],
			"min":[
				-0.0695541724562645,
				2.6981139183044434,
				-0.1525447964668274
			],
			"type":"VEC3"
		},
		{
			"bufferView":61,
			"componentType":5126,
			"count":88,
			"type":"VEC3"
		},
		{
			"bufferView":62,
			"componentType":5126,
			"count":88,
			"type":"VEC2"
		},
		{
			"bufferView":63,
			"componentType":5121,
			"count":88,
			"type":"VEC4"
		},
		{
			"bufferView":64,
			"componentType":5126,
			"count":88,
			"type":"VEC4"
		},
		{
			"bufferView":65,
			"componentType":5123,
			"count":216,
			"type":"SCALAR"
		},
		{
			"bufferView":66,
			"componentType":5126,
			"count":56,
			"max":[
				1.0575361251831055,
				2.448000192642212,
				0.6855760216712952
			],
			"min":[
				-1.0575361251831055,
				0.7480000257492065,
				0.43057602643966675
			],
			"type":"VEC3"
		},
		{
			"bufferView":67,
			"componentType":5126,
			"count":56,
			"type":"VEC3"
		},
		{
			"bufferView":68,
			"componentType":5126,
			"count":56,
			"type":"VEC2"
		},
		{
			"bufferView":69,
			"componentType":5121,
			"count":56,
			"type":"VEC4"
		},
		{
			"bufferView":70,
			"componentType":5126,
			"count":56,
			"type":"VEC4"
		},
		{
			"bufferView":71,
			"componentType":5123,
			"count":252,
			"type":"SCALAR"
		},
		{
			"bufferView":72,
			"componentType":5126,
			"count":24,
			"max":[
				0.042500000447034836,
				1.6490000486373901,
				-0.289000004529953
			],
			"min":[
				-0.042500000447034836,
				1.5810000896453857,
				-0.3093999922275543
			],
			"type":"VEC3"
		},
		{
			"bufferView":73,
			"componentType":5126,
			"count":24,
			"type":"VEC3"
		},
		{
			"bufferView":74,
			"componentType":5126,
			"count":24,
			"type":"VEC2"
		},
		{
			"bufferView":75,
			"componentType":5121,
			"count":24,
			"type":"VEC4"
		},
		{
			"bufferView":76,
			"componentType":5126,
			"count":24,
			"type":"VEC4"
		},
		{
			"bufferView":77,
			"componentType":5123,
			"count":36,
			"type":"SCALAR"
		},
		{
			"bufferView":78,
			"componentType":5126,
			"count":64,
			"max":[
				1.012247920036316,
				1.4526692628860474,
				0.09810822457075119
			],
			"min":[
				0.7742480039596558,
				0.7335776090621948,
				-1.2516433000564575
			],
			"type":"VEC3"
		},
		{
			"bufferView":79,
			"componentType":5126,
			"count":64,
			"type":"VEC3"
		},
		{
			"bufferView":80,
			"componentType":5126,
			"count":64,
			"type":"VEC2"
		},
		{
			"bufferView":81,
			"componentType":5121,
			"count":64,
			"type":"VEC4"
		},
		{
			"bufferView":82,
			"componentType":5126,
			"count":64,
			"type":"VEC4"
		},
		{
			"bufferView":83,
			"componentType":5123,
			"count":180,
			"type":"SCALAR"
		},
		{
			"bufferView":84,
			"componentType":5126,
			"count":17,
			"type":"MAT4"
		},
		{
			"bufferView":85,
			"componentType":5126,
			"count":2,
			"max":[
				0.6
			],
			"min":[
				0
			],
			"type":"SCALAR"
		},
		{
			"bufferView":86,
			"componentType":5126,
			"count":2,
			"type":"VEC3"
		},
		{
			"bufferView":87,
			"componentType":5126,
			"count":2,
			"type":"VEC4"
		},
		{
			"bufferView":88,
			"componentType":5126,
			"count":2,
			"type":"VEC3"
		},
		{
			"bufferView":89,
			"componentType":5126,
			"count":2,
			"type":"VEC3"
		},
		{
			"bufferView":90,
			"componentType":5126,
			"count":2,
			"type":"VEC4"
		},
		{
			"bufferView":91,
			"componentType":5126,
			"count":2,
			"type":"VEC3"
		},
		{
			"bufferView":92,
			"componentType":5126,
			"count":2,
			"type":"VEC3"
		},
		{
			"bufferView":93,
			"componentType":5126,
			"count":19,
			"max":[
				0.6
			],
			"min":[
				0
			],
			"type":"SCALAR"
		},
		{
			"bufferView":94,
			"componentType":5126,
			"count":19,
			"type":"VEC4"
		},
		{
			"bufferView":95,
			"componentType":5126,
			"count":2,
			"type":"VEC3"
		},
		{
			"bufferView":96,
			"componentType":5126,
			"count":2,
			"type":"VEC3"
		},
		{
			"bufferView":97,
			"componentType":5126,
			"count":2,
			"type":"VEC4"
		},
		{
			"bufferView":98,
			"componentType":5126,
			"count":2,
			"type":"VEC3"
		},
		{
			"bufferView":99,
			"componentType":5126,
			"count":2,
			"type":"VEC3"
		},
		{
			"bufferView":100,
			"componentType":5126,
			"count":2,
			"type":"VEC4"
		},
		{
			"bufferView":101,
			"componentType":5126,
			"count":2,
			"type":"VEC3"
		},
		{
			"bufferView":102,
			"componentType":5126,
			"count":2,
			"type":"VEC3"
		},
		{
			"bufferView":103,
			"componentType":5126,
			"count":19,
			"type":"VEC4"
		},
		{
			"bufferView":104,
			"componentType":5126,
			"count":2,
			"type":"VEC3"
		},
		{
			"bufferView":105,
			"componentType":5126,
			"count":2,
			"type":"VEC3"
		},
		{
			"bufferView":106,
			"componentType":5126,
			"count":19,
			"type":"VEC4"
		},
		{
			"bufferView":107,
			"componentType":5126,
			"count":2,
			"type":"VEC3"
		},
		{
			"bufferView":108,
			"componentType":5126,
			"count":2,
			"type":"VEC3"
		},
		{
			"bufferView":109,
			"componentType":5126,
			"count":2,
			"type":"VEC4"
		},
		{
			"bufferView":110,
			"componentType":5126,
			"count":2,
			"type":"VEC3"
		},
		{
			"bufferView":111,
			"componentType":5126,
			"count":2,
			"type":"VEC3"
		},
		{
			"bufferView":112,
			"componentType":5126,
			"count":19,
			"type":"VEC4"
		},
		{
			"bufferView":113,
			"componentType":5126,
			"count":2,
			"type":"VEC3"
		},
		{
			"bufferView":114,
			"componentType":5126,
			"count":2,
			"type":"VEC3"
		},
		{
			"bufferView":115,
			"componentType":5126,
			"count":2,
			"type":"VEC4"
		},
		{
			"bufferView":116,
			"componentType":5126,
			"count":2,
			"type":"VEC3"
		},
		{
			"bufferView":117,
			"componentType":5126,
			"count":2,
			"type":"VEC3"
		},
		{
			"bufferView":118,
			"componentType":5126,
			"count":2,
			"type":"VEC4"
		},
		{
			"bufferView":119,
			"componentType":5126,
			"count":2,
			"type":"VEC3"
		},
		{
			"bufferView":120,
			"componentType":5126,
			"count":2,
			"type":"VEC3"
		},
		{
			"bufferView":121,
			"componentType":5126,
			"count":19,
			"type":"VEC4"
		},
		{
			"bufferView":122,
			"componentType":5126,
			"count":2,
			"type":"VEC3"
		},
		{
			"bufferView":123,
			"componentType":5126,
			"count":2,
			"type":"VEC3"
		},
		{
			"bufferView":124,
			"componentType":5126,
			"count":2,
			"type":"VEC4"
		},
		{
			"bufferView":125,
			"componentType":5126,
			"count":2,
			"type":"VEC3"
		},
		{
			"bufferView":126,
			"componentType":5126,
			"count":2,
			"type":"VEC3"
		},
		{
			"bufferView":127,
			"componentType":5126,
			"count":2,
			"type":"VEC4"
		},
		{
			"bufferView":128,
			"componentType":5126,
			"count":2,
			"type":"VEC3"
		},
		{
			"bufferView":129,
			"componentType":5126,
			"count":2,
			"type":"VEC3"
		},
		{
			"bufferView":130,
			"componentType":5126,
			"count":19,
			"type":"VEC4"
		},
		{
			"bufferView":131,
			"componentType":5126,
			"count":2,
			"type":"VEC3"
		},
		{
			"bufferView":132,
			"componentType":5126,
			"count":2,
			"type":"VEC3"
		},
		{
			"bufferView":133,
			"componentType":5126,
			"count":2,
			"type":"VEC4"
		},
		{
			"bufferView":134,
			"componentType":5126,
			"count":2,
			"type":"VEC3"
		},
		{
			"bufferView":135,
			"componentType":5126,
			"count":2,
			"type":"VEC3"
		},
		{
			"bufferView":136,
			"componentType":5126,
			"count":2,
			"type":"VEC4"
		},
		{
			"bufferView":137,
			"componentType":5126,
			"count":2,
			"type":"VEC3"
		},
		{
			"bufferView":138,
			"componentType":5126,
			"count":61,
			"max":[
				2
			],
			"min":[
				0
			],
			"type":"SCALAR"
		},
		{
			"bufferView":139,
			"componentType":5126,
			"count":61,
			"type":"VEC3"
		},
		{
			"bufferView":140,
			"componentType":5126,
			"count":2,
			"max":[
				2
			],
			"min":[
				0
			],
			"type":"SCALAR"
		},
		{
			"bufferView":141,
			"componentType":5126,
			"count":2,
			"type":"VEC4"
		},
		{
			"bufferView":142,
			"componentType":5126,
			"count":2,
			"type":"VEC3"
		},
		{
			"bufferView":143,
			"componentType":5126,
			"count":2,
			"type":"VEC3"
		},
		{
			"bufferView":144,
			"componentType":5126,
			"count":2,
			"type":"VEC4"
		},
		{
			"bufferView":145,
			"componentType":5126,
			"count":2,
			"type":"VEC3"
		},
		{
			"bufferView":146,
			"componentType":5126,
			"count":2,
			"type":"VEC3"
		},
		{
			"bufferView":147,
			"componentType":5126,
			"count":61,
			"type":"VEC4"
		},
		{
			"bufferView":148,
			"componentType":5126,
			"count":2,
			"type":"VEC3"
		},
		{
			"bufferView":149,
			"componentType":5126,
			"count":2,
			"type":"VEC3"
		},
		{
			"bufferView":150,
			"componentType":5126,
			"count":2,
			"type":"VEC4"
		},
		{
			"bufferView":151,
			"componentType":5126,
			"count":2,
			"type":"VEC3"
		},
		{
			"bufferView":152,
			"componentType":5126,
			"count":2,
			"type":"VEC3"
		},
		{
			"bufferView":153,
			"componentType":5126,
			"count":61,
			"type":"VEC4"
		},
		{
			"bufferView":154,
			"componentType":5126,
			"count":2,
			"type":"VEC3"
		},
		{
			"bufferView":155,
			"componentType":5126,
			"count":2,
			"type":"VEC3"
		},
		{
			"bufferView":156,
			"componentType":5126,
			"count":61,
			"type":"VEC4"
		},
		{
			"bufferView":157,
			"componentType":5126,
			"count":2,
			"type":"VEC3"
		},
		{
			"bufferView":158,
			"componentType":5126,
			"count":2,
			"type":"VEC3"
		},
		{
			"bufferView":159,
			"componentType":5126,
			"count":2,
			"type":"VEC4"
		},
		{
			"bufferView":160,
			"componentType":5126,
			"count":2,
			"type":"VEC3"
		},
		{
			"bufferView":161,
			"componentType":5126,
			"count":2,
			"type":"VEC3"
		},
		{
			"bufferView":162,
			"componentType":5126,
			"count":2,
			"type":"VEC4"
		},
		{
			"bufferView":163,
			"componentType":5126,
			"count":2,
			"type":"VEC3"
		},
		{
			"bufferView":164,
			"componentType":5126,
			"count":2,
			"type":"VEC3"
		},
		{
			"bufferView":165,
			"componentType":5126,
			"count":61,
			"type":"VEC4"
		},
		{
			"bufferView":166,
			"componentType":5126,
			"count":2,
			"type":"VEC3"
		},
		{
			"bufferView":167,
			"componentType":5126,
			"count":2,
			"type":"VEC3"
		},
		{
			"bufferView":168,
			"componentType":5126,
			"count":2,
			"type":"VEC4"
		},
		{
			"bufferView":169,
			"componentType":5126,
			"count":2,
			"type":"VEC3"
		},
		{
			"bufferView":170,
			"componentType":5126,
			"count":2,
			"type":"VEC3"
		},
		{
			"bufferView":171,
			"componentType":5126,
			"count":2,
			"type":"VEC4"
		},
		{
			"bufferView":172,
			"componentType":5126,
			"count":2,
			"type":"VEC3"
		},
		{
			"bufferView":173,
			"componentType":5126,
			"count":2,
			"type":"VEC3"
		},
		{
			"bufferView":174,
			"componentType":5126,
			"count":2,
			"type":"VEC4"
		},
		{
			"bufferView":175,
			"componentType":5126,
			"count":2,
			"type":"VEC3"
		},
		{
			"bufferView":176,
			"componentType":5126,
			"count":2,
			"type":"VEC3"
		},
		{
			"bufferView":177,
			"componentType":5126,
			"count":2,
			"type":"VEC4"
		},
		{
			"bufferView":178,
			"componentType":5126,
			"count":2,
			"type":"VEC3"
		},
		{
			"bufferView":179,
			"componentType":5126,
			"count":2,
			"type":"VEC3"
		},
		{
			"bufferView":180,
			"componentType":5126,
			"count":2,
			"type":"VEC4"
		},
		{
			"bufferView":181,
			"componentType":5126,
			"count":2,
			"type":"VEC3"
		},
		{
			"bufferView":182,
			"componentType":5126,
			"count":2,
			"type":"VEC3"
		},
		{
			"bufferView":183,
			"componentType":5126,
			"count":2,
			"type":"VEC4"
		},
		{
			"bufferView":184,
			"componentType":5126,
			"count":2,
			"type":"VEC3"
		},
		{
			"bufferView":185,
			"componentType":5126,
			"count":2,
			"type":"VEC3"
		},
		{
			"bufferView":186,
			"componentType":5126,
			"count":2,
			"type":"VEC4"
		},
		{
			"bufferView":187,
			"componentType":5126,
			"count":2,
			"type":"VEC3"
		},
		{
			"bufferView":188,
			"componentType":5126,
			"count":2,
			"type":"VEC3"
		},
		{
			"bufferView":189,
			"componentType":5126,
			"count":2,
			"type":"VEC4"
		},
		{
			"bufferView":190,
			"componentType":5126,
			"count":2,
			"type":"VEC3"
		},
		{
			"bufferView":191,
			"componentType":5126,
			"count":31,
			"max":[
				1
			],
			"min":[
				0
			],
			"type":"SCALAR"
		},
		{
			"bufferView":192,
			"componentType":5126,
			"count":31,
			"type":"VEC3"
		},
		{
			"bufferView":193,
			"componentType":5126,
			"count":31,
			"type":"VEC4"
		},
		{
			"bufferView":194,
			"componentType":5126,
			"count":2,
			"max":[
				1
			],
			"min":[
				0
			],
			"type":"SCALAR"
		},
		{
			"bufferView":195,
			"componentType":5126,
			"count":2,
			"type":"VEC3"
		},
		{
			"bufferView":196,
			"componentType":5126,
			"count":2,
			"type":"VEC3"
		},
		{
			"bufferView":197,
			"componentType":5126,
			"count":2,
			"type":"VEC4"
		},
		{
			"bufferView":198,
			"componentType":5126,
			"count":2,
			"type":"VEC3"
		},
		{
			"bufferView":199,
			"componentType":5126,
			"count":2,
			"type":"VEC3"
		},
		{
			"bufferView":200,
			"componentType":5126,
			"count":31,
			"type":"VEC4"
		},
		{
			"bufferView":201,
			"componentType":5126,
			"count":2,
			"type":"VEC3"
		},
		{
			"bufferView":202,
			"componentType":5126,
			"count":2,
			"type":"VEC3"
		},
		{
			"bufferView":203,
			"componentType":5126,
			"count":2,
			"type":"VEC4"
		},
		{
			"bufferView":204,
			"componentType":5126,
			"count":2,
			"type":"VEC3"
		},
		{
			"bufferView":205,
			"componentType":5126,
			"count":2,
			"type":"VEC3"
		},
		{
			"bufferView":206,
			"componentType":5126,
			"count":2,
			"type":"VEC4"
		},
		{
			"bufferView":207,
			"componentType":5126,
			"count":2,
			"type":"VEC3"
		},
		{
			"bufferView":208,
			"componentType":5126,
			"count":2,
			"type":"VEC3"
		},
		{
			"bufferView":209,
			"componentType":5126,
			"count":31,
			"type":"VEC4"
		},
		{
			"bufferView":210,
			"componentType":5126,
			"count":2,
			"type":"VEC3"
		},
		{
			"bufferView":211,
			"componentType":5126,
			"count":2,
			"type":"VEC3"
		},
		{
			"bufferView":212,
			"componentType":5126,
			"count":2,
			"type":"VEC4"
		},
		{
			"bufferView":213,
			"componentType":5126,
			"count":2,
			"type":"VEC3"
		},
		{
			"bufferView":214,
			"componentType":5126,
			"count":2,
			"type":"VEC3"
		},
		{
			"bufferView":215,
			"componentType":5126,
			"count":2,
			"type":"VEC4"
		},
		{
			"bufferView":216,
			"componentType":5126,
			"count":2,
			"type":"VEC3"
		},
		{
			"bufferView":217,
			"componentType":5126,
			"count":2,
			"type":"VEC3"
		},
		{
			"bufferView":218,
			"componentType":5126,
			"count":31,
			"type":"VEC4"
		},
		{
			"bufferView":219,
			"componentType":5126,
			"count":2,
			"type":"VEC3"
		},
		{
			"bufferView":220,
			"componentType":5126,
			"count":2,
			"type":"VEC3"
		},
		{
			"bufferView":221,
			"componentType":5126,
			"count":2,
			"type":"VEC4"
		},
		{
			"bufferView":222,
			"componentType":5126,
			"count":2,
			"type":"VEC3"
		},
		{
			"bufferView":223,
			"componentType":5126,
			"count":2,
			"type":"VEC3"
		},
		{
			"bufferView":224,
			"componentType":5126,
			"count":2,
			"type":"VEC4"
		},
		{
			"bufferView":225,
			"componentType":5126,
			"count":2,
			"type":"VEC3"
		},
		{
			"bufferView":226,
			"componentType":5126,
			"count":2,
			"type":"VEC3"
		},
		{
			"bufferView":227,
			"componentType":5126,
			"count":31,
			"type":"VEC4"
		},
		{
			"bufferView":228,
			"componentType":5126,
			"count":2,
			"type":"VEC3"
		},
		{
			"bufferView":229,
			"componentType":5126,
			"count":2,
			"type":"VEC3"
		},
		{
			"bufferView":230,
			"componentType":5126,
			"count":31,
			"type":"VEC4"
		},
		{
			"bufferView":231,
			"componentType":5126,
			"count":2,
			"type":"VEC3"
		},
		{
			"bufferView":232,
			"componentType":5126,
			"count":2,
			"type":"VEC3"
		},
		{
			"bufferView":233,
			"componentType":5126,
			"count":31,
			"type":"VEC4"
		},
		{
			"bufferView":234,
			"componentType":5126,
			"count":2,
			"type":"VEC3"
		},
		{
			"bufferView":235,
			"componentType":5126,
			"count":2,
			"type":"VEC3"
		},
		{
			"bufferView":236,
			"componentType":5126,
			"count":31,
			"type":"VEC4"
		},
		{
			"bufferView":237,
			"componentType":5126,
			"count":2,
			"type":"VEC3"
		},
		{
			"bufferView":238,
			"componentType":5126,
			"count":2,
			"type":"VEC3"
		},
		{
			"bufferView":239,
			"componentType":5126,
			"count":31,
			"type":"VEC4"
		},
		{
			"bufferView":240,
			"componentType":5126,
			"count":2,
			"type":"VEC3"
		},
		{
			"bufferView":241,
			"componentType":5126,
			"count":2,
			"type":"VEC3"
		},
		{
			"bufferView":242,
			"componentType":5126,
			"count":31,
			"type":"VEC4"
		},
		{
			"bufferView":243,
			"componentType":5126,
			"count":2,
			"type":"VEC3"
		}
	],
	"bufferViews":[
		{
			"buffer":0,
			"byteLength":27660,
			"byteOffset":0,
			"target":34962
		},
		{
			"buffer":0,
			"byteLength":27660,
			"byteOffset":27660,
			"target":34962
		},
		{
			"buffer":0,
			"byteLength":18440,
			"byteOffset":55320,
			"target":34962
		},
		{
			"buffer":0,
			"byteLength":9220,
			"byteOffset":73760,
			"target":34962
		},
		{
			"buffer":0,
			"byteLength":36880,
			"byteOffset":82980,
			"target":34962
		},
		{
			"buffer":0,
			"byteLength":19200,
			"byteOffset":119860,
			"target":34963
		},
		{
			"buffer":0,
			"byteLength":25464,
			"byteOffset":139060,
			"target":34962
		},
		{
			"buffer":0,
			"byteLength":25464,
			"byteOffset":164524,
			"target":34962
		},
		{
			"buffer":0,
			"byteLength":16976,
			"byteOffset":189988,
			"target":34962
		},
		{
			"buffer":0,
			"byteLength":8488,
			"byteOffset":206964,
			"target":34962
		},
		{
			"buffer":0,
			"byteLength":33952,
			"byteOffset":215452,
			"target":34962
		},
		{
			"buffer":0,
			"byteLength":14400,
			"byteOffset":249404,
			"target":34963
		},
		{
			"buffer":0,
			"byteLength":4080,
			"byteOffset":263804,
			"target":34962
		},
		{
			"buffer":0,
			"byteLength":4080,
			"byteOffset":267884,
			"target":34962
		},
		{
			"buffer":0,
			"byteLength":2720,
			"byteOffset":271964,
			"target":34962
		},
		{
			"buffer":0,
			"byteLength":1360,
			"byteOffset":274684,
			"target":34962
		},
		{
			"buffer":0,
			"byteLength":5440,
			"byteOffset":276044,
			"target":34962
		},
		{
			"buffer":0,
			"byteLength":2424,
			"byteOffset":281484,
			"target":34963
		},
		{
			"buffer":0,
			"byteLength":696,
			"byteOffset":283908,
			"target":34962
		},
		{
			"buffer":0,
			"byteLength":696,
			"byteOffset":284604,
			"target":34962
		},
		{
			"buffer":0,
			"byteLength":464,
			"byteOffset":285300,
			"target":34962
		},
		{
			"buffer":0,
			"byteLength":232,
			"byteOffset":285764,
			"target":34962
		},
		{
			"buffer":0,
			"byteLength":928,
			"byteOffset":285996,
			"target":34962
		},
		{
			"buffer":0,
			"byteLength":312,
			"byteOffset":286924,
			"target":34963
		},
		{
			"buffer":0,
			"byteLength":8124,
			"byteOffset":287236,
			"target":34962
		},
		{
			"buffer":0,
			"byteLength":8124,
			"byteOffset":295360,
			"target":34962
		},
		{
			"buffer":0,
			"byteLength":5416,
			"byteOffset":303484,
			"target":34962
		},
		{
			"buffer":0,
			"byteLength":2708,
			"byteOffset":308900,
			"target":34962
		},
		{
			"buffer":0,
			"byteLength":10832,
			"byteOffset":311608,
			"target":34962
		},
		{
			"buffer":0,
			"byteLength":5568,
			"byteOffset":322440,
			"target":34963
		},
		{
			"buffer":0,
			"byteLength":10488,
			"byteOffset":328008,
			"target":34962
		},
		{
			"buffer":0,
			"byteLength":10488,
			"byteOffset":338496,
			"target":34962
		},
		{
			"buffer":0,
			"byteLength":6992,
			"byteOffset":348984,
			"target":34962
		},
		{
			"buffer":0,
			"byteLength":3496,
			"byteOffset":355976,
			"target":34962
		},
		{
			"buffer":0,
			"byteLength":13984,
			"byteOffset":359472,
			"target":34962
		},
		{
			"buffer":0,
			"byteLength":7680,
			"byteOffset":373456,
			"target":34963
		},
		{
			"buffer":0,
			"byteLength":3648,
			"byteOffset":381136,
			"target":34962
		},
		{
			"buffer":0,
			"byteLength":3648,
			"byteOffset":384784,
			"target":34962
		},
		{
			"buffer":0,
			"byteLength":2432,
			"byteOffset":388432,
			"target":34962
		},
		{
			"buffer":0,
			"byteLength":1216,
			"byteOffset":390864,
			"target":34962
		},
		{
			"buffer":0,
			"byteLength":4864,
			"byteOffset":392080,
			"target":34962
		},
		{
			"buffer":0,
			"byteLength":2304,
			"byteOffset":396944,
			"target":34963
		},
		{
			"buffer":0,
			"byteLength":2640,
			"byteOffset":399248,
			"target":34962
		},
		{
			"buffer":0,
			"byteLength":2640,
			"byteOffset":401888,
			"target":34962
		},
		{
			"buffer":0,
			"byteLength":1760,
			"byteOffset":404528,
			"target":34962
		},
		{
			"buffer":0,
			"byteLength":880,
			"byteOffset":406288,
			"target":34962
		},
		{
			"buffer":0,
			"byteLength":3520,
			"byteOffset":407168,
			"target":34962
		},
		{
			"buffer":0,
			"byteLength":1440,
			"byteOffset":410688,
			"target":34963
		},
		{
			"buffer":0,
			"byteLength":3120,
			"byteOffset":412128,
			"target":34962
		},
		{
			"buffer":0,
			"byteLength":3120,
			"byteOffset":415248,
			"target":34962
		},
		{
			"buffer":0,
			"byteLength":2080,
			"byteOffset":418368,
			"target":34962
		},
		{
			"buffer":0,
			"byteLength":1040,
			"byteOffset":420448,
			"target":34962
		},
		{
			"buffer":0,
			"byteLength":4160,
			"byteOffset":421488,
			"target":34962
		},
		{
			"buffer":0,
			"byteLength":1536,
			"byteOffset":425648,
			"target":34963
		},
		{
			"buffer":0,
			"byteLength":1176,
			"byteOffset":427184,
			"target":34962
		},
		{
			"buffer":0,
			"byteLength":1176,
			"byteOffset":428360,
			"target":34962
		},
		{
			"buffer":0,
			"byteLength":784,
			"byteOffset":429536,
			"target":34962
		},
		{
			"buffer":0,
			"byteLength":392,
			"byteOffset":430320,
			"target":34962
		},
		{
			"buffer":0,
			"byteLength":1568,
			"byteOffset":430712,
			"target":34962
		},
		{
			"buffer":0,
			"byteLength":720,
			"byteOffset":432280,
			"target":34963
		},
		{
			"buffer":0,
			"byteLength":1056,
			"byteOffset":433000,
			"target":34962
		},
		{
			"buffer":0,
			"byteLength":1056,
			"byteOffset":434056,
			"target":34962
		},
		{
			"buffer":0,
			"byteLength":704,
			"byteOffset":435112,
			"target":34962
		},
		{
			"buffer":0,
			"byteLength":352,
			"byteOffset":435816,
			"target":34962
		},
		{
			"buffer":0,
			"byteLength":1408,
			"byteOffset":436168,
			"target":34962
		},
		{
			"buffer":0,
			"byteLength":432,
			"byteOffset":437576,
			"target":34963
		},
		{
			"buffer":0,
			"byteLength":672,
			"byteOffset":438008,
			"target":34962
		},
		{
			"buffer":0,
			"byteLength":672,
			"byteOffset":438680,
			"target":34962
		},
		{
			"buffer":0,
			"byteLength":448,
			"byteOffset":439352,
			"target":34962
		},
		{
			"buffer":0,
			"byteLength":224,
			"byteOffset":439800,
			"target":34962
		},
		{
			"buffer":0,
			"byteLength":896,
			"byteOffset":440024,
			"target":34962
		},
		{
			"buffer":0,
			"byteLength":504,
			"byteOffset":440920,
			"target":34963
		},
		{
			"buffer":0,
			"byteLength":288,
			"byteOffset":441424,
			"target":34962
		},
		{
			"buffer":0,
			"byteLength":288,
			"byteOffset":441712,
			"target":34962
		},
		{
			"buffer":0,
			"byteLength":192,
			"byteOffset":442000,
			"target":34962
		},
		{
			"buffer":0,
			"byteLength":96,
			"byteOffset":442192,
			"target":34962
		},
		{
			"buffer":0,
			"byteLength":384,
			"byteOffset":442288,
			"target":34962
		},
		{
			"buffer":0,
			"byteLength":72,
			"byteOffset":442672,
			"target":34963
		},
		{
			"buffer":0,
			"byteLength":768,
			"byteOffset":442744,
			"target":34962
		},
		{
			"buffer":0,
			"byteLength":768,
			"byteOffset":443512,
			"target":34962
		},
		{
			"buffer":0,
			"byteLength":512,
			"byteOffset":444280,
			"target":34962
		},
		{
			"buffer":0,
			"byteLength":256,
			"byteOffset":444792,
			"target":34962
		},
		{
			"buffer":0,
			"byteLength":1024,
			"byteOffset":445048,
			"target":34962
		},
		{
			"buffer":0,
			"byteLength":360,
			"byteOffset":446072,
			"target":34963
		},
		{
			"buffer":0,
			"byteLength":1088,
			"byteOffset":446432
		},
		{
			"buffer":0,
			"byteLength":8,
			"byteOffset":447520
		},
		{
			"buffer":0,
			"byteLength":24,
			"byteOffset":447528
		},
		{
			"buffer":0,
			"byteLength":32,
			"byteOffset":447552
		},
		{
			"buffer":0,
			"byteLength":24,
			"byteOffset":447584
		},
		{
			"buffer":0,
			"byteLength":24,
			"byteOffset":447608
		},
		{
			"buffer":0,
			"byteLength":32,
			"byteOffset":447632
		},
		{
			"buffer":0,
			"byteLength":24,
			"byteOffset":447664
		},
		{
			"buffer":0,
			"byteLength":24,
			"byteOffset":447688
		},
		{
			"buffer":0,
			"byteLength":76,
			"byteOffset":447712
		},
		{
			"buffer":0,
			"byteLength":304,
			"byteOffset":447788
		},
		{
			"buffer":0,
			"byteLength":24,
			"byteOffset":448092
		},
		{
			"buffer":0,
			"byteLength":24,
			"byteOffset":448116
		},
		{
			"buffer":0,
			"byteLength":32,
			"byteOffset":448140
		},
		{
			"buffer":0,
			"byteLength":24,
			"byteOffset":448172
		},
		{
			"buffer":0,
			"byteLength":24,
			"byteOffset":448196
		},
		{
			"buffer":0,
			"byteLength":32,
			"byteOffset":448220
		},
		{
			"buffer":0,
			"byteLength":24,
			"byteOffset":448252
		},
		{
			"buffer":0,
			"byteLength":24,
			"byteOffset":448276
		},
		{
			"buffer":0,
			"byteLength":304,
			"byteOffset":448300
		},
		{
			"buffer":0,
			"byteLength":24,
			"byteOffset":448604
		},
		{
			"buffer":0,
			"byteLength":24,
			"byteOffset":448628
		},
		{
			"buffer":0,
			"byteLength":304,
			"byteOffset":448652
		},
		{
			"buffer":0,
			"byteLength":24,
			"byteOffset":448956
		},
		{
			"buffer":0,
			"byteLength":24,
			"byteOffset":448980
		},
		{
			"buffer":0,
			"byteLength":32,
			"byteOffset":449004
		},
		{
			"buffer":0,
			"byteLength":24,
			"byteOffset":449036
		},
		{
			"buffer":0,
			"byteLength":24,
			"byteOffset":449060
		},
		{
			"buffer":0,
			"byteLength":304,
			"byteOffset":449084
		},
		{
			"buffer":0,
			"byteLength":24,
			"byteOffset":449388
		},
		{
			"buffer":0,
			"byteLength":24,
			"byteOffset":449412
		},
		{
			"buffer":0,
			"byteLength":32,
			"byteOffset":449436
		},
		{
			"buffer":0,
			"byteLength":24,
			"byteOffset":449468
		},
		{
			"buffer":0,
			"byteLength":24,
			"byteOffset":449492
		},
		{
			"buffer":0,
			"byteLength":32,
			"byteOffset":449516
		},
		{
			"buffer":0,
			"byteLength":24,
			"byteOffset":449548
		},
		{
			"buffer":0,
			"byteLength":24,
			"byteOffset":449572
		},
		{
			"buffer":0,
			"byteLength":304,
			"byteOffset":449596
		},
		{
			"buffer":0,
			"byteLength":24,
			"byteOffset":449900
		},
		{
			"buffer":0,
			"byteLength":24,
			"byteOffset":449924
		},
		{
			"buffer":0,
			"byteLength":32,
			"byteOffset":449948
		},
		{
			"buffer":0,
			"byteLength":24,
			"byteOffset":449980
		},
		{
			"buffer":0,
			"byteLength":24,
			"byteOffset":450004
		},
		{
			"buffer":0,
			"byteLength":32,
			"byteOffset":450028
		},
		{
			"buffer":0,
			"byteLength":24,
			"byteOffset":450060
		},
		{
			"buffer":0,
			"byteLength":24,
			"byteOffset":450084
		},
		{
			"buffer":0,
			"byteLength":304,
			"byteOffset":450108
		},
		{
			"buffer":0,
			"byteLength":24,
			"byteOffset":450412
		},
		{
			"buffer":0,
			"byteLength":24,
			"byteOffset":450436
		},
		{
			"buffer":0,
			"byteLength":32,
			"byteOffset":450460
		},
		{
			"buffer":0,
			"byteLength":24,
			"byteOffset":450492
		},
		{
			"buffer":0,
			"byteLength":24,
			"byteOffset":450516
		},
		{
			"buffer":0,
			"byteLength":32,
			"byteOffset":450540
		},
		{
			"buffer":0,
			"byteLength":24,
			"byteOffset":450572
		},
		{
			"buffer":0,
			"byteLength":244,
			"byteOffset":450596
		},
		{
			"buffer":0,
			"byteLength":732,
			"byteOffset":450840
		},
		{
			"buffer":0,
			"byteLength":8,
			"byteOffset":451572
		},
		{
			"buffer":0,
			"byteLength":32,
			"byteOffset":451580
		},
		{
			"buffer":0,
			"byteLength":24,
			"byteOffset":451612
		},
		{
			"buffer":0,
			"byteLength":24,
			"byteOffset":451636
		},
		{
			"buffer":0,
			"byteLength":32,
			"byteOffset":451660
		},
		{
			"buffer":0,
			"byteLength":24,
			"byteOffset":451692
		},
		{
			"buffer":0,
			"byteLength":24,
			"byteOffset":451716
		},
		{
			"buffer":0,
			"byteLength":976,
			"byteOffset":451740
		},
		{
			"buffer":0,
			"byteLength":24,
			"byteOffset":452716
		},
		{
			"buffer":0,
			"byteLength":24,
			"byteOffset":452740
		},
		{
			"buffer":0,
			"byteLength":32,
			"byteOffset":452764
		},
		{
			"buffer":0,
			"byteLength":24,
			"byteOffset":452796
		},
		{
			"buffer":0,
			"byteLength":24,
			"byteOffset":452820
		},
		{
			"buffer":0,
			"byteLength":976,
			"byteOffset":452844
		},
		{
			"buffer":0,
			"byteLength":24,
			"byteOffset":453820
		},
		{
			"buffer":0,
			"byteLength":24,
			"byteOffset":453844
		},
		{
			"buffer":0,
			"byteLength":976,
			"byteOffset":453868
		},
		{
			"buffer":0,
			"byteLength":24,
			"byteOffset":454844
		},
		{
			"buffer":0,
			"byteLength":24,
			"byteOffset":454868
		},
		{
			"buffer":0,
			"byteLength":32,
			"byteOffset":454892
		},
		{
			"buffer":0,
			"byteLength":24,
			"byteOffset":454924
		},
		{
			"buffer":0,
			"byteLength":24,
			"byteOffset":454948
		},
		{
			"buffer":0,
			"byteLength":32,
			"byteOffset":454972
		},
		{
			"buffer":0,
			"byteLength":24,
			"byteOffset":455004
		},
		{
			"buffer":0,
			"byteLength":24,
			"byteOffset":455028
		},
		{
			"buffer":0,
			"byteLength":976,
			"byteOffset":455052
		},
		{
			"buffer":0,
			"byteLength":24,
			"byteOffset":456028
		},
		{
			"buffer":0,
			"byteLength":24,
			"byteOffset":456052
		},
		{
			"buffer":0,
			"byteLength":32,
			"byteOffset":456076
		},
		{
			"buffer":0,
			"byteLength":24,
			"byteOffset":456108
		},
		{
			"buffer":0,
			"byteLength":24,
			"byteOffset":456132
		},
		{
			"buffer":0,
			"byteLength":32,
			"byteOffset":456156
		},
		{
			"buffer":0,
			"byteLength":24,
			"byteOffset":456188
		},
		{
			"buffer":0,
			"byteLength":24,
			"byteOffset":456212
		},
		{
			"buffer":0,
			"byteLength":32,
			"byteOffset":456236
		},
		{
			"buffer":0,
			"byteLength":24,
			"byteOffset":456268
		},
		{
			"buffer":0,
			"byteLength":24,
			"byteOffset":456292
		},
		{
			"buffer":0,
			"byteLength":32,
			"byteOffset":456316
		},
		{
			"buffer":0,
			"byteLength":24,
			"byteOffset":456348
		},
		{
			"buffer":0,
			"byteLength":24,
			"byteOffset":456372
		},
		{
			"buffer":0,
			"byteLength":32,
			"byteOffset":456396
		},
		{
			"buffer":0,
			"byteLength":24,
			"byteOffset":456428
		},
		{
			"buffer":0,
			"byteLength":24,
			"byteOffset":456452
		},
		{
			"buffer":0,
			"byteLength":32,
			"byteOffset":456476
		},
		{
			"buffer":0,
			"byteLength":24,
			"byteOffset":456508
		},
		{
			"buffer":0,
			"byteLength":24,
			"byteOffset":456532
		},
		{
			"buffer":0,
			"byteLength":32,
			"byteOffset":456556
		},
		{
			"buffer":0,
			"byteLength":24,
			"byteOffset":456588
		},
		{
			"buffer":0,
			"byteLength":24,
			"byteOffset":456612
		},
		{
			"buffer":0,
			"byteLength":32,
			"byteOffset":456636
		},
		{
			"buffer":0,
			"byteLength":24,
			"byteOffset":456668
		},
		{
			"buffer":0,
			"byteLength":124,
			"byteOffset":456692
		},
		{
			"buffer":0,
			"byteLength":372,
			"byteOffset":456816
		},
		{
			"buffer":0,
			"byteLength":496,
			"byteOffset":457188
		},
		{
			"buffer":0,
			"byteLength":8,
			"byteOffset":457684
		},
		{
			"buffer":0,
			"byteLength":24,
			"byteOffset":457692
		},
		{
			"buffer":0,
			"byteLength":24,
			"byteOffset":457716
		},
		{
			"buffer":0,
			"byteLength":32,
			"byteOffset":457740
		},
		{
			"buffer":0,
			"byteLength":24,
			"byteOffset":457772
		},
		{
			"buffer":0,
			"byteLength":24,
			"byteOffset":457796
		},
		{
			"buffer":0,
			"byteLength":496,
			"byteOffset":457820
		},
		{
			"buffer":0,
			"byteLength":24,
			"byteOffset":458316
		},
		{
			"buffer":0,
			"byteLength":24,
			"byteOffset":458340
		},
		{
			"buffer":0,
			"byteLength":32,
			"byteOffset":458364
		},
		{
			"buffer":0,
			"byteLength":24,
			"byteOffset":458396
		},
		{
			"buffer":0,
			"byteLength":24,
			"byteOffset":458420
		},
		{
			"buffer":0,
			"byteLength":32,
			"byteOffset":458444
		},
		{
			"buffer":0,
			"byteLength":24,
			"byteOffset":458476
		},
		{
			"buffer":0,
			"byteLength":24,
			"byteOffset":458500
		},
		{
			"buffer":0,
			"byteLength":496,
			"byteOffset":458524
		},
		{
			"buffer":0,
			"byteLength":24,
			"byteOffset":459020
		},
		{
			"buffer":0,
			"byteLength":24,
			"byteOffset":459044
		},
		{
			"buffer":0,
			"byteLength":32,
			"byteOffset":459068
		},
		{
			"buffer":0,
			"byteLength":24,
			"byteOffset":459100
		},
		{
			"buffer":0,
			"byteLength":24,
			"byteOffset":459124
		},
		{
			"buffer":0,
			"byteLength":32,
			"byteOffset":459148
		},
		{
			"buffer":0,
			"byteLength":24,
			"byteOffset":459180
		},
		{
			"buffer":0,
			"byteLength":24,
			"byteOffset":459204
		},
		{
			"buffer":0,
			"byteLength":496,
			"byteOffset":459228
		},
		{
			"buffer":0,
			"byteLength":24,
			"byteOffset":459724
		},
		{
			"buffer":0,
			"byteLength":24,
			"byteOffset":459748
		},
		{
			"buffer":0,
			"byteLength":32,
			"byteOffset":459772
		},
		{
			"buffer":0,
			"byteLength":24,
			"byteOffset":459804
		},
		{
			"buffer":0,
			"byteLength":24,
			"byteOffset":459828
		},
		{
			"buffer":0,
			"byteLength":32,
			"byteOffset":459852
		},
		{
			"buffer":0,
			"byteLength":24,
			"byteOffset":459884
		},
		{
			"buffer":0,
			"byteLength":24,
			"byteOffset":459908
		},
		{
			"buffer":0,
			"byteLength":496,
			"byteOffset":459932
		},
		{
			"buffer":0,
			"byteLength":24,
			"byteOffset":460428
		},
		{
			"buffer":0,
			"byteLength":24,
			"byteOffset":460452
		},
		{
			"buffer":0,
			"byteLength":496,
			"byteOffset":460476
		},
		{
			"buffer":0,
			"byteLength":24,
			"byteOffset":460972
		},
		{
			"buffer":0,
			"byteLength":24,
			"byteOffset":460996
		},
		{
			"buffer":0,
			"byteLength":496,
			"byteOffset":461020
		},
		{
			"buffer":0,
			"byteLength":24,
			"byteOffset":461516
		},
		{
			"buffer":0,
			"byteLength":24,
			"byteOffset":461540
		},
		{
			"buffer":0,
			"byteLength":496,
			"byteOffset":461564
		},
		{
			"buffer":0,
			"byteLength":24,
			"byteOffset":462060
		},
		{
			"buffer":0,
			"byteLength":24,
			"byteOffset":462084
		},
		{
			"buffer":0,
			"byteLength":496,
			"byteOffset":462108
		},
		{
			"buffer":0,
			"byteLength":24,
			"byteOffset":462604
		},
		{
			"buffer":0,
			"byteLength":24,
			"byteOffset":462628
		},
		{
			"buffer":0,
			"byteLength":496,
			"byteOffset":462652
		},
		{
			"buffer":0,
			"byteLength":24,
			"byteOffset":463148
		}
	],
	"samplers":[
		{
			"magFilter":9729,
			"minFilter":9987
		}
	],
	"buffers":[
		{
			"byteLength":463172,
			"uri":"geld.bin"
		}
	]
}
