{
	"asset":{
		"generator":"Khronos glTF Blender I/O v4.2.57",
		"version":"2.0"
	},
	"extensionsUsed":[
		"KHR_materials_clearcoat",
		"KHR_materials_sheen"
	],
	"scene":0,
	"scenes":[
		{
			"name":"Scene",
			"nodes":[
				18
			]
		}
	],
	"nodes":[
		{
			"name":"head",
			"translation":[
				0,
				0.09499990940093994,
				0
			]
		},
		{
			"children":[
				0
			],
			"name":"neck",
			"translation":[
				0,
				0.1994999647140503,
				0
			]
		},
		{
			"name":"hand.R",
			"rotation":[
				-0.0028319424018263817,
				-0.020585769787430763,
				0.022130142897367477,
				0.9995391368865967
			],
			"scale":[
				0.9999998807907104,
				0.9999998211860657,
				0.9999998807907104
			],
			"translation":[
				-8.440110832452774e-09,
				0.2391408383846283,
				2.7939677238464355e-09
			]
		},
		{
			"children":[
				2
			],
			"name":"forearm.R",
			"rotation":[
				0.04786790907382965,
				-0.06073953956365585,
				0.07015407830476761,
				0.9945339560508728
			],
			"scale":[
				1,
				0.9999999403953552,
				1
			],
			"translation":[
				2.1420419216156006e-08,
				0.2624836266040802,
				-1.862645149230957e-09
			]
		},
		{
			"children":[
				3
			],
			"name":"upper_arm.R",
			"rotation":[
				0.9885599613189697,
				0.10654281824827194,
				0.10654289275407791,
				0.006823050323873758
			],
			"scale":[
				0.9999998211860657,
				0.9999999403953552,
				0.9999999403953552
			],
			"translation":[
				0.20520000159740448,
				0.15199995040893555,
				0
			]
		},
		{
			"name":"hand.L",
			"rotation":[
				-0.0028319424018263817,
				0.020585769787430763,
				-0.022130142897367477,
				0.9995391368865967
			],
			"scale":[
				0.9999998807907104,
				0.9999998211860657,
				0.9999998807907104
			],
			"translation":[
				8.440110832452774e-09,
				0.2391408383846283,
				2.7939677238464355e-09
			]
		},
		{
			"children":[
				5
			],
			"name":"forearm.L",
			"rotation":[
				0.04786790907382965,
				0.06073953956365585,
				-0.07015407830476761,
				0.9945339560508728
			],
			"scale":[
				1,
				0.9999999403953552,
				1
			],
			"translation":[
				-2.1420419216156006e-08,
				0.2624836266040802,
				-1.862645149230957e-09
			]
		},
		{
			"children":[
				6
			],
			"name":"upper_arm.L",
			"rotation":[
				0.9885599613189697,
				-0.10654281824827194,
				-0.10654289275407791,
				0.006823050323873758
			],
			"scale":[
				0.9999998211860657,
				0.9999999403953552,
				0.9999999403953552
			],
			"translation":[
				-0.20520000159740448,
				0.15199995040893555,
				0
			]
		},
		{
			"children":[
				1,
				4,
				7
			],
			"name":"chest",
			"translation":[
				0,
				0.1614999771118164,
				0
			]
		},
		{
			"children":[
				8
			],
			"name":"spine",
			"translation":[
				0,
				0.14250004291534424,
				0
			]
		},
		{
			"name":"foot.R",
			"rotation":[
				0.5914180874824524,
				-2.08083417163607e-09,
				1.88708626502887e-09,
				0.8063651323318481
			],
			"translation":[
				-7.3225723262737574e-09,
				0.39006027579307556,
				1.1177156977737468e-09
			]
		},
		{
			"children":[
				10
			],
			"name":"shin.R",
			"rotation":[
				-0.04151010513305664,
				-0.00986463576555252,
				0.009349511004984379,
				0.9990456700325012
			],
			"scale":[
				1,
				1.0000001192092896,
				1
			],
			"translation":[
				-7.843482308089733e-09,
				0.38974085450172424,
				-1.7462298274040222e-09
			]
		},
		{
			"children":[
				11
			],
			"name":"thigh.R",
			"rotation":[
				-0.9997993111610413,
				-0.00961052905768156,
				-0.00961059145629406,
				0.014720416627824306
			],
			"scale":[
				1,
				1.0000001192092896,
				1.000000238418579
			],
			"translation":[
				0.08739999681711197,
				-0.018999993801116943,
				0
			]
		},
		{
			"name":"foot.L",
			"rotation":[
				0.5914180874824524,
				2.08083417163607e-09,
				-1.88708626502887e-09,
				0.8063651323318481
			],
			"translation":[
				7.3225723262737574e-09,
				0.39006027579307556,
				1.1177156977737468e-09
			]
		},
		{
			"children":[
				13
			],
			"name":"shin.L",
			"rotation":[
				-0.04151010513305664,
				0.00986463576555252,
				-0.009349511004984379,
				0.9990456700325012
			],
			"scale":[
				1,
				1.0000001192092896,
				1
			],
			"translation":[
				7.843482308089733e-09,
				0.38974085450172424,
				-1.7462298274040222e-09
			]
		},
		{
			"children":[
				14
			],
			"name":"thigh.L",
			"rotation":[
				-0.9997993111610413,
				0.00961052905768156,
				0.00961059145629406,
				0.014720416627824306
			],
			"scale":[
				1,
				1.0000001192092896,
				1.000000238418579
			],
			"translation":[
				-0.08739999681711197,
				-0.018999993801116943,
				0
			]
		},
		{
			"children":[
				9,
				12,
				15
			],
			"name":"hips",
			"translation":[
				0,
				0.8834999799728394,
				0
			]
		},
		{
			"mesh":0,
			"name":"gido",
			"skin":0
		},
		{
			"children":[
				17,
				16
			],
			"name":"gido_rig"
		}
	],
	"animations":[
		{
			"channels":[
				{
					"sampler":0,
					"target":{
						"node":16,
						"path":"translation"
					}
				},
				{
					"sampler":1,
					"target":{
						"node":16,
						"path":"rotation"
					}
				},
				{
					"sampler":2,
					"target":{
						"node":16,
						"path":"scale"
					}
				},
				{
					"sampler":3,
					"target":{
						"node":9,
						"path":"translation"
					}
				},
				{
					"sampler":4,
					"target":{
						"node":9,
						"path":"rotation"
					}
				},
				{
					"sampler":5,
					"target":{
						"node":9,
						"path":"scale"
					}
				},
				{
					"sampler":6,
					"target":{
						"node":8,
						"path":"translation"
					}
				},
				{
					"sampler":7,
					"target":{
						"node":8,
						"path":"rotation"
					}
				},
				{
					"sampler":8,
					"target":{
						"node":8,
						"path":"scale"
					}
				},
				{
					"sampler":9,
					"target":{
						"node":1,
						"path":"translation"
					}
				},
				{
					"sampler":10,
					"target":{
						"node":1,
						"path":"rotation"
					}
				},
				{
					"sampler":11,
					"target":{
						"node":1,
						"path":"scale"
					}
				},
				{
					"sampler":12,
					"target":{
						"node":0,
						"path":"translation"
					}
				},
				{
					"sampler":13,
					"target":{
						"node":0,
						"path":"rotation"
					}
				},
				{
					"sampler":14,
					"target":{
						"node":0,
						"path":"scale"
					}
				},
				{
					"sampler":15,
					"target":{
						"node":4,
						"path":"translation"
					}
				},
				{
					"sampler":16,
					"target":{
						"node":4,
						"path":"rotation"
					}
				},
				{
					"sampler":17,
					"target":{
						"node":4,
						"path":"scale"
					}
				},
				{
					"sampler":18,
					"target":{
						"node":3,
						"path":"translation"
					}
				},
				{
					"sampler":19,
					"target":{
						"node":3,
						"path":"rotation"
					}
				},
				{
					"sampler":20,
					"target":{
						"node":3,
						"path":"scale"
					}
				},
				{
					"sampler":21,
					"target":{
						"node":2,
						"path":"translation"
					}
				},
				{
					"sampler":22,
					"target":{
						"node":2,
						"path":"rotation"
					}
				},
				{
					"sampler":23,
					"target":{
						"node":2,
						"path":"scale"
					}
				},
				{
					"sampler":24,
					"target":{
						"node":7,
						"path":"translation"
					}
				},
				{
					"sampler":25,
					"target":{
						"node":7,
						"path":"rotation"
					}
				},
				{
					"sampler":26,
					"target":{
						"node":7,
						"path":"scale"
					}
				},
				{
					"sampler":27,
					"target":{
						"node":6,
						"path":"translation"
					}
				},
				{
					"sampler":28,
					"target":{
						"node":6,
						"path":"rotation"
					}
				},
				{
					"sampler":29,
					"target":{
						"node":6,
						"path":"scale"
					}
				},
				{
					"sampler":30,
					"target":{
						"node":5,
						"path":"translation"
					}
				},
				{
					"sampler":31,
					"target":{
						"node":5,
						"path":"rotation"
					}
				},
				{
					"sampler":32,
					"target":{
						"node":5,
						"path":"scale"
					}
				},
				{
					"sampler":33,
					"target":{
						"node":12,
						"path":"translation"
					}
				},
				{
					"sampler":34,
					"target":{
						"node":12,
						"path":"rotation"
					}
				},
				{
					"sampler":35,
					"target":{
						"node":12,
						"path":"scale"
					}
				},
				{
					"sampler":36,
					"target":{
						"node":11,
						"path":"translation"
					}
				},
				{
					"sampler":37,
					"target":{
						"node":11,
						"path":"rotation"
					}
				},
				{
					"sampler":38,
					"target":{
						"node":11,
						"path":"scale"
					}
				},
				{
					"sampler":39,
					"target":{
						"node":10,
						"path":"translation"
					}
				},
				{
					"sampler":40,
					"target":{
						"node":10,
						"path":"rotation"
					}
				},
				{
					"sampler":41,
					"target":{
						"node":10,
						"path":"scale"
					}
				},
				{
					"sampler":42,
					"target":{
						"node":15,
						"path":"translation"
					}
				},
				{
					"sampler":43,
					"target":{
						"node":15,
						"path":"rotation"
					}
				},
				{
					"sampler":44,
					"target":{
						"node":15,
						"path":"scale"
					}
				},
				{
					"sampler":45,
					"target":{
						"node":14,
						"path":"translation"
					}
				},
				{
					"sampler":46,
					"target":{
						"node":14,
						"path":"rotation"
					}
				},
				{
					"sampler":47,
					"target":{
						"node":14,
						"path":"scale"
					}
				},
				{
					"sampler":48,
					"target":{
						"node":13,
						"path":"translation"
					}
				},
				{
					"sampler":49,
					"target":{
						"node":13,
						"path":"rotation"
					}
				},
				{
					"sampler":50,
					"target":{
						"node":13,
						"path":"scale"
					}
				}
			],
			"name":"attack",
			"samplers":[
				{
					"input":84,
					"interpolation":"STEP",
					"output":85
				},
				{
					"input":84,
					"interpolation":"STEP",
					"output":86
				},
				{
					"input":84,
					"interpolation":"STEP",
					"output":87
				},
				{
					"input":84,
					"interpolation":"STEP",
					"output":88
				},
				{
					"input":84,
					"interpolation":"STEP",
					"output":89
				},
				{
					"input":84,
					"interpolation":"STEP",
					"output":90
				},
				{
					"input":84,
					"interpolation":"STEP",
					"output":91
				},
				{
					"input":92,
					"interpolation":"LINEAR",
					"output":93
				},
				{
					"input":84,
					"interpolation":"STEP",
					"output":94
				},
				{
					"input":84,
					"interpolation":"STEP",
					"output":95
				},
				{
					"input":84,
					"interpolation":"STEP",
					"output":96
				},
				{
					"input":84,
					"interpolation":"STEP",
					"output":97
				},
				{
					"input":84,
					"interpolation":"STEP",
					"output":98
				},
				{
					"input":84,
					"interpolation":"STEP",
					"output":99
				},
				{
					"input":84,
					"interpolation":"STEP",
					"output":100
				},
				{
					"input":84,
					"interpolation":"STEP",
					"output":101
				},
				{
					"input":92,
					"interpolation":"LINEAR",
					"output":102
				},
				{
					"input":84,
					"interpolation":"STEP",
					"output":103
				},
				{
					"input":84,
					"interpolation":"STEP",
					"output":104
				},
				{
					"input":92,
					"interpolation":"LINEAR",
					"output":105
				},
				{
					"input":84,
					"interpolation":"STEP",
					"output":106
				},
				{
					"input":84,
					"interpolation":"STEP",
					"output":107
				},
				{
					"input":84,
					"interpolation":"STEP",
					"output":108
				},
				{
					"input":84,
					"interpolation":"STEP",
					"output":109
				},
				{
					"input":84,
					"interpolation":"STEP",
					"output":110
				},
				{
					"input":92,
					"interpolation":"LINEAR",
					"output":111
				},
				{
					"input":84,
					"interpolation":"STEP",
					"output":112
				},
				{
					"input":84,
					"interpolation":"STEP",
					"output":113
				},
				{
					"input":84,
					"interpolation":"STEP",
					"output":114
				},
				{
					"input":84,
					"interpolation":"STEP",
					"output":115
				},
				{
					"input":84,
					"interpolation":"STEP",
					"output":116
				},
				{
					"input":84,
					"interpolation":"STEP",
					"output":117
				},
				{
					"input":84,
					"interpolation":"STEP",
					"output":118
				},
				{
					"input":84,
					"interpolation":"STEP",
					"output":119
				},
				{
					"input":92,
					"interpolation":"LINEAR",
					"output":120
				},
				{
					"input":84,
					"interpolation":"STEP",
					"output":121
				},
				{
					"input":84,
					"interpolation":"LINEAR",
					"output":122
				},
				{
					"input":84,
					"interpolation":"LINEAR",
					"output":123
				},
				{
					"input":84,
					"interpolation":"STEP",
					"output":124
				},
				{
					"input":84,
					"interpolation":"LINEAR",
					"output":125
				},
				{
					"input":84,
					"interpolation":"LINEAR",
					"output":126
				},
				{
					"input":84,
					"interpolation":"STEP",
					"output":127
				},
				{
					"input":84,
					"interpolation":"STEP",
					"output":128
				},
				{
					"input":92,
					"interpolation":"LINEAR",
					"output":129
				},
				{
					"input":84,
					"interpolation":"STEP",
					"output":130
				},
				{
					"input":84,
					"interpolation":"LINEAR",
					"output":131
				},
				{
					"input":84,
					"interpolation":"LINEAR",
					"output":132
				},
				{
					"input":84,
					"interpolation":"STEP",
					"output":133
				},
				{
					"input":84,
					"interpolation":"LINEAR",
					"output":134
				},
				{
					"input":84,
					"interpolation":"LINEAR",
					"output":135
				},
				{
					"input":84,
					"interpolation":"STEP",
					"output":136
				}
			]
		},
		{
			"channels":[
				{
					"sampler":0,
					"target":{
						"node":16,
						"path":"translation"
					}
				},
				{
					"sampler":1,
					"target":{
						"node":16,
						"path":"rotation"
					}
				},
				{
					"sampler":2,
					"target":{
						"node":16,
						"path":"scale"
					}
				},
				{
					"sampler":3,
					"target":{
						"node":9,
						"path":"translation"
					}
				},
				{
					"sampler":4,
					"target":{
						"node":9,
						"path":"rotation"
					}
				},
				{
					"sampler":5,
					"target":{
						"node":9,
						"path":"scale"
					}
				},
				{
					"sampler":6,
					"target":{
						"node":8,
						"path":"translation"
					}
				},
				{
					"sampler":7,
					"target":{
						"node":8,
						"path":"rotation"
					}
				},
				{
					"sampler":8,
					"target":{
						"node":8,
						"path":"scale"
					}
				},
				{
					"sampler":9,
					"target":{
						"node":1,
						"path":"translation"
					}
				},
				{
					"sampler":10,
					"target":{
						"node":1,
						"path":"rotation"
					}
				},
				{
					"sampler":11,
					"target":{
						"node":1,
						"path":"scale"
					}
				},
				{
					"sampler":12,
					"target":{
						"node":0,
						"path":"translation"
					}
				},
				{
					"sampler":13,
					"target":{
						"node":0,
						"path":"rotation"
					}
				},
				{
					"sampler":14,
					"target":{
						"node":0,
						"path":"scale"
					}
				},
				{
					"sampler":15,
					"target":{
						"node":4,
						"path":"translation"
					}
				},
				{
					"sampler":16,
					"target":{
						"node":4,
						"path":"rotation"
					}
				},
				{
					"sampler":17,
					"target":{
						"node":4,
						"path":"scale"
					}
				},
				{
					"sampler":18,
					"target":{
						"node":3,
						"path":"translation"
					}
				},
				{
					"sampler":19,
					"target":{
						"node":3,
						"path":"rotation"
					}
				},
				{
					"sampler":20,
					"target":{
						"node":3,
						"path":"scale"
					}
				},
				{
					"sampler":21,
					"target":{
						"node":2,
						"path":"translation"
					}
				},
				{
					"sampler":22,
					"target":{
						"node":2,
						"path":"rotation"
					}
				},
				{
					"sampler":23,
					"target":{
						"node":2,
						"path":"scale"
					}
				},
				{
					"sampler":24,
					"target":{
						"node":7,
						"path":"translation"
					}
				},
				{
					"sampler":25,
					"target":{
						"node":7,
						"path":"rotation"
					}
				},
				{
					"sampler":26,
					"target":{
						"node":7,
						"path":"scale"
					}
				},
				{
					"sampler":27,
					"target":{
						"node":6,
						"path":"translation"
					}
				},
				{
					"sampler":28,
					"target":{
						"node":6,
						"path":"rotation"
					}
				},
				{
					"sampler":29,
					"target":{
						"node":6,
						"path":"scale"
					}
				},
				{
					"sampler":30,
					"target":{
						"node":5,
						"path":"translation"
					}
				},
				{
					"sampler":31,
					"target":{
						"node":5,
						"path":"rotation"
					}
				},
				{
					"sampler":32,
					"target":{
						"node":5,
						"path":"scale"
					}
				},
				{
					"sampler":33,
					"target":{
						"node":12,
						"path":"translation"
					}
				},
				{
					"sampler":34,
					"target":{
						"node":12,
						"path":"rotation"
					}
				},
				{
					"sampler":35,
					"target":{
						"node":12,
						"path":"scale"
					}
				},
				{
					"sampler":36,
					"target":{
						"node":11,
						"path":"translation"
					}
				},
				{
					"sampler":37,
					"target":{
						"node":11,
						"path":"rotation"
					}
				},
				{
					"sampler":38,
					"target":{
						"node":11,
						"path":"scale"
					}
				},
				{
					"sampler":39,
					"target":{
						"node":10,
						"path":"translation"
					}
				},
				{
					"sampler":40,
					"target":{
						"node":10,
						"path":"rotation"
					}
				},
				{
					"sampler":41,
					"target":{
						"node":10,
						"path":"scale"
					}
				},
				{
					"sampler":42,
					"target":{
						"node":15,
						"path":"translation"
					}
				},
				{
					"sampler":43,
					"target":{
						"node":15,
						"path":"rotation"
					}
				},
				{
					"sampler":44,
					"target":{
						"node":15,
						"path":"scale"
					}
				},
				{
					"sampler":45,
					"target":{
						"node":14,
						"path":"translation"
					}
				},
				{
					"sampler":46,
					"target":{
						"node":14,
						"path":"rotation"
					}
				},
				{
					"sampler":47,
					"target":{
						"node":14,
						"path":"scale"
					}
				},
				{
					"sampler":48,
					"target":{
						"node":13,
						"path":"translation"
					}
				},
				{
					"sampler":49,
					"target":{
						"node":13,
						"path":"rotation"
					}
				},
				{
					"sampler":50,
					"target":{
						"node":13,
						"path":"scale"
					}
				}
			],
			"name":"idle",
			"samplers":[
				{
					"input":137,
					"interpolation":"LINEAR",
					"output":138
				},
				{
					"input":139,
					"interpolation":"STEP",
					"output":140
				},
				{
					"input":139,
					"interpolation":"STEP",
					"output":141
				},
				{
					"input":139,
					"interpolation":"STEP",
					"output":142
				},
				{
					"input":139,
					"interpolation":"STEP",
					"output":143
				},
				{
					"input":139,
					"interpolation":"STEP",
					"output":144
				},
				{
					"input":139,
					"interpolation":"STEP",
					"output":145
				},
				{
					"input":137,
					"interpolation":"LINEAR",
					"output":146
				},
				{
					"input":139,
					"interpolation":"STEP",
					"output":147
				},
				{
					"input":139,
					"interpolation":"STEP",
					"output":148
				},
				{
					"input":139,
					"interpolation":"STEP",
					"output":149
				},
				{
					"input":139,
					"interpolation":"STEP",
					"output":150
				},
				{
					"input":139,
					"interpolation":"STEP",
					"output":151
				},
				{
					"input":137,
					"interpolation":"LINEAR",
					"output":152
				},
				{
					"input":139,
					"interpolation":"STEP",
					"output":153
				},
				{
					"input":139,
					"interpolation":"STEP",
					"output":154
				},
				{
					"input":137,
					"interpolation":"LINEAR",
					"output":155
				},
				{
					"input":139,
					"interpolation":"STEP",
					"output":156
				},
				{
					"input":139,
					"interpolation":"STEP",
					"output":157
				},
				{
					"input":139,
					"interpolation":"STEP",
					"output":158
				},
				{
					"input":139,
					"interpolation":"STEP",
					"output":159
				},
				{
					"input":139,
					"interpolation":"STEP",
					"output":160
				},
				{
					"input":139,
					"interpolation":"STEP",
					"output":161
				},
				{
					"input":139,
					"interpolation":"STEP",
					"output":162
				},
				{
					"input":139,
					"interpolation":"STEP",
					"output":163
				},
				{
					"input":137,
					"interpolation":"LINEAR",
					"output":164
				},
				{
					"input":139,
					"interpolation":"STEP",
					"output":165
				},
				{
					"input":139,
					"interpolation":"STEP",
					"output":166
				},
				{
					"input":139,
					"interpolation":"STEP",
					"output":167
				},
				{
					"input":139,
					"interpolation":"STEP",
					"output":168
				},
				{
					"input":139,
					"interpolation":"STEP",
					"output":169
				},
				{
					"input":139,
					"interpolation":"STEP",
					"output":170
				},
				{
					"input":139,
					"interpolation":"STEP",
					"output":171
				},
				{
					"input":139,
					"interpolation":"STEP",
					"output":172
				},
				{
					"input":139,
					"interpolation":"STEP",
					"output":173
				},
				{
					"input":139,
					"interpolation":"STEP",
					"output":174
				},
				{
					"input":139,
					"interpolation":"STEP",
					"output":175
				},
				{
					"input":139,
					"interpolation":"STEP",
					"output":176
				},
				{
					"input":139,
					"interpolation":"STEP",
					"output":177
				},
				{
					"input":139,
					"interpolation":"STEP",
					"output":178
				},
				{
					"input":139,
					"interpolation":"STEP",
					"output":179
				},
				{
					"input":139,
					"interpolation":"STEP",
					"output":180
				},
				{
					"input":139,
					"interpolation":"STEP",
					"output":181
				},
				{
					"input":139,
					"interpolation":"STEP",
					"output":182
				},
				{
					"input":139,
					"interpolation":"STEP",
					"output":183
				},
				{
					"input":139,
					"interpolation":"STEP",
					"output":184
				},
				{
					"input":139,
					"interpolation":"STEP",
					"output":185
				},
				{
					"input":139,
					"interpolation":"STEP",
					"output":186
				},
				{
					"input":139,
					"interpolation":"STEP",
					"output":187
				},
				{
					"input":139,
					"interpolation":"STEP",
					"output":188
				},
				{
					"input":139,
					"interpolation":"STEP",
					"output":189
				}
			]
		},
		{
			"channels":[
				{
					"sampler":0,
					"target":{
						"node":16,
						"path":"translation"
					}
				},
				{
					"sampler":1,
					"target":{
						"node":16,
						"path":"rotation"
					}
				},
				{
					"sampler":2,
					"target":{
						"node":16,
						"path":"scale"
					}
				},
				{
					"sampler":3,
					"target":{
						"node":9,
						"path":"translation"
					}
				},
				{
					"sampler":4,
					"target":{
						"node":9,
						"path":"rotation"
					}
				},
				{
					"sampler":5,
					"target":{
						"node":9,
						"path":"scale"
					}
				},
				{
					"sampler":6,
					"target":{
						"node":8,
						"path":"translation"
					}
				},
				{
					"sampler":7,
					"target":{
						"node":8,
						"path":"rotation"
					}
				},
				{
					"sampler":8,
					"target":{
						"node":8,
						"path":"scale"
					}
				},
				{
					"sampler":9,
					"target":{
						"node":1,
						"path":"translation"
					}
				},
				{
					"sampler":10,
					"target":{
						"node":1,
						"path":"rotation"
					}
				},
				{
					"sampler":11,
					"target":{
						"node":1,
						"path":"scale"
					}
				},
				{
					"sampler":12,
					"target":{
						"node":0,
						"path":"translation"
					}
				},
				{
					"sampler":13,
					"target":{
						"node":0,
						"path":"rotation"
					}
				},
				{
					"sampler":14,
					"target":{
						"node":0,
						"path":"scale"
					}
				},
				{
					"sampler":15,
					"target":{
						"node":4,
						"path":"translation"
					}
				},
				{
					"sampler":16,
					"target":{
						"node":4,
						"path":"rotation"
					}
				},
				{
					"sampler":17,
					"target":{
						"node":4,
						"path":"scale"
					}
				},
				{
					"sampler":18,
					"target":{
						"node":3,
						"path":"translation"
					}
				},
				{
					"sampler":19,
					"target":{
						"node":3,
						"path":"rotation"
					}
				},
				{
					"sampler":20,
					"target":{
						"node":3,
						"path":"scale"
					}
				},
				{
					"sampler":21,
					"target":{
						"node":2,
						"path":"translation"
					}
				},
				{
					"sampler":22,
					"target":{
						"node":2,
						"path":"rotation"
					}
				},
				{
					"sampler":23,
					"target":{
						"node":2,
						"path":"scale"
					}
				},
				{
					"sampler":24,
					"target":{
						"node":7,
						"path":"translation"
					}
				},
				{
					"sampler":25,
					"target":{
						"node":7,
						"path":"rotation"
					}
				},
				{
					"sampler":26,
					"target":{
						"node":7,
						"path":"scale"
					}
				},
				{
					"sampler":27,
					"target":{
						"node":6,
						"path":"translation"
					}
				},
				{
					"sampler":28,
					"target":{
						"node":6,
						"path":"rotation"
					}
				},
				{
					"sampler":29,
					"target":{
						"node":6,
						"path":"scale"
					}
				},
				{
					"sampler":30,
					"target":{
						"node":5,
						"path":"translation"
					}
				},
				{
					"sampler":31,
					"target":{
						"node":5,
						"path":"rotation"
					}
				},
				{
					"sampler":32,
					"target":{
						"node":5,
						"path":"scale"
					}
				},
				{
					"sampler":33,
					"target":{
						"node":12,
						"path":"translation"
					}
				},
				{
					"sampler":34,
					"target":{
						"node":12,
						"path":"rotation"
					}
				},
				{
					"sampler":35,
					"target":{
						"node":12,
						"path":"scale"
					}
				},
				{
					"sampler":36,
					"target":{
						"node":11,
						"path":"translation"
					}
				},
				{
					"sampler":37,
					"target":{
						"node":11,
						"path":"rotation"
					}
				},
				{
					"sampler":38,
					"target":{
						"node":11,
						"path":"scale"
					}
				},
				{
					"sampler":39,
					"target":{
						"node":10,
						"path":"translation"
					}
				},
				{
					"sampler":40,
					"target":{
						"node":10,
						"path":"rotation"
					}
				},
				{
					"sampler":41,
					"target":{
						"node":10,
						"path":"scale"
					}
				},
				{
					"sampler":42,
					"target":{
						"node":15,
						"path":"translation"
					}
				},
				{
					"sampler":43,
					"target":{
						"node":15,
						"path":"rotation"
					}
				},
				{
					"sampler":44,
					"target":{
						"node":15,
						"path":"scale"
					}
				},
				{
					"sampler":45,
					"target":{
						"node":14,
						"path":"translation"
					}
				},
				{
					"sampler":46,
					"target":{
						"node":14,
						"path":"rotation"
					}
				},
				{
					"sampler":47,
					"target":{
						"node":14,
						"path":"scale"
					}
				},
				{
					"sampler":48,
					"target":{
						"node":13,
						"path":"translation"
					}
				},
				{
					"sampler":49,
					"target":{
						"node":13,
						"path":"rotation"
					}
				},
				{
					"sampler":50,
					"target":{
						"node":13,
						"path":"scale"
					}
				}
			],
			"name":"walk",
			"samplers":[
				{
					"input":190,
					"interpolation":"LINEAR",
					"output":191
				},
				{
					"input":190,
					"interpolation":"LINEAR",
					"output":192
				},
				{
					"input":193,
					"interpolation":"STEP",
					"output":194
				},
				{
					"input":193,
					"interpolation":"STEP",
					"output":195
				},
				{
					"input":193,
					"interpolation":"STEP",
					"output":196
				},
				{
					"input":193,
					"interpolation":"STEP",
					"output":197
				},
				{
					"input":193,
					"interpolation":"STEP",
					"output":198
				},
				{
					"input":190,
					"interpolation":"LINEAR",
					"output":199
				},
				{
					"input":193,
					"interpolation":"STEP",
					"output":200
				},
				{
					"input":193,
					"interpolation":"STEP",
					"output":201
				},
				{
					"input":193,
					"interpolation":"STEP",
					"output":202
				},
				{
					"input":193,
					"interpolation":"STEP",
					"output":203
				},
				{
					"input":193,
					"interpolation":"STEP",
					"output":204
				},
				{
					"input":193,
					"interpolation":"STEP",
					"output":205
				},
				{
					"input":193,
					"interpolation":"STEP",
					"output":206
				},
				{
					"input":193,
					"interpolation":"STEP",
					"output":207
				},
				{
					"input":190,
					"interpolation":"LINEAR",
					"output":208
				},
				{
					"input":193,
					"interpolation":"STEP",
					"output":209
				},
				{
					"input":193,
					"interpolation":"STEP",
					"output":210
				},
				{
					"input":193,
					"interpolation":"STEP",
					"output":211
				},
				{
					"input":193,
					"interpolation":"STEP",
					"output":212
				},
				{
					"input":193,
					"interpolation":"STEP",
					"output":213
				},
				{
					"input":193,
					"interpolation":"STEP",
					"output":214
				},
				{
					"input":193,
					"interpolation":"STEP",
					"output":215
				},
				{
					"input":193,
					"interpolation":"STEP",
					"output":216
				},
				{
					"input":190,
					"interpolation":"LINEAR",
					"output":217
				},
				{
					"input":193,
					"interpolation":"STEP",
					"output":218
				},
				{
					"input":193,
					"interpolation":"STEP",
					"output":219
				},
				{
					"input":193,
					"interpolation":"STEP",
					"output":220
				},
				{
					"input":193,
					"interpolation":"STEP",
					"output":221
				},
				{
					"input":193,
					"interpolation":"STEP",
					"output":222
				},
				{
					"input":193,
					"interpolation":"STEP",
					"output":223
				},
				{
					"input":193,
					"interpolation":"STEP",
					"output":224
				},
				{
					"input":193,
					"interpolation":"STEP",
					"output":225
				},
				{
					"input":190,
					"interpolation":"LINEAR",
					"output":226
				},
				{
					"input":193,
					"interpolation":"STEP",
					"output":227
				},
				{
					"input":193,
					"interpolation":"STEP",
					"output":228
				},
				{
					"input":190,
					"interpolation":"LINEAR",
					"output":229
				},
				{
					"input":193,
					"interpolation":"STEP",
					"output":230
				},
				{
					"input":193,
					"interpolation":"STEP",
					"output":231
				},
				{
					"input":190,
					"interpolation":"LINEAR",
					"output":232
				},
				{
					"input":193,
					"interpolation":"STEP",
					"output":233
				},
				{
					"input":193,
					"interpolation":"STEP",
					"output":234
				},
				{
					"input":190,
					"interpolation":"LINEAR",
					"output":235
				},
				{
					"input":193,
					"interpolation":"STEP",
					"output":236
				},
				{
					"input":193,
					"interpolation":"STEP",
					"output":237
				},
				{
					"input":190,
					"interpolation":"LINEAR",
					"output":238
				},
				{
					"input":193,
					"interpolation":"STEP",
					"output":239
				},
				{
					"input":193,
					"interpolation":"STEP",
					"output":240
				},
				{
					"input":190,
					"interpolation":"LINEAR",
					"output":241
				},
				{
					"input":193,
					"interpolation":"STEP",
					"output":242
				}
			]
		}
	],
	"materials":[
		{
			"name":"skin",
			"normalTexture":{
				"index":0,
				"scale":0.4000000059604645
			},
			"pbrMetallicRoughness":{
				"baseColorFactor":[
					0.9551045894622803,
					0.7105664610862732,
					0.5382355451583862,
					1
				],
				"metallicFactor":0,
				"roughnessFactor":0.550000011920929
			}
		},
		{
			"extensions":{
				"KHR_materials_sheen":{
					"sheenColorFactor":[
						1.0,
						1.0,
						1.0
					],
					"sheenRoughnessFactor":0.5
				}
			},
			"name":"hair",
			"normalTexture":{
				"index":1,
				"scale":0.800000011920929
			},
			"pbrMetallicRoughness":{
				"baseColorFactor":[
					0.03310476616024971,
					0.01960664801299572,
					0.010022825561463833,
					1
				],
				"metallicFactor":0,
				"roughnessFactor":0.44999998807907104
			}
		},
		{
			"extensions":{
				"KHR_materials_sheen":{
					"sheenColorFactor":[
						1.0,
						1.0,
						1.0
					],
					"sheenRoughnessFactor":0.5
				}
			},
			"name":"outfit",
			"normalTexture":{
				"index":2,
				"scale":0.6000000238418579
			},
			"pbrMetallicRoughness":{
				"baseColorFactor":[
					0.05087608844041824,
					0.07323895394802094,
					0.05087608844041824,
					1
				],
				"metallicFactor":0,
				"roughnessFactor":0.75
			}
		},
		{
			"name":"outfit2",
			"normalTexture":{
				"index":3,
				"scale":0.4000000059604645
			},
			"pbrMetallicRoughness":{
				"baseColorFactor":[
					0.21404114365577698,
					0.13286831974983215,
					0.07323895394802094,
					1
				],
				"metallicFactor":0,
				"roughnessFactor":0.6000000238418579
			}
		},
		{
			"name":"pants",
			"normalTexture":{
				"index":4,
				"scale":0.6000000238418579
			},
			"pbrMetallicRoughness":{
				"baseColorFactor":[
					0.025842878967523575,
					0.036306485533714294,
					0.025842878967523575,
					1
				],
				"metallicFactor":0,
				"roughnessFactor":0.800000011920929
			}
		},
		{
			"extensions":{
				"KHR_materials_clearcoat":{
					"clearcoatFactor":0.30000001192092896
				}
			},
			"name":"boots",
			"normalTexture":{
				"index":5,
				"scale":0.800000011920929
			},
			"pbrMetallicRoughness":{
				"baseColorFactor":[
					0.0134117491543293,
					0.010022825561463833,
					0.010022825561463833,
					1
				],
				"metallicFactor":0,
				"roughnessFactor":0.44999998807907104
			}
		},
		{
			"name":"eye_white",
			"pbrMetallicRoughness":{
				"baseColorFactor":[
					0.8900054097175598,
					0.8900054097175598,
					0.8900054097175598,
					1
				],
				"metallicFactor":0,
				"roughnessFactor":0.20000000298023224
			}
		},
		{
			"emissiveFactor":[
				0.011763989275256348,
				0.011763989275256348,
				0.019862860485428957
			],
			"name":"iris",
			"pbrMetallicRoughness":{
				"baseColorFactor":[
					0.01960664801299572,
					0.01960664801299572,
					0.03310476616024971,
					1
				],
				"metallicFactor":0,
				"roughnessFactor":0.15000000596046448
			}
		},
		{
			"name":"pupil",
			"pbrMetallicRoughness":{
				"baseColorFactor":[
					0.0015479875728487968,
					0.0015479875728487968,
					0.0023219813592731953,
					1
				],
				"metallicFactor":0,
				"roughnessFactor":0.10000000149011612
			}
		},
		{
			"name":"lips",
			"pbrMetallicRoughness":{
				"baseColorFactor":[
					0.4283095896244049,
					0.32088616490364075,
					0.2448643445968628,
					1
				],
				"metallicFactor":0,
				"roughnessFactor":0.4000000059604645
			}
		},
		{
			"name":"buckle",
			"pbrMetallicRoughness":{
				"baseColorFactor":[
					0.6920710802078247,
					0.4479884207248688,
					0.07323895394802094,
					1
				],
				"metallicFactor":0.8999999761581421,
				"roughnessFactor":0.30000001192092896
			}
		},
		{
			"name":"blade",
			"normalTexture":{
				"index":6,
				"scale":0.30000001192092896
			},
			"pbrMetallicRoughness":{
				"baseColorFactor":[
					0.7484140992164612,
					0.7874122858047485,
					0.8900054097175598,
					1
				],
				"metallicFactor":0.550000011920929,
				"roughnessFactor":0.2199999988079071
			}
		},
		{
			"name":"handle",
			"normalTexture":{
				"index":7,
				"scale":0.6000000238418579
			},
			"pbrMetallicRoughness":{
				"baseColorFactor":[
					0.0134117491543293,
					0.007194409146904945,
					0.004896310158073902,
					1
				],
				"metallicFactor":0,
				"roughnessFactor":0.6000000238418579
			}
		},
		{
			"name":"guard",
			"pbrMetallicRoughness":{
				"baseColorFactor":[
					0.6038273572921753,
					0.38005632162094116,
					0.05087608844041824,
					1
				],
				"metallicFactor":0.8999999761581421,
				"roughnessFactor":0.30000001192092896
			}
		}
	],
	"meshes":[
		{
			"name":"gido",
			"primitives":[
				{
					"attributes":{
						"POSITION":0,
						"NORMAL":1,
						"TEXCOORD_0":2,
						"JOINTS_0":3,
						"WEIGHTS_0":4
					},
					"indices":5,
					"material":0
				},
				{
					"attributes":{
						"POSITION":6,
						"NORMAL":7,
						"TEXCOORD_0":8,
						"JOINTS_0":9,
						"WEIGHTS_0":10
					},
					"indices":11,
					"material":1
				},
				{
					"attributes":{
						"POSITION":12,
						"NORMAL":13,
						"TEXCOORD_0":14,
						"JOINTS_0":15,
						"WEIGHTS_0":16
					},
					"indices":17,
					"material":2
				},
				{
					"attributes":{
						"POSITION":18,
						"NORMAL":19,
						"TEXCOORD_0":20,
						"JOINTS_0":21,
						"WEIGHTS_0":22
					},
					"indices":23,
					"material":3
				},
				{
					"attributes":{
						"POSITION":24,
						"NORMAL":25,
						"TEXCOORD_0":26,
						"JOINTS_0":27,
						"WEIGHTS_0":28
					},
					"indices":29,
					"material":4
				},
				{
					"attributes":{
						"POSITION":30,
						"NORMAL":31,
						"TEXCOORD_0":32,
						"JOINTS_0":33,
						"WEIGHTS_0":34
					},
					"indices":35,
					"material":5
				},
				{
					"attributes":{
						"POSITION":36,
						"NORMAL":37,
						"TEXCOORD_0":38,
						"JOINTS_0":39,
						"WEIGHTS_0":40
					},
					"indices":41,
					"material":6
				},
				{
					"attributes":{
						"POSITION":42,
						"NORMAL":43,
						"TEXCOORD_0":44,
						"JOINTS_0":45,
						"WEIGHTS_0":46
					},
					"indices":47,
					"material":7
				},
				{
					"attributes":{
						"POSITION":48,
						"NORMAL":49,
						"TEXCOORD_0":50,
						"JOINTS_0":51,
						"WEIGHTS_0":52
					},
					"indices":53,
					"material":8
				},
				{
					"attributes":{
						"POSITION":54,
						"NORMAL":55,
						"TEXCOORD_0":56,
						"JOINTS_0":57,
						"WEIGHTS_0":58
					},
					"indices":59,
					"material":9
				},
				{
					"attributes":{
						"POSITION":60,
						"NORMAL":61,
						"TEXCOORD_0":62,
						"JOINTS_0":63,
						"WEIGHTS_0":64
					},
					"indices":65,
					"material":10
				},
				{
					"attributes":{
						"POSITION":66,
						"NORMAL":67,
						"TEXCOORD_0":68,
						"JOINTS_0":69,
						"WEIGHTS_0":70
					},
					"indices":71,
					"material":11
				},
				{
					"attributes":{
						"POSITION":72,
						"NORMAL":73,
						"TEXCOORD_0":74,
						"JOINTS_0":75,
						"WEIGHTS_0":76
					},
					"indices":77,
					"material":12
				},
				{
					"attributes":{
						"POSITION":78,
						"NORMAL":79,
						"TEXCOORD_0":80,
						"JOINTS_0":81,
						"WEIGHTS_0":82
					},
					"indices":65,
					"material":13
				}
			]
		}
	],
	"textures":[
		{
			"sampler":0,
			"source":0
		},
		{
			"sampler":0,
			"source":1
		},
		{
			"sampler":0,
			"source":2
		},
		{
			"sampler":0,
			"source":2
		},
		{
			"sampler":0,
			"source":2
		},
		{
			"sampler":0,
			"source":3
		},
		{
			"sampler":0,
			"source":4
		},
		{
			"sampler":0,
			"source":3
		}
	],
	"images":[
		{
			"mimeType":"image/png",
			"name":"N_skin",
			"uri":"texturas/N_skin.png"
		},
		{
			"mimeType":"image/png",
			"name":"N_hair",
			"uri":"texturas/N_hair.png"
		},
		{
			"mimeType":"image/png",
			"name":"N_cloth",
			"uri":"texturas/N_cloth.png"
		},
		{
			"mimeType":"image/png",
			"name":"N_leather",
			"uri":"texturas/N_leather.png"
		},
		{
			"mimeType":"image/png",
			"name":"N_metal",
			"uri":"texturas/N_metal.png"
		}
	],
	"skins":[
		{
			"inverseBindMatrices":83,
			"joints":[
				16,
				9,
				8,
				1,
				0,
				4,
				3,
				2,
				7,
				6,
				5,
				12,
				11,
				10,
				15,
				14,
				13
			],
			"name":"gido_rig"
		}
	],
	"accessors":[
		{
			"bufferView":0,
			"componentType":5126,
			"count":1437,
			"max":[
				0.30477243661880493,
				1.6947999000549316,
				0.1018519327044487
			],
			"min":[
				-0.30477243661880493,
				0.7452445030212402,
				-0.11027289181947708
			],
			"type":"VEC3"
		},
		{
			"bufferView":1,
			"componentType":5126,
			"count":1437,
			"type":"VEC3"
		},
		{
			"bufferView":2,
			"componentType":5126,
			"count":1437,
			"type":"VEC2"
		},
		{
			"bufferView":3,
			"componentType":5121,
			"count":1437,
			"type":"VEC4"
		},
		{
			"bufferView":4,
			"componentType":5126,
			"count":1437,
			"type":"VEC4"
		},
		{
			"bufferView":5,
			"componentType":5123,
			"count":5868,
			"type":"SCALAR"
		},
		{
			"bufferView":6,
			"componentType":5126,
			"count":2679,
			"max":[
				0.11314238607883453,
				1.7195730209350586,
				0.129314586520195
			],
			"min":[
				-0.11127015203237534,
				1.4723806381225586,
				-0.11129732429981232
			],
			"type":"VEC3"
		},
		{
			"bufferView":7,
			"componentType":5126,
			"count":2679,
			"type":"VEC3"
		},
		{
			"bufferView":8,
			"componentType":5126,
			"count":2679,
			"type":"VEC2"
		},
		{
			"bufferView":9,
			"componentType":5121,
			"count":2679,
			"type":"VEC4"
		},
		{
			"bufferView":10,
			"componentType":5126,
			"count":2679,
			"type":"VEC4"
		},
		{
			"bufferView":11,
			"componentType":5123,
			"count":8328,
			"type":"SCALAR"
		},
		{
			"bufferView":12,
			"componentType":5126,
			"count":1461,
			"max":[
				0.308412104845047,
				1.4005019664764404,
				0.10656341165304184
			],
			"min":[
				-0.308412104845047,
				0.8832886815071106,
				-0.10613065958023071
			],
			"type":"VEC3"
		},
		{
			"bufferView":13,
			"componentType":5126,
			"count":1461,
			"type":"VEC3"
		},
		{
			"bufferView":14,
			"componentType":5126,
			"count":1461,
			"type":"VEC2"
		},
		{
			"bufferView":15,
			"componentType":5121,
			"count":1461,
			"type":"VEC4"
		},
		{
			"bufferView":16,
			"componentType":5126,
			"count":1461,
			"type":"VEC4"
		},
		{
			"bufferView":17,
			"componentType":5123,
			"count":6648,
			"type":"SCALAR"
		},
		{
			"bufferView":18,
			"componentType":5126,
			"count":65,
			"max":[
				0.13552239537239075,
				0.9803175926208496,
				0.10814833641052246
			],
			"min":[
				-0.13552239537239075,
				0.832495927810669,
				-0.10942323505878448
			],
			"type":"VEC3"
		},
		{
			"bufferView":19,
			"componentType":5126,
			"count":65,
			"type":"VEC3"
		},
		{
			"bufferView":20,
			"componentType":5126,
			"count":65,
			"type":"VEC2"
		},
		{
			"bufferView":21,
			"componentType":5121,
			"count":65,
			"type":"VEC4"
		},
		{
			"bufferView":22,
			"componentType":5126,
			"count":65,
			"type":"VEC4"
		},
		{
			"bufferView":23,
			"componentType":5123,
			"count":192,
			"type":"SCALAR"
		},
		{
			"bufferView":24,
			"componentType":5126,
			"count":977,
			"max":[
				0.305849552154541,
				0.890433132648468,
				0.1052955612540245
			],
			"min":[
				-0.30584952235221863,
				0.2850576937198639,
				-0.10698529332876205
			],
			"type":"VEC3"
		},
		{
			"bufferView":25,
			"componentType":5126,
			"count":977,
			"type":"VEC3"
		},
		{
			"bufferView":26,
			"componentType":5126,
			"count":977,
			"type":"VEC2"
		},
		{
			"bufferView":27,
			"componentType":5121,
			"count":977,
			"type":"VEC4"
		},
		{
			"bufferView":28,
			"componentType":5126,
			"count":977,
			"type":"VEC4"
		},
		{
			"bufferView":29,
			"componentType":5123,
			"count":4332,
			"type":"SCALAR"
		},
		{
			"bufferView":30,
			"componentType":5126,
			"count":1034,
			"max":[
				0.1581214815378189,
				0.29112470149993896,
				0.07550361752510071
			],
			"min":[
				-0.1581214964389801,
				0.007217949256300926,
				-0.1331147402524948
			],
			"type":"VEC3"
		},
		{
			"bufferView":31,
			"componentType":5126,
			"count":1034,
			"type":"VEC3"
		},
		{
			"bufferView":32,
			"componentType":5126,
			"count":1034,
			"type":"VEC2"
		},
		{
			"bufferView":33,
			"componentType":5121,
			"count":1034,
			"type":"VEC4"
		},
		{
			"bufferView":34,
			"componentType":5126,
			"count":1034,
			"type":"VEC4"
		},
		{
			"bufferView":35,
			"componentType":5123,
			"count":4608,
			"type":"SCALAR"
		},
		{
			"bufferView":36,
			"componentType":5126,
			"count":304,
			"max":[
				0.04844999685883522,
				1.6021748781204224,
				-0.06650000065565109
			],
			"min":[
				-0.04844999685883522,
				1.5803248882293701,
				-0.0835999995470047
			],
			"type":"VEC3"
		},
		{
			"bufferView":37,
			"componentType":5126,
			"count":304,
			"type":"VEC3"
		},
		{
			"bufferView":38,
			"componentType":5126,
			"count":304,
			"type":"VEC2"
		},
		{
			"bufferView":39,
			"componentType":5121,
			"count":304,
			"type":"VEC4"
		},
		{
			"bufferView":40,
			"componentType":5126,
			"count":304,
			"type":"VEC4"
		},
		{
			"bufferView":41,
			"componentType":5123,
			"count":1152,
			"type":"SCALAR"
		},
		{
			"bufferView":42,
			"componentType":5126,
			"count":220,
			"max":[
				0.04132499918341637,
				1.600559949874878,
				-0.07715923339128494
			],
			"min":[
				-0.04132499918341637,
				1.581939935684204,
				-0.08529076725244522
			],
			"type":"VEC3"
		},
		{
			"bufferView":43,
			"componentType":5126,
			"count":220,
			"type":"VEC3"
		},
		{
			"bufferView":44,
			"componentType":5126,
			"count":220,
			"type":"VEC2"
		},
		{
			"bufferView":45,
			"componentType":5121,
			"count":220,
			"type":"VEC4"
		},
		{
			"bufferView":46,
			"componentType":5126,
			"count":220,
			"type":"VEC4"
		},
		{
			"bufferView":47,
			"componentType":5123,
			"count":720,
			"type":"SCALAR"
		},
		{
			"bufferView":48,
			"componentType":5126,
			"count":160,
			"max":[
				0.03609471395611763,
				1.5955249071121216,
				-0.08255299180746078
			],
			"min":[
				-0.03609471395611763,
				1.5869749784469604,
				-0.08616700768470764
			],
			"type":"VEC3"
		},
		{
			"bufferView":49,
			"componentType":5126,
			"count":160,
			"type":"VEC3"
		},
		{
			"bufferView":50,
			"componentType":5126,
			"count":160,
			"type":"VEC2"
		},
		{
			"bufferView":51,
			"componentType":5121,
			"count":160,
			"type":"VEC4"
		},
		{
			"bufferView":52,
			"componentType":5126,
			"count":160,
			"type":"VEC4"
		},
		{
			"bufferView":53,
			"componentType":5123,
			"count":480,
			"type":"SCALAR"
		},
		{
			"bufferView":54,
			"componentType":5126,
			"count":98,
			"max":[
				0.018050000071525574,
				1.5271248817443848,
				-0.07383423298597336
			],
			"min":[
				-0.018050000071525574,
				1.5185749530792236,
				-0.08196576684713364
			],
			"type":"VEC3"
		},
		{
			"bufferView":55,
			"componentType":5126,
			"count":98,
			"type":"VEC3"
		},
		{
			"bufferView":56,
			"componentType":5126,
			"count":98,
			"type":"VEC2"
		},
		{
			"bufferView":57,
			"componentType":5121,
			"count":98,
			"type":"VEC4"
		},
		{
			"bufferView":58,
			"componentType":5126,
			"count":98,
			"type":"VEC4"
		},
		{
			"bufferView":59,
			"componentType":5123,
			"count":360,
			"type":"SCALAR"
		},
		{
			"bufferView":60,
			"componentType":5126,
			"count":24,
			"max":[
				0.023749999701976776,
				0.921500027179718,
				-0.0892999991774559
			],
			"min":[
				-0.023749999701976776,
				0.8834999799728394,
				-0.1006999984383583
			],
			"type":"VEC3"
		},
		{
			"bufferView":61,
			"componentType":5126,
			"count":24,
			"type":"VEC3"
		},
		{
			"bufferView":62,
			"componentType":5126,
			"count":24,
			"type":"VEC2"
		},
		{
			"bufferView":63,
			"componentType":5121,
			"count":24,
			"type":"VEC4"
		},
		{
			"bufferView":64,
			"componentType":5126,
			"count":24,
			"type":"VEC4"
		},
		{
			"bufferView":65,
			"componentType":5123,
			"count":36,
			"type":"SCALAR"
		},
		{
			"bufferView":66,
			"componentType":5126,
			"count":108,
			"max":[
				0.2914600074291229,
				0.748304545879364,
				-0.08428448438644409
			],
			"min":[
				0.2800599932670593,
				0.40640926361083984,
				-0.8095071911811829
			],
			"type":"VEC3"
		},
		{
			"bufferView":67,
			"componentType":5126,
			"count":108,
			"type":"VEC3"
		},
		{
			"bufferView":68,
			"componentType":5126,
			"count":108,
			"type":"VEC2"
		},
		{
			"bufferView":69,
			"componentType":5121,
			"count":108,
			"type":"VEC4"
		},
		{
			"bufferView":70,
			"componentType":5126,
			"count":108,
			"type":"VEC4"
		},
		{
			"bufferView":71,
			"componentType":5123,
			"count":156,
			"type":"SCALAR"
		},
		{
			"bufferView":72,
			"componentType":5126,
			"count":42,
			"max":[
				0.3009600043296814,
				0.8128458261489868,
				0.06912008672952652
			],
			"min":[
				0.27055999636650085,
				0.7227479219436646,
				-0.0819670706987381
			],
			"type":"VEC3"
		},
		{
			"bufferView":73,
			"componentType":5126,
			"count":42,
			"type":"VEC3"
		},
		{
			"bufferView":74,
			"componentType":5126,
			"count":42,
			"type":"VEC2"
		},
		{
			"bufferView":75,
			"componentType":5121,
			"count":42,
			"type":"VEC4"
		},
		{
			"bufferView":76,
			"componentType":5126,
			"count":42,
			"type":"VEC4"
		},
		{
			"bufferView":77,
			"componentType":5123,
			"count":96,
			"type":"SCALAR"
		},
		{
			"bufferView":78,
			"componentType":5126,
			"count":24,
			"max":[
				0.38075998425483704,
				0.7469606995582581,
				-0.0725177749991417
			],
			"min":[
				0.19076000154018402,
				0.718460738658905,
				-0.09626777470111847
			],
			"type":"VEC3"
		},
		{
			"bufferView":79,
			"componentType":5126,
			"count":24,
			"type":"VEC3"
		},
		{
			"bufferView":80,
			"componentType":5126,
			"count":24,
			"type":"VEC2"
		},
		{
			"bufferView":81,
			"componentType":5121,
			"count":24,
			"type":"VEC4"
		},
		{
			"bufferView":82,
			"componentType":5126,
			"count":24,
			"type":"VEC4"
		},
		{
			"bufferView":83,
			"componentType":5126,
			"count":17,
			"type":"MAT4"
		},
		{
			"bufferView":84,
			"componentType":5126,
			"count":2,
			"max":[
				0.6
			],
			"min":[
				0
			],
			"type":"SCALAR"
		},
		{
			"bufferView":85,
			"componentType":5126,
			"count":2,
			"type":"VEC3"
		},
		{
			"bufferView":86,
			"componentType":5126,
			"count":2,
			"type":"VEC4"
		},
		{
			"bufferView":87,
			"componentType":5126,
			"count":2,
			"type":"VEC3"
		},
		{
			"bufferView":88,
			"componentType":5126,
			"count":2,
			"type":"VEC3"
		},
		{
			"bufferView":89,
			"componentType":5126,
			"count":2,
			"type":"VEC4"
		},
		{
			"bufferView":90,
			"componentType":5126,
			"count":2,
			"type":"VEC3"
		},
		{
			"bufferView":91,
			"componentType":5126,
			"count":2,
			"type":"VEC3"
		},
		{
			"bufferView":92,
			"componentType":5126,
			"count":19,
			"max":[
				0.6
			],
			"min":[
				0
			],
			"type":"SCALAR"
		},
		{
			"bufferView":93,
			"componentType":5126,
			"count":19,
			"type":"VEC4"
		},
		{
			"bufferView":94,
			"componentType":5126,
			"count":2,
			"type":"VEC3"
		},
		{
			"bufferView":95,
			"componentType":5126,
			"count":2,
			"type":"VEC3"
		},
		{
			"bufferView":96,
			"componentType":5126,
			"count":2,
			"type":"VEC4"
		},
		{
			"bufferView":97,
			"componentType":5126,
			"count":2,
			"type":"VEC3"
		},
		{
			"bufferView":98,
			"componentType":5126,
			"count":2,
			"type":"VEC3"
		},
		{
			"bufferView":99,
			"componentType":5126,
			"count":2,
			"type":"VEC4"
		},
		{
			"bufferView":100,
			"componentType":5126,
			"count":2,
			"type":"VEC3"
		},
		{
			"bufferView":101,
			"componentType":5126,
			"count":2,
			"type":"VEC3"
		},
		{
			"bufferView":102,
			"componentType":5126,
			"count":19,
			"type":"VEC4"
		},
		{
			"bufferView":103,
			"componentType":5126,
			"count":2,
			"type":"VEC3"
		},
		{
			"bufferView":104,
			"componentType":5126,
			"count":2,
			"type":"VEC3"
		},
		{
			"bufferView":105,
			"componentType":5126,
			"count":19,
			"type":"VEC4"
		},
		{
			"bufferView":106,
			"componentType":5126,
			"count":2,
			"type":"VEC3"
		},
		{
			"bufferView":107,
			"componentType":5126,
			"count":2,
			"type":"VEC3"
		},
		{
			"bufferView":108,
			"componentType":5126,
			"count":2,
			"type":"VEC4"
		},
		{
			"bufferView":109,
			"componentType":5126,
			"count":2,
			"type":"VEC3"
		},
		{
			"bufferView":110,
			"componentType":5126,
			"count":2,
			"type":"VEC3"
		},
		{
			"bufferView":111,
			"componentType":5126,
			"count":19,
			"type":"VEC4"
		},
		{
			"bufferView":112,
			"componentType":5126,
			"count":2,
			"type":"VEC3"
		},
		{
			"bufferView":113,
			"componentType":5126,
			"count":2,
			"type":"VEC3"
		},
		{
			"bufferView":114,
			"componentType":5126,
			"count":2,
			"type":"VEC4"
		},
		{
			"bufferView":115,
			"componentType":5126,
			"count":2,
			"type":"VEC3"
		},
		{
			"bufferView":116,
			"componentType":5126,
			"count":2,
			"type":"VEC3"
		},
		{
			"bufferView":117,
			"componentType":5126,
			"count":2,
			"type":"VEC4"
		},
		{
			"bufferView":118,
			"componentType":5126,
			"count":2,
			"type":"VEC3"
		},
		{
			"bufferView":119,
			"componentType":5126,
			"count":2,
			"type":"VEC3"
		},
		{
			"bufferView":120,
			"componentType":5126,
			"count":19,
			"type":"VEC4"
		},
		{
			"bufferView":121,
			"componentType":5126,
			"count":2,
			"type":"VEC3"
		},
		{
			"bufferView":122,
			"componentType":5126,
			"count":2,
			"type":"VEC3"
		},
		{
			"bufferView":123,
			"componentType":5126,
			"count":2,
			"type":"VEC4"
		},
		{
			"bufferView":124,
			"componentType":5126,
			"count":2,
			"type":"VEC3"
		},
		{
			"bufferView":125,
			"componentType":5126,
			"count":2,
			"type":"VEC3"
		},
		{
			"bufferView":126,
			"componentType":5126,
			"count":2,
			"type":"VEC4"
		},
		{
			"bufferView":127,
			"componentType":5126,
			"count":2,
			"type":"VEC3"
		},
		{
			"bufferView":128,
			"componentType":5126,
			"count":2,
			"type":"VEC3"
		},
		{
			"bufferView":129,
			"componentType":5126,
			"count":19,
			"type":"VEC4"
		},
		{
			"bufferView":130,
			"componentType":5126,
			"count":2,
			"type":"VEC3"
		},
		{
			"bufferView":131,
			"componentType":5126,
			"count":2,
			"type":"VEC3"
		},
		{
			"bufferView":132,
			"componentType":5126,
			"count":2,
			"type":"VEC4"
		},
		{
			"bufferView":133,
			"componentType":5126,
			"count":2,
			"type":"VEC3"
		},
		{
			"bufferView":134,
			"componentType":5126,
			"count":2,
			"type":"VEC3"
		},
		{
			"bufferView":135,
			"componentType":5126,
			"count":2,
			"type":"VEC4"
		},
		{
			"bufferView":136,
			"componentType":5126,
			"count":2,
			"type":"VEC3"
		},
		{
			"bufferView":137,
			"componentType":5126,
			"count":61,
			"max":[
				2
			],
			"min":[
				0
			],
			"type":"SCALAR"
		},
		{
			"bufferView":138,
			"componentType":5126,
			"count":61,
			"type":"VEC3"
		},
		{
			"bufferView":139,
			"componentType":5126,
			"count":2,
			"max":[
				2
			],
			"min":[
				0
			],
			"type":"SCALAR"
		},
		{
			"bufferView":140,
			"componentType":5126,
			"count":2,
			"type":"VEC4"
		},
		{
			"bufferView":141,
			"componentType":5126,
			"count":2,
			"type":"VEC3"
		},
		{
			"bufferView":142,
			"componentType":5126,
			"count":2,
			"type":"VEC3"
		},
		{
			"bufferView":143,
			"componentType":5126,
			"count":2,
			"type":"VEC4"
		},
		{
			"bufferView":144,
			"componentType":5126,
			"count":2,
			"type":"VEC3"
		},
		{
			"bufferView":145,
			"componentType":5126,
			"count":2,
			"type":"VEC3"
		},
		{
			"bufferView":146,
			"componentType":5126,
			"count":61,
			"type":"VEC4"
		},
		{
			"bufferView":147,
			"componentType":5126,
			"count":2,
			"type":"VEC3"
		},
		{
			"bufferView":148,
			"componentType":5126,
			"count":2,
			"type":"VEC3"
		},
		{
			"bufferView":149,
			"componentType":5126,
			"count":2,
			"type":"VEC4"
		},
		{
			"bufferView":150,
			"componentType":5126,
			"count":2,
			"type":"VEC3"
		},
		{
			"bufferView":151,
			"componentType":5126,
			"count":2,
			"type":"VEC3"
		},
		{
			"bufferView":152,
			"componentType":5126,
			"count":61,
			"type":"VEC4"
		},
		{
			"bufferView":153,
			"componentType":5126,
			"count":2,
			"type":"VEC3"
		},
		{
			"bufferView":154,
			"componentType":5126,
			"count":2,
			"type":"VEC3"
		},
		{
			"bufferView":155,
			"componentType":5126,
			"count":61,
			"type":"VEC4"
		},
		{
			"bufferView":156,
			"componentType":5126,
			"count":2,
			"type":"VEC3"
		},
		{
			"bufferView":157,
			"componentType":5126,
			"count":2,
			"type":"VEC3"
		},
		{
			"bufferView":158,
			"componentType":5126,
			"count":2,
			"type":"VEC4"
		},
		{
			"bufferView":159,
			"componentType":5126,
			"count":2,
			"type":"VEC3"
		},
		{
			"bufferView":160,
			"componentType":5126,
			"count":2,
			"type":"VEC3"
		},
		{
			"bufferView":161,
			"componentType":5126,
			"count":2,
			"type":"VEC4"
		},
		{
			"bufferView":162,
			"componentType":5126,
			"count":2,
			"type":"VEC3"
		},
		{
			"bufferView":163,
			"componentType":5126,
			"count":2,
			"type":"VEC3"
		},
		{
			"bufferView":164,
			"componentType":5126,
			"count":61,
			"type":"VEC4"
		},
		{
			"bufferView":165,
			"componentType":5126,
			"count":2,
			"type":"VEC3"
		},
		{
			"bufferView":166,
			"componentType":5126,
			"count":2,
			"type":"VEC3"
		},
		{
			"bufferView":167,
			"componentType":5126,
			"count":2,
			"type":"VEC4"
		},
		{
			"bufferView":168,
			"componentType":5126,
			"count":2,
			"type":"VEC3"
		},
		{
			"bufferView":169,
			"componentType":5126,
			"count":2,
			"type":"VEC3"
		},
		{
			"bufferView":170,
			"componentType":5126,
			"count":2,
			"type":"VEC4"
		},
		{
			"bufferView":171,
			"componentType":5126,
			"count":2,
			"type":"VEC3"
		},
		{
			"bufferView":172,
			"componentType":5126,
			"count":2,
			"type":"VEC3"
		},
		{
			"bufferView":173,
			"componentType":5126,
			"count":2,
			"type":"VEC4"
		},
		{
			"bufferView":174,
			"componentType":5126,
			"count":2,
			"type":"VEC3"
		},
		{
			"bufferView":175,
			"componentType":5126,
			"count":2,
			"type":"VEC3"
		},
		{
			"bufferView":176,
			"componentType":5126,
			"count":2,
			"type":"VEC4"
		},
		{
			"bufferView":177,
			"componentType":5126,
			"count":2,
			"type":"VEC3"
		},
		{
			"bufferView":178,
			"componentType":5126,
			"count":2,
			"type":"VEC3"
		},
		{
			"bufferView":179,
			"componentType":5126,
			"count":2,
			"type":"VEC4"
		},
		{
			"bufferView":180,
			"componentType":5126,
			"count":2,
			"type":"VEC3"
		},
		{
			"bufferView":181,
			"componentType":5126,
			"count":2,
			"type":"VEC3"
		},
		{
			"bufferView":182,
			"componentType":5126,
			"count":2,
			"type":"VEC4"
		},
		{
			"bufferView":183,
			"componentType":5126,
			"count":2,
			"type":"VEC3"
		},
		{
			"bufferView":184,
			"componentType":5126,
			"count":2,
			"type":"VEC3"
		},
		{
			"bufferView":185,
			"componentType":5126,
			"count":2,
			"type":"VEC4"
		},
		{
			"bufferView":186,
			"componentType":5126,
			"count":2,
			"type":"VEC3"
		},
		{
			"bufferView":187,
			"componentType":5126,
			"count":2,
			"type":"VEC3"
		},
		{
			"bufferView":188,
			"componentType":5126,
			"count":2,
			"type":"VEC4"
		},
		{
			"bufferView":189,
			"componentType":5126,
			"count":2,
			"type":"VEC3"
		},
		{
			"bufferView":190,
			"componentType":5126,
			"count":31,
			"max":[
				1
			],
			"min":[
				0
			],
			"type":"SCALAR"
		},
		{
			"bufferView":191,
			"componentType":5126,
			"count":31,
			"type":"VEC3"
		},
		{
			"bufferView":192,
			"componentType":5126,
			"count":31,
			"type":"VEC4"
		},
		{
			"bufferView":193,
			"componentType":5126,
			"count":2,
			"max":[
				1
			],
			"min":[
				0
			],
			"type":"SCALAR"
		},
		{
			"bufferView":194,
			"componentType":5126,
			"count":2,
			"type":"VEC3"
		},
		{
			"bufferView":195,
			"componentType":5126,
			"count":2,
			"type":"VEC3"
		},
		{
			"bufferView":196,
			"componentType":5126,
			"count":2,
			"type":"VEC4"
		},
		{
			"bufferView":197,
			"componentType":5126,
			"count":2,
			"type":"VEC3"
		},
		{
			"bufferView":198,
			"componentType":5126,
			"count":2,
			"type":"VEC3"
		},
		{
			"bufferView":199,
			"componentType":5126,
			"count":31,
			"type":"VEC4"
		},
		{
			"bufferView":200,
			"componentType":5126,
			"count":2,
			"type":"VEC3"
		},
		{
			"bufferView":201,
			"componentType":5126,
			"count":2,
			"type":"VEC3"
		},
		{
			"bufferView":202,
			"componentType":5126,
			"count":2,
			"type":"VEC4"
		},
		{
			"bufferView":203,
			"componentType":5126,
			"count":2,
			"type":"VEC3"
		},
		{
			"bufferView":204,
			"componentType":5126,
			"count":2,
			"type":"VEC3"
		},
		{
			"bufferView":205,
			"componentType":5126,
			"count":2,
			"type":"VEC4"
		},
		{
			"bufferView":206,
			"componentType":5126,
			"count":2,
			"type":"VEC3"
		},
		{
			"bufferView":207,
			"componentType":5126,
			"count":2,
			"type":"VEC3"
		},
		{
			"bufferView":208,
			"componentType":5126,
			"count":31,
			"type":"VEC4"
		},
		{
			"bufferView":209,
			"componentType":5126,
			"count":2,
			"type":"VEC3"
		},
		{
			"bufferView":210,
			"componentType":5126,
			"count":2,
			"type":"VEC3"
		},
		{
			"bufferView":211,
			"componentType":5126,
			"count":2,
			"type":"VEC4"
		},
		{
			"bufferView":212,
			"componentType":5126,
			"count":2,
			"type":"VEC3"
		},
		{
			"bufferView":213,
			"componentType":5126,
			"count":2,
			"type":"VEC3"
		},
		{
			"bufferView":214,
			"componentType":5126,
			"count":2,
			"type":"VEC4"
		},
		{
			"bufferView":215,
			"componentType":5126,
			"count":2,
			"type":"VEC3"
		},
		{
			"bufferView":216,
			"componentType":5126,
			"count":2,
			"type":"VEC3"
		},
		{
			"bufferView":217,
			"componentType":5126,
			"count":31,
			"type":"VEC4"
		},
		{
			"bufferView":218,
			"componentType":5126,
			"count":2,
			"type":"VEC3"
		},
		{
			"bufferView":219,
			"componentType":5126,
			"count":2,
			"type":"VEC3"
		},
		{
			"bufferView":220,
			"componentType":5126,
			"count":2,
			"type":"VEC4"
		},
		{
			"bufferView":221,
			"componentType":5126,
			"count":2,
			"type":"VEC3"
		},
		{
			"bufferView":222,
			"componentType":5126,
			"count":2,
			"type":"VEC3"
		},
		{
			"bufferView":223,
			"componentType":5126,
			"count":2,
			"type":"VEC4"
		},
		{
			"bufferView":224,
			"componentType":5126,
			"count":2,
			"type":"VEC3"
		},
		{
			"bufferView":225,
			"componentType":5126,
			"count":2,
			"type":"VEC3"
		},
		{
			"bufferView":226,
			"componentType":5126,
			"count":31,
			"type":"VEC4"
		},
		{
			"bufferView":227,
			"componentType":5126,
			"count":2,
			"type":"VEC3"
		},
		{
			"bufferView":228,
			"componentType":5126,
			"count":2,
			"type":"VEC3"
		},
		{
			"bufferView":229,
			"componentType":5126,
			"count":31,
			"type":"VEC4"
		},
		{
			"bufferView":230,
			"componentType":5126,
			"count":2,
			"type":"VEC3"
		},
		{
			"bufferView":231,
			"componentType":5126,
			"count":2,
			"type":"VEC3"
		},
		{
			"bufferView":232,
			"componentType":5126,
			"count":31,
			"type":"VEC4"
		},
		{
			"bufferView":233,
			"componentType":5126,
			"count":2,
			"type":"VEC3"
		},
		{
			"bufferView":234,
			"componentType":5126,
			"count":2,
			"type":"VEC3"
		},
		{
			"bufferView":235,
			"componentType":5126,
			"count":31,
			"type":"VEC4"
		},
		{
			"bufferView":236,
			"componentType":5126,
			"count":2,
			"type":"VEC3"
		},
		{
			"bufferView":237,
			"componentType":5126,
			"count":2,
			"type":"VEC3"
		},
		{
			"bufferView":238,
			"componentType":5126,
			"count":31,
			"type":"VEC4"
		},
		{
			"bufferView":239,
			"componentType":5126,
			"count":2,
			"type":"VEC3"
		},
		{
			"bufferView":240,
			"componentType":5126,
			"count":2,
			"type":"VEC3"
		},
		{
			"bufferView":241,
			"componentType":5126,
			"count":31,
			"type":"VEC4"
		},
		{
			"bufferView":242,
			"componentType":5126,
			"count":2,
			"type":"VEC3"
		}
	],
	"bufferViews":[
		{
			"buffer":0,
			"byteLength":17244,
			"byteOffset":0,
			"target":34962
		},
		{
			"buffer":0,
			"byteLength":17244,
			"byteOffset":17244,
			"target":34962
		},
		{
			"buffer":0,
			"byteLength":11496,
			"byteOffset":34488,
			"target":34962
		},
		{
			"buffer":0,
			"byteLength":5748,
			"byteOffset":45984,
			"target":34962
		},
		{
			"buffer":0,
			"byteLength":22992,
			"byteOffset":51732,
			"target":34962
		},
		{
			"buffer":0,
			"byteLength":11736,
			"byteOffset":74724,
			"target":34963
		},
		{
			"buffer":0,
			"byteLength":32148,
			"byteOffset":86460,
			"target":34962
		},
		{
			"buffer":0,
			"byteLength":32148,
			"byteOffset":118608,
			"target":34962
		},
		{
			"buffer":0,
			"byteLength":21432,
			"byteOffset":150756,
			"target":34962
		},
		{
			"buffer":0,
			"byteLength":10716,
			"byteOffset":172188,
			"target":34962
		},
		{
			"buffer":0,
			"byteLength":42864,
			"byteOffset":182904,
			"target":34962
		},
		{
			"buffer":0,
			"byteLength":16656,
			"byteOffset":225768,
			"target":34963
		},
		{
			"buffer":0,
			"byteLength":17532,
			"byteOffset":242424,
			"target":34962
		},
		{
			"buffer":0,
			"byteLength":17532,
			"byteOffset":259956,
			"target":34962
		},
		{
			"buffer":0,
			"byteLength":11688,
			"byteOffset":277488,
			"target":34962
		},
		{
			"buffer":0,
			"byteLength":5844,
			"byteOffset":289176,
			"target":34962
		},
		{
			"buffer":0,
			"byteLength":23376,
			"byteOffset":295020,
			"target":34962
		},
		{
			"buffer":0,
			"byteLength":13296,
			"byteOffset":318396,
			"target":34963
		},
		{
			"buffer":0,
			"byteLength":780,
			"byteOffset":331692,
			"target":34962
		},
		{
			"buffer":0,
			"byteLength":780,
			"byteOffset":332472,
			"target":34962
		},
		{
			"buffer":0,
			"byteLength":520,
			"byteOffset":333252,
			"target":34962
		},
		{
			"buffer":0,
			"byteLength":260,
			"byteOffset":333772,
			"target":34962
		},
		{
			"buffer":0,
			"byteLength":1040,
			"byteOffset":334032,
			"target":34962
		},
		{
			"buffer":0,
			"byteLength":384,
			"byteOffset":335072,
			"target":34963
		},
		{
			"buffer":0,
			"byteLength":11724,
			"byteOffset":335456,
			"target":34962
		},
		{
			"buffer":0,
			"byteLength":11724,
			"byteOffset":347180,
			"target":34962
		},
		{
			"buffer":0,
			"byteLength":7816,
			"byteOffset":358904,
			"target":34962
		},
		{
			"buffer":0,
			"byteLength":3908,
			"byteOffset":366720,
			"target":34962
		},
		{
			"buffer":0,
			"byteLength":15632,
			"byteOffset":370628,
			"target":34962
		},
		{
			"buffer":0,
			"byteLength":8664,
			"byteOffset":386260,
			"target":34963
		},
		{
			"buffer":0,
			"byteLength":12408,
			"byteOffset":394924,
			"target":34962
		},
		{
			"buffer":0,
			"byteLength":12408,
			"byteOffset":407332,
			"target":34962
		},
		{
			"buffer":0,
			"byteLength":8272,
			"byteOffset":419740,
			"target":34962
		},
		{
			"buffer":0,
			"byteLength":4136,
			"byteOffset":428012,
			"target":34962
		},
		{
			"buffer":0,
			"byteLength":16544,
			"byteOffset":432148,
			"target":34962
		},
		{
			"buffer":0,
			"byteLength":9216,
			"byteOffset":448692,
			"target":34963
		},
		{
			"buffer":0,
			"byteLength":3648,
			"byteOffset":457908,
			"target":34962
		},
		{
			"buffer":0,
			"byteLength":3648,
			"byteOffset":461556,
			"target":34962
		},
		{
			"buffer":0,
			"byteLength":2432,
			"byteOffset":465204,
			"target":34962
		},
		{
			"buffer":0,
			"byteLength":1216,
			"byteOffset":467636,
			"target":34962
		},
		{
			"buffer":0,
			"byteLength":4864,
			"byteOffset":468852,
			"target":34962
		},
		{
			"buffer":0,
			"byteLength":2304,
			"byteOffset":473716,
			"target":34963
		},
		{
			"buffer":0,
			"byteLength":2640,
			"byteOffset":476020,
			"target":34962
		},
		{
			"buffer":0,
			"byteLength":2640,
			"byteOffset":478660,
			"target":34962
		},
		{
			"buffer":0,
			"byteLength":1760,
			"byteOffset":481300,
			"target":34962
		},
		{
			"buffer":0,
			"byteLength":880,
			"byteOffset":483060,
			"target":34962
		},
		{
			"buffer":0,
			"byteLength":3520,
			"byteOffset":483940,
			"target":34962
		},
		{
			"buffer":0,
			"byteLength":1440,
			"byteOffset":487460,
			"target":34963
		},
		{
			"buffer":0,
			"byteLength":1920,
			"byteOffset":488900,
			"target":34962
		},
		{
			"buffer":0,
			"byteLength":1920,
			"byteOffset":490820,
			"target":34962
		},
		{
			"buffer":0,
			"byteLength":1280,
			"byteOffset":492740,
			"target":34962
		},
		{
			"buffer":0,
			"byteLength":640,
			"byteOffset":494020,
			"target":34962
		},
		{
			"buffer":0,
			"byteLength":2560,
			"byteOffset":494660,
			"target":34962
		},
		{
			"buffer":0,
			"byteLength":960,
			"byteOffset":497220,
			"target":34963
		},
		{
			"buffer":0,
			"byteLength":1176,
			"byteOffset":498180,
			"target":34962
		},
		{
			"buffer":0,
			"byteLength":1176,
			"byteOffset":499356,
			"target":34962
		},
		{
			"buffer":0,
			"byteLength":784,
			"byteOffset":500532,
			"target":34962
		},
		{
			"buffer":0,
			"byteLength":392,
			"byteOffset":501316,
			"target":34962
		},
		{
			"buffer":0,
			"byteLength":1568,
			"byteOffset":501708,
			"target":34962
		},
		{
			"buffer":0,
			"byteLength":720,
			"byteOffset":503276,
			"target":34963
		},
		{
			"buffer":0,
			"byteLength":288,
			"byteOffset":503996,
			"target":34962
		},
		{
			"buffer":0,
			"byteLength":288,
			"byteOffset":504284,
			"target":34962
		},
		{
			"buffer":0,
			"byteLength":192,
			"byteOffset":504572,
			"target":34962
		},
		{
			"buffer":0,
			"byteLength":96,
			"byteOffset":504764,
			"target":34962
		},
		{
			"buffer":0,
			"byteLength":384,
			"byteOffset":504860,
			"target":34962
		},
		{
			"buffer":0,
			"byteLength":72,
			"byteOffset":505244,
			"target":34963
		},
		{
			"buffer":0,
			"byteLength":1296,
			"byteOffset":505316,
			"target":34962
		},
		{
			"buffer":0,
			"byteLength":1296,
			"byteOffset":506612,
			"target":34962
		},
		{
			"buffer":0,
			"byteLength":864,
			"byteOffset":507908,
			"target":34962
		},
		{
			"buffer":0,
			"byteLength":432,
			"byteOffset":508772,
			"target":34962
		},
		{
			"buffer":0,
			"byteLength":1728,
			"byteOffset":509204,
			"target":34962
		},
		{
			"buffer":0,
			"byteLength":312,
			"byteOffset":510932,
			"target":34963
		},
		{
			"buffer":0,
			"byteLength":504,
			"byteOffset":511244,
			"target":34962
		},
		{
			"buffer":0,
			"byteLength":504,
			"byteOffset":511748,
			"target":34962
		},
		{
			"buffer":0,
			"byteLength":336,
			"byteOffset":512252,
			"target":34962
		},
		{
			"buffer":0,
			"byteLength":168,
			"byteOffset":512588,
			"target":34962
		},
		{
			"buffer":0,
			"byteLength":672,
			"byteOffset":512756,
			"target":34962
		},
		{
			"buffer":0,
			"byteLength":192,
			"byteOffset":513428,
			"target":34963
		},
		{
			"buffer":0,
			"byteLength":288,
			"byteOffset":513620,
			"target":34962
		},
		{
			"buffer":0,
			"byteLength":288,
			"byteOffset":513908,
			"target":34962
		},
		{
			"buffer":0,
			"byteLength":192,
			"byteOffset":514196,
			"target":34962
		},
		{
			"buffer":0,
			"byteLength":96,
			"byteOffset":514388,
			"target":34962
		},
		{
			"buffer":0,
			"byteLength":384,
			"byteOffset":514484,
			"target":34962
		},
		{
			"buffer":0,
			"byteLength":1088,
			"byteOffset":514868
		},
		{
			"buffer":0,
			"byteLength":8,
			"byteOffset":515956
		},
		{
			"buffer":0,
			"byteLength":24,
			"byteOffset":515964
		},
		{
			"buffer":0,
			"byteLength":32,
			"byteOffset":515988
		},
		{
			"buffer":0,
			"byteLength":24,
			"byteOffset":516020
		},
		{
			"buffer":0,
			"byteLength":24,
			"byteOffset":516044
		},
		{
			"buffer":0,
			"byteLength":32,
			"byteOffset":516068
		},
		{
			"buffer":0,
			"byteLength":24,
			"byteOffset":516100
		},
		{
			"buffer":0,
			"byteLength":24,
			"byteOffset":516124
		},
		{
			"buffer":0,
			"byteLength":76,
			"byteOffset":516148
		},
		{
			"buffer":0,
			"byteLength":304,
			"byteOffset":516224
		},
		{
			"buffer":0,
			"byteLength":24,
			"byteOffset":516528
		},
		{
			"buffer":0,
			"byteLength":24,
			"byteOffset":516552
		},
		{
			"buffer":0,
			"byteLength":32,
			"byteOffset":516576
		},
		{
			"buffer":0,
			"byteLength":24,
			"byteOffset":516608
		},
		{
			"buffer":0,
			"byteLength":24,
			"byteOffset":516632
		},
		{
			"buffer":0,
			"byteLength":32,
			"byteOffset":516656
		},
		{
			"buffer":0,
			"byteLength":24,
			"byteOffset":516688
		},
		{
			"buffer":0,
			"byteLength":24,
			"byteOffset":516712
		},
		{
			"buffer":0,
			"byteLength":304,
			"byteOffset":516736
		},
		{
			"buffer":0,
			"byteLength":24,
			"byteOffset":517040
		},
		{
			"buffer":0,
			"byteLength":24,
			"byteOffset":517064
		},
		{
			"buffer":0,
			"byteLength":304,
			"byteOffset":517088
		},
		{
			"buffer":0,
			"byteLength":24,
			"byteOffset":517392
		},
		{
			"buffer":0,
			"byteLength":24,
			"byteOffset":517416
		},
		{
			"buffer":0,
			"byteLength":32,
			"byteOffset":517440
		},
		{
			"buffer":0,
			"byteLength":24,
			"byteOffset":517472
		},
		{
			"buffer":0,
			"byteLength":24,
			"byteOffset":517496
		},
		{
			"buffer":0,
			"byteLength":304,
			"byteOffset":517520
		},
		{
			"buffer":0,
			"byteLength":24,
			"byteOffset":517824
		},
		{
			"buffer":0,
			"byteLength":24,
			"byteOffset":517848
		},
		{
			"buffer":0,
			"byteLength":32,
			"byteOffset":517872
		},
		{
			"buffer":0,
			"byteLength":24,
			"byteOffset":517904
		},
		{
			"buffer":0,
			"byteLength":24,
			"byteOffset":517928
		},
		{
			"buffer":0,
			"byteLength":32,
			"byteOffset":517952
		},
		{
			"buffer":0,
			"byteLength":24,
			"byteOffset":517984
		},
		{
			"buffer":0,
			"byteLength":24,
			"byteOffset":518008
		},
		{
			"buffer":0,
			"byteLength":304,
			"byteOffset":518032
		},
		{
			"buffer":0,
			"byteLength":24,
			"byteOffset":518336
		},
		{
			"buffer":0,
			"byteLength":24,
			"byteOffset":518360
		},
		{
			"buffer":0,
			"byteLength":32,
			"byteOffset":518384
		},
		{
			"buffer":0,
			"byteLength":24,
			"byteOffset":518416
		},
		{
			"buffer":0,
			"byteLength":24,
			"byteOffset":518440
		},
		{
			"buffer":0,
			"byteLength":32,
			"byteOffset":518464
		},
		{
			"buffer":0,
			"byteLength":24,
			"byteOffset":518496
		},
		{
			"buffer":0,
			"byteLength":24,
			"byteOffset":518520
		},
		{
			"buffer":0,
			"byteLength":304,
			"byteOffset":518544
		},
		{
			"buffer":0,
			"byteLength":24,
			"byteOffset":518848
		},
		{
			"buffer":0,
			"byteLength":24,
			"byteOffset":518872
		},
		{
			"buffer":0,
			"byteLength":32,
			"byteOffset":518896
		},
		{
			"buffer":0,
			"byteLength":24,
			"byteOffset":518928
		},
		{
			"buffer":0,
			"byteLength":24,
			"byteOffset":518952
		},
		{
			"buffer":0,
			"byteLength":32,
			"byteOffset":518976
		},
		{
			"buffer":0,
			"byteLength":24,
			"byteOffset":519008
		},
		{
			"buffer":0,
			"byteLength":244,
			"byteOffset":519032
		},
		{
			"buffer":0,
			"byteLength":732,
			"byteOffset":519276
		},
		{
			"buffer":0,
			"byteLength":8,
			"byteOffset":520008
		},
		{
			"buffer":0,
			"byteLength":32,
			"byteOffset":520016
		},
		{
			"buffer":0,
			"byteLength":24,
			"byteOffset":520048
		},
		{
			"buffer":0,
			"byteLength":24,
			"byteOffset":520072
		},
		{
			"buffer":0,
			"byteLength":32,
			"byteOffset":520096
		},
		{
			"buffer":0,
			"byteLength":24,
			"byteOffset":520128
		},
		{
			"buffer":0,
			"byteLength":24,
			"byteOffset":520152
		},
		{
			"buffer":0,
			"byteLength":976,
			"byteOffset":520176
		},
		{
			"buffer":0,
			"byteLength":24,
			"byteOffset":521152
		},
		{
			"buffer":0,
			"byteLength":24,
			"byteOffset":521176
		},
		{
			"buffer":0,
			"byteLength":32,
			"byteOffset":521200
		},
		{
			"buffer":0,
			"byteLength":24,
			"byteOffset":521232
		},
		{
			"buffer":0,
			"byteLength":24,
			"byteOffset":521256
		},
		{
			"buffer":0,
			"byteLength":976,
			"byteOffset":521280
		},
		{
			"buffer":0,
			"byteLength":24,
			"byteOffset":522256
		},
		{
			"buffer":0,
			"byteLength":24,
			"byteOffset":522280
		},
		{
			"buffer":0,
			"byteLength":976,
			"byteOffset":522304
		},
		{
			"buffer":0,
			"byteLength":24,
			"byteOffset":523280
		},
		{
			"buffer":0,
			"byteLength":24,
			"byteOffset":523304
		},
		{
			"buffer":0,
			"byteLength":32,
			"byteOffset":523328
		},
		{
			"buffer":0,
			"byteLength":24,
			"byteOffset":523360
		},
		{
			"buffer":0,
			"byteLength":24,
			"byteOffset":523384
		},
		{
			"buffer":0,
			"byteLength":32,
			"byteOffset":523408
		},
		{
			"buffer":0,
			"byteLength":24,
			"byteOffset":523440
		},
		{
			"buffer":0,
			"byteLength":24,
			"byteOffset":523464
		},
		{
			"buffer":0,
			"byteLength":976,
			"byteOffset":523488
		},
		{
			"buffer":0,
			"byteLength":24,
			"byteOffset":524464
		},
		{
			"buffer":0,
			"byteLength":24,
			"byteOffset":524488
		},
		{
			"buffer":0,
			"byteLength":32,
			"byteOffset":524512
		},
		{
			"buffer":0,
			"byteLength":24,
			"byteOffset":524544
		},
		{
			"buffer":0,
			"byteLength":24,
			"byteOffset":524568
		},
		{
			"buffer":0,
			"byteLength":32,
			"byteOffset":524592
		},
		{
			"buffer":0,
			"byteLength":24,
			"byteOffset":524624
		},
		{
			"buffer":0,
			"byteLength":24,
			"byteOffset":524648
		},
		{
			"buffer":0,
			"byteLength":32,
			"byteOffset":524672
		},
		{
			"buffer":0,
			"byteLength":24,
			"byteOffset":524704
		},
		{
			"buffer":0,
			"byteLength":24,
			"byteOffset":524728
		},
		{
			"buffer":0,
			"byteLength":32,
			"byteOffset":524752
		},
		{
			"buffer":0,
			"byteLength":24,
			"byteOffset":524784
		},
		{
			"buffer":0,
			"byteLength":24,
			"byteOffset":524808
		},
		{
			"buffer":0,
			"byteLength":32,
			"byteOffset":524832
		},
		{
			"buffer":0,
			"byteLength":24,
			"byteOffset":524864
		},
		{
			"buffer":0,
			"byteLength":24,
			"byteOffset":524888
		},
		{
			"buffer":0,
			"byteLength":32,
			"byteOffset":524912
		},
		{
			"buffer":0,
			"byteLength":24,
			"byteOffset":524944
		},
		{
			"buffer":0,
			"byteLength":24,
			"byteOffset":524968
		},
		{
			"buffer":0,
			"byteLength":32,
			"byteOffset":524992
		},
		{
			"buffer":0,
			"byteLength":24,
			"byteOffset":525024
		},
		{
			"buffer":0,
			"byteLength":24,
			"byteOffset":525048
		},
		{
			"buffer":0,
			"byteLength":32,
			"byteOffset":525072
		},
		{
			"buffer":0,
			"byteLength":24,
			"byteOffset":525104
		},
		{
			"buffer":0,
			"byteLength":124,
			"byteOffset":525128
		},
		{
			"buffer":0,
			"byteLength":372,
			"byteOffset":525252
		},
		{
			"buffer":0,
			"byteLength":496,
			"byteOffset":525624
		},
		{
			"buffer":0,
			"byteLength":8,
			"byteOffset":526120
		},
		{
			"buffer":0,
			"byteLength":24,
			"byteOffset":526128
		},
		{
			"buffer":0,
			"byteLength":24,
			"byteOffset":526152
		},
		{
			"buffer":0,
			"byteLength":32,
			"byteOffset":526176
		},
		{
			"buffer":0,
			"byteLength":24,
			"byteOffset":526208
		},
		{
			"buffer":0,
			"byteLength":24,
			"byteOffset":526232
		},
		{
			"buffer":0,
			"byteLength":496,
			"byteOffset":526256
		},
		{
			"buffer":0,
			"byteLength":24,
			"byteOffset":526752
		},
		{
			"buffer":0,
			"byteLength":24,
			"byteOffset":526776
		},
		{
			"buffer":0,
			"byteLength":32,
			"byteOffset":526800
		},
		{
			"buffer":0,
			"byteLength":24,
			"byteOffset":526832
		},
		{
			"buffer":0,
			"byteLength":24,
			"byteOffset":526856
		},
		{
			"buffer":0,
			"byteLength":32,
			"byteOffset":526880
		},
		{
			"buffer":0,
			"byteLength":24,
			"byteOffset":526912
		},
		{
			"buffer":0,
			"byteLength":24,
			"byteOffset":526936
		},
		{
			"buffer":0,
			"byteLength":496,
			"byteOffset":526960
		},
		{
			"buffer":0,
			"byteLength":24,
			"byteOffset":527456
		},
		{
			"buffer":0,
			"byteLength":24,
			"byteOffset":527480
		},
		{
			"buffer":0,
			"byteLength":32,
			"byteOffset":527504
		},
		{
			"buffer":0,
			"byteLength":24,
			"byteOffset":527536
		},
		{
			"buffer":0,
			"byteLength":24,
			"byteOffset":527560
		},
		{
			"buffer":0,
			"byteLength":32,
			"byteOffset":527584
		},
		{
			"buffer":0,
			"byteLength":24,
			"byteOffset":527616
		},
		{
			"buffer":0,
			"byteLength":24,
			"byteOffset":527640
		},
		{
			"buffer":0,
			"byteLength":496,
			"byteOffset":527664
		},
		{
			"buffer":0,
			"byteLength":24,
			"byteOffset":528160
		},
		{
			"buffer":0,
			"byteLength":24,
			"byteOffset":528184
		},
		{
			"buffer":0,
			"byteLength":32,
			"byteOffset":528208
		},
		{
			"buffer":0,
			"byteLength":24,
			"byteOffset":528240
		},
		{
			"buffer":0,
			"byteLength":24,
			"byteOffset":528264
		},
		{
			"buffer":0,
			"byteLength":32,
			"byteOffset":528288
		},
		{
			"buffer":0,
			"byteLength":24,
			"byteOffset":528320
		},
		{
			"buffer":0,
			"byteLength":24,
			"byteOffset":528344
		},
		{
			"buffer":0,
			"byteLength":496,
			"byteOffset":528368
		},
		{
			"buffer":0,
			"byteLength":24,
			"byteOffset":528864
		},
		{
			"buffer":0,
			"byteLength":24,
			"byteOffset":528888
		},
		{
			"buffer":0,
			"byteLength":496,
			"byteOffset":528912
		},
		{
			"buffer":0,
			"byteLength":24,
			"byteOffset":529408
		},
		{
			"buffer":0,
			"byteLength":24,
			"byteOffset":529432
		},
		{
			"buffer":0,
			"byteLength":496,
			"byteOffset":529456
		},
		{
			"buffer":0,
			"byteLength":24,
			"byteOffset":529952
		},
		{
			"buffer":0,
			"byteLength":24,
			"byteOffset":529976
		},
		{
			"buffer":0,
			"byteLength":496,
			"byteOffset":530000
		},
		{
			"buffer":0,
			"byteLength":24,
			"byteOffset":530496
		},
		{
			"buffer":0,
			"byteLength":24,
			"byteOffset":530520
		},
		{
			"buffer":0,
			"byteLength":496,
			"byteOffset":530544
		},
		{
			"buffer":0,
			"byteLength":24,
			"byteOffset":531040
		},
		{
			"buffer":0,
			"byteLength":24,
			"byteOffset":531064
		},
		{
			"buffer":0,
			"byteLength":496,
			"byteOffset":531088
		},
		{
			"buffer":0,
			"byteLength":24,
			"byteOffset":531584
		}
	],
	"samplers":[
		{
			"magFilter":9729,
			"minFilter":9987
		}
	],
	"buffers":[
		{
			"byteLength":531608,
			"uri":"gido.bin"
		}
	]
}
