{
	"asset":{
		"generator":"Khronos glTF Blender I/O v4.2.57",
		"version":"2.0"
	},
	"extensionsUsed":[
		"KHR_materials_clearcoat",
		"KHR_materials_sheen"
	],
	"scene":0,
	"scenes":[
		{
			"name":"Scene",
			"nodes":[
				18
			]
		}
	],
	"nodes":[
		{
			"name":"head",
			"rotation":[
				-3.552713678800501e-15,
				0,
				0,
				1
			],
			"translation":[
				0,
				0.06200003623962402,
				0
			]
		},
		{
			"children":[
				0
			],
			"name":"neck",
			"rotation":[
				-3.552713678800501e-15,
				0,
				0,
				1
			],
			"translation":[
				0,
				0.1302000880241394,
				0
			]
		},
		{
			"name":"hand.R",
			"rotation":[
				-0.002831953577697277,
				-0.020585693418979645,
				0.02213006466627121,
				0.9995391368865967
			],
			"translation":[
				1.501757651567459e-08,
				0.15607081353664398,
				-2.7939677238464355e-09
			]
		},
		{
			"children":[
				2
			],
			"name":"forearm.R",
			"rotation":[
				0.04786791652441025,
				-0.06073952838778496,
				0.07015407085418701,
				0.9945339560508728
			],
			"scale":[
				1,
				0.9999998807907104,
				1.0000001192092896
			],
			"translation":[
				-2.3865140974521637e-08,
				0.17130514979362488,
				-2.7939677238464355e-09
			]
		},
		{
			"children":[
				3
			],
			"name":"upper_arm.R",
			"rotation":[
				0.988559901714325,
				0.10654284060001373,
				0.10654286295175552,
				0.0068230475299060345
			],
			"scale":[
				1.0000001192092896,
				1,
				1
			],
			"translation":[
				0.13391999900341034,
				0.09920006990432739,
				0
			]
		},
		{
			"name":"hand.L",
			"rotation":[
				-0.002831953577697277,
				0.020585693418979645,
				-0.02213006466627121,
				0.9995391368865967
			],
			"translation":[
				-1.501757651567459e-08,
				0.15607081353664398,
				-2.7939677238464355e-09
			]
		},
		{
			"children":[
				5
			],
			"name":"forearm.L",
			"rotation":[
				0.04786791652441025,
				0.06073952838778496,
				-0.07015407085418701,
				0.9945339560508728
			],
			"scale":[
				1,
				0.9999998807907104,
				1.0000001192092896
			],
			"translation":[
				2.3865140974521637e-08,
				0.17130514979362488,
				-2.7939677238464355e-09
			]
		},
		{
			"children":[
				6
			],
			"name":"upper_arm.L",
			"rotation":[
				0.988559901714325,
				-0.10654284060001373,
				-0.10654286295175552,
				0.0068230475299060345
			],
			"scale":[
				1.0000001192092896,
				1,
				1
			],
			"translation":[
				-0.13391999900341034,
				0.09920006990432739,
				0
			]
		},
		{
			"children":[
				1,
				4,
				7
			],
			"name":"chest",
			"rotation":[
				-3.552713678800501e-15,
				0,
				0,
				1
			],
			"translation":[
				0,
				0.10540008544921875,
				0
			]
		},
		{
			"children":[
				8
			],
			"name":"spine",
			"rotation":[
				-3.552713678800501e-15,
				0,
				0,
				1
			],
			"translation":[
				0,
				0.09300005435943604,
				0
			]
		},
		{
			"name":"foot.R",
			"rotation":[
				0.5914182066917419,
				-3.457831132536171e-09,
				9.620836245727293e-12,
				0.8063650131225586
			],
			"translation":[
				-1.7437638832884517e-10,
				0.25456568598747253,
				-9.823644120388053e-10
			]
		},
		{
			"children":[
				10
			],
			"name":"shin.R",
			"rotation":[
				-0.041510097682476044,
				-0.009864576160907745,
				0.009349511936306953,
				0.9990456700325012
			],
			"translation":[
				-9.356881491839886e-09,
				0.25435730814933777,
				-3.4924596548080444e-10
			]
		},
		{
			"children":[
				11
			],
			"name":"thigh.R",
			"rotation":[
				-0.9997993111610413,
				-0.009610525332391262,
				-0.009610524401068687,
				0.014720413833856583
			],
			"scale":[
				1,
				1.0000001192092896,
				1.000000238418579
			],
			"translation":[
				0.057040002197027206,
				-0.012399911880493164,
				0
			]
		},
		{
			"name":"foot.L",
			"rotation":[
				0.5914182066917419,
				3.457831132536171e-09,
				-9.620836245727293e-12,
				0.8063650131225586
			],
			"translation":[
				1.7437638832884517e-10,
				0.25456568598747253,
				-9.823644120388053e-10
			]
		},
		{
			"children":[
				13
			],
			"name":"shin.L",
			"rotation":[
				-0.041510097682476044,
				0.009864576160907745,
				-0.009349511936306953,
				0.9990456700325012
			],
			"translation":[
				9.356881491839886e-09,
				0.25435730814933777,
				-3.4924596548080444e-10
			]
		},
		{
			"children":[
				14
			],
			"name":"thigh.L",
			"rotation":[
				-0.9997993111610413,
				0.009610525332391262,
				0.009610524401068687,
				0.014720413833856583
			],
			"scale":[
				1,
				1.0000001192092896,
				1.000000238418579
			],
			"translation":[
				-0.057040002197027206,
				-0.012399911880493164,
				0
			]
		},
		{
			"children":[
				9,
				12,
				15
			],
			"name":"hips",
			"rotation":[
				-2.980232594040899e-08,
				0,
				0,
				1
			],
			"scale":[
				1,
				0.9999999403953552,
				0.9999999403953552
			],
			"translation":[
				0,
				0.5766000151634216,
				0
			]
		},
		{
			"mesh":0,
			"name":"goblin",
			"skin":0
		},
		{
			"children":[
				17,
				16
			],
			"name":"goblin_rig"
		}
	],
	"animations":[
		{
			"channels":[
				{
					"sampler":0,
					"target":{
						"node":16,
						"path":"translation"
					}
				},
				{
					"sampler":1,
					"target":{
						"node":16,
						"path":"rotation"
					}
				},
				{
					"sampler":2,
					"target":{
						"node":16,
						"path":"scale"
					}
				},
				{
					"sampler":3,
					"target":{
						"node":9,
						"path":"translation"
					}
				},
				{
					"sampler":4,
					"target":{
						"node":9,
						"path":"rotation"
					}
				},
				{
					"sampler":5,
					"target":{
						"node":9,
						"path":"scale"
					}
				},
				{
					"sampler":6,
					"target":{
						"node":8,
						"path":"translation"
					}
				},
				{
					"sampler":7,
					"target":{
						"node":8,
						"path":"rotation"
					}
				},
				{
					"sampler":8,
					"target":{
						"node":8,
						"path":"scale"
					}
				},
				{
					"sampler":9,
					"target":{
						"node":1,
						"path":"translation"
					}
				},
				{
					"sampler":10,
					"target":{
						"node":1,
						"path":"rotation"
					}
				},
				{
					"sampler":11,
					"target":{
						"node":1,
						"path":"scale"
					}
				},
				{
					"sampler":12,
					"target":{
						"node":0,
						"path":"translation"
					}
				},
				{
					"sampler":13,
					"target":{
						"node":0,
						"path":"rotation"
					}
				},
				{
					"sampler":14,
					"target":{
						"node":0,
						"path":"scale"
					}
				},
				{
					"sampler":15,
					"target":{
						"node":4,
						"path":"translation"
					}
				},
				{
					"sampler":16,
					"target":{
						"node":4,
						"path":"rotation"
					}
				},
				{
					"sampler":17,
					"target":{
						"node":4,
						"path":"scale"
					}
				},
				{
					"sampler":18,
					"target":{
						"node":3,
						"path":"translation"
					}
				},
				{
					"sampler":19,
					"target":{
						"node":3,
						"path":"rotation"
					}
				},
				{
					"sampler":20,
					"target":{
						"node":3,
						"path":"scale"
					}
				},
				{
					"sampler":21,
					"target":{
						"node":2,
						"path":"translation"
					}
				},
				{
					"sampler":22,
					"target":{
						"node":2,
						"path":"rotation"
					}
				},
				{
					"sampler":23,
					"target":{
						"node":2,
						"path":"scale"
					}
				},
				{
					"sampler":24,
					"target":{
						"node":7,
						"path":"translation"
					}
				},
				{
					"sampler":25,
					"target":{
						"node":7,
						"path":"rotation"
					}
				},
				{
					"sampler":26,
					"target":{
						"node":7,
						"path":"scale"
					}
				},
				{
					"sampler":27,
					"target":{
						"node":6,
						"path":"translation"
					}
				},
				{
					"sampler":28,
					"target":{
						"node":6,
						"path":"rotation"
					}
				},
				{
					"sampler":29,
					"target":{
						"node":6,
						"path":"scale"
					}
				},
				{
					"sampler":30,
					"target":{
						"node":5,
						"path":"translation"
					}
				},
				{
					"sampler":31,
					"target":{
						"node":5,
						"path":"rotation"
					}
				},
				{
					"sampler":32,
					"target":{
						"node":5,
						"path":"scale"
					}
				},
				{
					"sampler":33,
					"target":{
						"node":12,
						"path":"translation"
					}
				},
				{
					"sampler":34,
					"target":{
						"node":12,
						"path":"rotation"
					}
				},
				{
					"sampler":35,
					"target":{
						"node":12,
						"path":"scale"
					}
				},
				{
					"sampler":36,
					"target":{
						"node":11,
						"path":"translation"
					}
				},
				{
					"sampler":37,
					"target":{
						"node":11,
						"path":"rotation"
					}
				},
				{
					"sampler":38,
					"target":{
						"node":11,
						"path":"scale"
					}
				},
				{
					"sampler":39,
					"target":{
						"node":10,
						"path":"translation"
					}
				},
				{
					"sampler":40,
					"target":{
						"node":10,
						"path":"rotation"
					}
				},
				{
					"sampler":41,
					"target":{
						"node":10,
						"path":"scale"
					}
				},
				{
					"sampler":42,
					"target":{
						"node":15,
						"path":"translation"
					}
				},
				{
					"sampler":43,
					"target":{
						"node":15,
						"path":"rotation"
					}
				},
				{
					"sampler":44,
					"target":{
						"node":15,
						"path":"scale"
					}
				},
				{
					"sampler":45,
					"target":{
						"node":14,
						"path":"translation"
					}
				},
				{
					"sampler":46,
					"target":{
						"node":14,
						"path":"rotation"
					}
				},
				{
					"sampler":47,
					"target":{
						"node":14,
						"path":"scale"
					}
				},
				{
					"sampler":48,
					"target":{
						"node":13,
						"path":"translation"
					}
				},
				{
					"sampler":49,
					"target":{
						"node":13,
						"path":"rotation"
					}
				},
				{
					"sampler":50,
					"target":{
						"node":13,
						"path":"scale"
					}
				}
			],
			"name":"attack",
			"samplers":[
				{
					"input":73,
					"interpolation":"STEP",
					"output":74
				},
				{
					"input":73,
					"interpolation":"STEP",
					"output":75
				},
				{
					"input":73,
					"interpolation":"STEP",
					"output":76
				},
				{
					"input":73,
					"interpolation":"STEP",
					"output":77
				},
				{
					"input":73,
					"interpolation":"STEP",
					"output":78
				},
				{
					"input":73,
					"interpolation":"STEP",
					"output":79
				},
				{
					"input":73,
					"interpolation":"STEP",
					"output":80
				},
				{
					"input":81,
					"interpolation":"LINEAR",
					"output":82
				},
				{
					"input":73,
					"interpolation":"STEP",
					"output":83
				},
				{
					"input":73,
					"interpolation":"LINEAR",
					"output":84
				},
				{
					"input":73,
					"interpolation":"STEP",
					"output":85
				},
				{
					"input":73,
					"interpolation":"STEP",
					"output":86
				},
				{
					"input":73,
					"interpolation":"LINEAR",
					"output":87
				},
				{
					"input":73,
					"interpolation":"STEP",
					"output":88
				},
				{
					"input":73,
					"interpolation":"STEP",
					"output":89
				},
				{
					"input":73,
					"interpolation":"LINEAR",
					"output":90
				},
				{
					"input":81,
					"interpolation":"LINEAR",
					"output":91
				},
				{
					"input":73,
					"interpolation":"STEP",
					"output":92
				},
				{
					"input":73,
					"interpolation":"STEP",
					"output":93
				},
				{
					"input":81,
					"interpolation":"LINEAR",
					"output":94
				},
				{
					"input":73,
					"interpolation":"STEP",
					"output":95
				},
				{
					"input":73,
					"interpolation":"STEP",
					"output":96
				},
				{
					"input":73,
					"interpolation":"STEP",
					"output":97
				},
				{
					"input":73,
					"interpolation":"STEP",
					"output":98
				},
				{
					"input":73,
					"interpolation":"LINEAR",
					"output":99
				},
				{
					"input":81,
					"interpolation":"LINEAR",
					"output":100
				},
				{
					"input":73,
					"interpolation":"STEP",
					"output":101
				},
				{
					"input":73,
					"interpolation":"STEP",
					"output":102
				},
				{
					"input":73,
					"interpolation":"STEP",
					"output":103
				},
				{
					"input":73,
					"interpolation":"STEP",
					"output":104
				},
				{
					"input":73,
					"interpolation":"STEP",
					"output":105
				},
				{
					"input":73,
					"interpolation":"STEP",
					"output":106
				},
				{
					"input":73,
					"interpolation":"STEP",
					"output":107
				},
				{
					"input":73,
					"interpolation":"STEP",
					"output":108
				},
				{
					"input":81,
					"interpolation":"LINEAR",
					"output":109
				},
				{
					"input":73,
					"interpolation":"STEP",
					"output":110
				},
				{
					"input":73,
					"interpolation":"LINEAR",
					"output":111
				},
				{
					"input":73,
					"interpolation":"LINEAR",
					"output":112
				},
				{
					"input":73,
					"interpolation":"STEP",
					"output":113
				},
				{
					"input":73,
					"interpolation":"LINEAR",
					"output":114
				},
				{
					"input":73,
					"interpolation":"LINEAR",
					"output":115
				},
				{
					"input":73,
					"interpolation":"STEP",
					"output":116
				},
				{
					"input":73,
					"interpolation":"STEP",
					"output":117
				},
				{
					"input":81,
					"interpolation":"LINEAR",
					"output":118
				},
				{
					"input":73,
					"interpolation":"STEP",
					"output":119
				},
				{
					"input":73,
					"interpolation":"LINEAR",
					"output":120
				},
				{
					"input":73,
					"interpolation":"LINEAR",
					"output":121
				},
				{
					"input":73,
					"interpolation":"STEP",
					"output":122
				},
				{
					"input":73,
					"interpolation":"LINEAR",
					"output":123
				},
				{
					"input":73,
					"interpolation":"LINEAR",
					"output":124
				},
				{
					"input":73,
					"interpolation":"STEP",
					"output":125
				}
			]
		},
		{
			"channels":[
				{
					"sampler":0,
					"target":{
						"node":16,
						"path":"translation"
					}
				},
				{
					"sampler":1,
					"target":{
						"node":16,
						"path":"rotation"
					}
				},
				{
					"sampler":2,
					"target":{
						"node":16,
						"path":"scale"
					}
				},
				{
					"sampler":3,
					"target":{
						"node":9,
						"path":"translation"
					}
				},
				{
					"sampler":4,
					"target":{
						"node":9,
						"path":"rotation"
					}
				},
				{
					"sampler":5,
					"target":{
						"node":9,
						"path":"scale"
					}
				},
				{
					"sampler":6,
					"target":{
						"node":8,
						"path":"translation"
					}
				},
				{
					"sampler":7,
					"target":{
						"node":8,
						"path":"rotation"
					}
				},
				{
					"sampler":8,
					"target":{
						"node":8,
						"path":"scale"
					}
				},
				{
					"sampler":9,
					"target":{
						"node":1,
						"path":"translation"
					}
				},
				{
					"sampler":10,
					"target":{
						"node":1,
						"path":"rotation"
					}
				},
				{
					"sampler":11,
					"target":{
						"node":1,
						"path":"scale"
					}
				},
				{
					"sampler":12,
					"target":{
						"node":0,
						"path":"translation"
					}
				},
				{
					"sampler":13,
					"target":{
						"node":0,
						"path":"rotation"
					}
				},
				{
					"sampler":14,
					"target":{
						"node":0,
						"path":"scale"
					}
				},
				{
					"sampler":15,
					"target":{
						"node":4,
						"path":"translation"
					}
				},
				{
					"sampler":16,
					"target":{
						"node":4,
						"path":"rotation"
					}
				},
				{
					"sampler":17,
					"target":{
						"node":4,
						"path":"scale"
					}
				},
				{
					"sampler":18,
					"target":{
						"node":3,
						"path":"translation"
					}
				},
				{
					"sampler":19,
					"target":{
						"node":3,
						"path":"rotation"
					}
				},
				{
					"sampler":20,
					"target":{
						"node":3,
						"path":"scale"
					}
				},
				{
					"sampler":21,
					"target":{
						"node":2,
						"path":"translation"
					}
				},
				{
					"sampler":22,
					"target":{
						"node":2,
						"path":"rotation"
					}
				},
				{
					"sampler":23,
					"target":{
						"node":2,
						"path":"scale"
					}
				},
				{
					"sampler":24,
					"target":{
						"node":7,
						"path":"translation"
					}
				},
				{
					"sampler":25,
					"target":{
						"node":7,
						"path":"rotation"
					}
				},
				{
					"sampler":26,
					"target":{
						"node":7,
						"path":"scale"
					}
				},
				{
					"sampler":27,
					"target":{
						"node":6,
						"path":"translation"
					}
				},
				{
					"sampler":28,
					"target":{
						"node":6,
						"path":"rotation"
					}
				},
				{
					"sampler":29,
					"target":{
						"node":6,
						"path":"scale"
					}
				},
				{
					"sampler":30,
					"target":{
						"node":5,
						"path":"translation"
					}
				},
				{
					"sampler":31,
					"target":{
						"node":5,
						"path":"rotation"
					}
				},
				{
					"sampler":32,
					"target":{
						"node":5,
						"path":"scale"
					}
				},
				{
					"sampler":33,
					"target":{
						"node":12,
						"path":"translation"
					}
				},
				{
					"sampler":34,
					"target":{
						"node":12,
						"path":"rotation"
					}
				},
				{
					"sampler":35,
					"target":{
						"node":12,
						"path":"scale"
					}
				},
				{
					"sampler":36,
					"target":{
						"node":11,
						"path":"translation"
					}
				},
				{
					"sampler":37,
					"target":{
						"node":11,
						"path":"rotation"
					}
				},
				{
					"sampler":38,
					"target":{
						"node":11,
						"path":"scale"
					}
				},
				{
					"sampler":39,
					"target":{
						"node":10,
						"path":"translation"
					}
				},
				{
					"sampler":40,
					"target":{
						"node":10,
						"path":"rotation"
					}
				},
				{
					"sampler":41,
					"target":{
						"node":10,
						"path":"scale"
					}
				},
				{
					"sampler":42,
					"target":{
						"node":15,
						"path":"translation"
					}
				},
				{
					"sampler":43,
					"target":{
						"node":15,
						"path":"rotation"
					}
				},
				{
					"sampler":44,
					"target":{
						"node":15,
						"path":"scale"
					}
				},
				{
					"sampler":45,
					"target":{
						"node":14,
						"path":"translation"
					}
				},
				{
					"sampler":46,
					"target":{
						"node":14,
						"path":"rotation"
					}
				},
				{
					"sampler":47,
					"target":{
						"node":14,
						"path":"scale"
					}
				},
				{
					"sampler":48,
					"target":{
						"node":13,
						"path":"translation"
					}
				},
				{
					"sampler":49,
					"target":{
						"node":13,
						"path":"rotation"
					}
				},
				{
					"sampler":50,
					"target":{
						"node":13,
						"path":"scale"
					}
				}
			],
			"name":"idle",
			"samplers":[
				{
					"input":126,
					"interpolation":"LINEAR",
					"output":127
				},
				{
					"input":128,
					"interpolation":"STEP",
					"output":129
				},
				{
					"input":128,
					"interpolation":"STEP",
					"output":130
				},
				{
					"input":128,
					"interpolation":"STEP",
					"output":131
				},
				{
					"input":128,
					"interpolation":"STEP",
					"output":132
				},
				{
					"input":128,
					"interpolation":"STEP",
					"output":133
				},
				{
					"input":128,
					"interpolation":"STEP",
					"output":134
				},
				{
					"input":126,
					"interpolation":"LINEAR",
					"output":135
				},
				{
					"input":128,
					"interpolation":"STEP",
					"output":136
				},
				{
					"input":128,
					"interpolation":"STEP",
					"output":137
				},
				{
					"input":128,
					"interpolation":"STEP",
					"output":138
				},
				{
					"input":128,
					"interpolation":"STEP",
					"output":139
				},
				{
					"input":128,
					"interpolation":"STEP",
					"output":140
				},
				{
					"input":126,
					"interpolation":"LINEAR",
					"output":141
				},
				{
					"input":128,
					"interpolation":"STEP",
					"output":142
				},
				{
					"input":128,
					"interpolation":"STEP",
					"output":143
				},
				{
					"input":126,
					"interpolation":"LINEAR",
					"output":144
				},
				{
					"input":128,
					"interpolation":"STEP",
					"output":145
				},
				{
					"input":128,
					"interpolation":"STEP",
					"output":146
				},
				{
					"input":128,
					"interpolation":"STEP",
					"output":147
				},
				{
					"input":128,
					"interpolation":"STEP",
					"output":148
				},
				{
					"input":128,
					"interpolation":"STEP",
					"output":149
				},
				{
					"input":128,
					"interpolation":"STEP",
					"output":150
				},
				{
					"input":128,
					"interpolation":"STEP",
					"output":151
				},
				{
					"input":128,
					"interpolation":"STEP",
					"output":152
				},
				{
					"input":126,
					"interpolation":"LINEAR",
					"output":153
				},
				{
					"input":128,
					"interpolation":"STEP",
					"output":154
				},
				{
					"input":128,
					"interpolation":"STEP",
					"output":155
				},
				{
					"input":128,
					"interpolation":"STEP",
					"output":156
				},
				{
					"input":128,
					"interpolation":"STEP",
					"output":157
				},
				{
					"input":128,
					"interpolation":"STEP",
					"output":158
				},
				{
					"input":128,
					"interpolation":"STEP",
					"output":159
				},
				{
					"input":128,
					"interpolation":"STEP",
					"output":160
				},
				{
					"input":128,
					"interpolation":"STEP",
					"output":161
				},
				{
					"input":128,
					"interpolation":"STEP",
					"output":162
				},
				{
					"input":128,
					"interpolation":"STEP",
					"output":163
				},
				{
					"input":128,
					"interpolation":"STEP",
					"output":164
				},
				{
					"input":128,
					"interpolation":"STEP",
					"output":165
				},
				{
					"input":128,
					"interpolation":"STEP",
					"output":166
				},
				{
					"input":128,
					"interpolation":"STEP",
					"output":167
				},
				{
					"input":128,
					"interpolation":"STEP",
					"output":168
				},
				{
					"input":128,
					"interpolation":"STEP",
					"output":169
				},
				{
					"input":128,
					"interpolation":"STEP",
					"output":170
				},
				{
					"input":128,
					"interpolation":"STEP",
					"output":171
				},
				{
					"input":128,
					"interpolation":"STEP",
					"output":172
				},
				{
					"input":128,
					"interpolation":"STEP",
					"output":173
				},
				{
					"input":128,
					"interpolation":"STEP",
					"output":174
				},
				{
					"input":128,
					"interpolation":"STEP",
					"output":175
				},
				{
					"input":128,
					"interpolation":"STEP",
					"output":176
				},
				{
					"input":128,
					"interpolation":"STEP",
					"output":177
				},
				{
					"input":128,
					"interpolation":"STEP",
					"output":178
				}
			]
		},
		{
			"channels":[
				{
					"sampler":0,
					"target":{
						"node":16,
						"path":"translation"
					}
				},
				{
					"sampler":1,
					"target":{
						"node":16,
						"path":"rotation"
					}
				},
				{
					"sampler":2,
					"target":{
						"node":16,
						"path":"scale"
					}
				},
				{
					"sampler":3,
					"target":{
						"node":9,
						"path":"translation"
					}
				},
				{
					"sampler":4,
					"target":{
						"node":9,
						"path":"rotation"
					}
				},
				{
					"sampler":5,
					"target":{
						"node":9,
						"path":"scale"
					}
				},
				{
					"sampler":6,
					"target":{
						"node":8,
						"path":"translation"
					}
				},
				{
					"sampler":7,
					"target":{
						"node":8,
						"path":"rotation"
					}
				},
				{
					"sampler":8,
					"target":{
						"node":8,
						"path":"scale"
					}
				},
				{
					"sampler":9,
					"target":{
						"node":1,
						"path":"translation"
					}
				},
				{
					"sampler":10,
					"target":{
						"node":1,
						"path":"rotation"
					}
				},
				{
					"sampler":11,
					"target":{
						"node":1,
						"path":"scale"
					}
				},
				{
					"sampler":12,
					"target":{
						"node":0,
						"path":"translation"
					}
				},
				{
					"sampler":13,
					"target":{
						"node":0,
						"path":"rotation"
					}
				},
				{
					"sampler":14,
					"target":{
						"node":0,
						"path":"scale"
					}
				},
				{
					"sampler":15,
					"target":{
						"node":4,
						"path":"translation"
					}
				},
				{
					"sampler":16,
					"target":{
						"node":4,
						"path":"rotation"
					}
				},
				{
					"sampler":17,
					"target":{
						"node":4,
						"path":"scale"
					}
				},
				{
					"sampler":18,
					"target":{
						"node":3,
						"path":"translation"
					}
				},
				{
					"sampler":19,
					"target":{
						"node":3,
						"path":"rotation"
					}
				},
				{
					"sampler":20,
					"target":{
						"node":3,
						"path":"scale"
					}
				},
				{
					"sampler":21,
					"target":{
						"node":2,
						"path":"translation"
					}
				},
				{
					"sampler":22,
					"target":{
						"node":2,
						"path":"rotation"
					}
				},
				{
					"sampler":23,
					"target":{
						"node":2,
						"path":"scale"
					}
				},
				{
					"sampler":24,
					"target":{
						"node":7,
						"path":"translation"
					}
				},
				{
					"sampler":25,
					"target":{
						"node":7,
						"path":"rotation"
					}
				},
				{
					"sampler":26,
					"target":{
						"node":7,
						"path":"scale"
					}
				},
				{
					"sampler":27,
					"target":{
						"node":6,
						"path":"translation"
					}
				},
				{
					"sampler":28,
					"target":{
						"node":6,
						"path":"rotation"
					}
				},
				{
					"sampler":29,
					"target":{
						"node":6,
						"path":"scale"
					}
				},
				{
					"sampler":30,
					"target":{
						"node":5,
						"path":"translation"
					}
				},
				{
					"sampler":31,
					"target":{
						"node":5,
						"path":"rotation"
					}
				},
				{
					"sampler":32,
					"target":{
						"node":5,
						"path":"scale"
					}
				},
				{
					"sampler":33,
					"target":{
						"node":12,
						"path":"translation"
					}
				},
				{
					"sampler":34,
					"target":{
						"node":12,
						"path":"rotation"
					}
				},
				{
					"sampler":35,
					"target":{
						"node":12,
						"path":"scale"
					}
				},
				{
					"sampler":36,
					"target":{
						"node":11,
						"path":"translation"
					}
				},
				{
					"sampler":37,
					"target":{
						"node":11,
						"path":"rotation"
					}
				},
				{
					"sampler":38,
					"target":{
						"node":11,
						"path":"scale"
					}
				},
				{
					"sampler":39,
					"target":{
						"node":10,
						"path":"translation"
					}
				},
				{
					"sampler":40,
					"target":{
						"node":10,
						"path":"rotation"
					}
				},
				{
					"sampler":41,
					"target":{
						"node":10,
						"path":"scale"
					}
				},
				{
					"sampler":42,
					"target":{
						"node":15,
						"path":"translation"
					}
				},
				{
					"sampler":43,
					"target":{
						"node":15,
						"path":"rotation"
					}
				},
				{
					"sampler":44,
					"target":{
						"node":15,
						"path":"scale"
					}
				},
				{
					"sampler":45,
					"target":{
						"node":14,
						"path":"translation"
					}
				},
				{
					"sampler":46,
					"target":{
						"node":14,
						"path":"rotation"
					}
				},
				{
					"sampler":47,
					"target":{
						"node":14,
						"path":"scale"
					}
				},
				{
					"sampler":48,
					"target":{
						"node":13,
						"path":"translation"
					}
				},
				{
					"sampler":49,
					"target":{
						"node":13,
						"path":"rotation"
					}
				},
				{
					"sampler":50,
					"target":{
						"node":13,
						"path":"scale"
					}
				}
			],
			"name":"walk",
			"samplers":[
				{
					"input":179,
					"interpolation":"LINEAR",
					"output":180
				},
				{
					"input":179,
					"interpolation":"LINEAR",
					"output":181
				},
				{
					"input":182,
					"interpolation":"STEP",
					"output":183
				},
				{
					"input":182,
					"interpolation":"STEP",
					"output":184
				},
				{
					"input":182,
					"interpolation":"STEP",
					"output":185
				},
				{
					"input":182,
					"interpolation":"STEP",
					"output":186
				},
				{
					"input":182,
					"interpolation":"STEP",
					"output":187
				},
				{
					"input":179,
					"interpolation":"LINEAR",
					"output":188
				},
				{
					"input":182,
					"interpolation":"STEP",
					"output":189
				},
				{
					"input":182,
					"interpolation":"STEP",
					"output":190
				},
				{
					"input":182,
					"interpolation":"STEP",
					"output":191
				},
				{
					"input":182,
					"interpolation":"STEP",
					"output":192
				},
				{
					"input":182,
					"interpolation":"STEP",
					"output":193
				},
				{
					"input":182,
					"interpolation":"STEP",
					"output":194
				},
				{
					"input":182,
					"interpolation":"STEP",
					"output":195
				},
				{
					"input":182,
					"interpolation":"STEP",
					"output":196
				},
				{
					"input":179,
					"interpolation":"LINEAR",
					"output":197
				},
				{
					"input":182,
					"interpolation":"STEP",
					"output":198
				},
				{
					"input":182,
					"interpolation":"STEP",
					"output":199
				},
				{
					"input":182,
					"interpolation":"STEP",
					"output":200
				},
				{
					"input":182,
					"interpolation":"STEP",
					"output":201
				},
				{
					"input":182,
					"interpolation":"STEP",
					"output":202
				},
				{
					"input":182,
					"interpolation":"STEP",
					"output":203
				},
				{
					"input":182,
					"interpolation":"STEP",
					"output":204
				},
				{
					"input":182,
					"interpolation":"STEP",
					"output":205
				},
				{
					"input":179,
					"interpolation":"LINEAR",
					"output":206
				},
				{
					"input":182,
					"interpolation":"STEP",
					"output":207
				},
				{
					"input":182,
					"interpolation":"STEP",
					"output":208
				},
				{
					"input":182,
					"interpolation":"STEP",
					"output":209
				},
				{
					"input":182,
					"interpolation":"STEP",
					"output":210
				},
				{
					"input":182,
					"interpolation":"STEP",
					"output":211
				},
				{
					"input":182,
					"interpolation":"STEP",
					"output":212
				},
				{
					"input":182,
					"interpolation":"STEP",
					"output":213
				},
				{
					"input":182,
					"interpolation":"STEP",
					"output":214
				},
				{
					"input":179,
					"interpolation":"LINEAR",
					"output":215
				},
				{
					"input":182,
					"interpolation":"STEP",
					"output":216
				},
				{
					"input":182,
					"interpolation":"STEP",
					"output":217
				},
				{
					"input":179,
					"interpolation":"LINEAR",
					"output":218
				},
				{
					"input":182,
					"interpolation":"STEP",
					"output":219
				},
				{
					"input":182,
					"interpolation":"STEP",
					"output":220
				},
				{
					"input":179,
					"interpolation":"LINEAR",
					"output":221
				},
				{
					"input":182,
					"interpolation":"STEP",
					"output":222
				},
				{
					"input":182,
					"interpolation":"STEP",
					"output":223
				},
				{
					"input":179,
					"interpolation":"LINEAR",
					"output":224
				},
				{
					"input":182,
					"interpolation":"STEP",
					"output":225
				},
				{
					"input":182,
					"interpolation":"STEP",
					"output":226
				},
				{
					"input":179,
					"interpolation":"LINEAR",
					"output":227
				},
				{
					"input":182,
					"interpolation":"STEP",
					"output":228
				},
				{
					"input":182,
					"interpolation":"STEP",
					"output":229
				},
				{
					"input":179,
					"interpolation":"LINEAR",
					"output":230
				},
				{
					"input":182,
					"interpolation":"STEP",
					"output":231
				}
			]
		}
	],
	"materials":[
		{
			"name":"skin",
			"normalTexture":{
				"index":0,
				"scale":0.4000000059604645
			},
			"pbrMetallicRoughness":{
				"baseColorFactor":[
					0.1473190039396286,
					0.34239163994789124,
					0.10048151016235352,
					1
				],
				"metallicFactor":0,
				"roughnessFactor":0.550000011920929
			}
		},
		{
			"extensions":{
				"KHR_materials_sheen":{
					"sheenColorFactor":[
						1.0,
						1.0,
						1.0
					],
					"sheenRoughnessFactor":0.5
				}
			},
			"name":"hair",
			"normalTexture":{
				"index":1,
				"scale":0.800000011920929
			},
			"pbrMetallicRoughness":{
				"baseColorFactor":[
					0.01960664801299572,
					0.0134117491543293,
					0.010022825561463833,
					1
				],
				"metallicFactor":0,
				"roughnessFactor":0.44999998807907104
			}
		},
		{
			"extensions":{
				"KHR_materials_sheen":{
					"sheenColorFactor":[
						1.0,
						1.0,
						1.0
					],
					"sheenRoughnessFactor":0.5
				}
			},
			"name":"outfit",
			"normalTexture":{
				"index":2,
				"scale":0.6000000238418579
			},
			"pbrMetallicRoughness":{
				"baseColorFactor":[
					0.13286831974983215,
					0.07323895394802094,
					0.03310476616024971,
					1
				],
				"metallicFactor":0,
				"roughnessFactor":0.75
			}
		},
		{
			"name":"outfit2",
			"normalTexture":{
				"index":3,
				"scale":0.4000000059604645
			},
			"pbrMetallicRoughness":{
				"baseColorFactor":[
					0.21404114365577698,
					0.1473190039396286,
					0.07323895394802094,
					1
				],
				"metallicFactor":0,
				"roughnessFactor":0.6000000238418579
			}
		},
		{
			"name":"pants",
			"normalTexture":{
				"index":4,
				"scale":0.6000000238418579
			},
			"pbrMetallicRoughness":{
				"baseColorFactor":[
					0.06372379511594772,
					0.036306485533714294,
					0.017389101907610893,
					1
				],
				"metallicFactor":0,
				"roughnessFactor":0.800000011920929
			}
		},
		{
			"extensions":{
				"KHR_materials_clearcoat":{
					"clearcoatFactor":0.30000001192092896
				}
			},
			"name":"boots",
			"normalTexture":{
				"index":5,
				"scale":0.800000011920929
			},
			"pbrMetallicRoughness":{
				"baseColorFactor":[
					0.0134117491543293,
					0.010022825561463833,
					0.010022825561463833,
					1
				],
				"metallicFactor":0,
				"roughnessFactor":0.44999998807907104
			}
		},
		{
			"name":"eye_white",
			"pbrMetallicRoughness":{
				"baseColorFactor":[
					0.8900054097175598,
					0.8900054097175598,
					0.8900054097175598,
					1
				],
				"metallicFactor":0,
				"roughnessFactor":0.20000000298023224
			}
		},
		{
			"emissiveFactor":[
				0.011763989275256348,
				0.011763989275256348,
				0.019862860485428957
			],
			"name":"iris",
			"pbrMetallicRoughness":{
				"baseColorFactor":[
					0.01960664801299572,
					0.01960664801299572,
					0.03310476616024971,
					1
				],
				"metallicFactor":0,
				"roughnessFactor":0.15000000596046448
			}
		},
		{
			"name":"pupil",
			"pbrMetallicRoughness":{
				"baseColorFactor":[
					0.0015479875728487968,
					0.0015479875728487968,
					0.0023219813592731953,
					1
				],
				"metallicFactor":0,
				"roughnessFactor":0.10000000149011612
			}
		},
		{
			"name":"lips",
			"pbrMetallicRoughness":{
				"baseColorFactor":[
					0.07030320167541504,
					0.15795572102069855,
					0.04889732599258423,
					1
				],
				"metallicFactor":0,
				"roughnessFactor":0.4000000059604645
			}
		},
		{
			"name":"buckle",
			"pbrMetallicRoughness":{
				"baseColorFactor":[
					0.6920710802078247,
					0.4479884207248688,
					0.07323895394802094,
					1
				],
				"metallicFactor":0.8999999761581421,
				"roughnessFactor":0.30000001192092896
			}
		},
		{
			"name":"wood",
			"normalTexture":{
				"index":6,
				"scale":0.6000000238418579
			},
			"pbrMetallicRoughness":{
				"baseColorFactor":[
					0.13286831974983215,
					0.06372379511594772,
					0.01960664801299572,
					1
				],
				"metallicFactor":0,
				"roughnessFactor":0.800000011920929
			}
		}
	],
	"meshes":[
		{
			"name":"goblin",
			"primitives":[
				{
					"attributes":{
						"POSITION":0,
						"NORMAL":1,
						"TEXCOORD_0":2,
						"JOINTS_0":3,
						"WEIGHTS_0":4
					},
					"indices":5,
					"material":0
				},
				{
					"attributes":{
						"POSITION":6,
						"NORMAL":7,
						"TEXCOORD_0":8,
						"JOINTS_0":9,
						"WEIGHTS_0":10
					},
					"indices":11,
					"material":1
				},
				{
					"attributes":{
						"POSITION":12,
						"NORMAL":13,
						"TEXCOORD_0":14,
						"JOINTS_0":15,
						"WEIGHTS_0":16
					},
					"indices":17,
					"material":2
				},
				{
					"attributes":{
						"POSITION":18,
						"NORMAL":19,
						"TEXCOORD_0":20,
						"JOINTS_0":21,
						"WEIGHTS_0":22
					},
					"indices":23,
					"material":3
				},
				{
					"attributes":{
						"POSITION":24,
						"NORMAL":25,
						"TEXCOORD_0":26,
						"JOINTS_0":27,
						"WEIGHTS_0":28
					},
					"indices":29,
					"material":4
				},
				{
					"attributes":{
						"POSITION":30,
						"NORMAL":31,
						"TEXCOORD_0":32,
						"JOINTS_0":33,
						"WEIGHTS_0":34
					},
					"indices":35,
					"material":5
				},
				{
					"attributes":{
						"POSITION":36,
						"NORMAL":37,
						"TEXCOORD_0":38,
						"JOINTS_0":39,
						"WEIGHTS_0":40
					},
					"indices":41,
					"material":6
				},
				{
					"attributes":{
						"POSITION":42,
						"NORMAL":43,
						"TEXCOORD_0":44,
						"JOINTS_0":45,
						"WEIGHTS_0":46
					},
					"indices":47,
					"material":7
				},
				{
					"attributes":{
						"POSITION":48,
						"NORMAL":49,
						"TEXCOORD_0":50,
						"JOINTS_0":51,
						"WEIGHTS_0":52
					},
					"indices":53,
					"material":8
				},
				{
					"attributes":{
						"POSITION":54,
						"NORMAL":55,
						"TEXCOORD_0":56,
						"JOINTS_0":57,
						"WEIGHTS_0":58
					},
					"indices":59,
					"material":9
				},
				{
					"attributes":{
						"POSITION":60,
						"NORMAL":61,
						"TEXCOORD_0":62,
						"JOINTS_0":63,
						"WEIGHTS_0":64
					},
					"indices":65,
					"material":10
				},
				{
					"attributes":{
						"POSITION":66,
						"NORMAL":67,
						"TEXCOORD_0":68,
						"JOINTS_0":69,
						"WEIGHTS_0":70
					},
					"indices":71,
					"material":11
				}
			]
		}
	],
	"textures":[
		{
			"sampler":0,
			"source":0
		},
		{
			"sampler":0,
			"source":1
		},
		{
			"sampler":0,
			"source":2
		},
		{
			"sampler":0,
			"source":2
		},
		{
			"sampler":0,
			"source":2
		},
		{
			"sampler":0,
			"source":3
		},
		{
			"sampler":0,
			"source":3
		}
	],
	"images":[
		{
			"mimeType":"image/png",
			"name":"N_skin",
			"uri":"texturas/N_skin.png"
		},
		{
			"mimeType":"image/png",
			"name":"N_hair",
			"uri":"texturas/N_hair.png"
		},
		{
			"mimeType":"image/png",
			"name":"N_cloth",
			"uri":"texturas/N_cloth.png"
		},
		{
			"mimeType":"image/png",
			"name":"N_leather",
			"uri":"texturas/N_leather.png"
		}
	],
	"skins":[
		{
			"inverseBindMatrices":72,
			"joints":[
				16,
				9,
				8,
				1,
				0,
				4,
				3,
				2,
				7,
				6,
				5,
				12,
				11,
				10,
				15,
				14,
				13
			],
			"name":"goblin_rig"
		}
	],
	"accessors":[
		{
			"bufferView":0,
			"componentType":5126,
			"count":2456,
			"max":[
				0.20127949118614197,
				1.1060799360275269,
				0.06647178530693054
			],
			"min":[
				-0.20127949118614197,
				0.48637011647224426,
				-0.07196757197380066
			],
			"type":"VEC3"
		},
		{
			"bufferView":1,
			"componentType":5126,
			"count":2456,
			"type":"VEC3"
		},
		{
			"bufferView":2,
			"componentType":5126,
			"count":2456,
			"type":"VEC2"
		},
		{
			"bufferView":3,
			"componentType":5121,
			"count":2456,
			"type":"VEC4"
		},
		{
			"bufferView":4,
			"componentType":5126,
			"count":2456,
			"type":"VEC4"
		},
		{
			"bufferView":5,
			"componentType":5123,
			"count":10464,
			"type":"SCALAR"
		},
		{
			"bufferView":6,
			"componentType":5126,
			"count":48,
			"max":[
				0.030379999428987503,
				1.0540000200271606,
				-0.05207999795675278
			],
			"min":[
				-0.030379999428987503,
				1.050279974937439,
				-0.055800002068281174
			],
			"type":"VEC3"
		},
		{
			"bufferView":7,
			"componentType":5126,
			"count":48,
			"type":"VEC3"
		},
		{
			"bufferView":8,
			"componentType":5126,
			"count":48,
			"type":"VEC2"
		},
		{
			"bufferView":9,
			"componentType":5121,
			"count":48,
			"type":"VEC4"
		},
		{
			"bufferView":10,
			"componentType":5126,
			"count":48,
			"type":"VEC4"
		},
		{
			"bufferView":11,
			"componentType":5123,
			"count":72,
			"type":"SCALAR"
		},
		{
			"bufferView":12,
			"componentType":5126,
			"count":432,
			"max":[
				0.172170951962471,
				0.9140118360519409,
				0.0695466473698616
			],
			"min":[
				-0.172170951962471,
				0.5882883071899414,
				-0.06926422566175461
			],
			"type":"VEC3"
		},
		{
			"bufferView":13,
			"componentType":5126,
			"count":432,
			"type":"VEC3"
		},
		{
			"bufferView":14,
			"componentType":5126,
			"count":432,
			"type":"VEC2"
		},
		{
			"bufferView":15,
			"componentType":5121,
			"count":432,
			"type":"VEC4"
		},
		{
			"bufferView":16,
			"componentType":5126,
			"count":432,
			"type":"VEC4"
		},
		{
			"bufferView":17,
			"componentType":5123,
			"count":1620,
			"type":"SCALAR"
		},
		{
			"bufferView":18,
			"componentType":5126,
			"count":65,
			"max":[
				0.08844619244337082,
				0.6397862434387207,
				0.07058101892471313
			],
			"min":[
				-0.08844619244337082,
				0.5433131456375122,
				-0.0714130625128746
			],
			"type":"VEC3"
		},
		{
			"bufferView":19,
			"componentType":5126,
			"count":65,
			"type":"VEC3"
		},
		{
			"bufferView":20,
			"componentType":5126,
			"count":65,
			"type":"VEC2"
		},
		{
			"bufferView":21,
			"componentType":5121,
			"count":65,
			"type":"VEC4"
		},
		{
			"bufferView":22,
			"componentType":5126,
			"count":65,
			"type":"VEC4"
		},
		{
			"bufferView":23,
			"componentType":5123,
			"count":192,
			"type":"SCALAR"
		},
		{
			"bufferView":24,
			"componentType":5126,
			"count":977,
			"max":[
				0.19960707426071167,
				0.5811247825622559,
				0.06871920824050903
			],
			"min":[
				-0.19960705935955048,
				0.18603764474391937,
				-0.06982198357582092
			],
			"type":"VEC3"
		},
		{
			"bufferView":25,
			"componentType":5126,
			"count":977,
			"type":"VEC3"
		},
		{
			"bufferView":26,
			"componentType":5126,
			"count":977,
			"type":"VEC2"
		},
		{
			"bufferView":27,
			"componentType":5121,
			"count":977,
			"type":"VEC4"
		},
		{
			"bufferView":28,
			"componentType":5126,
			"count":977,
			"type":"VEC4"
		},
		{
			"bufferView":29,
			"componentType":5123,
			"count":4332,
			"type":"SCALAR"
		},
		{
			"bufferView":30,
			"componentType":5126,
			"count":1034,
			"max":[
				0.10319507122039795,
				0.18999718129634857,
				0.049276046454906464
			],
			"min":[
				-0.10319507867097855,
				0.0047106617130339146,
				-0.08687487989664078
			],
			"type":"VEC3"
		},
		{
			"bufferView":31,
			"componentType":5126,
			"count":1034,
			"type":"VEC3"
		},
		{
			"bufferView":32,
			"componentType":5126,
			"count":1034,
			"type":"VEC2"
		},
		{
			"bufferView":33,
			"componentType":5121,
			"count":1034,
			"type":"VEC4"
		},
		{
			"bufferView":34,
			"componentType":5126,
			"count":1034,
			"type":"VEC4"
		},
		{
			"bufferView":35,
			"componentType":5123,
			"count":4608,
			"type":"SCALAR"
		},
		{
			"bufferView":36,
			"componentType":5126,
			"count":304,
			"max":[
				0.031619999557733536,
				1.0456299781799316,
				-0.04340000078082085
			],
			"min":[
				-0.031619999557733536,
				1.031369924545288,
				-0.05456000193953514
			],
			"type":"VEC3"
		},
		{
			"bufferView":37,
			"componentType":5126,
			"count":304,
			"type":"VEC3"
		},
		{
			"bufferView":38,
			"componentType":5126,
			"count":304,
			"type":"VEC2"
		},
		{
			"bufferView":39,
			"componentType":5121,
			"count":304,
			"type":"VEC4"
		},
		{
			"bufferView":40,
			"componentType":5126,
			"count":304,
			"type":"VEC4"
		},
		{
			"bufferView":41,
			"componentType":5123,
			"count":1152,
			"type":"SCALAR"
		},
		{
			"bufferView":42,
			"componentType":5126,
			"count":220,
			"max":[
				0.026969999074935913,
				1.0445760488510132,
				-0.05035655200481415
			],
			"min":[
				-0.026969999074935913,
				1.032423973083496,
				-0.05566345155239105
			],
			"type":"VEC3"
		},
		{
			"bufferView":43,
			"componentType":5126,
			"count":220,
			"type":"VEC3"
		},
		{
			"bufferView":44,
			"componentType":5126,
			"count":220,
			"type":"VEC2"
		},
		{
			"bufferView":45,
			"componentType":5121,
			"count":220,
			"type":"VEC4"
		},
		{
			"bufferView":46,
			"componentType":5126,
			"count":220,
			"type":"VEC4"
		},
		{
			"bufferView":47,
			"componentType":5123,
			"count":720,
			"type":"SCALAR"
		},
		{
			"bufferView":48,
			"componentType":5126,
			"count":160,
			"max":[
				0.023556550964713097,
				1.041290044784546,
				-0.053876690566539764
			],
			"min":[
				-0.023556550964713097,
				1.0357099771499634,
				-0.056235313415527344
			],
			"type":"VEC3"
		},
		{
			"bufferView":49,
			"componentType":5126,
			"count":160,
			"type":"VEC3"
		},
		{
			"bufferView":50,
			"componentType":5126,
			"count":160,
			"type":"VEC2"
		},
		{
			"bufferView":51,
			"componentType":5121,
			"count":160,
			"type":"VEC4"
		},
		{
			"bufferView":52,
			"componentType":5126,
			"count":160,
			"type":"VEC4"
		},
		{
			"bufferView":53,
			"componentType":5123,
			"count":480,
			"type":"SCALAR"
		},
		{
			"bufferView":54,
			"componentType":5126,
			"count":98,
			"max":[
				0.011779999360442162,
				0.996649980545044,
				-0.04818655177950859
			],
			"min":[
				-0.011779999360442162,
				0.991070032119751,
				-0.053493451327085495
			],
			"type":"VEC3"
		},
		{
			"bufferView":55,
			"componentType":5126,
			"count":98,
			"type":"VEC3"
		},
		{
			"bufferView":56,
			"componentType":5126,
			"count":98,
			"type":"VEC2"
		},
		{
			"bufferView":57,
			"componentType":5121,
			"count":98,
			"type":"VEC4"
		},
		{
			"bufferView":58,
			"componentType":5126,
			"count":98,
			"type":"VEC4"
		},
		{
			"bufferView":59,
			"componentType":5123,
			"count":360,
			"type":"SCALAR"
		},
		{
			"bufferView":60,
			"componentType":5126,
			"count":24,
			"max":[
				0.015500000678002834,
				0.6014000177383423,
				-0.05827999860048294
			],
			"min":[
				-0.015500000678002834,
				0.5766000151634216,
				-0.06571999937295914
			],
			"type":"VEC3"
		},
		{
			"bufferView":61,
			"componentType":5126,
			"count":24,
			"type":"VEC3"
		},
		{
			"bufferView":62,
			"componentType":5126,
			"count":24,
			"type":"VEC2"
		},
		{
			"bufferView":63,
			"componentType":5121,
			"count":24,
			"type":"VEC4"
		},
		{
			"bufferView":64,
			"componentType":5126,
			"count":24,
			"type":"VEC4"
		},
		{
			"bufferView":65,
			"componentType":5123,
			"count":36,
			"type":"SCALAR"
		},
		{
			"bufferView":66,
			"componentType":5126,
			"count":64,
			"max":[
				0.22989599406719208,
				0.5297970175743103,
				0.0357806459069252
			],
			"min":[
				0.14309599995613098,
				0.2675400674343109,
				-0.4564816355705261
			],
			"type":"VEC3"
		},
		{
			"bufferView":67,
			"componentType":5126,
			"count":64,
			"type":"VEC3"
		},
		{
			"bufferView":68,
			"componentType":5126,
			"count":64,
			"type":"VEC2"
		},
		{
			"bufferView":69,
			"componentType":5121,
			"count":64,
			"type":"VEC4"
		},
		{
			"bufferView":70,
			"componentType":5126,
			"count":64,
			"type":"VEC4"
		},
		{
			"bufferView":71,
			"componentType":5123,
			"count":180,
			"type":"SCALAR"
		},
		{
			"bufferView":72,
			"componentType":5126,
			"count":17,
			"type":"MAT4"
		},
		{
			"bufferView":73,
			"componentType":5126,
			"count":2,
			"max":[
				0.6
			],
			"min":[
				0
			],
			"type":"SCALAR"
		},
		{
			"bufferView":74,
			"componentType":5126,
			"count":2,
			"type":"VEC3"
		},
		{
			"bufferView":75,
			"componentType":5126,
			"count":2,
			"type":"VEC4"
		},
		{
			"bufferView":76,
			"componentType":5126,
			"count":2,
			"type":"VEC3"
		},
		{
			"bufferView":77,
			"componentType":5126,
			"count":2,
			"type":"VEC3"
		},
		{
			"bufferView":78,
			"componentType":5126,
			"count":2,
			"type":"VEC4"
		},
		{
			"bufferView":79,
			"componentType":5126,
			"count":2,
			"type":"VEC3"
		},
		{
			"bufferView":80,
			"componentType":5126,
			"count":2,
			"type":"VEC3"
		},
		{
			"bufferView":81,
			"componentType":5126,
			"count":19,
			"max":[
				0.6
			],
			"min":[
				0
			],
			"type":"SCALAR"
		},
		{
			"bufferView":82,
			"componentType":5126,
			"count":19,
			"type":"VEC4"
		},
		{
			"bufferView":83,
			"componentType":5126,
			"count":2,
			"type":"VEC3"
		},
		{
			"bufferView":84,
			"componentType":5126,
			"count":2,
			"type":"VEC3"
		},
		{
			"bufferView":85,
			"componentType":5126,
			"count":2,
			"type":"VEC4"
		},
		{
			"bufferView":86,
			"componentType":5126,
			"count":2,
			"type":"VEC3"
		},
		{
			"bufferView":87,
			"componentType":5126,
			"count":2,
			"type":"VEC3"
		},
		{
			"bufferView":88,
			"componentType":5126,
			"count":2,
			"type":"VEC4"
		},
		{
			"bufferView":89,
			"componentType":5126,
			"count":2,
			"type":"VEC3"
		},
		{
			"bufferView":90,
			"componentType":5126,
			"count":2,
			"type":"VEC3"
		},
		{
			"bufferView":91,
			"componentType":5126,
			"count":19,
			"type":"VEC4"
		},
		{
			"bufferView":92,
			"componentType":5126,
			"count":2,
			"type":"VEC3"
		},
		{
			"bufferView":93,
			"componentType":5126,
			"count":2,
			"type":"VEC3"
		},
		{
			"bufferView":94,
			"componentType":5126,
			"count":19,
			"type":"VEC4"
		},
		{
			"bufferView":95,
			"componentType":5126,
			"count":2,
			"type":"VEC3"
		},
		{
			"bufferView":96,
			"componentType":5126,
			"count":2,
			"type":"VEC3"
		},
		{
			"bufferView":97,
			"componentType":5126,
			"count":2,
			"type":"VEC4"
		},
		{
			"bufferView":98,
			"componentType":5126,
			"count":2,
			"type":"VEC3"
		},
		{
			"bufferView":99,
			"componentType":5126,
			"count":2,
			"type":"VEC3"
		},
		{
			"bufferView":100,
			"componentType":5126,
			"count":19,
			"type":"VEC4"
		},
		{
			"bufferView":101,
			"componentType":5126,
			"count":2,
			"type":"VEC3"
		},
		{
			"bufferView":102,
			"componentType":5126,
			"count":2,
			"type":"VEC3"
		},
		{
			"bufferView":103,
			"componentType":5126,
			"count":2,
			"type":"VEC4"
		},
		{
			"bufferView":104,
			"componentType":5126,
			"count":2,
			"type":"VEC3"
		},
		{
			"bufferView":105,
			"componentType":5126,
			"count":2,
			"type":"VEC3"
		},
		{
			"bufferView":106,
			"componentType":5126,
			"count":2,
			"type":"VEC4"
		},
		{
			"bufferView":107,
			"componentType":5126,
			"count":2,
			"type":"VEC3"
		},
		{
			"bufferView":108,
			"componentType":5126,
			"count":2,
			"type":"VEC3"
		},
		{
			"bufferView":109,
			"componentType":5126,
			"count":19,
			"type":"VEC4"
		},
		{
			"bufferView":110,
			"componentType":5126,
			"count":2,
			"type":"VEC3"
		},
		{
			"bufferView":111,
			"componentType":5126,
			"count":2,
			"type":"VEC3"
		},
		{
			"bufferView":112,
			"componentType":5126,
			"count":2,
			"type":"VEC4"
		},
		{
			"bufferView":113,
			"componentType":5126,
			"count":2,
			"type":"VEC3"
		},
		{
			"bufferView":114,
			"componentType":5126,
			"count":2,
			"type":"VEC3"
		},
		{
			"bufferView":115,
			"componentType":5126,
			"count":2,
			"type":"VEC4"
		},
		{
			"bufferView":116,
			"componentType":5126,
			"count":2,
			"type":"VEC3"
		},
		{
			"bufferView":117,
			"componentType":5126,
			"count":2,
			"type":"VEC3"
		},
		{
			"bufferView":118,
			"componentType":5126,
			"count":19,
			"type":"VEC4"
		},
		{
			"bufferView":119,
			"componentType":5126,
			"count":2,
			"type":"VEC3"
		},
		{
			"bufferView":120,
			"componentType":5126,
			"count":2,
			"type":"VEC3"
		},
		{
			"bufferView":121,
			"componentType":5126,
			"count":2,
			"type":"VEC4"
		},
		{
			"bufferView":122,
			"componentType":5126,
			"count":2,
			"type":"VEC3"
		},
		{
			"bufferView":123,
			"componentType":5126,
			"count":2,
			"type":"VEC3"
		},
		{
			"bufferView":124,
			"componentType":5126,
			"count":2,
			"type":"VEC4"
		},
		{
			"bufferView":125,
			"componentType":5126,
			"count":2,
			"type":"VEC3"
		},
		{
			"bufferView":126,
			"componentType":5126,
			"count":61,
			"max":[
				2
			],
			"min":[
				0
			],
			"type":"SCALAR"
		},
		{
			"bufferView":127,
			"componentType":5126,
			"count":61,
			"type":"VEC3"
		},
		{
			"bufferView":128,
			"componentType":5126,
			"count":2,
			"max":[
				2
			],
			"min":[
				0
			],
			"type":"SCALAR"
		},
		{
			"bufferView":129,
			"componentType":5126,
			"count":2,
			"type":"VEC4"
		},
		{
			"bufferView":130,
			"componentType":5126,
			"count":2,
			"type":"VEC3"
		},
		{
			"bufferView":131,
			"componentType":5126,
			"count":2,
			"type":"VEC3"
		},
		{
			"bufferView":132,
			"componentType":5126,
			"count":2,
			"type":"VEC4"
		},
		{
			"bufferView":133,
			"componentType":5126,
			"count":2,
			"type":"VEC3"
		},
		{
			"bufferView":134,
			"componentType":5126,
			"count":2,
			"type":"VEC3"
		},
		{
			"bufferView":135,
			"componentType":5126,
			"count":61,
			"type":"VEC4"
		},
		{
			"bufferView":136,
			"componentType":5126,
			"count":2,
			"type":"VEC3"
		},
		{
			"bufferView":137,
			"componentType":5126,
			"count":2,
			"type":"VEC3"
		},
		{
			"bufferView":138,
			"componentType":5126,
			"count":2,
			"type":"VEC4"
		},
		{
			"bufferView":139,
			"componentType":5126,
			"count":2,
			"type":"VEC3"
		},
		{
			"bufferView":140,
			"componentType":5126,
			"count":2,
			"type":"VEC3"
		},
		{
			"bufferView":141,
			"componentType":5126,
			"count":61,
			"type":"VEC4"
		},
		{
			"bufferView":142,
			"componentType":5126,
			"count":2,
			"type":"VEC3"
		},
		{
			"bufferView":143,
			"componentType":5126,
			"count":2,
			"type":"VEC3"
		},
		{
			"bufferView":144,
			"componentType":5126,
			"count":61,
			"type":"VEC4"
		},
		{
			"bufferView":145,
			"componentType":5126,
			"count":2,
			"type":"VEC3"
		},
		{
			"bufferView":146,
			"componentType":5126,
			"count":2,
			"type":"VEC3"
		},
		{
			"bufferView":147,
			"componentType":5126,
			"count":2,
			"type":"VEC4"
		},
		{
			"bufferView":148,
			"componentType":5126,
			"count":2,
			"type":"VEC3"
		},
		{
			"bufferView":149,
			"componentType":5126,
			"count":2,
			"type":"VEC3"
		},
		{
			"bufferView":150,
			"componentType":5126,
			"count":2,
			"type":"VEC4"
		},
		{
			"bufferView":151,
			"componentType":5126,
			"count":2,
			"type":"VEC3"
		},
		{
			"bufferView":152,
			"componentType":5126,
			"count":2,
			"type":"VEC3"
		},
		{
			"bufferView":153,
			"componentType":5126,
			"count":61,
			"type":"VEC4"
		},
		{
			"bufferView":154,
			"componentType":5126,
			"count":2,
			"type":"VEC3"
		},
		{
			"bufferView":155,
			"componentType":5126,
			"count":2,
			"type":"VEC3"
		},
		{
			"bufferView":156,
			"componentType":5126,
			"count":2,
			"type":"VEC4"
		},
		{
			"bufferView":157,
			"componentType":5126,
			"count":2,
			"type":"VEC3"
		},
		{
			"bufferView":158,
			"componentType":5126,
			"count":2,
			"type":"VEC3"
		},
		{
			"bufferView":159,
			"componentType":5126,
			"count":2,
			"type":"VEC4"
		},
		{
			"bufferView":160,
			"componentType":5126,
			"count":2,
			"type":"VEC3"
		},
		{
			"bufferView":161,
			"componentType":5126,
			"count":2,
			"type":"VEC3"
		},
		{
			"bufferView":162,
			"componentType":5126,
			"count":2,
			"type":"VEC4"
		},
		{
			"bufferView":163,
			"componentType":5126,
			"count":2,
			"type":"VEC3"
		},
		{
			"bufferView":164,
			"componentType":5126,
			"count":2,
			"type":"VEC3"
		},
		{
			"bufferView":165,
			"componentType":5126,
			"count":2,
			"type":"VEC4"
		},
		{
			"bufferView":166,
			"componentType":5126,
			"count":2,
			"type":"VEC3"
		},
		{
			"bufferView":167,
			"componentType":5126,
			"count":2,
			"type":"VEC3"
		},
		{
			"bufferView":168,
			"componentType":5126,
			"count":2,
			"type":"VEC4"
		},
		{
			"bufferView":169,
			"componentType":5126,
			"count":2,
			"type":"VEC3"
		},
		{
			"bufferView":170,
			"componentType":5126,
			"count":2,
			"type":"VEC3"
		},
		{
			"bufferView":171,
			"componentType":5126,
			"count":2,
			"type":"VEC4"
		},
		{
			"bufferView":172,
			"componentType":5126,
			"count":2,
			"type":"VEC3"
		},
		{
			"bufferView":173,
			"componentType":5126,
			"count":2,
			"type":"VEC3"
		},
		{
			"bufferView":174,
			"componentType":5126,
			"count":2,
			"type":"VEC4"
		},
		{
			"bufferView":175,
			"componentType":5126,
			"count":2,
			"type":"VEC3"
		},
		{
			"bufferView":176,
			"componentType":5126,
			"count":2,
			"type":"VEC3"
		},
		{
			"bufferView":177,
			"componentType":5126,
			"count":2,
			"type":"VEC4"
		},
		{
			"bufferView":178,
			"componentType":5126,
			"count":2,
			"type":"VEC3"
		},
		{
			"bufferView":179,
			"componentType":5126,
			"count":31,
			"max":[
				1
			],
			"min":[
				0
			],
			"type":"SCALAR"
		},
		{
			"bufferView":180,
			"componentType":5126,
			"count":31,
			"type":"VEC3"
		},
		{
			"bufferView":181,
			"componentType":5126,
			"count":31,
			"type":"VEC4"
		},
		{
			"bufferView":182,
			"componentType":5126,
			"count":2,
			"max":[
				1
			],
			"min":[
				0
			],
			"type":"SCALAR"
		},
		{
			"bufferView":183,
			"componentType":5126,
			"count":2,
			"type":"VEC3"
		},
		{
			"bufferView":184,
			"componentType":5126,
			"count":2,
			"type":"VEC3"
		},
		{
			"bufferView":185,
			"componentType":5126,
			"count":2,
			"type":"VEC4"
		},
		{
			"bufferView":186,
			"componentType":5126,
			"count":2,
			"type":"VEC3"
		},
		{
			"bufferView":187,
			"componentType":5126,
			"count":2,
			"type":"VEC3"
		},
		{
			"bufferView":188,
			"componentType":5126,
			"count":31,
			"type":"VEC4"
		},
		{
			"bufferView":189,
			"componentType":5126,
			"count":2,
			"type":"VEC3"
		},
		{
			"bufferView":190,
			"componentType":5126,
			"count":2,
			"type":"VEC3"
		},
		{
			"bufferView":191,
			"componentType":5126,
			"count":2,
			"type":"VEC4"
		},
		{
			"bufferView":192,
			"componentType":5126,
			"count":2,
			"type":"VEC3"
		},
		{
			"bufferView":193,
			"componentType":5126,
			"count":2,
			"type":"VEC3"
		},
		{
			"bufferView":194,
			"componentType":5126,
			"count":2,
			"type":"VEC4"
		},
		{
			"bufferView":195,
			"componentType":5126,
			"count":2,
			"type":"VEC3"
		},
		{
			"bufferView":196,
			"componentType":5126,
			"count":2,
			"type":"VEC3"
		},
		{
			"bufferView":197,
			"componentType":5126,
			"count":31,
			"type":"VEC4"
		},
		{
			"bufferView":198,
			"componentType":5126,
			"count":2,
			"type":"VEC3"
		},
		{
			"bufferView":199,
			"componentType":5126,
			"count":2,
			"type":"VEC3"
		},
		{
			"bufferView":200,
			"componentType":5126,
			"count":2,
			"type":"VEC4"
		},
		{
			"bufferView":201,
			"componentType":5126,
			"count":2,
			"type":"VEC3"
		},
		{
			"bufferView":202,
			"componentType":5126,
			"count":2,
			"type":"VEC3"
		},
		{
			"bufferView":203,
			"componentType":5126,
			"count":2,
			"type":"VEC4"
		},
		{
			"bufferView":204,
			"componentType":5126,
			"count":2,
			"type":"VEC3"
		},
		{
			"bufferView":205,
			"componentType":5126,
			"count":2,
			"type":"VEC3"
		},
		{
			"bufferView":206,
			"componentType":5126,
			"count":31,
			"type":"VEC4"
		},
		{
			"bufferView":207,
			"componentType":5126,
			"count":2,
			"type":"VEC3"
		},
		{
			"bufferView":208,
			"componentType":5126,
			"count":2,
			"type":"VEC3"
		},
		{
			"bufferView":209,
			"componentType":5126,
			"count":2,
			"type":"VEC4"
		},
		{
			"bufferView":210,
			"componentType":5126,
			"count":2,
			"type":"VEC3"
		},
		{
			"bufferView":211,
			"componentType":5126,
			"count":2,
			"type":"VEC3"
		},
		{
			"bufferView":212,
			"componentType":5126,
			"count":2,
			"type":"VEC4"
		},
		{
			"bufferView":213,
			"componentType":5126,
			"count":2,
			"type":"VEC3"
		},
		{
			"bufferView":214,
			"componentType":5126,
			"count":2,
			"type":"VEC3"
		},
		{
			"bufferView":215,
			"componentType":5126,
			"count":31,
			"type":"VEC4"
		},
		{
			"bufferView":216,
			"componentType":5126,
			"count":2,
			"type":"VEC3"
		},
		{
			"bufferView":217,
			"componentType":5126,
			"count":2,
			"type":"VEC3"
		},
		{
			"bufferView":218,
			"componentType":5126,
			"count":31,
			"type":"VEC4"
		},
		{
			"bufferView":219,
			"componentType":5126,
			"count":2,
			"type":"VEC3"
		},
		{
			"bufferView":220,
			"componentType":5126,
			"count":2,
			"type":"VEC3"
		},
		{
			"bufferView":221,
			"componentType":5126,
			"count":31,
			"type":"VEC4"
		},
		{
			"bufferView":222,
			"componentType":5126,
			"count":2,
			"type":"VEC3"
		},
		{
			"bufferView":223,
			"componentType":5126,
			"count":2,
			"type":"VEC3"
		},
		{
			"bufferView":224,
			"componentType":5126,
			"count":31,
			"type":"VEC4"
		},
		{
			"bufferView":225,
			"componentType":5126,
			"count":2,
			"type":"VEC3"
		},
		{
			"bufferView":226,
			"componentType":5126,
			"count":2,
			"type":"VEC3"
		},
		{
			"bufferView":227,
			"componentType":5126,
			"count":31,
			"type":"VEC4"
		},
		{
			"bufferView":228,
			"componentType":5126,
			"count":2,
			"type":"VEC3"
		},
		{
			"bufferView":229,
			"componentType":5126,
			"count":2,
			"type":"VEC3"
		},
		{
			"bufferView":230,
			"componentType":5126,
			"count":31,
			"type":"VEC4"
		},
		{
			"bufferView":231,
			"componentType":5126,
			"count":2,
			"type":"VEC3"
		}
	],
	"bufferViews":[
		{
			"buffer":0,
			"byteLength":29472,
			"byteOffset":0,
			"target":34962
		},
		{
			"buffer":0,
			"byteLength":29472,
			"byteOffset":29472,
			"target":34962
		},
		{
			"buffer":0,
			"byteLength":19648,
			"byteOffset":58944,
			"target":34962
		},
		{
			"buffer":0,
			"byteLength":9824,
			"byteOffset":78592,
			"target":34962
		},
		{
			"buffer":0,
			"byteLength":39296,
			"byteOffset":88416,
			"target":34962
		},
		{
			"buffer":0,
			"byteLength":20928,
			"byteOffset":127712,
			"target":34963
		},
		{
			"buffer":0,
			"byteLength":576,
			"byteOffset":148640,
			"target":34962
		},
		{
			"buffer":0,
			"byteLength":576,
			"byteOffset":149216,
			"target":34962
		},
		{
			"buffer":0,
			"byteLength":384,
			"byteOffset":149792,
			"target":34962
		},
		{
			"buffer":0,
			"byteLength":192,
			"byteOffset":150176,
			"target":34962
		},
		{
			"buffer":0,
			"byteLength":768,
			"byteOffset":150368,
			"target":34962
		},
		{
			"buffer":0,
			"byteLength":144,
			"byteOffset":151136,
			"target":34963
		},
		{
			"buffer":0,
			"byteLength":5184,
			"byteOffset":151280,
			"target":34962
		},
		{
			"buffer":0,
			"byteLength":5184,
			"byteOffset":156464,
			"target":34962
		},
		{
			"buffer":0,
			"byteLength":3456,
			"byteOffset":161648,
			"target":34962
		},
		{
			"buffer":0,
			"byteLength":1728,
			"byteOffset":165104,
			"target":34962
		},
		{
			"buffer":0,
			"byteLength":6912,
			"byteOffset":166832,
			"target":34962
		},
		{
			"buffer":0,
			"byteLength":3240,
			"byteOffset":173744,
			"target":34963
		},
		{
			"buffer":0,
			"byteLength":780,
			"byteOffset":176984,
			"target":34962
		},
		{
			"buffer":0,
			"byteLength":780,
			"byteOffset":177764,
			"target":34962
		},
		{
			"buffer":0,
			"byteLength":520,
			"byteOffset":178544,
			"target":34962
		},
		{
			"buffer":0,
			"byteLength":260,
			"byteOffset":179064,
			"target":34962
		},
		{
			"buffer":0,
			"byteLength":1040,
			"byteOffset":179324,
			"target":34962
		},
		{
			"buffer":0,
			"byteLength":384,
			"byteOffset":180364,
			"target":34963
		},
		{
			"buffer":0,
			"byteLength":11724,
			"byteOffset":180748,
			"target":34962
		},
		{
			"buffer":0,
			"byteLength":11724,
			"byteOffset":192472,
			"target":34962
		},
		{
			"buffer":0,
			"byteLength":7816,
			"byteOffset":204196,
			"target":34962
		},
		{
			"buffer":0,
			"byteLength":3908,
			"byteOffset":212012,
			"target":34962
		},
		{
			"buffer":0,
			"byteLength":15632,
			"byteOffset":215920,
			"target":34962
		},
		{
			"buffer":0,
			"byteLength":8664,
			"byteOffset":231552,
			"target":34963
		},
		{
			"buffer":0,
			"byteLength":12408,
			"byteOffset":240216,
			"target":34962
		},
		{
			"buffer":0,
			"byteLength":12408,
			"byteOffset":252624,
			"target":34962
		},
		{
			"buffer":0,
			"byteLength":8272,
			"byteOffset":265032,
			"target":34962
		},
		{
			"buffer":0,
			"byteLength":4136,
			"byteOffset":273304,
			"target":34962
		},
		{
			"buffer":0,
			"byteLength":16544,
			"byteOffset":277440,
			"target":34962
		},
		{
			"buffer":0,
			"byteLength":9216,
			"byteOffset":293984,
			"target":34963
		},
		{
			"buffer":0,
			"byteLength":3648,
			"byteOffset":303200,
			"target":34962
		},
		{
			"buffer":0,
			"byteLength":3648,
			"byteOffset":306848,
			"target":34962
		},
		{
			"buffer":0,
			"byteLength":2432,
			"byteOffset":310496,
			"target":34962
		},
		{
			"buffer":0,
			"byteLength":1216,
			"byteOffset":312928,
			"target":34962
		},
		{
			"buffer":0,
			"byteLength":4864,
			"byteOffset":314144,
			"target":34962
		},
		{
			"buffer":0,
			"byteLength":2304,
			"byteOffset":319008,
			"target":34963
		},
		{
			"buffer":0,
			"byteLength":2640,
			"byteOffset":321312,
			"target":34962
		},
		{
			"buffer":0,
			"byteLength":2640,
			"byteOffset":323952,
			"target":34962
		},
		{
			"buffer":0,
			"byteLength":1760,
			"byteOffset":326592,
			"target":34962
		},
		{
			"buffer":0,
			"byteLength":880,
			"byteOffset":328352,
			"target":34962
		},
		{
			"buffer":0,
			"byteLength":3520,
			"byteOffset":329232,
			"target":34962
		},
		{
			"buffer":0,
			"byteLength":1440,
			"byteOffset":332752,
			"target":34963
		},
		{
			"buffer":0,
			"byteLength":1920,
			"byteOffset":334192,
			"target":34962
		},
		{
			"buffer":0,
			"byteLength":1920,
			"byteOffset":336112,
			"target":34962
		},
		{
			"buffer":0,
			"byteLength":1280,
			"byteOffset":338032,
			"target":34962
		},
		{
			"buffer":0,
			"byteLength":640,
			"byteOffset":339312,
			"target":34962
		},
		{
			"buffer":0,
			"byteLength":2560,
			"byteOffset":339952,
			"target":34962
		},
		{
			"buffer":0,
			"byteLength":960,
			"byteOffset":342512,
			"target":34963
		},
		{
			"buffer":0,
			"byteLength":1176,
			"byteOffset":343472,
			"target":34962
		},
		{
			"buffer":0,
			"byteLength":1176,
			"byteOffset":344648,
			"target":34962
		},
		{
			"buffer":0,
			"byteLength":784,
			"byteOffset":345824,
			"target":34962
		},
		{
			"buffer":0,
			"byteLength":392,
			"byteOffset":346608,
			"target":34962
		},
		{
			"buffer":0,
			"byteLength":1568,
			"byteOffset":347000,
			"target":34962
		},
		{
			"buffer":0,
			"byteLength":720,
			"byteOffset":348568,
			"target":34963
		},
		{
			"buffer":0,
			"byteLength":288,
			"byteOffset":349288,
			"target":34962
		},
		{
			"buffer":0,
			"byteLength":288,
			"byteOffset":349576,
			"target":34962
		},
		{
			"buffer":0,
			"byteLength":192,
			"byteOffset":349864,
			"target":34962
		},
		{
			"buffer":0,
			"byteLength":96,
			"byteOffset":350056,
			"target":34962
		},
		{
			"buffer":0,
			"byteLength":384,
			"byteOffset":350152,
			"target":34962
		},
		{
			"buffer":0,
			"byteLength":72,
			"byteOffset":350536,
			"target":34963
		},
		{
			"buffer":0,
			"byteLength":768,
			"byteOffset":350608,
			"target":34962
		},
		{
			"buffer":0,
			"byteLength":768,
			"byteOffset":351376,
			"target":34962
		},
		{
			"buffer":0,
			"byteLength":512,
			"byteOffset":352144,
			"target":34962
		},
		{
			"buffer":0,
			"byteLength":256,
			"byteOffset":352656,
			"target":34962
		},
		{
			"buffer":0,
			"byteLength":1024,
			"byteOffset":352912,
			"target":34962
		},
		{
			"buffer":0,
			"byteLength":360,
			"byteOffset":353936,
			"target":34963
		},
		{
			"buffer":0,
			"byteLength":1088,
			"byteOffset":354296
		},
		{
			"buffer":0,
			"byteLength":8,
			"byteOffset":355384
		},
		{
			"buffer":0,
			"byteLength":24,
			"byteOffset":355392
		},
		{
			"buffer":0,
			"byteLength":32,
			"byteOffset":355416
		},
		{
			"buffer":0,
			"byteLength":24,
			"byteOffset":355448
		},
		{
			"buffer":0,
			"byteLength":24,
			"byteOffset":355472
		},
		{
			"buffer":0,
			"byteLength":32,
			"byteOffset":355496
		},
		{
			"buffer":0,
			"byteLength":24,
			"byteOffset":355528
		},
		{
			"buffer":0,
			"byteLength":24,
			"byteOffset":355552
		},
		{
			"buffer":0,
			"byteLength":76,
			"byteOffset":355576
		},
		{
			"buffer":0,
			"byteLength":304,
			"byteOffset":355652
		},
		{
			"buffer":0,
			"byteLength":24,
			"byteOffset":355956
		},
		{
			"buffer":0,
			"byteLength":24,
			"byteOffset":355980
		},
		{
			"buffer":0,
			"byteLength":32,
			"byteOffset":356004
		},
		{
			"buffer":0,
			"byteLength":24,
			"byteOffset":356036
		},
		{
			"buffer":0,
			"byteLength":24,
			"byteOffset":356060
		},
		{
			"buffer":0,
			"byteLength":32,
			"byteOffset":356084
		},
		{
			"buffer":0,
			"byteLength":24,
			"byteOffset":356116
		},
		{
			"buffer":0,
			"byteLength":24,
			"byteOffset":356140
		},
		{
			"buffer":0,
			"byteLength":304,
			"byteOffset":356164
		},
		{
			"buffer":0,
			"byteLength":24,
			"byteOffset":356468
		},
		{
			"buffer":0,
			"byteLength":24,
			"byteOffset":356492
		},
		{
			"buffer":0,
			"byteLength":304,
			"byteOffset":356516
		},
		{
			"buffer":0,
			"byteLength":24,
			"byteOffset":356820
		},
		{
			"buffer":0,
			"byteLength":24,
			"byteOffset":356844
		},
		{
			"buffer":0,
			"byteLength":32,
			"byteOffset":356868
		},
		{
			"buffer":0,
			"byteLength":24,
			"byteOffset":356900
		},
		{
			"buffer":0,
			"byteLength":24,
			"byteOffset":356924
		},
		{
			"buffer":0,
			"byteLength":304,
			"byteOffset":356948
		},
		{
			"buffer":0,
			"byteLength":24,
			"byteOffset":357252
		},
		{
			"buffer":0,
			"byteLength":24,
			"byteOffset":357276
		},
		{
			"buffer":0,
			"byteLength":32,
			"byteOffset":357300
		},
		{
			"buffer":0,
			"byteLength":24,
			"byteOffset":357332
		},
		{
			"buffer":0,
			"byteLength":24,
			"byteOffset":357356
		},
		{
			"buffer":0,
			"byteLength":32,
			"byteOffset":357380
		},
		{
			"buffer":0,
			"byteLength":24,
			"byteOffset":357412
		},
		{
			"buffer":0,
			"byteLength":24,
			"byteOffset":357436
		},
		{
			"buffer":0,
			"byteLength":304,
			"byteOffset":357460
		},
		{
			"buffer":0,
			"byteLength":24,
			"byteOffset":357764
		},
		{
			"buffer":0,
			"byteLength":24,
			"byteOffset":357788
		},
		{
			"buffer":0,
			"byteLength":32,
			"byteOffset":357812
		},
		{
			"buffer":0,
			"byteLength":24,
			"byteOffset":357844
		},
		{
			"buffer":0,
			"byteLength":24,
			"byteOffset":357868
		},
		{
			"buffer":0,
			"byteLength":32,
			"byteOffset":357892
		},
		{
			"buffer":0,
			"byteLength":24,
			"byteOffset":357924
		},
		{
			"buffer":0,
			"byteLength":24,
			"byteOffset":357948
		},
		{
			"buffer":0,
			"byteLength":304,
			"byteOffset":357972
		},
		{
			"buffer":0,
			"byteLength":24,
			"byteOffset":358276
		},
		{
			"buffer":0,
			"byteLength":24,
			"byteOffset":358300
		},
		{
			"buffer":0,
			"byteLength":32,
			"byteOffset":358324
		},
		{
			"buffer":0,
			"byteLength":24,
			"byteOffset":358356
		},
		{
			"buffer":0,
			"byteLength":24,
			"byteOffset":358380
		},
		{
			"buffer":0,
			"byteLength":32,
			"byteOffset":358404
		},
		{
			"buffer":0,
			"byteLength":24,
			"byteOffset":358436
		},
		{
			"buffer":0,
			"byteLength":244,
			"byteOffset":358460
		},
		{
			"buffer":0,
			"byteLength":732,
			"byteOffset":358704
		},
		{
			"buffer":0,
			"byteLength":8,
			"byteOffset":359436
		},
		{
			"buffer":0,
			"byteLength":32,
			"byteOffset":359444
		},
		{
			"buffer":0,
			"byteLength":24,
			"byteOffset":359476
		},
		{
			"buffer":0,
			"byteLength":24,
			"byteOffset":359500
		},
		{
			"buffer":0,
			"byteLength":32,
			"byteOffset":359524
		},
		{
			"buffer":0,
			"byteLength":24,
			"byteOffset":359556
		},
		{
			"buffer":0,
			"byteLength":24,
			"byteOffset":359580
		},
		{
			"buffer":0,
			"byteLength":976,
			"byteOffset":359604
		},
		{
			"buffer":0,
			"byteLength":24,
			"byteOffset":360580
		},
		{
			"buffer":0,
			"byteLength":24,
			"byteOffset":360604
		},
		{
			"buffer":0,
			"byteLength":32,
			"byteOffset":360628
		},
		{
			"buffer":0,
			"byteLength":24,
			"byteOffset":360660
		},
		{
			"buffer":0,
			"byteLength":24,
			"byteOffset":360684
		},
		{
			"buffer":0,
			"byteLength":976,
			"byteOffset":360708
		},
		{
			"buffer":0,
			"byteLength":24,
			"byteOffset":361684
		},
		{
			"buffer":0,
			"byteLength":24,
			"byteOffset":361708
		},
		{
			"buffer":0,
			"byteLength":976,
			"byteOffset":361732
		},
		{
			"buffer":0,
			"byteLength":24,
			"byteOffset":362708
		},
		{
			"buffer":0,
			"byteLength":24,
			"byteOffset":362732
		},
		{
			"buffer":0,
			"byteLength":32,
			"byteOffset":362756
		},
		{
			"buffer":0,
			"byteLength":24,
			"byteOffset":362788
		},
		{
			"buffer":0,
			"byteLength":24,
			"byteOffset":362812
		},
		{
			"buffer":0,
			"byteLength":32,
			"byteOffset":362836
		},
		{
			"buffer":0,
			"byteLength":24,
			"byteOffset":362868
		},
		{
			"buffer":0,
			"byteLength":24,
			"byteOffset":362892
		},
		{
			"buffer":0,
			"byteLength":976,
			"byteOffset":362916
		},
		{
			"buffer":0,
			"byteLength":24,
			"byteOffset":363892
		},
		{
			"buffer":0,
			"byteLength":24,
			"byteOffset":363916
		},
		{
			"buffer":0,
			"byteLength":32,
			"byteOffset":363940
		},
		{
			"buffer":0,
			"byteLength":24,
			"byteOffset":363972
		},
		{
			"buffer":0,
			"byteLength":24,
			"byteOffset":363996
		},
		{
			"buffer":0,
			"byteLength":32,
			"byteOffset":364020
		},
		{
			"buffer":0,
			"byteLength":24,
			"byteOffset":364052
		},
		{
			"buffer":0,
			"byteLength":24,
			"byteOffset":364076
		},
		{
			"buffer":0,
			"byteLength":32,
			"byteOffset":364100
		},
		{
			"buffer":0,
			"byteLength":24,
			"byteOffset":364132
		},
		{
			"buffer":0,
			"byteLength":24,
			"byteOffset":364156
		},
		{
			"buffer":0,
			"byteLength":32,
			"byteOffset":364180
		},
		{
			"buffer":0,
			"byteLength":24,
			"byteOffset":364212
		},
		{
			"buffer":0,
			"byteLength":24,
			"byteOffset":364236
		},
		{
			"buffer":0,
			"byteLength":32,
			"byteOffset":364260
		},
		{
			"buffer":0,
			"byteLength":24,
			"byteOffset":364292
		},
		{
			"buffer":0,
			"byteLength":24,
			"byteOffset":364316
		},
		{
			"buffer":0,
			"byteLength":32,
			"byteOffset":364340
		},
		{
			"buffer":0,
			"byteLength":24,
			"byteOffset":364372
		},
		{
			"buffer":0,
			"byteLength":24,
			"byteOffset":364396
		},
		{
			"buffer":0,
			"byteLength":32,
			"byteOffset":364420
		},
		{
			"buffer":0,
			"byteLength":24,
			"byteOffset":364452
		},
		{
			"buffer":0,
			"byteLength":24,
			"byteOffset":364476
		},
		{
			"buffer":0,
			"byteLength":32,
			"byteOffset":364500
		},
		{
			"buffer":0,
			"byteLength":24,
			"byteOffset":364532
		},
		{
			"buffer":0,
			"byteLength":124,
			"byteOffset":364556
		},
		{
			"buffer":0,
			"byteLength":372,
			"byteOffset":364680
		},
		{
			"buffer":0,
			"byteLength":496,
			"byteOffset":365052
		},
		{
			"buffer":0,
			"byteLength":8,
			"byteOffset":365548
		},
		{
			"buffer":0,
			"byteLength":24,
			"byteOffset":365556
		},
		{
			"buffer":0,
			"byteLength":24,
			"byteOffset":365580
		},
		{
			"buffer":0,
			"byteLength":32,
			"byteOffset":365604
		},
		{
			"buffer":0,
			"byteLength":24,
			"byteOffset":365636
		},
		{
			"buffer":0,
			"byteLength":24,
			"byteOffset":365660
		},
		{
			"buffer":0,
			"byteLength":496,
			"byteOffset":365684
		},
		{
			"buffer":0,
			"byteLength":24,
			"byteOffset":366180
		},
		{
			"buffer":0,
			"byteLength":24,
			"byteOffset":366204
		},
		{
			"buffer":0,
			"byteLength":32,
			"byteOffset":366228
		},
		{
			"buffer":0,
			"byteLength":24,
			"byteOffset":366260
		},
		{
			"buffer":0,
			"byteLength":24,
			"byteOffset":366284
		},
		{
			"buffer":0,
			"byteLength":32,
			"byteOffset":366308
		},
		{
			"buffer":0,
			"byteLength":24,
			"byteOffset":366340
		},
		{
			"buffer":0,
			"byteLength":24,
			"byteOffset":366364
		},
		{
			"buffer":0,
			"byteLength":496,
			"byteOffset":366388
		},
		{
			"buffer":0,
			"byteLength":24,
			"byteOffset":366884
		},
		{
			"buffer":0,
			"byteLength":24,
			"byteOffset":366908
		},
		{
			"buffer":0,
			"byteLength":32,
			"byteOffset":366932
		},
		{
			"buffer":0,
			"byteLength":24,
			"byteOffset":366964
		},
		{
			"buffer":0,
			"byteLength":24,
			"byteOffset":366988
		},
		{
			"buffer":0,
			"byteLength":32,
			"byteOffset":367012
		},
		{
			"buffer":0,
			"byteLength":24,
			"byteOffset":367044
		},
		{
			"buffer":0,
			"byteLength":24,
			"byteOffset":367068
		},
		{
			"buffer":0,
			"byteLength":496,
			"byteOffset":367092
		},
		{
			"buffer":0,
			"byteLength":24,
			"byteOffset":367588
		},
		{
			"buffer":0,
			"byteLength":24,
			"byteOffset":367612
		},
		{
			"buffer":0,
			"byteLength":32,
			"byteOffset":367636
		},
		{
			"buffer":0,
			"byteLength":24,
			"byteOffset":367668
		},
		{
			"buffer":0,
			"byteLength":24,
			"byteOffset":367692
		},
		{
			"buffer":0,
			"byteLength":32,
			"byteOffset":367716
		},
		{
			"buffer":0,
			"byteLength":24,
			"byteOffset":367748
		},
		{
			"buffer":0,
			"byteLength":24,
			"byteOffset":367772
		},
		{
			"buffer":0,
			"byteLength":496,
			"byteOffset":367796
		},
		{
			"buffer":0,
			"byteLength":24,
			"byteOffset":368292
		},
		{
			"buffer":0,
			"byteLength":24,
			"byteOffset":368316
		},
		{
			"buffer":0,
			"byteLength":496,
			"byteOffset":368340
		},
		{
			"buffer":0,
			"byteLength":24,
			"byteOffset":368836
		},
		{
			"buffer":0,
			"byteLength":24,
			"byteOffset":368860
		},
		{
			"buffer":0,
			"byteLength":496,
			"byteOffset":368884
		},
		{
			"buffer":0,
			"byteLength":24,
			"byteOffset":369380
		},
		{
			"buffer":0,
			"byteLength":24,
			"byteOffset":369404
		},
		{
			"buffer":0,
			"byteLength":496,
			"byteOffset":369428
		},
		{
			"buffer":0,
			"byteLength":24,
			"byteOffset":369924
		},
		{
			"buffer":0,
			"byteLength":24,
			"byteOffset":369948
		},
		{
			"buffer":0,
			"byteLength":496,
			"byteOffset":369972
		},
		{
			"buffer":0,
			"byteLength":24,
			"byteOffset":370468
		},
		{
			"buffer":0,
			"byteLength":24,
			"byteOffset":370492
		},
		{
			"buffer":0,
			"byteLength":496,
			"byteOffset":370516
		},
		{
			"buffer":0,
			"byteLength":24,
			"byteOffset":371012
		}
	],
	"samplers":[
		{
			"magFilter":9729,
			"minFilter":9987
		}
	],
	"buffers":[
		{
			"byteLength":371036,
			"uri":"goblin.bin"
		}
	]
}
