{
	"asset":{
		"generator":"Khronos glTF Blender I/O v4.2.57",
		"version":"2.0"
	},
	"extensionsUsed":[
		"KHR_materials_clearcoat",
		"KHR_materials_sheen"
	],
	"scene":0,
	"scenes":[
		{
			"name":"Scene",
			"nodes":[
				18
			]
		}
	],
	"nodes":[
		{
			"name":"head",
			"translation":[
				0,
				0.07499992847442627,
				0
			]
		},
		{
			"children":[
				0
			],
			"name":"neck",
			"translation":[
				0,
				0.1575000286102295,
				0
			]
		},
		{
			"name":"hand.R",
			"rotation":[
				-0.002831950318068266,
				-0.020585712045431137,
				0.022130057215690613,
				0.9995391368865967
			],
			"translation":[
				1.0593794286251068e-08,
				0.18879547715187073,
				-2.7939677238464355e-09
			]
		},
		{
			"children":[
				2
			],
			"name":"forearm.R",
			"rotation":[
				0.04786789417266846,
				-0.06073952466249466,
				0.0701541155576706,
				0.9945339560508728
			],
			"scale":[
				0.9999998807907104,
				0.9999998807907104,
				1
			],
			"translation":[
				-1.6065314412117004e-08,
				0.2072238177061081,
				-2.3283064365386963e-09
			]
		},
		{
			"children":[
				3
			],
			"name":"upper_arm.R",
			"rotation":[
				0.9885599613189697,
				0.10654275119304657,
				0.10654293745756149,
				0.006823067087680101
			],
			"scale":[
				0.9999990463256836,
				0.9999998211860657,
				0.9999999403953552
			],
			"translation":[
				0.16200000047683716,
				0.12000000476837158,
				0
			]
		},
		{
			"name":"hand.L",
			"rotation":[
				-0.002831950318068266,
				0.020585712045431137,
				-0.022130057215690613,
				0.9995391368865967
			],
			"translation":[
				-1.0593794286251068e-08,
				0.18879547715187073,
				-2.7939677238464355e-09
			]
		},
		{
			"children":[
				5
			],
			"name":"forearm.L",
			"rotation":[
				0.04786789417266846,
				0.06073952466249466,
				-0.0701541155576706,
				0.9945339560508728
			],
			"scale":[
				0.9999998807907104,
				0.9999998807907104,
				1
			],
			"translation":[
				1.6065314412117004e-08,
				0.2072238177061081,
				-2.3283064365386963e-09
			]
		},
		{
			"children":[
				6
			],
			"name":"upper_arm.L",
			"rotation":[
				0.9885599613189697,
				-0.10654275119304657,
				-0.10654293745756149,
				0.006823067087680101
			],
			"scale":[
				0.9999990463256836,
				0.9999998211860657,
				0.9999999403953552
			],
			"translation":[
				-0.16200000047683716,
				0.12000000476837158,
				0
			]
		},
		{
			"children":[
				1,
				4,
				7
			],
			"name":"chest",
			"translation":[
				0,
				0.12749993801116943,
				0
			]
		},
		{
			"children":[
				8
			],
			"name":"spine",
			"translation":[
				0,
				0.11250007152557373,
				0
			]
		},
		{
			"name":"foot.R",
			"rotation":[
				0.5914180278778076,
				-2.4097657203014933e-10,
				-3.285558214383144e-10,
				0.8063651323318481
			],
			"translation":[
				-7.505180477096474e-09,
				0.3079424202442169,
				1.392036708125488e-09
			]
		},
		{
			"children":[
				10
			],
			"name":"shin.R",
			"rotation":[
				-0.041510093957185745,
				-0.00986463949084282,
				0.009349513798952103,
				0.9990456700325012
			],
			"translation":[
				-1.0186340659856796e-08,
				0.30769023299217224,
				-3.4924596548080444e-10
			]
		},
		{
			"children":[
				11
			],
			"name":"thigh.R",
			"rotation":[
				-0.9997993111610413,
				-0.009610532782971859,
				-0.009610607288777828,
				0.014720413833856583
			],
			"scale":[
				1,
				0.9999998807907104,
				1.0000001192092896
			],
			"translation":[
				0.0689999982714653,
				-0.014999985694885254,
				0
			]
		},
		{
			"name":"foot.L",
			"rotation":[
				0.5914180278778076,
				2.4097657203014933e-10,
				3.285558214383144e-10,
				0.8063651323318481
			],
			"translation":[
				7.505180477096474e-09,
				0.3079424202442169,
				1.392036708125488e-09
			]
		},
		{
			"children":[
				13
			],
			"name":"shin.L",
			"rotation":[
				-0.041510093957185745,
				0.00986463949084282,
				-0.009349513798952103,
				0.9990456700325012
			],
			"translation":[
				1.0186340659856796e-08,
				0.30769023299217224,
				-3.4924596548080444e-10
			]
		},
		{
			"children":[
				14
			],
			"name":"thigh.L",
			"rotation":[
				-0.9997993111610413,
				0.009610532782971859,
				0.009610607288777828,
				0.014720413833856583
			],
			"scale":[
				1,
				0.9999998807907104,
				1.0000001192092896
			],
			"translation":[
				-0.0689999982714653,
				-0.014999985694885254,
				0
			]
		},
		{
			"children":[
				9,
				12,
				15
			],
			"name":"hips",
			"translation":[
				0,
				0.6974999904632568,
				0
			]
		},
		{
			"mesh":0,
			"name":"gobta",
			"skin":0
		},
		{
			"children":[
				17,
				16
			],
			"name":"gobta_rig"
		}
	],
	"animations":[
		{
			"channels":[
				{
					"sampler":0,
					"target":{
						"node":16,
						"path":"translation"
					}
				},
				{
					"sampler":1,
					"target":{
						"node":16,
						"path":"rotation"
					}
				},
				{
					"sampler":2,
					"target":{
						"node":16,
						"path":"scale"
					}
				},
				{
					"sampler":3,
					"target":{
						"node":9,
						"path":"translation"
					}
				},
				{
					"sampler":4,
					"target":{
						"node":9,
						"path":"rotation"
					}
				},
				{
					"sampler":5,
					"target":{
						"node":9,
						"path":"scale"
					}
				},
				{
					"sampler":6,
					"target":{
						"node":8,
						"path":"translation"
					}
				},
				{
					"sampler":7,
					"target":{
						"node":8,
						"path":"rotation"
					}
				},
				{
					"sampler":8,
					"target":{
						"node":8,
						"path":"scale"
					}
				},
				{
					"sampler":9,
					"target":{
						"node":1,
						"path":"translation"
					}
				},
				{
					"sampler":10,
					"target":{
						"node":1,
						"path":"rotation"
					}
				},
				{
					"sampler":11,
					"target":{
						"node":1,
						"path":"scale"
					}
				},
				{
					"sampler":12,
					"target":{
						"node":0,
						"path":"translation"
					}
				},
				{
					"sampler":13,
					"target":{
						"node":0,
						"path":"rotation"
					}
				},
				{
					"sampler":14,
					"target":{
						"node":0,
						"path":"scale"
					}
				},
				{
					"sampler":15,
					"target":{
						"node":4,
						"path":"translation"
					}
				},
				{
					"sampler":16,
					"target":{
						"node":4,
						"path":"rotation"
					}
				},
				{
					"sampler":17,
					"target":{
						"node":4,
						"path":"scale"
					}
				},
				{
					"sampler":18,
					"target":{
						"node":3,
						"path":"translation"
					}
				},
				{
					"sampler":19,
					"target":{
						"node":3,
						"path":"rotation"
					}
				},
				{
					"sampler":20,
					"target":{
						"node":3,
						"path":"scale"
					}
				},
				{
					"sampler":21,
					"target":{
						"node":2,
						"path":"translation"
					}
				},
				{
					"sampler":22,
					"target":{
						"node":2,
						"path":"rotation"
					}
				},
				{
					"sampler":23,
					"target":{
						"node":2,
						"path":"scale"
					}
				},
				{
					"sampler":24,
					"target":{
						"node":7,
						"path":"translation"
					}
				},
				{
					"sampler":25,
					"target":{
						"node":7,
						"path":"rotation"
					}
				},
				{
					"sampler":26,
					"target":{
						"node":7,
						"path":"scale"
					}
				},
				{
					"sampler":27,
					"target":{
						"node":6,
						"path":"translation"
					}
				},
				{
					"sampler":28,
					"target":{
						"node":6,
						"path":"rotation"
					}
				},
				{
					"sampler":29,
					"target":{
						"node":6,
						"path":"scale"
					}
				},
				{
					"sampler":30,
					"target":{
						"node":5,
						"path":"translation"
					}
				},
				{
					"sampler":31,
					"target":{
						"node":5,
						"path":"rotation"
					}
				},
				{
					"sampler":32,
					"target":{
						"node":5,
						"path":"scale"
					}
				},
				{
					"sampler":33,
					"target":{
						"node":12,
						"path":"translation"
					}
				},
				{
					"sampler":34,
					"target":{
						"node":12,
						"path":"rotation"
					}
				},
				{
					"sampler":35,
					"target":{
						"node":12,
						"path":"scale"
					}
				},
				{
					"sampler":36,
					"target":{
						"node":11,
						"path":"translation"
					}
				},
				{
					"sampler":37,
					"target":{
						"node":11,
						"path":"rotation"
					}
				},
				{
					"sampler":38,
					"target":{
						"node":11,
						"path":"scale"
					}
				},
				{
					"sampler":39,
					"target":{
						"node":10,
						"path":"translation"
					}
				},
				{
					"sampler":40,
					"target":{
						"node":10,
						"path":"rotation"
					}
				},
				{
					"sampler":41,
					"target":{
						"node":10,
						"path":"scale"
					}
				},
				{
					"sampler":42,
					"target":{
						"node":15,
						"path":"translation"
					}
				},
				{
					"sampler":43,
					"target":{
						"node":15,
						"path":"rotation"
					}
				},
				{
					"sampler":44,
					"target":{
						"node":15,
						"path":"scale"
					}
				},
				{
					"sampler":45,
					"target":{
						"node":14,
						"path":"translation"
					}
				},
				{
					"sampler":46,
					"target":{
						"node":14,
						"path":"rotation"
					}
				},
				{
					"sampler":47,
					"target":{
						"node":14,
						"path":"scale"
					}
				},
				{
					"sampler":48,
					"target":{
						"node":13,
						"path":"translation"
					}
				},
				{
					"sampler":49,
					"target":{
						"node":13,
						"path":"rotation"
					}
				},
				{
					"sampler":50,
					"target":{
						"node":13,
						"path":"scale"
					}
				}
			],
			"name":"attack",
			"samplers":[
				{
					"input":84,
					"interpolation":"STEP",
					"output":85
				},
				{
					"input":84,
					"interpolation":"STEP",
					"output":86
				},
				{
					"input":84,
					"interpolation":"STEP",
					"output":87
				},
				{
					"input":84,
					"interpolation":"STEP",
					"output":88
				},
				{
					"input":84,
					"interpolation":"STEP",
					"output":89
				},
				{
					"input":84,
					"interpolation":"STEP",
					"output":90
				},
				{
					"input":84,
					"interpolation":"STEP",
					"output":91
				},
				{
					"input":92,
					"interpolation":"LINEAR",
					"output":93
				},
				{
					"input":84,
					"interpolation":"STEP",
					"output":94
				},
				{
					"input":84,
					"interpolation":"STEP",
					"output":95
				},
				{
					"input":84,
					"interpolation":"STEP",
					"output":96
				},
				{
					"input":84,
					"interpolation":"STEP",
					"output":97
				},
				{
					"input":84,
					"interpolation":"STEP",
					"output":98
				},
				{
					"input":84,
					"interpolation":"STEP",
					"output":99
				},
				{
					"input":84,
					"interpolation":"STEP",
					"output":100
				},
				{
					"input":84,
					"interpolation":"STEP",
					"output":101
				},
				{
					"input":92,
					"interpolation":"LINEAR",
					"output":102
				},
				{
					"input":84,
					"interpolation":"STEP",
					"output":103
				},
				{
					"input":84,
					"interpolation":"LINEAR",
					"output":104
				},
				{
					"input":92,
					"interpolation":"LINEAR",
					"output":105
				},
				{
					"input":84,
					"interpolation":"STEP",
					"output":106
				},
				{
					"input":84,
					"interpolation":"STEP",
					"output":107
				},
				{
					"input":84,
					"interpolation":"STEP",
					"output":108
				},
				{
					"input":84,
					"interpolation":"STEP",
					"output":109
				},
				{
					"input":84,
					"interpolation":"STEP",
					"output":110
				},
				{
					"input":92,
					"interpolation":"LINEAR",
					"output":111
				},
				{
					"input":84,
					"interpolation":"STEP",
					"output":112
				},
				{
					"input":84,
					"interpolation":"STEP",
					"output":113
				},
				{
					"input":84,
					"interpolation":"STEP",
					"output":114
				},
				{
					"input":84,
					"interpolation":"STEP",
					"output":115
				},
				{
					"input":84,
					"interpolation":"STEP",
					"output":116
				},
				{
					"input":84,
					"interpolation":"STEP",
					"output":117
				},
				{
					"input":84,
					"interpolation":"STEP",
					"output":118
				},
				{
					"input":84,
					"interpolation":"STEP",
					"output":119
				},
				{
					"input":92,
					"interpolation":"LINEAR",
					"output":120
				},
				{
					"input":84,
					"interpolation":"STEP",
					"output":121
				},
				{
					"input":84,
					"interpolation":"LINEAR",
					"output":122
				},
				{
					"input":84,
					"interpolation":"LINEAR",
					"output":123
				},
				{
					"input":84,
					"interpolation":"STEP",
					"output":124
				},
				{
					"input":84,
					"interpolation":"LINEAR",
					"output":125
				},
				{
					"input":84,
					"interpolation":"LINEAR",
					"output":126
				},
				{
					"input":84,
					"interpolation":"STEP",
					"output":127
				},
				{
					"input":84,
					"interpolation":"STEP",
					"output":128
				},
				{
					"input":92,
					"interpolation":"LINEAR",
					"output":129
				},
				{
					"input":84,
					"interpolation":"STEP",
					"output":130
				},
				{
					"input":84,
					"interpolation":"LINEAR",
					"output":131
				},
				{
					"input":84,
					"interpolation":"LINEAR",
					"output":132
				},
				{
					"input":84,
					"interpolation":"STEP",
					"output":133
				},
				{
					"input":84,
					"interpolation":"LINEAR",
					"output":134
				},
				{
					"input":84,
					"interpolation":"LINEAR",
					"output":135
				},
				{
					"input":84,
					"interpolation":"STEP",
					"output":136
				}
			]
		},
		{
			"channels":[
				{
					"sampler":0,
					"target":{
						"node":16,
						"path":"translation"
					}
				},
				{
					"sampler":1,
					"target":{
						"node":16,
						"path":"rotation"
					}
				},
				{
					"sampler":2,
					"target":{
						"node":16,
						"path":"scale"
					}
				},
				{
					"sampler":3,
					"target":{
						"node":9,
						"path":"translation"
					}
				},
				{
					"sampler":4,
					"target":{
						"node":9,
						"path":"rotation"
					}
				},
				{
					"sampler":5,
					"target":{
						"node":9,
						"path":"scale"
					}
				},
				{
					"sampler":6,
					"target":{
						"node":8,
						"path":"translation"
					}
				},
				{
					"sampler":7,
					"target":{
						"node":8,
						"path":"rotation"
					}
				},
				{
					"sampler":8,
					"target":{
						"node":8,
						"path":"scale"
					}
				},
				{
					"sampler":9,
					"target":{
						"node":1,
						"path":"translation"
					}
				},
				{
					"sampler":10,
					"target":{
						"node":1,
						"path":"rotation"
					}
				},
				{
					"sampler":11,
					"target":{
						"node":1,
						"path":"scale"
					}
				},
				{
					"sampler":12,
					"target":{
						"node":0,
						"path":"translation"
					}
				},
				{
					"sampler":13,
					"target":{
						"node":0,
						"path":"rotation"
					}
				},
				{
					"sampler":14,
					"target":{
						"node":0,
						"path":"scale"
					}
				},
				{
					"sampler":15,
					"target":{
						"node":4,
						"path":"translation"
					}
				},
				{
					"sampler":16,
					"target":{
						"node":4,
						"path":"rotation"
					}
				},
				{
					"sampler":17,
					"target":{
						"node":4,
						"path":"scale"
					}
				},
				{
					"sampler":18,
					"target":{
						"node":3,
						"path":"translation"
					}
				},
				{
					"sampler":19,
					"target":{
						"node":3,
						"path":"rotation"
					}
				},
				{
					"sampler":20,
					"target":{
						"node":3,
						"path":"scale"
					}
				},
				{
					"sampler":21,
					"target":{
						"node":2,
						"path":"translation"
					}
				},
				{
					"sampler":22,
					"target":{
						"node":2,
						"path":"rotation"
					}
				},
				{
					"sampler":23,
					"target":{
						"node":2,
						"path":"scale"
					}
				},
				{
					"sampler":24,
					"target":{
						"node":7,
						"path":"translation"
					}
				},
				{
					"sampler":25,
					"target":{
						"node":7,
						"path":"rotation"
					}
				},
				{
					"sampler":26,
					"target":{
						"node":7,
						"path":"scale"
					}
				},
				{
					"sampler":27,
					"target":{
						"node":6,
						"path":"translation"
					}
				},
				{
					"sampler":28,
					"target":{
						"node":6,
						"path":"rotation"
					}
				},
				{
					"sampler":29,
					"target":{
						"node":6,
						"path":"scale"
					}
				},
				{
					"sampler":30,
					"target":{
						"node":5,
						"path":"translation"
					}
				},
				{
					"sampler":31,
					"target":{
						"node":5,
						"path":"rotation"
					}
				},
				{
					"sampler":32,
					"target":{
						"node":5,
						"path":"scale"
					}
				},
				{
					"sampler":33,
					"target":{
						"node":12,
						"path":"translation"
					}
				},
				{
					"sampler":34,
					"target":{
						"node":12,
						"path":"rotation"
					}
				},
				{
					"sampler":35,
					"target":{
						"node":12,
						"path":"scale"
					}
				},
				{
					"sampler":36,
					"target":{
						"node":11,
						"path":"translation"
					}
				},
				{
					"sampler":37,
					"target":{
						"node":11,
						"path":"rotation"
					}
				},
				{
					"sampler":38,
					"target":{
						"node":11,
						"path":"scale"
					}
				},
				{
					"sampler":39,
					"target":{
						"node":10,
						"path":"translation"
					}
				},
				{
					"sampler":40,
					"target":{
						"node":10,
						"path":"rotation"
					}
				},
				{
					"sampler":41,
					"target":{
						"node":10,
						"path":"scale"
					}
				},
				{
					"sampler":42,
					"target":{
						"node":15,
						"path":"translation"
					}
				},
				{
					"sampler":43,
					"target":{
						"node":15,
						"path":"rotation"
					}
				},
				{
					"sampler":44,
					"target":{
						"node":15,
						"path":"scale"
					}
				},
				{
					"sampler":45,
					"target":{
						"node":14,
						"path":"translation"
					}
				},
				{
					"sampler":46,
					"target":{
						"node":14,
						"path":"rotation"
					}
				},
				{
					"sampler":47,
					"target":{
						"node":14,
						"path":"scale"
					}
				},
				{
					"sampler":48,
					"target":{
						"node":13,
						"path":"translation"
					}
				},
				{
					"sampler":49,
					"target":{
						"node":13,
						"path":"rotation"
					}
				},
				{
					"sampler":50,
					"target":{
						"node":13,
						"path":"scale"
					}
				}
			],
			"name":"idle",
			"samplers":[
				{
					"input":137,
					"interpolation":"LINEAR",
					"output":138
				},
				{
					"input":139,
					"interpolation":"STEP",
					"output":140
				},
				{
					"input":139,
					"interpolation":"STEP",
					"output":141
				},
				{
					"input":139,
					"interpolation":"STEP",
					"output":142
				},
				{
					"input":139,
					"interpolation":"STEP",
					"output":143
				},
				{
					"input":139,
					"interpolation":"STEP",
					"output":144
				},
				{
					"input":139,
					"interpolation":"STEP",
					"output":145
				},
				{
					"input":137,
					"interpolation":"LINEAR",
					"output":146
				},
				{
					"input":139,
					"interpolation":"STEP",
					"output":147
				},
				{
					"input":139,
					"interpolation":"STEP",
					"output":148
				},
				{
					"input":139,
					"interpolation":"STEP",
					"output":149
				},
				{
					"input":139,
					"interpolation":"STEP",
					"output":150
				},
				{
					"input":139,
					"interpolation":"STEP",
					"output":151
				},
				{
					"input":137,
					"interpolation":"LINEAR",
					"output":152
				},
				{
					"input":139,
					"interpolation":"STEP",
					"output":153
				},
				{
					"input":139,
					"interpolation":"STEP",
					"output":154
				},
				{
					"input":137,
					"interpolation":"LINEAR",
					"output":155
				},
				{
					"input":139,
					"interpolation":"STEP",
					"output":156
				},
				{
					"input":139,
					"interpolation":"STEP",
					"output":157
				},
				{
					"input":139,
					"interpolation":"STEP",
					"output":158
				},
				{
					"input":139,
					"interpolation":"STEP",
					"output":159
				},
				{
					"input":139,
					"interpolation":"STEP",
					"output":160
				},
				{
					"input":139,
					"interpolation":"STEP",
					"output":161
				},
				{
					"input":139,
					"interpolation":"STEP",
					"output":162
				},
				{
					"input":139,
					"interpolation":"STEP",
					"output":163
				},
				{
					"input":137,
					"interpolation":"LINEAR",
					"output":164
				},
				{
					"input":139,
					"interpolation":"STEP",
					"output":165
				},
				{
					"input":139,
					"interpolation":"STEP",
					"output":166
				},
				{
					"input":139,
					"interpolation":"STEP",
					"output":167
				},
				{
					"input":139,
					"interpolation":"STEP",
					"output":168
				},
				{
					"input":139,
					"interpolation":"STEP",
					"output":169
				},
				{
					"input":139,
					"interpolation":"STEP",
					"output":170
				},
				{
					"input":139,
					"interpolation":"STEP",
					"output":171
				},
				{
					"input":139,
					"interpolation":"STEP",
					"output":172
				},
				{
					"input":139,
					"interpolation":"STEP",
					"output":173
				},
				{
					"input":139,
					"interpolation":"STEP",
					"output":174
				},
				{
					"input":139,
					"interpolation":"STEP",
					"output":175
				},
				{
					"input":139,
					"interpolation":"STEP",
					"output":176
				},
				{
					"input":139,
					"interpolation":"STEP",
					"output":177
				},
				{
					"input":139,
					"interpolation":"STEP",
					"output":178
				},
				{
					"input":139,
					"interpolation":"STEP",
					"output":179
				},
				{
					"input":139,
					"interpolation":"STEP",
					"output":180
				},
				{
					"input":139,
					"interpolation":"STEP",
					"output":181
				},
				{
					"input":139,
					"interpolation":"STEP",
					"output":182
				},
				{
					"input":139,
					"interpolation":"STEP",
					"output":183
				},
				{
					"input":139,
					"interpolation":"STEP",
					"output":184
				},
				{
					"input":139,
					"interpolation":"STEP",
					"output":185
				},
				{
					"input":139,
					"interpolation":"STEP",
					"output":186
				},
				{
					"input":139,
					"interpolation":"STEP",
					"output":187
				},
				{
					"input":139,
					"interpolation":"STEP",
					"output":188
				},
				{
					"input":139,
					"interpolation":"STEP",
					"output":189
				}
			]
		},
		{
			"channels":[
				{
					"sampler":0,
					"target":{
						"node":16,
						"path":"translation"
					}
				},
				{
					"sampler":1,
					"target":{
						"node":16,
						"path":"rotation"
					}
				},
				{
					"sampler":2,
					"target":{
						"node":16,
						"path":"scale"
					}
				},
				{
					"sampler":3,
					"target":{
						"node":9,
						"path":"translation"
					}
				},
				{
					"sampler":4,
					"target":{
						"node":9,
						"path":"rotation"
					}
				},
				{
					"sampler":5,
					"target":{
						"node":9,
						"path":"scale"
					}
				},
				{
					"sampler":6,
					"target":{
						"node":8,
						"path":"translation"
					}
				},
				{
					"sampler":7,
					"target":{
						"node":8,
						"path":"rotation"
					}
				},
				{
					"sampler":8,
					"target":{
						"node":8,
						"path":"scale"
					}
				},
				{
					"sampler":9,
					"target":{
						"node":1,
						"path":"translation"
					}
				},
				{
					"sampler":10,
					"target":{
						"node":1,
						"path":"rotation"
					}
				},
				{
					"sampler":11,
					"target":{
						"node":1,
						"path":"scale"
					}
				},
				{
					"sampler":12,
					"target":{
						"node":0,
						"path":"translation"
					}
				},
				{
					"sampler":13,
					"target":{
						"node":0,
						"path":"rotation"
					}
				},
				{
					"sampler":14,
					"target":{
						"node":0,
						"path":"scale"
					}
				},
				{
					"sampler":15,
					"target":{
						"node":4,
						"path":"translation"
					}
				},
				{
					"sampler":16,
					"target":{
						"node":4,
						"path":"rotation"
					}
				},
				{
					"sampler":17,
					"target":{
						"node":4,
						"path":"scale"
					}
				},
				{
					"sampler":18,
					"target":{
						"node":3,
						"path":"translation"
					}
				},
				{
					"sampler":19,
					"target":{
						"node":3,
						"path":"rotation"
					}
				},
				{
					"sampler":20,
					"target":{
						"node":3,
						"path":"scale"
					}
				},
				{
					"sampler":21,
					"target":{
						"node":2,
						"path":"translation"
					}
				},
				{
					"sampler":22,
					"target":{
						"node":2,
						"path":"rotation"
					}
				},
				{
					"sampler":23,
					"target":{
						"node":2,
						"path":"scale"
					}
				},
				{
					"sampler":24,
					"target":{
						"node":7,
						"path":"translation"
					}
				},
				{
					"sampler":25,
					"target":{
						"node":7,
						"path":"rotation"
					}
				},
				{
					"sampler":26,
					"target":{
						"node":7,
						"path":"scale"
					}
				},
				{
					"sampler":27,
					"target":{
						"node":6,
						"path":"translation"
					}
				},
				{
					"sampler":28,
					"target":{
						"node":6,
						"path":"rotation"
					}
				},
				{
					"sampler":29,
					"target":{
						"node":6,
						"path":"scale"
					}
				},
				{
					"sampler":30,
					"target":{
						"node":5,
						"path":"translation"
					}
				},
				{
					"sampler":31,
					"target":{
						"node":5,
						"path":"rotation"
					}
				},
				{
					"sampler":32,
					"target":{
						"node":5,
						"path":"scale"
					}
				},
				{
					"sampler":33,
					"target":{
						"node":12,
						"path":"translation"
					}
				},
				{
					"sampler":34,
					"target":{
						"node":12,
						"path":"rotation"
					}
				},
				{
					"sampler":35,
					"target":{
						"node":12,
						"path":"scale"
					}
				},
				{
					"sampler":36,
					"target":{
						"node":11,
						"path":"translation"
					}
				},
				{
					"sampler":37,
					"target":{
						"node":11,
						"path":"rotation"
					}
				},
				{
					"sampler":38,
					"target":{
						"node":11,
						"path":"scale"
					}
				},
				{
					"sampler":39,
					"target":{
						"node":10,
						"path":"translation"
					}
				},
				{
					"sampler":40,
					"target":{
						"node":10,
						"path":"rotation"
					}
				},
				{
					"sampler":41,
					"target":{
						"node":10,
						"path":"scale"
					}
				},
				{
					"sampler":42,
					"target":{
						"node":15,
						"path":"translation"
					}
				},
				{
					"sampler":43,
					"target":{
						"node":15,
						"path":"rotation"
					}
				},
				{
					"sampler":44,
					"target":{
						"node":15,
						"path":"scale"
					}
				},
				{
					"sampler":45,
					"target":{
						"node":14,
						"path":"translation"
					}
				},
				{
					"sampler":46,
					"target":{
						"node":14,
						"path":"rotation"
					}
				},
				{
					"sampler":47,
					"target":{
						"node":14,
						"path":"scale"
					}
				},
				{
					"sampler":48,
					"target":{
						"node":13,
						"path":"translation"
					}
				},
				{
					"sampler":49,
					"target":{
						"node":13,
						"path":"rotation"
					}
				},
				{
					"sampler":50,
					"target":{
						"node":13,
						"path":"scale"
					}
				}
			],
			"name":"walk",
			"samplers":[
				{
					"input":190,
					"interpolation":"LINEAR",
					"output":191
				},
				{
					"input":190,
					"interpolation":"LINEAR",
					"output":192
				},
				{
					"input":193,
					"interpolation":"STEP",
					"output":194
				},
				{
					"input":193,
					"interpolation":"STEP",
					"output":195
				},
				{
					"input":193,
					"interpolation":"STEP",
					"output":196
				},
				{
					"input":193,
					"interpolation":"STEP",
					"output":197
				},
				{
					"input":193,
					"interpolation":"STEP",
					"output":198
				},
				{
					"input":190,
					"interpolation":"LINEAR",
					"output":199
				},
				{
					"input":193,
					"interpolation":"STEP",
					"output":200
				},
				{
					"input":193,
					"interpolation":"STEP",
					"output":201
				},
				{
					"input":193,
					"interpolation":"STEP",
					"output":202
				},
				{
					"input":193,
					"interpolation":"STEP",
					"output":203
				},
				{
					"input":193,
					"interpolation":"STEP",
					"output":204
				},
				{
					"input":193,
					"interpolation":"STEP",
					"output":205
				},
				{
					"input":193,
					"interpolation":"STEP",
					"output":206
				},
				{
					"input":193,
					"interpolation":"STEP",
					"output":207
				},
				{
					"input":190,
					"interpolation":"LINEAR",
					"output":208
				},
				{
					"input":193,
					"interpolation":"STEP",
					"output":209
				},
				{
					"input":193,
					"interpolation":"STEP",
					"output":210
				},
				{
					"input":193,
					"interpolation":"STEP",
					"output":211
				},
				{
					"input":193,
					"interpolation":"STEP",
					"output":212
				},
				{
					"input":193,
					"interpolation":"STEP",
					"output":213
				},
				{
					"input":193,
					"interpolation":"STEP",
					"output":214
				},
				{
					"input":193,
					"interpolation":"STEP",
					"output":215
				},
				{
					"input":193,
					"interpolation":"STEP",
					"output":216
				},
				{
					"input":190,
					"interpolation":"LINEAR",
					"output":217
				},
				{
					"input":193,
					"interpolation":"STEP",
					"output":218
				},
				{
					"input":193,
					"interpolation":"STEP",
					"output":219
				},
				{
					"input":193,
					"interpolation":"STEP",
					"output":220
				},
				{
					"input":193,
					"interpolation":"STEP",
					"output":221
				},
				{
					"input":193,
					"interpolation":"STEP",
					"output":222
				},
				{
					"input":193,
					"interpolation":"STEP",
					"output":223
				},
				{
					"input":193,
					"interpolation":"STEP",
					"output":224
				},
				{
					"input":193,
					"interpolation":"STEP",
					"output":225
				},
				{
					"input":190,
					"interpolation":"LINEAR",
					"output":226
				},
				{
					"input":193,
					"interpolation":"STEP",
					"output":227
				},
				{
					"input":193,
					"interpolation":"STEP",
					"output":228
				},
				{
					"input":190,
					"interpolation":"LINEAR",
					"output":229
				},
				{
					"input":193,
					"interpolation":"STEP",
					"output":230
				},
				{
					"input":193,
					"interpolation":"STEP",
					"output":231
				},
				{
					"input":190,
					"interpolation":"LINEAR",
					"output":232
				},
				{
					"input":193,
					"interpolation":"STEP",
					"output":233
				},
				{
					"input":193,
					"interpolation":"STEP",
					"output":234
				},
				{
					"input":190,
					"interpolation":"LINEAR",
					"output":235
				},
				{
					"input":193,
					"interpolation":"STEP",
					"output":236
				},
				{
					"input":193,
					"interpolation":"STEP",
					"output":237
				},
				{
					"input":190,
					"interpolation":"LINEAR",
					"output":238
				},
				{
					"input":193,
					"interpolation":"STEP",
					"output":239
				},
				{
					"input":193,
					"interpolation":"STEP",
					"output":240
				},
				{
					"input":190,
					"interpolation":"LINEAR",
					"output":241
				},
				{
					"input":193,
					"interpolation":"STEP",
					"output":242
				}
			]
		}
	],
	"materials":[
		{
			"name":"skin",
			"normalTexture":{
				"index":0,
				"scale":0.4000000059604645
			},
			"pbrMetallicRoughness":{
				"baseColorFactor":[
					0.17064493894577026,
					0.4200332760810852,
					0.11928018927574158,
					1
				],
				"metallicFactor":0,
				"roughnessFactor":0.550000011920929
			}
		},
		{
			"extensions":{
				"KHR_materials_sheen":{
					"sheenColorFactor":[
						1.0,
						1.0,
						1.0
					],
					"sheenRoughnessFactor":0.5
				}
			},
			"name":"hair",
			"normalTexture":{
				"index":1,
				"scale":0.800000011920929
			},
			"pbrMetallicRoughness":{
				"baseColorFactor":[
					0.0134117491543293,
					0.0134117491543293,
					0.010022825561463833,
					1
				],
				"metallicFactor":0,
				"roughnessFactor":0.44999998807907104
			}
		},
		{
			"extensions":{
				"KHR_materials_sheen":{
					"sheenColorFactor":[
						1.0,
						1.0,
						1.0
					],
					"sheenRoughnessFactor":0.5
				}
			},
			"name":"outfit",
			"normalTexture":{
				"index":2,
				"scale":0.6000000238418579
			},
			"pbrMetallicRoughness":{
				"baseColorFactor":[
					0.17064493894577026,
					0.08353512734174728,
					0.03310476616024971,
					1
				],
				"metallicFactor":0,
				"roughnessFactor":0.75
			}
		},
		{
			"name":"outfit2",
			"normalTexture":{
				"index":3,
				"scale":0.4000000059604645
			},
			"pbrMetallicRoughness":{
				"baseColorFactor":[
					0.4479884207248688,
					0.31854677200317383,
					0.13286831974983215,
					1
				],
				"metallicFactor":0,
				"roughnessFactor":0.6000000238418579
			}
		},
		{
			"name":"pants",
			"normalTexture":{
				"index":4,
				"scale":0.6000000238418579
			},
			"pbrMetallicRoughness":{
				"baseColorFactor":[
					0.08088690787553787,
					0.041081301867961884,
					0.017389101907610893,
					1
				],
				"metallicFactor":0,
				"roughnessFactor":0.800000011920929
			}
		},
		{
			"extensions":{
				"KHR_materials_clearcoat":{
					"clearcoatFactor":0.30000001192092896
				}
			},
			"name":"boots",
			"normalTexture":{
				"index":5,
				"scale":0.800000011920929
			},
			"pbrMetallicRoughness":{
				"baseColorFactor":[
					0.0134117491543293,
					0.010022825561463833,
					0.010022825561463833,
					1
				],
				"metallicFactor":0,
				"roughnessFactor":0.44999998807907104
			}
		},
		{
			"name":"eye_white",
			"pbrMetallicRoughness":{
				"baseColorFactor":[
					0.8900054097175598,
					0.8900054097175598,
					0.8900054097175598,
					1
				],
				"metallicFactor":0,
				"roughnessFactor":0.20000000298023224
			}
		},
		{
			"emissiveFactor":[
				0.011763989275256348,
				0.011763989275256348,
				0.019862860485428957
			],
			"name":"iris",
			"pbrMetallicRoughness":{
				"baseColorFactor":[
					0.01960664801299572,
					0.01960664801299572,
					0.03310476616024971,
					1
				],
				"metallicFactor":0,
				"roughnessFactor":0.15000000596046448
			}
		},
		{
			"name":"pupil",
			"pbrMetallicRoughness":{
				"baseColorFactor":[
					0.0015479875728487968,
					0.0015479875728487968,
					0.0023219813592731953,
					1
				],
				"metallicFactor":0,
				"roughnessFactor":0.10000000149011612
			}
		},
		{
			"name":"lips",
			"pbrMetallicRoughness":{
				"baseColorFactor":[
					0.08088690787553787,
					0.192495658993721,
					0.05751831829547882,
					1
				],
				"metallicFactor":0,
				"roughnessFactor":0.4000000059604645
			}
		},
		{
			"name":"buckle",
			"pbrMetallicRoughness":{
				"baseColorFactor":[
					0.6920710802078247,
					0.4479884207248688,
					0.07323895394802094,
					1
				],
				"metallicFactor":0.8999999761581421,
				"roughnessFactor":0.30000001192092896
			}
		},
		{
			"name":"blade",
			"normalTexture":{
				"index":6,
				"scale":0.30000001192092896
			},
			"pbrMetallicRoughness":{
				"baseColorFactor":[
					0.7484140992164612,
					0.7874122858047485,
					0.8900054097175598,
					1
				],
				"metallicFactor":0.550000011920929,
				"roughnessFactor":0.2199999988079071
			}
		},
		{
			"name":"handle",
			"normalTexture":{
				"index":7,
				"scale":0.6000000238418579
			},
			"pbrMetallicRoughness":{
				"baseColorFactor":[
					0.0134117491543293,
					0.007194409146904945,
					0.004896310158073902,
					1
				],
				"metallicFactor":0,
				"roughnessFactor":0.6000000238418579
			}
		},
		{
			"name":"guard",
			"pbrMetallicRoughness":{
				"baseColorFactor":[
					0.6038273572921753,
					0.38005632162094116,
					0.05087608844041824,
					1
				],
				"metallicFactor":0.8999999761581421,
				"roughnessFactor":0.30000001192092896
			}
		}
	],
	"meshes":[
		{
			"name":"gobta",
			"primitives":[
				{
					"attributes":{
						"POSITION":0,
						"NORMAL":1,
						"TEXCOORD_0":2,
						"JOINTS_0":3,
						"WEIGHTS_0":4
					},
					"indices":5,
					"material":0
				},
				{
					"attributes":{
						"POSITION":6,
						"NORMAL":7,
						"TEXCOORD_0":8,
						"JOINTS_0":9,
						"WEIGHTS_0":10
					},
					"indices":11,
					"material":1
				},
				{
					"attributes":{
						"POSITION":12,
						"NORMAL":13,
						"TEXCOORD_0":14,
						"JOINTS_0":15,
						"WEIGHTS_0":16
					},
					"indices":17,
					"material":2
				},
				{
					"attributes":{
						"POSITION":18,
						"NORMAL":19,
						"TEXCOORD_0":20,
						"JOINTS_0":21,
						"WEIGHTS_0":22
					},
					"indices":23,
					"material":3
				},
				{
					"attributes":{
						"POSITION":24,
						"NORMAL":25,
						"TEXCOORD_0":26,
						"JOINTS_0":27,
						"WEIGHTS_0":28
					},
					"indices":29,
					"material":4
				},
				{
					"attributes":{
						"POSITION":30,
						"NORMAL":31,
						"TEXCOORD_0":32,
						"JOINTS_0":33,
						"WEIGHTS_0":34
					},
					"indices":35,
					"material":5
				},
				{
					"attributes":{
						"POSITION":36,
						"NORMAL":37,
						"TEXCOORD_0":38,
						"JOINTS_0":39,
						"WEIGHTS_0":40
					},
					"indices":41,
					"material":6
				},
				{
					"attributes":{
						"POSITION":42,
						"NORMAL":43,
						"TEXCOORD_0":44,
						"JOINTS_0":45,
						"WEIGHTS_0":46
					},
					"indices":47,
					"material":7
				},
				{
					"attributes":{
						"POSITION":48,
						"NORMAL":49,
						"TEXCOORD_0":50,
						"JOINTS_0":51,
						"WEIGHTS_0":52
					},
					"indices":53,
					"material":8
				},
				{
					"attributes":{
						"POSITION":54,
						"NORMAL":55,
						"TEXCOORD_0":56,
						"JOINTS_0":57,
						"WEIGHTS_0":58
					},
					"indices":59,
					"material":9
				},
				{
					"attributes":{
						"POSITION":60,
						"NORMAL":61,
						"TEXCOORD_0":62,
						"JOINTS_0":63,
						"WEIGHTS_0":64
					},
					"indices":65,
					"material":10
				},
				{
					"attributes":{
						"POSITION":66,
						"NORMAL":67,
						"TEXCOORD_0":68,
						"JOINTS_0":69,
						"WEIGHTS_0":70
					},
					"indices":71,
					"material":11
				},
				{
					"attributes":{
						"POSITION":72,
						"NORMAL":73,
						"TEXCOORD_0":74,
						"JOINTS_0":75,
						"WEIGHTS_0":76
					},
					"indices":77,
					"material":12
				},
				{
					"attributes":{
						"POSITION":78,
						"NORMAL":79,
						"TEXCOORD_0":80,
						"JOINTS_0":81,
						"WEIGHTS_0":82
					},
					"indices":65,
					"material":13
				}
			]
		}
	],
	"textures":[
		{
			"sampler":0,
			"source":0
		},
		{
			"sampler":0,
			"source":1
		},
		{
			"sampler":0,
			"source":2
		},
		{
			"sampler":0,
			"source":2
		},
		{
			"sampler":0,
			"source":2
		},
		{
			"sampler":0,
			"source":3
		},
		{
			"sampler":0,
			"source":4
		},
		{
			"sampler":0,
			"source":3
		}
	],
	"images":[
		{
			"mimeType":"image/png",
			"name":"N_skin",
			"uri":"texturas/N_skin.png"
		},
		{
			"mimeType":"image/png",
			"name":"N_hair",
			"uri":"texturas/N_hair.png"
		},
		{
			"mimeType":"image/png",
			"name":"N_cloth",
			"uri":"texturas/N_cloth.png"
		},
		{
			"mimeType":"image/png",
			"name":"N_leather",
			"uri":"texturas/N_leather.png"
		},
		{
			"mimeType":"image/png",
			"name":"N_metal",
			"uri":"texturas/N_metal.png"
		}
	],
	"skins":[
		{
			"inverseBindMatrices":83,
			"joints":[
				16,
				9,
				8,
				1,
				0,
				4,
				3,
				2,
				7,
				6,
				5,
				12,
				11,
				10,
				15,
				14,
				13
			],
			"name":"gobta_rig"
		}
	],
	"accessors":[
		{
			"bufferView":0,
			"componentType":5126,
			"count":1437,
			"max":[
				0.24060982465744019,
				1.337999939918518,
				0.08040942251682281
			],
			"min":[
				-0.24060982465744019,
				0.5883509516716003,
				-0.08705754578113556
			],
			"type":"VEC3"
		},
		{
			"bufferView":1,
			"componentType":5126,
			"count":1437,
			"type":"VEC3"
		},
		{
			"bufferView":2,
			"componentType":5126,
			"count":1437,
			"type":"VEC2"
		},
		{
			"bufferView":3,
			"componentType":5121,
			"count":1437,
			"type":"VEC4"
		},
		{
			"bufferView":4,
			"componentType":5126,
			"count":1437,
			"type":"VEC4"
		},
		{
			"bufferView":5,
			"componentType":5123,
			"count":5868,
			"type":"SCALAR"
		},
		{
			"bufferView":6,
			"componentType":5126,
			"count":2653,
			"max":[
				0.08906541764736176,
				1.3580358028411865,
				0.10330114513635635
			],
			"min":[
				-0.0879751667380333,
				1.1658233404159546,
				-0.08829782158136368
			],
			"type":"VEC3"
		},
		{
			"bufferView":7,
			"componentType":5126,
			"count":2653,
			"type":"VEC3"
		},
		{
			"bufferView":8,
			"componentType":5126,
			"count":2653,
			"type":"VEC2"
		},
		{
			"bufferView":9,
			"componentType":5121,
			"count":2653,
			"type":"VEC4"
		},
		{
			"bufferView":10,
			"componentType":5126,
			"count":2653,
			"type":"VEC4"
		},
		{
			"bufferView":11,
			"componentType":5123,
			"count":8328,
			"type":"SCALAR"
		},
		{
			"bufferView":12,
			"componentType":5126,
			"count":1461,
			"max":[
				0.24348324537277222,
				1.1056594848632812,
				0.08412901312112808
			],
			"min":[
				-0.24348324537277222,
				0.6973331570625305,
				-0.08378736674785614
			],
			"type":"VEC3"
		},
		{
			"bufferView":13,
			"componentType":5126,
			"count":1461,
			"type":"VEC3"
		},
		{
			"bufferView":14,
			"componentType":5126,
			"count":1461,
			"type":"VEC2"
		},
		{
			"bufferView":15,
			"componentType":5121,
			"count":1461,
			"type":"VEC4"
		},
		{
			"bufferView":16,
			"componentType":5126,
			"count":1461,
			"type":"VEC4"
		},
		{
			"bufferView":17,
			"componentType":5123,
			"count":6648,
			"type":"SCALAR"
		},
		{
			"bufferView":18,
			"componentType":5126,
			"count":65,
			"max":[
				0.10699136555194855,
				0.7739349603652954,
				0.08538027107715607
			],
			"min":[
				-0.10699136555194855,
				0.6572336554527283,
				-0.0863867700099945
			],
			"type":"VEC3"
		},
		{
			"bufferView":19,
			"componentType":5126,
			"count":65,
			"type":"VEC3"
		},
		{
			"bufferView":20,
			"componentType":5126,
			"count":65,
			"type":"VEC2"
		},
		{
			"bufferView":21,
			"componentType":5121,
			"count":65,
			"type":"VEC4"
		},
		{
			"bufferView":22,
			"componentType":5126,
			"count":65,
			"type":"VEC4"
		},
		{
			"bufferView":23,
			"componentType":5123,
			"count":192,
			"type":"SCALAR"
		},
		{
			"bufferView":24,
			"componentType":5126,
			"count":977,
			"max":[
				0.2414601743221283,
				0.7029735445976257,
				0.08312807977199554
			],
			"min":[
				-0.2414601445198059,
				0.22504553198814392,
				-0.08446207642555237
			],
			"type":"VEC3"
		},
		{
			"bufferView":25,
			"componentType":5126,
			"count":977,
			"type":"VEC3"
		},
		{
			"bufferView":26,
			"componentType":5126,
			"count":977,
			"type":"VEC2"
		},
		{
			"bufferView":27,
			"componentType":5121,
			"count":977,
			"type":"VEC4"
		},
		{
			"bufferView":28,
			"componentType":5126,
			"count":977,
			"type":"VEC4"
		},
		{
			"bufferView":29,
			"componentType":5123,
			"count":4332,
			"type":"SCALAR"
		},
		{
			"bufferView":30,
			"componentType":5126,
			"count":1034,
			"max":[
				0.12483274936676025,
				0.22983530163764954,
				0.05960812419652939
			],
			"min":[
				-0.12483275681734085,
				0.005698380991816521,
				-0.10509058088064194
			],
			"type":"VEC3"
		},
		{
			"bufferView":31,
			"componentType":5126,
			"count":1034,
			"type":"VEC3"
		},
		{
			"bufferView":32,
			"componentType":5126,
			"count":1034,
			"type":"VEC2"
		},
		{
			"bufferView":33,
			"componentType":5121,
			"count":1034,
			"type":"VEC4"
		},
		{
			"bufferView":34,
			"componentType":5126,
			"count":1034,
			"type":"VEC4"
		},
		{
			"bufferView":35,
			"componentType":5123,
			"count":4608,
			"type":"SCALAR"
		},
		{
			"bufferView":36,
			"componentType":5126,
			"count":304,
			"max":[
				0.03824999928474426,
				1.2648749351501465,
				-0.05250000208616257
			],
			"min":[
				-0.03824999928474426,
				1.2476249933242798,
				-0.06599999964237213
			],
			"type":"VEC3"
		},
		{
			"bufferView":37,
			"componentType":5126,
			"count":304,
			"type":"VEC3"
		},
		{
			"bufferView":38,
			"componentType":5126,
			"count":304,
			"type":"VEC2"
		},
		{
			"bufferView":39,
			"componentType":5121,
			"count":304,
			"type":"VEC4"
		},
		{
			"bufferView":40,
			"componentType":5126,
			"count":304,
			"type":"VEC4"
		},
		{
			"bufferView":41,
			"componentType":5123,
			"count":1152,
			"type":"SCALAR"
		},
		{
			"bufferView":42,
			"componentType":5126,
			"count":220,
			"max":[
				0.032624997198581696,
				1.2635999917984009,
				-0.06091518700122833
			],
			"min":[
				-0.032624997198581696,
				1.2488999366760254,
				-0.06733481585979462
			],
			"type":"VEC3"
		},
		{
			"bufferView":43,
			"componentType":5126,
			"count":220,
			"type":"VEC3"
		},
		{
			"bufferView":44,
			"componentType":5126,
			"count":220,
			"type":"VEC2"
		},
		{
			"bufferView":45,
			"componentType":5121,
			"count":220,
			"type":"VEC4"
		},
		{
			"bufferView":46,
			"componentType":5126,
			"count":220,
			"type":"VEC4"
		},
		{
			"bufferView":47,
			"componentType":5123,
			"count":720,
			"type":"SCALAR"
		},
		{
			"bufferView":48,
			"componentType":5126,
			"count":160,
			"max":[
				0.028495827689766884,
				1.25962495803833,
				-0.06517341732978821
			],
			"min":[
				-0.028495827689766884,
				1.2528750896453857,
				-0.0680265873670578
			],
			"type":"VEC3"
		},
		{
			"bufferView":49,
			"componentType":5126,
			"count":160,
			"type":"VEC3"
		},
		{
			"bufferView":50,
			"componentType":5126,
			"count":160,
			"type":"VEC2"
		},
		{
			"bufferView":51,
			"componentType":5121,
			"count":160,
			"type":"VEC4"
		},
		{
			"bufferView":52,
			"componentType":5126,
			"count":160,
			"type":"VEC4"
		},
		{
			"bufferView":53,
			"componentType":5123,
			"count":480,
			"type":"SCALAR"
		},
		{
			"bufferView":54,
			"componentType":5126,
			"count":98,
			"max":[
				0.014249999076128006,
				1.2056249380111694,
				-0.058290183544158936
			],
			"min":[
				-0.014249999076128006,
				1.1988749504089355,
				-0.06470981985330582
			],
			"type":"VEC3"
		},
		{
			"bufferView":55,
			"componentType":5126,
			"count":98,
			"type":"VEC3"
		},
		{
			"bufferView":56,
			"componentType":5126,
			"count":98,
			"type":"VEC2"
		},
		{
			"bufferView":57,
			"componentType":5121,
			"count":98,
			"type":"VEC4"
		},
		{
			"bufferView":58,
			"componentType":5126,
			"count":98,
			"type":"VEC4"
		},
		{
			"bufferView":59,
			"componentType":5123,
			"count":360,
			"type":"SCALAR"
		},
		{
			"bufferView":60,
			"componentType":5126,
			"count":24,
			"max":[
				0.01875000074505806,
				0.7275000214576721,
				-0.07050000131130219
			],
			"min":[
				-0.01875000074505806,
				0.6974999904632568,
				-0.0794999971985817
			],
			"type":"VEC3"
		},
		{
			"bufferView":61,
			"componentType":5126,
			"count":24,
			"type":"VEC3"
		},
		{
			"bufferView":62,
			"componentType":5126,
			"count":24,
			"type":"VEC2"
		},
		{
			"bufferView":63,
			"componentType":5121,
			"count":24,
			"type":"VEC4"
		},
		{
			"bufferView":64,
			"componentType":5126,
			"count":24,
			"type":"VEC4"
		},
		{
			"bufferView":65,
			"componentType":5123,
			"count":36,
			"type":"SCALAR"
		},
		{
			"bufferView":66,
			"componentType":5126,
			"count":108,
			"max":[
				0.23010000586509705,
				0.5907667875289917,
				-0.06654038280248642
			],
			"min":[
				0.22109998762607574,
				0.3208494186401367,
				-0.6390846371650696
			],
			"type":"VEC3"
		},
		{
			"bufferView":67,
			"componentType":5126,
			"count":108,
			"type":"VEC3"
		},
		{
			"bufferView":68,
			"componentType":5126,
			"count":108,
			"type":"VEC2"
		},
		{
			"bufferView":69,
			"componentType":5121,
			"count":108,
			"type":"VEC4"
		},
		{
			"bufferView":70,
			"componentType":5126,
			"count":108,
			"type":"VEC4"
		},
		{
			"bufferView":71,
			"componentType":5123,
			"count":156,
			"type":"SCALAR"
		},
		{
			"bufferView":72,
			"componentType":5126,
			"count":42,
			"max":[
				0.23759999871253967,
				0.6417204141616821,
				0.054568491876125336
			],
			"min":[
				0.21359999477863312,
				0.5705904960632324,
				-0.06471084803342819
			],
			"type":"VEC3"
		},
		{
			"bufferView":73,
			"componentType":5126,
			"count":42,
			"type":"VEC3"
		},
		{
			"bufferView":74,
			"componentType":5126,
			"count":42,
			"type":"VEC2"
		},
		{
			"bufferView":75,
			"componentType":5121,
			"count":42,
			"type":"VEC4"
		},
		{
			"bufferView":76,
			"componentType":5126,
			"count":42,
			"type":"VEC4"
		},
		{
			"bufferView":77,
			"componentType":5123,
			"count":96,
			"type":"SCALAR"
		},
		{
			"bufferView":78,
			"componentType":5126,
			"count":24,
			"max":[
				0.30059999227523804,
				0.5897058248519897,
				-0.05725087225437164
			],
			"min":[
				0.15060000121593475,
				0.5672058463096619,
				-0.07600087672472
			],
			"type":"VEC3"
		},
		{
			"bufferView":79,
			"componentType":5126,
			"count":24,
			"type":"VEC3"
		},
		{
			"bufferView":80,
			"componentType":5126,
			"count":24,
			"type":"VEC2"
		},
		{
			"bufferView":81,
			"componentType":5121,
			"count":24,
			"type":"VEC4"
		},
		{
			"bufferView":82,
			"componentType":5126,
			"count":24,
			"type":"VEC4"
		},
		{
			"bufferView":83,
			"componentType":5126,
			"count":17,
			"type":"MAT4"
		},
		{
			"bufferView":84,
			"componentType":5126,
			"count":2,
			"max":[
				0.6
			],
			"min":[
				0
			],
			"type":"SCALAR"
		},
		{
			"bufferView":85,
			"componentType":5126,
			"count":2,
			"type":"VEC3"
		},
		{
			"bufferView":86,
			"componentType":5126,
			"count":2,
			"type":"VEC4"
		},
		{
			"bufferView":87,
			"componentType":5126,
			"count":2,
			"type":"VEC3"
		},
		{
			"bufferView":88,
			"componentType":5126,
			"count":2,
			"type":"VEC3"
		},
		{
			"bufferView":89,
			"componentType":5126,
			"count":2,
			"type":"VEC4"
		},
		{
			"bufferView":90,
			"componentType":5126,
			"count":2,
			"type":"VEC3"
		},
		{
			"bufferView":91,
			"componentType":5126,
			"count":2,
			"type":"VEC3"
		},
		{
			"bufferView":92,
			"componentType":5126,
			"count":19,
			"max":[
				0.6
			],
			"min":[
				0
			],
			"type":"SCALAR"
		},
		{
			"bufferView":93,
			"componentType":5126,
			"count":19,
			"type":"VEC4"
		},
		{
			"bufferView":94,
			"componentType":5126,
			"count":2,
			"type":"VEC3"
		},
		{
			"bufferView":95,
			"componentType":5126,
			"count":2,
			"type":"VEC3"
		},
		{
			"bufferView":96,
			"componentType":5126,
			"count":2,
			"type":"VEC4"
		},
		{
			"bufferView":97,
			"componentType":5126,
			"count":2,
			"type":"VEC3"
		},
		{
			"bufferView":98,
			"componentType":5126,
			"count":2,
			"type":"VEC3"
		},
		{
			"bufferView":99,
			"componentType":5126,
			"count":2,
			"type":"VEC4"
		},
		{
			"bufferView":100,
			"componentType":5126,
			"count":2,
			"type":"VEC3"
		},
		{
			"bufferView":101,
			"componentType":5126,
			"count":2,
			"type":"VEC3"
		},
		{
			"bufferView":102,
			"componentType":5126,
			"count":19,
			"type":"VEC4"
		},
		{
			"bufferView":103,
			"componentType":5126,
			"count":2,
			"type":"VEC3"
		},
		{
			"bufferView":104,
			"componentType":5126,
			"count":2,
			"type":"VEC3"
		},
		{
			"bufferView":105,
			"componentType":5126,
			"count":19,
			"type":"VEC4"
		},
		{
			"bufferView":106,
			"componentType":5126,
			"count":2,
			"type":"VEC3"
		},
		{
			"bufferView":107,
			"componentType":5126,
			"count":2,
			"type":"VEC3"
		},
		{
			"bufferView":108,
			"componentType":5126,
			"count":2,
			"type":"VEC4"
		},
		{
			"bufferView":109,
			"componentType":5126,
			"count":2,
			"type":"VEC3"
		},
		{
			"bufferView":110,
			"componentType":5126,
			"count":2,
			"type":"VEC3"
		},
		{
			"bufferView":111,
			"componentType":5126,
			"count":19,
			"type":"VEC4"
		},
		{
			"bufferView":112,
			"componentType":5126,
			"count":2,
			"type":"VEC3"
		},
		{
			"bufferView":113,
			"componentType":5126,
			"count":2,
			"type":"VEC3"
		},
		{
			"bufferView":114,
			"componentType":5126,
			"count":2,
			"type":"VEC4"
		},
		{
			"bufferView":115,
			"componentType":5126,
			"count":2,
			"type":"VEC3"
		},
		{
			"bufferView":116,
			"componentType":5126,
			"count":2,
			"type":"VEC3"
		},
		{
			"bufferView":117,
			"componentType":5126,
			"count":2,
			"type":"VEC4"
		},
		{
			"bufferView":118,
			"componentType":5126,
			"count":2,
			"type":"VEC3"
		},
		{
			"bufferView":119,
			"componentType":5126,
			"count":2,
			"type":"VEC3"
		},
		{
			"bufferView":120,
			"componentType":5126,
			"count":19,
			"type":"VEC4"
		},
		{
			"bufferView":121,
			"componentType":5126,
			"count":2,
			"type":"VEC3"
		},
		{
			"bufferView":122,
			"componentType":5126,
			"count":2,
			"type":"VEC3"
		},
		{
			"bufferView":123,
			"componentType":5126,
			"count":2,
			"type":"VEC4"
		},
		{
			"bufferView":124,
			"componentType":5126,
			"count":2,
			"type":"VEC3"
		},
		{
			"bufferView":125,
			"componentType":5126,
			"count":2,
			"type":"VEC3"
		},
		{
			"bufferView":126,
			"componentType":5126,
			"count":2,
			"type":"VEC4"
		},
		{
			"bufferView":127,
			"componentType":5126,
			"count":2,
			"type":"VEC3"
		},
		{
			"bufferView":128,
			"componentType":5126,
			"count":2,
			"type":"VEC3"
		},
		{
			"bufferView":129,
			"componentType":5126,
			"count":19,
			"type":"VEC4"
		},
		{
			"bufferView":130,
			"componentType":5126,
			"count":2,
			"type":"VEC3"
		},
		{
			"bufferView":131,
			"componentType":5126,
			"count":2,
			"type":"VEC3"
		},
		{
			"bufferView":132,
			"componentType":5126,
			"count":2,
			"type":"VEC4"
		},
		{
			"bufferView":133,
			"componentType":5126,
			"count":2,
			"type":"VEC3"
		},
		{
			"bufferView":134,
			"componentType":5126,
			"count":2,
			"type":"VEC3"
		},
		{
			"bufferView":135,
			"componentType":5126,
			"count":2,
			"type":"VEC4"
		},
		{
			"bufferView":136,
			"componentType":5126,
			"count":2,
			"type":"VEC3"
		},
		{
			"bufferView":137,
			"componentType":5126,
			"count":61,
			"max":[
				2
			],
			"min":[
				0
			],
			"type":"SCALAR"
		},
		{
			"bufferView":138,
			"componentType":5126,
			"count":61,
			"type":"VEC3"
		},
		{
			"bufferView":139,
			"componentType":5126,
			"count":2,
			"max":[
				2
			],
			"min":[
				0
			],
			"type":"SCALAR"
		},
		{
			"bufferView":140,
			"componentType":5126,
			"count":2,
			"type":"VEC4"
		},
		{
			"bufferView":141,
			"componentType":5126,
			"count":2,
			"type":"VEC3"
		},
		{
			"bufferView":142,
			"componentType":5126,
			"count":2,
			"type":"VEC3"
		},
		{
			"bufferView":143,
			"componentType":5126,
			"count":2,
			"type":"VEC4"
		},
		{
			"bufferView":144,
			"componentType":5126,
			"count":2,
			"type":"VEC3"
		},
		{
			"bufferView":145,
			"componentType":5126,
			"count":2,
			"type":"VEC3"
		},
		{
			"bufferView":146,
			"componentType":5126,
			"count":61,
			"type":"VEC4"
		},
		{
			"bufferView":147,
			"componentType":5126,
			"count":2,
			"type":"VEC3"
		},
		{
			"bufferView":148,
			"componentType":5126,
			"count":2,
			"type":"VEC3"
		},
		{
			"bufferView":149,
			"componentType":5126,
			"count":2,
			"type":"VEC4"
		},
		{
			"bufferView":150,
			"componentType":5126,
			"count":2,
			"type":"VEC3"
		},
		{
			"bufferView":151,
			"componentType":5126,
			"count":2,
			"type":"VEC3"
		},
		{
			"bufferView":152,
			"componentType":5126,
			"count":61,
			"type":"VEC4"
		},
		{
			"bufferView":153,
			"componentType":5126,
			"count":2,
			"type":"VEC3"
		},
		{
			"bufferView":154,
			"componentType":5126,
			"count":2,
			"type":"VEC3"
		},
		{
			"bufferView":155,
			"componentType":5126,
			"count":61,
			"type":"VEC4"
		},
		{
			"bufferView":156,
			"componentType":5126,
			"count":2,
			"type":"VEC3"
		},
		{
			"bufferView":157,
			"componentType":5126,
			"count":2,
			"type":"VEC3"
		},
		{
			"bufferView":158,
			"componentType":5126,
			"count":2,
			"type":"VEC4"
		},
		{
			"bufferView":159,
			"componentType":5126,
			"count":2,
			"type":"VEC3"
		},
		{
			"bufferView":160,
			"componentType":5126,
			"count":2,
			"type":"VEC3"
		},
		{
			"bufferView":161,
			"componentType":5126,
			"count":2,
			"type":"VEC4"
		},
		{
			"bufferView":162,
			"componentType":5126,
			"count":2,
			"type":"VEC3"
		},
		{
			"bufferView":163,
			"componentType":5126,
			"count":2,
			"type":"VEC3"
		},
		{
			"bufferView":164,
			"componentType":5126,
			"count":61,
			"type":"VEC4"
		},
		{
			"bufferView":165,
			"componentType":5126,
			"count":2,
			"type":"VEC3"
		},
		{
			"bufferView":166,
			"componentType":5126,
			"count":2,
			"type":"VEC3"
		},
		{
			"bufferView":167,
			"componentType":5126,
			"count":2,
			"type":"VEC4"
		},
		{
			"bufferView":168,
			"componentType":5126,
			"count":2,
			"type":"VEC3"
		},
		{
			"bufferView":169,
			"componentType":5126,
			"count":2,
			"type":"VEC3"
		},
		{
			"bufferView":170,
			"componentType":5126,
			"count":2,
			"type":"VEC4"
		},
		{
			"bufferView":171,
			"componentType":5126,
			"count":2,
			"type":"VEC3"
		},
		{
			"bufferView":172,
			"componentType":5126,
			"count":2,
			"type":"VEC3"
		},
		{
			"bufferView":173,
			"componentType":5126,
			"count":2,
			"type":"VEC4"
		},
		{
			"bufferView":174,
			"componentType":5126,
			"count":2,
			"type":"VEC3"
		},
		{
			"bufferView":175,
			"componentType":5126,
			"count":2,
			"type":"VEC3"
		},
		{
			"bufferView":176,
			"componentType":5126,
			"count":2,
			"type":"VEC4"
		},
		{
			"bufferView":177,
			"componentType":5126,
			"count":2,
			"type":"VEC3"
		},
		{
			"bufferView":178,
			"componentType":5126,
			"count":2,
			"type":"VEC3"
		},
		{
			"bufferView":179,
			"componentType":5126,
			"count":2,
			"type":"VEC4"
		},
		{
			"bufferView":180,
			"componentType":5126,
			"count":2,
			"type":"VEC3"
		},
		{
			"bufferView":181,
			"componentType":5126,
			"count":2,
			"type":"VEC3"
		},
		{
			"bufferView":182,
			"componentType":5126,
			"count":2,
			"type":"VEC4"
		},
		{
			"bufferView":183,
			"componentType":5126,
			"count":2,
			"type":"VEC3"
		},
		{
			"bufferView":184,
			"componentType":5126,
			"count":2,
			"type":"VEC3"
		},
		{
			"bufferView":185,
			"componentType":5126,
			"count":2,
			"type":"VEC4"
		},
		{
			"bufferView":186,
			"componentType":5126,
			"count":2,
			"type":"VEC3"
		},
		{
			"bufferView":187,
			"componentType":5126,
			"count":2,
			"type":"VEC3"
		},
		{
			"bufferView":188,
			"componentType":5126,
			"count":2,
			"type":"VEC4"
		},
		{
			"bufferView":189,
			"componentType":5126,
			"count":2,
			"type":"VEC3"
		},
		{
			"bufferView":190,
			"componentType":5126,
			"count":31,
			"max":[
				1
			],
			"min":[
				0
			],
			"type":"SCALAR"
		},
		{
			"bufferView":191,
			"componentType":5126,
			"count":31,
			"type":"VEC3"
		},
		{
			"bufferView":192,
			"componentType":5126,
			"count":31,
			"type":"VEC4"
		},
		{
			"bufferView":193,
			"componentType":5126,
			"count":2,
			"max":[
				1
			],
			"min":[
				0
			],
			"type":"SCALAR"
		},
		{
			"bufferView":194,
			"componentType":5126,
			"count":2,
			"type":"VEC3"
		},
		{
			"bufferView":195,
			"componentType":5126,
			"count":2,
			"type":"VEC3"
		},
		{
			"bufferView":196,
			"componentType":5126,
			"count":2,
			"type":"VEC4"
		},
		{
			"bufferView":197,
			"componentType":5126,
			"count":2,
			"type":"VEC3"
		},
		{
			"bufferView":198,
			"componentType":5126,
			"count":2,
			"type":"VEC3"
		},
		{
			"bufferView":199,
			"componentType":5126,
			"count":31,
			"type":"VEC4"
		},
		{
			"bufferView":200,
			"componentType":5126,
			"count":2,
			"type":"VEC3"
		},
		{
			"bufferView":201,
			"componentType":5126,
			"count":2,
			"type":"VEC3"
		},
		{
			"bufferView":202,
			"componentType":5126,
			"count":2,
			"type":"VEC4"
		},
		{
			"bufferView":203,
			"componentType":5126,
			"count":2,
			"type":"VEC3"
		},
		{
			"bufferView":204,
			"componentType":5126,
			"count":2,
			"type":"VEC3"
		},
		{
			"bufferView":205,
			"componentType":5126,
			"count":2,
			"type":"VEC4"
		},
		{
			"bufferView":206,
			"componentType":5126,
			"count":2,
			"type":"VEC3"
		},
		{
			"bufferView":207,
			"componentType":5126,
			"count":2,
			"type":"VEC3"
		},
		{
			"bufferView":208,
			"componentType":5126,
			"count":31,
			"type":"VEC4"
		},
		{
			"bufferView":209,
			"componentType":5126,
			"count":2,
			"type":"VEC3"
		},
		{
			"bufferView":210,
			"componentType":5126,
			"count":2,
			"type":"VEC3"
		},
		{
			"bufferView":211,
			"componentType":5126,
			"count":2,
			"type":"VEC4"
		},
		{
			"bufferView":212,
			"componentType":5126,
			"count":2,
			"type":"VEC3"
		},
		{
			"bufferView":213,
			"componentType":5126,
			"count":2,
			"type":"VEC3"
		},
		{
			"bufferView":214,
			"componentType":5126,
			"count":2,
			"type":"VEC4"
		},
		{
			"bufferView":215,
			"componentType":5126,
			"count":2,
			"type":"VEC3"
		},
		{
			"bufferView":216,
			"componentType":5126,
			"count":2,
			"type":"VEC3"
		},
		{
			"bufferView":217,
			"componentType":5126,
			"count":31,
			"type":"VEC4"
		},
		{
			"bufferView":218,
			"componentType":5126,
			"count":2,
			"type":"VEC3"
		},
		{
			"bufferView":219,
			"componentType":5126,
			"count":2,
			"type":"VEC3"
		},
		{
			"bufferView":220,
			"componentType":5126,
			"count":2,
			"type":"VEC4"
		},
		{
			"bufferView":221,
			"componentType":5126,
			"count":2,
			"type":"VEC3"
		},
		{
			"bufferView":222,
			"componentType":5126,
			"count":2,
			"type":"VEC3"
		},
		{
			"bufferView":223,
			"componentType":5126,
			"count":2,
			"type":"VEC4"
		},
		{
			"bufferView":224,
			"componentType":5126,
			"count":2,
			"type":"VEC3"
		},
		{
			"bufferView":225,
			"componentType":5126,
			"count":2,
			"type":"VEC3"
		},
		{
			"bufferView":226,
			"componentType":5126,
			"count":31,
			"type":"VEC4"
		},
		{
			"bufferView":227,
			"componentType":5126,
			"count":2,
			"type":"VEC3"
		},
		{
			"bufferView":228,
			"componentType":5126,
			"count":2,
			"type":"VEC3"
		},
		{
			"bufferView":229,
			"componentType":5126,
			"count":31,
			"type":"VEC4"
		},
		{
			"bufferView":230,
			"componentType":5126,
			"count":2,
			"type":"VEC3"
		},
		{
			"bufferView":231,
			"componentType":5126,
			"count":2,
			"type":"VEC3"
		},
		{
			"bufferView":232,
			"componentType":5126,
			"count":31,
			"type":"VEC4"
		},
		{
			"bufferView":233,
			"componentType":5126,
			"count":2,
			"type":"VEC3"
		},
		{
			"bufferView":234,
			"componentType":5126,
			"count":2,
			"type":"VEC3"
		},
		{
			"bufferView":235,
			"componentType":5126,
			"count":31,
			"type":"VEC4"
		},
		{
			"bufferView":236,
			"componentType":5126,
			"count":2,
			"type":"VEC3"
		},
		{
			"bufferView":237,
			"componentType":5126,
			"count":2,
			"type":"VEC3"
		},
		{
			"bufferView":238,
			"componentType":5126,
			"count":31,
			"type":"VEC4"
		},
		{
			"bufferView":239,
			"componentType":5126,
			"count":2,
			"type":"VEC3"
		},
		{
			"bufferView":240,
			"componentType":5126,
			"count":2,
			"type":"VEC3"
		},
		{
			"bufferView":241,
			"componentType":5126,
			"count":31,
			"type":"VEC4"
		},
		{
			"bufferView":242,
			"componentType":5126,
			"count":2,
			"type":"VEC3"
		}
	],
	"bufferViews":[
		{
			"buffer":0,
			"byteLength":17244,
			"byteOffset":0,
			"target":34962
		},
		{
			"buffer":0,
			"byteLength":17244,
			"byteOffset":17244,
			"target":34962
		},
		{
			"buffer":0,
			"byteLength":11496,
			"byteOffset":34488,
			"target":34962
		},
		{
			"buffer":0,
			"byteLength":5748,
			"byteOffset":45984,
			"target":34962
		},
		{
			"buffer":0,
			"byteLength":22992,
			"byteOffset":51732,
			"target":34962
		},
		{
			"buffer":0,
			"byteLength":11736,
			"byteOffset":74724,
			"target":34963
		},
		{
			"buffer":0,
			"byteLength":31836,
			"byteOffset":86460,
			"target":34962
		},
		{
			"buffer":0,
			"byteLength":31836,
			"byteOffset":118296,
			"target":34962
		},
		{
			"buffer":0,
			"byteLength":21224,
			"byteOffset":150132,
			"target":34962
		},
		{
			"buffer":0,
			"byteLength":10612,
			"byteOffset":171356,
			"target":34962
		},
		{
			"buffer":0,
			"byteLength":42448,
			"byteOffset":181968,
			"target":34962
		},
		{
			"buffer":0,
			"byteLength":16656,
			"byteOffset":224416,
			"target":34963
		},
		{
			"buffer":0,
			"byteLength":17532,
			"byteOffset":241072,
			"target":34962
		},
		{
			"buffer":0,
			"byteLength":17532,
			"byteOffset":258604,
			"target":34962
		},
		{
			"buffer":0,
			"byteLength":11688,
			"byteOffset":276136,
			"target":34962
		},
		{
			"buffer":0,
			"byteLength":5844,
			"byteOffset":287824,
			"target":34962
		},
		{
			"buffer":0,
			"byteLength":23376,
			"byteOffset":293668,
			"target":34962
		},
		{
			"buffer":0,
			"byteLength":13296,
			"byteOffset":317044,
			"target":34963
		},
		{
			"buffer":0,
			"byteLength":780,
			"byteOffset":330340,
			"target":34962
		},
		{
			"buffer":0,
			"byteLength":780,
			"byteOffset":331120,
			"target":34962
		},
		{
			"buffer":0,
			"byteLength":520,
			"byteOffset":331900,
			"target":34962
		},
		{
			"buffer":0,
			"byteLength":260,
			"byteOffset":332420,
			"target":34962
		},
		{
			"buffer":0,
			"byteLength":1040,
			"byteOffset":332680,
			"target":34962
		},
		{
			"buffer":0,
			"byteLength":384,
			"byteOffset":333720,
			"target":34963
		},
		{
			"buffer":0,
			"byteLength":11724,
			"byteOffset":334104,
			"target":34962
		},
		{
			"buffer":0,
			"byteLength":11724,
			"byteOffset":345828,
			"target":34962
		},
		{
			"buffer":0,
			"byteLength":7816,
			"byteOffset":357552,
			"target":34962
		},
		{
			"buffer":0,
			"byteLength":3908,
			"byteOffset":365368,
			"target":34962
		},
		{
			"buffer":0,
			"byteLength":15632,
			"byteOffset":369276,
			"target":34962
		},
		{
			"buffer":0,
			"byteLength":8664,
			"byteOffset":384908,
			"target":34963
		},
		{
			"buffer":0,
			"byteLength":12408,
			"byteOffset":393572,
			"target":34962
		},
		{
			"buffer":0,
			"byteLength":12408,
			"byteOffset":405980,
			"target":34962
		},
		{
			"buffer":0,
			"byteLength":8272,
			"byteOffset":418388,
			"target":34962
		},
		{
			"buffer":0,
			"byteLength":4136,
			"byteOffset":426660,
			"target":34962
		},
		{
			"buffer":0,
			"byteLength":16544,
			"byteOffset":430796,
			"target":34962
		},
		{
			"buffer":0,
			"byteLength":9216,
			"byteOffset":447340,
			"target":34963
		},
		{
			"buffer":0,
			"byteLength":3648,
			"byteOffset":456556,
			"target":34962
		},
		{
			"buffer":0,
			"byteLength":3648,
			"byteOffset":460204,
			"target":34962
		},
		{
			"buffer":0,
			"byteLength":2432,
			"byteOffset":463852,
			"target":34962
		},
		{
			"buffer":0,
			"byteLength":1216,
			"byteOffset":466284,
			"target":34962
		},
		{
			"buffer":0,
			"byteLength":4864,
			"byteOffset":467500,
			"target":34962
		},
		{
			"buffer":0,
			"byteLength":2304,
			"byteOffset":472364,
			"target":34963
		},
		{
			"buffer":0,
			"byteLength":2640,
			"byteOffset":474668,
			"target":34962
		},
		{
			"buffer":0,
			"byteLength":2640,
			"byteOffset":477308,
			"target":34962
		},
		{
			"buffer":0,
			"byteLength":1760,
			"byteOffset":479948,
			"target":34962
		},
		{
			"buffer":0,
			"byteLength":880,
			"byteOffset":481708,
			"target":34962
		},
		{
			"buffer":0,
			"byteLength":3520,
			"byteOffset":482588,
			"target":34962
		},
		{
			"buffer":0,
			"byteLength":1440,
			"byteOffset":486108,
			"target":34963
		},
		{
			"buffer":0,
			"byteLength":1920,
			"byteOffset":487548,
			"target":34962
		},
		{
			"buffer":0,
			"byteLength":1920,
			"byteOffset":489468,
			"target":34962
		},
		{
			"buffer":0,
			"byteLength":1280,
			"byteOffset":491388,
			"target":34962
		},
		{
			"buffer":0,
			"byteLength":640,
			"byteOffset":492668,
			"target":34962
		},
		{
			"buffer":0,
			"byteLength":2560,
			"byteOffset":493308,
			"target":34962
		},
		{
			"buffer":0,
			"byteLength":960,
			"byteOffset":495868,
			"target":34963
		},
		{
			"buffer":0,
			"byteLength":1176,
			"byteOffset":496828,
			"target":34962
		},
		{
			"buffer":0,
			"byteLength":1176,
			"byteOffset":498004,
			"target":34962
		},
		{
			"buffer":0,
			"byteLength":784,
			"byteOffset":499180,
			"target":34962
		},
		{
			"buffer":0,
			"byteLength":392,
			"byteOffset":499964,
			"target":34962
		},
		{
			"buffer":0,
			"byteLength":1568,
			"byteOffset":500356,
			"target":34962
		},
		{
			"buffer":0,
			"byteLength":720,
			"byteOffset":501924,
			"target":34963
		},
		{
			"buffer":0,
			"byteLength":288,
			"byteOffset":502644,
			"target":34962
		},
		{
			"buffer":0,
			"byteLength":288,
			"byteOffset":502932,
			"target":34962
		},
		{
			"buffer":0,
			"byteLength":192,
			"byteOffset":503220,
			"target":34962
		},
		{
			"buffer":0,
			"byteLength":96,
			"byteOffset":503412,
			"target":34962
		},
		{
			"buffer":0,
			"byteLength":384,
			"byteOffset":503508,
			"target":34962
		},
		{
			"buffer":0,
			"byteLength":72,
			"byteOffset":503892,
			"target":34963
		},
		{
			"buffer":0,
			"byteLength":1296,
			"byteOffset":503964,
			"target":34962
		},
		{
			"buffer":0,
			"byteLength":1296,
			"byteOffset":505260,
			"target":34962
		},
		{
			"buffer":0,
			"byteLength":864,
			"byteOffset":506556,
			"target":34962
		},
		{
			"buffer":0,
			"byteLength":432,
			"byteOffset":507420,
			"target":34962
		},
		{
			"buffer":0,
			"byteLength":1728,
			"byteOffset":507852,
			"target":34962
		},
		{
			"buffer":0,
			"byteLength":312,
			"byteOffset":509580,
			"target":34963
		},
		{
			"buffer":0,
			"byteLength":504,
			"byteOffset":509892,
			"target":34962
		},
		{
			"buffer":0,
			"byteLength":504,
			"byteOffset":510396,
			"target":34962
		},
		{
			"buffer":0,
			"byteLength":336,
			"byteOffset":510900,
			"target":34962
		},
		{
			"buffer":0,
			"byteLength":168,
			"byteOffset":511236,
			"target":34962
		},
		{
			"buffer":0,
			"byteLength":672,
			"byteOffset":511404,
			"target":34962
		},
		{
			"buffer":0,
			"byteLength":192,
			"byteOffset":512076,
			"target":34963
		},
		{
			"buffer":0,
			"byteLength":288,
			"byteOffset":512268,
			"target":34962
		},
		{
			"buffer":0,
			"byteLength":288,
			"byteOffset":512556,
			"target":34962
		},
		{
			"buffer":0,
			"byteLength":192,
			"byteOffset":512844,
			"target":34962
		},
		{
			"buffer":0,
			"byteLength":96,
			"byteOffset":513036,
			"target":34962
		},
		{
			"buffer":0,
			"byteLength":384,
			"byteOffset":513132,
			"target":34962
		},
		{
			"buffer":0,
			"byteLength":1088,
			"byteOffset":513516
		},
		{
			"buffer":0,
			"byteLength":8,
			"byteOffset":514604
		},
		{
			"buffer":0,
			"byteLength":24,
			"byteOffset":514612
		},
		{
			"buffer":0,
			"byteLength":32,
			"byteOffset":514636
		},
		{
			"buffer":0,
			"byteLength":24,
			"byteOffset":514668
		},
		{
			"buffer":0,
			"byteLength":24,
			"byteOffset":514692
		},
		{
			"buffer":0,
			"byteLength":32,
			"byteOffset":514716
		},
		{
			"buffer":0,
			"byteLength":24,
			"byteOffset":514748
		},
		{
			"buffer":0,
			"byteLength":24,
			"byteOffset":514772
		},
		{
			"buffer":0,
			"byteLength":76,
			"byteOffset":514796
		},
		{
			"buffer":0,
			"byteLength":304,
			"byteOffset":514872
		},
		{
			"buffer":0,
			"byteLength":24,
			"byteOffset":515176
		},
		{
			"buffer":0,
			"byteLength":24,
			"byteOffset":515200
		},
		{
			"buffer":0,
			"byteLength":32,
			"byteOffset":515224
		},
		{
			"buffer":0,
			"byteLength":24,
			"byteOffset":515256
		},
		{
			"buffer":0,
			"byteLength":24,
			"byteOffset":515280
		},
		{
			"buffer":0,
			"byteLength":32,
			"byteOffset":515304
		},
		{
			"buffer":0,
			"byteLength":24,
			"byteOffset":515336
		},
		{
			"buffer":0,
			"byteLength":24,
			"byteOffset":515360
		},
		{
			"buffer":0,
			"byteLength":304,
			"byteOffset":515384
		},
		{
			"buffer":0,
			"byteLength":24,
			"byteOffset":515688
		},
		{
			"buffer":0,
			"byteLength":24,
			"byteOffset":515712
		},
		{
			"buffer":0,
			"byteLength":304,
			"byteOffset":515736
		},
		{
			"buffer":0,
			"byteLength":24,
			"byteOffset":516040
		},
		{
			"buffer":0,
			"byteLength":24,
			"byteOffset":516064
		},
		{
			"buffer":0,
			"byteLength":32,
			"byteOffset":516088
		},
		{
			"buffer":0,
			"byteLength":24,
			"byteOffset":516120
		},
		{
			"buffer":0,
			"byteLength":24,
			"byteOffset":516144
		},
		{
			"buffer":0,
			"byteLength":304,
			"byteOffset":516168
		},
		{
			"buffer":0,
			"byteLength":24,
			"byteOffset":516472
		},
		{
			"buffer":0,
			"byteLength":24,
			"byteOffset":516496
		},
		{
			"buffer":0,
			"byteLength":32,
			"byteOffset":516520
		},
		{
			"buffer":0,
			"byteLength":24,
			"byteOffset":516552
		},
		{
			"buffer":0,
			"byteLength":24,
			"byteOffset":516576
		},
		{
			"buffer":0,
			"byteLength":32,
			"byteOffset":516600
		},
		{
			"buffer":0,
			"byteLength":24,
			"byteOffset":516632
		},
		{
			"buffer":0,
			"byteLength":24,
			"byteOffset":516656
		},
		{
			"buffer":0,
			"byteLength":304,
			"byteOffset":516680
		},
		{
			"buffer":0,
			"byteLength":24,
			"byteOffset":516984
		},
		{
			"buffer":0,
			"byteLength":24,
			"byteOffset":517008
		},
		{
			"buffer":0,
			"byteLength":32,
			"byteOffset":517032
		},
		{
			"buffer":0,
			"byteLength":24,
			"byteOffset":517064
		},
		{
			"buffer":0,
			"byteLength":24,
			"byteOffset":517088
		},
		{
			"buffer":0,
			"byteLength":32,
			"byteOffset":517112
		},
		{
			"buffer":0,
			"byteLength":24,
			"byteOffset":517144
		},
		{
			"buffer":0,
			"byteLength":24,
			"byteOffset":517168
		},
		{
			"buffer":0,
			"byteLength":304,
			"byteOffset":517192
		},
		{
			"buffer":0,
			"byteLength":24,
			"byteOffset":517496
		},
		{
			"buffer":0,
			"byteLength":24,
			"byteOffset":517520
		},
		{
			"buffer":0,
			"byteLength":32,
			"byteOffset":517544
		},
		{
			"buffer":0,
			"byteLength":24,
			"byteOffset":517576
		},
		{
			"buffer":0,
			"byteLength":24,
			"byteOffset":517600
		},
		{
			"buffer":0,
			"byteLength":32,
			"byteOffset":517624
		},
		{
			"buffer":0,
			"byteLength":24,
			"byteOffset":517656
		},
		{
			"buffer":0,
			"byteLength":244,
			"byteOffset":517680
		},
		{
			"buffer":0,
			"byteLength":732,
			"byteOffset":517924
		},
		{
			"buffer":0,
			"byteLength":8,
			"byteOffset":518656
		},
		{
			"buffer":0,
			"byteLength":32,
			"byteOffset":518664
		},
		{
			"buffer":0,
			"byteLength":24,
			"byteOffset":518696
		},
		{
			"buffer":0,
			"byteLength":24,
			"byteOffset":518720
		},
		{
			"buffer":0,
			"byteLength":32,
			"byteOffset":518744
		},
		{
			"buffer":0,
			"byteLength":24,
			"byteOffset":518776
		},
		{
			"buffer":0,
			"byteLength":24,
			"byteOffset":518800
		},
		{
			"buffer":0,
			"byteLength":976,
			"byteOffset":518824
		},
		{
			"buffer":0,
			"byteLength":24,
			"byteOffset":519800
		},
		{
			"buffer":0,
			"byteLength":24,
			"byteOffset":519824
		},
		{
			"buffer":0,
			"byteLength":32,
			"byteOffset":519848
		},
		{
			"buffer":0,
			"byteLength":24,
			"byteOffset":519880
		},
		{
			"buffer":0,
			"byteLength":24,
			"byteOffset":519904
		},
		{
			"buffer":0,
			"byteLength":976,
			"byteOffset":519928
		},
		{
			"buffer":0,
			"byteLength":24,
			"byteOffset":520904
		},
		{
			"buffer":0,
			"byteLength":24,
			"byteOffset":520928
		},
		{
			"buffer":0,
			"byteLength":976,
			"byteOffset":520952
		},
		{
			"buffer":0,
			"byteLength":24,
			"byteOffset":521928
		},
		{
			"buffer":0,
			"byteLength":24,
			"byteOffset":521952
		},
		{
			"buffer":0,
			"byteLength":32,
			"byteOffset":521976
		},
		{
			"buffer":0,
			"byteLength":24,
			"byteOffset":522008
		},
		{
			"buffer":0,
			"byteLength":24,
			"byteOffset":522032
		},
		{
			"buffer":0,
			"byteLength":32,
			"byteOffset":522056
		},
		{
			"buffer":0,
			"byteLength":24,
			"byteOffset":522088
		},
		{
			"buffer":0,
			"byteLength":24,
			"byteOffset":522112
		},
		{
			"buffer":0,
			"byteLength":976,
			"byteOffset":522136
		},
		{
			"buffer":0,
			"byteLength":24,
			"byteOffset":523112
		},
		{
			"buffer":0,
			"byteLength":24,
			"byteOffset":523136
		},
		{
			"buffer":0,
			"byteLength":32,
			"byteOffset":523160
		},
		{
			"buffer":0,
			"byteLength":24,
			"byteOffset":523192
		},
		{
			"buffer":0,
			"byteLength":24,
			"byteOffset":523216
		},
		{
			"buffer":0,
			"byteLength":32,
			"byteOffset":523240
		},
		{
			"buffer":0,
			"byteLength":24,
			"byteOffset":523272
		},
		{
			"buffer":0,
			"byteLength":24,
			"byteOffset":523296
		},
		{
			"buffer":0,
			"byteLength":32,
			"byteOffset":523320
		},
		{
			"buffer":0,
			"byteLength":24,
			"byteOffset":523352
		},
		{
			"buffer":0,
			"byteLength":24,
			"byteOffset":523376
		},
		{
			"buffer":0,
			"byteLength":32,
			"byteOffset":523400
		},
		{
			"buffer":0,
			"byteLength":24,
			"byteOffset":523432
		},
		{
			"buffer":0,
			"byteLength":24,
			"byteOffset":523456
		},
		{
			"buffer":0,
			"byteLength":32,
			"byteOffset":523480
		},
		{
			"buffer":0,
			"byteLength":24,
			"byteOffset":523512
		},
		{
			"buffer":0,
			"byteLength":24,
			"byteOffset":523536
		},
		{
			"buffer":0,
			"byteLength":32,
			"byteOffset":523560
		},
		{
			"buffer":0,
			"byteLength":24,
			"byteOffset":523592
		},
		{
			"buffer":0,
			"byteLength":24,
			"byteOffset":523616
		},
		{
			"buffer":0,
			"byteLength":32,
			"byteOffset":523640
		},
		{
			"buffer":0,
			"byteLength":24,
			"byteOffset":523672
		},
		{
			"buffer":0,
			"byteLength":24,
			"byteOffset":523696
		},
		{
			"buffer":0,
			"byteLength":32,
			"byteOffset":523720
		},
		{
			"buffer":0,
			"byteLength":24,
			"byteOffset":523752
		},
		{
			"buffer":0,
			"byteLength":124,
			"byteOffset":523776
		},
		{
			"buffer":0,
			"byteLength":372,
			"byteOffset":523900
		},
		{
			"buffer":0,
			"byteLength":496,
			"byteOffset":524272
		},
		{
			"buffer":0,
			"byteLength":8,
			"byteOffset":524768
		},
		{
			"buffer":0,
			"byteLength":24,
			"byteOffset":524776
		},
		{
			"buffer":0,
			"byteLength":24,
			"byteOffset":524800
		},
		{
			"buffer":0,
			"byteLength":32,
			"byteOffset":524824
		},
		{
			"buffer":0,
			"byteLength":24,
			"byteOffset":524856
		},
		{
			"buffer":0,
			"byteLength":24,
			"byteOffset":524880
		},
		{
			"buffer":0,
			"byteLength":496,
			"byteOffset":524904
		},
		{
			"buffer":0,
			"byteLength":24,
			"byteOffset":525400
		},
		{
			"buffer":0,
			"byteLength":24,
			"byteOffset":525424
		},
		{
			"buffer":0,
			"byteLength":32,
			"byteOffset":525448
		},
		{
			"buffer":0,
			"byteLength":24,
			"byteOffset":525480
		},
		{
			"buffer":0,
			"byteLength":24,
			"byteOffset":525504
		},
		{
			"buffer":0,
			"byteLength":32,
			"byteOffset":525528
		},
		{
			"buffer":0,
			"byteLength":24,
			"byteOffset":525560
		},
		{
			"buffer":0,
			"byteLength":24,
			"byteOffset":525584
		},
		{
			"buffer":0,
			"byteLength":496,
			"byteOffset":525608
		},
		{
			"buffer":0,
			"byteLength":24,
			"byteOffset":526104
		},
		{
			"buffer":0,
			"byteLength":24,
			"byteOffset":526128
		},
		{
			"buffer":0,
			"byteLength":32,
			"byteOffset":526152
		},
		{
			"buffer":0,
			"byteLength":24,
			"byteOffset":526184
		},
		{
			"buffer":0,
			"byteLength":24,
			"byteOffset":526208
		},
		{
			"buffer":0,
			"byteLength":32,
			"byteOffset":526232
		},
		{
			"buffer":0,
			"byteLength":24,
			"byteOffset":526264
		},
		{
			"buffer":0,
			"byteLength":24,
			"byteOffset":526288
		},
		{
			"buffer":0,
			"byteLength":496,
			"byteOffset":526312
		},
		{
			"buffer":0,
			"byteLength":24,
			"byteOffset":526808
		},
		{
			"buffer":0,
			"byteLength":24,
			"byteOffset":526832
		},
		{
			"buffer":0,
			"byteLength":32,
			"byteOffset":526856
		},
		{
			"buffer":0,
			"byteLength":24,
			"byteOffset":526888
		},
		{
			"buffer":0,
			"byteLength":24,
			"byteOffset":526912
		},
		{
			"buffer":0,
			"byteLength":32,
			"byteOffset":526936
		},
		{
			"buffer":0,
			"byteLength":24,
			"byteOffset":526968
		},
		{
			"buffer":0,
			"byteLength":24,
			"byteOffset":526992
		},
		{
			"buffer":0,
			"byteLength":496,
			"byteOffset":527016
		},
		{
			"buffer":0,
			"byteLength":24,
			"byteOffset":527512
		},
		{
			"buffer":0,
			"byteLength":24,
			"byteOffset":527536
		},
		{
			"buffer":0,
			"byteLength":496,
			"byteOffset":527560
		},
		{
			"buffer":0,
			"byteLength":24,
			"byteOffset":528056
		},
		{
			"buffer":0,
			"byteLength":24,
			"byteOffset":528080
		},
		{
			"buffer":0,
			"byteLength":496,
			"byteOffset":528104
		},
		{
			"buffer":0,
			"byteLength":24,
			"byteOffset":528600
		},
		{
			"buffer":0,
			"byteLength":24,
			"byteOffset":528624
		},
		{
			"buffer":0,
			"byteLength":496,
			"byteOffset":528648
		},
		{
			"buffer":0,
			"byteLength":24,
			"byteOffset":529144
		},
		{
			"buffer":0,
			"byteLength":24,
			"byteOffset":529168
		},
		{
			"buffer":0,
			"byteLength":496,
			"byteOffset":529192
		},
		{
			"buffer":0,
			"byteLength":24,
			"byteOffset":529688
		},
		{
			"buffer":0,
			"byteLength":24,
			"byteOffset":529712
		},
		{
			"buffer":0,
			"byteLength":496,
			"byteOffset":529736
		},
		{
			"buffer":0,
			"byteLength":24,
			"byteOffset":530232
		}
	],
	"samplers":[
		{
			"magFilter":9729,
			"minFilter":9987
		}
	],
	"buffers":[
		{
			"byteLength":530256,
			"uri":"gobta.bin"
		}
	]
}
