{
	"asset":{
		"generator":"Khronos glTF Blender I/O v4.2.57",
		"version":"2.0"
	},
	"extensionsUsed":[
		"KHR_materials_clearcoat",
		"KHR_materials_sheen"
	],
	"scene":0,
	"scenes":[
		{
			"name":"Scene",
			"nodes":[
				18
			]
		}
	],
	"nodes":[
		{
			"name":"head",
			"translation":[
				0,
				0.11500000953674316,
				0
			]
		},
		{
			"children":[
				0
			],
			"name":"neck",
			"translation":[
				0,
				0.2415001392364502,
				0
			]
		},
		{
			"name":"hand.R",
			"rotation":[
				-0.002831913996487856,
				-0.02058548852801323,
				0.022130083292722702,
				0.9995391368865967
			],
			"scale":[
				1,
				1,
				0.9999999403953552
			],
			"translation":[
				1.932494342327118e-08,
				0.2894861400127411,
				1.0244548320770264e-08
			]
		},
		{
			"children":[
				2
			],
			"name":"forearm.R",
			"rotation":[
				0.047868020832538605,
				-0.060739461332559586,
				0.07015372067689896,
				0.9945339560508728
			],
			"scale":[
				1.0000001192092896,
				1,
				1
			],
			"translation":[
				4.7963112592697144e-08,
				0.31774312257766724,
				-1.4901161193847656e-08
			]
		},
		{
			"children":[
				3
			],
			"name":"upper_arm.R",
			"rotation":[
				0.988559901714325,
				0.10654305666685104,
				0.1065424308180809,
				0.006823011673986912
			],
			"scale":[
				1.000004529953003,
				1.0000003576278687,
				1.0000001192092896
			],
			"translation":[
				0.2484000027179718,
				0.18400001525878906,
				0
			]
		},
		{
			"name":"hand.L",
			"rotation":[
				-0.002831913996487856,
				0.02058548852801323,
				-0.022130083292722702,
				0.9995391368865967
			],
			"scale":[
				1,
				1,
				0.9999999403953552
			],
			"translation":[
				-1.932494342327118e-08,
				0.2894861400127411,
				1.0244548320770264e-08
			]
		},
		{
			"children":[
				5
			],
			"name":"forearm.L",
			"rotation":[
				0.047868020832538605,
				0.060739461332559586,
				-0.07015372067689896,
				0.9945339560508728
			],
			"scale":[
				1.0000001192092896,
				1,
				1
			],
			"translation":[
				-4.7963112592697144e-08,
				0.31774312257766724,
				-1.4901161193847656e-08
			]
		},
		{
			"children":[
				6
			],
			"name":"upper_arm.L",
			"rotation":[
				0.988559901714325,
				-0.10654305666685104,
				-0.1065424308180809,
				0.006823011673986912
			],
			"scale":[
				1.000004529953003,
				1.0000003576278687,
				1.0000001192092896
			],
			"translation":[
				-0.2484000027179718,
				0.18400001525878906,
				0
			]
		},
		{
			"children":[
				1,
				4,
				7
			],
			"name":"chest",
			"scale":[
				1,
				0.9999999403953552,
				1
			],
			"translation":[
				0,
				0.19550001621246338,
				0
			]
		},
		{
			"children":[
				8
			],
			"name":"spine",
			"translation":[
				0,
				0.17250001430511475,
				0
			]
		},
		{
			"name":"foot.R",
			"rotation":[
				0.5914180874824524,
				-1.1232965668739325e-09,
				1.6179043660358161e-09,
				0.8063651323318481
			],
			"translation":[
				-7.255582801235505e-09,
				0.47217822074890137,
				3.8714098593573e-10
			]
		},
		{
			"children":[
				10
			],
			"name":"shin.R",
			"rotation":[
				-0.04151010513305664,
				-0.009864665567874908,
				0.009349515661597252,
				0.9990456700325012
			],
			"scale":[
				0.9999999403953552,
				1,
				1
			],
			"translation":[
				-1.1874362826347351e-08,
				0.47179165482521057,
				-1.862645149230957e-09
			]
		},
		{
			"children":[
				11
			],
			"name":"thigh.R",
			"rotation":[
				-0.9997993111610413,
				-0.009610534645617008,
				-0.009610606357455254,
				0.014720415696501732
			],
			"scale":[
				1,
				1.0000001192092896,
				1.000000238418579
			],
			"translation":[
				0.10579999536275864,
				-0.023000001907348633,
				0
			]
		},
		{
			"name":"foot.L",
			"rotation":[
				0.5914180874824524,
				1.1232965668739325e-09,
				-1.6179043660358161e-09,
				0.8063651323318481
			],
			"translation":[
				7.255582801235505e-09,
				0.47217822074890137,
				3.8714098593573e-10
			]
		},
		{
			"children":[
				13
			],
			"name":"shin.L",
			"rotation":[
				-0.04151010513305664,
				0.009864665567874908,
				-0.009349515661597252,
				0.9990456700325012
			],
			"scale":[
				0.9999999403953552,
				1,
				1
			],
			"translation":[
				1.1874362826347351e-08,
				0.47179165482521057,
				-1.862645149230957e-09
			]
		},
		{
			"children":[
				14
			],
			"name":"thigh.L",
			"rotation":[
				-0.9997993111610413,
				0.009610534645617008,
				0.009610606357455254,
				0.014720415696501732
			],
			"scale":[
				1,
				1.0000001192092896,
				1.000000238418579
			],
			"translation":[
				-0.10579999536275864,
				-0.023000001907348633,
				0
			]
		},
		{
			"children":[
				9,
				12,
				15
			],
			"name":"hips",
			"translation":[
				0,
				1.0694999694824219,
				0
			]
		},
		{
			"mesh":0,
			"name":"guy",
			"skin":0
		},
		{
			"children":[
				17,
				16
			],
			"name":"guy_rig"
		}
	],
	"animations":[
		{
			"channels":[
				{
					"sampler":0,
					"target":{
						"node":16,
						"path":"translation"
					}
				},
				{
					"sampler":1,
					"target":{
						"node":16,
						"path":"rotation"
					}
				},
				{
					"sampler":2,
					"target":{
						"node":16,
						"path":"scale"
					}
				},
				{
					"sampler":3,
					"target":{
						"node":9,
						"path":"translation"
					}
				},
				{
					"sampler":4,
					"target":{
						"node":9,
						"path":"rotation"
					}
				},
				{
					"sampler":5,
					"target":{
						"node":9,
						"path":"scale"
					}
				},
				{
					"sampler":6,
					"target":{
						"node":8,
						"path":"translation"
					}
				},
				{
					"sampler":7,
					"target":{
						"node":8,
						"path":"rotation"
					}
				},
				{
					"sampler":8,
					"target":{
						"node":8,
						"path":"scale"
					}
				},
				{
					"sampler":9,
					"target":{
						"node":1,
						"path":"translation"
					}
				},
				{
					"sampler":10,
					"target":{
						"node":1,
						"path":"rotation"
					}
				},
				{
					"sampler":11,
					"target":{
						"node":1,
						"path":"scale"
					}
				},
				{
					"sampler":12,
					"target":{
						"node":0,
						"path":"translation"
					}
				},
				{
					"sampler":13,
					"target":{
						"node":0,
						"path":"rotation"
					}
				},
				{
					"sampler":14,
					"target":{
						"node":0,
						"path":"scale"
					}
				},
				{
					"sampler":15,
					"target":{
						"node":4,
						"path":"translation"
					}
				},
				{
					"sampler":16,
					"target":{
						"node":4,
						"path":"rotation"
					}
				},
				{
					"sampler":17,
					"target":{
						"node":4,
						"path":"scale"
					}
				},
				{
					"sampler":18,
					"target":{
						"node":3,
						"path":"translation"
					}
				},
				{
					"sampler":19,
					"target":{
						"node":3,
						"path":"rotation"
					}
				},
				{
					"sampler":20,
					"target":{
						"node":3,
						"path":"scale"
					}
				},
				{
					"sampler":21,
					"target":{
						"node":2,
						"path":"translation"
					}
				},
				{
					"sampler":22,
					"target":{
						"node":2,
						"path":"rotation"
					}
				},
				{
					"sampler":23,
					"target":{
						"node":2,
						"path":"scale"
					}
				},
				{
					"sampler":24,
					"target":{
						"node":7,
						"path":"translation"
					}
				},
				{
					"sampler":25,
					"target":{
						"node":7,
						"path":"rotation"
					}
				},
				{
					"sampler":26,
					"target":{
						"node":7,
						"path":"scale"
					}
				},
				{
					"sampler":27,
					"target":{
						"node":6,
						"path":"translation"
					}
				},
				{
					"sampler":28,
					"target":{
						"node":6,
						"path":"rotation"
					}
				},
				{
					"sampler":29,
					"target":{
						"node":6,
						"path":"scale"
					}
				},
				{
					"sampler":30,
					"target":{
						"node":5,
						"path":"translation"
					}
				},
				{
					"sampler":31,
					"target":{
						"node":5,
						"path":"rotation"
					}
				},
				{
					"sampler":32,
					"target":{
						"node":5,
						"path":"scale"
					}
				},
				{
					"sampler":33,
					"target":{
						"node":12,
						"path":"translation"
					}
				},
				{
					"sampler":34,
					"target":{
						"node":12,
						"path":"rotation"
					}
				},
				{
					"sampler":35,
					"target":{
						"node":12,
						"path":"scale"
					}
				},
				{
					"sampler":36,
					"target":{
						"node":11,
						"path":"translation"
					}
				},
				{
					"sampler":37,
					"target":{
						"node":11,
						"path":"rotation"
					}
				},
				{
					"sampler":38,
					"target":{
						"node":11,
						"path":"scale"
					}
				},
				{
					"sampler":39,
					"target":{
						"node":10,
						"path":"translation"
					}
				},
				{
					"sampler":40,
					"target":{
						"node":10,
						"path":"rotation"
					}
				},
				{
					"sampler":41,
					"target":{
						"node":10,
						"path":"scale"
					}
				},
				{
					"sampler":42,
					"target":{
						"node":15,
						"path":"translation"
					}
				},
				{
					"sampler":43,
					"target":{
						"node":15,
						"path":"rotation"
					}
				},
				{
					"sampler":44,
					"target":{
						"node":15,
						"path":"scale"
					}
				},
				{
					"sampler":45,
					"target":{
						"node":14,
						"path":"translation"
					}
				},
				{
					"sampler":46,
					"target":{
						"node":14,
						"path":"rotation"
					}
				},
				{
					"sampler":47,
					"target":{
						"node":14,
						"path":"scale"
					}
				},
				{
					"sampler":48,
					"target":{
						"node":13,
						"path":"translation"
					}
				},
				{
					"sampler":49,
					"target":{
						"node":13,
						"path":"rotation"
					}
				},
				{
					"sampler":50,
					"target":{
						"node":13,
						"path":"scale"
					}
				}
			],
			"name":"attack",
			"samplers":[
				{
					"input":79,
					"interpolation":"STEP",
					"output":80
				},
				{
					"input":79,
					"interpolation":"STEP",
					"output":81
				},
				{
					"input":79,
					"interpolation":"STEP",
					"output":82
				},
				{
					"input":79,
					"interpolation":"STEP",
					"output":83
				},
				{
					"input":79,
					"interpolation":"STEP",
					"output":84
				},
				{
					"input":79,
					"interpolation":"STEP",
					"output":85
				},
				{
					"input":79,
					"interpolation":"STEP",
					"output":86
				},
				{
					"input":87,
					"interpolation":"LINEAR",
					"output":88
				},
				{
					"input":79,
					"interpolation":"STEP",
					"output":89
				},
				{
					"input":79,
					"interpolation":"STEP",
					"output":90
				},
				{
					"input":79,
					"interpolation":"STEP",
					"output":91
				},
				{
					"input":79,
					"interpolation":"STEP",
					"output":92
				},
				{
					"input":79,
					"interpolation":"STEP",
					"output":93
				},
				{
					"input":79,
					"interpolation":"STEP",
					"output":94
				},
				{
					"input":79,
					"interpolation":"STEP",
					"output":95
				},
				{
					"input":79,
					"interpolation":"STEP",
					"output":96
				},
				{
					"input":87,
					"interpolation":"LINEAR",
					"output":97
				},
				{
					"input":79,
					"interpolation":"STEP",
					"output":98
				},
				{
					"input":79,
					"interpolation":"LINEAR",
					"output":99
				},
				{
					"input":87,
					"interpolation":"LINEAR",
					"output":100
				},
				{
					"input":79,
					"interpolation":"STEP",
					"output":101
				},
				{
					"input":79,
					"interpolation":"LINEAR",
					"output":102
				},
				{
					"input":79,
					"interpolation":"LINEAR",
					"output":103
				},
				{
					"input":79,
					"interpolation":"STEP",
					"output":104
				},
				{
					"input":79,
					"interpolation":"STEP",
					"output":105
				},
				{
					"input":87,
					"interpolation":"LINEAR",
					"output":106
				},
				{
					"input":79,
					"interpolation":"STEP",
					"output":107
				},
				{
					"input":79,
					"interpolation":"STEP",
					"output":108
				},
				{
					"input":79,
					"interpolation":"STEP",
					"output":109
				},
				{
					"input":79,
					"interpolation":"STEP",
					"output":110
				},
				{
					"input":79,
					"interpolation":"STEP",
					"output":111
				},
				{
					"input":79,
					"interpolation":"STEP",
					"output":112
				},
				{
					"input":79,
					"interpolation":"STEP",
					"output":113
				},
				{
					"input":79,
					"interpolation":"STEP",
					"output":114
				},
				{
					"input":87,
					"interpolation":"LINEAR",
					"output":115
				},
				{
					"input":79,
					"interpolation":"STEP",
					"output":116
				},
				{
					"input":79,
					"interpolation":"LINEAR",
					"output":117
				},
				{
					"input":79,
					"interpolation":"LINEAR",
					"output":118
				},
				{
					"input":79,
					"interpolation":"STEP",
					"output":119
				},
				{
					"input":79,
					"interpolation":"LINEAR",
					"output":120
				},
				{
					"input":79,
					"interpolation":"LINEAR",
					"output":121
				},
				{
					"input":79,
					"interpolation":"STEP",
					"output":122
				},
				{
					"input":79,
					"interpolation":"STEP",
					"output":123
				},
				{
					"input":87,
					"interpolation":"LINEAR",
					"output":124
				},
				{
					"input":79,
					"interpolation":"STEP",
					"output":125
				},
				{
					"input":79,
					"interpolation":"LINEAR",
					"output":126
				},
				{
					"input":79,
					"interpolation":"LINEAR",
					"output":127
				},
				{
					"input":79,
					"interpolation":"STEP",
					"output":128
				},
				{
					"input":79,
					"interpolation":"LINEAR",
					"output":129
				},
				{
					"input":79,
					"interpolation":"LINEAR",
					"output":130
				},
				{
					"input":79,
					"interpolation":"STEP",
					"output":131
				}
			]
		},
		{
			"channels":[
				{
					"sampler":0,
					"target":{
						"node":16,
						"path":"translation"
					}
				},
				{
					"sampler":1,
					"target":{
						"node":16,
						"path":"rotation"
					}
				},
				{
					"sampler":2,
					"target":{
						"node":16,
						"path":"scale"
					}
				},
				{
					"sampler":3,
					"target":{
						"node":9,
						"path":"translation"
					}
				},
				{
					"sampler":4,
					"target":{
						"node":9,
						"path":"rotation"
					}
				},
				{
					"sampler":5,
					"target":{
						"node":9,
						"path":"scale"
					}
				},
				{
					"sampler":6,
					"target":{
						"node":8,
						"path":"translation"
					}
				},
				{
					"sampler":7,
					"target":{
						"node":8,
						"path":"rotation"
					}
				},
				{
					"sampler":8,
					"target":{
						"node":8,
						"path":"scale"
					}
				},
				{
					"sampler":9,
					"target":{
						"node":1,
						"path":"translation"
					}
				},
				{
					"sampler":10,
					"target":{
						"node":1,
						"path":"rotation"
					}
				},
				{
					"sampler":11,
					"target":{
						"node":1,
						"path":"scale"
					}
				},
				{
					"sampler":12,
					"target":{
						"node":0,
						"path":"translation"
					}
				},
				{
					"sampler":13,
					"target":{
						"node":0,
						"path":"rotation"
					}
				},
				{
					"sampler":14,
					"target":{
						"node":0,
						"path":"scale"
					}
				},
				{
					"sampler":15,
					"target":{
						"node":4,
						"path":"translation"
					}
				},
				{
					"sampler":16,
					"target":{
						"node":4,
						"path":"rotation"
					}
				},
				{
					"sampler":17,
					"target":{
						"node":4,
						"path":"scale"
					}
				},
				{
					"sampler":18,
					"target":{
						"node":3,
						"path":"translation"
					}
				},
				{
					"sampler":19,
					"target":{
						"node":3,
						"path":"rotation"
					}
				},
				{
					"sampler":20,
					"target":{
						"node":3,
						"path":"scale"
					}
				},
				{
					"sampler":21,
					"target":{
						"node":2,
						"path":"translation"
					}
				},
				{
					"sampler":22,
					"target":{
						"node":2,
						"path":"rotation"
					}
				},
				{
					"sampler":23,
					"target":{
						"node":2,
						"path":"scale"
					}
				},
				{
					"sampler":24,
					"target":{
						"node":7,
						"path":"translation"
					}
				},
				{
					"sampler":25,
					"target":{
						"node":7,
						"path":"rotation"
					}
				},
				{
					"sampler":26,
					"target":{
						"node":7,
						"path":"scale"
					}
				},
				{
					"sampler":27,
					"target":{
						"node":6,
						"path":"translation"
					}
				},
				{
					"sampler":28,
					"target":{
						"node":6,
						"path":"rotation"
					}
				},
				{
					"sampler":29,
					"target":{
						"node":6,
						"path":"scale"
					}
				},
				{
					"sampler":30,
					"target":{
						"node":5,
						"path":"translation"
					}
				},
				{
					"sampler":31,
					"target":{
						"node":5,
						"path":"rotation"
					}
				},
				{
					"sampler":32,
					"target":{
						"node":5,
						"path":"scale"
					}
				},
				{
					"sampler":33,
					"target":{
						"node":12,
						"path":"translation"
					}
				},
				{
					"sampler":34,
					"target":{
						"node":12,
						"path":"rotation"
					}
				},
				{
					"sampler":35,
					"target":{
						"node":12,
						"path":"scale"
					}
				},
				{
					"sampler":36,
					"target":{
						"node":11,
						"path":"translation"
					}
				},
				{
					"sampler":37,
					"target":{
						"node":11,
						"path":"rotation"
					}
				},
				{
					"sampler":38,
					"target":{
						"node":11,
						"path":"scale"
					}
				},
				{
					"sampler":39,
					"target":{
						"node":10,
						"path":"translation"
					}
				},
				{
					"sampler":40,
					"target":{
						"node":10,
						"path":"rotation"
					}
				},
				{
					"sampler":41,
					"target":{
						"node":10,
						"path":"scale"
					}
				},
				{
					"sampler":42,
					"target":{
						"node":15,
						"path":"translation"
					}
				},
				{
					"sampler":43,
					"target":{
						"node":15,
						"path":"rotation"
					}
				},
				{
					"sampler":44,
					"target":{
						"node":15,
						"path":"scale"
					}
				},
				{
					"sampler":45,
					"target":{
						"node":14,
						"path":"translation"
					}
				},
				{
					"sampler":46,
					"target":{
						"node":14,
						"path":"rotation"
					}
				},
				{
					"sampler":47,
					"target":{
						"node":14,
						"path":"scale"
					}
				},
				{
					"sampler":48,
					"target":{
						"node":13,
						"path":"translation"
					}
				},
				{
					"sampler":49,
					"target":{
						"node":13,
						"path":"rotation"
					}
				},
				{
					"sampler":50,
					"target":{
						"node":13,
						"path":"scale"
					}
				}
			],
			"name":"idle",
			"samplers":[
				{
					"input":132,
					"interpolation":"LINEAR",
					"output":133
				},
				{
					"input":134,
					"interpolation":"STEP",
					"output":135
				},
				{
					"input":134,
					"interpolation":"STEP",
					"output":136
				},
				{
					"input":134,
					"interpolation":"STEP",
					"output":137
				},
				{
					"input":134,
					"interpolation":"STEP",
					"output":138
				},
				{
					"input":134,
					"interpolation":"STEP",
					"output":139
				},
				{
					"input":134,
					"interpolation":"STEP",
					"output":140
				},
				{
					"input":132,
					"interpolation":"LINEAR",
					"output":141
				},
				{
					"input":134,
					"interpolation":"STEP",
					"output":142
				},
				{
					"input":134,
					"interpolation":"STEP",
					"output":143
				},
				{
					"input":134,
					"interpolation":"STEP",
					"output":144
				},
				{
					"input":134,
					"interpolation":"STEP",
					"output":145
				},
				{
					"input":134,
					"interpolation":"STEP",
					"output":146
				},
				{
					"input":132,
					"interpolation":"LINEAR",
					"output":147
				},
				{
					"input":134,
					"interpolation":"STEP",
					"output":148
				},
				{
					"input":134,
					"interpolation":"STEP",
					"output":149
				},
				{
					"input":132,
					"interpolation":"LINEAR",
					"output":150
				},
				{
					"input":134,
					"interpolation":"STEP",
					"output":151
				},
				{
					"input":134,
					"interpolation":"STEP",
					"output":152
				},
				{
					"input":134,
					"interpolation":"STEP",
					"output":153
				},
				{
					"input":134,
					"interpolation":"STEP",
					"output":154
				},
				{
					"input":134,
					"interpolation":"STEP",
					"output":155
				},
				{
					"input":134,
					"interpolation":"STEP",
					"output":156
				},
				{
					"input":134,
					"interpolation":"STEP",
					"output":157
				},
				{
					"input":134,
					"interpolation":"STEP",
					"output":158
				},
				{
					"input":132,
					"interpolation":"LINEAR",
					"output":159
				},
				{
					"input":134,
					"interpolation":"STEP",
					"output":160
				},
				{
					"input":134,
					"interpolation":"STEP",
					"output":161
				},
				{
					"input":134,
					"interpolation":"STEP",
					"output":162
				},
				{
					"input":134,
					"interpolation":"STEP",
					"output":163
				},
				{
					"input":134,
					"interpolation":"STEP",
					"output":164
				},
				{
					"input":134,
					"interpolation":"STEP",
					"output":165
				},
				{
					"input":134,
					"interpolation":"STEP",
					"output":166
				},
				{
					"input":134,
					"interpolation":"STEP",
					"output":167
				},
				{
					"input":134,
					"interpolation":"STEP",
					"output":168
				},
				{
					"input":134,
					"interpolation":"STEP",
					"output":169
				},
				{
					"input":134,
					"interpolation":"STEP",
					"output":170
				},
				{
					"input":134,
					"interpolation":"STEP",
					"output":171
				},
				{
					"input":134,
					"interpolation":"STEP",
					"output":172
				},
				{
					"input":134,
					"interpolation":"STEP",
					"output":173
				},
				{
					"input":134,
					"interpolation":"STEP",
					"output":174
				},
				{
					"input":134,
					"interpolation":"STEP",
					"output":175
				},
				{
					"input":134,
					"interpolation":"STEP",
					"output":176
				},
				{
					"input":134,
					"interpolation":"STEP",
					"output":177
				},
				{
					"input":134,
					"interpolation":"STEP",
					"output":178
				},
				{
					"input":134,
					"interpolation":"STEP",
					"output":179
				},
				{
					"input":134,
					"interpolation":"STEP",
					"output":180
				},
				{
					"input":134,
					"interpolation":"STEP",
					"output":181
				},
				{
					"input":134,
					"interpolation":"STEP",
					"output":182
				},
				{
					"input":134,
					"interpolation":"STEP",
					"output":183
				},
				{
					"input":134,
					"interpolation":"STEP",
					"output":184
				}
			]
		},
		{
			"channels":[
				{
					"sampler":0,
					"target":{
						"node":16,
						"path":"translation"
					}
				},
				{
					"sampler":1,
					"target":{
						"node":16,
						"path":"rotation"
					}
				},
				{
					"sampler":2,
					"target":{
						"node":16,
						"path":"scale"
					}
				},
				{
					"sampler":3,
					"target":{
						"node":9,
						"path":"translation"
					}
				},
				{
					"sampler":4,
					"target":{
						"node":9,
						"path":"rotation"
					}
				},
				{
					"sampler":5,
					"target":{
						"node":9,
						"path":"scale"
					}
				},
				{
					"sampler":6,
					"target":{
						"node":8,
						"path":"translation"
					}
				},
				{
					"sampler":7,
					"target":{
						"node":8,
						"path":"rotation"
					}
				},
				{
					"sampler":8,
					"target":{
						"node":8,
						"path":"scale"
					}
				},
				{
					"sampler":9,
					"target":{
						"node":1,
						"path":"translation"
					}
				},
				{
					"sampler":10,
					"target":{
						"node":1,
						"path":"rotation"
					}
				},
				{
					"sampler":11,
					"target":{
						"node":1,
						"path":"scale"
					}
				},
				{
					"sampler":12,
					"target":{
						"node":0,
						"path":"translation"
					}
				},
				{
					"sampler":13,
					"target":{
						"node":0,
						"path":"rotation"
					}
				},
				{
					"sampler":14,
					"target":{
						"node":0,
						"path":"scale"
					}
				},
				{
					"sampler":15,
					"target":{
						"node":4,
						"path":"translation"
					}
				},
				{
					"sampler":16,
					"target":{
						"node":4,
						"path":"rotation"
					}
				},
				{
					"sampler":17,
					"target":{
						"node":4,
						"path":"scale"
					}
				},
				{
					"sampler":18,
					"target":{
						"node":3,
						"path":"translation"
					}
				},
				{
					"sampler":19,
					"target":{
						"node":3,
						"path":"rotation"
					}
				},
				{
					"sampler":20,
					"target":{
						"node":3,
						"path":"scale"
					}
				},
				{
					"sampler":21,
					"target":{
						"node":2,
						"path":"translation"
					}
				},
				{
					"sampler":22,
					"target":{
						"node":2,
						"path":"rotation"
					}
				},
				{
					"sampler":23,
					"target":{
						"node":2,
						"path":"scale"
					}
				},
				{
					"sampler":24,
					"target":{
						"node":7,
						"path":"translation"
					}
				},
				{
					"sampler":25,
					"target":{
						"node":7,
						"path":"rotation"
					}
				},
				{
					"sampler":26,
					"target":{
						"node":7,
						"path":"scale"
					}
				},
				{
					"sampler":27,
					"target":{
						"node":6,
						"path":"translation"
					}
				},
				{
					"sampler":28,
					"target":{
						"node":6,
						"path":"rotation"
					}
				},
				{
					"sampler":29,
					"target":{
						"node":6,
						"path":"scale"
					}
				},
				{
					"sampler":30,
					"target":{
						"node":5,
						"path":"translation"
					}
				},
				{
					"sampler":31,
					"target":{
						"node":5,
						"path":"rotation"
					}
				},
				{
					"sampler":32,
					"target":{
						"node":5,
						"path":"scale"
					}
				},
				{
					"sampler":33,
					"target":{
						"node":12,
						"path":"translation"
					}
				},
				{
					"sampler":34,
					"target":{
						"node":12,
						"path":"rotation"
					}
				},
				{
					"sampler":35,
					"target":{
						"node":12,
						"path":"scale"
					}
				},
				{
					"sampler":36,
					"target":{
						"node":11,
						"path":"translation"
					}
				},
				{
					"sampler":37,
					"target":{
						"node":11,
						"path":"rotation"
					}
				},
				{
					"sampler":38,
					"target":{
						"node":11,
						"path":"scale"
					}
				},
				{
					"sampler":39,
					"target":{
						"node":10,
						"path":"translation"
					}
				},
				{
					"sampler":40,
					"target":{
						"node":10,
						"path":"rotation"
					}
				},
				{
					"sampler":41,
					"target":{
						"node":10,
						"path":"scale"
					}
				},
				{
					"sampler":42,
					"target":{
						"node":15,
						"path":"translation"
					}
				},
				{
					"sampler":43,
					"target":{
						"node":15,
						"path":"rotation"
					}
				},
				{
					"sampler":44,
					"target":{
						"node":15,
						"path":"scale"
					}
				},
				{
					"sampler":45,
					"target":{
						"node":14,
						"path":"translation"
					}
				},
				{
					"sampler":46,
					"target":{
						"node":14,
						"path":"rotation"
					}
				},
				{
					"sampler":47,
					"target":{
						"node":14,
						"path":"scale"
					}
				},
				{
					"sampler":48,
					"target":{
						"node":13,
						"path":"translation"
					}
				},
				{
					"sampler":49,
					"target":{
						"node":13,
						"path":"rotation"
					}
				},
				{
					"sampler":50,
					"target":{
						"node":13,
						"path":"scale"
					}
				}
			],
			"name":"walk",
			"samplers":[
				{
					"input":185,
					"interpolation":"LINEAR",
					"output":186
				},
				{
					"input":185,
					"interpolation":"LINEAR",
					"output":187
				},
				{
					"input":188,
					"interpolation":"STEP",
					"output":189
				},
				{
					"input":188,
					"interpolation":"STEP",
					"output":190
				},
				{
					"input":188,
					"interpolation":"STEP",
					"output":191
				},
				{
					"input":188,
					"interpolation":"STEP",
					"output":192
				},
				{
					"input":188,
					"interpolation":"STEP",
					"output":193
				},
				{
					"input":185,
					"interpolation":"LINEAR",
					"output":194
				},
				{
					"input":188,
					"interpolation":"STEP",
					"output":195
				},
				{
					"input":188,
					"interpolation":"STEP",
					"output":196
				},
				{
					"input":188,
					"interpolation":"STEP",
					"output":197
				},
				{
					"input":188,
					"interpolation":"STEP",
					"output":198
				},
				{
					"input":188,
					"interpolation":"STEP",
					"output":199
				},
				{
					"input":188,
					"interpolation":"STEP",
					"output":200
				},
				{
					"input":188,
					"interpolation":"STEP",
					"output":201
				},
				{
					"input":188,
					"interpolation":"STEP",
					"output":202
				},
				{
					"input":185,
					"interpolation":"LINEAR",
					"output":203
				},
				{
					"input":188,
					"interpolation":"STEP",
					"output":204
				},
				{
					"input":188,
					"interpolation":"STEP",
					"output":205
				},
				{
					"input":188,
					"interpolation":"STEP",
					"output":206
				},
				{
					"input":188,
					"interpolation":"STEP",
					"output":207
				},
				{
					"input":188,
					"interpolation":"STEP",
					"output":208
				},
				{
					"input":188,
					"interpolation":"STEP",
					"output":209
				},
				{
					"input":188,
					"interpolation":"STEP",
					"output":210
				},
				{
					"input":188,
					"interpolation":"STEP",
					"output":211
				},
				{
					"input":185,
					"interpolation":"LINEAR",
					"output":212
				},
				{
					"input":188,
					"interpolation":"STEP",
					"output":213
				},
				{
					"input":188,
					"interpolation":"STEP",
					"output":214
				},
				{
					"input":188,
					"interpolation":"STEP",
					"output":215
				},
				{
					"input":188,
					"interpolation":"STEP",
					"output":216
				},
				{
					"input":188,
					"interpolation":"STEP",
					"output":217
				},
				{
					"input":188,
					"interpolation":"STEP",
					"output":218
				},
				{
					"input":188,
					"interpolation":"STEP",
					"output":219
				},
				{
					"input":188,
					"interpolation":"STEP",
					"output":220
				},
				{
					"input":185,
					"interpolation":"LINEAR",
					"output":221
				},
				{
					"input":188,
					"interpolation":"STEP",
					"output":222
				},
				{
					"input":188,
					"interpolation":"STEP",
					"output":223
				},
				{
					"input":185,
					"interpolation":"LINEAR",
					"output":224
				},
				{
					"input":188,
					"interpolation":"STEP",
					"output":225
				},
				{
					"input":188,
					"interpolation":"STEP",
					"output":226
				},
				{
					"input":185,
					"interpolation":"LINEAR",
					"output":227
				},
				{
					"input":188,
					"interpolation":"STEP",
					"output":228
				},
				{
					"input":188,
					"interpolation":"STEP",
					"output":229
				},
				{
					"input":185,
					"interpolation":"LINEAR",
					"output":230
				},
				{
					"input":188,
					"interpolation":"STEP",
					"output":231
				},
				{
					"input":188,
					"interpolation":"STEP",
					"output":232
				},
				{
					"input":185,
					"interpolation":"LINEAR",
					"output":233
				},
				{
					"input":188,
					"interpolation":"STEP",
					"output":234
				},
				{
					"input":188,
					"interpolation":"STEP",
					"output":235
				},
				{
					"input":185,
					"interpolation":"LINEAR",
					"output":236
				},
				{
					"input":188,
					"interpolation":"STEP",
					"output":237
				}
			]
		}
	],
	"materials":[
		{
			"name":"skin",
			"normalTexture":{
				"index":0,
				"scale":0.4000000059604645
			},
			"pbrMetallicRoughness":{
				"baseColorFactor":[
					0.8900054097175598,
					0.7484140992164612,
					0.6920710802078247,
					1
				],
				"metallicFactor":0,
				"roughnessFactor":0.550000011920929
			}
		},
		{
			"extensions":{
				"KHR_materials_sheen":{
					"sheenColorFactor":[
						1.0,
						1.0,
						1.0
					],
					"sheenRoughnessFactor":0.5
				}
			},
			"name":"hair",
			"normalTexture":{
				"index":1,
				"scale":0.800000011920929
			},
			"pbrMetallicRoughness":{
				"baseColorFactor":[
					0.6920710802078247,
					0.003935939632356167,
					0.010022825561463833,
					1
				],
				"metallicFactor":0,
				"roughnessFactor":0.44999998807907104
			}
		},
		{
			"extensions":{
				"KHR_materials_sheen":{
					"sheenColorFactor":[
						1.0,
						1.0,
						1.0
					],
					"sheenRoughnessFactor":0.5
				}
			},
			"name":"outfit",
			"normalTexture":{
				"index":2,
				"scale":0.6000000238418579
			},
			"pbrMetallicRoughness":{
				"baseColorFactor":[
					0.31854677200317383,
					0.003935939632356167,
					0.007194409146904945,
					1
				],
				"metallicFactor":0,
				"roughnessFactor":0.75
			}
		},
		{
			"name":"outfit2",
			"normalTexture":{
				"index":3,
				"scale":0.4000000059604645
			},
			"pbrMetallicRoughness":{
				"baseColorFactor":[
					0.8900054097175598,
					0.7874122858047485,
					0.6920710802078247,
					1
				],
				"metallicFactor":0,
				"roughnessFactor":0.6000000238418579
			}
		},
		{
			"name":"pants",
			"normalTexture":{
				"index":4,
				"scale":0.6000000238418579
			},
			"pbrMetallicRoughness":{
				"baseColorFactor":[
					0.1473190039396286,
					0.0027089782524853945,
					0.004497480113059282,
					1
				],
				"metallicFactor":0,
				"roughnessFactor":0.800000011920929
			}
		},
		{
			"extensions":{
				"KHR_materials_clearcoat":{
					"clearcoatFactor":0.30000001192092896
				}
			},
			"name":"boots",
			"normalTexture":{
				"index":5,
				"scale":0.800000011920929
			},
			"pbrMetallicRoughness":{
				"baseColorFactor":[
					0.0134117491543293,
					0.010022825561463833,
					0.010022825561463833,
					1
				],
				"metallicFactor":0,
				"roughnessFactor":0.44999998807907104
			}
		},
		{
			"name":"eye_white",
			"pbrMetallicRoughness":{
				"baseColorFactor":[
					0.8900054097175598,
					0.8900054097175598,
					0.8900054097175598,
					1
				],
				"metallicFactor":0,
				"roughnessFactor":0.20000000298023224
			}
		},
		{
			"emissiveFactor":[
				0.6000000238418579,
				0.36229642877167123,
				0.006013695575841083
			],
			"name":"iris",
			"pbrMetallicRoughness":{
				"baseColorFactor":[
					1,
					0.6038273572921753,
					0.010022825561463833,
					1
				],
				"metallicFactor":0,
				"roughnessFactor":0.15000000596046448
			}
		},
		{
			"name":"pupil",
			"pbrMetallicRoughness":{
				"baseColorFactor":[
					0.0015479875728487968,
					0.0015479875728487968,
					0.0023219813592731953,
					1
				],
				"metallicFactor":0,
				"roughnessFactor":0.10000000149011612
			}
		},
		{
			"name":"lips",
			"pbrMetallicRoughness":{
				"baseColorFactor":[
					0.3997533321380615,
					0.33754226565361023,
					0.3127419650554657,
					1
				],
				"metallicFactor":0,
				"roughnessFactor":0.4000000059604645
			}
		},
		{
			"doubleSided":true,
			"extensions":{
				"KHR_materials_sheen":{
					"sheenColorFactor":[
						1.0,
						1.0,
						1.0
					],
					"sheenRoughnessFactor":0.5
				}
			},
			"name":"coat",
			"normalTexture":{
				"index":6,
				"scale":0.699999988079071
			},
			"pbrMetallicRoughness":{
				"baseColorFactor":[
					0.31854677200317383,
					0.003935939632356167,
					0.007194409146904945,
					1
				],
				"metallicFactor":0,
				"roughnessFactor":0.699999988079071
			}
		},
		{
			"doubleSided":true,
			"name":"collar",
			"pbrMetallicRoughness":{
				"baseColorFactor":[
					0.8900054097175598,
					0.7874122858047485,
					0.6920710802078247,
					1
				],
				"metallicFactor":0,
				"roughnessFactor":0.6000000238418579
			}
		},
		{
			"name":"buckle",
			"pbrMetallicRoughness":{
				"baseColorFactor":[
					0.6920710802078247,
					0.4479884207248688,
					0.07323895394802094,
					1
				],
				"metallicFactor":0.8999999761581421,
				"roughnessFactor":0.30000001192092896
			}
		}
	],
	"meshes":[
		{
			"name":"guy",
			"primitives":[
				{
					"attributes":{
						"POSITION":0,
						"NORMAL":1,
						"TEXCOORD_0":2,
						"JOINTS_0":3,
						"WEIGHTS_0":4
					},
					"indices":5,
					"material":0
				},
				{
					"attributes":{
						"POSITION":6,
						"NORMAL":7,
						"TEXCOORD_0":8,
						"JOINTS_0":9,
						"WEIGHTS_0":10
					},
					"indices":11,
					"material":1
				},
				{
					"attributes":{
						"POSITION":12,
						"NORMAL":13,
						"TEXCOORD_0":14,
						"JOINTS_0":15,
						"WEIGHTS_0":16
					},
					"indices":17,
					"material":2
				},
				{
					"attributes":{
						"POSITION":18,
						"NORMAL":19,
						"TEXCOORD_0":20,
						"JOINTS_0":21,
						"WEIGHTS_0":22
					},
					"indices":23,
					"material":3
				},
				{
					"attributes":{
						"POSITION":24,
						"NORMAL":25,
						"TEXCOORD_0":26,
						"JOINTS_0":27,
						"WEIGHTS_0":28
					},
					"indices":29,
					"material":4
				},
				{
					"attributes":{
						"POSITION":30,
						"NORMAL":31,
						"TEXCOORD_0":32,
						"JOINTS_0":33,
						"WEIGHTS_0":34
					},
					"indices":35,
					"material":5
				},
				{
					"attributes":{
						"POSITION":36,
						"NORMAL":37,
						"TEXCOORD_0":38,
						"JOINTS_0":39,
						"WEIGHTS_0":40
					},
					"indices":41,
					"material":6
				},
				{
					"attributes":{
						"POSITION":42,
						"NORMAL":43,
						"TEXCOORD_0":44,
						"JOINTS_0":45,
						"WEIGHTS_0":46
					},
					"indices":47,
					"material":7
				},
				{
					"attributes":{
						"POSITION":48,
						"NORMAL":49,
						"TEXCOORD_0":50,
						"JOINTS_0":51,
						"WEIGHTS_0":52
					},
					"indices":53,
					"material":8
				},
				{
					"attributes":{
						"POSITION":54,
						"NORMAL":55,
						"TEXCOORD_0":56,
						"JOINTS_0":57,
						"WEIGHTS_0":58
					},
					"indices":59,
					"material":9
				},
				{
					"attributes":{
						"POSITION":60,
						"NORMAL":61,
						"TEXCOORD_0":62,
						"JOINTS_0":63,
						"WEIGHTS_0":64
					},
					"indices":65,
					"material":10
				},
				{
					"attributes":{
						"POSITION":66,
						"NORMAL":67,
						"TEXCOORD_0":68,
						"JOINTS_0":69,
						"WEIGHTS_0":70
					},
					"indices":71,
					"material":11
				},
				{
					"attributes":{
						"POSITION":72,
						"NORMAL":73,
						"TEXCOORD_0":74,
						"JOINTS_0":75,
						"WEIGHTS_0":76
					},
					"indices":77,
					"material":12
				}
			]
		}
	],
	"textures":[
		{
			"sampler":0,
			"source":0
		},
		{
			"sampler":0,
			"source":1
		},
		{
			"sampler":0,
			"source":2
		},
		{
			"sampler":0,
			"source":2
		},
		{
			"sampler":0,
			"source":2
		},
		{
			"sampler":0,
			"source":3
		},
		{
			"sampler":0,
			"source":2
		}
	],
	"images":[
		{
			"mimeType":"image/png",
			"name":"N_skin",
			"uri":"texturas/N_skin.png"
		},
		{
			"mimeType":"image/png",
			"name":"N_hair",
			"uri":"texturas/N_hair.png"
		},
		{
			"mimeType":"image/png",
			"name":"N_cloth",
			"uri":"texturas/N_cloth.png"
		},
		{
			"mimeType":"image/png",
			"name":"N_leather",
			"uri":"texturas/N_leather.png"
		}
	],
	"skins":[
		{
			"inverseBindMatrices":78,
			"joints":[
				16,
				9,
				8,
				1,
				0,
				4,
				3,
				2,
				7,
				6,
				5,
				12,
				11,
				10,
				15,
				14,
				13
			],
			"name":"guy_rig"
		}
	],
	"accessors":[
		{
			"bufferView":0,
			"componentType":5126,
			"count":1437,
			"max":[
				0.3689350485801697,
				2.0515999794006348,
				0.12329444289207458
			],
			"min":[
				-0.3689350485801697,
				0.9021381139755249,
				-0.1334882378578186
			],
			"type":"VEC3"
		},
		{
			"bufferView":1,
			"componentType":5126,
			"count":1437,
			"type":"VEC3"
		},
		{
			"bufferView":2,
			"componentType":5126,
			"count":1437,
			"type":"VEC2"
		},
		{
			"bufferView":3,
			"componentType":5121,
			"count":1437,
			"type":"VEC4"
		},
		{
			"bufferView":4,
			"componentType":5126,
			"count":1437,
			"type":"VEC4"
		},
		{
			"bufferView":5,
			"componentType":5123,
			"count":5868,
			"type":"SCALAR"
		},
		{
			"bufferView":6,
			"componentType":5126,
			"count":2972,
			"max":[
				0.15863768756389618,
				2.083962917327881,
				0.21967212855815887
			],
			"min":[
				-0.15871833264827728,
				1.1468957662582397,
				-0.13811446726322174
			],
			"type":"VEC3"
		},
		{
			"bufferView":7,
			"componentType":5126,
			"count":2972,
			"type":"VEC3"
		},
		{
			"bufferView":8,
			"componentType":5126,
			"count":2972,
			"type":"VEC2"
		},
		{
			"bufferView":9,
			"componentType":5121,
			"count":2972,
			"type":"VEC4"
		},
		{
			"bufferView":10,
			"componentType":5126,
			"count":2972,
			"type":"VEC4"
		},
		{
			"bufferView":11,
			"componentType":5123,
			"count":10440,
			"type":"SCALAR"
		},
		{
			"bufferView":12,
			"componentType":5126,
			"count":1461,
			"max":[
				0.3733409643173218,
				1.6953445672988892,
				0.1289978176355362
			],
			"min":[
				-0.3733409643173218,
				1.069244146347046,
				-0.12847395241260529
			],
			"type":"VEC3"
		},
		{
			"bufferView":13,
			"componentType":5126,
			"count":1461,
			"type":"VEC3"
		},
		{
			"bufferView":14,
			"componentType":5126,
			"count":1461,
			"type":"VEC2"
		},
		{
			"bufferView":15,
			"componentType":5121,
			"count":1461,
			"type":"VEC4"
		},
		{
			"bufferView":16,
			"componentType":5126,
			"count":1461,
			"type":"VEC4"
		},
		{
			"bufferView":17,
			"componentType":5123,
			"count":6648,
			"type":"SCALAR"
		},
		{
			"bufferView":18,
			"componentType":5126,
			"count":65,
			"max":[
				0.16405342519283295,
				1.1867002248764038,
				0.13091640174388885
			],
			"min":[
				-0.16405342519283295,
				1.0077582597732544,
				-0.13245970010757446
			],
			"type":"VEC3"
		},
		{
			"bufferView":19,
			"componentType":5126,
			"count":65,
			"type":"VEC3"
		},
		{
			"bufferView":20,
			"componentType":5126,
			"count":65,
			"type":"VEC2"
		},
		{
			"bufferView":21,
			"componentType":5121,
			"count":65,
			"type":"VEC4"
		},
		{
			"bufferView":22,
			"componentType":5126,
			"count":65,
			"type":"VEC4"
		},
		{
			"bufferView":23,
			"componentType":5123,
			"count":192,
			"type":"SCALAR"
		},
		{
			"bufferView":24,
			"componentType":5126,
			"count":977,
			"max":[
				0.37023890018463135,
				1.077892780303955,
				0.12746304273605347
			],
			"min":[
				-0.37023887038230896,
				0.3450698256492615,
				-0.12950851023197174
			],
			"type":"VEC3"
		},
		{
			"bufferView":25,
			"componentType":5126,
			"count":977,
			"type":"VEC3"
		},
		{
			"bufferView":26,
			"componentType":5126,
			"count":977,
			"type":"VEC2"
		},
		{
			"bufferView":27,
			"componentType":5121,
			"count":977,
			"type":"VEC4"
		},
		{
			"bufferView":28,
			"componentType":5126,
			"count":977,
			"type":"VEC4"
		},
		{
			"bufferView":29,
			"componentType":5123,
			"count":4332,
			"type":"SCALAR"
		},
		{
			"bufferView":30,
			"componentType":5126,
			"count":1034,
			"max":[
				0.19141019880771637,
				0.3524141013622284,
				0.09139911830425262
			],
			"min":[
				-0.19141022861003876,
				0.008737517520785332,
				-0.1611388921737671
			],
			"type":"VEC3"
		},
		{
			"bufferView":31,
			"componentType":5126,
			"count":1034,
			"type":"VEC3"
		},
		{
			"bufferView":32,
			"componentType":5126,
			"count":1034,
			"type":"VEC2"
		},
		{
			"bufferView":33,
			"componentType":5121,
			"count":1034,
			"type":"VEC4"
		},
		{
			"bufferView":34,
			"componentType":5126,
			"count":1034,
			"type":"VEC4"
		},
		{
			"bufferView":35,
			"componentType":5123,
			"count":4608,
			"type":"SCALAR"
		},
		{
			"bufferView":36,
			"componentType":5126,
			"count":304,
			"max":[
				0.058649998158216476,
				1.9394749402999878,
				-0.08049999922513962
			],
			"min":[
				-0.058649998158216476,
				1.91302490234375,
				-0.10119999945163727
			],
			"type":"VEC3"
		},
		{
			"bufferView":37,
			"componentType":5126,
			"count":304,
			"type":"VEC3"
		},
		{
			"bufferView":38,
			"componentType":5126,
			"count":304,
			"type":"VEC2"
		},
		{
			"bufferView":39,
			"componentType":5121,
			"count":304,
			"type":"VEC4"
		},
		{
			"bufferView":40,
			"componentType":5126,
			"count":304,
			"type":"VEC4"
		},
		{
			"bufferView":41,
			"componentType":5123,
			"count":1152,
			"type":"SCALAR"
		},
		{
			"bufferView":42,
			"componentType":5126,
			"count":220,
			"max":[
				0.05002499744296074,
				1.9375200271606445,
				-0.09340327978134155
			],
			"min":[
				-0.05002499744296074,
				1.9149799346923828,
				-0.10324671864509583
			],
			"type":"VEC3"
		},
		{
			"bufferView":43,
			"componentType":5126,
			"count":220,
			"type":"VEC3"
		},
		{
			"bufferView":44,
			"componentType":5126,
			"count":220,
			"type":"VEC2"
		},
		{
			"bufferView":45,
			"componentType":5121,
			"count":220,
			"type":"VEC4"
		},
		{
			"bufferView":46,
			"componentType":5126,
			"count":220,
			"type":"VEC4"
		},
		{
			"bufferView":47,
			"componentType":5123,
			"count":720,
			"type":"SCALAR"
		},
		{
			"bufferView":48,
			"componentType":5126,
			"count":160,
			"max":[
				0.043693602085113525,
				1.9314249753952026,
				-0.09993256628513336
			],
			"min":[
				-0.043693602085113525,
				1.9210749864578247,
				-0.10430743545293808
			],
			"type":"VEC3"
		},
		{
			"bufferView":49,
			"componentType":5126,
			"count":160,
			"type":"VEC3"
		},
		{
			"bufferView":50,
			"componentType":5126,
			"count":160,
			"type":"VEC2"
		},
		{
			"bufferView":51,
			"componentType":5121,
			"count":160,
			"type":"VEC4"
		},
		{
			"bufferView":52,
			"componentType":5126,
			"count":160,
			"type":"VEC4"
		},
		{
			"bufferView":53,
			"componentType":5123,
			"count":480,
			"type":"SCALAR"
		},
		{
			"bufferView":54,
			"componentType":5126,
			"count":98,
			"max":[
				0.021849999204277992,
				1.8486249446868896,
				-0.08937828242778778
			],
			"min":[
				-0.021849999204277992,
				1.8382749557495117,
				-0.09922172129154205
			],
			"type":"VEC3"
		},
		{
			"bufferView":55,
			"componentType":5126,
			"count":98,
			"type":"VEC3"
		},
		{
			"bufferView":56,
			"componentType":5126,
			"count":98,
			"type":"VEC2"
		},
		{
			"bufferView":57,
			"componentType":5121,
			"count":98,
			"type":"VEC4"
		},
		{
			"bufferView":58,
			"componentType":5126,
			"count":98,
			"type":"VEC4"
		},
		{
			"bufferView":59,
			"componentType":5123,
			"count":360,
			"type":"SCALAR"
		},
		{
			"bufferView":60,
			"componentType":5126,
			"count":162,
			"max":[
				0.3104919493198395,
				1.6444998979568481,
				0.22355999052524567
			],
			"min":[
				-0.3104919493198395,
				0.5289999842643738,
				-0.21515977382659912
			],
			"type":"VEC3"
		},
		{
			"bufferView":61,
			"componentType":5126,
			"count":162,
			"type":"VEC3"
		},
		{
			"bufferView":62,
			"componentType":5126,
			"count":162,
			"type":"VEC2"
		},
		{
			"bufferView":63,
			"componentType":5121,
			"count":162,
			"type":"VEC4"
		},
		{
			"bufferView":64,
			"componentType":5126,
			"count":162,
			"type":"VEC4"
		},
		{
			"bufferView":65,
			"componentType":5123,
			"count":660,
			"type":"SCALAR"
		},
		{
			"bufferView":66,
			"componentType":5126,
			"count":42,
			"max":[
				0.09714355319738388,
				1.747999906539917,
				0.08797499537467957
			],
			"min":[
				-0.09714355319738388,
				1.6790000200271606,
				-0.07921683043241501
			],
			"type":"VEC3"
		},
		{
			"bufferView":67,
			"componentType":5126,
			"count":42,
			"type":"VEC3"
		},
		{
			"bufferView":68,
			"componentType":5126,
			"count":42,
			"type":"VEC2"
		},
		{
			"bufferView":69,
			"componentType":5121,
			"count":42,
			"type":"VEC4"
		},
		{
			"bufferView":70,
			"componentType":5126,
			"count":42,
			"type":"VEC4"
		},
		{
			"bufferView":71,
			"componentType":5123,
			"count":96,
			"type":"SCALAR"
		},
		{
			"bufferView":72,
			"componentType":5126,
			"count":24,
			"max":[
				0.028750000521540642,
				1.1154999732971191,
				-0.10809999704360962
			],
			"min":[
				-0.028750000521540642,
				1.0694999694824219,
				-0.12189999967813492
			],
			"type":"VEC3"
		},
		{
			"bufferView":73,
			"componentType":5126,
			"count":24,
			"type":"VEC3"
		},
		{
			"bufferView":74,
			"componentType":5126,
			"count":24,
			"type":"VEC2"
		},
		{
			"bufferView":75,
			"componentType":5121,
			"count":24,
			"type":"VEC4"
		},
		{
			"bufferView":76,
			"componentType":5126,
			"count":24,
			"type":"VEC4"
		},
		{
			"bufferView":77,
			"componentType":5123,
			"count":36,
			"type":"SCALAR"
		},
		{
			"bufferView":78,
			"componentType":5126,
			"count":17,
			"type":"MAT4"
		},
		{
			"bufferView":79,
			"componentType":5126,
			"count":2,
			"max":[
				0.6
			],
			"min":[
				0
			],
			"type":"SCALAR"
		},
		{
			"bufferView":80,
			"componentType":5126,
			"count":2,
			"type":"VEC3"
		},
		{
			"bufferView":81,
			"componentType":5126,
			"count":2,
			"type":"VEC4"
		},
		{
			"bufferView":82,
			"componentType":5126,
			"count":2,
			"type":"VEC3"
		},
		{
			"bufferView":83,
			"componentType":5126,
			"count":2,
			"type":"VEC3"
		},
		{
			"bufferView":84,
			"componentType":5126,
			"count":2,
			"type":"VEC4"
		},
		{
			"bufferView":85,
			"componentType":5126,
			"count":2,
			"type":"VEC3"
		},
		{
			"bufferView":86,
			"componentType":5126,
			"count":2,
			"type":"VEC3"
		},
		{
			"bufferView":87,
			"componentType":5126,
			"count":19,
			"max":[
				0.6
			],
			"min":[
				0
			],
			"type":"SCALAR"
		},
		{
			"bufferView":88,
			"componentType":5126,
			"count":19,
			"type":"VEC4"
		},
		{
			"bufferView":89,
			"componentType":5126,
			"count":2,
			"type":"VEC3"
		},
		{
			"bufferView":90,
			"componentType":5126,
			"count":2,
			"type":"VEC3"
		},
		{
			"bufferView":91,
			"componentType":5126,
			"count":2,
			"type":"VEC4"
		},
		{
			"bufferView":92,
			"componentType":5126,
			"count":2,
			"type":"VEC3"
		},
		{
			"bufferView":93,
			"componentType":5126,
			"count":2,
			"type":"VEC3"
		},
		{
			"bufferView":94,
			"componentType":5126,
			"count":2,
			"type":"VEC4"
		},
		{
			"bufferView":95,
			"componentType":5126,
			"count":2,
			"type":"VEC3"
		},
		{
			"bufferView":96,
			"componentType":5126,
			"count":2,
			"type":"VEC3"
		},
		{
			"bufferView":97,
			"componentType":5126,
			"count":19,
			"type":"VEC4"
		},
		{
			"bufferView":98,
			"componentType":5126,
			"count":2,
			"type":"VEC3"
		},
		{
			"bufferView":99,
			"componentType":5126,
			"count":2,
			"type":"VEC3"
		},
		{
			"bufferView":100,
			"componentType":5126,
			"count":19,
			"type":"VEC4"
		},
		{
			"bufferView":101,
			"componentType":5126,
			"count":2,
			"type":"VEC3"
		},
		{
			"bufferView":102,
			"componentType":5126,
			"count":2,
			"type":"VEC3"
		},
		{
			"bufferView":103,
			"componentType":5126,
			"count":2,
			"type":"VEC4"
		},
		{
			"bufferView":104,
			"componentType":5126,
			"count":2,
			"type":"VEC3"
		},
		{
			"bufferView":105,
			"componentType":5126,
			"count":2,
			"type":"VEC3"
		},
		{
			"bufferView":106,
			"componentType":5126,
			"count":19,
			"type":"VEC4"
		},
		{
			"bufferView":107,
			"componentType":5126,
			"count":2,
			"type":"VEC3"
		},
		{
			"bufferView":108,
			"componentType":5126,
			"count":2,
			"type":"VEC3"
		},
		{
			"bufferView":109,
			"componentType":5126,
			"count":2,
			"type":"VEC4"
		},
		{
			"bufferView":110,
			"componentType":5126,
			"count":2,
			"type":"VEC3"
		},
		{
			"bufferView":111,
			"componentType":5126,
			"count":2,
			"type":"VEC3"
		},
		{
			"bufferView":112,
			"componentType":5126,
			"count":2,
			"type":"VEC4"
		},
		{
			"bufferView":113,
			"componentType":5126,
			"count":2,
			"type":"VEC3"
		},
		{
			"bufferView":114,
			"componentType":5126,
			"count":2,
			"type":"VEC3"
		},
		{
			"bufferView":115,
			"componentType":5126,
			"count":19,
			"type":"VEC4"
		},
		{
			"bufferView":116,
			"componentType":5126,
			"count":2,
			"type":"VEC3"
		},
		{
			"bufferView":117,
			"componentType":5126,
			"count":2,
			"type":"VEC3"
		},
		{
			"bufferView":118,
			"componentType":5126,
			"count":2,
			"type":"VEC4"
		},
		{
			"bufferView":119,
			"componentType":5126,
			"count":2,
			"type":"VEC3"
		},
		{
			"bufferView":120,
			"componentType":5126,
			"count":2,
			"type":"VEC3"
		},
		{
			"bufferView":121,
			"componentType":5126,
			"count":2,
			"type":"VEC4"
		},
		{
			"bufferView":122,
			"componentType":5126,
			"count":2,
			"type":"VEC3"
		},
		{
			"bufferView":123,
			"componentType":5126,
			"count":2,
			"type":"VEC3"
		},
		{
			"bufferView":124,
			"componentType":5126,
			"count":19,
			"type":"VEC4"
		},
		{
			"bufferView":125,
			"componentType":5126,
			"count":2,
			"type":"VEC3"
		},
		{
			"bufferView":126,
			"componentType":5126,
			"count":2,
			"type":"VEC3"
		},
		{
			"bufferView":127,
			"componentType":5126,
			"count":2,
			"type":"VEC4"
		},
		{
			"bufferView":128,
			"componentType":5126,
			"count":2,
			"type":"VEC3"
		},
		{
			"bufferView":129,
			"componentType":5126,
			"count":2,
			"type":"VEC3"
		},
		{
			"bufferView":130,
			"componentType":5126,
			"count":2,
			"type":"VEC4"
		},
		{
			"bufferView":131,
			"componentType":5126,
			"count":2,
			"type":"VEC3"
		},
		{
			"bufferView":132,
			"componentType":5126,
			"count":61,
			"max":[
				2
			],
			"min":[
				0
			],
			"type":"SCALAR"
		},
		{
			"bufferView":133,
			"componentType":5126,
			"count":61,
			"type":"VEC3"
		},
		{
			"bufferView":134,
			"componentType":5126,
			"count":2,
			"max":[
				2
			],
			"min":[
				0
			],
			"type":"SCALAR"
		},
		{
			"bufferView":135,
			"componentType":5126,
			"count":2,
			"type":"VEC4"
		},
		{
			"bufferView":136,
			"componentType":5126,
			"count":2,
			"type":"VEC3"
		},
		{
			"bufferView":137,
			"componentType":5126,
			"count":2,
			"type":"VEC3"
		},
		{
			"bufferView":138,
			"componentType":5126,
			"count":2,
			"type":"VEC4"
		},
		{
			"bufferView":139,
			"componentType":5126,
			"count":2,
			"type":"VEC3"
		},
		{
			"bufferView":140,
			"componentType":5126,
			"count":2,
			"type":"VEC3"
		},
		{
			"bufferView":141,
			"componentType":5126,
			"count":61,
			"type":"VEC4"
		},
		{
			"bufferView":142,
			"componentType":5126,
			"count":2,
			"type":"VEC3"
		},
		{
			"bufferView":143,
			"componentType":5126,
			"count":2,
			"type":"VEC3"
		},
		{
			"bufferView":144,
			"componentType":5126,
			"count":2,
			"type":"VEC4"
		},
		{
			"bufferView":145,
			"componentType":5126,
			"count":2,
			"type":"VEC3"
		},
		{
			"bufferView":146,
			"componentType":5126,
			"count":2,
			"type":"VEC3"
		},
		{
			"bufferView":147,
			"componentType":5126,
			"count":61,
			"type":"VEC4"
		},
		{
			"bufferView":148,
			"componentType":5126,
			"count":2,
			"type":"VEC3"
		},
		{
			"bufferView":149,
			"componentType":5126,
			"count":2,
			"type":"VEC3"
		},
		{
			"bufferView":150,
			"componentType":5126,
			"count":61,
			"type":"VEC4"
		},
		{
			"bufferView":151,
			"componentType":5126,
			"count":2,
			"type":"VEC3"
		},
		{
			"bufferView":152,
			"componentType":5126,
			"count":2,
			"type":"VEC3"
		},
		{
			"bufferView":153,
			"componentType":5126,
			"count":2,
			"type":"VEC4"
		},
		{
			"bufferView":154,
			"componentType":5126,
			"count":2,
			"type":"VEC3"
		},
		{
			"bufferView":155,
			"componentType":5126,
			"count":2,
			"type":"VEC3"
		},
		{
			"bufferView":156,
			"componentType":5126,
			"count":2,
			"type":"VEC4"
		},
		{
			"bufferView":157,
			"componentType":5126,
			"count":2,
			"type":"VEC3"
		},
		{
			"bufferView":158,
			"componentType":5126,
			"count":2,
			"type":"VEC3"
		},
		{
			"bufferView":159,
			"componentType":5126,
			"count":61,
			"type":"VEC4"
		},
		{
			"bufferView":160,
			"componentType":5126,
			"count":2,
			"type":"VEC3"
		},
		{
			"bufferView":161,
			"componentType":5126,
			"count":2,
			"type":"VEC3"
		},
		{
			"bufferView":162,
			"componentType":5126,
			"count":2,
			"type":"VEC4"
		},
		{
			"bufferView":163,
			"componentType":5126,
			"count":2,
			"type":"VEC3"
		},
		{
			"bufferView":164,
			"componentType":5126,
			"count":2,
			"type":"VEC3"
		},
		{
			"bufferView":165,
			"componentType":5126,
			"count":2,
			"type":"VEC4"
		},
		{
			"bufferView":166,
			"componentType":5126,
			"count":2,
			"type":"VEC3"
		},
		{
			"bufferView":167,
			"componentType":5126,
			"count":2,
			"type":"VEC3"
		},
		{
			"bufferView":168,
			"componentType":5126,
			"count":2,
			"type":"VEC4"
		},
		{
			"bufferView":169,
			"componentType":5126,
			"count":2,
			"type":"VEC3"
		},
		{
			"bufferView":170,
			"componentType":5126,
			"count":2,
			"type":"VEC3"
		},
		{
			"bufferView":171,
			"componentType":5126,
			"count":2,
			"type":"VEC4"
		},
		{
			"bufferView":172,
			"componentType":5126,
			"count":2,
			"type":"VEC3"
		},
		{
			"bufferView":173,
			"componentType":5126,
			"count":2,
			"type":"VEC3"
		},
		{
			"bufferView":174,
			"componentType":5126,
			"count":2,
			"type":"VEC4"
		},
		{
			"bufferView":175,
			"componentType":5126,
			"count":2,
			"type":"VEC3"
		},
		{
			"bufferView":176,
			"componentType":5126,
			"count":2,
			"type":"VEC3"
		},
		{
			"bufferView":177,
			"componentType":5126,
			"count":2,
			"type":"VEC4"
		},
		{
			"bufferView":178,
			"componentType":5126,
			"count":2,
			"type":"VEC3"
		},
		{
			"bufferView":179,
			"componentType":5126,
			"count":2,
			"type":"VEC3"
		},
		{
			"bufferView":180,
			"componentType":5126,
			"count":2,
			"type":"VEC4"
		},
		{
			"bufferView":181,
			"componentType":5126,
			"count":2,
			"type":"VEC3"
		},
		{
			"bufferView":182,
			"componentType":5126,
			"count":2,
			"type":"VEC3"
		},
		{
			"bufferView":183,
			"componentType":5126,
			"count":2,
			"type":"VEC4"
		},
		{
			"bufferView":184,
			"componentType":5126,
			"count":2,
			"type":"VEC3"
		},
		{
			"bufferView":185,
			"componentType":5126,
			"count":31,
			"max":[
				1
			],
			"min":[
				0
			],
			"type":"SCALAR"
		},
		{
			"bufferView":186,
			"componentType":5126,
			"count":31,
			"type":"VEC3"
		},
		{
			"bufferView":187,
			"componentType":5126,
			"count":31,
			"type":"VEC4"
		},
		{
			"bufferView":188,
			"componentType":5126,
			"count":2,
			"max":[
				1
			],
			"min":[
				0
			],
			"type":"SCALAR"
		},
		{
			"bufferView":189,
			"componentType":5126,
			"count":2,
			"type":"VEC3"
		},
		{
			"bufferView":190,
			"componentType":5126,
			"count":2,
			"type":"VEC3"
		},
		{
			"bufferView":191,
			"componentType":5126,
			"count":2,
			"type":"VEC4"
		},
		{
			"bufferView":192,
			"componentType":5126,
			"count":2,
			"type":"VEC3"
		},
		{
			"bufferView":193,
			"componentType":5126,
			"count":2,
			"type":"VEC3"
		},
		{
			"bufferView":194,
			"componentType":5126,
			"count":31,
			"type":"VEC4"
		},
		{
			"bufferView":195,
			"componentType":5126,
			"count":2,
			"type":"VEC3"
		},
		{
			"bufferView":196,
			"componentType":5126,
			"count":2,
			"type":"VEC3"
		},
		{
			"bufferView":197,
			"componentType":5126,
			"count":2,
			"type":"VEC4"
		},
		{
			"bufferView":198,
			"componentType":5126,
			"count":2,
			"type":"VEC3"
		},
		{
			"bufferView":199,
			"componentType":5126,
			"count":2,
			"type":"VEC3"
		},
		{
			"bufferView":200,
			"componentType":5126,
			"count":2,
			"type":"VEC4"
		},
		{
			"bufferView":201,
			"componentType":5126,
			"count":2,
			"type":"VEC3"
		},
		{
			"bufferView":202,
			"componentType":5126,
			"count":2,
			"type":"VEC3"
		},
		{
			"bufferView":203,
			"componentType":5126,
			"count":31,
			"type":"VEC4"
		},
		{
			"bufferView":204,
			"componentType":5126,
			"count":2,
			"type":"VEC3"
		},
		{
			"bufferView":205,
			"componentType":5126,
			"count":2,
			"type":"VEC3"
		},
		{
			"bufferView":206,
			"componentType":5126,
			"count":2,
			"type":"VEC4"
		},
		{
			"bufferView":207,
			"componentType":5126,
			"count":2,
			"type":"VEC3"
		},
		{
			"bufferView":208,
			"componentType":5126,
			"count":2,
			"type":"VEC3"
		},
		{
			"bufferView":209,
			"componentType":5126,
			"count":2,
			"type":"VEC4"
		},
		{
			"bufferView":210,
			"componentType":5126,
			"count":2,
			"type":"VEC3"
		},
		{
			"bufferView":211,
			"componentType":5126,
			"count":2,
			"type":"VEC3"
		},
		{
			"bufferView":212,
			"componentType":5126,
			"count":31,
			"type":"VEC4"
		},
		{
			"bufferView":213,
			"componentType":5126,
			"count":2,
			"type":"VEC3"
		},
		{
			"bufferView":214,
			"componentType":5126,
			"count":2,
			"type":"VEC3"
		},
		{
			"bufferView":215,
			"componentType":5126,
			"count":2,
			"type":"VEC4"
		},
		{
			"bufferView":216,
			"componentType":5126,
			"count":2,
			"type":"VEC3"
		},
		{
			"bufferView":217,
			"componentType":5126,
			"count":2,
			"type":"VEC3"
		},
		{
			"bufferView":218,
			"componentType":5126,
			"count":2,
			"type":"VEC4"
		},
		{
			"bufferView":219,
			"componentType":5126,
			"count":2,
			"type":"VEC3"
		},
		{
			"bufferView":220,
			"componentType":5126,
			"count":2,
			"type":"VEC3"
		},
		{
			"bufferView":221,
			"componentType":5126,
			"count":31,
			"type":"VEC4"
		},
		{
			"bufferView":222,
			"componentType":5126,
			"count":2,
			"type":"VEC3"
		},
		{
			"bufferView":223,
			"componentType":5126,
			"count":2,
			"type":"VEC3"
		},
		{
			"bufferView":224,
			"componentType":5126,
			"count":31,
			"type":"VEC4"
		},
		{
			"bufferView":225,
			"componentType":5126,
			"count":2,
			"type":"VEC3"
		},
		{
			"bufferView":226,
			"componentType":5126,
			"count":2,
			"type":"VEC3"
		},
		{
			"bufferView":227,
			"componentType":5126,
			"count":31,
			"type":"VEC4"
		},
		{
			"bufferView":228,
			"componentType":5126,
			"count":2,
			"type":"VEC3"
		},
		{
			"bufferView":229,
			"componentType":5126,
			"count":2,
			"type":"VEC3"
		},
		{
			"bufferView":230,
			"componentType":5126,
			"count":31,
			"type":"VEC4"
		},
		{
			"bufferView":231,
			"componentType":5126,
			"count":2,
			"type":"VEC3"
		},
		{
			"bufferView":232,
			"componentType":5126,
			"count":2,
			"type":"VEC3"
		},
		{
			"bufferView":233,
			"componentType":5126,
			"count":31,
			"type":"VEC4"
		},
		{
			"bufferView":234,
			"componentType":5126,
			"count":2,
			"type":"VEC3"
		},
		{
			"bufferView":235,
			"componentType":5126,
			"count":2,
			"type":"VEC3"
		},
		{
			"bufferView":236,
			"componentType":5126,
			"count":31,
			"type":"VEC4"
		},
		{
			"bufferView":237,
			"componentType":5126,
			"count":2,
			"type":"VEC3"
		}
	],
	"bufferViews":[
		{
			"buffer":0,
			"byteLength":17244,
			"byteOffset":0,
			"target":34962
		},
		{
			"buffer":0,
			"byteLength":17244,
			"byteOffset":17244,
			"target":34962
		},
		{
			"buffer":0,
			"byteLength":11496,
			"byteOffset":34488,
			"target":34962
		},
		{
			"buffer":0,
			"byteLength":5748,
			"byteOffset":45984,
			"target":34962
		},
		{
			"buffer":0,
			"byteLength":22992,
			"byteOffset":51732,
			"target":34962
		},
		{
			"buffer":0,
			"byteLength":11736,
			"byteOffset":74724,
			"target":34963
		},
		{
			"buffer":0,
			"byteLength":35664,
			"byteOffset":86460,
			"target":34962
		},
		{
			"buffer":0,
			"byteLength":35664,
			"byteOffset":122124,
			"target":34962
		},
		{
			"buffer":0,
			"byteLength":23776,
			"byteOffset":157788,
			"target":34962
		},
		{
			"buffer":0,
			"byteLength":11888,
			"byteOffset":181564,
			"target":34962
		},
		{
			"buffer":0,
			"byteLength":47552,
			"byteOffset":193452,
			"target":34962
		},
		{
			"buffer":0,
			"byteLength":20880,
			"byteOffset":241004,
			"target":34963
		},
		{
			"buffer":0,
			"byteLength":17532,
			"byteOffset":261884,
			"target":34962
		},
		{
			"buffer":0,
			"byteLength":17532,
			"byteOffset":279416,
			"target":34962
		},
		{
			"buffer":0,
			"byteLength":11688,
			"byteOffset":296948,
			"target":34962
		},
		{
			"buffer":0,
			"byteLength":5844,
			"byteOffset":308636,
			"target":34962
		},
		{
			"buffer":0,
			"byteLength":23376,
			"byteOffset":314480,
			"target":34962
		},
		{
			"buffer":0,
			"byteLength":13296,
			"byteOffset":337856,
			"target":34963
		},
		{
			"buffer":0,
			"byteLength":780,
			"byteOffset":351152,
			"target":34962
		},
		{
			"buffer":0,
			"byteLength":780,
			"byteOffset":351932,
			"target":34962
		},
		{
			"buffer":0,
			"byteLength":520,
			"byteOffset":352712,
			"target":34962
		},
		{
			"buffer":0,
			"byteLength":260,
			"byteOffset":353232,
			"target":34962
		},
		{
			"buffer":0,
			"byteLength":1040,
			"byteOffset":353492,
			"target":34962
		},
		{
			"buffer":0,
			"byteLength":384,
			"byteOffset":354532,
			"target":34963
		},
		{
			"buffer":0,
			"byteLength":11724,
			"byteOffset":354916,
			"target":34962
		},
		{
			"buffer":0,
			"byteLength":11724,
			"byteOffset":366640,
			"target":34962
		},
		{
			"buffer":0,
			"byteLength":7816,
			"byteOffset":378364,
			"target":34962
		},
		{
			"buffer":0,
			"byteLength":3908,
			"byteOffset":386180,
			"target":34962
		},
		{
			"buffer":0,
			"byteLength":15632,
			"byteOffset":390088,
			"target":34962
		},
		{
			"buffer":0,
			"byteLength":8664,
			"byteOffset":405720,
			"target":34963
		},
		{
			"buffer":0,
			"byteLength":12408,
			"byteOffset":414384,
			"target":34962
		},
		{
			"buffer":0,
			"byteLength":12408,
			"byteOffset":426792,
			"target":34962
		},
		{
			"buffer":0,
			"byteLength":8272,
			"byteOffset":439200,
			"target":34962
		},
		{
			"buffer":0,
			"byteLength":4136,
			"byteOffset":447472,
			"target":34962
		},
		{
			"buffer":0,
			"byteLength":16544,
			"byteOffset":451608,
			"target":34962
		},
		{
			"buffer":0,
			"byteLength":9216,
			"byteOffset":468152,
			"target":34963
		},
		{
			"buffer":0,
			"byteLength":3648,
			"byteOffset":477368,
			"target":34962
		},
		{
			"buffer":0,
			"byteLength":3648,
			"byteOffset":481016,
			"target":34962
		},
		{
			"buffer":0,
			"byteLength":2432,
			"byteOffset":484664,
			"target":34962
		},
		{
			"buffer":0,
			"byteLength":1216,
			"byteOffset":487096,
			"target":34962
		},
		{
			"buffer":0,
			"byteLength":4864,
			"byteOffset":488312,
			"target":34962
		},
		{
			"buffer":0,
			"byteLength":2304,
			"byteOffset":493176,
			"target":34963
		},
		{
			"buffer":0,
			"byteLength":2640,
			"byteOffset":495480,
			"target":34962
		},
		{
			"buffer":0,
			"byteLength":2640,
			"byteOffset":498120,
			"target":34962
		},
		{
			"buffer":0,
			"byteLength":1760,
			"byteOffset":500760,
			"target":34962
		},
		{
			"buffer":0,
			"byteLength":880,
			"byteOffset":502520,
			"target":34962
		},
		{
			"buffer":0,
			"byteLength":3520,
			"byteOffset":503400,
			"target":34962
		},
		{
			"buffer":0,
			"byteLength":1440,
			"byteOffset":506920,
			"target":34963
		},
		{
			"buffer":0,
			"byteLength":1920,
			"byteOffset":508360,
			"target":34962
		},
		{
			"buffer":0,
			"byteLength":1920,
			"byteOffset":510280,
			"target":34962
		},
		{
			"buffer":0,
			"byteLength":1280,
			"byteOffset":512200,
			"target":34962
		},
		{
			"buffer":0,
			"byteLength":640,
			"byteOffset":513480,
			"target":34962
		},
		{
			"buffer":0,
			"byteLength":2560,
			"byteOffset":514120,
			"target":34962
		},
		{
			"buffer":0,
			"byteLength":960,
			"byteOffset":516680,
			"target":34963
		},
		{
			"buffer":0,
			"byteLength":1176,
			"byteOffset":517640,
			"target":34962
		},
		{
			"buffer":0,
			"byteLength":1176,
			"byteOffset":518816,
			"target":34962
		},
		{
			"buffer":0,
			"byteLength":784,
			"byteOffset":519992,
			"target":34962
		},
		{
			"buffer":0,
			"byteLength":392,
			"byteOffset":520776,
			"target":34962
		},
		{
			"buffer":0,
			"byteLength":1568,
			"byteOffset":521168,
			"target":34962
		},
		{
			"buffer":0,
			"byteLength":720,
			"byteOffset":522736,
			"target":34963
		},
		{
			"buffer":0,
			"byteLength":1944,
			"byteOffset":523456,
			"target":34962
		},
		{
			"buffer":0,
			"byteLength":1944,
			"byteOffset":525400,
			"target":34962
		},
		{
			"buffer":0,
			"byteLength":1296,
			"byteOffset":527344,
			"target":34962
		},
		{
			"buffer":0,
			"byteLength":648,
			"byteOffset":528640,
			"target":34962
		},
		{
			"buffer":0,
			"byteLength":2592,
			"byteOffset":529288,
			"target":34962
		},
		{
			"buffer":0,
			"byteLength":1320,
			"byteOffset":531880,
			"target":34963
		},
		{
			"buffer":0,
			"byteLength":504,
			"byteOffset":533200,
			"target":34962
		},
		{
			"buffer":0,
			"byteLength":504,
			"byteOffset":533704,
			"target":34962
		},
		{
			"buffer":0,
			"byteLength":336,
			"byteOffset":534208,
			"target":34962
		},
		{
			"buffer":0,
			"byteLength":168,
			"byteOffset":534544,
			"target":34962
		},
		{
			"buffer":0,
			"byteLength":672,
			"byteOffset":534712,
			"target":34962
		},
		{
			"buffer":0,
			"byteLength":192,
			"byteOffset":535384,
			"target":34963
		},
		{
			"buffer":0,
			"byteLength":288,
			"byteOffset":535576,
			"target":34962
		},
		{
			"buffer":0,
			"byteLength":288,
			"byteOffset":535864,
			"target":34962
		},
		{
			"buffer":0,
			"byteLength":192,
			"byteOffset":536152,
			"target":34962
		},
		{
			"buffer":0,
			"byteLength":96,
			"byteOffset":536344,
			"target":34962
		},
		{
			"buffer":0,
			"byteLength":384,
			"byteOffset":536440,
			"target":34962
		},
		{
			"buffer":0,
			"byteLength":72,
			"byteOffset":536824,
			"target":34963
		},
		{
			"buffer":0,
			"byteLength":1088,
			"byteOffset":536896
		},
		{
			"buffer":0,
			"byteLength":8,
			"byteOffset":537984
		},
		{
			"buffer":0,
			"byteLength":24,
			"byteOffset":537992
		},
		{
			"buffer":0,
			"byteLength":32,
			"byteOffset":538016
		},
		{
			"buffer":0,
			"byteLength":24,
			"byteOffset":538048
		},
		{
			"buffer":0,
			"byteLength":24,
			"byteOffset":538072
		},
		{
			"buffer":0,
			"byteLength":32,
			"byteOffset":538096
		},
		{
			"buffer":0,
			"byteLength":24,
			"byteOffset":538128
		},
		{
			"buffer":0,
			"byteLength":24,
			"byteOffset":538152
		},
		{
			"buffer":0,
			"byteLength":76,
			"byteOffset":538176
		},
		{
			"buffer":0,
			"byteLength":304,
			"byteOffset":538252
		},
		{
			"buffer":0,
			"byteLength":24,
			"byteOffset":538556
		},
		{
			"buffer":0,
			"byteLength":24,
			"byteOffset":538580
		},
		{
			"buffer":0,
			"byteLength":32,
			"byteOffset":538604
		},
		{
			"buffer":0,
			"byteLength":24,
			"byteOffset":538636
		},
		{
			"buffer":0,
			"byteLength":24,
			"byteOffset":538660
		},
		{
			"buffer":0,
			"byteLength":32,
			"byteOffset":538684
		},
		{
			"buffer":0,
			"byteLength":24,
			"byteOffset":538716
		},
		{
			"buffer":0,
			"byteLength":24,
			"byteOffset":538740
		},
		{
			"buffer":0,
			"byteLength":304,
			"byteOffset":538764
		},
		{
			"buffer":0,
			"byteLength":24,
			"byteOffset":539068
		},
		{
			"buffer":0,
			"byteLength":24,
			"byteOffset":539092
		},
		{
			"buffer":0,
			"byteLength":304,
			"byteOffset":539116
		},
		{
			"buffer":0,
			"byteLength":24,
			"byteOffset":539420
		},
		{
			"buffer":0,
			"byteLength":24,
			"byteOffset":539444
		},
		{
			"buffer":0,
			"byteLength":32,
			"byteOffset":539468
		},
		{
			"buffer":0,
			"byteLength":24,
			"byteOffset":539500
		},
		{
			"buffer":0,
			"byteLength":24,
			"byteOffset":539524
		},
		{
			"buffer":0,
			"byteLength":304,
			"byteOffset":539548
		},
		{
			"buffer":0,
			"byteLength":24,
			"byteOffset":539852
		},
		{
			"buffer":0,
			"byteLength":24,
			"byteOffset":539876
		},
		{
			"buffer":0,
			"byteLength":32,
			"byteOffset":539900
		},
		{
			"buffer":0,
			"byteLength":24,
			"byteOffset":539932
		},
		{
			"buffer":0,
			"byteLength":24,
			"byteOffset":539956
		},
		{
			"buffer":0,
			"byteLength":32,
			"byteOffset":539980
		},
		{
			"buffer":0,
			"byteLength":24,
			"byteOffset":540012
		},
		{
			"buffer":0,
			"byteLength":24,
			"byteOffset":540036
		},
		{
			"buffer":0,
			"byteLength":304,
			"byteOffset":540060
		},
		{
			"buffer":0,
			"byteLength":24,
			"byteOffset":540364
		},
		{
			"buffer":0,
			"byteLength":24,
			"byteOffset":540388
		},
		{
			"buffer":0,
			"byteLength":32,
			"byteOffset":540412
		},
		{
			"buffer":0,
			"byteLength":24,
			"byteOffset":540444
		},
		{
			"buffer":0,
			"byteLength":24,
			"byteOffset":540468
		},
		{
			"buffer":0,
			"byteLength":32,
			"byteOffset":540492
		},
		{
			"buffer":0,
			"byteLength":24,
			"byteOffset":540524
		},
		{
			"buffer":0,
			"byteLength":24,
			"byteOffset":540548
		},
		{
			"buffer":0,
			"byteLength":304,
			"byteOffset":540572
		},
		{
			"buffer":0,
			"byteLength":24,
			"byteOffset":540876
		},
		{
			"buffer":0,
			"byteLength":24,
			"byteOffset":540900
		},
		{
			"buffer":0,
			"byteLength":32,
			"byteOffset":540924
		},
		{
			"buffer":0,
			"byteLength":24,
			"byteOffset":540956
		},
		{
			"buffer":0,
			"byteLength":24,
			"byteOffset":540980
		},
		{
			"buffer":0,
			"byteLength":32,
			"byteOffset":541004
		},
		{
			"buffer":0,
			"byteLength":24,
			"byteOffset":541036
		},
		{
			"buffer":0,
			"byteLength":244,
			"byteOffset":541060
		},
		{
			"buffer":0,
			"byteLength":732,
			"byteOffset":541304
		},
		{
			"buffer":0,
			"byteLength":8,
			"byteOffset":542036
		},
		{
			"buffer":0,
			"byteLength":32,
			"byteOffset":542044
		},
		{
			"buffer":0,
			"byteLength":24,
			"byteOffset":542076
		},
		{
			"buffer":0,
			"byteLength":24,
			"byteOffset":542100
		},
		{
			"buffer":0,
			"byteLength":32,
			"byteOffset":542124
		},
		{
			"buffer":0,
			"byteLength":24,
			"byteOffset":542156
		},
		{
			"buffer":0,
			"byteLength":24,
			"byteOffset":542180
		},
		{
			"buffer":0,
			"byteLength":976,
			"byteOffset":542204
		},
		{
			"buffer":0,
			"byteLength":24,
			"byteOffset":543180
		},
		{
			"buffer":0,
			"byteLength":24,
			"byteOffset":543204
		},
		{
			"buffer":0,
			"byteLength":32,
			"byteOffset":543228
		},
		{
			"buffer":0,
			"byteLength":24,
			"byteOffset":543260
		},
		{
			"buffer":0,
			"byteLength":24,
			"byteOffset":543284
		},
		{
			"buffer":0,
			"byteLength":976,
			"byteOffset":543308
		},
		{
			"buffer":0,
			"byteLength":24,
			"byteOffset":544284
		},
		{
			"buffer":0,
			"byteLength":24,
			"byteOffset":544308
		},
		{
			"buffer":0,
			"byteLength":976,
			"byteOffset":544332
		},
		{
			"buffer":0,
			"byteLength":24,
			"byteOffset":545308
		},
		{
			"buffer":0,
			"byteLength":24,
			"byteOffset":545332
		},
		{
			"buffer":0,
			"byteLength":32,
			"byteOffset":545356
		},
		{
			"buffer":0,
			"byteLength":24,
			"byteOffset":545388
		},
		{
			"buffer":0,
			"byteLength":24,
			"byteOffset":545412
		},
		{
			"buffer":0,
			"byteLength":32,
			"byteOffset":545436
		},
		{
			"buffer":0,
			"byteLength":24,
			"byteOffset":545468
		},
		{
			"buffer":0,
			"byteLength":24,
			"byteOffset":545492
		},
		{
			"buffer":0,
			"byteLength":976,
			"byteOffset":545516
		},
		{
			"buffer":0,
			"byteLength":24,
			"byteOffset":546492
		},
		{
			"buffer":0,
			"byteLength":24,
			"byteOffset":546516
		},
		{
			"buffer":0,
			"byteLength":32,
			"byteOffset":546540
		},
		{
			"buffer":0,
			"byteLength":24,
			"byteOffset":546572
		},
		{
			"buffer":0,
			"byteLength":24,
			"byteOffset":546596
		},
		{
			"buffer":0,
			"byteLength":32,
			"byteOffset":546620
		},
		{
			"buffer":0,
			"byteLength":24,
			"byteOffset":546652
		},
		{
			"buffer":0,
			"byteLength":24,
			"byteOffset":546676
		},
		{
			"buffer":0,
			"byteLength":32,
			"byteOffset":546700
		},
		{
			"buffer":0,
			"byteLength":24,
			"byteOffset":546732
		},
		{
			"buffer":0,
			"byteLength":24,
			"byteOffset":546756
		},
		{
			"buffer":0,
			"byteLength":32,
			"byteOffset":546780
		},
		{
			"buffer":0,
			"byteLength":24,
			"byteOffset":546812
		},
		{
			"buffer":0,
			"byteLength":24,
			"byteOffset":546836
		},
		{
			"buffer":0,
			"byteLength":32,
			"byteOffset":546860
		},
		{
			"buffer":0,
			"byteLength":24,
			"byteOffset":546892
		},
		{
			"buffer":0,
			"byteLength":24,
			"byteOffset":546916
		},
		{
			"buffer":0,
			"byteLength":32,
			"byteOffset":546940
		},
		{
			"buffer":0,
			"byteLength":24,
			"byteOffset":546972
		},
		{
			"buffer":0,
			"byteLength":24,
			"byteOffset":546996
		},
		{
			"buffer":0,
			"byteLength":32,
			"byteOffset":547020
		},
		{
			"buffer":0,
			"byteLength":24,
			"byteOffset":547052
		},
		{
			"buffer":0,
			"byteLength":24,
			"byteOffset":547076
		},
		{
			"buffer":0,
			"byteLength":32,
			"byteOffset":547100
		},
		{
			"buffer":0,
			"byteLength":24,
			"byteOffset":547132
		},
		{
			"buffer":0,
			"byteLength":124,
			"byteOffset":547156
		},
		{
			"buffer":0,
			"byteLength":372,
			"byteOffset":547280
		},
		{
			"buffer":0,
			"byteLength":496,
			"byteOffset":547652
		},
		{
			"buffer":0,
			"byteLength":8,
			"byteOffset":548148
		},
		{
			"buffer":0,
			"byteLength":24,
			"byteOffset":548156
		},
		{
			"buffer":0,
			"byteLength":24,
			"byteOffset":548180
		},
		{
			"buffer":0,
			"byteLength":32,
			"byteOffset":548204
		},
		{
			"buffer":0,
			"byteLength":24,
			"byteOffset":548236
		},
		{
			"buffer":0,
			"byteLength":24,
			"byteOffset":548260
		},
		{
			"buffer":0,
			"byteLength":496,
			"byteOffset":548284
		},
		{
			"buffer":0,
			"byteLength":24,
			"byteOffset":548780
		},
		{
			"buffer":0,
			"byteLength":24,
			"byteOffset":548804
		},
		{
			"buffer":0,
			"byteLength":32,
			"byteOffset":548828
		},
		{
			"buffer":0,
			"byteLength":24,
			"byteOffset":548860
		},
		{
			"buffer":0,
			"byteLength":24,
			"byteOffset":548884
		},
		{
			"buffer":0,
			"byteLength":32,
			"byteOffset":548908
		},
		{
			"buffer":0,
			"byteLength":24,
			"byteOffset":548940
		},
		{
			"buffer":0,
			"byteLength":24,
			"byteOffset":548964
		},
		{
			"buffer":0,
			"byteLength":496,
			"byteOffset":548988
		},
		{
			"buffer":0,
			"byteLength":24,
			"byteOffset":549484
		},
		{
			"buffer":0,
			"byteLength":24,
			"byteOffset":549508
		},
		{
			"buffer":0,
			"byteLength":32,
			"byteOffset":549532
		},
		{
			"buffer":0,
			"byteLength":24,
			"byteOffset":549564
		},
		{
			"buffer":0,
			"byteLength":24,
			"byteOffset":549588
		},
		{
			"buffer":0,
			"byteLength":32,
			"byteOffset":549612
		},
		{
			"buffer":0,
			"byteLength":24,
			"byteOffset":549644
		},
		{
			"buffer":0,
			"byteLength":24,
			"byteOffset":549668
		},
		{
			"buffer":0,
			"byteLength":496,
			"byteOffset":549692
		},
		{
			"buffer":0,
			"byteLength":24,
			"byteOffset":550188
		},
		{
			"buffer":0,
			"byteLength":24,
			"byteOffset":550212
		},
		{
			"buffer":0,
			"byteLength":32,
			"byteOffset":550236
		},
		{
			"buffer":0,
			"byteLength":24,
			"byteOffset":550268
		},
		{
			"buffer":0,
			"byteLength":24,
			"byteOffset":550292
		},
		{
			"buffer":0,
			"byteLength":32,
			"byteOffset":550316
		},
		{
			"buffer":0,
			"byteLength":24,
			"byteOffset":550348
		},
		{
			"buffer":0,
			"byteLength":24,
			"byteOffset":550372
		},
		{
			"buffer":0,
			"byteLength":496,
			"byteOffset":550396
		},
		{
			"buffer":0,
			"byteLength":24,
			"byteOffset":550892
		},
		{
			"buffer":0,
			"byteLength":24,
			"byteOffset":550916
		},
		{
			"buffer":0,
			"byteLength":496,
			"byteOffset":550940
		},
		{
			"buffer":0,
			"byteLength":24,
			"byteOffset":551436
		},
		{
			"buffer":0,
			"byteLength":24,
			"byteOffset":551460
		},
		{
			"buffer":0,
			"byteLength":496,
			"byteOffset":551484
		},
		{
			"buffer":0,
			"byteLength":24,
			"byteOffset":551980
		},
		{
			"buffer":0,
			"byteLength":24,
			"byteOffset":552004
		},
		{
			"buffer":0,
			"byteLength":496,
			"byteOffset":552028
		},
		{
			"buffer":0,
			"byteLength":24,
			"byteOffset":552524
		},
		{
			"buffer":0,
			"byteLength":24,
			"byteOffset":552548
		},
		{
			"buffer":0,
			"byteLength":496,
			"byteOffset":552572
		},
		{
			"buffer":0,
			"byteLength":24,
			"byteOffset":553068
		},
		{
			"buffer":0,
			"byteLength":24,
			"byteOffset":553092
		},
		{
			"buffer":0,
			"byteLength":496,
			"byteOffset":553116
		},
		{
			"buffer":0,
			"byteLength":24,
			"byteOffset":553612
		}
	],
	"samplers":[
		{
			"magFilter":9729,
			"minFilter":9987
		}
	],
	"buffers":[
		{
			"byteLength":553636,
			"uri":"guy.bin"
		}
	]
}
