{
	"asset":{
		"generator":"Khronos glTF Blender I/O v4.2.57",
		"version":"2.0"
	},
	"extensionsUsed":[
		"KHR_materials_clearcoat",
		"KHR_materials_sheen"
	],
	"scene":0,
	"scenes":[
		{
			"name":"Scene",
			"nodes":[
				18
			]
		}
	],
	"nodes":[
		{
			"name":"head",
			"translation":[
				0,
				0.09499990940093994,
				0
			]
		},
		{
			"children":[
				0
			],
			"name":"neck",
			"translation":[
				0,
				0.1994999647140503,
				0
			]
		},
		{
			"name":"hand.R",
			"rotation":[
				-0.0028319424018263817,
				-0.020585769787430763,
				0.022130142897367477,
				0.9995391368865967
			],
			"scale":[
				0.9999998807907104,
				0.9999998211860657,
				0.9999998807907104
			],
			"translation":[
				-8.440110832452774e-09,
				0.2391408383846283,
				2.7939677238464355e-09
			]
		},
		{
			"children":[
				2
			],
			"name":"forearm.R",
			"rotation":[
				0.04786790907382965,
				-0.06073953956365585,
				0.07015407830476761,
				0.9945339560508728
			],
			"scale":[
				1,
				0.9999999403953552,
				1
			],
			"translation":[
				2.1420419216156006e-08,
				0.2624836266040802,
				-1.862645149230957e-09
			]
		},
		{
			"children":[
				3
			],
			"name":"upper_arm.R",
			"rotation":[
				0.9885599613189697,
				0.10654281824827194,
				0.10654289275407791,
				0.006823050323873758
			],
			"scale":[
				0.9999998211860657,
				0.9999999403953552,
				0.9999999403953552
			],
			"translation":[
				0.20520000159740448,
				0.15199995040893555,
				0
			]
		},
		{
			"name":"hand.L",
			"rotation":[
				-0.0028319424018263817,
				0.020585769787430763,
				-0.022130142897367477,
				0.9995391368865967
			],
			"scale":[
				0.9999998807907104,
				0.9999998211860657,
				0.9999998807907104
			],
			"translation":[
				8.440110832452774e-09,
				0.2391408383846283,
				2.7939677238464355e-09
			]
		},
		{
			"children":[
				5
			],
			"name":"forearm.L",
			"rotation":[
				0.04786790907382965,
				0.06073953956365585,
				-0.07015407830476761,
				0.9945339560508728
			],
			"scale":[
				1,
				0.9999999403953552,
				1
			],
			"translation":[
				-2.1420419216156006e-08,
				0.2624836266040802,
				-1.862645149230957e-09
			]
		},
		{
			"children":[
				6
			],
			"name":"upper_arm.L",
			"rotation":[
				0.9885599613189697,
				-0.10654281824827194,
				-0.10654289275407791,
				0.006823050323873758
			],
			"scale":[
				0.9999998211860657,
				0.9999999403953552,
				0.9999999403953552
			],
			"translation":[
				-0.20520000159740448,
				0.15199995040893555,
				0
			]
		},
		{
			"children":[
				1,
				4,
				7
			],
			"name":"chest",
			"translation":[
				0,
				0.1614999771118164,
				0
			]
		},
		{
			"children":[
				8
			],
			"name":"spine",
			"translation":[
				0,
				0.14250004291534424,
				0
			]
		},
		{
			"name":"foot.R",
			"rotation":[
				0.5914180874824524,
				-2.08083417163607e-09,
				1.88708626502887e-09,
				0.8063651323318481
			],
			"translation":[
				-7.3225723262737574e-09,
				0.39006027579307556,
				1.1177156977737468e-09
			]
		},
		{
			"children":[
				10
			],
			"name":"shin.R",
			"rotation":[
				-0.04151010513305664,
				-0.00986463576555252,
				0.009349511004984379,
				0.9990456700325012
			],
			"scale":[
				1,
				1.0000001192092896,
				1
			],
			"translation":[
				-7.843482308089733e-09,
				0.38974085450172424,
				-1.7462298274040222e-09
			]
		},
		{
			"children":[
				11
			],
			"name":"thigh.R",
			"rotation":[
				-0.9997993111610413,
				-0.00961052905768156,
				-0.00961059145629406,
				0.014720416627824306
			],
			"scale":[
				1,
				1.0000001192092896,
				1.000000238418579
			],
			"translation":[
				0.08739999681711197,
				-0.018999993801116943,
				0
			]
		},
		{
			"name":"foot.L",
			"rotation":[
				0.5914180874824524,
				2.08083417163607e-09,
				-1.88708626502887e-09,
				0.8063651323318481
			],
			"translation":[
				7.3225723262737574e-09,
				0.39006027579307556,
				1.1177156977737468e-09
			]
		},
		{
			"children":[
				13
			],
			"name":"shin.L",
			"rotation":[
				-0.04151010513305664,
				0.00986463576555252,
				-0.009349511004984379,
				0.9990456700325012
			],
			"scale":[
				1,
				1.0000001192092896,
				1
			],
			"translation":[
				7.843482308089733e-09,
				0.38974085450172424,
				-1.7462298274040222e-09
			]
		},
		{
			"children":[
				14
			],
			"name":"thigh.L",
			"rotation":[
				-0.9997993111610413,
				0.00961052905768156,
				0.00961059145629406,
				0.014720416627824306
			],
			"scale":[
				1,
				1.0000001192092896,
				1.000000238418579
			],
			"translation":[
				-0.08739999681711197,
				-0.018999993801116943,
				0
			]
		},
		{
			"children":[
				9,
				12,
				15
			],
			"name":"hips",
			"translation":[
				0,
				0.8834999799728394,
				0
			]
		},
		{
			"mesh":0,
			"name":"hakurou",
			"skin":0
		},
		{
			"children":[
				17,
				16
			],
			"name":"hakurou_rig"
		}
	],
	"animations":[
		{
			"channels":[
				{
					"sampler":0,
					"target":{
						"node":16,
						"path":"translation"
					}
				},
				{
					"sampler":1,
					"target":{
						"node":16,
						"path":"rotation"
					}
				},
				{
					"sampler":2,
					"target":{
						"node":16,
						"path":"scale"
					}
				},
				{
					"sampler":3,
					"target":{
						"node":9,
						"path":"translation"
					}
				},
				{
					"sampler":4,
					"target":{
						"node":9,
						"path":"rotation"
					}
				},
				{
					"sampler":5,
					"target":{
						"node":9,
						"path":"scale"
					}
				},
				{
					"sampler":6,
					"target":{
						"node":8,
						"path":"translation"
					}
				},
				{
					"sampler":7,
					"target":{
						"node":8,
						"path":"rotation"
					}
				},
				{
					"sampler":8,
					"target":{
						"node":8,
						"path":"scale"
					}
				},
				{
					"sampler":9,
					"target":{
						"node":1,
						"path":"translation"
					}
				},
				{
					"sampler":10,
					"target":{
						"node":1,
						"path":"rotation"
					}
				},
				{
					"sampler":11,
					"target":{
						"node":1,
						"path":"scale"
					}
				},
				{
					"sampler":12,
					"target":{
						"node":0,
						"path":"translation"
					}
				},
				{
					"sampler":13,
					"target":{
						"node":0,
						"path":"rotation"
					}
				},
				{
					"sampler":14,
					"target":{
						"node":0,
						"path":"scale"
					}
				},
				{
					"sampler":15,
					"target":{
						"node":4,
						"path":"translation"
					}
				},
				{
					"sampler":16,
					"target":{
						"node":4,
						"path":"rotation"
					}
				},
				{
					"sampler":17,
					"target":{
						"node":4,
						"path":"scale"
					}
				},
				{
					"sampler":18,
					"target":{
						"node":3,
						"path":"translation"
					}
				},
				{
					"sampler":19,
					"target":{
						"node":3,
						"path":"rotation"
					}
				},
				{
					"sampler":20,
					"target":{
						"node":3,
						"path":"scale"
					}
				},
				{
					"sampler":21,
					"target":{
						"node":2,
						"path":"translation"
					}
				},
				{
					"sampler":22,
					"target":{
						"node":2,
						"path":"rotation"
					}
				},
				{
					"sampler":23,
					"target":{
						"node":2,
						"path":"scale"
					}
				},
				{
					"sampler":24,
					"target":{
						"node":7,
						"path":"translation"
					}
				},
				{
					"sampler":25,
					"target":{
						"node":7,
						"path":"rotation"
					}
				},
				{
					"sampler":26,
					"target":{
						"node":7,
						"path":"scale"
					}
				},
				{
					"sampler":27,
					"target":{
						"node":6,
						"path":"translation"
					}
				},
				{
					"sampler":28,
					"target":{
						"node":6,
						"path":"rotation"
					}
				},
				{
					"sampler":29,
					"target":{
						"node":6,
						"path":"scale"
					}
				},
				{
					"sampler":30,
					"target":{
						"node":5,
						"path":"translation"
					}
				},
				{
					"sampler":31,
					"target":{
						"node":5,
						"path":"rotation"
					}
				},
				{
					"sampler":32,
					"target":{
						"node":5,
						"path":"scale"
					}
				},
				{
					"sampler":33,
					"target":{
						"node":12,
						"path":"translation"
					}
				},
				{
					"sampler":34,
					"target":{
						"node":12,
						"path":"rotation"
					}
				},
				{
					"sampler":35,
					"target":{
						"node":12,
						"path":"scale"
					}
				},
				{
					"sampler":36,
					"target":{
						"node":11,
						"path":"translation"
					}
				},
				{
					"sampler":37,
					"target":{
						"node":11,
						"path":"rotation"
					}
				},
				{
					"sampler":38,
					"target":{
						"node":11,
						"path":"scale"
					}
				},
				{
					"sampler":39,
					"target":{
						"node":10,
						"path":"translation"
					}
				},
				{
					"sampler":40,
					"target":{
						"node":10,
						"path":"rotation"
					}
				},
				{
					"sampler":41,
					"target":{
						"node":10,
						"path":"scale"
					}
				},
				{
					"sampler":42,
					"target":{
						"node":15,
						"path":"translation"
					}
				},
				{
					"sampler":43,
					"target":{
						"node":15,
						"path":"rotation"
					}
				},
				{
					"sampler":44,
					"target":{
						"node":15,
						"path":"scale"
					}
				},
				{
					"sampler":45,
					"target":{
						"node":14,
						"path":"translation"
					}
				},
				{
					"sampler":46,
					"target":{
						"node":14,
						"path":"rotation"
					}
				},
				{
					"sampler":47,
					"target":{
						"node":14,
						"path":"scale"
					}
				},
				{
					"sampler":48,
					"target":{
						"node":13,
						"path":"translation"
					}
				},
				{
					"sampler":49,
					"target":{
						"node":13,
						"path":"rotation"
					}
				},
				{
					"sampler":50,
					"target":{
						"node":13,
						"path":"scale"
					}
				}
			],
			"name":"attack",
			"samplers":[
				{
					"input":91,
					"interpolation":"STEP",
					"output":92
				},
				{
					"input":91,
					"interpolation":"STEP",
					"output":93
				},
				{
					"input":91,
					"interpolation":"STEP",
					"output":94
				},
				{
					"input":91,
					"interpolation":"STEP",
					"output":95
				},
				{
					"input":91,
					"interpolation":"STEP",
					"output":96
				},
				{
					"input":91,
					"interpolation":"STEP",
					"output":97
				},
				{
					"input":91,
					"interpolation":"STEP",
					"output":98
				},
				{
					"input":99,
					"interpolation":"LINEAR",
					"output":100
				},
				{
					"input":91,
					"interpolation":"STEP",
					"output":101
				},
				{
					"input":91,
					"interpolation":"STEP",
					"output":102
				},
				{
					"input":91,
					"interpolation":"STEP",
					"output":103
				},
				{
					"input":91,
					"interpolation":"STEP",
					"output":104
				},
				{
					"input":91,
					"interpolation":"STEP",
					"output":105
				},
				{
					"input":91,
					"interpolation":"STEP",
					"output":106
				},
				{
					"input":91,
					"interpolation":"STEP",
					"output":107
				},
				{
					"input":91,
					"interpolation":"STEP",
					"output":108
				},
				{
					"input":99,
					"interpolation":"LINEAR",
					"output":109
				},
				{
					"input":91,
					"interpolation":"STEP",
					"output":110
				},
				{
					"input":91,
					"interpolation":"STEP",
					"output":111
				},
				{
					"input":99,
					"interpolation":"LINEAR",
					"output":112
				},
				{
					"input":91,
					"interpolation":"STEP",
					"output":113
				},
				{
					"input":91,
					"interpolation":"STEP",
					"output":114
				},
				{
					"input":91,
					"interpolation":"STEP",
					"output":115
				},
				{
					"input":91,
					"interpolation":"STEP",
					"output":116
				},
				{
					"input":91,
					"interpolation":"STEP",
					"output":117
				},
				{
					"input":99,
					"interpolation":"LINEAR",
					"output":118
				},
				{
					"input":91,
					"interpolation":"STEP",
					"output":119
				},
				{
					"input":91,
					"interpolation":"STEP",
					"output":120
				},
				{
					"input":91,
					"interpolation":"STEP",
					"output":121
				},
				{
					"input":91,
					"interpolation":"STEP",
					"output":122
				},
				{
					"input":91,
					"interpolation":"STEP",
					"output":123
				},
				{
					"input":91,
					"interpolation":"STEP",
					"output":124
				},
				{
					"input":91,
					"interpolation":"STEP",
					"output":125
				},
				{
					"input":91,
					"interpolation":"STEP",
					"output":126
				},
				{
					"input":99,
					"interpolation":"LINEAR",
					"output":127
				},
				{
					"input":91,
					"interpolation":"STEP",
					"output":128
				},
				{
					"input":91,
					"interpolation":"LINEAR",
					"output":129
				},
				{
					"input":91,
					"interpolation":"LINEAR",
					"output":130
				},
				{
					"input":91,
					"interpolation":"STEP",
					"output":131
				},
				{
					"input":91,
					"interpolation":"LINEAR",
					"output":132
				},
				{
					"input":91,
					"interpolation":"LINEAR",
					"output":133
				},
				{
					"input":91,
					"interpolation":"STEP",
					"output":134
				},
				{
					"input":91,
					"interpolation":"STEP",
					"output":135
				},
				{
					"input":99,
					"interpolation":"LINEAR",
					"output":136
				},
				{
					"input":91,
					"interpolation":"STEP",
					"output":137
				},
				{
					"input":91,
					"interpolation":"LINEAR",
					"output":138
				},
				{
					"input":91,
					"interpolation":"LINEAR",
					"output":139
				},
				{
					"input":91,
					"interpolation":"STEP",
					"output":140
				},
				{
					"input":91,
					"interpolation":"LINEAR",
					"output":141
				},
				{
					"input":91,
					"interpolation":"LINEAR",
					"output":142
				},
				{
					"input":91,
					"interpolation":"STEP",
					"output":143
				}
			]
		},
		{
			"channels":[
				{
					"sampler":0,
					"target":{
						"node":16,
						"path":"translation"
					}
				},
				{
					"sampler":1,
					"target":{
						"node":16,
						"path":"rotation"
					}
				},
				{
					"sampler":2,
					"target":{
						"node":16,
						"path":"scale"
					}
				},
				{
					"sampler":3,
					"target":{
						"node":9,
						"path":"translation"
					}
				},
				{
					"sampler":4,
					"target":{
						"node":9,
						"path":"rotation"
					}
				},
				{
					"sampler":5,
					"target":{
						"node":9,
						"path":"scale"
					}
				},
				{
					"sampler":6,
					"target":{
						"node":8,
						"path":"translation"
					}
				},
				{
					"sampler":7,
					"target":{
						"node":8,
						"path":"rotation"
					}
				},
				{
					"sampler":8,
					"target":{
						"node":8,
						"path":"scale"
					}
				},
				{
					"sampler":9,
					"target":{
						"node":1,
						"path":"translation"
					}
				},
				{
					"sampler":10,
					"target":{
						"node":1,
						"path":"rotation"
					}
				},
				{
					"sampler":11,
					"target":{
						"node":1,
						"path":"scale"
					}
				},
				{
					"sampler":12,
					"target":{
						"node":0,
						"path":"translation"
					}
				},
				{
					"sampler":13,
					"target":{
						"node":0,
						"path":"rotation"
					}
				},
				{
					"sampler":14,
					"target":{
						"node":0,
						"path":"scale"
					}
				},
				{
					"sampler":15,
					"target":{
						"node":4,
						"path":"translation"
					}
				},
				{
					"sampler":16,
					"target":{
						"node":4,
						"path":"rotation"
					}
				},
				{
					"sampler":17,
					"target":{
						"node":4,
						"path":"scale"
					}
				},
				{
					"sampler":18,
					"target":{
						"node":3,
						"path":"translation"
					}
				},
				{
					"sampler":19,
					"target":{
						"node":3,
						"path":"rotation"
					}
				},
				{
					"sampler":20,
					"target":{
						"node":3,
						"path":"scale"
					}
				},
				{
					"sampler":21,
					"target":{
						"node":2,
						"path":"translation"
					}
				},
				{
					"sampler":22,
					"target":{
						"node":2,
						"path":"rotation"
					}
				},
				{
					"sampler":23,
					"target":{
						"node":2,
						"path":"scale"
					}
				},
				{
					"sampler":24,
					"target":{
						"node":7,
						"path":"translation"
					}
				},
				{
					"sampler":25,
					"target":{
						"node":7,
						"path":"rotation"
					}
				},
				{
					"sampler":26,
					"target":{
						"node":7,
						"path":"scale"
					}
				},
				{
					"sampler":27,
					"target":{
						"node":6,
						"path":"translation"
					}
				},
				{
					"sampler":28,
					"target":{
						"node":6,
						"path":"rotation"
					}
				},
				{
					"sampler":29,
					"target":{
						"node":6,
						"path":"scale"
					}
				},
				{
					"sampler":30,
					"target":{
						"node":5,
						"path":"translation"
					}
				},
				{
					"sampler":31,
					"target":{
						"node":5,
						"path":"rotation"
					}
				},
				{
					"sampler":32,
					"target":{
						"node":5,
						"path":"scale"
					}
				},
				{
					"sampler":33,
					"target":{
						"node":12,
						"path":"translation"
					}
				},
				{
					"sampler":34,
					"target":{
						"node":12,
						"path":"rotation"
					}
				},
				{
					"sampler":35,
					"target":{
						"node":12,
						"path":"scale"
					}
				},
				{
					"sampler":36,
					"target":{
						"node":11,
						"path":"translation"
					}
				},
				{
					"sampler":37,
					"target":{
						"node":11,
						"path":"rotation"
					}
				},
				{
					"sampler":38,
					"target":{
						"node":11,
						"path":"scale"
					}
				},
				{
					"sampler":39,
					"target":{
						"node":10,
						"path":"translation"
					}
				},
				{
					"sampler":40,
					"target":{
						"node":10,
						"path":"rotation"
					}
				},
				{
					"sampler":41,
					"target":{
						"node":10,
						"path":"scale"
					}
				},
				{
					"sampler":42,
					"target":{
						"node":15,
						"path":"translation"
					}
				},
				{
					"sampler":43,
					"target":{
						"node":15,
						"path":"rotation"
					}
				},
				{
					"sampler":44,
					"target":{
						"node":15,
						"path":"scale"
					}
				},
				{
					"sampler":45,
					"target":{
						"node":14,
						"path":"translation"
					}
				},
				{
					"sampler":46,
					"target":{
						"node":14,
						"path":"rotation"
					}
				},
				{
					"sampler":47,
					"target":{
						"node":14,
						"path":"scale"
					}
				},
				{
					"sampler":48,
					"target":{
						"node":13,
						"path":"translation"
					}
				},
				{
					"sampler":49,
					"target":{
						"node":13,
						"path":"rotation"
					}
				},
				{
					"sampler":50,
					"target":{
						"node":13,
						"path":"scale"
					}
				}
			],
			"name":"idle",
			"samplers":[
				{
					"input":144,
					"interpolation":"LINEAR",
					"output":145
				},
				{
					"input":146,
					"interpolation":"STEP",
					"output":147
				},
				{
					"input":146,
					"interpolation":"STEP",
					"output":148
				},
				{
					"input":146,
					"interpolation":"STEP",
					"output":149
				},
				{
					"input":146,
					"interpolation":"STEP",
					"output":150
				},
				{
					"input":146,
					"interpolation":"STEP",
					"output":151
				},
				{
					"input":146,
					"interpolation":"STEP",
					"output":152
				},
				{
					"input":144,
					"interpolation":"LINEAR",
					"output":153
				},
				{
					"input":146,
					"interpolation":"STEP",
					"output":154
				},
				{
					"input":146,
					"interpolation":"STEP",
					"output":155
				},
				{
					"input":146,
					"interpolation":"STEP",
					"output":156
				},
				{
					"input":146,
					"interpolation":"STEP",
					"output":157
				},
				{
					"input":146,
					"interpolation":"STEP",
					"output":158
				},
				{
					"input":144,
					"interpolation":"LINEAR",
					"output":159
				},
				{
					"input":146,
					"interpolation":"STEP",
					"output":160
				},
				{
					"input":146,
					"interpolation":"STEP",
					"output":161
				},
				{
					"input":144,
					"interpolation":"LINEAR",
					"output":162
				},
				{
					"input":146,
					"interpolation":"STEP",
					"output":163
				},
				{
					"input":146,
					"interpolation":"STEP",
					"output":164
				},
				{
					"input":146,
					"interpolation":"STEP",
					"output":165
				},
				{
					"input":146,
					"interpolation":"STEP",
					"output":166
				},
				{
					"input":146,
					"interpolation":"STEP",
					"output":167
				},
				{
					"input":146,
					"interpolation":"STEP",
					"output":168
				},
				{
					"input":146,
					"interpolation":"STEP",
					"output":169
				},
				{
					"input":146,
					"interpolation":"STEP",
					"output":170
				},
				{
					"input":144,
					"interpolation":"LINEAR",
					"output":171
				},
				{
					"input":146,
					"interpolation":"STEP",
					"output":172
				},
				{
					"input":146,
					"interpolation":"STEP",
					"output":173
				},
				{
					"input":146,
					"interpolation":"STEP",
					"output":174
				},
				{
					"input":146,
					"interpolation":"STEP",
					"output":175
				},
				{
					"input":146,
					"interpolation":"STEP",
					"output":176
				},
				{
					"input":146,
					"interpolation":"STEP",
					"output":177
				},
				{
					"input":146,
					"interpolation":"STEP",
					"output":178
				},
				{
					"input":146,
					"interpolation":"STEP",
					"output":179
				},
				{
					"input":146,
					"interpolation":"STEP",
					"output":180
				},
				{
					"input":146,
					"interpolation":"STEP",
					"output":181
				},
				{
					"input":146,
					"interpolation":"STEP",
					"output":182
				},
				{
					"input":146,
					"interpolation":"STEP",
					"output":183
				},
				{
					"input":146,
					"interpolation":"STEP",
					"output":184
				},
				{
					"input":146,
					"interpolation":"STEP",
					"output":185
				},
				{
					"input":146,
					"interpolation":"STEP",
					"output":186
				},
				{
					"input":146,
					"interpolation":"STEP",
					"output":187
				},
				{
					"input":146,
					"interpolation":"STEP",
					"output":188
				},
				{
					"input":146,
					"interpolation":"STEP",
					"output":189
				},
				{
					"input":146,
					"interpolation":"STEP",
					"output":190
				},
				{
					"input":146,
					"interpolation":"STEP",
					"output":191
				},
				{
					"input":146,
					"interpolation":"STEP",
					"output":192
				},
				{
					"input":146,
					"interpolation":"STEP",
					"output":193
				},
				{
					"input":146,
					"interpolation":"STEP",
					"output":194
				},
				{
					"input":146,
					"interpolation":"STEP",
					"output":195
				},
				{
					"input":146,
					"interpolation":"STEP",
					"output":196
				}
			]
		},
		{
			"channels":[
				{
					"sampler":0,
					"target":{
						"node":16,
						"path":"translation"
					}
				},
				{
					"sampler":1,
					"target":{
						"node":16,
						"path":"rotation"
					}
				},
				{
					"sampler":2,
					"target":{
						"node":16,
						"path":"scale"
					}
				},
				{
					"sampler":3,
					"target":{
						"node":9,
						"path":"translation"
					}
				},
				{
					"sampler":4,
					"target":{
						"node":9,
						"path":"rotation"
					}
				},
				{
					"sampler":5,
					"target":{
						"node":9,
						"path":"scale"
					}
				},
				{
					"sampler":6,
					"target":{
						"node":8,
						"path":"translation"
					}
				},
				{
					"sampler":7,
					"target":{
						"node":8,
						"path":"rotation"
					}
				},
				{
					"sampler":8,
					"target":{
						"node":8,
						"path":"scale"
					}
				},
				{
					"sampler":9,
					"target":{
						"node":1,
						"path":"translation"
					}
				},
				{
					"sampler":10,
					"target":{
						"node":1,
						"path":"rotation"
					}
				},
				{
					"sampler":11,
					"target":{
						"node":1,
						"path":"scale"
					}
				},
				{
					"sampler":12,
					"target":{
						"node":0,
						"path":"translation"
					}
				},
				{
					"sampler":13,
					"target":{
						"node":0,
						"path":"rotation"
					}
				},
				{
					"sampler":14,
					"target":{
						"node":0,
						"path":"scale"
					}
				},
				{
					"sampler":15,
					"target":{
						"node":4,
						"path":"translation"
					}
				},
				{
					"sampler":16,
					"target":{
						"node":4,
						"path":"rotation"
					}
				},
				{
					"sampler":17,
					"target":{
						"node":4,
						"path":"scale"
					}
				},
				{
					"sampler":18,
					"target":{
						"node":3,
						"path":"translation"
					}
				},
				{
					"sampler":19,
					"target":{
						"node":3,
						"path":"rotation"
					}
				},
				{
					"sampler":20,
					"target":{
						"node":3,
						"path":"scale"
					}
				},
				{
					"sampler":21,
					"target":{
						"node":2,
						"path":"translation"
					}
				},
				{
					"sampler":22,
					"target":{
						"node":2,
						"path":"rotation"
					}
				},
				{
					"sampler":23,
					"target":{
						"node":2,
						"path":"scale"
					}
				},
				{
					"sampler":24,
					"target":{
						"node":7,
						"path":"translation"
					}
				},
				{
					"sampler":25,
					"target":{
						"node":7,
						"path":"rotation"
					}
				},
				{
					"sampler":26,
					"target":{
						"node":7,
						"path":"scale"
					}
				},
				{
					"sampler":27,
					"target":{
						"node":6,
						"path":"translation"
					}
				},
				{
					"sampler":28,
					"target":{
						"node":6,
						"path":"rotation"
					}
				},
				{
					"sampler":29,
					"target":{
						"node":6,
						"path":"scale"
					}
				},
				{
					"sampler":30,
					"target":{
						"node":5,
						"path":"translation"
					}
				},
				{
					"sampler":31,
					"target":{
						"node":5,
						"path":"rotation"
					}
				},
				{
					"sampler":32,
					"target":{
						"node":5,
						"path":"scale"
					}
				},
				{
					"sampler":33,
					"target":{
						"node":12,
						"path":"translation"
					}
				},
				{
					"sampler":34,
					"target":{
						"node":12,
						"path":"rotation"
					}
				},
				{
					"sampler":35,
					"target":{
						"node":12,
						"path":"scale"
					}
				},
				{
					"sampler":36,
					"target":{
						"node":11,
						"path":"translation"
					}
				},
				{
					"sampler":37,
					"target":{
						"node":11,
						"path":"rotation"
					}
				},
				{
					"sampler":38,
					"target":{
						"node":11,
						"path":"scale"
					}
				},
				{
					"sampler":39,
					"target":{
						"node":10,
						"path":"translation"
					}
				},
				{
					"sampler":40,
					"target":{
						"node":10,
						"path":"rotation"
					}
				},
				{
					"sampler":41,
					"target":{
						"node":10,
						"path":"scale"
					}
				},
				{
					"sampler":42,
					"target":{
						"node":15,
						"path":"translation"
					}
				},
				{
					"sampler":43,
					"target":{
						"node":15,
						"path":"rotation"
					}
				},
				{
					"sampler":44,
					"target":{
						"node":15,
						"path":"scale"
					}
				},
				{
					"sampler":45,
					"target":{
						"node":14,
						"path":"translation"
					}
				},
				{
					"sampler":46,
					"target":{
						"node":14,
						"path":"rotation"
					}
				},
				{
					"sampler":47,
					"target":{
						"node":14,
						"path":"scale"
					}
				},
				{
					"sampler":48,
					"target":{
						"node":13,
						"path":"translation"
					}
				},
				{
					"sampler":49,
					"target":{
						"node":13,
						"path":"rotation"
					}
				},
				{
					"sampler":50,
					"target":{
						"node":13,
						"path":"scale"
					}
				}
			],
			"name":"walk",
			"samplers":[
				{
					"input":197,
					"interpolation":"LINEAR",
					"output":198
				},
				{
					"input":197,
					"interpolation":"LINEAR",
					"output":199
				},
				{
					"input":200,
					"interpolation":"STEP",
					"output":201
				},
				{
					"input":200,
					"interpolation":"STEP",
					"output":202
				},
				{
					"input":200,
					"interpolation":"STEP",
					"output":203
				},
				{
					"input":200,
					"interpolation":"STEP",
					"output":204
				},
				{
					"input":200,
					"interpolation":"STEP",
					"output":205
				},
				{
					"input":197,
					"interpolation":"LINEAR",
					"output":206
				},
				{
					"input":200,
					"interpolation":"STEP",
					"output":207
				},
				{
					"input":200,
					"interpolation":"STEP",
					"output":208
				},
				{
					"input":200,
					"interpolation":"STEP",
					"output":209
				},
				{
					"input":200,
					"interpolation":"STEP",
					"output":210
				},
				{
					"input":200,
					"interpolation":"STEP",
					"output":211
				},
				{
					"input":200,
					"interpolation":"STEP",
					"output":212
				},
				{
					"input":200,
					"interpolation":"STEP",
					"output":213
				},
				{
					"input":200,
					"interpolation":"STEP",
					"output":214
				},
				{
					"input":197,
					"interpolation":"LINEAR",
					"output":215
				},
				{
					"input":200,
					"interpolation":"STEP",
					"output":216
				},
				{
					"input":200,
					"interpolation":"STEP",
					"output":217
				},
				{
					"input":200,
					"interpolation":"STEP",
					"output":218
				},
				{
					"input":200,
					"interpolation":"STEP",
					"output":219
				},
				{
					"input":200,
					"interpolation":"STEP",
					"output":220
				},
				{
					"input":200,
					"interpolation":"STEP",
					"output":221
				},
				{
					"input":200,
					"interpolation":"STEP",
					"output":222
				},
				{
					"input":200,
					"interpolation":"STEP",
					"output":223
				},
				{
					"input":197,
					"interpolation":"LINEAR",
					"output":224
				},
				{
					"input":200,
					"interpolation":"STEP",
					"output":225
				},
				{
					"input":200,
					"interpolation":"STEP",
					"output":226
				},
				{
					"input":200,
					"interpolation":"STEP",
					"output":227
				},
				{
					"input":200,
					"interpolation":"STEP",
					"output":228
				},
				{
					"input":200,
					"interpolation":"STEP",
					"output":229
				},
				{
					"input":200,
					"interpolation":"STEP",
					"output":230
				},
				{
					"input":200,
					"interpolation":"STEP",
					"output":231
				},
				{
					"input":200,
					"interpolation":"STEP",
					"output":232
				},
				{
					"input":197,
					"interpolation":"LINEAR",
					"output":233
				},
				{
					"input":200,
					"interpolation":"STEP",
					"output":234
				},
				{
					"input":200,
					"interpolation":"STEP",
					"output":235
				},
				{
					"input":197,
					"interpolation":"LINEAR",
					"output":236
				},
				{
					"input":200,
					"interpolation":"STEP",
					"output":237
				},
				{
					"input":200,
					"interpolation":"STEP",
					"output":238
				},
				{
					"input":197,
					"interpolation":"LINEAR",
					"output":239
				},
				{
					"input":200,
					"interpolation":"STEP",
					"output":240
				},
				{
					"input":200,
					"interpolation":"STEP",
					"output":241
				},
				{
					"input":197,
					"interpolation":"LINEAR",
					"output":242
				},
				{
					"input":200,
					"interpolation":"STEP",
					"output":243
				},
				{
					"input":200,
					"interpolation":"STEP",
					"output":244
				},
				{
					"input":197,
					"interpolation":"LINEAR",
					"output":245
				},
				{
					"input":200,
					"interpolation":"STEP",
					"output":246
				},
				{
					"input":200,
					"interpolation":"STEP",
					"output":247
				},
				{
					"input":197,
					"interpolation":"LINEAR",
					"output":248
				},
				{
					"input":200,
					"interpolation":"STEP",
					"output":249
				}
			]
		}
	],
	"materials":[
		{
			"name":"skin",
			"normalTexture":{
				"index":0,
				"scale":0.4000000059604645
			},
			"pbrMetallicRoughness":{
				"baseColorFactor":[
					0.848088264465332,
					0.6382831931114197,
					0.47699978947639465,
					1
				],
				"metallicFactor":0,
				"roughnessFactor":0.550000011920929
			}
		},
		{
			"extensions":{
				"KHR_materials_sheen":{
					"sheenColorFactor":[
						1.0,
						1.0,
						1.0
					],
					"sheenRoughnessFactor":0.5
				}
			},
			"name":"hair",
			"normalTexture":{
				"index":1,
				"scale":0.800000011920929
			},
			"pbrMetallicRoughness":{
				"baseColorFactor":[
					0.8900054097175598,
					0.8900054097175598,
					0.8900054097175598,
					1
				],
				"metallicFactor":0,
				"roughnessFactor":0.44999998807907104
			}
		},
		{
			"extensions":{
				"KHR_materials_sheen":{
					"sheenColorFactor":[
						1.0,
						1.0,
						1.0
					],
					"sheenRoughnessFactor":0.5
				}
			},
			"name":"outfit",
			"normalTexture":{
				"index":2,
				"scale":0.6000000238418579
			},
			"pbrMetallicRoughness":{
				"baseColorFactor":[
					0.07323895394802094,
					0.11928018927574158,
					0.07323895394802094,
					1
				],
				"metallicFactor":0,
				"roughnessFactor":0.75
			}
		},
		{
			"name":"outfit2",
			"normalTexture":{
				"index":3,
				"scale":0.4000000059604645
			},
			"pbrMetallicRoughness":{
				"baseColorFactor":[
					0.7874122858047485,
					0.7874122858047485,
					0.6920710802078247,
					1
				],
				"metallicFactor":0,
				"roughnessFactor":0.6000000238418579
			}
		},
		{
			"name":"pants",
			"normalTexture":{
				"index":4,
				"scale":0.6000000238418579
			},
			"pbrMetallicRoughness":{
				"baseColorFactor":[
					0.036306485533714294,
					0.05751831829547882,
					0.036306485533714294,
					1
				],
				"metallicFactor":0,
				"roughnessFactor":0.800000011920929
			}
		},
		{
			"extensions":{
				"KHR_materials_clearcoat":{
					"clearcoatFactor":0.30000001192092896
				}
			},
			"name":"boots",
			"normalTexture":{
				"index":5,
				"scale":0.800000011920929
			},
			"pbrMetallicRoughness":{
				"baseColorFactor":[
					0.0134117491543293,
					0.010022825561463833,
					0.010022825561463833,
					1
				],
				"metallicFactor":0,
				"roughnessFactor":0.44999998807907104
			}
		},
		{
			"name":"eye_white",
			"pbrMetallicRoughness":{
				"baseColorFactor":[
					0.8900054097175598,
					0.8900054097175598,
					0.8900054097175598,
					1
				],
				"metallicFactor":0,
				"roughnessFactor":0.20000000298023224
			}
		},
		{
			"emissiveFactor":[
				0.011763989275256348,
				0.011763989275256348,
				0.019862860485428957
			],
			"name":"iris",
			"pbrMetallicRoughness":{
				"baseColorFactor":[
					0.01960664801299572,
					0.01960664801299572,
					0.03310476616024971,
					1
				],
				"metallicFactor":0,
				"roughnessFactor":0.15000000596046448
			}
		},
		{
			"name":"pupil",
			"pbrMetallicRoughness":{
				"baseColorFactor":[
					0.0015479875728487968,
					0.0015479875728487968,
					0.0023219813592731953,
					1
				],
				"metallicFactor":0,
				"roughnessFactor":0.10000000149011612
			}
		},
		{
			"name":"lips",
			"pbrMetallicRoughness":{
				"baseColorFactor":[
					0.38135144114494324,
					0.2890384793281555,
					0.21776217222213745,
					1
				],
				"metallicFactor":0,
				"roughnessFactor":0.4000000059604645
			}
		},
		{
			"extensions":{
				"KHR_materials_clearcoat":{
					"clearcoatFactor":0.5
				}
			},
			"name":"horn",
			"pbrMetallicRoughness":{
				"baseColorFactor":[
					0.7874122858047485,
					0.7874122858047485,
					0.7874122858047485,
					1
				],
				"metallicFactor":0,
				"roughnessFactor":0.30000001192092896
			}
		},
		{
			"name":"buckle",
			"pbrMetallicRoughness":{
				"baseColorFactor":[
					0.6920710802078247,
					0.4479884207248688,
					0.07323895394802094,
					1
				],
				"metallicFactor":0.8999999761581421,
				"roughnessFactor":0.30000001192092896
			}
		},
		{
			"name":"blade",
			"normalTexture":{
				"index":6,
				"scale":0.30000001192092896
			},
			"pbrMetallicRoughness":{
				"baseColorFactor":[
					0.7484140992164612,
					0.7874122858047485,
					0.8900054097175598,
					1
				],
				"metallicFactor":0.550000011920929,
				"roughnessFactor":0.2199999988079071
			}
		},
		{
			"name":"handle",
			"normalTexture":{
				"index":7,
				"scale":0.6000000238418579
			},
			"pbrMetallicRoughness":{
				"baseColorFactor":[
					0.0134117491543293,
					0.007194409146904945,
					0.004896310158073902,
					1
				],
				"metallicFactor":0,
				"roughnessFactor":0.6000000238418579
			}
		},
		{
			"name":"guard",
			"pbrMetallicRoughness":{
				"baseColorFactor":[
					0.6038273572921753,
					0.38005632162094116,
					0.05087608844041824,
					1
				],
				"metallicFactor":0.8999999761581421,
				"roughnessFactor":0.30000001192092896
			}
		}
	],
	"meshes":[
		{
			"name":"hakurou",
			"primitives":[
				{
					"attributes":{
						"POSITION":0,
						"NORMAL":1,
						"TEXCOORD_0":2,
						"JOINTS_0":3,
						"WEIGHTS_0":4
					},
					"indices":5,
					"material":0
				},
				{
					"attributes":{
						"POSITION":6,
						"NORMAL":7,
						"TEXCOORD_0":8,
						"JOINTS_0":9,
						"WEIGHTS_0":10
					},
					"indices":11,
					"material":1
				},
				{
					"attributes":{
						"POSITION":12,
						"NORMAL":13,
						"TEXCOORD_0":14,
						"JOINTS_0":15,
						"WEIGHTS_0":16
					},
					"indices":17,
					"material":2
				},
				{
					"attributes":{
						"POSITION":18,
						"NORMAL":19,
						"TEXCOORD_0":20,
						"JOINTS_0":21,
						"WEIGHTS_0":22
					},
					"indices":23,
					"material":3
				},
				{
					"attributes":{
						"POSITION":24,
						"NORMAL":25,
						"TEXCOORD_0":26,
						"JOINTS_0":27,
						"WEIGHTS_0":28
					},
					"indices":29,
					"material":4
				},
				{
					"attributes":{
						"POSITION":30,
						"NORMAL":31,
						"TEXCOORD_0":32,
						"JOINTS_0":33,
						"WEIGHTS_0":34
					},
					"indices":35,
					"material":5
				},
				{
					"attributes":{
						"POSITION":36,
						"NORMAL":37,
						"TEXCOORD_0":38,
						"JOINTS_0":39,
						"WEIGHTS_0":40
					},
					"indices":41,
					"material":6
				},
				{
					"attributes":{
						"POSITION":42,
						"NORMAL":43,
						"TEXCOORD_0":44,
						"JOINTS_0":45,
						"WEIGHTS_0":46
					},
					"indices":47,
					"material":7
				},
				{
					"attributes":{
						"POSITION":48,
						"NORMAL":49,
						"TEXCOORD_0":50,
						"JOINTS_0":51,
						"WEIGHTS_0":52
					},
					"indices":53,
					"material":8
				},
				{
					"attributes":{
						"POSITION":54,
						"NORMAL":55,
						"TEXCOORD_0":56,
						"JOINTS_0":57,
						"WEIGHTS_0":58
					},
					"indices":59,
					"material":9
				},
				{
					"attributes":{
						"POSITION":60,
						"NORMAL":61,
						"TEXCOORD_0":62,
						"JOINTS_0":63,
						"WEIGHTS_0":64
					},
					"indices":65,
					"material":10
				},
				{
					"attributes":{
						"POSITION":66,
						"NORMAL":67,
						"TEXCOORD_0":68,
						"JOINTS_0":69,
						"WEIGHTS_0":70
					},
					"indices":71,
					"material":11
				},
				{
					"attributes":{
						"POSITION":72,
						"NORMAL":73,
						"TEXCOORD_0":74,
						"JOINTS_0":75,
						"WEIGHTS_0":76
					},
					"indices":77,
					"material":12
				},
				{
					"attributes":{
						"POSITION":78,
						"NORMAL":79,
						"TEXCOORD_0":80,
						"JOINTS_0":81,
						"WEIGHTS_0":82
					},
					"indices":83,
					"material":13
				},
				{
					"attributes":{
						"POSITION":84,
						"NORMAL":85,
						"TEXCOORD_0":86,
						"JOINTS_0":87,
						"WEIGHTS_0":88
					},
					"indices":89,
					"material":14
				}
			]
		}
	],
	"textures":[
		{
			"sampler":0,
			"source":0
		},
		{
			"sampler":0,
			"source":1
		},
		{
			"sampler":0,
			"source":2
		},
		{
			"sampler":0,
			"source":2
		},
		{
			"sampler":0,
			"source":2
		},
		{
			"sampler":0,
			"source":3
		},
		{
			"sampler":0,
			"source":4
		},
		{
			"sampler":0,
			"source":3
		}
	],
	"images":[
		{
			"mimeType":"image/png",
			"name":"N_skin",
			"uri":"texturas/N_skin.png"
		},
		{
			"mimeType":"image/png",
			"name":"N_hair",
			"uri":"texturas/N_hair.png"
		},
		{
			"mimeType":"image/png",
			"name":"N_cloth",
			"uri":"texturas/N_cloth.png"
		},
		{
			"mimeType":"image/png",
			"name":"N_leather",
			"uri":"texturas/N_leather.png"
		},
		{
			"mimeType":"image/png",
			"name":"N_metal",
			"uri":"texturas/N_metal.png"
		}
	],
	"skins":[
		{
			"inverseBindMatrices":90,
			"joints":[
				16,
				9,
				8,
				1,
				0,
				4,
				3,
				2,
				7,
				6,
				5,
				12,
				11,
				10,
				15,
				14,
				13
			],
			"name":"hakurou_rig"
		}
	],
	"accessors":[
		{
			"bufferView":0,
			"componentType":5126,
			"count":1437,
			"max":[
				0.30477243661880493,
				1.6947999000549316,
				0.1018519327044487
			],
			"min":[
				-0.30477243661880493,
				0.7452445030212402,
				-0.11027289181947708
			],
			"type":"VEC3"
		},
		{
			"bufferView":1,
			"componentType":5126,
			"count":1437,
			"type":"VEC3"
		},
		{
			"bufferView":2,
			"componentType":5126,
			"count":1437,
			"type":"VEC2"
		},
		{
			"bufferView":3,
			"componentType":5121,
			"count":1437,
			"type":"VEC4"
		},
		{
			"bufferView":4,
			"componentType":5126,
			"count":1437,
			"type":"VEC4"
		},
		{
			"bufferView":5,
			"componentType":5123,
			"count":5868,
			"type":"SCALAR"
		},
		{
			"bufferView":6,
			"componentType":5126,
			"count":4453,
			"max":[
				0.11259414255619049,
				1.720102310180664,
				0.26592403650283813
			],
			"min":[
				-0.11112261563539505,
				1.2154428958892822,
				-0.10444168746471405
			],
			"type":"VEC3"
		},
		{
			"bufferView":7,
			"componentType":5126,
			"count":4453,
			"type":"VEC3"
		},
		{
			"bufferView":8,
			"componentType":5126,
			"count":4453,
			"type":"VEC2"
		},
		{
			"bufferView":9,
			"componentType":5121,
			"count":4453,
			"type":"VEC4"
		},
		{
			"bufferView":10,
			"componentType":5126,
			"count":4453,
			"type":"VEC4"
		},
		{
			"bufferView":11,
			"componentType":5123,
			"count":14088,
			"type":"SCALAR"
		},
		{
			"bufferView":12,
			"componentType":5126,
			"count":1461,
			"max":[
				0.308412104845047,
				1.4005019664764404,
				0.10656341165304184
			],
			"min":[
				-0.308412104845047,
				0.8832886815071106,
				-0.10613065958023071
			],
			"type":"VEC3"
		},
		{
			"bufferView":13,
			"componentType":5126,
			"count":1461,
			"type":"VEC3"
		},
		{
			"bufferView":14,
			"componentType":5126,
			"count":1461,
			"type":"VEC2"
		},
		{
			"bufferView":15,
			"componentType":5121,
			"count":1461,
			"type":"VEC4"
		},
		{
			"bufferView":16,
			"componentType":5126,
			"count":1461,
			"type":"VEC4"
		},
		{
			"bufferView":17,
			"componentType":5123,
			"count":6648,
			"type":"SCALAR"
		},
		{
			"bufferView":18,
			"componentType":5126,
			"count":65,
			"max":[
				0.13552239537239075,
				0.9803175926208496,
				0.10814833641052246
			],
			"min":[
				-0.13552239537239075,
				0.832495927810669,
				-0.10942323505878448
			],
			"type":"VEC3"
		},
		{
			"bufferView":19,
			"componentType":5126,
			"count":65,
			"type":"VEC3"
		},
		{
			"bufferView":20,
			"componentType":5126,
			"count":65,
			"type":"VEC2"
		},
		{
			"bufferView":21,
			"componentType":5121,
			"count":65,
			"type":"VEC4"
		},
		{
			"bufferView":22,
			"componentType":5126,
			"count":65,
			"type":"VEC4"
		},
		{
			"bufferView":23,
			"componentType":5123,
			"count":192,
			"type":"SCALAR"
		},
		{
			"bufferView":24,
			"componentType":5126,
			"count":977,
			"max":[
				0.305849552154541,
				0.890433132648468,
				0.1052955612540245
			],
			"min":[
				-0.30584952235221863,
				0.2850576937198639,
				-0.10698529332876205
			],
			"type":"VEC3"
		},
		{
			"bufferView":25,
			"componentType":5126,
			"count":977,
			"type":"VEC3"
		},
		{
			"bufferView":26,
			"componentType":5126,
			"count":977,
			"type":"VEC2"
		},
		{
			"bufferView":27,
			"componentType":5121,
			"count":977,
			"type":"VEC4"
		},
		{
			"bufferView":28,
			"componentType":5126,
			"count":977,
			"type":"VEC4"
		},
		{
			"bufferView":29,
			"componentType":5123,
			"count":4332,
			"type":"SCALAR"
		},
		{
			"bufferView":30,
			"componentType":5126,
			"count":1034,
			"max":[
				0.1581214815378189,
				0.29112470149993896,
				0.07550361752510071
			],
			"min":[
				-0.1581214964389801,
				0.007217949256300926,
				-0.1331147402524948
			],
			"type":"VEC3"
		},
		{
			"bufferView":31,
			"componentType":5126,
			"count":1034,
			"type":"VEC3"
		},
		{
			"bufferView":32,
			"componentType":5126,
			"count":1034,
			"type":"VEC2"
		},
		{
			"bufferView":33,
			"componentType":5121,
			"count":1034,
			"type":"VEC4"
		},
		{
			"bufferView":34,
			"componentType":5126,
			"count":1034,
			"type":"VEC4"
		},
		{
			"bufferView":35,
			"componentType":5123,
			"count":4608,
			"type":"SCALAR"
		},
		{
			"bufferView":36,
			"componentType":5126,
			"count":304,
			"max":[
				0.04844999685883522,
				1.6021748781204224,
				-0.06650000065565109
			],
			"min":[
				-0.04844999685883522,
				1.5803248882293701,
				-0.0835999995470047
			],
			"type":"VEC3"
		},
		{
			"bufferView":37,
			"componentType":5126,
			"count":304,
			"type":"VEC3"
		},
		{
			"bufferView":38,
			"componentType":5126,
			"count":304,
			"type":"VEC2"
		},
		{
			"bufferView":39,
			"componentType":5121,
			"count":304,
			"type":"VEC4"
		},
		{
			"bufferView":40,
			"componentType":5126,
			"count":304,
			"type":"VEC4"
		},
		{
			"bufferView":41,
			"componentType":5123,
			"count":1152,
			"type":"SCALAR"
		},
		{
			"bufferView":42,
			"componentType":5126,
			"count":220,
			"max":[
				0.04132499918341637,
				1.600559949874878,
				-0.07715923339128494
			],
			"min":[
				-0.04132499918341637,
				1.581939935684204,
				-0.08529076725244522
			],
			"type":"VEC3"
		},
		{
			"bufferView":43,
			"componentType":5126,
			"count":220,
			"type":"VEC3"
		},
		{
			"bufferView":44,
			"componentType":5126,
			"count":220,
			"type":"VEC2"
		},
		{
			"bufferView":45,
			"componentType":5121,
			"count":220,
			"type":"VEC4"
		},
		{
			"bufferView":46,
			"componentType":5126,
			"count":220,
			"type":"VEC4"
		},
		{
			"bufferView":47,
			"componentType":5123,
			"count":720,
			"type":"SCALAR"
		},
		{
			"bufferView":48,
			"componentType":5126,
			"count":160,
			"max":[
				0.03609471395611763,
				1.5955249071121216,
				-0.08255299180746078
			],
			"min":[
				-0.03609471395611763,
				1.5869749784469604,
				-0.08616700768470764
			],
			"type":"VEC3"
		},
		{
			"bufferView":49,
			"componentType":5126,
			"count":160,
			"type":"VEC3"
		},
		{
			"bufferView":50,
			"componentType":5126,
			"count":160,
			"type":"VEC2"
		},
		{
			"bufferView":51,
			"componentType":5121,
			"count":160,
			"type":"VEC4"
		},
		{
			"bufferView":52,
			"componentType":5126,
			"count":160,
			"type":"VEC4"
		},
		{
			"bufferView":53,
			"componentType":5123,
			"count":480,
			"type":"SCALAR"
		},
		{
			"bufferView":54,
			"componentType":5126,
			"count":98,
			"max":[
				0.018050000071525574,
				1.5271248817443848,
				-0.07383423298597336
			],
			"min":[
				-0.018050000071525574,
				1.5185749530792236,
				-0.08196576684713364
			],
			"type":"VEC3"
		},
		{
			"bufferView":55,
			"componentType":5126,
			"count":98,
			"type":"VEC3"
		},
		{
			"bufferView":56,
			"componentType":5126,
			"count":98,
			"type":"VEC2"
		},
		{
			"bufferView":57,
			"componentType":5121,
			"count":98,
			"type":"VEC4"
		},
		{
			"bufferView":58,
			"componentType":5126,
			"count":98,
			"type":"VEC4"
		},
		{
			"bufferView":59,
			"componentType":5123,
			"count":360,
			"type":"SCALAR"
		},
		{
			"bufferView":60,
			"componentType":5126,
			"count":180,
			"max":[
				0.06085779517889023,
				1.775086760520935,
				-0.03195560351014137
			],
			"min":[
				-0.06085779517889023,
				1.6778783798217773,
				-0.06796112656593323
			],
			"type":"VEC3"
		},
		{
			"bufferView":61,
			"componentType":5126,
			"count":180,
			"type":"VEC3"
		},
		{
			"bufferView":62,
			"componentType":5126,
			"count":180,
			"type":"VEC2"
		},
		{
			"bufferView":63,
			"componentType":5121,
			"count":180,
			"type":"VEC4"
		},
		{
			"bufferView":64,
			"componentType":5126,
			"count":180,
			"type":"VEC4"
		},
		{
			"bufferView":65,
			"componentType":5123,
			"count":576,
			"type":"SCALAR"
		},
		{
			"bufferView":66,
			"componentType":5126,
			"count":24,
			"max":[
				0.023749999701976776,
				0.921500027179718,
				-0.0892999991774559
			],
			"min":[
				-0.023749999701976776,
				0.8834999799728394,
				-0.1006999984383583
			],
			"type":"VEC3"
		},
		{
			"bufferView":67,
			"componentType":5126,
			"count":24,
			"type":"VEC3"
		},
		{
			"bufferView":68,
			"componentType":5126,
			"count":24,
			"type":"VEC2"
		},
		{
			"bufferView":69,
			"componentType":5121,
			"count":24,
			"type":"VEC4"
		},
		{
			"bufferView":70,
			"componentType":5126,
			"count":24,
			"type":"VEC4"
		},
		{
			"bufferView":71,
			"componentType":5123,
			"count":36,
			"type":"SCALAR"
		},
		{
			"bufferView":72,
			"componentType":5126,
			"count":108,
			"max":[
				0.2914600074291229,
				0.7426734566688538,
				-0.08681848645210266
			],
			"min":[
				0.2800599932670593,
				0.36526745557785034,
				-0.7620325088500977
			],
			"type":"VEC3"
		},
		{
			"bufferView":73,
			"componentType":5126,
			"count":108,
			"type":"VEC3"
		},
		{
			"bufferView":74,
			"componentType":5126,
			"count":108,
			"type":"VEC2"
		},
		{
			"bufferView":75,
			"componentType":5121,
			"count":108,
			"type":"VEC4"
		},
		{
			"bufferView":76,
			"componentType":5126,
			"count":108,
			"type":"VEC4"
		},
		{
			"bufferView":77,
			"componentType":5123,
			"count":156,
			"type":"SCALAR"
		},
		{
			"bufferView":78,
			"componentType":5126,
			"count":42,
			"max":[
				0.3009600043296814,
				0.8128458261489868,
				0.06912008672952652
			],
			"min":[
				0.27055999636650085,
				0.7227479219436646,
				-0.0819670706987381
			],
			"type":"VEC3"
		},
		{
			"bufferView":79,
			"componentType":5126,
			"count":42,
			"type":"VEC3"
		},
		{
			"bufferView":80,
			"componentType":5126,
			"count":42,
			"type":"VEC2"
		},
		{
			"bufferView":81,
			"componentType":5121,
			"count":42,
			"type":"VEC4"
		},
		{
			"bufferView":82,
			"componentType":5126,
			"count":42,
			"type":"VEC4"
		},
		{
			"bufferView":83,
			"componentType":5123,
			"count":96,
			"type":"SCALAR"
		},
		{
			"bufferView":84,
			"componentType":5126,
			"count":74,
			"max":[
				0.32850998640060425,
				0.7697027921676636,
				-0.06360086053609848
			],
			"min":[
				0.2430099993944168,
				0.6957186460494995,
				-0.10518469661474228
			],
			"type":"VEC3"
		},
		{
			"bufferView":85,
			"componentType":5126,
			"count":74,
			"type":"VEC3"
		},
		{
			"bufferView":86,
			"componentType":5126,
			"count":74,
			"type":"VEC2"
		},
		{
			"bufferView":87,
			"componentType":5121,
			"count":74,
			"type":"VEC4"
		},
		{
			"bufferView":88,
			"componentType":5126,
			"count":74,
			"type":"VEC4"
		},
		{
			"bufferView":89,
			"componentType":5123,
			"count":144,
			"type":"SCALAR"
		},
		{
			"bufferView":90,
			"componentType":5126,
			"count":17,
			"type":"MAT4"
		},
		{
			"bufferView":91,
			"componentType":5126,
			"count":2,
			"max":[
				0.6
			],
			"min":[
				0
			],
			"type":"SCALAR"
		},
		{
			"bufferView":92,
			"componentType":5126,
			"count":2,
			"type":"VEC3"
		},
		{
			"bufferView":93,
			"componentType":5126,
			"count":2,
			"type":"VEC4"
		},
		{
			"bufferView":94,
			"componentType":5126,
			"count":2,
			"type":"VEC3"
		},
		{
			"bufferView":95,
			"componentType":5126,
			"count":2,
			"type":"VEC3"
		},
		{
			"bufferView":96,
			"componentType":5126,
			"count":2,
			"type":"VEC4"
		},
		{
			"bufferView":97,
			"componentType":5126,
			"count":2,
			"type":"VEC3"
		},
		{
			"bufferView":98,
			"componentType":5126,
			"count":2,
			"type":"VEC3"
		},
		{
			"bufferView":99,
			"componentType":5126,
			"count":19,
			"max":[
				0.6
			],
			"min":[
				0
			],
			"type":"SCALAR"
		},
		{
			"bufferView":100,
			"componentType":5126,
			"count":19,
			"type":"VEC4"
		},
		{
			"bufferView":101,
			"componentType":5126,
			"count":2,
			"type":"VEC3"
		},
		{
			"bufferView":102,
			"componentType":5126,
			"count":2,
			"type":"VEC3"
		},
		{
			"bufferView":103,
			"componentType":5126,
			"count":2,
			"type":"VEC4"
		},
		{
			"bufferView":104,
			"componentType":5126,
			"count":2,
			"type":"VEC3"
		},
		{
			"bufferView":105,
			"componentType":5126,
			"count":2,
			"type":"VEC3"
		},
		{
			"bufferView":106,
			"componentType":5126,
			"count":2,
			"type":"VEC4"
		},
		{
			"bufferView":107,
			"componentType":5126,
			"count":2,
			"type":"VEC3"
		},
		{
			"bufferView":108,
			"componentType":5126,
			"count":2,
			"type":"VEC3"
		},
		{
			"bufferView":109,
			"componentType":5126,
			"count":19,
			"type":"VEC4"
		},
		{
			"bufferView":110,
			"componentType":5126,
			"count":2,
			"type":"VEC3"
		},
		{
			"bufferView":111,
			"componentType":5126,
			"count":2,
			"type":"VEC3"
		},
		{
			"bufferView":112,
			"componentType":5126,
			"count":19,
			"type":"VEC4"
		},
		{
			"bufferView":113,
			"componentType":5126,
			"count":2,
			"type":"VEC3"
		},
		{
			"bufferView":114,
			"componentType":5126,
			"count":2,
			"type":"VEC3"
		},
		{
			"bufferView":115,
			"componentType":5126,
			"count":2,
			"type":"VEC4"
		},
		{
			"bufferView":116,
			"componentType":5126,
			"count":2,
			"type":"VEC3"
		},
		{
			"bufferView":117,
			"componentType":5126,
			"count":2,
			"type":"VEC3"
		},
		{
			"bufferView":118,
			"componentType":5126,
			"count":19,
			"type":"VEC4"
		},
		{
			"bufferView":119,
			"componentType":5126,
			"count":2,
			"type":"VEC3"
		},
		{
			"bufferView":120,
			"componentType":5126,
			"count":2,
			"type":"VEC3"
		},
		{
			"bufferView":121,
			"componentType":5126,
			"count":2,
			"type":"VEC4"
		},
		{
			"bufferView":122,
			"componentType":5126,
			"count":2,
			"type":"VEC3"
		},
		{
			"bufferView":123,
			"componentType":5126,
			"count":2,
			"type":"VEC3"
		},
		{
			"bufferView":124,
			"componentType":5126,
			"count":2,
			"type":"VEC4"
		},
		{
			"bufferView":125,
			"componentType":5126,
			"count":2,
			"type":"VEC3"
		},
		{
			"bufferView":126,
			"componentType":5126,
			"count":2,
			"type":"VEC3"
		},
		{
			"bufferView":127,
			"componentType":5126,
			"count":19,
			"type":"VEC4"
		},
		{
			"bufferView":128,
			"componentType":5126,
			"count":2,
			"type":"VEC3"
		},
		{
			"bufferView":129,
			"componentType":5126,
			"count":2,
			"type":"VEC3"
		},
		{
			"bufferView":130,
			"componentType":5126,
			"count":2,
			"type":"VEC4"
		},
		{
			"bufferView":131,
			"componentType":5126,
			"count":2,
			"type":"VEC3"
		},
		{
			"bufferView":132,
			"componentType":5126,
			"count":2,
			"type":"VEC3"
		},
		{
			"bufferView":133,
			"componentType":5126,
			"count":2,
			"type":"VEC4"
		},
		{
			"bufferView":134,
			"componentType":5126,
			"count":2,
			"type":"VEC3"
		},
		{
			"bufferView":135,
			"componentType":5126,
			"count":2,
			"type":"VEC3"
		},
		{
			"bufferView":136,
			"componentType":5126,
			"count":19,
			"type":"VEC4"
		},
		{
			"bufferView":137,
			"componentType":5126,
			"count":2,
			"type":"VEC3"
		},
		{
			"bufferView":138,
			"componentType":5126,
			"count":2,
			"type":"VEC3"
		},
		{
			"bufferView":139,
			"componentType":5126,
			"count":2,
			"type":"VEC4"
		},
		{
			"bufferView":140,
			"componentType":5126,
			"count":2,
			"type":"VEC3"
		},
		{
			"bufferView":141,
			"componentType":5126,
			"count":2,
			"type":"VEC3"
		},
		{
			"bufferView":142,
			"componentType":5126,
			"count":2,
			"type":"VEC4"
		},
		{
			"bufferView":143,
			"componentType":5126,
			"count":2,
			"type":"VEC3"
		},
		{
			"bufferView":144,
			"componentType":5126,
			"count":61,
			"max":[
				2
			],
			"min":[
				0
			],
			"type":"SCALAR"
		},
		{
			"bufferView":145,
			"componentType":5126,
			"count":61,
			"type":"VEC3"
		},
		{
			"bufferView":146,
			"componentType":5126,
			"count":2,
			"max":[
				2
			],
			"min":[
				0
			],
			"type":"SCALAR"
		},
		{
			"bufferView":147,
			"componentType":5126,
			"count":2,
			"type":"VEC4"
		},
		{
			"bufferView":148,
			"componentType":5126,
			"count":2,
			"type":"VEC3"
		},
		{
			"bufferView":149,
			"componentType":5126,
			"count":2,
			"type":"VEC3"
		},
		{
			"bufferView":150,
			"componentType":5126,
			"count":2,
			"type":"VEC4"
		},
		{
			"bufferView":151,
			"componentType":5126,
			"count":2,
			"type":"VEC3"
		},
		{
			"bufferView":152,
			"componentType":5126,
			"count":2,
			"type":"VEC3"
		},
		{
			"bufferView":153,
			"componentType":5126,
			"count":61,
			"type":"VEC4"
		},
		{
			"bufferView":154,
			"componentType":5126,
			"count":2,
			"type":"VEC3"
		},
		{
			"bufferView":155,
			"componentType":5126,
			"count":2,
			"type":"VEC3"
		},
		{
			"bufferView":156,
			"componentType":5126,
			"count":2,
			"type":"VEC4"
		},
		{
			"bufferView":157,
			"componentType":5126,
			"count":2,
			"type":"VEC3"
		},
		{
			"bufferView":158,
			"componentType":5126,
			"count":2,
			"type":"VEC3"
		},
		{
			"bufferView":159,
			"componentType":5126,
			"count":61,
			"type":"VEC4"
		},
		{
			"bufferView":160,
			"componentType":5126,
			"count":2,
			"type":"VEC3"
		},
		{
			"bufferView":161,
			"componentType":5126,
			"count":2,
			"type":"VEC3"
		},
		{
			"bufferView":162,
			"componentType":5126,
			"count":61,
			"type":"VEC4"
		},
		{
			"bufferView":163,
			"componentType":5126,
			"count":2,
			"type":"VEC3"
		},
		{
			"bufferView":164,
			"componentType":5126,
			"count":2,
			"type":"VEC3"
		},
		{
			"bufferView":165,
			"componentType":5126,
			"count":2,
			"type":"VEC4"
		},
		{
			"bufferView":166,
			"componentType":5126,
			"count":2,
			"type":"VEC3"
		},
		{
			"bufferView":167,
			"componentType":5126,
			"count":2,
			"type":"VEC3"
		},
		{
			"bufferView":168,
			"componentType":5126,
			"count":2,
			"type":"VEC4"
		},
		{
			"bufferView":169,
			"componentType":5126,
			"count":2,
			"type":"VEC3"
		},
		{
			"bufferView":170,
			"componentType":5126,
			"count":2,
			"type":"VEC3"
		},
		{
			"bufferView":171,
			"componentType":5126,
			"count":61,
			"type":"VEC4"
		},
		{
			"bufferView":172,
			"componentType":5126,
			"count":2,
			"type":"VEC3"
		},
		{
			"bufferView":173,
			"componentType":5126,
			"count":2,
			"type":"VEC3"
		},
		{
			"bufferView":174,
			"componentType":5126,
			"count":2,
			"type":"VEC4"
		},
		{
			"bufferView":175,
			"componentType":5126,
			"count":2,
			"type":"VEC3"
		},
		{
			"bufferView":176,
			"componentType":5126,
			"count":2,
			"type":"VEC3"
		},
		{
			"bufferView":177,
			"componentType":5126,
			"count":2,
			"type":"VEC4"
		},
		{
			"bufferView":178,
			"componentType":5126,
			"count":2,
			"type":"VEC3"
		},
		{
			"bufferView":179,
			"componentType":5126,
			"count":2,
			"type":"VEC3"
		},
		{
			"bufferView":180,
			"componentType":5126,
			"count":2,
			"type":"VEC4"
		},
		{
			"bufferView":181,
			"componentType":5126,
			"count":2,
			"type":"VEC3"
		},
		{
			"bufferView":182,
			"componentType":5126,
			"count":2,
			"type":"VEC3"
		},
		{
			"bufferView":183,
			"componentType":5126,
			"count":2,
			"type":"VEC4"
		},
		{
			"bufferView":184,
			"componentType":5126,
			"count":2,
			"type":"VEC3"
		},
		{
			"bufferView":185,
			"componentType":5126,
			"count":2,
			"type":"VEC3"
		},
		{
			"bufferView":186,
			"componentType":5126,
			"count":2,
			"type":"VEC4"
		},
		{
			"bufferView":187,
			"componentType":5126,
			"count":2,
			"type":"VEC3"
		},
		{
			"bufferView":188,
			"componentType":5126,
			"count":2,
			"type":"VEC3"
		},
		{
			"bufferView":189,
			"componentType":5126,
			"count":2,
			"type":"VEC4"
		},
		{
			"bufferView":190,
			"componentType":5126,
			"count":2,
			"type":"VEC3"
		},
		{
			"bufferView":191,
			"componentType":5126,
			"count":2,
			"type":"VEC3"
		},
		{
			"bufferView":192,
			"componentType":5126,
			"count":2,
			"type":"VEC4"
		},
		{
			"bufferView":193,
			"componentType":5126,
			"count":2,
			"type":"VEC3"
		},
		{
			"bufferView":194,
			"componentType":5126,
			"count":2,
			"type":"VEC3"
		},
		{
			"bufferView":195,
			"componentType":5126,
			"count":2,
			"type":"VEC4"
		},
		{
			"bufferView":196,
			"componentType":5126,
			"count":2,
			"type":"VEC3"
		},
		{
			"bufferView":197,
			"componentType":5126,
			"count":31,
			"max":[
				1
			],
			"min":[
				0
			],
			"type":"SCALAR"
		},
		{
			"bufferView":198,
			"componentType":5126,
			"count":31,
			"type":"VEC3"
		},
		{
			"bufferView":199,
			"componentType":5126,
			"count":31,
			"type":"VEC4"
		},
		{
			"bufferView":200,
			"componentType":5126,
			"count":2,
			"max":[
				1
			],
			"min":[
				0
			],
			"type":"SCALAR"
		},
		{
			"bufferView":201,
			"componentType":5126,
			"count":2,
			"type":"VEC3"
		},
		{
			"bufferView":202,
			"componentType":5126,
			"count":2,
			"type":"VEC3"
		},
		{
			"bufferView":203,
			"componentType":5126,
			"count":2,
			"type":"VEC4"
		},
		{
			"bufferView":204,
			"componentType":5126,
			"count":2,
			"type":"VEC3"
		},
		{
			"bufferView":205,
			"componentType":5126,
			"count":2,
			"type":"VEC3"
		},
		{
			"bufferView":206,
			"componentType":5126,
			"count":31,
			"type":"VEC4"
		},
		{
			"bufferView":207,
			"componentType":5126,
			"count":2,
			"type":"VEC3"
		},
		{
			"bufferView":208,
			"componentType":5126,
			"count":2,
			"type":"VEC3"
		},
		{
			"bufferView":209,
			"componentType":5126,
			"count":2,
			"type":"VEC4"
		},
		{
			"bufferView":210,
			"componentType":5126,
			"count":2,
			"type":"VEC3"
		},
		{
			"bufferView":211,
			"componentType":5126,
			"count":2,
			"type":"VEC3"
		},
		{
			"bufferView":212,
			"componentType":5126,
			"count":2,
			"type":"VEC4"
		},
		{
			"bufferView":213,
			"componentType":5126,
			"count":2,
			"type":"VEC3"
		},
		{
			"bufferView":214,
			"componentType":5126,
			"count":2,
			"type":"VEC3"
		},
		{
			"bufferView":215,
			"componentType":5126,
			"count":31,
			"type":"VEC4"
		},
		{
			"bufferView":216,
			"componentType":5126,
			"count":2,
			"type":"VEC3"
		},
		{
			"bufferView":217,
			"componentType":5126,
			"count":2,
			"type":"VEC3"
		},
		{
			"bufferView":218,
			"componentType":5126,
			"count":2,
			"type":"VEC4"
		},
		{
			"bufferView":219,
			"componentType":5126,
			"count":2,
			"type":"VEC3"
		},
		{
			"bufferView":220,
			"componentType":5126,
			"count":2,
			"type":"VEC3"
		},
		{
			"bufferView":221,
			"componentType":5126,
			"count":2,
			"type":"VEC4"
		},
		{
			"bufferView":222,
			"componentType":5126,
			"count":2,
			"type":"VEC3"
		},
		{
			"bufferView":223,
			"componentType":5126,
			"count":2,
			"type":"VEC3"
		},
		{
			"bufferView":224,
			"componentType":5126,
			"count":31,
			"type":"VEC4"
		},
		{
			"bufferView":225,
			"componentType":5126,
			"count":2,
			"type":"VEC3"
		},
		{
			"bufferView":226,
			"componentType":5126,
			"count":2,
			"type":"VEC3"
		},
		{
			"bufferView":227,
			"componentType":5126,
			"count":2,
			"type":"VEC4"
		},
		{
			"bufferView":228,
			"componentType":5126,
			"count":2,
			"type":"VEC3"
		},
		{
			"bufferView":229,
			"componentType":5126,
			"count":2,
			"type":"VEC3"
		},
		{
			"bufferView":230,
			"componentType":5126,
			"count":2,
			"type":"VEC4"
		},
		{
			"bufferView":231,
			"componentType":5126,
			"count":2,
			"type":"VEC3"
		},
		{
			"bufferView":232,
			"componentType":5126,
			"count":2,
			"type":"VEC3"
		},
		{
			"bufferView":233,
			"componentType":5126,
			"count":31,
			"type":"VEC4"
		},
		{
			"bufferView":234,
			"componentType":5126,
			"count":2,
			"type":"VEC3"
		},
		{
			"bufferView":235,
			"componentType":5126,
			"count":2,
			"type":"VEC3"
		},
		{
			"bufferView":236,
			"componentType":5126,
			"count":31,
			"type":"VEC4"
		},
		{
			"bufferView":237,
			"componentType":5126,
			"count":2,
			"type":"VEC3"
		},
		{
			"bufferView":238,
			"componentType":5126,
			"count":2,
			"type":"VEC3"
		},
		{
			"bufferView":239,
			"componentType":5126,
			"count":31,
			"type":"VEC4"
		},
		{
			"bufferView":240,
			"componentType":5126,
			"count":2,
			"type":"VEC3"
		},
		{
			"bufferView":241,
			"componentType":5126,
			"count":2,
			"type":"VEC3"
		},
		{
			"bufferView":242,
			"componentType":5126,
			"count":31,
			"type":"VEC4"
		},
		{
			"bufferView":243,
			"componentType":5126,
			"count":2,
			"type":"VEC3"
		},
		{
			"bufferView":244,
			"componentType":5126,
			"count":2,
			"type":"VEC3"
		},
		{
			"bufferView":245,
			"componentType":5126,
			"count":31,
			"type":"VEC4"
		},
		{
			"bufferView":246,
			"componentType":5126,
			"count":2,
			"type":"VEC3"
		},
		{
			"bufferView":247,
			"componentType":5126,
			"count":2,
			"type":"VEC3"
		},
		{
			"bufferView":248,
			"componentType":5126,
			"count":31,
			"type":"VEC4"
		},
		{
			"bufferView":249,
			"componentType":5126,
			"count":2,
			"type":"VEC3"
		}
	],
	"bufferViews":[
		{
			"buffer":0,
			"byteLength":17244,
			"byteOffset":0,
			"target":34962
		},
		{
			"buffer":0,
			"byteLength":17244,
			"byteOffset":17244,
			"target":34962
		},
		{
			"buffer":0,
			"byteLength":11496,
			"byteOffset":34488,
			"target":34962
		},
		{
			"buffer":0,
			"byteLength":5748,
			"byteOffset":45984,
			"target":34962
		},
		{
			"buffer":0,
			"byteLength":22992,
			"byteOffset":51732,
			"target":34962
		},
		{
			"buffer":0,
			"byteLength":11736,
			"byteOffset":74724,
			"target":34963
		},
		{
			"buffer":0,
			"byteLength":53436,
			"byteOffset":86460,
			"target":34962
		},
		{
			"buffer":0,
			"byteLength":53436,
			"byteOffset":139896,
			"target":34962
		},
		{
			"buffer":0,
			"byteLength":35624,
			"byteOffset":193332,
			"target":34962
		},
		{
			"buffer":0,
			"byteLength":17812,
			"byteOffset":228956,
			"target":34962
		},
		{
			"buffer":0,
			"byteLength":71248,
			"byteOffset":246768,
			"target":34962
		},
		{
			"buffer":0,
			"byteLength":28176,
			"byteOffset":318016,
			"target":34963
		},
		{
			"buffer":0,
			"byteLength":17532,
			"byteOffset":346192,
			"target":34962
		},
		{
			"buffer":0,
			"byteLength":17532,
			"byteOffset":363724,
			"target":34962
		},
		{
			"buffer":0,
			"byteLength":11688,
			"byteOffset":381256,
			"target":34962
		},
		{
			"buffer":0,
			"byteLength":5844,
			"byteOffset":392944,
			"target":34962
		},
		{
			"buffer":0,
			"byteLength":23376,
			"byteOffset":398788,
			"target":34962
		},
		{
			"buffer":0,
			"byteLength":13296,
			"byteOffset":422164,
			"target":34963
		},
		{
			"buffer":0,
			"byteLength":780,
			"byteOffset":435460,
			"target":34962
		},
		{
			"buffer":0,
			"byteLength":780,
			"byteOffset":436240,
			"target":34962
		},
		{
			"buffer":0,
			"byteLength":520,
			"byteOffset":437020,
			"target":34962
		},
		{
			"buffer":0,
			"byteLength":260,
			"byteOffset":437540,
			"target":34962
		},
		{
			"buffer":0,
			"byteLength":1040,
			"byteOffset":437800,
			"target":34962
		},
		{
			"buffer":0,
			"byteLength":384,
			"byteOffset":438840,
			"target":34963
		},
		{
			"buffer":0,
			"byteLength":11724,
			"byteOffset":439224,
			"target":34962
		},
		{
			"buffer":0,
			"byteLength":11724,
			"byteOffset":450948,
			"target":34962
		},
		{
			"buffer":0,
			"byteLength":7816,
			"byteOffset":462672,
			"target":34962
		},
		{
			"buffer":0,
			"byteLength":3908,
			"byteOffset":470488,
			"target":34962
		},
		{
			"buffer":0,
			"byteLength":15632,
			"byteOffset":474396,
			"target":34962
		},
		{
			"buffer":0,
			"byteLength":8664,
			"byteOffset":490028,
			"target":34963
		},
		{
			"buffer":0,
			"byteLength":12408,
			"byteOffset":498692,
			"target":34962
		},
		{
			"buffer":0,
			"byteLength":12408,
			"byteOffset":511100,
			"target":34962
		},
		{
			"buffer":0,
			"byteLength":8272,
			"byteOffset":523508,
			"target":34962
		},
		{
			"buffer":0,
			"byteLength":4136,
			"byteOffset":531780,
			"target":34962
		},
		{
			"buffer":0,
			"byteLength":16544,
			"byteOffset":535916,
			"target":34962
		},
		{
			"buffer":0,
			"byteLength":9216,
			"byteOffset":552460,
			"target":34963
		},
		{
			"buffer":0,
			"byteLength":3648,
			"byteOffset":561676,
			"target":34962
		},
		{
			"buffer":0,
			"byteLength":3648,
			"byteOffset":565324,
			"target":34962
		},
		{
			"buffer":0,
			"byteLength":2432,
			"byteOffset":568972,
			"target":34962
		},
		{
			"buffer":0,
			"byteLength":1216,
			"byteOffset":571404,
			"target":34962
		},
		{
			"buffer":0,
			"byteLength":4864,
			"byteOffset":572620,
			"target":34962
		},
		{
			"buffer":0,
			"byteLength":2304,
			"byteOffset":577484,
			"target":34963
		},
		{
			"buffer":0,
			"byteLength":2640,
			"byteOffset":579788,
			"target":34962
		},
		{
			"buffer":0,
			"byteLength":2640,
			"byteOffset":582428,
			"target":34962
		},
		{
			"buffer":0,
			"byteLength":1760,
			"byteOffset":585068,
			"target":34962
		},
		{
			"buffer":0,
			"byteLength":880,
			"byteOffset":586828,
			"target":34962
		},
		{
			"buffer":0,
			"byteLength":3520,
			"byteOffset":587708,
			"target":34962
		},
		{
			"buffer":0,
			"byteLength":1440,
			"byteOffset":591228,
			"target":34963
		},
		{
			"buffer":0,
			"byteLength":1920,
			"byteOffset":592668,
			"target":34962
		},
		{
			"buffer":0,
			"byteLength":1920,
			"byteOffset":594588,
			"target":34962
		},
		{
			"buffer":0,
			"byteLength":1280,
			"byteOffset":596508,
			"target":34962
		},
		{
			"buffer":0,
			"byteLength":640,
			"byteOffset":597788,
			"target":34962
		},
		{
			"buffer":0,
			"byteLength":2560,
			"byteOffset":598428,
			"target":34962
		},
		{
			"buffer":0,
			"byteLength":960,
			"byteOffset":600988,
			"target":34963
		},
		{
			"buffer":0,
			"byteLength":1176,
			"byteOffset":601948,
			"target":34962
		},
		{
			"buffer":0,
			"byteLength":1176,
			"byteOffset":603124,
			"target":34962
		},
		{
			"buffer":0,
			"byteLength":784,
			"byteOffset":604300,
			"target":34962
		},
		{
			"buffer":0,
			"byteLength":392,
			"byteOffset":605084,
			"target":34962
		},
		{
			"buffer":0,
			"byteLength":1568,
			"byteOffset":605476,
			"target":34962
		},
		{
			"buffer":0,
			"byteLength":720,
			"byteOffset":607044,
			"target":34963
		},
		{
			"buffer":0,
			"byteLength":2160,
			"byteOffset":607764,
			"target":34962
		},
		{
			"buffer":0,
			"byteLength":2160,
			"byteOffset":609924,
			"target":34962
		},
		{
			"buffer":0,
			"byteLength":1440,
			"byteOffset":612084,
			"target":34962
		},
		{
			"buffer":0,
			"byteLength":720,
			"byteOffset":613524,
			"target":34962
		},
		{
			"buffer":0,
			"byteLength":2880,
			"byteOffset":614244,
			"target":34962
		},
		{
			"buffer":0,
			"byteLength":1152,
			"byteOffset":617124,
			"target":34963
		},
		{
			"buffer":0,
			"byteLength":288,
			"byteOffset":618276,
			"target":34962
		},
		{
			"buffer":0,
			"byteLength":288,
			"byteOffset":618564,
			"target":34962
		},
		{
			"buffer":0,
			"byteLength":192,
			"byteOffset":618852,
			"target":34962
		},
		{
			"buffer":0,
			"byteLength":96,
			"byteOffset":619044,
			"target":34962
		},
		{
			"buffer":0,
			"byteLength":384,
			"byteOffset":619140,
			"target":34962
		},
		{
			"buffer":0,
			"byteLength":72,
			"byteOffset":619524,
			"target":34963
		},
		{
			"buffer":0,
			"byteLength":1296,
			"byteOffset":619596,
			"target":34962
		},
		{
			"buffer":0,
			"byteLength":1296,
			"byteOffset":620892,
			"target":34962
		},
		{
			"buffer":0,
			"byteLength":864,
			"byteOffset":622188,
			"target":34962
		},
		{
			"buffer":0,
			"byteLength":432,
			"byteOffset":623052,
			"target":34962
		},
		{
			"buffer":0,
			"byteLength":1728,
			"byteOffset":623484,
			"target":34962
		},
		{
			"buffer":0,
			"byteLength":312,
			"byteOffset":625212,
			"target":34963
		},
		{
			"buffer":0,
			"byteLength":504,
			"byteOffset":625524,
			"target":34962
		},
		{
			"buffer":0,
			"byteLength":504,
			"byteOffset":626028,
			"target":34962
		},
		{
			"buffer":0,
			"byteLength":336,
			"byteOffset":626532,
			"target":34962
		},
		{
			"buffer":0,
			"byteLength":168,
			"byteOffset":626868,
			"target":34962
		},
		{
			"buffer":0,
			"byteLength":672,
			"byteOffset":627036,
			"target":34962
		},
		{
			"buffer":0,
			"byteLength":192,
			"byteOffset":627708,
			"target":34963
		},
		{
			"buffer":0,
			"byteLength":888,
			"byteOffset":627900,
			"target":34962
		},
		{
			"buffer":0,
			"byteLength":888,
			"byteOffset":628788,
			"target":34962
		},
		{
			"buffer":0,
			"byteLength":592,
			"byteOffset":629676,
			"target":34962
		},
		{
			"buffer":0,
			"byteLength":296,
			"byteOffset":630268,
			"target":34962
		},
		{
			"buffer":0,
			"byteLength":1184,
			"byteOffset":630564,
			"target":34962
		},
		{
			"buffer":0,
			"byteLength":288,
			"byteOffset":631748,
			"target":34963
		},
		{
			"buffer":0,
			"byteLength":1088,
			"byteOffset":632036
		},
		{
			"buffer":0,
			"byteLength":8,
			"byteOffset":633124
		},
		{
			"buffer":0,
			"byteLength":24,
			"byteOffset":633132
		},
		{
			"buffer":0,
			"byteLength":32,
			"byteOffset":633156
		},
		{
			"buffer":0,
			"byteLength":24,
			"byteOffset":633188
		},
		{
			"buffer":0,
			"byteLength":24,
			"byteOffset":633212
		},
		{
			"buffer":0,
			"byteLength":32,
			"byteOffset":633236
		},
		{
			"buffer":0,
			"byteLength":24,
			"byteOffset":633268
		},
		{
			"buffer":0,
			"byteLength":24,
			"byteOffset":633292
		},
		{
			"buffer":0,
			"byteLength":76,
			"byteOffset":633316
		},
		{
			"buffer":0,
			"byteLength":304,
			"byteOffset":633392
		},
		{
			"buffer":0,
			"byteLength":24,
			"byteOffset":633696
		},
		{
			"buffer":0,
			"byteLength":24,
			"byteOffset":633720
		},
		{
			"buffer":0,
			"byteLength":32,
			"byteOffset":633744
		},
		{
			"buffer":0,
			"byteLength":24,
			"byteOffset":633776
		},
		{
			"buffer":0,
			"byteLength":24,
			"byteOffset":633800
		},
		{
			"buffer":0,
			"byteLength":32,
			"byteOffset":633824
		},
		{
			"buffer":0,
			"byteLength":24,
			"byteOffset":633856
		},
		{
			"buffer":0,
			"byteLength":24,
			"byteOffset":633880
		},
		{
			"buffer":0,
			"byteLength":304,
			"byteOffset":633904
		},
		{
			"buffer":0,
			"byteLength":24,
			"byteOffset":634208
		},
		{
			"buffer":0,
			"byteLength":24,
			"byteOffset":634232
		},
		{
			"buffer":0,
			"byteLength":304,
			"byteOffset":634256
		},
		{
			"buffer":0,
			"byteLength":24,
			"byteOffset":634560
		},
		{
			"buffer":0,
			"byteLength":24,
			"byteOffset":634584
		},
		{
			"buffer":0,
			"byteLength":32,
			"byteOffset":634608
		},
		{
			"buffer":0,
			"byteLength":24,
			"byteOffset":634640
		},
		{
			"buffer":0,
			"byteLength":24,
			"byteOffset":634664
		},
		{
			"buffer":0,
			"byteLength":304,
			"byteOffset":634688
		},
		{
			"buffer":0,
			"byteLength":24,
			"byteOffset":634992
		},
		{
			"buffer":0,
			"byteLength":24,
			"byteOffset":635016
		},
		{
			"buffer":0,
			"byteLength":32,
			"byteOffset":635040
		},
		{
			"buffer":0,
			"byteLength":24,
			"byteOffset":635072
		},
		{
			"buffer":0,
			"byteLength":24,
			"byteOffset":635096
		},
		{
			"buffer":0,
			"byteLength":32,
			"byteOffset":635120
		},
		{
			"buffer":0,
			"byteLength":24,
			"byteOffset":635152
		},
		{
			"buffer":0,
			"byteLength":24,
			"byteOffset":635176
		},
		{
			"buffer":0,
			"byteLength":304,
			"byteOffset":635200
		},
		{
			"buffer":0,
			"byteLength":24,
			"byteOffset":635504
		},
		{
			"buffer":0,
			"byteLength":24,
			"byteOffset":635528
		},
		{
			"buffer":0,
			"byteLength":32,
			"byteOffset":635552
		},
		{
			"buffer":0,
			"byteLength":24,
			"byteOffset":635584
		},
		{
			"buffer":0,
			"byteLength":24,
			"byteOffset":635608
		},
		{
			"buffer":0,
			"byteLength":32,
			"byteOffset":635632
		},
		{
			"buffer":0,
			"byteLength":24,
			"byteOffset":635664
		},
		{
			"buffer":0,
			"byteLength":24,
			"byteOffset":635688
		},
		{
			"buffer":0,
			"byteLength":304,
			"byteOffset":635712
		},
		{
			"buffer":0,
			"byteLength":24,
			"byteOffset":636016
		},
		{
			"buffer":0,
			"byteLength":24,
			"byteOffset":636040
		},
		{
			"buffer":0,
			"byteLength":32,
			"byteOffset":636064
		},
		{
			"buffer":0,
			"byteLength":24,
			"byteOffset":636096
		},
		{
			"buffer":0,
			"byteLength":24,
			"byteOffset":636120
		},
		{
			"buffer":0,
			"byteLength":32,
			"byteOffset":636144
		},
		{
			"buffer":0,
			"byteLength":24,
			"byteOffset":636176
		},
		{
			"buffer":0,
			"byteLength":244,
			"byteOffset":636200
		},
		{
			"buffer":0,
			"byteLength":732,
			"byteOffset":636444
		},
		{
			"buffer":0,
			"byteLength":8,
			"byteOffset":637176
		},
		{
			"buffer":0,
			"byteLength":32,
			"byteOffset":637184
		},
		{
			"buffer":0,
			"byteLength":24,
			"byteOffset":637216
		},
		{
			"buffer":0,
			"byteLength":24,
			"byteOffset":637240
		},
		{
			"buffer":0,
			"byteLength":32,
			"byteOffset":637264
		},
		{
			"buffer":0,
			"byteLength":24,
			"byteOffset":637296
		},
		{
			"buffer":0,
			"byteLength":24,
			"byteOffset":637320
		},
		{
			"buffer":0,
			"byteLength":976,
			"byteOffset":637344
		},
		{
			"buffer":0,
			"byteLength":24,
			"byteOffset":638320
		},
		{
			"buffer":0,
			"byteLength":24,
			"byteOffset":638344
		},
		{
			"buffer":0,
			"byteLength":32,
			"byteOffset":638368
		},
		{
			"buffer":0,
			"byteLength":24,
			"byteOffset":638400
		},
		{
			"buffer":0,
			"byteLength":24,
			"byteOffset":638424
		},
		{
			"buffer":0,
			"byteLength":976,
			"byteOffset":638448
		},
		{
			"buffer":0,
			"byteLength":24,
			"byteOffset":639424
		},
		{
			"buffer":0,
			"byteLength":24,
			"byteOffset":639448
		},
		{
			"buffer":0,
			"byteLength":976,
			"byteOffset":639472
		},
		{
			"buffer":0,
			"byteLength":24,
			"byteOffset":640448
		},
		{
			"buffer":0,
			"byteLength":24,
			"byteOffset":640472
		},
		{
			"buffer":0,
			"byteLength":32,
			"byteOffset":640496
		},
		{
			"buffer":0,
			"byteLength":24,
			"byteOffset":640528
		},
		{
			"buffer":0,
			"byteLength":24,
			"byteOffset":640552
		},
		{
			"buffer":0,
			"byteLength":32,
			"byteOffset":640576
		},
		{
			"buffer":0,
			"byteLength":24,
			"byteOffset":640608
		},
		{
			"buffer":0,
			"byteLength":24,
			"byteOffset":640632
		},
		{
			"buffer":0,
			"byteLength":976,
			"byteOffset":640656
		},
		{
			"buffer":0,
			"byteLength":24,
			"byteOffset":641632
		},
		{
			"buffer":0,
			"byteLength":24,
			"byteOffset":641656
		},
		{
			"buffer":0,
			"byteLength":32,
			"byteOffset":641680
		},
		{
			"buffer":0,
			"byteLength":24,
			"byteOffset":641712
		},
		{
			"buffer":0,
			"byteLength":24,
			"byteOffset":641736
		},
		{
			"buffer":0,
			"byteLength":32,
			"byteOffset":641760
		},
		{
			"buffer":0,
			"byteLength":24,
			"byteOffset":641792
		},
		{
			"buffer":0,
			"byteLength":24,
			"byteOffset":641816
		},
		{
			"buffer":0,
			"byteLength":32,
			"byteOffset":641840
		},
		{
			"buffer":0,
			"byteLength":24,
			"byteOffset":641872
		},
		{
			"buffer":0,
			"byteLength":24,
			"byteOffset":641896
		},
		{
			"buffer":0,
			"byteLength":32,
			"byteOffset":641920
		},
		{
			"buffer":0,
			"byteLength":24,
			"byteOffset":641952
		},
		{
			"buffer":0,
			"byteLength":24,
			"byteOffset":641976
		},
		{
			"buffer":0,
			"byteLength":32,
			"byteOffset":642000
		},
		{
			"buffer":0,
			"byteLength":24,
			"byteOffset":642032
		},
		{
			"buffer":0,
			"byteLength":24,
			"byteOffset":642056
		},
		{
			"buffer":0,
			"byteLength":32,
			"byteOffset":642080
		},
		{
			"buffer":0,
			"byteLength":24,
			"byteOffset":642112
		},
		{
			"buffer":0,
			"byteLength":24,
			"byteOffset":642136
		},
		{
			"buffer":0,
			"byteLength":32,
			"byteOffset":642160
		},
		{
			"buffer":0,
			"byteLength":24,
			"byteOffset":642192
		},
		{
			"buffer":0,
			"byteLength":24,
			"byteOffset":642216
		},
		{
			"buffer":0,
			"byteLength":32,
			"byteOffset":642240
		},
		{
			"buffer":0,
			"byteLength":24,
			"byteOffset":642272
		},
		{
			"buffer":0,
			"byteLength":124,
			"byteOffset":642296
		},
		{
			"buffer":0,
			"byteLength":372,
			"byteOffset":642420
		},
		{
			"buffer":0,
			"byteLength":496,
			"byteOffset":642792
		},
		{
			"buffer":0,
			"byteLength":8,
			"byteOffset":643288
		},
		{
			"buffer":0,
			"byteLength":24,
			"byteOffset":643296
		},
		{
			"buffer":0,
			"byteLength":24,
			"byteOffset":643320
		},
		{
			"buffer":0,
			"byteLength":32,
			"byteOffset":643344
		},
		{
			"buffer":0,
			"byteLength":24,
			"byteOffset":643376
		},
		{
			"buffer":0,
			"byteLength":24,
			"byteOffset":643400
		},
		{
			"buffer":0,
			"byteLength":496,
			"byteOffset":643424
		},
		{
			"buffer":0,
			"byteLength":24,
			"byteOffset":643920
		},
		{
			"buffer":0,
			"byteLength":24,
			"byteOffset":643944
		},
		{
			"buffer":0,
			"byteLength":32,
			"byteOffset":643968
		},
		{
			"buffer":0,
			"byteLength":24,
			"byteOffset":644000
		},
		{
			"buffer":0,
			"byteLength":24,
			"byteOffset":644024
		},
		{
			"buffer":0,
			"byteLength":32,
			"byteOffset":644048
		},
		{
			"buffer":0,
			"byteLength":24,
			"byteOffset":644080
		},
		{
			"buffer":0,
			"byteLength":24,
			"byteOffset":644104
		},
		{
			"buffer":0,
			"byteLength":496,
			"byteOffset":644128
		},
		{
			"buffer":0,
			"byteLength":24,
			"byteOffset":644624
		},
		{
			"buffer":0,
			"byteLength":24,
			"byteOffset":644648
		},
		{
			"buffer":0,
			"byteLength":32,
			"byteOffset":644672
		},
		{
			"buffer":0,
			"byteLength":24,
			"byteOffset":644704
		},
		{
			"buffer":0,
			"byteLength":24,
			"byteOffset":644728
		},
		{
			"buffer":0,
			"byteLength":32,
			"byteOffset":644752
		},
		{
			"buffer":0,
			"byteLength":24,
			"byteOffset":644784
		},
		{
			"buffer":0,
			"byteLength":24,
			"byteOffset":644808
		},
		{
			"buffer":0,
			"byteLength":496,
			"byteOffset":644832
		},
		{
			"buffer":0,
			"byteLength":24,
			"byteOffset":645328
		},
		{
			"buffer":0,
			"byteLength":24,
			"byteOffset":645352
		},
		{
			"buffer":0,
			"byteLength":32,
			"byteOffset":645376
		},
		{
			"buffer":0,
			"byteLength":24,
			"byteOffset":645408
		},
		{
			"buffer":0,
			"byteLength":24,
			"byteOffset":645432
		},
		{
			"buffer":0,
			"byteLength":32,
			"byteOffset":645456
		},
		{
			"buffer":0,
			"byteLength":24,
			"byteOffset":645488
		},
		{
			"buffer":0,
			"byteLength":24,
			"byteOffset":645512
		},
		{
			"buffer":0,
			"byteLength":496,
			"byteOffset":645536
		},
		{
			"buffer":0,
			"byteLength":24,
			"byteOffset":646032
		},
		{
			"buffer":0,
			"byteLength":24,
			"byteOffset":646056
		},
		{
			"buffer":0,
			"byteLength":496,
			"byteOffset":646080
		},
		{
			"buffer":0,
			"byteLength":24,
			"byteOffset":646576
		},
		{
			"buffer":0,
			"byteLength":24,
			"byteOffset":646600
		},
		{
			"buffer":0,
			"byteLength":496,
			"byteOffset":646624
		},
		{
			"buffer":0,
			"byteLength":24,
			"byteOffset":647120
		},
		{
			"buffer":0,
			"byteLength":24,
			"byteOffset":647144
		},
		{
			"buffer":0,
			"byteLength":496,
			"byteOffset":647168
		},
		{
			"buffer":0,
			"byteLength":24,
			"byteOffset":647664
		},
		{
			"buffer":0,
			"byteLength":24,
			"byteOffset":647688
		},
		{
			"buffer":0,
			"byteLength":496,
			"byteOffset":647712
		},
		{
			"buffer":0,
			"byteLength":24,
			"byteOffset":648208
		},
		{
			"buffer":0,
			"byteLength":24,
			"byteOffset":648232
		},
		{
			"buffer":0,
			"byteLength":496,
			"byteOffset":648256
		},
		{
			"buffer":0,
			"byteLength":24,
			"byteOffset":648752
		}
	],
	"samplers":[
		{
			"magFilter":9729,
			"minFilter":9987
		}
	],
	"buffers":[
		{
			"byteLength":648776,
			"uri":"hakurou.bin"
		}
	]
}
