{
	"asset":{
		"generator":"Khronos glTF Blender I/O v4.2.57",
		"version":"2.0"
	},
	"extensionsUsed":[
		"KHR_materials_clearcoat",
		"KHR_materials_sheen"
	],
	"scene":0,
	"scenes":[
		{
			"name":"Scene",
			"nodes":[
				18
			]
		}
	],
	"nodes":[
		{
			"name":"head",
			"translation":[
				0,
				0.09999990463256836,
				0
			]
		},
		{
			"children":[
				0
			],
			"name":"neck",
			"translation":[
				0,
				0.21000003814697266,
				0
			]
		},
		{
			"name":"hand.R",
			"rotation":[
				-0.0023571813944727182,
				-0.016418322920799255,
				0.017660969868302345,
				0.9997064471244812
			],
			"translation":[
				-1.9208528101444244e-09,
				0.2513878643512726,
				-2.7939677238464355e-09
			]
		},
		{
			"children":[
				2
			],
			"name":"forearm.R",
			"rotation":[
				0.05022275075316429,
				-0.05592827498912811,
				0.06416802108287811,
				0.9951040744781494
			],
			"scale":[
				1,
				1.0000001192092896,
				1
			],
			"translation":[
				3.91155481338501e-08,
				0.27479061484336853,
				-2.7939677238464355e-09
			]
		},
		{
			"children":[
				3
			],
			"name":"upper_arm.R",
			"rotation":[
				0.9912914633750916,
				0.09286591410636902,
				0.09286512434482574,
				0.009655661880970001
			],
			"scale":[
				1.0000052452087402,
				1.0000001192092896,
				1.000000238418579
			],
			"translation":[
				0.1720000058412552,
				0.15999996662139893,
				0
			]
		},
		{
			"name":"hand.L",
			"rotation":[
				-0.0023571813944727182,
				0.016418322920799255,
				-0.017660969868302345,
				0.9997064471244812
			],
			"translation":[
				1.9208528101444244e-09,
				0.2513878643512726,
				-2.7939677238464355e-09
			]
		},
		{
			"children":[
				5
			],
			"name":"forearm.L",
			"rotation":[
				0.05022275075316429,
				0.05592827498912811,
				-0.06416802108287811,
				0.9951040744781494
			],
			"scale":[
				1,
				1.0000001192092896,
				1
			],
			"translation":[
				-3.91155481338501e-08,
				0.27479061484336853,
				-2.7939677238464355e-09
			]
		},
		{
			"children":[
				6
			],
			"name":"upper_arm.L",
			"rotation":[
				0.9912914633750916,
				-0.09286591410636902,
				-0.09286512434482574,
				0.009655661880970001
			],
			"scale":[
				1.0000052452087402,
				1.0000001192092896,
				1.000000238418579
			],
			"translation":[
				-0.1720000058412552,
				0.15999996662139893,
				0
			]
		},
		{
			"children":[
				1,
				4,
				7
			],
			"name":"chest",
			"translation":[
				0,
				0.16999995708465576,
				0
			]
		},
		{
			"children":[
				8
			],
			"name":"spine",
			"translation":[
				0,
				0.15000003576278687,
				0
			]
		},
		{
			"name":"foot.R",
			"rotation":[
				0.5914181470870972,
				2.087205963618999e-09,
				-3.036795537258996e-10,
				0.8063650131225586
			],
			"translation":[
				-7.328945450524316e-09,
				0.4105897545814514,
				-2.2662050014332635e-10
			]
		},
		{
			"children":[
				10
			],
			"name":"shin.R",
			"rotation":[
				-0.04152866080403328,
				-0.010850693099200726,
				0.010284049436450005,
				0.9990255236625671
			],
			"scale":[
				1,
				1.0000001192092896,
				1
			],
			"translation":[
				-4.103640094399452e-09,
				0.4102700352668762,
				-1.1641532182693481e-09
			]
		},
		{
			"children":[
				11
			],
			"name":"thigh.R",
			"rotation":[
				-0.9997796416282654,
				-0.010571159422397614,
				-0.010571259073913097,
				0.014739512465894222
			],
			"scale":[
				1.0000001192092896,
				1,
				1.000000238418579
			],
			"translation":[
				0.10119999945163727,
				-0.019999980926513672,
				0
			]
		},
		{
			"name":"foot.L",
			"rotation":[
				0.5914181470870972,
				-2.087205963618999e-09,
				3.036795537258996e-10,
				0.8063650131225586
			],
			"translation":[
				7.328945450524316e-09,
				0.4105897545814514,
				-2.2662050014332635e-10
			]
		},
		{
			"children":[
				13
			],
			"name":"shin.L",
			"rotation":[
				-0.04152866080403328,
				0.010850693099200726,
				-0.010284049436450005,
				0.9990255236625671
			],
			"scale":[
				1,
				1.0000001192092896,
				1
			],
			"translation":[
				4.103640094399452e-09,
				0.4102700352668762,
				-1.1641532182693481e-09
			]
		},
		{
			"children":[
				14
			],
			"name":"thigh.L",
			"rotation":[
				-0.9997796416282654,
				0.010571159422397614,
				0.010571259073913097,
				0.014739512465894222
			],
			"scale":[
				1.0000001192092896,
				1,
				1.000000238418579
			],
			"translation":[
				-0.10119999945163727,
				-0.019999980926513672,
				0
			]
		},
		{
			"children":[
				9,
				12,
				15
			],
			"name":"hips",
			"translation":[
				0,
				0.9300000071525574,
				0
			]
		},
		{
			"mesh":0,
			"name":"hinata",
			"skin":0
		},
		{
			"children":[
				17,
				16
			],
			"name":"hinata_rig"
		}
	],
	"animations":[
		{
			"channels":[
				{
					"sampler":0,
					"target":{
						"node":16,
						"path":"translation"
					}
				},
				{
					"sampler":1,
					"target":{
						"node":16,
						"path":"rotation"
					}
				},
				{
					"sampler":2,
					"target":{
						"node":16,
						"path":"scale"
					}
				},
				{
					"sampler":3,
					"target":{
						"node":9,
						"path":"translation"
					}
				},
				{
					"sampler":4,
					"target":{
						"node":9,
						"path":"rotation"
					}
				},
				{
					"sampler":5,
					"target":{
						"node":9,
						"path":"scale"
					}
				},
				{
					"sampler":6,
					"target":{
						"node":8,
						"path":"translation"
					}
				},
				{
					"sampler":7,
					"target":{
						"node":8,
						"path":"rotation"
					}
				},
				{
					"sampler":8,
					"target":{
						"node":8,
						"path":"scale"
					}
				},
				{
					"sampler":9,
					"target":{
						"node":1,
						"path":"translation"
					}
				},
				{
					"sampler":10,
					"target":{
						"node":1,
						"path":"rotation"
					}
				},
				{
					"sampler":11,
					"target":{
						"node":1,
						"path":"scale"
					}
				},
				{
					"sampler":12,
					"target":{
						"node":0,
						"path":"translation"
					}
				},
				{
					"sampler":13,
					"target":{
						"node":0,
						"path":"rotation"
					}
				},
				{
					"sampler":14,
					"target":{
						"node":0,
						"path":"scale"
					}
				},
				{
					"sampler":15,
					"target":{
						"node":4,
						"path":"translation"
					}
				},
				{
					"sampler":16,
					"target":{
						"node":4,
						"path":"rotation"
					}
				},
				{
					"sampler":17,
					"target":{
						"node":4,
						"path":"scale"
					}
				},
				{
					"sampler":18,
					"target":{
						"node":3,
						"path":"translation"
					}
				},
				{
					"sampler":19,
					"target":{
						"node":3,
						"path":"rotation"
					}
				},
				{
					"sampler":20,
					"target":{
						"node":3,
						"path":"scale"
					}
				},
				{
					"sampler":21,
					"target":{
						"node":2,
						"path":"translation"
					}
				},
				{
					"sampler":22,
					"target":{
						"node":2,
						"path":"rotation"
					}
				},
				{
					"sampler":23,
					"target":{
						"node":2,
						"path":"scale"
					}
				},
				{
					"sampler":24,
					"target":{
						"node":7,
						"path":"translation"
					}
				},
				{
					"sampler":25,
					"target":{
						"node":7,
						"path":"rotation"
					}
				},
				{
					"sampler":26,
					"target":{
						"node":7,
						"path":"scale"
					}
				},
				{
					"sampler":27,
					"target":{
						"node":6,
						"path":"translation"
					}
				},
				{
					"sampler":28,
					"target":{
						"node":6,
						"path":"rotation"
					}
				},
				{
					"sampler":29,
					"target":{
						"node":6,
						"path":"scale"
					}
				},
				{
					"sampler":30,
					"target":{
						"node":5,
						"path":"translation"
					}
				},
				{
					"sampler":31,
					"target":{
						"node":5,
						"path":"rotation"
					}
				},
				{
					"sampler":32,
					"target":{
						"node":5,
						"path":"scale"
					}
				},
				{
					"sampler":33,
					"target":{
						"node":12,
						"path":"translation"
					}
				},
				{
					"sampler":34,
					"target":{
						"node":12,
						"path":"rotation"
					}
				},
				{
					"sampler":35,
					"target":{
						"node":12,
						"path":"scale"
					}
				},
				{
					"sampler":36,
					"target":{
						"node":11,
						"path":"translation"
					}
				},
				{
					"sampler":37,
					"target":{
						"node":11,
						"path":"rotation"
					}
				},
				{
					"sampler":38,
					"target":{
						"node":11,
						"path":"scale"
					}
				},
				{
					"sampler":39,
					"target":{
						"node":10,
						"path":"translation"
					}
				},
				{
					"sampler":40,
					"target":{
						"node":10,
						"path":"rotation"
					}
				},
				{
					"sampler":41,
					"target":{
						"node":10,
						"path":"scale"
					}
				},
				{
					"sampler":42,
					"target":{
						"node":15,
						"path":"translation"
					}
				},
				{
					"sampler":43,
					"target":{
						"node":15,
						"path":"rotation"
					}
				},
				{
					"sampler":44,
					"target":{
						"node":15,
						"path":"scale"
					}
				},
				{
					"sampler":45,
					"target":{
						"node":14,
						"path":"translation"
					}
				},
				{
					"sampler":46,
					"target":{
						"node":14,
						"path":"rotation"
					}
				},
				{
					"sampler":47,
					"target":{
						"node":14,
						"path":"scale"
					}
				},
				{
					"sampler":48,
					"target":{
						"node":13,
						"path":"translation"
					}
				},
				{
					"sampler":49,
					"target":{
						"node":13,
						"path":"rotation"
					}
				},
				{
					"sampler":50,
					"target":{
						"node":13,
						"path":"scale"
					}
				}
			],
			"name":"attack",
			"samplers":[
				{
					"input":90,
					"interpolation":"STEP",
					"output":91
				},
				{
					"input":90,
					"interpolation":"STEP",
					"output":92
				},
				{
					"input":90,
					"interpolation":"STEP",
					"output":93
				},
				{
					"input":90,
					"interpolation":"STEP",
					"output":94
				},
				{
					"input":90,
					"interpolation":"STEP",
					"output":95
				},
				{
					"input":90,
					"interpolation":"STEP",
					"output":96
				},
				{
					"input":90,
					"interpolation":"STEP",
					"output":97
				},
				{
					"input":98,
					"interpolation":"LINEAR",
					"output":99
				},
				{
					"input":90,
					"interpolation":"STEP",
					"output":100
				},
				{
					"input":90,
					"interpolation":"STEP",
					"output":101
				},
				{
					"input":90,
					"interpolation":"STEP",
					"output":102
				},
				{
					"input":90,
					"interpolation":"STEP",
					"output":103
				},
				{
					"input":90,
					"interpolation":"STEP",
					"output":104
				},
				{
					"input":90,
					"interpolation":"STEP",
					"output":105
				},
				{
					"input":90,
					"interpolation":"STEP",
					"output":106
				},
				{
					"input":90,
					"interpolation":"STEP",
					"output":107
				},
				{
					"input":98,
					"interpolation":"LINEAR",
					"output":108
				},
				{
					"input":90,
					"interpolation":"STEP",
					"output":109
				},
				{
					"input":90,
					"interpolation":"STEP",
					"output":110
				},
				{
					"input":98,
					"interpolation":"LINEAR",
					"output":111
				},
				{
					"input":90,
					"interpolation":"STEP",
					"output":112
				},
				{
					"input":90,
					"interpolation":"LINEAR",
					"output":113
				},
				{
					"input":90,
					"interpolation":"LINEAR",
					"output":114
				},
				{
					"input":90,
					"interpolation":"STEP",
					"output":115
				},
				{
					"input":90,
					"interpolation":"STEP",
					"output":116
				},
				{
					"input":98,
					"interpolation":"LINEAR",
					"output":117
				},
				{
					"input":90,
					"interpolation":"STEP",
					"output":118
				},
				{
					"input":90,
					"interpolation":"STEP",
					"output":119
				},
				{
					"input":90,
					"interpolation":"STEP",
					"output":120
				},
				{
					"input":90,
					"interpolation":"STEP",
					"output":121
				},
				{
					"input":90,
					"interpolation":"STEP",
					"output":122
				},
				{
					"input":90,
					"interpolation":"STEP",
					"output":123
				},
				{
					"input":90,
					"interpolation":"STEP",
					"output":124
				},
				{
					"input":90,
					"interpolation":"STEP",
					"output":125
				},
				{
					"input":98,
					"interpolation":"LINEAR",
					"output":126
				},
				{
					"input":90,
					"interpolation":"STEP",
					"output":127
				},
				{
					"input":90,
					"interpolation":"LINEAR",
					"output":128
				},
				{
					"input":90,
					"interpolation":"LINEAR",
					"output":129
				},
				{
					"input":90,
					"interpolation":"STEP",
					"output":130
				},
				{
					"input":90,
					"interpolation":"LINEAR",
					"output":131
				},
				{
					"input":90,
					"interpolation":"LINEAR",
					"output":132
				},
				{
					"input":90,
					"interpolation":"STEP",
					"output":133
				},
				{
					"input":90,
					"interpolation":"STEP",
					"output":134
				},
				{
					"input":98,
					"interpolation":"LINEAR",
					"output":135
				},
				{
					"input":90,
					"interpolation":"STEP",
					"output":136
				},
				{
					"input":90,
					"interpolation":"LINEAR",
					"output":137
				},
				{
					"input":90,
					"interpolation":"LINEAR",
					"output":138
				},
				{
					"input":90,
					"interpolation":"STEP",
					"output":139
				},
				{
					"input":90,
					"interpolation":"LINEAR",
					"output":140
				},
				{
					"input":90,
					"interpolation":"LINEAR",
					"output":141
				},
				{
					"input":90,
					"interpolation":"STEP",
					"output":142
				}
			]
		},
		{
			"channels":[
				{
					"sampler":0,
					"target":{
						"node":16,
						"path":"translation"
					}
				},
				{
					"sampler":1,
					"target":{
						"node":16,
						"path":"rotation"
					}
				},
				{
					"sampler":2,
					"target":{
						"node":16,
						"path":"scale"
					}
				},
				{
					"sampler":3,
					"target":{
						"node":9,
						"path":"translation"
					}
				},
				{
					"sampler":4,
					"target":{
						"node":9,
						"path":"rotation"
					}
				},
				{
					"sampler":5,
					"target":{
						"node":9,
						"path":"scale"
					}
				},
				{
					"sampler":6,
					"target":{
						"node":8,
						"path":"translation"
					}
				},
				{
					"sampler":7,
					"target":{
						"node":8,
						"path":"rotation"
					}
				},
				{
					"sampler":8,
					"target":{
						"node":8,
						"path":"scale"
					}
				},
				{
					"sampler":9,
					"target":{
						"node":1,
						"path":"translation"
					}
				},
				{
					"sampler":10,
					"target":{
						"node":1,
						"path":"rotation"
					}
				},
				{
					"sampler":11,
					"target":{
						"node":1,
						"path":"scale"
					}
				},
				{
					"sampler":12,
					"target":{
						"node":0,
						"path":"translation"
					}
				},
				{
					"sampler":13,
					"target":{
						"node":0,
						"path":"rotation"
					}
				},
				{
					"sampler":14,
					"target":{
						"node":0,
						"path":"scale"
					}
				},
				{
					"sampler":15,
					"target":{
						"node":4,
						"path":"translation"
					}
				},
				{
					"sampler":16,
					"target":{
						"node":4,
						"path":"rotation"
					}
				},
				{
					"sampler":17,
					"target":{
						"node":4,
						"path":"scale"
					}
				},
				{
					"sampler":18,
					"target":{
						"node":3,
						"path":"translation"
					}
				},
				{
					"sampler":19,
					"target":{
						"node":3,
						"path":"rotation"
					}
				},
				{
					"sampler":20,
					"target":{
						"node":3,
						"path":"scale"
					}
				},
				{
					"sampler":21,
					"target":{
						"node":2,
						"path":"translation"
					}
				},
				{
					"sampler":22,
					"target":{
						"node":2,
						"path":"rotation"
					}
				},
				{
					"sampler":23,
					"target":{
						"node":2,
						"path":"scale"
					}
				},
				{
					"sampler":24,
					"target":{
						"node":7,
						"path":"translation"
					}
				},
				{
					"sampler":25,
					"target":{
						"node":7,
						"path":"rotation"
					}
				},
				{
					"sampler":26,
					"target":{
						"node":7,
						"path":"scale"
					}
				},
				{
					"sampler":27,
					"target":{
						"node":6,
						"path":"translation"
					}
				},
				{
					"sampler":28,
					"target":{
						"node":6,
						"path":"rotation"
					}
				},
				{
					"sampler":29,
					"target":{
						"node":6,
						"path":"scale"
					}
				},
				{
					"sampler":30,
					"target":{
						"node":5,
						"path":"translation"
					}
				},
				{
					"sampler":31,
					"target":{
						"node":5,
						"path":"rotation"
					}
				},
				{
					"sampler":32,
					"target":{
						"node":5,
						"path":"scale"
					}
				},
				{
					"sampler":33,
					"target":{
						"node":12,
						"path":"translation"
					}
				},
				{
					"sampler":34,
					"target":{
						"node":12,
						"path":"rotation"
					}
				},
				{
					"sampler":35,
					"target":{
						"node":12,
						"path":"scale"
					}
				},
				{
					"sampler":36,
					"target":{
						"node":11,
						"path":"translation"
					}
				},
				{
					"sampler":37,
					"target":{
						"node":11,
						"path":"rotation"
					}
				},
				{
					"sampler":38,
					"target":{
						"node":11,
						"path":"scale"
					}
				},
				{
					"sampler":39,
					"target":{
						"node":10,
						"path":"translation"
					}
				},
				{
					"sampler":40,
					"target":{
						"node":10,
						"path":"rotation"
					}
				},
				{
					"sampler":41,
					"target":{
						"node":10,
						"path":"scale"
					}
				},
				{
					"sampler":42,
					"target":{
						"node":15,
						"path":"translation"
					}
				},
				{
					"sampler":43,
					"target":{
						"node":15,
						"path":"rotation"
					}
				},
				{
					"sampler":44,
					"target":{
						"node":15,
						"path":"scale"
					}
				},
				{
					"sampler":45,
					"target":{
						"node":14,
						"path":"translation"
					}
				},
				{
					"sampler":46,
					"target":{
						"node":14,
						"path":"rotation"
					}
				},
				{
					"sampler":47,
					"target":{
						"node":14,
						"path":"scale"
					}
				},
				{
					"sampler":48,
					"target":{
						"node":13,
						"path":"translation"
					}
				},
				{
					"sampler":49,
					"target":{
						"node":13,
						"path":"rotation"
					}
				},
				{
					"sampler":50,
					"target":{
						"node":13,
						"path":"scale"
					}
				}
			],
			"name":"idle",
			"samplers":[
				{
					"input":143,
					"interpolation":"LINEAR",
					"output":144
				},
				{
					"input":145,
					"interpolation":"STEP",
					"output":146
				},
				{
					"input":145,
					"interpolation":"STEP",
					"output":147
				},
				{
					"input":145,
					"interpolation":"STEP",
					"output":148
				},
				{
					"input":145,
					"interpolation":"STEP",
					"output":149
				},
				{
					"input":145,
					"interpolation":"STEP",
					"output":150
				},
				{
					"input":145,
					"interpolation":"STEP",
					"output":151
				},
				{
					"input":143,
					"interpolation":"LINEAR",
					"output":152
				},
				{
					"input":145,
					"interpolation":"STEP",
					"output":153
				},
				{
					"input":145,
					"interpolation":"STEP",
					"output":154
				},
				{
					"input":145,
					"interpolation":"STEP",
					"output":155
				},
				{
					"input":145,
					"interpolation":"STEP",
					"output":156
				},
				{
					"input":145,
					"interpolation":"STEP",
					"output":157
				},
				{
					"input":143,
					"interpolation":"LINEAR",
					"output":158
				},
				{
					"input":145,
					"interpolation":"STEP",
					"output":159
				},
				{
					"input":145,
					"interpolation":"STEP",
					"output":160
				},
				{
					"input":143,
					"interpolation":"LINEAR",
					"output":161
				},
				{
					"input":145,
					"interpolation":"STEP",
					"output":162
				},
				{
					"input":145,
					"interpolation":"STEP",
					"output":163
				},
				{
					"input":145,
					"interpolation":"STEP",
					"output":164
				},
				{
					"input":145,
					"interpolation":"STEP",
					"output":165
				},
				{
					"input":145,
					"interpolation":"STEP",
					"output":166
				},
				{
					"input":145,
					"interpolation":"STEP",
					"output":167
				},
				{
					"input":145,
					"interpolation":"STEP",
					"output":168
				},
				{
					"input":145,
					"interpolation":"STEP",
					"output":169
				},
				{
					"input":143,
					"interpolation":"LINEAR",
					"output":170
				},
				{
					"input":145,
					"interpolation":"STEP",
					"output":171
				},
				{
					"input":145,
					"interpolation":"STEP",
					"output":172
				},
				{
					"input":145,
					"interpolation":"STEP",
					"output":173
				},
				{
					"input":145,
					"interpolation":"STEP",
					"output":174
				},
				{
					"input":145,
					"interpolation":"STEP",
					"output":175
				},
				{
					"input":145,
					"interpolation":"STEP",
					"output":176
				},
				{
					"input":145,
					"interpolation":"STEP",
					"output":177
				},
				{
					"input":145,
					"interpolation":"STEP",
					"output":178
				},
				{
					"input":145,
					"interpolation":"STEP",
					"output":179
				},
				{
					"input":145,
					"interpolation":"STEP",
					"output":180
				},
				{
					"input":145,
					"interpolation":"STEP",
					"output":181
				},
				{
					"input":145,
					"interpolation":"STEP",
					"output":182
				},
				{
					"input":145,
					"interpolation":"STEP",
					"output":183
				},
				{
					"input":145,
					"interpolation":"STEP",
					"output":184
				},
				{
					"input":145,
					"interpolation":"STEP",
					"output":185
				},
				{
					"input":145,
					"interpolation":"STEP",
					"output":186
				},
				{
					"input":145,
					"interpolation":"STEP",
					"output":187
				},
				{
					"input":145,
					"interpolation":"STEP",
					"output":188
				},
				{
					"input":145,
					"interpolation":"STEP",
					"output":189
				},
				{
					"input":145,
					"interpolation":"STEP",
					"output":190
				},
				{
					"input":145,
					"interpolation":"STEP",
					"output":191
				},
				{
					"input":145,
					"interpolation":"STEP",
					"output":192
				},
				{
					"input":145,
					"interpolation":"STEP",
					"output":193
				},
				{
					"input":145,
					"interpolation":"STEP",
					"output":194
				},
				{
					"input":145,
					"interpolation":"STEP",
					"output":195
				}
			]
		},
		{
			"channels":[
				{
					"sampler":0,
					"target":{
						"node":16,
						"path":"translation"
					}
				},
				{
					"sampler":1,
					"target":{
						"node":16,
						"path":"rotation"
					}
				},
				{
					"sampler":2,
					"target":{
						"node":16,
						"path":"scale"
					}
				},
				{
					"sampler":3,
					"target":{
						"node":9,
						"path":"translation"
					}
				},
				{
					"sampler":4,
					"target":{
						"node":9,
						"path":"rotation"
					}
				},
				{
					"sampler":5,
					"target":{
						"node":9,
						"path":"scale"
					}
				},
				{
					"sampler":6,
					"target":{
						"node":8,
						"path":"translation"
					}
				},
				{
					"sampler":7,
					"target":{
						"node":8,
						"path":"rotation"
					}
				},
				{
					"sampler":8,
					"target":{
						"node":8,
						"path":"scale"
					}
				},
				{
					"sampler":9,
					"target":{
						"node":1,
						"path":"translation"
					}
				},
				{
					"sampler":10,
					"target":{
						"node":1,
						"path":"rotation"
					}
				},
				{
					"sampler":11,
					"target":{
						"node":1,
						"path":"scale"
					}
				},
				{
					"sampler":12,
					"target":{
						"node":0,
						"path":"translation"
					}
				},
				{
					"sampler":13,
					"target":{
						"node":0,
						"path":"rotation"
					}
				},
				{
					"sampler":14,
					"target":{
						"node":0,
						"path":"scale"
					}
				},
				{
					"sampler":15,
					"target":{
						"node":4,
						"path":"translation"
					}
				},
				{
					"sampler":16,
					"target":{
						"node":4,
						"path":"rotation"
					}
				},
				{
					"sampler":17,
					"target":{
						"node":4,
						"path":"scale"
					}
				},
				{
					"sampler":18,
					"target":{
						"node":3,
						"path":"translation"
					}
				},
				{
					"sampler":19,
					"target":{
						"node":3,
						"path":"rotation"
					}
				},
				{
					"sampler":20,
					"target":{
						"node":3,
						"path":"scale"
					}
				},
				{
					"sampler":21,
					"target":{
						"node":2,
						"path":"translation"
					}
				},
				{
					"sampler":22,
					"target":{
						"node":2,
						"path":"rotation"
					}
				},
				{
					"sampler":23,
					"target":{
						"node":2,
						"path":"scale"
					}
				},
				{
					"sampler":24,
					"target":{
						"node":7,
						"path":"translation"
					}
				},
				{
					"sampler":25,
					"target":{
						"node":7,
						"path":"rotation"
					}
				},
				{
					"sampler":26,
					"target":{
						"node":7,
						"path":"scale"
					}
				},
				{
					"sampler":27,
					"target":{
						"node":6,
						"path":"translation"
					}
				},
				{
					"sampler":28,
					"target":{
						"node":6,
						"path":"rotation"
					}
				},
				{
					"sampler":29,
					"target":{
						"node":6,
						"path":"scale"
					}
				},
				{
					"sampler":30,
					"target":{
						"node":5,
						"path":"translation"
					}
				},
				{
					"sampler":31,
					"target":{
						"node":5,
						"path":"rotation"
					}
				},
				{
					"sampler":32,
					"target":{
						"node":5,
						"path":"scale"
					}
				},
				{
					"sampler":33,
					"target":{
						"node":12,
						"path":"translation"
					}
				},
				{
					"sampler":34,
					"target":{
						"node":12,
						"path":"rotation"
					}
				},
				{
					"sampler":35,
					"target":{
						"node":12,
						"path":"scale"
					}
				},
				{
					"sampler":36,
					"target":{
						"node":11,
						"path":"translation"
					}
				},
				{
					"sampler":37,
					"target":{
						"node":11,
						"path":"rotation"
					}
				},
				{
					"sampler":38,
					"target":{
						"node":11,
						"path":"scale"
					}
				},
				{
					"sampler":39,
					"target":{
						"node":10,
						"path":"translation"
					}
				},
				{
					"sampler":40,
					"target":{
						"node":10,
						"path":"rotation"
					}
				},
				{
					"sampler":41,
					"target":{
						"node":10,
						"path":"scale"
					}
				},
				{
					"sampler":42,
					"target":{
						"node":15,
						"path":"translation"
					}
				},
				{
					"sampler":43,
					"target":{
						"node":15,
						"path":"rotation"
					}
				},
				{
					"sampler":44,
					"target":{
						"node":15,
						"path":"scale"
					}
				},
				{
					"sampler":45,
					"target":{
						"node":14,
						"path":"translation"
					}
				},
				{
					"sampler":46,
					"target":{
						"node":14,
						"path":"rotation"
					}
				},
				{
					"sampler":47,
					"target":{
						"node":14,
						"path":"scale"
					}
				},
				{
					"sampler":48,
					"target":{
						"node":13,
						"path":"translation"
					}
				},
				{
					"sampler":49,
					"target":{
						"node":13,
						"path":"rotation"
					}
				},
				{
					"sampler":50,
					"target":{
						"node":13,
						"path":"scale"
					}
				}
			],
			"name":"walk",
			"samplers":[
				{
					"input":196,
					"interpolation":"LINEAR",
					"output":197
				},
				{
					"input":196,
					"interpolation":"LINEAR",
					"output":198
				},
				{
					"input":199,
					"interpolation":"STEP",
					"output":200
				},
				{
					"input":199,
					"interpolation":"STEP",
					"output":201
				},
				{
					"input":199,
					"interpolation":"STEP",
					"output":202
				},
				{
					"input":199,
					"interpolation":"STEP",
					"output":203
				},
				{
					"input":199,
					"interpolation":"STEP",
					"output":204
				},
				{
					"input":196,
					"interpolation":"LINEAR",
					"output":205
				},
				{
					"input":199,
					"interpolation":"STEP",
					"output":206
				},
				{
					"input":199,
					"interpolation":"STEP",
					"output":207
				},
				{
					"input":199,
					"interpolation":"STEP",
					"output":208
				},
				{
					"input":199,
					"interpolation":"STEP",
					"output":209
				},
				{
					"input":199,
					"interpolation":"STEP",
					"output":210
				},
				{
					"input":199,
					"interpolation":"STEP",
					"output":211
				},
				{
					"input":199,
					"interpolation":"STEP",
					"output":212
				},
				{
					"input":199,
					"interpolation":"STEP",
					"output":213
				},
				{
					"input":196,
					"interpolation":"LINEAR",
					"output":214
				},
				{
					"input":199,
					"interpolation":"STEP",
					"output":215
				},
				{
					"input":199,
					"interpolation":"STEP",
					"output":216
				},
				{
					"input":199,
					"interpolation":"STEP",
					"output":217
				},
				{
					"input":199,
					"interpolation":"STEP",
					"output":218
				},
				{
					"input":199,
					"interpolation":"STEP",
					"output":219
				},
				{
					"input":199,
					"interpolation":"STEP",
					"output":220
				},
				{
					"input":199,
					"interpolation":"STEP",
					"output":221
				},
				{
					"input":199,
					"interpolation":"STEP",
					"output":222
				},
				{
					"input":196,
					"interpolation":"LINEAR",
					"output":223
				},
				{
					"input":199,
					"interpolation":"STEP",
					"output":224
				},
				{
					"input":199,
					"interpolation":"STEP",
					"output":225
				},
				{
					"input":199,
					"interpolation":"STEP",
					"output":226
				},
				{
					"input":199,
					"interpolation":"STEP",
					"output":227
				},
				{
					"input":199,
					"interpolation":"STEP",
					"output":228
				},
				{
					"input":199,
					"interpolation":"STEP",
					"output":229
				},
				{
					"input":199,
					"interpolation":"STEP",
					"output":230
				},
				{
					"input":199,
					"interpolation":"STEP",
					"output":231
				},
				{
					"input":196,
					"interpolation":"LINEAR",
					"output":232
				},
				{
					"input":199,
					"interpolation":"STEP",
					"output":233
				},
				{
					"input":199,
					"interpolation":"STEP",
					"output":234
				},
				{
					"input":196,
					"interpolation":"LINEAR",
					"output":235
				},
				{
					"input":199,
					"interpolation":"STEP",
					"output":236
				},
				{
					"input":199,
					"interpolation":"STEP",
					"output":237
				},
				{
					"input":196,
					"interpolation":"LINEAR",
					"output":238
				},
				{
					"input":199,
					"interpolation":"STEP",
					"output":239
				},
				{
					"input":199,
					"interpolation":"STEP",
					"output":240
				},
				{
					"input":196,
					"interpolation":"LINEAR",
					"output":241
				},
				{
					"input":199,
					"interpolation":"STEP",
					"output":242
				},
				{
					"input":199,
					"interpolation":"STEP",
					"output":243
				},
				{
					"input":196,
					"interpolation":"LINEAR",
					"output":244
				},
				{
					"input":199,
					"interpolation":"STEP",
					"output":245
				},
				{
					"input":199,
					"interpolation":"STEP",
					"output":246
				},
				{
					"input":196,
					"interpolation":"LINEAR",
					"output":247
				},
				{
					"input":199,
					"interpolation":"STEP",
					"output":248
				}
			]
		}
	],
	"materials":[
		{
			"name":"skin",
			"normalTexture":{
				"index":0,
				"scale":0.4000000059604645
			},
			"pbrMetallicRoughness":{
				"baseColorFactor":[
					0.9551045894622803,
					0.7105664610862732,
					0.5382355451583862,
					1
				],
				"metallicFactor":0,
				"roughnessFactor":0.550000011920929
			}
		},
		{
			"extensions":{
				"KHR_materials_sheen":{
					"sheenColorFactor":[
						1.0,
						1.0,
						1.0
					],
					"sheenRoughnessFactor":0.5
				}
			},
			"name":"hair",
			"normalTexture":{
				"index":1,
				"scale":0.800000011920929
			},
			"pbrMetallicRoughness":{
				"baseColorFactor":[
					0.004896310158073902,
					0.004896310158073902,
					0.010022825561463833,
					1
				],
				"metallicFactor":0,
				"roughnessFactor":0.44999998807907104
			}
		},
		{
			"extensions":{
				"KHR_materials_sheen":{
					"sheenColorFactor":[
						1.0,
						1.0,
						1.0
					],
					"sheenRoughnessFactor":0.5
				}
			},
			"name":"outfit",
			"normalTexture":{
				"index":2,
				"scale":0.6000000238418579
			},
			"pbrMetallicRoughness":{
				"baseColorFactor":[
					0.8275708556175232,
					0.8275708556175232,
					0.9331068396568298,
					1
				],
				"metallicFactor":0,
				"roughnessFactor":0.75
			}
		},
		{
			"name":"outfit2",
			"normalTexture":{
				"index":3,
				"scale":0.4000000059604645
			},
			"pbrMetallicRoughness":{
				"baseColorFactor":[
					0.03310476616024971,
					0.10048151016235352,
					0.6038273572921753,
					1
				],
				"metallicFactor":0,
				"roughnessFactor":0.6000000238418579
			}
		},
		{
			"name":"pants",
			"normalTexture":{
				"index":4,
				"scale":0.6000000238418579
			},
			"pbrMetallicRoughness":{
				"baseColorFactor":[
					0.37233966588974,
					0.37233966588974,
					0.41866305470466614,
					1
				],
				"metallicFactor":0,
				"roughnessFactor":0.800000011920929
			}
		},
		{
			"extensions":{
				"KHR_materials_clearcoat":{
					"clearcoatFactor":0.30000001192092896
				}
			},
			"name":"boots",
			"normalTexture":{
				"index":5,
				"scale":0.800000011920929
			},
			"pbrMetallicRoughness":{
				"baseColorFactor":[
					0.0134117491543293,
					0.010022825561463833,
					0.010022825561463833,
					1
				],
				"metallicFactor":0,
				"roughnessFactor":0.44999998807907104
			}
		},
		{
			"name":"eye_white",
			"pbrMetallicRoughness":{
				"baseColorFactor":[
					0.8900054097175598,
					0.8900054097175598,
					0.8900054097175598,
					1
				],
				"metallicFactor":0,
				"roughnessFactor":0.20000000298023224
			}
		},
		{
			"emissiveFactor":[
				0.043943374114965295,
				0.07972099501772689,
				0.36229642877167123
			],
			"name":"iris",
			"pbrMetallicRoughness":{
				"baseColorFactor":[
					0.07323895394802094,
					0.13286831974983215,
					0.6038273572921753,
					1
				],
				"metallicFactor":0,
				"roughnessFactor":0.15000000596046448
			}
		},
		{
			"name":"pupil",
			"pbrMetallicRoughness":{
				"baseColorFactor":[
					0.0015479875728487968,
					0.0015479875728487968,
					0.0023219813592731953,
					1
				],
				"metallicFactor":0,
				"roughnessFactor":0.10000000149011612
			}
		},
		{
			"name":"lips",
			"pbrMetallicRoughness":{
				"baseColorFactor":[
					0.4283095896244049,
					0.32088616490364075,
					0.2448643445968628,
					1
				],
				"metallicFactor":0,
				"roughnessFactor":0.4000000059604645
			}
		},
		{
			"doubleSided":true,
			"extensions":{
				"KHR_materials_sheen":{
					"sheenColorFactor":[
						1.0,
						1.0,
						1.0
					],
					"sheenRoughnessFactor":0.5
				}
			},
			"name":"cape",
			"normalTexture":{
				"index":6,
				"scale":0.699999988079071
			},
			"pbrMetallicRoughness":{
				"baseColorFactor":[
					0.7874122858047485,
					0.7874122858047485,
					0.8900054097175598,
					1
				],
				"metallicFactor":0,
				"roughnessFactor":0.75
			}
		},
		{
			"name":"buckle",
			"pbrMetallicRoughness":{
				"baseColorFactor":[
					0.6920710802078247,
					0.4479884207248688,
					0.07323895394802094,
					1
				],
				"metallicFactor":0.8999999761581421,
				"roughnessFactor":0.30000001192092896
			}
		},
		{
			"name":"blade",
			"normalTexture":{
				"index":7,
				"scale":0.30000001192092896
			},
			"pbrMetallicRoughness":{
				"baseColorFactor":[
					0.7484140992164612,
					0.7874122858047485,
					0.8900054097175598,
					1
				],
				"metallicFactor":0.550000011920929,
				"roughnessFactor":0.2199999988079071
			}
		},
		{
			"name":"handle",
			"normalTexture":{
				"index":8,
				"scale":0.6000000238418579
			},
			"pbrMetallicRoughness":{
				"baseColorFactor":[
					0.0134117491543293,
					0.007194409146904945,
					0.004896310158073902,
					1
				],
				"metallicFactor":0,
				"roughnessFactor":0.6000000238418579
			}
		},
		{
			"name":"guard",
			"pbrMetallicRoughness":{
				"baseColorFactor":[
					0.6038273572921753,
					0.38005632162094116,
					0.05087608844041824,
					1
				],
				"metallicFactor":0.8999999761581421,
				"roughnessFactor":0.30000001192092896
			}
		}
	],
	"meshes":[
		{
			"name":"hinata",
			"primitives":[
				{
					"attributes":{
						"POSITION":0,
						"NORMAL":1,
						"TEXCOORD_0":2,
						"JOINTS_0":3,
						"WEIGHTS_0":4
					},
					"indices":5,
					"material":0
				},
				{
					"attributes":{
						"POSITION":6,
						"NORMAL":7,
						"TEXCOORD_0":8,
						"JOINTS_0":9,
						"WEIGHTS_0":10
					},
					"indices":11,
					"material":1
				},
				{
					"attributes":{
						"POSITION":12,
						"NORMAL":13,
						"TEXCOORD_0":14,
						"JOINTS_0":15,
						"WEIGHTS_0":16
					},
					"indices":17,
					"material":2
				},
				{
					"attributes":{
						"POSITION":18,
						"NORMAL":19,
						"TEXCOORD_0":20,
						"JOINTS_0":21,
						"WEIGHTS_0":22
					},
					"indices":23,
					"material":3
				},
				{
					"attributes":{
						"POSITION":24,
						"NORMAL":25,
						"TEXCOORD_0":26,
						"JOINTS_0":27,
						"WEIGHTS_0":28
					},
					"indices":29,
					"material":4
				},
				{
					"attributes":{
						"POSITION":30,
						"NORMAL":31,
						"TEXCOORD_0":32,
						"JOINTS_0":33,
						"WEIGHTS_0":34
					},
					"indices":35,
					"material":5
				},
				{
					"attributes":{
						"POSITION":36,
						"NORMAL":37,
						"TEXCOORD_0":38,
						"JOINTS_0":39,
						"WEIGHTS_0":40
					},
					"indices":41,
					"material":6
				},
				{
					"attributes":{
						"POSITION":42,
						"NORMAL":43,
						"TEXCOORD_0":44,
						"JOINTS_0":45,
						"WEIGHTS_0":46
					},
					"indices":47,
					"material":7
				},
				{
					"attributes":{
						"POSITION":48,
						"NORMAL":49,
						"TEXCOORD_0":50,
						"JOINTS_0":51,
						"WEIGHTS_0":52
					},
					"indices":53,
					"material":8
				},
				{
					"attributes":{
						"POSITION":54,
						"NORMAL":55,
						"TEXCOORD_0":56,
						"JOINTS_0":57,
						"WEIGHTS_0":58
					},
					"indices":59,
					"material":9
				},
				{
					"attributes":{
						"POSITION":60,
						"NORMAL":61,
						"TEXCOORD_0":62,
						"JOINTS_0":63,
						"WEIGHTS_0":64
					},
					"indices":65,
					"material":10
				},
				{
					"attributes":{
						"POSITION":66,
						"NORMAL":67,
						"TEXCOORD_0":68,
						"JOINTS_0":69,
						"WEIGHTS_0":70
					},
					"indices":71,
					"material":11
				},
				{
					"attributes":{
						"POSITION":72,
						"NORMAL":73,
						"TEXCOORD_0":74,
						"JOINTS_0":75,
						"WEIGHTS_0":76
					},
					"indices":77,
					"material":12
				},
				{
					"attributes":{
						"POSITION":78,
						"NORMAL":79,
						"TEXCOORD_0":80,
						"JOINTS_0":81,
						"WEIGHTS_0":82
					},
					"indices":83,
					"material":13
				},
				{
					"attributes":{
						"POSITION":84,
						"NORMAL":85,
						"TEXCOORD_0":86,
						"JOINTS_0":87,
						"WEIGHTS_0":88
					},
					"indices":71,
					"material":14
				}
			]
		}
	],
	"textures":[
		{
			"sampler":0,
			"source":0
		},
		{
			"sampler":0,
			"source":1
		},
		{
			"sampler":0,
			"source":2
		},
		{
			"sampler":0,
			"source":2
		},
		{
			"sampler":0,
			"source":2
		},
		{
			"sampler":0,
			"source":3
		},
		{
			"sampler":0,
			"source":2
		},
		{
			"sampler":0,
			"source":4
		},
		{
			"sampler":0,
			"source":3
		}
	],
	"images":[
		{
			"mimeType":"image/png",
			"name":"N_skin",
			"uri":"texturas/N_skin.png"
		},
		{
			"mimeType":"image/png",
			"name":"N_hair",
			"uri":"texturas/N_hair.png"
		},
		{
			"mimeType":"image/png",
			"name":"N_cloth",
			"uri":"texturas/N_cloth.png"
		},
		{
			"mimeType":"image/png",
			"name":"N_leather",
			"uri":"texturas/N_leather.png"
		},
		{
			"mimeType":"image/png",
			"name":"N_metal",
			"uri":"texturas/N_metal.png"
		}
	],
	"skins":[
		{
			"inverseBindMatrices":89,
			"joints":[
				16,
				9,
				8,
				1,
				0,
				4,
				3,
				2,
				7,
				6,
				5,
				12,
				11,
				10,
				15,
				14,
				13
			],
			"name":"hinata_rig"
		}
	],
	"accessors":[
		{
			"bufferView":0,
			"componentType":5126,
			"count":1409,
			"max":[
				0.2644500136375427,
				1.7839999198913574,
				0.10721255838871002
			],
			"min":[
				-0.2644500136375427,
				0.7844678163528442,
				-0.11607673019170761
			],
			"type":"VEC3"
		},
		{
			"bufferView":1,
			"componentType":5126,
			"count":1409,
			"type":"VEC3"
		},
		{
			"bufferView":2,
			"componentType":5126,
			"count":1409,
			"type":"VEC2"
		},
		{
			"bufferView":3,
			"componentType":5121,
			"count":1409,
			"type":"VEC4"
		},
		{
			"bufferView":4,
			"componentType":5126,
			"count":1409,
			"type":"VEC4"
		},
		{
			"bufferView":5,
			"componentType":5123,
			"count":5808,
			"type":"SCALAR"
		},
		{
			"bufferView":6,
			"componentType":5126,
			"count":3002,
			"max":[
				0.14681054651737213,
				1.8135706186294556,
				0.19764862954616547
			],
			"min":[
				-0.13799050450325012,
				0.9672150015830994,
				-0.12009954452514648
			],
			"type":"VEC3"
		},
		{
			"bufferView":7,
			"componentType":5126,
			"count":3002,
			"type":"VEC3"
		},
		{
			"bufferView":8,
			"componentType":5126,
			"count":3002,
			"type":"VEC2"
		},
		{
			"bufferView":9,
			"componentType":5121,
			"count":3002,
			"type":"VEC4"
		},
		{
			"bufferView":10,
			"componentType":5126,
			"count":3002,
			"type":"VEC4"
		},
		{
			"bufferView":11,
			"componentType":5123,
			"count":10344,
			"type":"SCALAR"
		},
		{
			"bufferView":12,
			"componentType":5126,
			"count":1916,
			"max":[
				0.26701557636260986,
				1.46880304813385,
				0.09008977562189102
			],
			"min":[
				-0.2670155465602875,
				0.9226043820381165,
				-0.11999999731779099
			],
			"type":"VEC3"
		},
		{
			"bufferView":13,
			"componentType":5126,
			"count":1916,
			"type":"VEC3"
		},
		{
			"bufferView":14,
			"componentType":5126,
			"count":1916,
			"type":"VEC2"
		},
		{
			"bufferView":15,
			"componentType":5121,
			"count":1916,
			"type":"VEC4"
		},
		{
			"bufferView":16,
			"componentType":5126,
			"count":1916,
			"type":"VEC4"
		},
		{
			"bufferView":17,
			"componentType":5123,
			"count":8652,
			"type":"SCALAR"
		},
		{
			"bufferView":18,
			"componentType":5126,
			"count":76,
			"max":[
				0.1578424572944641,
				0.9976312518119812,
				0.10683226585388184
			],
			"min":[
				-0.1578424572944641,
				0.8799242973327637,
				-0.1086927279829979
			],
			"type":"VEC3"
		},
		{
			"bufferView":19,
			"componentType":5126,
			"count":76,
			"type":"VEC3"
		},
		{
			"bufferView":20,
			"componentType":5126,
			"count":76,
			"type":"VEC2"
		},
		{
			"bufferView":21,
			"componentType":5121,
			"count":76,
			"type":"VEC4"
		},
		{
			"bufferView":22,
			"componentType":5126,
			"count":76,
			"type":"VEC4"
		},
		{
			"bufferView":23,
			"componentType":5123,
			"count":264,
			"type":"SCALAR"
		},
		{
			"bufferView":24,
			"componentType":5126,
			"count":995,
			"max":[
				0.2652694880962372,
				0.9446630477905273,
				0.10655373334884644
			],
			"min":[
				-0.2652694880962372,
				0.3014695644378662,
				-0.1086927279829979
			],
			"type":"VEC3"
		},
		{
			"bufferView":25,
			"componentType":5126,
			"count":995,
			"type":"VEC3"
		},
		{
			"bufferView":26,
			"componentType":5126,
			"count":995,
			"type":"VEC2"
		},
		{
			"bufferView":27,
			"componentType":5121,
			"count":995,
			"type":"VEC4"
		},
		{
			"bufferView":28,
			"componentType":5126,
			"count":995,
			"type":"VEC4"
		},
		{
			"bufferView":29,
			"componentType":5123,
			"count":4380,
			"type":"SCALAR"
		},
		{
			"bufferView":30,
			"componentType":5126,
			"count":1034,
			"max":[
				0.1704442948102951,
				0.3071763813495636,
				0.07375719398260117
			],
			"min":[
				-0.1704442799091339,
				0.007599386852234602,
				-0.14012038707733154
			],
			"type":"VEC3"
		},
		{
			"bufferView":31,
			"componentType":5126,
			"count":1034,
			"type":"VEC3"
		},
		{
			"bufferView":32,
			"componentType":5126,
			"count":1034,
			"type":"VEC2"
		},
		{
			"bufferView":33,
			"componentType":5121,
			"count":1034,
			"type":"VEC4"
		},
		{
			"bufferView":34,
			"componentType":5126,
			"count":1034,
			"type":"VEC4"
		},
		{
			"bufferView":35,
			"componentType":5123,
			"count":4608,
			"type":"SCALAR"
		},
		{
			"bufferView":36,
			"componentType":5126,
			"count":304,
			"max":[
				0.050999999046325684,
				1.6864999532699585,
				-0.07000000029802322
			],
			"min":[
				-0.050999999046325684,
				1.6634999513626099,
				-0.08799999952316284
			],
			"type":"VEC3"
		},
		{
			"bufferView":37,
			"componentType":5126,
			"count":304,
			"type":"VEC3"
		},
		{
			"bufferView":38,
			"componentType":5126,
			"count":304,
			"type":"VEC2"
		},
		{
			"bufferView":39,
			"componentType":5121,
			"count":304,
			"type":"VEC4"
		},
		{
			"bufferView":40,
			"componentType":5126,
			"count":304,
			"type":"VEC4"
		},
		{
			"bufferView":41,
			"componentType":5123,
			"count":1152,
			"type":"SCALAR"
		},
		{
			"bufferView":42,
			"componentType":5126,
			"count":220,
			"max":[
				0.04349999874830246,
				1.6848000288009644,
				-0.08122024685144424
			],
			"min":[
				-0.04349999874830246,
				1.6651999950408936,
				-0.08977975696325302
			],
			"type":"VEC3"
		},
		{
			"bufferView":43,
			"componentType":5126,
			"count":220,
			"type":"VEC3"
		},
		{
			"bufferView":44,
			"componentType":5126,
			"count":220,
			"type":"VEC2"
		},
		{
			"bufferView":45,
			"componentType":5121,
			"count":220,
			"type":"VEC4"
		},
		{
			"bufferView":46,
			"componentType":5126,
			"count":220,
			"type":"VEC4"
		},
		{
			"bufferView":47,
			"componentType":5123,
			"count":720,
			"type":"SCALAR"
		},
		{
			"bufferView":48,
			"componentType":5126,
			"count":160,
			"max":[
				0.03799443691968918,
				1.6794999837875366,
				-0.08689788728952408
			],
			"min":[
				-0.03799443691968918,
				1.6705000400543213,
				-0.0907021164894104
			],
			"type":"VEC3"
		},
		{
			"bufferView":49,
			"componentType":5126,
			"count":160,
			"type":"VEC3"
		},
		{
			"bufferView":50,
			"componentType":5126,
			"count":160,
			"type":"VEC2"
		},
		{
			"bufferView":51,
			"componentType":5121,
			"count":160,
			"type":"VEC4"
		},
		{
			"bufferView":52,
			"componentType":5126,
			"count":160,
			"type":"VEC4"
		},
		{
			"bufferView":53,
			"componentType":5123,
			"count":480,
			"type":"SCALAR"
		},
		{
			"bufferView":54,
			"componentType":5126,
			"count":98,
			"max":[
				0.01899999938905239,
				1.6074999570846558,
				-0.07772024720907211
			],
			"min":[
				-0.01899999938905239,
				1.5985000133514404,
				-0.08627975732088089
			],
			"type":"VEC3"
		},
		{
			"bufferView":55,
			"componentType":5126,
			"count":98,
			"type":"VEC3"
		},
		{
			"bufferView":56,
			"componentType":5126,
			"count":98,
			"type":"VEC2"
		},
		{
			"bufferView":57,
			"componentType":5121,
			"count":98,
			"type":"VEC4"
		},
		{
			"bufferView":58,
			"componentType":5126,
			"count":98,
			"type":"VEC4"
		},
		{
			"bufferView":59,
			"componentType":5123,
			"count":360,
			"type":"SCALAR"
		},
		{
			"bufferView":60,
			"componentType":5126,
			"count":56,
			"max":[
				0.2752000093460083,
				1.440000057220459,
				0.27320000529289246
			],
			"min":[
				-0.2752000093460083,
				0.4399999976158142,
				0.12319999933242798
			],
			"type":"VEC3"
		},
		{
			"bufferView":61,
			"componentType":5126,
			"count":56,
			"type":"VEC3"
		},
		{
			"bufferView":62,
			"componentType":5126,
			"count":56,
			"type":"VEC2"
		},
		{
			"bufferView":63,
			"componentType":5121,
			"count":56,
			"type":"VEC4"
		},
		{
			"bufferView":64,
			"componentType":5126,
			"count":56,
			"type":"VEC4"
		},
		{
			"bufferView":65,
			"componentType":5123,
			"count":252,
			"type":"SCALAR"
		},
		{
			"bufferView":66,
			"componentType":5126,
			"count":24,
			"max":[
				0.02500000037252903,
				0.9700000286102295,
				-0.10350000113248825
			],
			"min":[
				-0.02500000037252903,
				0.9300000071525574,
				-0.11550000309944153
			],
			"type":"VEC3"
		},
		{
			"bufferView":67,
			"componentType":5126,
			"count":24,
			"type":"VEC3"
		},
		{
			"bufferView":68,
			"componentType":5126,
			"count":24,
			"type":"VEC2"
		},
		{
			"bufferView":69,
			"componentType":5121,
			"count":24,
			"type":"VEC4"
		},
		{
			"bufferView":70,
			"componentType":5126,
			"count":24,
			"type":"VEC4"
		},
		{
			"bufferView":71,
			"componentType":5123,
			"count":36,
			"type":"SCALAR"
		},
		{
			"bufferView":72,
			"componentType":5126,
			"count":108,
			"max":[
				0.24959999322891235,
				0.7876890301704407,
				-0.08872050791978836
			],
			"min":[
				0.23759999871253967,
				0.4277992248535156,
				-0.8521128296852112
			],
			"type":"VEC3"
		},
		{
			"bufferView":73,
			"componentType":5126,
			"count":108,
			"type":"VEC3"
		},
		{
			"bufferView":74,
			"componentType":5126,
			"count":108,
			"type":"VEC2"
		},
		{
			"bufferView":75,
			"componentType":5121,
			"count":108,
			"type":"VEC4"
		},
		{
			"bufferView":76,
			"componentType":5126,
			"count":108,
			"type":"VEC4"
		},
		{
			"bufferView":77,
			"componentType":5123,
			"count":156,
			"type":"SCALAR"
		},
		{
			"bufferView":78,
			"componentType":5126,
			"count":42,
			"max":[
				0.2595999836921692,
				0.855627179145813,
				0.07275798916816711
			],
			"min":[
				0.22759999334812164,
				0.760787308216095,
				-0.08628112822771072
			],
			"type":"VEC3"
		},
		{
			"bufferView":79,
			"componentType":5126,
			"count":42,
			"type":"VEC3"
		},
		{
			"bufferView":80,
			"componentType":5126,
			"count":42,
			"type":"VEC2"
		},
		{
			"bufferView":81,
			"componentType":5121,
			"count":42,
			"type":"VEC4"
		},
		{
			"bufferView":82,
			"componentType":5126,
			"count":42,
			"type":"VEC4"
		},
		{
			"bufferView":83,
			"componentType":5123,
			"count":96,
			"type":"SCALAR"
		},
		{
			"bufferView":84,
			"componentType":5126,
			"count":24,
			"max":[
				0.34360000491142273,
				0.7862744331359863,
				-0.07633449882268906
			],
			"min":[
				0.1436000019311905,
				0.7562744617462158,
				-0.10133450478315353
			],
			"type":"VEC3"
		},
		{
			"bufferView":85,
			"componentType":5126,
			"count":24,
			"type":"VEC3"
		},
		{
			"bufferView":86,
			"componentType":5126,
			"count":24,
			"type":"VEC2"
		},
		{
			"bufferView":87,
			"componentType":5121,
			"count":24,
			"type":"VEC4"
		},
		{
			"bufferView":88,
			"componentType":5126,
			"count":24,
			"type":"VEC4"
		},
		{
			"bufferView":89,
			"componentType":5126,
			"count":17,
			"type":"MAT4"
		},
		{
			"bufferView":90,
			"componentType":5126,
			"count":2,
			"max":[
				0.6
			],
			"min":[
				0
			],
			"type":"SCALAR"
		},
		{
			"bufferView":91,
			"componentType":5126,
			"count":2,
			"type":"VEC3"
		},
		{
			"bufferView":92,
			"componentType":5126,
			"count":2,
			"type":"VEC4"
		},
		{
			"bufferView":93,
			"componentType":5126,
			"count":2,
			"type":"VEC3"
		},
		{
			"bufferView":94,
			"componentType":5126,
			"count":2,
			"type":"VEC3"
		},
		{
			"bufferView":95,
			"componentType":5126,
			"count":2,
			"type":"VEC4"
		},
		{
			"bufferView":96,
			"componentType":5126,
			"count":2,
			"type":"VEC3"
		},
		{
			"bufferView":97,
			"componentType":5126,
			"count":2,
			"type":"VEC3"
		},
		{
			"bufferView":98,
			"componentType":5126,
			"count":19,
			"max":[
				0.6
			],
			"min":[
				0
			],
			"type":"SCALAR"
		},
		{
			"bufferView":99,
			"componentType":5126,
			"count":19,
			"type":"VEC4"
		},
		{
			"bufferView":100,
			"componentType":5126,
			"count":2,
			"type":"VEC3"
		},
		{
			"bufferView":101,
			"componentType":5126,
			"count":2,
			"type":"VEC3"
		},
		{
			"bufferView":102,
			"componentType":5126,
			"count":2,
			"type":"VEC4"
		},
		{
			"bufferView":103,
			"componentType":5126,
			"count":2,
			"type":"VEC3"
		},
		{
			"bufferView":104,
			"componentType":5126,
			"count":2,
			"type":"VEC3"
		},
		{
			"bufferView":105,
			"componentType":5126,
			"count":2,
			"type":"VEC4"
		},
		{
			"bufferView":106,
			"componentType":5126,
			"count":2,
			"type":"VEC3"
		},
		{
			"bufferView":107,
			"componentType":5126,
			"count":2,
			"type":"VEC3"
		},
		{
			"bufferView":108,
			"componentType":5126,
			"count":19,
			"type":"VEC4"
		},
		{
			"bufferView":109,
			"componentType":5126,
			"count":2,
			"type":"VEC3"
		},
		{
			"bufferView":110,
			"componentType":5126,
			"count":2,
			"type":"VEC3"
		},
		{
			"bufferView":111,
			"componentType":5126,
			"count":19,
			"type":"VEC4"
		},
		{
			"bufferView":112,
			"componentType":5126,
			"count":2,
			"type":"VEC3"
		},
		{
			"bufferView":113,
			"componentType":5126,
			"count":2,
			"type":"VEC3"
		},
		{
			"bufferView":114,
			"componentType":5126,
			"count":2,
			"type":"VEC4"
		},
		{
			"bufferView":115,
			"componentType":5126,
			"count":2,
			"type":"VEC3"
		},
		{
			"bufferView":116,
			"componentType":5126,
			"count":2,
			"type":"VEC3"
		},
		{
			"bufferView":117,
			"componentType":5126,
			"count":19,
			"type":"VEC4"
		},
		{
			"bufferView":118,
			"componentType":5126,
			"count":2,
			"type":"VEC3"
		},
		{
			"bufferView":119,
			"componentType":5126,
			"count":2,
			"type":"VEC3"
		},
		{
			"bufferView":120,
			"componentType":5126,
			"count":2,
			"type":"VEC4"
		},
		{
			"bufferView":121,
			"componentType":5126,
			"count":2,
			"type":"VEC3"
		},
		{
			"bufferView":122,
			"componentType":5126,
			"count":2,
			"type":"VEC3"
		},
		{
			"bufferView":123,
			"componentType":5126,
			"count":2,
			"type":"VEC4"
		},
		{
			"bufferView":124,
			"componentType":5126,
			"count":2,
			"type":"VEC3"
		},
		{
			"bufferView":125,
			"componentType":5126,
			"count":2,
			"type":"VEC3"
		},
		{
			"bufferView":126,
			"componentType":5126,
			"count":19,
			"type":"VEC4"
		},
		{
			"bufferView":127,
			"componentType":5126,
			"count":2,
			"type":"VEC3"
		},
		{
			"bufferView":128,
			"componentType":5126,
			"count":2,
			"type":"VEC3"
		},
		{
			"bufferView":129,
			"componentType":5126,
			"count":2,
			"type":"VEC4"
		},
		{
			"bufferView":130,
			"componentType":5126,
			"count":2,
			"type":"VEC3"
		},
		{
			"bufferView":131,
			"componentType":5126,
			"count":2,
			"type":"VEC3"
		},
		{
			"bufferView":132,
			"componentType":5126,
			"count":2,
			"type":"VEC4"
		},
		{
			"bufferView":133,
			"componentType":5126,
			"count":2,
			"type":"VEC3"
		},
		{
			"bufferView":134,
			"componentType":5126,
			"count":2,
			"type":"VEC3"
		},
		{
			"bufferView":135,
			"componentType":5126,
			"count":19,
			"type":"VEC4"
		},
		{
			"bufferView":136,
			"componentType":5126,
			"count":2,
			"type":"VEC3"
		},
		{
			"bufferView":137,
			"componentType":5126,
			"count":2,
			"type":"VEC3"
		},
		{
			"bufferView":138,
			"componentType":5126,
			"count":2,
			"type":"VEC4"
		},
		{
			"bufferView":139,
			"componentType":5126,
			"count":2,
			"type":"VEC3"
		},
		{
			"bufferView":140,
			"componentType":5126,
			"count":2,
			"type":"VEC3"
		},
		{
			"bufferView":141,
			"componentType":5126,
			"count":2,
			"type":"VEC4"
		},
		{
			"bufferView":142,
			"componentType":5126,
			"count":2,
			"type":"VEC3"
		},
		{
			"bufferView":143,
			"componentType":5126,
			"count":61,
			"max":[
				2
			],
			"min":[
				0
			],
			"type":"SCALAR"
		},
		{
			"bufferView":144,
			"componentType":5126,
			"count":61,
			"type":"VEC3"
		},
		{
			"bufferView":145,
			"componentType":5126,
			"count":2,
			"max":[
				2
			],
			"min":[
				0
			],
			"type":"SCALAR"
		},
		{
			"bufferView":146,
			"componentType":5126,
			"count":2,
			"type":"VEC4"
		},
		{
			"bufferView":147,
			"componentType":5126,
			"count":2,
			"type":"VEC3"
		},
		{
			"bufferView":148,
			"componentType":5126,
			"count":2,
			"type":"VEC3"
		},
		{
			"bufferView":149,
			"componentType":5126,
			"count":2,
			"type":"VEC4"
		},
		{
			"bufferView":150,
			"componentType":5126,
			"count":2,
			"type":"VEC3"
		},
		{
			"bufferView":151,
			"componentType":5126,
			"count":2,
			"type":"VEC3"
		},
		{
			"bufferView":152,
			"componentType":5126,
			"count":61,
			"type":"VEC4"
		},
		{
			"bufferView":153,
			"componentType":5126,
			"count":2,
			"type":"VEC3"
		},
		{
			"bufferView":154,
			"componentType":5126,
			"count":2,
			"type":"VEC3"
		},
		{
			"bufferView":155,
			"componentType":5126,
			"count":2,
			"type":"VEC4"
		},
		{
			"bufferView":156,
			"componentType":5126,
			"count":2,
			"type":"VEC3"
		},
		{
			"bufferView":157,
			"componentType":5126,
			"count":2,
			"type":"VEC3"
		},
		{
			"bufferView":158,
			"componentType":5126,
			"count":61,
			"type":"VEC4"
		},
		{
			"bufferView":159,
			"componentType":5126,
			"count":2,
			"type":"VEC3"
		},
		{
			"bufferView":160,
			"componentType":5126,
			"count":2,
			"type":"VEC3"
		},
		{
			"bufferView":161,
			"componentType":5126,
			"count":61,
			"type":"VEC4"
		},
		{
			"bufferView":162,
			"componentType":5126,
			"count":2,
			"type":"VEC3"
		},
		{
			"bufferView":163,
			"componentType":5126,
			"count":2,
			"type":"VEC3"
		},
		{
			"bufferView":164,
			"componentType":5126,
			"count":2,
			"type":"VEC4"
		},
		{
			"bufferView":165,
			"componentType":5126,
			"count":2,
			"type":"VEC3"
		},
		{
			"bufferView":166,
			"componentType":5126,
			"count":2,
			"type":"VEC3"
		},
		{
			"bufferView":167,
			"componentType":5126,
			"count":2,
			"type":"VEC4"
		},
		{
			"bufferView":168,
			"componentType":5126,
			"count":2,
			"type":"VEC3"
		},
		{
			"bufferView":169,
			"componentType":5126,
			"count":2,
			"type":"VEC3"
		},
		{
			"bufferView":170,
			"componentType":5126,
			"count":61,
			"type":"VEC4"
		},
		{
			"bufferView":171,
			"componentType":5126,
			"count":2,
			"type":"VEC3"
		},
		{
			"bufferView":172,
			"componentType":5126,
			"count":2,
			"type":"VEC3"
		},
		{
			"bufferView":173,
			"componentType":5126,
			"count":2,
			"type":"VEC4"
		},
		{
			"bufferView":174,
			"componentType":5126,
			"count":2,
			"type":"VEC3"
		},
		{
			"bufferView":175,
			"componentType":5126,
			"count":2,
			"type":"VEC3"
		},
		{
			"bufferView":176,
			"componentType":5126,
			"count":2,
			"type":"VEC4"
		},
		{
			"bufferView":177,
			"componentType":5126,
			"count":2,
			"type":"VEC3"
		},
		{
			"bufferView":178,
			"componentType":5126,
			"count":2,
			"type":"VEC3"
		},
		{
			"bufferView":179,
			"componentType":5126,
			"count":2,
			"type":"VEC4"
		},
		{
			"bufferView":180,
			"componentType":5126,
			"count":2,
			"type":"VEC3"
		},
		{
			"bufferView":181,
			"componentType":5126,
			"count":2,
			"type":"VEC3"
		},
		{
			"bufferView":182,
			"componentType":5126,
			"count":2,
			"type":"VEC4"
		},
		{
			"bufferView":183,
			"componentType":5126,
			"count":2,
			"type":"VEC3"
		},
		{
			"bufferView":184,
			"componentType":5126,
			"count":2,
			"type":"VEC3"
		},
		{
			"bufferView":185,
			"componentType":5126,
			"count":2,
			"type":"VEC4"
		},
		{
			"bufferView":186,
			"componentType":5126,
			"count":2,
			"type":"VEC3"
		},
		{
			"bufferView":187,
			"componentType":5126,
			"count":2,
			"type":"VEC3"
		},
		{
			"bufferView":188,
			"componentType":5126,
			"count":2,
			"type":"VEC4"
		},
		{
			"bufferView":189,
			"componentType":5126,
			"count":2,
			"type":"VEC3"
		},
		{
			"bufferView":190,
			"componentType":5126,
			"count":2,
			"type":"VEC3"
		},
		{
			"bufferView":191,
			"componentType":5126,
			"count":2,
			"type":"VEC4"
		},
		{
			"bufferView":192,
			"componentType":5126,
			"count":2,
			"type":"VEC3"
		},
		{
			"bufferView":193,
			"componentType":5126,
			"count":2,
			"type":"VEC3"
		},
		{
			"bufferView":194,
			"componentType":5126,
			"count":2,
			"type":"VEC4"
		},
		{
			"bufferView":195,
			"componentType":5126,
			"count":2,
			"type":"VEC3"
		},
		{
			"bufferView":196,
			"componentType":5126,
			"count":31,
			"max":[
				1
			],
			"min":[
				0
			],
			"type":"SCALAR"
		},
		{
			"bufferView":197,
			"componentType":5126,
			"count":31,
			"type":"VEC3"
		},
		{
			"bufferView":198,
			"componentType":5126,
			"count":31,
			"type":"VEC4"
		},
		{
			"bufferView":199,
			"componentType":5126,
			"count":2,
			"max":[
				1
			],
			"min":[
				0
			],
			"type":"SCALAR"
		},
		{
			"bufferView":200,
			"componentType":5126,
			"count":2,
			"type":"VEC3"
		},
		{
			"bufferView":201,
			"componentType":5126,
			"count":2,
			"type":"VEC3"
		},
		{
			"bufferView":202,
			"componentType":5126,
			"count":2,
			"type":"VEC4"
		},
		{
			"bufferView":203,
			"componentType":5126,
			"count":2,
			"type":"VEC3"
		},
		{
			"bufferView":204,
			"componentType":5126,
			"count":2,
			"type":"VEC3"
		},
		{
			"bufferView":205,
			"componentType":5126,
			"count":31,
			"type":"VEC4"
		},
		{
			"bufferView":206,
			"componentType":5126,
			"count":2,
			"type":"VEC3"
		},
		{
			"bufferView":207,
			"componentType":5126,
			"count":2,
			"type":"VEC3"
		},
		{
			"bufferView":208,
			"componentType":5126,
			"count":2,
			"type":"VEC4"
		},
		{
			"bufferView":209,
			"componentType":5126,
			"count":2,
			"type":"VEC3"
		},
		{
			"bufferView":210,
			"componentType":5126,
			"count":2,
			"type":"VEC3"
		},
		{
			"bufferView":211,
			"componentType":5126,
			"count":2,
			"type":"VEC4"
		},
		{
			"bufferView":212,
			"componentType":5126,
			"count":2,
			"type":"VEC3"
		},
		{
			"bufferView":213,
			"componentType":5126,
			"count":2,
			"type":"VEC3"
		},
		{
			"bufferView":214,
			"componentType":5126,
			"count":31,
			"type":"VEC4"
		},
		{
			"bufferView":215,
			"componentType":5126,
			"count":2,
			"type":"VEC3"
		},
		{
			"bufferView":216,
			"componentType":5126,
			"count":2,
			"type":"VEC3"
		},
		{
			"bufferView":217,
			"componentType":5126,
			"count":2,
			"type":"VEC4"
		},
		{
			"bufferView":218,
			"componentType":5126,
			"count":2,
			"type":"VEC3"
		},
		{
			"bufferView":219,
			"componentType":5126,
			"count":2,
			"type":"VEC3"
		},
		{
			"bufferView":220,
			"componentType":5126,
			"count":2,
			"type":"VEC4"
		},
		{
			"bufferView":221,
			"componentType":5126,
			"count":2,
			"type":"VEC3"
		},
		{
			"bufferView":222,
			"componentType":5126,
			"count":2,
			"type":"VEC3"
		},
		{
			"bufferView":223,
			"componentType":5126,
			"count":31,
			"type":"VEC4"
		},
		{
			"bufferView":224,
			"componentType":5126,
			"count":2,
			"type":"VEC3"
		},
		{
			"bufferView":225,
			"componentType":5126,
			"count":2,
			"type":"VEC3"
		},
		{
			"bufferView":226,
			"componentType":5126,
			"count":2,
			"type":"VEC4"
		},
		{
			"bufferView":227,
			"componentType":5126,
			"count":2,
			"type":"VEC3"
		},
		{
			"bufferView":228,
			"componentType":5126,
			"count":2,
			"type":"VEC3"
		},
		{
			"bufferView":229,
			"componentType":5126,
			"count":2,
			"type":"VEC4"
		},
		{
			"bufferView":230,
			"componentType":5126,
			"count":2,
			"type":"VEC3"
		},
		{
			"bufferView":231,
			"componentType":5126,
			"count":2,
			"type":"VEC3"
		},
		{
			"bufferView":232,
			"componentType":5126,
			"count":31,
			"type":"VEC4"
		},
		{
			"bufferView":233,
			"componentType":5126,
			"count":2,
			"type":"VEC3"
		},
		{
			"bufferView":234,
			"componentType":5126,
			"count":2,
			"type":"VEC3"
		},
		{
			"bufferView":235,
			"componentType":5126,
			"count":31,
			"type":"VEC4"
		},
		{
			"bufferView":236,
			"componentType":5126,
			"count":2,
			"type":"VEC3"
		},
		{
			"bufferView":237,
			"componentType":5126,
			"count":2,
			"type":"VEC3"
		},
		{
			"bufferView":238,
			"componentType":5126,
			"count":31,
			"type":"VEC4"
		},
		{
			"bufferView":239,
			"componentType":5126,
			"count":2,
			"type":"VEC3"
		},
		{
			"bufferView":240,
			"componentType":5126,
			"count":2,
			"type":"VEC3"
		},
		{
			"bufferView":241,
			"componentType":5126,
			"count":31,
			"type":"VEC4"
		},
		{
			"bufferView":242,
			"componentType":5126,
			"count":2,
			"type":"VEC3"
		},
		{
			"bufferView":243,
			"componentType":5126,
			"count":2,
			"type":"VEC3"
		},
		{
			"bufferView":244,
			"componentType":5126,
			"count":31,
			"type":"VEC4"
		},
		{
			"bufferView":245,
			"componentType":5126,
			"count":2,
			"type":"VEC3"
		},
		{
			"bufferView":246,
			"componentType":5126,
			"count":2,
			"type":"VEC3"
		},
		{
			"bufferView":247,
			"componentType":5126,
			"count":31,
			"type":"VEC4"
		},
		{
			"bufferView":248,
			"componentType":5126,
			"count":2,
			"type":"VEC3"
		}
	],
	"bufferViews":[
		{
			"buffer":0,
			"byteLength":16908,
			"byteOffset":0,
			"target":34962
		},
		{
			"buffer":0,
			"byteLength":16908,
			"byteOffset":16908,
			"target":34962
		},
		{
			"buffer":0,
			"byteLength":11272,
			"byteOffset":33816,
			"target":34962
		},
		{
			"buffer":0,
			"byteLength":5636,
			"byteOffset":45088,
			"target":34962
		},
		{
			"buffer":0,
			"byteLength":22544,
			"byteOffset":50724,
			"target":34962
		},
		{
			"buffer":0,
			"byteLength":11616,
			"byteOffset":73268,
			"target":34963
		},
		{
			"buffer":0,
			"byteLength":36024,
			"byteOffset":84884,
			"target":34962
		},
		{
			"buffer":0,
			"byteLength":36024,
			"byteOffset":120908,
			"target":34962
		},
		{
			"buffer":0,
			"byteLength":24016,
			"byteOffset":156932,
			"target":34962
		},
		{
			"buffer":0,
			"byteLength":12008,
			"byteOffset":180948,
			"target":34962
		},
		{
			"buffer":0,
			"byteLength":48032,
			"byteOffset":192956,
			"target":34962
		},
		{
			"buffer":0,
			"byteLength":20688,
			"byteOffset":240988,
			"target":34963
		},
		{
			"buffer":0,
			"byteLength":22992,
			"byteOffset":261676,
			"target":34962
		},
		{
			"buffer":0,
			"byteLength":22992,
			"byteOffset":284668,
			"target":34962
		},
		{
			"buffer":0,
			"byteLength":15328,
			"byteOffset":307660,
			"target":34962
		},
		{
			"buffer":0,
			"byteLength":7664,
			"byteOffset":322988,
			"target":34962
		},
		{
			"buffer":0,
			"byteLength":30656,
			"byteOffset":330652,
			"target":34962
		},
		{
			"buffer":0,
			"byteLength":17304,
			"byteOffset":361308,
			"target":34963
		},
		{
			"buffer":0,
			"byteLength":912,
			"byteOffset":378612,
			"target":34962
		},
		{
			"buffer":0,
			"byteLength":912,
			"byteOffset":379524,
			"target":34962
		},
		{
			"buffer":0,
			"byteLength":608,
			"byteOffset":380436,
			"target":34962
		},
		{
			"buffer":0,
			"byteLength":304,
			"byteOffset":381044,
			"target":34962
		},
		{
			"buffer":0,
			"byteLength":1216,
			"byteOffset":381348,
			"target":34962
		},
		{
			"buffer":0,
			"byteLength":528,
			"byteOffset":382564,
			"target":34963
		},
		{
			"buffer":0,
			"byteLength":11940,
			"byteOffset":383092,
			"target":34962
		},
		{
			"buffer":0,
			"byteLength":11940,
			"byteOffset":395032,
			"target":34962
		},
		{
			"buffer":0,
			"byteLength":7960,
			"byteOffset":406972,
			"target":34962
		},
		{
			"buffer":0,
			"byteLength":3980,
			"byteOffset":414932,
			"target":34962
		},
		{
			"buffer":0,
			"byteLength":15920,
			"byteOffset":418912,
			"target":34962
		},
		{
			"buffer":0,
			"byteLength":8760,
			"byteOffset":434832,
			"target":34963
		},
		{
			"buffer":0,
			"byteLength":12408,
			"byteOffset":443592,
			"target":34962
		},
		{
			"buffer":0,
			"byteLength":12408,
			"byteOffset":456000,
			"target":34962
		},
		{
			"buffer":0,
			"byteLength":8272,
			"byteOffset":468408,
			"target":34962
		},
		{
			"buffer":0,
			"byteLength":4136,
			"byteOffset":476680,
			"target":34962
		},
		{
			"buffer":0,
			"byteLength":16544,
			"byteOffset":480816,
			"target":34962
		},
		{
			"buffer":0,
			"byteLength":9216,
			"byteOffset":497360,
			"target":34963
		},
		{
			"buffer":0,
			"byteLength":3648,
			"byteOffset":506576,
			"target":34962
		},
		{
			"buffer":0,
			"byteLength":3648,
			"byteOffset":510224,
			"target":34962
		},
		{
			"buffer":0,
			"byteLength":2432,
			"byteOffset":513872,
			"target":34962
		},
		{
			"buffer":0,
			"byteLength":1216,
			"byteOffset":516304,
			"target":34962
		},
		{
			"buffer":0,
			"byteLength":4864,
			"byteOffset":517520,
			"target":34962
		},
		{
			"buffer":0,
			"byteLength":2304,
			"byteOffset":522384,
			"target":34963
		},
		{
			"buffer":0,
			"byteLength":2640,
			"byteOffset":524688,
			"target":34962
		},
		{
			"buffer":0,
			"byteLength":2640,
			"byteOffset":527328,
			"target":34962
		},
		{
			"buffer":0,
			"byteLength":1760,
			"byteOffset":529968,
			"target":34962
		},
		{
			"buffer":0,
			"byteLength":880,
			"byteOffset":531728,
			"target":34962
		},
		{
			"buffer":0,
			"byteLength":3520,
			"byteOffset":532608,
			"target":34962
		},
		{
			"buffer":0,
			"byteLength":1440,
			"byteOffset":536128,
			"target":34963
		},
		{
			"buffer":0,
			"byteLength":1920,
			"byteOffset":537568,
			"target":34962
		},
		{
			"buffer":0,
			"byteLength":1920,
			"byteOffset":539488,
			"target":34962
		},
		{
			"buffer":0,
			"byteLength":1280,
			"byteOffset":541408,
			"target":34962
		},
		{
			"buffer":0,
			"byteLength":640,
			"byteOffset":542688,
			"target":34962
		},
		{
			"buffer":0,
			"byteLength":2560,
			"byteOffset":543328,
			"target":34962
		},
		{
			"buffer":0,
			"byteLength":960,
			"byteOffset":545888,
			"target":34963
		},
		{
			"buffer":0,
			"byteLength":1176,
			"byteOffset":546848,
			"target":34962
		},
		{
			"buffer":0,
			"byteLength":1176,
			"byteOffset":548024,
			"target":34962
		},
		{
			"buffer":0,
			"byteLength":784,
			"byteOffset":549200,
			"target":34962
		},
		{
			"buffer":0,
			"byteLength":392,
			"byteOffset":549984,
			"target":34962
		},
		{
			"buffer":0,
			"byteLength":1568,
			"byteOffset":550376,
			"target":34962
		},
		{
			"buffer":0,
			"byteLength":720,
			"byteOffset":551944,
			"target":34963
		},
		{
			"buffer":0,
			"byteLength":672,
			"byteOffset":552664,
			"target":34962
		},
		{
			"buffer":0,
			"byteLength":672,
			"byteOffset":553336,
			"target":34962
		},
		{
			"buffer":0,
			"byteLength":448,
			"byteOffset":554008,
			"target":34962
		},
		{
			"buffer":0,
			"byteLength":224,
			"byteOffset":554456,
			"target":34962
		},
		{
			"buffer":0,
			"byteLength":896,
			"byteOffset":554680,
			"target":34962
		},
		{
			"buffer":0,
			"byteLength":504,
			"byteOffset":555576,
			"target":34963
		},
		{
			"buffer":0,
			"byteLength":288,
			"byteOffset":556080,
			"target":34962
		},
		{
			"buffer":0,
			"byteLength":288,
			"byteOffset":556368,
			"target":34962
		},
		{
			"buffer":0,
			"byteLength":192,
			"byteOffset":556656,
			"target":34962
		},
		{
			"buffer":0,
			"byteLength":96,
			"byteOffset":556848,
			"target":34962
		},
		{
			"buffer":0,
			"byteLength":384,
			"byteOffset":556944,
			"target":34962
		},
		{
			"buffer":0,
			"byteLength":72,
			"byteOffset":557328,
			"target":34963
		},
		{
			"buffer":0,
			"byteLength":1296,
			"byteOffset":557400,
			"target":34962
		},
		{
			"buffer":0,
			"byteLength":1296,
			"byteOffset":558696,
			"target":34962
		},
		{
			"buffer":0,
			"byteLength":864,
			"byteOffset":559992,
			"target":34962
		},
		{
			"buffer":0,
			"byteLength":432,
			"byteOffset":560856,
			"target":34962
		},
		{
			"buffer":0,
			"byteLength":1728,
			"byteOffset":561288,
			"target":34962
		},
		{
			"buffer":0,
			"byteLength":312,
			"byteOffset":563016,
			"target":34963
		},
		{
			"buffer":0,
			"byteLength":504,
			"byteOffset":563328,
			"target":34962
		},
		{
			"buffer":0,
			"byteLength":504,
			"byteOffset":563832,
			"target":34962
		},
		{
			"buffer":0,
			"byteLength":336,
			"byteOffset":564336,
			"target":34962
		},
		{
			"buffer":0,
			"byteLength":168,
			"byteOffset":564672,
			"target":34962
		},
		{
			"buffer":0,
			"byteLength":672,
			"byteOffset":564840,
			"target":34962
		},
		{
			"buffer":0,
			"byteLength":192,
			"byteOffset":565512,
			"target":34963
		},
		{
			"buffer":0,
			"byteLength":288,
			"byteOffset":565704,
			"target":34962
		},
		{
			"buffer":0,
			"byteLength":288,
			"byteOffset":565992,
			"target":34962
		},
		{
			"buffer":0,
			"byteLength":192,
			"byteOffset":566280,
			"target":34962
		},
		{
			"buffer":0,
			"byteLength":96,
			"byteOffset":566472,
			"target":34962
		},
		{
			"buffer":0,
			"byteLength":384,
			"byteOffset":566568,
			"target":34962
		},
		{
			"buffer":0,
			"byteLength":1088,
			"byteOffset":566952
		},
		{
			"buffer":0,
			"byteLength":8,
			"byteOffset":568040
		},
		{
			"buffer":0,
			"byteLength":24,
			"byteOffset":568048
		},
		{
			"buffer":0,
			"byteLength":32,
			"byteOffset":568072
		},
		{
			"buffer":0,
			"byteLength":24,
			"byteOffset":568104
		},
		{
			"buffer":0,
			"byteLength":24,
			"byteOffset":568128
		},
		{
			"buffer":0,
			"byteLength":32,
			"byteOffset":568152
		},
		{
			"buffer":0,
			"byteLength":24,
			"byteOffset":568184
		},
		{
			"buffer":0,
			"byteLength":24,
			"byteOffset":568208
		},
		{
			"buffer":0,
			"byteLength":76,
			"byteOffset":568232
		},
		{
			"buffer":0,
			"byteLength":304,
			"byteOffset":568308
		},
		{
			"buffer":0,
			"byteLength":24,
			"byteOffset":568612
		},
		{
			"buffer":0,
			"byteLength":24,
			"byteOffset":568636
		},
		{
			"buffer":0,
			"byteLength":32,
			"byteOffset":568660
		},
		{
			"buffer":0,
			"byteLength":24,
			"byteOffset":568692
		},
		{
			"buffer":0,
			"byteLength":24,
			"byteOffset":568716
		},
		{
			"buffer":0,
			"byteLength":32,
			"byteOffset":568740
		},
		{
			"buffer":0,
			"byteLength":24,
			"byteOffset":568772
		},
		{
			"buffer":0,
			"byteLength":24,
			"byteOffset":568796
		},
		{
			"buffer":0,
			"byteLength":304,
			"byteOffset":568820
		},
		{
			"buffer":0,
			"byteLength":24,
			"byteOffset":569124
		},
		{
			"buffer":0,
			"byteLength":24,
			"byteOffset":569148
		},
		{
			"buffer":0,
			"byteLength":304,
			"byteOffset":569172
		},
		{
			"buffer":0,
			"byteLength":24,
			"byteOffset":569476
		},
		{
			"buffer":0,
			"byteLength":24,
			"byteOffset":569500
		},
		{
			"buffer":0,
			"byteLength":32,
			"byteOffset":569524
		},
		{
			"buffer":0,
			"byteLength":24,
			"byteOffset":569556
		},
		{
			"buffer":0,
			"byteLength":24,
			"byteOffset":569580
		},
		{
			"buffer":0,
			"byteLength":304,
			"byteOffset":569604
		},
		{
			"buffer":0,
			"byteLength":24,
			"byteOffset":569908
		},
		{
			"buffer":0,
			"byteLength":24,
			"byteOffset":569932
		},
		{
			"buffer":0,
			"byteLength":32,
			"byteOffset":569956
		},
		{
			"buffer":0,
			"byteLength":24,
			"byteOffset":569988
		},
		{
			"buffer":0,
			"byteLength":24,
			"byteOffset":570012
		},
		{
			"buffer":0,
			"byteLength":32,
			"byteOffset":570036
		},
		{
			"buffer":0,
			"byteLength":24,
			"byteOffset":570068
		},
		{
			"buffer":0,
			"byteLength":24,
			"byteOffset":570092
		},
		{
			"buffer":0,
			"byteLength":304,
			"byteOffset":570116
		},
		{
			"buffer":0,
			"byteLength":24,
			"byteOffset":570420
		},
		{
			"buffer":0,
			"byteLength":24,
			"byteOffset":570444
		},
		{
			"buffer":0,
			"byteLength":32,
			"byteOffset":570468
		},
		{
			"buffer":0,
			"byteLength":24,
			"byteOffset":570500
		},
		{
			"buffer":0,
			"byteLength":24,
			"byteOffset":570524
		},
		{
			"buffer":0,
			"byteLength":32,
			"byteOffset":570548
		},
		{
			"buffer":0,
			"byteLength":24,
			"byteOffset":570580
		},
		{
			"buffer":0,
			"byteLength":24,
			"byteOffset":570604
		},
		{
			"buffer":0,
			"byteLength":304,
			"byteOffset":570628
		},
		{
			"buffer":0,
			"byteLength":24,
			"byteOffset":570932
		},
		{
			"buffer":0,
			"byteLength":24,
			"byteOffset":570956
		},
		{
			"buffer":0,
			"byteLength":32,
			"byteOffset":570980
		},
		{
			"buffer":0,
			"byteLength":24,
			"byteOffset":571012
		},
		{
			"buffer":0,
			"byteLength":24,
			"byteOffset":571036
		},
		{
			"buffer":0,
			"byteLength":32,
			"byteOffset":571060
		},
		{
			"buffer":0,
			"byteLength":24,
			"byteOffset":571092
		},
		{
			"buffer":0,
			"byteLength":244,
			"byteOffset":571116
		},
		{
			"buffer":0,
			"byteLength":732,
			"byteOffset":571360
		},
		{
			"buffer":0,
			"byteLength":8,
			"byteOffset":572092
		},
		{
			"buffer":0,
			"byteLength":32,
			"byteOffset":572100
		},
		{
			"buffer":0,
			"byteLength":24,
			"byteOffset":572132
		},
		{
			"buffer":0,
			"byteLength":24,
			"byteOffset":572156
		},
		{
			"buffer":0,
			"byteLength":32,
			"byteOffset":572180
		},
		{
			"buffer":0,
			"byteLength":24,
			"byteOffset":572212
		},
		{
			"buffer":0,
			"byteLength":24,
			"byteOffset":572236
		},
		{
			"buffer":0,
			"byteLength":976,
			"byteOffset":572260
		},
		{
			"buffer":0,
			"byteLength":24,
			"byteOffset":573236
		},
		{
			"buffer":0,
			"byteLength":24,
			"byteOffset":573260
		},
		{
			"buffer":0,
			"byteLength":32,
			"byteOffset":573284
		},
		{
			"buffer":0,
			"byteLength":24,
			"byteOffset":573316
		},
		{
			"buffer":0,
			"byteLength":24,
			"byteOffset":573340
		},
		{
			"buffer":0,
			"byteLength":976,
			"byteOffset":573364
		},
		{
			"buffer":0,
			"byteLength":24,
			"byteOffset":574340
		},
		{
			"buffer":0,
			"byteLength":24,
			"byteOffset":574364
		},
		{
			"buffer":0,
			"byteLength":976,
			"byteOffset":574388
		},
		{
			"buffer":0,
			"byteLength":24,
			"byteOffset":575364
		},
		{
			"buffer":0,
			"byteLength":24,
			"byteOffset":575388
		},
		{
			"buffer":0,
			"byteLength":32,
			"byteOffset":575412
		},
		{
			"buffer":0,
			"byteLength":24,
			"byteOffset":575444
		},
		{
			"buffer":0,
			"byteLength":24,
			"byteOffset":575468
		},
		{
			"buffer":0,
			"byteLength":32,
			"byteOffset":575492
		},
		{
			"buffer":0,
			"byteLength":24,
			"byteOffset":575524
		},
		{
			"buffer":0,
			"byteLength":24,
			"byteOffset":575548
		},
		{
			"buffer":0,
			"byteLength":976,
			"byteOffset":575572
		},
		{
			"buffer":0,
			"byteLength":24,
			"byteOffset":576548
		},
		{
			"buffer":0,
			"byteLength":24,
			"byteOffset":576572
		},
		{
			"buffer":0,
			"byteLength":32,
			"byteOffset":576596
		},
		{
			"buffer":0,
			"byteLength":24,
			"byteOffset":576628
		},
		{
			"buffer":0,
			"byteLength":24,
			"byteOffset":576652
		},
		{
			"buffer":0,
			"byteLength":32,
			"byteOffset":576676
		},
		{
			"buffer":0,
			"byteLength":24,
			"byteOffset":576708
		},
		{
			"buffer":0,
			"byteLength":24,
			"byteOffset":576732
		},
		{
			"buffer":0,
			"byteLength":32,
			"byteOffset":576756
		},
		{
			"buffer":0,
			"byteLength":24,
			"byteOffset":576788
		},
		{
			"buffer":0,
			"byteLength":24,
			"byteOffset":576812
		},
		{
			"buffer":0,
			"byteLength":32,
			"byteOffset":576836
		},
		{
			"buffer":0,
			"byteLength":24,
			"byteOffset":576868
		},
		{
			"buffer":0,
			"byteLength":24,
			"byteOffset":576892
		},
		{
			"buffer":0,
			"byteLength":32,
			"byteOffset":576916
		},
		{
			"buffer":0,
			"byteLength":24,
			"byteOffset":576948
		},
		{
			"buffer":0,
			"byteLength":24,
			"byteOffset":576972
		},
		{
			"buffer":0,
			"byteLength":32,
			"byteOffset":576996
		},
		{
			"buffer":0,
			"byteLength":24,
			"byteOffset":577028
		},
		{
			"buffer":0,
			"byteLength":24,
			"byteOffset":577052
		},
		{
			"buffer":0,
			"byteLength":32,
			"byteOffset":577076
		},
		{
			"buffer":0,
			"byteLength":24,
			"byteOffset":577108
		},
		{
			"buffer":0,
			"byteLength":24,
			"byteOffset":577132
		},
		{
			"buffer":0,
			"byteLength":32,
			"byteOffset":577156
		},
		{
			"buffer":0,
			"byteLength":24,
			"byteOffset":577188
		},
		{
			"buffer":0,
			"byteLength":124,
			"byteOffset":577212
		},
		{
			"buffer":0,
			"byteLength":372,
			"byteOffset":577336
		},
		{
			"buffer":0,
			"byteLength":496,
			"byteOffset":577708
		},
		{
			"buffer":0,
			"byteLength":8,
			"byteOffset":578204
		},
		{
			"buffer":0,
			"byteLength":24,
			"byteOffset":578212
		},
		{
			"buffer":0,
			"byteLength":24,
			"byteOffset":578236
		},
		{
			"buffer":0,
			"byteLength":32,
			"byteOffset":578260
		},
		{
			"buffer":0,
			"byteLength":24,
			"byteOffset":578292
		},
		{
			"buffer":0,
			"byteLength":24,
			"byteOffset":578316
		},
		{
			"buffer":0,
			"byteLength":496,
			"byteOffset":578340
		},
		{
			"buffer":0,
			"byteLength":24,
			"byteOffset":578836
		},
		{
			"buffer":0,
			"byteLength":24,
			"byteOffset":578860
		},
		{
			"buffer":0,
			"byteLength":32,
			"byteOffset":578884
		},
		{
			"buffer":0,
			"byteLength":24,
			"byteOffset":578916
		},
		{
			"buffer":0,
			"byteLength":24,
			"byteOffset":578940
		},
		{
			"buffer":0,
			"byteLength":32,
			"byteOffset":578964
		},
		{
			"buffer":0,
			"byteLength":24,
			"byteOffset":578996
		},
		{
			"buffer":0,
			"byteLength":24,
			"byteOffset":579020
		},
		{
			"buffer":0,
			"byteLength":496,
			"byteOffset":579044
		},
		{
			"buffer":0,
			"byteLength":24,
			"byteOffset":579540
		},
		{
			"buffer":0,
			"byteLength":24,
			"byteOffset":579564
		},
		{
			"buffer":0,
			"byteLength":32,
			"byteOffset":579588
		},
		{
			"buffer":0,
			"byteLength":24,
			"byteOffset":579620
		},
		{
			"buffer":0,
			"byteLength":24,
			"byteOffset":579644
		},
		{
			"buffer":0,
			"byteLength":32,
			"byteOffset":579668
		},
		{
			"buffer":0,
			"byteLength":24,
			"byteOffset":579700
		},
		{
			"buffer":0,
			"byteLength":24,
			"byteOffset":579724
		},
		{
			"buffer":0,
			"byteLength":496,
			"byteOffset":579748
		},
		{
			"buffer":0,
			"byteLength":24,
			"byteOffset":580244
		},
		{
			"buffer":0,
			"byteLength":24,
			"byteOffset":580268
		},
		{
			"buffer":0,
			"byteLength":32,
			"byteOffset":580292
		},
		{
			"buffer":0,
			"byteLength":24,
			"byteOffset":580324
		},
		{
			"buffer":0,
			"byteLength":24,
			"byteOffset":580348
		},
		{
			"buffer":0,
			"byteLength":32,
			"byteOffset":580372
		},
		{
			"buffer":0,
			"byteLength":24,
			"byteOffset":580404
		},
		{
			"buffer":0,
			"byteLength":24,
			"byteOffset":580428
		},
		{
			"buffer":0,
			"byteLength":496,
			"byteOffset":580452
		},
		{
			"buffer":0,
			"byteLength":24,
			"byteOffset":580948
		},
		{
			"buffer":0,
			"byteLength":24,
			"byteOffset":580972
		},
		{
			"buffer":0,
			"byteLength":496,
			"byteOffset":580996
		},
		{
			"buffer":0,
			"byteLength":24,
			"byteOffset":581492
		},
		{
			"buffer":0,
			"byteLength":24,
			"byteOffset":581516
		},
		{
			"buffer":0,
			"byteLength":496,
			"byteOffset":581540
		},
		{
			"buffer":0,
			"byteLength":24,
			"byteOffset":582036
		},
		{
			"buffer":0,
			"byteLength":24,
			"byteOffset":582060
		},
		{
			"buffer":0,
			"byteLength":496,
			"byteOffset":582084
		},
		{
			"buffer":0,
			"byteLength":24,
			"byteOffset":582580
		},
		{
			"buffer":0,
			"byteLength":24,
			"byteOffset":582604
		},
		{
			"buffer":0,
			"byteLength":496,
			"byteOffset":582628
		},
		{
			"buffer":0,
			"byteLength":24,
			"byteOffset":583124
		},
		{
			"buffer":0,
			"byteLength":24,
			"byteOffset":583148
		},
		{
			"buffer":0,
			"byteLength":496,
			"byteOffset":583172
		},
		{
			"buffer":0,
			"byteLength":24,
			"byteOffset":583668
		}
	],
	"samplers":[
		{
			"magFilter":9729,
			"minFilter":9987
		}
	],
	"buffers":[
		{
			"byteLength":583692,
			"uri":"hinata.bin"
		}
	]
}
