{
	"asset":{
		"generator":"Khronos glTF Blender I/O v4.2.57",
		"version":"2.0"
	},
	"extensionsUsed":[
		"KHR_materials_clearcoat",
		"KHR_materials_sheen"
	],
	"scene":0,
	"scenes":[
		{
			"name":"Scene",
			"nodes":[
				18
			]
		}
	],
	"nodes":[
		{
			"name":"head",
			"translation":[
				0,
				0.09999990463256836,
				0
			]
		},
		{
			"children":[
				0
			],
			"name":"neck",
			"translation":[
				0,
				0.21000003814697266,
				0
			]
		},
		{
			"name":"hand.R",
			"rotation":[
				-0.002831934718415141,
				-0.02058575302362442,
				0.02213011309504509,
				0.9995391368865967
			],
			"scale":[
				0.9999998807907104,
				0.9999999403953552,
				0.9999998807907104
			],
			"translation":[
				-4.773028194904327e-09,
				0.2517271339893341,
				-1.862645149230957e-09
			]
		},
		{
			"children":[
				2
			],
			"name":"forearm.R",
			"rotation":[
				0.04786790907382965,
				-0.06073953956365585,
				0.0701540857553482,
				0.9945339560508728
			],
			"translation":[
				-3.189779818058014e-08,
				0.2762984037399292,
				-6.51925802230835e-09
			]
		},
		{
			"children":[
				3
			],
			"name":"upper_arm.R",
			"rotation":[
				0.9885599613189697,
				0.10654280334711075,
				0.1065429225564003,
				0.006823054980486631
			],
			"scale":[
				0.9999995827674866,
				0.9999998807907104,
				0.9999999403953552
			],
			"translation":[
				0.2160000056028366,
				0.15999996662139893,
				0
			]
		},
		{
			"name":"hand.L",
			"rotation":[
				-0.002831934718415141,
				0.02058575302362442,
				-0.02213011309504509,
				0.9995391368865967
			],
			"scale":[
				0.9999998807907104,
				0.9999999403953552,
				0.9999998807907104
			],
			"translation":[
				4.773028194904327e-09,
				0.2517271339893341,
				-1.862645149230957e-09
			]
		},
		{
			"children":[
				5
			],
			"name":"forearm.L",
			"rotation":[
				0.04786790907382965,
				0.06073953956365585,
				-0.0701540857553482,
				0.9945339560508728
			],
			"translation":[
				3.189779818058014e-08,
				0.2762984037399292,
				-6.51925802230835e-09
			]
		},
		{
			"children":[
				6
			],
			"name":"upper_arm.L",
			"rotation":[
				0.9885599613189697,
				-0.10654280334711075,
				-0.1065429225564003,
				0.006823054980486631
			],
			"scale":[
				0.9999995827674866,
				0.9999998807907104,
				0.9999999403953552
			],
			"translation":[
				-0.2160000056028366,
				0.15999996662139893,
				0
			]
		},
		{
			"children":[
				1,
				4,
				7
			],
			"name":"chest",
			"translation":[
				0,
				0.16999995708465576,
				0
			]
		},
		{
			"children":[
				8
			],
			"name":"spine",
			"translation":[
				0,
				0.15000003576278687,
				0
			]
		},
		{
			"name":"foot.R",
			"rotation":[
				0.5914180874824524,
				-2.9070412743692486e-09,
				7.606066887433371e-10,
				0.8063651323318481
			],
			"translation":[
				-7.56543361291051e-09,
				0.41058987379074097,
				4.581082180266094e-10
			]
		},
		{
			"children":[
				10
			],
			"name":"shin.R",
			"rotation":[
				-0.041510097682476044,
				-0.00986466370522976,
				0.009349504485726357,
				0.9990456700325012
			],
			"scale":[
				0.9999999403953552,
				1,
				1
			],
			"translation":[
				-1.1161318980157375e-08,
				0.410253643989563,
				8.149072527885437e-10
			]
		},
		{
			"children":[
				11
			],
			"name":"thigh.R",
			"rotation":[
				-0.9997993111610413,
				-0.009610525332391262,
				-0.00961065012961626,
				0.014720412902534008
			],
			"scale":[
				1.0000001192092896,
				1,
				1.0000003576278687
			],
			"translation":[
				0.09200000017881393,
				-0.019999980926513672,
				0
			]
		},
		{
			"name":"foot.L",
			"rotation":[
				0.5914180874824524,
				2.9070412743692486e-09,
				-7.606066887433371e-10,
				0.8063651323318481
			],
			"translation":[
				7.56543361291051e-09,
				0.41058987379074097,
				4.581082180266094e-10
			]
		},
		{
			"children":[
				13
			],
			"name":"shin.L",
			"rotation":[
				-0.041510097682476044,
				0.00986466370522976,
				-0.009349504485726357,
				0.9990456700325012
			],
			"scale":[
				0.9999999403953552,
				1,
				1
			],
			"translation":[
				1.1161318980157375e-08,
				0.410253643989563,
				8.149072527885437e-10
			]
		},
		{
			"children":[
				14
			],
			"name":"thigh.L",
			"rotation":[
				-0.9997993111610413,
				0.009610525332391262,
				0.00961065012961626,
				0.014720412902534008
			],
			"scale":[
				1.0000001192092896,
				1,
				1.0000003576278687
			],
			"translation":[
				-0.09200000017881393,
				-0.019999980926513672,
				0
			]
		},
		{
			"children":[
				9,
				12,
				15
			],
			"name":"hips",
			"translation":[
				0,
				0.9300000071525574,
				0
			]
		},
		{
			"mesh":0,
			"name":"imperial",
			"skin":0
		},
		{
			"children":[
				17,
				16
			],
			"name":"imperial_rig"
		}
	],
	"animations":[
		{
			"channels":[
				{
					"sampler":0,
					"target":{
						"node":16,
						"path":"translation"
					}
				},
				{
					"sampler":1,
					"target":{
						"node":16,
						"path":"rotation"
					}
				},
				{
					"sampler":2,
					"target":{
						"node":16,
						"path":"scale"
					}
				},
				{
					"sampler":3,
					"target":{
						"node":9,
						"path":"translation"
					}
				},
				{
					"sampler":4,
					"target":{
						"node":9,
						"path":"rotation"
					}
				},
				{
					"sampler":5,
					"target":{
						"node":9,
						"path":"scale"
					}
				},
				{
					"sampler":6,
					"target":{
						"node":8,
						"path":"translation"
					}
				},
				{
					"sampler":7,
					"target":{
						"node":8,
						"path":"rotation"
					}
				},
				{
					"sampler":8,
					"target":{
						"node":8,
						"path":"scale"
					}
				},
				{
					"sampler":9,
					"target":{
						"node":1,
						"path":"translation"
					}
				},
				{
					"sampler":10,
					"target":{
						"node":1,
						"path":"rotation"
					}
				},
				{
					"sampler":11,
					"target":{
						"node":1,
						"path":"scale"
					}
				},
				{
					"sampler":12,
					"target":{
						"node":0,
						"path":"translation"
					}
				},
				{
					"sampler":13,
					"target":{
						"node":0,
						"path":"rotation"
					}
				},
				{
					"sampler":14,
					"target":{
						"node":0,
						"path":"scale"
					}
				},
				{
					"sampler":15,
					"target":{
						"node":4,
						"path":"translation"
					}
				},
				{
					"sampler":16,
					"target":{
						"node":4,
						"path":"rotation"
					}
				},
				{
					"sampler":17,
					"target":{
						"node":4,
						"path":"scale"
					}
				},
				{
					"sampler":18,
					"target":{
						"node":3,
						"path":"translation"
					}
				},
				{
					"sampler":19,
					"target":{
						"node":3,
						"path":"rotation"
					}
				},
				{
					"sampler":20,
					"target":{
						"node":3,
						"path":"scale"
					}
				},
				{
					"sampler":21,
					"target":{
						"node":2,
						"path":"translation"
					}
				},
				{
					"sampler":22,
					"target":{
						"node":2,
						"path":"rotation"
					}
				},
				{
					"sampler":23,
					"target":{
						"node":2,
						"path":"scale"
					}
				},
				{
					"sampler":24,
					"target":{
						"node":7,
						"path":"translation"
					}
				},
				{
					"sampler":25,
					"target":{
						"node":7,
						"path":"rotation"
					}
				},
				{
					"sampler":26,
					"target":{
						"node":7,
						"path":"scale"
					}
				},
				{
					"sampler":27,
					"target":{
						"node":6,
						"path":"translation"
					}
				},
				{
					"sampler":28,
					"target":{
						"node":6,
						"path":"rotation"
					}
				},
				{
					"sampler":29,
					"target":{
						"node":6,
						"path":"scale"
					}
				},
				{
					"sampler":30,
					"target":{
						"node":5,
						"path":"translation"
					}
				},
				{
					"sampler":31,
					"target":{
						"node":5,
						"path":"rotation"
					}
				},
				{
					"sampler":32,
					"target":{
						"node":5,
						"path":"scale"
					}
				},
				{
					"sampler":33,
					"target":{
						"node":12,
						"path":"translation"
					}
				},
				{
					"sampler":34,
					"target":{
						"node":12,
						"path":"rotation"
					}
				},
				{
					"sampler":35,
					"target":{
						"node":12,
						"path":"scale"
					}
				},
				{
					"sampler":36,
					"target":{
						"node":11,
						"path":"translation"
					}
				},
				{
					"sampler":37,
					"target":{
						"node":11,
						"path":"rotation"
					}
				},
				{
					"sampler":38,
					"target":{
						"node":11,
						"path":"scale"
					}
				},
				{
					"sampler":39,
					"target":{
						"node":10,
						"path":"translation"
					}
				},
				{
					"sampler":40,
					"target":{
						"node":10,
						"path":"rotation"
					}
				},
				{
					"sampler":41,
					"target":{
						"node":10,
						"path":"scale"
					}
				},
				{
					"sampler":42,
					"target":{
						"node":15,
						"path":"translation"
					}
				},
				{
					"sampler":43,
					"target":{
						"node":15,
						"path":"rotation"
					}
				},
				{
					"sampler":44,
					"target":{
						"node":15,
						"path":"scale"
					}
				},
				{
					"sampler":45,
					"target":{
						"node":14,
						"path":"translation"
					}
				},
				{
					"sampler":46,
					"target":{
						"node":14,
						"path":"rotation"
					}
				},
				{
					"sampler":47,
					"target":{
						"node":14,
						"path":"scale"
					}
				},
				{
					"sampler":48,
					"target":{
						"node":13,
						"path":"translation"
					}
				},
				{
					"sampler":49,
					"target":{
						"node":13,
						"path":"rotation"
					}
				},
				{
					"sampler":50,
					"target":{
						"node":13,
						"path":"scale"
					}
				}
			],
			"name":"attack",
			"samplers":[
				{
					"input":84,
					"interpolation":"STEP",
					"output":85
				},
				{
					"input":84,
					"interpolation":"STEP",
					"output":86
				},
				{
					"input":84,
					"interpolation":"STEP",
					"output":87
				},
				{
					"input":84,
					"interpolation":"STEP",
					"output":88
				},
				{
					"input":84,
					"interpolation":"STEP",
					"output":89
				},
				{
					"input":84,
					"interpolation":"STEP",
					"output":90
				},
				{
					"input":84,
					"interpolation":"STEP",
					"output":91
				},
				{
					"input":92,
					"interpolation":"LINEAR",
					"output":93
				},
				{
					"input":84,
					"interpolation":"STEP",
					"output":94
				},
				{
					"input":84,
					"interpolation":"STEP",
					"output":95
				},
				{
					"input":84,
					"interpolation":"STEP",
					"output":96
				},
				{
					"input":84,
					"interpolation":"STEP",
					"output":97
				},
				{
					"input":84,
					"interpolation":"STEP",
					"output":98
				},
				{
					"input":84,
					"interpolation":"STEP",
					"output":99
				},
				{
					"input":84,
					"interpolation":"STEP",
					"output":100
				},
				{
					"input":84,
					"interpolation":"STEP",
					"output":101
				},
				{
					"input":92,
					"interpolation":"LINEAR",
					"output":102
				},
				{
					"input":84,
					"interpolation":"STEP",
					"output":103
				},
				{
					"input":84,
					"interpolation":"STEP",
					"output":104
				},
				{
					"input":92,
					"interpolation":"LINEAR",
					"output":105
				},
				{
					"input":84,
					"interpolation":"STEP",
					"output":106
				},
				{
					"input":84,
					"interpolation":"STEP",
					"output":107
				},
				{
					"input":84,
					"interpolation":"STEP",
					"output":108
				},
				{
					"input":84,
					"interpolation":"STEP",
					"output":109
				},
				{
					"input":84,
					"interpolation":"STEP",
					"output":110
				},
				{
					"input":92,
					"interpolation":"LINEAR",
					"output":111
				},
				{
					"input":84,
					"interpolation":"STEP",
					"output":112
				},
				{
					"input":84,
					"interpolation":"STEP",
					"output":113
				},
				{
					"input":84,
					"interpolation":"STEP",
					"output":114
				},
				{
					"input":84,
					"interpolation":"STEP",
					"output":115
				},
				{
					"input":84,
					"interpolation":"STEP",
					"output":116
				},
				{
					"input":84,
					"interpolation":"STEP",
					"output":117
				},
				{
					"input":84,
					"interpolation":"STEP",
					"output":118
				},
				{
					"input":84,
					"interpolation":"STEP",
					"output":119
				},
				{
					"input":92,
					"interpolation":"LINEAR",
					"output":120
				},
				{
					"input":84,
					"interpolation":"STEP",
					"output":121
				},
				{
					"input":84,
					"interpolation":"LINEAR",
					"output":122
				},
				{
					"input":84,
					"interpolation":"LINEAR",
					"output":123
				},
				{
					"input":84,
					"interpolation":"STEP",
					"output":124
				},
				{
					"input":84,
					"interpolation":"LINEAR",
					"output":125
				},
				{
					"input":84,
					"interpolation":"LINEAR",
					"output":126
				},
				{
					"input":84,
					"interpolation":"STEP",
					"output":127
				},
				{
					"input":84,
					"interpolation":"STEP",
					"output":128
				},
				{
					"input":92,
					"interpolation":"LINEAR",
					"output":129
				},
				{
					"input":84,
					"interpolation":"STEP",
					"output":130
				},
				{
					"input":84,
					"interpolation":"LINEAR",
					"output":131
				},
				{
					"input":84,
					"interpolation":"LINEAR",
					"output":132
				},
				{
					"input":84,
					"interpolation":"STEP",
					"output":133
				},
				{
					"input":84,
					"interpolation":"LINEAR",
					"output":134
				},
				{
					"input":84,
					"interpolation":"LINEAR",
					"output":135
				},
				{
					"input":84,
					"interpolation":"STEP",
					"output":136
				}
			]
		},
		{
			"channels":[
				{
					"sampler":0,
					"target":{
						"node":16,
						"path":"translation"
					}
				},
				{
					"sampler":1,
					"target":{
						"node":16,
						"path":"rotation"
					}
				},
				{
					"sampler":2,
					"target":{
						"node":16,
						"path":"scale"
					}
				},
				{
					"sampler":3,
					"target":{
						"node":9,
						"path":"translation"
					}
				},
				{
					"sampler":4,
					"target":{
						"node":9,
						"path":"rotation"
					}
				},
				{
					"sampler":5,
					"target":{
						"node":9,
						"path":"scale"
					}
				},
				{
					"sampler":6,
					"target":{
						"node":8,
						"path":"translation"
					}
				},
				{
					"sampler":7,
					"target":{
						"node":8,
						"path":"rotation"
					}
				},
				{
					"sampler":8,
					"target":{
						"node":8,
						"path":"scale"
					}
				},
				{
					"sampler":9,
					"target":{
						"node":1,
						"path":"translation"
					}
				},
				{
					"sampler":10,
					"target":{
						"node":1,
						"path":"rotation"
					}
				},
				{
					"sampler":11,
					"target":{
						"node":1,
						"path":"scale"
					}
				},
				{
					"sampler":12,
					"target":{
						"node":0,
						"path":"translation"
					}
				},
				{
					"sampler":13,
					"target":{
						"node":0,
						"path":"rotation"
					}
				},
				{
					"sampler":14,
					"target":{
						"node":0,
						"path":"scale"
					}
				},
				{
					"sampler":15,
					"target":{
						"node":4,
						"path":"translation"
					}
				},
				{
					"sampler":16,
					"target":{
						"node":4,
						"path":"rotation"
					}
				},
				{
					"sampler":17,
					"target":{
						"node":4,
						"path":"scale"
					}
				},
				{
					"sampler":18,
					"target":{
						"node":3,
						"path":"translation"
					}
				},
				{
					"sampler":19,
					"target":{
						"node":3,
						"path":"rotation"
					}
				},
				{
					"sampler":20,
					"target":{
						"node":3,
						"path":"scale"
					}
				},
				{
					"sampler":21,
					"target":{
						"node":2,
						"path":"translation"
					}
				},
				{
					"sampler":22,
					"target":{
						"node":2,
						"path":"rotation"
					}
				},
				{
					"sampler":23,
					"target":{
						"node":2,
						"path":"scale"
					}
				},
				{
					"sampler":24,
					"target":{
						"node":7,
						"path":"translation"
					}
				},
				{
					"sampler":25,
					"target":{
						"node":7,
						"path":"rotation"
					}
				},
				{
					"sampler":26,
					"target":{
						"node":7,
						"path":"scale"
					}
				},
				{
					"sampler":27,
					"target":{
						"node":6,
						"path":"translation"
					}
				},
				{
					"sampler":28,
					"target":{
						"node":6,
						"path":"rotation"
					}
				},
				{
					"sampler":29,
					"target":{
						"node":6,
						"path":"scale"
					}
				},
				{
					"sampler":30,
					"target":{
						"node":5,
						"path":"translation"
					}
				},
				{
					"sampler":31,
					"target":{
						"node":5,
						"path":"rotation"
					}
				},
				{
					"sampler":32,
					"target":{
						"node":5,
						"path":"scale"
					}
				},
				{
					"sampler":33,
					"target":{
						"node":12,
						"path":"translation"
					}
				},
				{
					"sampler":34,
					"target":{
						"node":12,
						"path":"rotation"
					}
				},
				{
					"sampler":35,
					"target":{
						"node":12,
						"path":"scale"
					}
				},
				{
					"sampler":36,
					"target":{
						"node":11,
						"path":"translation"
					}
				},
				{
					"sampler":37,
					"target":{
						"node":11,
						"path":"rotation"
					}
				},
				{
					"sampler":38,
					"target":{
						"node":11,
						"path":"scale"
					}
				},
				{
					"sampler":39,
					"target":{
						"node":10,
						"path":"translation"
					}
				},
				{
					"sampler":40,
					"target":{
						"node":10,
						"path":"rotation"
					}
				},
				{
					"sampler":41,
					"target":{
						"node":10,
						"path":"scale"
					}
				},
				{
					"sampler":42,
					"target":{
						"node":15,
						"path":"translation"
					}
				},
				{
					"sampler":43,
					"target":{
						"node":15,
						"path":"rotation"
					}
				},
				{
					"sampler":44,
					"target":{
						"node":15,
						"path":"scale"
					}
				},
				{
					"sampler":45,
					"target":{
						"node":14,
						"path":"translation"
					}
				},
				{
					"sampler":46,
					"target":{
						"node":14,
						"path":"rotation"
					}
				},
				{
					"sampler":47,
					"target":{
						"node":14,
						"path":"scale"
					}
				},
				{
					"sampler":48,
					"target":{
						"node":13,
						"path":"translation"
					}
				},
				{
					"sampler":49,
					"target":{
						"node":13,
						"path":"rotation"
					}
				},
				{
					"sampler":50,
					"target":{
						"node":13,
						"path":"scale"
					}
				}
			],
			"name":"idle",
			"samplers":[
				{
					"input":137,
					"interpolation":"LINEAR",
					"output":138
				},
				{
					"input":139,
					"interpolation":"STEP",
					"output":140
				},
				{
					"input":139,
					"interpolation":"STEP",
					"output":141
				},
				{
					"input":139,
					"interpolation":"STEP",
					"output":142
				},
				{
					"input":139,
					"interpolation":"STEP",
					"output":143
				},
				{
					"input":139,
					"interpolation":"STEP",
					"output":144
				},
				{
					"input":139,
					"interpolation":"STEP",
					"output":145
				},
				{
					"input":137,
					"interpolation":"LINEAR",
					"output":146
				},
				{
					"input":139,
					"interpolation":"STEP",
					"output":147
				},
				{
					"input":139,
					"interpolation":"STEP",
					"output":148
				},
				{
					"input":139,
					"interpolation":"STEP",
					"output":149
				},
				{
					"input":139,
					"interpolation":"STEP",
					"output":150
				},
				{
					"input":139,
					"interpolation":"STEP",
					"output":151
				},
				{
					"input":137,
					"interpolation":"LINEAR",
					"output":152
				},
				{
					"input":139,
					"interpolation":"STEP",
					"output":153
				},
				{
					"input":139,
					"interpolation":"STEP",
					"output":154
				},
				{
					"input":137,
					"interpolation":"LINEAR",
					"output":155
				},
				{
					"input":139,
					"interpolation":"STEP",
					"output":156
				},
				{
					"input":139,
					"interpolation":"STEP",
					"output":157
				},
				{
					"input":139,
					"interpolation":"STEP",
					"output":158
				},
				{
					"input":139,
					"interpolation":"STEP",
					"output":159
				},
				{
					"input":139,
					"interpolation":"STEP",
					"output":160
				},
				{
					"input":139,
					"interpolation":"STEP",
					"output":161
				},
				{
					"input":139,
					"interpolation":"STEP",
					"output":162
				},
				{
					"input":139,
					"interpolation":"STEP",
					"output":163
				},
				{
					"input":137,
					"interpolation":"LINEAR",
					"output":164
				},
				{
					"input":139,
					"interpolation":"STEP",
					"output":165
				},
				{
					"input":139,
					"interpolation":"STEP",
					"output":166
				},
				{
					"input":139,
					"interpolation":"STEP",
					"output":167
				},
				{
					"input":139,
					"interpolation":"STEP",
					"output":168
				},
				{
					"input":139,
					"interpolation":"STEP",
					"output":169
				},
				{
					"input":139,
					"interpolation":"STEP",
					"output":170
				},
				{
					"input":139,
					"interpolation":"STEP",
					"output":171
				},
				{
					"input":139,
					"interpolation":"STEP",
					"output":172
				},
				{
					"input":139,
					"interpolation":"STEP",
					"output":173
				},
				{
					"input":139,
					"interpolation":"STEP",
					"output":174
				},
				{
					"input":139,
					"interpolation":"STEP",
					"output":175
				},
				{
					"input":139,
					"interpolation":"STEP",
					"output":176
				},
				{
					"input":139,
					"interpolation":"STEP",
					"output":177
				},
				{
					"input":139,
					"interpolation":"STEP",
					"output":178
				},
				{
					"input":139,
					"interpolation":"STEP",
					"output":179
				},
				{
					"input":139,
					"interpolation":"STEP",
					"output":180
				},
				{
					"input":139,
					"interpolation":"STEP",
					"output":181
				},
				{
					"input":139,
					"interpolation":"STEP",
					"output":182
				},
				{
					"input":139,
					"interpolation":"STEP",
					"output":183
				},
				{
					"input":139,
					"interpolation":"STEP",
					"output":184
				},
				{
					"input":139,
					"interpolation":"STEP",
					"output":185
				},
				{
					"input":139,
					"interpolation":"STEP",
					"output":186
				},
				{
					"input":139,
					"interpolation":"STEP",
					"output":187
				},
				{
					"input":139,
					"interpolation":"STEP",
					"output":188
				},
				{
					"input":139,
					"interpolation":"STEP",
					"output":189
				}
			]
		},
		{
			"channels":[
				{
					"sampler":0,
					"target":{
						"node":16,
						"path":"translation"
					}
				},
				{
					"sampler":1,
					"target":{
						"node":16,
						"path":"rotation"
					}
				},
				{
					"sampler":2,
					"target":{
						"node":16,
						"path":"scale"
					}
				},
				{
					"sampler":3,
					"target":{
						"node":9,
						"path":"translation"
					}
				},
				{
					"sampler":4,
					"target":{
						"node":9,
						"path":"rotation"
					}
				},
				{
					"sampler":5,
					"target":{
						"node":9,
						"path":"scale"
					}
				},
				{
					"sampler":6,
					"target":{
						"node":8,
						"path":"translation"
					}
				},
				{
					"sampler":7,
					"target":{
						"node":8,
						"path":"rotation"
					}
				},
				{
					"sampler":8,
					"target":{
						"node":8,
						"path":"scale"
					}
				},
				{
					"sampler":9,
					"target":{
						"node":1,
						"path":"translation"
					}
				},
				{
					"sampler":10,
					"target":{
						"node":1,
						"path":"rotation"
					}
				},
				{
					"sampler":11,
					"target":{
						"node":1,
						"path":"scale"
					}
				},
				{
					"sampler":12,
					"target":{
						"node":0,
						"path":"translation"
					}
				},
				{
					"sampler":13,
					"target":{
						"node":0,
						"path":"rotation"
					}
				},
				{
					"sampler":14,
					"target":{
						"node":0,
						"path":"scale"
					}
				},
				{
					"sampler":15,
					"target":{
						"node":4,
						"path":"translation"
					}
				},
				{
					"sampler":16,
					"target":{
						"node":4,
						"path":"rotation"
					}
				},
				{
					"sampler":17,
					"target":{
						"node":4,
						"path":"scale"
					}
				},
				{
					"sampler":18,
					"target":{
						"node":3,
						"path":"translation"
					}
				},
				{
					"sampler":19,
					"target":{
						"node":3,
						"path":"rotation"
					}
				},
				{
					"sampler":20,
					"target":{
						"node":3,
						"path":"scale"
					}
				},
				{
					"sampler":21,
					"target":{
						"node":2,
						"path":"translation"
					}
				},
				{
					"sampler":22,
					"target":{
						"node":2,
						"path":"rotation"
					}
				},
				{
					"sampler":23,
					"target":{
						"node":2,
						"path":"scale"
					}
				},
				{
					"sampler":24,
					"target":{
						"node":7,
						"path":"translation"
					}
				},
				{
					"sampler":25,
					"target":{
						"node":7,
						"path":"rotation"
					}
				},
				{
					"sampler":26,
					"target":{
						"node":7,
						"path":"scale"
					}
				},
				{
					"sampler":27,
					"target":{
						"node":6,
						"path":"translation"
					}
				},
				{
					"sampler":28,
					"target":{
						"node":6,
						"path":"rotation"
					}
				},
				{
					"sampler":29,
					"target":{
						"node":6,
						"path":"scale"
					}
				},
				{
					"sampler":30,
					"target":{
						"node":5,
						"path":"translation"
					}
				},
				{
					"sampler":31,
					"target":{
						"node":5,
						"path":"rotation"
					}
				},
				{
					"sampler":32,
					"target":{
						"node":5,
						"path":"scale"
					}
				},
				{
					"sampler":33,
					"target":{
						"node":12,
						"path":"translation"
					}
				},
				{
					"sampler":34,
					"target":{
						"node":12,
						"path":"rotation"
					}
				},
				{
					"sampler":35,
					"target":{
						"node":12,
						"path":"scale"
					}
				},
				{
					"sampler":36,
					"target":{
						"node":11,
						"path":"translation"
					}
				},
				{
					"sampler":37,
					"target":{
						"node":11,
						"path":"rotation"
					}
				},
				{
					"sampler":38,
					"target":{
						"node":11,
						"path":"scale"
					}
				},
				{
					"sampler":39,
					"target":{
						"node":10,
						"path":"translation"
					}
				},
				{
					"sampler":40,
					"target":{
						"node":10,
						"path":"rotation"
					}
				},
				{
					"sampler":41,
					"target":{
						"node":10,
						"path":"scale"
					}
				},
				{
					"sampler":42,
					"target":{
						"node":15,
						"path":"translation"
					}
				},
				{
					"sampler":43,
					"target":{
						"node":15,
						"path":"rotation"
					}
				},
				{
					"sampler":44,
					"target":{
						"node":15,
						"path":"scale"
					}
				},
				{
					"sampler":45,
					"target":{
						"node":14,
						"path":"translation"
					}
				},
				{
					"sampler":46,
					"target":{
						"node":14,
						"path":"rotation"
					}
				},
				{
					"sampler":47,
					"target":{
						"node":14,
						"path":"scale"
					}
				},
				{
					"sampler":48,
					"target":{
						"node":13,
						"path":"translation"
					}
				},
				{
					"sampler":49,
					"target":{
						"node":13,
						"path":"rotation"
					}
				},
				{
					"sampler":50,
					"target":{
						"node":13,
						"path":"scale"
					}
				}
			],
			"name":"walk",
			"samplers":[
				{
					"input":190,
					"interpolation":"LINEAR",
					"output":191
				},
				{
					"input":190,
					"interpolation":"LINEAR",
					"output":192
				},
				{
					"input":193,
					"interpolation":"STEP",
					"output":194
				},
				{
					"input":193,
					"interpolation":"STEP",
					"output":195
				},
				{
					"input":193,
					"interpolation":"STEP",
					"output":196
				},
				{
					"input":193,
					"interpolation":"STEP",
					"output":197
				},
				{
					"input":193,
					"interpolation":"STEP",
					"output":198
				},
				{
					"input":190,
					"interpolation":"LINEAR",
					"output":199
				},
				{
					"input":193,
					"interpolation":"STEP",
					"output":200
				},
				{
					"input":193,
					"interpolation":"STEP",
					"output":201
				},
				{
					"input":193,
					"interpolation":"STEP",
					"output":202
				},
				{
					"input":193,
					"interpolation":"STEP",
					"output":203
				},
				{
					"input":193,
					"interpolation":"STEP",
					"output":204
				},
				{
					"input":193,
					"interpolation":"STEP",
					"output":205
				},
				{
					"input":193,
					"interpolation":"STEP",
					"output":206
				},
				{
					"input":193,
					"interpolation":"STEP",
					"output":207
				},
				{
					"input":190,
					"interpolation":"LINEAR",
					"output":208
				},
				{
					"input":193,
					"interpolation":"STEP",
					"output":209
				},
				{
					"input":193,
					"interpolation":"STEP",
					"output":210
				},
				{
					"input":193,
					"interpolation":"STEP",
					"output":211
				},
				{
					"input":193,
					"interpolation":"STEP",
					"output":212
				},
				{
					"input":193,
					"interpolation":"STEP",
					"output":213
				},
				{
					"input":193,
					"interpolation":"STEP",
					"output":214
				},
				{
					"input":193,
					"interpolation":"STEP",
					"output":215
				},
				{
					"input":193,
					"interpolation":"STEP",
					"output":216
				},
				{
					"input":190,
					"interpolation":"LINEAR",
					"output":217
				},
				{
					"input":193,
					"interpolation":"STEP",
					"output":218
				},
				{
					"input":193,
					"interpolation":"STEP",
					"output":219
				},
				{
					"input":193,
					"interpolation":"STEP",
					"output":220
				},
				{
					"input":193,
					"interpolation":"STEP",
					"output":221
				},
				{
					"input":193,
					"interpolation":"STEP",
					"output":222
				},
				{
					"input":193,
					"interpolation":"STEP",
					"output":223
				},
				{
					"input":193,
					"interpolation":"STEP",
					"output":224
				},
				{
					"input":193,
					"interpolation":"STEP",
					"output":225
				},
				{
					"input":190,
					"interpolation":"LINEAR",
					"output":226
				},
				{
					"input":193,
					"interpolation":"STEP",
					"output":227
				},
				{
					"input":193,
					"interpolation":"STEP",
					"output":228
				},
				{
					"input":190,
					"interpolation":"LINEAR",
					"output":229
				},
				{
					"input":193,
					"interpolation":"STEP",
					"output":230
				},
				{
					"input":193,
					"interpolation":"STEP",
					"output":231
				},
				{
					"input":190,
					"interpolation":"LINEAR",
					"output":232
				},
				{
					"input":193,
					"interpolation":"STEP",
					"output":233
				},
				{
					"input":193,
					"interpolation":"STEP",
					"output":234
				},
				{
					"input":190,
					"interpolation":"LINEAR",
					"output":235
				},
				{
					"input":193,
					"interpolation":"STEP",
					"output":236
				},
				{
					"input":193,
					"interpolation":"STEP",
					"output":237
				},
				{
					"input":190,
					"interpolation":"LINEAR",
					"output":238
				},
				{
					"input":193,
					"interpolation":"STEP",
					"output":239
				},
				{
					"input":193,
					"interpolation":"STEP",
					"output":240
				},
				{
					"input":190,
					"interpolation":"LINEAR",
					"output":241
				},
				{
					"input":193,
					"interpolation":"STEP",
					"output":242
				}
			]
		}
	],
	"materials":[
		{
			"name":"skin",
			"normalTexture":{
				"index":0,
				"scale":0.4000000059604645
			},
			"pbrMetallicRoughness":{
				"baseColorFactor":[
					0.9551045894622803,
					0.7105664610862732,
					0.5382355451583862,
					1
				],
				"metallicFactor":0,
				"roughnessFactor":0.550000011920929
			}
		},
		{
			"extensions":{
				"KHR_materials_sheen":{
					"sheenColorFactor":[
						1.0,
						1.0,
						1.0
					],
					"sheenRoughnessFactor":0.5
				}
			},
			"name":"hair",
			"normalTexture":{
				"index":1,
				"scale":0.800000011920929
			},
			"pbrMetallicRoughness":{
				"baseColorFactor":[
					0.01960664801299572,
					0.0134117491543293,
					0.010022825561463833,
					1
				],
				"metallicFactor":0,
				"roughnessFactor":0.44999998807907104
			}
		},
		{
			"extensions":{
				"KHR_materials_sheen":{
					"sheenColorFactor":[
						1.0,
						1.0,
						1.0
					],
					"sheenRoughnessFactor":0.5
				}
			},
			"name":"outfit",
			"normalTexture":{
				"index":2,
				"scale":0.6000000238418579
			},
			"pbrMetallicRoughness":{
				"baseColorFactor":[
					0.05087608844041824,
					0.07323895394802094,
					0.03968190774321556,
					1
				],
				"metallicFactor":0,
				"roughnessFactor":0.75
			}
		},
		{
			"name":"outfit2",
			"normalTexture":{
				"index":3,
				"scale":0.4000000059604645
			},
			"pbrMetallicRoughness":{
				"baseColorFactor":[
					0.31854677200317383,
					0.2632734179496765,
					0.07323895394802094,
					1
				],
				"metallicFactor":0,
				"roughnessFactor":0.6000000238418579
			}
		},
		{
			"name":"pants",
			"normalTexture":{
				"index":4,
				"scale":0.6000000238418579
			},
			"pbrMetallicRoughness":{
				"baseColorFactor":[
					0.025842878967523575,
					0.036306485533714294,
					0.02053738757967949,
					1
				],
				"metallicFactor":0,
				"roughnessFactor":0.800000011920929
			}
		},
		{
			"extensions":{
				"KHR_materials_clearcoat":{
					"clearcoatFactor":0.30000001192092896
				}
			},
			"name":"boots",
			"normalTexture":{
				"index":5,
				"scale":0.800000011920929
			},
			"pbrMetallicRoughness":{
				"baseColorFactor":[
					0.0134117491543293,
					0.010022825561463833,
					0.010022825561463833,
					1
				],
				"metallicFactor":0,
				"roughnessFactor":0.44999998807907104
			}
		},
		{
			"name":"eye_white",
			"pbrMetallicRoughness":{
				"baseColorFactor":[
					0.8900054097175598,
					0.8900054097175598,
					0.8900054097175598,
					1
				],
				"metallicFactor":0,
				"roughnessFactor":0.20000000298023224
			}
		},
		{
			"emissiveFactor":[
				0.011763989275256348,
				0.011763989275256348,
				0.019862860485428957
			],
			"name":"iris",
			"pbrMetallicRoughness":{
				"baseColorFactor":[
					0.01960664801299572,
					0.01960664801299572,
					0.03310476616024971,
					1
				],
				"metallicFactor":0,
				"roughnessFactor":0.15000000596046448
			}
		},
		{
			"name":"pupil",
			"pbrMetallicRoughness":{
				"baseColorFactor":[
					0.0015479875728487968,
					0.0015479875728487968,
					0.0023219813592731953,
					1
				],
				"metallicFactor":0,
				"roughnessFactor":0.10000000149011612
			}
		},
		{
			"name":"lips",
			"pbrMetallicRoughness":{
				"baseColorFactor":[
					0.4283095896244049,
					0.32088616490364075,
					0.2448643445968628,
					1
				],
				"metallicFactor":0,
				"roughnessFactor":0.4000000059604645
			}
		},
		{
			"name":"metal",
			"normalTexture":{
				"index":6,
				"scale":0.5
			},
			"pbrMetallicRoughness":{
				"baseColorFactor":[
					0.07323895394802094,
					0.10048151016235352,
					0.06372379511594772,
					1
				],
				"metallicFactor":0.6000000238418579,
				"roughnessFactor":0.30000001192092896
			}
		},
		{
			"name":"buckle",
			"pbrMetallicRoughness":{
				"baseColorFactor":[
					0.6920710802078247,
					0.4479884207248688,
					0.07323895394802094,
					1
				],
				"metallicFactor":0.8999999761581421,
				"roughnessFactor":0.30000001192092896
			}
		},
		{
			"name":"blade",
			"normalTexture":{
				"index":7,
				"scale":0.30000001192092896
			},
			"pbrMetallicRoughness":{
				"baseColorFactor":[
					0.7484140992164612,
					0.7874122858047485,
					0.8900054097175598,
					1
				],
				"metallicFactor":0.550000011920929,
				"roughnessFactor":0.2199999988079071
			}
		},
		{
			"name":"gun",
			"pbrMetallicRoughness":{
				"baseColorFactor":[
					0.01960664801299572,
					0.01960664801299572,
					0.01960664801299572,
					1
				],
				"metallicFactor":0.699999988079071,
				"roughnessFactor":0.4000000059604645
			}
		}
	],
	"meshes":[
		{
			"name":"imperial",
			"primitives":[
				{
					"attributes":{
						"POSITION":0,
						"NORMAL":1,
						"TEXCOORD_0":2,
						"JOINTS_0":3,
						"WEIGHTS_0":4
					},
					"indices":5,
					"material":0
				},
				{
					"attributes":{
						"POSITION":6,
						"NORMAL":7,
						"TEXCOORD_0":8,
						"JOINTS_0":9,
						"WEIGHTS_0":10
					},
					"indices":11,
					"material":1
				},
				{
					"attributes":{
						"POSITION":12,
						"NORMAL":13,
						"TEXCOORD_0":14,
						"JOINTS_0":15,
						"WEIGHTS_0":16
					},
					"indices":17,
					"material":2
				},
				{
					"attributes":{
						"POSITION":18,
						"NORMAL":19,
						"TEXCOORD_0":20,
						"JOINTS_0":21,
						"WEIGHTS_0":22
					},
					"indices":23,
					"material":3
				},
				{
					"attributes":{
						"POSITION":24,
						"NORMAL":25,
						"TEXCOORD_0":26,
						"JOINTS_0":27,
						"WEIGHTS_0":28
					},
					"indices":29,
					"material":4
				},
				{
					"attributes":{
						"POSITION":30,
						"NORMAL":31,
						"TEXCOORD_0":32,
						"JOINTS_0":33,
						"WEIGHTS_0":34
					},
					"indices":35,
					"material":5
				},
				{
					"attributes":{
						"POSITION":36,
						"NORMAL":37,
						"TEXCOORD_0":38,
						"JOINTS_0":39,
						"WEIGHTS_0":40
					},
					"indices":41,
					"material":6
				},
				{
					"attributes":{
						"POSITION":42,
						"NORMAL":43,
						"TEXCOORD_0":44,
						"JOINTS_0":45,
						"WEIGHTS_0":46
					},
					"indices":47,
					"material":7
				},
				{
					"attributes":{
						"POSITION":48,
						"NORMAL":49,
						"TEXCOORD_0":50,
						"JOINTS_0":51,
						"WEIGHTS_0":52
					},
					"indices":53,
					"material":8
				},
				{
					"attributes":{
						"POSITION":54,
						"NORMAL":55,
						"TEXCOORD_0":56,
						"JOINTS_0":57,
						"WEIGHTS_0":58
					},
					"indices":59,
					"material":9
				},
				{
					"attributes":{
						"POSITION":60,
						"NORMAL":61,
						"TEXCOORD_0":62,
						"JOINTS_0":63,
						"WEIGHTS_0":64
					},
					"indices":65,
					"material":10
				},
				{
					"attributes":{
						"POSITION":66,
						"NORMAL":67,
						"TEXCOORD_0":68,
						"JOINTS_0":69,
						"WEIGHTS_0":70
					},
					"indices":71,
					"material":11
				},
				{
					"attributes":{
						"POSITION":72,
						"NORMAL":73,
						"TEXCOORD_0":74,
						"JOINTS_0":75,
						"WEIGHTS_0":76
					},
					"indices":77,
					"material":12
				},
				{
					"attributes":{
						"POSITION":78,
						"NORMAL":79,
						"TEXCOORD_0":80,
						"JOINTS_0":81,
						"WEIGHTS_0":82
					},
					"indices":71,
					"material":13
				}
			]
		}
	],
	"textures":[
		{
			"sampler":0,
			"source":0
		},
		{
			"sampler":0,
			"source":1
		},
		{
			"sampler":0,
			"source":2
		},
		{
			"sampler":0,
			"source":2
		},
		{
			"sampler":0,
			"source":2
		},
		{
			"sampler":0,
			"source":3
		},
		{
			"sampler":0,
			"source":4
		},
		{
			"sampler":0,
			"source":4
		}
	],
	"images":[
		{
			"mimeType":"image/png",
			"name":"N_skin",
			"uri":"texturas/N_skin.png"
		},
		{
			"mimeType":"image/png",
			"name":"N_hair",
			"uri":"texturas/N_hair.png"
		},
		{
			"mimeType":"image/png",
			"name":"N_cloth",
			"uri":"texturas/N_cloth.png"
		},
		{
			"mimeType":"image/png",
			"name":"N_leather",
			"uri":"texturas/N_leather.png"
		},
		{
			"mimeType":"image/png",
			"name":"N_metal",
			"uri":"texturas/N_metal.png"
		}
	],
	"skins":[
		{
			"inverseBindMatrices":83,
			"joints":[
				16,
				9,
				8,
				1,
				0,
				4,
				3,
				2,
				7,
				6,
				5,
				12,
				11,
				10,
				15,
				14,
				13
			],
			"name":"imperial_rig"
		}
	],
	"accessors":[
		{
			"bufferView":0,
			"componentType":5126,
			"count":979,
			"max":[
				0.09799999743700027,
				1.7839999198913574,
				0.10721255838871002
			],
			"min":[
				-0.09799999743700027,
				1.46723473072052,
				-0.11607673019170761
			],
			"type":"VEC3"
		},
		{
			"bufferView":1,
			"componentType":5126,
			"count":979,
			"type":"VEC3"
		},
		{
			"bufferView":2,
			"componentType":5126,
			"count":979,
			"type":"VEC2"
		},
		{
			"bufferView":3,
			"componentType":5121,
			"count":979,
			"type":"VEC4"
		},
		{
			"bufferView":4,
			"componentType":5126,
			"count":979,
			"type":"VEC4"
		},
		{
			"bufferView":5,
			"componentType":5123,
			"count":3948,
			"type":"SCALAR"
		},
		{
			"bufferView":6,
			"componentType":5126,
			"count":48,
			"max":[
				0.04899999871850014,
				1.7000000476837158,
				-0.08399999886751175
			],
			"min":[
				-0.04899999871850014,
				1.694000005722046,
				-0.09000000357627869
			],
			"type":"VEC3"
		},
		{
			"bufferView":7,
			"componentType":5126,
			"count":48,
			"type":"VEC3"
		},
		{
			"bufferView":8,
			"componentType":5126,
			"count":48,
			"type":"VEC2"
		},
		{
			"bufferView":9,
			"componentType":5121,
			"count":48,
			"type":"VEC4"
		},
		{
			"bufferView":10,
			"componentType":5126,
			"count":48,
			"type":"VEC4"
		},
		{
			"bufferView":11,
			"componentType":5123,
			"count":72,
			"type":"SCALAR"
		},
		{
			"bufferView":12,
			"componentType":5126,
			"count":1461,
			"max":[
				0.3246443271636963,
				1.474212646484375,
				0.11217201501131058
			],
			"min":[
				-0.3246443271636963,
				0.9297775626182556,
				-0.11171648651361465
			],
			"type":"VEC3"
		},
		{
			"bufferView":13,
			"componentType":5126,
			"count":1461,
			"type":"VEC3"
		},
		{
			"bufferView":14,
			"componentType":5126,
			"count":1461,
			"type":"VEC2"
		},
		{
			"bufferView":15,
			"componentType":5121,
			"count":1461,
			"type":"VEC4"
		},
		{
			"bufferView":16,
			"componentType":5126,
			"count":1461,
			"type":"VEC4"
		},
		{
			"bufferView":17,
			"componentType":5123,
			"count":6648,
			"type":"SCALAR"
		},
		{
			"bufferView":18,
			"componentType":5126,
			"count":65,
			"max":[
				0.142655149102211,
				1.0319132804870605,
				0.11384035646915436
			],
			"min":[
				-0.142655149102211,
				0.8763115406036377,
				-0.11518235504627228
			],
			"type":"VEC3"
		},
		{
			"bufferView":19,
			"componentType":5126,
			"count":65,
			"type":"VEC3"
		},
		{
			"bufferView":20,
			"componentType":5126,
			"count":65,
			"type":"VEC2"
		},
		{
			"bufferView":21,
			"componentType":5121,
			"count":65,
			"type":"VEC4"
		},
		{
			"bufferView":22,
			"componentType":5126,
			"count":65,
			"type":"VEC4"
		},
		{
			"bufferView":23,
			"componentType":5123,
			"count":192,
			"type":"SCALAR"
		},
		{
			"bufferView":24,
			"componentType":5126,
			"count":977,
			"max":[
				0.3219468891620636,
				0.937298059463501,
				0.1108374372124672
			],
			"min":[
				-0.3219468593597412,
				0.3000607192516327,
				-0.11261609941720963
			],
			"type":"VEC3"
		},
		{
			"bufferView":25,
			"componentType":5126,
			"count":977,
			"type":"VEC3"
		},
		{
			"bufferView":26,
			"componentType":5126,
			"count":977,
			"type":"VEC2"
		},
		{
			"bufferView":27,
			"componentType":5121,
			"count":977,
			"type":"VEC4"
		},
		{
			"bufferView":28,
			"componentType":5126,
			"count":977,
			"type":"VEC4"
		},
		{
			"bufferView":29,
			"componentType":5123,
			"count":4332,
			"type":"SCALAR"
		},
		{
			"bufferView":30,
			"componentType":5126,
			"count":1492,
			"max":[
				0.3208130896091461,
				0.9076455235481262,
				0.07947749644517899
			],
			"min":[
				-0.3208130896091461,
				0.007597841322422028,
				-0.14012077450752258
			],
			"type":"VEC3"
		},
		{
			"bufferView":31,
			"componentType":5126,
			"count":1492,
			"type":"VEC3"
		},
		{
			"bufferView":32,
			"componentType":5126,
			"count":1492,
			"type":"VEC2"
		},
		{
			"bufferView":33,
			"componentType":5121,
			"count":1492,
			"type":"VEC4"
		},
		{
			"bufferView":34,
			"componentType":5126,
			"count":1492,
			"type":"VEC4"
		},
		{
			"bufferView":35,
			"componentType":5123,
			"count":6528,
			"type":"SCALAR"
		},
		{
			"bufferView":36,
			"componentType":5126,
			"count":304,
			"max":[
				0.050999999046325684,
				1.6864999532699585,
				-0.07000000029802322
			],
			"min":[
				-0.050999999046325684,
				1.6634999513626099,
				-0.08799999952316284
			],
			"type":"VEC3"
		},
		{
			"bufferView":37,
			"componentType":5126,
			"count":304,
			"type":"VEC3"
		},
		{
			"bufferView":38,
			"componentType":5126,
			"count":304,
			"type":"VEC2"
		},
		{
			"bufferView":39,
			"componentType":5121,
			"count":304,
			"type":"VEC4"
		},
		{
			"bufferView":40,
			"componentType":5126,
			"count":304,
			"type":"VEC4"
		},
		{
			"bufferView":41,
			"componentType":5123,
			"count":1152,
			"type":"SCALAR"
		},
		{
			"bufferView":42,
			"componentType":5126,
			"count":220,
			"max":[
				0.04349999874830246,
				1.6848000288009644,
				-0.08122024685144424
			],
			"min":[
				-0.04349999874830246,
				1.6651999950408936,
				-0.08977975696325302
			],
			"type":"VEC3"
		},
		{
			"bufferView":43,
			"componentType":5126,
			"count":220,
			"type":"VEC3"
		},
		{
			"bufferView":44,
			"componentType":5126,
			"count":220,
			"type":"VEC2"
		},
		{
			"bufferView":45,
			"componentType":5121,
			"count":220,
			"type":"VEC4"
		},
		{
			"bufferView":46,
			"componentType":5126,
			"count":220,
			"type":"VEC4"
		},
		{
			"bufferView":47,
			"componentType":5123,
			"count":720,
			"type":"SCALAR"
		},
		{
			"bufferView":48,
			"componentType":5126,
			"count":160,
			"max":[
				0.03799443691968918,
				1.6794999837875366,
				-0.08689788728952408
			],
			"min":[
				-0.03799443691968918,
				1.6705000400543213,
				-0.0907021164894104
			],
			"type":"VEC3"
		},
		{
			"bufferView":49,
			"componentType":5126,
			"count":160,
			"type":"VEC3"
		},
		{
			"bufferView":50,
			"componentType":5126,
			"count":160,
			"type":"VEC2"
		},
		{
			"bufferView":51,
			"componentType":5121,
			"count":160,
			"type":"VEC4"
		},
		{
			"bufferView":52,
			"componentType":5126,
			"count":160,
			"type":"VEC4"
		},
		{
			"bufferView":53,
			"componentType":5123,
			"count":480,
			"type":"SCALAR"
		},
		{
			"bufferView":54,
			"componentType":5126,
			"count":98,
			"max":[
				0.01899999938905239,
				1.6074999570846558,
				-0.07772024720907211
			],
			"min":[
				-0.01899999938905239,
				1.5985000133514404,
				-0.08627975732088089
			],
			"type":"VEC3"
		},
		{
			"bufferView":55,
			"componentType":5126,
			"count":98,
			"type":"VEC3"
		},
		{
			"bufferView":56,
			"componentType":5126,
			"count":98,
			"type":"VEC2"
		},
		{
			"bufferView":57,
			"componentType":5121,
			"count":98,
			"type":"VEC4"
		},
		{
			"bufferView":58,
			"componentType":5126,
			"count":98,
			"type":"VEC4"
		},
		{
			"bufferView":59,
			"componentType":5123,
			"count":360,
			"type":"SCALAR"
		},
		{
			"bufferView":60,
			"componentType":5126,
			"count":969,
			"max":[
				0.29600000381469727,
				1.8279999494552612,
				0.12000000476837158
			],
			"min":[
				-0.29600000381469727,
				1.1100000143051147,
				-0.12848077714443207
			],
			"type":"VEC3"
		},
		{
			"bufferView":61,
			"componentType":5126,
			"count":969,
			"type":"VEC3"
		},
		{
			"bufferView":62,
			"componentType":5126,
			"count":969,
			"type":"VEC2"
		},
		{
			"bufferView":63,
			"componentType":5121,
			"count":969,
			"type":"VEC4"
		},
		{
			"bufferView":64,
			"componentType":5126,
			"count":969,
			"type":"VEC4"
		},
		{
			"bufferView":65,
			"componentType":5123,
			"count":3852,
			"type":"SCALAR"
		},
		{
			"bufferView":66,
			"componentType":5126,
			"count":24,
			"max":[
				0.02500000037252903,
				0.9700000286102295,
				-0.09399999678134918
			],
			"min":[
				-0.02500000037252903,
				0.9300000071525574,
				-0.10599999874830246
			],
			"type":"VEC3"
		},
		{
			"bufferView":67,
			"componentType":5126,
			"count":24,
			"type":"VEC3"
		},
		{
			"bufferView":68,
			"componentType":5126,
			"count":24,
			"type":"VEC2"
		},
		{
			"bufferView":69,
			"componentType":5121,
			"count":24,
			"type":"VEC4"
		},
		{
			"bufferView":70,
			"componentType":5126,
			"count":24,
			"type":"VEC4"
		},
		{
			"bufferView":71,
			"componentType":5123,
			"count":36,
			"type":"SCALAR"
		},
		{
			"bufferView":72,
			"componentType":5126,
			"count":42,
			"max":[
				0.31279999017715454,
				0.6878336071968079,
				-0.29365208745002747
			],
			"min":[
				0.2888000011444092,
				0.5346307754516602,
				-0.59531569480896
			],
			"type":"VEC3"
		},
		{
			"bufferView":73,
			"componentType":5126,
			"count":42,
			"type":"VEC3"
		},
		{
			"bufferView":74,
			"componentType":5126,
			"count":42,
			"type":"VEC2"
		},
		{
			"bufferView":75,
			"componentType":5121,
			"count":42,
			"type":"VEC4"
		},
		{
			"bufferView":76,
			"componentType":5126,
			"count":42,
			"type":"VEC4"
		},
		{
			"bufferView":77,
			"componentType":5123,
			"count":96,
			"type":"SCALAR"
		},
		{
			"bufferView":78,
			"componentType":5126,
			"count":24,
			"max":[
				0.3208000063896179,
				0.7939634919166565,
				0.08380785584449768
			],
			"min":[
				0.2807999849319458,
				0.7239634394645691,
				-0.3161921501159668
			],
			"type":"VEC3"
		},
		{
			"bufferView":79,
			"componentType":5126,
			"count":24,
			"type":"VEC3"
		},
		{
			"bufferView":80,
			"componentType":5126,
			"count":24,
			"type":"VEC2"
		},
		{
			"bufferView":81,
			"componentType":5121,
			"count":24,
			"type":"VEC4"
		},
		{
			"bufferView":82,
			"componentType":5126,
			"count":24,
			"type":"VEC4"
		},
		{
			"bufferView":83,
			"componentType":5126,
			"count":17,
			"type":"MAT4"
		},
		{
			"bufferView":84,
			"componentType":5126,
			"count":2,
			"max":[
				0.6
			],
			"min":[
				0
			],
			"type":"SCALAR"
		},
		{
			"bufferView":85,
			"componentType":5126,
			"count":2,
			"type":"VEC3"
		},
		{
			"bufferView":86,
			"componentType":5126,
			"count":2,
			"type":"VEC4"
		},
		{
			"bufferView":87,
			"componentType":5126,
			"count":2,
			"type":"VEC3"
		},
		{
			"bufferView":88,
			"componentType":5126,
			"count":2,
			"type":"VEC3"
		},
		{
			"bufferView":89,
			"componentType":5126,
			"count":2,
			"type":"VEC4"
		},
		{
			"bufferView":90,
			"componentType":5126,
			"count":2,
			"type":"VEC3"
		},
		{
			"bufferView":91,
			"componentType":5126,
			"count":2,
			"type":"VEC3"
		},
		{
			"bufferView":92,
			"componentType":5126,
			"count":19,
			"max":[
				0.6
			],
			"min":[
				0
			],
			"type":"SCALAR"
		},
		{
			"bufferView":93,
			"componentType":5126,
			"count":19,
			"type":"VEC4"
		},
		{
			"bufferView":94,
			"componentType":5126,
			"count":2,
			"type":"VEC3"
		},
		{
			"bufferView":95,
			"componentType":5126,
			"count":2,
			"type":"VEC3"
		},
		{
			"bufferView":96,
			"componentType":5126,
			"count":2,
			"type":"VEC4"
		},
		{
			"bufferView":97,
			"componentType":5126,
			"count":2,
			"type":"VEC3"
		},
		{
			"bufferView":98,
			"componentType":5126,
			"count":2,
			"type":"VEC3"
		},
		{
			"bufferView":99,
			"componentType":5126,
			"count":2,
			"type":"VEC4"
		},
		{
			"bufferView":100,
			"componentType":5126,
			"count":2,
			"type":"VEC3"
		},
		{
			"bufferView":101,
			"componentType":5126,
			"count":2,
			"type":"VEC3"
		},
		{
			"bufferView":102,
			"componentType":5126,
			"count":19,
			"type":"VEC4"
		},
		{
			"bufferView":103,
			"componentType":5126,
			"count":2,
			"type":"VEC3"
		},
		{
			"bufferView":104,
			"componentType":5126,
			"count":2,
			"type":"VEC3"
		},
		{
			"bufferView":105,
			"componentType":5126,
			"count":19,
			"type":"VEC4"
		},
		{
			"bufferView":106,
			"componentType":5126,
			"count":2,
			"type":"VEC3"
		},
		{
			"bufferView":107,
			"componentType":5126,
			"count":2,
			"type":"VEC3"
		},
		{
			"bufferView":108,
			"componentType":5126,
			"count":2,
			"type":"VEC4"
		},
		{
			"bufferView":109,
			"componentType":5126,
			"count":2,
			"type":"VEC3"
		},
		{
			"bufferView":110,
			"componentType":5126,
			"count":2,
			"type":"VEC3"
		},
		{
			"bufferView":111,
			"componentType":5126,
			"count":19,
			"type":"VEC4"
		},
		{
			"bufferView":112,
			"componentType":5126,
			"count":2,
			"type":"VEC3"
		},
		{
			"bufferView":113,
			"componentType":5126,
			"count":2,
			"type":"VEC3"
		},
		{
			"bufferView":114,
			"componentType":5126,
			"count":2,
			"type":"VEC4"
		},
		{
			"bufferView":115,
			"componentType":5126,
			"count":2,
			"type":"VEC3"
		},
		{
			"bufferView":116,
			"componentType":5126,
			"count":2,
			"type":"VEC3"
		},
		{
			"bufferView":117,
			"componentType":5126,
			"count":2,
			"type":"VEC4"
		},
		{
			"bufferView":118,
			"componentType":5126,
			"count":2,
			"type":"VEC3"
		},
		{
			"bufferView":119,
			"componentType":5126,
			"count":2,
			"type":"VEC3"
		},
		{
			"bufferView":120,
			"componentType":5126,
			"count":19,
			"type":"VEC4"
		},
		{
			"bufferView":121,
			"componentType":5126,
			"count":2,
			"type":"VEC3"
		},
		{
			"bufferView":122,
			"componentType":5126,
			"count":2,
			"type":"VEC3"
		},
		{
			"bufferView":123,
			"componentType":5126,
			"count":2,
			"type":"VEC4"
		},
		{
			"bufferView":124,
			"componentType":5126,
			"count":2,
			"type":"VEC3"
		},
		{
			"bufferView":125,
			"componentType":5126,
			"count":2,
			"type":"VEC3"
		},
		{
			"bufferView":126,
			"componentType":5126,
			"count":2,
			"type":"VEC4"
		},
		{
			"bufferView":127,
			"componentType":5126,
			"count":2,
			"type":"VEC3"
		},
		{
			"bufferView":128,
			"componentType":5126,
			"count":2,
			"type":"VEC3"
		},
		{
			"bufferView":129,
			"componentType":5126,
			"count":19,
			"type":"VEC4"
		},
		{
			"bufferView":130,
			"componentType":5126,
			"count":2,
			"type":"VEC3"
		},
		{
			"bufferView":131,
			"componentType":5126,
			"count":2,
			"type":"VEC3"
		},
		{
			"bufferView":132,
			"componentType":5126,
			"count":2,
			"type":"VEC4"
		},
		{
			"bufferView":133,
			"componentType":5126,
			"count":2,
			"type":"VEC3"
		},
		{
			"bufferView":134,
			"componentType":5126,
			"count":2,
			"type":"VEC3"
		},
		{
			"bufferView":135,
			"componentType":5126,
			"count":2,
			"type":"VEC4"
		},
		{
			"bufferView":136,
			"componentType":5126,
			"count":2,
			"type":"VEC3"
		},
		{
			"bufferView":137,
			"componentType":5126,
			"count":61,
			"max":[
				2
			],
			"min":[
				0
			],
			"type":"SCALAR"
		},
		{
			"bufferView":138,
			"componentType":5126,
			"count":61,
			"type":"VEC3"
		},
		{
			"bufferView":139,
			"componentType":5126,
			"count":2,
			"max":[
				2
			],
			"min":[
				0
			],
			"type":"SCALAR"
		},
		{
			"bufferView":140,
			"componentType":5126,
			"count":2,
			"type":"VEC4"
		},
		{
			"bufferView":141,
			"componentType":5126,
			"count":2,
			"type":"VEC3"
		},
		{
			"bufferView":142,
			"componentType":5126,
			"count":2,
			"type":"VEC3"
		},
		{
			"bufferView":143,
			"componentType":5126,
			"count":2,
			"type":"VEC4"
		},
		{
			"bufferView":144,
			"componentType":5126,
			"count":2,
			"type":"VEC3"
		},
		{
			"bufferView":145,
			"componentType":5126,
			"count":2,
			"type":"VEC3"
		},
		{
			"bufferView":146,
			"componentType":5126,
			"count":61,
			"type":"VEC4"
		},
		{
			"bufferView":147,
			"componentType":5126,
			"count":2,
			"type":"VEC3"
		},
		{
			"bufferView":148,
			"componentType":5126,
			"count":2,
			"type":"VEC3"
		},
		{
			"bufferView":149,
			"componentType":5126,
			"count":2,
			"type":"VEC4"
		},
		{
			"bufferView":150,
			"componentType":5126,
			"count":2,
			"type":"VEC3"
		},
		{
			"bufferView":151,
			"componentType":5126,
			"count":2,
			"type":"VEC3"
		},
		{
			"bufferView":152,
			"componentType":5126,
			"count":61,
			"type":"VEC4"
		},
		{
			"bufferView":153,
			"componentType":5126,
			"count":2,
			"type":"VEC3"
		},
		{
			"bufferView":154,
			"componentType":5126,
			"count":2,
			"type":"VEC3"
		},
		{
			"bufferView":155,
			"componentType":5126,
			"count":61,
			"type":"VEC4"
		},
		{
			"bufferView":156,
			"componentType":5126,
			"count":2,
			"type":"VEC3"
		},
		{
			"bufferView":157,
			"componentType":5126,
			"count":2,
			"type":"VEC3"
		},
		{
			"bufferView":158,
			"componentType":5126,
			"count":2,
			"type":"VEC4"
		},
		{
			"bufferView":159,
			"componentType":5126,
			"count":2,
			"type":"VEC3"
		},
		{
			"bufferView":160,
			"componentType":5126,
			"count":2,
			"type":"VEC3"
		},
		{
			"bufferView":161,
			"componentType":5126,
			"count":2,
			"type":"VEC4"
		},
		{
			"bufferView":162,
			"componentType":5126,
			"count":2,
			"type":"VEC3"
		},
		{
			"bufferView":163,
			"componentType":5126,
			"count":2,
			"type":"VEC3"
		},
		{
			"bufferView":164,
			"componentType":5126,
			"count":61,
			"type":"VEC4"
		},
		{
			"bufferView":165,
			"componentType":5126,
			"count":2,
			"type":"VEC3"
		},
		{
			"bufferView":166,
			"componentType":5126,
			"count":2,
			"type":"VEC3"
		},
		{
			"bufferView":167,
			"componentType":5126,
			"count":2,
			"type":"VEC4"
		},
		{
			"bufferView":168,
			"componentType":5126,
			"count":2,
			"type":"VEC3"
		},
		{
			"bufferView":169,
			"componentType":5126,
			"count":2,
			"type":"VEC3"
		},
		{
			"bufferView":170,
			"componentType":5126,
			"count":2,
			"type":"VEC4"
		},
		{
			"bufferView":171,
			"componentType":5126,
			"count":2,
			"type":"VEC3"
		},
		{
			"bufferView":172,
			"componentType":5126,
			"count":2,
			"type":"VEC3"
		},
		{
			"bufferView":173,
			"componentType":5126,
			"count":2,
			"type":"VEC4"
		},
		{
			"bufferView":174,
			"componentType":5126,
			"count":2,
			"type":"VEC3"
		},
		{
			"bufferView":175,
			"componentType":5126,
			"count":2,
			"type":"VEC3"
		},
		{
			"bufferView":176,
			"componentType":5126,
			"count":2,
			"type":"VEC4"
		},
		{
			"bufferView":177,
			"componentType":5126,
			"count":2,
			"type":"VEC3"
		},
		{
			"bufferView":178,
			"componentType":5126,
			"count":2,
			"type":"VEC3"
		},
		{
			"bufferView":179,
			"componentType":5126,
			"count":2,
			"type":"VEC4"
		},
		{
			"bufferView":180,
			"componentType":5126,
			"count":2,
			"type":"VEC3"
		},
		{
			"bufferView":181,
			"componentType":5126,
			"count":2,
			"type":"VEC3"
		},
		{
			"bufferView":182,
			"componentType":5126,
			"count":2,
			"type":"VEC4"
		},
		{
			"bufferView":183,
			"componentType":5126,
			"count":2,
			"type":"VEC3"
		},
		{
			"bufferView":184,
			"componentType":5126,
			"count":2,
			"type":"VEC3"
		},
		{
			"bufferView":185,
			"componentType":5126,
			"count":2,
			"type":"VEC4"
		},
		{
			"bufferView":186,
			"componentType":5126,
			"count":2,
			"type":"VEC3"
		},
		{
			"bufferView":187,
			"componentType":5126,
			"count":2,
			"type":"VEC3"
		},
		{
			"bufferView":188,
			"componentType":5126,
			"count":2,
			"type":"VEC4"
		},
		{
			"bufferView":189,
			"componentType":5126,
			"count":2,
			"type":"VEC3"
		},
		{
			"bufferView":190,
			"componentType":5126,
			"count":31,
			"max":[
				1
			],
			"min":[
				0
			],
			"type":"SCALAR"
		},
		{
			"bufferView":191,
			"componentType":5126,
			"count":31,
			"type":"VEC3"
		},
		{
			"bufferView":192,
			"componentType":5126,
			"count":31,
			"type":"VEC4"
		},
		{
			"bufferView":193,
			"componentType":5126,
			"count":2,
			"max":[
				1
			],
			"min":[
				0
			],
			"type":"SCALAR"
		},
		{
			"bufferView":194,
			"componentType":5126,
			"count":2,
			"type":"VEC3"
		},
		{
			"bufferView":195,
			"componentType":5126,
			"count":2,
			"type":"VEC3"
		},
		{
			"bufferView":196,
			"componentType":5126,
			"count":2,
			"type":"VEC4"
		},
		{
			"bufferView":197,
			"componentType":5126,
			"count":2,
			"type":"VEC3"
		},
		{
			"bufferView":198,
			"componentType":5126,
			"count":2,
			"type":"VEC3"
		},
		{
			"bufferView":199,
			"componentType":5126,
			"count":31,
			"type":"VEC4"
		},
		{
			"bufferView":200,
			"componentType":5126,
			"count":2,
			"type":"VEC3"
		},
		{
			"bufferView":201,
			"componentType":5126,
			"count":2,
			"type":"VEC3"
		},
		{
			"bufferView":202,
			"componentType":5126,
			"count":2,
			"type":"VEC4"
		},
		{
			"bufferView":203,
			"componentType":5126,
			"count":2,
			"type":"VEC3"
		},
		{
			"bufferView":204,
			"componentType":5126,
			"count":2,
			"type":"VEC3"
		},
		{
			"bufferView":205,
			"componentType":5126,
			"count":2,
			"type":"VEC4"
		},
		{
			"bufferView":206,
			"componentType":5126,
			"count":2,
			"type":"VEC3"
		},
		{
			"bufferView":207,
			"componentType":5126,
			"count":2,
			"type":"VEC3"
		},
		{
			"bufferView":208,
			"componentType":5126,
			"count":31,
			"type":"VEC4"
		},
		{
			"bufferView":209,
			"componentType":5126,
			"count":2,
			"type":"VEC3"
		},
		{
			"bufferView":210,
			"componentType":5126,
			"count":2,
			"type":"VEC3"
		},
		{
			"bufferView":211,
			"componentType":5126,
			"count":2,
			"type":"VEC4"
		},
		{
			"bufferView":212,
			"componentType":5126,
			"count":2,
			"type":"VEC3"
		},
		{
			"bufferView":213,
			"componentType":5126,
			"count":2,
			"type":"VEC3"
		},
		{
			"bufferView":214,
			"componentType":5126,
			"count":2,
			"type":"VEC4"
		},
		{
			"bufferView":215,
			"componentType":5126,
			"count":2,
			"type":"VEC3"
		},
		{
			"bufferView":216,
			"componentType":5126,
			"count":2,
			"type":"VEC3"
		},
		{
			"bufferView":217,
			"componentType":5126,
			"count":31,
			"type":"VEC4"
		},
		{
			"bufferView":218,
			"componentType":5126,
			"count":2,
			"type":"VEC3"
		},
		{
			"bufferView":219,
			"componentType":5126,
			"count":2,
			"type":"VEC3"
		},
		{
			"bufferView":220,
			"componentType":5126,
			"count":2,
			"type":"VEC4"
		},
		{
			"bufferView":221,
			"componentType":5126,
			"count":2,
			"type":"VEC3"
		},
		{
			"bufferView":222,
			"componentType":5126,
			"count":2,
			"type":"VEC3"
		},
		{
			"bufferView":223,
			"componentType":5126,
			"count":2,
			"type":"VEC4"
		},
		{
			"bufferView":224,
			"componentType":5126,
			"count":2,
			"type":"VEC3"
		},
		{
			"bufferView":225,
			"componentType":5126,
			"count":2,
			"type":"VEC3"
		},
		{
			"bufferView":226,
			"componentType":5126,
			"count":31,
			"type":"VEC4"
		},
		{
			"bufferView":227,
			"componentType":5126,
			"count":2,
			"type":"VEC3"
		},
		{
			"bufferView":228,
			"componentType":5126,
			"count":2,
			"type":"VEC3"
		},
		{
			"bufferView":229,
			"componentType":5126,
			"count":31,
			"type":"VEC4"
		},
		{
			"bufferView":230,
			"componentType":5126,
			"count":2,
			"type":"VEC3"
		},
		{
			"bufferView":231,
			"componentType":5126,
			"count":2,
			"type":"VEC3"
		},
		{
			"bufferView":232,
			"componentType":5126,
			"count":31,
			"type":"VEC4"
		},
		{
			"bufferView":233,
			"componentType":5126,
			"count":2,
			"type":"VEC3"
		},
		{
			"bufferView":234,
			"componentType":5126,
			"count":2,
			"type":"VEC3"
		},
		{
			"bufferView":235,
			"componentType":5126,
			"count":31,
			"type":"VEC4"
		},
		{
			"bufferView":236,
			"componentType":5126,
			"count":2,
			"type":"VEC3"
		},
		{
			"bufferView":237,
			"componentType":5126,
			"count":2,
			"type":"VEC3"
		},
		{
			"bufferView":238,
			"componentType":5126,
			"count":31,
			"type":"VEC4"
		},
		{
			"bufferView":239,
			"componentType":5126,
			"count":2,
			"type":"VEC3"
		},
		{
			"bufferView":240,
			"componentType":5126,
			"count":2,
			"type":"VEC3"
		},
		{
			"bufferView":241,
			"componentType":5126,
			"count":31,
			"type":"VEC4"
		},
		{
			"bufferView":242,
			"componentType":5126,
			"count":2,
			"type":"VEC3"
		}
	],
	"bufferViews":[
		{
			"buffer":0,
			"byteLength":11748,
			"byteOffset":0,
			"target":34962
		},
		{
			"buffer":0,
			"byteLength":11748,
			"byteOffset":11748,
			"target":34962
		},
		{
			"buffer":0,
			"byteLength":7832,
			"byteOffset":23496,
			"target":34962
		},
		{
			"buffer":0,
			"byteLength":3916,
			"byteOffset":31328,
			"target":34962
		},
		{
			"buffer":0,
			"byteLength":15664,
			"byteOffset":35244,
			"target":34962
		},
		{
			"buffer":0,
			"byteLength":7896,
			"byteOffset":50908,
			"target":34963
		},
		{
			"buffer":0,
			"byteLength":576,
			"byteOffset":58804,
			"target":34962
		},
		{
			"buffer":0,
			"byteLength":576,
			"byteOffset":59380,
			"target":34962
		},
		{
			"buffer":0,
			"byteLength":384,
			"byteOffset":59956,
			"target":34962
		},
		{
			"buffer":0,
			"byteLength":192,
			"byteOffset":60340,
			"target":34962
		},
		{
			"buffer":0,
			"byteLength":768,
			"byteOffset":60532,
			"target":34962
		},
		{
			"buffer":0,
			"byteLength":144,
			"byteOffset":61300,
			"target":34963
		},
		{
			"buffer":0,
			"byteLength":17532,
			"byteOffset":61444,
			"target":34962
		},
		{
			"buffer":0,
			"byteLength":17532,
			"byteOffset":78976,
			"target":34962
		},
		{
			"buffer":0,
			"byteLength":11688,
			"byteOffset":96508,
			"target":34962
		},
		{
			"buffer":0,
			"byteLength":5844,
			"byteOffset":108196,
			"target":34962
		},
		{
			"buffer":0,
			"byteLength":23376,
			"byteOffset":114040,
			"target":34962
		},
		{
			"buffer":0,
			"byteLength":13296,
			"byteOffset":137416,
			"target":34963
		},
		{
			"buffer":0,
			"byteLength":780,
			"byteOffset":150712,
			"target":34962
		},
		{
			"buffer":0,
			"byteLength":780,
			"byteOffset":151492,
			"target":34962
		},
		{
			"buffer":0,
			"byteLength":520,
			"byteOffset":152272,
			"target":34962
		},
		{
			"buffer":0,
			"byteLength":260,
			"byteOffset":152792,
			"target":34962
		},
		{
			"buffer":0,
			"byteLength":1040,
			"byteOffset":153052,
			"target":34962
		},
		{
			"buffer":0,
			"byteLength":384,
			"byteOffset":154092,
			"target":34963
		},
		{
			"buffer":0,
			"byteLength":11724,
			"byteOffset":154476,
			"target":34962
		},
		{
			"buffer":0,
			"byteLength":11724,
			"byteOffset":166200,
			"target":34962
		},
		{
			"buffer":0,
			"byteLength":7816,
			"byteOffset":177924,
			"target":34962
		},
		{
			"buffer":0,
			"byteLength":3908,
			"byteOffset":185740,
			"target":34962
		},
		{
			"buffer":0,
			"byteLength":15632,
			"byteOffset":189648,
			"target":34962
		},
		{
			"buffer":0,
			"byteLength":8664,
			"byteOffset":205280,
			"target":34963
		},
		{
			"buffer":0,
			"byteLength":17904,
			"byteOffset":213944,
			"target":34962
		},
		{
			"buffer":0,
			"byteLength":17904,
			"byteOffset":231848,
			"target":34962
		},
		{
			"buffer":0,
			"byteLength":11936,
			"byteOffset":249752,
			"target":34962
		},
		{
			"buffer":0,
			"byteLength":5968,
			"byteOffset":261688,
			"target":34962
		},
		{
			"buffer":0,
			"byteLength":23872,
			"byteOffset":267656,
			"target":34962
		},
		{
			"buffer":0,
			"byteLength":13056,
			"byteOffset":291528,
			"target":34963
		},
		{
			"buffer":0,
			"byteLength":3648,
			"byteOffset":304584,
			"target":34962
		},
		{
			"buffer":0,
			"byteLength":3648,
			"byteOffset":308232,
			"target":34962
		},
		{
			"buffer":0,
			"byteLength":2432,
			"byteOffset":311880,
			"target":34962
		},
		{
			"buffer":0,
			"byteLength":1216,
			"byteOffset":314312,
			"target":34962
		},
		{
			"buffer":0,
			"byteLength":4864,
			"byteOffset":315528,
			"target":34962
		},
		{
			"buffer":0,
			"byteLength":2304,
			"byteOffset":320392,
			"target":34963
		},
		{
			"buffer":0,
			"byteLength":2640,
			"byteOffset":322696,
			"target":34962
		},
		{
			"buffer":0,
			"byteLength":2640,
			"byteOffset":325336,
			"target":34962
		},
		{
			"buffer":0,
			"byteLength":1760,
			"byteOffset":327976,
			"target":34962
		},
		{
			"buffer":0,
			"byteLength":880,
			"byteOffset":329736,
			"target":34962
		},
		{
			"buffer":0,
			"byteLength":3520,
			"byteOffset":330616,
			"target":34962
		},
		{
			"buffer":0,
			"byteLength":1440,
			"byteOffset":334136,
			"target":34963
		},
		{
			"buffer":0,
			"byteLength":1920,
			"byteOffset":335576,
			"target":34962
		},
		{
			"buffer":0,
			"byteLength":1920,
			"byteOffset":337496,
			"target":34962
		},
		{
			"buffer":0,
			"byteLength":1280,
			"byteOffset":339416,
			"target":34962
		},
		{
			"buffer":0,
			"byteLength":640,
			"byteOffset":340696,
			"target":34962
		},
		{
			"buffer":0,
			"byteLength":2560,
			"byteOffset":341336,
			"target":34962
		},
		{
			"buffer":0,
			"byteLength":960,
			"byteOffset":343896,
			"target":34963
		},
		{
			"buffer":0,
			"byteLength":1176,
			"byteOffset":344856,
			"target":34962
		},
		{
			"buffer":0,
			"byteLength":1176,
			"byteOffset":346032,
			"target":34962
		},
		{
			"buffer":0,
			"byteLength":784,
			"byteOffset":347208,
			"target":34962
		},
		{
			"buffer":0,
			"byteLength":392,
			"byteOffset":347992,
			"target":34962
		},
		{
			"buffer":0,
			"byteLength":1568,
			"byteOffset":348384,
			"target":34962
		},
		{
			"buffer":0,
			"byteLength":720,
			"byteOffset":349952,
			"target":34963
		},
		{
			"buffer":0,
			"byteLength":11628,
			"byteOffset":350672,
			"target":34962
		},
		{
			"buffer":0,
			"byteLength":11628,
			"byteOffset":362300,
			"target":34962
		},
		{
			"buffer":0,
			"byteLength":7752,
			"byteOffset":373928,
			"target":34962
		},
		{
			"buffer":0,
			"byteLength":3876,
			"byteOffset":381680,
			"target":34962
		},
		{
			"buffer":0,
			"byteLength":15504,
			"byteOffset":385556,
			"target":34962
		},
		{
			"buffer":0,
			"byteLength":7704,
			"byteOffset":401060,
			"target":34963
		},
		{
			"buffer":0,
			"byteLength":288,
			"byteOffset":408764,
			"target":34962
		},
		{
			"buffer":0,
			"byteLength":288,
			"byteOffset":409052,
			"target":34962
		},
		{
			"buffer":0,
			"byteLength":192,
			"byteOffset":409340,
			"target":34962
		},
		{
			"buffer":0,
			"byteLength":96,
			"byteOffset":409532,
			"target":34962
		},
		{
			"buffer":0,
			"byteLength":384,
			"byteOffset":409628,
			"target":34962
		},
		{
			"buffer":0,
			"byteLength":72,
			"byteOffset":410012,
			"target":34963
		},
		{
			"buffer":0,
			"byteLength":504,
			"byteOffset":410084,
			"target":34962
		},
		{
			"buffer":0,
			"byteLength":504,
			"byteOffset":410588,
			"target":34962
		},
		{
			"buffer":0,
			"byteLength":336,
			"byteOffset":411092,
			"target":34962
		},
		{
			"buffer":0,
			"byteLength":168,
			"byteOffset":411428,
			"target":34962
		},
		{
			"buffer":0,
			"byteLength":672,
			"byteOffset":411596,
			"target":34962
		},
		{
			"buffer":0,
			"byteLength":192,
			"byteOffset":412268,
			"target":34963
		},
		{
			"buffer":0,
			"byteLength":288,
			"byteOffset":412460,
			"target":34962
		},
		{
			"buffer":0,
			"byteLength":288,
			"byteOffset":412748,
			"target":34962
		},
		{
			"buffer":0,
			"byteLength":192,
			"byteOffset":413036,
			"target":34962
		},
		{
			"buffer":0,
			"byteLength":96,
			"byteOffset":413228,
			"target":34962
		},
		{
			"buffer":0,
			"byteLength":384,
			"byteOffset":413324,
			"target":34962
		},
		{
			"buffer":0,
			"byteLength":1088,
			"byteOffset":413708
		},
		{
			"buffer":0,
			"byteLength":8,
			"byteOffset":414796
		},
		{
			"buffer":0,
			"byteLength":24,
			"byteOffset":414804
		},
		{
			"buffer":0,
			"byteLength":32,
			"byteOffset":414828
		},
		{
			"buffer":0,
			"byteLength":24,
			"byteOffset":414860
		},
		{
			"buffer":0,
			"byteLength":24,
			"byteOffset":414884
		},
		{
			"buffer":0,
			"byteLength":32,
			"byteOffset":414908
		},
		{
			"buffer":0,
			"byteLength":24,
			"byteOffset":414940
		},
		{
			"buffer":0,
			"byteLength":24,
			"byteOffset":414964
		},
		{
			"buffer":0,
			"byteLength":76,
			"byteOffset":414988
		},
		{
			"buffer":0,
			"byteLength":304,
			"byteOffset":415064
		},
		{
			"buffer":0,
			"byteLength":24,
			"byteOffset":415368
		},
		{
			"buffer":0,
			"byteLength":24,
			"byteOffset":415392
		},
		{
			"buffer":0,
			"byteLength":32,
			"byteOffset":415416
		},
		{
			"buffer":0,
			"byteLength":24,
			"byteOffset":415448
		},
		{
			"buffer":0,
			"byteLength":24,
			"byteOffset":415472
		},
		{
			"buffer":0,
			"byteLength":32,
			"byteOffset":415496
		},
		{
			"buffer":0,
			"byteLength":24,
			"byteOffset":415528
		},
		{
			"buffer":0,
			"byteLength":24,
			"byteOffset":415552
		},
		{
			"buffer":0,
			"byteLength":304,
			"byteOffset":415576
		},
		{
			"buffer":0,
			"byteLength":24,
			"byteOffset":415880
		},
		{
			"buffer":0,
			"byteLength":24,
			"byteOffset":415904
		},
		{
			"buffer":0,
			"byteLength":304,
			"byteOffset":415928
		},
		{
			"buffer":0,
			"byteLength":24,
			"byteOffset":416232
		},
		{
			"buffer":0,
			"byteLength":24,
			"byteOffset":416256
		},
		{
			"buffer":0,
			"byteLength":32,
			"byteOffset":416280
		},
		{
			"buffer":0,
			"byteLength":24,
			"byteOffset":416312
		},
		{
			"buffer":0,
			"byteLength":24,
			"byteOffset":416336
		},
		{
			"buffer":0,
			"byteLength":304,
			"byteOffset":416360
		},
		{
			"buffer":0,
			"byteLength":24,
			"byteOffset":416664
		},
		{
			"buffer":0,
			"byteLength":24,
			"byteOffset":416688
		},
		{
			"buffer":0,
			"byteLength":32,
			"byteOffset":416712
		},
		{
			"buffer":0,
			"byteLength":24,
			"byteOffset":416744
		},
		{
			"buffer":0,
			"byteLength":24,
			"byteOffset":416768
		},
		{
			"buffer":0,
			"byteLength":32,
			"byteOffset":416792
		},
		{
			"buffer":0,
			"byteLength":24,
			"byteOffset":416824
		},
		{
			"buffer":0,
			"byteLength":24,
			"byteOffset":416848
		},
		{
			"buffer":0,
			"byteLength":304,
			"byteOffset":416872
		},
		{
			"buffer":0,
			"byteLength":24,
			"byteOffset":417176
		},
		{
			"buffer":0,
			"byteLength":24,
			"byteOffset":417200
		},
		{
			"buffer":0,
			"byteLength":32,
			"byteOffset":417224
		},
		{
			"buffer":0,
			"byteLength":24,
			"byteOffset":417256
		},
		{
			"buffer":0,
			"byteLength":24,
			"byteOffset":417280
		},
		{
			"buffer":0,
			"byteLength":32,
			"byteOffset":417304
		},
		{
			"buffer":0,
			"byteLength":24,
			"byteOffset":417336
		},
		{
			"buffer":0,
			"byteLength":24,
			"byteOffset":417360
		},
		{
			"buffer":0,
			"byteLength":304,
			"byteOffset":417384
		},
		{
			"buffer":0,
			"byteLength":24,
			"byteOffset":417688
		},
		{
			"buffer":0,
			"byteLength":24,
			"byteOffset":417712
		},
		{
			"buffer":0,
			"byteLength":32,
			"byteOffset":417736
		},
		{
			"buffer":0,
			"byteLength":24,
			"byteOffset":417768
		},
		{
			"buffer":0,
			"byteLength":24,
			"byteOffset":417792
		},
		{
			"buffer":0,
			"byteLength":32,
			"byteOffset":417816
		},
		{
			"buffer":0,
			"byteLength":24,
			"byteOffset":417848
		},
		{
			"buffer":0,
			"byteLength":244,
			"byteOffset":417872
		},
		{
			"buffer":0,
			"byteLength":732,
			"byteOffset":418116
		},
		{
			"buffer":0,
			"byteLength":8,
			"byteOffset":418848
		},
		{
			"buffer":0,
			"byteLength":32,
			"byteOffset":418856
		},
		{
			"buffer":0,
			"byteLength":24,
			"byteOffset":418888
		},
		{
			"buffer":0,
			"byteLength":24,
			"byteOffset":418912
		},
		{
			"buffer":0,
			"byteLength":32,
			"byteOffset":418936
		},
		{
			"buffer":0,
			"byteLength":24,
			"byteOffset":418968
		},
		{
			"buffer":0,
			"byteLength":24,
			"byteOffset":418992
		},
		{
			"buffer":0,
			"byteLength":976,
			"byteOffset":419016
		},
		{
			"buffer":0,
			"byteLength":24,
			"byteOffset":419992
		},
		{
			"buffer":0,
			"byteLength":24,
			"byteOffset":420016
		},
		{
			"buffer":0,
			"byteLength":32,
			"byteOffset":420040
		},
		{
			"buffer":0,
			"byteLength":24,
			"byteOffset":420072
		},
		{
			"buffer":0,
			"byteLength":24,
			"byteOffset":420096
		},
		{
			"buffer":0,
			"byteLength":976,
			"byteOffset":420120
		},
		{
			"buffer":0,
			"byteLength":24,
			"byteOffset":421096
		},
		{
			"buffer":0,
			"byteLength":24,
			"byteOffset":421120
		},
		{
			"buffer":0,
			"byteLength":976,
			"byteOffset":421144
		},
		{
			"buffer":0,
			"byteLength":24,
			"byteOffset":422120
		},
		{
			"buffer":0,
			"byteLength":24,
			"byteOffset":422144
		},
		{
			"buffer":0,
			"byteLength":32,
			"byteOffset":422168
		},
		{
			"buffer":0,
			"byteLength":24,
			"byteOffset":422200
		},
		{
			"buffer":0,
			"byteLength":24,
			"byteOffset":422224
		},
		{
			"buffer":0,
			"byteLength":32,
			"byteOffset":422248
		},
		{
			"buffer":0,
			"byteLength":24,
			"byteOffset":422280
		},
		{
			"buffer":0,
			"byteLength":24,
			"byteOffset":422304
		},
		{
			"buffer":0,
			"byteLength":976,
			"byteOffset":422328
		},
		{
			"buffer":0,
			"byteLength":24,
			"byteOffset":423304
		},
		{
			"buffer":0,
			"byteLength":24,
			"byteOffset":423328
		},
		{
			"buffer":0,
			"byteLength":32,
			"byteOffset":423352
		},
		{
			"buffer":0,
			"byteLength":24,
			"byteOffset":423384
		},
		{
			"buffer":0,
			"byteLength":24,
			"byteOffset":423408
		},
		{
			"buffer":0,
			"byteLength":32,
			"byteOffset":423432
		},
		{
			"buffer":0,
			"byteLength":24,
			"byteOffset":423464
		},
		{
			"buffer":0,
			"byteLength":24,
			"byteOffset":423488
		},
		{
			"buffer":0,
			"byteLength":32,
			"byteOffset":423512
		},
		{
			"buffer":0,
			"byteLength":24,
			"byteOffset":423544
		},
		{
			"buffer":0,
			"byteLength":24,
			"byteOffset":423568
		},
		{
			"buffer":0,
			"byteLength":32,
			"byteOffset":423592
		},
		{
			"buffer":0,
			"byteLength":24,
			"byteOffset":423624
		},
		{
			"buffer":0,
			"byteLength":24,
			"byteOffset":423648
		},
		{
			"buffer":0,
			"byteLength":32,
			"byteOffset":423672
		},
		{
			"buffer":0,
			"byteLength":24,
			"byteOffset":423704
		},
		{
			"buffer":0,
			"byteLength":24,
			"byteOffset":423728
		},
		{
			"buffer":0,
			"byteLength":32,
			"byteOffset":423752
		},
		{
			"buffer":0,
			"byteLength":24,
			"byteOffset":423784
		},
		{
			"buffer":0,
			"byteLength":24,
			"byteOffset":423808
		},
		{
			"buffer":0,
			"byteLength":32,
			"byteOffset":423832
		},
		{
			"buffer":0,
			"byteLength":24,
			"byteOffset":423864
		},
		{
			"buffer":0,
			"byteLength":24,
			"byteOffset":423888
		},
		{
			"buffer":0,
			"byteLength":32,
			"byteOffset":423912
		},
		{
			"buffer":0,
			"byteLength":24,
			"byteOffset":423944
		},
		{
			"buffer":0,
			"byteLength":124,
			"byteOffset":423968
		},
		{
			"buffer":0,
			"byteLength":372,
			"byteOffset":424092
		},
		{
			"buffer":0,
			"byteLength":496,
			"byteOffset":424464
		},
		{
			"buffer":0,
			"byteLength":8,
			"byteOffset":424960
		},
		{
			"buffer":0,
			"byteLength":24,
			"byteOffset":424968
		},
		{
			"buffer":0,
			"byteLength":24,
			"byteOffset":424992
		},
		{
			"buffer":0,
			"byteLength":32,
			"byteOffset":425016
		},
		{
			"buffer":0,
			"byteLength":24,
			"byteOffset":425048
		},
		{
			"buffer":0,
			"byteLength":24,
			"byteOffset":425072
		},
		{
			"buffer":0,
			"byteLength":496,
			"byteOffset":425096
		},
		{
			"buffer":0,
			"byteLength":24,
			"byteOffset":425592
		},
		{
			"buffer":0,
			"byteLength":24,
			"byteOffset":425616
		},
		{
			"buffer":0,
			"byteLength":32,
			"byteOffset":425640
		},
		{
			"buffer":0,
			"byteLength":24,
			"byteOffset":425672
		},
		{
			"buffer":0,
			"byteLength":24,
			"byteOffset":425696
		},
		{
			"buffer":0,
			"byteLength":32,
			"byteOffset":425720
		},
		{
			"buffer":0,
			"byteLength":24,
			"byteOffset":425752
		},
		{
			"buffer":0,
			"byteLength":24,
			"byteOffset":425776
		},
		{
			"buffer":0,
			"byteLength":496,
			"byteOffset":425800
		},
		{
			"buffer":0,
			"byteLength":24,
			"byteOffset":426296
		},
		{
			"buffer":0,
			"byteLength":24,
			"byteOffset":426320
		},
		{
			"buffer":0,
			"byteLength":32,
			"byteOffset":426344
		},
		{
			"buffer":0,
			"byteLength":24,
			"byteOffset":426376
		},
		{
			"buffer":0,
			"byteLength":24,
			"byteOffset":426400
		},
		{
			"buffer":0,
			"byteLength":32,
			"byteOffset":426424
		},
		{
			"buffer":0,
			"byteLength":24,
			"byteOffset":426456
		},
		{
			"buffer":0,
			"byteLength":24,
			"byteOffset":426480
		},
		{
			"buffer":0,
			"byteLength":496,
			"byteOffset":426504
		},
		{
			"buffer":0,
			"byteLength":24,
			"byteOffset":427000
		},
		{
			"buffer":0,
			"byteLength":24,
			"byteOffset":427024
		},
		{
			"buffer":0,
			"byteLength":32,
			"byteOffset":427048
		},
		{
			"buffer":0,
			"byteLength":24,
			"byteOffset":427080
		},
		{
			"buffer":0,
			"byteLength":24,
			"byteOffset":427104
		},
		{
			"buffer":0,
			"byteLength":32,
			"byteOffset":427128
		},
		{
			"buffer":0,
			"byteLength":24,
			"byteOffset":427160
		},
		{
			"buffer":0,
			"byteLength":24,
			"byteOffset":427184
		},
		{
			"buffer":0,
			"byteLength":496,
			"byteOffset":427208
		},
		{
			"buffer":0,
			"byteLength":24,
			"byteOffset":427704
		},
		{
			"buffer":0,
			"byteLength":24,
			"byteOffset":427728
		},
		{
			"buffer":0,
			"byteLength":496,
			"byteOffset":427752
		},
		{
			"buffer":0,
			"byteLength":24,
			"byteOffset":428248
		},
		{
			"buffer":0,
			"byteLength":24,
			"byteOffset":428272
		},
		{
			"buffer":0,
			"byteLength":496,
			"byteOffset":428296
		},
		{
			"buffer":0,
			"byteLength":24,
			"byteOffset":428792
		},
		{
			"buffer":0,
			"byteLength":24,
			"byteOffset":428816
		},
		{
			"buffer":0,
			"byteLength":496,
			"byteOffset":428840
		},
		{
			"buffer":0,
			"byteLength":24,
			"byteOffset":429336
		},
		{
			"buffer":0,
			"byteLength":24,
			"byteOffset":429360
		},
		{
			"buffer":0,
			"byteLength":496,
			"byteOffset":429384
		},
		{
			"buffer":0,
			"byteLength":24,
			"byteOffset":429880
		},
		{
			"buffer":0,
			"byteLength":24,
			"byteOffset":429904
		},
		{
			"buffer":0,
			"byteLength":496,
			"byteOffset":429928
		},
		{
			"buffer":0,
			"byteLength":24,
			"byteOffset":430424
		}
	],
	"samplers":[
		{
			"magFilter":9729,
			"minFilter":9987
		}
	],
	"buffers":[
		{
			"byteLength":430448,
			"uri":"imperial.bin"
		}
	]
}
