{
	"asset":{
		"generator":"Khronos glTF Blender I/O v4.2.57",
		"version":"2.0"
	},
	"extensionsUsed":[
		"KHR_materials_clearcoat",
		"KHR_materials_sheen"
	],
	"scene":0,
	"scenes":[
		{
			"name":"Scene",
			"nodes":[
				18
			]
		}
	],
	"nodes":[
		{
			"name":"head",
			"translation":[
				0,
				0.09999990463256836,
				0
			]
		},
		{
			"children":[
				0
			],
			"name":"neck",
			"translation":[
				0,
				0.21000003814697266,
				0
			]
		},
		{
			"name":"hand.R",
			"rotation":[
				-0.0033997311256825924,
				-0.02465548925101757,
				0.026485910639166832,
				0.9993392825126648
			],
			"translation":[
				4.353933036327362e-08,
				0.25213438272476196,
				-1.0244548320770264e-08
			]
		},
		{
			"children":[
				2
			],
			"name":"forearm.R",
			"rotation":[
				0.04533145949244499,
				-0.06533230096101761,
				0.07581672072410583,
				0.9939460158348083
			],
			"scale":[
				1,
				1.000000238418579,
				1.0000001192092896
			],
			"translation":[
				7.031485438346863e-08,
				0.2779783606529236,
				8.381903171539307e-09
			]
		},
		{
			"children":[
				3
			],
			"name":"upper_arm.R",
			"rotation":[
				0.9855519533157349,
				0.11973652243614197,
				0.11973665654659271,
				0.0037036926951259375
			],
			"scale":[
				0.9999991059303284,
				0.9999998211860657,
				0.9999999403953552
			],
			"translation":[
				0.25920000672340393,
				0.15999996662139893,
				0
			]
		},
		{
			"name":"hand.L",
			"rotation":[
				-0.0033997311256825924,
				0.02465548925101757,
				-0.026485910639166832,
				0.9993392825126648
			],
			"translation":[
				-4.353933036327362e-08,
				0.25213438272476196,
				-1.0244548320770264e-08
			]
		},
		{
			"children":[
				5
			],
			"name":"forearm.L",
			"rotation":[
				0.04533145949244499,
				0.06533230096101761,
				-0.07581672072410583,
				0.9939460158348083
			],
			"scale":[
				1,
				1.000000238418579,
				1.0000001192092896
			],
			"translation":[
				-7.031485438346863e-08,
				0.2779783606529236,
				8.381903171539307e-09
			]
		},
		{
			"children":[
				6
			],
			"name":"upper_arm.L",
			"rotation":[
				0.9855519533157349,
				-0.11973652243614197,
				-0.11973665654659271,
				0.0037036926951259375
			],
			"scale":[
				0.9999991059303284,
				0.9999998211860657,
				0.9999999403953552
			],
			"translation":[
				-0.25920000672340393,
				0.15999996662139893,
				0
			]
		},
		{
			"children":[
				1,
				4,
				7
			],
			"name":"chest",
			"translation":[
				0,
				0.16999995708465576,
				0
			]
		},
		{
			"children":[
				8
			],
			"name":"spine",
			"translation":[
				0,
				0.15000003576278687,
				0
			]
		},
		{
			"name":"foot.R",
			"rotation":[
				0.5914182066917419,
				-2.7412700998041828e-09,
				-5.881172771005083e-10,
				0.8063650131225586
			],
			"translation":[
				-3.1923391707877613e-10,
				0.4105897843837738,
				-7.280220870597987e-10
			]
		},
		{
			"children":[
				10
			],
			"name":"shin.R",
			"rotation":[
				-0.04154899716377258,
				-0.011836580000817776,
				0.0112184789031744,
				0.9990033507347107
			],
			"scale":[
				0.9999999403953552,
				0.9999998807907104,
				1
			],
			"translation":[
				-1.5133991837501526e-08,
				0.41028785705566406,
				2.3283064365386963e-10
			]
		},
		{
			"children":[
				11
			],
			"name":"thigh.R",
			"rotation":[
				-0.9997580647468567,
				-0.011531674303114414,
				-0.011531763710081577,
				0.014760423451662064
			],
			"scale":[
				1.000000238418579,
				1.0000001192092896,
				1.000000238418579
			],
			"translation":[
				0.1103999987244606,
				-0.019999980926513672,
				0
			]
		},
		{
			"name":"foot.L",
			"rotation":[
				0.5914182066917419,
				2.7412700998041828e-09,
				5.881172771005083e-10,
				0.8063650131225586
			],
			"translation":[
				3.1923391707877613e-10,
				0.4105897843837738,
				-7.280220870597987e-10
			]
		},
		{
			"children":[
				13
			],
			"name":"shin.L",
			"rotation":[
				-0.04154899716377258,
				0.011836580000817776,
				-0.0112184789031744,
				0.9990033507347107
			],
			"scale":[
				0.9999999403953552,
				0.9999998807907104,
				1
			],
			"translation":[
				1.5133991837501526e-08,
				0.41028785705566406,
				2.3283064365386963e-10
			]
		},
		{
			"children":[
				14
			],
			"name":"thigh.L",
			"rotation":[
				-0.9997580647468567,
				0.011531674303114414,
				0.011531763710081577,
				0.014760423451662064
			],
			"scale":[
				1.000000238418579,
				1.0000001192092896,
				1.000000238418579
			],
			"translation":[
				-0.1103999987244606,
				-0.019999980926513672,
				0
			]
		},
		{
			"children":[
				9,
				12,
				15
			],
			"name":"hips",
			"translation":[
				0,
				0.9300000071525574,
				0
			]
		},
		{
			"mesh":0,
			"name":"kabal",
			"skin":0
		},
		{
			"children":[
				17,
				16
			],
			"name":"kabal_rig"
		}
	],
	"animations":[
		{
			"channels":[
				{
					"sampler":0,
					"target":{
						"node":16,
						"path":"translation"
					}
				},
				{
					"sampler":1,
					"target":{
						"node":16,
						"path":"rotation"
					}
				},
				{
					"sampler":2,
					"target":{
						"node":16,
						"path":"scale"
					}
				},
				{
					"sampler":3,
					"target":{
						"node":9,
						"path":"translation"
					}
				},
				{
					"sampler":4,
					"target":{
						"node":9,
						"path":"rotation"
					}
				},
				{
					"sampler":5,
					"target":{
						"node":9,
						"path":"scale"
					}
				},
				{
					"sampler":6,
					"target":{
						"node":8,
						"path":"translation"
					}
				},
				{
					"sampler":7,
					"target":{
						"node":8,
						"path":"rotation"
					}
				},
				{
					"sampler":8,
					"target":{
						"node":8,
						"path":"scale"
					}
				},
				{
					"sampler":9,
					"target":{
						"node":1,
						"path":"translation"
					}
				},
				{
					"sampler":10,
					"target":{
						"node":1,
						"path":"rotation"
					}
				},
				{
					"sampler":11,
					"target":{
						"node":1,
						"path":"scale"
					}
				},
				{
					"sampler":12,
					"target":{
						"node":0,
						"path":"translation"
					}
				},
				{
					"sampler":13,
					"target":{
						"node":0,
						"path":"rotation"
					}
				},
				{
					"sampler":14,
					"target":{
						"node":0,
						"path":"scale"
					}
				},
				{
					"sampler":15,
					"target":{
						"node":4,
						"path":"translation"
					}
				},
				{
					"sampler":16,
					"target":{
						"node":4,
						"path":"rotation"
					}
				},
				{
					"sampler":17,
					"target":{
						"node":4,
						"path":"scale"
					}
				},
				{
					"sampler":18,
					"target":{
						"node":3,
						"path":"translation"
					}
				},
				{
					"sampler":19,
					"target":{
						"node":3,
						"path":"rotation"
					}
				},
				{
					"sampler":20,
					"target":{
						"node":3,
						"path":"scale"
					}
				},
				{
					"sampler":21,
					"target":{
						"node":2,
						"path":"translation"
					}
				},
				{
					"sampler":22,
					"target":{
						"node":2,
						"path":"rotation"
					}
				},
				{
					"sampler":23,
					"target":{
						"node":2,
						"path":"scale"
					}
				},
				{
					"sampler":24,
					"target":{
						"node":7,
						"path":"translation"
					}
				},
				{
					"sampler":25,
					"target":{
						"node":7,
						"path":"rotation"
					}
				},
				{
					"sampler":26,
					"target":{
						"node":7,
						"path":"scale"
					}
				},
				{
					"sampler":27,
					"target":{
						"node":6,
						"path":"translation"
					}
				},
				{
					"sampler":28,
					"target":{
						"node":6,
						"path":"rotation"
					}
				},
				{
					"sampler":29,
					"target":{
						"node":6,
						"path":"scale"
					}
				},
				{
					"sampler":30,
					"target":{
						"node":5,
						"path":"translation"
					}
				},
				{
					"sampler":31,
					"target":{
						"node":5,
						"path":"rotation"
					}
				},
				{
					"sampler":32,
					"target":{
						"node":5,
						"path":"scale"
					}
				},
				{
					"sampler":33,
					"target":{
						"node":12,
						"path":"translation"
					}
				},
				{
					"sampler":34,
					"target":{
						"node":12,
						"path":"rotation"
					}
				},
				{
					"sampler":35,
					"target":{
						"node":12,
						"path":"scale"
					}
				},
				{
					"sampler":36,
					"target":{
						"node":11,
						"path":"translation"
					}
				},
				{
					"sampler":37,
					"target":{
						"node":11,
						"path":"rotation"
					}
				},
				{
					"sampler":38,
					"target":{
						"node":11,
						"path":"scale"
					}
				},
				{
					"sampler":39,
					"target":{
						"node":10,
						"path":"translation"
					}
				},
				{
					"sampler":40,
					"target":{
						"node":10,
						"path":"rotation"
					}
				},
				{
					"sampler":41,
					"target":{
						"node":10,
						"path":"scale"
					}
				},
				{
					"sampler":42,
					"target":{
						"node":15,
						"path":"translation"
					}
				},
				{
					"sampler":43,
					"target":{
						"node":15,
						"path":"rotation"
					}
				},
				{
					"sampler":44,
					"target":{
						"node":15,
						"path":"scale"
					}
				},
				{
					"sampler":45,
					"target":{
						"node":14,
						"path":"translation"
					}
				},
				{
					"sampler":46,
					"target":{
						"node":14,
						"path":"rotation"
					}
				},
				{
					"sampler":47,
					"target":{
						"node":14,
						"path":"scale"
					}
				},
				{
					"sampler":48,
					"target":{
						"node":13,
						"path":"translation"
					}
				},
				{
					"sampler":49,
					"target":{
						"node":13,
						"path":"rotation"
					}
				},
				{
					"sampler":50,
					"target":{
						"node":13,
						"path":"scale"
					}
				}
			],
			"name":"attack",
			"samplers":[
				{
					"input":84,
					"interpolation":"STEP",
					"output":85
				},
				{
					"input":84,
					"interpolation":"STEP",
					"output":86
				},
				{
					"input":84,
					"interpolation":"STEP",
					"output":87
				},
				{
					"input":84,
					"interpolation":"STEP",
					"output":88
				},
				{
					"input":84,
					"interpolation":"STEP",
					"output":89
				},
				{
					"input":84,
					"interpolation":"STEP",
					"output":90
				},
				{
					"input":84,
					"interpolation":"STEP",
					"output":91
				},
				{
					"input":92,
					"interpolation":"LINEAR",
					"output":93
				},
				{
					"input":84,
					"interpolation":"STEP",
					"output":94
				},
				{
					"input":84,
					"interpolation":"STEP",
					"output":95
				},
				{
					"input":84,
					"interpolation":"STEP",
					"output":96
				},
				{
					"input":84,
					"interpolation":"STEP",
					"output":97
				},
				{
					"input":84,
					"interpolation":"STEP",
					"output":98
				},
				{
					"input":84,
					"interpolation":"STEP",
					"output":99
				},
				{
					"input":84,
					"interpolation":"STEP",
					"output":100
				},
				{
					"input":84,
					"interpolation":"STEP",
					"output":101
				},
				{
					"input":92,
					"interpolation":"LINEAR",
					"output":102
				},
				{
					"input":84,
					"interpolation":"STEP",
					"output":103
				},
				{
					"input":84,
					"interpolation":"LINEAR",
					"output":104
				},
				{
					"input":92,
					"interpolation":"LINEAR",
					"output":105
				},
				{
					"input":84,
					"interpolation":"STEP",
					"output":106
				},
				{
					"input":84,
					"interpolation":"LINEAR",
					"output":107
				},
				{
					"input":84,
					"interpolation":"LINEAR",
					"output":108
				},
				{
					"input":84,
					"interpolation":"STEP",
					"output":109
				},
				{
					"input":84,
					"interpolation":"STEP",
					"output":110
				},
				{
					"input":92,
					"interpolation":"LINEAR",
					"output":111
				},
				{
					"input":84,
					"interpolation":"STEP",
					"output":112
				},
				{
					"input":84,
					"interpolation":"STEP",
					"output":113
				},
				{
					"input":84,
					"interpolation":"STEP",
					"output":114
				},
				{
					"input":84,
					"interpolation":"STEP",
					"output":115
				},
				{
					"input":84,
					"interpolation":"STEP",
					"output":116
				},
				{
					"input":84,
					"interpolation":"STEP",
					"output":117
				},
				{
					"input":84,
					"interpolation":"STEP",
					"output":118
				},
				{
					"input":84,
					"interpolation":"STEP",
					"output":119
				},
				{
					"input":92,
					"interpolation":"LINEAR",
					"output":120
				},
				{
					"input":84,
					"interpolation":"STEP",
					"output":121
				},
				{
					"input":84,
					"interpolation":"LINEAR",
					"output":122
				},
				{
					"input":84,
					"interpolation":"LINEAR",
					"output":123
				},
				{
					"input":84,
					"interpolation":"STEP",
					"output":124
				},
				{
					"input":84,
					"interpolation":"LINEAR",
					"output":125
				},
				{
					"input":84,
					"interpolation":"LINEAR",
					"output":126
				},
				{
					"input":84,
					"interpolation":"STEP",
					"output":127
				},
				{
					"input":84,
					"interpolation":"STEP",
					"output":128
				},
				{
					"input":92,
					"interpolation":"LINEAR",
					"output":129
				},
				{
					"input":84,
					"interpolation":"STEP",
					"output":130
				},
				{
					"input":84,
					"interpolation":"LINEAR",
					"output":131
				},
				{
					"input":84,
					"interpolation":"LINEAR",
					"output":132
				},
				{
					"input":84,
					"interpolation":"STEP",
					"output":133
				},
				{
					"input":84,
					"interpolation":"LINEAR",
					"output":134
				},
				{
					"input":84,
					"interpolation":"LINEAR",
					"output":135
				},
				{
					"input":84,
					"interpolation":"STEP",
					"output":136
				}
			]
		},
		{
			"channels":[
				{
					"sampler":0,
					"target":{
						"node":16,
						"path":"translation"
					}
				},
				{
					"sampler":1,
					"target":{
						"node":16,
						"path":"rotation"
					}
				},
				{
					"sampler":2,
					"target":{
						"node":16,
						"path":"scale"
					}
				},
				{
					"sampler":3,
					"target":{
						"node":9,
						"path":"translation"
					}
				},
				{
					"sampler":4,
					"target":{
						"node":9,
						"path":"rotation"
					}
				},
				{
					"sampler":5,
					"target":{
						"node":9,
						"path":"scale"
					}
				},
				{
					"sampler":6,
					"target":{
						"node":8,
						"path":"translation"
					}
				},
				{
					"sampler":7,
					"target":{
						"node":8,
						"path":"rotation"
					}
				},
				{
					"sampler":8,
					"target":{
						"node":8,
						"path":"scale"
					}
				},
				{
					"sampler":9,
					"target":{
						"node":1,
						"path":"translation"
					}
				},
				{
					"sampler":10,
					"target":{
						"node":1,
						"path":"rotation"
					}
				},
				{
					"sampler":11,
					"target":{
						"node":1,
						"path":"scale"
					}
				},
				{
					"sampler":12,
					"target":{
						"node":0,
						"path":"translation"
					}
				},
				{
					"sampler":13,
					"target":{
						"node":0,
						"path":"rotation"
					}
				},
				{
					"sampler":14,
					"target":{
						"node":0,
						"path":"scale"
					}
				},
				{
					"sampler":15,
					"target":{
						"node":4,
						"path":"translation"
					}
				},
				{
					"sampler":16,
					"target":{
						"node":4,
						"path":"rotation"
					}
				},
				{
					"sampler":17,
					"target":{
						"node":4,
						"path":"scale"
					}
				},
				{
					"sampler":18,
					"target":{
						"node":3,
						"path":"translation"
					}
				},
				{
					"sampler":19,
					"target":{
						"node":3,
						"path":"rotation"
					}
				},
				{
					"sampler":20,
					"target":{
						"node":3,
						"path":"scale"
					}
				},
				{
					"sampler":21,
					"target":{
						"node":2,
						"path":"translation"
					}
				},
				{
					"sampler":22,
					"target":{
						"node":2,
						"path":"rotation"
					}
				},
				{
					"sampler":23,
					"target":{
						"node":2,
						"path":"scale"
					}
				},
				{
					"sampler":24,
					"target":{
						"node":7,
						"path":"translation"
					}
				},
				{
					"sampler":25,
					"target":{
						"node":7,
						"path":"rotation"
					}
				},
				{
					"sampler":26,
					"target":{
						"node":7,
						"path":"scale"
					}
				},
				{
					"sampler":27,
					"target":{
						"node":6,
						"path":"translation"
					}
				},
				{
					"sampler":28,
					"target":{
						"node":6,
						"path":"rotation"
					}
				},
				{
					"sampler":29,
					"target":{
						"node":6,
						"path":"scale"
					}
				},
				{
					"sampler":30,
					"target":{
						"node":5,
						"path":"translation"
					}
				},
				{
					"sampler":31,
					"target":{
						"node":5,
						"path":"rotation"
					}
				},
				{
					"sampler":32,
					"target":{
						"node":5,
						"path":"scale"
					}
				},
				{
					"sampler":33,
					"target":{
						"node":12,
						"path":"translation"
					}
				},
				{
					"sampler":34,
					"target":{
						"node":12,
						"path":"rotation"
					}
				},
				{
					"sampler":35,
					"target":{
						"node":12,
						"path":"scale"
					}
				},
				{
					"sampler":36,
					"target":{
						"node":11,
						"path":"translation"
					}
				},
				{
					"sampler":37,
					"target":{
						"node":11,
						"path":"rotation"
					}
				},
				{
					"sampler":38,
					"target":{
						"node":11,
						"path":"scale"
					}
				},
				{
					"sampler":39,
					"target":{
						"node":10,
						"path":"translation"
					}
				},
				{
					"sampler":40,
					"target":{
						"node":10,
						"path":"rotation"
					}
				},
				{
					"sampler":41,
					"target":{
						"node":10,
						"path":"scale"
					}
				},
				{
					"sampler":42,
					"target":{
						"node":15,
						"path":"translation"
					}
				},
				{
					"sampler":43,
					"target":{
						"node":15,
						"path":"rotation"
					}
				},
				{
					"sampler":44,
					"target":{
						"node":15,
						"path":"scale"
					}
				},
				{
					"sampler":45,
					"target":{
						"node":14,
						"path":"translation"
					}
				},
				{
					"sampler":46,
					"target":{
						"node":14,
						"path":"rotation"
					}
				},
				{
					"sampler":47,
					"target":{
						"node":14,
						"path":"scale"
					}
				},
				{
					"sampler":48,
					"target":{
						"node":13,
						"path":"translation"
					}
				},
				{
					"sampler":49,
					"target":{
						"node":13,
						"path":"rotation"
					}
				},
				{
					"sampler":50,
					"target":{
						"node":13,
						"path":"scale"
					}
				}
			],
			"name":"idle",
			"samplers":[
				{
					"input":137,
					"interpolation":"LINEAR",
					"output":138
				},
				{
					"input":139,
					"interpolation":"STEP",
					"output":140
				},
				{
					"input":139,
					"interpolation":"STEP",
					"output":141
				},
				{
					"input":139,
					"interpolation":"STEP",
					"output":142
				},
				{
					"input":139,
					"interpolation":"STEP",
					"output":143
				},
				{
					"input":139,
					"interpolation":"STEP",
					"output":144
				},
				{
					"input":139,
					"interpolation":"STEP",
					"output":145
				},
				{
					"input":137,
					"interpolation":"LINEAR",
					"output":146
				},
				{
					"input":139,
					"interpolation":"STEP",
					"output":147
				},
				{
					"input":139,
					"interpolation":"STEP",
					"output":148
				},
				{
					"input":139,
					"interpolation":"STEP",
					"output":149
				},
				{
					"input":139,
					"interpolation":"STEP",
					"output":150
				},
				{
					"input":139,
					"interpolation":"STEP",
					"output":151
				},
				{
					"input":137,
					"interpolation":"LINEAR",
					"output":152
				},
				{
					"input":139,
					"interpolation":"STEP",
					"output":153
				},
				{
					"input":139,
					"interpolation":"STEP",
					"output":154
				},
				{
					"input":137,
					"interpolation":"LINEAR",
					"output":155
				},
				{
					"input":139,
					"interpolation":"STEP",
					"output":156
				},
				{
					"input":139,
					"interpolation":"STEP",
					"output":157
				},
				{
					"input":139,
					"interpolation":"STEP",
					"output":158
				},
				{
					"input":139,
					"interpolation":"STEP",
					"output":159
				},
				{
					"input":139,
					"interpolation":"STEP",
					"output":160
				},
				{
					"input":139,
					"interpolation":"STEP",
					"output":161
				},
				{
					"input":139,
					"interpolation":"STEP",
					"output":162
				},
				{
					"input":139,
					"interpolation":"STEP",
					"output":163
				},
				{
					"input":137,
					"interpolation":"LINEAR",
					"output":164
				},
				{
					"input":139,
					"interpolation":"STEP",
					"output":165
				},
				{
					"input":139,
					"interpolation":"STEP",
					"output":166
				},
				{
					"input":139,
					"interpolation":"STEP",
					"output":167
				},
				{
					"input":139,
					"interpolation":"STEP",
					"output":168
				},
				{
					"input":139,
					"interpolation":"STEP",
					"output":169
				},
				{
					"input":139,
					"interpolation":"STEP",
					"output":170
				},
				{
					"input":139,
					"interpolation":"STEP",
					"output":171
				},
				{
					"input":139,
					"interpolation":"STEP",
					"output":172
				},
				{
					"input":139,
					"interpolation":"STEP",
					"output":173
				},
				{
					"input":139,
					"interpolation":"STEP",
					"output":174
				},
				{
					"input":139,
					"interpolation":"STEP",
					"output":175
				},
				{
					"input":139,
					"interpolation":"STEP",
					"output":176
				},
				{
					"input":139,
					"interpolation":"STEP",
					"output":177
				},
				{
					"input":139,
					"interpolation":"STEP",
					"output":178
				},
				{
					"input":139,
					"interpolation":"STEP",
					"output":179
				},
				{
					"input":139,
					"interpolation":"STEP",
					"output":180
				},
				{
					"input":139,
					"interpolation":"STEP",
					"output":181
				},
				{
					"input":139,
					"interpolation":"STEP",
					"output":182
				},
				{
					"input":139,
					"interpolation":"STEP",
					"output":183
				},
				{
					"input":139,
					"interpolation":"STEP",
					"output":184
				},
				{
					"input":139,
					"interpolation":"STEP",
					"output":185
				},
				{
					"input":139,
					"interpolation":"STEP",
					"output":186
				},
				{
					"input":139,
					"interpolation":"STEP",
					"output":187
				},
				{
					"input":139,
					"interpolation":"STEP",
					"output":188
				},
				{
					"input":139,
					"interpolation":"STEP",
					"output":189
				}
			]
		},
		{
			"channels":[
				{
					"sampler":0,
					"target":{
						"node":16,
						"path":"translation"
					}
				},
				{
					"sampler":1,
					"target":{
						"node":16,
						"path":"rotation"
					}
				},
				{
					"sampler":2,
					"target":{
						"node":16,
						"path":"scale"
					}
				},
				{
					"sampler":3,
					"target":{
						"node":9,
						"path":"translation"
					}
				},
				{
					"sampler":4,
					"target":{
						"node":9,
						"path":"rotation"
					}
				},
				{
					"sampler":5,
					"target":{
						"node":9,
						"path":"scale"
					}
				},
				{
					"sampler":6,
					"target":{
						"node":8,
						"path":"translation"
					}
				},
				{
					"sampler":7,
					"target":{
						"node":8,
						"path":"rotation"
					}
				},
				{
					"sampler":8,
					"target":{
						"node":8,
						"path":"scale"
					}
				},
				{
					"sampler":9,
					"target":{
						"node":1,
						"path":"translation"
					}
				},
				{
					"sampler":10,
					"target":{
						"node":1,
						"path":"rotation"
					}
				},
				{
					"sampler":11,
					"target":{
						"node":1,
						"path":"scale"
					}
				},
				{
					"sampler":12,
					"target":{
						"node":0,
						"path":"translation"
					}
				},
				{
					"sampler":13,
					"target":{
						"node":0,
						"path":"rotation"
					}
				},
				{
					"sampler":14,
					"target":{
						"node":0,
						"path":"scale"
					}
				},
				{
					"sampler":15,
					"target":{
						"node":4,
						"path":"translation"
					}
				},
				{
					"sampler":16,
					"target":{
						"node":4,
						"path":"rotation"
					}
				},
				{
					"sampler":17,
					"target":{
						"node":4,
						"path":"scale"
					}
				},
				{
					"sampler":18,
					"target":{
						"node":3,
						"path":"translation"
					}
				},
				{
					"sampler":19,
					"target":{
						"node":3,
						"path":"rotation"
					}
				},
				{
					"sampler":20,
					"target":{
						"node":3,
						"path":"scale"
					}
				},
				{
					"sampler":21,
					"target":{
						"node":2,
						"path":"translation"
					}
				},
				{
					"sampler":22,
					"target":{
						"node":2,
						"path":"rotation"
					}
				},
				{
					"sampler":23,
					"target":{
						"node":2,
						"path":"scale"
					}
				},
				{
					"sampler":24,
					"target":{
						"node":7,
						"path":"translation"
					}
				},
				{
					"sampler":25,
					"target":{
						"node":7,
						"path":"rotation"
					}
				},
				{
					"sampler":26,
					"target":{
						"node":7,
						"path":"scale"
					}
				},
				{
					"sampler":27,
					"target":{
						"node":6,
						"path":"translation"
					}
				},
				{
					"sampler":28,
					"target":{
						"node":6,
						"path":"rotation"
					}
				},
				{
					"sampler":29,
					"target":{
						"node":6,
						"path":"scale"
					}
				},
				{
					"sampler":30,
					"target":{
						"node":5,
						"path":"translation"
					}
				},
				{
					"sampler":31,
					"target":{
						"node":5,
						"path":"rotation"
					}
				},
				{
					"sampler":32,
					"target":{
						"node":5,
						"path":"scale"
					}
				},
				{
					"sampler":33,
					"target":{
						"node":12,
						"path":"translation"
					}
				},
				{
					"sampler":34,
					"target":{
						"node":12,
						"path":"rotation"
					}
				},
				{
					"sampler":35,
					"target":{
						"node":12,
						"path":"scale"
					}
				},
				{
					"sampler":36,
					"target":{
						"node":11,
						"path":"translation"
					}
				},
				{
					"sampler":37,
					"target":{
						"node":11,
						"path":"rotation"
					}
				},
				{
					"sampler":38,
					"target":{
						"node":11,
						"path":"scale"
					}
				},
				{
					"sampler":39,
					"target":{
						"node":10,
						"path":"translation"
					}
				},
				{
					"sampler":40,
					"target":{
						"node":10,
						"path":"rotation"
					}
				},
				{
					"sampler":41,
					"target":{
						"node":10,
						"path":"scale"
					}
				},
				{
					"sampler":42,
					"target":{
						"node":15,
						"path":"translation"
					}
				},
				{
					"sampler":43,
					"target":{
						"node":15,
						"path":"rotation"
					}
				},
				{
					"sampler":44,
					"target":{
						"node":15,
						"path":"scale"
					}
				},
				{
					"sampler":45,
					"target":{
						"node":14,
						"path":"translation"
					}
				},
				{
					"sampler":46,
					"target":{
						"node":14,
						"path":"rotation"
					}
				},
				{
					"sampler":47,
					"target":{
						"node":14,
						"path":"scale"
					}
				},
				{
					"sampler":48,
					"target":{
						"node":13,
						"path":"translation"
					}
				},
				{
					"sampler":49,
					"target":{
						"node":13,
						"path":"rotation"
					}
				},
				{
					"sampler":50,
					"target":{
						"node":13,
						"path":"scale"
					}
				}
			],
			"name":"walk",
			"samplers":[
				{
					"input":190,
					"interpolation":"LINEAR",
					"output":191
				},
				{
					"input":190,
					"interpolation":"LINEAR",
					"output":192
				},
				{
					"input":193,
					"interpolation":"STEP",
					"output":194
				},
				{
					"input":193,
					"interpolation":"STEP",
					"output":195
				},
				{
					"input":193,
					"interpolation":"STEP",
					"output":196
				},
				{
					"input":193,
					"interpolation":"STEP",
					"output":197
				},
				{
					"input":193,
					"interpolation":"STEP",
					"output":198
				},
				{
					"input":190,
					"interpolation":"LINEAR",
					"output":199
				},
				{
					"input":193,
					"interpolation":"STEP",
					"output":200
				},
				{
					"input":193,
					"interpolation":"STEP",
					"output":201
				},
				{
					"input":193,
					"interpolation":"STEP",
					"output":202
				},
				{
					"input":193,
					"interpolation":"STEP",
					"output":203
				},
				{
					"input":193,
					"interpolation":"STEP",
					"output":204
				},
				{
					"input":193,
					"interpolation":"STEP",
					"output":205
				},
				{
					"input":193,
					"interpolation":"STEP",
					"output":206
				},
				{
					"input":193,
					"interpolation":"STEP",
					"output":207
				},
				{
					"input":190,
					"interpolation":"LINEAR",
					"output":208
				},
				{
					"input":193,
					"interpolation":"STEP",
					"output":209
				},
				{
					"input":193,
					"interpolation":"STEP",
					"output":210
				},
				{
					"input":193,
					"interpolation":"STEP",
					"output":211
				},
				{
					"input":193,
					"interpolation":"STEP",
					"output":212
				},
				{
					"input":193,
					"interpolation":"STEP",
					"output":213
				},
				{
					"input":193,
					"interpolation":"STEP",
					"output":214
				},
				{
					"input":193,
					"interpolation":"STEP",
					"output":215
				},
				{
					"input":193,
					"interpolation":"STEP",
					"output":216
				},
				{
					"input":190,
					"interpolation":"LINEAR",
					"output":217
				},
				{
					"input":193,
					"interpolation":"STEP",
					"output":218
				},
				{
					"input":193,
					"interpolation":"STEP",
					"output":219
				},
				{
					"input":193,
					"interpolation":"STEP",
					"output":220
				},
				{
					"input":193,
					"interpolation":"STEP",
					"output":221
				},
				{
					"input":193,
					"interpolation":"STEP",
					"output":222
				},
				{
					"input":193,
					"interpolation":"STEP",
					"output":223
				},
				{
					"input":193,
					"interpolation":"STEP",
					"output":224
				},
				{
					"input":193,
					"interpolation":"STEP",
					"output":225
				},
				{
					"input":190,
					"interpolation":"LINEAR",
					"output":226
				},
				{
					"input":193,
					"interpolation":"STEP",
					"output":227
				},
				{
					"input":193,
					"interpolation":"STEP",
					"output":228
				},
				{
					"input":190,
					"interpolation":"LINEAR",
					"output":229
				},
				{
					"input":193,
					"interpolation":"STEP",
					"output":230
				},
				{
					"input":193,
					"interpolation":"STEP",
					"output":231
				},
				{
					"input":190,
					"interpolation":"LINEAR",
					"output":232
				},
				{
					"input":193,
					"interpolation":"STEP",
					"output":233
				},
				{
					"input":193,
					"interpolation":"STEP",
					"output":234
				},
				{
					"input":190,
					"interpolation":"LINEAR",
					"output":235
				},
				{
					"input":193,
					"interpolation":"STEP",
					"output":236
				},
				{
					"input":193,
					"interpolation":"STEP",
					"output":237
				},
				{
					"input":190,
					"interpolation":"LINEAR",
					"output":238
				},
				{
					"input":193,
					"interpolation":"STEP",
					"output":239
				},
				{
					"input":193,
					"interpolation":"STEP",
					"output":240
				},
				{
					"input":190,
					"interpolation":"LINEAR",
					"output":241
				},
				{
					"input":193,
					"interpolation":"STEP",
					"output":242
				}
			]
		}
	],
	"materials":[
		{
			"name":"skin",
			"normalTexture":{
				"index":0,
				"scale":0.4000000059604645
			},
			"pbrMetallicRoughness":{
				"baseColorFactor":[
					0.9551045894622803,
					0.7105664610862732,
					0.5382355451583862,
					1
				],
				"metallicFactor":0,
				"roughnessFactor":0.550000011920929
			}
		},
		{
			"extensions":{
				"KHR_materials_sheen":{
					"sheenColorFactor":[
						1.0,
						1.0,
						1.0
					],
					"sheenRoughnessFactor":0.5
				}
			},
			"name":"hair",
			"normalTexture":{
				"index":1,
				"scale":0.800000011920929
			},
			"pbrMetallicRoughness":{
				"baseColorFactor":[
					0.13286831974983215,
					0.05087608844041824,
					0.010022825561463833,
					1
				],
				"metallicFactor":0,
				"roughnessFactor":0.44999998807907104
			}
		},
		{
			"extensions":{
				"KHR_materials_sheen":{
					"sheenColorFactor":[
						1.0,
						1.0,
						1.0
					],
					"sheenRoughnessFactor":0.5
				}
			},
			"name":"outfit",
			"normalTexture":{
				"index":2,
				"scale":0.6000000238418579
			},
			"pbrMetallicRoughness":{
				"baseColorFactor":[
					0.21404114365577698,
					0.21404114365577698,
					0.2632734179496765,
					1
				],
				"metallicFactor":0,
				"roughnessFactor":0.75
			}
		},
		{
			"name":"outfit2",
			"normalTexture":{
				"index":3,
				"scale":0.4000000059604645
			},
			"pbrMetallicRoughness":{
				"baseColorFactor":[
					0.13286831974983215,
					0.07323895394802094,
					0.03310476616024971,
					1
				],
				"metallicFactor":0,
				"roughnessFactor":0.6000000238418579
			}
		},
		{
			"name":"pants",
			"normalTexture":{
				"index":4,
				"scale":0.6000000238418579
			},
			"pbrMetallicRoughness":{
				"baseColorFactor":[
					0.10048151016235352,
					0.10048151016235352,
					0.12259718775749207,
					1
				],
				"metallicFactor":0,
				"roughnessFactor":0.800000011920929
			}
		},
		{
			"extensions":{
				"KHR_materials_clearcoat":{
					"clearcoatFactor":0.30000001192092896
				}
			},
			"name":"boots",
			"normalTexture":{
				"index":5,
				"scale":0.800000011920929
			},
			"pbrMetallicRoughness":{
				"baseColorFactor":[
					0.0134117491543293,
					0.010022825561463833,
					0.010022825561463833,
					1
				],
				"metallicFactor":0,
				"roughnessFactor":0.44999998807907104
			}
		},
		{
			"name":"eye_white",
			"pbrMetallicRoughness":{
				"baseColorFactor":[
					0.8900054097175598,
					0.8900054097175598,
					0.8900054097175598,
					1
				],
				"metallicFactor":0,
				"roughnessFactor":0.20000000298023224
			}
		},
		{
			"emissiveFactor":[
				0.011763989275256348,
				0.011763989275256348,
				0.019862860485428957
			],
			"name":"iris",
			"pbrMetallicRoughness":{
				"baseColorFactor":[
					0.01960664801299572,
					0.01960664801299572,
					0.03310476616024971,
					1
				],
				"metallicFactor":0,
				"roughnessFactor":0.15000000596046448
			}
		},
		{
			"name":"pupil",
			"pbrMetallicRoughness":{
				"baseColorFactor":[
					0.0015479875728487968,
					0.0015479875728487968,
					0.0023219813592731953,
					1
				],
				"metallicFactor":0,
				"roughnessFactor":0.10000000149011612
			}
		},
		{
			"name":"lips",
			"pbrMetallicRoughness":{
				"baseColorFactor":[
					0.4283095896244049,
					0.32088616490364075,
					0.2448643445968628,
					1
				],
				"metallicFactor":0,
				"roughnessFactor":0.4000000059604645
			}
		},
		{
			"name":"buckle",
			"pbrMetallicRoughness":{
				"baseColorFactor":[
					0.6920710802078247,
					0.4479884207248688,
					0.07323895394802094,
					1
				],
				"metallicFactor":0.8999999761581421,
				"roughnessFactor":0.30000001192092896
			}
		},
		{
			"name":"blade",
			"normalTexture":{
				"index":6,
				"scale":0.30000001192092896
			},
			"pbrMetallicRoughness":{
				"baseColorFactor":[
					0.7484140992164612,
					0.7874122858047485,
					0.8900054097175598,
					1
				],
				"metallicFactor":0.550000011920929,
				"roughnessFactor":0.2199999988079071
			}
		},
		{
			"name":"handle",
			"normalTexture":{
				"index":7,
				"scale":0.6000000238418579
			},
			"pbrMetallicRoughness":{
				"baseColorFactor":[
					0.0134117491543293,
					0.007194409146904945,
					0.004896310158073902,
					1
				],
				"metallicFactor":0,
				"roughnessFactor":0.6000000238418579
			}
		},
		{
			"name":"guard",
			"pbrMetallicRoughness":{
				"baseColorFactor":[
					0.6038273572921753,
					0.38005632162094116,
					0.05087608844041824,
					1
				],
				"metallicFactor":0.8999999761581421,
				"roughnessFactor":0.30000001192092896
			}
		}
	],
	"meshes":[
		{
			"name":"kabal",
			"primitives":[
				{
					"attributes":{
						"POSITION":0,
						"NORMAL":1,
						"TEXCOORD_0":2,
						"JOINTS_0":3,
						"WEIGHTS_0":4
					},
					"indices":5,
					"material":0
				},
				{
					"attributes":{
						"POSITION":6,
						"NORMAL":7,
						"TEXCOORD_0":8,
						"JOINTS_0":9,
						"WEIGHTS_0":10
					},
					"indices":11,
					"material":1
				},
				{
					"attributes":{
						"POSITION":12,
						"NORMAL":13,
						"TEXCOORD_0":14,
						"JOINTS_0":15,
						"WEIGHTS_0":16
					},
					"indices":17,
					"material":2
				},
				{
					"attributes":{
						"POSITION":18,
						"NORMAL":19,
						"TEXCOORD_0":20,
						"JOINTS_0":21,
						"WEIGHTS_0":22
					},
					"indices":23,
					"material":3
				},
				{
					"attributes":{
						"POSITION":24,
						"NORMAL":25,
						"TEXCOORD_0":26,
						"JOINTS_0":27,
						"WEIGHTS_0":28
					},
					"indices":29,
					"material":4
				},
				{
					"attributes":{
						"POSITION":30,
						"NORMAL":31,
						"TEXCOORD_0":32,
						"JOINTS_0":33,
						"WEIGHTS_0":34
					},
					"indices":35,
					"material":5
				},
				{
					"attributes":{
						"POSITION":36,
						"NORMAL":37,
						"TEXCOORD_0":38,
						"JOINTS_0":39,
						"WEIGHTS_0":40
					},
					"indices":41,
					"material":6
				},
				{
					"attributes":{
						"POSITION":42,
						"NORMAL":43,
						"TEXCOORD_0":44,
						"JOINTS_0":45,
						"WEIGHTS_0":46
					},
					"indices":47,
					"material":7
				},
				{
					"attributes":{
						"POSITION":48,
						"NORMAL":49,
						"TEXCOORD_0":50,
						"JOINTS_0":51,
						"WEIGHTS_0":52
					},
					"indices":53,
					"material":8
				},
				{
					"attributes":{
						"POSITION":54,
						"NORMAL":55,
						"TEXCOORD_0":56,
						"JOINTS_0":57,
						"WEIGHTS_0":58
					},
					"indices":59,
					"material":9
				},
				{
					"attributes":{
						"POSITION":60,
						"NORMAL":61,
						"TEXCOORD_0":62,
						"JOINTS_0":63,
						"WEIGHTS_0":64
					},
					"indices":65,
					"material":10
				},
				{
					"attributes":{
						"POSITION":66,
						"NORMAL":67,
						"TEXCOORD_0":68,
						"JOINTS_0":69,
						"WEIGHTS_0":70
					},
					"indices":71,
					"material":11
				},
				{
					"attributes":{
						"POSITION":72,
						"NORMAL":73,
						"TEXCOORD_0":74,
						"JOINTS_0":75,
						"WEIGHTS_0":76
					},
					"indices":77,
					"material":12
				},
				{
					"attributes":{
						"POSITION":78,
						"NORMAL":79,
						"TEXCOORD_0":80,
						"JOINTS_0":81,
						"WEIGHTS_0":82
					},
					"indices":65,
					"material":13
				}
			]
		}
	],
	"textures":[
		{
			"sampler":0,
			"source":0
		},
		{
			"sampler":0,
			"source":1
		},
		{
			"sampler":0,
			"source":2
		},
		{
			"sampler":0,
			"source":2
		},
		{
			"sampler":0,
			"source":2
		},
		{
			"sampler":0,
			"source":3
		},
		{
			"sampler":0,
			"source":4
		},
		{
			"sampler":0,
			"source":3
		}
	],
	"images":[
		{
			"mimeType":"image/png",
			"name":"N_skin",
			"uri":"texturas/N_skin.png"
		},
		{
			"mimeType":"image/png",
			"name":"N_hair",
			"uri":"texturas/N_hair.png"
		},
		{
			"mimeType":"image/png",
			"name":"N_cloth",
			"uri":"texturas/N_cloth.png"
		},
		{
			"mimeType":"image/png",
			"name":"N_leather",
			"uri":"texturas/N_leather.png"
		},
		{
			"mimeType":"image/png",
			"name":"N_metal",
			"uri":"texturas/N_metal.png"
		}
	],
	"skins":[
		{
			"inverseBindMatrices":83,
			"joints":[
				16,
				9,
				8,
				1,
				0,
				4,
				3,
				2,
				7,
				6,
				5,
				12,
				11,
				10,
				15,
				14,
				13
			],
			"name":"kabal_rig"
		}
	],
	"accessors":[
		{
			"bufferView":0,
			"componentType":5126,
			"count":1419,
			"max":[
				0.3763335943222046,
				1.7839999198913574,
				0.10721255838871002
			],
			"min":[
				-0.3763335645198822,
				0.784467875957489,
				-0.11607673019170761
			],
			"type":"VEC3"
		},
		{
			"bufferView":1,
			"componentType":5126,
			"count":1419,
			"type":"VEC3"
		},
		{
			"bufferView":2,
			"componentType":5126,
			"count":1419,
			"type":"VEC2"
		},
		{
			"bufferView":3,
			"componentType":5121,
			"count":1419,
			"type":"VEC4"
		},
		{
			"bufferView":4,
			"componentType":5126,
			"count":1419,
			"type":"VEC4"
		},
		{
			"bufferView":5,
			"componentType":5123,
			"count":5808,
			"type":"SCALAR"
		},
		{
			"bufferView":6,
			"componentType":5126,
			"count":2700,
			"max":[
				0.12022196501493454,
				1.809268593788147,
				0.13736535608768463
			],
			"min":[
				-0.1171724796295166,
				1.5439907312393188,
				-0.11737233400344849
			],
			"type":"VEC3"
		},
		{
			"bufferView":7,
			"componentType":5126,
			"count":2700,
			"type":"VEC3"
		},
		{
			"bufferView":8,
			"componentType":5126,
			"count":2700,
			"type":"VEC2"
		},
		{
			"bufferView":9,
			"componentType":5121,
			"count":2700,
			"type":"VEC4"
		},
		{
			"bufferView":10,
			"componentType":5126,
			"count":2700,
			"type":"VEC4"
		},
		{
			"bufferView":11,
			"componentType":5123,
			"count":8328,
			"type":"SCALAR"
		},
		{
			"bufferView":12,
			"componentType":5126,
			"count":1426,
			"max":[
				0.3826114535331726,
				1.4730050563812256,
				0.14652609825134277
			],
			"min":[
				-0.3826114535331726,
				0.9279924035072327,
				-0.14813999831676483
			],
			"type":"VEC3"
		},
		{
			"bufferView":13,
			"componentType":5126,
			"count":1426,
			"type":"VEC3"
		},
		{
			"bufferView":14,
			"componentType":5126,
			"count":1426,
			"type":"VEC2"
		},
		{
			"bufferView":15,
			"componentType":5121,
			"count":1426,
			"type":"VEC4"
		},
		{
			"bufferView":16,
			"componentType":5126,
			"count":1426,
			"type":"VEC4"
		},
		{
			"bufferView":17,
			"componentType":5123,
			"count":6480,
			"type":"SCALAR"
		},
		{
			"bufferView":18,
			"componentType":5126,
			"count":60,
			"max":[
				0.16728469729423523,
				1.0083837509155273,
				0.14977256953716278
			],
			"min":[
				-0.16728468239307404,
				0.8792945146560669,
				-0.1511145532131195
			],
			"type":"VEC3"
		},
		{
			"bufferView":19,
			"componentType":5126,
			"count":60,
			"type":"VEC3"
		},
		{
			"bufferView":20,
			"componentType":5126,
			"count":60,
			"type":"VEC2"
		},
		{
			"bufferView":21,
			"componentType":5121,
			"count":60,
			"type":"VEC4"
		},
		{
			"bufferView":22,
			"componentType":5126,
			"count":60,
			"type":"VEC4"
		},
		{
			"bufferView":23,
			"componentType":5123,
			"count":168,
			"type":"SCALAR"
		},
		{
			"bufferView":24,
			"componentType":5126,
			"count":979,
			"max":[
				0.3780514597892761,
				0.9491903185844421,
				0.14733512699604034
			],
			"min":[
				-0.3780514597892761,
				0.2864817976951599,
				-0.1489890217781067
			],
			"type":"VEC3"
		},
		{
			"bufferView":25,
			"componentType":5126,
			"count":979,
			"type":"VEC3"
		},
		{
			"bufferView":26,
			"componentType":5126,
			"count":979,
			"type":"VEC2"
		},
		{
			"bufferView":27,
			"componentType":5121,
			"count":979,
			"type":"VEC4"
		},
		{
			"bufferView":28,
			"componentType":5126,
			"count":979,
			"type":"VEC4"
		},
		{
			"bufferView":29,
			"componentType":5123,
			"count":4344,
			"type":"SCALAR"
		},
		{
			"bufferView":30,
			"componentType":5126,
			"count":874,
			"max":[
				0.19252033531665802,
				0.2938253581523895,
				0.08477109670639038
			],
			"min":[
				-0.1925203502178192,
				0.007600768469274044,
				-0.1401200294494629
			],
			"type":"VEC3"
		},
		{
			"bufferView":31,
			"componentType":5126,
			"count":874,
			"type":"VEC3"
		},
		{
			"bufferView":32,
			"componentType":5126,
			"count":874,
			"type":"VEC2"
		},
		{
			"bufferView":33,
			"componentType":5121,
			"count":874,
			"type":"VEC4"
		},
		{
			"bufferView":34,
			"componentType":5126,
			"count":874,
			"type":"VEC4"
		},
		{
			"bufferView":35,
			"componentType":5123,
			"count":3840,
			"type":"SCALAR"
		},
		{
			"bufferView":36,
			"componentType":5126,
			"count":304,
			"max":[
				0.050999999046325684,
				1.6864999532699585,
				-0.07000000029802322
			],
			"min":[
				-0.050999999046325684,
				1.6634999513626099,
				-0.08799999952316284
			],
			"type":"VEC3"
		},
		{
			"bufferView":37,
			"componentType":5126,
			"count":304,
			"type":"VEC3"
		},
		{
			"bufferView":38,
			"componentType":5126,
			"count":304,
			"type":"VEC2"
		},
		{
			"bufferView":39,
			"componentType":5121,
			"count":304,
			"type":"VEC4"
		},
		{
			"bufferView":40,
			"componentType":5126,
			"count":304,
			"type":"VEC4"
		},
		{
			"bufferView":41,
			"componentType":5123,
			"count":1152,
			"type":"SCALAR"
		},
		{
			"bufferView":42,
			"componentType":5126,
			"count":220,
			"max":[
				0.04349999874830246,
				1.6848000288009644,
				-0.08122024685144424
			],
			"min":[
				-0.04349999874830246,
				1.6651999950408936,
				-0.08977975696325302
			],
			"type":"VEC3"
		},
		{
			"bufferView":43,
			"componentType":5126,
			"count":220,
			"type":"VEC3"
		},
		{
			"bufferView":44,
			"componentType":5126,
			"count":220,
			"type":"VEC2"
		},
		{
			"bufferView":45,
			"componentType":5121,
			"count":220,
			"type":"VEC4"
		},
		{
			"bufferView":46,
			"componentType":5126,
			"count":220,
			"type":"VEC4"
		},
		{
			"bufferView":47,
			"componentType":5123,
			"count":720,
			"type":"SCALAR"
		},
		{
			"bufferView":48,
			"componentType":5126,
			"count":160,
			"max":[
				0.03799443691968918,
				1.6794999837875366,
				-0.08689788728952408
			],
			"min":[
				-0.03799443691968918,
				1.6705000400543213,
				-0.0907021164894104
			],
			"type":"VEC3"
		},
		{
			"bufferView":49,
			"componentType":5126,
			"count":160,
			"type":"VEC3"
		},
		{
			"bufferView":50,
			"componentType":5126,
			"count":160,
			"type":"VEC2"
		},
		{
			"bufferView":51,
			"componentType":5121,
			"count":160,
			"type":"VEC4"
		},
		{
			"bufferView":52,
			"componentType":5126,
			"count":160,
			"type":"VEC4"
		},
		{
			"bufferView":53,
			"componentType":5123,
			"count":480,
			"type":"SCALAR"
		},
		{
			"bufferView":54,
			"componentType":5126,
			"count":98,
			"max":[
				0.01899999938905239,
				1.6074999570846558,
				-0.07772024720907211
			],
			"min":[
				-0.01899999938905239,
				1.5985000133514404,
				-0.08627975732088089
			],
			"type":"VEC3"
		},
		{
			"bufferView":55,
			"componentType":5126,
			"count":98,
			"type":"VEC3"
		},
		{
			"bufferView":56,
			"componentType":5126,
			"count":98,
			"type":"VEC2"
		},
		{
			"bufferView":57,
			"componentType":5121,
			"count":98,
			"type":"VEC4"
		},
		{
			"bufferView":58,
			"componentType":5126,
			"count":98,
			"type":"VEC4"
		},
		{
			"bufferView":59,
			"componentType":5123,
			"count":360,
			"type":"SCALAR"
		},
		{
			"bufferView":60,
			"componentType":5126,
			"count":24,
			"max":[
				0.02500000037252903,
				0.9700000286102295,
				-0.11299999803304672
			],
			"min":[
				-0.02500000037252903,
				0.9300000071525574,
				-0.125
			],
			"type":"VEC3"
		},
		{
			"bufferView":61,
			"componentType":5126,
			"count":24,
			"type":"VEC3"
		},
		{
			"bufferView":62,
			"componentType":5126,
			"count":24,
			"type":"VEC2"
		},
		{
			"bufferView":63,
			"componentType":5121,
			"count":24,
			"type":"VEC4"
		},
		{
			"bufferView":64,
			"componentType":5126,
			"count":24,
			"type":"VEC4"
		},
		{
			"bufferView":65,
			"componentType":5123,
			"count":36,
			"type":"SCALAR"
		},
		{
			"bufferView":66,
			"componentType":5126,
			"count":108,
			"max":[
				0.36296001076698303,
				0.7876890301704407,
				-0.08872050791978836
			],
			"min":[
				0.35095998644828796,
				0.4277992248535156,
				-0.8521128296852112
			],
			"type":"VEC3"
		},
		{
			"bufferView":67,
			"componentType":5126,
			"count":108,
			"type":"VEC3"
		},
		{
			"bufferView":68,
			"componentType":5126,
			"count":108,
			"type":"VEC2"
		},
		{
			"bufferView":69,
			"componentType":5121,
			"count":108,
			"type":"VEC4"
		},
		{
			"bufferView":70,
			"componentType":5126,
			"count":108,
			"type":"VEC4"
		},
		{
			"bufferView":71,
			"componentType":5123,
			"count":156,
			"type":"SCALAR"
		},
		{
			"bufferView":72,
			"componentType":5126,
			"count":42,
			"max":[
				0.37296000123023987,
				0.855627179145813,
				0.07275798916816711
			],
			"min":[
				0.34095999598503113,
				0.760787308216095,
				-0.08628112822771072
			],
			"type":"VEC3"
		},
		{
			"bufferView":73,
			"componentType":5126,
			"count":42,
			"type":"VEC3"
		},
		{
			"bufferView":74,
			"componentType":5126,
			"count":42,
			"type":"VEC2"
		},
		{
			"bufferView":75,
			"componentType":5121,
			"count":42,
			"type":"VEC4"
		},
		{
			"bufferView":76,
			"componentType":5126,
			"count":42,
			"type":"VEC4"
		},
		{
			"bufferView":77,
			"componentType":5123,
			"count":96,
			"type":"SCALAR"
		},
		{
			"bufferView":78,
			"componentType":5126,
			"count":24,
			"max":[
				0.456959992647171,
				0.7862744331359863,
				-0.07633449882268906
			],
			"min":[
				0.2569600045681,
				0.7562744617462158,
				-0.10133450478315353
			],
			"type":"VEC3"
		},
		{
			"bufferView":79,
			"componentType":5126,
			"count":24,
			"type":"VEC3"
		},
		{
			"bufferView":80,
			"componentType":5126,
			"count":24,
			"type":"VEC2"
		},
		{
			"bufferView":81,
			"componentType":5121,
			"count":24,
			"type":"VEC4"
		},
		{
			"bufferView":82,
			"componentType":5126,
			"count":24,
			"type":"VEC4"
		},
		{
			"bufferView":83,
			"componentType":5126,
			"count":17,
			"type":"MAT4"
		},
		{
			"bufferView":84,
			"componentType":5126,
			"count":2,
			"max":[
				0.6
			],
			"min":[
				0
			],
			"type":"SCALAR"
		},
		{
			"bufferView":85,
			"componentType":5126,
			"count":2,
			"type":"VEC3"
		},
		{
			"bufferView":86,
			"componentType":5126,
			"count":2,
			"type":"VEC4"
		},
		{
			"bufferView":87,
			"componentType":5126,
			"count":2,
			"type":"VEC3"
		},
		{
			"bufferView":88,
			"componentType":5126,
			"count":2,
			"type":"VEC3"
		},
		{
			"bufferView":89,
			"componentType":5126,
			"count":2,
			"type":"VEC4"
		},
		{
			"bufferView":90,
			"componentType":5126,
			"count":2,
			"type":"VEC3"
		},
		{
			"bufferView":91,
			"componentType":5126,
			"count":2,
			"type":"VEC3"
		},
		{
			"bufferView":92,
			"componentType":5126,
			"count":19,
			"max":[
				0.6
			],
			"min":[
				0
			],
			"type":"SCALAR"
		},
		{
			"bufferView":93,
			"componentType":5126,
			"count":19,
			"type":"VEC4"
		},
		{
			"bufferView":94,
			"componentType":5126,
			"count":2,
			"type":"VEC3"
		},
		{
			"bufferView":95,
			"componentType":5126,
			"count":2,
			"type":"VEC3"
		},
		{
			"bufferView":96,
			"componentType":5126,
			"count":2,
			"type":"VEC4"
		},
		{
			"bufferView":97,
			"componentType":5126,
			"count":2,
			"type":"VEC3"
		},
		{
			"bufferView":98,
			"componentType":5126,
			"count":2,
			"type":"VEC3"
		},
		{
			"bufferView":99,
			"componentType":5126,
			"count":2,
			"type":"VEC4"
		},
		{
			"bufferView":100,
			"componentType":5126,
			"count":2,
			"type":"VEC3"
		},
		{
			"bufferView":101,
			"componentType":5126,
			"count":2,
			"type":"VEC3"
		},
		{
			"bufferView":102,
			"componentType":5126,
			"count":19,
			"type":"VEC4"
		},
		{
			"bufferView":103,
			"componentType":5126,
			"count":2,
			"type":"VEC3"
		},
		{
			"bufferView":104,
			"componentType":5126,
			"count":2,
			"type":"VEC3"
		},
		{
			"bufferView":105,
			"componentType":5126,
			"count":19,
			"type":"VEC4"
		},
		{
			"bufferView":106,
			"componentType":5126,
			"count":2,
			"type":"VEC3"
		},
		{
			"bufferView":107,
			"componentType":5126,
			"count":2,
			"type":"VEC3"
		},
		{
			"bufferView":108,
			"componentType":5126,
			"count":2,
			"type":"VEC4"
		},
		{
			"bufferView":109,
			"componentType":5126,
			"count":2,
			"type":"VEC3"
		},
		{
			"bufferView":110,
			"componentType":5126,
			"count":2,
			"type":"VEC3"
		},
		{
			"bufferView":111,
			"componentType":5126,
			"count":19,
			"type":"VEC4"
		},
		{
			"bufferView":112,
			"componentType":5126,
			"count":2,
			"type":"VEC3"
		},
		{
			"bufferView":113,
			"componentType":5126,
			"count":2,
			"type":"VEC3"
		},
		{
			"bufferView":114,
			"componentType":5126,
			"count":2,
			"type":"VEC4"
		},
		{
			"bufferView":115,
			"componentType":5126,
			"count":2,
			"type":"VEC3"
		},
		{
			"bufferView":116,
			"componentType":5126,
			"count":2,
			"type":"VEC3"
		},
		{
			"bufferView":117,
			"componentType":5126,
			"count":2,
			"type":"VEC4"
		},
		{
			"bufferView":118,
			"componentType":5126,
			"count":2,
			"type":"VEC3"
		},
		{
			"bufferView":119,
			"componentType":5126,
			"count":2,
			"type":"VEC3"
		},
		{
			"bufferView":120,
			"componentType":5126,
			"count":19,
			"type":"VEC4"
		},
		{
			"bufferView":121,
			"componentType":5126,
			"count":2,
			"type":"VEC3"
		},
		{
			"bufferView":122,
			"componentType":5126,
			"count":2,
			"type":"VEC3"
		},
		{
			"bufferView":123,
			"componentType":5126,
			"count":2,
			"type":"VEC4"
		},
		{
			"bufferView":124,
			"componentType":5126,
			"count":2,
			"type":"VEC3"
		},
		{
			"bufferView":125,
			"componentType":5126,
			"count":2,
			"type":"VEC3"
		},
		{
			"bufferView":126,
			"componentType":5126,
			"count":2,
			"type":"VEC4"
		},
		{
			"bufferView":127,
			"componentType":5126,
			"count":2,
			"type":"VEC3"
		},
		{
			"bufferView":128,
			"componentType":5126,
			"count":2,
			"type":"VEC3"
		},
		{
			"bufferView":129,
			"componentType":5126,
			"count":19,
			"type":"VEC4"
		},
		{
			"bufferView":130,
			"componentType":5126,
			"count":2,
			"type":"VEC3"
		},
		{
			"bufferView":131,
			"componentType":5126,
			"count":2,
			"type":"VEC3"
		},
		{
			"bufferView":132,
			"componentType":5126,
			"count":2,
			"type":"VEC4"
		},
		{
			"bufferView":133,
			"componentType":5126,
			"count":2,
			"type":"VEC3"
		},
		{
			"bufferView":134,
			"componentType":5126,
			"count":2,
			"type":"VEC3"
		},
		{
			"bufferView":135,
			"componentType":5126,
			"count":2,
			"type":"VEC4"
		},
		{
			"bufferView":136,
			"componentType":5126,
			"count":2,
			"type":"VEC3"
		},
		{
			"bufferView":137,
			"componentType":5126,
			"count":61,
			"max":[
				2
			],
			"min":[
				0
			],
			"type":"SCALAR"
		},
		{
			"bufferView":138,
			"componentType":5126,
			"count":61,
			"type":"VEC3"
		},
		{
			"bufferView":139,
			"componentType":5126,
			"count":2,
			"max":[
				2
			],
			"min":[
				0
			],
			"type":"SCALAR"
		},
		{
			"bufferView":140,
			"componentType":5126,
			"count":2,
			"type":"VEC4"
		},
		{
			"bufferView":141,
			"componentType":5126,
			"count":2,
			"type":"VEC3"
		},
		{
			"bufferView":142,
			"componentType":5126,
			"count":2,
			"type":"VEC3"
		},
		{
			"bufferView":143,
			"componentType":5126,
			"count":2,
			"type":"VEC4"
		},
		{
			"bufferView":144,
			"componentType":5126,
			"count":2,
			"type":"VEC3"
		},
		{
			"bufferView":145,
			"componentType":5126,
			"count":2,
			"type":"VEC3"
		},
		{
			"bufferView":146,
			"componentType":5126,
			"count":61,
			"type":"VEC4"
		},
		{
			"bufferView":147,
			"componentType":5126,
			"count":2,
			"type":"VEC3"
		},
		{
			"bufferView":148,
			"componentType":5126,
			"count":2,
			"type":"VEC3"
		},
		{
			"bufferView":149,
			"componentType":5126,
			"count":2,
			"type":"VEC4"
		},
		{
			"bufferView":150,
			"componentType":5126,
			"count":2,
			"type":"VEC3"
		},
		{
			"bufferView":151,
			"componentType":5126,
			"count":2,
			"type":"VEC3"
		},
		{
			"bufferView":152,
			"componentType":5126,
			"count":61,
			"type":"VEC4"
		},
		{
			"bufferView":153,
			"componentType":5126,
			"count":2,
			"type":"VEC3"
		},
		{
			"bufferView":154,
			"componentType":5126,
			"count":2,
			"type":"VEC3"
		},
		{
			"bufferView":155,
			"componentType":5126,
			"count":61,
			"type":"VEC4"
		},
		{
			"bufferView":156,
			"componentType":5126,
			"count":2,
			"type":"VEC3"
		},
		{
			"bufferView":157,
			"componentType":5126,
			"count":2,
			"type":"VEC3"
		},
		{
			"bufferView":158,
			"componentType":5126,
			"count":2,
			"type":"VEC4"
		},
		{
			"bufferView":159,
			"componentType":5126,
			"count":2,
			"type":"VEC3"
		},
		{
			"bufferView":160,
			"componentType":5126,
			"count":2,
			"type":"VEC3"
		},
		{
			"bufferView":161,
			"componentType":5126,
			"count":2,
			"type":"VEC4"
		},
		{
			"bufferView":162,
			"componentType":5126,
			"count":2,
			"type":"VEC3"
		},
		{
			"bufferView":163,
			"componentType":5126,
			"count":2,
			"type":"VEC3"
		},
		{
			"bufferView":164,
			"componentType":5126,
			"count":61,
			"type":"VEC4"
		},
		{
			"bufferView":165,
			"componentType":5126,
			"count":2,
			"type":"VEC3"
		},
		{
			"bufferView":166,
			"componentType":5126,
			"count":2,
			"type":"VEC3"
		},
		{
			"bufferView":167,
			"componentType":5126,
			"count":2,
			"type":"VEC4"
		},
		{
			"bufferView":168,
			"componentType":5126,
			"count":2,
			"type":"VEC3"
		},
		{
			"bufferView":169,
			"componentType":5126,
			"count":2,
			"type":"VEC3"
		},
		{
			"bufferView":170,
			"componentType":5126,
			"count":2,
			"type":"VEC4"
		},
		{
			"bufferView":171,
			"componentType":5126,
			"count":2,
			"type":"VEC3"
		},
		{
			"bufferView":172,
			"componentType":5126,
			"count":2,
			"type":"VEC3"
		},
		{
			"bufferView":173,
			"componentType":5126,
			"count":2,
			"type":"VEC4"
		},
		{
			"bufferView":174,
			"componentType":5126,
			"count":2,
			"type":"VEC3"
		},
		{
			"bufferView":175,
			"componentType":5126,
			"count":2,
			"type":"VEC3"
		},
		{
			"bufferView":176,
			"componentType":5126,
			"count":2,
			"type":"VEC4"
		},
		{
			"bufferView":177,
			"componentType":5126,
			"count":2,
			"type":"VEC3"
		},
		{
			"bufferView":178,
			"componentType":5126,
			"count":2,
			"type":"VEC3"
		},
		{
			"bufferView":179,
			"componentType":5126,
			"count":2,
			"type":"VEC4"
		},
		{
			"bufferView":180,
			"componentType":5126,
			"count":2,
			"type":"VEC3"
		},
		{
			"bufferView":181,
			"componentType":5126,
			"count":2,
			"type":"VEC3"
		},
		{
			"bufferView":182,
			"componentType":5126,
			"count":2,
			"type":"VEC4"
		},
		{
			"bufferView":183,
			"componentType":5126,
			"count":2,
			"type":"VEC3"
		},
		{
			"bufferView":184,
			"componentType":5126,
			"count":2,
			"type":"VEC3"
		},
		{
			"bufferView":185,
			"componentType":5126,
			"count":2,
			"type":"VEC4"
		},
		{
			"bufferView":186,
			"componentType":5126,
			"count":2,
			"type":"VEC3"
		},
		{
			"bufferView":187,
			"componentType":5126,
			"count":2,
			"type":"VEC3"
		},
		{
			"bufferView":188,
			"componentType":5126,
			"count":2,
			"type":"VEC4"
		},
		{
			"bufferView":189,
			"componentType":5126,
			"count":2,
			"type":"VEC3"
		},
		{
			"bufferView":190,
			"componentType":5126,
			"count":31,
			"max":[
				1
			],
			"min":[
				0
			],
			"type":"SCALAR"
		},
		{
			"bufferView":191,
			"componentType":5126,
			"count":31,
			"type":"VEC3"
		},
		{
			"bufferView":192,
			"componentType":5126,
			"count":31,
			"type":"VEC4"
		},
		{
			"bufferView":193,
			"componentType":5126,
			"count":2,
			"max":[
				1
			],
			"min":[
				0
			],
			"type":"SCALAR"
		},
		{
			"bufferView":194,
			"componentType":5126,
			"count":2,
			"type":"VEC3"
		},
		{
			"bufferView":195,
			"componentType":5126,
			"count":2,
			"type":"VEC3"
		},
		{
			"bufferView":196,
			"componentType":5126,
			"count":2,
			"type":"VEC4"
		},
		{
			"bufferView":197,
			"componentType":5126,
			"count":2,
			"type":"VEC3"
		},
		{
			"bufferView":198,
			"componentType":5126,
			"count":2,
			"type":"VEC3"
		},
		{
			"bufferView":199,
			"componentType":5126,
			"count":31,
			"type":"VEC4"
		},
		{
			"bufferView":200,
			"componentType":5126,
			"count":2,
			"type":"VEC3"
		},
		{
			"bufferView":201,
			"componentType":5126,
			"count":2,
			"type":"VEC3"
		},
		{
			"bufferView":202,
			"componentType":5126,
			"count":2,
			"type":"VEC4"
		},
		{
			"bufferView":203,
			"componentType":5126,
			"count":2,
			"type":"VEC3"
		},
		{
			"bufferView":204,
			"componentType":5126,
			"count":2,
			"type":"VEC3"
		},
		{
			"bufferView":205,
			"componentType":5126,
			"count":2,
			"type":"VEC4"
		},
		{
			"bufferView":206,
			"componentType":5126,
			"count":2,
			"type":"VEC3"
		},
		{
			"bufferView":207,
			"componentType":5126,
			"count":2,
			"type":"VEC3"
		},
		{
			"bufferView":208,
			"componentType":5126,
			"count":31,
			"type":"VEC4"
		},
		{
			"bufferView":209,
			"componentType":5126,
			"count":2,
			"type":"VEC3"
		},
		{
			"bufferView":210,
			"componentType":5126,
			"count":2,
			"type":"VEC3"
		},
		{
			"bufferView":211,
			"componentType":5126,
			"count":2,
			"type":"VEC4"
		},
		{
			"bufferView":212,
			"componentType":5126,
			"count":2,
			"type":"VEC3"
		},
		{
			"bufferView":213,
			"componentType":5126,
			"count":2,
			"type":"VEC3"
		},
		{
			"bufferView":214,
			"componentType":5126,
			"count":2,
			"type":"VEC4"
		},
		{
			"bufferView":215,
			"componentType":5126,
			"count":2,
			"type":"VEC3"
		},
		{
			"bufferView":216,
			"componentType":5126,
			"count":2,
			"type":"VEC3"
		},
		{
			"bufferView":217,
			"componentType":5126,
			"count":31,
			"type":"VEC4"
		},
		{
			"bufferView":218,
			"componentType":5126,
			"count":2,
			"type":"VEC3"
		},
		{
			"bufferView":219,
			"componentType":5126,
			"count":2,
			"type":"VEC3"
		},
		{
			"bufferView":220,
			"componentType":5126,
			"count":2,
			"type":"VEC4"
		},
		{
			"bufferView":221,
			"componentType":5126,
			"count":2,
			"type":"VEC3"
		},
		{
			"bufferView":222,
			"componentType":5126,
			"count":2,
			"type":"VEC3"
		},
		{
			"bufferView":223,
			"componentType":5126,
			"count":2,
			"type":"VEC4"
		},
		{
			"bufferView":224,
			"componentType":5126,
			"count":2,
			"type":"VEC3"
		},
		{
			"bufferView":225,
			"componentType":5126,
			"count":2,
			"type":"VEC3"
		},
		{
			"bufferView":226,
			"componentType":5126,
			"count":31,
			"type":"VEC4"
		},
		{
			"bufferView":227,
			"componentType":5126,
			"count":2,
			"type":"VEC3"
		},
		{
			"bufferView":228,
			"componentType":5126,
			"count":2,
			"type":"VEC3"
		},
		{
			"bufferView":229,
			"componentType":5126,
			"count":31,
			"type":"VEC4"
		},
		{
			"bufferView":230,
			"componentType":5126,
			"count":2,
			"type":"VEC3"
		},
		{
			"bufferView":231,
			"componentType":5126,
			"count":2,
			"type":"VEC3"
		},
		{
			"bufferView":232,
			"componentType":5126,
			"count":31,
			"type":"VEC4"
		},
		{
			"bufferView":233,
			"componentType":5126,
			"count":2,
			"type":"VEC3"
		},
		{
			"bufferView":234,
			"componentType":5126,
			"count":2,
			"type":"VEC3"
		},
		{
			"bufferView":235,
			"componentType":5126,
			"count":31,
			"type":"VEC4"
		},
		{
			"bufferView":236,
			"componentType":5126,
			"count":2,
			"type":"VEC3"
		},
		{
			"bufferView":237,
			"componentType":5126,
			"count":2,
			"type":"VEC3"
		},
		{
			"bufferView":238,
			"componentType":5126,
			"count":31,
			"type":"VEC4"
		},
		{
			"bufferView":239,
			"componentType":5126,
			"count":2,
			"type":"VEC3"
		},
		{
			"bufferView":240,
			"componentType":5126,
			"count":2,
			"type":"VEC3"
		},
		{
			"bufferView":241,
			"componentType":5126,
			"count":31,
			"type":"VEC4"
		},
		{
			"bufferView":242,
			"componentType":5126,
			"count":2,
			"type":"VEC3"
		}
	],
	"bufferViews":[
		{
			"buffer":0,
			"byteLength":17028,
			"byteOffset":0,
			"target":34962
		},
		{
			"buffer":0,
			"byteLength":17028,
			"byteOffset":17028,
			"target":34962
		},
		{
			"buffer":0,
			"byteLength":11352,
			"byteOffset":34056,
			"target":34962
		},
		{
			"buffer":0,
			"byteLength":5676,
			"byteOffset":45408,
			"target":34962
		},
		{
			"buffer":0,
			"byteLength":22704,
			"byteOffset":51084,
			"target":34962
		},
		{
			"buffer":0,
			"byteLength":11616,
			"byteOffset":73788,
			"target":34963
		},
		{
			"buffer":0,
			"byteLength":32400,
			"byteOffset":85404,
			"target":34962
		},
		{
			"buffer":0,
			"byteLength":32400,
			"byteOffset":117804,
			"target":34962
		},
		{
			"buffer":0,
			"byteLength":21600,
			"byteOffset":150204,
			"target":34962
		},
		{
			"buffer":0,
			"byteLength":10800,
			"byteOffset":171804,
			"target":34962
		},
		{
			"buffer":0,
			"byteLength":43200,
			"byteOffset":182604,
			"target":34962
		},
		{
			"buffer":0,
			"byteLength":16656,
			"byteOffset":225804,
			"target":34963
		},
		{
			"buffer":0,
			"byteLength":17112,
			"byteOffset":242460,
			"target":34962
		},
		{
			"buffer":0,
			"byteLength":17112,
			"byteOffset":259572,
			"target":34962
		},
		{
			"buffer":0,
			"byteLength":11408,
			"byteOffset":276684,
			"target":34962
		},
		{
			"buffer":0,
			"byteLength":5704,
			"byteOffset":288092,
			"target":34962
		},
		{
			"buffer":0,
			"byteLength":22816,
			"byteOffset":293796,
			"target":34962
		},
		{
			"buffer":0,
			"byteLength":12960,
			"byteOffset":316612,
			"target":34963
		},
		{
			"buffer":0,
			"byteLength":720,
			"byteOffset":329572,
			"target":34962
		},
		{
			"buffer":0,
			"byteLength":720,
			"byteOffset":330292,
			"target":34962
		},
		{
			"buffer":0,
			"byteLength":480,
			"byteOffset":331012,
			"target":34962
		},
		{
			"buffer":0,
			"byteLength":240,
			"byteOffset":331492,
			"target":34962
		},
		{
			"buffer":0,
			"byteLength":960,
			"byteOffset":331732,
			"target":34962
		},
		{
			"buffer":0,
			"byteLength":336,
			"byteOffset":332692,
			"target":34963
		},
		{
			"buffer":0,
			"byteLength":11748,
			"byteOffset":333028,
			"target":34962
		},
		{
			"buffer":0,
			"byteLength":11748,
			"byteOffset":344776,
			"target":34962
		},
		{
			"buffer":0,
			"byteLength":7832,
			"byteOffset":356524,
			"target":34962
		},
		{
			"buffer":0,
			"byteLength":3916,
			"byteOffset":364356,
			"target":34962
		},
		{
			"buffer":0,
			"byteLength":15664,
			"byteOffset":368272,
			"target":34962
		},
		{
			"buffer":0,
			"byteLength":8688,
			"byteOffset":383936,
			"target":34963
		},
		{
			"buffer":0,
			"byteLength":10488,
			"byteOffset":392624,
			"target":34962
		},
		{
			"buffer":0,
			"byteLength":10488,
			"byteOffset":403112,
			"target":34962
		},
		{
			"buffer":0,
			"byteLength":6992,
			"byteOffset":413600,
			"target":34962
		},
		{
			"buffer":0,
			"byteLength":3496,
			"byteOffset":420592,
			"target":34962
		},
		{
			"buffer":0,
			"byteLength":13984,
			"byteOffset":424088,
			"target":34962
		},
		{
			"buffer":0,
			"byteLength":7680,
			"byteOffset":438072,
			"target":34963
		},
		{
			"buffer":0,
			"byteLength":3648,
			"byteOffset":445752,
			"target":34962
		},
		{
			"buffer":0,
			"byteLength":3648,
			"byteOffset":449400,
			"target":34962
		},
		{
			"buffer":0,
			"byteLength":2432,
			"byteOffset":453048,
			"target":34962
		},
		{
			"buffer":0,
			"byteLength":1216,
			"byteOffset":455480,
			"target":34962
		},
		{
			"buffer":0,
			"byteLength":4864,
			"byteOffset":456696,
			"target":34962
		},
		{
			"buffer":0,
			"byteLength":2304,
			"byteOffset":461560,
			"target":34963
		},
		{
			"buffer":0,
			"byteLength":2640,
			"byteOffset":463864,
			"target":34962
		},
		{
			"buffer":0,
			"byteLength":2640,
			"byteOffset":466504,
			"target":34962
		},
		{
			"buffer":0,
			"byteLength":1760,
			"byteOffset":469144,
			"target":34962
		},
		{
			"buffer":0,
			"byteLength":880,
			"byteOffset":470904,
			"target":34962
		},
		{
			"buffer":0,
			"byteLength":3520,
			"byteOffset":471784,
			"target":34962
		},
		{
			"buffer":0,
			"byteLength":1440,
			"byteOffset":475304,
			"target":34963
		},
		{
			"buffer":0,
			"byteLength":1920,
			"byteOffset":476744,
			"target":34962
		},
		{
			"buffer":0,
			"byteLength":1920,
			"byteOffset":478664,
			"target":34962
		},
		{
			"buffer":0,
			"byteLength":1280,
			"byteOffset":480584,
			"target":34962
		},
		{
			"buffer":0,
			"byteLength":640,
			"byteOffset":481864,
			"target":34962
		},
		{
			"buffer":0,
			"byteLength":2560,
			"byteOffset":482504,
			"target":34962
		},
		{
			"buffer":0,
			"byteLength":960,
			"byteOffset":485064,
			"target":34963
		},
		{
			"buffer":0,
			"byteLength":1176,
			"byteOffset":486024,
			"target":34962
		},
		{
			"buffer":0,
			"byteLength":1176,
			"byteOffset":487200,
			"target":34962
		},
		{
			"buffer":0,
			"byteLength":784,
			"byteOffset":488376,
			"target":34962
		},
		{
			"buffer":0,
			"byteLength":392,
			"byteOffset":489160,
			"target":34962
		},
		{
			"buffer":0,
			"byteLength":1568,
			"byteOffset":489552,
			"target":34962
		},
		{
			"buffer":0,
			"byteLength":720,
			"byteOffset":491120,
			"target":34963
		},
		{
			"buffer":0,
			"byteLength":288,
			"byteOffset":491840,
			"target":34962
		},
		{
			"buffer":0,
			"byteLength":288,
			"byteOffset":492128,
			"target":34962
		},
		{
			"buffer":0,
			"byteLength":192,
			"byteOffset":492416,
			"target":34962
		},
		{
			"buffer":0,
			"byteLength":96,
			"byteOffset":492608,
			"target":34962
		},
		{
			"buffer":0,
			"byteLength":384,
			"byteOffset":492704,
			"target":34962
		},
		{
			"buffer":0,
			"byteLength":72,
			"byteOffset":493088,
			"target":34963
		},
		{
			"buffer":0,
			"byteLength":1296,
			"byteOffset":493160,
			"target":34962
		},
		{
			"buffer":0,
			"byteLength":1296,
			"byteOffset":494456,
			"target":34962
		},
		{
			"buffer":0,
			"byteLength":864,
			"byteOffset":495752,
			"target":34962
		},
		{
			"buffer":0,
			"byteLength":432,
			"byteOffset":496616,
			"target":34962
		},
		{
			"buffer":0,
			"byteLength":1728,
			"byteOffset":497048,
			"target":34962
		},
		{
			"buffer":0,
			"byteLength":312,
			"byteOffset":498776,
			"target":34963
		},
		{
			"buffer":0,
			"byteLength":504,
			"byteOffset":499088,
			"target":34962
		},
		{
			"buffer":0,
			"byteLength":504,
			"byteOffset":499592,
			"target":34962
		},
		{
			"buffer":0,
			"byteLength":336,
			"byteOffset":500096,
			"target":34962
		},
		{
			"buffer":0,
			"byteLength":168,
			"byteOffset":500432,
			"target":34962
		},
		{
			"buffer":0,
			"byteLength":672,
			"byteOffset":500600,
			"target":34962
		},
		{
			"buffer":0,
			"byteLength":192,
			"byteOffset":501272,
			"target":34963
		},
		{
			"buffer":0,
			"byteLength":288,
			"byteOffset":501464,
			"target":34962
		},
		{
			"buffer":0,
			"byteLength":288,
			"byteOffset":501752,
			"target":34962
		},
		{
			"buffer":0,
			"byteLength":192,
			"byteOffset":502040,
			"target":34962
		},
		{
			"buffer":0,
			"byteLength":96,
			"byteOffset":502232,
			"target":34962
		},
		{
			"buffer":0,
			"byteLength":384,
			"byteOffset":502328,
			"target":34962
		},
		{
			"buffer":0,
			"byteLength":1088,
			"byteOffset":502712
		},
		{
			"buffer":0,
			"byteLength":8,
			"byteOffset":503800
		},
		{
			"buffer":0,
			"byteLength":24,
			"byteOffset":503808
		},
		{
			"buffer":0,
			"byteLength":32,
			"byteOffset":503832
		},
		{
			"buffer":0,
			"byteLength":24,
			"byteOffset":503864
		},
		{
			"buffer":0,
			"byteLength":24,
			"byteOffset":503888
		},
		{
			"buffer":0,
			"byteLength":32,
			"byteOffset":503912
		},
		{
			"buffer":0,
			"byteLength":24,
			"byteOffset":503944
		},
		{
			"buffer":0,
			"byteLength":24,
			"byteOffset":503968
		},
		{
			"buffer":0,
			"byteLength":76,
			"byteOffset":503992
		},
		{
			"buffer":0,
			"byteLength":304,
			"byteOffset":504068
		},
		{
			"buffer":0,
			"byteLength":24,
			"byteOffset":504372
		},
		{
			"buffer":0,
			"byteLength":24,
			"byteOffset":504396
		},
		{
			"buffer":0,
			"byteLength":32,
			"byteOffset":504420
		},
		{
			"buffer":0,
			"byteLength":24,
			"byteOffset":504452
		},
		{
			"buffer":0,
			"byteLength":24,
			"byteOffset":504476
		},
		{
			"buffer":0,
			"byteLength":32,
			"byteOffset":504500
		},
		{
			"buffer":0,
			"byteLength":24,
			"byteOffset":504532
		},
		{
			"buffer":0,
			"byteLength":24,
			"byteOffset":504556
		},
		{
			"buffer":0,
			"byteLength":304,
			"byteOffset":504580
		},
		{
			"buffer":0,
			"byteLength":24,
			"byteOffset":504884
		},
		{
			"buffer":0,
			"byteLength":24,
			"byteOffset":504908
		},
		{
			"buffer":0,
			"byteLength":304,
			"byteOffset":504932
		},
		{
			"buffer":0,
			"byteLength":24,
			"byteOffset":505236
		},
		{
			"buffer":0,
			"byteLength":24,
			"byteOffset":505260
		},
		{
			"buffer":0,
			"byteLength":32,
			"byteOffset":505284
		},
		{
			"buffer":0,
			"byteLength":24,
			"byteOffset":505316
		},
		{
			"buffer":0,
			"byteLength":24,
			"byteOffset":505340
		},
		{
			"buffer":0,
			"byteLength":304,
			"byteOffset":505364
		},
		{
			"buffer":0,
			"byteLength":24,
			"byteOffset":505668
		},
		{
			"buffer":0,
			"byteLength":24,
			"byteOffset":505692
		},
		{
			"buffer":0,
			"byteLength":32,
			"byteOffset":505716
		},
		{
			"buffer":0,
			"byteLength":24,
			"byteOffset":505748
		},
		{
			"buffer":0,
			"byteLength":24,
			"byteOffset":505772
		},
		{
			"buffer":0,
			"byteLength":32,
			"byteOffset":505796
		},
		{
			"buffer":0,
			"byteLength":24,
			"byteOffset":505828
		},
		{
			"buffer":0,
			"byteLength":24,
			"byteOffset":505852
		},
		{
			"buffer":0,
			"byteLength":304,
			"byteOffset":505876
		},
		{
			"buffer":0,
			"byteLength":24,
			"byteOffset":506180
		},
		{
			"buffer":0,
			"byteLength":24,
			"byteOffset":506204
		},
		{
			"buffer":0,
			"byteLength":32,
			"byteOffset":506228
		},
		{
			"buffer":0,
			"byteLength":24,
			"byteOffset":506260
		},
		{
			"buffer":0,
			"byteLength":24,
			"byteOffset":506284
		},
		{
			"buffer":0,
			"byteLength":32,
			"byteOffset":506308
		},
		{
			"buffer":0,
			"byteLength":24,
			"byteOffset":506340
		},
		{
			"buffer":0,
			"byteLength":24,
			"byteOffset":506364
		},
		{
			"buffer":0,
			"byteLength":304,
			"byteOffset":506388
		},
		{
			"buffer":0,
			"byteLength":24,
			"byteOffset":506692
		},
		{
			"buffer":0,
			"byteLength":24,
			"byteOffset":506716
		},
		{
			"buffer":0,
			"byteLength":32,
			"byteOffset":506740
		},
		{
			"buffer":0,
			"byteLength":24,
			"byteOffset":506772
		},
		{
			"buffer":0,
			"byteLength":24,
			"byteOffset":506796
		},
		{
			"buffer":0,
			"byteLength":32,
			"byteOffset":506820
		},
		{
			"buffer":0,
			"byteLength":24,
			"byteOffset":506852
		},
		{
			"buffer":0,
			"byteLength":244,
			"byteOffset":506876
		},
		{
			"buffer":0,
			"byteLength":732,
			"byteOffset":507120
		},
		{
			"buffer":0,
			"byteLength":8,
			"byteOffset":507852
		},
		{
			"buffer":0,
			"byteLength":32,
			"byteOffset":507860
		},
		{
			"buffer":0,
			"byteLength":24,
			"byteOffset":507892
		},
		{
			"buffer":0,
			"byteLength":24,
			"byteOffset":507916
		},
		{
			"buffer":0,
			"byteLength":32,
			"byteOffset":507940
		},
		{
			"buffer":0,
			"byteLength":24,
			"byteOffset":507972
		},
		{
			"buffer":0,
			"byteLength":24,
			"byteOffset":507996
		},
		{
			"buffer":0,
			"byteLength":976,
			"byteOffset":508020
		},
		{
			"buffer":0,
			"byteLength":24,
			"byteOffset":508996
		},
		{
			"buffer":0,
			"byteLength":24,
			"byteOffset":509020
		},
		{
			"buffer":0,
			"byteLength":32,
			"byteOffset":509044
		},
		{
			"buffer":0,
			"byteLength":24,
			"byteOffset":509076
		},
		{
			"buffer":0,
			"byteLength":24,
			"byteOffset":509100
		},
		{
			"buffer":0,
			"byteLength":976,
			"byteOffset":509124
		},
		{
			"buffer":0,
			"byteLength":24,
			"byteOffset":510100
		},
		{
			"buffer":0,
			"byteLength":24,
			"byteOffset":510124
		},
		{
			"buffer":0,
			"byteLength":976,
			"byteOffset":510148
		},
		{
			"buffer":0,
			"byteLength":24,
			"byteOffset":511124
		},
		{
			"buffer":0,
			"byteLength":24,
			"byteOffset":511148
		},
		{
			"buffer":0,
			"byteLength":32,
			"byteOffset":511172
		},
		{
			"buffer":0,
			"byteLength":24,
			"byteOffset":511204
		},
		{
			"buffer":0,
			"byteLength":24,
			"byteOffset":511228
		},
		{
			"buffer":0,
			"byteLength":32,
			"byteOffset":511252
		},
		{
			"buffer":0,
			"byteLength":24,
			"byteOffset":511284
		},
		{
			"buffer":0,
			"byteLength":24,
			"byteOffset":511308
		},
		{
			"buffer":0,
			"byteLength":976,
			"byteOffset":511332
		},
		{
			"buffer":0,
			"byteLength":24,
			"byteOffset":512308
		},
		{
			"buffer":0,
			"byteLength":24,
			"byteOffset":512332
		},
		{
			"buffer":0,
			"byteLength":32,
			"byteOffset":512356
		},
		{
			"buffer":0,
			"byteLength":24,
			"byteOffset":512388
		},
		{
			"buffer":0,
			"byteLength":24,
			"byteOffset":512412
		},
		{
			"buffer":0,
			"byteLength":32,
			"byteOffset":512436
		},
		{
			"buffer":0,
			"byteLength":24,
			"byteOffset":512468
		},
		{
			"buffer":0,
			"byteLength":24,
			"byteOffset":512492
		},
		{
			"buffer":0,
			"byteLength":32,
			"byteOffset":512516
		},
		{
			"buffer":0,
			"byteLength":24,
			"byteOffset":512548
		},
		{
			"buffer":0,
			"byteLength":24,
			"byteOffset":512572
		},
		{
			"buffer":0,
			"byteLength":32,
			"byteOffset":512596
		},
		{
			"buffer":0,
			"byteLength":24,
			"byteOffset":512628
		},
		{
			"buffer":0,
			"byteLength":24,
			"byteOffset":512652
		},
		{
			"buffer":0,
			"byteLength":32,
			"byteOffset":512676
		},
		{
			"buffer":0,
			"byteLength":24,
			"byteOffset":512708
		},
		{
			"buffer":0,
			"byteLength":24,
			"byteOffset":512732
		},
		{
			"buffer":0,
			"byteLength":32,
			"byteOffset":512756
		},
		{
			"buffer":0,
			"byteLength":24,
			"byteOffset":512788
		},
		{
			"buffer":0,
			"byteLength":24,
			"byteOffset":512812
		},
		{
			"buffer":0,
			"byteLength":32,
			"byteOffset":512836
		},
		{
			"buffer":0,
			"byteLength":24,
			"byteOffset":512868
		},
		{
			"buffer":0,
			"byteLength":24,
			"byteOffset":512892
		},
		{
			"buffer":0,
			"byteLength":32,
			"byteOffset":512916
		},
		{
			"buffer":0,
			"byteLength":24,
			"byteOffset":512948
		},
		{
			"buffer":0,
			"byteLength":124,
			"byteOffset":512972
		},
		{
			"buffer":0,
			"byteLength":372,
			"byteOffset":513096
		},
		{
			"buffer":0,
			"byteLength":496,
			"byteOffset":513468
		},
		{
			"buffer":0,
			"byteLength":8,
			"byteOffset":513964
		},
		{
			"buffer":0,
			"byteLength":24,
			"byteOffset":513972
		},
		{
			"buffer":0,
			"byteLength":24,
			"byteOffset":513996
		},
		{
			"buffer":0,
			"byteLength":32,
			"byteOffset":514020
		},
		{
			"buffer":0,
			"byteLength":24,
			"byteOffset":514052
		},
		{
			"buffer":0,
			"byteLength":24,
			"byteOffset":514076
		},
		{
			"buffer":0,
			"byteLength":496,
			"byteOffset":514100
		},
		{
			"buffer":0,
			"byteLength":24,
			"byteOffset":514596
		},
		{
			"buffer":0,
			"byteLength":24,
			"byteOffset":514620
		},
		{
			"buffer":0,
			"byteLength":32,
			"byteOffset":514644
		},
		{
			"buffer":0,
			"byteLength":24,
			"byteOffset":514676
		},
		{
			"buffer":0,
			"byteLength":24,
			"byteOffset":514700
		},
		{
			"buffer":0,
			"byteLength":32,
			"byteOffset":514724
		},
		{
			"buffer":0,
			"byteLength":24,
			"byteOffset":514756
		},
		{
			"buffer":0,
			"byteLength":24,
			"byteOffset":514780
		},
		{
			"buffer":0,
			"byteLength":496,
			"byteOffset":514804
		},
		{
			"buffer":0,
			"byteLength":24,
			"byteOffset":515300
		},
		{
			"buffer":0,
			"byteLength":24,
			"byteOffset":515324
		},
		{
			"buffer":0,
			"byteLength":32,
			"byteOffset":515348
		},
		{
			"buffer":0,
			"byteLength":24,
			"byteOffset":515380
		},
		{
			"buffer":0,
			"byteLength":24,
			"byteOffset":515404
		},
		{
			"buffer":0,
			"byteLength":32,
			"byteOffset":515428
		},
		{
			"buffer":0,
			"byteLength":24,
			"byteOffset":515460
		},
		{
			"buffer":0,
			"byteLength":24,
			"byteOffset":515484
		},
		{
			"buffer":0,
			"byteLength":496,
			"byteOffset":515508
		},
		{
			"buffer":0,
			"byteLength":24,
			"byteOffset":516004
		},
		{
			"buffer":0,
			"byteLength":24,
			"byteOffset":516028
		},
		{
			"buffer":0,
			"byteLength":32,
			"byteOffset":516052
		},
		{
			"buffer":0,
			"byteLength":24,
			"byteOffset":516084
		},
		{
			"buffer":0,
			"byteLength":24,
			"byteOffset":516108
		},
		{
			"buffer":0,
			"byteLength":32,
			"byteOffset":516132
		},
		{
			"buffer":0,
			"byteLength":24,
			"byteOffset":516164
		},
		{
			"buffer":0,
			"byteLength":24,
			"byteOffset":516188
		},
		{
			"buffer":0,
			"byteLength":496,
			"byteOffset":516212
		},
		{
			"buffer":0,
			"byteLength":24,
			"byteOffset":516708
		},
		{
			"buffer":0,
			"byteLength":24,
			"byteOffset":516732
		},
		{
			"buffer":0,
			"byteLength":496,
			"byteOffset":516756
		},
		{
			"buffer":0,
			"byteLength":24,
			"byteOffset":517252
		},
		{
			"buffer":0,
			"byteLength":24,
			"byteOffset":517276
		},
		{
			"buffer":0,
			"byteLength":496,
			"byteOffset":517300
		},
		{
			"buffer":0,
			"byteLength":24,
			"byteOffset":517796
		},
		{
			"buffer":0,
			"byteLength":24,
			"byteOffset":517820
		},
		{
			"buffer":0,
			"byteLength":496,
			"byteOffset":517844
		},
		{
			"buffer":0,
			"byteLength":24,
			"byteOffset":518340
		},
		{
			"buffer":0,
			"byteLength":24,
			"byteOffset":518364
		},
		{
			"buffer":0,
			"byteLength":496,
			"byteOffset":518388
		},
		{
			"buffer":0,
			"byteLength":24,
			"byteOffset":518884
		},
		{
			"buffer":0,
			"byteLength":24,
			"byteOffset":518908
		},
		{
			"buffer":0,
			"byteLength":496,
			"byteOffset":518932
		},
		{
			"buffer":0,
			"byteLength":24,
			"byteOffset":519428
		}
	],
	"samplers":[
		{
			"magFilter":9729,
			"minFilter":9987
		}
	],
	"buffers":[
		{
			"byteLength":519452,
			"uri":"kabal.bin"
		}
	]
}
