{
	"asset":{
		"generator":"Khronos glTF Blender I/O v4.2.57",
		"version":"2.0"
	},
	"extensionsUsed":[
		"KHR_materials_clearcoat",
		"KHR_materials_sheen"
	],
	"scene":0,
	"scenes":[
		{
			"name":"Scene",
			"nodes":[
				18
			]
		}
	],
	"nodes":[
		{
			"name":"head",
			"translation":[
				0,
				0.07499992847442627,
				0
			]
		},
		{
			"children":[
				0
			],
			"name":"neck",
			"translation":[
				0,
				0.1575000286102295,
				0
			]
		},
		{
			"name":"hand.R",
			"rotation":[
				-0.004248442593961954,
				-0.02970614843070507,
				0.03187692165374756,
				0.9990412592887878
			],
			"scale":[
				0.9999998807907104,
				1.0000001192092896,
				1.0000001192092896
			],
			"translation":[
				-3.4691765904426575e-08,
				0.1895599514245987,
				-4.190951585769653e-09
			]
		},
		{
			"children":[
				2
			],
			"name":"forearm.R",
			"rotation":[
				0.04187668859958649,
				-0.07087460905313492,
				0.08256945013999939,
				0.9931795001029968
			],
			"scale":[
				1,
				0.9999998211860657,
				1
			],
			"translation":[
				-3.4924596548080444e-09,
				0.21026304364204407,
				-4.656612873077393e-10
			]
		},
		{
			"children":[
				3
			],
			"name":"upper_arm.R",
			"rotation":[
				-0.9813662767410278,
				-0.13586755096912384,
				-0.13586708903312683,
				0.000637017481494695
			],
			"scale":[
				1.0000030994415283,
				1.0000003576278687,
				1.0000001192092896
			],
			"translation":[
				0.23489999771118164,
				0.12000000476837158,
				0
			]
		},
		{
			"name":"hand.L",
			"rotation":[
				-0.004248442593961954,
				0.02970614843070507,
				-0.03187692165374756,
				0.9990412592887878
			],
			"scale":[
				0.9999998807907104,
				1.0000001192092896,
				1.0000001192092896
			],
			"translation":[
				3.4691765904426575e-08,
				0.1895599514245987,
				-4.190951585769653e-09
			]
		},
		{
			"children":[
				5
			],
			"name":"forearm.L",
			"rotation":[
				0.04187668859958649,
				0.07087460905313492,
				-0.08256945013999939,
				0.9931795001029968
			],
			"scale":[
				1,
				0.9999998211860657,
				1
			],
			"translation":[
				3.4924596548080444e-09,
				0.21026304364204407,
				-4.656612873077393e-10
			]
		},
		{
			"children":[
				6
			],
			"name":"upper_arm.L",
			"rotation":[
				-0.9813662767410278,
				0.13586755096912384,
				0.13586708903312683,
				0.000637017481494695
			],
			"scale":[
				1.0000030994415283,
				1.0000003576278687,
				1.0000001192092896
			],
			"translation":[
				-0.23489999771118164,
				0.12000000476837158,
				0
			]
		},
		{
			"children":[
				1,
				4,
				7
			],
			"name":"chest",
			"translation":[
				0,
				0.12749993801116943,
				0
			]
		},
		{
			"children":[
				8
			],
			"name":"spine",
			"translation":[
				0,
				0.11250007152557373,
				0
			]
		},
		{
			"name":"foot.R",
			"rotation":[
				0.5914180278778076,
				-1.4394865299749426e-09,
				-3.8793390721991727e-10,
				0.8063651323318481
			],
			"translation":[
				1.4765848099784762e-08,
				0.30794239044189453,
				1.7002221852635557e-09
			]
		},
		{
			"children":[
				10
			],
			"name":"shin.R",
			"rotation":[
				-0.041607532650232315,
				-0.014300785958766937,
				0.013553997501730919,
				0.9989397525787354
			],
			"scale":[
				1,
				0.9999998807907104,
				1
			],
			"translation":[
				-1.2369127944111824e-08,
				0.30775466561317444,
				-2.3283064365386963e-10
			]
		},
		{
			"children":[
				11
			],
			"name":"thigh.R",
			"rotation":[
				-0.9996960163116455,
				-0.013932395726442337,
				-0.013932540081441402,
				0.014820650219917297
			],
			"scale":[
				1.000000238418579,
				1,
				1.000000238418579
			],
			"translation":[
				0.10004999488592148,
				-0.014999985694885254,
				0
			]
		},
		{
			"name":"foot.L",
			"rotation":[
				0.5914180278778076,
				1.4394865299749426e-09,
				3.8793390721991727e-10,
				0.8063651323318481
			],
			"translation":[
				-1.4765848099784762e-08,
				0.30794239044189453,
				1.7002221852635557e-09
			]
		},
		{
			"children":[
				13
			],
			"name":"shin.L",
			"rotation":[
				-0.041607532650232315,
				0.014300785958766937,
				-0.013553997501730919,
				0.9989397525787354
			],
			"scale":[
				1,
				0.9999998807907104,
				1
			],
			"translation":[
				1.2369127944111824e-08,
				0.30775466561317444,
				-2.3283064365386963e-10
			]
		},
		{
			"children":[
				14
			],
			"name":"thigh.L",
			"rotation":[
				-0.9996960163116455,
				0.013932395726442337,
				0.013932540081441402,
				0.014820650219917297
			],
			"scale":[
				1.000000238418579,
				1,
				1.000000238418579
			],
			"translation":[
				-0.10004999488592148,
				-0.014999985694885254,
				0
			]
		},
		{
			"children":[
				9,
				12,
				15
			],
			"name":"hips",
			"translation":[
				0,
				0.6974999904632568,
				0
			]
		},
		{
			"mesh":0,
			"name":"kaijin",
			"skin":0
		},
		{
			"children":[
				17,
				16
			],
			"name":"kaijin_rig"
		}
	],
	"animations":[
		{
			"channels":[
				{
					"sampler":0,
					"target":{
						"node":16,
						"path":"translation"
					}
				},
				{
					"sampler":1,
					"target":{
						"node":16,
						"path":"rotation"
					}
				},
				{
					"sampler":2,
					"target":{
						"node":16,
						"path":"scale"
					}
				},
				{
					"sampler":3,
					"target":{
						"node":9,
						"path":"translation"
					}
				},
				{
					"sampler":4,
					"target":{
						"node":9,
						"path":"rotation"
					}
				},
				{
					"sampler":5,
					"target":{
						"node":9,
						"path":"scale"
					}
				},
				{
					"sampler":6,
					"target":{
						"node":8,
						"path":"translation"
					}
				},
				{
					"sampler":7,
					"target":{
						"node":8,
						"path":"rotation"
					}
				},
				{
					"sampler":8,
					"target":{
						"node":8,
						"path":"scale"
					}
				},
				{
					"sampler":9,
					"target":{
						"node":1,
						"path":"translation"
					}
				},
				{
					"sampler":10,
					"target":{
						"node":1,
						"path":"rotation"
					}
				},
				{
					"sampler":11,
					"target":{
						"node":1,
						"path":"scale"
					}
				},
				{
					"sampler":12,
					"target":{
						"node":0,
						"path":"translation"
					}
				},
				{
					"sampler":13,
					"target":{
						"node":0,
						"path":"rotation"
					}
				},
				{
					"sampler":14,
					"target":{
						"node":0,
						"path":"scale"
					}
				},
				{
					"sampler":15,
					"target":{
						"node":4,
						"path":"translation"
					}
				},
				{
					"sampler":16,
					"target":{
						"node":4,
						"path":"rotation"
					}
				},
				{
					"sampler":17,
					"target":{
						"node":4,
						"path":"scale"
					}
				},
				{
					"sampler":18,
					"target":{
						"node":3,
						"path":"translation"
					}
				},
				{
					"sampler":19,
					"target":{
						"node":3,
						"path":"rotation"
					}
				},
				{
					"sampler":20,
					"target":{
						"node":3,
						"path":"scale"
					}
				},
				{
					"sampler":21,
					"target":{
						"node":2,
						"path":"translation"
					}
				},
				{
					"sampler":22,
					"target":{
						"node":2,
						"path":"rotation"
					}
				},
				{
					"sampler":23,
					"target":{
						"node":2,
						"path":"scale"
					}
				},
				{
					"sampler":24,
					"target":{
						"node":7,
						"path":"translation"
					}
				},
				{
					"sampler":25,
					"target":{
						"node":7,
						"path":"rotation"
					}
				},
				{
					"sampler":26,
					"target":{
						"node":7,
						"path":"scale"
					}
				},
				{
					"sampler":27,
					"target":{
						"node":6,
						"path":"translation"
					}
				},
				{
					"sampler":28,
					"target":{
						"node":6,
						"path":"rotation"
					}
				},
				{
					"sampler":29,
					"target":{
						"node":6,
						"path":"scale"
					}
				},
				{
					"sampler":30,
					"target":{
						"node":5,
						"path":"translation"
					}
				},
				{
					"sampler":31,
					"target":{
						"node":5,
						"path":"rotation"
					}
				},
				{
					"sampler":32,
					"target":{
						"node":5,
						"path":"scale"
					}
				},
				{
					"sampler":33,
					"target":{
						"node":12,
						"path":"translation"
					}
				},
				{
					"sampler":34,
					"target":{
						"node":12,
						"path":"rotation"
					}
				},
				{
					"sampler":35,
					"target":{
						"node":12,
						"path":"scale"
					}
				},
				{
					"sampler":36,
					"target":{
						"node":11,
						"path":"translation"
					}
				},
				{
					"sampler":37,
					"target":{
						"node":11,
						"path":"rotation"
					}
				},
				{
					"sampler":38,
					"target":{
						"node":11,
						"path":"scale"
					}
				},
				{
					"sampler":39,
					"target":{
						"node":10,
						"path":"translation"
					}
				},
				{
					"sampler":40,
					"target":{
						"node":10,
						"path":"rotation"
					}
				},
				{
					"sampler":41,
					"target":{
						"node":10,
						"path":"scale"
					}
				},
				{
					"sampler":42,
					"target":{
						"node":15,
						"path":"translation"
					}
				},
				{
					"sampler":43,
					"target":{
						"node":15,
						"path":"rotation"
					}
				},
				{
					"sampler":44,
					"target":{
						"node":15,
						"path":"scale"
					}
				},
				{
					"sampler":45,
					"target":{
						"node":14,
						"path":"translation"
					}
				},
				{
					"sampler":46,
					"target":{
						"node":14,
						"path":"rotation"
					}
				},
				{
					"sampler":47,
					"target":{
						"node":14,
						"path":"scale"
					}
				},
				{
					"sampler":48,
					"target":{
						"node":13,
						"path":"translation"
					}
				},
				{
					"sampler":49,
					"target":{
						"node":13,
						"path":"rotation"
					}
				},
				{
					"sampler":50,
					"target":{
						"node":13,
						"path":"scale"
					}
				}
			],
			"name":"attack",
			"samplers":[
				{
					"input":78,
					"interpolation":"STEP",
					"output":79
				},
				{
					"input":78,
					"interpolation":"STEP",
					"output":80
				},
				{
					"input":78,
					"interpolation":"STEP",
					"output":81
				},
				{
					"input":78,
					"interpolation":"STEP",
					"output":82
				},
				{
					"input":78,
					"interpolation":"STEP",
					"output":83
				},
				{
					"input":78,
					"interpolation":"STEP",
					"output":84
				},
				{
					"input":78,
					"interpolation":"STEP",
					"output":85
				},
				{
					"input":86,
					"interpolation":"LINEAR",
					"output":87
				},
				{
					"input":78,
					"interpolation":"STEP",
					"output":88
				},
				{
					"input":78,
					"interpolation":"STEP",
					"output":89
				},
				{
					"input":78,
					"interpolation":"STEP",
					"output":90
				},
				{
					"input":78,
					"interpolation":"STEP",
					"output":91
				},
				{
					"input":78,
					"interpolation":"STEP",
					"output":92
				},
				{
					"input":78,
					"interpolation":"STEP",
					"output":93
				},
				{
					"input":78,
					"interpolation":"STEP",
					"output":94
				},
				{
					"input":78,
					"interpolation":"STEP",
					"output":95
				},
				{
					"input":86,
					"interpolation":"LINEAR",
					"output":96
				},
				{
					"input":78,
					"interpolation":"STEP",
					"output":97
				},
				{
					"input":78,
					"interpolation":"STEP",
					"output":98
				},
				{
					"input":86,
					"interpolation":"LINEAR",
					"output":99
				},
				{
					"input":78,
					"interpolation":"STEP",
					"output":100
				},
				{
					"input":78,
					"interpolation":"STEP",
					"output":101
				},
				{
					"input":78,
					"interpolation":"STEP",
					"output":102
				},
				{
					"input":78,
					"interpolation":"STEP",
					"output":103
				},
				{
					"input":78,
					"interpolation":"STEP",
					"output":104
				},
				{
					"input":86,
					"interpolation":"LINEAR",
					"output":105
				},
				{
					"input":78,
					"interpolation":"STEP",
					"output":106
				},
				{
					"input":78,
					"interpolation":"STEP",
					"output":107
				},
				{
					"input":78,
					"interpolation":"STEP",
					"output":108
				},
				{
					"input":78,
					"interpolation":"STEP",
					"output":109
				},
				{
					"input":78,
					"interpolation":"STEP",
					"output":110
				},
				{
					"input":78,
					"interpolation":"STEP",
					"output":111
				},
				{
					"input":78,
					"interpolation":"STEP",
					"output":112
				},
				{
					"input":78,
					"interpolation":"STEP",
					"output":113
				},
				{
					"input":86,
					"interpolation":"LINEAR",
					"output":114
				},
				{
					"input":78,
					"interpolation":"STEP",
					"output":115
				},
				{
					"input":78,
					"interpolation":"LINEAR",
					"output":116
				},
				{
					"input":78,
					"interpolation":"LINEAR",
					"output":117
				},
				{
					"input":78,
					"interpolation":"STEP",
					"output":118
				},
				{
					"input":78,
					"interpolation":"LINEAR",
					"output":119
				},
				{
					"input":78,
					"interpolation":"LINEAR",
					"output":120
				},
				{
					"input":78,
					"interpolation":"STEP",
					"output":121
				},
				{
					"input":78,
					"interpolation":"STEP",
					"output":122
				},
				{
					"input":86,
					"interpolation":"LINEAR",
					"output":123
				},
				{
					"input":78,
					"interpolation":"STEP",
					"output":124
				},
				{
					"input":78,
					"interpolation":"LINEAR",
					"output":125
				},
				{
					"input":78,
					"interpolation":"LINEAR",
					"output":126
				},
				{
					"input":78,
					"interpolation":"STEP",
					"output":127
				},
				{
					"input":78,
					"interpolation":"LINEAR",
					"output":128
				},
				{
					"input":78,
					"interpolation":"LINEAR",
					"output":129
				},
				{
					"input":78,
					"interpolation":"STEP",
					"output":130
				}
			]
		},
		{
			"channels":[
				{
					"sampler":0,
					"target":{
						"node":16,
						"path":"translation"
					}
				},
				{
					"sampler":1,
					"target":{
						"node":16,
						"path":"rotation"
					}
				},
				{
					"sampler":2,
					"target":{
						"node":16,
						"path":"scale"
					}
				},
				{
					"sampler":3,
					"target":{
						"node":9,
						"path":"translation"
					}
				},
				{
					"sampler":4,
					"target":{
						"node":9,
						"path":"rotation"
					}
				},
				{
					"sampler":5,
					"target":{
						"node":9,
						"path":"scale"
					}
				},
				{
					"sampler":6,
					"target":{
						"node":8,
						"path":"translation"
					}
				},
				{
					"sampler":7,
					"target":{
						"node":8,
						"path":"rotation"
					}
				},
				{
					"sampler":8,
					"target":{
						"node":8,
						"path":"scale"
					}
				},
				{
					"sampler":9,
					"target":{
						"node":1,
						"path":"translation"
					}
				},
				{
					"sampler":10,
					"target":{
						"node":1,
						"path":"rotation"
					}
				},
				{
					"sampler":11,
					"target":{
						"node":1,
						"path":"scale"
					}
				},
				{
					"sampler":12,
					"target":{
						"node":0,
						"path":"translation"
					}
				},
				{
					"sampler":13,
					"target":{
						"node":0,
						"path":"rotation"
					}
				},
				{
					"sampler":14,
					"target":{
						"node":0,
						"path":"scale"
					}
				},
				{
					"sampler":15,
					"target":{
						"node":4,
						"path":"translation"
					}
				},
				{
					"sampler":16,
					"target":{
						"node":4,
						"path":"rotation"
					}
				},
				{
					"sampler":17,
					"target":{
						"node":4,
						"path":"scale"
					}
				},
				{
					"sampler":18,
					"target":{
						"node":3,
						"path":"translation"
					}
				},
				{
					"sampler":19,
					"target":{
						"node":3,
						"path":"rotation"
					}
				},
				{
					"sampler":20,
					"target":{
						"node":3,
						"path":"scale"
					}
				},
				{
					"sampler":21,
					"target":{
						"node":2,
						"path":"translation"
					}
				},
				{
					"sampler":22,
					"target":{
						"node":2,
						"path":"rotation"
					}
				},
				{
					"sampler":23,
					"target":{
						"node":2,
						"path":"scale"
					}
				},
				{
					"sampler":24,
					"target":{
						"node":7,
						"path":"translation"
					}
				},
				{
					"sampler":25,
					"target":{
						"node":7,
						"path":"rotation"
					}
				},
				{
					"sampler":26,
					"target":{
						"node":7,
						"path":"scale"
					}
				},
				{
					"sampler":27,
					"target":{
						"node":6,
						"path":"translation"
					}
				},
				{
					"sampler":28,
					"target":{
						"node":6,
						"path":"rotation"
					}
				},
				{
					"sampler":29,
					"target":{
						"node":6,
						"path":"scale"
					}
				},
				{
					"sampler":30,
					"target":{
						"node":5,
						"path":"translation"
					}
				},
				{
					"sampler":31,
					"target":{
						"node":5,
						"path":"rotation"
					}
				},
				{
					"sampler":32,
					"target":{
						"node":5,
						"path":"scale"
					}
				},
				{
					"sampler":33,
					"target":{
						"node":12,
						"path":"translation"
					}
				},
				{
					"sampler":34,
					"target":{
						"node":12,
						"path":"rotation"
					}
				},
				{
					"sampler":35,
					"target":{
						"node":12,
						"path":"scale"
					}
				},
				{
					"sampler":36,
					"target":{
						"node":11,
						"path":"translation"
					}
				},
				{
					"sampler":37,
					"target":{
						"node":11,
						"path":"rotation"
					}
				},
				{
					"sampler":38,
					"target":{
						"node":11,
						"path":"scale"
					}
				},
				{
					"sampler":39,
					"target":{
						"node":10,
						"path":"translation"
					}
				},
				{
					"sampler":40,
					"target":{
						"node":10,
						"path":"rotation"
					}
				},
				{
					"sampler":41,
					"target":{
						"node":10,
						"path":"scale"
					}
				},
				{
					"sampler":42,
					"target":{
						"node":15,
						"path":"translation"
					}
				},
				{
					"sampler":43,
					"target":{
						"node":15,
						"path":"rotation"
					}
				},
				{
					"sampler":44,
					"target":{
						"node":15,
						"path":"scale"
					}
				},
				{
					"sampler":45,
					"target":{
						"node":14,
						"path":"translation"
					}
				},
				{
					"sampler":46,
					"target":{
						"node":14,
						"path":"rotation"
					}
				},
				{
					"sampler":47,
					"target":{
						"node":14,
						"path":"scale"
					}
				},
				{
					"sampler":48,
					"target":{
						"node":13,
						"path":"translation"
					}
				},
				{
					"sampler":49,
					"target":{
						"node":13,
						"path":"rotation"
					}
				},
				{
					"sampler":50,
					"target":{
						"node":13,
						"path":"scale"
					}
				}
			],
			"name":"idle",
			"samplers":[
				{
					"input":131,
					"interpolation":"LINEAR",
					"output":132
				},
				{
					"input":133,
					"interpolation":"STEP",
					"output":134
				},
				{
					"input":133,
					"interpolation":"STEP",
					"output":135
				},
				{
					"input":133,
					"interpolation":"STEP",
					"output":136
				},
				{
					"input":133,
					"interpolation":"STEP",
					"output":137
				},
				{
					"input":133,
					"interpolation":"STEP",
					"output":138
				},
				{
					"input":133,
					"interpolation":"STEP",
					"output":139
				},
				{
					"input":131,
					"interpolation":"LINEAR",
					"output":140
				},
				{
					"input":133,
					"interpolation":"STEP",
					"output":141
				},
				{
					"input":133,
					"interpolation":"STEP",
					"output":142
				},
				{
					"input":133,
					"interpolation":"STEP",
					"output":143
				},
				{
					"input":133,
					"interpolation":"STEP",
					"output":144
				},
				{
					"input":133,
					"interpolation":"STEP",
					"output":145
				},
				{
					"input":131,
					"interpolation":"LINEAR",
					"output":146
				},
				{
					"input":133,
					"interpolation":"STEP",
					"output":147
				},
				{
					"input":133,
					"interpolation":"STEP",
					"output":148
				},
				{
					"input":131,
					"interpolation":"LINEAR",
					"output":149
				},
				{
					"input":133,
					"interpolation":"STEP",
					"output":150
				},
				{
					"input":133,
					"interpolation":"STEP",
					"output":151
				},
				{
					"input":133,
					"interpolation":"STEP",
					"output":152
				},
				{
					"input":133,
					"interpolation":"STEP",
					"output":153
				},
				{
					"input":133,
					"interpolation":"STEP",
					"output":154
				},
				{
					"input":133,
					"interpolation":"STEP",
					"output":155
				},
				{
					"input":133,
					"interpolation":"STEP",
					"output":156
				},
				{
					"input":133,
					"interpolation":"STEP",
					"output":157
				},
				{
					"input":131,
					"interpolation":"LINEAR",
					"output":158
				},
				{
					"input":133,
					"interpolation":"STEP",
					"output":159
				},
				{
					"input":133,
					"interpolation":"STEP",
					"output":160
				},
				{
					"input":133,
					"interpolation":"STEP",
					"output":161
				},
				{
					"input":133,
					"interpolation":"STEP",
					"output":162
				},
				{
					"input":133,
					"interpolation":"STEP",
					"output":163
				},
				{
					"input":133,
					"interpolation":"STEP",
					"output":164
				},
				{
					"input":133,
					"interpolation":"STEP",
					"output":165
				},
				{
					"input":133,
					"interpolation":"STEP",
					"output":166
				},
				{
					"input":133,
					"interpolation":"STEP",
					"output":167
				},
				{
					"input":133,
					"interpolation":"STEP",
					"output":168
				},
				{
					"input":133,
					"interpolation":"STEP",
					"output":169
				},
				{
					"input":133,
					"interpolation":"STEP",
					"output":170
				},
				{
					"input":133,
					"interpolation":"STEP",
					"output":171
				},
				{
					"input":133,
					"interpolation":"STEP",
					"output":172
				},
				{
					"input":133,
					"interpolation":"STEP",
					"output":173
				},
				{
					"input":133,
					"interpolation":"STEP",
					"output":174
				},
				{
					"input":133,
					"interpolation":"STEP",
					"output":175
				},
				{
					"input":133,
					"interpolation":"STEP",
					"output":176
				},
				{
					"input":133,
					"interpolation":"STEP",
					"output":177
				},
				{
					"input":133,
					"interpolation":"STEP",
					"output":178
				},
				{
					"input":133,
					"interpolation":"STEP",
					"output":179
				},
				{
					"input":133,
					"interpolation":"STEP",
					"output":180
				},
				{
					"input":133,
					"interpolation":"STEP",
					"output":181
				},
				{
					"input":133,
					"interpolation":"STEP",
					"output":182
				},
				{
					"input":133,
					"interpolation":"STEP",
					"output":183
				}
			]
		},
		{
			"channels":[
				{
					"sampler":0,
					"target":{
						"node":16,
						"path":"translation"
					}
				},
				{
					"sampler":1,
					"target":{
						"node":16,
						"path":"rotation"
					}
				},
				{
					"sampler":2,
					"target":{
						"node":16,
						"path":"scale"
					}
				},
				{
					"sampler":3,
					"target":{
						"node":9,
						"path":"translation"
					}
				},
				{
					"sampler":4,
					"target":{
						"node":9,
						"path":"rotation"
					}
				},
				{
					"sampler":5,
					"target":{
						"node":9,
						"path":"scale"
					}
				},
				{
					"sampler":6,
					"target":{
						"node":8,
						"path":"translation"
					}
				},
				{
					"sampler":7,
					"target":{
						"node":8,
						"path":"rotation"
					}
				},
				{
					"sampler":8,
					"target":{
						"node":8,
						"path":"scale"
					}
				},
				{
					"sampler":9,
					"target":{
						"node":1,
						"path":"translation"
					}
				},
				{
					"sampler":10,
					"target":{
						"node":1,
						"path":"rotation"
					}
				},
				{
					"sampler":11,
					"target":{
						"node":1,
						"path":"scale"
					}
				},
				{
					"sampler":12,
					"target":{
						"node":0,
						"path":"translation"
					}
				},
				{
					"sampler":13,
					"target":{
						"node":0,
						"path":"rotation"
					}
				},
				{
					"sampler":14,
					"target":{
						"node":0,
						"path":"scale"
					}
				},
				{
					"sampler":15,
					"target":{
						"node":4,
						"path":"translation"
					}
				},
				{
					"sampler":16,
					"target":{
						"node":4,
						"path":"rotation"
					}
				},
				{
					"sampler":17,
					"target":{
						"node":4,
						"path":"scale"
					}
				},
				{
					"sampler":18,
					"target":{
						"node":3,
						"path":"translation"
					}
				},
				{
					"sampler":19,
					"target":{
						"node":3,
						"path":"rotation"
					}
				},
				{
					"sampler":20,
					"target":{
						"node":3,
						"path":"scale"
					}
				},
				{
					"sampler":21,
					"target":{
						"node":2,
						"path":"translation"
					}
				},
				{
					"sampler":22,
					"target":{
						"node":2,
						"path":"rotation"
					}
				},
				{
					"sampler":23,
					"target":{
						"node":2,
						"path":"scale"
					}
				},
				{
					"sampler":24,
					"target":{
						"node":7,
						"path":"translation"
					}
				},
				{
					"sampler":25,
					"target":{
						"node":7,
						"path":"rotation"
					}
				},
				{
					"sampler":26,
					"target":{
						"node":7,
						"path":"scale"
					}
				},
				{
					"sampler":27,
					"target":{
						"node":6,
						"path":"translation"
					}
				},
				{
					"sampler":28,
					"target":{
						"node":6,
						"path":"rotation"
					}
				},
				{
					"sampler":29,
					"target":{
						"node":6,
						"path":"scale"
					}
				},
				{
					"sampler":30,
					"target":{
						"node":5,
						"path":"translation"
					}
				},
				{
					"sampler":31,
					"target":{
						"node":5,
						"path":"rotation"
					}
				},
				{
					"sampler":32,
					"target":{
						"node":5,
						"path":"scale"
					}
				},
				{
					"sampler":33,
					"target":{
						"node":12,
						"path":"translation"
					}
				},
				{
					"sampler":34,
					"target":{
						"node":12,
						"path":"rotation"
					}
				},
				{
					"sampler":35,
					"target":{
						"node":12,
						"path":"scale"
					}
				},
				{
					"sampler":36,
					"target":{
						"node":11,
						"path":"translation"
					}
				},
				{
					"sampler":37,
					"target":{
						"node":11,
						"path":"rotation"
					}
				},
				{
					"sampler":38,
					"target":{
						"node":11,
						"path":"scale"
					}
				},
				{
					"sampler":39,
					"target":{
						"node":10,
						"path":"translation"
					}
				},
				{
					"sampler":40,
					"target":{
						"node":10,
						"path":"rotation"
					}
				},
				{
					"sampler":41,
					"target":{
						"node":10,
						"path":"scale"
					}
				},
				{
					"sampler":42,
					"target":{
						"node":15,
						"path":"translation"
					}
				},
				{
					"sampler":43,
					"target":{
						"node":15,
						"path":"rotation"
					}
				},
				{
					"sampler":44,
					"target":{
						"node":15,
						"path":"scale"
					}
				},
				{
					"sampler":45,
					"target":{
						"node":14,
						"path":"translation"
					}
				},
				{
					"sampler":46,
					"target":{
						"node":14,
						"path":"rotation"
					}
				},
				{
					"sampler":47,
					"target":{
						"node":14,
						"path":"scale"
					}
				},
				{
					"sampler":48,
					"target":{
						"node":13,
						"path":"translation"
					}
				},
				{
					"sampler":49,
					"target":{
						"node":13,
						"path":"rotation"
					}
				},
				{
					"sampler":50,
					"target":{
						"node":13,
						"path":"scale"
					}
				}
			],
			"name":"walk",
			"samplers":[
				{
					"input":184,
					"interpolation":"LINEAR",
					"output":185
				},
				{
					"input":184,
					"interpolation":"LINEAR",
					"output":186
				},
				{
					"input":187,
					"interpolation":"STEP",
					"output":188
				},
				{
					"input":187,
					"interpolation":"STEP",
					"output":189
				},
				{
					"input":187,
					"interpolation":"STEP",
					"output":190
				},
				{
					"input":187,
					"interpolation":"STEP",
					"output":191
				},
				{
					"input":187,
					"interpolation":"STEP",
					"output":192
				},
				{
					"input":184,
					"interpolation":"LINEAR",
					"output":193
				},
				{
					"input":187,
					"interpolation":"STEP",
					"output":194
				},
				{
					"input":187,
					"interpolation":"STEP",
					"output":195
				},
				{
					"input":187,
					"interpolation":"STEP",
					"output":196
				},
				{
					"input":187,
					"interpolation":"STEP",
					"output":197
				},
				{
					"input":187,
					"interpolation":"STEP",
					"output":198
				},
				{
					"input":187,
					"interpolation":"STEP",
					"output":199
				},
				{
					"input":187,
					"interpolation":"STEP",
					"output":200
				},
				{
					"input":187,
					"interpolation":"STEP",
					"output":201
				},
				{
					"input":184,
					"interpolation":"LINEAR",
					"output":202
				},
				{
					"input":187,
					"interpolation":"STEP",
					"output":203
				},
				{
					"input":187,
					"interpolation":"STEP",
					"output":204
				},
				{
					"input":187,
					"interpolation":"STEP",
					"output":205
				},
				{
					"input":187,
					"interpolation":"STEP",
					"output":206
				},
				{
					"input":187,
					"interpolation":"STEP",
					"output":207
				},
				{
					"input":187,
					"interpolation":"STEP",
					"output":208
				},
				{
					"input":187,
					"interpolation":"STEP",
					"output":209
				},
				{
					"input":187,
					"interpolation":"STEP",
					"output":210
				},
				{
					"input":184,
					"interpolation":"LINEAR",
					"output":211
				},
				{
					"input":187,
					"interpolation":"STEP",
					"output":212
				},
				{
					"input":187,
					"interpolation":"STEP",
					"output":213
				},
				{
					"input":187,
					"interpolation":"STEP",
					"output":214
				},
				{
					"input":187,
					"interpolation":"STEP",
					"output":215
				},
				{
					"input":187,
					"interpolation":"STEP",
					"output":216
				},
				{
					"input":187,
					"interpolation":"STEP",
					"output":217
				},
				{
					"input":187,
					"interpolation":"STEP",
					"output":218
				},
				{
					"input":187,
					"interpolation":"STEP",
					"output":219
				},
				{
					"input":184,
					"interpolation":"LINEAR",
					"output":220
				},
				{
					"input":187,
					"interpolation":"STEP",
					"output":221
				},
				{
					"input":187,
					"interpolation":"STEP",
					"output":222
				},
				{
					"input":184,
					"interpolation":"LINEAR",
					"output":223
				},
				{
					"input":187,
					"interpolation":"STEP",
					"output":224
				},
				{
					"input":187,
					"interpolation":"STEP",
					"output":225
				},
				{
					"input":184,
					"interpolation":"LINEAR",
					"output":226
				},
				{
					"input":187,
					"interpolation":"STEP",
					"output":227
				},
				{
					"input":187,
					"interpolation":"STEP",
					"output":228
				},
				{
					"input":184,
					"interpolation":"LINEAR",
					"output":229
				},
				{
					"input":187,
					"interpolation":"STEP",
					"output":230
				},
				{
					"input":187,
					"interpolation":"STEP",
					"output":231
				},
				{
					"input":184,
					"interpolation":"LINEAR",
					"output":232
				},
				{
					"input":187,
					"interpolation":"STEP",
					"output":233
				},
				{
					"input":187,
					"interpolation":"STEP",
					"output":234
				},
				{
					"input":184,
					"interpolation":"LINEAR",
					"output":235
				},
				{
					"input":187,
					"interpolation":"STEP",
					"output":236
				}
			]
		}
	],
	"materials":[
		{
			"name":"skin",
			"normalTexture":{
				"index":0,
				"scale":0.4000000059604645
			},
			"pbrMetallicRoughness":{
				"baseColorFactor":[
					0.7874122858047485,
					0.47699978947639465,
					0.31854677200317383,
					1
				],
				"metallicFactor":0,
				"roughnessFactor":0.550000011920929
			}
		},
		{
			"extensions":{
				"KHR_materials_sheen":{
					"sheenColorFactor":[
						1.0,
						1.0,
						1.0
					],
					"sheenRoughnessFactor":0.5
				}
			},
			"name":"hair",
			"normalTexture":{
				"index":1,
				"scale":0.800000011920929
			},
			"pbrMetallicRoughness":{
				"baseColorFactor":[
					0.17064493894577026,
					0.05087608844041824,
					0.0134117491543293,
					1
				],
				"metallicFactor":0,
				"roughnessFactor":0.44999998807907104
			}
		},
		{
			"extensions":{
				"KHR_materials_sheen":{
					"sheenColorFactor":[
						1.0,
						1.0,
						1.0
					],
					"sheenRoughnessFactor":0.5
				}
			},
			"name":"outfit",
			"normalTexture":{
				"index":2,
				"scale":0.6000000238418579
			},
			"pbrMetallicRoughness":{
				"baseColorFactor":[
					0.17064493894577026,
					0.07323895394802094,
					0.03310476616024971,
					1
				],
				"metallicFactor":0,
				"roughnessFactor":0.75
			}
		},
		{
			"name":"outfit2",
			"normalTexture":{
				"index":3,
				"scale":0.4000000059604645
			},
			"pbrMetallicRoughness":{
				"baseColorFactor":[
					0.07323895394802094,
					0.07323895394802094,
					0.07323895394802094,
					1
				],
				"metallicFactor":0,
				"roughnessFactor":0.6000000238418579
			}
		},
		{
			"name":"pants",
			"normalTexture":{
				"index":4,
				"scale":0.6000000238418579
			},
			"pbrMetallicRoughness":{
				"baseColorFactor":[
					0.08088690787553787,
					0.036306485533714294,
					0.017389101907610893,
					1
				],
				"metallicFactor":0,
				"roughnessFactor":0.800000011920929
			}
		},
		{
			"extensions":{
				"KHR_materials_clearcoat":{
					"clearcoatFactor":0.30000001192092896
				}
			},
			"name":"boots",
			"normalTexture":{
				"index":5,
				"scale":0.800000011920929
			},
			"pbrMetallicRoughness":{
				"baseColorFactor":[
					0.0134117491543293,
					0.010022825561463833,
					0.010022825561463833,
					1
				],
				"metallicFactor":0,
				"roughnessFactor":0.44999998807907104
			}
		},
		{
			"name":"eye_white",
			"pbrMetallicRoughness":{
				"baseColorFactor":[
					0.8900054097175598,
					0.8900054097175598,
					0.8900054097175598,
					1
				],
				"metallicFactor":0,
				"roughnessFactor":0.20000000298023224
			}
		},
		{
			"emissiveFactor":[
				0.011763989275256348,
				0.011763989275256348,
				0.019862860485428957
			],
			"name":"iris",
			"pbrMetallicRoughness":{
				"baseColorFactor":[
					0.01960664801299572,
					0.01960664801299572,
					0.03310476616024971,
					1
				],
				"metallicFactor":0,
				"roughnessFactor":0.15000000596046448
			}
		},
		{
			"name":"pupil",
			"pbrMetallicRoughness":{
				"baseColorFactor":[
					0.0015479875728487968,
					0.0015479875728487968,
					0.0023219813592731953,
					1
				],
				"metallicFactor":0,
				"roughnessFactor":0.10000000149011612
			}
		},
		{
			"name":"lips",
			"pbrMetallicRoughness":{
				"baseColorFactor":[
					0.3546920716762543,
					0.21776217222213745,
					0.1473190039396286,
					1
				],
				"metallicFactor":0,
				"roughnessFactor":0.4000000059604645
			}
		},
		{
			"name":"buckle",
			"pbrMetallicRoughness":{
				"baseColorFactor":[
					0.6920710802078247,
					0.4479884207248688,
					0.07323895394802094,
					1
				],
				"metallicFactor":0.8999999761581421,
				"roughnessFactor":0.30000001192092896
			}
		},
		{
			"name":"blade",
			"normalTexture":{
				"index":6,
				"scale":0.30000001192092896
			},
			"pbrMetallicRoughness":{
				"baseColorFactor":[
					0.7484140992164612,
					0.7874122858047485,
					0.8900054097175598,
					1
				],
				"metallicFactor":0.550000011920929,
				"roughnessFactor":0.2199999988079071
			}
		},
		{
			"name":"handle",
			"normalTexture":{
				"index":7,
				"scale":0.6000000238418579
			},
			"pbrMetallicRoughness":{
				"baseColorFactor":[
					0.0134117491543293,
					0.007194409146904945,
					0.004896310158073902,
					1
				],
				"metallicFactor":0,
				"roughnessFactor":0.6000000238418579
			}
		}
	],
	"meshes":[
		{
			"name":"kaijin",
			"primitives":[
				{
					"attributes":{
						"POSITION":0,
						"NORMAL":1,
						"TEXCOORD_0":2,
						"JOINTS_0":3,
						"WEIGHTS_0":4
					},
					"indices":5,
					"material":0
				},
				{
					"attributes":{
						"POSITION":6,
						"NORMAL":7,
						"TEXCOORD_0":8,
						"JOINTS_0":9,
						"WEIGHTS_0":10
					},
					"indices":11,
					"material":1
				},
				{
					"attributes":{
						"POSITION":12,
						"NORMAL":13,
						"TEXCOORD_0":14,
						"JOINTS_0":15,
						"WEIGHTS_0":16
					},
					"indices":17,
					"material":2
				},
				{
					"attributes":{
						"POSITION":18,
						"NORMAL":19,
						"TEXCOORD_0":20,
						"JOINTS_0":21,
						"WEIGHTS_0":22
					},
					"indices":23,
					"material":3
				},
				{
					"attributes":{
						"POSITION":24,
						"NORMAL":25,
						"TEXCOORD_0":26,
						"JOINTS_0":27,
						"WEIGHTS_0":28
					},
					"indices":29,
					"material":4
				},
				{
					"attributes":{
						"POSITION":30,
						"NORMAL":31,
						"TEXCOORD_0":32,
						"JOINTS_0":33,
						"WEIGHTS_0":34
					},
					"indices":35,
					"material":5
				},
				{
					"attributes":{
						"POSITION":36,
						"NORMAL":37,
						"TEXCOORD_0":38,
						"JOINTS_0":39,
						"WEIGHTS_0":40
					},
					"indices":41,
					"material":6
				},
				{
					"attributes":{
						"POSITION":42,
						"NORMAL":43,
						"TEXCOORD_0":44,
						"JOINTS_0":45,
						"WEIGHTS_0":46
					},
					"indices":47,
					"material":7
				},
				{
					"attributes":{
						"POSITION":48,
						"NORMAL":49,
						"TEXCOORD_0":50,
						"JOINTS_0":51,
						"WEIGHTS_0":52
					},
					"indices":53,
					"material":8
				},
				{
					"attributes":{
						"POSITION":54,
						"NORMAL":55,
						"TEXCOORD_0":56,
						"JOINTS_0":57,
						"WEIGHTS_0":58
					},
					"indices":59,
					"material":9
				},
				{
					"attributes":{
						"POSITION":60,
						"NORMAL":61,
						"TEXCOORD_0":62,
						"JOINTS_0":63,
						"WEIGHTS_0":64
					},
					"indices":65,
					"material":10
				},
				{
					"attributes":{
						"POSITION":66,
						"NORMAL":67,
						"TEXCOORD_0":68,
						"JOINTS_0":69,
						"WEIGHTS_0":70
					},
					"indices":65,
					"material":11
				},
				{
					"attributes":{
						"POSITION":71,
						"NORMAL":72,
						"TEXCOORD_0":73,
						"JOINTS_0":74,
						"WEIGHTS_0":75
					},
					"indices":76,
					"material":12
				}
			]
		}
	],
	"textures":[
		{
			"sampler":0,
			"source":0
		},
		{
			"sampler":0,
			"source":1
		},
		{
			"sampler":0,
			"source":2
		},
		{
			"sampler":0,
			"source":2
		},
		{
			"sampler":0,
			"source":2
		},
		{
			"sampler":0,
			"source":3
		},
		{
			"sampler":0,
			"source":4
		},
		{
			"sampler":0,
			"source":3
		}
	],
	"images":[
		{
			"mimeType":"image/png",
			"name":"N_skin",
			"uri":"texturas/N_skin.png"
		},
		{
			"mimeType":"image/png",
			"name":"N_hair",
			"uri":"texturas/N_hair.png"
		},
		{
			"mimeType":"image/png",
			"name":"N_cloth",
			"uri":"texturas/N_cloth.png"
		},
		{
			"mimeType":"image/png",
			"name":"N_leather",
			"uri":"texturas/N_leather.png"
		},
		{
			"mimeType":"image/png",
			"name":"N_metal",
			"uri":"texturas/N_metal.png"
		}
	],
	"skins":[
		{
			"inverseBindMatrices":77,
			"joints":[
				16,
				9,
				8,
				1,
				0,
				4,
				3,
				2,
				7,
				6,
				5,
				12,
				11,
				10,
				15,
				14,
				13
			],
			"name":"kaijin_rig"
		}
	],
	"accessors":[
		{
			"bufferView":0,
			"componentType":5126,
			"count":1443,
			"max":[
				0.3342359960079193,
				1.337999939918518,
				0.08040942251682281
			],
			"min":[
				-0.33423590660095215,
				0.5883508920669556,
				-0.08705754578113556
			],
			"type":"VEC3"
		},
		{
			"bufferView":1,
			"componentType":5126,
			"count":1443,
			"type":"VEC3"
		},
		{
			"bufferView":2,
			"componentType":5126,
			"count":1443,
			"type":"VEC2"
		},
		{
			"bufferView":3,
			"componentType":5121,
			"count":1443,
			"type":"VEC4"
		},
		{
			"bufferView":4,
			"componentType":5126,
			"count":1443,
			"type":"VEC4"
		},
		{
			"bufferView":5,
			"componentType":5123,
			"count":5904,
			"type":"SCALAR"
		},
		{
			"bufferView":6,
			"componentType":5126,
			"count":3889,
			"max":[
				0.089591845870018,
				1.3583272695541382,
				0.103420689702034
			],
			"min":[
				-0.08791819959878922,
				1.0880180597305298,
				-0.08813740313053131
			],
			"type":"VEC3"
		},
		{
			"bufferView":7,
			"componentType":5126,
			"count":3889,
			"type":"VEC3"
		},
		{
			"bufferView":8,
			"componentType":5126,
			"count":3889,
			"type":"VEC2"
		},
		{
			"bufferView":9,
			"componentType":5121,
			"count":3889,
			"type":"VEC4"
		},
		{
			"bufferView":10,
			"componentType":5126,
			"count":3889,
			"type":"VEC4"
		},
		{
			"bufferView":11,
			"componentType":5123,
			"count":11568,
			"type":"SCALAR"
		},
		{
			"bufferView":12,
			"componentType":5126,
			"count":1081,
			"max":[
				0.3404034674167633,
				1.10152006149292,
				0.14553052186965942
			],
			"min":[
				-0.3404034674167633,
				0.6945899724960327,
				-0.14679013192653656
			],
			"type":"VEC3"
		},
		{
			"bufferView":13,
			"componentType":5126,
			"count":1081,
			"type":"VEC3"
		},
		{
			"bufferView":14,
			"componentType":5126,
			"count":1081,
			"type":"VEC2"
		},
		{
			"bufferView":15,
			"componentType":5121,
			"count":1081,
			"type":"VEC4"
		},
		{
			"bufferView":16,
			"componentType":5126,
			"count":1081,
			"type":"VEC4"
		},
		{
			"bufferView":17,
			"componentType":5123,
			"count":4848,
			"type":"SCALAR"
		},
		{
			"bufferView":18,
			"componentType":5126,
			"count":60,
			"max":[
				0.14815491437911987,
				0.7590957283973694,
				0.14979851245880127
			],
			"min":[
				-0.14815491437911987,
				0.6587788462638855,
				-0.1508050262928009
			],
			"type":"VEC3"
		},
		{
			"bufferView":19,
			"componentType":5126,
			"count":60,
			"type":"VEC3"
		},
		{
			"bufferView":20,
			"componentType":5126,
			"count":60,
			"type":"VEC2"
		},
		{
			"bufferView":21,
			"componentType":5121,
			"count":60,
			"type":"VEC4"
		},
		{
			"bufferView":22,
			"componentType":5126,
			"count":60,
			"type":"VEC4"
		},
		{
			"bufferView":23,
			"componentType":5123,
			"count":168,
			"type":"SCALAR"
		},
		{
			"bufferView":24,
			"componentType":5126,
			"count":675,
			"max":[
				0.3359944224357605,
				0.7121298313140869,
				0.14880205690860748
			],
			"min":[
				-0.3359944224357605,
				0.21860194206237793,
				-0.14993268251419067
			],
			"type":"VEC3"
		},
		{
			"bufferView":25,
			"componentType":5126,
			"count":675,
			"type":"VEC3"
		},
		{
			"bufferView":26,
			"componentType":5126,
			"count":675,
			"type":"VEC2"
		},
		{
			"bufferView":27,
			"componentType":5121,
			"count":675,
			"type":"VEC4"
		},
		{
			"bufferView":28,
			"componentType":5126,
			"count":675,
			"type":"VEC4"
		},
		{
			"bufferView":29,
			"componentType":5123,
			"count":2808,
			"type":"SCALAR"
		},
		{
			"bufferView":30,
			"componentType":5126,
			"count":874,
			"max":[
				0.1698378324508667,
				0.2241116613149643,
				0.06924931704998016
			],
			"min":[
				-0.1698378622531891,
				0.005702693480998278,
				-0.105089470744133
			],
			"type":"VEC3"
		},
		{
			"bufferView":31,
			"componentType":5126,
			"count":874,
			"type":"VEC3"
		},
		{
			"bufferView":32,
			"componentType":5126,
			"count":874,
			"type":"VEC2"
		},
		{
			"bufferView":33,
			"componentType":5121,
			"count":874,
			"type":"VEC4"
		},
		{
			"bufferView":34,
			"componentType":5126,
			"count":874,
			"type":"VEC4"
		},
		{
			"bufferView":35,
			"componentType":5123,
			"count":3840,
			"type":"SCALAR"
		},
		{
			"bufferView":36,
			"componentType":5126,
			"count":304,
			"max":[
				0.03824999928474426,
				1.2648749351501465,
				-0.05250000208616257
			],
			"min":[
				-0.03824999928474426,
				1.2476249933242798,
				-0.06599999964237213
			],
			"type":"VEC3"
		},
		{
			"bufferView":37,
			"componentType":5126,
			"count":304,
			"type":"VEC3"
		},
		{
			"bufferView":38,
			"componentType":5126,
			"count":304,
			"type":"VEC2"
		},
		{
			"bufferView":39,
			"componentType":5121,
			"count":304,
			"type":"VEC4"
		},
		{
			"bufferView":40,
			"componentType":5126,
			"count":304,
			"type":"VEC4"
		},
		{
			"bufferView":41,
			"componentType":5123,
			"count":1152,
			"type":"SCALAR"
		},
		{
			"bufferView":42,
			"componentType":5126,
			"count":220,
			"max":[
				0.032624997198581696,
				1.2635999917984009,
				-0.06091518700122833
			],
			"min":[
				-0.032624997198581696,
				1.2488999366760254,
				-0.06733481585979462
			],
			"type":"VEC3"
		},
		{
			"bufferView":43,
			"componentType":5126,
			"count":220,
			"type":"VEC3"
		},
		{
			"bufferView":44,
			"componentType":5126,
			"count":220,
			"type":"VEC2"
		},
		{
			"bufferView":45,
			"componentType":5121,
			"count":220,
			"type":"VEC4"
		},
		{
			"bufferView":46,
			"componentType":5126,
			"count":220,
			"type":"VEC4"
		},
		{
			"bufferView":47,
			"componentType":5123,
			"count":720,
			"type":"SCALAR"
		},
		{
			"bufferView":48,
			"componentType":5126,
			"count":160,
			"max":[
				0.028495827689766884,
				1.25962495803833,
				-0.06517341732978821
			],
			"min":[
				-0.028495827689766884,
				1.2528750896453857,
				-0.0680265873670578
			],
			"type":"VEC3"
		},
		{
			"bufferView":49,
			"componentType":5126,
			"count":160,
			"type":"VEC3"
		},
		{
			"bufferView":50,
			"componentType":5126,
			"count":160,
			"type":"VEC2"
		},
		{
			"bufferView":51,
			"componentType":5121,
			"count":160,
			"type":"VEC4"
		},
		{
			"bufferView":52,
			"componentType":5126,
			"count":160,
			"type":"VEC4"
		},
		{
			"bufferView":53,
			"componentType":5123,
			"count":480,
			"type":"SCALAR"
		},
		{
			"bufferView":54,
			"componentType":5126,
			"count":98,
			"max":[
				0.014249999076128006,
				1.2056249380111694,
				-0.058290183544158936
			],
			"min":[
				-0.014249999076128006,
				1.1988749504089355,
				-0.06470981985330582
			],
			"type":"VEC3"
		},
		{
			"bufferView":55,
			"componentType":5126,
			"count":98,
			"type":"VEC3"
		},
		{
			"bufferView":56,
			"componentType":5126,
			"count":98,
			"type":"VEC2"
		},
		{
			"bufferView":57,
			"componentType":5121,
			"count":98,
			"type":"VEC4"
		},
		{
			"bufferView":58,
			"componentType":5126,
			"count":98,
			"type":"VEC4"
		},
		{
			"bufferView":59,
			"componentType":5123,
			"count":360,
			"type":"SCALAR"
		},
		{
			"bufferView":60,
			"componentType":5126,
			"count":24,
			"max":[
				0.01875000074505806,
				0.7275000214576721,
				-0.10256250202655792
			],
			"min":[
				-0.01875000074505806,
				0.6974999904632568,
				-0.11156250536441803
			],
			"type":"VEC3"
		},
		{
			"bufferView":61,
			"componentType":5126,
			"count":24,
			"type":"VEC3"
		},
		{
			"bufferView":62,
			"componentType":5126,
			"count":24,
			"type":"VEC2"
		},
		{
			"bufferView":63,
			"componentType":5121,
			"count":24,
			"type":"VEC4"
		},
		{
			"bufferView":64,
			"componentType":5126,
			"count":24,
			"type":"VEC4"
		},
		{
			"bufferView":65,
			"componentType":5123,
			"count":36,
			"type":"SCALAR"
		},
		{
			"bufferView":66,
			"componentType":5126,
			"count":24,
			"max":[
				0.3578700125217438,
				1.087499976158142,
				0.07124999910593033
			],
			"min":[
				0.28286999464035034,
				1.0125000476837158,
				-0.10875000059604645
			],
			"type":"VEC3"
		},
		{
			"bufferView":67,
			"componentType":5126,
			"count":24,
			"type":"VEC3"
		},
		{
			"bufferView":68,
			"componentType":5126,
			"count":24,
			"type":"VEC2"
		},
		{
			"bufferView":69,
			"componentType":5121,
			"count":24,
			"type":"VEC4"
		},
		{
			"bufferView":70,
			"componentType":5126,
			"count":24,
			"type":"VEC4"
		},
		{
			"bufferView":71,
			"componentType":5126,
			"count":42,
			"max":[
				0.3316199779510498,
				1.0124999284744263,
				-0.007499999366700649
			],
			"min":[
				0.3091199994087219,
				0.5249999761581421,
				-0.029999999329447746
			],
			"type":"VEC3"
		},
		{
			"bufferView":72,
			"componentType":5126,
			"count":42,
			"type":"VEC3"
		},
		{
			"bufferView":73,
			"componentType":5126,
			"count":42,
			"type":"VEC2"
		},
		{
			"bufferView":74,
			"componentType":5121,
			"count":42,
			"type":"VEC4"
		},
		{
			"bufferView":75,
			"componentType":5126,
			"count":42,
			"type":"VEC4"
		},
		{
			"bufferView":76,
			"componentType":5123,
			"count":96,
			"type":"SCALAR"
		},
		{
			"bufferView":77,
			"componentType":5126,
			"count":17,
			"type":"MAT4"
		},
		{
			"bufferView":78,
			"componentType":5126,
			"count":2,
			"max":[
				0.6
			],
			"min":[
				0
			],
			"type":"SCALAR"
		},
		{
			"bufferView":79,
			"componentType":5126,
			"count":2,
			"type":"VEC3"
		},
		{
			"bufferView":80,
			"componentType":5126,
			"count":2,
			"type":"VEC4"
		},
		{
			"bufferView":81,
			"componentType":5126,
			"count":2,
			"type":"VEC3"
		},
		{
			"bufferView":82,
			"componentType":5126,
			"count":2,
			"type":"VEC3"
		},
		{
			"bufferView":83,
			"componentType":5126,
			"count":2,
			"type":"VEC4"
		},
		{
			"bufferView":84,
			"componentType":5126,
			"count":2,
			"type":"VEC3"
		},
		{
			"bufferView":85,
			"componentType":5126,
			"count":2,
			"type":"VEC3"
		},
		{
			"bufferView":86,
			"componentType":5126,
			"count":19,
			"max":[
				0.6
			],
			"min":[
				0
			],
			"type":"SCALAR"
		},
		{
			"bufferView":87,
			"componentType":5126,
			"count":19,
			"type":"VEC4"
		},
		{
			"bufferView":88,
			"componentType":5126,
			"count":2,
			"type":"VEC3"
		},
		{
			"bufferView":89,
			"componentType":5126,
			"count":2,
			"type":"VEC3"
		},
		{
			"bufferView":90,
			"componentType":5126,
			"count":2,
			"type":"VEC4"
		},
		{
			"bufferView":91,
			"componentType":5126,
			"count":2,
			"type":"VEC3"
		},
		{
			"bufferView":92,
			"componentType":5126,
			"count":2,
			"type":"VEC3"
		},
		{
			"bufferView":93,
			"componentType":5126,
			"count":2,
			"type":"VEC4"
		},
		{
			"bufferView":94,
			"componentType":5126,
			"count":2,
			"type":"VEC3"
		},
		{
			"bufferView":95,
			"componentType":5126,
			"count":2,
			"type":"VEC3"
		},
		{
			"bufferView":96,
			"componentType":5126,
			"count":19,
			"type":"VEC4"
		},
		{
			"bufferView":97,
			"componentType":5126,
			"count":2,
			"type":"VEC3"
		},
		{
			"bufferView":98,
			"componentType":5126,
			"count":2,
			"type":"VEC3"
		},
		{
			"bufferView":99,
			"componentType":5126,
			"count":19,
			"type":"VEC4"
		},
		{
			"bufferView":100,
			"componentType":5126,
			"count":2,
			"type":"VEC3"
		},
		{
			"bufferView":101,
			"componentType":5126,
			"count":2,
			"type":"VEC3"
		},
		{
			"bufferView":102,
			"componentType":5126,
			"count":2,
			"type":"VEC4"
		},
		{
			"bufferView":103,
			"componentType":5126,
			"count":2,
			"type":"VEC3"
		},
		{
			"bufferView":104,
			"componentType":5126,
			"count":2,
			"type":"VEC3"
		},
		{
			"bufferView":105,
			"componentType":5126,
			"count":19,
			"type":"VEC4"
		},
		{
			"bufferView":106,
			"componentType":5126,
			"count":2,
			"type":"VEC3"
		},
		{
			"bufferView":107,
			"componentType":5126,
			"count":2,
			"type":"VEC3"
		},
		{
			"bufferView":108,
			"componentType":5126,
			"count":2,
			"type":"VEC4"
		},
		{
			"bufferView":109,
			"componentType":5126,
			"count":2,
			"type":"VEC3"
		},
		{
			"bufferView":110,
			"componentType":5126,
			"count":2,
			"type":"VEC3"
		},
		{
			"bufferView":111,
			"componentType":5126,
			"count":2,
			"type":"VEC4"
		},
		{
			"bufferView":112,
			"componentType":5126,
			"count":2,
			"type":"VEC3"
		},
		{
			"bufferView":113,
			"componentType":5126,
			"count":2,
			"type":"VEC3"
		},
		{
			"bufferView":114,
			"componentType":5126,
			"count":19,
			"type":"VEC4"
		},
		{
			"bufferView":115,
			"componentType":5126,
			"count":2,
			"type":"VEC3"
		},
		{
			"bufferView":116,
			"componentType":5126,
			"count":2,
			"type":"VEC3"
		},
		{
			"bufferView":117,
			"componentType":5126,
			"count":2,
			"type":"VEC4"
		},
		{
			"bufferView":118,
			"componentType":5126,
			"count":2,
			"type":"VEC3"
		},
		{
			"bufferView":119,
			"componentType":5126,
			"count":2,
			"type":"VEC3"
		},
		{
			"bufferView":120,
			"componentType":5126,
			"count":2,
			"type":"VEC4"
		},
		{
			"bufferView":121,
			"componentType":5126,
			"count":2,
			"type":"VEC3"
		},
		{
			"bufferView":122,
			"componentType":5126,
			"count":2,
			"type":"VEC3"
		},
		{
			"bufferView":123,
			"componentType":5126,
			"count":19,
			"type":"VEC4"
		},
		{
			"bufferView":124,
			"componentType":5126,
			"count":2,
			"type":"VEC3"
		},
		{
			"bufferView":125,
			"componentType":5126,
			"count":2,
			"type":"VEC3"
		},
		{
			"bufferView":126,
			"componentType":5126,
			"count":2,
			"type":"VEC4"
		},
		{
			"bufferView":127,
			"componentType":5126,
			"count":2,
			"type":"VEC3"
		},
		{
			"bufferView":128,
			"componentType":5126,
			"count":2,
			"type":"VEC3"
		},
		{
			"bufferView":129,
			"componentType":5126,
			"count":2,
			"type":"VEC4"
		},
		{
			"bufferView":130,
			"componentType":5126,
			"count":2,
			"type":"VEC3"
		},
		{
			"bufferView":131,
			"componentType":5126,
			"count":61,
			"max":[
				2
			],
			"min":[
				0
			],
			"type":"SCALAR"
		},
		{
			"bufferView":132,
			"componentType":5126,
			"count":61,
			"type":"VEC3"
		},
		{
			"bufferView":133,
			"componentType":5126,
			"count":2,
			"max":[
				2
			],
			"min":[
				0
			],
			"type":"SCALAR"
		},
		{
			"bufferView":134,
			"componentType":5126,
			"count":2,
			"type":"VEC4"
		},
		{
			"bufferView":135,
			"componentType":5126,
			"count":2,
			"type":"VEC3"
		},
		{
			"bufferView":136,
			"componentType":5126,
			"count":2,
			"type":"VEC3"
		},
		{
			"bufferView":137,
			"componentType":5126,
			"count":2,
			"type":"VEC4"
		},
		{
			"bufferView":138,
			"componentType":5126,
			"count":2,
			"type":"VEC3"
		},
		{
			"bufferView":139,
			"componentType":5126,
			"count":2,
			"type":"VEC3"
		},
		{
			"bufferView":140,
			"componentType":5126,
			"count":61,
			"type":"VEC4"
		},
		{
			"bufferView":141,
			"componentType":5126,
			"count":2,
			"type":"VEC3"
		},
		{
			"bufferView":142,
			"componentType":5126,
			"count":2,
			"type":"VEC3"
		},
		{
			"bufferView":143,
			"componentType":5126,
			"count":2,
			"type":"VEC4"
		},
		{
			"bufferView":144,
			"componentType":5126,
			"count":2,
			"type":"VEC3"
		},
		{
			"bufferView":145,
			"componentType":5126,
			"count":2,
			"type":"VEC3"
		},
		{
			"bufferView":146,
			"componentType":5126,
			"count":61,
			"type":"VEC4"
		},
		{
			"bufferView":147,
			"componentType":5126,
			"count":2,
			"type":"VEC3"
		},
		{
			"bufferView":148,
			"componentType":5126,
			"count":2,
			"type":"VEC3"
		},
		{
			"bufferView":149,
			"componentType":5126,
			"count":61,
			"type":"VEC4"
		},
		{
			"bufferView":150,
			"componentType":5126,
			"count":2,
			"type":"VEC3"
		},
		{
			"bufferView":151,
			"componentType":5126,
			"count":2,
			"type":"VEC3"
		},
		{
			"bufferView":152,
			"componentType":5126,
			"count":2,
			"type":"VEC4"
		},
		{
			"bufferView":153,
			"componentType":5126,
			"count":2,
			"type":"VEC3"
		},
		{
			"bufferView":154,
			"componentType":5126,
			"count":2,
			"type":"VEC3"
		},
		{
			"bufferView":155,
			"componentType":5126,
			"count":2,
			"type":"VEC4"
		},
		{
			"bufferView":156,
			"componentType":5126,
			"count":2,
			"type":"VEC3"
		},
		{
			"bufferView":157,
			"componentType":5126,
			"count":2,
			"type":"VEC3"
		},
		{
			"bufferView":158,
			"componentType":5126,
			"count":61,
			"type":"VEC4"
		},
		{
			"bufferView":159,
			"componentType":5126,
			"count":2,
			"type":"VEC3"
		},
		{
			"bufferView":160,
			"componentType":5126,
			"count":2,
			"type":"VEC3"
		},
		{
			"bufferView":161,
			"componentType":5126,
			"count":2,
			"type":"VEC4"
		},
		{
			"bufferView":162,
			"componentType":5126,
			"count":2,
			"type":"VEC3"
		},
		{
			"bufferView":163,
			"componentType":5126,
			"count":2,
			"type":"VEC3"
		},
		{
			"bufferView":164,
			"componentType":5126,
			"count":2,
			"type":"VEC4"
		},
		{
			"bufferView":165,
			"componentType":5126,
			"count":2,
			"type":"VEC3"
		},
		{
			"bufferView":166,
			"componentType":5126,
			"count":2,
			"type":"VEC3"
		},
		{
			"bufferView":167,
			"componentType":5126,
			"count":2,
			"type":"VEC4"
		},
		{
			"bufferView":168,
			"componentType":5126,
			"count":2,
			"type":"VEC3"
		},
		{
			"bufferView":169,
			"componentType":5126,
			"count":2,
			"type":"VEC3"
		},
		{
			"bufferView":170,
			"componentType":5126,
			"count":2,
			"type":"VEC4"
		},
		{
			"bufferView":171,
			"componentType":5126,
			"count":2,
			"type":"VEC3"
		},
		{
			"bufferView":172,
			"componentType":5126,
			"count":2,
			"type":"VEC3"
		},
		{
			"bufferView":173,
			"componentType":5126,
			"count":2,
			"type":"VEC4"
		},
		{
			"bufferView":174,
			"componentType":5126,
			"count":2,
			"type":"VEC3"
		},
		{
			"bufferView":175,
			"componentType":5126,
			"count":2,
			"type":"VEC3"
		},
		{
			"bufferView":176,
			"componentType":5126,
			"count":2,
			"type":"VEC4"
		},
		{
			"bufferView":177,
			"componentType":5126,
			"count":2,
			"type":"VEC3"
		},
		{
			"bufferView":178,
			"componentType":5126,
			"count":2,
			"type":"VEC3"
		},
		{
			"bufferView":179,
			"componentType":5126,
			"count":2,
			"type":"VEC4"
		},
		{
			"bufferView":180,
			"componentType":5126,
			"count":2,
			"type":"VEC3"
		},
		{
			"bufferView":181,
			"componentType":5126,
			"count":2,
			"type":"VEC3"
		},
		{
			"bufferView":182,
			"componentType":5126,
			"count":2,
			"type":"VEC4"
		},
		{
			"bufferView":183,
			"componentType":5126,
			"count":2,
			"type":"VEC3"
		},
		{
			"bufferView":184,
			"componentType":5126,
			"count":31,
			"max":[
				1
			],
			"min":[
				0
			],
			"type":"SCALAR"
		},
		{
			"bufferView":185,
			"componentType":5126,
			"count":31,
			"type":"VEC3"
		},
		{
			"bufferView":186,
			"componentType":5126,
			"count":31,
			"type":"VEC4"
		},
		{
			"bufferView":187,
			"componentType":5126,
			"count":2,
			"max":[
				1
			],
			"min":[
				0
			],
			"type":"SCALAR"
		},
		{
			"bufferView":188,
			"componentType":5126,
			"count":2,
			"type":"VEC3"
		},
		{
			"bufferView":189,
			"componentType":5126,
			"count":2,
			"type":"VEC3"
		},
		{
			"bufferView":190,
			"componentType":5126,
			"count":2,
			"type":"VEC4"
		},
		{
			"bufferView":191,
			"componentType":5126,
			"count":2,
			"type":"VEC3"
		},
		{
			"bufferView":192,
			"componentType":5126,
			"count":2,
			"type":"VEC3"
		},
		{
			"bufferView":193,
			"componentType":5126,
			"count":31,
			"type":"VEC4"
		},
		{
			"bufferView":194,
			"componentType":5126,
			"count":2,
			"type":"VEC3"
		},
		{
			"bufferView":195,
			"componentType":5126,
			"count":2,
			"type":"VEC3"
		},
		{
			"bufferView":196,
			"componentType":5126,
			"count":2,
			"type":"VEC4"
		},
		{
			"bufferView":197,
			"componentType":5126,
			"count":2,
			"type":"VEC3"
		},
		{
			"bufferView":198,
			"componentType":5126,
			"count":2,
			"type":"VEC3"
		},
		{
			"bufferView":199,
			"componentType":5126,
			"count":2,
			"type":"VEC4"
		},
		{
			"bufferView":200,
			"componentType":5126,
			"count":2,
			"type":"VEC3"
		},
		{
			"bufferView":201,
			"componentType":5126,
			"count":2,
			"type":"VEC3"
		},
		{
			"bufferView":202,
			"componentType":5126,
			"count":31,
			"type":"VEC4"
		},
		{
			"bufferView":203,
			"componentType":5126,
			"count":2,
			"type":"VEC3"
		},
		{
			"bufferView":204,
			"componentType":5126,
			"count":2,
			"type":"VEC3"
		},
		{
			"bufferView":205,
			"componentType":5126,
			"count":2,
			"type":"VEC4"
		},
		{
			"bufferView":206,
			"componentType":5126,
			"count":2,
			"type":"VEC3"
		},
		{
			"bufferView":207,
			"componentType":5126,
			"count":2,
			"type":"VEC3"
		},
		{
			"bufferView":208,
			"componentType":5126,
			"count":2,
			"type":"VEC4"
		},
		{
			"bufferView":209,
			"componentType":5126,
			"count":2,
			"type":"VEC3"
		},
		{
			"bufferView":210,
			"componentType":5126,
			"count":2,
			"type":"VEC3"
		},
		{
			"bufferView":211,
			"componentType":5126,
			"count":31,
			"type":"VEC4"
		},
		{
			"bufferView":212,
			"componentType":5126,
			"count":2,
			"type":"VEC3"
		},
		{
			"bufferView":213,
			"componentType":5126,
			"count":2,
			"type":"VEC3"
		},
		{
			"bufferView":214,
			"componentType":5126,
			"count":2,
			"type":"VEC4"
		},
		{
			"bufferView":215,
			"componentType":5126,
			"count":2,
			"type":"VEC3"
		},
		{
			"bufferView":216,
			"componentType":5126,
			"count":2,
			"type":"VEC3"
		},
		{
			"bufferView":217,
			"componentType":5126,
			"count":2,
			"type":"VEC4"
		},
		{
			"bufferView":218,
			"componentType":5126,
			"count":2,
			"type":"VEC3"
		},
		{
			"bufferView":219,
			"componentType":5126,
			"count":2,
			"type":"VEC3"
		},
		{
			"bufferView":220,
			"componentType":5126,
			"count":31,
			"type":"VEC4"
		},
		{
			"bufferView":221,
			"componentType":5126,
			"count":2,
			"type":"VEC3"
		},
		{
			"bufferView":222,
			"componentType":5126,
			"count":2,
			"type":"VEC3"
		},
		{
			"bufferView":223,
			"componentType":5126,
			"count":31,
			"type":"VEC4"
		},
		{
			"bufferView":224,
			"componentType":5126,
			"count":2,
			"type":"VEC3"
		},
		{
			"bufferView":225,
			"componentType":5126,
			"count":2,
			"type":"VEC3"
		},
		{
			"bufferView":226,
			"componentType":5126,
			"count":31,
			"type":"VEC4"
		},
		{
			"bufferView":227,
			"componentType":5126,
			"count":2,
			"type":"VEC3"
		},
		{
			"bufferView":228,
			"componentType":5126,
			"count":2,
			"type":"VEC3"
		},
		{
			"bufferView":229,
			"componentType":5126,
			"count":31,
			"type":"VEC4"
		},
		{
			"bufferView":230,
			"componentType":5126,
			"count":2,
			"type":"VEC3"
		},
		{
			"bufferView":231,
			"componentType":5126,
			"count":2,
			"type":"VEC3"
		},
		{
			"bufferView":232,
			"componentType":5126,
			"count":31,
			"type":"VEC4"
		},
		{
			"bufferView":233,
			"componentType":5126,
			"count":2,
			"type":"VEC3"
		},
		{
			"bufferView":234,
			"componentType":5126,
			"count":2,
			"type":"VEC3"
		},
		{
			"bufferView":235,
			"componentType":5126,
			"count":31,
			"type":"VEC4"
		},
		{
			"bufferView":236,
			"componentType":5126,
			"count":2,
			"type":"VEC3"
		}
	],
	"bufferViews":[
		{
			"buffer":0,
			"byteLength":17316,
			"byteOffset":0,
			"target":34962
		},
		{
			"buffer":0,
			"byteLength":17316,
			"byteOffset":17316,
			"target":34962
		},
		{
			"buffer":0,
			"byteLength":11544,
			"byteOffset":34632,
			"target":34962
		},
		{
			"buffer":0,
			"byteLength":5772,
			"byteOffset":46176,
			"target":34962
		},
		{
			"buffer":0,
			"byteLength":23088,
			"byteOffset":51948,
			"target":34962
		},
		{
			"buffer":0,
			"byteLength":11808,
			"byteOffset":75036,
			"target":34963
		},
		{
			"buffer":0,
			"byteLength":46668,
			"byteOffset":86844,
			"target":34962
		},
		{
			"buffer":0,
			"byteLength":46668,
			"byteOffset":133512,
			"target":34962
		},
		{
			"buffer":0,
			"byteLength":31112,
			"byteOffset":180180,
			"target":34962
		},
		{
			"buffer":0,
			"byteLength":15556,
			"byteOffset":211292,
			"target":34962
		},
		{
			"buffer":0,
			"byteLength":62224,
			"byteOffset":226848,
			"target":34962
		},
		{
			"buffer":0,
			"byteLength":23136,
			"byteOffset":289072,
			"target":34963
		},
		{
			"buffer":0,
			"byteLength":12972,
			"byteOffset":312208,
			"target":34962
		},
		{
			"buffer":0,
			"byteLength":12972,
			"byteOffset":325180,
			"target":34962
		},
		{
			"buffer":0,
			"byteLength":8648,
			"byteOffset":338152,
			"target":34962
		},
		{
			"buffer":0,
			"byteLength":4324,
			"byteOffset":346800,
			"target":34962
		},
		{
			"buffer":0,
			"byteLength":17296,
			"byteOffset":351124,
			"target":34962
		},
		{
			"buffer":0,
			"byteLength":9696,
			"byteOffset":368420,
			"target":34963
		},
		{
			"buffer":0,
			"byteLength":720,
			"byteOffset":378116,
			"target":34962
		},
		{
			"buffer":0,
			"byteLength":720,
			"byteOffset":378836,
			"target":34962
		},
		{
			"buffer":0,
			"byteLength":480,
			"byteOffset":379556,
			"target":34962
		},
		{
			"buffer":0,
			"byteLength":240,
			"byteOffset":380036,
			"target":34962
		},
		{
			"buffer":0,
			"byteLength":960,
			"byteOffset":380276,
			"target":34962
		},
		{
			"buffer":0,
			"byteLength":336,
			"byteOffset":381236,
			"target":34963
		},
		{
			"buffer":0,
			"byteLength":8100,
			"byteOffset":381572,
			"target":34962
		},
		{
			"buffer":0,
			"byteLength":8100,
			"byteOffset":389672,
			"target":34962
		},
		{
			"buffer":0,
			"byteLength":5400,
			"byteOffset":397772,
			"target":34962
		},
		{
			"buffer":0,
			"byteLength":2700,
			"byteOffset":403172,
			"target":34962
		},
		{
			"buffer":0,
			"byteLength":10800,
			"byteOffset":405872,
			"target":34962
		},
		{
			"buffer":0,
			"byteLength":5616,
			"byteOffset":416672,
			"target":34963
		},
		{
			"buffer":0,
			"byteLength":10488,
			"byteOffset":422288,
			"target":34962
		},
		{
			"buffer":0,
			"byteLength":10488,
			"byteOffset":432776,
			"target":34962
		},
		{
			"buffer":0,
			"byteLength":6992,
			"byteOffset":443264,
			"target":34962
		},
		{
			"buffer":0,
			"byteLength":3496,
			"byteOffset":450256,
			"target":34962
		},
		{
			"buffer":0,
			"byteLength":13984,
			"byteOffset":453752,
			"target":34962
		},
		{
			"buffer":0,
			"byteLength":7680,
			"byteOffset":467736,
			"target":34963
		},
		{
			"buffer":0,
			"byteLength":3648,
			"byteOffset":475416,
			"target":34962
		},
		{
			"buffer":0,
			"byteLength":3648,
			"byteOffset":479064,
			"target":34962
		},
		{
			"buffer":0,
			"byteLength":2432,
			"byteOffset":482712,
			"target":34962
		},
		{
			"buffer":0,
			"byteLength":1216,
			"byteOffset":485144,
			"target":34962
		},
		{
			"buffer":0,
			"byteLength":4864,
			"byteOffset":486360,
			"target":34962
		},
		{
			"buffer":0,
			"byteLength":2304,
			"byteOffset":491224,
			"target":34963
		},
		{
			"buffer":0,
			"byteLength":2640,
			"byteOffset":493528,
			"target":34962
		},
		{
			"buffer":0,
			"byteLength":2640,
			"byteOffset":496168,
			"target":34962
		},
		{
			"buffer":0,
			"byteLength":1760,
			"byteOffset":498808,
			"target":34962
		},
		{
			"buffer":0,
			"byteLength":880,
			"byteOffset":500568,
			"target":34962
		},
		{
			"buffer":0,
			"byteLength":3520,
			"byteOffset":501448,
			"target":34962
		},
		{
			"buffer":0,
			"byteLength":1440,
			"byteOffset":504968,
			"target":34963
		},
		{
			"buffer":0,
			"byteLength":1920,
			"byteOffset":506408,
			"target":34962
		},
		{
			"buffer":0,
			"byteLength":1920,
			"byteOffset":508328,
			"target":34962
		},
		{
			"buffer":0,
			"byteLength":1280,
			"byteOffset":510248,
			"target":34962
		},
		{
			"buffer":0,
			"byteLength":640,
			"byteOffset":511528,
			"target":34962
		},
		{
			"buffer":0,
			"byteLength":2560,
			"byteOffset":512168,
			"target":34962
		},
		{
			"buffer":0,
			"byteLength":960,
			"byteOffset":514728,
			"target":34963
		},
		{
			"buffer":0,
			"byteLength":1176,
			"byteOffset":515688,
			"target":34962
		},
		{
			"buffer":0,
			"byteLength":1176,
			"byteOffset":516864,
			"target":34962
		},
		{
			"buffer":0,
			"byteLength":784,
			"byteOffset":518040,
			"target":34962
		},
		{
			"buffer":0,
			"byteLength":392,
			"byteOffset":518824,
			"target":34962
		},
		{
			"buffer":0,
			"byteLength":1568,
			"byteOffset":519216,
			"target":34962
		},
		{
			"buffer":0,
			"byteLength":720,
			"byteOffset":520784,
			"target":34963
		},
		{
			"buffer":0,
			"byteLength":288,
			"byteOffset":521504,
			"target":34962
		},
		{
			"buffer":0,
			"byteLength":288,
			"byteOffset":521792,
			"target":34962
		},
		{
			"buffer":0,
			"byteLength":192,
			"byteOffset":522080,
			"target":34962
		},
		{
			"buffer":0,
			"byteLength":96,
			"byteOffset":522272,
			"target":34962
		},
		{
			"buffer":0,
			"byteLength":384,
			"byteOffset":522368,
			"target":34962
		},
		{
			"buffer":0,
			"byteLength":72,
			"byteOffset":522752,
			"target":34963
		},
		{
			"buffer":0,
			"byteLength":288,
			"byteOffset":522824,
			"target":34962
		},
		{
			"buffer":0,
			"byteLength":288,
			"byteOffset":523112,
			"target":34962
		},
		{
			"buffer":0,
			"byteLength":192,
			"byteOffset":523400,
			"target":34962
		},
		{
			"buffer":0,
			"byteLength":96,
			"byteOffset":523592,
			"target":34962
		},
		{
			"buffer":0,
			"byteLength":384,
			"byteOffset":523688,
			"target":34962
		},
		{
			"buffer":0,
			"byteLength":504,
			"byteOffset":524072,
			"target":34962
		},
		{
			"buffer":0,
			"byteLength":504,
			"byteOffset":524576,
			"target":34962
		},
		{
			"buffer":0,
			"byteLength":336,
			"byteOffset":525080,
			"target":34962
		},
		{
			"buffer":0,
			"byteLength":168,
			"byteOffset":525416,
			"target":34962
		},
		{
			"buffer":0,
			"byteLength":672,
			"byteOffset":525584,
			"target":34962
		},
		{
			"buffer":0,
			"byteLength":192,
			"byteOffset":526256,
			"target":34963
		},
		{
			"buffer":0,
			"byteLength":1088,
			"byteOffset":526448
		},
		{
			"buffer":0,
			"byteLength":8,
			"byteOffset":527536
		},
		{
			"buffer":0,
			"byteLength":24,
			"byteOffset":527544
		},
		{
			"buffer":0,
			"byteLength":32,
			"byteOffset":527568
		},
		{
			"buffer":0,
			"byteLength":24,
			"byteOffset":527600
		},
		{
			"buffer":0,
			"byteLength":24,
			"byteOffset":527624
		},
		{
			"buffer":0,
			"byteLength":32,
			"byteOffset":527648
		},
		{
			"buffer":0,
			"byteLength":24,
			"byteOffset":527680
		},
		{
			"buffer":0,
			"byteLength":24,
			"byteOffset":527704
		},
		{
			"buffer":0,
			"byteLength":76,
			"byteOffset":527728
		},
		{
			"buffer":0,
			"byteLength":304,
			"byteOffset":527804
		},
		{
			"buffer":0,
			"byteLength":24,
			"byteOffset":528108
		},
		{
			"buffer":0,
			"byteLength":24,
			"byteOffset":528132
		},
		{
			"buffer":0,
			"byteLength":32,
			"byteOffset":528156
		},
		{
			"buffer":0,
			"byteLength":24,
			"byteOffset":528188
		},
		{
			"buffer":0,
			"byteLength":24,
			"byteOffset":528212
		},
		{
			"buffer":0,
			"byteLength":32,
			"byteOffset":528236
		},
		{
			"buffer":0,
			"byteLength":24,
			"byteOffset":528268
		},
		{
			"buffer":0,
			"byteLength":24,
			"byteOffset":528292
		},
		{
			"buffer":0,
			"byteLength":304,
			"byteOffset":528316
		},
		{
			"buffer":0,
			"byteLength":24,
			"byteOffset":528620
		},
		{
			"buffer":0,
			"byteLength":24,
			"byteOffset":528644
		},
		{
			"buffer":0,
			"byteLength":304,
			"byteOffset":528668
		},
		{
			"buffer":0,
			"byteLength":24,
			"byteOffset":528972
		},
		{
			"buffer":0,
			"byteLength":24,
			"byteOffset":528996
		},
		{
			"buffer":0,
			"byteLength":32,
			"byteOffset":529020
		},
		{
			"buffer":0,
			"byteLength":24,
			"byteOffset":529052
		},
		{
			"buffer":0,
			"byteLength":24,
			"byteOffset":529076
		},
		{
			"buffer":0,
			"byteLength":304,
			"byteOffset":529100
		},
		{
			"buffer":0,
			"byteLength":24,
			"byteOffset":529404
		},
		{
			"buffer":0,
			"byteLength":24,
			"byteOffset":529428
		},
		{
			"buffer":0,
			"byteLength":32,
			"byteOffset":529452
		},
		{
			"buffer":0,
			"byteLength":24,
			"byteOffset":529484
		},
		{
			"buffer":0,
			"byteLength":24,
			"byteOffset":529508
		},
		{
			"buffer":0,
			"byteLength":32,
			"byteOffset":529532
		},
		{
			"buffer":0,
			"byteLength":24,
			"byteOffset":529564
		},
		{
			"buffer":0,
			"byteLength":24,
			"byteOffset":529588
		},
		{
			"buffer":0,
			"byteLength":304,
			"byteOffset":529612
		},
		{
			"buffer":0,
			"byteLength":24,
			"byteOffset":529916
		},
		{
			"buffer":0,
			"byteLength":24,
			"byteOffset":529940
		},
		{
			"buffer":0,
			"byteLength":32,
			"byteOffset":529964
		},
		{
			"buffer":0,
			"byteLength":24,
			"byteOffset":529996
		},
		{
			"buffer":0,
			"byteLength":24,
			"byteOffset":530020
		},
		{
			"buffer":0,
			"byteLength":32,
			"byteOffset":530044
		},
		{
			"buffer":0,
			"byteLength":24,
			"byteOffset":530076
		},
		{
			"buffer":0,
			"byteLength":24,
			"byteOffset":530100
		},
		{
			"buffer":0,
			"byteLength":304,
			"byteOffset":530124
		},
		{
			"buffer":0,
			"byteLength":24,
			"byteOffset":530428
		},
		{
			"buffer":0,
			"byteLength":24,
			"byteOffset":530452
		},
		{
			"buffer":0,
			"byteLength":32,
			"byteOffset":530476
		},
		{
			"buffer":0,
			"byteLength":24,
			"byteOffset":530508
		},
		{
			"buffer":0,
			"byteLength":24,
			"byteOffset":530532
		},
		{
			"buffer":0,
			"byteLength":32,
			"byteOffset":530556
		},
		{
			"buffer":0,
			"byteLength":24,
			"byteOffset":530588
		},
		{
			"buffer":0,
			"byteLength":244,
			"byteOffset":530612
		},
		{
			"buffer":0,
			"byteLength":732,
			"byteOffset":530856
		},
		{
			"buffer":0,
			"byteLength":8,
			"byteOffset":531588
		},
		{
			"buffer":0,
			"byteLength":32,
			"byteOffset":531596
		},
		{
			"buffer":0,
			"byteLength":24,
			"byteOffset":531628
		},
		{
			"buffer":0,
			"byteLength":24,
			"byteOffset":531652
		},
		{
			"buffer":0,
			"byteLength":32,
			"byteOffset":531676
		},
		{
			"buffer":0,
			"byteLength":24,
			"byteOffset":531708
		},
		{
			"buffer":0,
			"byteLength":24,
			"byteOffset":531732
		},
		{
			"buffer":0,
			"byteLength":976,
			"byteOffset":531756
		},
		{
			"buffer":0,
			"byteLength":24,
			"byteOffset":532732
		},
		{
			"buffer":0,
			"byteLength":24,
			"byteOffset":532756
		},
		{
			"buffer":0,
			"byteLength":32,
			"byteOffset":532780
		},
		{
			"buffer":0,
			"byteLength":24,
			"byteOffset":532812
		},
		{
			"buffer":0,
			"byteLength":24,
			"byteOffset":532836
		},
		{
			"buffer":0,
			"byteLength":976,
			"byteOffset":532860
		},
		{
			"buffer":0,
			"byteLength":24,
			"byteOffset":533836
		},
		{
			"buffer":0,
			"byteLength":24,
			"byteOffset":533860
		},
		{
			"buffer":0,
			"byteLength":976,
			"byteOffset":533884
		},
		{
			"buffer":0,
			"byteLength":24,
			"byteOffset":534860
		},
		{
			"buffer":0,
			"byteLength":24,
			"byteOffset":534884
		},
		{
			"buffer":0,
			"byteLength":32,
			"byteOffset":534908
		},
		{
			"buffer":0,
			"byteLength":24,
			"byteOffset":534940
		},
		{
			"buffer":0,
			"byteLength":24,
			"byteOffset":534964
		},
		{
			"buffer":0,
			"byteLength":32,
			"byteOffset":534988
		},
		{
			"buffer":0,
			"byteLength":24,
			"byteOffset":535020
		},
		{
			"buffer":0,
			"byteLength":24,
			"byteOffset":535044
		},
		{
			"buffer":0,
			"byteLength":976,
			"byteOffset":535068
		},
		{
			"buffer":0,
			"byteLength":24,
			"byteOffset":536044
		},
		{
			"buffer":0,
			"byteLength":24,
			"byteOffset":536068
		},
		{
			"buffer":0,
			"byteLength":32,
			"byteOffset":536092
		},
		{
			"buffer":0,
			"byteLength":24,
			"byteOffset":536124
		},
		{
			"buffer":0,
			"byteLength":24,
			"byteOffset":536148
		},
		{
			"buffer":0,
			"byteLength":32,
			"byteOffset":536172
		},
		{
			"buffer":0,
			"byteLength":24,
			"byteOffset":536204
		},
		{
			"buffer":0,
			"byteLength":24,
			"byteOffset":536228
		},
		{
			"buffer":0,
			"byteLength":32,
			"byteOffset":536252
		},
		{
			"buffer":0,
			"byteLength":24,
			"byteOffset":536284
		},
		{
			"buffer":0,
			"byteLength":24,
			"byteOffset":536308
		},
		{
			"buffer":0,
			"byteLength":32,
			"byteOffset":536332
		},
		{
			"buffer":0,
			"byteLength":24,
			"byteOffset":536364
		},
		{
			"buffer":0,
			"byteLength":24,
			"byteOffset":536388
		},
		{
			"buffer":0,
			"byteLength":32,
			"byteOffset":536412
		},
		{
			"buffer":0,
			"byteLength":24,
			"byteOffset":536444
		},
		{
			"buffer":0,
			"byteLength":24,
			"byteOffset":536468
		},
		{
			"buffer":0,
			"byteLength":32,
			"byteOffset":536492
		},
		{
			"buffer":0,
			"byteLength":24,
			"byteOffset":536524
		},
		{
			"buffer":0,
			"byteLength":24,
			"byteOffset":536548
		},
		{
			"buffer":0,
			"byteLength":32,
			"byteOffset":536572
		},
		{
			"buffer":0,
			"byteLength":24,
			"byteOffset":536604
		},
		{
			"buffer":0,
			"byteLength":24,
			"byteOffset":536628
		},
		{
			"buffer":0,
			"byteLength":32,
			"byteOffset":536652
		},
		{
			"buffer":0,
			"byteLength":24,
			"byteOffset":536684
		},
		{
			"buffer":0,
			"byteLength":124,
			"byteOffset":536708
		},
		{
			"buffer":0,
			"byteLength":372,
			"byteOffset":536832
		},
		{
			"buffer":0,
			"byteLength":496,
			"byteOffset":537204
		},
		{
			"buffer":0,
			"byteLength":8,
			"byteOffset":537700
		},
		{
			"buffer":0,
			"byteLength":24,
			"byteOffset":537708
		},
		{
			"buffer":0,
			"byteLength":24,
			"byteOffset":537732
		},
		{
			"buffer":0,
			"byteLength":32,
			"byteOffset":537756
		},
		{
			"buffer":0,
			"byteLength":24,
			"byteOffset":537788
		},
		{
			"buffer":0,
			"byteLength":24,
			"byteOffset":537812
		},
		{
			"buffer":0,
			"byteLength":496,
			"byteOffset":537836
		},
		{
			"buffer":0,
			"byteLength":24,
			"byteOffset":538332
		},
		{
			"buffer":0,
			"byteLength":24,
			"byteOffset":538356
		},
		{
			"buffer":0,
			"byteLength":32,
			"byteOffset":538380
		},
		{
			"buffer":0,
			"byteLength":24,
			"byteOffset":538412
		},
		{
			"buffer":0,
			"byteLength":24,
			"byteOffset":538436
		},
		{
			"buffer":0,
			"byteLength":32,
			"byteOffset":538460
		},
		{
			"buffer":0,
			"byteLength":24,
			"byteOffset":538492
		},
		{
			"buffer":0,
			"byteLength":24,
			"byteOffset":538516
		},
		{
			"buffer":0,
			"byteLength":496,
			"byteOffset":538540
		},
		{
			"buffer":0,
			"byteLength":24,
			"byteOffset":539036
		},
		{
			"buffer":0,
			"byteLength":24,
			"byteOffset":539060
		},
		{
			"buffer":0,
			"byteLength":32,
			"byteOffset":539084
		},
		{
			"buffer":0,
			"byteLength":24,
			"byteOffset":539116
		},
		{
			"buffer":0,
			"byteLength":24,
			"byteOffset":539140
		},
		{
			"buffer":0,
			"byteLength":32,
			"byteOffset":539164
		},
		{
			"buffer":0,
			"byteLength":24,
			"byteOffset":539196
		},
		{
			"buffer":0,
			"byteLength":24,
			"byteOffset":539220
		},
		{
			"buffer":0,
			"byteLength":496,
			"byteOffset":539244
		},
		{
			"buffer":0,
			"byteLength":24,
			"byteOffset":539740
		},
		{
			"buffer":0,
			"byteLength":24,
			"byteOffset":539764
		},
		{
			"buffer":0,
			"byteLength":32,
			"byteOffset":539788
		},
		{
			"buffer":0,
			"byteLength":24,
			"byteOffset":539820
		},
		{
			"buffer":0,
			"byteLength":24,
			"byteOffset":539844
		},
		{
			"buffer":0,
			"byteLength":32,
			"byteOffset":539868
		},
		{
			"buffer":0,
			"byteLength":24,
			"byteOffset":539900
		},
		{
			"buffer":0,
			"byteLength":24,
			"byteOffset":539924
		},
		{
			"buffer":0,
			"byteLength":496,
			"byteOffset":539948
		},
		{
			"buffer":0,
			"byteLength":24,
			"byteOffset":540444
		},
		{
			"buffer":0,
			"byteLength":24,
			"byteOffset":540468
		},
		{
			"buffer":0,
			"byteLength":496,
			"byteOffset":540492
		},
		{
			"buffer":0,
			"byteLength":24,
			"byteOffset":540988
		},
		{
			"buffer":0,
			"byteLength":24,
			"byteOffset":541012
		},
		{
			"buffer":0,
			"byteLength":496,
			"byteOffset":541036
		},
		{
			"buffer":0,
			"byteLength":24,
			"byteOffset":541532
		},
		{
			"buffer":0,
			"byteLength":24,
			"byteOffset":541556
		},
		{
			"buffer":0,
			"byteLength":496,
			"byteOffset":541580
		},
		{
			"buffer":0,
			"byteLength":24,
			"byteOffset":542076
		},
		{
			"buffer":0,
			"byteLength":24,
			"byteOffset":542100
		},
		{
			"buffer":0,
			"byteLength":496,
			"byteOffset":542124
		},
		{
			"buffer":0,
			"byteLength":24,
			"byteOffset":542620
		},
		{
			"buffer":0,
			"byteLength":24,
			"byteOffset":542644
		},
		{
			"buffer":0,
			"byteLength":496,
			"byteOffset":542668
		},
		{
			"buffer":0,
			"byteLength":24,
			"byteOffset":543164
		}
	],
	"samplers":[
		{
			"magFilter":9729,
			"minFilter":9987
		}
	],
	"buffers":[
		{
			"byteLength":543188,
			"uri":"kaijin.bin"
		}
	]
}
