{
	"asset":{
		"generator":"Khronos glTF Blender I/O v4.2.57",
		"version":"2.0"
	},
	"extensionsUsed":[
		"KHR_materials_clearcoat",
		"KHR_materials_sheen"
	],
	"scene":0,
	"scenes":[
		{
			"name":"Scene",
			"nodes":[
				18
			]
		}
	],
	"nodes":[
		{
			"name":"head",
			"scale":[
				1,
				0.9999999403953552,
				1
			],
			"translation":[
				0,
				0.1099998950958252,
				0
			]
		},
		{
			"children":[
				0
			],
			"name":"neck",
			"translation":[
				0,
				0.23100006580352783,
				0
			]
		},
		{
			"name":"hand.R",
			"rotation":[
				-0.003399729961529374,
				-0.024655692279338837,
				0.02648601122200489,
				0.9993393421173096
			],
			"scale":[
				0.9999999403953552,
				0.9999998211860657,
				0.9999999403953552
			],
			"translation":[
				-2.2351741790771484e-08,
				0.27734822034835815,
				-5.587935447692871e-09
			]
		},
		{
			"children":[
				2
			],
			"name":"forearm.R",
			"rotation":[
				0.045331377536058426,
				-0.0653323382139206,
				0.07581695914268494,
				0.9939459562301636
			],
			"translation":[
				6.356276571750641e-08,
				0.3057759702205658,
				1.1175870895385742e-08
			]
		},
		{
			"children":[
				3
			],
			"name":"upper_arm.R",
			"rotation":[
				0.9855518937110901,
				0.11973633617162704,
				0.11973689496517181,
				0.003703719237819314
			],
			"scale":[
				0.9999959468841553,
				0.9999997019767761,
				0.9999998807907104
			],
			"translation":[
				0.28512001037597656,
				0.17599999904632568,
				0
			]
		},
		{
			"name":"hand.L",
			"rotation":[
				-0.003399729961529374,
				0.024655692279338837,
				-0.02648601122200489,
				0.9993393421173096
			],
			"scale":[
				0.9999999403953552,
				0.9999998211860657,
				0.9999999403953552
			],
			"translation":[
				2.2351741790771484e-08,
				0.27734822034835815,
				-5.587935447692871e-09
			]
		},
		{
			"children":[
				5
			],
			"name":"forearm.L",
			"rotation":[
				0.045331377536058426,
				0.0653323382139206,
				-0.07581695914268494,
				0.9939459562301636
			],
			"translation":[
				-6.356276571750641e-08,
				0.3057759702205658,
				1.1175870895385742e-08
			]
		},
		{
			"children":[
				6
			],
			"name":"upper_arm.L",
			"rotation":[
				0.9855518937110901,
				-0.11973633617162704,
				-0.11973689496517181,
				0.003703719237819314
			],
			"scale":[
				0.9999959468841553,
				0.9999997019767761,
				0.9999998807907104
			],
			"translation":[
				-0.28512001037597656,
				0.17599999904632568,
				0
			]
		},
		{
			"children":[
				1,
				4,
				7
			],
			"name":"chest",
			"translation":[
				0,
				0.18699991703033447,
				0
			]
		},
		{
			"children":[
				8
			],
			"name":"spine",
			"translation":[
				0,
				0.1650000810623169,
				0
			]
		},
		{
			"name":"foot.R",
			"rotation":[
				0.5914182066917419,
				-6.540777919283869e-10,
				-8.917955818255052e-10,
				0.8063650131225586
			],
			"scale":[
				1,
				0.9999999403953552,
				0.9999999403953552
			],
			"translation":[
				-2.1735854782711783e-10,
				0.45164865255355835,
				1.5508625494931039e-09
			]
		},
		{
			"children":[
				10
			],
			"name":"shin.R",
			"rotation":[
				-0.04154900461435318,
				-0.011836567893624306,
				0.011218483559787273,
				0.9990033507347107
			],
			"scale":[
				1,
				1.0000001192092896,
				1
			],
			"translation":[
				1.6298145055770874e-09,
				0.4513167440891266,
				1.1641532182693481e-09
			]
		},
		{
			"children":[
				11
			],
			"name":"thigh.R",
			"rotation":[
				-0.9997580647468567,
				-0.011531674303114414,
				-0.011531767435371876,
				0.014760424382984638
			],
			"scale":[
				1.000000238418579,
				1.000000238418579,
				1.000000238418579
			],
			"translation":[
				0.12144000083208084,
				-0.02199995517730713,
				0
			]
		},
		{
			"name":"foot.L",
			"rotation":[
				0.5914182066917419,
				6.540777919283869e-10,
				8.917955818255052e-10,
				0.8063650131225586
			],
			"scale":[
				1,
				0.9999999403953552,
				0.9999999403953552
			],
			"translation":[
				2.1735854782711783e-10,
				0.45164865255355835,
				1.5508625494931039e-09
			]
		},
		{
			"children":[
				13
			],
			"name":"shin.L",
			"rotation":[
				-0.04154900461435318,
				0.011836567893624306,
				-0.011218483559787273,
				0.9990033507347107
			],
			"scale":[
				1,
				1.0000001192092896,
				1
			],
			"translation":[
				-1.6298145055770874e-09,
				0.4513167440891266,
				1.1641532182693481e-09
			]
		},
		{
			"children":[
				14
			],
			"name":"thigh.L",
			"rotation":[
				-0.9997580647468567,
				0.011531674303114414,
				0.011531767435371876,
				0.014760424382984638
			],
			"scale":[
				1.000000238418579,
				1.000000238418579,
				1.000000238418579
			],
			"translation":[
				-0.12144000083208084,
				-0.02199995517730713,
				0
			]
		},
		{
			"children":[
				9,
				12,
				15
			],
			"name":"hips",
			"translation":[
				0,
				1.0230000019073486,
				0
			]
		},
		{
			"mesh":0,
			"name":"knight",
			"skin":0
		},
		{
			"children":[
				17,
				16
			],
			"name":"knight_rig"
		}
	],
	"animations":[
		{
			"channels":[
				{
					"sampler":0,
					"target":{
						"node":16,
						"path":"translation"
					}
				},
				{
					"sampler":1,
					"target":{
						"node":16,
						"path":"rotation"
					}
				},
				{
					"sampler":2,
					"target":{
						"node":16,
						"path":"scale"
					}
				},
				{
					"sampler":3,
					"target":{
						"node":9,
						"path":"translation"
					}
				},
				{
					"sampler":4,
					"target":{
						"node":9,
						"path":"rotation"
					}
				},
				{
					"sampler":5,
					"target":{
						"node":9,
						"path":"scale"
					}
				},
				{
					"sampler":6,
					"target":{
						"node":8,
						"path":"translation"
					}
				},
				{
					"sampler":7,
					"target":{
						"node":8,
						"path":"rotation"
					}
				},
				{
					"sampler":8,
					"target":{
						"node":8,
						"path":"scale"
					}
				},
				{
					"sampler":9,
					"target":{
						"node":1,
						"path":"translation"
					}
				},
				{
					"sampler":10,
					"target":{
						"node":1,
						"path":"rotation"
					}
				},
				{
					"sampler":11,
					"target":{
						"node":1,
						"path":"scale"
					}
				},
				{
					"sampler":12,
					"target":{
						"node":0,
						"path":"translation"
					}
				},
				{
					"sampler":13,
					"target":{
						"node":0,
						"path":"rotation"
					}
				},
				{
					"sampler":14,
					"target":{
						"node":0,
						"path":"scale"
					}
				},
				{
					"sampler":15,
					"target":{
						"node":4,
						"path":"translation"
					}
				},
				{
					"sampler":16,
					"target":{
						"node":4,
						"path":"rotation"
					}
				},
				{
					"sampler":17,
					"target":{
						"node":4,
						"path":"scale"
					}
				},
				{
					"sampler":18,
					"target":{
						"node":3,
						"path":"translation"
					}
				},
				{
					"sampler":19,
					"target":{
						"node":3,
						"path":"rotation"
					}
				},
				{
					"sampler":20,
					"target":{
						"node":3,
						"path":"scale"
					}
				},
				{
					"sampler":21,
					"target":{
						"node":2,
						"path":"translation"
					}
				},
				{
					"sampler":22,
					"target":{
						"node":2,
						"path":"rotation"
					}
				},
				{
					"sampler":23,
					"target":{
						"node":2,
						"path":"scale"
					}
				},
				{
					"sampler":24,
					"target":{
						"node":7,
						"path":"translation"
					}
				},
				{
					"sampler":25,
					"target":{
						"node":7,
						"path":"rotation"
					}
				},
				{
					"sampler":26,
					"target":{
						"node":7,
						"path":"scale"
					}
				},
				{
					"sampler":27,
					"target":{
						"node":6,
						"path":"translation"
					}
				},
				{
					"sampler":28,
					"target":{
						"node":6,
						"path":"rotation"
					}
				},
				{
					"sampler":29,
					"target":{
						"node":6,
						"path":"scale"
					}
				},
				{
					"sampler":30,
					"target":{
						"node":5,
						"path":"translation"
					}
				},
				{
					"sampler":31,
					"target":{
						"node":5,
						"path":"rotation"
					}
				},
				{
					"sampler":32,
					"target":{
						"node":5,
						"path":"scale"
					}
				},
				{
					"sampler":33,
					"target":{
						"node":12,
						"path":"translation"
					}
				},
				{
					"sampler":34,
					"target":{
						"node":12,
						"path":"rotation"
					}
				},
				{
					"sampler":35,
					"target":{
						"node":12,
						"path":"scale"
					}
				},
				{
					"sampler":36,
					"target":{
						"node":11,
						"path":"translation"
					}
				},
				{
					"sampler":37,
					"target":{
						"node":11,
						"path":"rotation"
					}
				},
				{
					"sampler":38,
					"target":{
						"node":11,
						"path":"scale"
					}
				},
				{
					"sampler":39,
					"target":{
						"node":10,
						"path":"translation"
					}
				},
				{
					"sampler":40,
					"target":{
						"node":10,
						"path":"rotation"
					}
				},
				{
					"sampler":41,
					"target":{
						"node":10,
						"path":"scale"
					}
				},
				{
					"sampler":42,
					"target":{
						"node":15,
						"path":"translation"
					}
				},
				{
					"sampler":43,
					"target":{
						"node":15,
						"path":"rotation"
					}
				},
				{
					"sampler":44,
					"target":{
						"node":15,
						"path":"scale"
					}
				},
				{
					"sampler":45,
					"target":{
						"node":14,
						"path":"translation"
					}
				},
				{
					"sampler":46,
					"target":{
						"node":14,
						"path":"rotation"
					}
				},
				{
					"sampler":47,
					"target":{
						"node":14,
						"path":"scale"
					}
				},
				{
					"sampler":48,
					"target":{
						"node":13,
						"path":"translation"
					}
				},
				{
					"sampler":49,
					"target":{
						"node":13,
						"path":"rotation"
					}
				},
				{
					"sampler":50,
					"target":{
						"node":13,
						"path":"scale"
					}
				}
			],
			"name":"attack",
			"samplers":[
				{
					"input":85,
					"interpolation":"STEP",
					"output":86
				},
				{
					"input":85,
					"interpolation":"STEP",
					"output":87
				},
				{
					"input":85,
					"interpolation":"STEP",
					"output":88
				},
				{
					"input":85,
					"interpolation":"STEP",
					"output":89
				},
				{
					"input":85,
					"interpolation":"STEP",
					"output":90
				},
				{
					"input":85,
					"interpolation":"STEP",
					"output":91
				},
				{
					"input":85,
					"interpolation":"STEP",
					"output":92
				},
				{
					"input":93,
					"interpolation":"LINEAR",
					"output":94
				},
				{
					"input":85,
					"interpolation":"STEP",
					"output":95
				},
				{
					"input":85,
					"interpolation":"STEP",
					"output":96
				},
				{
					"input":85,
					"interpolation":"STEP",
					"output":97
				},
				{
					"input":85,
					"interpolation":"STEP",
					"output":98
				},
				{
					"input":85,
					"interpolation":"STEP",
					"output":99
				},
				{
					"input":85,
					"interpolation":"STEP",
					"output":100
				},
				{
					"input":85,
					"interpolation":"STEP",
					"output":101
				},
				{
					"input":85,
					"interpolation":"STEP",
					"output":102
				},
				{
					"input":93,
					"interpolation":"LINEAR",
					"output":103
				},
				{
					"input":85,
					"interpolation":"STEP",
					"output":104
				},
				{
					"input":85,
					"interpolation":"STEP",
					"output":105
				},
				{
					"input":93,
					"interpolation":"LINEAR",
					"output":106
				},
				{
					"input":85,
					"interpolation":"STEP",
					"output":107
				},
				{
					"input":85,
					"interpolation":"STEP",
					"output":108
				},
				{
					"input":85,
					"interpolation":"STEP",
					"output":109
				},
				{
					"input":85,
					"interpolation":"STEP",
					"output":110
				},
				{
					"input":85,
					"interpolation":"STEP",
					"output":111
				},
				{
					"input":93,
					"interpolation":"LINEAR",
					"output":112
				},
				{
					"input":85,
					"interpolation":"STEP",
					"output":113
				},
				{
					"input":85,
					"interpolation":"STEP",
					"output":114
				},
				{
					"input":85,
					"interpolation":"STEP",
					"output":115
				},
				{
					"input":85,
					"interpolation":"STEP",
					"output":116
				},
				{
					"input":85,
					"interpolation":"STEP",
					"output":117
				},
				{
					"input":85,
					"interpolation":"STEP",
					"output":118
				},
				{
					"input":85,
					"interpolation":"STEP",
					"output":119
				},
				{
					"input":85,
					"interpolation":"STEP",
					"output":120
				},
				{
					"input":93,
					"interpolation":"LINEAR",
					"output":121
				},
				{
					"input":85,
					"interpolation":"STEP",
					"output":122
				},
				{
					"input":85,
					"interpolation":"LINEAR",
					"output":123
				},
				{
					"input":85,
					"interpolation":"LINEAR",
					"output":124
				},
				{
					"input":85,
					"interpolation":"STEP",
					"output":125
				},
				{
					"input":85,
					"interpolation":"LINEAR",
					"output":126
				},
				{
					"input":85,
					"interpolation":"LINEAR",
					"output":127
				},
				{
					"input":85,
					"interpolation":"STEP",
					"output":128
				},
				{
					"input":85,
					"interpolation":"STEP",
					"output":129
				},
				{
					"input":93,
					"interpolation":"LINEAR",
					"output":130
				},
				{
					"input":85,
					"interpolation":"STEP",
					"output":131
				},
				{
					"input":85,
					"interpolation":"LINEAR",
					"output":132
				},
				{
					"input":85,
					"interpolation":"LINEAR",
					"output":133
				},
				{
					"input":85,
					"interpolation":"STEP",
					"output":134
				},
				{
					"input":85,
					"interpolation":"LINEAR",
					"output":135
				},
				{
					"input":85,
					"interpolation":"LINEAR",
					"output":136
				},
				{
					"input":85,
					"interpolation":"STEP",
					"output":137
				}
			]
		},
		{
			"channels":[
				{
					"sampler":0,
					"target":{
						"node":16,
						"path":"translation"
					}
				},
				{
					"sampler":1,
					"target":{
						"node":16,
						"path":"rotation"
					}
				},
				{
					"sampler":2,
					"target":{
						"node":16,
						"path":"scale"
					}
				},
				{
					"sampler":3,
					"target":{
						"node":9,
						"path":"translation"
					}
				},
				{
					"sampler":4,
					"target":{
						"node":9,
						"path":"rotation"
					}
				},
				{
					"sampler":5,
					"target":{
						"node":9,
						"path":"scale"
					}
				},
				{
					"sampler":6,
					"target":{
						"node":8,
						"path":"translation"
					}
				},
				{
					"sampler":7,
					"target":{
						"node":8,
						"path":"rotation"
					}
				},
				{
					"sampler":8,
					"target":{
						"node":8,
						"path":"scale"
					}
				},
				{
					"sampler":9,
					"target":{
						"node":1,
						"path":"translation"
					}
				},
				{
					"sampler":10,
					"target":{
						"node":1,
						"path":"rotation"
					}
				},
				{
					"sampler":11,
					"target":{
						"node":1,
						"path":"scale"
					}
				},
				{
					"sampler":12,
					"target":{
						"node":0,
						"path":"translation"
					}
				},
				{
					"sampler":13,
					"target":{
						"node":0,
						"path":"rotation"
					}
				},
				{
					"sampler":14,
					"target":{
						"node":0,
						"path":"scale"
					}
				},
				{
					"sampler":15,
					"target":{
						"node":4,
						"path":"translation"
					}
				},
				{
					"sampler":16,
					"target":{
						"node":4,
						"path":"rotation"
					}
				},
				{
					"sampler":17,
					"target":{
						"node":4,
						"path":"scale"
					}
				},
				{
					"sampler":18,
					"target":{
						"node":3,
						"path":"translation"
					}
				},
				{
					"sampler":19,
					"target":{
						"node":3,
						"path":"rotation"
					}
				},
				{
					"sampler":20,
					"target":{
						"node":3,
						"path":"scale"
					}
				},
				{
					"sampler":21,
					"target":{
						"node":2,
						"path":"translation"
					}
				},
				{
					"sampler":22,
					"target":{
						"node":2,
						"path":"rotation"
					}
				},
				{
					"sampler":23,
					"target":{
						"node":2,
						"path":"scale"
					}
				},
				{
					"sampler":24,
					"target":{
						"node":7,
						"path":"translation"
					}
				},
				{
					"sampler":25,
					"target":{
						"node":7,
						"path":"rotation"
					}
				},
				{
					"sampler":26,
					"target":{
						"node":7,
						"path":"scale"
					}
				},
				{
					"sampler":27,
					"target":{
						"node":6,
						"path":"translation"
					}
				},
				{
					"sampler":28,
					"target":{
						"node":6,
						"path":"rotation"
					}
				},
				{
					"sampler":29,
					"target":{
						"node":6,
						"path":"scale"
					}
				},
				{
					"sampler":30,
					"target":{
						"node":5,
						"path":"translation"
					}
				},
				{
					"sampler":31,
					"target":{
						"node":5,
						"path":"rotation"
					}
				},
				{
					"sampler":32,
					"target":{
						"node":5,
						"path":"scale"
					}
				},
				{
					"sampler":33,
					"target":{
						"node":12,
						"path":"translation"
					}
				},
				{
					"sampler":34,
					"target":{
						"node":12,
						"path":"rotation"
					}
				},
				{
					"sampler":35,
					"target":{
						"node":12,
						"path":"scale"
					}
				},
				{
					"sampler":36,
					"target":{
						"node":11,
						"path":"translation"
					}
				},
				{
					"sampler":37,
					"target":{
						"node":11,
						"path":"rotation"
					}
				},
				{
					"sampler":38,
					"target":{
						"node":11,
						"path":"scale"
					}
				},
				{
					"sampler":39,
					"target":{
						"node":10,
						"path":"translation"
					}
				},
				{
					"sampler":40,
					"target":{
						"node":10,
						"path":"rotation"
					}
				},
				{
					"sampler":41,
					"target":{
						"node":10,
						"path":"scale"
					}
				},
				{
					"sampler":42,
					"target":{
						"node":15,
						"path":"translation"
					}
				},
				{
					"sampler":43,
					"target":{
						"node":15,
						"path":"rotation"
					}
				},
				{
					"sampler":44,
					"target":{
						"node":15,
						"path":"scale"
					}
				},
				{
					"sampler":45,
					"target":{
						"node":14,
						"path":"translation"
					}
				},
				{
					"sampler":46,
					"target":{
						"node":14,
						"path":"rotation"
					}
				},
				{
					"sampler":47,
					"target":{
						"node":14,
						"path":"scale"
					}
				},
				{
					"sampler":48,
					"target":{
						"node":13,
						"path":"translation"
					}
				},
				{
					"sampler":49,
					"target":{
						"node":13,
						"path":"rotation"
					}
				},
				{
					"sampler":50,
					"target":{
						"node":13,
						"path":"scale"
					}
				}
			],
			"name":"idle",
			"samplers":[
				{
					"input":138,
					"interpolation":"LINEAR",
					"output":139
				},
				{
					"input":140,
					"interpolation":"STEP",
					"output":141
				},
				{
					"input":140,
					"interpolation":"STEP",
					"output":142
				},
				{
					"input":140,
					"interpolation":"STEP",
					"output":143
				},
				{
					"input":140,
					"interpolation":"STEP",
					"output":144
				},
				{
					"input":140,
					"interpolation":"STEP",
					"output":145
				},
				{
					"input":140,
					"interpolation":"STEP",
					"output":146
				},
				{
					"input":138,
					"interpolation":"LINEAR",
					"output":147
				},
				{
					"input":140,
					"interpolation":"STEP",
					"output":148
				},
				{
					"input":140,
					"interpolation":"STEP",
					"output":149
				},
				{
					"input":140,
					"interpolation":"STEP",
					"output":150
				},
				{
					"input":140,
					"interpolation":"STEP",
					"output":151
				},
				{
					"input":140,
					"interpolation":"STEP",
					"output":152
				},
				{
					"input":138,
					"interpolation":"LINEAR",
					"output":153
				},
				{
					"input":140,
					"interpolation":"STEP",
					"output":154
				},
				{
					"input":140,
					"interpolation":"STEP",
					"output":155
				},
				{
					"input":138,
					"interpolation":"LINEAR",
					"output":156
				},
				{
					"input":140,
					"interpolation":"STEP",
					"output":157
				},
				{
					"input":140,
					"interpolation":"STEP",
					"output":158
				},
				{
					"input":140,
					"interpolation":"STEP",
					"output":159
				},
				{
					"input":140,
					"interpolation":"STEP",
					"output":160
				},
				{
					"input":140,
					"interpolation":"STEP",
					"output":161
				},
				{
					"input":140,
					"interpolation":"STEP",
					"output":162
				},
				{
					"input":140,
					"interpolation":"STEP",
					"output":163
				},
				{
					"input":140,
					"interpolation":"STEP",
					"output":164
				},
				{
					"input":138,
					"interpolation":"LINEAR",
					"output":165
				},
				{
					"input":140,
					"interpolation":"STEP",
					"output":166
				},
				{
					"input":140,
					"interpolation":"STEP",
					"output":167
				},
				{
					"input":140,
					"interpolation":"STEP",
					"output":168
				},
				{
					"input":140,
					"interpolation":"STEP",
					"output":169
				},
				{
					"input":140,
					"interpolation":"STEP",
					"output":170
				},
				{
					"input":140,
					"interpolation":"STEP",
					"output":171
				},
				{
					"input":140,
					"interpolation":"STEP",
					"output":172
				},
				{
					"input":140,
					"interpolation":"STEP",
					"output":173
				},
				{
					"input":140,
					"interpolation":"STEP",
					"output":174
				},
				{
					"input":140,
					"interpolation":"STEP",
					"output":175
				},
				{
					"input":140,
					"interpolation":"STEP",
					"output":176
				},
				{
					"input":140,
					"interpolation":"STEP",
					"output":177
				},
				{
					"input":140,
					"interpolation":"STEP",
					"output":178
				},
				{
					"input":140,
					"interpolation":"STEP",
					"output":179
				},
				{
					"input":140,
					"interpolation":"STEP",
					"output":180
				},
				{
					"input":140,
					"interpolation":"STEP",
					"output":181
				},
				{
					"input":140,
					"interpolation":"STEP",
					"output":182
				},
				{
					"input":140,
					"interpolation":"STEP",
					"output":183
				},
				{
					"input":140,
					"interpolation":"STEP",
					"output":184
				},
				{
					"input":140,
					"interpolation":"STEP",
					"output":185
				},
				{
					"input":140,
					"interpolation":"STEP",
					"output":186
				},
				{
					"input":140,
					"interpolation":"STEP",
					"output":187
				},
				{
					"input":140,
					"interpolation":"STEP",
					"output":188
				},
				{
					"input":140,
					"interpolation":"STEP",
					"output":189
				},
				{
					"input":140,
					"interpolation":"STEP",
					"output":190
				}
			]
		},
		{
			"channels":[
				{
					"sampler":0,
					"target":{
						"node":16,
						"path":"translation"
					}
				},
				{
					"sampler":1,
					"target":{
						"node":16,
						"path":"rotation"
					}
				},
				{
					"sampler":2,
					"target":{
						"node":16,
						"path":"scale"
					}
				},
				{
					"sampler":3,
					"target":{
						"node":9,
						"path":"translation"
					}
				},
				{
					"sampler":4,
					"target":{
						"node":9,
						"path":"rotation"
					}
				},
				{
					"sampler":5,
					"target":{
						"node":9,
						"path":"scale"
					}
				},
				{
					"sampler":6,
					"target":{
						"node":8,
						"path":"translation"
					}
				},
				{
					"sampler":7,
					"target":{
						"node":8,
						"path":"rotation"
					}
				},
				{
					"sampler":8,
					"target":{
						"node":8,
						"path":"scale"
					}
				},
				{
					"sampler":9,
					"target":{
						"node":1,
						"path":"translation"
					}
				},
				{
					"sampler":10,
					"target":{
						"node":1,
						"path":"rotation"
					}
				},
				{
					"sampler":11,
					"target":{
						"node":1,
						"path":"scale"
					}
				},
				{
					"sampler":12,
					"target":{
						"node":0,
						"path":"translation"
					}
				},
				{
					"sampler":13,
					"target":{
						"node":0,
						"path":"rotation"
					}
				},
				{
					"sampler":14,
					"target":{
						"node":0,
						"path":"scale"
					}
				},
				{
					"sampler":15,
					"target":{
						"node":4,
						"path":"translation"
					}
				},
				{
					"sampler":16,
					"target":{
						"node":4,
						"path":"rotation"
					}
				},
				{
					"sampler":17,
					"target":{
						"node":4,
						"path":"scale"
					}
				},
				{
					"sampler":18,
					"target":{
						"node":3,
						"path":"translation"
					}
				},
				{
					"sampler":19,
					"target":{
						"node":3,
						"path":"rotation"
					}
				},
				{
					"sampler":20,
					"target":{
						"node":3,
						"path":"scale"
					}
				},
				{
					"sampler":21,
					"target":{
						"node":2,
						"path":"translation"
					}
				},
				{
					"sampler":22,
					"target":{
						"node":2,
						"path":"rotation"
					}
				},
				{
					"sampler":23,
					"target":{
						"node":2,
						"path":"scale"
					}
				},
				{
					"sampler":24,
					"target":{
						"node":7,
						"path":"translation"
					}
				},
				{
					"sampler":25,
					"target":{
						"node":7,
						"path":"rotation"
					}
				},
				{
					"sampler":26,
					"target":{
						"node":7,
						"path":"scale"
					}
				},
				{
					"sampler":27,
					"target":{
						"node":6,
						"path":"translation"
					}
				},
				{
					"sampler":28,
					"target":{
						"node":6,
						"path":"rotation"
					}
				},
				{
					"sampler":29,
					"target":{
						"node":6,
						"path":"scale"
					}
				},
				{
					"sampler":30,
					"target":{
						"node":5,
						"path":"translation"
					}
				},
				{
					"sampler":31,
					"target":{
						"node":5,
						"path":"rotation"
					}
				},
				{
					"sampler":32,
					"target":{
						"node":5,
						"path":"scale"
					}
				},
				{
					"sampler":33,
					"target":{
						"node":12,
						"path":"translation"
					}
				},
				{
					"sampler":34,
					"target":{
						"node":12,
						"path":"rotation"
					}
				},
				{
					"sampler":35,
					"target":{
						"node":12,
						"path":"scale"
					}
				},
				{
					"sampler":36,
					"target":{
						"node":11,
						"path":"translation"
					}
				},
				{
					"sampler":37,
					"target":{
						"node":11,
						"path":"rotation"
					}
				},
				{
					"sampler":38,
					"target":{
						"node":11,
						"path":"scale"
					}
				},
				{
					"sampler":39,
					"target":{
						"node":10,
						"path":"translation"
					}
				},
				{
					"sampler":40,
					"target":{
						"node":10,
						"path":"rotation"
					}
				},
				{
					"sampler":41,
					"target":{
						"node":10,
						"path":"scale"
					}
				},
				{
					"sampler":42,
					"target":{
						"node":15,
						"path":"translation"
					}
				},
				{
					"sampler":43,
					"target":{
						"node":15,
						"path":"rotation"
					}
				},
				{
					"sampler":44,
					"target":{
						"node":15,
						"path":"scale"
					}
				},
				{
					"sampler":45,
					"target":{
						"node":14,
						"path":"translation"
					}
				},
				{
					"sampler":46,
					"target":{
						"node":14,
						"path":"rotation"
					}
				},
				{
					"sampler":47,
					"target":{
						"node":14,
						"path":"scale"
					}
				},
				{
					"sampler":48,
					"target":{
						"node":13,
						"path":"translation"
					}
				},
				{
					"sampler":49,
					"target":{
						"node":13,
						"path":"rotation"
					}
				},
				{
					"sampler":50,
					"target":{
						"node":13,
						"path":"scale"
					}
				}
			],
			"name":"walk",
			"samplers":[
				{
					"input":191,
					"interpolation":"LINEAR",
					"output":192
				},
				{
					"input":191,
					"interpolation":"LINEAR",
					"output":193
				},
				{
					"input":194,
					"interpolation":"STEP",
					"output":195
				},
				{
					"input":194,
					"interpolation":"STEP",
					"output":196
				},
				{
					"input":194,
					"interpolation":"STEP",
					"output":197
				},
				{
					"input":194,
					"interpolation":"STEP",
					"output":198
				},
				{
					"input":194,
					"interpolation":"STEP",
					"output":199
				},
				{
					"input":191,
					"interpolation":"LINEAR",
					"output":200
				},
				{
					"input":194,
					"interpolation":"STEP",
					"output":201
				},
				{
					"input":194,
					"interpolation":"STEP",
					"output":202
				},
				{
					"input":194,
					"interpolation":"STEP",
					"output":203
				},
				{
					"input":194,
					"interpolation":"STEP",
					"output":204
				},
				{
					"input":194,
					"interpolation":"STEP",
					"output":205
				},
				{
					"input":194,
					"interpolation":"STEP",
					"output":206
				},
				{
					"input":194,
					"interpolation":"STEP",
					"output":207
				},
				{
					"input":194,
					"interpolation":"STEP",
					"output":208
				},
				{
					"input":191,
					"interpolation":"LINEAR",
					"output":209
				},
				{
					"input":194,
					"interpolation":"STEP",
					"output":210
				},
				{
					"input":194,
					"interpolation":"STEP",
					"output":211
				},
				{
					"input":194,
					"interpolation":"STEP",
					"output":212
				},
				{
					"input":194,
					"interpolation":"STEP",
					"output":213
				},
				{
					"input":194,
					"interpolation":"STEP",
					"output":214
				},
				{
					"input":194,
					"interpolation":"STEP",
					"output":215
				},
				{
					"input":194,
					"interpolation":"STEP",
					"output":216
				},
				{
					"input":194,
					"interpolation":"STEP",
					"output":217
				},
				{
					"input":191,
					"interpolation":"LINEAR",
					"output":218
				},
				{
					"input":194,
					"interpolation":"STEP",
					"output":219
				},
				{
					"input":194,
					"interpolation":"STEP",
					"output":220
				},
				{
					"input":194,
					"interpolation":"STEP",
					"output":221
				},
				{
					"input":194,
					"interpolation":"STEP",
					"output":222
				},
				{
					"input":194,
					"interpolation":"STEP",
					"output":223
				},
				{
					"input":194,
					"interpolation":"STEP",
					"output":224
				},
				{
					"input":194,
					"interpolation":"STEP",
					"output":225
				},
				{
					"input":194,
					"interpolation":"STEP",
					"output":226
				},
				{
					"input":191,
					"interpolation":"LINEAR",
					"output":227
				},
				{
					"input":194,
					"interpolation":"STEP",
					"output":228
				},
				{
					"input":194,
					"interpolation":"STEP",
					"output":229
				},
				{
					"input":191,
					"interpolation":"LINEAR",
					"output":230
				},
				{
					"input":194,
					"interpolation":"STEP",
					"output":231
				},
				{
					"input":194,
					"interpolation":"STEP",
					"output":232
				},
				{
					"input":191,
					"interpolation":"LINEAR",
					"output":233
				},
				{
					"input":194,
					"interpolation":"STEP",
					"output":234
				},
				{
					"input":194,
					"interpolation":"STEP",
					"output":235
				},
				{
					"input":191,
					"interpolation":"LINEAR",
					"output":236
				},
				{
					"input":194,
					"interpolation":"STEP",
					"output":237
				},
				{
					"input":194,
					"interpolation":"STEP",
					"output":238
				},
				{
					"input":191,
					"interpolation":"LINEAR",
					"output":239
				},
				{
					"input":194,
					"interpolation":"STEP",
					"output":240
				},
				{
					"input":194,
					"interpolation":"STEP",
					"output":241
				},
				{
					"input":191,
					"interpolation":"LINEAR",
					"output":242
				},
				{
					"input":194,
					"interpolation":"STEP",
					"output":243
				}
			]
		}
	],
	"materials":[
		{
			"name":"skin",
			"normalTexture":{
				"index":0,
				"scale":0.4000000059604645
			},
			"pbrMetallicRoughness":{
				"baseColorFactor":[
					0.9551045894622803,
					0.7105664610862732,
					0.5382355451583862,
					1
				],
				"metallicFactor":0,
				"roughnessFactor":0.550000011920929
			}
		},
		{
			"extensions":{
				"KHR_materials_sheen":{
					"sheenColorFactor":[
						1.0,
						1.0,
						1.0
					],
					"sheenRoughnessFactor":0.5
				}
			},
			"name":"hair",
			"normalTexture":{
				"index":1,
				"scale":0.800000011920929
			},
			"pbrMetallicRoughness":{
				"baseColorFactor":[
					0.01960664801299572,
					0.0134117491543293,
					0.010022825561463833,
					1
				],
				"metallicFactor":0,
				"roughnessFactor":0.44999998807907104
			}
		},
		{
			"extensions":{
				"KHR_materials_sheen":{
					"sheenColorFactor":[
						1.0,
						1.0,
						1.0
					],
					"sheenRoughnessFactor":0.5
				}
			},
			"name":"outfit",
			"normalTexture":{
				"index":2,
				"scale":0.6000000238418579
			},
			"pbrMetallicRoughness":{
				"baseColorFactor":[
					0.6038273572921753,
					0.6038273572921753,
					0.6920710802078247,
					1
				],
				"metallicFactor":0,
				"roughnessFactor":0.75
			}
		},
		{
			"name":"outfit2",
			"normalTexture":{
				"index":3,
				"scale":0.4000000059604645
			},
			"pbrMetallicRoughness":{
				"baseColorFactor":[
					0.7874122858047485,
					0.5225215554237366,
					0.03310476616024971,
					1
				],
				"metallicFactor":0,
				"roughnessFactor":0.6000000238418579
			}
		},
		{
			"name":"pants",
			"normalTexture":{
				"index":4,
				"scale":0.6000000238418579
			},
			"pbrMetallicRoughness":{
				"baseColorFactor":[
					0.27383843064308167,
					0.27383843064308167,
					0.3127419650554657,
					1
				],
				"metallicFactor":0,
				"roughnessFactor":0.800000011920929
			}
		},
		{
			"extensions":{
				"KHR_materials_clearcoat":{
					"clearcoatFactor":0.30000001192092896
				}
			},
			"name":"boots",
			"normalTexture":{
				"index":5,
				"scale":0.800000011920929
			},
			"pbrMetallicRoughness":{
				"baseColorFactor":[
					0.0134117491543293,
					0.010022825561463833,
					0.010022825561463833,
					1
				],
				"metallicFactor":0,
				"roughnessFactor":0.44999998807907104
			}
		},
		{
			"name":"eye_white",
			"pbrMetallicRoughness":{
				"baseColorFactor":[
					0.8900054097175598,
					0.8900054097175598,
					0.8900054097175598,
					1
				],
				"metallicFactor":0,
				"roughnessFactor":0.20000000298023224
			}
		},
		{
			"emissiveFactor":[
				0.011763989275256348,
				0.011763989275256348,
				0.019862860485428957
			],
			"name":"iris",
			"pbrMetallicRoughness":{
				"baseColorFactor":[
					0.01960664801299572,
					0.01960664801299572,
					0.03310476616024971,
					1
				],
				"metallicFactor":0,
				"roughnessFactor":0.15000000596046448
			}
		},
		{
			"name":"pupil",
			"pbrMetallicRoughness":{
				"baseColorFactor":[
					0.0015479875728487968,
					0.0015479875728487968,
					0.0023219813592731953,
					1
				],
				"metallicFactor":0,
				"roughnessFactor":0.10000000149011612
			}
		},
		{
			"name":"lips",
			"pbrMetallicRoughness":{
				"baseColorFactor":[
					0.4283095896244049,
					0.32088616490364075,
					0.2448643445968628,
					1
				],
				"metallicFactor":0,
				"roughnessFactor":0.4000000059604645
			}
		},
		{
			"name":"metal",
			"normalTexture":{
				"index":6,
				"scale":0.5
			},
			"pbrMetallicRoughness":{
				"baseColorFactor":[
					0.6920710802078247,
					0.6920710802078247,
					0.7874122858047485,
					1
				],
				"metallicFactor":0.6000000238418579,
				"roughnessFactor":0.30000001192092896
			}
		},
		{
			"name":"buckle",
			"pbrMetallicRoughness":{
				"baseColorFactor":[
					0.6920710802078247,
					0.4479884207248688,
					0.07323895394802094,
					1
				],
				"metallicFactor":0.8999999761581421,
				"roughnessFactor":0.30000001192092896
			}
		},
		{
			"name":"blade",
			"normalTexture":{
				"index":7,
				"scale":0.30000001192092896
			},
			"pbrMetallicRoughness":{
				"baseColorFactor":[
					0.7484140992164612,
					0.7874122858047485,
					0.8900054097175598,
					1
				],
				"metallicFactor":0.550000011920929,
				"roughnessFactor":0.2199999988079071
			}
		},
		{
			"name":"handle",
			"normalTexture":{
				"index":8,
				"scale":0.6000000238418579
			},
			"pbrMetallicRoughness":{
				"baseColorFactor":[
					0.0134117491543293,
					0.007194409146904945,
					0.004896310158073902,
					1
				],
				"metallicFactor":0,
				"roughnessFactor":0.6000000238418579
			}
		}
	],
	"meshes":[
		{
			"name":"knight",
			"primitives":[
				{
					"attributes":{
						"POSITION":0,
						"NORMAL":1,
						"TEXCOORD_0":2,
						"JOINTS_0":3,
						"WEIGHTS_0":4
					},
					"indices":5,
					"material":0
				},
				{
					"attributes":{
						"POSITION":6,
						"NORMAL":7,
						"TEXCOORD_0":8,
						"JOINTS_0":9,
						"WEIGHTS_0":10
					},
					"indices":11,
					"material":1
				},
				{
					"attributes":{
						"POSITION":12,
						"NORMAL":13,
						"TEXCOORD_0":14,
						"JOINTS_0":15,
						"WEIGHTS_0":16
					},
					"indices":17,
					"material":2
				},
				{
					"attributes":{
						"POSITION":18,
						"NORMAL":19,
						"TEXCOORD_0":20,
						"JOINTS_0":21,
						"WEIGHTS_0":22
					},
					"indices":23,
					"material":3
				},
				{
					"attributes":{
						"POSITION":24,
						"NORMAL":25,
						"TEXCOORD_0":26,
						"JOINTS_0":27,
						"WEIGHTS_0":28
					},
					"indices":29,
					"material":4
				},
				{
					"attributes":{
						"POSITION":30,
						"NORMAL":31,
						"TEXCOORD_0":32,
						"JOINTS_0":33,
						"WEIGHTS_0":34
					},
					"indices":35,
					"material":5
				},
				{
					"attributes":{
						"POSITION":36,
						"NORMAL":37,
						"TEXCOORD_0":38,
						"JOINTS_0":39,
						"WEIGHTS_0":40
					},
					"indices":41,
					"material":6
				},
				{
					"attributes":{
						"POSITION":42,
						"NORMAL":43,
						"TEXCOORD_0":44,
						"JOINTS_0":45,
						"WEIGHTS_0":46
					},
					"indices":47,
					"material":7
				},
				{
					"attributes":{
						"POSITION":48,
						"NORMAL":49,
						"TEXCOORD_0":50,
						"JOINTS_0":51,
						"WEIGHTS_0":52
					},
					"indices":53,
					"material":8
				},
				{
					"attributes":{
						"POSITION":54,
						"NORMAL":55,
						"TEXCOORD_0":56,
						"JOINTS_0":57,
						"WEIGHTS_0":58
					},
					"indices":59,
					"material":9
				},
				{
					"attributes":{
						"POSITION":60,
						"NORMAL":61,
						"TEXCOORD_0":62,
						"JOINTS_0":63,
						"WEIGHTS_0":64
					},
					"indices":65,
					"material":10
				},
				{
					"attributes":{
						"POSITION":66,
						"NORMAL":67,
						"TEXCOORD_0":68,
						"JOINTS_0":69,
						"WEIGHTS_0":70
					},
					"indices":71,
					"material":11
				},
				{
					"attributes":{
						"POSITION":72,
						"NORMAL":73,
						"TEXCOORD_0":74,
						"JOINTS_0":75,
						"WEIGHTS_0":76
					},
					"indices":77,
					"material":12
				},
				{
					"attributes":{
						"POSITION":78,
						"NORMAL":79,
						"TEXCOORD_0":80,
						"JOINTS_0":81,
						"WEIGHTS_0":82
					},
					"indices":83,
					"material":13
				}
			]
		}
	],
	"textures":[
		{
			"sampler":0,
			"source":0
		},
		{
			"sampler":0,
			"source":1
		},
		{
			"sampler":0,
			"source":2
		},
		{
			"sampler":0,
			"source":2
		},
		{
			"sampler":0,
			"source":2
		},
		{
			"sampler":0,
			"source":3
		},
		{
			"sampler":0,
			"source":4
		},
		{
			"sampler":0,
			"source":4
		},
		{
			"sampler":0,
			"source":3
		}
	],
	"images":[
		{
			"mimeType":"image/png",
			"name":"N_skin",
			"uri":"texturas/N_skin.png"
		},
		{
			"mimeType":"image/png",
			"name":"N_hair",
			"uri":"texturas/N_hair.png"
		},
		{
			"mimeType":"image/png",
			"name":"N_cloth",
			"uri":"texturas/N_cloth.png"
		},
		{
			"mimeType":"image/png",
			"name":"N_leather",
			"uri":"texturas/N_leather.png"
		},
		{
			"mimeType":"image/png",
			"name":"N_metal",
			"uri":"texturas/N_metal.png"
		}
	],
	"skins":[
		{
			"inverseBindMatrices":84,
			"joints":[
				16,
				9,
				8,
				1,
				0,
				4,
				3,
				2,
				7,
				6,
				5,
				12,
				11,
				10,
				15,
				14,
				13
			],
			"name":"knight_rig"
		}
	],
	"accessors":[
		{
			"bufferView":0,
			"componentType":5126,
			"count":961,
			"max":[
				0.11211811006069183,
				1.962399959564209,
				0.11793381720781326
			],
			"min":[
				-0.11211811006069183,
				1.6186611652374268,
				-0.12768439948558807
			],
			"type":"VEC3"
		},
		{
			"bufferView":1,
			"componentType":5126,
			"count":961,
			"type":"VEC3"
		},
		{
			"bufferView":2,
			"componentType":5126,
			"count":961,
			"type":"VEC2"
		},
		{
			"bufferView":3,
			"componentType":5121,
			"count":961,
			"type":"VEC4"
		},
		{
			"bufferView":4,
			"componentType":5126,
			"count":961,
			"type":"VEC4"
		},
		{
			"bufferView":5,
			"componentType":5123,
			"count":3888,
			"type":"SCALAR"
		},
		{
			"bufferView":6,
			"componentType":5126,
			"count":48,
			"max":[
				0.05389999970793724,
				1.8700001239776611,
				-0.09239999949932098
			],
			"min":[
				-0.05389999970793724,
				1.8634001016616821,
				-0.0990000069141388
			],
			"type":"VEC3"
		},
		{
			"bufferView":7,
			"componentType":5126,
			"count":48,
			"type":"VEC3"
		},
		{
			"bufferView":8,
			"componentType":5126,
			"count":48,
			"type":"VEC2"
		},
		{
			"bufferView":9,
			"componentType":5121,
			"count":48,
			"type":"VEC4"
		},
		{
			"bufferView":10,
			"componentType":5126,
			"count":48,
			"type":"VEC4"
		},
		{
			"bufferView":11,
			"componentType":5123,
			"count":72,
			"type":"SCALAR"
		},
		{
			"bufferView":12,
			"componentType":5126,
			"count":1426,
			"max":[
				0.42087259888648987,
				1.6203055381774902,
				0.16117870807647705
			],
			"min":[
				-0.42087259888648987,
				1.0207916498184204,
				-0.16295400261878967
			],
			"type":"VEC3"
		},
		{
			"bufferView":13,
			"componentType":5126,
			"count":1426,
			"type":"VEC3"
		},
		{
			"bufferView":14,
			"componentType":5126,
			"count":1426,
			"type":"VEC2"
		},
		{
			"bufferView":15,
			"componentType":5121,
			"count":1426,
			"type":"VEC4"
		},
		{
			"bufferView":16,
			"componentType":5126,
			"count":1426,
			"type":"VEC4"
		},
		{
			"bufferView":17,
			"componentType":5123,
			"count":6480,
			"type":"SCALAR"
		},
		{
			"bufferView":18,
			"componentType":5126,
			"count":60,
			"max":[
				0.18401317298412323,
				1.109222173690796,
				0.16474983096122742
			],
			"min":[
				-0.18401315808296204,
				0.9672240018844604,
				-0.16622601449489594
			],
			"type":"VEC3"
		},
		{
			"bufferView":19,
			"componentType":5126,
			"count":60,
			"type":"VEC3"
		},
		{
			"bufferView":20,
			"componentType":5126,
			"count":60,
			"type":"VEC2"
		},
		{
			"bufferView":21,
			"componentType":5121,
			"count":60,
			"type":"VEC4"
		},
		{
			"bufferView":22,
			"componentType":5126,
			"count":60,
			"type":"VEC4"
		},
		{
			"bufferView":23,
			"componentType":5123,
			"count":168,
			"type":"SCALAR"
		},
		{
			"bufferView":24,
			"componentType":5126,
			"count":979,
			"max":[
				0.41585662961006165,
				1.0441093444824219,
				0.16206865012645721
			],
			"min":[
				-0.41585662961006165,
				0.31512999534606934,
				-0.16388793289661407
			],
			"type":"VEC3"
		},
		{
			"bufferView":25,
			"componentType":5126,
			"count":979,
			"type":"VEC3"
		},
		{
			"bufferView":26,
			"componentType":5126,
			"count":979,
			"type":"VEC2"
		},
		{
			"bufferView":27,
			"componentType":5121,
			"count":979,
			"type":"VEC4"
		},
		{
			"bufferView":28,
			"componentType":5126,
			"count":979,
			"type":"VEC4"
		},
		{
			"bufferView":29,
			"componentType":5123,
			"count":4344,
			"type":"SCALAR"
		},
		{
			"bufferView":30,
			"componentType":5126,
			"count":1332,
			"max":[
				0.41396695375442505,
				0.9981210827827454,
				0.09324821084737778
			],
			"min":[
				-0.41396692395210266,
				0.008360845036804676,
				-0.15413203835487366
			],
			"type":"VEC3"
		},
		{
			"bufferView":31,
			"componentType":5126,
			"count":1332,
			"type":"VEC3"
		},
		{
			"bufferView":32,
			"componentType":5126,
			"count":1332,
			"type":"VEC2"
		},
		{
			"bufferView":33,
			"componentType":5121,
			"count":1332,
			"type":"VEC4"
		},
		{
			"bufferView":34,
			"componentType":5126,
			"count":1332,
			"type":"VEC4"
		},
		{
			"bufferView":35,
			"componentType":5123,
			"count":5760,
			"type":"SCALAR"
		},
		{
			"bufferView":36,
			"componentType":5126,
			"count":304,
			"max":[
				0.05609999969601631,
				1.8551499843597412,
				-0.07699999958276749
			],
			"min":[
				-0.05609999969601631,
				1.8298499584197998,
				-0.09679999947547913
			],
			"type":"VEC3"
		},
		{
			"bufferView":37,
			"componentType":5126,
			"count":304,
			"type":"VEC3"
		},
		{
			"bufferView":38,
			"componentType":5126,
			"count":304,
			"type":"VEC2"
		},
		{
			"bufferView":39,
			"componentType":5121,
			"count":304,
			"type":"VEC4"
		},
		{
			"bufferView":40,
			"componentType":5126,
			"count":304,
			"type":"VEC4"
		},
		{
			"bufferView":41,
			"componentType":5123,
			"count":1152,
			"type":"SCALAR"
		},
		{
			"bufferView":42,
			"componentType":5126,
			"count":220,
			"max":[
				0.047849997878074646,
				1.8532800674438477,
				-0.08934227377176285
			],
			"min":[
				-0.047849997878074646,
				1.831719994544983,
				-0.09875773638486862
			],
			"type":"VEC3"
		},
		{
			"bufferView":43,
			"componentType":5126,
			"count":220,
			"type":"VEC3"
		},
		{
			"bufferView":44,
			"componentType":5126,
			"count":220,
			"type":"VEC2"
		},
		{
			"bufferView":45,
			"componentType":5121,
			"count":220,
			"type":"VEC4"
		},
		{
			"bufferView":46,
			"componentType":5126,
			"count":220,
			"type":"VEC4"
		},
		{
			"bufferView":47,
			"componentType":5123,
			"count":720,
			"type":"SCALAR"
		},
		{
			"bufferView":48,
			"componentType":5126,
			"count":160,
			"max":[
				0.041793882846832275,
				1.8474500179290771,
				-0.09558767825365067
			],
			"min":[
				-0.041793882846832275,
				1.8375500440597534,
				-0.09977232664823532
			],
			"type":"VEC3"
		},
		{
			"bufferView":49,
			"componentType":5126,
			"count":160,
			"type":"VEC3"
		},
		{
			"bufferView":50,
			"componentType":5126,
			"count":160,
			"type":"VEC2"
		},
		{
			"bufferView":51,
			"componentType":5121,
			"count":160,
			"type":"VEC4"
		},
		{
			"bufferView":52,
			"componentType":5126,
			"count":160,
			"type":"VEC4"
		},
		{
			"bufferView":53,
			"componentType":5123,
			"count":480,
			"type":"SCALAR"
		},
		{
			"bufferView":54,
			"componentType":5126,
			"count":98,
			"max":[
				0.020899999886751175,
				1.7682499885559082,
				-0.08549227565526962
			],
			"min":[
				-0.020899999886751175,
				1.7583500146865845,
				-0.0949077382683754
			],
			"type":"VEC3"
		},
		{
			"bufferView":55,
			"componentType":5126,
			"count":98,
			"type":"VEC3"
		},
		{
			"bufferView":56,
			"componentType":5126,
			"count":98,
			"type":"VEC2"
		},
		{
			"bufferView":57,
			"componentType":5121,
			"count":98,
			"type":"VEC4"
		},
		{
			"bufferView":58,
			"componentType":5126,
			"count":98,
			"type":"VEC4"
		},
		{
			"bufferView":59,
			"componentType":5123,
			"count":360,
			"type":"SCALAR"
		},
		{
			"bufferView":60,
			"componentType":5126,
			"count":969,
			"max":[
				0.3731200098991394,
				2.0107998847961426,
				0.13200001418590546
			],
			"min":[
				-0.3731200098991394,
				1.221000075340271,
				-0.1413288563489914
			],
			"type":"VEC3"
		},
		{
			"bufferView":61,
			"componentType":5126,
			"count":969,
			"type":"VEC3"
		},
		{
			"bufferView":62,
			"componentType":5126,
			"count":969,
			"type":"VEC2"
		},
		{
			"bufferView":63,
			"componentType":5121,
			"count":969,
			"type":"VEC4"
		},
		{
			"bufferView":64,
			"componentType":5126,
			"count":969,
			"type":"VEC4"
		},
		{
			"bufferView":65,
			"componentType":5123,
			"count":3852,
			"type":"SCALAR"
		},
		{
			"bufferView":66,
			"componentType":5126,
			"count":24,
			"max":[
				0.027500001713633537,
				1.0670000314712524,
				-0.12430000305175781
			],
			"min":[
				-0.027500001713633537,
				1.0230000019073486,
				-0.13750000298023224
			],
			"type":"VEC3"
		},
		{
			"bufferView":67,
			"componentType":5126,
			"count":24,
			"type":"VEC3"
		},
		{
			"bufferView":68,
			"componentType":5126,
			"count":24,
			"type":"VEC2"
		},
		{
			"bufferView":69,
			"componentType":5121,
			"count":24,
			"type":"VEC4"
		},
		{
			"bufferView":70,
			"componentType":5126,
			"count":24,
			"type":"VEC4"
		},
		{
			"bufferView":71,
			"componentType":5123,
			"count":36,
			"type":"SCALAR"
		},
		{
			"bufferView":72,
			"componentType":5126,
			"count":42,
			"max":[
				0.40255600214004517,
				2.5299999713897705,
				0.016500001773238182
			],
			"min":[
				0.38275599479675293,
				2.200000047683716,
				-0.07149999588727951
			],
			"type":"VEC3"
		},
		{
			"bufferView":73,
			"componentType":5126,
			"count":42,
			"type":"VEC3"
		},
		{
			"bufferView":74,
			"componentType":5126,
			"count":42,
			"type":"VEC2"
		},
		{
			"bufferView":75,
			"componentType":5121,
			"count":42,
			"type":"VEC4"
		},
		{
			"bufferView":76,
			"componentType":5126,
			"count":42,
			"type":"VEC4"
		},
		{
			"bufferView":77,
			"componentType":5123,
			"count":72,
			"type":"SCALAR"
		},
		{
			"bufferView":78,
			"componentType":5126,
			"count":42,
			"max":[
				0.40805599093437195,
				2.200000047683716,
				-0.012099998071789742
			],
			"min":[
				0.37725600600242615,
				0.10999996215105057,
				-0.04289999604225159
			],
			"type":"VEC3"
		},
		{
			"bufferView":79,
			"componentType":5126,
			"count":42,
			"type":"VEC3"
		},
		{
			"bufferView":80,
			"componentType":5126,
			"count":42,
			"type":"VEC2"
		},
		{
			"bufferView":81,
			"componentType":5121,
			"count":42,
			"type":"VEC4"
		},
		{
			"bufferView":82,
			"componentType":5126,
			"count":42,
			"type":"VEC4"
		},
		{
			"bufferView":83,
			"componentType":5123,
			"count":96,
			"type":"SCALAR"
		},
		{
			"bufferView":84,
			"componentType":5126,
			"count":17,
			"type":"MAT4"
		},
		{
			"bufferView":85,
			"componentType":5126,
			"count":2,
			"max":[
				0.6
			],
			"min":[
				0
			],
			"type":"SCALAR"
		},
		{
			"bufferView":86,
			"componentType":5126,
			"count":2,
			"type":"VEC3"
		},
		{
			"bufferView":87,
			"componentType":5126,
			"count":2,
			"type":"VEC4"
		},
		{
			"bufferView":88,
			"componentType":5126,
			"count":2,
			"type":"VEC3"
		},
		{
			"bufferView":89,
			"componentType":5126,
			"count":2,
			"type":"VEC3"
		},
		{
			"bufferView":90,
			"componentType":5126,
			"count":2,
			"type":"VEC4"
		},
		{
			"bufferView":91,
			"componentType":5126,
			"count":2,
			"type":"VEC3"
		},
		{
			"bufferView":92,
			"componentType":5126,
			"count":2,
			"type":"VEC3"
		},
		{
			"bufferView":93,
			"componentType":5126,
			"count":19,
			"max":[
				0.6
			],
			"min":[
				0
			],
			"type":"SCALAR"
		},
		{
			"bufferView":94,
			"componentType":5126,
			"count":19,
			"type":"VEC4"
		},
		{
			"bufferView":95,
			"componentType":5126,
			"count":2,
			"type":"VEC3"
		},
		{
			"bufferView":96,
			"componentType":5126,
			"count":2,
			"type":"VEC3"
		},
		{
			"bufferView":97,
			"componentType":5126,
			"count":2,
			"type":"VEC4"
		},
		{
			"bufferView":98,
			"componentType":5126,
			"count":2,
			"type":"VEC3"
		},
		{
			"bufferView":99,
			"componentType":5126,
			"count":2,
			"type":"VEC3"
		},
		{
			"bufferView":100,
			"componentType":5126,
			"count":2,
			"type":"VEC4"
		},
		{
			"bufferView":101,
			"componentType":5126,
			"count":2,
			"type":"VEC3"
		},
		{
			"bufferView":102,
			"componentType":5126,
			"count":2,
			"type":"VEC3"
		},
		{
			"bufferView":103,
			"componentType":5126,
			"count":19,
			"type":"VEC4"
		},
		{
			"bufferView":104,
			"componentType":5126,
			"count":2,
			"type":"VEC3"
		},
		{
			"bufferView":105,
			"componentType":5126,
			"count":2,
			"type":"VEC3"
		},
		{
			"bufferView":106,
			"componentType":5126,
			"count":19,
			"type":"VEC4"
		},
		{
			"bufferView":107,
			"componentType":5126,
			"count":2,
			"type":"VEC3"
		},
		{
			"bufferView":108,
			"componentType":5126,
			"count":2,
			"type":"VEC3"
		},
		{
			"bufferView":109,
			"componentType":5126,
			"count":2,
			"type":"VEC4"
		},
		{
			"bufferView":110,
			"componentType":5126,
			"count":2,
			"type":"VEC3"
		},
		{
			"bufferView":111,
			"componentType":5126,
			"count":2,
			"type":"VEC3"
		},
		{
			"bufferView":112,
			"componentType":5126,
			"count":19,
			"type":"VEC4"
		},
		{
			"bufferView":113,
			"componentType":5126,
			"count":2,
			"type":"VEC3"
		},
		{
			"bufferView":114,
			"componentType":5126,
			"count":2,
			"type":"VEC3"
		},
		{
			"bufferView":115,
			"componentType":5126,
			"count":2,
			"type":"VEC4"
		},
		{
			"bufferView":116,
			"componentType":5126,
			"count":2,
			"type":"VEC3"
		},
		{
			"bufferView":117,
			"componentType":5126,
			"count":2,
			"type":"VEC3"
		},
		{
			"bufferView":118,
			"componentType":5126,
			"count":2,
			"type":"VEC4"
		},
		{
			"bufferView":119,
			"componentType":5126,
			"count":2,
			"type":"VEC3"
		},
		{
			"bufferView":120,
			"componentType":5126,
			"count":2,
			"type":"VEC3"
		},
		{
			"bufferView":121,
			"componentType":5126,
			"count":19,
			"type":"VEC4"
		},
		{
			"bufferView":122,
			"componentType":5126,
			"count":2,
			"type":"VEC3"
		},
		{
			"bufferView":123,
			"componentType":5126,
			"count":2,
			"type":"VEC3"
		},
		{
			"bufferView":124,
			"componentType":5126,
			"count":2,
			"type":"VEC4"
		},
		{
			"bufferView":125,
			"componentType":5126,
			"count":2,
			"type":"VEC3"
		},
		{
			"bufferView":126,
			"componentType":5126,
			"count":2,
			"type":"VEC3"
		},
		{
			"bufferView":127,
			"componentType":5126,
			"count":2,
			"type":"VEC4"
		},
		{
			"bufferView":128,
			"componentType":5126,
			"count":2,
			"type":"VEC3"
		},
		{
			"bufferView":129,
			"componentType":5126,
			"count":2,
			"type":"VEC3"
		},
		{
			"bufferView":130,
			"componentType":5126,
			"count":19,
			"type":"VEC4"
		},
		{
			"bufferView":131,
			"componentType":5126,
			"count":2,
			"type":"VEC3"
		},
		{
			"bufferView":132,
			"componentType":5126,
			"count":2,
			"type":"VEC3"
		},
		{
			"bufferView":133,
			"componentType":5126,
			"count":2,
			"type":"VEC4"
		},
		{
			"bufferView":134,
			"componentType":5126,
			"count":2,
			"type":"VEC3"
		},
		{
			"bufferView":135,
			"componentType":5126,
			"count":2,
			"type":"VEC3"
		},
		{
			"bufferView":136,
			"componentType":5126,
			"count":2,
			"type":"VEC4"
		},
		{
			"bufferView":137,
			"componentType":5126,
			"count":2,
			"type":"VEC3"
		},
		{
			"bufferView":138,
			"componentType":5126,
			"count":61,
			"max":[
				2
			],
			"min":[
				0
			],
			"type":"SCALAR"
		},
		{
			"bufferView":139,
			"componentType":5126,
			"count":61,
			"type":"VEC3"
		},
		{
			"bufferView":140,
			"componentType":5126,
			"count":2,
			"max":[
				2
			],
			"min":[
				0
			],
			"type":"SCALAR"
		},
		{
			"bufferView":141,
			"componentType":5126,
			"count":2,
			"type":"VEC4"
		},
		{
			"bufferView":142,
			"componentType":5126,
			"count":2,
			"type":"VEC3"
		},
		{
			"bufferView":143,
			"componentType":5126,
			"count":2,
			"type":"VEC3"
		},
		{
			"bufferView":144,
			"componentType":5126,
			"count":2,
			"type":"VEC4"
		},
		{
			"bufferView":145,
			"componentType":5126,
			"count":2,
			"type":"VEC3"
		},
		{
			"bufferView":146,
			"componentType":5126,
			"count":2,
			"type":"VEC3"
		},
		{
			"bufferView":147,
			"componentType":5126,
			"count":61,
			"type":"VEC4"
		},
		{
			"bufferView":148,
			"componentType":5126,
			"count":2,
			"type":"VEC3"
		},
		{
			"bufferView":149,
			"componentType":5126,
			"count":2,
			"type":"VEC3"
		},
		{
			"bufferView":150,
			"componentType":5126,
			"count":2,
			"type":"VEC4"
		},
		{
			"bufferView":151,
			"componentType":5126,
			"count":2,
			"type":"VEC3"
		},
		{
			"bufferView":152,
			"componentType":5126,
			"count":2,
			"type":"VEC3"
		},
		{
			"bufferView":153,
			"componentType":5126,
			"count":61,
			"type":"VEC4"
		},
		{
			"bufferView":154,
			"componentType":5126,
			"count":2,
			"type":"VEC3"
		},
		{
			"bufferView":155,
			"componentType":5126,
			"count":2,
			"type":"VEC3"
		},
		{
			"bufferView":156,
			"componentType":5126,
			"count":61,
			"type":"VEC4"
		},
		{
			"bufferView":157,
			"componentType":5126,
			"count":2,
			"type":"VEC3"
		},
		{
			"bufferView":158,
			"componentType":5126,
			"count":2,
			"type":"VEC3"
		},
		{
			"bufferView":159,
			"componentType":5126,
			"count":2,
			"type":"VEC4"
		},
		{
			"bufferView":160,
			"componentType":5126,
			"count":2,
			"type":"VEC3"
		},
		{
			"bufferView":161,
			"componentType":5126,
			"count":2,
			"type":"VEC3"
		},
		{
			"bufferView":162,
			"componentType":5126,
			"count":2,
			"type":"VEC4"
		},
		{
			"bufferView":163,
			"componentType":5126,
			"count":2,
			"type":"VEC3"
		},
		{
			"bufferView":164,
			"componentType":5126,
			"count":2,
			"type":"VEC3"
		},
		{
			"bufferView":165,
			"componentType":5126,
			"count":61,
			"type":"VEC4"
		},
		{
			"bufferView":166,
			"componentType":5126,
			"count":2,
			"type":"VEC3"
		},
		{
			"bufferView":167,
			"componentType":5126,
			"count":2,
			"type":"VEC3"
		},
		{
			"bufferView":168,
			"componentType":5126,
			"count":2,
			"type":"VEC4"
		},
		{
			"bufferView":169,
			"componentType":5126,
			"count":2,
			"type":"VEC3"
		},
		{
			"bufferView":170,
			"componentType":5126,
			"count":2,
			"type":"VEC3"
		},
		{
			"bufferView":171,
			"componentType":5126,
			"count":2,
			"type":"VEC4"
		},
		{
			"bufferView":172,
			"componentType":5126,
			"count":2,
			"type":"VEC3"
		},
		{
			"bufferView":173,
			"componentType":5126,
			"count":2,
			"type":"VEC3"
		},
		{
			"bufferView":174,
			"componentType":5126,
			"count":2,
			"type":"VEC4"
		},
		{
			"bufferView":175,
			"componentType":5126,
			"count":2,
			"type":"VEC3"
		},
		{
			"bufferView":176,
			"componentType":5126,
			"count":2,
			"type":"VEC3"
		},
		{
			"bufferView":177,
			"componentType":5126,
			"count":2,
			"type":"VEC4"
		},
		{
			"bufferView":178,
			"componentType":5126,
			"count":2,
			"type":"VEC3"
		},
		{
			"bufferView":179,
			"componentType":5126,
			"count":2,
			"type":"VEC3"
		},
		{
			"bufferView":180,
			"componentType":5126,
			"count":2,
			"type":"VEC4"
		},
		{
			"bufferView":181,
			"componentType":5126,
			"count":2,
			"type":"VEC3"
		},
		{
			"bufferView":182,
			"componentType":5126,
			"count":2,
			"type":"VEC3"
		},
		{
			"bufferView":183,
			"componentType":5126,
			"count":2,
			"type":"VEC4"
		},
		{
			"bufferView":184,
			"componentType":5126,
			"count":2,
			"type":"VEC3"
		},
		{
			"bufferView":185,
			"componentType":5126,
			"count":2,
			"type":"VEC3"
		},
		{
			"bufferView":186,
			"componentType":5126,
			"count":2,
			"type":"VEC4"
		},
		{
			"bufferView":187,
			"componentType":5126,
			"count":2,
			"type":"VEC3"
		},
		{
			"bufferView":188,
			"componentType":5126,
			"count":2,
			"type":"VEC3"
		},
		{
			"bufferView":189,
			"componentType":5126,
			"count":2,
			"type":"VEC4"
		},
		{
			"bufferView":190,
			"componentType":5126,
			"count":2,
			"type":"VEC3"
		},
		{
			"bufferView":191,
			"componentType":5126,
			"count":31,
			"max":[
				1
			],
			"min":[
				0
			],
			"type":"SCALAR"
		},
		{
			"bufferView":192,
			"componentType":5126,
			"count":31,
			"type":"VEC3"
		},
		{
			"bufferView":193,
			"componentType":5126,
			"count":31,
			"type":"VEC4"
		},
		{
			"bufferView":194,
			"componentType":5126,
			"count":2,
			"max":[
				1
			],
			"min":[
				0
			],
			"type":"SCALAR"
		},
		{
			"bufferView":195,
			"componentType":5126,
			"count":2,
			"type":"VEC3"
		},
		{
			"bufferView":196,
			"componentType":5126,
			"count":2,
			"type":"VEC3"
		},
		{
			"bufferView":197,
			"componentType":5126,
			"count":2,
			"type":"VEC4"
		},
		{
			"bufferView":198,
			"componentType":5126,
			"count":2,
			"type":"VEC3"
		},
		{
			"bufferView":199,
			"componentType":5126,
			"count":2,
			"type":"VEC3"
		},
		{
			"bufferView":200,
			"componentType":5126,
			"count":31,
			"type":"VEC4"
		},
		{
			"bufferView":201,
			"componentType":5126,
			"count":2,
			"type":"VEC3"
		},
		{
			"bufferView":202,
			"componentType":5126,
			"count":2,
			"type":"VEC3"
		},
		{
			"bufferView":203,
			"componentType":5126,
			"count":2,
			"type":"VEC4"
		},
		{
			"bufferView":204,
			"componentType":5126,
			"count":2,
			"type":"VEC3"
		},
		{
			"bufferView":205,
			"componentType":5126,
			"count":2,
			"type":"VEC3"
		},
		{
			"bufferView":206,
			"componentType":5126,
			"count":2,
			"type":"VEC4"
		},
		{
			"bufferView":207,
			"componentType":5126,
			"count":2,
			"type":"VEC3"
		},
		{
			"bufferView":208,
			"componentType":5126,
			"count":2,
			"type":"VEC3"
		},
		{
			"bufferView":209,
			"componentType":5126,
			"count":31,
			"type":"VEC4"
		},
		{
			"bufferView":210,
			"componentType":5126,
			"count":2,
			"type":"VEC3"
		},
		{
			"bufferView":211,
			"componentType":5126,
			"count":2,
			"type":"VEC3"
		},
		{
			"bufferView":212,
			"componentType":5126,
			"count":2,
			"type":"VEC4"
		},
		{
			"bufferView":213,
			"componentType":5126,
			"count":2,
			"type":"VEC3"
		},
		{
			"bufferView":214,
			"componentType":5126,
			"count":2,
			"type":"VEC3"
		},
		{
			"bufferView":215,
			"componentType":5126,
			"count":2,
			"type":"VEC4"
		},
		{
			"bufferView":216,
			"componentType":5126,
			"count":2,
			"type":"VEC3"
		},
		{
			"bufferView":217,
			"componentType":5126,
			"count":2,
			"type":"VEC3"
		},
		{
			"bufferView":218,
			"componentType":5126,
			"count":31,
			"type":"VEC4"
		},
		{
			"bufferView":219,
			"componentType":5126,
			"count":2,
			"type":"VEC3"
		},
		{
			"bufferView":220,
			"componentType":5126,
			"count":2,
			"type":"VEC3"
		},
		{
			"bufferView":221,
			"componentType":5126,
			"count":2,
			"type":"VEC4"
		},
		{
			"bufferView":222,
			"componentType":5126,
			"count":2,
			"type":"VEC3"
		},
		{
			"bufferView":223,
			"componentType":5126,
			"count":2,
			"type":"VEC3"
		},
		{
			"bufferView":224,
			"componentType":5126,
			"count":2,
			"type":"VEC4"
		},
		{
			"bufferView":225,
			"componentType":5126,
			"count":2,
			"type":"VEC3"
		},
		{
			"bufferView":226,
			"componentType":5126,
			"count":2,
			"type":"VEC3"
		},
		{
			"bufferView":227,
			"componentType":5126,
			"count":31,
			"type":"VEC4"
		},
		{
			"bufferView":228,
			"componentType":5126,
			"count":2,
			"type":"VEC3"
		},
		{
			"bufferView":229,
			"componentType":5126,
			"count":2,
			"type":"VEC3"
		},
		{
			"bufferView":230,
			"componentType":5126,
			"count":31,
			"type":"VEC4"
		},
		{
			"bufferView":231,
			"componentType":5126,
			"count":2,
			"type":"VEC3"
		},
		{
			"bufferView":232,
			"componentType":5126,
			"count":2,
			"type":"VEC3"
		},
		{
			"bufferView":233,
			"componentType":5126,
			"count":31,
			"type":"VEC4"
		},
		{
			"bufferView":234,
			"componentType":5126,
			"count":2,
			"type":"VEC3"
		},
		{
			"bufferView":235,
			"componentType":5126,
			"count":2,
			"type":"VEC3"
		},
		{
			"bufferView":236,
			"componentType":5126,
			"count":31,
			"type":"VEC4"
		},
		{
			"bufferView":237,
			"componentType":5126,
			"count":2,
			"type":"VEC3"
		},
		{
			"bufferView":238,
			"componentType":5126,
			"count":2,
			"type":"VEC3"
		},
		{
			"bufferView":239,
			"componentType":5126,
			"count":31,
			"type":"VEC4"
		},
		{
			"bufferView":240,
			"componentType":5126,
			"count":2,
			"type":"VEC3"
		},
		{
			"bufferView":241,
			"componentType":5126,
			"count":2,
			"type":"VEC3"
		},
		{
			"bufferView":242,
			"componentType":5126,
			"count":31,
			"type":"VEC4"
		},
		{
			"bufferView":243,
			"componentType":5126,
			"count":2,
			"type":"VEC3"
		}
	],
	"bufferViews":[
		{
			"buffer":0,
			"byteLength":11532,
			"byteOffset":0,
			"target":34962
		},
		{
			"buffer":0,
			"byteLength":11532,
			"byteOffset":11532,
			"target":34962
		},
		{
			"buffer":0,
			"byteLength":7688,
			"byteOffset":23064,
			"target":34962
		},
		{
			"buffer":0,
			"byteLength":3844,
			"byteOffset":30752,
			"target":34962
		},
		{
			"buffer":0,
			"byteLength":15376,
			"byteOffset":34596,
			"target":34962
		},
		{
			"buffer":0,
			"byteLength":7776,
			"byteOffset":49972,
			"target":34963
		},
		{
			"buffer":0,
			"byteLength":576,
			"byteOffset":57748,
			"target":34962
		},
		{
			"buffer":0,
			"byteLength":576,
			"byteOffset":58324,
			"target":34962
		},
		{
			"buffer":0,
			"byteLength":384,
			"byteOffset":58900,
			"target":34962
		},
		{
			"buffer":0,
			"byteLength":192,
			"byteOffset":59284,
			"target":34962
		},
		{
			"buffer":0,
			"byteLength":768,
			"byteOffset":59476,
			"target":34962
		},
		{
			"buffer":0,
			"byteLength":144,
			"byteOffset":60244,
			"target":34963
		},
		{
			"buffer":0,
			"byteLength":17112,
			"byteOffset":60388,
			"target":34962
		},
		{
			"buffer":0,
			"byteLength":17112,
			"byteOffset":77500,
			"target":34962
		},
		{
			"buffer":0,
			"byteLength":11408,
			"byteOffset":94612,
			"target":34962
		},
		{
			"buffer":0,
			"byteLength":5704,
			"byteOffset":106020,
			"target":34962
		},
		{
			"buffer":0,
			"byteLength":22816,
			"byteOffset":111724,
			"target":34962
		},
		{
			"buffer":0,
			"byteLength":12960,
			"byteOffset":134540,
			"target":34963
		},
		{
			"buffer":0,
			"byteLength":720,
			"byteOffset":147500,
			"target":34962
		},
		{
			"buffer":0,
			"byteLength":720,
			"byteOffset":148220,
			"target":34962
		},
		{
			"buffer":0,
			"byteLength":480,
			"byteOffset":148940,
			"target":34962
		},
		{
			"buffer":0,
			"byteLength":240,
			"byteOffset":149420,
			"target":34962
		},
		{
			"buffer":0,
			"byteLength":960,
			"byteOffset":149660,
			"target":34962
		},
		{
			"buffer":0,
			"byteLength":336,
			"byteOffset":150620,
			"target":34963
		},
		{
			"buffer":0,
			"byteLength":11748,
			"byteOffset":150956,
			"target":34962
		},
		{
			"buffer":0,
			"byteLength":11748,
			"byteOffset":162704,
			"target":34962
		},
		{
			"buffer":0,
			"byteLength":7832,
			"byteOffset":174452,
			"target":34962
		},
		{
			"buffer":0,
			"byteLength":3916,
			"byteOffset":182284,
			"target":34962
		},
		{
			"buffer":0,
			"byteLength":15664,
			"byteOffset":186200,
			"target":34962
		},
		{
			"buffer":0,
			"byteLength":8688,
			"byteOffset":201864,
			"target":34963
		},
		{
			"buffer":0,
			"byteLength":15984,
			"byteOffset":210552,
			"target":34962
		},
		{
			"buffer":0,
			"byteLength":15984,
			"byteOffset":226536,
			"target":34962
		},
		{
			"buffer":0,
			"byteLength":10656,
			"byteOffset":242520,
			"target":34962
		},
		{
			"buffer":0,
			"byteLength":5328,
			"byteOffset":253176,
			"target":34962
		},
		{
			"buffer":0,
			"byteLength":21312,
			"byteOffset":258504,
			"target":34962
		},
		{
			"buffer":0,
			"byteLength":11520,
			"byteOffset":279816,
			"target":34963
		},
		{
			"buffer":0,
			"byteLength":3648,
			"byteOffset":291336,
			"target":34962
		},
		{
			"buffer":0,
			"byteLength":3648,
			"byteOffset":294984,
			"target":34962
		},
		{
			"buffer":0,
			"byteLength":2432,
			"byteOffset":298632,
			"target":34962
		},
		{
			"buffer":0,
			"byteLength":1216,
			"byteOffset":301064,
			"target":34962
		},
		{
			"buffer":0,
			"byteLength":4864,
			"byteOffset":302280,
			"target":34962
		},
		{
			"buffer":0,
			"byteLength":2304,
			"byteOffset":307144,
			"target":34963
		},
		{
			"buffer":0,
			"byteLength":2640,
			"byteOffset":309448,
			"target":34962
		},
		{
			"buffer":0,
			"byteLength":2640,
			"byteOffset":312088,
			"target":34962
		},
		{
			"buffer":0,
			"byteLength":1760,
			"byteOffset":314728,
			"target":34962
		},
		{
			"buffer":0,
			"byteLength":880,
			"byteOffset":316488,
			"target":34962
		},
		{
			"buffer":0,
			"byteLength":3520,
			"byteOffset":317368,
			"target":34962
		},
		{
			"buffer":0,
			"byteLength":1440,
			"byteOffset":320888,
			"target":34963
		},
		{
			"buffer":0,
			"byteLength":1920,
			"byteOffset":322328,
			"target":34962
		},
		{
			"buffer":0,
			"byteLength":1920,
			"byteOffset":324248,
			"target":34962
		},
		{
			"buffer":0,
			"byteLength":1280,
			"byteOffset":326168,
			"target":34962
		},
		{
			"buffer":0,
			"byteLength":640,
			"byteOffset":327448,
			"target":34962
		},
		{
			"buffer":0,
			"byteLength":2560,
			"byteOffset":328088,
			"target":34962
		},
		{
			"buffer":0,
			"byteLength":960,
			"byteOffset":330648,
			"target":34963
		},
		{
			"buffer":0,
			"byteLength":1176,
			"byteOffset":331608,
			"target":34962
		},
		{
			"buffer":0,
			"byteLength":1176,
			"byteOffset":332784,
			"target":34962
		},
		{
			"buffer":0,
			"byteLength":784,
			"byteOffset":333960,
			"target":34962
		},
		{
			"buffer":0,
			"byteLength":392,
			"byteOffset":334744,
			"target":34962
		},
		{
			"buffer":0,
			"byteLength":1568,
			"byteOffset":335136,
			"target":34962
		},
		{
			"buffer":0,
			"byteLength":720,
			"byteOffset":336704,
			"target":34963
		},
		{
			"buffer":0,
			"byteLength":11628,
			"byteOffset":337424,
			"target":34962
		},
		{
			"buffer":0,
			"byteLength":11628,
			"byteOffset":349052,
			"target":34962
		},
		{
			"buffer":0,
			"byteLength":7752,
			"byteOffset":360680,
			"target":34962
		},
		{
			"buffer":0,
			"byteLength":3876,
			"byteOffset":368432,
			"target":34962
		},
		{
			"buffer":0,
			"byteLength":15504,
			"byteOffset":372308,
			"target":34962
		},
		{
			"buffer":0,
			"byteLength":7704,
			"byteOffset":387812,
			"target":34963
		},
		{
			"buffer":0,
			"byteLength":288,
			"byteOffset":395516,
			"target":34962
		},
		{
			"buffer":0,
			"byteLength":288,
			"byteOffset":395804,
			"target":34962
		},
		{
			"buffer":0,
			"byteLength":192,
			"byteOffset":396092,
			"target":34962
		},
		{
			"buffer":0,
			"byteLength":96,
			"byteOffset":396284,
			"target":34962
		},
		{
			"buffer":0,
			"byteLength":384,
			"byteOffset":396380,
			"target":34962
		},
		{
			"buffer":0,
			"byteLength":72,
			"byteOffset":396764,
			"target":34963
		},
		{
			"buffer":0,
			"byteLength":504,
			"byteOffset":396836,
			"target":34962
		},
		{
			"buffer":0,
			"byteLength":504,
			"byteOffset":397340,
			"target":34962
		},
		{
			"buffer":0,
			"byteLength":336,
			"byteOffset":397844,
			"target":34962
		},
		{
			"buffer":0,
			"byteLength":168,
			"byteOffset":398180,
			"target":34962
		},
		{
			"buffer":0,
			"byteLength":672,
			"byteOffset":398348,
			"target":34962
		},
		{
			"buffer":0,
			"byteLength":144,
			"byteOffset":399020,
			"target":34963
		},
		{
			"buffer":0,
			"byteLength":504,
			"byteOffset":399164,
			"target":34962
		},
		{
			"buffer":0,
			"byteLength":504,
			"byteOffset":399668,
			"target":34962
		},
		{
			"buffer":0,
			"byteLength":336,
			"byteOffset":400172,
			"target":34962
		},
		{
			"buffer":0,
			"byteLength":168,
			"byteOffset":400508,
			"target":34962
		},
		{
			"buffer":0,
			"byteLength":672,
			"byteOffset":400676,
			"target":34962
		},
		{
			"buffer":0,
			"byteLength":192,
			"byteOffset":401348,
			"target":34963
		},
		{
			"buffer":0,
			"byteLength":1088,
			"byteOffset":401540
		},
		{
			"buffer":0,
			"byteLength":8,
			"byteOffset":402628
		},
		{
			"buffer":0,
			"byteLength":24,
			"byteOffset":402636
		},
		{
			"buffer":0,
			"byteLength":32,
			"byteOffset":402660
		},
		{
			"buffer":0,
			"byteLength":24,
			"byteOffset":402692
		},
		{
			"buffer":0,
			"byteLength":24,
			"byteOffset":402716
		},
		{
			"buffer":0,
			"byteLength":32,
			"byteOffset":402740
		},
		{
			"buffer":0,
			"byteLength":24,
			"byteOffset":402772
		},
		{
			"buffer":0,
			"byteLength":24,
			"byteOffset":402796
		},
		{
			"buffer":0,
			"byteLength":76,
			"byteOffset":402820
		},
		{
			"buffer":0,
			"byteLength":304,
			"byteOffset":402896
		},
		{
			"buffer":0,
			"byteLength":24,
			"byteOffset":403200
		},
		{
			"buffer":0,
			"byteLength":24,
			"byteOffset":403224
		},
		{
			"buffer":0,
			"byteLength":32,
			"byteOffset":403248
		},
		{
			"buffer":0,
			"byteLength":24,
			"byteOffset":403280
		},
		{
			"buffer":0,
			"byteLength":24,
			"byteOffset":403304
		},
		{
			"buffer":0,
			"byteLength":32,
			"byteOffset":403328
		},
		{
			"buffer":0,
			"byteLength":24,
			"byteOffset":403360
		},
		{
			"buffer":0,
			"byteLength":24,
			"byteOffset":403384
		},
		{
			"buffer":0,
			"byteLength":304,
			"byteOffset":403408
		},
		{
			"buffer":0,
			"byteLength":24,
			"byteOffset":403712
		},
		{
			"buffer":0,
			"byteLength":24,
			"byteOffset":403736
		},
		{
			"buffer":0,
			"byteLength":304,
			"byteOffset":403760
		},
		{
			"buffer":0,
			"byteLength":24,
			"byteOffset":404064
		},
		{
			"buffer":0,
			"byteLength":24,
			"byteOffset":404088
		},
		{
			"buffer":0,
			"byteLength":32,
			"byteOffset":404112
		},
		{
			"buffer":0,
			"byteLength":24,
			"byteOffset":404144
		},
		{
			"buffer":0,
			"byteLength":24,
			"byteOffset":404168
		},
		{
			"buffer":0,
			"byteLength":304,
			"byteOffset":404192
		},
		{
			"buffer":0,
			"byteLength":24,
			"byteOffset":404496
		},
		{
			"buffer":0,
			"byteLength":24,
			"byteOffset":404520
		},
		{
			"buffer":0,
			"byteLength":32,
			"byteOffset":404544
		},
		{
			"buffer":0,
			"byteLength":24,
			"byteOffset":404576
		},
		{
			"buffer":0,
			"byteLength":24,
			"byteOffset":404600
		},
		{
			"buffer":0,
			"byteLength":32,
			"byteOffset":404624
		},
		{
			"buffer":0,
			"byteLength":24,
			"byteOffset":404656
		},
		{
			"buffer":0,
			"byteLength":24,
			"byteOffset":404680
		},
		{
			"buffer":0,
			"byteLength":304,
			"byteOffset":404704
		},
		{
			"buffer":0,
			"byteLength":24,
			"byteOffset":405008
		},
		{
			"buffer":0,
			"byteLength":24,
			"byteOffset":405032
		},
		{
			"buffer":0,
			"byteLength":32,
			"byteOffset":405056
		},
		{
			"buffer":0,
			"byteLength":24,
			"byteOffset":405088
		},
		{
			"buffer":0,
			"byteLength":24,
			"byteOffset":405112
		},
		{
			"buffer":0,
			"byteLength":32,
			"byteOffset":405136
		},
		{
			"buffer":0,
			"byteLength":24,
			"byteOffset":405168
		},
		{
			"buffer":0,
			"byteLength":24,
			"byteOffset":405192
		},
		{
			"buffer":0,
			"byteLength":304,
			"byteOffset":405216
		},
		{
			"buffer":0,
			"byteLength":24,
			"byteOffset":405520
		},
		{
			"buffer":0,
			"byteLength":24,
			"byteOffset":405544
		},
		{
			"buffer":0,
			"byteLength":32,
			"byteOffset":405568
		},
		{
			"buffer":0,
			"byteLength":24,
			"byteOffset":405600
		},
		{
			"buffer":0,
			"byteLength":24,
			"byteOffset":405624
		},
		{
			"buffer":0,
			"byteLength":32,
			"byteOffset":405648
		},
		{
			"buffer":0,
			"byteLength":24,
			"byteOffset":405680
		},
		{
			"buffer":0,
			"byteLength":244,
			"byteOffset":405704
		},
		{
			"buffer":0,
			"byteLength":732,
			"byteOffset":405948
		},
		{
			"buffer":0,
			"byteLength":8,
			"byteOffset":406680
		},
		{
			"buffer":0,
			"byteLength":32,
			"byteOffset":406688
		},
		{
			"buffer":0,
			"byteLength":24,
			"byteOffset":406720
		},
		{
			"buffer":0,
			"byteLength":24,
			"byteOffset":406744
		},
		{
			"buffer":0,
			"byteLength":32,
			"byteOffset":406768
		},
		{
			"buffer":0,
			"byteLength":24,
			"byteOffset":406800
		},
		{
			"buffer":0,
			"byteLength":24,
			"byteOffset":406824
		},
		{
			"buffer":0,
			"byteLength":976,
			"byteOffset":406848
		},
		{
			"buffer":0,
			"byteLength":24,
			"byteOffset":407824
		},
		{
			"buffer":0,
			"byteLength":24,
			"byteOffset":407848
		},
		{
			"buffer":0,
			"byteLength":32,
			"byteOffset":407872
		},
		{
			"buffer":0,
			"byteLength":24,
			"byteOffset":407904
		},
		{
			"buffer":0,
			"byteLength":24,
			"byteOffset":407928
		},
		{
			"buffer":0,
			"byteLength":976,
			"byteOffset":407952
		},
		{
			"buffer":0,
			"byteLength":24,
			"byteOffset":408928
		},
		{
			"buffer":0,
			"byteLength":24,
			"byteOffset":408952
		},
		{
			"buffer":0,
			"byteLength":976,
			"byteOffset":408976
		},
		{
			"buffer":0,
			"byteLength":24,
			"byteOffset":409952
		},
		{
			"buffer":0,
			"byteLength":24,
			"byteOffset":409976
		},
		{
			"buffer":0,
			"byteLength":32,
			"byteOffset":410000
		},
		{
			"buffer":0,
			"byteLength":24,
			"byteOffset":410032
		},
		{
			"buffer":0,
			"byteLength":24,
			"byteOffset":410056
		},
		{
			"buffer":0,
			"byteLength":32,
			"byteOffset":410080
		},
		{
			"buffer":0,
			"byteLength":24,
			"byteOffset":410112
		},
		{
			"buffer":0,
			"byteLength":24,
			"byteOffset":410136
		},
		{
			"buffer":0,
			"byteLength":976,
			"byteOffset":410160
		},
		{
			"buffer":0,
			"byteLength":24,
			"byteOffset":411136
		},
		{
			"buffer":0,
			"byteLength":24,
			"byteOffset":411160
		},
		{
			"buffer":0,
			"byteLength":32,
			"byteOffset":411184
		},
		{
			"buffer":0,
			"byteLength":24,
			"byteOffset":411216
		},
		{
			"buffer":0,
			"byteLength":24,
			"byteOffset":411240
		},
		{
			"buffer":0,
			"byteLength":32,
			"byteOffset":411264
		},
		{
			"buffer":0,
			"byteLength":24,
			"byteOffset":411296
		},
		{
			"buffer":0,
			"byteLength":24,
			"byteOffset":411320
		},
		{
			"buffer":0,
			"byteLength":32,
			"byteOffset":411344
		},
		{
			"buffer":0,
			"byteLength":24,
			"byteOffset":411376
		},
		{
			"buffer":0,
			"byteLength":24,
			"byteOffset":411400
		},
		{
			"buffer":0,
			"byteLength":32,
			"byteOffset":411424
		},
		{
			"buffer":0,
			"byteLength":24,
			"byteOffset":411456
		},
		{
			"buffer":0,
			"byteLength":24,
			"byteOffset":411480
		},
		{
			"buffer":0,
			"byteLength":32,
			"byteOffset":411504
		},
		{
			"buffer":0,
			"byteLength":24,
			"byteOffset":411536
		},
		{
			"buffer":0,
			"byteLength":24,
			"byteOffset":411560
		},
		{
			"buffer":0,
			"byteLength":32,
			"byteOffset":411584
		},
		{
			"buffer":0,
			"byteLength":24,
			"byteOffset":411616
		},
		{
			"buffer":0,
			"byteLength":24,
			"byteOffset":411640
		},
		{
			"buffer":0,
			"byteLength":32,
			"byteOffset":411664
		},
		{
			"buffer":0,
			"byteLength":24,
			"byteOffset":411696
		},
		{
			"buffer":0,
			"byteLength":24,
			"byteOffset":411720
		},
		{
			"buffer":0,
			"byteLength":32,
			"byteOffset":411744
		},
		{
			"buffer":0,
			"byteLength":24,
			"byteOffset":411776
		},
		{
			"buffer":0,
			"byteLength":124,
			"byteOffset":411800
		},
		{
			"buffer":0,
			"byteLength":372,
			"byteOffset":411924
		},
		{
			"buffer":0,
			"byteLength":496,
			"byteOffset":412296
		},
		{
			"buffer":0,
			"byteLength":8,
			"byteOffset":412792
		},
		{
			"buffer":0,
			"byteLength":24,
			"byteOffset":412800
		},
		{
			"buffer":0,
			"byteLength":24,
			"byteOffset":412824
		},
		{
			"buffer":0,
			"byteLength":32,
			"byteOffset":412848
		},
		{
			"buffer":0,
			"byteLength":24,
			"byteOffset":412880
		},
		{
			"buffer":0,
			"byteLength":24,
			"byteOffset":412904
		},
		{
			"buffer":0,
			"byteLength":496,
			"byteOffset":412928
		},
		{
			"buffer":0,
			"byteLength":24,
			"byteOffset":413424
		},
		{
			"buffer":0,
			"byteLength":24,
			"byteOffset":413448
		},
		{
			"buffer":0,
			"byteLength":32,
			"byteOffset":413472
		},
		{
			"buffer":0,
			"byteLength":24,
			"byteOffset":413504
		},
		{
			"buffer":0,
			"byteLength":24,
			"byteOffset":413528
		},
		{
			"buffer":0,
			"byteLength":32,
			"byteOffset":413552
		},
		{
			"buffer":0,
			"byteLength":24,
			"byteOffset":413584
		},
		{
			"buffer":0,
			"byteLength":24,
			"byteOffset":413608
		},
		{
			"buffer":0,
			"byteLength":496,
			"byteOffset":413632
		},
		{
			"buffer":0,
			"byteLength":24,
			"byteOffset":414128
		},
		{
			"buffer":0,
			"byteLength":24,
			"byteOffset":414152
		},
		{
			"buffer":0,
			"byteLength":32,
			"byteOffset":414176
		},
		{
			"buffer":0,
			"byteLength":24,
			"byteOffset":414208
		},
		{
			"buffer":0,
			"byteLength":24,
			"byteOffset":414232
		},
		{
			"buffer":0,
			"byteLength":32,
			"byteOffset":414256
		},
		{
			"buffer":0,
			"byteLength":24,
			"byteOffset":414288
		},
		{
			"buffer":0,
			"byteLength":24,
			"byteOffset":414312
		},
		{
			"buffer":0,
			"byteLength":496,
			"byteOffset":414336
		},
		{
			"buffer":0,
			"byteLength":24,
			"byteOffset":414832
		},
		{
			"buffer":0,
			"byteLength":24,
			"byteOffset":414856
		},
		{
			"buffer":0,
			"byteLength":32,
			"byteOffset":414880
		},
		{
			"buffer":0,
			"byteLength":24,
			"byteOffset":414912
		},
		{
			"buffer":0,
			"byteLength":24,
			"byteOffset":414936
		},
		{
			"buffer":0,
			"byteLength":32,
			"byteOffset":414960
		},
		{
			"buffer":0,
			"byteLength":24,
			"byteOffset":414992
		},
		{
			"buffer":0,
			"byteLength":24,
			"byteOffset":415016
		},
		{
			"buffer":0,
			"byteLength":496,
			"byteOffset":415040
		},
		{
			"buffer":0,
			"byteLength":24,
			"byteOffset":415536
		},
		{
			"buffer":0,
			"byteLength":24,
			"byteOffset":415560
		},
		{
			"buffer":0,
			"byteLength":496,
			"byteOffset":415584
		},
		{
			"buffer":0,
			"byteLength":24,
			"byteOffset":416080
		},
		{
			"buffer":0,
			"byteLength":24,
			"byteOffset":416104
		},
		{
			"buffer":0,
			"byteLength":496,
			"byteOffset":416128
		},
		{
			"buffer":0,
			"byteLength":24,
			"byteOffset":416624
		},
		{
			"buffer":0,
			"byteLength":24,
			"byteOffset":416648
		},
		{
			"buffer":0,
			"byteLength":496,
			"byteOffset":416672
		},
		{
			"buffer":0,
			"byteLength":24,
			"byteOffset":417168
		},
		{
			"buffer":0,
			"byteLength":24,
			"byteOffset":417192
		},
		{
			"buffer":0,
			"byteLength":496,
			"byteOffset":417216
		},
		{
			"buffer":0,
			"byteLength":24,
			"byteOffset":417712
		},
		{
			"buffer":0,
			"byteLength":24,
			"byteOffset":417736
		},
		{
			"buffer":0,
			"byteLength":496,
			"byteOffset":417760
		},
		{
			"buffer":0,
			"byteLength":24,
			"byteOffset":418256
		}
	],
	"samplers":[
		{
			"magFilter":9729,
			"minFilter":9987
		}
	],
	"buffers":[
		{
			"byteLength":418280,
			"uri":"knight.bin"
		}
	]
}
