{
	"asset":{
		"generator":"Khronos glTF Blender I/O v4.2.57",
		"version":"2.0"
	},
	"extensionsUsed":[
		"KHR_materials_clearcoat",
		"KHR_materials_sheen"
	],
	"scene":0,
	"scenes":[
		{
			"name":"Scene",
			"nodes":[
				18
			]
		}
	],
	"nodes":[
		{
			"name":"head",
			"translation":[
				0,
				0.10799992084503174,
				0
			]
		},
		{
			"children":[
				0
			],
			"name":"neck",
			"translation":[
				0,
				0.2268000841140747,
				0
			]
		},
		{
			"name":"hand.R",
			"rotation":[
				-0.002831953577697277,
				-0.02058606594800949,
				0.02213028259575367,
				0.9995391368865967
			],
			"scale":[
				1,
				0.9999999403953552,
				0.9999999403953552
			],
			"translation":[
				2.6600901037454605e-08,
				0.2718654274940491,
				0
			]
		},
		{
			"children":[
				2
			],
			"name":"forearm.R",
			"rotation":[
				0.0478677973151207,
				-0.06073951721191406,
				0.07015442103147507,
				0.9945339560508728
			],
			"scale":[
				1,
				1.0000001192092896,
				1
			],
			"translation":[
				-6.752088665962219e-08,
				0.2984023690223694,
				-7.450580596923828e-09
			]
		},
		{
			"children":[
				3
			],
			"name":"upper_arm.R",
			"rotation":[
				0.988559901714325,
				0.10654255747795105,
				0.10654326528310776,
				0.006823107600212097
			],
			"scale":[
				0.9999948740005493,
				0.9999997019767761,
				0.9999998807907104
			],
			"translation":[
				0.2332800179719925,
				0.1727999448776245,
				0
			]
		},
		{
			"name":"hand.L",
			"rotation":[
				-0.002831953577697277,
				0.02058606594800949,
				-0.02213028259575367,
				0.9995391368865967
			],
			"scale":[
				1,
				0.9999999403953552,
				0.9999999403953552
			],
			"translation":[
				-2.6600901037454605e-08,
				0.2718654274940491,
				0
			]
		},
		{
			"children":[
				5
			],
			"name":"forearm.L",
			"rotation":[
				0.0478677973151207,
				0.06073951721191406,
				-0.07015442103147507,
				0.9945339560508728
			],
			"scale":[
				1,
				1.0000001192092896,
				1
			],
			"translation":[
				6.752088665962219e-08,
				0.2984023690223694,
				-7.450580596923828e-09
			]
		},
		{
			"children":[
				6
			],
			"name":"upper_arm.L",
			"rotation":[
				0.988559901714325,
				-0.10654255747795105,
				-0.10654326528310776,
				0.006823107600212097
			],
			"scale":[
				0.9999948740005493,
				0.9999997019767761,
				0.9999998807907104
			],
			"translation":[
				-0.2332800179719925,
				0.1727999448776245,
				0
			]
		},
		{
			"children":[
				1,
				4,
				7
			],
			"name":"chest",
			"translation":[
				0,
				0.18359994888305664,
				0
			]
		},
		{
			"children":[
				8
			],
			"name":"spine",
			"translation":[
				0,
				0.16200006008148193,
				0
			]
		},
		{
			"name":"foot.R",
			"rotation":[
				0.5914180278778076,
				-8.542647145226567e-10,
				4.099909856059014e-10,
				0.8063651323318481
			],
			"scale":[
				1,
				0.9999999403953552,
				1
			],
			"translation":[
				7.446673500055567e-09,
				0.4434370696544647,
				2.2476935868098735e-09
			]
		},
		{
			"children":[
				10
			],
			"name":"shin.R",
			"rotation":[
				-0.04151010140776634,
				-0.009864624589681625,
				0.009349505417048931,
				0.9990456104278564
			],
			"scale":[
				0.9999999403953552,
				1,
				1
			],
			"translation":[
				-7.887138053774834e-09,
				0.4430738091468811,
				3.259629011154175e-09
			]
		},
		{
			"children":[
				11
			],
			"name":"thigh.R",
			"rotation":[
				-0.9997993111610413,
				-0.009610523469746113,
				-0.009610562585294247,
				0.014720413833856583
			],
			"scale":[
				1,
				0.9999998807907104,
				1.0000001192092896
			],
			"translation":[
				0.09936000406742096,
				-0.021599948406219482,
				0
			]
		},
		{
			"name":"foot.L",
			"rotation":[
				0.5914180278778076,
				8.542647145226567e-10,
				-4.099909856059014e-10,
				0.8063651323318481
			],
			"scale":[
				1,
				0.9999999403953552,
				1
			],
			"translation":[
				-7.446673500055567e-09,
				0.4434370696544647,
				2.2476935868098735e-09
			]
		},
		{
			"children":[
				13
			],
			"name":"shin.L",
			"rotation":[
				-0.04151010140776634,
				0.009864624589681625,
				-0.009349505417048931,
				0.9990456104278564
			],
			"scale":[
				0.9999999403953552,
				1,
				1
			],
			"translation":[
				7.887138053774834e-09,
				0.4430738091468811,
				3.259629011154175e-09
			]
		},
		{
			"children":[
				14
			],
			"name":"thigh.L",
			"rotation":[
				-0.9997993111610413,
				0.009610523469746113,
				0.009610562585294247,
				0.014720413833856583
			],
			"scale":[
				1,
				0.9999998807907104,
				1.0000001192092896
			],
			"translation":[
				-0.09936000406742096,
				-0.021599948406219482,
				0
			]
		},
		{
			"children":[
				9,
				12,
				15
			],
			"name":"hips",
			"translation":[
				0,
				1.0044000148773193,
				0
			]
		},
		{
			"mesh":0,
			"name":"kondo",
			"skin":0
		},
		{
			"children":[
				17,
				16
			],
			"name":"kondo_rig"
		}
	],
	"animations":[
		{
			"channels":[
				{
					"sampler":0,
					"target":{
						"node":16,
						"path":"translation"
					}
				},
				{
					"sampler":1,
					"target":{
						"node":16,
						"path":"rotation"
					}
				},
				{
					"sampler":2,
					"target":{
						"node":16,
						"path":"scale"
					}
				},
				{
					"sampler":3,
					"target":{
						"node":9,
						"path":"translation"
					}
				},
				{
					"sampler":4,
					"target":{
						"node":9,
						"path":"rotation"
					}
				},
				{
					"sampler":5,
					"target":{
						"node":9,
						"path":"scale"
					}
				},
				{
					"sampler":6,
					"target":{
						"node":8,
						"path":"translation"
					}
				},
				{
					"sampler":7,
					"target":{
						"node":8,
						"path":"rotation"
					}
				},
				{
					"sampler":8,
					"target":{
						"node":8,
						"path":"scale"
					}
				},
				{
					"sampler":9,
					"target":{
						"node":1,
						"path":"translation"
					}
				},
				{
					"sampler":10,
					"target":{
						"node":1,
						"path":"rotation"
					}
				},
				{
					"sampler":11,
					"target":{
						"node":1,
						"path":"scale"
					}
				},
				{
					"sampler":12,
					"target":{
						"node":0,
						"path":"translation"
					}
				},
				{
					"sampler":13,
					"target":{
						"node":0,
						"path":"rotation"
					}
				},
				{
					"sampler":14,
					"target":{
						"node":0,
						"path":"scale"
					}
				},
				{
					"sampler":15,
					"target":{
						"node":4,
						"path":"translation"
					}
				},
				{
					"sampler":16,
					"target":{
						"node":4,
						"path":"rotation"
					}
				},
				{
					"sampler":17,
					"target":{
						"node":4,
						"path":"scale"
					}
				},
				{
					"sampler":18,
					"target":{
						"node":3,
						"path":"translation"
					}
				},
				{
					"sampler":19,
					"target":{
						"node":3,
						"path":"rotation"
					}
				},
				{
					"sampler":20,
					"target":{
						"node":3,
						"path":"scale"
					}
				},
				{
					"sampler":21,
					"target":{
						"node":2,
						"path":"translation"
					}
				},
				{
					"sampler":22,
					"target":{
						"node":2,
						"path":"rotation"
					}
				},
				{
					"sampler":23,
					"target":{
						"node":2,
						"path":"scale"
					}
				},
				{
					"sampler":24,
					"target":{
						"node":7,
						"path":"translation"
					}
				},
				{
					"sampler":25,
					"target":{
						"node":7,
						"path":"rotation"
					}
				},
				{
					"sampler":26,
					"target":{
						"node":7,
						"path":"scale"
					}
				},
				{
					"sampler":27,
					"target":{
						"node":6,
						"path":"translation"
					}
				},
				{
					"sampler":28,
					"target":{
						"node":6,
						"path":"rotation"
					}
				},
				{
					"sampler":29,
					"target":{
						"node":6,
						"path":"scale"
					}
				},
				{
					"sampler":30,
					"target":{
						"node":5,
						"path":"translation"
					}
				},
				{
					"sampler":31,
					"target":{
						"node":5,
						"path":"rotation"
					}
				},
				{
					"sampler":32,
					"target":{
						"node":5,
						"path":"scale"
					}
				},
				{
					"sampler":33,
					"target":{
						"node":12,
						"path":"translation"
					}
				},
				{
					"sampler":34,
					"target":{
						"node":12,
						"path":"rotation"
					}
				},
				{
					"sampler":35,
					"target":{
						"node":12,
						"path":"scale"
					}
				},
				{
					"sampler":36,
					"target":{
						"node":11,
						"path":"translation"
					}
				},
				{
					"sampler":37,
					"target":{
						"node":11,
						"path":"rotation"
					}
				},
				{
					"sampler":38,
					"target":{
						"node":11,
						"path":"scale"
					}
				},
				{
					"sampler":39,
					"target":{
						"node":10,
						"path":"translation"
					}
				},
				{
					"sampler":40,
					"target":{
						"node":10,
						"path":"rotation"
					}
				},
				{
					"sampler":41,
					"target":{
						"node":10,
						"path":"scale"
					}
				},
				{
					"sampler":42,
					"target":{
						"node":15,
						"path":"translation"
					}
				},
				{
					"sampler":43,
					"target":{
						"node":15,
						"path":"rotation"
					}
				},
				{
					"sampler":44,
					"target":{
						"node":15,
						"path":"scale"
					}
				},
				{
					"sampler":45,
					"target":{
						"node":14,
						"path":"translation"
					}
				},
				{
					"sampler":46,
					"target":{
						"node":14,
						"path":"rotation"
					}
				},
				{
					"sampler":47,
					"target":{
						"node":14,
						"path":"scale"
					}
				},
				{
					"sampler":48,
					"target":{
						"node":13,
						"path":"translation"
					}
				},
				{
					"sampler":49,
					"target":{
						"node":13,
						"path":"rotation"
					}
				},
				{
					"sampler":50,
					"target":{
						"node":13,
						"path":"scale"
					}
				}
			],
			"name":"attack",
			"samplers":[
				{
					"input":90,
					"interpolation":"STEP",
					"output":91
				},
				{
					"input":90,
					"interpolation":"STEP",
					"output":92
				},
				{
					"input":90,
					"interpolation":"STEP",
					"output":93
				},
				{
					"input":90,
					"interpolation":"STEP",
					"output":94
				},
				{
					"input":90,
					"interpolation":"STEP",
					"output":95
				},
				{
					"input":90,
					"interpolation":"STEP",
					"output":96
				},
				{
					"input":90,
					"interpolation":"STEP",
					"output":97
				},
				{
					"input":98,
					"interpolation":"LINEAR",
					"output":99
				},
				{
					"input":90,
					"interpolation":"STEP",
					"output":100
				},
				{
					"input":90,
					"interpolation":"STEP",
					"output":101
				},
				{
					"input":90,
					"interpolation":"STEP",
					"output":102
				},
				{
					"input":90,
					"interpolation":"STEP",
					"output":103
				},
				{
					"input":90,
					"interpolation":"STEP",
					"output":104
				},
				{
					"input":90,
					"interpolation":"STEP",
					"output":105
				},
				{
					"input":90,
					"interpolation":"STEP",
					"output":106
				},
				{
					"input":90,
					"interpolation":"STEP",
					"output":107
				},
				{
					"input":98,
					"interpolation":"LINEAR",
					"output":108
				},
				{
					"input":90,
					"interpolation":"STEP",
					"output":109
				},
				{
					"input":90,
					"interpolation":"LINEAR",
					"output":110
				},
				{
					"input":98,
					"interpolation":"LINEAR",
					"output":111
				},
				{
					"input":90,
					"interpolation":"STEP",
					"output":112
				},
				{
					"input":90,
					"interpolation":"LINEAR",
					"output":113
				},
				{
					"input":90,
					"interpolation":"LINEAR",
					"output":114
				},
				{
					"input":90,
					"interpolation":"STEP",
					"output":115
				},
				{
					"input":90,
					"interpolation":"STEP",
					"output":116
				},
				{
					"input":98,
					"interpolation":"LINEAR",
					"output":117
				},
				{
					"input":90,
					"interpolation":"STEP",
					"output":118
				},
				{
					"input":90,
					"interpolation":"STEP",
					"output":119
				},
				{
					"input":90,
					"interpolation":"STEP",
					"output":120
				},
				{
					"input":90,
					"interpolation":"STEP",
					"output":121
				},
				{
					"input":90,
					"interpolation":"STEP",
					"output":122
				},
				{
					"input":90,
					"interpolation":"STEP",
					"output":123
				},
				{
					"input":90,
					"interpolation":"STEP",
					"output":124
				},
				{
					"input":90,
					"interpolation":"STEP",
					"output":125
				},
				{
					"input":98,
					"interpolation":"LINEAR",
					"output":126
				},
				{
					"input":90,
					"interpolation":"STEP",
					"output":127
				},
				{
					"input":90,
					"interpolation":"LINEAR",
					"output":128
				},
				{
					"input":90,
					"interpolation":"LINEAR",
					"output":129
				},
				{
					"input":90,
					"interpolation":"STEP",
					"output":130
				},
				{
					"input":90,
					"interpolation":"LINEAR",
					"output":131
				},
				{
					"input":90,
					"interpolation":"LINEAR",
					"output":132
				},
				{
					"input":90,
					"interpolation":"STEP",
					"output":133
				},
				{
					"input":90,
					"interpolation":"STEP",
					"output":134
				},
				{
					"input":98,
					"interpolation":"LINEAR",
					"output":135
				},
				{
					"input":90,
					"interpolation":"STEP",
					"output":136
				},
				{
					"input":90,
					"interpolation":"LINEAR",
					"output":137
				},
				{
					"input":90,
					"interpolation":"LINEAR",
					"output":138
				},
				{
					"input":90,
					"interpolation":"STEP",
					"output":139
				},
				{
					"input":90,
					"interpolation":"LINEAR",
					"output":140
				},
				{
					"input":90,
					"interpolation":"LINEAR",
					"output":141
				},
				{
					"input":90,
					"interpolation":"STEP",
					"output":142
				}
			]
		},
		{
			"channels":[
				{
					"sampler":0,
					"target":{
						"node":16,
						"path":"translation"
					}
				},
				{
					"sampler":1,
					"target":{
						"node":16,
						"path":"rotation"
					}
				},
				{
					"sampler":2,
					"target":{
						"node":16,
						"path":"scale"
					}
				},
				{
					"sampler":3,
					"target":{
						"node":9,
						"path":"translation"
					}
				},
				{
					"sampler":4,
					"target":{
						"node":9,
						"path":"rotation"
					}
				},
				{
					"sampler":5,
					"target":{
						"node":9,
						"path":"scale"
					}
				},
				{
					"sampler":6,
					"target":{
						"node":8,
						"path":"translation"
					}
				},
				{
					"sampler":7,
					"target":{
						"node":8,
						"path":"rotation"
					}
				},
				{
					"sampler":8,
					"target":{
						"node":8,
						"path":"scale"
					}
				},
				{
					"sampler":9,
					"target":{
						"node":1,
						"path":"translation"
					}
				},
				{
					"sampler":10,
					"target":{
						"node":1,
						"path":"rotation"
					}
				},
				{
					"sampler":11,
					"target":{
						"node":1,
						"path":"scale"
					}
				},
				{
					"sampler":12,
					"target":{
						"node":0,
						"path":"translation"
					}
				},
				{
					"sampler":13,
					"target":{
						"node":0,
						"path":"rotation"
					}
				},
				{
					"sampler":14,
					"target":{
						"node":0,
						"path":"scale"
					}
				},
				{
					"sampler":15,
					"target":{
						"node":4,
						"path":"translation"
					}
				},
				{
					"sampler":16,
					"target":{
						"node":4,
						"path":"rotation"
					}
				},
				{
					"sampler":17,
					"target":{
						"node":4,
						"path":"scale"
					}
				},
				{
					"sampler":18,
					"target":{
						"node":3,
						"path":"translation"
					}
				},
				{
					"sampler":19,
					"target":{
						"node":3,
						"path":"rotation"
					}
				},
				{
					"sampler":20,
					"target":{
						"node":3,
						"path":"scale"
					}
				},
				{
					"sampler":21,
					"target":{
						"node":2,
						"path":"translation"
					}
				},
				{
					"sampler":22,
					"target":{
						"node":2,
						"path":"rotation"
					}
				},
				{
					"sampler":23,
					"target":{
						"node":2,
						"path":"scale"
					}
				},
				{
					"sampler":24,
					"target":{
						"node":7,
						"path":"translation"
					}
				},
				{
					"sampler":25,
					"target":{
						"node":7,
						"path":"rotation"
					}
				},
				{
					"sampler":26,
					"target":{
						"node":7,
						"path":"scale"
					}
				},
				{
					"sampler":27,
					"target":{
						"node":6,
						"path":"translation"
					}
				},
				{
					"sampler":28,
					"target":{
						"node":6,
						"path":"rotation"
					}
				},
				{
					"sampler":29,
					"target":{
						"node":6,
						"path":"scale"
					}
				},
				{
					"sampler":30,
					"target":{
						"node":5,
						"path":"translation"
					}
				},
				{
					"sampler":31,
					"target":{
						"node":5,
						"path":"rotation"
					}
				},
				{
					"sampler":32,
					"target":{
						"node":5,
						"path":"scale"
					}
				},
				{
					"sampler":33,
					"target":{
						"node":12,
						"path":"translation"
					}
				},
				{
					"sampler":34,
					"target":{
						"node":12,
						"path":"rotation"
					}
				},
				{
					"sampler":35,
					"target":{
						"node":12,
						"path":"scale"
					}
				},
				{
					"sampler":36,
					"target":{
						"node":11,
						"path":"translation"
					}
				},
				{
					"sampler":37,
					"target":{
						"node":11,
						"path":"rotation"
					}
				},
				{
					"sampler":38,
					"target":{
						"node":11,
						"path":"scale"
					}
				},
				{
					"sampler":39,
					"target":{
						"node":10,
						"path":"translation"
					}
				},
				{
					"sampler":40,
					"target":{
						"node":10,
						"path":"rotation"
					}
				},
				{
					"sampler":41,
					"target":{
						"node":10,
						"path":"scale"
					}
				},
				{
					"sampler":42,
					"target":{
						"node":15,
						"path":"translation"
					}
				},
				{
					"sampler":43,
					"target":{
						"node":15,
						"path":"rotation"
					}
				},
				{
					"sampler":44,
					"target":{
						"node":15,
						"path":"scale"
					}
				},
				{
					"sampler":45,
					"target":{
						"node":14,
						"path":"translation"
					}
				},
				{
					"sampler":46,
					"target":{
						"node":14,
						"path":"rotation"
					}
				},
				{
					"sampler":47,
					"target":{
						"node":14,
						"path":"scale"
					}
				},
				{
					"sampler":48,
					"target":{
						"node":13,
						"path":"translation"
					}
				},
				{
					"sampler":49,
					"target":{
						"node":13,
						"path":"rotation"
					}
				},
				{
					"sampler":50,
					"target":{
						"node":13,
						"path":"scale"
					}
				}
			],
			"name":"idle",
			"samplers":[
				{
					"input":143,
					"interpolation":"LINEAR",
					"output":144
				},
				{
					"input":145,
					"interpolation":"STEP",
					"output":146
				},
				{
					"input":145,
					"interpolation":"STEP",
					"output":147
				},
				{
					"input":145,
					"interpolation":"STEP",
					"output":148
				},
				{
					"input":145,
					"interpolation":"STEP",
					"output":149
				},
				{
					"input":145,
					"interpolation":"STEP",
					"output":150
				},
				{
					"input":145,
					"interpolation":"STEP",
					"output":151
				},
				{
					"input":143,
					"interpolation":"LINEAR",
					"output":152
				},
				{
					"input":145,
					"interpolation":"STEP",
					"output":153
				},
				{
					"input":145,
					"interpolation":"STEP",
					"output":154
				},
				{
					"input":145,
					"interpolation":"STEP",
					"output":155
				},
				{
					"input":145,
					"interpolation":"STEP",
					"output":156
				},
				{
					"input":145,
					"interpolation":"STEP",
					"output":157
				},
				{
					"input":143,
					"interpolation":"LINEAR",
					"output":158
				},
				{
					"input":145,
					"interpolation":"STEP",
					"output":159
				},
				{
					"input":145,
					"interpolation":"STEP",
					"output":160
				},
				{
					"input":143,
					"interpolation":"LINEAR",
					"output":161
				},
				{
					"input":145,
					"interpolation":"STEP",
					"output":162
				},
				{
					"input":145,
					"interpolation":"STEP",
					"output":163
				},
				{
					"input":145,
					"interpolation":"STEP",
					"output":164
				},
				{
					"input":145,
					"interpolation":"STEP",
					"output":165
				},
				{
					"input":145,
					"interpolation":"STEP",
					"output":166
				},
				{
					"input":145,
					"interpolation":"STEP",
					"output":167
				},
				{
					"input":145,
					"interpolation":"STEP",
					"output":168
				},
				{
					"input":145,
					"interpolation":"STEP",
					"output":169
				},
				{
					"input":143,
					"interpolation":"LINEAR",
					"output":170
				},
				{
					"input":145,
					"interpolation":"STEP",
					"output":171
				},
				{
					"input":145,
					"interpolation":"STEP",
					"output":172
				},
				{
					"input":145,
					"interpolation":"STEP",
					"output":173
				},
				{
					"input":145,
					"interpolation":"STEP",
					"output":174
				},
				{
					"input":145,
					"interpolation":"STEP",
					"output":175
				},
				{
					"input":145,
					"interpolation":"STEP",
					"output":176
				},
				{
					"input":145,
					"interpolation":"STEP",
					"output":177
				},
				{
					"input":145,
					"interpolation":"STEP",
					"output":178
				},
				{
					"input":145,
					"interpolation":"STEP",
					"output":179
				},
				{
					"input":145,
					"interpolation":"STEP",
					"output":180
				},
				{
					"input":145,
					"interpolation":"STEP",
					"output":181
				},
				{
					"input":145,
					"interpolation":"STEP",
					"output":182
				},
				{
					"input":145,
					"interpolation":"STEP",
					"output":183
				},
				{
					"input":145,
					"interpolation":"STEP",
					"output":184
				},
				{
					"input":145,
					"interpolation":"STEP",
					"output":185
				},
				{
					"input":145,
					"interpolation":"STEP",
					"output":186
				},
				{
					"input":145,
					"interpolation":"STEP",
					"output":187
				},
				{
					"input":145,
					"interpolation":"STEP",
					"output":188
				},
				{
					"input":145,
					"interpolation":"STEP",
					"output":189
				},
				{
					"input":145,
					"interpolation":"STEP",
					"output":190
				},
				{
					"input":145,
					"interpolation":"STEP",
					"output":191
				},
				{
					"input":145,
					"interpolation":"STEP",
					"output":192
				},
				{
					"input":145,
					"interpolation":"STEP",
					"output":193
				},
				{
					"input":145,
					"interpolation":"STEP",
					"output":194
				},
				{
					"input":145,
					"interpolation":"STEP",
					"output":195
				}
			]
		},
		{
			"channels":[
				{
					"sampler":0,
					"target":{
						"node":16,
						"path":"translation"
					}
				},
				{
					"sampler":1,
					"target":{
						"node":16,
						"path":"rotation"
					}
				},
				{
					"sampler":2,
					"target":{
						"node":16,
						"path":"scale"
					}
				},
				{
					"sampler":3,
					"target":{
						"node":9,
						"path":"translation"
					}
				},
				{
					"sampler":4,
					"target":{
						"node":9,
						"path":"rotation"
					}
				},
				{
					"sampler":5,
					"target":{
						"node":9,
						"path":"scale"
					}
				},
				{
					"sampler":6,
					"target":{
						"node":8,
						"path":"translation"
					}
				},
				{
					"sampler":7,
					"target":{
						"node":8,
						"path":"rotation"
					}
				},
				{
					"sampler":8,
					"target":{
						"node":8,
						"path":"scale"
					}
				},
				{
					"sampler":9,
					"target":{
						"node":1,
						"path":"translation"
					}
				},
				{
					"sampler":10,
					"target":{
						"node":1,
						"path":"rotation"
					}
				},
				{
					"sampler":11,
					"target":{
						"node":1,
						"path":"scale"
					}
				},
				{
					"sampler":12,
					"target":{
						"node":0,
						"path":"translation"
					}
				},
				{
					"sampler":13,
					"target":{
						"node":0,
						"path":"rotation"
					}
				},
				{
					"sampler":14,
					"target":{
						"node":0,
						"path":"scale"
					}
				},
				{
					"sampler":15,
					"target":{
						"node":4,
						"path":"translation"
					}
				},
				{
					"sampler":16,
					"target":{
						"node":4,
						"path":"rotation"
					}
				},
				{
					"sampler":17,
					"target":{
						"node":4,
						"path":"scale"
					}
				},
				{
					"sampler":18,
					"target":{
						"node":3,
						"path":"translation"
					}
				},
				{
					"sampler":19,
					"target":{
						"node":3,
						"path":"rotation"
					}
				},
				{
					"sampler":20,
					"target":{
						"node":3,
						"path":"scale"
					}
				},
				{
					"sampler":21,
					"target":{
						"node":2,
						"path":"translation"
					}
				},
				{
					"sampler":22,
					"target":{
						"node":2,
						"path":"rotation"
					}
				},
				{
					"sampler":23,
					"target":{
						"node":2,
						"path":"scale"
					}
				},
				{
					"sampler":24,
					"target":{
						"node":7,
						"path":"translation"
					}
				},
				{
					"sampler":25,
					"target":{
						"node":7,
						"path":"rotation"
					}
				},
				{
					"sampler":26,
					"target":{
						"node":7,
						"path":"scale"
					}
				},
				{
					"sampler":27,
					"target":{
						"node":6,
						"path":"translation"
					}
				},
				{
					"sampler":28,
					"target":{
						"node":6,
						"path":"rotation"
					}
				},
				{
					"sampler":29,
					"target":{
						"node":6,
						"path":"scale"
					}
				},
				{
					"sampler":30,
					"target":{
						"node":5,
						"path":"translation"
					}
				},
				{
					"sampler":31,
					"target":{
						"node":5,
						"path":"rotation"
					}
				},
				{
					"sampler":32,
					"target":{
						"node":5,
						"path":"scale"
					}
				},
				{
					"sampler":33,
					"target":{
						"node":12,
						"path":"translation"
					}
				},
				{
					"sampler":34,
					"target":{
						"node":12,
						"path":"rotation"
					}
				},
				{
					"sampler":35,
					"target":{
						"node":12,
						"path":"scale"
					}
				},
				{
					"sampler":36,
					"target":{
						"node":11,
						"path":"translation"
					}
				},
				{
					"sampler":37,
					"target":{
						"node":11,
						"path":"rotation"
					}
				},
				{
					"sampler":38,
					"target":{
						"node":11,
						"path":"scale"
					}
				},
				{
					"sampler":39,
					"target":{
						"node":10,
						"path":"translation"
					}
				},
				{
					"sampler":40,
					"target":{
						"node":10,
						"path":"rotation"
					}
				},
				{
					"sampler":41,
					"target":{
						"node":10,
						"path":"scale"
					}
				},
				{
					"sampler":42,
					"target":{
						"node":15,
						"path":"translation"
					}
				},
				{
					"sampler":43,
					"target":{
						"node":15,
						"path":"rotation"
					}
				},
				{
					"sampler":44,
					"target":{
						"node":15,
						"path":"scale"
					}
				},
				{
					"sampler":45,
					"target":{
						"node":14,
						"path":"translation"
					}
				},
				{
					"sampler":46,
					"target":{
						"node":14,
						"path":"rotation"
					}
				},
				{
					"sampler":47,
					"target":{
						"node":14,
						"path":"scale"
					}
				},
				{
					"sampler":48,
					"target":{
						"node":13,
						"path":"translation"
					}
				},
				{
					"sampler":49,
					"target":{
						"node":13,
						"path":"rotation"
					}
				},
				{
					"sampler":50,
					"target":{
						"node":13,
						"path":"scale"
					}
				}
			],
			"name":"walk",
			"samplers":[
				{
					"input":196,
					"interpolation":"LINEAR",
					"output":197
				},
				{
					"input":196,
					"interpolation":"LINEAR",
					"output":198
				},
				{
					"input":199,
					"interpolation":"STEP",
					"output":200
				},
				{
					"input":199,
					"interpolation":"STEP",
					"output":201
				},
				{
					"input":199,
					"interpolation":"STEP",
					"output":202
				},
				{
					"input":199,
					"interpolation":"STEP",
					"output":203
				},
				{
					"input":199,
					"interpolation":"STEP",
					"output":204
				},
				{
					"input":196,
					"interpolation":"LINEAR",
					"output":205
				},
				{
					"input":199,
					"interpolation":"STEP",
					"output":206
				},
				{
					"input":199,
					"interpolation":"STEP",
					"output":207
				},
				{
					"input":199,
					"interpolation":"STEP",
					"output":208
				},
				{
					"input":199,
					"interpolation":"STEP",
					"output":209
				},
				{
					"input":199,
					"interpolation":"STEP",
					"output":210
				},
				{
					"input":199,
					"interpolation":"STEP",
					"output":211
				},
				{
					"input":199,
					"interpolation":"STEP",
					"output":212
				},
				{
					"input":199,
					"interpolation":"STEP",
					"output":213
				},
				{
					"input":196,
					"interpolation":"LINEAR",
					"output":214
				},
				{
					"input":199,
					"interpolation":"STEP",
					"output":215
				},
				{
					"input":199,
					"interpolation":"STEP",
					"output":216
				},
				{
					"input":199,
					"interpolation":"STEP",
					"output":217
				},
				{
					"input":199,
					"interpolation":"STEP",
					"output":218
				},
				{
					"input":199,
					"interpolation":"STEP",
					"output":219
				},
				{
					"input":199,
					"interpolation":"STEP",
					"output":220
				},
				{
					"input":199,
					"interpolation":"STEP",
					"output":221
				},
				{
					"input":199,
					"interpolation":"STEP",
					"output":222
				},
				{
					"input":196,
					"interpolation":"LINEAR",
					"output":223
				},
				{
					"input":199,
					"interpolation":"STEP",
					"output":224
				},
				{
					"input":199,
					"interpolation":"STEP",
					"output":225
				},
				{
					"input":199,
					"interpolation":"STEP",
					"output":226
				},
				{
					"input":199,
					"interpolation":"STEP",
					"output":227
				},
				{
					"input":199,
					"interpolation":"STEP",
					"output":228
				},
				{
					"input":199,
					"interpolation":"STEP",
					"output":229
				},
				{
					"input":199,
					"interpolation":"STEP",
					"output":230
				},
				{
					"input":199,
					"interpolation":"STEP",
					"output":231
				},
				{
					"input":196,
					"interpolation":"LINEAR",
					"output":232
				},
				{
					"input":199,
					"interpolation":"STEP",
					"output":233
				},
				{
					"input":199,
					"interpolation":"STEP",
					"output":234
				},
				{
					"input":196,
					"interpolation":"LINEAR",
					"output":235
				},
				{
					"input":199,
					"interpolation":"STEP",
					"output":236
				},
				{
					"input":199,
					"interpolation":"STEP",
					"output":237
				},
				{
					"input":196,
					"interpolation":"LINEAR",
					"output":238
				},
				{
					"input":199,
					"interpolation":"STEP",
					"output":239
				},
				{
					"input":199,
					"interpolation":"STEP",
					"output":240
				},
				{
					"input":196,
					"interpolation":"LINEAR",
					"output":241
				},
				{
					"input":199,
					"interpolation":"STEP",
					"output":242
				},
				{
					"input":199,
					"interpolation":"STEP",
					"output":243
				},
				{
					"input":196,
					"interpolation":"LINEAR",
					"output":244
				},
				{
					"input":199,
					"interpolation":"STEP",
					"output":245
				},
				{
					"input":199,
					"interpolation":"STEP",
					"output":246
				},
				{
					"input":196,
					"interpolation":"LINEAR",
					"output":247
				},
				{
					"input":199,
					"interpolation":"STEP",
					"output":248
				}
			]
		}
	],
	"materials":[
		{
			"name":"skin",
			"normalTexture":{
				"index":0,
				"scale":0.4000000059604645
			},
			"pbrMetallicRoughness":{
				"baseColorFactor":[
					0.9551045894622803,
					0.7105664610862732,
					0.5382355451583862,
					1
				],
				"metallicFactor":0,
				"roughnessFactor":0.550000011920929
			}
		},
		{
			"extensions":{
				"KHR_materials_sheen":{
					"sheenColorFactor":[
						1.0,
						1.0,
						1.0
					],
					"sheenRoughnessFactor":0.5
				}
			},
			"name":"hair",
			"normalTexture":{
				"index":1,
				"scale":0.800000011920929
			},
			"pbrMetallicRoughness":{
				"baseColorFactor":[
					0.010022825561463833,
					0.010022825561463833,
					0.010022825561463833,
					1
				],
				"metallicFactor":0,
				"roughnessFactor":0.44999998807907104
			}
		},
		{
			"extensions":{
				"KHR_materials_sheen":{
					"sheenColorFactor":[
						1.0,
						1.0,
						1.0
					],
					"sheenRoughnessFactor":0.5
				}
			},
			"name":"outfit",
			"normalTexture":{
				"index":2,
				"scale":0.6000000238418579
			},
			"pbrMetallicRoughness":{
				"baseColorFactor":[
					0.027211781591176987,
					0.03968190774321556,
					0.021980946883559227,
					1
				],
				"metallicFactor":0,
				"roughnessFactor":0.75
			}
		},
		{
			"name":"outfit2",
			"normalTexture":{
				"index":3,
				"scale":0.4000000059604645
			},
			"pbrMetallicRoughness":{
				"baseColorFactor":[
					0.6038273572921753,
					0.4479884207248688,
					0.07323895394802094,
					1
				],
				"metallicFactor":0,
				"roughnessFactor":0.6000000238418579
			}
		},
		{
			"name":"pants",
			"normalTexture":{
				"index":4,
				"scale":0.6000000238418579
			},
			"pbrMetallicRoughness":{
				"baseColorFactor":[
					0.01454195100814104,
					0.02053738757967949,
					0.01198708638548851,
					1
				],
				"metallicFactor":0,
				"roughnessFactor":0.800000011920929
			}
		},
		{
			"extensions":{
				"KHR_materials_clearcoat":{
					"clearcoatFactor":0.30000001192092896
				}
			},
			"name":"boots",
			"normalTexture":{
				"index":5,
				"scale":0.800000011920929
			},
			"pbrMetallicRoughness":{
				"baseColorFactor":[
					0.0134117491543293,
					0.010022825561463833,
					0.010022825561463833,
					1
				],
				"metallicFactor":0,
				"roughnessFactor":0.44999998807907104
			}
		},
		{
			"name":"eye_white",
			"pbrMetallicRoughness":{
				"baseColorFactor":[
					0.8900054097175598,
					0.8900054097175598,
					0.8900054097175598,
					1
				],
				"metallicFactor":0,
				"roughnessFactor":0.20000000298023224
			}
		},
		{
			"emissiveFactor":[
				0.011763989275256348,
				0.011763989275256348,
				0.019862860485428957
			],
			"name":"iris",
			"pbrMetallicRoughness":{
				"baseColorFactor":[
					0.01960664801299572,
					0.01960664801299572,
					0.03310476616024971,
					1
				],
				"metallicFactor":0,
				"roughnessFactor":0.15000000596046448
			}
		},
		{
			"name":"pupil",
			"pbrMetallicRoughness":{
				"baseColorFactor":[
					0.0015479875728487968,
					0.0015479875728487968,
					0.0023219813592731953,
					1
				],
				"metallicFactor":0,
				"roughnessFactor":0.10000000149011612
			}
		},
		{
			"name":"lips",
			"pbrMetallicRoughness":{
				"baseColorFactor":[
					0.4283095896244049,
					0.32088616490364075,
					0.2448643445968628,
					1
				],
				"metallicFactor":0,
				"roughnessFactor":0.4000000059604645
			}
		},
		{
			"doubleSided":true,
			"extensions":{
				"KHR_materials_sheen":{
					"sheenColorFactor":[
						1.0,
						1.0,
						1.0
					],
					"sheenRoughnessFactor":0.5
				}
			},
			"name":"coat",
			"normalTexture":{
				"index":6,
				"scale":0.699999988079071
			},
			"pbrMetallicRoughness":{
				"baseColorFactor":[
					0.027211781591176987,
					0.03968190774321556,
					0.021980946883559227,
					1
				],
				"metallicFactor":0,
				"roughnessFactor":0.699999988079071
			}
		},
		{
			"doubleSided":true,
			"name":"collar",
			"pbrMetallicRoughness":{
				"baseColorFactor":[
					0.6038273572921753,
					0.4479884207248688,
					0.07323895394802094,
					1
				],
				"metallicFactor":0,
				"roughnessFactor":0.6000000238418579
			}
		},
		{
			"name":"buckle",
			"pbrMetallicRoughness":{
				"baseColorFactor":[
					0.6920710802078247,
					0.4479884207248688,
					0.07323895394802094,
					1
				],
				"metallicFactor":0.8999999761581421,
				"roughnessFactor":0.30000001192092896
			}
		},
		{
			"name":"blade",
			"normalTexture":{
				"index":7,
				"scale":0.30000001192092896
			},
			"pbrMetallicRoughness":{
				"baseColorFactor":[
					0.7484140992164612,
					0.7874122858047485,
					0.8900054097175598,
					1
				],
				"metallicFactor":0.550000011920929,
				"roughnessFactor":0.2199999988079071
			}
		},
		{
			"name":"gun",
			"pbrMetallicRoughness":{
				"baseColorFactor":[
					0.01960664801299572,
					0.01960664801299572,
					0.01960664801299572,
					1
				],
				"metallicFactor":0.699999988079071,
				"roughnessFactor":0.4000000059604645
			}
		}
	],
	"meshes":[
		{
			"name":"kondo",
			"primitives":[
				{
					"attributes":{
						"POSITION":0,
						"NORMAL":1,
						"TEXCOORD_0":2,
						"JOINTS_0":3,
						"WEIGHTS_0":4
					},
					"indices":5,
					"material":0
				},
				{
					"attributes":{
						"POSITION":6,
						"NORMAL":7,
						"TEXCOORD_0":8,
						"JOINTS_0":9,
						"WEIGHTS_0":10
					},
					"indices":11,
					"material":1
				},
				{
					"attributes":{
						"POSITION":12,
						"NORMAL":13,
						"TEXCOORD_0":14,
						"JOINTS_0":15,
						"WEIGHTS_0":16
					},
					"indices":17,
					"material":2
				},
				{
					"attributes":{
						"POSITION":18,
						"NORMAL":19,
						"TEXCOORD_0":20,
						"JOINTS_0":21,
						"WEIGHTS_0":22
					},
					"indices":23,
					"material":3
				},
				{
					"attributes":{
						"POSITION":24,
						"NORMAL":25,
						"TEXCOORD_0":26,
						"JOINTS_0":27,
						"WEIGHTS_0":28
					},
					"indices":29,
					"material":4
				},
				{
					"attributes":{
						"POSITION":30,
						"NORMAL":31,
						"TEXCOORD_0":32,
						"JOINTS_0":33,
						"WEIGHTS_0":34
					},
					"indices":35,
					"material":5
				},
				{
					"attributes":{
						"POSITION":36,
						"NORMAL":37,
						"TEXCOORD_0":38,
						"JOINTS_0":39,
						"WEIGHTS_0":40
					},
					"indices":41,
					"material":6
				},
				{
					"attributes":{
						"POSITION":42,
						"NORMAL":43,
						"TEXCOORD_0":44,
						"JOINTS_0":45,
						"WEIGHTS_0":46
					},
					"indices":47,
					"material":7
				},
				{
					"attributes":{
						"POSITION":48,
						"NORMAL":49,
						"TEXCOORD_0":50,
						"JOINTS_0":51,
						"WEIGHTS_0":52
					},
					"indices":53,
					"material":8
				},
				{
					"attributes":{
						"POSITION":54,
						"NORMAL":55,
						"TEXCOORD_0":56,
						"JOINTS_0":57,
						"WEIGHTS_0":58
					},
					"indices":59,
					"material":9
				},
				{
					"attributes":{
						"POSITION":60,
						"NORMAL":61,
						"TEXCOORD_0":62,
						"JOINTS_0":63,
						"WEIGHTS_0":64
					},
					"indices":65,
					"material":10
				},
				{
					"attributes":{
						"POSITION":66,
						"NORMAL":67,
						"TEXCOORD_0":68,
						"JOINTS_0":69,
						"WEIGHTS_0":70
					},
					"indices":71,
					"material":11
				},
				{
					"attributes":{
						"POSITION":72,
						"NORMAL":73,
						"TEXCOORD_0":74,
						"JOINTS_0":75,
						"WEIGHTS_0":76
					},
					"indices":77,
					"material":12
				},
				{
					"attributes":{
						"POSITION":78,
						"NORMAL":79,
						"TEXCOORD_0":80,
						"JOINTS_0":81,
						"WEIGHTS_0":82
					},
					"indices":83,
					"material":13
				},
				{
					"attributes":{
						"POSITION":84,
						"NORMAL":85,
						"TEXCOORD_0":86,
						"JOINTS_0":87,
						"WEIGHTS_0":88
					},
					"indices":77,
					"material":14
				}
			]
		}
	],
	"textures":[
		{
			"sampler":0,
			"source":0
		},
		{
			"sampler":0,
			"source":1
		},
		{
			"sampler":0,
			"source":2
		},
		{
			"sampler":0,
			"source":2
		},
		{
			"sampler":0,
			"source":2
		},
		{
			"sampler":0,
			"source":3
		},
		{
			"sampler":0,
			"source":2
		},
		{
			"sampler":0,
			"source":4
		}
	],
	"images":[
		{
			"mimeType":"image/png",
			"name":"N_skin",
			"uri":"texturas/N_skin.png"
		},
		{
			"mimeType":"image/png",
			"name":"N_hair",
			"uri":"texturas/N_hair.png"
		},
		{
			"mimeType":"image/png",
			"name":"N_cloth",
			"uri":"texturas/N_cloth.png"
		},
		{
			"mimeType":"image/png",
			"name":"N_leather",
			"uri":"texturas/N_leather.png"
		},
		{
			"mimeType":"image/png",
			"name":"N_metal",
			"uri":"texturas/N_metal.png"
		}
	],
	"skins":[
		{
			"inverseBindMatrices":89,
			"joints":[
				16,
				9,
				8,
				1,
				0,
				4,
				3,
				2,
				7,
				6,
				5,
				12,
				11,
				10,
				15,
				14,
				13
			],
			"name":"kondo_rig"
		}
	],
	"accessors":[
		{
			"bufferView":0,
			"componentType":5126,
			"count":1437,
			"max":[
				0.3464781641960144,
				1.9267200231552124,
				0.11578956991434097
			],
			"min":[
				-0.3464781641960144,
				0.8472254276275635,
				-0.12536287307739258
			],
			"type":"VEC3"
		},
		{
			"bufferView":1,
			"componentType":5126,
			"count":1437,
			"type":"VEC3"
		},
		{
			"bufferView":2,
			"componentType":5126,
			"count":1437,
			"type":"VEC2"
		},
		{
			"bufferView":3,
			"componentType":5121,
			"count":1437,
			"type":"VEC4"
		},
		{
			"bufferView":4,
			"componentType":5126,
			"count":1437,
			"type":"VEC4"
		},
		{
			"bufferView":5,
			"componentType":5123,
			"count":5868,
			"type":"SCALAR"
		},
		{
			"bufferView":6,
			"componentType":5126,
			"count":2725,
			"max":[
				0.12806732952594757,
				1.956006646156311,
				0.15060152113437653
			],
			"min":[
				-0.12693993747234344,
				1.6734753847122192,
				-0.12665952742099762
			],
			"type":"VEC3"
		},
		{
			"bufferView":7,
			"componentType":5126,
			"count":2725,
			"type":"VEC3"
		},
		{
			"bufferView":8,
			"componentType":5126,
			"count":2725,
			"type":"VEC2"
		},
		{
			"bufferView":9,
			"componentType":5121,
			"count":2725,
			"type":"VEC4"
		},
		{
			"bufferView":10,
			"componentType":5126,
			"count":2725,
			"type":"VEC4"
		},
		{
			"bufferView":11,
			"componentType":5123,
			"count":8328,
			"type":"SCALAR"
		},
		{
			"bufferView":12,
			"componentType":5126,
			"count":1461,
			"max":[
				0.35061588883399963,
				1.5921497344970703,
				0.12114577740430832
			],
			"min":[
				-0.35061588883399963,
				1.0041598081588745,
				-0.12065380811691284
			],
			"type":"VEC3"
		},
		{
			"bufferView":13,
			"componentType":5126,
			"count":1461,
			"type":"VEC3"
		},
		{
			"bufferView":14,
			"componentType":5126,
			"count":1461,
			"type":"VEC2"
		},
		{
			"bufferView":15,
			"componentType":5121,
			"count":1461,
			"type":"VEC4"
		},
		{
			"bufferView":16,
			"componentType":5126,
			"count":1461,
			"type":"VEC4"
		},
		{
			"bufferView":17,
			"componentType":5123,
			"count":6648,
			"type":"SCALAR"
		},
		{
			"bufferView":18,
			"componentType":5126,
			"count":65,
			"max":[
				0.15406756103038788,
				1.1144664287567139,
				0.1229475885629654
			],
			"min":[
				-0.15406756103038788,
				0.9464164972305298,
				-0.12439695000648499
			],
			"type":"VEC3"
		},
		{
			"bufferView":19,
			"componentType":5126,
			"count":65,
			"type":"VEC3"
		},
		{
			"bufferView":20,
			"componentType":5126,
			"count":65,
			"type":"VEC2"
		},
		{
			"bufferView":21,
			"componentType":5121,
			"count":65,
			"type":"VEC4"
		},
		{
			"bufferView":22,
			"componentType":5126,
			"count":65,
			"type":"VEC4"
		},
		{
			"bufferView":23,
			"componentType":5123,
			"count":192,
			"type":"SCALAR"
		},
		{
			"bufferView":24,
			"componentType":5126,
			"count":977,
			"max":[
				0.34770265221595764,
				1.012281894683838,
				0.11970444023609161
			],
			"min":[
				-0.34770262241363525,
				0.32406559586524963,
				-0.1216253936290741
			],
			"type":"VEC3"
		},
		{
			"bufferView":25,
			"componentType":5126,
			"count":977,
			"type":"VEC3"
		},
		{
			"bufferView":26,
			"componentType":5126,
			"count":977,
			"type":"VEC2"
		},
		{
			"bufferView":27,
			"componentType":5121,
			"count":977,
			"type":"VEC4"
		},
		{
			"bufferView":28,
			"componentType":5126,
			"count":977,
			"type":"VEC4"
		},
		{
			"bufferView":29,
			"componentType":5123,
			"count":4332,
			"type":"SCALAR"
		},
		{
			"bufferView":30,
			"componentType":5126,
			"count":1034,
			"max":[
				0.1797591596841812,
				0.3309628367424011,
				0.08583570271730423
			],
			"min":[
				-0.1797591745853424,
				0.00820566900074482,
				-0.15133044123649597
			],
			"type":"VEC3"
		},
		{
			"bufferView":31,
			"componentType":5126,
			"count":1034,
			"type":"VEC3"
		},
		{
			"bufferView":32,
			"componentType":5126,
			"count":1034,
			"type":"VEC2"
		},
		{
			"bufferView":33,
			"componentType":5121,
			"count":1034,
			"type":"VEC4"
		},
		{
			"bufferView":34,
			"componentType":5126,
			"count":1034,
			"type":"VEC4"
		},
		{
			"bufferView":35,
			"componentType":5123,
			"count":4608,
			"type":"SCALAR"
		},
		{
			"bufferView":36,
			"componentType":5126,
			"count":304,
			"max":[
				0.055080000311136246,
				1.8214200735092163,
				-0.07560000568628311
			],
			"min":[
				-0.055080000311136246,
				1.7965800762176514,
				-0.09504000097513199
			],
			"type":"VEC3"
		},
		{
			"bufferView":37,
			"componentType":5126,
			"count":304,
			"type":"VEC3"
		},
		{
			"bufferView":38,
			"componentType":5126,
			"count":304,
			"type":"VEC2"
		},
		{
			"bufferView":39,
			"componentType":5121,
			"count":304,
			"type":"VEC4"
		},
		{
			"bufferView":40,
			"componentType":5126,
			"count":304,
			"type":"VEC4"
		},
		{
			"bufferView":41,
			"componentType":5123,
			"count":1152,
			"type":"SCALAR"
		},
		{
			"bufferView":42,
			"componentType":5126,
			"count":220,
			"max":[
				0.04698000103235245,
				1.8195841312408447,
				-0.08771786838769913
			],
			"min":[
				-0.04698000103235245,
				1.798416018486023,
				-0.09696213901042938
			],
			"type":"VEC3"
		},
		{
			"bufferView":43,
			"componentType":5126,
			"count":220,
			"type":"VEC3"
		},
		{
			"bufferView":44,
			"componentType":5126,
			"count":220,
			"type":"VEC2"
		},
		{
			"bufferView":45,
			"componentType":5121,
			"count":220,
			"type":"VEC4"
		},
		{
			"bufferView":46,
			"componentType":5126,
			"count":220,
			"type":"VEC4"
		},
		{
			"bufferView":47,
			"componentType":5123,
			"count":720,
			"type":"SCALAR"
		},
		{
			"bufferView":48,
			"componentType":5126,
			"count":160,
			"max":[
				0.041033994406461716,
				1.8138600587844849,
				-0.09384971857070923
			],
			"min":[
				-0.041033994406461716,
				1.8041400909423828,
				-0.0979582890868187
			],
			"type":"VEC3"
		},
		{
			"bufferView":49,
			"componentType":5126,
			"count":160,
			"type":"VEC3"
		},
		{
			"bufferView":50,
			"componentType":5126,
			"count":160,
			"type":"VEC2"
		},
		{
			"bufferView":51,
			"componentType":5121,
			"count":160,
			"type":"VEC4"
		},
		{
			"bufferView":52,
			"componentType":5126,
			"count":160,
			"type":"VEC4"
		},
		{
			"bufferView":53,
			"componentType":5123,
			"count":480,
			"type":"SCALAR"
		},
		{
			"bufferView":54,
			"componentType":5126,
			"count":98,
			"max":[
				0.020519999787211418,
				1.7361000776290894,
				-0.083937868475914
			],
			"min":[
				-0.020519999787211418,
				1.7263801097869873,
				-0.09318213909864426
			],
			"type":"VEC3"
		},
		{
			"bufferView":55,
			"componentType":5126,
			"count":98,
			"type":"VEC3"
		},
		{
			"bufferView":56,
			"componentType":5126,
			"count":98,
			"type":"VEC2"
		},
		{
			"bufferView":57,
			"componentType":5121,
			"count":98,
			"type":"VEC4"
		},
		{
			"bufferView":58,
			"componentType":5126,
			"count":98,
			"type":"VEC4"
		},
		{
			"bufferView":59,
			"componentType":5123,
			"count":360,
			"type":"SCALAR"
		},
		{
			"bufferView":60,
			"componentType":5126,
			"count":162,
			"max":[
				0.29159244894981384,
				1.5443999767303467,
				0.20995201170444489
			],
			"min":[
				-0.29159244894981384,
				0.496800035238266,
				-0.20206311345100403
			],
			"type":"VEC3"
		},
		{
			"bufferView":61,
			"componentType":5126,
			"count":162,
			"type":"VEC3"
		},
		{
			"bufferView":62,
			"componentType":5126,
			"count":162,
			"type":"VEC2"
		},
		{
			"bufferView":63,
			"componentType":5121,
			"count":162,
			"type":"VEC4"
		},
		{
			"bufferView":64,
			"componentType":5126,
			"count":162,
			"type":"VEC4"
		},
		{
			"bufferView":65,
			"componentType":5123,
			"count":660,
			"type":"SCALAR"
		},
		{
			"bufferView":66,
			"componentType":5126,
			"count":42,
			"max":[
				0.09123047441244125,
				1.6416000127792358,
				0.08262000232934952
			],
			"min":[
				-0.09123047441244125,
				1.5768001079559326,
				-0.07439494132995605
			],
			"type":"VEC3"
		},
		{
			"bufferView":67,
			"componentType":5126,
			"count":42,
			"type":"VEC3"
		},
		{
			"bufferView":68,
			"componentType":5126,
			"count":42,
			"type":"VEC2"
		},
		{
			"bufferView":69,
			"componentType":5121,
			"count":42,
			"type":"VEC4"
		},
		{
			"bufferView":70,
			"componentType":5126,
			"count":42,
			"type":"VEC4"
		},
		{
			"bufferView":71,
			"componentType":5123,
			"count":96,
			"type":"SCALAR"
		},
		{
			"bufferView":72,
			"componentType":5126,
			"count":24,
			"max":[
				0.027000000700354576,
				1.0476000308990479,
				-0.10152000188827515
			],
			"min":[
				-0.027000000700354576,
				1.0044000148773193,
				-0.11448000371456146
			],
			"type":"VEC3"
		},
		{
			"bufferView":73,
			"componentType":5126,
			"count":24,
			"type":"VEC3"
		},
		{
			"bufferView":74,
			"componentType":5126,
			"count":24,
			"type":"VEC2"
		},
		{
			"bufferView":75,
			"componentType":5121,
			"count":24,
			"type":"VEC4"
		},
		{
			"bufferView":76,
			"componentType":5126,
			"count":24,
			"type":"VEC4"
		},
		{
			"bufferView":77,
			"componentType":5123,
			"count":36,
			"type":"SCALAR"
		},
		{
			"bufferView":78,
			"componentType":5126,
			"count":42,
			"max":[
				0.3378240168094635,
				0.7428603172302246,
				-0.3171442747116089
			],
			"min":[
				0.31190401315689087,
				0.5774012804031372,
				-0.6429409980773926
			],
			"type":"VEC3"
		},
		{
			"bufferView":79,
			"componentType":5126,
			"count":42,
			"type":"VEC3"
		},
		{
			"bufferView":80,
			"componentType":5126,
			"count":42,
			"type":"VEC2"
		},
		{
			"bufferView":81,
			"componentType":5121,
			"count":42,
			"type":"VEC4"
		},
		{
			"bufferView":82,
			"componentType":5126,
			"count":42,
			"type":"VEC4"
		},
		{
			"bufferView":83,
			"componentType":5123,
			"count":96,
			"type":"SCALAR"
		},
		{
			"bufferView":84,
			"componentType":5126,
			"count":24,
			"max":[
				0.34646400809288025,
				0.8574805855751038,
				0.0905124843120575
			],
			"min":[
				0.30326399207115173,
				0.7818805575370789,
				-0.3414875268936157
			],
			"type":"VEC3"
		},
		{
			"bufferView":85,
			"componentType":5126,
			"count":24,
			"type":"VEC3"
		},
		{
			"bufferView":86,
			"componentType":5126,
			"count":24,
			"type":"VEC2"
		},
		{
			"bufferView":87,
			"componentType":5121,
			"count":24,
			"type":"VEC4"
		},
		{
			"bufferView":88,
			"componentType":5126,
			"count":24,
			"type":"VEC4"
		},
		{
			"bufferView":89,
			"componentType":5126,
			"count":17,
			"type":"MAT4"
		},
		{
			"bufferView":90,
			"componentType":5126,
			"count":2,
			"max":[
				0.6
			],
			"min":[
				0
			],
			"type":"SCALAR"
		},
		{
			"bufferView":91,
			"componentType":5126,
			"count":2,
			"type":"VEC3"
		},
		{
			"bufferView":92,
			"componentType":5126,
			"count":2,
			"type":"VEC4"
		},
		{
			"bufferView":93,
			"componentType":5126,
			"count":2,
			"type":"VEC3"
		},
		{
			"bufferView":94,
			"componentType":5126,
			"count":2,
			"type":"VEC3"
		},
		{
			"bufferView":95,
			"componentType":5126,
			"count":2,
			"type":"VEC4"
		},
		{
			"bufferView":96,
			"componentType":5126,
			"count":2,
			"type":"VEC3"
		},
		{
			"bufferView":97,
			"componentType":5126,
			"count":2,
			"type":"VEC3"
		},
		{
			"bufferView":98,
			"componentType":5126,
			"count":19,
			"max":[
				0.6
			],
			"min":[
				0
			],
			"type":"SCALAR"
		},
		{
			"bufferView":99,
			"componentType":5126,
			"count":19,
			"type":"VEC4"
		},
		{
			"bufferView":100,
			"componentType":5126,
			"count":2,
			"type":"VEC3"
		},
		{
			"bufferView":101,
			"componentType":5126,
			"count":2,
			"type":"VEC3"
		},
		{
			"bufferView":102,
			"componentType":5126,
			"count":2,
			"type":"VEC4"
		},
		{
			"bufferView":103,
			"componentType":5126,
			"count":2,
			"type":"VEC3"
		},
		{
			"bufferView":104,
			"componentType":5126,
			"count":2,
			"type":"VEC3"
		},
		{
			"bufferView":105,
			"componentType":5126,
			"count":2,
			"type":"VEC4"
		},
		{
			"bufferView":106,
			"componentType":5126,
			"count":2,
			"type":"VEC3"
		},
		{
			"bufferView":107,
			"componentType":5126,
			"count":2,
			"type":"VEC3"
		},
		{
			"bufferView":108,
			"componentType":5126,
			"count":19,
			"type":"VEC4"
		},
		{
			"bufferView":109,
			"componentType":5126,
			"count":2,
			"type":"VEC3"
		},
		{
			"bufferView":110,
			"componentType":5126,
			"count":2,
			"type":"VEC3"
		},
		{
			"bufferView":111,
			"componentType":5126,
			"count":19,
			"type":"VEC4"
		},
		{
			"bufferView":112,
			"componentType":5126,
			"count":2,
			"type":"VEC3"
		},
		{
			"bufferView":113,
			"componentType":5126,
			"count":2,
			"type":"VEC3"
		},
		{
			"bufferView":114,
			"componentType":5126,
			"count":2,
			"type":"VEC4"
		},
		{
			"bufferView":115,
			"componentType":5126,
			"count":2,
			"type":"VEC3"
		},
		{
			"bufferView":116,
			"componentType":5126,
			"count":2,
			"type":"VEC3"
		},
		{
			"bufferView":117,
			"componentType":5126,
			"count":19,
			"type":"VEC4"
		},
		{
			"bufferView":118,
			"componentType":5126,
			"count":2,
			"type":"VEC3"
		},
		{
			"bufferView":119,
			"componentType":5126,
			"count":2,
			"type":"VEC3"
		},
		{
			"bufferView":120,
			"componentType":5126,
			"count":2,
			"type":"VEC4"
		},
		{
			"bufferView":121,
			"componentType":5126,
			"count":2,
			"type":"VEC3"
		},
		{
			"bufferView":122,
			"componentType":5126,
			"count":2,
			"type":"VEC3"
		},
		{
			"bufferView":123,
			"componentType":5126,
			"count":2,
			"type":"VEC4"
		},
		{
			"bufferView":124,
			"componentType":5126,
			"count":2,
			"type":"VEC3"
		},
		{
			"bufferView":125,
			"componentType":5126,
			"count":2,
			"type":"VEC3"
		},
		{
			"bufferView":126,
			"componentType":5126,
			"count":19,
			"type":"VEC4"
		},
		{
			"bufferView":127,
			"componentType":5126,
			"count":2,
			"type":"VEC3"
		},
		{
			"bufferView":128,
			"componentType":5126,
			"count":2,
			"type":"VEC3"
		},
		{
			"bufferView":129,
			"componentType":5126,
			"count":2,
			"type":"VEC4"
		},
		{
			"bufferView":130,
			"componentType":5126,
			"count":2,
			"type":"VEC3"
		},
		{
			"bufferView":131,
			"componentType":5126,
			"count":2,
			"type":"VEC3"
		},
		{
			"bufferView":132,
			"componentType":5126,
			"count":2,
			"type":"VEC4"
		},
		{
			"bufferView":133,
			"componentType":5126,
			"count":2,
			"type":"VEC3"
		},
		{
			"bufferView":134,
			"componentType":5126,
			"count":2,
			"type":"VEC3"
		},
		{
			"bufferView":135,
			"componentType":5126,
			"count":19,
			"type":"VEC4"
		},
		{
			"bufferView":136,
			"componentType":5126,
			"count":2,
			"type":"VEC3"
		},
		{
			"bufferView":137,
			"componentType":5126,
			"count":2,
			"type":"VEC3"
		},
		{
			"bufferView":138,
			"componentType":5126,
			"count":2,
			"type":"VEC4"
		},
		{
			"bufferView":139,
			"componentType":5126,
			"count":2,
			"type":"VEC3"
		},
		{
			"bufferView":140,
			"componentType":5126,
			"count":2,
			"type":"VEC3"
		},
		{
			"bufferView":141,
			"componentType":5126,
			"count":2,
			"type":"VEC4"
		},
		{
			"bufferView":142,
			"componentType":5126,
			"count":2,
			"type":"VEC3"
		},
		{
			"bufferView":143,
			"componentType":5126,
			"count":61,
			"max":[
				2
			],
			"min":[
				0
			],
			"type":"SCALAR"
		},
		{
			"bufferView":144,
			"componentType":5126,
			"count":61,
			"type":"VEC3"
		},
		{
			"bufferView":145,
			"componentType":5126,
			"count":2,
			"max":[
				2
			],
			"min":[
				0
			],
			"type":"SCALAR"
		},
		{
			"bufferView":146,
			"componentType":5126,
			"count":2,
			"type":"VEC4"
		},
		{
			"bufferView":147,
			"componentType":5126,
			"count":2,
			"type":"VEC3"
		},
		{
			"bufferView":148,
			"componentType":5126,
			"count":2,
			"type":"VEC3"
		},
		{
			"bufferView":149,
			"componentType":5126,
			"count":2,
			"type":"VEC4"
		},
		{
			"bufferView":150,
			"componentType":5126,
			"count":2,
			"type":"VEC3"
		},
		{
			"bufferView":151,
			"componentType":5126,
			"count":2,
			"type":"VEC3"
		},
		{
			"bufferView":152,
			"componentType":5126,
			"count":61,
			"type":"VEC4"
		},
		{
			"bufferView":153,
			"componentType":5126,
			"count":2,
			"type":"VEC3"
		},
		{
			"bufferView":154,
			"componentType":5126,
			"count":2,
			"type":"VEC3"
		},
		{
			"bufferView":155,
			"componentType":5126,
			"count":2,
			"type":"VEC4"
		},
		{
			"bufferView":156,
			"componentType":5126,
			"count":2,
			"type":"VEC3"
		},
		{
			"bufferView":157,
			"componentType":5126,
			"count":2,
			"type":"VEC3"
		},
		{
			"bufferView":158,
			"componentType":5126,
			"count":61,
			"type":"VEC4"
		},
		{
			"bufferView":159,
			"componentType":5126,
			"count":2,
			"type":"VEC3"
		},
		{
			"bufferView":160,
			"componentType":5126,
			"count":2,
			"type":"VEC3"
		},
		{
			"bufferView":161,
			"componentType":5126,
			"count":61,
			"type":"VEC4"
		},
		{
			"bufferView":162,
			"componentType":5126,
			"count":2,
			"type":"VEC3"
		},
		{
			"bufferView":163,
			"componentType":5126,
			"count":2,
			"type":"VEC3"
		},
		{
			"bufferView":164,
			"componentType":5126,
			"count":2,
			"type":"VEC4"
		},
		{
			"bufferView":165,
			"componentType":5126,
			"count":2,
			"type":"VEC3"
		},
		{
			"bufferView":166,
			"componentType":5126,
			"count":2,
			"type":"VEC3"
		},
		{
			"bufferView":167,
			"componentType":5126,
			"count":2,
			"type":"VEC4"
		},
		{
			"bufferView":168,
			"componentType":5126,
			"count":2,
			"type":"VEC3"
		},
		{
			"bufferView":169,
			"componentType":5126,
			"count":2,
			"type":"VEC3"
		},
		{
			"bufferView":170,
			"componentType":5126,
			"count":61,
			"type":"VEC4"
		},
		{
			"bufferView":171,
			"componentType":5126,
			"count":2,
			"type":"VEC3"
		},
		{
			"bufferView":172,
			"componentType":5126,
			"count":2,
			"type":"VEC3"
		},
		{
			"bufferView":173,
			"componentType":5126,
			"count":2,
			"type":"VEC4"
		},
		{
			"bufferView":174,
			"componentType":5126,
			"count":2,
			"type":"VEC3"
		},
		{
			"bufferView":175,
			"componentType":5126,
			"count":2,
			"type":"VEC3"
		},
		{
			"bufferView":176,
			"componentType":5126,
			"count":2,
			"type":"VEC4"
		},
		{
			"bufferView":177,
			"componentType":5126,
			"count":2,
			"type":"VEC3"
		},
		{
			"bufferView":178,
			"componentType":5126,
			"count":2,
			"type":"VEC3"
		},
		{
			"bufferView":179,
			"componentType":5126,
			"count":2,
			"type":"VEC4"
		},
		{
			"bufferView":180,
			"componentType":5126,
			"count":2,
			"type":"VEC3"
		},
		{
			"bufferView":181,
			"componentType":5126,
			"count":2,
			"type":"VEC3"
		},
		{
			"bufferView":182,
			"componentType":5126,
			"count":2,
			"type":"VEC4"
		},
		{
			"bufferView":183,
			"componentType":5126,
			"count":2,
			"type":"VEC3"
		},
		{
			"bufferView":184,
			"componentType":5126,
			"count":2,
			"type":"VEC3"
		},
		{
			"bufferView":185,
			"componentType":5126,
			"count":2,
			"type":"VEC4"
		},
		{
			"bufferView":186,
			"componentType":5126,
			"count":2,
			"type":"VEC3"
		},
		{
			"bufferView":187,
			"componentType":5126,
			"count":2,
			"type":"VEC3"
		},
		{
			"bufferView":188,
			"componentType":5126,
			"count":2,
			"type":"VEC4"
		},
		{
			"bufferView":189,
			"componentType":5126,
			"count":2,
			"type":"VEC3"
		},
		{
			"bufferView":190,
			"componentType":5126,
			"count":2,
			"type":"VEC3"
		},
		{
			"bufferView":191,
			"componentType":5126,
			"count":2,
			"type":"VEC4"
		},
		{
			"bufferView":192,
			"componentType":5126,
			"count":2,
			"type":"VEC3"
		},
		{
			"bufferView":193,
			"componentType":5126,
			"count":2,
			"type":"VEC3"
		},
		{
			"bufferView":194,
			"componentType":5126,
			"count":2,
			"type":"VEC4"
		},
		{
			"bufferView":195,
			"componentType":5126,
			"count":2,
			"type":"VEC3"
		},
		{
			"bufferView":196,
			"componentType":5126,
			"count":31,
			"max":[
				1
			],
			"min":[
				0
			],
			"type":"SCALAR"
		},
		{
			"bufferView":197,
			"componentType":5126,
			"count":31,
			"type":"VEC3"
		},
		{
			"bufferView":198,
			"componentType":5126,
			"count":31,
			"type":"VEC4"
		},
		{
			"bufferView":199,
			"componentType":5126,
			"count":2,
			"max":[
				1
			],
			"min":[
				0
			],
			"type":"SCALAR"
		},
		{
			"bufferView":200,
			"componentType":5126,
			"count":2,
			"type":"VEC3"
		},
		{
			"bufferView":201,
			"componentType":5126,
			"count":2,
			"type":"VEC3"
		},
		{
			"bufferView":202,
			"componentType":5126,
			"count":2,
			"type":"VEC4"
		},
		{
			"bufferView":203,
			"componentType":5126,
			"count":2,
			"type":"VEC3"
		},
		{
			"bufferView":204,
			"componentType":5126,
			"count":2,
			"type":"VEC3"
		},
		{
			"bufferView":205,
			"componentType":5126,
			"count":31,
			"type":"VEC4"
		},
		{
			"bufferView":206,
			"componentType":5126,
			"count":2,
			"type":"VEC3"
		},
		{
			"bufferView":207,
			"componentType":5126,
			"count":2,
			"type":"VEC3"
		},
		{
			"bufferView":208,
			"componentType":5126,
			"count":2,
			"type":"VEC4"
		},
		{
			"bufferView":209,
			"componentType":5126,
			"count":2,
			"type":"VEC3"
		},
		{
			"bufferView":210,
			"componentType":5126,
			"count":2,
			"type":"VEC3"
		},
		{
			"bufferView":211,
			"componentType":5126,
			"count":2,
			"type":"VEC4"
		},
		{
			"bufferView":212,
			"componentType":5126,
			"count":2,
			"type":"VEC3"
		},
		{
			"bufferView":213,
			"componentType":5126,
			"count":2,
			"type":"VEC3"
		},
		{
			"bufferView":214,
			"componentType":5126,
			"count":31,
			"type":"VEC4"
		},
		{
			"bufferView":215,
			"componentType":5126,
			"count":2,
			"type":"VEC3"
		},
		{
			"bufferView":216,
			"componentType":5126,
			"count":2,
			"type":"VEC3"
		},
		{
			"bufferView":217,
			"componentType":5126,
			"count":2,
			"type":"VEC4"
		},
		{
			"bufferView":218,
			"componentType":5126,
			"count":2,
			"type":"VEC3"
		},
		{
			"bufferView":219,
			"componentType":5126,
			"count":2,
			"type":"VEC3"
		},
		{
			"bufferView":220,
			"componentType":5126,
			"count":2,
			"type":"VEC4"
		},
		{
			"bufferView":221,
			"componentType":5126,
			"count":2,
			"type":"VEC3"
		},
		{
			"bufferView":222,
			"componentType":5126,
			"count":2,
			"type":"VEC3"
		},
		{
			"bufferView":223,
			"componentType":5126,
			"count":31,
			"type":"VEC4"
		},
		{
			"bufferView":224,
			"componentType":5126,
			"count":2,
			"type":"VEC3"
		},
		{
			"bufferView":225,
			"componentType":5126,
			"count":2,
			"type":"VEC3"
		},
		{
			"bufferView":226,
			"componentType":5126,
			"count":2,
			"type":"VEC4"
		},
		{
			"bufferView":227,
			"componentType":5126,
			"count":2,
			"type":"VEC3"
		},
		{
			"bufferView":228,
			"componentType":5126,
			"count":2,
			"type":"VEC3"
		},
		{
			"bufferView":229,
			"componentType":5126,
			"count":2,
			"type":"VEC4"
		},
		{
			"bufferView":230,
			"componentType":5126,
			"count":2,
			"type":"VEC3"
		},
		{
			"bufferView":231,
			"componentType":5126,
			"count":2,
			"type":"VEC3"
		},
		{
			"bufferView":232,
			"componentType":5126,
			"count":31,
			"type":"VEC4"
		},
		{
			"bufferView":233,
			"componentType":5126,
			"count":2,
			"type":"VEC3"
		},
		{
			"bufferView":234,
			"componentType":5126,
			"count":2,
			"type":"VEC3"
		},
		{
			"bufferView":235,
			"componentType":5126,
			"count":31,
			"type":"VEC4"
		},
		{
			"bufferView":236,
			"componentType":5126,
			"count":2,
			"type":"VEC3"
		},
		{
			"bufferView":237,
			"componentType":5126,
			"count":2,
			"type":"VEC3"
		},
		{
			"bufferView":238,
			"componentType":5126,
			"count":31,
			"type":"VEC4"
		},
		{
			"bufferView":239,
			"componentType":5126,
			"count":2,
			"type":"VEC3"
		},
		{
			"bufferView":240,
			"componentType":5126,
			"count":2,
			"type":"VEC3"
		},
		{
			"bufferView":241,
			"componentType":5126,
			"count":31,
			"type":"VEC4"
		},
		{
			"bufferView":242,
			"componentType":5126,
			"count":2,
			"type":"VEC3"
		},
		{
			"bufferView":243,
			"componentType":5126,
			"count":2,
			"type":"VEC3"
		},
		{
			"bufferView":244,
			"componentType":5126,
			"count":31,
			"type":"VEC4"
		},
		{
			"bufferView":245,
			"componentType":5126,
			"count":2,
			"type":"VEC3"
		},
		{
			"bufferView":246,
			"componentType":5126,
			"count":2,
			"type":"VEC3"
		},
		{
			"bufferView":247,
			"componentType":5126,
			"count":31,
			"type":"VEC4"
		},
		{
			"bufferView":248,
			"componentType":5126,
			"count":2,
			"type":"VEC3"
		}
	],
	"bufferViews":[
		{
			"buffer":0,
			"byteLength":17244,
			"byteOffset":0,
			"target":34962
		},
		{
			"buffer":0,
			"byteLength":17244,
			"byteOffset":17244,
			"target":34962
		},
		{
			"buffer":0,
			"byteLength":11496,
			"byteOffset":34488,
			"target":34962
		},
		{
			"buffer":0,
			"byteLength":5748,
			"byteOffset":45984,
			"target":34962
		},
		{
			"buffer":0,
			"byteLength":22992,
			"byteOffset":51732,
			"target":34962
		},
		{
			"buffer":0,
			"byteLength":11736,
			"byteOffset":74724,
			"target":34963
		},
		{
			"buffer":0,
			"byteLength":32700,
			"byteOffset":86460,
			"target":34962
		},
		{
			"buffer":0,
			"byteLength":32700,
			"byteOffset":119160,
			"target":34962
		},
		{
			"buffer":0,
			"byteLength":21800,
			"byteOffset":151860,
			"target":34962
		},
		{
			"buffer":0,
			"byteLength":10900,
			"byteOffset":173660,
			"target":34962
		},
		{
			"buffer":0,
			"byteLength":43600,
			"byteOffset":184560,
			"target":34962
		},
		{
			"buffer":0,
			"byteLength":16656,
			"byteOffset":228160,
			"target":34963
		},
		{
			"buffer":0,
			"byteLength":17532,
			"byteOffset":244816,
			"target":34962
		},
		{
			"buffer":0,
			"byteLength":17532,
			"byteOffset":262348,
			"target":34962
		},
		{
			"buffer":0,
			"byteLength":11688,
			"byteOffset":279880,
			"target":34962
		},
		{
			"buffer":0,
			"byteLength":5844,
			"byteOffset":291568,
			"target":34962
		},
		{
			"buffer":0,
			"byteLength":23376,
			"byteOffset":297412,
			"target":34962
		},
		{
			"buffer":0,
			"byteLength":13296,
			"byteOffset":320788,
			"target":34963
		},
		{
			"buffer":0,
			"byteLength":780,
			"byteOffset":334084,
			"target":34962
		},
		{
			"buffer":0,
			"byteLength":780,
			"byteOffset":334864,
			"target":34962
		},
		{
			"buffer":0,
			"byteLength":520,
			"byteOffset":335644,
			"target":34962
		},
		{
			"buffer":0,
			"byteLength":260,
			"byteOffset":336164,
			"target":34962
		},
		{
			"buffer":0,
			"byteLength":1040,
			"byteOffset":336424,
			"target":34962
		},
		{
			"buffer":0,
			"byteLength":384,
			"byteOffset":337464,
			"target":34963
		},
		{
			"buffer":0,
			"byteLength":11724,
			"byteOffset":337848,
			"target":34962
		},
		{
			"buffer":0,
			"byteLength":11724,
			"byteOffset":349572,
			"target":34962
		},
		{
			"buffer":0,
			"byteLength":7816,
			"byteOffset":361296,
			"target":34962
		},
		{
			"buffer":0,
			"byteLength":3908,
			"byteOffset":369112,
			"target":34962
		},
		{
			"buffer":0,
			"byteLength":15632,
			"byteOffset":373020,
			"target":34962
		},
		{
			"buffer":0,
			"byteLength":8664,
			"byteOffset":388652,
			"target":34963
		},
		{
			"buffer":0,
			"byteLength":12408,
			"byteOffset":397316,
			"target":34962
		},
		{
			"buffer":0,
			"byteLength":12408,
			"byteOffset":409724,
			"target":34962
		},
		{
			"buffer":0,
			"byteLength":8272,
			"byteOffset":422132,
			"target":34962
		},
		{
			"buffer":0,
			"byteLength":4136,
			"byteOffset":430404,
			"target":34962
		},
		{
			"buffer":0,
			"byteLength":16544,
			"byteOffset":434540,
			"target":34962
		},
		{
			"buffer":0,
			"byteLength":9216,
			"byteOffset":451084,
			"target":34963
		},
		{
			"buffer":0,
			"byteLength":3648,
			"byteOffset":460300,
			"target":34962
		},
		{
			"buffer":0,
			"byteLength":3648,
			"byteOffset":463948,
			"target":34962
		},
		{
			"buffer":0,
			"byteLength":2432,
			"byteOffset":467596,
			"target":34962
		},
		{
			"buffer":0,
			"byteLength":1216,
			"byteOffset":470028,
			"target":34962
		},
		{
			"buffer":0,
			"byteLength":4864,
			"byteOffset":471244,
			"target":34962
		},
		{
			"buffer":0,
			"byteLength":2304,
			"byteOffset":476108,
			"target":34963
		},
		{
			"buffer":0,
			"byteLength":2640,
			"byteOffset":478412,
			"target":34962
		},
		{
			"buffer":0,
			"byteLength":2640,
			"byteOffset":481052,
			"target":34962
		},
		{
			"buffer":0,
			"byteLength":1760,
			"byteOffset":483692,
			"target":34962
		},
		{
			"buffer":0,
			"byteLength":880,
			"byteOffset":485452,
			"target":34962
		},
		{
			"buffer":0,
			"byteLength":3520,
			"byteOffset":486332,
			"target":34962
		},
		{
			"buffer":0,
			"byteLength":1440,
			"byteOffset":489852,
			"target":34963
		},
		{
			"buffer":0,
			"byteLength":1920,
			"byteOffset":491292,
			"target":34962
		},
		{
			"buffer":0,
			"byteLength":1920,
			"byteOffset":493212,
			"target":34962
		},
		{
			"buffer":0,
			"byteLength":1280,
			"byteOffset":495132,
			"target":34962
		},
		{
			"buffer":0,
			"byteLength":640,
			"byteOffset":496412,
			"target":34962
		},
		{
			"buffer":0,
			"byteLength":2560,
			"byteOffset":497052,
			"target":34962
		},
		{
			"buffer":0,
			"byteLength":960,
			"byteOffset":499612,
			"target":34963
		},
		{
			"buffer":0,
			"byteLength":1176,
			"byteOffset":500572,
			"target":34962
		},
		{
			"buffer":0,
			"byteLength":1176,
			"byteOffset":501748,
			"target":34962
		},
		{
			"buffer":0,
			"byteLength":784,
			"byteOffset":502924,
			"target":34962
		},
		{
			"buffer":0,
			"byteLength":392,
			"byteOffset":503708,
			"target":34962
		},
		{
			"buffer":0,
			"byteLength":1568,
			"byteOffset":504100,
			"target":34962
		},
		{
			"buffer":0,
			"byteLength":720,
			"byteOffset":505668,
			"target":34963
		},
		{
			"buffer":0,
			"byteLength":1944,
			"byteOffset":506388,
			"target":34962
		},
		{
			"buffer":0,
			"byteLength":1944,
			"byteOffset":508332,
			"target":34962
		},
		{
			"buffer":0,
			"byteLength":1296,
			"byteOffset":510276,
			"target":34962
		},
		{
			"buffer":0,
			"byteLength":648,
			"byteOffset":511572,
			"target":34962
		},
		{
			"buffer":0,
			"byteLength":2592,
			"byteOffset":512220,
			"target":34962
		},
		{
			"buffer":0,
			"byteLength":1320,
			"byteOffset":514812,
			"target":34963
		},
		{
			"buffer":0,
			"byteLength":504,
			"byteOffset":516132,
			"target":34962
		},
		{
			"buffer":0,
			"byteLength":504,
			"byteOffset":516636,
			"target":34962
		},
		{
			"buffer":0,
			"byteLength":336,
			"byteOffset":517140,
			"target":34962
		},
		{
			"buffer":0,
			"byteLength":168,
			"byteOffset":517476,
			"target":34962
		},
		{
			"buffer":0,
			"byteLength":672,
			"byteOffset":517644,
			"target":34962
		},
		{
			"buffer":0,
			"byteLength":192,
			"byteOffset":518316,
			"target":34963
		},
		{
			"buffer":0,
			"byteLength":288,
			"byteOffset":518508,
			"target":34962
		},
		{
			"buffer":0,
			"byteLength":288,
			"byteOffset":518796,
			"target":34962
		},
		{
			"buffer":0,
			"byteLength":192,
			"byteOffset":519084,
			"target":34962
		},
		{
			"buffer":0,
			"byteLength":96,
			"byteOffset":519276,
			"target":34962
		},
		{
			"buffer":0,
			"byteLength":384,
			"byteOffset":519372,
			"target":34962
		},
		{
			"buffer":0,
			"byteLength":72,
			"byteOffset":519756,
			"target":34963
		},
		{
			"buffer":0,
			"byteLength":504,
			"byteOffset":519828,
			"target":34962
		},
		{
			"buffer":0,
			"byteLength":504,
			"byteOffset":520332,
			"target":34962
		},
		{
			"buffer":0,
			"byteLength":336,
			"byteOffset":520836,
			"target":34962
		},
		{
			"buffer":0,
			"byteLength":168,
			"byteOffset":521172,
			"target":34962
		},
		{
			"buffer":0,
			"byteLength":672,
			"byteOffset":521340,
			"target":34962
		},
		{
			"buffer":0,
			"byteLength":192,
			"byteOffset":522012,
			"target":34963
		},
		{
			"buffer":0,
			"byteLength":288,
			"byteOffset":522204,
			"target":34962
		},
		{
			"buffer":0,
			"byteLength":288,
			"byteOffset":522492,
			"target":34962
		},
		{
			"buffer":0,
			"byteLength":192,
			"byteOffset":522780,
			"target":34962
		},
		{
			"buffer":0,
			"byteLength":96,
			"byteOffset":522972,
			"target":34962
		},
		{
			"buffer":0,
			"byteLength":384,
			"byteOffset":523068,
			"target":34962
		},
		{
			"buffer":0,
			"byteLength":1088,
			"byteOffset":523452
		},
		{
			"buffer":0,
			"byteLength":8,
			"byteOffset":524540
		},
		{
			"buffer":0,
			"byteLength":24,
			"byteOffset":524548
		},
		{
			"buffer":0,
			"byteLength":32,
			"byteOffset":524572
		},
		{
			"buffer":0,
			"byteLength":24,
			"byteOffset":524604
		},
		{
			"buffer":0,
			"byteLength":24,
			"byteOffset":524628
		},
		{
			"buffer":0,
			"byteLength":32,
			"byteOffset":524652
		},
		{
			"buffer":0,
			"byteLength":24,
			"byteOffset":524684
		},
		{
			"buffer":0,
			"byteLength":24,
			"byteOffset":524708
		},
		{
			"buffer":0,
			"byteLength":76,
			"byteOffset":524732
		},
		{
			"buffer":0,
			"byteLength":304,
			"byteOffset":524808
		},
		{
			"buffer":0,
			"byteLength":24,
			"byteOffset":525112
		},
		{
			"buffer":0,
			"byteLength":24,
			"byteOffset":525136
		},
		{
			"buffer":0,
			"byteLength":32,
			"byteOffset":525160
		},
		{
			"buffer":0,
			"byteLength":24,
			"byteOffset":525192
		},
		{
			"buffer":0,
			"byteLength":24,
			"byteOffset":525216
		},
		{
			"buffer":0,
			"byteLength":32,
			"byteOffset":525240
		},
		{
			"buffer":0,
			"byteLength":24,
			"byteOffset":525272
		},
		{
			"buffer":0,
			"byteLength":24,
			"byteOffset":525296
		},
		{
			"buffer":0,
			"byteLength":304,
			"byteOffset":525320
		},
		{
			"buffer":0,
			"byteLength":24,
			"byteOffset":525624
		},
		{
			"buffer":0,
			"byteLength":24,
			"byteOffset":525648
		},
		{
			"buffer":0,
			"byteLength":304,
			"byteOffset":525672
		},
		{
			"buffer":0,
			"byteLength":24,
			"byteOffset":525976
		},
		{
			"buffer":0,
			"byteLength":24,
			"byteOffset":526000
		},
		{
			"buffer":0,
			"byteLength":32,
			"byteOffset":526024
		},
		{
			"buffer":0,
			"byteLength":24,
			"byteOffset":526056
		},
		{
			"buffer":0,
			"byteLength":24,
			"byteOffset":526080
		},
		{
			"buffer":0,
			"byteLength":304,
			"byteOffset":526104
		},
		{
			"buffer":0,
			"byteLength":24,
			"byteOffset":526408
		},
		{
			"buffer":0,
			"byteLength":24,
			"byteOffset":526432
		},
		{
			"buffer":0,
			"byteLength":32,
			"byteOffset":526456
		},
		{
			"buffer":0,
			"byteLength":24,
			"byteOffset":526488
		},
		{
			"buffer":0,
			"byteLength":24,
			"byteOffset":526512
		},
		{
			"buffer":0,
			"byteLength":32,
			"byteOffset":526536
		},
		{
			"buffer":0,
			"byteLength":24,
			"byteOffset":526568
		},
		{
			"buffer":0,
			"byteLength":24,
			"byteOffset":526592
		},
		{
			"buffer":0,
			"byteLength":304,
			"byteOffset":526616
		},
		{
			"buffer":0,
			"byteLength":24,
			"byteOffset":526920
		},
		{
			"buffer":0,
			"byteLength":24,
			"byteOffset":526944
		},
		{
			"buffer":0,
			"byteLength":32,
			"byteOffset":526968
		},
		{
			"buffer":0,
			"byteLength":24,
			"byteOffset":527000
		},
		{
			"buffer":0,
			"byteLength":24,
			"byteOffset":527024
		},
		{
			"buffer":0,
			"byteLength":32,
			"byteOffset":527048
		},
		{
			"buffer":0,
			"byteLength":24,
			"byteOffset":527080
		},
		{
			"buffer":0,
			"byteLength":24,
			"byteOffset":527104
		},
		{
			"buffer":0,
			"byteLength":304,
			"byteOffset":527128
		},
		{
			"buffer":0,
			"byteLength":24,
			"byteOffset":527432
		},
		{
			"buffer":0,
			"byteLength":24,
			"byteOffset":527456
		},
		{
			"buffer":0,
			"byteLength":32,
			"byteOffset":527480
		},
		{
			"buffer":0,
			"byteLength":24,
			"byteOffset":527512
		},
		{
			"buffer":0,
			"byteLength":24,
			"byteOffset":527536
		},
		{
			"buffer":0,
			"byteLength":32,
			"byteOffset":527560
		},
		{
			"buffer":0,
			"byteLength":24,
			"byteOffset":527592
		},
		{
			"buffer":0,
			"byteLength":244,
			"byteOffset":527616
		},
		{
			"buffer":0,
			"byteLength":732,
			"byteOffset":527860
		},
		{
			"buffer":0,
			"byteLength":8,
			"byteOffset":528592
		},
		{
			"buffer":0,
			"byteLength":32,
			"byteOffset":528600
		},
		{
			"buffer":0,
			"byteLength":24,
			"byteOffset":528632
		},
		{
			"buffer":0,
			"byteLength":24,
			"byteOffset":528656
		},
		{
			"buffer":0,
			"byteLength":32,
			"byteOffset":528680
		},
		{
			"buffer":0,
			"byteLength":24,
			"byteOffset":528712
		},
		{
			"buffer":0,
			"byteLength":24,
			"byteOffset":528736
		},
		{
			"buffer":0,
			"byteLength":976,
			"byteOffset":528760
		},
		{
			"buffer":0,
			"byteLength":24,
			"byteOffset":529736
		},
		{
			"buffer":0,
			"byteLength":24,
			"byteOffset":529760
		},
		{
			"buffer":0,
			"byteLength":32,
			"byteOffset":529784
		},
		{
			"buffer":0,
			"byteLength":24,
			"byteOffset":529816
		},
		{
			"buffer":0,
			"byteLength":24,
			"byteOffset":529840
		},
		{
			"buffer":0,
			"byteLength":976,
			"byteOffset":529864
		},
		{
			"buffer":0,
			"byteLength":24,
			"byteOffset":530840
		},
		{
			"buffer":0,
			"byteLength":24,
			"byteOffset":530864
		},
		{
			"buffer":0,
			"byteLength":976,
			"byteOffset":530888
		},
		{
			"buffer":0,
			"byteLength":24,
			"byteOffset":531864
		},
		{
			"buffer":0,
			"byteLength":24,
			"byteOffset":531888
		},
		{
			"buffer":0,
			"byteLength":32,
			"byteOffset":531912
		},
		{
			"buffer":0,
			"byteLength":24,
			"byteOffset":531944
		},
		{
			"buffer":0,
			"byteLength":24,
			"byteOffset":531968
		},
		{
			"buffer":0,
			"byteLength":32,
			"byteOffset":531992
		},
		{
			"buffer":0,
			"byteLength":24,
			"byteOffset":532024
		},
		{
			"buffer":0,
			"byteLength":24,
			"byteOffset":532048
		},
		{
			"buffer":0,
			"byteLength":976,
			"byteOffset":532072
		},
		{
			"buffer":0,
			"byteLength":24,
			"byteOffset":533048
		},
		{
			"buffer":0,
			"byteLength":24,
			"byteOffset":533072
		},
		{
			"buffer":0,
			"byteLength":32,
			"byteOffset":533096
		},
		{
			"buffer":0,
			"byteLength":24,
			"byteOffset":533128
		},
		{
			"buffer":0,
			"byteLength":24,
			"byteOffset":533152
		},
		{
			"buffer":0,
			"byteLength":32,
			"byteOffset":533176
		},
		{
			"buffer":0,
			"byteLength":24,
			"byteOffset":533208
		},
		{
			"buffer":0,
			"byteLength":24,
			"byteOffset":533232
		},
		{
			"buffer":0,
			"byteLength":32,
			"byteOffset":533256
		},
		{
			"buffer":0,
			"byteLength":24,
			"byteOffset":533288
		},
		{
			"buffer":0,
			"byteLength":24,
			"byteOffset":533312
		},
		{
			"buffer":0,
			"byteLength":32,
			"byteOffset":533336
		},
		{
			"buffer":0,
			"byteLength":24,
			"byteOffset":533368
		},
		{
			"buffer":0,
			"byteLength":24,
			"byteOffset":533392
		},
		{
			"buffer":0,
			"byteLength":32,
			"byteOffset":533416
		},
		{
			"buffer":0,
			"byteLength":24,
			"byteOffset":533448
		},
		{
			"buffer":0,
			"byteLength":24,
			"byteOffset":533472
		},
		{
			"buffer":0,
			"byteLength":32,
			"byteOffset":533496
		},
		{
			"buffer":0,
			"byteLength":24,
			"byteOffset":533528
		},
		{
			"buffer":0,
			"byteLength":24,
			"byteOffset":533552
		},
		{
			"buffer":0,
			"byteLength":32,
			"byteOffset":533576
		},
		{
			"buffer":0,
			"byteLength":24,
			"byteOffset":533608
		},
		{
			"buffer":0,
			"byteLength":24,
			"byteOffset":533632
		},
		{
			"buffer":0,
			"byteLength":32,
			"byteOffset":533656
		},
		{
			"buffer":0,
			"byteLength":24,
			"byteOffset":533688
		},
		{
			"buffer":0,
			"byteLength":124,
			"byteOffset":533712
		},
		{
			"buffer":0,
			"byteLength":372,
			"byteOffset":533836
		},
		{
			"buffer":0,
			"byteLength":496,
			"byteOffset":534208
		},
		{
			"buffer":0,
			"byteLength":8,
			"byteOffset":534704
		},
		{
			"buffer":0,
			"byteLength":24,
			"byteOffset":534712
		},
		{
			"buffer":0,
			"byteLength":24,
			"byteOffset":534736
		},
		{
			"buffer":0,
			"byteLength":32,
			"byteOffset":534760
		},
		{
			"buffer":0,
			"byteLength":24,
			"byteOffset":534792
		},
		{
			"buffer":0,
			"byteLength":24,
			"byteOffset":534816
		},
		{
			"buffer":0,
			"byteLength":496,
			"byteOffset":534840
		},
		{
			"buffer":0,
			"byteLength":24,
			"byteOffset":535336
		},
		{
			"buffer":0,
			"byteLength":24,
			"byteOffset":535360
		},
		{
			"buffer":0,
			"byteLength":32,
			"byteOffset":535384
		},
		{
			"buffer":0,
			"byteLength":24,
			"byteOffset":535416
		},
		{
			"buffer":0,
			"byteLength":24,
			"byteOffset":535440
		},
		{
			"buffer":0,
			"byteLength":32,
			"byteOffset":535464
		},
		{
			"buffer":0,
			"byteLength":24,
			"byteOffset":535496
		},
		{
			"buffer":0,
			"byteLength":24,
			"byteOffset":535520
		},
		{
			"buffer":0,
			"byteLength":496,
			"byteOffset":535544
		},
		{
			"buffer":0,
			"byteLength":24,
			"byteOffset":536040
		},
		{
			"buffer":0,
			"byteLength":24,
			"byteOffset":536064
		},
		{
			"buffer":0,
			"byteLength":32,
			"byteOffset":536088
		},
		{
			"buffer":0,
			"byteLength":24,
			"byteOffset":536120
		},
		{
			"buffer":0,
			"byteLength":24,
			"byteOffset":536144
		},
		{
			"buffer":0,
			"byteLength":32,
			"byteOffset":536168
		},
		{
			"buffer":0,
			"byteLength":24,
			"byteOffset":536200
		},
		{
			"buffer":0,
			"byteLength":24,
			"byteOffset":536224
		},
		{
			"buffer":0,
			"byteLength":496,
			"byteOffset":536248
		},
		{
			"buffer":0,
			"byteLength":24,
			"byteOffset":536744
		},
		{
			"buffer":0,
			"byteLength":24,
			"byteOffset":536768
		},
		{
			"buffer":0,
			"byteLength":32,
			"byteOffset":536792
		},
		{
			"buffer":0,
			"byteLength":24,
			"byteOffset":536824
		},
		{
			"buffer":0,
			"byteLength":24,
			"byteOffset":536848
		},
		{
			"buffer":0,
			"byteLength":32,
			"byteOffset":536872
		},
		{
			"buffer":0,
			"byteLength":24,
			"byteOffset":536904
		},
		{
			"buffer":0,
			"byteLength":24,
			"byteOffset":536928
		},
		{
			"buffer":0,
			"byteLength":496,
			"byteOffset":536952
		},
		{
			"buffer":0,
			"byteLength":24,
			"byteOffset":537448
		},
		{
			"buffer":0,
			"byteLength":24,
			"byteOffset":537472
		},
		{
			"buffer":0,
			"byteLength":496,
			"byteOffset":537496
		},
		{
			"buffer":0,
			"byteLength":24,
			"byteOffset":537992
		},
		{
			"buffer":0,
			"byteLength":24,
			"byteOffset":538016
		},
		{
			"buffer":0,
			"byteLength":496,
			"byteOffset":538040
		},
		{
			"buffer":0,
			"byteLength":24,
			"byteOffset":538536
		},
		{
			"buffer":0,
			"byteLength":24,
			"byteOffset":538560
		},
		{
			"buffer":0,
			"byteLength":496,
			"byteOffset":538584
		},
		{
			"buffer":0,
			"byteLength":24,
			"byteOffset":539080
		},
		{
			"buffer":0,
			"byteLength":24,
			"byteOffset":539104
		},
		{
			"buffer":0,
			"byteLength":496,
			"byteOffset":539128
		},
		{
			"buffer":0,
			"byteLength":24,
			"byteOffset":539624
		},
		{
			"buffer":0,
			"byteLength":24,
			"byteOffset":539648
		},
		{
			"buffer":0,
			"byteLength":496,
			"byteOffset":539672
		},
		{
			"buffer":0,
			"byteLength":24,
			"byteOffset":540168
		}
	],
	"samplers":[
		{
			"magFilter":9729,
			"minFilter":9987
		}
	],
	"buffers":[
		{
			"byteLength":540192,
			"uri":"kondo.bin"
		}
	]
}
