{
	"asset":{
		"generator":"Khronos glTF Blender I/O v4.2.57",
		"version":"2.0"
	},
	"extensionsUsed":[
		"KHR_materials_clearcoat",
		"KHR_materials_sheen"
	],
	"scene":0,
	"scenes":[
		{
			"name":"Scene",
			"nodes":[
				18
			]
		}
	],
	"nodes":[
		{
			"name":"head",
			"translation":[
				0,
				0.09999990463256836,
				0
			]
		},
		{
			"children":[
				0
			],
			"name":"neck",
			"translation":[
				0,
				0.21000003814697266,
				0
			]
		},
		{
			"name":"hand.R",
			"rotation":[
				-0.0035572354681789875,
				-0.0256695244461298,
				0.027569392696022987,
				0.9992839694023132
			],
			"scale":[
				0.9999999403953552,
				0.9999999403953552,
				1
			],
			"translation":[
				4.132743924856186e-08,
				0.25224828720092773,
				1.30385160446167e-08
			]
		},
		{
			"children":[
				2
			],
			"name":"forearm.R",
			"rotation":[
				0.044664643704891205,
				-0.06645888835191727,
				0.07719743996858597,
				0.9937952160835266
			],
			"scale":[
				1.0000001192092896,
				1.0000001192092896,
				0.9999999403953552
			],
			"translation":[
				8.35862010717392e-08,
				0.27842873334884644,
				-1.0244548320770264e-08
			]
		},
		{
			"children":[
				3
			],
			"name":"upper_arm.R",
			"rotation":[
				0.9847516417503357,
				0.122995525598526,
				0.12299637496471405,
				0.002873800229281187
			],
			"scale":[
				0.9999937415122986,
				0.999999463558197,
				0.9999997615814209
			],
			"translation":[
				0.27000001072883606,
				0.15999996662139893,
				0
			]
		},
		{
			"name":"hand.L",
			"rotation":[
				-0.0035572354681789875,
				0.0256695244461298,
				-0.027569392696022987,
				0.9992839694023132
			],
			"scale":[
				0.9999999403953552,
				0.9999999403953552,
				1
			],
			"translation":[
				-4.132743924856186e-08,
				0.25224828720092773,
				1.30385160446167e-08
			]
		},
		{
			"children":[
				5
			],
			"name":"forearm.L",
			"rotation":[
				0.044664643704891205,
				0.06645888835191727,
				-0.07719743996858597,
				0.9937952160835266
			],
			"scale":[
				1.0000001192092896,
				1.0000001192092896,
				0.9999999403953552
			],
			"translation":[
				-8.35862010717392e-08,
				0.27842873334884644,
				-1.0244548320770264e-08
			]
		},
		{
			"children":[
				6
			],
			"name":"upper_arm.L",
			"rotation":[
				0.9847516417503357,
				-0.122995525598526,
				-0.12299637496471405,
				0.002873800229281187
			],
			"scale":[
				0.9999937415122986,
				0.999999463558197,
				0.9999997615814209
			],
			"translation":[
				-0.27000001072883606,
				0.15999996662139893,
				0
			]
		},
		{
			"children":[
				1,
				4,
				7
			],
			"name":"chest",
			"translation":[
				0,
				0.16999995708465576,
				0
			]
		},
		{
			"children":[
				8
			],
			"name":"spine",
			"translation":[
				0,
				0.15000003576278687,
				0
			]
		},
		{
			"name":"foot.R",
			"rotation":[
				0.5914180278778076,
				-2.941459742444863e-09,
				7.136693458420496e-10,
				0.8063651323318481
			],
			"scale":[
				1,
				0.9999999403953552,
				1
			],
			"translation":[
				-1.2525297465870722e-10,
				0.4105898141860962,
				1.1139604794152547e-09
			]
		},
		{
			"children":[
				10
			],
			"name":"shin.R",
			"rotation":[
				-0.041559819132089615,
				-0.012329475954174995,
				0.011685646139085293,
				0.9989915490150452
			],
			"scale":[
				1,
				0.9999998807907104,
				1
			],
			"translation":[
				9.866198524832726e-09,
				0.4102974832057953,
				-9.313225746154785e-10
			]
		},
		{
			"children":[
				11
			],
			"name":"thigh.R",
			"rotation":[
				-0.999746561050415,
				-0.012011885643005371,
				-0.01201203465461731,
				0.014771562069654465
			],
			"scale":[
				1.0000003576278687,
				1,
				1.0000004768371582
			],
			"translation":[
				0.11500000208616257,
				-0.019999980926513672,
				0
			]
		},
		{
			"name":"foot.L",
			"rotation":[
				0.5914180278778076,
				2.941459742444863e-09,
				-7.136693458420496e-10,
				0.8063651323318481
			],
			"scale":[
				1,
				0.9999999403953552,
				1
			],
			"translation":[
				1.2525297465870722e-10,
				0.4105898141860962,
				1.1139604794152547e-09
			]
		},
		{
			"children":[
				13
			],
			"name":"shin.L",
			"rotation":[
				-0.041559819132089615,
				0.012329475954174995,
				-0.011685646139085293,
				0.9989915490150452
			],
			"scale":[
				1,
				0.9999998807907104,
				1
			],
			"translation":[
				-9.866198524832726e-09,
				0.4102974832057953,
				-9.313225746154785e-10
			]
		},
		{
			"children":[
				14
			],
			"name":"thigh.L",
			"rotation":[
				-0.999746561050415,
				0.012011885643005371,
				0.01201203465461731,
				0.014771562069654465
			],
			"scale":[
				1.0000003576278687,
				1,
				1.0000004768371582
			],
			"translation":[
				-0.11500000208616257,
				-0.019999980926513672,
				0
			]
		},
		{
			"children":[
				9,
				12,
				15
			],
			"name":"hips",
			"translation":[
				0,
				0.9300000071525574,
				0
			]
		},
		{
			"mesh":0,
			"name":"kurobe",
			"skin":0
		},
		{
			"children":[
				17,
				16
			],
			"name":"kurobe_rig"
		}
	],
	"animations":[
		{
			"channels":[
				{
					"sampler":0,
					"target":{
						"node":16,
						"path":"translation"
					}
				},
				{
					"sampler":1,
					"target":{
						"node":16,
						"path":"rotation"
					}
				},
				{
					"sampler":2,
					"target":{
						"node":16,
						"path":"scale"
					}
				},
				{
					"sampler":3,
					"target":{
						"node":9,
						"path":"translation"
					}
				},
				{
					"sampler":4,
					"target":{
						"node":9,
						"path":"rotation"
					}
				},
				{
					"sampler":5,
					"target":{
						"node":9,
						"path":"scale"
					}
				},
				{
					"sampler":6,
					"target":{
						"node":8,
						"path":"translation"
					}
				},
				{
					"sampler":7,
					"target":{
						"node":8,
						"path":"rotation"
					}
				},
				{
					"sampler":8,
					"target":{
						"node":8,
						"path":"scale"
					}
				},
				{
					"sampler":9,
					"target":{
						"node":1,
						"path":"translation"
					}
				},
				{
					"sampler":10,
					"target":{
						"node":1,
						"path":"rotation"
					}
				},
				{
					"sampler":11,
					"target":{
						"node":1,
						"path":"scale"
					}
				},
				{
					"sampler":12,
					"target":{
						"node":0,
						"path":"translation"
					}
				},
				{
					"sampler":13,
					"target":{
						"node":0,
						"path":"rotation"
					}
				},
				{
					"sampler":14,
					"target":{
						"node":0,
						"path":"scale"
					}
				},
				{
					"sampler":15,
					"target":{
						"node":4,
						"path":"translation"
					}
				},
				{
					"sampler":16,
					"target":{
						"node":4,
						"path":"rotation"
					}
				},
				{
					"sampler":17,
					"target":{
						"node":4,
						"path":"scale"
					}
				},
				{
					"sampler":18,
					"target":{
						"node":3,
						"path":"translation"
					}
				},
				{
					"sampler":19,
					"target":{
						"node":3,
						"path":"rotation"
					}
				},
				{
					"sampler":20,
					"target":{
						"node":3,
						"path":"scale"
					}
				},
				{
					"sampler":21,
					"target":{
						"node":2,
						"path":"translation"
					}
				},
				{
					"sampler":22,
					"target":{
						"node":2,
						"path":"rotation"
					}
				},
				{
					"sampler":23,
					"target":{
						"node":2,
						"path":"scale"
					}
				},
				{
					"sampler":24,
					"target":{
						"node":7,
						"path":"translation"
					}
				},
				{
					"sampler":25,
					"target":{
						"node":7,
						"path":"rotation"
					}
				},
				{
					"sampler":26,
					"target":{
						"node":7,
						"path":"scale"
					}
				},
				{
					"sampler":27,
					"target":{
						"node":6,
						"path":"translation"
					}
				},
				{
					"sampler":28,
					"target":{
						"node":6,
						"path":"rotation"
					}
				},
				{
					"sampler":29,
					"target":{
						"node":6,
						"path":"scale"
					}
				},
				{
					"sampler":30,
					"target":{
						"node":5,
						"path":"translation"
					}
				},
				{
					"sampler":31,
					"target":{
						"node":5,
						"path":"rotation"
					}
				},
				{
					"sampler":32,
					"target":{
						"node":5,
						"path":"scale"
					}
				},
				{
					"sampler":33,
					"target":{
						"node":12,
						"path":"translation"
					}
				},
				{
					"sampler":34,
					"target":{
						"node":12,
						"path":"rotation"
					}
				},
				{
					"sampler":35,
					"target":{
						"node":12,
						"path":"scale"
					}
				},
				{
					"sampler":36,
					"target":{
						"node":11,
						"path":"translation"
					}
				},
				{
					"sampler":37,
					"target":{
						"node":11,
						"path":"rotation"
					}
				},
				{
					"sampler":38,
					"target":{
						"node":11,
						"path":"scale"
					}
				},
				{
					"sampler":39,
					"target":{
						"node":10,
						"path":"translation"
					}
				},
				{
					"sampler":40,
					"target":{
						"node":10,
						"path":"rotation"
					}
				},
				{
					"sampler":41,
					"target":{
						"node":10,
						"path":"scale"
					}
				},
				{
					"sampler":42,
					"target":{
						"node":15,
						"path":"translation"
					}
				},
				{
					"sampler":43,
					"target":{
						"node":15,
						"path":"rotation"
					}
				},
				{
					"sampler":44,
					"target":{
						"node":15,
						"path":"scale"
					}
				},
				{
					"sampler":45,
					"target":{
						"node":14,
						"path":"translation"
					}
				},
				{
					"sampler":46,
					"target":{
						"node":14,
						"path":"rotation"
					}
				},
				{
					"sampler":47,
					"target":{
						"node":14,
						"path":"scale"
					}
				},
				{
					"sampler":48,
					"target":{
						"node":13,
						"path":"translation"
					}
				},
				{
					"sampler":49,
					"target":{
						"node":13,
						"path":"rotation"
					}
				},
				{
					"sampler":50,
					"target":{
						"node":13,
						"path":"scale"
					}
				}
			],
			"name":"attack",
			"samplers":[
				{
					"input":84,
					"interpolation":"STEP",
					"output":85
				},
				{
					"input":84,
					"interpolation":"STEP",
					"output":86
				},
				{
					"input":84,
					"interpolation":"STEP",
					"output":87
				},
				{
					"input":84,
					"interpolation":"STEP",
					"output":88
				},
				{
					"input":84,
					"interpolation":"STEP",
					"output":89
				},
				{
					"input":84,
					"interpolation":"STEP",
					"output":90
				},
				{
					"input":84,
					"interpolation":"STEP",
					"output":91
				},
				{
					"input":92,
					"interpolation":"LINEAR",
					"output":93
				},
				{
					"input":84,
					"interpolation":"STEP",
					"output":94
				},
				{
					"input":84,
					"interpolation":"STEP",
					"output":95
				},
				{
					"input":84,
					"interpolation":"STEP",
					"output":96
				},
				{
					"input":84,
					"interpolation":"STEP",
					"output":97
				},
				{
					"input":84,
					"interpolation":"STEP",
					"output":98
				},
				{
					"input":84,
					"interpolation":"STEP",
					"output":99
				},
				{
					"input":84,
					"interpolation":"STEP",
					"output":100
				},
				{
					"input":84,
					"interpolation":"STEP",
					"output":101
				},
				{
					"input":92,
					"interpolation":"LINEAR",
					"output":102
				},
				{
					"input":84,
					"interpolation":"STEP",
					"output":103
				},
				{
					"input":84,
					"interpolation":"STEP",
					"output":104
				},
				{
					"input":92,
					"interpolation":"LINEAR",
					"output":105
				},
				{
					"input":84,
					"interpolation":"STEP",
					"output":106
				},
				{
					"input":84,
					"interpolation":"STEP",
					"output":107
				},
				{
					"input":84,
					"interpolation":"STEP",
					"output":108
				},
				{
					"input":84,
					"interpolation":"STEP",
					"output":109
				},
				{
					"input":84,
					"interpolation":"STEP",
					"output":110
				},
				{
					"input":92,
					"interpolation":"LINEAR",
					"output":111
				},
				{
					"input":84,
					"interpolation":"STEP",
					"output":112
				},
				{
					"input":84,
					"interpolation":"STEP",
					"output":113
				},
				{
					"input":84,
					"interpolation":"STEP",
					"output":114
				},
				{
					"input":84,
					"interpolation":"STEP",
					"output":115
				},
				{
					"input":84,
					"interpolation":"STEP",
					"output":116
				},
				{
					"input":84,
					"interpolation":"STEP",
					"output":117
				},
				{
					"input":84,
					"interpolation":"STEP",
					"output":118
				},
				{
					"input":84,
					"interpolation":"STEP",
					"output":119
				},
				{
					"input":92,
					"interpolation":"LINEAR",
					"output":120
				},
				{
					"input":84,
					"interpolation":"STEP",
					"output":121
				},
				{
					"input":84,
					"interpolation":"STEP",
					"output":122
				},
				{
					"input":84,
					"interpolation":"STEP",
					"output":123
				},
				{
					"input":84,
					"interpolation":"STEP",
					"output":124
				},
				{
					"input":84,
					"interpolation":"STEP",
					"output":125
				},
				{
					"input":84,
					"interpolation":"STEP",
					"output":126
				},
				{
					"input":84,
					"interpolation":"STEP",
					"output":127
				},
				{
					"input":84,
					"interpolation":"STEP",
					"output":128
				},
				{
					"input":92,
					"interpolation":"LINEAR",
					"output":129
				},
				{
					"input":84,
					"interpolation":"STEP",
					"output":130
				},
				{
					"input":84,
					"interpolation":"STEP",
					"output":131
				},
				{
					"input":84,
					"interpolation":"STEP",
					"output":132
				},
				{
					"input":84,
					"interpolation":"STEP",
					"output":133
				},
				{
					"input":84,
					"interpolation":"STEP",
					"output":134
				},
				{
					"input":84,
					"interpolation":"STEP",
					"output":135
				},
				{
					"input":84,
					"interpolation":"STEP",
					"output":136
				}
			]
		},
		{
			"channels":[
				{
					"sampler":0,
					"target":{
						"node":16,
						"path":"translation"
					}
				},
				{
					"sampler":1,
					"target":{
						"node":16,
						"path":"rotation"
					}
				},
				{
					"sampler":2,
					"target":{
						"node":16,
						"path":"scale"
					}
				},
				{
					"sampler":3,
					"target":{
						"node":9,
						"path":"translation"
					}
				},
				{
					"sampler":4,
					"target":{
						"node":9,
						"path":"rotation"
					}
				},
				{
					"sampler":5,
					"target":{
						"node":9,
						"path":"scale"
					}
				},
				{
					"sampler":6,
					"target":{
						"node":8,
						"path":"translation"
					}
				},
				{
					"sampler":7,
					"target":{
						"node":8,
						"path":"rotation"
					}
				},
				{
					"sampler":8,
					"target":{
						"node":8,
						"path":"scale"
					}
				},
				{
					"sampler":9,
					"target":{
						"node":1,
						"path":"translation"
					}
				},
				{
					"sampler":10,
					"target":{
						"node":1,
						"path":"rotation"
					}
				},
				{
					"sampler":11,
					"target":{
						"node":1,
						"path":"scale"
					}
				},
				{
					"sampler":12,
					"target":{
						"node":0,
						"path":"translation"
					}
				},
				{
					"sampler":13,
					"target":{
						"node":0,
						"path":"rotation"
					}
				},
				{
					"sampler":14,
					"target":{
						"node":0,
						"path":"scale"
					}
				},
				{
					"sampler":15,
					"target":{
						"node":4,
						"path":"translation"
					}
				},
				{
					"sampler":16,
					"target":{
						"node":4,
						"path":"rotation"
					}
				},
				{
					"sampler":17,
					"target":{
						"node":4,
						"path":"scale"
					}
				},
				{
					"sampler":18,
					"target":{
						"node":3,
						"path":"translation"
					}
				},
				{
					"sampler":19,
					"target":{
						"node":3,
						"path":"rotation"
					}
				},
				{
					"sampler":20,
					"target":{
						"node":3,
						"path":"scale"
					}
				},
				{
					"sampler":21,
					"target":{
						"node":2,
						"path":"translation"
					}
				},
				{
					"sampler":22,
					"target":{
						"node":2,
						"path":"rotation"
					}
				},
				{
					"sampler":23,
					"target":{
						"node":2,
						"path":"scale"
					}
				},
				{
					"sampler":24,
					"target":{
						"node":7,
						"path":"translation"
					}
				},
				{
					"sampler":25,
					"target":{
						"node":7,
						"path":"rotation"
					}
				},
				{
					"sampler":26,
					"target":{
						"node":7,
						"path":"scale"
					}
				},
				{
					"sampler":27,
					"target":{
						"node":6,
						"path":"translation"
					}
				},
				{
					"sampler":28,
					"target":{
						"node":6,
						"path":"rotation"
					}
				},
				{
					"sampler":29,
					"target":{
						"node":6,
						"path":"scale"
					}
				},
				{
					"sampler":30,
					"target":{
						"node":5,
						"path":"translation"
					}
				},
				{
					"sampler":31,
					"target":{
						"node":5,
						"path":"rotation"
					}
				},
				{
					"sampler":32,
					"target":{
						"node":5,
						"path":"scale"
					}
				},
				{
					"sampler":33,
					"target":{
						"node":12,
						"path":"translation"
					}
				},
				{
					"sampler":34,
					"target":{
						"node":12,
						"path":"rotation"
					}
				},
				{
					"sampler":35,
					"target":{
						"node":12,
						"path":"scale"
					}
				},
				{
					"sampler":36,
					"target":{
						"node":11,
						"path":"translation"
					}
				},
				{
					"sampler":37,
					"target":{
						"node":11,
						"path":"rotation"
					}
				},
				{
					"sampler":38,
					"target":{
						"node":11,
						"path":"scale"
					}
				},
				{
					"sampler":39,
					"target":{
						"node":10,
						"path":"translation"
					}
				},
				{
					"sampler":40,
					"target":{
						"node":10,
						"path":"rotation"
					}
				},
				{
					"sampler":41,
					"target":{
						"node":10,
						"path":"scale"
					}
				},
				{
					"sampler":42,
					"target":{
						"node":15,
						"path":"translation"
					}
				},
				{
					"sampler":43,
					"target":{
						"node":15,
						"path":"rotation"
					}
				},
				{
					"sampler":44,
					"target":{
						"node":15,
						"path":"scale"
					}
				},
				{
					"sampler":45,
					"target":{
						"node":14,
						"path":"translation"
					}
				},
				{
					"sampler":46,
					"target":{
						"node":14,
						"path":"rotation"
					}
				},
				{
					"sampler":47,
					"target":{
						"node":14,
						"path":"scale"
					}
				},
				{
					"sampler":48,
					"target":{
						"node":13,
						"path":"translation"
					}
				},
				{
					"sampler":49,
					"target":{
						"node":13,
						"path":"rotation"
					}
				},
				{
					"sampler":50,
					"target":{
						"node":13,
						"path":"scale"
					}
				}
			],
			"name":"idle",
			"samplers":[
				{
					"input":137,
					"interpolation":"LINEAR",
					"output":138
				},
				{
					"input":139,
					"interpolation":"STEP",
					"output":140
				},
				{
					"input":139,
					"interpolation":"STEP",
					"output":141
				},
				{
					"input":139,
					"interpolation":"STEP",
					"output":142
				},
				{
					"input":139,
					"interpolation":"STEP",
					"output":143
				},
				{
					"input":139,
					"interpolation":"STEP",
					"output":144
				},
				{
					"input":139,
					"interpolation":"STEP",
					"output":145
				},
				{
					"input":137,
					"interpolation":"LINEAR",
					"output":146
				},
				{
					"input":139,
					"interpolation":"STEP",
					"output":147
				},
				{
					"input":139,
					"interpolation":"STEP",
					"output":148
				},
				{
					"input":139,
					"interpolation":"STEP",
					"output":149
				},
				{
					"input":139,
					"interpolation":"STEP",
					"output":150
				},
				{
					"input":139,
					"interpolation":"STEP",
					"output":151
				},
				{
					"input":137,
					"interpolation":"LINEAR",
					"output":152
				},
				{
					"input":139,
					"interpolation":"STEP",
					"output":153
				},
				{
					"input":139,
					"interpolation":"STEP",
					"output":154
				},
				{
					"input":137,
					"interpolation":"LINEAR",
					"output":155
				},
				{
					"input":139,
					"interpolation":"STEP",
					"output":156
				},
				{
					"input":139,
					"interpolation":"STEP",
					"output":157
				},
				{
					"input":139,
					"interpolation":"STEP",
					"output":158
				},
				{
					"input":139,
					"interpolation":"STEP",
					"output":159
				},
				{
					"input":139,
					"interpolation":"STEP",
					"output":160
				},
				{
					"input":139,
					"interpolation":"STEP",
					"output":161
				},
				{
					"input":139,
					"interpolation":"STEP",
					"output":162
				},
				{
					"input":139,
					"interpolation":"STEP",
					"output":163
				},
				{
					"input":137,
					"interpolation":"LINEAR",
					"output":164
				},
				{
					"input":139,
					"interpolation":"STEP",
					"output":165
				},
				{
					"input":139,
					"interpolation":"STEP",
					"output":166
				},
				{
					"input":139,
					"interpolation":"STEP",
					"output":167
				},
				{
					"input":139,
					"interpolation":"STEP",
					"output":168
				},
				{
					"input":139,
					"interpolation":"STEP",
					"output":169
				},
				{
					"input":139,
					"interpolation":"STEP",
					"output":170
				},
				{
					"input":139,
					"interpolation":"STEP",
					"output":171
				},
				{
					"input":139,
					"interpolation":"STEP",
					"output":172
				},
				{
					"input":139,
					"interpolation":"STEP",
					"output":173
				},
				{
					"input":139,
					"interpolation":"STEP",
					"output":174
				},
				{
					"input":139,
					"interpolation":"STEP",
					"output":175
				},
				{
					"input":139,
					"interpolation":"STEP",
					"output":176
				},
				{
					"input":139,
					"interpolation":"STEP",
					"output":177
				},
				{
					"input":139,
					"interpolation":"STEP",
					"output":178
				},
				{
					"input":139,
					"interpolation":"STEP",
					"output":179
				},
				{
					"input":139,
					"interpolation":"STEP",
					"output":180
				},
				{
					"input":139,
					"interpolation":"STEP",
					"output":181
				},
				{
					"input":139,
					"interpolation":"STEP",
					"output":182
				},
				{
					"input":139,
					"interpolation":"STEP",
					"output":183
				},
				{
					"input":139,
					"interpolation":"STEP",
					"output":184
				},
				{
					"input":139,
					"interpolation":"STEP",
					"output":185
				},
				{
					"input":139,
					"interpolation":"STEP",
					"output":186
				},
				{
					"input":139,
					"interpolation":"STEP",
					"output":187
				},
				{
					"input":139,
					"interpolation":"STEP",
					"output":188
				},
				{
					"input":139,
					"interpolation":"STEP",
					"output":189
				}
			]
		},
		{
			"channels":[
				{
					"sampler":0,
					"target":{
						"node":16,
						"path":"translation"
					}
				},
				{
					"sampler":1,
					"target":{
						"node":16,
						"path":"rotation"
					}
				},
				{
					"sampler":2,
					"target":{
						"node":16,
						"path":"scale"
					}
				},
				{
					"sampler":3,
					"target":{
						"node":9,
						"path":"translation"
					}
				},
				{
					"sampler":4,
					"target":{
						"node":9,
						"path":"rotation"
					}
				},
				{
					"sampler":5,
					"target":{
						"node":9,
						"path":"scale"
					}
				},
				{
					"sampler":6,
					"target":{
						"node":8,
						"path":"translation"
					}
				},
				{
					"sampler":7,
					"target":{
						"node":8,
						"path":"rotation"
					}
				},
				{
					"sampler":8,
					"target":{
						"node":8,
						"path":"scale"
					}
				},
				{
					"sampler":9,
					"target":{
						"node":1,
						"path":"translation"
					}
				},
				{
					"sampler":10,
					"target":{
						"node":1,
						"path":"rotation"
					}
				},
				{
					"sampler":11,
					"target":{
						"node":1,
						"path":"scale"
					}
				},
				{
					"sampler":12,
					"target":{
						"node":0,
						"path":"translation"
					}
				},
				{
					"sampler":13,
					"target":{
						"node":0,
						"path":"rotation"
					}
				},
				{
					"sampler":14,
					"target":{
						"node":0,
						"path":"scale"
					}
				},
				{
					"sampler":15,
					"target":{
						"node":4,
						"path":"translation"
					}
				},
				{
					"sampler":16,
					"target":{
						"node":4,
						"path":"rotation"
					}
				},
				{
					"sampler":17,
					"target":{
						"node":4,
						"path":"scale"
					}
				},
				{
					"sampler":18,
					"target":{
						"node":3,
						"path":"translation"
					}
				},
				{
					"sampler":19,
					"target":{
						"node":3,
						"path":"rotation"
					}
				},
				{
					"sampler":20,
					"target":{
						"node":3,
						"path":"scale"
					}
				},
				{
					"sampler":21,
					"target":{
						"node":2,
						"path":"translation"
					}
				},
				{
					"sampler":22,
					"target":{
						"node":2,
						"path":"rotation"
					}
				},
				{
					"sampler":23,
					"target":{
						"node":2,
						"path":"scale"
					}
				},
				{
					"sampler":24,
					"target":{
						"node":7,
						"path":"translation"
					}
				},
				{
					"sampler":25,
					"target":{
						"node":7,
						"path":"rotation"
					}
				},
				{
					"sampler":26,
					"target":{
						"node":7,
						"path":"scale"
					}
				},
				{
					"sampler":27,
					"target":{
						"node":6,
						"path":"translation"
					}
				},
				{
					"sampler":28,
					"target":{
						"node":6,
						"path":"rotation"
					}
				},
				{
					"sampler":29,
					"target":{
						"node":6,
						"path":"scale"
					}
				},
				{
					"sampler":30,
					"target":{
						"node":5,
						"path":"translation"
					}
				},
				{
					"sampler":31,
					"target":{
						"node":5,
						"path":"rotation"
					}
				},
				{
					"sampler":32,
					"target":{
						"node":5,
						"path":"scale"
					}
				},
				{
					"sampler":33,
					"target":{
						"node":12,
						"path":"translation"
					}
				},
				{
					"sampler":34,
					"target":{
						"node":12,
						"path":"rotation"
					}
				},
				{
					"sampler":35,
					"target":{
						"node":12,
						"path":"scale"
					}
				},
				{
					"sampler":36,
					"target":{
						"node":11,
						"path":"translation"
					}
				},
				{
					"sampler":37,
					"target":{
						"node":11,
						"path":"rotation"
					}
				},
				{
					"sampler":38,
					"target":{
						"node":11,
						"path":"scale"
					}
				},
				{
					"sampler":39,
					"target":{
						"node":10,
						"path":"translation"
					}
				},
				{
					"sampler":40,
					"target":{
						"node":10,
						"path":"rotation"
					}
				},
				{
					"sampler":41,
					"target":{
						"node":10,
						"path":"scale"
					}
				},
				{
					"sampler":42,
					"target":{
						"node":15,
						"path":"translation"
					}
				},
				{
					"sampler":43,
					"target":{
						"node":15,
						"path":"rotation"
					}
				},
				{
					"sampler":44,
					"target":{
						"node":15,
						"path":"scale"
					}
				},
				{
					"sampler":45,
					"target":{
						"node":14,
						"path":"translation"
					}
				},
				{
					"sampler":46,
					"target":{
						"node":14,
						"path":"rotation"
					}
				},
				{
					"sampler":47,
					"target":{
						"node":14,
						"path":"scale"
					}
				},
				{
					"sampler":48,
					"target":{
						"node":13,
						"path":"translation"
					}
				},
				{
					"sampler":49,
					"target":{
						"node":13,
						"path":"rotation"
					}
				},
				{
					"sampler":50,
					"target":{
						"node":13,
						"path":"scale"
					}
				}
			],
			"name":"walk",
			"samplers":[
				{
					"input":190,
					"interpolation":"LINEAR",
					"output":191
				},
				{
					"input":190,
					"interpolation":"LINEAR",
					"output":192
				},
				{
					"input":193,
					"interpolation":"STEP",
					"output":194
				},
				{
					"input":193,
					"interpolation":"STEP",
					"output":195
				},
				{
					"input":193,
					"interpolation":"STEP",
					"output":196
				},
				{
					"input":193,
					"interpolation":"STEP",
					"output":197
				},
				{
					"input":193,
					"interpolation":"STEP",
					"output":198
				},
				{
					"input":190,
					"interpolation":"LINEAR",
					"output":199
				},
				{
					"input":193,
					"interpolation":"STEP",
					"output":200
				},
				{
					"input":193,
					"interpolation":"STEP",
					"output":201
				},
				{
					"input":193,
					"interpolation":"STEP",
					"output":202
				},
				{
					"input":193,
					"interpolation":"STEP",
					"output":203
				},
				{
					"input":193,
					"interpolation":"STEP",
					"output":204
				},
				{
					"input":193,
					"interpolation":"STEP",
					"output":205
				},
				{
					"input":193,
					"interpolation":"STEP",
					"output":206
				},
				{
					"input":193,
					"interpolation":"STEP",
					"output":207
				},
				{
					"input":190,
					"interpolation":"LINEAR",
					"output":208
				},
				{
					"input":193,
					"interpolation":"STEP",
					"output":209
				},
				{
					"input":193,
					"interpolation":"STEP",
					"output":210
				},
				{
					"input":193,
					"interpolation":"STEP",
					"output":211
				},
				{
					"input":193,
					"interpolation":"STEP",
					"output":212
				},
				{
					"input":193,
					"interpolation":"STEP",
					"output":213
				},
				{
					"input":193,
					"interpolation":"STEP",
					"output":214
				},
				{
					"input":193,
					"interpolation":"STEP",
					"output":215
				},
				{
					"input":193,
					"interpolation":"STEP",
					"output":216
				},
				{
					"input":190,
					"interpolation":"LINEAR",
					"output":217
				},
				{
					"input":193,
					"interpolation":"STEP",
					"output":218
				},
				{
					"input":193,
					"interpolation":"STEP",
					"output":219
				},
				{
					"input":193,
					"interpolation":"STEP",
					"output":220
				},
				{
					"input":193,
					"interpolation":"STEP",
					"output":221
				},
				{
					"input":193,
					"interpolation":"STEP",
					"output":222
				},
				{
					"input":193,
					"interpolation":"STEP",
					"output":223
				},
				{
					"input":193,
					"interpolation":"STEP",
					"output":224
				},
				{
					"input":193,
					"interpolation":"STEP",
					"output":225
				},
				{
					"input":190,
					"interpolation":"LINEAR",
					"output":226
				},
				{
					"input":193,
					"interpolation":"STEP",
					"output":227
				},
				{
					"input":193,
					"interpolation":"STEP",
					"output":228
				},
				{
					"input":190,
					"interpolation":"LINEAR",
					"output":229
				},
				{
					"input":193,
					"interpolation":"STEP",
					"output":230
				},
				{
					"input":193,
					"interpolation":"STEP",
					"output":231
				},
				{
					"input":190,
					"interpolation":"LINEAR",
					"output":232
				},
				{
					"input":193,
					"interpolation":"STEP",
					"output":233
				},
				{
					"input":193,
					"interpolation":"STEP",
					"output":234
				},
				{
					"input":190,
					"interpolation":"LINEAR",
					"output":235
				},
				{
					"input":193,
					"interpolation":"STEP",
					"output":236
				},
				{
					"input":193,
					"interpolation":"STEP",
					"output":237
				},
				{
					"input":190,
					"interpolation":"LINEAR",
					"output":238
				},
				{
					"input":193,
					"interpolation":"STEP",
					"output":239
				},
				{
					"input":193,
					"interpolation":"STEP",
					"output":240
				},
				{
					"input":190,
					"interpolation":"LINEAR",
					"output":241
				},
				{
					"input":193,
					"interpolation":"STEP",
					"output":242
				}
			]
		}
	],
	"materials":[
		{
			"name":"skin",
			"normalTexture":{
				"index":0,
				"scale":0.4000000059604645
			},
			"pbrMetallicRoughness":{
				"baseColorFactor":[
					0.6920710802078247,
					0.4479884207248688,
					0.31854677200317383,
					1
				],
				"metallicFactor":0,
				"roughnessFactor":0.550000011920929
			}
		},
		{
			"extensions":{
				"KHR_materials_sheen":{
					"sheenColorFactor":[
						1.0,
						1.0,
						1.0
					],
					"sheenRoughnessFactor":0.5
				}
			},
			"name":"hair",
			"normalTexture":{
				"index":1,
				"scale":0.800000011920929
			},
			"pbrMetallicRoughness":{
				"baseColorFactor":[
					0.01960664801299572,
					0.01960664801299572,
					0.01960664801299572,
					1
				],
				"metallicFactor":0,
				"roughnessFactor":0.44999998807907104
			}
		},
		{
			"extensions":{
				"KHR_materials_sheen":{
					"sheenColorFactor":[
						1.0,
						1.0,
						1.0
					],
					"sheenRoughnessFactor":0.5
				}
			},
			"name":"outfit",
			"normalTexture":{
				"index":2,
				"scale":0.6000000238418579
			},
			"pbrMetallicRoughness":{
				"baseColorFactor":[
					0.13286831974983215,
					0.07323895394802094,
					0.03310476616024971,
					1
				],
				"metallicFactor":0,
				"roughnessFactor":0.75
			}
		},
		{
			"name":"outfit2",
			"normalTexture":{
				"index":3,
				"scale":0.4000000059604645
			},
			"pbrMetallicRoughness":{
				"baseColorFactor":[
					0.03310476616024971,
					0.03310476616024971,
					0.03310476616024971,
					1
				],
				"metallicFactor":0,
				"roughnessFactor":0.6000000238418579
			}
		},
		{
			"name":"pants",
			"normalTexture":{
				"index":4,
				"scale":0.6000000238418579
			},
			"pbrMetallicRoughness":{
				"baseColorFactor":[
					0.06372379511594772,
					0.036306485533714294,
					0.017389101907610893,
					1
				],
				"metallicFactor":0,
				"roughnessFactor":0.800000011920929
			}
		},
		{
			"extensions":{
				"KHR_materials_clearcoat":{
					"clearcoatFactor":0.30000001192092896
				}
			},
			"name":"boots",
			"normalTexture":{
				"index":5,
				"scale":0.800000011920929
			},
			"pbrMetallicRoughness":{
				"baseColorFactor":[
					0.0134117491543293,
					0.010022825561463833,
					0.010022825561463833,
					1
				],
				"metallicFactor":0,
				"roughnessFactor":0.44999998807907104
			}
		},
		{
			"name":"eye_white",
			"pbrMetallicRoughness":{
				"baseColorFactor":[
					0.8900054097175598,
					0.8900054097175598,
					0.8900054097175598,
					1
				],
				"metallicFactor":0,
				"roughnessFactor":0.20000000298023224
			}
		},
		{
			"emissiveFactor":[
				0.011763989275256348,
				0.011763989275256348,
				0.019862860485428957
			],
			"name":"iris",
			"pbrMetallicRoughness":{
				"baseColorFactor":[
					0.01960664801299572,
					0.01960664801299572,
					0.03310476616024971,
					1
				],
				"metallicFactor":0,
				"roughnessFactor":0.15000000596046448
			}
		},
		{
			"name":"pupil",
			"pbrMetallicRoughness":{
				"baseColorFactor":[
					0.0015479875728487968,
					0.0015479875728487968,
					0.0023219813592731953,
					1
				],
				"metallicFactor":0,
				"roughnessFactor":0.10000000149011612
			}
		},
		{
			"name":"lips",
			"pbrMetallicRoughness":{
				"baseColorFactor":[
					0.3127419650554657,
					0.2049017697572708,
					0.1473190039396286,
					1
				],
				"metallicFactor":0,
				"roughnessFactor":0.4000000059604645
			}
		},
		{
			"extensions":{
				"KHR_materials_clearcoat":{
					"clearcoatFactor":0.5
				}
			},
			"name":"horn",
			"pbrMetallicRoughness":{
				"baseColorFactor":[
					0.010022825561463833,
					0.010022825561463833,
					0.0134117491543293,
					1
				],
				"metallicFactor":0,
				"roughnessFactor":0.30000001192092896
			}
		},
		{
			"name":"buckle",
			"pbrMetallicRoughness":{
				"baseColorFactor":[
					0.6920710802078247,
					0.4479884207248688,
					0.07323895394802094,
					1
				],
				"metallicFactor":0.8999999761581421,
				"roughnessFactor":0.30000001192092896
			}
		},
		{
			"name":"blade",
			"normalTexture":{
				"index":6,
				"scale":0.30000001192092896
			},
			"pbrMetallicRoughness":{
				"baseColorFactor":[
					0.7484140992164612,
					0.7874122858047485,
					0.8900054097175598,
					1
				],
				"metallicFactor":0.550000011920929,
				"roughnessFactor":0.2199999988079071
			}
		},
		{
			"name":"handle",
			"normalTexture":{
				"index":7,
				"scale":0.6000000238418579
			},
			"pbrMetallicRoughness":{
				"baseColorFactor":[
					0.0134117491543293,
					0.007194409146904945,
					0.004896310158073902,
					1
				],
				"metallicFactor":0,
				"roughnessFactor":0.6000000238418579
			}
		}
	],
	"meshes":[
		{
			"name":"kurobe",
			"primitives":[
				{
					"attributes":{
						"POSITION":0,
						"NORMAL":1,
						"TEXCOORD_0":2,
						"JOINTS_0":3,
						"WEIGHTS_0":4
					},
					"indices":5,
					"material":0
				},
				{
					"attributes":{
						"POSITION":6,
						"NORMAL":7,
						"TEXCOORD_0":8,
						"JOINTS_0":9,
						"WEIGHTS_0":10
					},
					"indices":11,
					"material":1
				},
				{
					"attributes":{
						"POSITION":12,
						"NORMAL":13,
						"TEXCOORD_0":14,
						"JOINTS_0":15,
						"WEIGHTS_0":16
					},
					"indices":17,
					"material":2
				},
				{
					"attributes":{
						"POSITION":18,
						"NORMAL":19,
						"TEXCOORD_0":20,
						"JOINTS_0":21,
						"WEIGHTS_0":22
					},
					"indices":23,
					"material":3
				},
				{
					"attributes":{
						"POSITION":24,
						"NORMAL":25,
						"TEXCOORD_0":26,
						"JOINTS_0":27,
						"WEIGHTS_0":28
					},
					"indices":29,
					"material":4
				},
				{
					"attributes":{
						"POSITION":30,
						"NORMAL":31,
						"TEXCOORD_0":32,
						"JOINTS_0":33,
						"WEIGHTS_0":34
					},
					"indices":35,
					"material":5
				},
				{
					"attributes":{
						"POSITION":36,
						"NORMAL":37,
						"TEXCOORD_0":38,
						"JOINTS_0":39,
						"WEIGHTS_0":40
					},
					"indices":41,
					"material":6
				},
				{
					"attributes":{
						"POSITION":42,
						"NORMAL":43,
						"TEXCOORD_0":44,
						"JOINTS_0":45,
						"WEIGHTS_0":46
					},
					"indices":47,
					"material":7
				},
				{
					"attributes":{
						"POSITION":48,
						"NORMAL":49,
						"TEXCOORD_0":50,
						"JOINTS_0":51,
						"WEIGHTS_0":52
					},
					"indices":53,
					"material":8
				},
				{
					"attributes":{
						"POSITION":54,
						"NORMAL":55,
						"TEXCOORD_0":56,
						"JOINTS_0":57,
						"WEIGHTS_0":58
					},
					"indices":59,
					"material":9
				},
				{
					"attributes":{
						"POSITION":60,
						"NORMAL":61,
						"TEXCOORD_0":62,
						"JOINTS_0":63,
						"WEIGHTS_0":64
					},
					"indices":65,
					"material":10
				},
				{
					"attributes":{
						"POSITION":66,
						"NORMAL":67,
						"TEXCOORD_0":68,
						"JOINTS_0":69,
						"WEIGHTS_0":70
					},
					"indices":71,
					"material":11
				},
				{
					"attributes":{
						"POSITION":72,
						"NORMAL":73,
						"TEXCOORD_0":74,
						"JOINTS_0":75,
						"WEIGHTS_0":76
					},
					"indices":71,
					"material":12
				},
				{
					"attributes":{
						"POSITION":77,
						"NORMAL":78,
						"TEXCOORD_0":79,
						"JOINTS_0":80,
						"WEIGHTS_0":81
					},
					"indices":82,
					"material":13
				}
			]
		}
	],
	"textures":[
		{
			"sampler":0,
			"source":0
		},
		{
			"sampler":0,
			"source":1
		},
		{
			"sampler":0,
			"source":2
		},
		{
			"sampler":0,
			"source":2
		},
		{
			"sampler":0,
			"source":2
		},
		{
			"sampler":0,
			"source":3
		},
		{
			"sampler":0,
			"source":4
		},
		{
			"sampler":0,
			"source":3
		}
	],
	"images":[
		{
			"mimeType":"image/png",
			"name":"N_skin",
			"uri":"texturas/N_skin.png"
		},
		{
			"mimeType":"image/png",
			"name":"N_hair",
			"uri":"texturas/N_hair.png"
		},
		{
			"mimeType":"image/png",
			"name":"N_cloth",
			"uri":"texturas/N_cloth.png"
		},
		{
			"mimeType":"image/png",
			"name":"N_leather",
			"uri":"texturas/N_leather.png"
		},
		{
			"mimeType":"image/png",
			"name":"N_metal",
			"uri":"texturas/N_metal.png"
		}
	],
	"skins":[
		{
			"inverseBindMatrices":83,
			"joints":[
				16,
				9,
				8,
				1,
				0,
				4,
				3,
				2,
				7,
				6,
				5,
				12,
				11,
				10,
				15,
				14,
				13
			],
			"name":"kurobe_rig"
		}
	],
	"accessors":[
		{
			"bufferView":0,
			"componentType":5126,
			"count":2554,
			"max":[
				0.39705583453178406,
				1.7839999198913574,
				0.10721255838871002
			],
			"min":[
				-0.39705583453178406,
				0.7844679355621338,
				-0.1389845609664917
			],
			"type":"VEC3"
		},
		{
			"bufferView":1,
			"componentType":5126,
			"count":2554,
			"type":"VEC3"
		},
		{
			"bufferView":2,
			"componentType":5126,
			"count":2554,
			"type":"VEC2"
		},
		{
			"bufferView":3,
			"componentType":5121,
			"count":2554,
			"type":"VEC4"
		},
		{
			"bufferView":4,
			"componentType":5126,
			"count":2554,
			"type":"VEC4"
		},
		{
			"bufferView":5,
			"componentType":5123,
			"count":10848,
			"type":"SCALAR"
		},
		{
			"bufferView":6,
			"componentType":5126,
			"count":2717,
			"max":[
				0.12004613876342773,
				1.8106410503387451,
				0.13815712928771973
			],
			"min":[
				-0.1170777752995491,
				1.5389796495437622,
				-0.11799665540456772
			],
			"type":"VEC3"
		},
		{
			"bufferView":7,
			"componentType":5126,
			"count":2717,
			"type":"VEC3"
		},
		{
			"bufferView":8,
			"componentType":5126,
			"count":2717,
			"type":"VEC2"
		},
		{
			"bufferView":9,
			"componentType":5121,
			"count":2717,
			"type":"VEC4"
		},
		{
			"bufferView":10,
			"componentType":5126,
			"count":2717,
			"type":"VEC4"
		},
		{
			"bufferView":11,
			"componentType":5123,
			"count":8328,
			"type":"SCALAR"
		},
		{
			"bufferView":12,
			"componentType":5126,
			"count":383,
			"max":[
				0.34089046716690063,
				1.473606824874878,
				0.1556309163570404
			],
			"min":[
				-0.34089046716690063,
				0.9492620825767517,
				-0.1572582721710205
			],
			"type":"VEC3"
		},
		{
			"bufferView":13,
			"componentType":5126,
			"count":383,
			"type":"VEC3"
		},
		{
			"bufferView":14,
			"componentType":5126,
			"count":383,
			"type":"VEC2"
		},
		{
			"bufferView":15,
			"componentType":5121,
			"count":383,
			"type":"VEC4"
		},
		{
			"bufferView":16,
			"componentType":5126,
			"count":383,
			"type":"VEC4"
		},
		{
			"bufferView":17,
			"componentType":5123,
			"count":1440,
			"type":"SCALAR"
		},
		{
			"bufferView":18,
			"componentType":5126,
			"count":60,
			"max":[
				0.1733449250459671,
				1.0091466903686523,
				0.15932506322860718
			],
			"min":[
				-0.1733449250459671,
				0.8788831233978271,
				-0.16066715121269226
			],
			"type":"VEC3"
		},
		{
			"bufferView":19,
			"componentType":5126,
			"count":60,
			"type":"VEC3"
		},
		{
			"bufferView":20,
			"componentType":5126,
			"count":60,
			"type":"VEC2"
		},
		{
			"bufferView":21,
			"componentType":5121,
			"count":60,
			"type":"VEC4"
		},
		{
			"bufferView":22,
			"componentType":5126,
			"count":60,
			"type":"VEC4"
		},
		{
			"bufferView":23,
			"componentType":5123,
			"count":168,
			"type":"SCALAR"
		},
		{
			"bufferView":24,
			"componentType":5126,
			"count":664,
			"max":[
				0.39205464720726013,
				0.9492621421813965,
				0.1570744663476944
			],
			"min":[
				-0.39205464720726013,
				0.292599618434906,
				-0.15869824588298798
			],
			"type":"VEC3"
		},
		{
			"bufferView":25,
			"componentType":5126,
			"count":664,
			"type":"VEC3"
		},
		{
			"bufferView":26,
			"componentType":5126,
			"count":664,
			"type":"VEC2"
		},
		{
			"bufferView":27,
			"componentType":5121,
			"count":664,
			"type":"VEC4"
		},
		{
			"bufferView":28,
			"componentType":5126,
			"count":664,
			"type":"VEC4"
		},
		{
			"bufferView":29,
			"componentType":5123,
			"count":2808,
			"type":"SCALAR"
		},
		{
			"bufferView":30,
			"componentType":5126,
			"count":874,
			"max":[
				0.19931112229824066,
				0.2991553544998169,
				0.08549819886684418
			],
			"min":[
				-0.19931112229824066,
				0.0076013971120119095,
				-0.14011985063552856
			],
			"type":"VEC3"
		},
		{
			"bufferView":31,
			"componentType":5126,
			"count":874,
			"type":"VEC3"
		},
		{
			"bufferView":32,
			"componentType":5126,
			"count":874,
			"type":"VEC2"
		},
		{
			"bufferView":33,
			"componentType":5121,
			"count":874,
			"type":"VEC4"
		},
		{
			"bufferView":34,
			"componentType":5126,
			"count":874,
			"type":"VEC4"
		},
		{
			"bufferView":35,
			"componentType":5123,
			"count":3840,
			"type":"SCALAR"
		},
		{
			"bufferView":36,
			"componentType":5126,
			"count":304,
			"max":[
				0.050999999046325684,
				1.6864999532699585,
				-0.07000000029802322
			],
			"min":[
				-0.050999999046325684,
				1.6634999513626099,
				-0.08799999952316284
			],
			"type":"VEC3"
		},
		{
			"bufferView":37,
			"componentType":5126,
			"count":304,
			"type":"VEC3"
		},
		{
			"bufferView":38,
			"componentType":5126,
			"count":304,
			"type":"VEC2"
		},
		{
			"bufferView":39,
			"componentType":5121,
			"count":304,
			"type":"VEC4"
		},
		{
			"bufferView":40,
			"componentType":5126,
			"count":304,
			"type":"VEC4"
		},
		{
			"bufferView":41,
			"componentType":5123,
			"count":1152,
			"type":"SCALAR"
		},
		{
			"bufferView":42,
			"componentType":5126,
			"count":220,
			"max":[
				0.04349999874830246,
				1.6848000288009644,
				-0.08122024685144424
			],
			"min":[
				-0.04349999874830246,
				1.6651999950408936,
				-0.08977975696325302
			],
			"type":"VEC3"
		},
		{
			"bufferView":43,
			"componentType":5126,
			"count":220,
			"type":"VEC3"
		},
		{
			"bufferView":44,
			"componentType":5126,
			"count":220,
			"type":"VEC2"
		},
		{
			"bufferView":45,
			"componentType":5121,
			"count":220,
			"type":"VEC4"
		},
		{
			"bufferView":46,
			"componentType":5126,
			"count":220,
			"type":"VEC4"
		},
		{
			"bufferView":47,
			"componentType":5123,
			"count":720,
			"type":"SCALAR"
		},
		{
			"bufferView":48,
			"componentType":5126,
			"count":160,
			"max":[
				0.03799443691968918,
				1.6794999837875366,
				-0.08689788728952408
			],
			"min":[
				-0.03799443691968918,
				1.6705000400543213,
				-0.0907021164894104
			],
			"type":"VEC3"
		},
		{
			"bufferView":49,
			"componentType":5126,
			"count":160,
			"type":"VEC3"
		},
		{
			"bufferView":50,
			"componentType":5126,
			"count":160,
			"type":"VEC2"
		},
		{
			"bufferView":51,
			"componentType":5121,
			"count":160,
			"type":"VEC4"
		},
		{
			"bufferView":52,
			"componentType":5126,
			"count":160,
			"type":"VEC4"
		},
		{
			"bufferView":53,
			"componentType":5123,
			"count":480,
			"type":"SCALAR"
		},
		{
			"bufferView":54,
			"componentType":5126,
			"count":98,
			"max":[
				0.01899999938905239,
				1.6074999570846558,
				-0.07772024720907211
			],
			"min":[
				-0.01899999938905239,
				1.5985000133514404,
				-0.08627975732088089
			],
			"type":"VEC3"
		},
		{
			"bufferView":55,
			"componentType":5126,
			"count":98,
			"type":"VEC3"
		},
		{
			"bufferView":56,
			"componentType":5126,
			"count":98,
			"type":"VEC2"
		},
		{
			"bufferView":57,
			"componentType":5121,
			"count":98,
			"type":"VEC4"
		},
		{
			"bufferView":58,
			"componentType":5126,
			"count":98,
			"type":"VEC4"
		},
		{
			"bufferView":59,
			"componentType":5123,
			"count":360,
			"type":"SCALAR"
		},
		{
			"bufferView":60,
			"componentType":5126,
			"count":180,
			"max":[
				0.06406083703041077,
				1.8685123920440674,
				-0.033637478947639465
			],
			"min":[
				-0.06406083703041077,
				1.7661877870559692,
				-0.0715380311012268
			],
			"type":"VEC3"
		},
		{
			"bufferView":61,
			"componentType":5126,
			"count":180,
			"type":"VEC3"
		},
		{
			"bufferView":62,
			"componentType":5126,
			"count":180,
			"type":"VEC2"
		},
		{
			"bufferView":63,
			"componentType":5121,
			"count":180,
			"type":"VEC4"
		},
		{
			"bufferView":64,
			"componentType":5126,
			"count":180,
			"type":"VEC4"
		},
		{
			"bufferView":65,
			"componentType":5123,
			"count":576,
			"type":"SCALAR"
		},
		{
			"bufferView":66,
			"componentType":5126,
			"count":24,
			"max":[
				0.02500000037252903,
				0.9700000286102295,
				-0.11774999648332596
			],
			"min":[
				-0.02500000037252903,
				0.9300000071525574,
				-0.12974999845027924
			],
			"type":"VEC3"
		},
		{
			"bufferView":67,
			"componentType":5126,
			"count":24,
			"type":"VEC3"
		},
		{
			"bufferView":68,
			"componentType":5126,
			"count":24,
			"type":"VEC2"
		},
		{
			"bufferView":69,
			"componentType":5121,
			"count":24,
			"type":"VEC4"
		},
		{
			"bufferView":70,
			"componentType":5126,
			"count":24,
			"type":"VEC4"
		},
		{
			"bufferView":71,
			"componentType":5123,
			"count":36,
			"type":"SCALAR"
		},
		{
			"bufferView":72,
			"componentType":5126,
			"count":24,
			"max":[
				0.42100000381469727,
				1.4499999284744263,
				0.0949999988079071
			],
			"min":[
				0.32099997997283936,
				1.350000023841858,
				-0.14499999582767487
			],
			"type":"VEC3"
		},
		{
			"bufferView":73,
			"componentType":5126,
			"count":24,
			"type":"VEC3"
		},
		{
			"bufferView":74,
			"componentType":5126,
			"count":24,
			"type":"VEC2"
		},
		{
			"bufferView":75,
			"componentType":5121,
			"count":24,
			"type":"VEC4"
		},
		{
			"bufferView":76,
			"componentType":5126,
			"count":24,
			"type":"VEC4"
		},
		{
			"bufferView":77,
			"componentType":5126,
			"count":42,
			"max":[
				0.38599997758865356,
				1.3499999046325684,
				-0.009999998845160007
			],
			"min":[
				0.35600000619888306,
				0.6999999284744263,
				-0.03999999910593033
			],
			"type":"VEC3"
		},
		{
			"bufferView":78,
			"componentType":5126,
			"count":42,
			"type":"VEC3"
		},
		{
			"bufferView":79,
			"componentType":5126,
			"count":42,
			"type":"VEC2"
		},
		{
			"bufferView":80,
			"componentType":5121,
			"count":42,
			"type":"VEC4"
		},
		{
			"bufferView":81,
			"componentType":5126,
			"count":42,
			"type":"VEC4"
		},
		{
			"bufferView":82,
			"componentType":5123,
			"count":96,
			"type":"SCALAR"
		},
		{
			"bufferView":83,
			"componentType":5126,
			"count":17,
			"type":"MAT4"
		},
		{
			"bufferView":84,
			"componentType":5126,
			"count":2,
			"max":[
				0.6
			],
			"min":[
				0
			],
			"type":"SCALAR"
		},
		{
			"bufferView":85,
			"componentType":5126,
			"count":2,
			"type":"VEC3"
		},
		{
			"bufferView":86,
			"componentType":5126,
			"count":2,
			"type":"VEC4"
		},
		{
			"bufferView":87,
			"componentType":5126,
			"count":2,
			"type":"VEC3"
		},
		{
			"bufferView":88,
			"componentType":5126,
			"count":2,
			"type":"VEC3"
		},
		{
			"bufferView":89,
			"componentType":5126,
			"count":2,
			"type":"VEC4"
		},
		{
			"bufferView":90,
			"componentType":5126,
			"count":2,
			"type":"VEC3"
		},
		{
			"bufferView":91,
			"componentType":5126,
			"count":2,
			"type":"VEC3"
		},
		{
			"bufferView":92,
			"componentType":5126,
			"count":19,
			"max":[
				0.6
			],
			"min":[
				0
			],
			"type":"SCALAR"
		},
		{
			"bufferView":93,
			"componentType":5126,
			"count":19,
			"type":"VEC4"
		},
		{
			"bufferView":94,
			"componentType":5126,
			"count":2,
			"type":"VEC3"
		},
		{
			"bufferView":95,
			"componentType":5126,
			"count":2,
			"type":"VEC3"
		},
		{
			"bufferView":96,
			"componentType":5126,
			"count":2,
			"type":"VEC4"
		},
		{
			"bufferView":97,
			"componentType":5126,
			"count":2,
			"type":"VEC3"
		},
		{
			"bufferView":98,
			"componentType":5126,
			"count":2,
			"type":"VEC3"
		},
		{
			"bufferView":99,
			"componentType":5126,
			"count":2,
			"type":"VEC4"
		},
		{
			"bufferView":100,
			"componentType":5126,
			"count":2,
			"type":"VEC3"
		},
		{
			"bufferView":101,
			"componentType":5126,
			"count":2,
			"type":"VEC3"
		},
		{
			"bufferView":102,
			"componentType":5126,
			"count":19,
			"type":"VEC4"
		},
		{
			"bufferView":103,
			"componentType":5126,
			"count":2,
			"type":"VEC3"
		},
		{
			"bufferView":104,
			"componentType":5126,
			"count":2,
			"type":"VEC3"
		},
		{
			"bufferView":105,
			"componentType":5126,
			"count":19,
			"type":"VEC4"
		},
		{
			"bufferView":106,
			"componentType":5126,
			"count":2,
			"type":"VEC3"
		},
		{
			"bufferView":107,
			"componentType":5126,
			"count":2,
			"type":"VEC3"
		},
		{
			"bufferView":108,
			"componentType":5126,
			"count":2,
			"type":"VEC4"
		},
		{
			"bufferView":109,
			"componentType":5126,
			"count":2,
			"type":"VEC3"
		},
		{
			"bufferView":110,
			"componentType":5126,
			"count":2,
			"type":"VEC3"
		},
		{
			"bufferView":111,
			"componentType":5126,
			"count":19,
			"type":"VEC4"
		},
		{
			"bufferView":112,
			"componentType":5126,
			"count":2,
			"type":"VEC3"
		},
		{
			"bufferView":113,
			"componentType":5126,
			"count":2,
			"type":"VEC3"
		},
		{
			"bufferView":114,
			"componentType":5126,
			"count":2,
			"type":"VEC4"
		},
		{
			"bufferView":115,
			"componentType":5126,
			"count":2,
			"type":"VEC3"
		},
		{
			"bufferView":116,
			"componentType":5126,
			"count":2,
			"type":"VEC3"
		},
		{
			"bufferView":117,
			"componentType":5126,
			"count":2,
			"type":"VEC4"
		},
		{
			"bufferView":118,
			"componentType":5126,
			"count":2,
			"type":"VEC3"
		},
		{
			"bufferView":119,
			"componentType":5126,
			"count":2,
			"type":"VEC3"
		},
		{
			"bufferView":120,
			"componentType":5126,
			"count":19,
			"type":"VEC4"
		},
		{
			"bufferView":121,
			"componentType":5126,
			"count":2,
			"type":"VEC3"
		},
		{
			"bufferView":122,
			"componentType":5126,
			"count":2,
			"type":"VEC3"
		},
		{
			"bufferView":123,
			"componentType":5126,
			"count":2,
			"type":"VEC4"
		},
		{
			"bufferView":124,
			"componentType":5126,
			"count":2,
			"type":"VEC3"
		},
		{
			"bufferView":125,
			"componentType":5126,
			"count":2,
			"type":"VEC3"
		},
		{
			"bufferView":126,
			"componentType":5126,
			"count":2,
			"type":"VEC4"
		},
		{
			"bufferView":127,
			"componentType":5126,
			"count":2,
			"type":"VEC3"
		},
		{
			"bufferView":128,
			"componentType":5126,
			"count":2,
			"type":"VEC3"
		},
		{
			"bufferView":129,
			"componentType":5126,
			"count":19,
			"type":"VEC4"
		},
		{
			"bufferView":130,
			"componentType":5126,
			"count":2,
			"type":"VEC3"
		},
		{
			"bufferView":131,
			"componentType":5126,
			"count":2,
			"type":"VEC3"
		},
		{
			"bufferView":132,
			"componentType":5126,
			"count":2,
			"type":"VEC4"
		},
		{
			"bufferView":133,
			"componentType":5126,
			"count":2,
			"type":"VEC3"
		},
		{
			"bufferView":134,
			"componentType":5126,
			"count":2,
			"type":"VEC3"
		},
		{
			"bufferView":135,
			"componentType":5126,
			"count":2,
			"type":"VEC4"
		},
		{
			"bufferView":136,
			"componentType":5126,
			"count":2,
			"type":"VEC3"
		},
		{
			"bufferView":137,
			"componentType":5126,
			"count":61,
			"max":[
				2
			],
			"min":[
				0
			],
			"type":"SCALAR"
		},
		{
			"bufferView":138,
			"componentType":5126,
			"count":61,
			"type":"VEC3"
		},
		{
			"bufferView":139,
			"componentType":5126,
			"count":2,
			"max":[
				2
			],
			"min":[
				0
			],
			"type":"SCALAR"
		},
		{
			"bufferView":140,
			"componentType":5126,
			"count":2,
			"type":"VEC4"
		},
		{
			"bufferView":141,
			"componentType":5126,
			"count":2,
			"type":"VEC3"
		},
		{
			"bufferView":142,
			"componentType":5126,
			"count":2,
			"type":"VEC3"
		},
		{
			"bufferView":143,
			"componentType":5126,
			"count":2,
			"type":"VEC4"
		},
		{
			"bufferView":144,
			"componentType":5126,
			"count":2,
			"type":"VEC3"
		},
		{
			"bufferView":145,
			"componentType":5126,
			"count":2,
			"type":"VEC3"
		},
		{
			"bufferView":146,
			"componentType":5126,
			"count":61,
			"type":"VEC4"
		},
		{
			"bufferView":147,
			"componentType":5126,
			"count":2,
			"type":"VEC3"
		},
		{
			"bufferView":148,
			"componentType":5126,
			"count":2,
			"type":"VEC3"
		},
		{
			"bufferView":149,
			"componentType":5126,
			"count":2,
			"type":"VEC4"
		},
		{
			"bufferView":150,
			"componentType":5126,
			"count":2,
			"type":"VEC3"
		},
		{
			"bufferView":151,
			"componentType":5126,
			"count":2,
			"type":"VEC3"
		},
		{
			"bufferView":152,
			"componentType":5126,
			"count":61,
			"type":"VEC4"
		},
		{
			"bufferView":153,
			"componentType":5126,
			"count":2,
			"type":"VEC3"
		},
		{
			"bufferView":154,
			"componentType":5126,
			"count":2,
			"type":"VEC3"
		},
		{
			"bufferView":155,
			"componentType":5126,
			"count":61,
			"type":"VEC4"
		},
		{
			"bufferView":156,
			"componentType":5126,
			"count":2,
			"type":"VEC3"
		},
		{
			"bufferView":157,
			"componentType":5126,
			"count":2,
			"type":"VEC3"
		},
		{
			"bufferView":158,
			"componentType":5126,
			"count":2,
			"type":"VEC4"
		},
		{
			"bufferView":159,
			"componentType":5126,
			"count":2,
			"type":"VEC3"
		},
		{
			"bufferView":160,
			"componentType":5126,
			"count":2,
			"type":"VEC3"
		},
		{
			"bufferView":161,
			"componentType":5126,
			"count":2,
			"type":"VEC4"
		},
		{
			"bufferView":162,
			"componentType":5126,
			"count":2,
			"type":"VEC3"
		},
		{
			"bufferView":163,
			"componentType":5126,
			"count":2,
			"type":"VEC3"
		},
		{
			"bufferView":164,
			"componentType":5126,
			"count":61,
			"type":"VEC4"
		},
		{
			"bufferView":165,
			"componentType":5126,
			"count":2,
			"type":"VEC3"
		},
		{
			"bufferView":166,
			"componentType":5126,
			"count":2,
			"type":"VEC3"
		},
		{
			"bufferView":167,
			"componentType":5126,
			"count":2,
			"type":"VEC4"
		},
		{
			"bufferView":168,
			"componentType":5126,
			"count":2,
			"type":"VEC3"
		},
		{
			"bufferView":169,
			"componentType":5126,
			"count":2,
			"type":"VEC3"
		},
		{
			"bufferView":170,
			"componentType":5126,
			"count":2,
			"type":"VEC4"
		},
		{
			"bufferView":171,
			"componentType":5126,
			"count":2,
			"type":"VEC3"
		},
		{
			"bufferView":172,
			"componentType":5126,
			"count":2,
			"type":"VEC3"
		},
		{
			"bufferView":173,
			"componentType":5126,
			"count":2,
			"type":"VEC4"
		},
		{
			"bufferView":174,
			"componentType":5126,
			"count":2,
			"type":"VEC3"
		},
		{
			"bufferView":175,
			"componentType":5126,
			"count":2,
			"type":"VEC3"
		},
		{
			"bufferView":176,
			"componentType":5126,
			"count":2,
			"type":"VEC4"
		},
		{
			"bufferView":177,
			"componentType":5126,
			"count":2,
			"type":"VEC3"
		},
		{
			"bufferView":178,
			"componentType":5126,
			"count":2,
			"type":"VEC3"
		},
		{
			"bufferView":179,
			"componentType":5126,
			"count":2,
			"type":"VEC4"
		},
		{
			"bufferView":180,
			"componentType":5126,
			"count":2,
			"type":"VEC3"
		},
		{
			"bufferView":181,
			"componentType":5126,
			"count":2,
			"type":"VEC3"
		},
		{
			"bufferView":182,
			"componentType":5126,
			"count":2,
			"type":"VEC4"
		},
		{
			"bufferView":183,
			"componentType":5126,
			"count":2,
			"type":"VEC3"
		},
		{
			"bufferView":184,
			"componentType":5126,
			"count":2,
			"type":"VEC3"
		},
		{
			"bufferView":185,
			"componentType":5126,
			"count":2,
			"type":"VEC4"
		},
		{
			"bufferView":186,
			"componentType":5126,
			"count":2,
			"type":"VEC3"
		},
		{
			"bufferView":187,
			"componentType":5126,
			"count":2,
			"type":"VEC3"
		},
		{
			"bufferView":188,
			"componentType":5126,
			"count":2,
			"type":"VEC4"
		},
		{
			"bufferView":189,
			"componentType":5126,
			"count":2,
			"type":"VEC3"
		},
		{
			"bufferView":190,
			"componentType":5126,
			"count":31,
			"max":[
				1
			],
			"min":[
				0
			],
			"type":"SCALAR"
		},
		{
			"bufferView":191,
			"componentType":5126,
			"count":31,
			"type":"VEC3"
		},
		{
			"bufferView":192,
			"componentType":5126,
			"count":31,
			"type":"VEC4"
		},
		{
			"bufferView":193,
			"componentType":5126,
			"count":2,
			"max":[
				1
			],
			"min":[
				0
			],
			"type":"SCALAR"
		},
		{
			"bufferView":194,
			"componentType":5126,
			"count":2,
			"type":"VEC3"
		},
		{
			"bufferView":195,
			"componentType":5126,
			"count":2,
			"type":"VEC3"
		},
		{
			"bufferView":196,
			"componentType":5126,
			"count":2,
			"type":"VEC4"
		},
		{
			"bufferView":197,
			"componentType":5126,
			"count":2,
			"type":"VEC3"
		},
		{
			"bufferView":198,
			"componentType":5126,
			"count":2,
			"type":"VEC3"
		},
		{
			"bufferView":199,
			"componentType":5126,
			"count":31,
			"type":"VEC4"
		},
		{
			"bufferView":200,
			"componentType":5126,
			"count":2,
			"type":"VEC3"
		},
		{
			"bufferView":201,
			"componentType":5126,
			"count":2,
			"type":"VEC3"
		},
		{
			"bufferView":202,
			"componentType":5126,
			"count":2,
			"type":"VEC4"
		},
		{
			"bufferView":203,
			"componentType":5126,
			"count":2,
			"type":"VEC3"
		},
		{
			"bufferView":204,
			"componentType":5126,
			"count":2,
			"type":"VEC3"
		},
		{
			"bufferView":205,
			"componentType":5126,
			"count":2,
			"type":"VEC4"
		},
		{
			"bufferView":206,
			"componentType":5126,
			"count":2,
			"type":"VEC3"
		},
		{
			"bufferView":207,
			"componentType":5126,
			"count":2,
			"type":"VEC3"
		},
		{
			"bufferView":208,
			"componentType":5126,
			"count":31,
			"type":"VEC4"
		},
		{
			"bufferView":209,
			"componentType":5126,
			"count":2,
			"type":"VEC3"
		},
		{
			"bufferView":210,
			"componentType":5126,
			"count":2,
			"type":"VEC3"
		},
		{
			"bufferView":211,
			"componentType":5126,
			"count":2,
			"type":"VEC4"
		},
		{
			"bufferView":212,
			"componentType":5126,
			"count":2,
			"type":"VEC3"
		},
		{
			"bufferView":213,
			"componentType":5126,
			"count":2,
			"type":"VEC3"
		},
		{
			"bufferView":214,
			"componentType":5126,
			"count":2,
			"type":"VEC4"
		},
		{
			"bufferView":215,
			"componentType":5126,
			"count":2,
			"type":"VEC3"
		},
		{
			"bufferView":216,
			"componentType":5126,
			"count":2,
			"type":"VEC3"
		},
		{
			"bufferView":217,
			"componentType":5126,
			"count":31,
			"type":"VEC4"
		},
		{
			"bufferView":218,
			"componentType":5126,
			"count":2,
			"type":"VEC3"
		},
		{
			"bufferView":219,
			"componentType":5126,
			"count":2,
			"type":"VEC3"
		},
		{
			"bufferView":220,
			"componentType":5126,
			"count":2,
			"type":"VEC4"
		},
		{
			"bufferView":221,
			"componentType":5126,
			"count":2,
			"type":"VEC3"
		},
		{
			"bufferView":222,
			"componentType":5126,
			"count":2,
			"type":"VEC3"
		},
		{
			"bufferView":223,
			"componentType":5126,
			"count":2,
			"type":"VEC4"
		},
		{
			"bufferView":224,
			"componentType":5126,
			"count":2,
			"type":"VEC3"
		},
		{
			"bufferView":225,
			"componentType":5126,
			"count":2,
			"type":"VEC3"
		},
		{
			"bufferView":226,
			"componentType":5126,
			"count":31,
			"type":"VEC4"
		},
		{
			"bufferView":227,
			"componentType":5126,
			"count":2,
			"type":"VEC3"
		},
		{
			"bufferView":228,
			"componentType":5126,
			"count":2,
			"type":"VEC3"
		},
		{
			"bufferView":229,
			"componentType":5126,
			"count":31,
			"type":"VEC4"
		},
		{
			"bufferView":230,
			"componentType":5126,
			"count":2,
			"type":"VEC3"
		},
		{
			"bufferView":231,
			"componentType":5126,
			"count":2,
			"type":"VEC3"
		},
		{
			"bufferView":232,
			"componentType":5126,
			"count":31,
			"type":"VEC4"
		},
		{
			"bufferView":233,
			"componentType":5126,
			"count":2,
			"type":"VEC3"
		},
		{
			"bufferView":234,
			"componentType":5126,
			"count":2,
			"type":"VEC3"
		},
		{
			"bufferView":235,
			"componentType":5126,
			"count":31,
			"type":"VEC4"
		},
		{
			"bufferView":236,
			"componentType":5126,
			"count":2,
			"type":"VEC3"
		},
		{
			"bufferView":237,
			"componentType":5126,
			"count":2,
			"type":"VEC3"
		},
		{
			"bufferView":238,
			"componentType":5126,
			"count":31,
			"type":"VEC4"
		},
		{
			"bufferView":239,
			"componentType":5126,
			"count":2,
			"type":"VEC3"
		},
		{
			"bufferView":240,
			"componentType":5126,
			"count":2,
			"type":"VEC3"
		},
		{
			"bufferView":241,
			"componentType":5126,
			"count":31,
			"type":"VEC4"
		},
		{
			"bufferView":242,
			"componentType":5126,
			"count":2,
			"type":"VEC3"
		}
	],
	"bufferViews":[
		{
			"buffer":0,
			"byteLength":30648,
			"byteOffset":0,
			"target":34962
		},
		{
			"buffer":0,
			"byteLength":30648,
			"byteOffset":30648,
			"target":34962
		},
		{
			"buffer":0,
			"byteLength":20432,
			"byteOffset":61296,
			"target":34962
		},
		{
			"buffer":0,
			"byteLength":10216,
			"byteOffset":81728,
			"target":34962
		},
		{
			"buffer":0,
			"byteLength":40864,
			"byteOffset":91944,
			"target":34962
		},
		{
			"buffer":0,
			"byteLength":21696,
			"byteOffset":132808,
			"target":34963
		},
		{
			"buffer":0,
			"byteLength":32604,
			"byteOffset":154504,
			"target":34962
		},
		{
			"buffer":0,
			"byteLength":32604,
			"byteOffset":187108,
			"target":34962
		},
		{
			"buffer":0,
			"byteLength":21736,
			"byteOffset":219712,
			"target":34962
		},
		{
			"buffer":0,
			"byteLength":10868,
			"byteOffset":241448,
			"target":34962
		},
		{
			"buffer":0,
			"byteLength":43472,
			"byteOffset":252316,
			"target":34962
		},
		{
			"buffer":0,
			"byteLength":16656,
			"byteOffset":295788,
			"target":34963
		},
		{
			"buffer":0,
			"byteLength":4596,
			"byteOffset":312444,
			"target":34962
		},
		{
			"buffer":0,
			"byteLength":4596,
			"byteOffset":317040,
			"target":34962
		},
		{
			"buffer":0,
			"byteLength":3064,
			"byteOffset":321636,
			"target":34962
		},
		{
			"buffer":0,
			"byteLength":1532,
			"byteOffset":324700,
			"target":34962
		},
		{
			"buffer":0,
			"byteLength":6128,
			"byteOffset":326232,
			"target":34962
		},
		{
			"buffer":0,
			"byteLength":2880,
			"byteOffset":332360,
			"target":34963
		},
		{
			"buffer":0,
			"byteLength":720,
			"byteOffset":335240,
			"target":34962
		},
		{
			"buffer":0,
			"byteLength":720,
			"byteOffset":335960,
			"target":34962
		},
		{
			"buffer":0,
			"byteLength":480,
			"byteOffset":336680,
			"target":34962
		},
		{
			"buffer":0,
			"byteLength":240,
			"byteOffset":337160,
			"target":34962
		},
		{
			"buffer":0,
			"byteLength":960,
			"byteOffset":337400,
			"target":34962
		},
		{
			"buffer":0,
			"byteLength":336,
			"byteOffset":338360,
			"target":34963
		},
		{
			"buffer":0,
			"byteLength":7968,
			"byteOffset":338696,
			"target":34962
		},
		{
			"buffer":0,
			"byteLength":7968,
			"byteOffset":346664,
			"target":34962
		},
		{
			"buffer":0,
			"byteLength":5312,
			"byteOffset":354632,
			"target":34962
		},
		{
			"buffer":0,
			"byteLength":2656,
			"byteOffset":359944,
			"target":34962
		},
		{
			"buffer":0,
			"byteLength":10624,
			"byteOffset":362600,
			"target":34962
		},
		{
			"buffer":0,
			"byteLength":5616,
			"byteOffset":373224,
			"target":34963
		},
		{
			"buffer":0,
			"byteLength":10488,
			"byteOffset":378840,
			"target":34962
		},
		{
			"buffer":0,
			"byteLength":10488,
			"byteOffset":389328,
			"target":34962
		},
		{
			"buffer":0,
			"byteLength":6992,
			"byteOffset":399816,
			"target":34962
		},
		{
			"buffer":0,
			"byteLength":3496,
			"byteOffset":406808,
			"target":34962
		},
		{
			"buffer":0,
			"byteLength":13984,
			"byteOffset":410304,
			"target":34962
		},
		{
			"buffer":0,
			"byteLength":7680,
			"byteOffset":424288,
			"target":34963
		},
		{
			"buffer":0,
			"byteLength":3648,
			"byteOffset":431968,
			"target":34962
		},
		{
			"buffer":0,
			"byteLength":3648,
			"byteOffset":435616,
			"target":34962
		},
		{
			"buffer":0,
			"byteLength":2432,
			"byteOffset":439264,
			"target":34962
		},
		{
			"buffer":0,
			"byteLength":1216,
			"byteOffset":441696,
			"target":34962
		},
		{
			"buffer":0,
			"byteLength":4864,
			"byteOffset":442912,
			"target":34962
		},
		{
			"buffer":0,
			"byteLength":2304,
			"byteOffset":447776,
			"target":34963
		},
		{
			"buffer":0,
			"byteLength":2640,
			"byteOffset":450080,
			"target":34962
		},
		{
			"buffer":0,
			"byteLength":2640,
			"byteOffset":452720,
			"target":34962
		},
		{
			"buffer":0,
			"byteLength":1760,
			"byteOffset":455360,
			"target":34962
		},
		{
			"buffer":0,
			"byteLength":880,
			"byteOffset":457120,
			"target":34962
		},
		{
			"buffer":0,
			"byteLength":3520,
			"byteOffset":458000,
			"target":34962
		},
		{
			"buffer":0,
			"byteLength":1440,
			"byteOffset":461520,
			"target":34963
		},
		{
			"buffer":0,
			"byteLength":1920,
			"byteOffset":462960,
			"target":34962
		},
		{
			"buffer":0,
			"byteLength":1920,
			"byteOffset":464880,
			"target":34962
		},
		{
			"buffer":0,
			"byteLength":1280,
			"byteOffset":466800,
			"target":34962
		},
		{
			"buffer":0,
			"byteLength":640,
			"byteOffset":468080,
			"target":34962
		},
		{
			"buffer":0,
			"byteLength":2560,
			"byteOffset":468720,
			"target":34962
		},
		{
			"buffer":0,
			"byteLength":960,
			"byteOffset":471280,
			"target":34963
		},
		{
			"buffer":0,
			"byteLength":1176,
			"byteOffset":472240,
			"target":34962
		},
		{
			"buffer":0,
			"byteLength":1176,
			"byteOffset":473416,
			"target":34962
		},
		{
			"buffer":0,
			"byteLength":784,
			"byteOffset":474592,
			"target":34962
		},
		{
			"buffer":0,
			"byteLength":392,
			"byteOffset":475376,
			"target":34962
		},
		{
			"buffer":0,
			"byteLength":1568,
			"byteOffset":475768,
			"target":34962
		},
		{
			"buffer":0,
			"byteLength":720,
			"byteOffset":477336,
			"target":34963
		},
		{
			"buffer":0,
			"byteLength":2160,
			"byteOffset":478056,
			"target":34962
		},
		{
			"buffer":0,
			"byteLength":2160,
			"byteOffset":480216,
			"target":34962
		},
		{
			"buffer":0,
			"byteLength":1440,
			"byteOffset":482376,
			"target":34962
		},
		{
			"buffer":0,
			"byteLength":720,
			"byteOffset":483816,
			"target":34962
		},
		{
			"buffer":0,
			"byteLength":2880,
			"byteOffset":484536,
			"target":34962
		},
		{
			"buffer":0,
			"byteLength":1152,
			"byteOffset":487416,
			"target":34963
		},
		{
			"buffer":0,
			"byteLength":288,
			"byteOffset":488568,
			"target":34962
		},
		{
			"buffer":0,
			"byteLength":288,
			"byteOffset":488856,
			"target":34962
		},
		{
			"buffer":0,
			"byteLength":192,
			"byteOffset":489144,
			"target":34962
		},
		{
			"buffer":0,
			"byteLength":96,
			"byteOffset":489336,
			"target":34962
		},
		{
			"buffer":0,
			"byteLength":384,
			"byteOffset":489432,
			"target":34962
		},
		{
			"buffer":0,
			"byteLength":72,
			"byteOffset":489816,
			"target":34963
		},
		{
			"buffer":0,
			"byteLength":288,
			"byteOffset":489888,
			"target":34962
		},
		{
			"buffer":0,
			"byteLength":288,
			"byteOffset":490176,
			"target":34962
		},
		{
			"buffer":0,
			"byteLength":192,
			"byteOffset":490464,
			"target":34962
		},
		{
			"buffer":0,
			"byteLength":96,
			"byteOffset":490656,
			"target":34962
		},
		{
			"buffer":0,
			"byteLength":384,
			"byteOffset":490752,
			"target":34962
		},
		{
			"buffer":0,
			"byteLength":504,
			"byteOffset":491136,
			"target":34962
		},
		{
			"buffer":0,
			"byteLength":504,
			"byteOffset":491640,
			"target":34962
		},
		{
			"buffer":0,
			"byteLength":336,
			"byteOffset":492144,
			"target":34962
		},
		{
			"buffer":0,
			"byteLength":168,
			"byteOffset":492480,
			"target":34962
		},
		{
			"buffer":0,
			"byteLength":672,
			"byteOffset":492648,
			"target":34962
		},
		{
			"buffer":0,
			"byteLength":192,
			"byteOffset":493320,
			"target":34963
		},
		{
			"buffer":0,
			"byteLength":1088,
			"byteOffset":493512
		},
		{
			"buffer":0,
			"byteLength":8,
			"byteOffset":494600
		},
		{
			"buffer":0,
			"byteLength":24,
			"byteOffset":494608
		},
		{
			"buffer":0,
			"byteLength":32,
			"byteOffset":494632
		},
		{
			"buffer":0,
			"byteLength":24,
			"byteOffset":494664
		},
		{
			"buffer":0,
			"byteLength":24,
			"byteOffset":494688
		},
		{
			"buffer":0,
			"byteLength":32,
			"byteOffset":494712
		},
		{
			"buffer":0,
			"byteLength":24,
			"byteOffset":494744
		},
		{
			"buffer":0,
			"byteLength":24,
			"byteOffset":494768
		},
		{
			"buffer":0,
			"byteLength":76,
			"byteOffset":494792
		},
		{
			"buffer":0,
			"byteLength":304,
			"byteOffset":494868
		},
		{
			"buffer":0,
			"byteLength":24,
			"byteOffset":495172
		},
		{
			"buffer":0,
			"byteLength":24,
			"byteOffset":495196
		},
		{
			"buffer":0,
			"byteLength":32,
			"byteOffset":495220
		},
		{
			"buffer":0,
			"byteLength":24,
			"byteOffset":495252
		},
		{
			"buffer":0,
			"byteLength":24,
			"byteOffset":495276
		},
		{
			"buffer":0,
			"byteLength":32,
			"byteOffset":495300
		},
		{
			"buffer":0,
			"byteLength":24,
			"byteOffset":495332
		},
		{
			"buffer":0,
			"byteLength":24,
			"byteOffset":495356
		},
		{
			"buffer":0,
			"byteLength":304,
			"byteOffset":495380
		},
		{
			"buffer":0,
			"byteLength":24,
			"byteOffset":495684
		},
		{
			"buffer":0,
			"byteLength":24,
			"byteOffset":495708
		},
		{
			"buffer":0,
			"byteLength":304,
			"byteOffset":495732
		},
		{
			"buffer":0,
			"byteLength":24,
			"byteOffset":496036
		},
		{
			"buffer":0,
			"byteLength":24,
			"byteOffset":496060
		},
		{
			"buffer":0,
			"byteLength":32,
			"byteOffset":496084
		},
		{
			"buffer":0,
			"byteLength":24,
			"byteOffset":496116
		},
		{
			"buffer":0,
			"byteLength":24,
			"byteOffset":496140
		},
		{
			"buffer":0,
			"byteLength":304,
			"byteOffset":496164
		},
		{
			"buffer":0,
			"byteLength":24,
			"byteOffset":496468
		},
		{
			"buffer":0,
			"byteLength":24,
			"byteOffset":496492
		},
		{
			"buffer":0,
			"byteLength":32,
			"byteOffset":496516
		},
		{
			"buffer":0,
			"byteLength":24,
			"byteOffset":496548
		},
		{
			"buffer":0,
			"byteLength":24,
			"byteOffset":496572
		},
		{
			"buffer":0,
			"byteLength":32,
			"byteOffset":496596
		},
		{
			"buffer":0,
			"byteLength":24,
			"byteOffset":496628
		},
		{
			"buffer":0,
			"byteLength":24,
			"byteOffset":496652
		},
		{
			"buffer":0,
			"byteLength":304,
			"byteOffset":496676
		},
		{
			"buffer":0,
			"byteLength":24,
			"byteOffset":496980
		},
		{
			"buffer":0,
			"byteLength":24,
			"byteOffset":497004
		},
		{
			"buffer":0,
			"byteLength":32,
			"byteOffset":497028
		},
		{
			"buffer":0,
			"byteLength":24,
			"byteOffset":497060
		},
		{
			"buffer":0,
			"byteLength":24,
			"byteOffset":497084
		},
		{
			"buffer":0,
			"byteLength":32,
			"byteOffset":497108
		},
		{
			"buffer":0,
			"byteLength":24,
			"byteOffset":497140
		},
		{
			"buffer":0,
			"byteLength":24,
			"byteOffset":497164
		},
		{
			"buffer":0,
			"byteLength":304,
			"byteOffset":497188
		},
		{
			"buffer":0,
			"byteLength":24,
			"byteOffset":497492
		},
		{
			"buffer":0,
			"byteLength":24,
			"byteOffset":497516
		},
		{
			"buffer":0,
			"byteLength":32,
			"byteOffset":497540
		},
		{
			"buffer":0,
			"byteLength":24,
			"byteOffset":497572
		},
		{
			"buffer":0,
			"byteLength":24,
			"byteOffset":497596
		},
		{
			"buffer":0,
			"byteLength":32,
			"byteOffset":497620
		},
		{
			"buffer":0,
			"byteLength":24,
			"byteOffset":497652
		},
		{
			"buffer":0,
			"byteLength":244,
			"byteOffset":497676
		},
		{
			"buffer":0,
			"byteLength":732,
			"byteOffset":497920
		},
		{
			"buffer":0,
			"byteLength":8,
			"byteOffset":498652
		},
		{
			"buffer":0,
			"byteLength":32,
			"byteOffset":498660
		},
		{
			"buffer":0,
			"byteLength":24,
			"byteOffset":498692
		},
		{
			"buffer":0,
			"byteLength":24,
			"byteOffset":498716
		},
		{
			"buffer":0,
			"byteLength":32,
			"byteOffset":498740
		},
		{
			"buffer":0,
			"byteLength":24,
			"byteOffset":498772
		},
		{
			"buffer":0,
			"byteLength":24,
			"byteOffset":498796
		},
		{
			"buffer":0,
			"byteLength":976,
			"byteOffset":498820
		},
		{
			"buffer":0,
			"byteLength":24,
			"byteOffset":499796
		},
		{
			"buffer":0,
			"byteLength":24,
			"byteOffset":499820
		},
		{
			"buffer":0,
			"byteLength":32,
			"byteOffset":499844
		},
		{
			"buffer":0,
			"byteLength":24,
			"byteOffset":499876
		},
		{
			"buffer":0,
			"byteLength":24,
			"byteOffset":499900
		},
		{
			"buffer":0,
			"byteLength":976,
			"byteOffset":499924
		},
		{
			"buffer":0,
			"byteLength":24,
			"byteOffset":500900
		},
		{
			"buffer":0,
			"byteLength":24,
			"byteOffset":500924
		},
		{
			"buffer":0,
			"byteLength":976,
			"byteOffset":500948
		},
		{
			"buffer":0,
			"byteLength":24,
			"byteOffset":501924
		},
		{
			"buffer":0,
			"byteLength":24,
			"byteOffset":501948
		},
		{
			"buffer":0,
			"byteLength":32,
			"byteOffset":501972
		},
		{
			"buffer":0,
			"byteLength":24,
			"byteOffset":502004
		},
		{
			"buffer":0,
			"byteLength":24,
			"byteOffset":502028
		},
		{
			"buffer":0,
			"byteLength":32,
			"byteOffset":502052
		},
		{
			"buffer":0,
			"byteLength":24,
			"byteOffset":502084
		},
		{
			"buffer":0,
			"byteLength":24,
			"byteOffset":502108
		},
		{
			"buffer":0,
			"byteLength":976,
			"byteOffset":502132
		},
		{
			"buffer":0,
			"byteLength":24,
			"byteOffset":503108
		},
		{
			"buffer":0,
			"byteLength":24,
			"byteOffset":503132
		},
		{
			"buffer":0,
			"byteLength":32,
			"byteOffset":503156
		},
		{
			"buffer":0,
			"byteLength":24,
			"byteOffset":503188
		},
		{
			"buffer":0,
			"byteLength":24,
			"byteOffset":503212
		},
		{
			"buffer":0,
			"byteLength":32,
			"byteOffset":503236
		},
		{
			"buffer":0,
			"byteLength":24,
			"byteOffset":503268
		},
		{
			"buffer":0,
			"byteLength":24,
			"byteOffset":503292
		},
		{
			"buffer":0,
			"byteLength":32,
			"byteOffset":503316
		},
		{
			"buffer":0,
			"byteLength":24,
			"byteOffset":503348
		},
		{
			"buffer":0,
			"byteLength":24,
			"byteOffset":503372
		},
		{
			"buffer":0,
			"byteLength":32,
			"byteOffset":503396
		},
		{
			"buffer":0,
			"byteLength":24,
			"byteOffset":503428
		},
		{
			"buffer":0,
			"byteLength":24,
			"byteOffset":503452
		},
		{
			"buffer":0,
			"byteLength":32,
			"byteOffset":503476
		},
		{
			"buffer":0,
			"byteLength":24,
			"byteOffset":503508
		},
		{
			"buffer":0,
			"byteLength":24,
			"byteOffset":503532
		},
		{
			"buffer":0,
			"byteLength":32,
			"byteOffset":503556
		},
		{
			"buffer":0,
			"byteLength":24,
			"byteOffset":503588
		},
		{
			"buffer":0,
			"byteLength":24,
			"byteOffset":503612
		},
		{
			"buffer":0,
			"byteLength":32,
			"byteOffset":503636
		},
		{
			"buffer":0,
			"byteLength":24,
			"byteOffset":503668
		},
		{
			"buffer":0,
			"byteLength":24,
			"byteOffset":503692
		},
		{
			"buffer":0,
			"byteLength":32,
			"byteOffset":503716
		},
		{
			"buffer":0,
			"byteLength":24,
			"byteOffset":503748
		},
		{
			"buffer":0,
			"byteLength":124,
			"byteOffset":503772
		},
		{
			"buffer":0,
			"byteLength":372,
			"byteOffset":503896
		},
		{
			"buffer":0,
			"byteLength":496,
			"byteOffset":504268
		},
		{
			"buffer":0,
			"byteLength":8,
			"byteOffset":504764
		},
		{
			"buffer":0,
			"byteLength":24,
			"byteOffset":504772
		},
		{
			"buffer":0,
			"byteLength":24,
			"byteOffset":504796
		},
		{
			"buffer":0,
			"byteLength":32,
			"byteOffset":504820
		},
		{
			"buffer":0,
			"byteLength":24,
			"byteOffset":504852
		},
		{
			"buffer":0,
			"byteLength":24,
			"byteOffset":504876
		},
		{
			"buffer":0,
			"byteLength":496,
			"byteOffset":504900
		},
		{
			"buffer":0,
			"byteLength":24,
			"byteOffset":505396
		},
		{
			"buffer":0,
			"byteLength":24,
			"byteOffset":505420
		},
		{
			"buffer":0,
			"byteLength":32,
			"byteOffset":505444
		},
		{
			"buffer":0,
			"byteLength":24,
			"byteOffset":505476
		},
		{
			"buffer":0,
			"byteLength":24,
			"byteOffset":505500
		},
		{
			"buffer":0,
			"byteLength":32,
			"byteOffset":505524
		},
		{
			"buffer":0,
			"byteLength":24,
			"byteOffset":505556
		},
		{
			"buffer":0,
			"byteLength":24,
			"byteOffset":505580
		},
		{
			"buffer":0,
			"byteLength":496,
			"byteOffset":505604
		},
		{
			"buffer":0,
			"byteLength":24,
			"byteOffset":506100
		},
		{
			"buffer":0,
			"byteLength":24,
			"byteOffset":506124
		},
		{
			"buffer":0,
			"byteLength":32,
			"byteOffset":506148
		},
		{
			"buffer":0,
			"byteLength":24,
			"byteOffset":506180
		},
		{
			"buffer":0,
			"byteLength":24,
			"byteOffset":506204
		},
		{
			"buffer":0,
			"byteLength":32,
			"byteOffset":506228
		},
		{
			"buffer":0,
			"byteLength":24,
			"byteOffset":506260
		},
		{
			"buffer":0,
			"byteLength":24,
			"byteOffset":506284
		},
		{
			"buffer":0,
			"byteLength":496,
			"byteOffset":506308
		},
		{
			"buffer":0,
			"byteLength":24,
			"byteOffset":506804
		},
		{
			"buffer":0,
			"byteLength":24,
			"byteOffset":506828
		},
		{
			"buffer":0,
			"byteLength":32,
			"byteOffset":506852
		},
		{
			"buffer":0,
			"byteLength":24,
			"byteOffset":506884
		},
		{
			"buffer":0,
			"byteLength":24,
			"byteOffset":506908
		},
		{
			"buffer":0,
			"byteLength":32,
			"byteOffset":506932
		},
		{
			"buffer":0,
			"byteLength":24,
			"byteOffset":506964
		},
		{
			"buffer":0,
			"byteLength":24,
			"byteOffset":506988
		},
		{
			"buffer":0,
			"byteLength":496,
			"byteOffset":507012
		},
		{
			"buffer":0,
			"byteLength":24,
			"byteOffset":507508
		},
		{
			"buffer":0,
			"byteLength":24,
			"byteOffset":507532
		},
		{
			"buffer":0,
			"byteLength":496,
			"byteOffset":507556
		},
		{
			"buffer":0,
			"byteLength":24,
			"byteOffset":508052
		},
		{
			"buffer":0,
			"byteLength":24,
			"byteOffset":508076
		},
		{
			"buffer":0,
			"byteLength":496,
			"byteOffset":508100
		},
		{
			"buffer":0,
			"byteLength":24,
			"byteOffset":508596
		},
		{
			"buffer":0,
			"byteLength":24,
			"byteOffset":508620
		},
		{
			"buffer":0,
			"byteLength":496,
			"byteOffset":508644
		},
		{
			"buffer":0,
			"byteLength":24,
			"byteOffset":509140
		},
		{
			"buffer":0,
			"byteLength":24,
			"byteOffset":509164
		},
		{
			"buffer":0,
			"byteLength":496,
			"byteOffset":509188
		},
		{
			"buffer":0,
			"byteLength":24,
			"byteOffset":509684
		},
		{
			"buffer":0,
			"byteLength":24,
			"byteOffset":509708
		},
		{
			"buffer":0,
			"byteLength":496,
			"byteOffset":509732
		},
		{
			"buffer":0,
			"byteLength":24,
			"byteOffset":510228
		}
	],
	"samplers":[
		{
			"magFilter":9729,
			"minFilter":9987
		}
	],
	"buffers":[
		{
			"byteLength":510252,
			"uri":"kurobe.bin"
		}
	]
}
