{
	"asset":{
		"generator":"Khronos glTF Blender I/O v4.2.57",
		"version":"2.0"
	},
	"extensionsUsed":[
		"KHR_materials_clearcoat",
		"KHR_materials_sheen"
	],
	"scene":0,
	"scenes":[
		{
			"name":"Scene",
			"nodes":[
				18
			]
		}
	],
	"nodes":[
		{
			"name":"head",
			"scale":[
				1,
				0.9999999403953552,
				1
			],
			"translation":[
				0,
				0.1099998950958252,
				0
			]
		},
		{
			"children":[
				0
			],
			"name":"neck",
			"translation":[
				0,
				0.23100006580352783,
				0
			]
		},
		{
			"name":"hand.R",
			"rotation":[
				-0.0028319046832621098,
				-0.020585274323821068,
				0.022129911929368973,
				0.9995391368865967
			],
			"scale":[
				1.0000001192092896,
				1,
				0.9999999403953552
			],
			"translation":[
				1.1641532182693481e-08,
				0.2768995463848114,
				-4.6566128730773926e-09
			]
		},
		{
			"children":[
				2
			],
			"name":"forearm.R",
			"rotation":[
				0.04786806181073189,
				-0.06073947250843048,
				0.07015372812747955,
				0.9945339560508728
			],
			"scale":[
				0.9999998807907104,
				1,
				0.9999999403953552
			],
			"translation":[
				-9.569339454174042e-08,
				0.3039281964302063,
				-7.450580596923828e-09
			]
		},
		{
			"children":[
				3
			],
			"name":"upper_arm.R",
			"rotation":[
				0.9885599613189697,
				0.1065431758761406,
				0.10654225945472717,
				0.006823007017374039
			],
			"scale":[
				1.0000059604644775,
				1.0000003576278687,
				1.0000001192092896
			],
			"translation":[
				0.23760001361370087,
				0.17599999904632568,
				0
			]
		},
		{
			"name":"hand.L",
			"rotation":[
				-0.0028319046832621098,
				0.020585274323821068,
				-0.022129911929368973,
				0.9995391368865967
			],
			"scale":[
				1.0000001192092896,
				1,
				0.9999999403953552
			],
			"translation":[
				-1.1641532182693481e-08,
				0.2768995463848114,
				-4.6566128730773926e-09
			]
		},
		{
			"children":[
				5
			],
			"name":"forearm.L",
			"rotation":[
				0.04786806181073189,
				0.06073947250843048,
				-0.07015372812747955,
				0.9945339560508728
			],
			"scale":[
				0.9999998807907104,
				1,
				0.9999999403953552
			],
			"translation":[
				9.569339454174042e-08,
				0.3039281964302063,
				-7.450580596923828e-09
			]
		},
		{
			"children":[
				6
			],
			"name":"upper_arm.L",
			"rotation":[
				0.9885599613189697,
				-0.1065431758761406,
				-0.10654225945472717,
				0.006823007017374039
			],
			"scale":[
				1.0000059604644775,
				1.0000003576278687,
				1.0000001192092896
			],
			"translation":[
				-0.23760001361370087,
				0.17599999904632568,
				0
			]
		},
		{
			"children":[
				1,
				4,
				7
			],
			"name":"chest",
			"translation":[
				0,
				0.18699991703033447,
				0
			]
		},
		{
			"children":[
				8
			],
			"name":"spine",
			"translation":[
				0,
				0.1650000810623169,
				0
			]
		},
		{
			"name":"foot.R",
			"rotation":[
				0.5914180278778076,
				-1.605243160618386e-09,
				9.607921125365237e-10,
				0.8063651323318481
			],
			"scale":[
				1,
				1.0000001192092896,
				1
			],
			"translation":[
				-7.424219905516338e-09,
				0.4516488313674927,
				3.653717328688799e-10
			]
		},
		{
			"children":[
				10
			],
			"name":"shin.R",
			"rotation":[
				-0.04151010140776634,
				-0.009864666499197483,
				0.009349511936306953,
				0.9990456104278564
			],
			"translation":[
				-5.4424162954092026e-09,
				0.4512789249420166,
				-2.3283064365386963e-09
			]
		},
		{
			"children":[
				11
			],
			"name":"thigh.R",
			"rotation":[
				-0.9997993111610413,
				-0.009610531851649284,
				-0.009610628709197044,
				0.014720415696501732
			],
			"scale":[
				1,
				1,
				1.000000238418579
			],
			"translation":[
				0.10119999945163727,
				-0.02199995517730713,
				0
			]
		},
		{
			"name":"foot.L",
			"rotation":[
				0.5914180278778076,
				1.605243160618386e-09,
				-9.607921125365237e-10,
				0.8063651323318481
			],
			"scale":[
				1,
				1.0000001192092896,
				1
			],
			"translation":[
				7.424219905516338e-09,
				0.4516488313674927,
				3.653717328688799e-10
			]
		},
		{
			"children":[
				13
			],
			"name":"shin.L",
			"rotation":[
				-0.04151010140776634,
				0.009864666499197483,
				-0.009349511936306953,
				0.9990456104278564
			],
			"translation":[
				5.4424162954092026e-09,
				0.4512789249420166,
				-2.3283064365386963e-09
			]
		},
		{
			"children":[
				14
			],
			"name":"thigh.L",
			"rotation":[
				-0.9997993111610413,
				0.009610531851649284,
				0.009610628709197044,
				0.014720415696501732
			],
			"scale":[
				1,
				1,
				1.000000238418579
			],
			"translation":[
				-0.10119999945163727,
				-0.02199995517730713,
				0
			]
		},
		{
			"children":[
				9,
				12,
				15
			],
			"name":"hips",
			"translation":[
				0,
				1.0230000019073486,
				0
			]
		},
		{
			"mesh":0,
			"name":"leon",
			"skin":0
		},
		{
			"children":[
				17,
				16
			],
			"name":"leon_rig"
		}
	],
	"animations":[
		{
			"channels":[
				{
					"sampler":0,
					"target":{
						"node":16,
						"path":"translation"
					}
				},
				{
					"sampler":1,
					"target":{
						"node":16,
						"path":"rotation"
					}
				},
				{
					"sampler":2,
					"target":{
						"node":16,
						"path":"scale"
					}
				},
				{
					"sampler":3,
					"target":{
						"node":9,
						"path":"translation"
					}
				},
				{
					"sampler":4,
					"target":{
						"node":9,
						"path":"rotation"
					}
				},
				{
					"sampler":5,
					"target":{
						"node":9,
						"path":"scale"
					}
				},
				{
					"sampler":6,
					"target":{
						"node":8,
						"path":"translation"
					}
				},
				{
					"sampler":7,
					"target":{
						"node":8,
						"path":"rotation"
					}
				},
				{
					"sampler":8,
					"target":{
						"node":8,
						"path":"scale"
					}
				},
				{
					"sampler":9,
					"target":{
						"node":1,
						"path":"translation"
					}
				},
				{
					"sampler":10,
					"target":{
						"node":1,
						"path":"rotation"
					}
				},
				{
					"sampler":11,
					"target":{
						"node":1,
						"path":"scale"
					}
				},
				{
					"sampler":12,
					"target":{
						"node":0,
						"path":"translation"
					}
				},
				{
					"sampler":13,
					"target":{
						"node":0,
						"path":"rotation"
					}
				},
				{
					"sampler":14,
					"target":{
						"node":0,
						"path":"scale"
					}
				},
				{
					"sampler":15,
					"target":{
						"node":4,
						"path":"translation"
					}
				},
				{
					"sampler":16,
					"target":{
						"node":4,
						"path":"rotation"
					}
				},
				{
					"sampler":17,
					"target":{
						"node":4,
						"path":"scale"
					}
				},
				{
					"sampler":18,
					"target":{
						"node":3,
						"path":"translation"
					}
				},
				{
					"sampler":19,
					"target":{
						"node":3,
						"path":"rotation"
					}
				},
				{
					"sampler":20,
					"target":{
						"node":3,
						"path":"scale"
					}
				},
				{
					"sampler":21,
					"target":{
						"node":2,
						"path":"translation"
					}
				},
				{
					"sampler":22,
					"target":{
						"node":2,
						"path":"rotation"
					}
				},
				{
					"sampler":23,
					"target":{
						"node":2,
						"path":"scale"
					}
				},
				{
					"sampler":24,
					"target":{
						"node":7,
						"path":"translation"
					}
				},
				{
					"sampler":25,
					"target":{
						"node":7,
						"path":"rotation"
					}
				},
				{
					"sampler":26,
					"target":{
						"node":7,
						"path":"scale"
					}
				},
				{
					"sampler":27,
					"target":{
						"node":6,
						"path":"translation"
					}
				},
				{
					"sampler":28,
					"target":{
						"node":6,
						"path":"rotation"
					}
				},
				{
					"sampler":29,
					"target":{
						"node":6,
						"path":"scale"
					}
				},
				{
					"sampler":30,
					"target":{
						"node":5,
						"path":"translation"
					}
				},
				{
					"sampler":31,
					"target":{
						"node":5,
						"path":"rotation"
					}
				},
				{
					"sampler":32,
					"target":{
						"node":5,
						"path":"scale"
					}
				},
				{
					"sampler":33,
					"target":{
						"node":12,
						"path":"translation"
					}
				},
				{
					"sampler":34,
					"target":{
						"node":12,
						"path":"rotation"
					}
				},
				{
					"sampler":35,
					"target":{
						"node":12,
						"path":"scale"
					}
				},
				{
					"sampler":36,
					"target":{
						"node":11,
						"path":"translation"
					}
				},
				{
					"sampler":37,
					"target":{
						"node":11,
						"path":"rotation"
					}
				},
				{
					"sampler":38,
					"target":{
						"node":11,
						"path":"scale"
					}
				},
				{
					"sampler":39,
					"target":{
						"node":10,
						"path":"translation"
					}
				},
				{
					"sampler":40,
					"target":{
						"node":10,
						"path":"rotation"
					}
				},
				{
					"sampler":41,
					"target":{
						"node":10,
						"path":"scale"
					}
				},
				{
					"sampler":42,
					"target":{
						"node":15,
						"path":"translation"
					}
				},
				{
					"sampler":43,
					"target":{
						"node":15,
						"path":"rotation"
					}
				},
				{
					"sampler":44,
					"target":{
						"node":15,
						"path":"scale"
					}
				},
				{
					"sampler":45,
					"target":{
						"node":14,
						"path":"translation"
					}
				},
				{
					"sampler":46,
					"target":{
						"node":14,
						"path":"rotation"
					}
				},
				{
					"sampler":47,
					"target":{
						"node":14,
						"path":"scale"
					}
				},
				{
					"sampler":48,
					"target":{
						"node":13,
						"path":"translation"
					}
				},
				{
					"sampler":49,
					"target":{
						"node":13,
						"path":"rotation"
					}
				},
				{
					"sampler":50,
					"target":{
						"node":13,
						"path":"scale"
					}
				}
			],
			"name":"attack",
			"samplers":[
				{
					"input":84,
					"interpolation":"STEP",
					"output":85
				},
				{
					"input":84,
					"interpolation":"STEP",
					"output":86
				},
				{
					"input":84,
					"interpolation":"STEP",
					"output":87
				},
				{
					"input":84,
					"interpolation":"STEP",
					"output":88
				},
				{
					"input":84,
					"interpolation":"STEP",
					"output":89
				},
				{
					"input":84,
					"interpolation":"STEP",
					"output":90
				},
				{
					"input":84,
					"interpolation":"STEP",
					"output":91
				},
				{
					"input":92,
					"interpolation":"LINEAR",
					"output":93
				},
				{
					"input":84,
					"interpolation":"STEP",
					"output":94
				},
				{
					"input":84,
					"interpolation":"STEP",
					"output":95
				},
				{
					"input":84,
					"interpolation":"STEP",
					"output":96
				},
				{
					"input":84,
					"interpolation":"STEP",
					"output":97
				},
				{
					"input":84,
					"interpolation":"STEP",
					"output":98
				},
				{
					"input":84,
					"interpolation":"STEP",
					"output":99
				},
				{
					"input":84,
					"interpolation":"STEP",
					"output":100
				},
				{
					"input":84,
					"interpolation":"STEP",
					"output":101
				},
				{
					"input":92,
					"interpolation":"LINEAR",
					"output":102
				},
				{
					"input":84,
					"interpolation":"STEP",
					"output":103
				},
				{
					"input":84,
					"interpolation":"STEP",
					"output":104
				},
				{
					"input":92,
					"interpolation":"LINEAR",
					"output":105
				},
				{
					"input":84,
					"interpolation":"STEP",
					"output":106
				},
				{
					"input":84,
					"interpolation":"STEP",
					"output":107
				},
				{
					"input":84,
					"interpolation":"STEP",
					"output":108
				},
				{
					"input":84,
					"interpolation":"STEP",
					"output":109
				},
				{
					"input":84,
					"interpolation":"STEP",
					"output":110
				},
				{
					"input":92,
					"interpolation":"LINEAR",
					"output":111
				},
				{
					"input":84,
					"interpolation":"STEP",
					"output":112
				},
				{
					"input":84,
					"interpolation":"STEP",
					"output":113
				},
				{
					"input":84,
					"interpolation":"STEP",
					"output":114
				},
				{
					"input":84,
					"interpolation":"STEP",
					"output":115
				},
				{
					"input":84,
					"interpolation":"STEP",
					"output":116
				},
				{
					"input":84,
					"interpolation":"STEP",
					"output":117
				},
				{
					"input":84,
					"interpolation":"STEP",
					"output":118
				},
				{
					"input":84,
					"interpolation":"STEP",
					"output":119
				},
				{
					"input":92,
					"interpolation":"LINEAR",
					"output":120
				},
				{
					"input":84,
					"interpolation":"STEP",
					"output":121
				},
				{
					"input":84,
					"interpolation":"LINEAR",
					"output":122
				},
				{
					"input":84,
					"interpolation":"LINEAR",
					"output":123
				},
				{
					"input":84,
					"interpolation":"STEP",
					"output":124
				},
				{
					"input":84,
					"interpolation":"LINEAR",
					"output":125
				},
				{
					"input":84,
					"interpolation":"LINEAR",
					"output":126
				},
				{
					"input":84,
					"interpolation":"STEP",
					"output":127
				},
				{
					"input":84,
					"interpolation":"STEP",
					"output":128
				},
				{
					"input":92,
					"interpolation":"LINEAR",
					"output":129
				},
				{
					"input":84,
					"interpolation":"STEP",
					"output":130
				},
				{
					"input":84,
					"interpolation":"LINEAR",
					"output":131
				},
				{
					"input":84,
					"interpolation":"LINEAR",
					"output":132
				},
				{
					"input":84,
					"interpolation":"STEP",
					"output":133
				},
				{
					"input":84,
					"interpolation":"LINEAR",
					"output":134
				},
				{
					"input":84,
					"interpolation":"LINEAR",
					"output":135
				},
				{
					"input":84,
					"interpolation":"STEP",
					"output":136
				}
			]
		},
		{
			"channels":[
				{
					"sampler":0,
					"target":{
						"node":16,
						"path":"translation"
					}
				},
				{
					"sampler":1,
					"target":{
						"node":16,
						"path":"rotation"
					}
				},
				{
					"sampler":2,
					"target":{
						"node":16,
						"path":"scale"
					}
				},
				{
					"sampler":3,
					"target":{
						"node":9,
						"path":"translation"
					}
				},
				{
					"sampler":4,
					"target":{
						"node":9,
						"path":"rotation"
					}
				},
				{
					"sampler":5,
					"target":{
						"node":9,
						"path":"scale"
					}
				},
				{
					"sampler":6,
					"target":{
						"node":8,
						"path":"translation"
					}
				},
				{
					"sampler":7,
					"target":{
						"node":8,
						"path":"rotation"
					}
				},
				{
					"sampler":8,
					"target":{
						"node":8,
						"path":"scale"
					}
				},
				{
					"sampler":9,
					"target":{
						"node":1,
						"path":"translation"
					}
				},
				{
					"sampler":10,
					"target":{
						"node":1,
						"path":"rotation"
					}
				},
				{
					"sampler":11,
					"target":{
						"node":1,
						"path":"scale"
					}
				},
				{
					"sampler":12,
					"target":{
						"node":0,
						"path":"translation"
					}
				},
				{
					"sampler":13,
					"target":{
						"node":0,
						"path":"rotation"
					}
				},
				{
					"sampler":14,
					"target":{
						"node":0,
						"path":"scale"
					}
				},
				{
					"sampler":15,
					"target":{
						"node":4,
						"path":"translation"
					}
				},
				{
					"sampler":16,
					"target":{
						"node":4,
						"path":"rotation"
					}
				},
				{
					"sampler":17,
					"target":{
						"node":4,
						"path":"scale"
					}
				},
				{
					"sampler":18,
					"target":{
						"node":3,
						"path":"translation"
					}
				},
				{
					"sampler":19,
					"target":{
						"node":3,
						"path":"rotation"
					}
				},
				{
					"sampler":20,
					"target":{
						"node":3,
						"path":"scale"
					}
				},
				{
					"sampler":21,
					"target":{
						"node":2,
						"path":"translation"
					}
				},
				{
					"sampler":22,
					"target":{
						"node":2,
						"path":"rotation"
					}
				},
				{
					"sampler":23,
					"target":{
						"node":2,
						"path":"scale"
					}
				},
				{
					"sampler":24,
					"target":{
						"node":7,
						"path":"translation"
					}
				},
				{
					"sampler":25,
					"target":{
						"node":7,
						"path":"rotation"
					}
				},
				{
					"sampler":26,
					"target":{
						"node":7,
						"path":"scale"
					}
				},
				{
					"sampler":27,
					"target":{
						"node":6,
						"path":"translation"
					}
				},
				{
					"sampler":28,
					"target":{
						"node":6,
						"path":"rotation"
					}
				},
				{
					"sampler":29,
					"target":{
						"node":6,
						"path":"scale"
					}
				},
				{
					"sampler":30,
					"target":{
						"node":5,
						"path":"translation"
					}
				},
				{
					"sampler":31,
					"target":{
						"node":5,
						"path":"rotation"
					}
				},
				{
					"sampler":32,
					"target":{
						"node":5,
						"path":"scale"
					}
				},
				{
					"sampler":33,
					"target":{
						"node":12,
						"path":"translation"
					}
				},
				{
					"sampler":34,
					"target":{
						"node":12,
						"path":"rotation"
					}
				},
				{
					"sampler":35,
					"target":{
						"node":12,
						"path":"scale"
					}
				},
				{
					"sampler":36,
					"target":{
						"node":11,
						"path":"translation"
					}
				},
				{
					"sampler":37,
					"target":{
						"node":11,
						"path":"rotation"
					}
				},
				{
					"sampler":38,
					"target":{
						"node":11,
						"path":"scale"
					}
				},
				{
					"sampler":39,
					"target":{
						"node":10,
						"path":"translation"
					}
				},
				{
					"sampler":40,
					"target":{
						"node":10,
						"path":"rotation"
					}
				},
				{
					"sampler":41,
					"target":{
						"node":10,
						"path":"scale"
					}
				},
				{
					"sampler":42,
					"target":{
						"node":15,
						"path":"translation"
					}
				},
				{
					"sampler":43,
					"target":{
						"node":15,
						"path":"rotation"
					}
				},
				{
					"sampler":44,
					"target":{
						"node":15,
						"path":"scale"
					}
				},
				{
					"sampler":45,
					"target":{
						"node":14,
						"path":"translation"
					}
				},
				{
					"sampler":46,
					"target":{
						"node":14,
						"path":"rotation"
					}
				},
				{
					"sampler":47,
					"target":{
						"node":14,
						"path":"scale"
					}
				},
				{
					"sampler":48,
					"target":{
						"node":13,
						"path":"translation"
					}
				},
				{
					"sampler":49,
					"target":{
						"node":13,
						"path":"rotation"
					}
				},
				{
					"sampler":50,
					"target":{
						"node":13,
						"path":"scale"
					}
				}
			],
			"name":"idle",
			"samplers":[
				{
					"input":137,
					"interpolation":"LINEAR",
					"output":138
				},
				{
					"input":139,
					"interpolation":"STEP",
					"output":140
				},
				{
					"input":139,
					"interpolation":"STEP",
					"output":141
				},
				{
					"input":139,
					"interpolation":"STEP",
					"output":142
				},
				{
					"input":139,
					"interpolation":"STEP",
					"output":143
				},
				{
					"input":139,
					"interpolation":"STEP",
					"output":144
				},
				{
					"input":139,
					"interpolation":"STEP",
					"output":145
				},
				{
					"input":137,
					"interpolation":"LINEAR",
					"output":146
				},
				{
					"input":139,
					"interpolation":"STEP",
					"output":147
				},
				{
					"input":139,
					"interpolation":"STEP",
					"output":148
				},
				{
					"input":139,
					"interpolation":"STEP",
					"output":149
				},
				{
					"input":139,
					"interpolation":"STEP",
					"output":150
				},
				{
					"input":139,
					"interpolation":"STEP",
					"output":151
				},
				{
					"input":137,
					"interpolation":"LINEAR",
					"output":152
				},
				{
					"input":139,
					"interpolation":"STEP",
					"output":153
				},
				{
					"input":139,
					"interpolation":"STEP",
					"output":154
				},
				{
					"input":137,
					"interpolation":"LINEAR",
					"output":155
				},
				{
					"input":139,
					"interpolation":"STEP",
					"output":156
				},
				{
					"input":139,
					"interpolation":"STEP",
					"output":157
				},
				{
					"input":139,
					"interpolation":"STEP",
					"output":158
				},
				{
					"input":139,
					"interpolation":"STEP",
					"output":159
				},
				{
					"input":139,
					"interpolation":"STEP",
					"output":160
				},
				{
					"input":139,
					"interpolation":"STEP",
					"output":161
				},
				{
					"input":139,
					"interpolation":"STEP",
					"output":162
				},
				{
					"input":139,
					"interpolation":"STEP",
					"output":163
				},
				{
					"input":137,
					"interpolation":"LINEAR",
					"output":164
				},
				{
					"input":139,
					"interpolation":"STEP",
					"output":165
				},
				{
					"input":139,
					"interpolation":"STEP",
					"output":166
				},
				{
					"input":139,
					"interpolation":"STEP",
					"output":167
				},
				{
					"input":139,
					"interpolation":"STEP",
					"output":168
				},
				{
					"input":139,
					"interpolation":"STEP",
					"output":169
				},
				{
					"input":139,
					"interpolation":"STEP",
					"output":170
				},
				{
					"input":139,
					"interpolation":"STEP",
					"output":171
				},
				{
					"input":139,
					"interpolation":"STEP",
					"output":172
				},
				{
					"input":139,
					"interpolation":"STEP",
					"output":173
				},
				{
					"input":139,
					"interpolation":"STEP",
					"output":174
				},
				{
					"input":139,
					"interpolation":"STEP",
					"output":175
				},
				{
					"input":139,
					"interpolation":"STEP",
					"output":176
				},
				{
					"input":139,
					"interpolation":"STEP",
					"output":177
				},
				{
					"input":139,
					"interpolation":"STEP",
					"output":178
				},
				{
					"input":139,
					"interpolation":"STEP",
					"output":179
				},
				{
					"input":139,
					"interpolation":"STEP",
					"output":180
				},
				{
					"input":139,
					"interpolation":"STEP",
					"output":181
				},
				{
					"input":139,
					"interpolation":"STEP",
					"output":182
				},
				{
					"input":139,
					"interpolation":"STEP",
					"output":183
				},
				{
					"input":139,
					"interpolation":"STEP",
					"output":184
				},
				{
					"input":139,
					"interpolation":"STEP",
					"output":185
				},
				{
					"input":139,
					"interpolation":"STEP",
					"output":186
				},
				{
					"input":139,
					"interpolation":"STEP",
					"output":187
				},
				{
					"input":139,
					"interpolation":"STEP",
					"output":188
				},
				{
					"input":139,
					"interpolation":"STEP",
					"output":189
				}
			]
		},
		{
			"channels":[
				{
					"sampler":0,
					"target":{
						"node":16,
						"path":"translation"
					}
				},
				{
					"sampler":1,
					"target":{
						"node":16,
						"path":"rotation"
					}
				},
				{
					"sampler":2,
					"target":{
						"node":16,
						"path":"scale"
					}
				},
				{
					"sampler":3,
					"target":{
						"node":9,
						"path":"translation"
					}
				},
				{
					"sampler":4,
					"target":{
						"node":9,
						"path":"rotation"
					}
				},
				{
					"sampler":5,
					"target":{
						"node":9,
						"path":"scale"
					}
				},
				{
					"sampler":6,
					"target":{
						"node":8,
						"path":"translation"
					}
				},
				{
					"sampler":7,
					"target":{
						"node":8,
						"path":"rotation"
					}
				},
				{
					"sampler":8,
					"target":{
						"node":8,
						"path":"scale"
					}
				},
				{
					"sampler":9,
					"target":{
						"node":1,
						"path":"translation"
					}
				},
				{
					"sampler":10,
					"target":{
						"node":1,
						"path":"rotation"
					}
				},
				{
					"sampler":11,
					"target":{
						"node":1,
						"path":"scale"
					}
				},
				{
					"sampler":12,
					"target":{
						"node":0,
						"path":"translation"
					}
				},
				{
					"sampler":13,
					"target":{
						"node":0,
						"path":"rotation"
					}
				},
				{
					"sampler":14,
					"target":{
						"node":0,
						"path":"scale"
					}
				},
				{
					"sampler":15,
					"target":{
						"node":4,
						"path":"translation"
					}
				},
				{
					"sampler":16,
					"target":{
						"node":4,
						"path":"rotation"
					}
				},
				{
					"sampler":17,
					"target":{
						"node":4,
						"path":"scale"
					}
				},
				{
					"sampler":18,
					"target":{
						"node":3,
						"path":"translation"
					}
				},
				{
					"sampler":19,
					"target":{
						"node":3,
						"path":"rotation"
					}
				},
				{
					"sampler":20,
					"target":{
						"node":3,
						"path":"scale"
					}
				},
				{
					"sampler":21,
					"target":{
						"node":2,
						"path":"translation"
					}
				},
				{
					"sampler":22,
					"target":{
						"node":2,
						"path":"rotation"
					}
				},
				{
					"sampler":23,
					"target":{
						"node":2,
						"path":"scale"
					}
				},
				{
					"sampler":24,
					"target":{
						"node":7,
						"path":"translation"
					}
				},
				{
					"sampler":25,
					"target":{
						"node":7,
						"path":"rotation"
					}
				},
				{
					"sampler":26,
					"target":{
						"node":7,
						"path":"scale"
					}
				},
				{
					"sampler":27,
					"target":{
						"node":6,
						"path":"translation"
					}
				},
				{
					"sampler":28,
					"target":{
						"node":6,
						"path":"rotation"
					}
				},
				{
					"sampler":29,
					"target":{
						"node":6,
						"path":"scale"
					}
				},
				{
					"sampler":30,
					"target":{
						"node":5,
						"path":"translation"
					}
				},
				{
					"sampler":31,
					"target":{
						"node":5,
						"path":"rotation"
					}
				},
				{
					"sampler":32,
					"target":{
						"node":5,
						"path":"scale"
					}
				},
				{
					"sampler":33,
					"target":{
						"node":12,
						"path":"translation"
					}
				},
				{
					"sampler":34,
					"target":{
						"node":12,
						"path":"rotation"
					}
				},
				{
					"sampler":35,
					"target":{
						"node":12,
						"path":"scale"
					}
				},
				{
					"sampler":36,
					"target":{
						"node":11,
						"path":"translation"
					}
				},
				{
					"sampler":37,
					"target":{
						"node":11,
						"path":"rotation"
					}
				},
				{
					"sampler":38,
					"target":{
						"node":11,
						"path":"scale"
					}
				},
				{
					"sampler":39,
					"target":{
						"node":10,
						"path":"translation"
					}
				},
				{
					"sampler":40,
					"target":{
						"node":10,
						"path":"rotation"
					}
				},
				{
					"sampler":41,
					"target":{
						"node":10,
						"path":"scale"
					}
				},
				{
					"sampler":42,
					"target":{
						"node":15,
						"path":"translation"
					}
				},
				{
					"sampler":43,
					"target":{
						"node":15,
						"path":"rotation"
					}
				},
				{
					"sampler":44,
					"target":{
						"node":15,
						"path":"scale"
					}
				},
				{
					"sampler":45,
					"target":{
						"node":14,
						"path":"translation"
					}
				},
				{
					"sampler":46,
					"target":{
						"node":14,
						"path":"rotation"
					}
				},
				{
					"sampler":47,
					"target":{
						"node":14,
						"path":"scale"
					}
				},
				{
					"sampler":48,
					"target":{
						"node":13,
						"path":"translation"
					}
				},
				{
					"sampler":49,
					"target":{
						"node":13,
						"path":"rotation"
					}
				},
				{
					"sampler":50,
					"target":{
						"node":13,
						"path":"scale"
					}
				}
			],
			"name":"walk",
			"samplers":[
				{
					"input":190,
					"interpolation":"LINEAR",
					"output":191
				},
				{
					"input":190,
					"interpolation":"LINEAR",
					"output":192
				},
				{
					"input":193,
					"interpolation":"STEP",
					"output":194
				},
				{
					"input":193,
					"interpolation":"STEP",
					"output":195
				},
				{
					"input":193,
					"interpolation":"STEP",
					"output":196
				},
				{
					"input":193,
					"interpolation":"STEP",
					"output":197
				},
				{
					"input":193,
					"interpolation":"STEP",
					"output":198
				},
				{
					"input":190,
					"interpolation":"LINEAR",
					"output":199
				},
				{
					"input":193,
					"interpolation":"STEP",
					"output":200
				},
				{
					"input":193,
					"interpolation":"STEP",
					"output":201
				},
				{
					"input":193,
					"interpolation":"STEP",
					"output":202
				},
				{
					"input":193,
					"interpolation":"STEP",
					"output":203
				},
				{
					"input":193,
					"interpolation":"STEP",
					"output":204
				},
				{
					"input":193,
					"interpolation":"STEP",
					"output":205
				},
				{
					"input":193,
					"interpolation":"STEP",
					"output":206
				},
				{
					"input":193,
					"interpolation":"STEP",
					"output":207
				},
				{
					"input":190,
					"interpolation":"LINEAR",
					"output":208
				},
				{
					"input":193,
					"interpolation":"STEP",
					"output":209
				},
				{
					"input":193,
					"interpolation":"STEP",
					"output":210
				},
				{
					"input":193,
					"interpolation":"STEP",
					"output":211
				},
				{
					"input":193,
					"interpolation":"STEP",
					"output":212
				},
				{
					"input":193,
					"interpolation":"STEP",
					"output":213
				},
				{
					"input":193,
					"interpolation":"STEP",
					"output":214
				},
				{
					"input":193,
					"interpolation":"STEP",
					"output":215
				},
				{
					"input":193,
					"interpolation":"STEP",
					"output":216
				},
				{
					"input":190,
					"interpolation":"LINEAR",
					"output":217
				},
				{
					"input":193,
					"interpolation":"STEP",
					"output":218
				},
				{
					"input":193,
					"interpolation":"STEP",
					"output":219
				},
				{
					"input":193,
					"interpolation":"STEP",
					"output":220
				},
				{
					"input":193,
					"interpolation":"STEP",
					"output":221
				},
				{
					"input":193,
					"interpolation":"STEP",
					"output":222
				},
				{
					"input":193,
					"interpolation":"STEP",
					"output":223
				},
				{
					"input":193,
					"interpolation":"STEP",
					"output":224
				},
				{
					"input":193,
					"interpolation":"STEP",
					"output":225
				},
				{
					"input":190,
					"interpolation":"LINEAR",
					"output":226
				},
				{
					"input":193,
					"interpolation":"STEP",
					"output":227
				},
				{
					"input":193,
					"interpolation":"STEP",
					"output":228
				},
				{
					"input":190,
					"interpolation":"LINEAR",
					"output":229
				},
				{
					"input":193,
					"interpolation":"STEP",
					"output":230
				},
				{
					"input":193,
					"interpolation":"STEP",
					"output":231
				},
				{
					"input":190,
					"interpolation":"LINEAR",
					"output":232
				},
				{
					"input":193,
					"interpolation":"STEP",
					"output":233
				},
				{
					"input":193,
					"interpolation":"STEP",
					"output":234
				},
				{
					"input":190,
					"interpolation":"LINEAR",
					"output":235
				},
				{
					"input":193,
					"interpolation":"STEP",
					"output":236
				},
				{
					"input":193,
					"interpolation":"STEP",
					"output":237
				},
				{
					"input":190,
					"interpolation":"LINEAR",
					"output":238
				},
				{
					"input":193,
					"interpolation":"STEP",
					"output":239
				},
				{
					"input":193,
					"interpolation":"STEP",
					"output":240
				},
				{
					"input":190,
					"interpolation":"LINEAR",
					"output":241
				},
				{
					"input":193,
					"interpolation":"STEP",
					"output":242
				}
			]
		}
	],
	"materials":[
		{
			"name":"skin",
			"normalTexture":{
				"index":0,
				"scale":0.4000000059604645
			},
			"pbrMetallicRoughness":{
				"baseColorFactor":[
					0.9551045894622803,
					0.7105664610862732,
					0.5382355451583862,
					1
				],
				"metallicFactor":0,
				"roughnessFactor":0.550000011920929
			}
		},
		{
			"extensions":{
				"KHR_materials_sheen":{
					"sheenColorFactor":[
						1.0,
						1.0,
						1.0
					],
					"sheenRoughnessFactor":0.5
				}
			},
			"name":"hair",
			"normalTexture":{
				"index":1,
				"scale":0.800000011920929
			},
			"pbrMetallicRoughness":{
				"baseColorFactor":[
					0.9551045894622803,
					0.7484140992164612,
					0.21404114365577698,
					1
				],
				"metallicFactor":0,
				"roughnessFactor":0.44999998807907104
			}
		},
		{
			"extensions":{
				"KHR_materials_sheen":{
					"sheenColorFactor":[
						1.0,
						1.0,
						1.0
					],
					"sheenRoughnessFactor":0.5
				}
			},
			"name":"outfit",
			"normalTexture":{
				"index":2,
				"scale":0.6000000238418579
			},
			"pbrMetallicRoughness":{
				"baseColorFactor":[
					0.8900054097175598,
					0.8900054097175598,
					0.8900054097175598,
					1
				],
				"metallicFactor":0,
				"roughnessFactor":0.75
			}
		},
		{
			"name":"outfit2",
			"normalTexture":{
				"index":3,
				"scale":0.4000000059604645
			},
			"pbrMetallicRoughness":{
				"baseColorFactor":[
					0.07323895394802094,
					0.13286831974983215,
					0.6038273572921753,
					1
				],
				"metallicFactor":0,
				"roughnessFactor":0.6000000238418579
			}
		},
		{
			"name":"pants",
			"normalTexture":{
				"index":4,
				"scale":0.6000000238418579
			},
			"pbrMetallicRoughness":{
				"baseColorFactor":[
					0.3997533321380615,
					0.3997533321380615,
					0.3997533321380615,
					1
				],
				"metallicFactor":0,
				"roughnessFactor":0.800000011920929
			}
		},
		{
			"extensions":{
				"KHR_materials_clearcoat":{
					"clearcoatFactor":0.30000001192092896
				}
			},
			"name":"boots",
			"normalTexture":{
				"index":5,
				"scale":0.800000011920929
			},
			"pbrMetallicRoughness":{
				"baseColorFactor":[
					0.0134117491543293,
					0.010022825561463833,
					0.010022825561463833,
					1
				],
				"metallicFactor":0,
				"roughnessFactor":0.44999998807907104
			}
		},
		{
			"name":"eye_white",
			"pbrMetallicRoughness":{
				"baseColorFactor":[
					0.8900054097175598,
					0.8900054097175598,
					0.8900054097175598,
					1
				],
				"metallicFactor":0,
				"roughnessFactor":0.20000000298023224
			}
		},
		{
			"emissiveFactor":[
				0.011763989275256348,
				0.011763989275256348,
				0.019862860485428957
			],
			"name":"iris",
			"pbrMetallicRoughness":{
				"baseColorFactor":[
					0.01960664801299572,
					0.01960664801299572,
					0.03310476616024971,
					1
				],
				"metallicFactor":0,
				"roughnessFactor":0.15000000596046448
			}
		},
		{
			"name":"pupil",
			"pbrMetallicRoughness":{
				"baseColorFactor":[
					0.0015479875728487968,
					0.0015479875728487968,
					0.0023219813592731953,
					1
				],
				"metallicFactor":0,
				"roughnessFactor":0.10000000149011612
			}
		},
		{
			"name":"lips",
			"pbrMetallicRoughness":{
				"baseColorFactor":[
					0.4283095896244049,
					0.32088616490364075,
					0.2448643445968628,
					1
				],
				"metallicFactor":0,
				"roughnessFactor":0.4000000059604645
			}
		},
		{
			"name":"buckle",
			"pbrMetallicRoughness":{
				"baseColorFactor":[
					0.6920710802078247,
					0.4479884207248688,
					0.07323895394802094,
					1
				],
				"metallicFactor":0.8999999761581421,
				"roughnessFactor":0.30000001192092896
			}
		},
		{
			"name":"blade",
			"normalTexture":{
				"index":6,
				"scale":0.30000001192092896
			},
			"pbrMetallicRoughness":{
				"baseColorFactor":[
					0.7484140992164612,
					0.7874122858047485,
					0.8900054097175598,
					1
				],
				"metallicFactor":0.550000011920929,
				"roughnessFactor":0.2199999988079071
			}
		},
		{
			"name":"handle",
			"normalTexture":{
				"index":7,
				"scale":0.6000000238418579
			},
			"pbrMetallicRoughness":{
				"baseColorFactor":[
					0.0134117491543293,
					0.007194409146904945,
					0.004896310158073902,
					1
				],
				"metallicFactor":0,
				"roughnessFactor":0.6000000238418579
			}
		},
		{
			"name":"guard",
			"pbrMetallicRoughness":{
				"baseColorFactor":[
					0.6038273572921753,
					0.38005632162094116,
					0.05087608844041824,
					1
				],
				"metallicFactor":0.8999999761581421,
				"roughnessFactor":0.30000001192092896
			}
		}
	],
	"meshes":[
		{
			"name":"leon",
			"primitives":[
				{
					"attributes":{
						"POSITION":0,
						"NORMAL":1,
						"TEXCOORD_0":2,
						"JOINTS_0":3,
						"WEIGHTS_0":4
					},
					"indices":5,
					"material":0
				},
				{
					"attributes":{
						"POSITION":6,
						"NORMAL":7,
						"TEXCOORD_0":8,
						"JOINTS_0":9,
						"WEIGHTS_0":10
					},
					"indices":11,
					"material":1
				},
				{
					"attributes":{
						"POSITION":12,
						"NORMAL":13,
						"TEXCOORD_0":14,
						"JOINTS_0":15,
						"WEIGHTS_0":16
					},
					"indices":17,
					"material":2
				},
				{
					"attributes":{
						"POSITION":18,
						"NORMAL":19,
						"TEXCOORD_0":20,
						"JOINTS_0":21,
						"WEIGHTS_0":22
					},
					"indices":23,
					"material":3
				},
				{
					"attributes":{
						"POSITION":24,
						"NORMAL":25,
						"TEXCOORD_0":26,
						"JOINTS_0":27,
						"WEIGHTS_0":28
					},
					"indices":29,
					"material":4
				},
				{
					"attributes":{
						"POSITION":30,
						"NORMAL":31,
						"TEXCOORD_0":32,
						"JOINTS_0":33,
						"WEIGHTS_0":34
					},
					"indices":35,
					"material":5
				},
				{
					"attributes":{
						"POSITION":36,
						"NORMAL":37,
						"TEXCOORD_0":38,
						"JOINTS_0":39,
						"WEIGHTS_0":40
					},
					"indices":41,
					"material":6
				},
				{
					"attributes":{
						"POSITION":42,
						"NORMAL":43,
						"TEXCOORD_0":44,
						"JOINTS_0":45,
						"WEIGHTS_0":46
					},
					"indices":47,
					"material":7
				},
				{
					"attributes":{
						"POSITION":48,
						"NORMAL":49,
						"TEXCOORD_0":50,
						"JOINTS_0":51,
						"WEIGHTS_0":52
					},
					"indices":53,
					"material":8
				},
				{
					"attributes":{
						"POSITION":54,
						"NORMAL":55,
						"TEXCOORD_0":56,
						"JOINTS_0":57,
						"WEIGHTS_0":58
					},
					"indices":59,
					"material":9
				},
				{
					"attributes":{
						"POSITION":60,
						"NORMAL":61,
						"TEXCOORD_0":62,
						"JOINTS_0":63,
						"WEIGHTS_0":64
					},
					"indices":65,
					"material":10
				},
				{
					"attributes":{
						"POSITION":66,
						"NORMAL":67,
						"TEXCOORD_0":68,
						"JOINTS_0":69,
						"WEIGHTS_0":70
					},
					"indices":71,
					"material":11
				},
				{
					"attributes":{
						"POSITION":72,
						"NORMAL":73,
						"TEXCOORD_0":74,
						"JOINTS_0":75,
						"WEIGHTS_0":76
					},
					"indices":77,
					"material":12
				},
				{
					"attributes":{
						"POSITION":78,
						"NORMAL":79,
						"TEXCOORD_0":80,
						"JOINTS_0":81,
						"WEIGHTS_0":82
					},
					"indices":65,
					"material":13
				}
			]
		}
	],
	"textures":[
		{
			"sampler":0,
			"source":0
		},
		{
			"sampler":0,
			"source":1
		},
		{
			"sampler":0,
			"source":2
		},
		{
			"sampler":0,
			"source":2
		},
		{
			"sampler":0,
			"source":2
		},
		{
			"sampler":0,
			"source":3
		},
		{
			"sampler":0,
			"source":4
		},
		{
			"sampler":0,
			"source":3
		}
	],
	"images":[
		{
			"mimeType":"image/png",
			"name":"N_skin",
			"uri":"texturas/N_skin.png"
		},
		{
			"mimeType":"image/png",
			"name":"N_hair",
			"uri":"texturas/N_hair.png"
		},
		{
			"mimeType":"image/png",
			"name":"N_cloth",
			"uri":"texturas/N_cloth.png"
		},
		{
			"mimeType":"image/png",
			"name":"N_leather",
			"uri":"texturas/N_leather.png"
		},
		{
			"mimeType":"image/png",
			"name":"N_metal",
			"uri":"texturas/N_metal.png"
		}
	],
	"skins":[
		{
			"inverseBindMatrices":83,
			"joints":[
				16,
				9,
				8,
				1,
				0,
				4,
				3,
				2,
				7,
				6,
				5,
				12,
				11,
				10,
				15,
				14,
				13
			],
			"name":"leon_rig"
		}
	],
	"accessors":[
		{
			"bufferView":0,
			"componentType":5126,
			"count":1437,
			"max":[
				0.3528943955898285,
				1.962399959564209,
				0.11793381720781326
			],
			"min":[
				-0.3528943955898285,
				0.8629147410392761,
				-0.12768439948558807
			],
			"type":"VEC3"
		},
		{
			"bufferView":1,
			"componentType":5126,
			"count":1437,
			"type":"VEC3"
		},
		{
			"bufferView":2,
			"componentType":5126,
			"count":1437,
			"type":"VEC2"
		},
		{
			"bufferView":3,
			"componentType":5121,
			"count":1437,
			"type":"VEC4"
		},
		{
			"bufferView":4,
			"componentType":5126,
			"count":1437,
			"type":"VEC4"
		},
		{
			"bufferView":5,
			"componentType":5123,
			"count":5868,
			"type":"SCALAR"
		},
		{
			"bufferView":6,
			"componentType":5126,
			"count":2940,
			"max":[
				0.14964115619659424,
				1.9931910037994385,
				0.21990881860256195
			],
			"min":[
				-0.14380739629268646,
				1.0719114542007446,
				-0.13210950791835785
			],
			"type":"VEC3"
		},
		{
			"bufferView":7,
			"componentType":5126,
			"count":2940,
			"type":"VEC3"
		},
		{
			"bufferView":8,
			"componentType":5126,
			"count":2940,
			"type":"VEC2"
		},
		{
			"bufferView":9,
			"componentType":5121,
			"count":2940,
			"type":"VEC4"
		},
		{
			"bufferView":10,
			"componentType":5126,
			"count":2940,
			"type":"VEC4"
		},
		{
			"bufferView":11,
			"componentType":5123,
			"count":10392,
			"type":"SCALAR"
		},
		{
			"bufferView":12,
			"componentType":5126,
			"count":1461,
			"max":[
				0.3571087718009949,
				1.6216338872909546,
				0.12338922172784805
			],
			"min":[
				-0.3571087718009949,
				1.0227553844451904,
				-0.12288814038038254
			],
			"type":"VEC3"
		},
		{
			"bufferView":13,
			"componentType":5126,
			"count":1461,
			"type":"VEC3"
		},
		{
			"bufferView":14,
			"componentType":5126,
			"count":1461,
			"type":"VEC2"
		},
		{
			"bufferView":15,
			"componentType":5121,
			"count":1461,
			"type":"VEC4"
		},
		{
			"bufferView":16,
			"componentType":5126,
			"count":1461,
			"type":"VEC4"
		},
		{
			"bufferView":17,
			"componentType":5123,
			"count":6648,
			"type":"SCALAR"
		},
		{
			"bufferView":18,
			"componentType":5126,
			"count":65,
			"max":[
				0.1569206714630127,
				1.1351046562194824,
				0.12522439658641815
			],
			"min":[
				-0.1569206714630127,
				0.9639427065849304,
				-0.12670059502124786
			],
			"type":"VEC3"
		},
		{
			"bufferView":19,
			"componentType":5126,
			"count":65,
			"type":"VEC3"
		},
		{
			"bufferView":20,
			"componentType":5126,
			"count":65,
			"type":"VEC2"
		},
		{
			"bufferView":21,
			"componentType":5121,
			"count":65,
			"type":"VEC4"
		},
		{
			"bufferView":22,
			"componentType":5126,
			"count":65,
			"type":"VEC4"
		},
		{
			"bufferView":23,
			"componentType":5123,
			"count":192,
			"type":"SCALAR"
		},
		{
			"bufferView":24,
			"componentType":5126,
			"count":977,
			"max":[
				0.35414159297943115,
				1.031027913093567,
				0.12192118167877197
			],
			"min":[
				-0.35414156317710876,
				0.3300668001174927,
				-0.12387771159410477
			],
			"type":"VEC3"
		},
		{
			"bufferView":25,
			"componentType":5126,
			"count":977,
			"type":"VEC3"
		},
		{
			"bufferView":26,
			"componentType":5126,
			"count":977,
			"type":"VEC2"
		},
		{
			"bufferView":27,
			"componentType":5121,
			"count":977,
			"type":"VEC4"
		},
		{
			"bufferView":28,
			"componentType":5126,
			"count":977,
			"type":"VEC4"
		},
		{
			"bufferView":29,
			"componentType":5123,
			"count":4332,
			"type":"SCALAR"
		},
		{
			"bufferView":30,
			"componentType":5126,
			"count":1034,
			"max":[
				0.1830880343914032,
				0.3370917737483978,
				0.08742524683475494
			],
			"min":[
				-0.1830880492925644,
				0.00835762545466423,
				-0.15413285791873932
			],
			"type":"VEC3"
		},
		{
			"bufferView":31,
			"componentType":5126,
			"count":1034,
			"type":"VEC3"
		},
		{
			"bufferView":32,
			"componentType":5126,
			"count":1034,
			"type":"VEC2"
		},
		{
			"bufferView":33,
			"componentType":5121,
			"count":1034,
			"type":"VEC4"
		},
		{
			"bufferView":34,
			"componentType":5126,
			"count":1034,
			"type":"VEC4"
		},
		{
			"bufferView":35,
			"componentType":5123,
			"count":4608,
			"type":"SCALAR"
		},
		{
			"bufferView":36,
			"componentType":5126,
			"count":304,
			"max":[
				0.05609999969601631,
				1.8551499843597412,
				-0.07699999958276749
			],
			"min":[
				-0.05609999969601631,
				1.8298499584197998,
				-0.09679999947547913
			],
			"type":"VEC3"
		},
		{
			"bufferView":37,
			"componentType":5126,
			"count":304,
			"type":"VEC3"
		},
		{
			"bufferView":38,
			"componentType":5126,
			"count":304,
			"type":"VEC2"
		},
		{
			"bufferView":39,
			"componentType":5121,
			"count":304,
			"type":"VEC4"
		},
		{
			"bufferView":40,
			"componentType":5126,
			"count":304,
			"type":"VEC4"
		},
		{
			"bufferView":41,
			"componentType":5123,
			"count":1152,
			"type":"SCALAR"
		},
		{
			"bufferView":42,
			"componentType":5126,
			"count":220,
			"max":[
				0.047849997878074646,
				1.8532800674438477,
				-0.08934227377176285
			],
			"min":[
				-0.047849997878074646,
				1.831719994544983,
				-0.09875773638486862
			],
			"type":"VEC3"
		},
		{
			"bufferView":43,
			"componentType":5126,
			"count":220,
			"type":"VEC3"
		},
		{
			"bufferView":44,
			"componentType":5126,
			"count":220,
			"type":"VEC2"
		},
		{
			"bufferView":45,
			"componentType":5121,
			"count":220,
			"type":"VEC4"
		},
		{
			"bufferView":46,
			"componentType":5126,
			"count":220,
			"type":"VEC4"
		},
		{
			"bufferView":47,
			"componentType":5123,
			"count":720,
			"type":"SCALAR"
		},
		{
			"bufferView":48,
			"componentType":5126,
			"count":160,
			"max":[
				0.041793882846832275,
				1.8474500179290771,
				-0.09558767825365067
			],
			"min":[
				-0.041793882846832275,
				1.8375500440597534,
				-0.09977232664823532
			],
			"type":"VEC3"
		},
		{
			"bufferView":49,
			"componentType":5126,
			"count":160,
			"type":"VEC3"
		},
		{
			"bufferView":50,
			"componentType":5126,
			"count":160,
			"type":"VEC2"
		},
		{
			"bufferView":51,
			"componentType":5121,
			"count":160,
			"type":"VEC4"
		},
		{
			"bufferView":52,
			"componentType":5126,
			"count":160,
			"type":"VEC4"
		},
		{
			"bufferView":53,
			"componentType":5123,
			"count":480,
			"type":"SCALAR"
		},
		{
			"bufferView":54,
			"componentType":5126,
			"count":98,
			"max":[
				0.020899999886751175,
				1.7682499885559082,
				-0.08549227565526962
			],
			"min":[
				-0.020899999886751175,
				1.7583500146865845,
				-0.0949077382683754
			],
			"type":"VEC3"
		},
		{
			"bufferView":55,
			"componentType":5126,
			"count":98,
			"type":"VEC3"
		},
		{
			"bufferView":56,
			"componentType":5126,
			"count":98,
			"type":"VEC2"
		},
		{
			"bufferView":57,
			"componentType":5121,
			"count":98,
			"type":"VEC4"
		},
		{
			"bufferView":58,
			"componentType":5126,
			"count":98,
			"type":"VEC4"
		},
		{
			"bufferView":59,
			"componentType":5123,
			"count":360,
			"type":"SCALAR"
		},
		{
			"bufferView":60,
			"componentType":5126,
			"count":24,
			"max":[
				0.027500001713633537,
				1.0670000314712524,
				-0.10339999943971634
			],
			"min":[
				-0.027500001713633537,
				1.0230000019073486,
				-0.11659999936819077
			],
			"type":"VEC3"
		},
		{
			"bufferView":61,
			"componentType":5126,
			"count":24,
			"type":"VEC3"
		},
		{
			"bufferView":62,
			"componentType":5126,
			"count":24,
			"type":"VEC2"
		},
		{
			"bufferView":63,
			"componentType":5121,
			"count":24,
			"type":"VEC4"
		},
		{
			"bufferView":64,
			"componentType":5126,
			"count":24,
			"type":"VEC4"
		},
		{
			"bufferView":65,
			"componentType":5123,
			"count":36,
			"type":"SCALAR"
		},
		{
			"bufferView":66,
			"componentType":5126,
			"count":108,
			"max":[
				0.33748000860214233,
				0.8664579391479492,
				-0.0975925624370575
			],
			"min":[
				0.3242799937725067,
				0.4705791473388672,
				-0.9373241066932678
			],
			"type":"VEC3"
		},
		{
			"bufferView":67,
			"componentType":5126,
			"count":108,
			"type":"VEC3"
		},
		{
			"bufferView":68,
			"componentType":5126,
			"count":108,
			"type":"VEC2"
		},
		{
			"bufferView":69,
			"componentType":5121,
			"count":108,
			"type":"VEC4"
		},
		{
			"bufferView":70,
			"componentType":5126,
			"count":108,
			"type":"VEC4"
		},
		{
			"bufferView":71,
			"componentType":5123,
			"count":156,
			"type":"SCALAR"
		},
		{
			"bufferView":72,
			"componentType":5126,
			"count":42,
			"max":[
				0.3484800159931183,
				0.9411899447441101,
				0.0800337865948677
			],
			"min":[
				0.31327998638153076,
				0.8368660807609558,
				-0.09490924328565598
			],
			"type":"VEC3"
		},
		{
			"bufferView":73,
			"componentType":5126,
			"count":42,
			"type":"VEC3"
		},
		{
			"bufferView":74,
			"componentType":5126,
			"count":42,
			"type":"VEC2"
		},
		{
			"bufferView":75,
			"componentType":5121,
			"count":42,
			"type":"VEC4"
		},
		{
			"bufferView":76,
			"componentType":5126,
			"count":42,
			"type":"VEC4"
		},
		{
			"bufferView":77,
			"componentType":5123,
			"count":96,
			"type":"SCALAR"
		},
		{
			"bufferView":78,
			"componentType":5126,
			"count":24,
			"max":[
				0.4408800005912781,
				0.8649019002914429,
				-0.08396795392036438
			],
			"min":[
				0.22088000178337097,
				0.8319019079208374,
				-0.11146795749664307
			],
			"type":"VEC3"
		},
		{
			"bufferView":79,
			"componentType":5126,
			"count":24,
			"type":"VEC3"
		},
		{
			"bufferView":80,
			"componentType":5126,
			"count":24,
			"type":"VEC2"
		},
		{
			"bufferView":81,
			"componentType":5121,
			"count":24,
			"type":"VEC4"
		},
		{
			"bufferView":82,
			"componentType":5126,
			"count":24,
			"type":"VEC4"
		},
		{
			"bufferView":83,
			"componentType":5126,
			"count":17,
			"type":"MAT4"
		},
		{
			"bufferView":84,
			"componentType":5126,
			"count":2,
			"max":[
				0.6
			],
			"min":[
				0
			],
			"type":"SCALAR"
		},
		{
			"bufferView":85,
			"componentType":5126,
			"count":2,
			"type":"VEC3"
		},
		{
			"bufferView":86,
			"componentType":5126,
			"count":2,
			"type":"VEC4"
		},
		{
			"bufferView":87,
			"componentType":5126,
			"count":2,
			"type":"VEC3"
		},
		{
			"bufferView":88,
			"componentType":5126,
			"count":2,
			"type":"VEC3"
		},
		{
			"bufferView":89,
			"componentType":5126,
			"count":2,
			"type":"VEC4"
		},
		{
			"bufferView":90,
			"componentType":5126,
			"count":2,
			"type":"VEC3"
		},
		{
			"bufferView":91,
			"componentType":5126,
			"count":2,
			"type":"VEC3"
		},
		{
			"bufferView":92,
			"componentType":5126,
			"count":19,
			"max":[
				0.6
			],
			"min":[
				0
			],
			"type":"SCALAR"
		},
		{
			"bufferView":93,
			"componentType":5126,
			"count":19,
			"type":"VEC4"
		},
		{
			"bufferView":94,
			"componentType":5126,
			"count":2,
			"type":"VEC3"
		},
		{
			"bufferView":95,
			"componentType":5126,
			"count":2,
			"type":"VEC3"
		},
		{
			"bufferView":96,
			"componentType":5126,
			"count":2,
			"type":"VEC4"
		},
		{
			"bufferView":97,
			"componentType":5126,
			"count":2,
			"type":"VEC3"
		},
		{
			"bufferView":98,
			"componentType":5126,
			"count":2,
			"type":"VEC3"
		},
		{
			"bufferView":99,
			"componentType":5126,
			"count":2,
			"type":"VEC4"
		},
		{
			"bufferView":100,
			"componentType":5126,
			"count":2,
			"type":"VEC3"
		},
		{
			"bufferView":101,
			"componentType":5126,
			"count":2,
			"type":"VEC3"
		},
		{
			"bufferView":102,
			"componentType":5126,
			"count":19,
			"type":"VEC4"
		},
		{
			"bufferView":103,
			"componentType":5126,
			"count":2,
			"type":"VEC3"
		},
		{
			"bufferView":104,
			"componentType":5126,
			"count":2,
			"type":"VEC3"
		},
		{
			"bufferView":105,
			"componentType":5126,
			"count":19,
			"type":"VEC4"
		},
		{
			"bufferView":106,
			"componentType":5126,
			"count":2,
			"type":"VEC3"
		},
		{
			"bufferView":107,
			"componentType":5126,
			"count":2,
			"type":"VEC3"
		},
		{
			"bufferView":108,
			"componentType":5126,
			"count":2,
			"type":"VEC4"
		},
		{
			"bufferView":109,
			"componentType":5126,
			"count":2,
			"type":"VEC3"
		},
		{
			"bufferView":110,
			"componentType":5126,
			"count":2,
			"type":"VEC3"
		},
		{
			"bufferView":111,
			"componentType":5126,
			"count":19,
			"type":"VEC4"
		},
		{
			"bufferView":112,
			"componentType":5126,
			"count":2,
			"type":"VEC3"
		},
		{
			"bufferView":113,
			"componentType":5126,
			"count":2,
			"type":"VEC3"
		},
		{
			"bufferView":114,
			"componentType":5126,
			"count":2,
			"type":"VEC4"
		},
		{
			"bufferView":115,
			"componentType":5126,
			"count":2,
			"type":"VEC3"
		},
		{
			"bufferView":116,
			"componentType":5126,
			"count":2,
			"type":"VEC3"
		},
		{
			"bufferView":117,
			"componentType":5126,
			"count":2,
			"type":"VEC4"
		},
		{
			"bufferView":118,
			"componentType":5126,
			"count":2,
			"type":"VEC3"
		},
		{
			"bufferView":119,
			"componentType":5126,
			"count":2,
			"type":"VEC3"
		},
		{
			"bufferView":120,
			"componentType":5126,
			"count":19,
			"type":"VEC4"
		},
		{
			"bufferView":121,
			"componentType":5126,
			"count":2,
			"type":"VEC3"
		},
		{
			"bufferView":122,
			"componentType":5126,
			"count":2,
			"type":"VEC3"
		},
		{
			"bufferView":123,
			"componentType":5126,
			"count":2,
			"type":"VEC4"
		},
		{
			"bufferView":124,
			"componentType":5126,
			"count":2,
			"type":"VEC3"
		},
		{
			"bufferView":125,
			"componentType":5126,
			"count":2,
			"type":"VEC3"
		},
		{
			"bufferView":126,
			"componentType":5126,
			"count":2,
			"type":"VEC4"
		},
		{
			"bufferView":127,
			"componentType":5126,
			"count":2,
			"type":"VEC3"
		},
		{
			"bufferView":128,
			"componentType":5126,
			"count":2,
			"type":"VEC3"
		},
		{
			"bufferView":129,
			"componentType":5126,
			"count":19,
			"type":"VEC4"
		},
		{
			"bufferView":130,
			"componentType":5126,
			"count":2,
			"type":"VEC3"
		},
		{
			"bufferView":131,
			"componentType":5126,
			"count":2,
			"type":"VEC3"
		},
		{
			"bufferView":132,
			"componentType":5126,
			"count":2,
			"type":"VEC4"
		},
		{
			"bufferView":133,
			"componentType":5126,
			"count":2,
			"type":"VEC3"
		},
		{
			"bufferView":134,
			"componentType":5126,
			"count":2,
			"type":"VEC3"
		},
		{
			"bufferView":135,
			"componentType":5126,
			"count":2,
			"type":"VEC4"
		},
		{
			"bufferView":136,
			"componentType":5126,
			"count":2,
			"type":"VEC3"
		},
		{
			"bufferView":137,
			"componentType":5126,
			"count":61,
			"max":[
				2
			],
			"min":[
				0
			],
			"type":"SCALAR"
		},
		{
			"bufferView":138,
			"componentType":5126,
			"count":61,
			"type":"VEC3"
		},
		{
			"bufferView":139,
			"componentType":5126,
			"count":2,
			"max":[
				2
			],
			"min":[
				0
			],
			"type":"SCALAR"
		},
		{
			"bufferView":140,
			"componentType":5126,
			"count":2,
			"type":"VEC4"
		},
		{
			"bufferView":141,
			"componentType":5126,
			"count":2,
			"type":"VEC3"
		},
		{
			"bufferView":142,
			"componentType":5126,
			"count":2,
			"type":"VEC3"
		},
		{
			"bufferView":143,
			"componentType":5126,
			"count":2,
			"type":"VEC4"
		},
		{
			"bufferView":144,
			"componentType":5126,
			"count":2,
			"type":"VEC3"
		},
		{
			"bufferView":145,
			"componentType":5126,
			"count":2,
			"type":"VEC3"
		},
		{
			"bufferView":146,
			"componentType":5126,
			"count":61,
			"type":"VEC4"
		},
		{
			"bufferView":147,
			"componentType":5126,
			"count":2,
			"type":"VEC3"
		},
		{
			"bufferView":148,
			"componentType":5126,
			"count":2,
			"type":"VEC3"
		},
		{
			"bufferView":149,
			"componentType":5126,
			"count":2,
			"type":"VEC4"
		},
		{
			"bufferView":150,
			"componentType":5126,
			"count":2,
			"type":"VEC3"
		},
		{
			"bufferView":151,
			"componentType":5126,
			"count":2,
			"type":"VEC3"
		},
		{
			"bufferView":152,
			"componentType":5126,
			"count":61,
			"type":"VEC4"
		},
		{
			"bufferView":153,
			"componentType":5126,
			"count":2,
			"type":"VEC3"
		},
		{
			"bufferView":154,
			"componentType":5126,
			"count":2,
			"type":"VEC3"
		},
		{
			"bufferView":155,
			"componentType":5126,
			"count":61,
			"type":"VEC4"
		},
		{
			"bufferView":156,
			"componentType":5126,
			"count":2,
			"type":"VEC3"
		},
		{
			"bufferView":157,
			"componentType":5126,
			"count":2,
			"type":"VEC3"
		},
		{
			"bufferView":158,
			"componentType":5126,
			"count":2,
			"type":"VEC4"
		},
		{
			"bufferView":159,
			"componentType":5126,
			"count":2,
			"type":"VEC3"
		},
		{
			"bufferView":160,
			"componentType":5126,
			"count":2,
			"type":"VEC3"
		},
		{
			"bufferView":161,
			"componentType":5126,
			"count":2,
			"type":"VEC4"
		},
		{
			"bufferView":162,
			"componentType":5126,
			"count":2,
			"type":"VEC3"
		},
		{
			"bufferView":163,
			"componentType":5126,
			"count":2,
			"type":"VEC3"
		},
		{
			"bufferView":164,
			"componentType":5126,
			"count":61,
			"type":"VEC4"
		},
		{
			"bufferView":165,
			"componentType":5126,
			"count":2,
			"type":"VEC3"
		},
		{
			"bufferView":166,
			"componentType":5126,
			"count":2,
			"type":"VEC3"
		},
		{
			"bufferView":167,
			"componentType":5126,
			"count":2,
			"type":"VEC4"
		},
		{
			"bufferView":168,
			"componentType":5126,
			"count":2,
			"type":"VEC3"
		},
		{
			"bufferView":169,
			"componentType":5126,
			"count":2,
			"type":"VEC3"
		},
		{
			"bufferView":170,
			"componentType":5126,
			"count":2,
			"type":"VEC4"
		},
		{
			"bufferView":171,
			"componentType":5126,
			"count":2,
			"type":"VEC3"
		},
		{
			"bufferView":172,
			"componentType":5126,
			"count":2,
			"type":"VEC3"
		},
		{
			"bufferView":173,
			"componentType":5126,
			"count":2,
			"type":"VEC4"
		},
		{
			"bufferView":174,
			"componentType":5126,
			"count":2,
			"type":"VEC3"
		},
		{
			"bufferView":175,
			"componentType":5126,
			"count":2,
			"type":"VEC3"
		},
		{
			"bufferView":176,
			"componentType":5126,
			"count":2,
			"type":"VEC4"
		},
		{
			"bufferView":177,
			"componentType":5126,
			"count":2,
			"type":"VEC3"
		},
		{
			"bufferView":178,
			"componentType":5126,
			"count":2,
			"type":"VEC3"
		},
		{
			"bufferView":179,
			"componentType":5126,
			"count":2,
			"type":"VEC4"
		},
		{
			"bufferView":180,
			"componentType":5126,
			"count":2,
			"type":"VEC3"
		},
		{
			"bufferView":181,
			"componentType":5126,
			"count":2,
			"type":"VEC3"
		},
		{
			"bufferView":182,
			"componentType":5126,
			"count":2,
			"type":"VEC4"
		},
		{
			"bufferView":183,
			"componentType":5126,
			"count":2,
			"type":"VEC3"
		},
		{
			"bufferView":184,
			"componentType":5126,
			"count":2,
			"type":"VEC3"
		},
		{
			"bufferView":185,
			"componentType":5126,
			"count":2,
			"type":"VEC4"
		},
		{
			"bufferView":186,
			"componentType":5126,
			"count":2,
			"type":"VEC3"
		},
		{
			"bufferView":187,
			"componentType":5126,
			"count":2,
			"type":"VEC3"
		},
		{
			"bufferView":188,
			"componentType":5126,
			"count":2,
			"type":"VEC4"
		},
		{
			"bufferView":189,
			"componentType":5126,
			"count":2,
			"type":"VEC3"
		},
		{
			"bufferView":190,
			"componentType":5126,
			"count":31,
			"max":[
				1
			],
			"min":[
				0
			],
			"type":"SCALAR"
		},
		{
			"bufferView":191,
			"componentType":5126,
			"count":31,
			"type":"VEC3"
		},
		{
			"bufferView":192,
			"componentType":5126,
			"count":31,
			"type":"VEC4"
		},
		{
			"bufferView":193,
			"componentType":5126,
			"count":2,
			"max":[
				1
			],
			"min":[
				0
			],
			"type":"SCALAR"
		},
		{
			"bufferView":194,
			"componentType":5126,
			"count":2,
			"type":"VEC3"
		},
		{
			"bufferView":195,
			"componentType":5126,
			"count":2,
			"type":"VEC3"
		},
		{
			"bufferView":196,
			"componentType":5126,
			"count":2,
			"type":"VEC4"
		},
		{
			"bufferView":197,
			"componentType":5126,
			"count":2,
			"type":"VEC3"
		},
		{
			"bufferView":198,
			"componentType":5126,
			"count":2,
			"type":"VEC3"
		},
		{
			"bufferView":199,
			"componentType":5126,
			"count":31,
			"type":"VEC4"
		},
		{
			"bufferView":200,
			"componentType":5126,
			"count":2,
			"type":"VEC3"
		},
		{
			"bufferView":201,
			"componentType":5126,
			"count":2,
			"type":"VEC3"
		},
		{
			"bufferView":202,
			"componentType":5126,
			"count":2,
			"type":"VEC4"
		},
		{
			"bufferView":203,
			"componentType":5126,
			"count":2,
			"type":"VEC3"
		},
		{
			"bufferView":204,
			"componentType":5126,
			"count":2,
			"type":"VEC3"
		},
		{
			"bufferView":205,
			"componentType":5126,
			"count":2,
			"type":"VEC4"
		},
		{
			"bufferView":206,
			"componentType":5126,
			"count":2,
			"type":"VEC3"
		},
		{
			"bufferView":207,
			"componentType":5126,
			"count":2,
			"type":"VEC3"
		},
		{
			"bufferView":208,
			"componentType":5126,
			"count":31,
			"type":"VEC4"
		},
		{
			"bufferView":209,
			"componentType":5126,
			"count":2,
			"type":"VEC3"
		},
		{
			"bufferView":210,
			"componentType":5126,
			"count":2,
			"type":"VEC3"
		},
		{
			"bufferView":211,
			"componentType":5126,
			"count":2,
			"type":"VEC4"
		},
		{
			"bufferView":212,
			"componentType":5126,
			"count":2,
			"type":"VEC3"
		},
		{
			"bufferView":213,
			"componentType":5126,
			"count":2,
			"type":"VEC3"
		},
		{
			"bufferView":214,
			"componentType":5126,
			"count":2,
			"type":"VEC4"
		},
		{
			"bufferView":215,
			"componentType":5126,
			"count":2,
			"type":"VEC3"
		},
		{
			"bufferView":216,
			"componentType":5126,
			"count":2,
			"type":"VEC3"
		},
		{
			"bufferView":217,
			"componentType":5126,
			"count":31,
			"type":"VEC4"
		},
		{
			"bufferView":218,
			"componentType":5126,
			"count":2,
			"type":"VEC3"
		},
		{
			"bufferView":219,
			"componentType":5126,
			"count":2,
			"type":"VEC3"
		},
		{
			"bufferView":220,
			"componentType":5126,
			"count":2,
			"type":"VEC4"
		},
		{
			"bufferView":221,
			"componentType":5126,
			"count":2,
			"type":"VEC3"
		},
		{
			"bufferView":222,
			"componentType":5126,
			"count":2,
			"type":"VEC3"
		},
		{
			"bufferView":223,
			"componentType":5126,
			"count":2,
			"type":"VEC4"
		},
		{
			"bufferView":224,
			"componentType":5126,
			"count":2,
			"type":"VEC3"
		},
		{
			"bufferView":225,
			"componentType":5126,
			"count":2,
			"type":"VEC3"
		},
		{
			"bufferView":226,
			"componentType":5126,
			"count":31,
			"type":"VEC4"
		},
		{
			"bufferView":227,
			"componentType":5126,
			"count":2,
			"type":"VEC3"
		},
		{
			"bufferView":228,
			"componentType":5126,
			"count":2,
			"type":"VEC3"
		},
		{
			"bufferView":229,
			"componentType":5126,
			"count":31,
			"type":"VEC4"
		},
		{
			"bufferView":230,
			"componentType":5126,
			"count":2,
			"type":"VEC3"
		},
		{
			"bufferView":231,
			"componentType":5126,
			"count":2,
			"type":"VEC3"
		},
		{
			"bufferView":232,
			"componentType":5126,
			"count":31,
			"type":"VEC4"
		},
		{
			"bufferView":233,
			"componentType":5126,
			"count":2,
			"type":"VEC3"
		},
		{
			"bufferView":234,
			"componentType":5126,
			"count":2,
			"type":"VEC3"
		},
		{
			"bufferView":235,
			"componentType":5126,
			"count":31,
			"type":"VEC4"
		},
		{
			"bufferView":236,
			"componentType":5126,
			"count":2,
			"type":"VEC3"
		},
		{
			"bufferView":237,
			"componentType":5126,
			"count":2,
			"type":"VEC3"
		},
		{
			"bufferView":238,
			"componentType":5126,
			"count":31,
			"type":"VEC4"
		},
		{
			"bufferView":239,
			"componentType":5126,
			"count":2,
			"type":"VEC3"
		},
		{
			"bufferView":240,
			"componentType":5126,
			"count":2,
			"type":"VEC3"
		},
		{
			"bufferView":241,
			"componentType":5126,
			"count":31,
			"type":"VEC4"
		},
		{
			"bufferView":242,
			"componentType":5126,
			"count":2,
			"type":"VEC3"
		}
	],
	"bufferViews":[
		{
			"buffer":0,
			"byteLength":17244,
			"byteOffset":0,
			"target":34962
		},
		{
			"buffer":0,
			"byteLength":17244,
			"byteOffset":17244,
			"target":34962
		},
		{
			"buffer":0,
			"byteLength":11496,
			"byteOffset":34488,
			"target":34962
		},
		{
			"buffer":0,
			"byteLength":5748,
			"byteOffset":45984,
			"target":34962
		},
		{
			"buffer":0,
			"byteLength":22992,
			"byteOffset":51732,
			"target":34962
		},
		{
			"buffer":0,
			"byteLength":11736,
			"byteOffset":74724,
			"target":34963
		},
		{
			"buffer":0,
			"byteLength":35280,
			"byteOffset":86460,
			"target":34962
		},
		{
			"buffer":0,
			"byteLength":35280,
			"byteOffset":121740,
			"target":34962
		},
		{
			"buffer":0,
			"byteLength":23520,
			"byteOffset":157020,
			"target":34962
		},
		{
			"buffer":0,
			"byteLength":11760,
			"byteOffset":180540,
			"target":34962
		},
		{
			"buffer":0,
			"byteLength":47040,
			"byteOffset":192300,
			"target":34962
		},
		{
			"buffer":0,
			"byteLength":20784,
			"byteOffset":239340,
			"target":34963
		},
		{
			"buffer":0,
			"byteLength":17532,
			"byteOffset":260124,
			"target":34962
		},
		{
			"buffer":0,
			"byteLength":17532,
			"byteOffset":277656,
			"target":34962
		},
		{
			"buffer":0,
			"byteLength":11688,
			"byteOffset":295188,
			"target":34962
		},
		{
			"buffer":0,
			"byteLength":5844,
			"byteOffset":306876,
			"target":34962
		},
		{
			"buffer":0,
			"byteLength":23376,
			"byteOffset":312720,
			"target":34962
		},
		{
			"buffer":0,
			"byteLength":13296,
			"byteOffset":336096,
			"target":34963
		},
		{
			"buffer":0,
			"byteLength":780,
			"byteOffset":349392,
			"target":34962
		},
		{
			"buffer":0,
			"byteLength":780,
			"byteOffset":350172,
			"target":34962
		},
		{
			"buffer":0,
			"byteLength":520,
			"byteOffset":350952,
			"target":34962
		},
		{
			"buffer":0,
			"byteLength":260,
			"byteOffset":351472,
			"target":34962
		},
		{
			"buffer":0,
			"byteLength":1040,
			"byteOffset":351732,
			"target":34962
		},
		{
			"buffer":0,
			"byteLength":384,
			"byteOffset":352772,
			"target":34963
		},
		{
			"buffer":0,
			"byteLength":11724,
			"byteOffset":353156,
			"target":34962
		},
		{
			"buffer":0,
			"byteLength":11724,
			"byteOffset":364880,
			"target":34962
		},
		{
			"buffer":0,
			"byteLength":7816,
			"byteOffset":376604,
			"target":34962
		},
		{
			"buffer":0,
			"byteLength":3908,
			"byteOffset":384420,
			"target":34962
		},
		{
			"buffer":0,
			"byteLength":15632,
			"byteOffset":388328,
			"target":34962
		},
		{
			"buffer":0,
			"byteLength":8664,
			"byteOffset":403960,
			"target":34963
		},
		{
			"buffer":0,
			"byteLength":12408,
			"byteOffset":412624,
			"target":34962
		},
		{
			"buffer":0,
			"byteLength":12408,
			"byteOffset":425032,
			"target":34962
		},
		{
			"buffer":0,
			"byteLength":8272,
			"byteOffset":437440,
			"target":34962
		},
		{
			"buffer":0,
			"byteLength":4136,
			"byteOffset":445712,
			"target":34962
		},
		{
			"buffer":0,
			"byteLength":16544,
			"byteOffset":449848,
			"target":34962
		},
		{
			"buffer":0,
			"byteLength":9216,
			"byteOffset":466392,
			"target":34963
		},
		{
			"buffer":0,
			"byteLength":3648,
			"byteOffset":475608,
			"target":34962
		},
		{
			"buffer":0,
			"byteLength":3648,
			"byteOffset":479256,
			"target":34962
		},
		{
			"buffer":0,
			"byteLength":2432,
			"byteOffset":482904,
			"target":34962
		},
		{
			"buffer":0,
			"byteLength":1216,
			"byteOffset":485336,
			"target":34962
		},
		{
			"buffer":0,
			"byteLength":4864,
			"byteOffset":486552,
			"target":34962
		},
		{
			"buffer":0,
			"byteLength":2304,
			"byteOffset":491416,
			"target":34963
		},
		{
			"buffer":0,
			"byteLength":2640,
			"byteOffset":493720,
			"target":34962
		},
		{
			"buffer":0,
			"byteLength":2640,
			"byteOffset":496360,
			"target":34962
		},
		{
			"buffer":0,
			"byteLength":1760,
			"byteOffset":499000,
			"target":34962
		},
		{
			"buffer":0,
			"byteLength":880,
			"byteOffset":500760,
			"target":34962
		},
		{
			"buffer":0,
			"byteLength":3520,
			"byteOffset":501640,
			"target":34962
		},
		{
			"buffer":0,
			"byteLength":1440,
			"byteOffset":505160,
			"target":34963
		},
		{
			"buffer":0,
			"byteLength":1920,
			"byteOffset":506600,
			"target":34962
		},
		{
			"buffer":0,
			"byteLength":1920,
			"byteOffset":508520,
			"target":34962
		},
		{
			"buffer":0,
			"byteLength":1280,
			"byteOffset":510440,
			"target":34962
		},
		{
			"buffer":0,
			"byteLength":640,
			"byteOffset":511720,
			"target":34962
		},
		{
			"buffer":0,
			"byteLength":2560,
			"byteOffset":512360,
			"target":34962
		},
		{
			"buffer":0,
			"byteLength":960,
			"byteOffset":514920,
			"target":34963
		},
		{
			"buffer":0,
			"byteLength":1176,
			"byteOffset":515880,
			"target":34962
		},
		{
			"buffer":0,
			"byteLength":1176,
			"byteOffset":517056,
			"target":34962
		},
		{
			"buffer":0,
			"byteLength":784,
			"byteOffset":518232,
			"target":34962
		},
		{
			"buffer":0,
			"byteLength":392,
			"byteOffset":519016,
			"target":34962
		},
		{
			"buffer":0,
			"byteLength":1568,
			"byteOffset":519408,
			"target":34962
		},
		{
			"buffer":0,
			"byteLength":720,
			"byteOffset":520976,
			"target":34963
		},
		{
			"buffer":0,
			"byteLength":288,
			"byteOffset":521696,
			"target":34962
		},
		{
			"buffer":0,
			"byteLength":288,
			"byteOffset":521984,
			"target":34962
		},
		{
			"buffer":0,
			"byteLength":192,
			"byteOffset":522272,
			"target":34962
		},
		{
			"buffer":0,
			"byteLength":96,
			"byteOffset":522464,
			"target":34962
		},
		{
			"buffer":0,
			"byteLength":384,
			"byteOffset":522560,
			"target":34962
		},
		{
			"buffer":0,
			"byteLength":72,
			"byteOffset":522944,
			"target":34963
		},
		{
			"buffer":0,
			"byteLength":1296,
			"byteOffset":523016,
			"target":34962
		},
		{
			"buffer":0,
			"byteLength":1296,
			"byteOffset":524312,
			"target":34962
		},
		{
			"buffer":0,
			"byteLength":864,
			"byteOffset":525608,
			"target":34962
		},
		{
			"buffer":0,
			"byteLength":432,
			"byteOffset":526472,
			"target":34962
		},
		{
			"buffer":0,
			"byteLength":1728,
			"byteOffset":526904,
			"target":34962
		},
		{
			"buffer":0,
			"byteLength":312,
			"byteOffset":528632,
			"target":34963
		},
		{
			"buffer":0,
			"byteLength":504,
			"byteOffset":528944,
			"target":34962
		},
		{
			"buffer":0,
			"byteLength":504,
			"byteOffset":529448,
			"target":34962
		},
		{
			"buffer":0,
			"byteLength":336,
			"byteOffset":529952,
			"target":34962
		},
		{
			"buffer":0,
			"byteLength":168,
			"byteOffset":530288,
			"target":34962
		},
		{
			"buffer":0,
			"byteLength":672,
			"byteOffset":530456,
			"target":34962
		},
		{
			"buffer":0,
			"byteLength":192,
			"byteOffset":531128,
			"target":34963
		},
		{
			"buffer":0,
			"byteLength":288,
			"byteOffset":531320,
			"target":34962
		},
		{
			"buffer":0,
			"byteLength":288,
			"byteOffset":531608,
			"target":34962
		},
		{
			"buffer":0,
			"byteLength":192,
			"byteOffset":531896,
			"target":34962
		},
		{
			"buffer":0,
			"byteLength":96,
			"byteOffset":532088,
			"target":34962
		},
		{
			"buffer":0,
			"byteLength":384,
			"byteOffset":532184,
			"target":34962
		},
		{
			"buffer":0,
			"byteLength":1088,
			"byteOffset":532568
		},
		{
			"buffer":0,
			"byteLength":8,
			"byteOffset":533656
		},
		{
			"buffer":0,
			"byteLength":24,
			"byteOffset":533664
		},
		{
			"buffer":0,
			"byteLength":32,
			"byteOffset":533688
		},
		{
			"buffer":0,
			"byteLength":24,
			"byteOffset":533720
		},
		{
			"buffer":0,
			"byteLength":24,
			"byteOffset":533744
		},
		{
			"buffer":0,
			"byteLength":32,
			"byteOffset":533768
		},
		{
			"buffer":0,
			"byteLength":24,
			"byteOffset":533800
		},
		{
			"buffer":0,
			"byteLength":24,
			"byteOffset":533824
		},
		{
			"buffer":0,
			"byteLength":76,
			"byteOffset":533848
		},
		{
			"buffer":0,
			"byteLength":304,
			"byteOffset":533924
		},
		{
			"buffer":0,
			"byteLength":24,
			"byteOffset":534228
		},
		{
			"buffer":0,
			"byteLength":24,
			"byteOffset":534252
		},
		{
			"buffer":0,
			"byteLength":32,
			"byteOffset":534276
		},
		{
			"buffer":0,
			"byteLength":24,
			"byteOffset":534308
		},
		{
			"buffer":0,
			"byteLength":24,
			"byteOffset":534332
		},
		{
			"buffer":0,
			"byteLength":32,
			"byteOffset":534356
		},
		{
			"buffer":0,
			"byteLength":24,
			"byteOffset":534388
		},
		{
			"buffer":0,
			"byteLength":24,
			"byteOffset":534412
		},
		{
			"buffer":0,
			"byteLength":304,
			"byteOffset":534436
		},
		{
			"buffer":0,
			"byteLength":24,
			"byteOffset":534740
		},
		{
			"buffer":0,
			"byteLength":24,
			"byteOffset":534764
		},
		{
			"buffer":0,
			"byteLength":304,
			"byteOffset":534788
		},
		{
			"buffer":0,
			"byteLength":24,
			"byteOffset":535092
		},
		{
			"buffer":0,
			"byteLength":24,
			"byteOffset":535116
		},
		{
			"buffer":0,
			"byteLength":32,
			"byteOffset":535140
		},
		{
			"buffer":0,
			"byteLength":24,
			"byteOffset":535172
		},
		{
			"buffer":0,
			"byteLength":24,
			"byteOffset":535196
		},
		{
			"buffer":0,
			"byteLength":304,
			"byteOffset":535220
		},
		{
			"buffer":0,
			"byteLength":24,
			"byteOffset":535524
		},
		{
			"buffer":0,
			"byteLength":24,
			"byteOffset":535548
		},
		{
			"buffer":0,
			"byteLength":32,
			"byteOffset":535572
		},
		{
			"buffer":0,
			"byteLength":24,
			"byteOffset":535604
		},
		{
			"buffer":0,
			"byteLength":24,
			"byteOffset":535628
		},
		{
			"buffer":0,
			"byteLength":32,
			"byteOffset":535652
		},
		{
			"buffer":0,
			"byteLength":24,
			"byteOffset":535684
		},
		{
			"buffer":0,
			"byteLength":24,
			"byteOffset":535708
		},
		{
			"buffer":0,
			"byteLength":304,
			"byteOffset":535732
		},
		{
			"buffer":0,
			"byteLength":24,
			"byteOffset":536036
		},
		{
			"buffer":0,
			"byteLength":24,
			"byteOffset":536060
		},
		{
			"buffer":0,
			"byteLength":32,
			"byteOffset":536084
		},
		{
			"buffer":0,
			"byteLength":24,
			"byteOffset":536116
		},
		{
			"buffer":0,
			"byteLength":24,
			"byteOffset":536140
		},
		{
			"buffer":0,
			"byteLength":32,
			"byteOffset":536164
		},
		{
			"buffer":0,
			"byteLength":24,
			"byteOffset":536196
		},
		{
			"buffer":0,
			"byteLength":24,
			"byteOffset":536220
		},
		{
			"buffer":0,
			"byteLength":304,
			"byteOffset":536244
		},
		{
			"buffer":0,
			"byteLength":24,
			"byteOffset":536548
		},
		{
			"buffer":0,
			"byteLength":24,
			"byteOffset":536572
		},
		{
			"buffer":0,
			"byteLength":32,
			"byteOffset":536596
		},
		{
			"buffer":0,
			"byteLength":24,
			"byteOffset":536628
		},
		{
			"buffer":0,
			"byteLength":24,
			"byteOffset":536652
		},
		{
			"buffer":0,
			"byteLength":32,
			"byteOffset":536676
		},
		{
			"buffer":0,
			"byteLength":24,
			"byteOffset":536708
		},
		{
			"buffer":0,
			"byteLength":244,
			"byteOffset":536732
		},
		{
			"buffer":0,
			"byteLength":732,
			"byteOffset":536976
		},
		{
			"buffer":0,
			"byteLength":8,
			"byteOffset":537708
		},
		{
			"buffer":0,
			"byteLength":32,
			"byteOffset":537716
		},
		{
			"buffer":0,
			"byteLength":24,
			"byteOffset":537748
		},
		{
			"buffer":0,
			"byteLength":24,
			"byteOffset":537772
		},
		{
			"buffer":0,
			"byteLength":32,
			"byteOffset":537796
		},
		{
			"buffer":0,
			"byteLength":24,
			"byteOffset":537828
		},
		{
			"buffer":0,
			"byteLength":24,
			"byteOffset":537852
		},
		{
			"buffer":0,
			"byteLength":976,
			"byteOffset":537876
		},
		{
			"buffer":0,
			"byteLength":24,
			"byteOffset":538852
		},
		{
			"buffer":0,
			"byteLength":24,
			"byteOffset":538876
		},
		{
			"buffer":0,
			"byteLength":32,
			"byteOffset":538900
		},
		{
			"buffer":0,
			"byteLength":24,
			"byteOffset":538932
		},
		{
			"buffer":0,
			"byteLength":24,
			"byteOffset":538956
		},
		{
			"buffer":0,
			"byteLength":976,
			"byteOffset":538980
		},
		{
			"buffer":0,
			"byteLength":24,
			"byteOffset":539956
		},
		{
			"buffer":0,
			"byteLength":24,
			"byteOffset":539980
		},
		{
			"buffer":0,
			"byteLength":976,
			"byteOffset":540004
		},
		{
			"buffer":0,
			"byteLength":24,
			"byteOffset":540980
		},
		{
			"buffer":0,
			"byteLength":24,
			"byteOffset":541004
		},
		{
			"buffer":0,
			"byteLength":32,
			"byteOffset":541028
		},
		{
			"buffer":0,
			"byteLength":24,
			"byteOffset":541060
		},
		{
			"buffer":0,
			"byteLength":24,
			"byteOffset":541084
		},
		{
			"buffer":0,
			"byteLength":32,
			"byteOffset":541108
		},
		{
			"buffer":0,
			"byteLength":24,
			"byteOffset":541140
		},
		{
			"buffer":0,
			"byteLength":24,
			"byteOffset":541164
		},
		{
			"buffer":0,
			"byteLength":976,
			"byteOffset":541188
		},
		{
			"buffer":0,
			"byteLength":24,
			"byteOffset":542164
		},
		{
			"buffer":0,
			"byteLength":24,
			"byteOffset":542188
		},
		{
			"buffer":0,
			"byteLength":32,
			"byteOffset":542212
		},
		{
			"buffer":0,
			"byteLength":24,
			"byteOffset":542244
		},
		{
			"buffer":0,
			"byteLength":24,
			"byteOffset":542268
		},
		{
			"buffer":0,
			"byteLength":32,
			"byteOffset":542292
		},
		{
			"buffer":0,
			"byteLength":24,
			"byteOffset":542324
		},
		{
			"buffer":0,
			"byteLength":24,
			"byteOffset":542348
		},
		{
			"buffer":0,
			"byteLength":32,
			"byteOffset":542372
		},
		{
			"buffer":0,
			"byteLength":24,
			"byteOffset":542404
		},
		{
			"buffer":0,
			"byteLength":24,
			"byteOffset":542428
		},
		{
			"buffer":0,
			"byteLength":32,
			"byteOffset":542452
		},
		{
			"buffer":0,
			"byteLength":24,
			"byteOffset":542484
		},
		{
			"buffer":0,
			"byteLength":24,
			"byteOffset":542508
		},
		{
			"buffer":0,
			"byteLength":32,
			"byteOffset":542532
		},
		{
			"buffer":0,
			"byteLength":24,
			"byteOffset":542564
		},
		{
			"buffer":0,
			"byteLength":24,
			"byteOffset":542588
		},
		{
			"buffer":0,
			"byteLength":32,
			"byteOffset":542612
		},
		{
			"buffer":0,
			"byteLength":24,
			"byteOffset":542644
		},
		{
			"buffer":0,
			"byteLength":24,
			"byteOffset":542668
		},
		{
			"buffer":0,
			"byteLength":32,
			"byteOffset":542692
		},
		{
			"buffer":0,
			"byteLength":24,
			"byteOffset":542724
		},
		{
			"buffer":0,
			"byteLength":24,
			"byteOffset":542748
		},
		{
			"buffer":0,
			"byteLength":32,
			"byteOffset":542772
		},
		{
			"buffer":0,
			"byteLength":24,
			"byteOffset":542804
		},
		{
			"buffer":0,
			"byteLength":124,
			"byteOffset":542828
		},
		{
			"buffer":0,
			"byteLength":372,
			"byteOffset":542952
		},
		{
			"buffer":0,
			"byteLength":496,
			"byteOffset":543324
		},
		{
			"buffer":0,
			"byteLength":8,
			"byteOffset":543820
		},
		{
			"buffer":0,
			"byteLength":24,
			"byteOffset":543828
		},
		{
			"buffer":0,
			"byteLength":24,
			"byteOffset":543852
		},
		{
			"buffer":0,
			"byteLength":32,
			"byteOffset":543876
		},
		{
			"buffer":0,
			"byteLength":24,
			"byteOffset":543908
		},
		{
			"buffer":0,
			"byteLength":24,
			"byteOffset":543932
		},
		{
			"buffer":0,
			"byteLength":496,
			"byteOffset":543956
		},
		{
			"buffer":0,
			"byteLength":24,
			"byteOffset":544452
		},
		{
			"buffer":0,
			"byteLength":24,
			"byteOffset":544476
		},
		{
			"buffer":0,
			"byteLength":32,
			"byteOffset":544500
		},
		{
			"buffer":0,
			"byteLength":24,
			"byteOffset":544532
		},
		{
			"buffer":0,
			"byteLength":24,
			"byteOffset":544556
		},
		{
			"buffer":0,
			"byteLength":32,
			"byteOffset":544580
		},
		{
			"buffer":0,
			"byteLength":24,
			"byteOffset":544612
		},
		{
			"buffer":0,
			"byteLength":24,
			"byteOffset":544636
		},
		{
			"buffer":0,
			"byteLength":496,
			"byteOffset":544660
		},
		{
			"buffer":0,
			"byteLength":24,
			"byteOffset":545156
		},
		{
			"buffer":0,
			"byteLength":24,
			"byteOffset":545180
		},
		{
			"buffer":0,
			"byteLength":32,
			"byteOffset":545204
		},
		{
			"buffer":0,
			"byteLength":24,
			"byteOffset":545236
		},
		{
			"buffer":0,
			"byteLength":24,
			"byteOffset":545260
		},
		{
			"buffer":0,
			"byteLength":32,
			"byteOffset":545284
		},
		{
			"buffer":0,
			"byteLength":24,
			"byteOffset":545316
		},
		{
			"buffer":0,
			"byteLength":24,
			"byteOffset":545340
		},
		{
			"buffer":0,
			"byteLength":496,
			"byteOffset":545364
		},
		{
			"buffer":0,
			"byteLength":24,
			"byteOffset":545860
		},
		{
			"buffer":0,
			"byteLength":24,
			"byteOffset":545884
		},
		{
			"buffer":0,
			"byteLength":32,
			"byteOffset":545908
		},
		{
			"buffer":0,
			"byteLength":24,
			"byteOffset":545940
		},
		{
			"buffer":0,
			"byteLength":24,
			"byteOffset":545964
		},
		{
			"buffer":0,
			"byteLength":32,
			"byteOffset":545988
		},
		{
			"buffer":0,
			"byteLength":24,
			"byteOffset":546020
		},
		{
			"buffer":0,
			"byteLength":24,
			"byteOffset":546044
		},
		{
			"buffer":0,
			"byteLength":496,
			"byteOffset":546068
		},
		{
			"buffer":0,
			"byteLength":24,
			"byteOffset":546564
		},
		{
			"buffer":0,
			"byteLength":24,
			"byteOffset":546588
		},
		{
			"buffer":0,
			"byteLength":496,
			"byteOffset":546612
		},
		{
			"buffer":0,
			"byteLength":24,
			"byteOffset":547108
		},
		{
			"buffer":0,
			"byteLength":24,
			"byteOffset":547132
		},
		{
			"buffer":0,
			"byteLength":496,
			"byteOffset":547156
		},
		{
			"buffer":0,
			"byteLength":24,
			"byteOffset":547652
		},
		{
			"buffer":0,
			"byteLength":24,
			"byteOffset":547676
		},
		{
			"buffer":0,
			"byteLength":496,
			"byteOffset":547700
		},
		{
			"buffer":0,
			"byteLength":24,
			"byteOffset":548196
		},
		{
			"buffer":0,
			"byteLength":24,
			"byteOffset":548220
		},
		{
			"buffer":0,
			"byteLength":496,
			"byteOffset":548244
		},
		{
			"buffer":0,
			"byteLength":24,
			"byteOffset":548740
		},
		{
			"buffer":0,
			"byteLength":24,
			"byteOffset":548764
		},
		{
			"buffer":0,
			"byteLength":496,
			"byteOffset":548788
		},
		{
			"buffer":0,
			"byteLength":24,
			"byteOffset":549284
		}
	],
	"samplers":[
		{
			"magFilter":9729,
			"minFilter":9987
		}
	],
	"buffers":[
		{
			"byteLength":549308,
			"uri":"leon.bin"
		}
	]
}
