{
	"asset":{
		"generator":"Khronos glTF Blender I/O v4.2.57",
		"version":"2.0"
	},
	"extensionsUsed":[
		"KHR_materials_clearcoat",
		"KHR_materials_sheen"
	],
	"scene":0,
	"scenes":[
		{
			"name":"Scene",
			"nodes":[
				20
			]
		}
	],
	"nodes":[
		{
			"name":"tail2",
			"rotation":[
				0.02346349135041237,
				0,
				0,
				0.9997246861457825
			],
			"scale":[
				1,
				0.9999998807907104,
				0.9999998807907104
			],
			"translation":[
				0,
				0.6095900535583496,
				5.960464477539063e-08
			]
		},
		{
			"children":[
				0
			],
			"name":"tail1",
			"rotation":[
				0.9099941849708557,
				0,
				0,
				0.4146210551261902
			],
			"scale":[
				1,
				1,
				1.0000001192092896
			],
			"translation":[
				0,
				0.019999980926513672,
				0.09000000357627869
			]
		},
		{
			"name":"head",
			"translation":[
				0,
				0.09999990463256836,
				0
			]
		},
		{
			"children":[
				2
			],
			"name":"neck",
			"translation":[
				0,
				0.21000003814697266,
				0
			]
		},
		{
			"name":"hand.R",
			"rotation":[
				-0.002831934718415141,
				-0.02058575302362442,
				0.02213011309504509,
				0.9995391368865967
			],
			"scale":[
				0.9999998807907104,
				0.9999999403953552,
				0.9999998807907104
			],
			"translation":[
				-4.773028194904327e-09,
				0.2517271339893341,
				-1.862645149230957e-09
			]
		},
		{
			"children":[
				4
			],
			"name":"forearm.R",
			"rotation":[
				0.04786790907382965,
				-0.06073953956365585,
				0.0701540857553482,
				0.9945339560508728
			],
			"translation":[
				-3.189779818058014e-08,
				0.2762984037399292,
				-6.51925802230835e-09
			]
		},
		{
			"children":[
				5
			],
			"name":"upper_arm.R",
			"rotation":[
				0.9885599613189697,
				0.10654280334711075,
				0.1065429225564003,
				0.006823054980486631
			],
			"scale":[
				0.9999995827674866,
				0.9999998807907104,
				0.9999999403953552
			],
			"translation":[
				0.2160000056028366,
				0.15999996662139893,
				0
			]
		},
		{
			"name":"hand.L",
			"rotation":[
				-0.002831934718415141,
				0.02058575302362442,
				-0.02213011309504509,
				0.9995391368865967
			],
			"scale":[
				0.9999998807907104,
				0.9999999403953552,
				0.9999998807907104
			],
			"translation":[
				4.773028194904327e-09,
				0.2517271339893341,
				-1.862645149230957e-09
			]
		},
		{
			"children":[
				7
			],
			"name":"forearm.L",
			"rotation":[
				0.04786790907382965,
				0.06073953956365585,
				-0.0701540857553482,
				0.9945339560508728
			],
			"translation":[
				3.189779818058014e-08,
				0.2762984037399292,
				-6.51925802230835e-09
			]
		},
		{
			"children":[
				8
			],
			"name":"upper_arm.L",
			"rotation":[
				0.9885599613189697,
				-0.10654280334711075,
				-0.1065429225564003,
				0.006823054980486631
			],
			"scale":[
				0.9999995827674866,
				0.9999998807907104,
				0.9999999403953552
			],
			"translation":[
				-0.2160000056028366,
				0.15999996662139893,
				0
			]
		},
		{
			"children":[
				3,
				6,
				9
			],
			"name":"chest",
			"translation":[
				0,
				0.16999995708465576,
				0
			]
		},
		{
			"children":[
				10
			],
			"name":"spine",
			"translation":[
				0,
				0.15000003576278687,
				0
			]
		},
		{
			"name":"foot.R",
			"rotation":[
				0.5914180874824524,
				-2.9070412743692486e-09,
				7.606066887433371e-10,
				0.8063651323318481
			],
			"translation":[
				-7.56543361291051e-09,
				0.41058987379074097,
				4.581082180266094e-10
			]
		},
		{
			"children":[
				12
			],
			"name":"shin.R",
			"rotation":[
				-0.041510097682476044,
				-0.00986466370522976,
				0.009349504485726357,
				0.9990456700325012
			],
			"scale":[
				0.9999999403953552,
				1,
				1
			],
			"translation":[
				-1.1161318980157375e-08,
				0.410253643989563,
				8.149072527885437e-10
			]
		},
		{
			"children":[
				13
			],
			"name":"thigh.R",
			"rotation":[
				-0.9997993111610413,
				-0.009610525332391262,
				-0.00961065012961626,
				0.014720412902534008
			],
			"scale":[
				1.0000001192092896,
				1,
				1.0000003576278687
			],
			"translation":[
				0.09200000017881393,
				-0.019999980926513672,
				0
			]
		},
		{
			"name":"foot.L",
			"rotation":[
				0.5914180874824524,
				2.9070412743692486e-09,
				-7.606066887433371e-10,
				0.8063651323318481
			],
			"translation":[
				7.56543361291051e-09,
				0.41058987379074097,
				4.581082180266094e-10
			]
		},
		{
			"children":[
				15
			],
			"name":"shin.L",
			"rotation":[
				-0.041510097682476044,
				0.00986466370522976,
				-0.009349504485726357,
				0.9990456700325012
			],
			"scale":[
				0.9999999403953552,
				1,
				1
			],
			"translation":[
				1.1161318980157375e-08,
				0.410253643989563,
				8.149072527885437e-10
			]
		},
		{
			"children":[
				16
			],
			"name":"thigh.L",
			"rotation":[
				-0.9997993111610413,
				0.009610525332391262,
				0.00961065012961626,
				0.014720412902534008
			],
			"scale":[
				1.0000001192092896,
				1,
				1.0000003576278687
			],
			"translation":[
				-0.09200000017881393,
				-0.019999980926513672,
				0
			]
		},
		{
			"children":[
				1,
				11,
				14,
				17
			],
			"name":"hips",
			"translation":[
				0,
				0.9300000071525574,
				0
			]
		},
		{
			"mesh":0,
			"name":"lizardman",
			"skin":0
		},
		{
			"children":[
				19,
				18
			],
			"name":"lizardman_rig"
		}
	],
	"animations":[
		{
			"channels":[
				{
					"sampler":0,
					"target":{
						"node":18,
						"path":"translation"
					}
				},
				{
					"sampler":1,
					"target":{
						"node":18,
						"path":"rotation"
					}
				},
				{
					"sampler":2,
					"target":{
						"node":18,
						"path":"scale"
					}
				},
				{
					"sampler":3,
					"target":{
						"node":1,
						"path":"translation"
					}
				},
				{
					"sampler":4,
					"target":{
						"node":1,
						"path":"rotation"
					}
				},
				{
					"sampler":5,
					"target":{
						"node":1,
						"path":"scale"
					}
				},
				{
					"sampler":6,
					"target":{
						"node":0,
						"path":"translation"
					}
				},
				{
					"sampler":7,
					"target":{
						"node":0,
						"path":"rotation"
					}
				},
				{
					"sampler":8,
					"target":{
						"node":0,
						"path":"scale"
					}
				},
				{
					"sampler":9,
					"target":{
						"node":11,
						"path":"translation"
					}
				},
				{
					"sampler":10,
					"target":{
						"node":11,
						"path":"rotation"
					}
				},
				{
					"sampler":11,
					"target":{
						"node":11,
						"path":"scale"
					}
				},
				{
					"sampler":12,
					"target":{
						"node":10,
						"path":"translation"
					}
				},
				{
					"sampler":13,
					"target":{
						"node":10,
						"path":"rotation"
					}
				},
				{
					"sampler":14,
					"target":{
						"node":10,
						"path":"scale"
					}
				},
				{
					"sampler":15,
					"target":{
						"node":3,
						"path":"translation"
					}
				},
				{
					"sampler":16,
					"target":{
						"node":3,
						"path":"rotation"
					}
				},
				{
					"sampler":17,
					"target":{
						"node":3,
						"path":"scale"
					}
				},
				{
					"sampler":18,
					"target":{
						"node":2,
						"path":"translation"
					}
				},
				{
					"sampler":19,
					"target":{
						"node":2,
						"path":"rotation"
					}
				},
				{
					"sampler":20,
					"target":{
						"node":2,
						"path":"scale"
					}
				},
				{
					"sampler":21,
					"target":{
						"node":6,
						"path":"translation"
					}
				},
				{
					"sampler":22,
					"target":{
						"node":6,
						"path":"rotation"
					}
				},
				{
					"sampler":23,
					"target":{
						"node":6,
						"path":"scale"
					}
				},
				{
					"sampler":24,
					"target":{
						"node":5,
						"path":"translation"
					}
				},
				{
					"sampler":25,
					"target":{
						"node":5,
						"path":"rotation"
					}
				},
				{
					"sampler":26,
					"target":{
						"node":5,
						"path":"scale"
					}
				},
				{
					"sampler":27,
					"target":{
						"node":4,
						"path":"translation"
					}
				},
				{
					"sampler":28,
					"target":{
						"node":4,
						"path":"rotation"
					}
				},
				{
					"sampler":29,
					"target":{
						"node":4,
						"path":"scale"
					}
				},
				{
					"sampler":30,
					"target":{
						"node":9,
						"path":"translation"
					}
				},
				{
					"sampler":31,
					"target":{
						"node":9,
						"path":"rotation"
					}
				},
				{
					"sampler":32,
					"target":{
						"node":9,
						"path":"scale"
					}
				},
				{
					"sampler":33,
					"target":{
						"node":8,
						"path":"translation"
					}
				},
				{
					"sampler":34,
					"target":{
						"node":8,
						"path":"rotation"
					}
				},
				{
					"sampler":35,
					"target":{
						"node":8,
						"path":"scale"
					}
				},
				{
					"sampler":36,
					"target":{
						"node":7,
						"path":"translation"
					}
				},
				{
					"sampler":37,
					"target":{
						"node":7,
						"path":"rotation"
					}
				},
				{
					"sampler":38,
					"target":{
						"node":7,
						"path":"scale"
					}
				},
				{
					"sampler":39,
					"target":{
						"node":14,
						"path":"translation"
					}
				},
				{
					"sampler":40,
					"target":{
						"node":14,
						"path":"rotation"
					}
				},
				{
					"sampler":41,
					"target":{
						"node":14,
						"path":"scale"
					}
				},
				{
					"sampler":42,
					"target":{
						"node":13,
						"path":"translation"
					}
				},
				{
					"sampler":43,
					"target":{
						"node":13,
						"path":"rotation"
					}
				},
				{
					"sampler":44,
					"target":{
						"node":13,
						"path":"scale"
					}
				},
				{
					"sampler":45,
					"target":{
						"node":12,
						"path":"translation"
					}
				},
				{
					"sampler":46,
					"target":{
						"node":12,
						"path":"rotation"
					}
				},
				{
					"sampler":47,
					"target":{
						"node":12,
						"path":"scale"
					}
				},
				{
					"sampler":48,
					"target":{
						"node":17,
						"path":"translation"
					}
				},
				{
					"sampler":49,
					"target":{
						"node":17,
						"path":"rotation"
					}
				},
				{
					"sampler":50,
					"target":{
						"node":17,
						"path":"scale"
					}
				},
				{
					"sampler":51,
					"target":{
						"node":16,
						"path":"translation"
					}
				},
				{
					"sampler":52,
					"target":{
						"node":16,
						"path":"rotation"
					}
				},
				{
					"sampler":53,
					"target":{
						"node":16,
						"path":"scale"
					}
				},
				{
					"sampler":54,
					"target":{
						"node":15,
						"path":"translation"
					}
				},
				{
					"sampler":55,
					"target":{
						"node":15,
						"path":"rotation"
					}
				},
				{
					"sampler":56,
					"target":{
						"node":15,
						"path":"scale"
					}
				}
			],
			"name":"attack",
			"samplers":[
				{
					"input":73,
					"interpolation":"STEP",
					"output":74
				},
				{
					"input":73,
					"interpolation":"STEP",
					"output":75
				},
				{
					"input":73,
					"interpolation":"STEP",
					"output":76
				},
				{
					"input":73,
					"interpolation":"STEP",
					"output":77
				},
				{
					"input":73,
					"interpolation":"STEP",
					"output":78
				},
				{
					"input":73,
					"interpolation":"STEP",
					"output":79
				},
				{
					"input":73,
					"interpolation":"STEP",
					"output":80
				},
				{
					"input":73,
					"interpolation":"STEP",
					"output":81
				},
				{
					"input":73,
					"interpolation":"STEP",
					"output":82
				},
				{
					"input":73,
					"interpolation":"STEP",
					"output":83
				},
				{
					"input":73,
					"interpolation":"STEP",
					"output":84
				},
				{
					"input":73,
					"interpolation":"STEP",
					"output":85
				},
				{
					"input":73,
					"interpolation":"STEP",
					"output":86
				},
				{
					"input":87,
					"interpolation":"LINEAR",
					"output":88
				},
				{
					"input":73,
					"interpolation":"STEP",
					"output":89
				},
				{
					"input":73,
					"interpolation":"STEP",
					"output":90
				},
				{
					"input":73,
					"interpolation":"STEP",
					"output":91
				},
				{
					"input":73,
					"interpolation":"STEP",
					"output":92
				},
				{
					"input":73,
					"interpolation":"STEP",
					"output":93
				},
				{
					"input":73,
					"interpolation":"STEP",
					"output":94
				},
				{
					"input":73,
					"interpolation":"STEP",
					"output":95
				},
				{
					"input":73,
					"interpolation":"STEP",
					"output":96
				},
				{
					"input":87,
					"interpolation":"LINEAR",
					"output":97
				},
				{
					"input":73,
					"interpolation":"STEP",
					"output":98
				},
				{
					"input":73,
					"interpolation":"STEP",
					"output":99
				},
				{
					"input":87,
					"interpolation":"LINEAR",
					"output":100
				},
				{
					"input":73,
					"interpolation":"STEP",
					"output":101
				},
				{
					"input":73,
					"interpolation":"STEP",
					"output":102
				},
				{
					"input":73,
					"interpolation":"STEP",
					"output":103
				},
				{
					"input":73,
					"interpolation":"STEP",
					"output":104
				},
				{
					"input":73,
					"interpolation":"STEP",
					"output":105
				},
				{
					"input":87,
					"interpolation":"LINEAR",
					"output":106
				},
				{
					"input":73,
					"interpolation":"STEP",
					"output":107
				},
				{
					"input":73,
					"interpolation":"STEP",
					"output":108
				},
				{
					"input":73,
					"interpolation":"STEP",
					"output":109
				},
				{
					"input":73,
					"interpolation":"STEP",
					"output":110
				},
				{
					"input":73,
					"interpolation":"STEP",
					"output":111
				},
				{
					"input":73,
					"interpolation":"STEP",
					"output":112
				},
				{
					"input":73,
					"interpolation":"STEP",
					"output":113
				},
				{
					"input":73,
					"interpolation":"STEP",
					"output":114
				},
				{
					"input":87,
					"interpolation":"LINEAR",
					"output":115
				},
				{
					"input":73,
					"interpolation":"STEP",
					"output":116
				},
				{
					"input":73,
					"interpolation":"LINEAR",
					"output":117
				},
				{
					"input":73,
					"interpolation":"LINEAR",
					"output":118
				},
				{
					"input":73,
					"interpolation":"STEP",
					"output":119
				},
				{
					"input":73,
					"interpolation":"LINEAR",
					"output":120
				},
				{
					"input":73,
					"interpolation":"LINEAR",
					"output":121
				},
				{
					"input":73,
					"interpolation":"STEP",
					"output":122
				},
				{
					"input":73,
					"interpolation":"STEP",
					"output":123
				},
				{
					"input":87,
					"interpolation":"LINEAR",
					"output":124
				},
				{
					"input":73,
					"interpolation":"STEP",
					"output":125
				},
				{
					"input":73,
					"interpolation":"LINEAR",
					"output":126
				},
				{
					"input":73,
					"interpolation":"LINEAR",
					"output":127
				},
				{
					"input":73,
					"interpolation":"STEP",
					"output":128
				},
				{
					"input":73,
					"interpolation":"LINEAR",
					"output":129
				},
				{
					"input":73,
					"interpolation":"LINEAR",
					"output":130
				},
				{
					"input":73,
					"interpolation":"STEP",
					"output":131
				}
			]
		},
		{
			"channels":[
				{
					"sampler":0,
					"target":{
						"node":18,
						"path":"translation"
					}
				},
				{
					"sampler":1,
					"target":{
						"node":18,
						"path":"rotation"
					}
				},
				{
					"sampler":2,
					"target":{
						"node":18,
						"path":"scale"
					}
				},
				{
					"sampler":3,
					"target":{
						"node":1,
						"path":"translation"
					}
				},
				{
					"sampler":4,
					"target":{
						"node":1,
						"path":"rotation"
					}
				},
				{
					"sampler":5,
					"target":{
						"node":1,
						"path":"scale"
					}
				},
				{
					"sampler":6,
					"target":{
						"node":0,
						"path":"translation"
					}
				},
				{
					"sampler":7,
					"target":{
						"node":0,
						"path":"rotation"
					}
				},
				{
					"sampler":8,
					"target":{
						"node":0,
						"path":"scale"
					}
				},
				{
					"sampler":9,
					"target":{
						"node":11,
						"path":"translation"
					}
				},
				{
					"sampler":10,
					"target":{
						"node":11,
						"path":"rotation"
					}
				},
				{
					"sampler":11,
					"target":{
						"node":11,
						"path":"scale"
					}
				},
				{
					"sampler":12,
					"target":{
						"node":10,
						"path":"translation"
					}
				},
				{
					"sampler":13,
					"target":{
						"node":10,
						"path":"rotation"
					}
				},
				{
					"sampler":14,
					"target":{
						"node":10,
						"path":"scale"
					}
				},
				{
					"sampler":15,
					"target":{
						"node":3,
						"path":"translation"
					}
				},
				{
					"sampler":16,
					"target":{
						"node":3,
						"path":"rotation"
					}
				},
				{
					"sampler":17,
					"target":{
						"node":3,
						"path":"scale"
					}
				},
				{
					"sampler":18,
					"target":{
						"node":2,
						"path":"translation"
					}
				},
				{
					"sampler":19,
					"target":{
						"node":2,
						"path":"rotation"
					}
				},
				{
					"sampler":20,
					"target":{
						"node":2,
						"path":"scale"
					}
				},
				{
					"sampler":21,
					"target":{
						"node":6,
						"path":"translation"
					}
				},
				{
					"sampler":22,
					"target":{
						"node":6,
						"path":"rotation"
					}
				},
				{
					"sampler":23,
					"target":{
						"node":6,
						"path":"scale"
					}
				},
				{
					"sampler":24,
					"target":{
						"node":5,
						"path":"translation"
					}
				},
				{
					"sampler":25,
					"target":{
						"node":5,
						"path":"rotation"
					}
				},
				{
					"sampler":26,
					"target":{
						"node":5,
						"path":"scale"
					}
				},
				{
					"sampler":27,
					"target":{
						"node":4,
						"path":"translation"
					}
				},
				{
					"sampler":28,
					"target":{
						"node":4,
						"path":"rotation"
					}
				},
				{
					"sampler":29,
					"target":{
						"node":4,
						"path":"scale"
					}
				},
				{
					"sampler":30,
					"target":{
						"node":9,
						"path":"translation"
					}
				},
				{
					"sampler":31,
					"target":{
						"node":9,
						"path":"rotation"
					}
				},
				{
					"sampler":32,
					"target":{
						"node":9,
						"path":"scale"
					}
				},
				{
					"sampler":33,
					"target":{
						"node":8,
						"path":"translation"
					}
				},
				{
					"sampler":34,
					"target":{
						"node":8,
						"path":"rotation"
					}
				},
				{
					"sampler":35,
					"target":{
						"node":8,
						"path":"scale"
					}
				},
				{
					"sampler":36,
					"target":{
						"node":7,
						"path":"translation"
					}
				},
				{
					"sampler":37,
					"target":{
						"node":7,
						"path":"rotation"
					}
				},
				{
					"sampler":38,
					"target":{
						"node":7,
						"path":"scale"
					}
				},
				{
					"sampler":39,
					"target":{
						"node":14,
						"path":"translation"
					}
				},
				{
					"sampler":40,
					"target":{
						"node":14,
						"path":"rotation"
					}
				},
				{
					"sampler":41,
					"target":{
						"node":14,
						"path":"scale"
					}
				},
				{
					"sampler":42,
					"target":{
						"node":13,
						"path":"translation"
					}
				},
				{
					"sampler":43,
					"target":{
						"node":13,
						"path":"rotation"
					}
				},
				{
					"sampler":44,
					"target":{
						"node":13,
						"path":"scale"
					}
				},
				{
					"sampler":45,
					"target":{
						"node":12,
						"path":"translation"
					}
				},
				{
					"sampler":46,
					"target":{
						"node":12,
						"path":"rotation"
					}
				},
				{
					"sampler":47,
					"target":{
						"node":12,
						"path":"scale"
					}
				},
				{
					"sampler":48,
					"target":{
						"node":17,
						"path":"translation"
					}
				},
				{
					"sampler":49,
					"target":{
						"node":17,
						"path":"rotation"
					}
				},
				{
					"sampler":50,
					"target":{
						"node":17,
						"path":"scale"
					}
				},
				{
					"sampler":51,
					"target":{
						"node":16,
						"path":"translation"
					}
				},
				{
					"sampler":52,
					"target":{
						"node":16,
						"path":"rotation"
					}
				},
				{
					"sampler":53,
					"target":{
						"node":16,
						"path":"scale"
					}
				},
				{
					"sampler":54,
					"target":{
						"node":15,
						"path":"translation"
					}
				},
				{
					"sampler":55,
					"target":{
						"node":15,
						"path":"rotation"
					}
				},
				{
					"sampler":56,
					"target":{
						"node":15,
						"path":"scale"
					}
				}
			],
			"name":"idle",
			"samplers":[
				{
					"input":132,
					"interpolation":"LINEAR",
					"output":133
				},
				{
					"input":134,
					"interpolation":"STEP",
					"output":135
				},
				{
					"input":134,
					"interpolation":"STEP",
					"output":136
				},
				{
					"input":134,
					"interpolation":"STEP",
					"output":137
				},
				{
					"input":132,
					"interpolation":"LINEAR",
					"output":138
				},
				{
					"input":134,
					"interpolation":"STEP",
					"output":139
				},
				{
					"input":134,
					"interpolation":"STEP",
					"output":140
				},
				{
					"input":134,
					"interpolation":"STEP",
					"output":141
				},
				{
					"input":134,
					"interpolation":"STEP",
					"output":142
				},
				{
					"input":134,
					"interpolation":"STEP",
					"output":143
				},
				{
					"input":134,
					"interpolation":"STEP",
					"output":144
				},
				{
					"input":134,
					"interpolation":"STEP",
					"output":145
				},
				{
					"input":134,
					"interpolation":"STEP",
					"output":146
				},
				{
					"input":132,
					"interpolation":"LINEAR",
					"output":147
				},
				{
					"input":134,
					"interpolation":"STEP",
					"output":148
				},
				{
					"input":134,
					"interpolation":"STEP",
					"output":149
				},
				{
					"input":134,
					"interpolation":"STEP",
					"output":150
				},
				{
					"input":134,
					"interpolation":"STEP",
					"output":151
				},
				{
					"input":134,
					"interpolation":"STEP",
					"output":152
				},
				{
					"input":132,
					"interpolation":"LINEAR",
					"output":153
				},
				{
					"input":134,
					"interpolation":"STEP",
					"output":154
				},
				{
					"input":134,
					"interpolation":"STEP",
					"output":155
				},
				{
					"input":132,
					"interpolation":"LINEAR",
					"output":156
				},
				{
					"input":134,
					"interpolation":"STEP",
					"output":157
				},
				{
					"input":134,
					"interpolation":"STEP",
					"output":158
				},
				{
					"input":134,
					"interpolation":"STEP",
					"output":159
				},
				{
					"input":134,
					"interpolation":"STEP",
					"output":160
				},
				{
					"input":134,
					"interpolation":"STEP",
					"output":161
				},
				{
					"input":134,
					"interpolation":"STEP",
					"output":162
				},
				{
					"input":134,
					"interpolation":"STEP",
					"output":163
				},
				{
					"input":134,
					"interpolation":"STEP",
					"output":164
				},
				{
					"input":132,
					"interpolation":"LINEAR",
					"output":165
				},
				{
					"input":134,
					"interpolation":"STEP",
					"output":166
				},
				{
					"input":134,
					"interpolation":"STEP",
					"output":167
				},
				{
					"input":134,
					"interpolation":"STEP",
					"output":168
				},
				{
					"input":134,
					"interpolation":"STEP",
					"output":169
				},
				{
					"input":134,
					"interpolation":"STEP",
					"output":170
				},
				{
					"input":134,
					"interpolation":"STEP",
					"output":171
				},
				{
					"input":134,
					"interpolation":"STEP",
					"output":172
				},
				{
					"input":134,
					"interpolation":"STEP",
					"output":173
				},
				{
					"input":134,
					"interpolation":"STEP",
					"output":174
				},
				{
					"input":134,
					"interpolation":"STEP",
					"output":175
				},
				{
					"input":134,
					"interpolation":"STEP",
					"output":176
				},
				{
					"input":134,
					"interpolation":"STEP",
					"output":177
				},
				{
					"input":134,
					"interpolation":"STEP",
					"output":178
				},
				{
					"input":134,
					"interpolation":"STEP",
					"output":179
				},
				{
					"input":134,
					"interpolation":"STEP",
					"output":180
				},
				{
					"input":134,
					"interpolation":"STEP",
					"output":181
				},
				{
					"input":134,
					"interpolation":"STEP",
					"output":182
				},
				{
					"input":134,
					"interpolation":"STEP",
					"output":183
				},
				{
					"input":134,
					"interpolation":"STEP",
					"output":184
				},
				{
					"input":134,
					"interpolation":"STEP",
					"output":185
				},
				{
					"input":134,
					"interpolation":"STEP",
					"output":186
				},
				{
					"input":134,
					"interpolation":"STEP",
					"output":187
				},
				{
					"input":134,
					"interpolation":"STEP",
					"output":188
				},
				{
					"input":134,
					"interpolation":"STEP",
					"output":189
				},
				{
					"input":134,
					"interpolation":"STEP",
					"output":190
				}
			]
		},
		{
			"channels":[
				{
					"sampler":0,
					"target":{
						"node":18,
						"path":"translation"
					}
				},
				{
					"sampler":1,
					"target":{
						"node":18,
						"path":"rotation"
					}
				},
				{
					"sampler":2,
					"target":{
						"node":18,
						"path":"scale"
					}
				},
				{
					"sampler":3,
					"target":{
						"node":1,
						"path":"translation"
					}
				},
				{
					"sampler":4,
					"target":{
						"node":1,
						"path":"rotation"
					}
				},
				{
					"sampler":5,
					"target":{
						"node":1,
						"path":"scale"
					}
				},
				{
					"sampler":6,
					"target":{
						"node":0,
						"path":"translation"
					}
				},
				{
					"sampler":7,
					"target":{
						"node":0,
						"path":"rotation"
					}
				},
				{
					"sampler":8,
					"target":{
						"node":0,
						"path":"scale"
					}
				},
				{
					"sampler":9,
					"target":{
						"node":11,
						"path":"translation"
					}
				},
				{
					"sampler":10,
					"target":{
						"node":11,
						"path":"rotation"
					}
				},
				{
					"sampler":11,
					"target":{
						"node":11,
						"path":"scale"
					}
				},
				{
					"sampler":12,
					"target":{
						"node":10,
						"path":"translation"
					}
				},
				{
					"sampler":13,
					"target":{
						"node":10,
						"path":"rotation"
					}
				},
				{
					"sampler":14,
					"target":{
						"node":10,
						"path":"scale"
					}
				},
				{
					"sampler":15,
					"target":{
						"node":3,
						"path":"translation"
					}
				},
				{
					"sampler":16,
					"target":{
						"node":3,
						"path":"rotation"
					}
				},
				{
					"sampler":17,
					"target":{
						"node":3,
						"path":"scale"
					}
				},
				{
					"sampler":18,
					"target":{
						"node":2,
						"path":"translation"
					}
				},
				{
					"sampler":19,
					"target":{
						"node":2,
						"path":"rotation"
					}
				},
				{
					"sampler":20,
					"target":{
						"node":2,
						"path":"scale"
					}
				},
				{
					"sampler":21,
					"target":{
						"node":6,
						"path":"translation"
					}
				},
				{
					"sampler":22,
					"target":{
						"node":6,
						"path":"rotation"
					}
				},
				{
					"sampler":23,
					"target":{
						"node":6,
						"path":"scale"
					}
				},
				{
					"sampler":24,
					"target":{
						"node":5,
						"path":"translation"
					}
				},
				{
					"sampler":25,
					"target":{
						"node":5,
						"path":"rotation"
					}
				},
				{
					"sampler":26,
					"target":{
						"node":5,
						"path":"scale"
					}
				},
				{
					"sampler":27,
					"target":{
						"node":4,
						"path":"translation"
					}
				},
				{
					"sampler":28,
					"target":{
						"node":4,
						"path":"rotation"
					}
				},
				{
					"sampler":29,
					"target":{
						"node":4,
						"path":"scale"
					}
				},
				{
					"sampler":30,
					"target":{
						"node":9,
						"path":"translation"
					}
				},
				{
					"sampler":31,
					"target":{
						"node":9,
						"path":"rotation"
					}
				},
				{
					"sampler":32,
					"target":{
						"node":9,
						"path":"scale"
					}
				},
				{
					"sampler":33,
					"target":{
						"node":8,
						"path":"translation"
					}
				},
				{
					"sampler":34,
					"target":{
						"node":8,
						"path":"rotation"
					}
				},
				{
					"sampler":35,
					"target":{
						"node":8,
						"path":"scale"
					}
				},
				{
					"sampler":36,
					"target":{
						"node":7,
						"path":"translation"
					}
				},
				{
					"sampler":37,
					"target":{
						"node":7,
						"path":"rotation"
					}
				},
				{
					"sampler":38,
					"target":{
						"node":7,
						"path":"scale"
					}
				},
				{
					"sampler":39,
					"target":{
						"node":14,
						"path":"translation"
					}
				},
				{
					"sampler":40,
					"target":{
						"node":14,
						"path":"rotation"
					}
				},
				{
					"sampler":41,
					"target":{
						"node":14,
						"path":"scale"
					}
				},
				{
					"sampler":42,
					"target":{
						"node":13,
						"path":"translation"
					}
				},
				{
					"sampler":43,
					"target":{
						"node":13,
						"path":"rotation"
					}
				},
				{
					"sampler":44,
					"target":{
						"node":13,
						"path":"scale"
					}
				},
				{
					"sampler":45,
					"target":{
						"node":12,
						"path":"translation"
					}
				},
				{
					"sampler":46,
					"target":{
						"node":12,
						"path":"rotation"
					}
				},
				{
					"sampler":47,
					"target":{
						"node":12,
						"path":"scale"
					}
				},
				{
					"sampler":48,
					"target":{
						"node":17,
						"path":"translation"
					}
				},
				{
					"sampler":49,
					"target":{
						"node":17,
						"path":"rotation"
					}
				},
				{
					"sampler":50,
					"target":{
						"node":17,
						"path":"scale"
					}
				},
				{
					"sampler":51,
					"target":{
						"node":16,
						"path":"translation"
					}
				},
				{
					"sampler":52,
					"target":{
						"node":16,
						"path":"rotation"
					}
				},
				{
					"sampler":53,
					"target":{
						"node":16,
						"path":"scale"
					}
				},
				{
					"sampler":54,
					"target":{
						"node":15,
						"path":"translation"
					}
				},
				{
					"sampler":55,
					"target":{
						"node":15,
						"path":"rotation"
					}
				},
				{
					"sampler":56,
					"target":{
						"node":15,
						"path":"scale"
					}
				}
			],
			"name":"walk",
			"samplers":[
				{
					"input":191,
					"interpolation":"LINEAR",
					"output":192
				},
				{
					"input":191,
					"interpolation":"LINEAR",
					"output":193
				},
				{
					"input":194,
					"interpolation":"STEP",
					"output":195
				},
				{
					"input":194,
					"interpolation":"STEP",
					"output":196
				},
				{
					"input":191,
					"interpolation":"LINEAR",
					"output":197
				},
				{
					"input":194,
					"interpolation":"STEP",
					"output":198
				},
				{
					"input":194,
					"interpolation":"STEP",
					"output":199
				},
				{
					"input":194,
					"interpolation":"STEP",
					"output":200
				},
				{
					"input":194,
					"interpolation":"STEP",
					"output":201
				},
				{
					"input":194,
					"interpolation":"STEP",
					"output":202
				},
				{
					"input":194,
					"interpolation":"STEP",
					"output":203
				},
				{
					"input":194,
					"interpolation":"STEP",
					"output":204
				},
				{
					"input":194,
					"interpolation":"STEP",
					"output":205
				},
				{
					"input":191,
					"interpolation":"LINEAR",
					"output":206
				},
				{
					"input":194,
					"interpolation":"STEP",
					"output":207
				},
				{
					"input":194,
					"interpolation":"STEP",
					"output":208
				},
				{
					"input":194,
					"interpolation":"STEP",
					"output":209
				},
				{
					"input":194,
					"interpolation":"STEP",
					"output":210
				},
				{
					"input":194,
					"interpolation":"STEP",
					"output":211
				},
				{
					"input":194,
					"interpolation":"STEP",
					"output":212
				},
				{
					"input":194,
					"interpolation":"STEP",
					"output":213
				},
				{
					"input":194,
					"interpolation":"STEP",
					"output":214
				},
				{
					"input":191,
					"interpolation":"LINEAR",
					"output":215
				},
				{
					"input":194,
					"interpolation":"STEP",
					"output":216
				},
				{
					"input":194,
					"interpolation":"STEP",
					"output":217
				},
				{
					"input":194,
					"interpolation":"STEP",
					"output":218
				},
				{
					"input":194,
					"interpolation":"STEP",
					"output":219
				},
				{
					"input":194,
					"interpolation":"STEP",
					"output":220
				},
				{
					"input":194,
					"interpolation":"STEP",
					"output":221
				},
				{
					"input":194,
					"interpolation":"STEP",
					"output":222
				},
				{
					"input":194,
					"interpolation":"STEP",
					"output":223
				},
				{
					"input":191,
					"interpolation":"LINEAR",
					"output":224
				},
				{
					"input":194,
					"interpolation":"STEP",
					"output":225
				},
				{
					"input":194,
					"interpolation":"STEP",
					"output":226
				},
				{
					"input":194,
					"interpolation":"STEP",
					"output":227
				},
				{
					"input":194,
					"interpolation":"STEP",
					"output":228
				},
				{
					"input":194,
					"interpolation":"STEP",
					"output":229
				},
				{
					"input":194,
					"interpolation":"STEP",
					"output":230
				},
				{
					"input":194,
					"interpolation":"STEP",
					"output":231
				},
				{
					"input":194,
					"interpolation":"STEP",
					"output":232
				},
				{
					"input":191,
					"interpolation":"LINEAR",
					"output":233
				},
				{
					"input":194,
					"interpolation":"STEP",
					"output":234
				},
				{
					"input":194,
					"interpolation":"STEP",
					"output":235
				},
				{
					"input":191,
					"interpolation":"LINEAR",
					"output":236
				},
				{
					"input":194,
					"interpolation":"STEP",
					"output":237
				},
				{
					"input":194,
					"interpolation":"STEP",
					"output":238
				},
				{
					"input":191,
					"interpolation":"LINEAR",
					"output":239
				},
				{
					"input":194,
					"interpolation":"STEP",
					"output":240
				},
				{
					"input":194,
					"interpolation":"STEP",
					"output":241
				},
				{
					"input":191,
					"interpolation":"LINEAR",
					"output":242
				},
				{
					"input":194,
					"interpolation":"STEP",
					"output":243
				},
				{
					"input":194,
					"interpolation":"STEP",
					"output":244
				},
				{
					"input":191,
					"interpolation":"LINEAR",
					"output":245
				},
				{
					"input":194,
					"interpolation":"STEP",
					"output":246
				},
				{
					"input":194,
					"interpolation":"STEP",
					"output":247
				},
				{
					"input":191,
					"interpolation":"LINEAR",
					"output":248
				},
				{
					"input":194,
					"interpolation":"STEP",
					"output":249
				}
			]
		}
	],
	"materials":[
		{
			"name":"skin",
			"normalTexture":{
				"index":0,
				"scale":0.4000000059604645
			},
			"pbrMetallicRoughness":{
				"baseColorFactor":[
					0.05087608844041824,
					0.21404114365577698,
					0.07323895394802094,
					1
				],
				"metallicFactor":0,
				"roughnessFactor":0.550000011920929
			}
		},
		{
			"extensions":{
				"KHR_materials_sheen":{
					"sheenColorFactor":[
						1.0,
						1.0,
						1.0
					],
					"sheenRoughnessFactor":0.5
				}
			},
			"name":"outfit",
			"normalTexture":{
				"index":1,
				"scale":0.6000000238418579
			},
			"pbrMetallicRoughness":{
				"baseColorFactor":[
					0.13286831974983215,
					0.10048151016235352,
					0.03310476616024971,
					1
				],
				"metallicFactor":0,
				"roughnessFactor":0.75
			}
		},
		{
			"name":"outfit2",
			"normalTexture":{
				"index":2,
				"scale":0.4000000059604645
			},
			"pbrMetallicRoughness":{
				"baseColorFactor":[
					0.6920710802078247,
					0.6920710802078247,
					0.7874122858047485,
					1
				],
				"metallicFactor":0,
				"roughnessFactor":0.6000000238418579
			}
		},
		{
			"name":"pants",
			"normalTexture":{
				"index":3,
				"scale":0.6000000238418579
			},
			"pbrMetallicRoughness":{
				"baseColorFactor":[
					0.06372379511594772,
					0.04889732599258423,
					0.017389101907610893,
					1
				],
				"metallicFactor":0,
				"roughnessFactor":0.800000011920929
			}
		},
		{
			"extensions":{
				"KHR_materials_clearcoat":{
					"clearcoatFactor":0.30000001192092896
				}
			},
			"name":"boots",
			"normalTexture":{
				"index":4,
				"scale":0.800000011920929
			},
			"pbrMetallicRoughness":{
				"baseColorFactor":[
					0.0134117491543293,
					0.010022825561463833,
					0.010022825561463833,
					1
				],
				"metallicFactor":0,
				"roughnessFactor":0.44999998807907104
			}
		},
		{
			"name":"eye_white",
			"pbrMetallicRoughness":{
				"baseColorFactor":[
					0.8900054097175598,
					0.8900054097175598,
					0.8900054097175598,
					1
				],
				"metallicFactor":0,
				"roughnessFactor":0.20000000298023224
			}
		},
		{
			"emissiveFactor":[
				0.011763989275256348,
				0.011763989275256348,
				0.019862860485428957
			],
			"name":"iris",
			"pbrMetallicRoughness":{
				"baseColorFactor":[
					0.01960664801299572,
					0.01960664801299572,
					0.03310476616024971,
					1
				],
				"metallicFactor":0,
				"roughnessFactor":0.15000000596046448
			}
		},
		{
			"name":"pupil",
			"pbrMetallicRoughness":{
				"baseColorFactor":[
					0.0015479875728487968,
					0.0015479875728487968,
					0.0023219813592731953,
					1
				],
				"metallicFactor":0,
				"roughnessFactor":0.10000000149011612
			}
		},
		{
			"name":"buckle",
			"pbrMetallicRoughness":{
				"baseColorFactor":[
					0.6920710802078247,
					0.4479884207248688,
					0.07323895394802094,
					1
				],
				"metallicFactor":0.8999999761581421,
				"roughnessFactor":0.30000001192092896
			}
		},
		{
			"name":"tail",
			"normalTexture":{
				"index":5,
				"scale":0.800000011920929
			},
			"pbrMetallicRoughness":{
				"baseColorFactor":[
					0.05087608844041824,
					0.21404114365577698,
					0.07323895394802094,
					1
				],
				"metallicFactor":0,
				"roughnessFactor":0.5
			}
		},
		{
			"name":"blade",
			"normalTexture":{
				"index":6,
				"scale":0.30000001192092896
			},
			"pbrMetallicRoughness":{
				"baseColorFactor":[
					0.7484140992164612,
					0.7874122858047485,
					0.8900054097175598,
					1
				],
				"metallicFactor":0.550000011920929,
				"roughnessFactor":0.2199999988079071
			}
		},
		{
			"name":"handle",
			"normalTexture":{
				"index":7,
				"scale":0.6000000238418579
			},
			"pbrMetallicRoughness":{
				"baseColorFactor":[
					0.0134117491543293,
					0.007194409146904945,
					0.004896310158073902,
					1
				],
				"metallicFactor":0,
				"roughnessFactor":0.6000000238418579
			}
		}
	],
	"meshes":[
		{
			"name":"lizardman",
			"primitives":[
				{
					"attributes":{
						"POSITION":0,
						"NORMAL":1,
						"TEXCOORD_0":2,
						"JOINTS_0":3,
						"WEIGHTS_0":4
					},
					"indices":5,
					"material":0
				},
				{
					"attributes":{
						"POSITION":6,
						"NORMAL":7,
						"TEXCOORD_0":8,
						"JOINTS_0":9,
						"WEIGHTS_0":10
					},
					"indices":11,
					"material":1
				},
				{
					"attributes":{
						"POSITION":12,
						"NORMAL":13,
						"TEXCOORD_0":14,
						"JOINTS_0":15,
						"WEIGHTS_0":16
					},
					"indices":17,
					"material":2
				},
				{
					"attributes":{
						"POSITION":18,
						"NORMAL":19,
						"TEXCOORD_0":20,
						"JOINTS_0":21,
						"WEIGHTS_0":22
					},
					"indices":23,
					"material":3
				},
				{
					"attributes":{
						"POSITION":24,
						"NORMAL":25,
						"TEXCOORD_0":26,
						"JOINTS_0":27,
						"WEIGHTS_0":28
					},
					"indices":29,
					"material":4
				},
				{
					"attributes":{
						"POSITION":30,
						"NORMAL":31,
						"TEXCOORD_0":32,
						"JOINTS_0":33,
						"WEIGHTS_0":34
					},
					"indices":35,
					"material":5
				},
				{
					"attributes":{
						"POSITION":36,
						"NORMAL":37,
						"TEXCOORD_0":38,
						"JOINTS_0":39,
						"WEIGHTS_0":40
					},
					"indices":41,
					"material":6
				},
				{
					"attributes":{
						"POSITION":42,
						"NORMAL":43,
						"TEXCOORD_0":44,
						"JOINTS_0":45,
						"WEIGHTS_0":46
					},
					"indices":47,
					"material":7
				},
				{
					"attributes":{
						"POSITION":48,
						"NORMAL":49,
						"TEXCOORD_0":50,
						"JOINTS_0":51,
						"WEIGHTS_0":52
					},
					"indices":53,
					"material":8
				},
				{
					"attributes":{
						"POSITION":54,
						"NORMAL":55,
						"TEXCOORD_0":56,
						"JOINTS_0":57,
						"WEIGHTS_0":58
					},
					"indices":59,
					"material":9
				},
				{
					"attributes":{
						"POSITION":60,
						"NORMAL":61,
						"TEXCOORD_0":62,
						"JOINTS_0":63,
						"WEIGHTS_0":64
					},
					"indices":65,
					"material":10
				},
				{
					"attributes":{
						"POSITION":66,
						"NORMAL":67,
						"TEXCOORD_0":68,
						"JOINTS_0":69,
						"WEIGHTS_0":70
					},
					"indices":71,
					"material":11
				}
			]
		}
	],
	"textures":[
		{
			"sampler":0,
			"source":0
		},
		{
			"sampler":0,
			"source":1
		},
		{
			"sampler":0,
			"source":1
		},
		{
			"sampler":0,
			"source":1
		},
		{
			"sampler":0,
			"source":2
		},
		{
			"sampler":0,
			"source":3
		},
		{
			"sampler":0,
			"source":4
		},
		{
			"sampler":0,
			"source":2
		}
	],
	"images":[
		{
			"mimeType":"image/png",
			"name":"N_skin",
			"uri":"texturas/N_skin.png"
		},
		{
			"mimeType":"image/png",
			"name":"N_cloth",
			"uri":"texturas/N_cloth.png"
		},
		{
			"mimeType":"image/png",
			"name":"N_leather",
			"uri":"texturas/N_leather.png"
		},
		{
			"mimeType":"image/png",
			"name":"N_scale",
			"uri":"texturas/N_scale.png"
		},
		{
			"mimeType":"image/png",
			"name":"N_metal",
			"uri":"texturas/N_metal.png"
		}
	],
	"skins":[
		{
			"inverseBindMatrices":72,
			"joints":[
				18,
				1,
				0,
				11,
				10,
				3,
				2,
				6,
				5,
				4,
				9,
				8,
				7,
				14,
				13,
				12,
				17,
				16,
				15
			],
			"name":"lizardman_rig"
		}
	],
	"accessors":[
		{
			"bufferView":0,
			"componentType":5126,
			"count":1239,
			"max":[
				0.3208130896091461,
				1.7839999198913574,
				0.10721255838871002
			],
			"min":[
				-0.3208130896091461,
				0.7844679355621338,
				-0.24343974888324738
			],
			"type":"VEC3"
		},
		{
			"bufferView":1,
			"componentType":5126,
			"count":1239,
			"type":"VEC3"
		},
		{
			"bufferView":2,
			"componentType":5126,
			"count":1239,
			"type":"VEC2"
		},
		{
			"bufferView":3,
			"componentType":5121,
			"count":1239,
			"type":"VEC4"
		},
		{
			"bufferView":4,
			"componentType":5126,
			"count":1239,
			"type":"VEC4"
		},
		{
			"bufferView":5,
			"componentType":5123,
			"count":5232,
			"type":"SCALAR"
		},
		{
			"bufferView":6,
			"componentType":5126,
			"count":1461,
			"max":[
				0.3246443271636963,
				1.474212646484375,
				0.11217201501131058
			],
			"min":[
				-0.3246443271636963,
				0.9297775626182556,
				-0.11171648651361465
			],
			"type":"VEC3"
		},
		{
			"bufferView":7,
			"componentType":5126,
			"count":1461,
			"type":"VEC3"
		},
		{
			"bufferView":8,
			"componentType":5126,
			"count":1461,
			"type":"VEC2"
		},
		{
			"bufferView":9,
			"componentType":5121,
			"count":1461,
			"type":"VEC4"
		},
		{
			"bufferView":10,
			"componentType":5126,
			"count":1461,
			"type":"VEC4"
		},
		{
			"bufferView":11,
			"componentType":5123,
			"count":6648,
			"type":"SCALAR"
		},
		{
			"bufferView":12,
			"componentType":5126,
			"count":65,
			"max":[
				0.142655149102211,
				1.0319132804870605,
				0.11384035646915436
			],
			"min":[
				-0.142655149102211,
				0.8763115406036377,
				-0.11518235504627228
			],
			"type":"VEC3"
		},
		{
			"bufferView":13,
			"componentType":5126,
			"count":65,
			"type":"VEC3"
		},
		{
			"bufferView":14,
			"componentType":5126,
			"count":65,
			"type":"VEC2"
		},
		{
			"bufferView":15,
			"componentType":5121,
			"count":65,
			"type":"VEC4"
		},
		{
			"bufferView":16,
			"componentType":5126,
			"count":65,
			"type":"VEC4"
		},
		{
			"bufferView":17,
			"componentType":5123,
			"count":192,
			"type":"SCALAR"
		},
		{
			"bufferView":18,
			"componentType":5126,
			"count":977,
			"max":[
				0.3219468891620636,
				0.937298059463501,
				0.1108374372124672
			],
			"min":[
				-0.3219468593597412,
				0.3000607192516327,
				-0.11261609941720963
			],
			"type":"VEC3"
		},
		{
			"bufferView":19,
			"componentType":5126,
			"count":977,
			"type":"VEC3"
		},
		{
			"bufferView":20,
			"componentType":5126,
			"count":977,
			"type":"VEC2"
		},
		{
			"bufferView":21,
			"componentType":5121,
			"count":977,
			"type":"VEC4"
		},
		{
			"bufferView":22,
			"componentType":5126,
			"count":977,
			"type":"VEC4"
		},
		{
			"bufferView":23,
			"componentType":5123,
			"count":4332,
			"type":"SCALAR"
		},
		{
			"bufferView":24,
			"componentType":5126,
			"count":1034,
			"max":[
				0.16644366085529327,
				0.3064470589160919,
				0.07947749644517899
			],
			"min":[
				-0.16644367575645447,
				0.007597841322422028,
				-0.14012077450752258
			],
			"type":"VEC3"
		},
		{
			"bufferView":25,
			"componentType":5126,
			"count":1034,
			"type":"VEC3"
		},
		{
			"bufferView":26,
			"componentType":5126,
			"count":1034,
			"type":"VEC2"
		},
		{
			"bufferView":27,
			"componentType":5121,
			"count":1034,
			"type":"VEC4"
		},
		{
			"bufferView":28,
			"componentType":5126,
			"count":1034,
			"type":"VEC4"
		},
		{
			"bufferView":29,
			"componentType":5123,
			"count":4608,
			"type":"SCALAR"
		},
		{
			"bufferView":30,
			"componentType":5126,
			"count":304,
			"max":[
				0.08699999749660492,
				1.7015000581741333,
				-0.04100000113248825
			],
			"min":[
				-0.08699999749660492,
				1.6785000562667847,
				-0.05900000035762787
			],
			"type":"VEC3"
		},
		{
			"bufferView":31,
			"componentType":5126,
			"count":304,
			"type":"VEC3"
		},
		{
			"bufferView":32,
			"componentType":5126,
			"count":304,
			"type":"VEC2"
		},
		{
			"bufferView":33,
			"componentType":5121,
			"count":304,
			"type":"VEC4"
		},
		{
			"bufferView":34,
			"componentType":5126,
			"count":304,
			"type":"VEC4"
		},
		{
			"bufferView":35,
			"componentType":5123,
			"count":1152,
			"type":"SCALAR"
		},
		{
			"bufferView":36,
			"componentType":5126,
			"count":220,
			"max":[
				0.0794999971985817,
				1.6998000144958496,
				-0.05222024396061897
			],
			"min":[
				-0.0794999971985817,
				1.6801999807357788,
				-0.06077975407242775
			],
			"type":"VEC3"
		},
		{
			"bufferView":37,
			"componentType":5126,
			"count":220,
			"type":"VEC3"
		},
		{
			"bufferView":38,
			"componentType":5126,
			"count":220,
			"type":"VEC2"
		},
		{
			"bufferView":39,
			"componentType":5121,
			"count":220,
			"type":"VEC4"
		},
		{
			"bufferView":40,
			"componentType":5126,
			"count":220,
			"type":"VEC4"
		},
		{
			"bufferView":41,
			"componentType":5123,
			"count":720,
			"type":"SCALAR"
		},
		{
			"bufferView":42,
			"componentType":5126,
			"count":268,
			"max":[
				0.07399443536996841,
				1.6944999694824219,
				-0.057897888123989105
			],
			"min":[
				-0.07399443536996841,
				1.621000051498413,
				-0.24846410751342773
			],
			"type":"VEC3"
		},
		{
			"bufferView":43,
			"componentType":5126,
			"count":268,
			"type":"VEC3"
		},
		{
			"bufferView":44,
			"componentType":5126,
			"count":268,
			"type":"VEC2"
		},
		{
			"bufferView":45,
			"componentType":5121,
			"count":268,
			"type":"VEC4"
		},
		{
			"bufferView":46,
			"componentType":5126,
			"count":268,
			"type":"VEC4"
		},
		{
			"bufferView":47,
			"componentType":5123,
			"count":768,
			"type":"SCALAR"
		},
		{
			"bufferView":48,
			"componentType":5126,
			"count":24,
			"max":[
				0.02500000037252903,
				0.9700000286102295,
				-0.09399999678134918
			],
			"min":[
				-0.02500000037252903,
				0.9300000071525574,
				-0.10599999874830246
			],
			"type":"VEC3"
		},
		{
			"bufferView":49,
			"componentType":5126,
			"count":24,
			"type":"VEC3"
		},
		{
			"bufferView":50,
			"componentType":5126,
			"count":24,
			"type":"VEC2"
		},
		{
			"bufferView":51,
			"componentType":5121,
			"count":24,
			"type":"VEC4"
		},
		{
			"bufferView":52,
			"componentType":5126,
			"count":24,
			"type":"VEC4"
		},
		{
			"bufferView":53,
			"componentType":5123,
			"count":36,
			"type":"SCALAR"
		},
		{
			"bufferView":54,
			"componentType":5126,
			"count":96,
			"max":[
				0.08500000089406967,
				1.0187352895736694,
				1.0031810998916626
			],
			"min":[
				-0.08500000089406967,
				0.11646542698144913,
				0.04744959622621536
			],
			"type":"VEC3"
		},
		{
			"bufferView":55,
			"componentType":5126,
			"count":96,
			"type":"VEC3"
		},
		{
			"bufferView":56,
			"componentType":5126,
			"count":96,
			"type":"VEC2"
		},
		{
			"bufferView":57,
			"componentType":5121,
			"count":96,
			"type":"VEC4"
		},
		{
			"bufferView":58,
			"componentType":5126,
			"count":96,
			"type":"VEC4"
		},
		{
			"bufferView":59,
			"componentType":5123,
			"count":300,
			"type":"SCALAR"
		},
		{
			"bufferView":60,
			"componentType":5126,
			"count":42,
			"max":[
				0.30979999899864197,
				2.299999952316284,
				0.015000000596046448
			],
			"min":[
				0.29179999232292175,
				2,
				-0.06499999761581421
			],
			"type":"VEC3"
		},
		{
			"bufferView":61,
			"componentType":5126,
			"count":42,
			"type":"VEC3"
		},
		{
			"bufferView":62,
			"componentType":5126,
			"count":42,
			"type":"VEC2"
		},
		{
			"bufferView":63,
			"componentType":5121,
			"count":42,
			"type":"VEC4"
		},
		{
			"bufferView":64,
			"componentType":5126,
			"count":42,
			"type":"VEC4"
		},
		{
			"bufferView":65,
			"componentType":5123,
			"count":72,
			"type":"SCALAR"
		},
		{
			"bufferView":66,
			"componentType":5126,
			"count":42,
			"max":[
				0.3147999942302704,
				2,
				-0.010999998077750206
			],
			"min":[
				0.28679999709129333,
				0.09999996423721313,
				-0.038999997079372406
			],
			"type":"VEC3"
		},
		{
			"bufferView":67,
			"componentType":5126,
			"count":42,
			"type":"VEC3"
		},
		{
			"bufferView":68,
			"componentType":5126,
			"count":42,
			"type":"VEC2"
		},
		{
			"bufferView":69,
			"componentType":5121,
			"count":42,
			"type":"VEC4"
		},
		{
			"bufferView":70,
			"componentType":5126,
			"count":42,
			"type":"VEC4"
		},
		{
			"bufferView":71,
			"componentType":5123,
			"count":96,
			"type":"SCALAR"
		},
		{
			"bufferView":72,
			"componentType":5126,
			"count":19,
			"type":"MAT4"
		},
		{
			"bufferView":73,
			"componentType":5126,
			"count":2,
			"max":[
				0.6
			],
			"min":[
				0
			],
			"type":"SCALAR"
		},
		{
			"bufferView":74,
			"componentType":5126,
			"count":2,
			"type":"VEC3"
		},
		{
			"bufferView":75,
			"componentType":5126,
			"count":2,
			"type":"VEC4"
		},
		{
			"bufferView":76,
			"componentType":5126,
			"count":2,
			"type":"VEC3"
		},
		{
			"bufferView":77,
			"componentType":5126,
			"count":2,
			"type":"VEC3"
		},
		{
			"bufferView":78,
			"componentType":5126,
			"count":2,
			"type":"VEC4"
		},
		{
			"bufferView":79,
			"componentType":5126,
			"count":2,
			"type":"VEC3"
		},
		{
			"bufferView":80,
			"componentType":5126,
			"count":2,
			"type":"VEC3"
		},
		{
			"bufferView":81,
			"componentType":5126,
			"count":2,
			"type":"VEC4"
		},
		{
			"bufferView":82,
			"componentType":5126,
			"count":2,
			"type":"VEC3"
		},
		{
			"bufferView":83,
			"componentType":5126,
			"count":2,
			"type":"VEC3"
		},
		{
			"bufferView":84,
			"componentType":5126,
			"count":2,
			"type":"VEC4"
		},
		{
			"bufferView":85,
			"componentType":5126,
			"count":2,
			"type":"VEC3"
		},
		{
			"bufferView":86,
			"componentType":5126,
			"count":2,
			"type":"VEC3"
		},
		{
			"bufferView":87,
			"componentType":5126,
			"count":19,
			"max":[
				0.6
			],
			"min":[
				0
			],
			"type":"SCALAR"
		},
		{
			"bufferView":88,
			"componentType":5126,
			"count":19,
			"type":"VEC4"
		},
		{
			"bufferView":89,
			"componentType":5126,
			"count":2,
			"type":"VEC3"
		},
		{
			"bufferView":90,
			"componentType":5126,
			"count":2,
			"type":"VEC3"
		},
		{
			"bufferView":91,
			"componentType":5126,
			"count":2,
			"type":"VEC4"
		},
		{
			"bufferView":92,
			"componentType":5126,
			"count":2,
			"type":"VEC3"
		},
		{
			"bufferView":93,
			"componentType":5126,
			"count":2,
			"type":"VEC3"
		},
		{
			"bufferView":94,
			"componentType":5126,
			"count":2,
			"type":"VEC4"
		},
		{
			"bufferView":95,
			"componentType":5126,
			"count":2,
			"type":"VEC3"
		},
		{
			"bufferView":96,
			"componentType":5126,
			"count":2,
			"type":"VEC3"
		},
		{
			"bufferView":97,
			"componentType":5126,
			"count":19,
			"type":"VEC4"
		},
		{
			"bufferView":98,
			"componentType":5126,
			"count":2,
			"type":"VEC3"
		},
		{
			"bufferView":99,
			"componentType":5126,
			"count":2,
			"type":"VEC3"
		},
		{
			"bufferView":100,
			"componentType":5126,
			"count":19,
			"type":"VEC4"
		},
		{
			"bufferView":101,
			"componentType":5126,
			"count":2,
			"type":"VEC3"
		},
		{
			"bufferView":102,
			"componentType":5126,
			"count":2,
			"type":"VEC3"
		},
		{
			"bufferView":103,
			"componentType":5126,
			"count":2,
			"type":"VEC4"
		},
		{
			"bufferView":104,
			"componentType":5126,
			"count":2,
			"type":"VEC3"
		},
		{
			"bufferView":105,
			"componentType":5126,
			"count":2,
			"type":"VEC3"
		},
		{
			"bufferView":106,
			"componentType":5126,
			"count":19,
			"type":"VEC4"
		},
		{
			"bufferView":107,
			"componentType":5126,
			"count":2,
			"type":"VEC3"
		},
		{
			"bufferView":108,
			"componentType":5126,
			"count":2,
			"type":"VEC3"
		},
		{
			"bufferView":109,
			"componentType":5126,
			"count":2,
			"type":"VEC4"
		},
		{
			"bufferView":110,
			"componentType":5126,
			"count":2,
			"type":"VEC3"
		},
		{
			"bufferView":111,
			"componentType":5126,
			"count":2,
			"type":"VEC3"
		},
		{
			"bufferView":112,
			"componentType":5126,
			"count":2,
			"type":"VEC4"
		},
		{
			"bufferView":113,
			"componentType":5126,
			"count":2,
			"type":"VEC3"
		},
		{
			"bufferView":114,
			"componentType":5126,
			"count":2,
			"type":"VEC3"
		},
		{
			"bufferView":115,
			"componentType":5126,
			"count":19,
			"type":"VEC4"
		},
		{
			"bufferView":116,
			"componentType":5126,
			"count":2,
			"type":"VEC3"
		},
		{
			"bufferView":117,
			"componentType":5126,
			"count":2,
			"type":"VEC3"
		},
		{
			"bufferView":118,
			"componentType":5126,
			"count":2,
			"type":"VEC4"
		},
		{
			"bufferView":119,
			"componentType":5126,
			"count":2,
			"type":"VEC3"
		},
		{
			"bufferView":120,
			"componentType":5126,
			"count":2,
			"type":"VEC3"
		},
		{
			"bufferView":121,
			"componentType":5126,
			"count":2,
			"type":"VEC4"
		},
		{
			"bufferView":122,
			"componentType":5126,
			"count":2,
			"type":"VEC3"
		},
		{
			"bufferView":123,
			"componentType":5126,
			"count":2,
			"type":"VEC3"
		},
		{
			"bufferView":124,
			"componentType":5126,
			"count":19,
			"type":"VEC4"
		},
		{
			"bufferView":125,
			"componentType":5126,
			"count":2,
			"type":"VEC3"
		},
		{
			"bufferView":126,
			"componentType":5126,
			"count":2,
			"type":"VEC3"
		},
		{
			"bufferView":127,
			"componentType":5126,
			"count":2,
			"type":"VEC4"
		},
		{
			"bufferView":128,
			"componentType":5126,
			"count":2,
			"type":"VEC3"
		},
		{
			"bufferView":129,
			"componentType":5126,
			"count":2,
			"type":"VEC3"
		},
		{
			"bufferView":130,
			"componentType":5126,
			"count":2,
			"type":"VEC4"
		},
		{
			"bufferView":131,
			"componentType":5126,
			"count":2,
			"type":"VEC3"
		},
		{
			"bufferView":132,
			"componentType":5126,
			"count":61,
			"max":[
				2
			],
			"min":[
				0
			],
			"type":"SCALAR"
		},
		{
			"bufferView":133,
			"componentType":5126,
			"count":61,
			"type":"VEC3"
		},
		{
			"bufferView":134,
			"componentType":5126,
			"count":2,
			"max":[
				2
			],
			"min":[
				0
			],
			"type":"SCALAR"
		},
		{
			"bufferView":135,
			"componentType":5126,
			"count":2,
			"type":"VEC4"
		},
		{
			"bufferView":136,
			"componentType":5126,
			"count":2,
			"type":"VEC3"
		},
		{
			"bufferView":137,
			"componentType":5126,
			"count":2,
			"type":"VEC3"
		},
		{
			"bufferView":138,
			"componentType":5126,
			"count":61,
			"type":"VEC4"
		},
		{
			"bufferView":139,
			"componentType":5126,
			"count":2,
			"type":"VEC3"
		},
		{
			"bufferView":140,
			"componentType":5126,
			"count":2,
			"type":"VEC3"
		},
		{
			"bufferView":141,
			"componentType":5126,
			"count":2,
			"type":"VEC4"
		},
		{
			"bufferView":142,
			"componentType":5126,
			"count":2,
			"type":"VEC3"
		},
		{
			"bufferView":143,
			"componentType":5126,
			"count":2,
			"type":"VEC3"
		},
		{
			"bufferView":144,
			"componentType":5126,
			"count":2,
			"type":"VEC4"
		},
		{
			"bufferView":145,
			"componentType":5126,
			"count":2,
			"type":"VEC3"
		},
		{
			"bufferView":146,
			"componentType":5126,
			"count":2,
			"type":"VEC3"
		},
		{
			"bufferView":147,
			"componentType":5126,
			"count":61,
			"type":"VEC4"
		},
		{
			"bufferView":148,
			"componentType":5126,
			"count":2,
			"type":"VEC3"
		},
		{
			"bufferView":149,
			"componentType":5126,
			"count":2,
			"type":"VEC3"
		},
		{
			"bufferView":150,
			"componentType":5126,
			"count":2,
			"type":"VEC4"
		},
		{
			"bufferView":151,
			"componentType":5126,
			"count":2,
			"type":"VEC3"
		},
		{
			"bufferView":152,
			"componentType":5126,
			"count":2,
			"type":"VEC3"
		},
		{
			"bufferView":153,
			"componentType":5126,
			"count":61,
			"type":"VEC4"
		},
		{
			"bufferView":154,
			"componentType":5126,
			"count":2,
			"type":"VEC3"
		},
		{
			"bufferView":155,
			"componentType":5126,
			"count":2,
			"type":"VEC3"
		},
		{
			"bufferView":156,
			"componentType":5126,
			"count":61,
			"type":"VEC4"
		},
		{
			"bufferView":157,
			"componentType":5126,
			"count":2,
			"type":"VEC3"
		},
		{
			"bufferView":158,
			"componentType":5126,
			"count":2,
			"type":"VEC3"
		},
		{
			"bufferView":159,
			"componentType":5126,
			"count":2,
			"type":"VEC4"
		},
		{
			"bufferView":160,
			"componentType":5126,
			"count":2,
			"type":"VEC3"
		},
		{
			"bufferView":161,
			"componentType":5126,
			"count":2,
			"type":"VEC3"
		},
		{
			"bufferView":162,
			"componentType":5126,
			"count":2,
			"type":"VEC4"
		},
		{
			"bufferView":163,
			"componentType":5126,
			"count":2,
			"type":"VEC3"
		},
		{
			"bufferView":164,
			"componentType":5126,
			"count":2,
			"type":"VEC3"
		},
		{
			"bufferView":165,
			"componentType":5126,
			"count":61,
			"type":"VEC4"
		},
		{
			"bufferView":166,
			"componentType":5126,
			"count":2,
			"type":"VEC3"
		},
		{
			"bufferView":167,
			"componentType":5126,
			"count":2,
			"type":"VEC3"
		},
		{
			"bufferView":168,
			"componentType":5126,
			"count":2,
			"type":"VEC4"
		},
		{
			"bufferView":169,
			"componentType":5126,
			"count":2,
			"type":"VEC3"
		},
		{
			"bufferView":170,
			"componentType":5126,
			"count":2,
			"type":"VEC3"
		},
		{
			"bufferView":171,
			"componentType":5126,
			"count":2,
			"type":"VEC4"
		},
		{
			"bufferView":172,
			"componentType":5126,
			"count":2,
			"type":"VEC3"
		},
		{
			"bufferView":173,
			"componentType":5126,
			"count":2,
			"type":"VEC3"
		},
		{
			"bufferView":174,
			"componentType":5126,
			"count":2,
			"type":"VEC4"
		},
		{
			"bufferView":175,
			"componentType":5126,
			"count":2,
			"type":"VEC3"
		},
		{
			"bufferView":176,
			"componentType":5126,
			"count":2,
			"type":"VEC3"
		},
		{
			"bufferView":177,
			"componentType":5126,
			"count":2,
			"type":"VEC4"
		},
		{
			"bufferView":178,
			"componentType":5126,
			"count":2,
			"type":"VEC3"
		},
		{
			"bufferView":179,
			"componentType":5126,
			"count":2,
			"type":"VEC3"
		},
		{
			"bufferView":180,
			"componentType":5126,
			"count":2,
			"type":"VEC4"
		},
		{
			"bufferView":181,
			"componentType":5126,
			"count":2,
			"type":"VEC3"
		},
		{
			"bufferView":182,
			"componentType":5126,
			"count":2,
			"type":"VEC3"
		},
		{
			"bufferView":183,
			"componentType":5126,
			"count":2,
			"type":"VEC4"
		},
		{
			"bufferView":184,
			"componentType":5126,
			"count":2,
			"type":"VEC3"
		},
		{
			"bufferView":185,
			"componentType":5126,
			"count":2,
			"type":"VEC3"
		},
		{
			"bufferView":186,
			"componentType":5126,
			"count":2,
			"type":"VEC4"
		},
		{
			"bufferView":187,
			"componentType":5126,
			"count":2,
			"type":"VEC3"
		},
		{
			"bufferView":188,
			"componentType":5126,
			"count":2,
			"type":"VEC3"
		},
		{
			"bufferView":189,
			"componentType":5126,
			"count":2,
			"type":"VEC4"
		},
		{
			"bufferView":190,
			"componentType":5126,
			"count":2,
			"type":"VEC3"
		},
		{
			"bufferView":191,
			"componentType":5126,
			"count":31,
			"max":[
				1
			],
			"min":[
				0
			],
			"type":"SCALAR"
		},
		{
			"bufferView":192,
			"componentType":5126,
			"count":31,
			"type":"VEC3"
		},
		{
			"bufferView":193,
			"componentType":5126,
			"count":31,
			"type":"VEC4"
		},
		{
			"bufferView":194,
			"componentType":5126,
			"count":2,
			"max":[
				1
			],
			"min":[
				0
			],
			"type":"SCALAR"
		},
		{
			"bufferView":195,
			"componentType":5126,
			"count":2,
			"type":"VEC3"
		},
		{
			"bufferView":196,
			"componentType":5126,
			"count":2,
			"type":"VEC3"
		},
		{
			"bufferView":197,
			"componentType":5126,
			"count":31,
			"type":"VEC4"
		},
		{
			"bufferView":198,
			"componentType":5126,
			"count":2,
			"type":"VEC3"
		},
		{
			"bufferView":199,
			"componentType":5126,
			"count":2,
			"type":"VEC3"
		},
		{
			"bufferView":200,
			"componentType":5126,
			"count":2,
			"type":"VEC4"
		},
		{
			"bufferView":201,
			"componentType":5126,
			"count":2,
			"type":"VEC3"
		},
		{
			"bufferView":202,
			"componentType":5126,
			"count":2,
			"type":"VEC3"
		},
		{
			"bufferView":203,
			"componentType":5126,
			"count":2,
			"type":"VEC4"
		},
		{
			"bufferView":204,
			"componentType":5126,
			"count":2,
			"type":"VEC3"
		},
		{
			"bufferView":205,
			"componentType":5126,
			"count":2,
			"type":"VEC3"
		},
		{
			"bufferView":206,
			"componentType":5126,
			"count":31,
			"type":"VEC4"
		},
		{
			"bufferView":207,
			"componentType":5126,
			"count":2,
			"type":"VEC3"
		},
		{
			"bufferView":208,
			"componentType":5126,
			"count":2,
			"type":"VEC3"
		},
		{
			"bufferView":209,
			"componentType":5126,
			"count":2,
			"type":"VEC4"
		},
		{
			"bufferView":210,
			"componentType":5126,
			"count":2,
			"type":"VEC3"
		},
		{
			"bufferView":211,
			"componentType":5126,
			"count":2,
			"type":"VEC3"
		},
		{
			"bufferView":212,
			"componentType":5126,
			"count":2,
			"type":"VEC4"
		},
		{
			"bufferView":213,
			"componentType":5126,
			"count":2,
			"type":"VEC3"
		},
		{
			"bufferView":214,
			"componentType":5126,
			"count":2,
			"type":"VEC3"
		},
		{
			"bufferView":215,
			"componentType":5126,
			"count":31,
			"type":"VEC4"
		},
		{
			"bufferView":216,
			"componentType":5126,
			"count":2,
			"type":"VEC3"
		},
		{
			"bufferView":217,
			"componentType":5126,
			"count":2,
			"type":"VEC3"
		},
		{
			"bufferView":218,
			"componentType":5126,
			"count":2,
			"type":"VEC4"
		},
		{
			"bufferView":219,
			"componentType":5126,
			"count":2,
			"type":"VEC3"
		},
		{
			"bufferView":220,
			"componentType":5126,
			"count":2,
			"type":"VEC3"
		},
		{
			"bufferView":221,
			"componentType":5126,
			"count":2,
			"type":"VEC4"
		},
		{
			"bufferView":222,
			"componentType":5126,
			"count":2,
			"type":"VEC3"
		},
		{
			"bufferView":223,
			"componentType":5126,
			"count":2,
			"type":"VEC3"
		},
		{
			"bufferView":224,
			"componentType":5126,
			"count":31,
			"type":"VEC4"
		},
		{
			"bufferView":225,
			"componentType":5126,
			"count":2,
			"type":"VEC3"
		},
		{
			"bufferView":226,
			"componentType":5126,
			"count":2,
			"type":"VEC3"
		},
		{
			"bufferView":227,
			"componentType":5126,
			"count":2,
			"type":"VEC4"
		},
		{
			"bufferView":228,
			"componentType":5126,
			"count":2,
			"type":"VEC3"
		},
		{
			"bufferView":229,
			"componentType":5126,
			"count":2,
			"type":"VEC3"
		},
		{
			"bufferView":230,
			"componentType":5126,
			"count":2,
			"type":"VEC4"
		},
		{
			"bufferView":231,
			"componentType":5126,
			"count":2,
			"type":"VEC3"
		},
		{
			"bufferView":232,
			"componentType":5126,
			"count":2,
			"type":"VEC3"
		},
		{
			"bufferView":233,
			"componentType":5126,
			"count":31,
			"type":"VEC4"
		},
		{
			"bufferView":234,
			"componentType":5126,
			"count":2,
			"type":"VEC3"
		},
		{
			"bufferView":235,
			"componentType":5126,
			"count":2,
			"type":"VEC3"
		},
		{
			"bufferView":236,
			"componentType":5126,
			"count":31,
			"type":"VEC4"
		},
		{
			"bufferView":237,
			"componentType":5126,
			"count":2,
			"type":"VEC3"
		},
		{
			"bufferView":238,
			"componentType":5126,
			"count":2,
			"type":"VEC3"
		},
		{
			"bufferView":239,
			"componentType":5126,
			"count":31,
			"type":"VEC4"
		},
		{
			"bufferView":240,
			"componentType":5126,
			"count":2,
			"type":"VEC3"
		},
		{
			"bufferView":241,
			"componentType":5126,
			"count":2,
			"type":"VEC3"
		},
		{
			"bufferView":242,
			"componentType":5126,
			"count":31,
			"type":"VEC4"
		},
		{
			"bufferView":243,
			"componentType":5126,
			"count":2,
			"type":"VEC3"
		},
		{
			"bufferView":244,
			"componentType":5126,
			"count":2,
			"type":"VEC3"
		},
		{
			"bufferView":245,
			"componentType":5126,
			"count":31,
			"type":"VEC4"
		},
		{
			"bufferView":246,
			"componentType":5126,
			"count":2,
			"type":"VEC3"
		},
		{
			"bufferView":247,
			"componentType":5126,
			"count":2,
			"type":"VEC3"
		},
		{
			"bufferView":248,
			"componentType":5126,
			"count":31,
			"type":"VEC4"
		},
		{
			"bufferView":249,
			"componentType":5126,
			"count":2,
			"type":"VEC3"
		}
	],
	"bufferViews":[
		{
			"buffer":0,
			"byteLength":14868,
			"byteOffset":0,
			"target":34962
		},
		{
			"buffer":0,
			"byteLength":14868,
			"byteOffset":14868,
			"target":34962
		},
		{
			"buffer":0,
			"byteLength":9912,
			"byteOffset":29736,
			"target":34962
		},
		{
			"buffer":0,
			"byteLength":4956,
			"byteOffset":39648,
			"target":34962
		},
		{
			"buffer":0,
			"byteLength":19824,
			"byteOffset":44604,
			"target":34962
		},
		{
			"buffer":0,
			"byteLength":10464,
			"byteOffset":64428,
			"target":34963
		},
		{
			"buffer":0,
			"byteLength":17532,
			"byteOffset":74892,
			"target":34962
		},
		{
			"buffer":0,
			"byteLength":17532,
			"byteOffset":92424,
			"target":34962
		},
		{
			"buffer":0,
			"byteLength":11688,
			"byteOffset":109956,
			"target":34962
		},
		{
			"buffer":0,
			"byteLength":5844,
			"byteOffset":121644,
			"target":34962
		},
		{
			"buffer":0,
			"byteLength":23376,
			"byteOffset":127488,
			"target":34962
		},
		{
			"buffer":0,
			"byteLength":13296,
			"byteOffset":150864,
			"target":34963
		},
		{
			"buffer":0,
			"byteLength":780,
			"byteOffset":164160,
			"target":34962
		},
		{
			"buffer":0,
			"byteLength":780,
			"byteOffset":164940,
			"target":34962
		},
		{
			"buffer":0,
			"byteLength":520,
			"byteOffset":165720,
			"target":34962
		},
		{
			"buffer":0,
			"byteLength":260,
			"byteOffset":166240,
			"target":34962
		},
		{
			"buffer":0,
			"byteLength":1040,
			"byteOffset":166500,
			"target":34962
		},
		{
			"buffer":0,
			"byteLength":384,
			"byteOffset":167540,
			"target":34963
		},
		{
			"buffer":0,
			"byteLength":11724,
			"byteOffset":167924,
			"target":34962
		},
		{
			"buffer":0,
			"byteLength":11724,
			"byteOffset":179648,
			"target":34962
		},
		{
			"buffer":0,
			"byteLength":7816,
			"byteOffset":191372,
			"target":34962
		},
		{
			"buffer":0,
			"byteLength":3908,
			"byteOffset":199188,
			"target":34962
		},
		{
			"buffer":0,
			"byteLength":15632,
			"byteOffset":203096,
			"target":34962
		},
		{
			"buffer":0,
			"byteLength":8664,
			"byteOffset":218728,
			"target":34963
		},
		{
			"buffer":0,
			"byteLength":12408,
			"byteOffset":227392,
			"target":34962
		},
		{
			"buffer":0,
			"byteLength":12408,
			"byteOffset":239800,
			"target":34962
		},
		{
			"buffer":0,
			"byteLength":8272,
			"byteOffset":252208,
			"target":34962
		},
		{
			"buffer":0,
			"byteLength":4136,
			"byteOffset":260480,
			"target":34962
		},
		{
			"buffer":0,
			"byteLength":16544,
			"byteOffset":264616,
			"target":34962
		},
		{
			"buffer":0,
			"byteLength":9216,
			"byteOffset":281160,
			"target":34963
		},
		{
			"buffer":0,
			"byteLength":3648,
			"byteOffset":290376,
			"target":34962
		},
		{
			"buffer":0,
			"byteLength":3648,
			"byteOffset":294024,
			"target":34962
		},
		{
			"buffer":0,
			"byteLength":2432,
			"byteOffset":297672,
			"target":34962
		},
		{
			"buffer":0,
			"byteLength":1216,
			"byteOffset":300104,
			"target":34962
		},
		{
			"buffer":0,
			"byteLength":4864,
			"byteOffset":301320,
			"target":34962
		},
		{
			"buffer":0,
			"byteLength":2304,
			"byteOffset":306184,
			"target":34963
		},
		{
			"buffer":0,
			"byteLength":2640,
			"byteOffset":308488,
			"target":34962
		},
		{
			"buffer":0,
			"byteLength":2640,
			"byteOffset":311128,
			"target":34962
		},
		{
			"buffer":0,
			"byteLength":1760,
			"byteOffset":313768,
			"target":34962
		},
		{
			"buffer":0,
			"byteLength":880,
			"byteOffset":315528,
			"target":34962
		},
		{
			"buffer":0,
			"byteLength":3520,
			"byteOffset":316408,
			"target":34962
		},
		{
			"buffer":0,
			"byteLength":1440,
			"byteOffset":319928,
			"target":34963
		},
		{
			"buffer":0,
			"byteLength":3216,
			"byteOffset":321368,
			"target":34962
		},
		{
			"buffer":0,
			"byteLength":3216,
			"byteOffset":324584,
			"target":34962
		},
		{
			"buffer":0,
			"byteLength":2144,
			"byteOffset":327800,
			"target":34962
		},
		{
			"buffer":0,
			"byteLength":1072,
			"byteOffset":329944,
			"target":34962
		},
		{
			"buffer":0,
			"byteLength":4288,
			"byteOffset":331016,
			"target":34962
		},
		{
			"buffer":0,
			"byteLength":1536,
			"byteOffset":335304,
			"target":34963
		},
		{
			"buffer":0,
			"byteLength":288,
			"byteOffset":336840,
			"target":34962
		},
		{
			"buffer":0,
			"byteLength":288,
			"byteOffset":337128,
			"target":34962
		},
		{
			"buffer":0,
			"byteLength":192,
			"byteOffset":337416,
			"target":34962
		},
		{
			"buffer":0,
			"byteLength":96,
			"byteOffset":337608,
			"target":34962
		},
		{
			"buffer":0,
			"byteLength":384,
			"byteOffset":337704,
			"target":34962
		},
		{
			"buffer":0,
			"byteLength":72,
			"byteOffset":338088,
			"target":34963
		},
		{
			"buffer":0,
			"byteLength":1152,
			"byteOffset":338160,
			"target":34962
		},
		{
			"buffer":0,
			"byteLength":1152,
			"byteOffset":339312,
			"target":34962
		},
		{
			"buffer":0,
			"byteLength":768,
			"byteOffset":340464,
			"target":34962
		},
		{
			"buffer":0,
			"byteLength":384,
			"byteOffset":341232,
			"target":34962
		},
		{
			"buffer":0,
			"byteLength":1536,
			"byteOffset":341616,
			"target":34962
		},
		{
			"buffer":0,
			"byteLength":600,
			"byteOffset":343152,
			"target":34963
		},
		{
			"buffer":0,
			"byteLength":504,
			"byteOffset":343752,
			"target":34962
		},
		{
			"buffer":0,
			"byteLength":504,
			"byteOffset":344256,
			"target":34962
		},
		{
			"buffer":0,
			"byteLength":336,
			"byteOffset":344760,
			"target":34962
		},
		{
			"buffer":0,
			"byteLength":168,
			"byteOffset":345096,
			"target":34962
		},
		{
			"buffer":0,
			"byteLength":672,
			"byteOffset":345264,
			"target":34962
		},
		{
			"buffer":0,
			"byteLength":144,
			"byteOffset":345936,
			"target":34963
		},
		{
			"buffer":0,
			"byteLength":504,
			"byteOffset":346080,
			"target":34962
		},
		{
			"buffer":0,
			"byteLength":504,
			"byteOffset":346584,
			"target":34962
		},
		{
			"buffer":0,
			"byteLength":336,
			"byteOffset":347088,
			"target":34962
		},
		{
			"buffer":0,
			"byteLength":168,
			"byteOffset":347424,
			"target":34962
		},
		{
			"buffer":0,
			"byteLength":672,
			"byteOffset":347592,
			"target":34962
		},
		{
			"buffer":0,
			"byteLength":192,
			"byteOffset":348264,
			"target":34963
		},
		{
			"buffer":0,
			"byteLength":1216,
			"byteOffset":348456
		},
		{
			"buffer":0,
			"byteLength":8,
			"byteOffset":349672
		},
		{
			"buffer":0,
			"byteLength":24,
			"byteOffset":349680
		},
		{
			"buffer":0,
			"byteLength":32,
			"byteOffset":349704
		},
		{
			"buffer":0,
			"byteLength":24,
			"byteOffset":349736
		},
		{
			"buffer":0,
			"byteLength":24,
			"byteOffset":349760
		},
		{
			"buffer":0,
			"byteLength":32,
			"byteOffset":349784
		},
		{
			"buffer":0,
			"byteLength":24,
			"byteOffset":349816
		},
		{
			"buffer":0,
			"byteLength":24,
			"byteOffset":349840
		},
		{
			"buffer":0,
			"byteLength":32,
			"byteOffset":349864
		},
		{
			"buffer":0,
			"byteLength":24,
			"byteOffset":349896
		},
		{
			"buffer":0,
			"byteLength":24,
			"byteOffset":349920
		},
		{
			"buffer":0,
			"byteLength":32,
			"byteOffset":349944
		},
		{
			"buffer":0,
			"byteLength":24,
			"byteOffset":349976
		},
		{
			"buffer":0,
			"byteLength":24,
			"byteOffset":350000
		},
		{
			"buffer":0,
			"byteLength":76,
			"byteOffset":350024
		},
		{
			"buffer":0,
			"byteLength":304,
			"byteOffset":350100
		},
		{
			"buffer":0,
			"byteLength":24,
			"byteOffset":350404
		},
		{
			"buffer":0,
			"byteLength":24,
			"byteOffset":350428
		},
		{
			"buffer":0,
			"byteLength":32,
			"byteOffset":350452
		},
		{
			"buffer":0,
			"byteLength":24,
			"byteOffset":350484
		},
		{
			"buffer":0,
			"byteLength":24,
			"byteOffset":350508
		},
		{
			"buffer":0,
			"byteLength":32,
			"byteOffset":350532
		},
		{
			"buffer":0,
			"byteLength":24,
			"byteOffset":350564
		},
		{
			"buffer":0,
			"byteLength":24,
			"byteOffset":350588
		},
		{
			"buffer":0,
			"byteLength":304,
			"byteOffset":350612
		},
		{
			"buffer":0,
			"byteLength":24,
			"byteOffset":350916
		},
		{
			"buffer":0,
			"byteLength":24,
			"byteOffset":350940
		},
		{
			"buffer":0,
			"byteLength":304,
			"byteOffset":350964
		},
		{
			"buffer":0,
			"byteLength":24,
			"byteOffset":351268
		},
		{
			"buffer":0,
			"byteLength":24,
			"byteOffset":351292
		},
		{
			"buffer":0,
			"byteLength":32,
			"byteOffset":351316
		},
		{
			"buffer":0,
			"byteLength":24,
			"byteOffset":351348
		},
		{
			"buffer":0,
			"byteLength":24,
			"byteOffset":351372
		},
		{
			"buffer":0,
			"byteLength":304,
			"byteOffset":351396
		},
		{
			"buffer":0,
			"byteLength":24,
			"byteOffset":351700
		},
		{
			"buffer":0,
			"byteLength":24,
			"byteOffset":351724
		},
		{
			"buffer":0,
			"byteLength":32,
			"byteOffset":351748
		},
		{
			"buffer":0,
			"byteLength":24,
			"byteOffset":351780
		},
		{
			"buffer":0,
			"byteLength":24,
			"byteOffset":351804
		},
		{
			"buffer":0,
			"byteLength":32,
			"byteOffset":351828
		},
		{
			"buffer":0,
			"byteLength":24,
			"byteOffset":351860
		},
		{
			"buffer":0,
			"byteLength":24,
			"byteOffset":351884
		},
		{
			"buffer":0,
			"byteLength":304,
			"byteOffset":351908
		},
		{
			"buffer":0,
			"byteLength":24,
			"byteOffset":352212
		},
		{
			"buffer":0,
			"byteLength":24,
			"byteOffset":352236
		},
		{
			"buffer":0,
			"byteLength":32,
			"byteOffset":352260
		},
		{
			"buffer":0,
			"byteLength":24,
			"byteOffset":352292
		},
		{
			"buffer":0,
			"byteLength":24,
			"byteOffset":352316
		},
		{
			"buffer":0,
			"byteLength":32,
			"byteOffset":352340
		},
		{
			"buffer":0,
			"byteLength":24,
			"byteOffset":352372
		},
		{
			"buffer":0,
			"byteLength":24,
			"byteOffset":352396
		},
		{
			"buffer":0,
			"byteLength":304,
			"byteOffset":352420
		},
		{
			"buffer":0,
			"byteLength":24,
			"byteOffset":352724
		},
		{
			"buffer":0,
			"byteLength":24,
			"byteOffset":352748
		},
		{
			"buffer":0,
			"byteLength":32,
			"byteOffset":352772
		},
		{
			"buffer":0,
			"byteLength":24,
			"byteOffset":352804
		},
		{
			"buffer":0,
			"byteLength":24,
			"byteOffset":352828
		},
		{
			"buffer":0,
			"byteLength":32,
			"byteOffset":352852
		},
		{
			"buffer":0,
			"byteLength":24,
			"byteOffset":352884
		},
		{
			"buffer":0,
			"byteLength":244,
			"byteOffset":352908
		},
		{
			"buffer":0,
			"byteLength":732,
			"byteOffset":353152
		},
		{
			"buffer":0,
			"byteLength":8,
			"byteOffset":353884
		},
		{
			"buffer":0,
			"byteLength":32,
			"byteOffset":353892
		},
		{
			"buffer":0,
			"byteLength":24,
			"byteOffset":353924
		},
		{
			"buffer":0,
			"byteLength":24,
			"byteOffset":353948
		},
		{
			"buffer":0,
			"byteLength":976,
			"byteOffset":353972
		},
		{
			"buffer":0,
			"byteLength":24,
			"byteOffset":354948
		},
		{
			"buffer":0,
			"byteLength":24,
			"byteOffset":354972
		},
		{
			"buffer":0,
			"byteLength":32,
			"byteOffset":354996
		},
		{
			"buffer":0,
			"byteLength":24,
			"byteOffset":355028
		},
		{
			"buffer":0,
			"byteLength":24,
			"byteOffset":355052
		},
		{
			"buffer":0,
			"byteLength":32,
			"byteOffset":355076
		},
		{
			"buffer":0,
			"byteLength":24,
			"byteOffset":355108
		},
		{
			"buffer":0,
			"byteLength":24,
			"byteOffset":355132
		},
		{
			"buffer":0,
			"byteLength":976,
			"byteOffset":355156
		},
		{
			"buffer":0,
			"byteLength":24,
			"byteOffset":356132
		},
		{
			"buffer":0,
			"byteLength":24,
			"byteOffset":356156
		},
		{
			"buffer":0,
			"byteLength":32,
			"byteOffset":356180
		},
		{
			"buffer":0,
			"byteLength":24,
			"byteOffset":356212
		},
		{
			"buffer":0,
			"byteLength":24,
			"byteOffset":356236
		},
		{
			"buffer":0,
			"byteLength":976,
			"byteOffset":356260
		},
		{
			"buffer":0,
			"byteLength":24,
			"byteOffset":357236
		},
		{
			"buffer":0,
			"byteLength":24,
			"byteOffset":357260
		},
		{
			"buffer":0,
			"byteLength":976,
			"byteOffset":357284
		},
		{
			"buffer":0,
			"byteLength":24,
			"byteOffset":358260
		},
		{
			"buffer":0,
			"byteLength":24,
			"byteOffset":358284
		},
		{
			"buffer":0,
			"byteLength":32,
			"byteOffset":358308
		},
		{
			"buffer":0,
			"byteLength":24,
			"byteOffset":358340
		},
		{
			"buffer":0,
			"byteLength":24,
			"byteOffset":358364
		},
		{
			"buffer":0,
			"byteLength":32,
			"byteOffset":358388
		},
		{
			"buffer":0,
			"byteLength":24,
			"byteOffset":358420
		},
		{
			"buffer":0,
			"byteLength":24,
			"byteOffset":358444
		},
		{
			"buffer":0,
			"byteLength":976,
			"byteOffset":358468
		},
		{
			"buffer":0,
			"byteLength":24,
			"byteOffset":359444
		},
		{
			"buffer":0,
			"byteLength":24,
			"byteOffset":359468
		},
		{
			"buffer":0,
			"byteLength":32,
			"byteOffset":359492
		},
		{
			"buffer":0,
			"byteLength":24,
			"byteOffset":359524
		},
		{
			"buffer":0,
			"byteLength":24,
			"byteOffset":359548
		},
		{
			"buffer":0,
			"byteLength":32,
			"byteOffset":359572
		},
		{
			"buffer":0,
			"byteLength":24,
			"byteOffset":359604
		},
		{
			"buffer":0,
			"byteLength":24,
			"byteOffset":359628
		},
		{
			"buffer":0,
			"byteLength":32,
			"byteOffset":359652
		},
		{
			"buffer":0,
			"byteLength":24,
			"byteOffset":359684
		},
		{
			"buffer":0,
			"byteLength":24,
			"byteOffset":359708
		},
		{
			"buffer":0,
			"byteLength":32,
			"byteOffset":359732
		},
		{
			"buffer":0,
			"byteLength":24,
			"byteOffset":359764
		},
		{
			"buffer":0,
			"byteLength":24,
			"byteOffset":359788
		},
		{
			"buffer":0,
			"byteLength":32,
			"byteOffset":359812
		},
		{
			"buffer":0,
			"byteLength":24,
			"byteOffset":359844
		},
		{
			"buffer":0,
			"byteLength":24,
			"byteOffset":359868
		},
		{
			"buffer":0,
			"byteLength":32,
			"byteOffset":359892
		},
		{
			"buffer":0,
			"byteLength":24,
			"byteOffset":359924
		},
		{
			"buffer":0,
			"byteLength":24,
			"byteOffset":359948
		},
		{
			"buffer":0,
			"byteLength":32,
			"byteOffset":359972
		},
		{
			"buffer":0,
			"byteLength":24,
			"byteOffset":360004
		},
		{
			"buffer":0,
			"byteLength":24,
			"byteOffset":360028
		},
		{
			"buffer":0,
			"byteLength":32,
			"byteOffset":360052
		},
		{
			"buffer":0,
			"byteLength":24,
			"byteOffset":360084
		},
		{
			"buffer":0,
			"byteLength":124,
			"byteOffset":360108
		},
		{
			"buffer":0,
			"byteLength":372,
			"byteOffset":360232
		},
		{
			"buffer":0,
			"byteLength":496,
			"byteOffset":360604
		},
		{
			"buffer":0,
			"byteLength":8,
			"byteOffset":361100
		},
		{
			"buffer":0,
			"byteLength":24,
			"byteOffset":361108
		},
		{
			"buffer":0,
			"byteLength":24,
			"byteOffset":361132
		},
		{
			"buffer":0,
			"byteLength":496,
			"byteOffset":361156
		},
		{
			"buffer":0,
			"byteLength":24,
			"byteOffset":361652
		},
		{
			"buffer":0,
			"byteLength":24,
			"byteOffset":361676
		},
		{
			"buffer":0,
			"byteLength":32,
			"byteOffset":361700
		},
		{
			"buffer":0,
			"byteLength":24,
			"byteOffset":361732
		},
		{
			"buffer":0,
			"byteLength":24,
			"byteOffset":361756
		},
		{
			"buffer":0,
			"byteLength":32,
			"byteOffset":361780
		},
		{
			"buffer":0,
			"byteLength":24,
			"byteOffset":361812
		},
		{
			"buffer":0,
			"byteLength":24,
			"byteOffset":361836
		},
		{
			"buffer":0,
			"byteLength":496,
			"byteOffset":361860
		},
		{
			"buffer":0,
			"byteLength":24,
			"byteOffset":362356
		},
		{
			"buffer":0,
			"byteLength":24,
			"byteOffset":362380
		},
		{
			"buffer":0,
			"byteLength":32,
			"byteOffset":362404
		},
		{
			"buffer":0,
			"byteLength":24,
			"byteOffset":362436
		},
		{
			"buffer":0,
			"byteLength":24,
			"byteOffset":362460
		},
		{
			"buffer":0,
			"byteLength":32,
			"byteOffset":362484
		},
		{
			"buffer":0,
			"byteLength":24,
			"byteOffset":362516
		},
		{
			"buffer":0,
			"byteLength":24,
			"byteOffset":362540
		},
		{
			"buffer":0,
			"byteLength":496,
			"byteOffset":362564
		},
		{
			"buffer":0,
			"byteLength":24,
			"byteOffset":363060
		},
		{
			"buffer":0,
			"byteLength":24,
			"byteOffset":363084
		},
		{
			"buffer":0,
			"byteLength":32,
			"byteOffset":363108
		},
		{
			"buffer":0,
			"byteLength":24,
			"byteOffset":363140
		},
		{
			"buffer":0,
			"byteLength":24,
			"byteOffset":363164
		},
		{
			"buffer":0,
			"byteLength":32,
			"byteOffset":363188
		},
		{
			"buffer":0,
			"byteLength":24,
			"byteOffset":363220
		},
		{
			"buffer":0,
			"byteLength":24,
			"byteOffset":363244
		},
		{
			"buffer":0,
			"byteLength":496,
			"byteOffset":363268
		},
		{
			"buffer":0,
			"byteLength":24,
			"byteOffset":363764
		},
		{
			"buffer":0,
			"byteLength":24,
			"byteOffset":363788
		},
		{
			"buffer":0,
			"byteLength":32,
			"byteOffset":363812
		},
		{
			"buffer":0,
			"byteLength":24,
			"byteOffset":363844
		},
		{
			"buffer":0,
			"byteLength":24,
			"byteOffset":363868
		},
		{
			"buffer":0,
			"byteLength":32,
			"byteOffset":363892
		},
		{
			"buffer":0,
			"byteLength":24,
			"byteOffset":363924
		},
		{
			"buffer":0,
			"byteLength":24,
			"byteOffset":363948
		},
		{
			"buffer":0,
			"byteLength":496,
			"byteOffset":363972
		},
		{
			"buffer":0,
			"byteLength":24,
			"byteOffset":364468
		},
		{
			"buffer":0,
			"byteLength":24,
			"byteOffset":364492
		},
		{
			"buffer":0,
			"byteLength":496,
			"byteOffset":364516
		},
		{
			"buffer":0,
			"byteLength":24,
			"byteOffset":365012
		},
		{
			"buffer":0,
			"byteLength":24,
			"byteOffset":365036
		},
		{
			"buffer":0,
			"byteLength":496,
			"byteOffset":365060
		},
		{
			"buffer":0,
			"byteLength":24,
			"byteOffset":365556
		},
		{
			"buffer":0,
			"byteLength":24,
			"byteOffset":365580
		},
		{
			"buffer":0,
			"byteLength":496,
			"byteOffset":365604
		},
		{
			"buffer":0,
			"byteLength":24,
			"byteOffset":366100
		},
		{
			"buffer":0,
			"byteLength":24,
			"byteOffset":366124
		},
		{
			"buffer":0,
			"byteLength":496,
			"byteOffset":366148
		},
		{
			"buffer":0,
			"byteLength":24,
			"byteOffset":366644
		},
		{
			"buffer":0,
			"byteLength":24,
			"byteOffset":366668
		},
		{
			"buffer":0,
			"byteLength":496,
			"byteOffset":366692
		},
		{
			"buffer":0,
			"byteLength":24,
			"byteOffset":367188
		}
	],
	"samplers":[
		{
			"magFilter":9729,
			"minFilter":9987
		}
	],
	"buffers":[
		{
			"byteLength":367212,
			"uri":"lizardman.bin"
		}
	]
}
