{
	"asset":{
		"generator":"Khronos glTF Blender I/O v4.2.57",
		"version":"2.0"
	},
	"extensionsUsed":[
		"KHR_materials_clearcoat",
		"KHR_materials_sheen"
	],
	"scene":0,
	"scenes":[
		{
			"name":"Scene",
			"nodes":[
				18
			]
		}
	],
	"nodes":[
		{
			"name":"head",
			"translation":[
				0,
				0.09199988842010498,
				0
			]
		},
		{
			"children":[
				0
			],
			"name":"neck",
			"translation":[
				0,
				0.19320011138916016,
				0
			]
		},
		{
			"name":"hand.R",
			"rotation":[
				-0.0023572281934320927,
				-0.01641896925866604,
				0.017661137506365776,
				0.9997064471244812
			],
			"scale":[
				0.9999999403953552,
				1,
				1
			],
			"translation":[
				-7.508788257837296e-09,
				0.23127703368663788,
				9.313225746154785e-10
			]
		},
		{
			"children":[
				2
			],
			"name":"forearm.R",
			"rotation":[
				0.05022243410348892,
				-0.05592840537428856,
				0.06416882574558258,
				0.9951040744781494
			],
			"scale":[
				1,
				1,
				1.0000001192092896
			],
			"translation":[
				-1.7462298274040222e-09,
				0.2528075873851776,
				1.6298145055770874e-09
			]
		},
		{
			"children":[
				3
			],
			"name":"upper_arm.R",
			"rotation":[
				0.9912914037704468,
				0.09286532551050186,
				0.09286650270223618,
				0.009655779227614403
			],
			"scale":[
				0.9999925494194031,
				0.9999997615814209,
				0.9999996423721313
			],
			"translation":[
				0.15824000537395477,
				0.14719998836517334,
				0
			]
		},
		{
			"name":"hand.L",
			"rotation":[
				-0.0023572281934320927,
				0.01641896925866604,
				-0.017661137506365776,
				0.9997064471244812
			],
			"scale":[
				0.9999999403953552,
				1,
				1
			],
			"translation":[
				7.508788257837296e-09,
				0.23127703368663788,
				9.313225746154785e-10
			]
		},
		{
			"children":[
				5
			],
			"name":"forearm.L",
			"rotation":[
				0.05022243410348892,
				0.05592840537428856,
				-0.06416882574558258,
				0.9951040744781494
			],
			"scale":[
				1,
				1,
				1.0000001192092896
			],
			"translation":[
				1.7462298274040222e-09,
				0.2528075873851776,
				1.6298145055770874e-09
			]
		},
		{
			"children":[
				6
			],
			"name":"upper_arm.L",
			"rotation":[
				0.9912914037704468,
				-0.09286532551050186,
				-0.09286650270223618,
				0.009655779227614403
			],
			"scale":[
				0.9999925494194031,
				0.9999997615814209,
				0.9999996423721313
			],
			"translation":[
				-0.15824000537395477,
				0.14719998836517334,
				0
			]
		},
		{
			"children":[
				1,
				4,
				7
			],
			"name":"chest",
			"translation":[
				0,
				0.1563999056816101,
				0
			]
		},
		{
			"children":[
				8
			],
			"name":"spine",
			"translation":[
				0,
				0.13800007104873657,
				0
			]
		},
		{
			"name":"foot.R",
			"rotation":[
				0.5914180278778076,
				9.919559618154494e-10,
				-2.2224488915867369e-10,
				0.8063651323318481
			],
			"translation":[
				4.160029265509735e-11,
				0.377742737531662,
				-1.2791865344752296e-09
			]
		},
		{
			"children":[
				10
			],
			"name":"shin.R",
			"rotation":[
				-0.04152866080403328,
				-0.010850677266716957,
				0.010284041054546833,
				0.9990254640579224
			],
			"scale":[
				1,
				1.0000001192092896,
				1
			],
			"translation":[
				-8.629285730421543e-09,
				0.37744852900505066,
				9.313225746154785e-10
			]
		},
		{
			"children":[
				11
			],
			"name":"thigh.R",
			"rotation":[
				-0.9997796416282654,
				-0.010571152903139591,
				-0.010571259073913097,
				0.014739511534571648
			],
			"scale":[
				1.0000001192092896,
				0.9999998211860657,
				1.000000238418579
			],
			"translation":[
				0.09310400485992432,
				-0.018399953842163086,
				0
			]
		},
		{
			"name":"foot.L",
			"rotation":[
				0.5914180278778076,
				-9.919559618154494e-10,
				2.2224488915867369e-10,
				0.8063651323318481
			],
			"translation":[
				-4.160029265509735e-11,
				0.377742737531662,
				-1.2791865344752296e-09
			]
		},
		{
			"children":[
				13
			],
			"name":"shin.L",
			"rotation":[
				-0.04152866080403328,
				0.010850677266716957,
				-0.010284041054546833,
				0.9990254640579224
			],
			"scale":[
				1,
				1.0000001192092896,
				1
			],
			"translation":[
				8.629285730421543e-09,
				0.37744852900505066,
				9.313225746154785e-10
			]
		},
		{
			"children":[
				14
			],
			"name":"thigh.L",
			"rotation":[
				-0.9997796416282654,
				0.010571152903139591,
				0.010571259073913097,
				0.014739511534571648
			],
			"scale":[
				1.0000001192092896,
				0.9999998211860657,
				1.000000238418579
			],
			"translation":[
				-0.09310400485992432,
				-0.018399953842163086,
				0
			]
		},
		{
			"children":[
				9,
				12,
				15
			],
			"name":"hips",
			"translation":[
				0,
				0.8555999994277954,
				0
			]
		},
		{
			"mesh":0,
			"name":"luminous",
			"skin":0
		},
		{
			"children":[
				17,
				16
			],
			"name":"luminous_rig"
		}
	],
	"animations":[
		{
			"channels":[
				{
					"sampler":0,
					"target":{
						"node":16,
						"path":"translation"
					}
				},
				{
					"sampler":1,
					"target":{
						"node":16,
						"path":"rotation"
					}
				},
				{
					"sampler":2,
					"target":{
						"node":16,
						"path":"scale"
					}
				},
				{
					"sampler":3,
					"target":{
						"node":9,
						"path":"translation"
					}
				},
				{
					"sampler":4,
					"target":{
						"node":9,
						"path":"rotation"
					}
				},
				{
					"sampler":5,
					"target":{
						"node":9,
						"path":"scale"
					}
				},
				{
					"sampler":6,
					"target":{
						"node":8,
						"path":"translation"
					}
				},
				{
					"sampler":7,
					"target":{
						"node":8,
						"path":"rotation"
					}
				},
				{
					"sampler":8,
					"target":{
						"node":8,
						"path":"scale"
					}
				},
				{
					"sampler":9,
					"target":{
						"node":1,
						"path":"translation"
					}
				},
				{
					"sampler":10,
					"target":{
						"node":1,
						"path":"rotation"
					}
				},
				{
					"sampler":11,
					"target":{
						"node":1,
						"path":"scale"
					}
				},
				{
					"sampler":12,
					"target":{
						"node":0,
						"path":"translation"
					}
				},
				{
					"sampler":13,
					"target":{
						"node":0,
						"path":"rotation"
					}
				},
				{
					"sampler":14,
					"target":{
						"node":0,
						"path":"scale"
					}
				},
				{
					"sampler":15,
					"target":{
						"node":4,
						"path":"translation"
					}
				},
				{
					"sampler":16,
					"target":{
						"node":4,
						"path":"rotation"
					}
				},
				{
					"sampler":17,
					"target":{
						"node":4,
						"path":"scale"
					}
				},
				{
					"sampler":18,
					"target":{
						"node":3,
						"path":"translation"
					}
				},
				{
					"sampler":19,
					"target":{
						"node":3,
						"path":"rotation"
					}
				},
				{
					"sampler":20,
					"target":{
						"node":3,
						"path":"scale"
					}
				},
				{
					"sampler":21,
					"target":{
						"node":2,
						"path":"translation"
					}
				},
				{
					"sampler":22,
					"target":{
						"node":2,
						"path":"rotation"
					}
				},
				{
					"sampler":23,
					"target":{
						"node":2,
						"path":"scale"
					}
				},
				{
					"sampler":24,
					"target":{
						"node":7,
						"path":"translation"
					}
				},
				{
					"sampler":25,
					"target":{
						"node":7,
						"path":"rotation"
					}
				},
				{
					"sampler":26,
					"target":{
						"node":7,
						"path":"scale"
					}
				},
				{
					"sampler":27,
					"target":{
						"node":6,
						"path":"translation"
					}
				},
				{
					"sampler":28,
					"target":{
						"node":6,
						"path":"rotation"
					}
				},
				{
					"sampler":29,
					"target":{
						"node":6,
						"path":"scale"
					}
				},
				{
					"sampler":30,
					"target":{
						"node":5,
						"path":"translation"
					}
				},
				{
					"sampler":31,
					"target":{
						"node":5,
						"path":"rotation"
					}
				},
				{
					"sampler":32,
					"target":{
						"node":5,
						"path":"scale"
					}
				},
				{
					"sampler":33,
					"target":{
						"node":12,
						"path":"translation"
					}
				},
				{
					"sampler":34,
					"target":{
						"node":12,
						"path":"rotation"
					}
				},
				{
					"sampler":35,
					"target":{
						"node":12,
						"path":"scale"
					}
				},
				{
					"sampler":36,
					"target":{
						"node":11,
						"path":"translation"
					}
				},
				{
					"sampler":37,
					"target":{
						"node":11,
						"path":"rotation"
					}
				},
				{
					"sampler":38,
					"target":{
						"node":11,
						"path":"scale"
					}
				},
				{
					"sampler":39,
					"target":{
						"node":10,
						"path":"translation"
					}
				},
				{
					"sampler":40,
					"target":{
						"node":10,
						"path":"rotation"
					}
				},
				{
					"sampler":41,
					"target":{
						"node":10,
						"path":"scale"
					}
				},
				{
					"sampler":42,
					"target":{
						"node":15,
						"path":"translation"
					}
				},
				{
					"sampler":43,
					"target":{
						"node":15,
						"path":"rotation"
					}
				},
				{
					"sampler":44,
					"target":{
						"node":15,
						"path":"scale"
					}
				},
				{
					"sampler":45,
					"target":{
						"node":14,
						"path":"translation"
					}
				},
				{
					"sampler":46,
					"target":{
						"node":14,
						"path":"rotation"
					}
				},
				{
					"sampler":47,
					"target":{
						"node":14,
						"path":"scale"
					}
				},
				{
					"sampler":48,
					"target":{
						"node":13,
						"path":"translation"
					}
				},
				{
					"sampler":49,
					"target":{
						"node":13,
						"path":"rotation"
					}
				},
				{
					"sampler":50,
					"target":{
						"node":13,
						"path":"scale"
					}
				}
			],
			"name":"attack",
			"samplers":[
				{
					"input":73,
					"interpolation":"STEP",
					"output":74
				},
				{
					"input":73,
					"interpolation":"STEP",
					"output":75
				},
				{
					"input":73,
					"interpolation":"STEP",
					"output":76
				},
				{
					"input":73,
					"interpolation":"STEP",
					"output":77
				},
				{
					"input":73,
					"interpolation":"STEP",
					"output":78
				},
				{
					"input":73,
					"interpolation":"STEP",
					"output":79
				},
				{
					"input":73,
					"interpolation":"STEP",
					"output":80
				},
				{
					"input":81,
					"interpolation":"LINEAR",
					"output":82
				},
				{
					"input":73,
					"interpolation":"STEP",
					"output":83
				},
				{
					"input":73,
					"interpolation":"STEP",
					"output":84
				},
				{
					"input":73,
					"interpolation":"STEP",
					"output":85
				},
				{
					"input":73,
					"interpolation":"STEP",
					"output":86
				},
				{
					"input":73,
					"interpolation":"STEP",
					"output":87
				},
				{
					"input":73,
					"interpolation":"STEP",
					"output":88
				},
				{
					"input":73,
					"interpolation":"STEP",
					"output":89
				},
				{
					"input":73,
					"interpolation":"STEP",
					"output":90
				},
				{
					"input":81,
					"interpolation":"LINEAR",
					"output":91
				},
				{
					"input":73,
					"interpolation":"STEP",
					"output":92
				},
				{
					"input":73,
					"interpolation":"STEP",
					"output":93
				},
				{
					"input":81,
					"interpolation":"LINEAR",
					"output":94
				},
				{
					"input":73,
					"interpolation":"STEP",
					"output":95
				},
				{
					"input":73,
					"interpolation":"STEP",
					"output":96
				},
				{
					"input":73,
					"interpolation":"STEP",
					"output":97
				},
				{
					"input":73,
					"interpolation":"STEP",
					"output":98
				},
				{
					"input":73,
					"interpolation":"STEP",
					"output":99
				},
				{
					"input":81,
					"interpolation":"LINEAR",
					"output":100
				},
				{
					"input":73,
					"interpolation":"STEP",
					"output":101
				},
				{
					"input":73,
					"interpolation":"STEP",
					"output":102
				},
				{
					"input":73,
					"interpolation":"STEP",
					"output":103
				},
				{
					"input":73,
					"interpolation":"STEP",
					"output":104
				},
				{
					"input":73,
					"interpolation":"STEP",
					"output":105
				},
				{
					"input":73,
					"interpolation":"STEP",
					"output":106
				},
				{
					"input":73,
					"interpolation":"STEP",
					"output":107
				},
				{
					"input":73,
					"interpolation":"STEP",
					"output":108
				},
				{
					"input":81,
					"interpolation":"LINEAR",
					"output":109
				},
				{
					"input":73,
					"interpolation":"STEP",
					"output":110
				},
				{
					"input":73,
					"interpolation":"LINEAR",
					"output":111
				},
				{
					"input":73,
					"interpolation":"LINEAR",
					"output":112
				},
				{
					"input":73,
					"interpolation":"STEP",
					"output":113
				},
				{
					"input":73,
					"interpolation":"LINEAR",
					"output":114
				},
				{
					"input":73,
					"interpolation":"LINEAR",
					"output":115
				},
				{
					"input":73,
					"interpolation":"STEP",
					"output":116
				},
				{
					"input":73,
					"interpolation":"STEP",
					"output":117
				},
				{
					"input":81,
					"interpolation":"LINEAR",
					"output":118
				},
				{
					"input":73,
					"interpolation":"STEP",
					"output":119
				},
				{
					"input":73,
					"interpolation":"LINEAR",
					"output":120
				},
				{
					"input":73,
					"interpolation":"LINEAR",
					"output":121
				},
				{
					"input":73,
					"interpolation":"STEP",
					"output":122
				},
				{
					"input":73,
					"interpolation":"LINEAR",
					"output":123
				},
				{
					"input":73,
					"interpolation":"LINEAR",
					"output":124
				},
				{
					"input":73,
					"interpolation":"STEP",
					"output":125
				}
			]
		},
		{
			"channels":[
				{
					"sampler":0,
					"target":{
						"node":16,
						"path":"translation"
					}
				},
				{
					"sampler":1,
					"target":{
						"node":16,
						"path":"rotation"
					}
				},
				{
					"sampler":2,
					"target":{
						"node":16,
						"path":"scale"
					}
				},
				{
					"sampler":3,
					"target":{
						"node":9,
						"path":"translation"
					}
				},
				{
					"sampler":4,
					"target":{
						"node":9,
						"path":"rotation"
					}
				},
				{
					"sampler":5,
					"target":{
						"node":9,
						"path":"scale"
					}
				},
				{
					"sampler":6,
					"target":{
						"node":8,
						"path":"translation"
					}
				},
				{
					"sampler":7,
					"target":{
						"node":8,
						"path":"rotation"
					}
				},
				{
					"sampler":8,
					"target":{
						"node":8,
						"path":"scale"
					}
				},
				{
					"sampler":9,
					"target":{
						"node":1,
						"path":"translation"
					}
				},
				{
					"sampler":10,
					"target":{
						"node":1,
						"path":"rotation"
					}
				},
				{
					"sampler":11,
					"target":{
						"node":1,
						"path":"scale"
					}
				},
				{
					"sampler":12,
					"target":{
						"node":0,
						"path":"translation"
					}
				},
				{
					"sampler":13,
					"target":{
						"node":0,
						"path":"rotation"
					}
				},
				{
					"sampler":14,
					"target":{
						"node":0,
						"path":"scale"
					}
				},
				{
					"sampler":15,
					"target":{
						"node":4,
						"path":"translation"
					}
				},
				{
					"sampler":16,
					"target":{
						"node":4,
						"path":"rotation"
					}
				},
				{
					"sampler":17,
					"target":{
						"node":4,
						"path":"scale"
					}
				},
				{
					"sampler":18,
					"target":{
						"node":3,
						"path":"translation"
					}
				},
				{
					"sampler":19,
					"target":{
						"node":3,
						"path":"rotation"
					}
				},
				{
					"sampler":20,
					"target":{
						"node":3,
						"path":"scale"
					}
				},
				{
					"sampler":21,
					"target":{
						"node":2,
						"path":"translation"
					}
				},
				{
					"sampler":22,
					"target":{
						"node":2,
						"path":"rotation"
					}
				},
				{
					"sampler":23,
					"target":{
						"node":2,
						"path":"scale"
					}
				},
				{
					"sampler":24,
					"target":{
						"node":7,
						"path":"translation"
					}
				},
				{
					"sampler":25,
					"target":{
						"node":7,
						"path":"rotation"
					}
				},
				{
					"sampler":26,
					"target":{
						"node":7,
						"path":"scale"
					}
				},
				{
					"sampler":27,
					"target":{
						"node":6,
						"path":"translation"
					}
				},
				{
					"sampler":28,
					"target":{
						"node":6,
						"path":"rotation"
					}
				},
				{
					"sampler":29,
					"target":{
						"node":6,
						"path":"scale"
					}
				},
				{
					"sampler":30,
					"target":{
						"node":5,
						"path":"translation"
					}
				},
				{
					"sampler":31,
					"target":{
						"node":5,
						"path":"rotation"
					}
				},
				{
					"sampler":32,
					"target":{
						"node":5,
						"path":"scale"
					}
				},
				{
					"sampler":33,
					"target":{
						"node":12,
						"path":"translation"
					}
				},
				{
					"sampler":34,
					"target":{
						"node":12,
						"path":"rotation"
					}
				},
				{
					"sampler":35,
					"target":{
						"node":12,
						"path":"scale"
					}
				},
				{
					"sampler":36,
					"target":{
						"node":11,
						"path":"translation"
					}
				},
				{
					"sampler":37,
					"target":{
						"node":11,
						"path":"rotation"
					}
				},
				{
					"sampler":38,
					"target":{
						"node":11,
						"path":"scale"
					}
				},
				{
					"sampler":39,
					"target":{
						"node":10,
						"path":"translation"
					}
				},
				{
					"sampler":40,
					"target":{
						"node":10,
						"path":"rotation"
					}
				},
				{
					"sampler":41,
					"target":{
						"node":10,
						"path":"scale"
					}
				},
				{
					"sampler":42,
					"target":{
						"node":15,
						"path":"translation"
					}
				},
				{
					"sampler":43,
					"target":{
						"node":15,
						"path":"rotation"
					}
				},
				{
					"sampler":44,
					"target":{
						"node":15,
						"path":"scale"
					}
				},
				{
					"sampler":45,
					"target":{
						"node":14,
						"path":"translation"
					}
				},
				{
					"sampler":46,
					"target":{
						"node":14,
						"path":"rotation"
					}
				},
				{
					"sampler":47,
					"target":{
						"node":14,
						"path":"scale"
					}
				},
				{
					"sampler":48,
					"target":{
						"node":13,
						"path":"translation"
					}
				},
				{
					"sampler":49,
					"target":{
						"node":13,
						"path":"rotation"
					}
				},
				{
					"sampler":50,
					"target":{
						"node":13,
						"path":"scale"
					}
				}
			],
			"name":"idle",
			"samplers":[
				{
					"input":126,
					"interpolation":"LINEAR",
					"output":127
				},
				{
					"input":128,
					"interpolation":"STEP",
					"output":129
				},
				{
					"input":128,
					"interpolation":"STEP",
					"output":130
				},
				{
					"input":128,
					"interpolation":"STEP",
					"output":131
				},
				{
					"input":128,
					"interpolation":"STEP",
					"output":132
				},
				{
					"input":128,
					"interpolation":"STEP",
					"output":133
				},
				{
					"input":128,
					"interpolation":"STEP",
					"output":134
				},
				{
					"input":126,
					"interpolation":"LINEAR",
					"output":135
				},
				{
					"input":128,
					"interpolation":"STEP",
					"output":136
				},
				{
					"input":128,
					"interpolation":"STEP",
					"output":137
				},
				{
					"input":128,
					"interpolation":"STEP",
					"output":138
				},
				{
					"input":128,
					"interpolation":"STEP",
					"output":139
				},
				{
					"input":128,
					"interpolation":"STEP",
					"output":140
				},
				{
					"input":126,
					"interpolation":"LINEAR",
					"output":141
				},
				{
					"input":128,
					"interpolation":"STEP",
					"output":142
				},
				{
					"input":128,
					"interpolation":"STEP",
					"output":143
				},
				{
					"input":126,
					"interpolation":"LINEAR",
					"output":144
				},
				{
					"input":128,
					"interpolation":"STEP",
					"output":145
				},
				{
					"input":128,
					"interpolation":"STEP",
					"output":146
				},
				{
					"input":128,
					"interpolation":"STEP",
					"output":147
				},
				{
					"input":128,
					"interpolation":"STEP",
					"output":148
				},
				{
					"input":128,
					"interpolation":"STEP",
					"output":149
				},
				{
					"input":128,
					"interpolation":"STEP",
					"output":150
				},
				{
					"input":128,
					"interpolation":"STEP",
					"output":151
				},
				{
					"input":128,
					"interpolation":"STEP",
					"output":152
				},
				{
					"input":126,
					"interpolation":"LINEAR",
					"output":153
				},
				{
					"input":128,
					"interpolation":"STEP",
					"output":154
				},
				{
					"input":128,
					"interpolation":"STEP",
					"output":155
				},
				{
					"input":128,
					"interpolation":"STEP",
					"output":156
				},
				{
					"input":128,
					"interpolation":"STEP",
					"output":157
				},
				{
					"input":128,
					"interpolation":"STEP",
					"output":158
				},
				{
					"input":128,
					"interpolation":"STEP",
					"output":159
				},
				{
					"input":128,
					"interpolation":"STEP",
					"output":160
				},
				{
					"input":128,
					"interpolation":"STEP",
					"output":161
				},
				{
					"input":128,
					"interpolation":"STEP",
					"output":162
				},
				{
					"input":128,
					"interpolation":"STEP",
					"output":163
				},
				{
					"input":128,
					"interpolation":"STEP",
					"output":164
				},
				{
					"input":128,
					"interpolation":"STEP",
					"output":165
				},
				{
					"input":128,
					"interpolation":"STEP",
					"output":166
				},
				{
					"input":128,
					"interpolation":"STEP",
					"output":167
				},
				{
					"input":128,
					"interpolation":"STEP",
					"output":168
				},
				{
					"input":128,
					"interpolation":"STEP",
					"output":169
				},
				{
					"input":128,
					"interpolation":"STEP",
					"output":170
				},
				{
					"input":128,
					"interpolation":"STEP",
					"output":171
				},
				{
					"input":128,
					"interpolation":"STEP",
					"output":172
				},
				{
					"input":128,
					"interpolation":"STEP",
					"output":173
				},
				{
					"input":128,
					"interpolation":"STEP",
					"output":174
				},
				{
					"input":128,
					"interpolation":"STEP",
					"output":175
				},
				{
					"input":128,
					"interpolation":"STEP",
					"output":176
				},
				{
					"input":128,
					"interpolation":"STEP",
					"output":177
				},
				{
					"input":128,
					"interpolation":"STEP",
					"output":178
				}
			]
		},
		{
			"channels":[
				{
					"sampler":0,
					"target":{
						"node":16,
						"path":"translation"
					}
				},
				{
					"sampler":1,
					"target":{
						"node":16,
						"path":"rotation"
					}
				},
				{
					"sampler":2,
					"target":{
						"node":16,
						"path":"scale"
					}
				},
				{
					"sampler":3,
					"target":{
						"node":9,
						"path":"translation"
					}
				},
				{
					"sampler":4,
					"target":{
						"node":9,
						"path":"rotation"
					}
				},
				{
					"sampler":5,
					"target":{
						"node":9,
						"path":"scale"
					}
				},
				{
					"sampler":6,
					"target":{
						"node":8,
						"path":"translation"
					}
				},
				{
					"sampler":7,
					"target":{
						"node":8,
						"path":"rotation"
					}
				},
				{
					"sampler":8,
					"target":{
						"node":8,
						"path":"scale"
					}
				},
				{
					"sampler":9,
					"target":{
						"node":1,
						"path":"translation"
					}
				},
				{
					"sampler":10,
					"target":{
						"node":1,
						"path":"rotation"
					}
				},
				{
					"sampler":11,
					"target":{
						"node":1,
						"path":"scale"
					}
				},
				{
					"sampler":12,
					"target":{
						"node":0,
						"path":"translation"
					}
				},
				{
					"sampler":13,
					"target":{
						"node":0,
						"path":"rotation"
					}
				},
				{
					"sampler":14,
					"target":{
						"node":0,
						"path":"scale"
					}
				},
				{
					"sampler":15,
					"target":{
						"node":4,
						"path":"translation"
					}
				},
				{
					"sampler":16,
					"target":{
						"node":4,
						"path":"rotation"
					}
				},
				{
					"sampler":17,
					"target":{
						"node":4,
						"path":"scale"
					}
				},
				{
					"sampler":18,
					"target":{
						"node":3,
						"path":"translation"
					}
				},
				{
					"sampler":19,
					"target":{
						"node":3,
						"path":"rotation"
					}
				},
				{
					"sampler":20,
					"target":{
						"node":3,
						"path":"scale"
					}
				},
				{
					"sampler":21,
					"target":{
						"node":2,
						"path":"translation"
					}
				},
				{
					"sampler":22,
					"target":{
						"node":2,
						"path":"rotation"
					}
				},
				{
					"sampler":23,
					"target":{
						"node":2,
						"path":"scale"
					}
				},
				{
					"sampler":24,
					"target":{
						"node":7,
						"path":"translation"
					}
				},
				{
					"sampler":25,
					"target":{
						"node":7,
						"path":"rotation"
					}
				},
				{
					"sampler":26,
					"target":{
						"node":7,
						"path":"scale"
					}
				},
				{
					"sampler":27,
					"target":{
						"node":6,
						"path":"translation"
					}
				},
				{
					"sampler":28,
					"target":{
						"node":6,
						"path":"rotation"
					}
				},
				{
					"sampler":29,
					"target":{
						"node":6,
						"path":"scale"
					}
				},
				{
					"sampler":30,
					"target":{
						"node":5,
						"path":"translation"
					}
				},
				{
					"sampler":31,
					"target":{
						"node":5,
						"path":"rotation"
					}
				},
				{
					"sampler":32,
					"target":{
						"node":5,
						"path":"scale"
					}
				},
				{
					"sampler":33,
					"target":{
						"node":12,
						"path":"translation"
					}
				},
				{
					"sampler":34,
					"target":{
						"node":12,
						"path":"rotation"
					}
				},
				{
					"sampler":35,
					"target":{
						"node":12,
						"path":"scale"
					}
				},
				{
					"sampler":36,
					"target":{
						"node":11,
						"path":"translation"
					}
				},
				{
					"sampler":37,
					"target":{
						"node":11,
						"path":"rotation"
					}
				},
				{
					"sampler":38,
					"target":{
						"node":11,
						"path":"scale"
					}
				},
				{
					"sampler":39,
					"target":{
						"node":10,
						"path":"translation"
					}
				},
				{
					"sampler":40,
					"target":{
						"node":10,
						"path":"rotation"
					}
				},
				{
					"sampler":41,
					"target":{
						"node":10,
						"path":"scale"
					}
				},
				{
					"sampler":42,
					"target":{
						"node":15,
						"path":"translation"
					}
				},
				{
					"sampler":43,
					"target":{
						"node":15,
						"path":"rotation"
					}
				},
				{
					"sampler":44,
					"target":{
						"node":15,
						"path":"scale"
					}
				},
				{
					"sampler":45,
					"target":{
						"node":14,
						"path":"translation"
					}
				},
				{
					"sampler":46,
					"target":{
						"node":14,
						"path":"rotation"
					}
				},
				{
					"sampler":47,
					"target":{
						"node":14,
						"path":"scale"
					}
				},
				{
					"sampler":48,
					"target":{
						"node":13,
						"path":"translation"
					}
				},
				{
					"sampler":49,
					"target":{
						"node":13,
						"path":"rotation"
					}
				},
				{
					"sampler":50,
					"target":{
						"node":13,
						"path":"scale"
					}
				}
			],
			"name":"walk",
			"samplers":[
				{
					"input":179,
					"interpolation":"LINEAR",
					"output":180
				},
				{
					"input":179,
					"interpolation":"LINEAR",
					"output":181
				},
				{
					"input":182,
					"interpolation":"STEP",
					"output":183
				},
				{
					"input":182,
					"interpolation":"STEP",
					"output":184
				},
				{
					"input":182,
					"interpolation":"STEP",
					"output":185
				},
				{
					"input":182,
					"interpolation":"STEP",
					"output":186
				},
				{
					"input":182,
					"interpolation":"STEP",
					"output":187
				},
				{
					"input":179,
					"interpolation":"LINEAR",
					"output":188
				},
				{
					"input":182,
					"interpolation":"STEP",
					"output":189
				},
				{
					"input":182,
					"interpolation":"STEP",
					"output":190
				},
				{
					"input":182,
					"interpolation":"STEP",
					"output":191
				},
				{
					"input":182,
					"interpolation":"STEP",
					"output":192
				},
				{
					"input":182,
					"interpolation":"STEP",
					"output":193
				},
				{
					"input":182,
					"interpolation":"STEP",
					"output":194
				},
				{
					"input":182,
					"interpolation":"STEP",
					"output":195
				},
				{
					"input":182,
					"interpolation":"STEP",
					"output":196
				},
				{
					"input":179,
					"interpolation":"LINEAR",
					"output":197
				},
				{
					"input":182,
					"interpolation":"STEP",
					"output":198
				},
				{
					"input":182,
					"interpolation":"STEP",
					"output":199
				},
				{
					"input":182,
					"interpolation":"STEP",
					"output":200
				},
				{
					"input":182,
					"interpolation":"STEP",
					"output":201
				},
				{
					"input":182,
					"interpolation":"STEP",
					"output":202
				},
				{
					"input":182,
					"interpolation":"STEP",
					"output":203
				},
				{
					"input":182,
					"interpolation":"STEP",
					"output":204
				},
				{
					"input":182,
					"interpolation":"STEP",
					"output":205
				},
				{
					"input":179,
					"interpolation":"LINEAR",
					"output":206
				},
				{
					"input":182,
					"interpolation":"STEP",
					"output":207
				},
				{
					"input":182,
					"interpolation":"STEP",
					"output":208
				},
				{
					"input":182,
					"interpolation":"STEP",
					"output":209
				},
				{
					"input":182,
					"interpolation":"STEP",
					"output":210
				},
				{
					"input":182,
					"interpolation":"STEP",
					"output":211
				},
				{
					"input":182,
					"interpolation":"STEP",
					"output":212
				},
				{
					"input":182,
					"interpolation":"STEP",
					"output":213
				},
				{
					"input":182,
					"interpolation":"STEP",
					"output":214
				},
				{
					"input":179,
					"interpolation":"LINEAR",
					"output":215
				},
				{
					"input":182,
					"interpolation":"STEP",
					"output":216
				},
				{
					"input":182,
					"interpolation":"STEP",
					"output":217
				},
				{
					"input":179,
					"interpolation":"LINEAR",
					"output":218
				},
				{
					"input":182,
					"interpolation":"STEP",
					"output":219
				},
				{
					"input":182,
					"interpolation":"STEP",
					"output":220
				},
				{
					"input":179,
					"interpolation":"LINEAR",
					"output":221
				},
				{
					"input":182,
					"interpolation":"STEP",
					"output":222
				},
				{
					"input":182,
					"interpolation":"STEP",
					"output":223
				},
				{
					"input":179,
					"interpolation":"LINEAR",
					"output":224
				},
				{
					"input":182,
					"interpolation":"STEP",
					"output":225
				},
				{
					"input":182,
					"interpolation":"STEP",
					"output":226
				},
				{
					"input":179,
					"interpolation":"LINEAR",
					"output":227
				},
				{
					"input":182,
					"interpolation":"STEP",
					"output":228
				},
				{
					"input":182,
					"interpolation":"STEP",
					"output":229
				},
				{
					"input":179,
					"interpolation":"LINEAR",
					"output":230
				},
				{
					"input":182,
					"interpolation":"STEP",
					"output":231
				}
			]
		}
	],
	"materials":[
		{
			"name":"skin",
			"normalTexture":{
				"index":0,
				"scale":0.4000000059604645
			},
			"pbrMetallicRoughness":{
				"baseColorFactor":[
					0.9551045894622803,
					0.8900054097175598,
					0.8900054097175598,
					1
				],
				"metallicFactor":0,
				"roughnessFactor":0.550000011920929
			}
		},
		{
			"extensions":{
				"KHR_materials_sheen":{
					"sheenColorFactor":[
						1.0,
						1.0,
						1.0
					],
					"sheenRoughnessFactor":0.5
				}
			},
			"name":"hair",
			"normalTexture":{
				"index":1,
				"scale":0.800000011920929
			},
			"pbrMetallicRoughness":{
				"baseColorFactor":[
					0.8275708556175232,
					0.8275708556175232,
					0.9551045894622803,
					1
				],
				"metallicFactor":0,
				"roughnessFactor":0.44999998807907104
			}
		},
		{
			"extensions":{
				"KHR_materials_sheen":{
					"sheenColorFactor":[
						1.0,
						1.0,
						1.0
					],
					"sheenRoughnessFactor":0.5
				}
			},
			"name":"outfit",
			"normalTexture":{
				"index":2,
				"scale":0.6000000238418579
			},
			"pbrMetallicRoughness":{
				"baseColorFactor":[
					0.010022825561463833,
					0.003935939632356167,
					0.010022825561463833,
					1
				],
				"metallicFactor":0,
				"roughnessFactor":0.75
			}
		},
		{
			"name":"outfit2",
			"normalTexture":{
				"index":3,
				"scale":0.4000000059604645
			},
			"pbrMetallicRoughness":{
				"baseColorFactor":[
					0.6038273572921753,
					0.010022825561463833,
					0.03310476616024971,
					1
				],
				"metallicFactor":0,
				"roughnessFactor":0.6000000238418579
			}
		},
		{
			"name":"pants",
			"normalTexture":{
				"index":4,
				"scale":0.6000000238418579
			},
			"pbrMetallicRoughness":{
				"baseColorFactor":[
					0.005981059744954109,
					0.0027089782524853945,
					0.005981059744954109,
					1
				],
				"metallicFactor":0,
				"roughnessFactor":0.800000011920929
			}
		},
		{
			"extensions":{
				"KHR_materials_clearcoat":{
					"clearcoatFactor":0.30000001192092896
				}
			},
			"name":"boots",
			"normalTexture":{
				"index":5,
				"scale":0.800000011920929
			},
			"pbrMetallicRoughness":{
				"baseColorFactor":[
					0.0134117491543293,
					0.010022825561463833,
					0.010022825561463833,
					1
				],
				"metallicFactor":0,
				"roughnessFactor":0.44999998807907104
			}
		},
		{
			"name":"eye_white",
			"pbrMetallicRoughness":{
				"baseColorFactor":[
					0.8900054097175598,
					0.8900054097175598,
					0.8900054097175598,
					1
				],
				"metallicFactor":0,
				"roughnessFactor":0.20000000298023224
			}
		},
		{
			"emissiveFactor":[
				0.47244739025622096,
				0.006013695575841083,
				0.019862860485428957
			],
			"name":"iris",
			"pbrMetallicRoughness":{
				"baseColorFactor":[
					0.7874122858047485,
					0.010022825561463833,
					0.03310476616024971,
					1
				],
				"metallicFactor":0,
				"roughnessFactor":0.15000000596046448
			}
		},
		{
			"name":"pupil",
			"pbrMetallicRoughness":{
				"baseColorFactor":[
					0.0015479875728487968,
					0.0015479875728487968,
					0.0023219813592731953,
					1
				],
				"metallicFactor":0,
				"roughnessFactor":0.10000000149011612
			}
		},
		{
			"name":"lips",
			"pbrMetallicRoughness":{
				"baseColorFactor":[
					0.4283095896244049,
					0.3997533321380615,
					0.3997533321380615,
					1
				],
				"metallicFactor":0,
				"roughnessFactor":0.4000000059604645
			}
		},
		{
			"doubleSided":true,
			"name":"skirt",
			"normalTexture":{
				"index":6,
				"scale":0.6000000238418579
			},
			"pbrMetallicRoughness":{
				"baseColorFactor":[
					0.6038273572921753,
					0.010022825561463833,
					0.03310476616024971,
					1
				],
				"metallicFactor":0,
				"roughnessFactor":0.699999988079071
			}
		},
		{
			"name":"buckle",
			"pbrMetallicRoughness":{
				"baseColorFactor":[
					0.6920710802078247,
					0.4479884207248688,
					0.07323895394802094,
					1
				],
				"metallicFactor":0.8999999761581421,
				"roughnessFactor":0.30000001192092896
			}
		}
	],
	"meshes":[
		{
			"name":"luminous",
			"primitives":[
				{
					"attributes":{
						"POSITION":0,
						"NORMAL":1,
						"TEXCOORD_0":2,
						"JOINTS_0":3,
						"WEIGHTS_0":4
					},
					"indices":5,
					"material":0
				},
				{
					"attributes":{
						"POSITION":6,
						"NORMAL":7,
						"TEXCOORD_0":8,
						"JOINTS_0":9,
						"WEIGHTS_0":10
					},
					"indices":11,
					"material":1
				},
				{
					"attributes":{
						"POSITION":12,
						"NORMAL":13,
						"TEXCOORD_0":14,
						"JOINTS_0":15,
						"WEIGHTS_0":16
					},
					"indices":17,
					"material":2
				},
				{
					"attributes":{
						"POSITION":18,
						"NORMAL":19,
						"TEXCOORD_0":20,
						"JOINTS_0":21,
						"WEIGHTS_0":22
					},
					"indices":23,
					"material":3
				},
				{
					"attributes":{
						"POSITION":24,
						"NORMAL":25,
						"TEXCOORD_0":26,
						"JOINTS_0":27,
						"WEIGHTS_0":28
					},
					"indices":29,
					"material":4
				},
				{
					"attributes":{
						"POSITION":30,
						"NORMAL":31,
						"TEXCOORD_0":32,
						"JOINTS_0":33,
						"WEIGHTS_0":34
					},
					"indices":35,
					"material":5
				},
				{
					"attributes":{
						"POSITION":36,
						"NORMAL":37,
						"TEXCOORD_0":38,
						"JOINTS_0":39,
						"WEIGHTS_0":40
					},
					"indices":41,
					"material":6
				},
				{
					"attributes":{
						"POSITION":42,
						"NORMAL":43,
						"TEXCOORD_0":44,
						"JOINTS_0":45,
						"WEIGHTS_0":46
					},
					"indices":47,
					"material":7
				},
				{
					"attributes":{
						"POSITION":48,
						"NORMAL":49,
						"TEXCOORD_0":50,
						"JOINTS_0":51,
						"WEIGHTS_0":52
					},
					"indices":53,
					"material":8
				},
				{
					"attributes":{
						"POSITION":54,
						"NORMAL":55,
						"TEXCOORD_0":56,
						"JOINTS_0":57,
						"WEIGHTS_0":58
					},
					"indices":59,
					"material":9
				},
				{
					"attributes":{
						"POSITION":60,
						"NORMAL":61,
						"TEXCOORD_0":62,
						"JOINTS_0":63,
						"WEIGHTS_0":64
					},
					"indices":65,
					"material":10
				},
				{
					"attributes":{
						"POSITION":66,
						"NORMAL":67,
						"TEXCOORD_0":68,
						"JOINTS_0":69,
						"WEIGHTS_0":70
					},
					"indices":71,
					"material":11
				}
			]
		}
	],
	"textures":[
		{
			"sampler":0,
			"source":0
		},
		{
			"sampler":0,
			"source":1
		},
		{
			"sampler":0,
			"source":2
		},
		{
			"sampler":0,
			"source":2
		},
		{
			"sampler":0,
			"source":2
		},
		{
			"sampler":0,
			"source":3
		},
		{
			"sampler":0,
			"source":2
		}
	],
	"images":[
		{
			"mimeType":"image/png",
			"name":"N_skin",
			"uri":"texturas/N_skin.png"
		},
		{
			"mimeType":"image/png",
			"name":"N_hair",
			"uri":"texturas/N_hair.png"
		},
		{
			"mimeType":"image/png",
			"name":"N_cloth",
			"uri":"texturas/N_cloth.png"
		},
		{
			"mimeType":"image/png",
			"name":"N_leather",
			"uri":"texturas/N_leather.png"
		}
	],
	"skins":[
		{
			"inverseBindMatrices":72,
			"joints":[
				16,
				9,
				8,
				1,
				0,
				4,
				3,
				2,
				7,
				6,
				5,
				12,
				11,
				10,
				15,
				14,
				13
			],
			"name":"luminous_rig"
		}
	],
	"accessors":[
		{
			"bufferView":0,
			"componentType":5126,
			"count":1409,
			"max":[
				0.24329401552677155,
				1.641279935836792,
				0.09863555431365967
			],
			"min":[
				-0.24329401552677155,
				0.7217103838920593,
				-0.10679059475660324
			],
			"type":"VEC3"
		},
		{
			"bufferView":1,
			"componentType":5126,
			"count":1409,
			"type":"VEC3"
		},
		{
			"bufferView":2,
			"componentType":5126,
			"count":1409,
			"type":"VEC2"
		},
		{
			"bufferView":3,
			"componentType":5121,
			"count":1409,
			"type":"VEC4"
		},
		{
			"bufferView":4,
			"componentType":5126,
			"count":1409,
			"type":"VEC4"
		},
		{
			"bufferView":5,
			"componentType":5123,
			"count":5808,
			"type":"SCALAR"
		},
		{
			"bufferView":6,
			"componentType":5126,
			"count":2970,
			"max":[
				0.13076016306877136,
				1.6679681539535522,
				0.1951143443584442
			],
			"min":[
				-0.1274985671043396,
				0.8899521827697754,
				-0.11049158126115799
			],
			"type":"VEC3"
		},
		{
			"bufferView":7,
			"componentType":5126,
			"count":2970,
			"type":"VEC3"
		},
		{
			"bufferView":8,
			"componentType":5126,
			"count":2970,
			"type":"VEC2"
		},
		{
			"bufferView":9,
			"componentType":5121,
			"count":2970,
			"type":"VEC4"
		},
		{
			"bufferView":10,
			"componentType":5126,
			"count":2970,
			"type":"VEC4"
		},
		{
			"bufferView":11,
			"componentType":5123,
			"count":10392,
			"type":"SCALAR"
		},
		{
			"bufferView":12,
			"componentType":5126,
			"count":1916,
			"max":[
				0.24565432965755463,
				1.3512988090515137,
				0.0828825980424881
			],
			"min":[
				-0.24565429985523224,
				0.8487960696220398,
				-0.1103999987244606
			],
			"type":"VEC3"
		},
		{
			"bufferView":13,
			"componentType":5126,
			"count":1916,
			"type":"VEC3"
		},
		{
			"bufferView":14,
			"componentType":5126,
			"count":1916,
			"type":"VEC2"
		},
		{
			"bufferView":15,
			"componentType":5121,
			"count":1916,
			"type":"VEC4"
		},
		{
			"bufferView":16,
			"componentType":5126,
			"count":1916,
			"type":"VEC4"
		},
		{
			"bufferView":17,
			"componentType":5123,
			"count":8652,
			"type":"SCALAR"
		},
		{
			"bufferView":18,
			"componentType":5126,
			"count":76,
			"max":[
				0.14521506428718567,
				0.9178207516670227,
				0.09828568994998932
			],
			"min":[
				-0.14521506428718567,
				0.8095303773880005,
				-0.09999731183052063
			],
			"type":"VEC3"
		},
		{
			"bufferView":19,
			"componentType":5126,
			"count":76,
			"type":"VEC3"
		},
		{
			"bufferView":20,
			"componentType":5126,
			"count":76,
			"type":"VEC2"
		},
		{
			"bufferView":21,
			"componentType":5121,
			"count":76,
			"type":"VEC4"
		},
		{
			"bufferView":22,
			"componentType":5126,
			"count":76,
			"type":"VEC4"
		},
		{
			"bufferView":23,
			"componentType":5123,
			"count":264,
			"type":"SCALAR"
		},
		{
			"bufferView":24,
			"componentType":5126,
			"count":995,
			"max":[
				0.24404793977737427,
				0.8690900206565857,
				0.09802943468093872
			],
			"min":[
				-0.24404793977737427,
				0.2773520052433014,
				-0.09999731183052063
			],
			"type":"VEC3"
		},
		{
			"bufferView":25,
			"componentType":5126,
			"count":995,
			"type":"VEC3"
		},
		{
			"bufferView":26,
			"componentType":5126,
			"count":995,
			"type":"VEC2"
		},
		{
			"bufferView":27,
			"componentType":5121,
			"count":995,
			"type":"VEC4"
		},
		{
			"bufferView":28,
			"componentType":5126,
			"count":995,
			"type":"VEC4"
		},
		{
			"bufferView":29,
			"componentType":5123,
			"count":4380,
			"type":"SCALAR"
		},
		{
			"bufferView":30,
			"componentType":5126,
			"count":1034,
			"max":[
				0.1568087488412857,
				0.2826022803783417,
				0.06785661727190018
			],
			"min":[
				-0.1568087339401245,
				0.006991436239331961,
				-0.12891076505184174
			],
			"type":"VEC3"
		},
		{
			"bufferView":31,
			"componentType":5126,
			"count":1034,
			"type":"VEC3"
		},
		{
			"bufferView":32,
			"componentType":5126,
			"count":1034,
			"type":"VEC2"
		},
		{
			"bufferView":33,
			"componentType":5121,
			"count":1034,
			"type":"VEC4"
		},
		{
			"bufferView":34,
			"componentType":5126,
			"count":1034,
			"type":"VEC4"
		},
		{
			"bufferView":35,
			"componentType":5123,
			"count":4608,
			"type":"SCALAR"
		},
		{
			"bufferView":36,
			"componentType":5126,
			"count":304,
			"max":[
				0.04692000150680542,
				1.5515799522399902,
				-0.06440000236034393
			],
			"min":[
				-0.04692000150680542,
				1.530419945716858,
				-0.0809599980711937
			],
			"type":"VEC3"
		},
		{
			"bufferView":37,
			"componentType":5126,
			"count":304,
			"type":"VEC3"
		},
		{
			"bufferView":38,
			"componentType":5126,
			"count":304,
			"type":"VEC2"
		},
		{
			"bufferView":39,
			"componentType":5121,
			"count":304,
			"type":"VEC4"
		},
		{
			"bufferView":40,
			"componentType":5126,
			"count":304,
			"type":"VEC4"
		},
		{
			"bufferView":41,
			"componentType":5123,
			"count":1152,
			"type":"SCALAR"
		},
		{
			"bufferView":42,
			"componentType":5126,
			"count":220,
			"max":[
				0.04002000018954277,
				1.5500160455703735,
				-0.07472262531518936
			],
			"min":[
				-0.04002000018954277,
				1.5319839715957642,
				-0.08259737491607666
			],
			"type":"VEC3"
		},
		{
			"bufferView":43,
			"componentType":5126,
			"count":220,
			"type":"VEC3"
		},
		{
			"bufferView":44,
			"componentType":5126,
			"count":220,
			"type":"VEC2"
		},
		{
			"bufferView":45,
			"componentType":5121,
			"count":220,
			"type":"VEC4"
		},
		{
			"bufferView":46,
			"componentType":5126,
			"count":220,
			"type":"VEC4"
		},
		{
			"bufferView":47,
			"componentType":5123,
			"count":720,
			"type":"SCALAR"
		},
		{
			"bufferView":48,
			"componentType":5126,
			"count":160,
			"max":[
				0.03495488315820694,
				1.545140027999878,
				-0.07994605600833893
			],
			"min":[
				-0.03495488315820694,
				1.5368601083755493,
				-0.0834459513425827
			],
			"type":"VEC3"
		},
		{
			"bufferView":49,
			"componentType":5126,
			"count":160,
			"type":"VEC3"
		},
		{
			"bufferView":50,
			"componentType":5126,
			"count":160,
			"type":"VEC2"
		},
		{
			"bufferView":51,
			"componentType":5121,
			"count":160,
			"type":"VEC4"
		},
		{
			"bufferView":52,
			"componentType":5126,
			"count":160,
			"type":"VEC4"
		},
		{
			"bufferView":53,
			"componentType":5123,
			"count":480,
			"type":"SCALAR"
		},
		{
			"bufferView":54,
			"componentType":5126,
			"count":98,
			"max":[
				0.017479998990893364,
				1.4788999557495117,
				-0.07150262594223022
			],
			"min":[
				-0.017479998990893364,
				1.470620036125183,
				-0.07937737554311752
			],
			"type":"VEC3"
		},
		{
			"bufferView":55,
			"componentType":5126,
			"count":98,
			"type":"VEC3"
		},
		{
			"bufferView":56,
			"componentType":5126,
			"count":98,
			"type":"VEC2"
		},
		{
			"bufferView":57,
			"componentType":5121,
			"count":98,
			"type":"VEC4"
		},
		{
			"bufferView":58,
			"componentType":5126,
			"count":98,
			"type":"VEC4"
		},
		{
			"bufferView":59,
			"componentType":5123,
			"count":360,
			"type":"SCALAR"
		},
		{
			"bufferView":60,
			"componentType":5126,
			"count":78,
			"max":[
				0.24288000166416168,
				0.9200000166893005,
				0.19232626259326935
			],
			"min":[
				-0.24288000166416168,
				0.6256000399589539,
				-0.19232626259326935
			],
			"type":"VEC3"
		},
		{
			"bufferView":61,
			"componentType":5126,
			"count":78,
			"type":"VEC3"
		},
		{
			"bufferView":62,
			"componentType":5126,
			"count":78,
			"type":"VEC2"
		},
		{
			"bufferView":63,
			"componentType":5121,
			"count":78,
			"type":"VEC4"
		},
		{
			"bufferView":64,
			"componentType":5126,
			"count":78,
			"type":"VEC4"
		},
		{
			"bufferView":65,
			"componentType":5123,
			"count":264,
			"type":"SCALAR"
		},
		{
			"bufferView":66,
			"componentType":5126,
			"count":24,
			"max":[
				0.023000000044703484,
				0.8924000263214111,
				-0.09521999955177307
			],
			"min":[
				-0.023000000044703484,
				0.8555999994277954,
				-0.10626000165939331
			],
			"type":"VEC3"
		},
		{
			"bufferView":67,
			"componentType":5126,
			"count":24,
			"type":"VEC3"
		},
		{
			"bufferView":68,
			"componentType":5126,
			"count":24,
			"type":"VEC2"
		},
		{
			"bufferView":69,
			"componentType":5121,
			"count":24,
			"type":"VEC4"
		},
		{
			"bufferView":70,
			"componentType":5126,
			"count":24,
			"type":"VEC4"
		},
		{
			"bufferView":71,
			"componentType":5123,
			"count":36,
			"type":"SCALAR"
		},
		{
			"bufferView":72,
			"componentType":5126,
			"count":17,
			"type":"MAT4"
		},
		{
			"bufferView":73,
			"componentType":5126,
			"count":2,
			"max":[
				0.6
			],
			"min":[
				0
			],
			"type":"SCALAR"
		},
		{
			"bufferView":74,
			"componentType":5126,
			"count":2,
			"type":"VEC3"
		},
		{
			"bufferView":75,
			"componentType":5126,
			"count":2,
			"type":"VEC4"
		},
		{
			"bufferView":76,
			"componentType":5126,
			"count":2,
			"type":"VEC3"
		},
		{
			"bufferView":77,
			"componentType":5126,
			"count":2,
			"type":"VEC3"
		},
		{
			"bufferView":78,
			"componentType":5126,
			"count":2,
			"type":"VEC4"
		},
		{
			"bufferView":79,
			"componentType":5126,
			"count":2,
			"type":"VEC3"
		},
		{
			"bufferView":80,
			"componentType":5126,
			"count":2,
			"type":"VEC3"
		},
		{
			"bufferView":81,
			"componentType":5126,
			"count":19,
			"max":[
				0.6
			],
			"min":[
				0
			],
			"type":"SCALAR"
		},
		{
			"bufferView":82,
			"componentType":5126,
			"count":19,
			"type":"VEC4"
		},
		{
			"bufferView":83,
			"componentType":5126,
			"count":2,
			"type":"VEC3"
		},
		{
			"bufferView":84,
			"componentType":5126,
			"count":2,
			"type":"VEC3"
		},
		{
			"bufferView":85,
			"componentType":5126,
			"count":2,
			"type":"VEC4"
		},
		{
			"bufferView":86,
			"componentType":5126,
			"count":2,
			"type":"VEC3"
		},
		{
			"bufferView":87,
			"componentType":5126,
			"count":2,
			"type":"VEC3"
		},
		{
			"bufferView":88,
			"componentType":5126,
			"count":2,
			"type":"VEC4"
		},
		{
			"bufferView":89,
			"componentType":5126,
			"count":2,
			"type":"VEC3"
		},
		{
			"bufferView":90,
			"componentType":5126,
			"count":2,
			"type":"VEC3"
		},
		{
			"bufferView":91,
			"componentType":5126,
			"count":19,
			"type":"VEC4"
		},
		{
			"bufferView":92,
			"componentType":5126,
			"count":2,
			"type":"VEC3"
		},
		{
			"bufferView":93,
			"componentType":5126,
			"count":2,
			"type":"VEC3"
		},
		{
			"bufferView":94,
			"componentType":5126,
			"count":19,
			"type":"VEC4"
		},
		{
			"bufferView":95,
			"componentType":5126,
			"count":2,
			"type":"VEC3"
		},
		{
			"bufferView":96,
			"componentType":5126,
			"count":2,
			"type":"VEC3"
		},
		{
			"bufferView":97,
			"componentType":5126,
			"count":2,
			"type":"VEC4"
		},
		{
			"bufferView":98,
			"componentType":5126,
			"count":2,
			"type":"VEC3"
		},
		{
			"bufferView":99,
			"componentType":5126,
			"count":2,
			"type":"VEC3"
		},
		{
			"bufferView":100,
			"componentType":5126,
			"count":19,
			"type":"VEC4"
		},
		{
			"bufferView":101,
			"componentType":5126,
			"count":2,
			"type":"VEC3"
		},
		{
			"bufferView":102,
			"componentType":5126,
			"count":2,
			"type":"VEC3"
		},
		{
			"bufferView":103,
			"componentType":5126,
			"count":2,
			"type":"VEC4"
		},
		{
			"bufferView":104,
			"componentType":5126,
			"count":2,
			"type":"VEC3"
		},
		{
			"bufferView":105,
			"componentType":5126,
			"count":2,
			"type":"VEC3"
		},
		{
			"bufferView":106,
			"componentType":5126,
			"count":2,
			"type":"VEC4"
		},
		{
			"bufferView":107,
			"componentType":5126,
			"count":2,
			"type":"VEC3"
		},
		{
			"bufferView":108,
			"componentType":5126,
			"count":2,
			"type":"VEC3"
		},
		{
			"bufferView":109,
			"componentType":5126,
			"count":19,
			"type":"VEC4"
		},
		{
			"bufferView":110,
			"componentType":5126,
			"count":2,
			"type":"VEC3"
		},
		{
			"bufferView":111,
			"componentType":5126,
			"count":2,
			"type":"VEC3"
		},
		{
			"bufferView":112,
			"componentType":5126,
			"count":2,
			"type":"VEC4"
		},
		{
			"bufferView":113,
			"componentType":5126,
			"count":2,
			"type":"VEC3"
		},
		{
			"bufferView":114,
			"componentType":5126,
			"count":2,
			"type":"VEC3"
		},
		{
			"bufferView":115,
			"componentType":5126,
			"count":2,
			"type":"VEC4"
		},
		{
			"bufferView":116,
			"componentType":5126,
			"count":2,
			"type":"VEC3"
		},
		{
			"bufferView":117,
			"componentType":5126,
			"count":2,
			"type":"VEC3"
		},
		{
			"bufferView":118,
			"componentType":5126,
			"count":19,
			"type":"VEC4"
		},
		{
			"bufferView":119,
			"componentType":5126,
			"count":2,
			"type":"VEC3"
		},
		{
			"bufferView":120,
			"componentType":5126,
			"count":2,
			"type":"VEC3"
		},
		{
			"bufferView":121,
			"componentType":5126,
			"count":2,
			"type":"VEC4"
		},
		{
			"bufferView":122,
			"componentType":5126,
			"count":2,
			"type":"VEC3"
		},
		{
			"bufferView":123,
			"componentType":5126,
			"count":2,
			"type":"VEC3"
		},
		{
			"bufferView":124,
			"componentType":5126,
			"count":2,
			"type":"VEC4"
		},
		{
			"bufferView":125,
			"componentType":5126,
			"count":2,
			"type":"VEC3"
		},
		{
			"bufferView":126,
			"componentType":5126,
			"count":61,
			"max":[
				2
			],
			"min":[
				0
			],
			"type":"SCALAR"
		},
		{
			"bufferView":127,
			"componentType":5126,
			"count":61,
			"type":"VEC3"
		},
		{
			"bufferView":128,
			"componentType":5126,
			"count":2,
			"max":[
				2
			],
			"min":[
				0
			],
			"type":"SCALAR"
		},
		{
			"bufferView":129,
			"componentType":5126,
			"count":2,
			"type":"VEC4"
		},
		{
			"bufferView":130,
			"componentType":5126,
			"count":2,
			"type":"VEC3"
		},
		{
			"bufferView":131,
			"componentType":5126,
			"count":2,
			"type":"VEC3"
		},
		{
			"bufferView":132,
			"componentType":5126,
			"count":2,
			"type":"VEC4"
		},
		{
			"bufferView":133,
			"componentType":5126,
			"count":2,
			"type":"VEC3"
		},
		{
			"bufferView":134,
			"componentType":5126,
			"count":2,
			"type":"VEC3"
		},
		{
			"bufferView":135,
			"componentType":5126,
			"count":61,
			"type":"VEC4"
		},
		{
			"bufferView":136,
			"componentType":5126,
			"count":2,
			"type":"VEC3"
		},
		{
			"bufferView":137,
			"componentType":5126,
			"count":2,
			"type":"VEC3"
		},
		{
			"bufferView":138,
			"componentType":5126,
			"count":2,
			"type":"VEC4"
		},
		{
			"bufferView":139,
			"componentType":5126,
			"count":2,
			"type":"VEC3"
		},
		{
			"bufferView":140,
			"componentType":5126,
			"count":2,
			"type":"VEC3"
		},
		{
			"bufferView":141,
			"componentType":5126,
			"count":61,
			"type":"VEC4"
		},
		{
			"bufferView":142,
			"componentType":5126,
			"count":2,
			"type":"VEC3"
		},
		{
			"bufferView":143,
			"componentType":5126,
			"count":2,
			"type":"VEC3"
		},
		{
			"bufferView":144,
			"componentType":5126,
			"count":61,
			"type":"VEC4"
		},
		{
			"bufferView":145,
			"componentType":5126,
			"count":2,
			"type":"VEC3"
		},
		{
			"bufferView":146,
			"componentType":5126,
			"count":2,
			"type":"VEC3"
		},
		{
			"bufferView":147,
			"componentType":5126,
			"count":2,
			"type":"VEC4"
		},
		{
			"bufferView":148,
			"componentType":5126,
			"count":2,
			"type":"VEC3"
		},
		{
			"bufferView":149,
			"componentType":5126,
			"count":2,
			"type":"VEC3"
		},
		{
			"bufferView":150,
			"componentType":5126,
			"count":2,
			"type":"VEC4"
		},
		{
			"bufferView":151,
			"componentType":5126,
			"count":2,
			"type":"VEC3"
		},
		{
			"bufferView":152,
			"componentType":5126,
			"count":2,
			"type":"VEC3"
		},
		{
			"bufferView":153,
			"componentType":5126,
			"count":61,
			"type":"VEC4"
		},
		{
			"bufferView":154,
			"componentType":5126,
			"count":2,
			"type":"VEC3"
		},
		{
			"bufferView":155,
			"componentType":5126,
			"count":2,
			"type":"VEC3"
		},
		{
			"bufferView":156,
			"componentType":5126,
			"count":2,
			"type":"VEC4"
		},
		{
			"bufferView":157,
			"componentType":5126,
			"count":2,
			"type":"VEC3"
		},
		{
			"bufferView":158,
			"componentType":5126,
			"count":2,
			"type":"VEC3"
		},
		{
			"bufferView":159,
			"componentType":5126,
			"count":2,
			"type":"VEC4"
		},
		{
			"bufferView":160,
			"componentType":5126,
			"count":2,
			"type":"VEC3"
		},
		{
			"bufferView":161,
			"componentType":5126,
			"count":2,
			"type":"VEC3"
		},
		{
			"bufferView":162,
			"componentType":5126,
			"count":2,
			"type":"VEC4"
		},
		{
			"bufferView":163,
			"componentType":5126,
			"count":2,
			"type":"VEC3"
		},
		{
			"bufferView":164,
			"componentType":5126,
			"count":2,
			"type":"VEC3"
		},
		{
			"bufferView":165,
			"componentType":5126,
			"count":2,
			"type":"VEC4"
		},
		{
			"bufferView":166,
			"componentType":5126,
			"count":2,
			"type":"VEC3"
		},
		{
			"bufferView":167,
			"componentType":5126,
			"count":2,
			"type":"VEC3"
		},
		{
			"bufferView":168,
			"componentType":5126,
			"count":2,
			"type":"VEC4"
		},
		{
			"bufferView":169,
			"componentType":5126,
			"count":2,
			"type":"VEC3"
		},
		{
			"bufferView":170,
			"componentType":5126,
			"count":2,
			"type":"VEC3"
		},
		{
			"bufferView":171,
			"componentType":5126,
			"count":2,
			"type":"VEC4"
		},
		{
			"bufferView":172,
			"componentType":5126,
			"count":2,
			"type":"VEC3"
		},
		{
			"bufferView":173,
			"componentType":5126,
			"count":2,
			"type":"VEC3"
		},
		{
			"bufferView":174,
			"componentType":5126,
			"count":2,
			"type":"VEC4"
		},
		{
			"bufferView":175,
			"componentType":5126,
			"count":2,
			"type":"VEC3"
		},
		{
			"bufferView":176,
			"componentType":5126,
			"count":2,
			"type":"VEC3"
		},
		{
			"bufferView":177,
			"componentType":5126,
			"count":2,
			"type":"VEC4"
		},
		{
			"bufferView":178,
			"componentType":5126,
			"count":2,
			"type":"VEC3"
		},
		{
			"bufferView":179,
			"componentType":5126,
			"count":31,
			"max":[
				1
			],
			"min":[
				0
			],
			"type":"SCALAR"
		},
		{
			"bufferView":180,
			"componentType":5126,
			"count":31,
			"type":"VEC3"
		},
		{
			"bufferView":181,
			"componentType":5126,
			"count":31,
			"type":"VEC4"
		},
		{
			"bufferView":182,
			"componentType":5126,
			"count":2,
			"max":[
				1
			],
			"min":[
				0
			],
			"type":"SCALAR"
		},
		{
			"bufferView":183,
			"componentType":5126,
			"count":2,
			"type":"VEC3"
		},
		{
			"bufferView":184,
			"componentType":5126,
			"count":2,
			"type":"VEC3"
		},
		{
			"bufferView":185,
			"componentType":5126,
			"count":2,
			"type":"VEC4"
		},
		{
			"bufferView":186,
			"componentType":5126,
			"count":2,
			"type":"VEC3"
		},
		{
			"bufferView":187,
			"componentType":5126,
			"count":2,
			"type":"VEC3"
		},
		{
			"bufferView":188,
			"componentType":5126,
			"count":31,
			"type":"VEC4"
		},
		{
			"bufferView":189,
			"componentType":5126,
			"count":2,
			"type":"VEC3"
		},
		{
			"bufferView":190,
			"componentType":5126,
			"count":2,
			"type":"VEC3"
		},
		{
			"bufferView":191,
			"componentType":5126,
			"count":2,
			"type":"VEC4"
		},
		{
			"bufferView":192,
			"componentType":5126,
			"count":2,
			"type":"VEC3"
		},
		{
			"bufferView":193,
			"componentType":5126,
			"count":2,
			"type":"VEC3"
		},
		{
			"bufferView":194,
			"componentType":5126,
			"count":2,
			"type":"VEC4"
		},
		{
			"bufferView":195,
			"componentType":5126,
			"count":2,
			"type":"VEC3"
		},
		{
			"bufferView":196,
			"componentType":5126,
			"count":2,
			"type":"VEC3"
		},
		{
			"bufferView":197,
			"componentType":5126,
			"count":31,
			"type":"VEC4"
		},
		{
			"bufferView":198,
			"componentType":5126,
			"count":2,
			"type":"VEC3"
		},
		{
			"bufferView":199,
			"componentType":5126,
			"count":2,
			"type":"VEC3"
		},
		{
			"bufferView":200,
			"componentType":5126,
			"count":2,
			"type":"VEC4"
		},
		{
			"bufferView":201,
			"componentType":5126,
			"count":2,
			"type":"VEC3"
		},
		{
			"bufferView":202,
			"componentType":5126,
			"count":2,
			"type":"VEC3"
		},
		{
			"bufferView":203,
			"componentType":5126,
			"count":2,
			"type":"VEC4"
		},
		{
			"bufferView":204,
			"componentType":5126,
			"count":2,
			"type":"VEC3"
		},
		{
			"bufferView":205,
			"componentType":5126,
			"count":2,
			"type":"VEC3"
		},
		{
			"bufferView":206,
			"componentType":5126,
			"count":31,
			"type":"VEC4"
		},
		{
			"bufferView":207,
			"componentType":5126,
			"count":2,
			"type":"VEC3"
		},
		{
			"bufferView":208,
			"componentType":5126,
			"count":2,
			"type":"VEC3"
		},
		{
			"bufferView":209,
			"componentType":5126,
			"count":2,
			"type":"VEC4"
		},
		{
			"bufferView":210,
			"componentType":5126,
			"count":2,
			"type":"VEC3"
		},
		{
			"bufferView":211,
			"componentType":5126,
			"count":2,
			"type":"VEC3"
		},
		{
			"bufferView":212,
			"componentType":5126,
			"count":2,
			"type":"VEC4"
		},
		{
			"bufferView":213,
			"componentType":5126,
			"count":2,
			"type":"VEC3"
		},
		{
			"bufferView":214,
			"componentType":5126,
			"count":2,
			"type":"VEC3"
		},
		{
			"bufferView":215,
			"componentType":5126,
			"count":31,
			"type":"VEC4"
		},
		{
			"bufferView":216,
			"componentType":5126,
			"count":2,
			"type":"VEC3"
		},
		{
			"bufferView":217,
			"componentType":5126,
			"count":2,
			"type":"VEC3"
		},
		{
			"bufferView":218,
			"componentType":5126,
			"count":31,
			"type":"VEC4"
		},
		{
			"bufferView":219,
			"componentType":5126,
			"count":2,
			"type":"VEC3"
		},
		{
			"bufferView":220,
			"componentType":5126,
			"count":2,
			"type":"VEC3"
		},
		{
			"bufferView":221,
			"componentType":5126,
			"count":31,
			"type":"VEC4"
		},
		{
			"bufferView":222,
			"componentType":5126,
			"count":2,
			"type":"VEC3"
		},
		{
			"bufferView":223,
			"componentType":5126,
			"count":2,
			"type":"VEC3"
		},
		{
			"bufferView":224,
			"componentType":5126,
			"count":31,
			"type":"VEC4"
		},
		{
			"bufferView":225,
			"componentType":5126,
			"count":2,
			"type":"VEC3"
		},
		{
			"bufferView":226,
			"componentType":5126,
			"count":2,
			"type":"VEC3"
		},
		{
			"bufferView":227,
			"componentType":5126,
			"count":31,
			"type":"VEC4"
		},
		{
			"bufferView":228,
			"componentType":5126,
			"count":2,
			"type":"VEC3"
		},
		{
			"bufferView":229,
			"componentType":5126,
			"count":2,
			"type":"VEC3"
		},
		{
			"bufferView":230,
			"componentType":5126,
			"count":31,
			"type":"VEC4"
		},
		{
			"bufferView":231,
			"componentType":5126,
			"count":2,
			"type":"VEC3"
		}
	],
	"bufferViews":[
		{
			"buffer":0,
			"byteLength":16908,
			"byteOffset":0,
			"target":34962
		},
		{
			"buffer":0,
			"byteLength":16908,
			"byteOffset":16908,
			"target":34962
		},
		{
			"buffer":0,
			"byteLength":11272,
			"byteOffset":33816,
			"target":34962
		},
		{
			"buffer":0,
			"byteLength":5636,
			"byteOffset":45088,
			"target":34962
		},
		{
			"buffer":0,
			"byteLength":22544,
			"byteOffset":50724,
			"target":34962
		},
		{
			"buffer":0,
			"byteLength":11616,
			"byteOffset":73268,
			"target":34963
		},
		{
			"buffer":0,
			"byteLength":35640,
			"byteOffset":84884,
			"target":34962
		},
		{
			"buffer":0,
			"byteLength":35640,
			"byteOffset":120524,
			"target":34962
		},
		{
			"buffer":0,
			"byteLength":23760,
			"byteOffset":156164,
			"target":34962
		},
		{
			"buffer":0,
			"byteLength":11880,
			"byteOffset":179924,
			"target":34962
		},
		{
			"buffer":0,
			"byteLength":47520,
			"byteOffset":191804,
			"target":34962
		},
		{
			"buffer":0,
			"byteLength":20784,
			"byteOffset":239324,
			"target":34963
		},
		{
			"buffer":0,
			"byteLength":22992,
			"byteOffset":260108,
			"target":34962
		},
		{
			"buffer":0,
			"byteLength":22992,
			"byteOffset":283100,
			"target":34962
		},
		{
			"buffer":0,
			"byteLength":15328,
			"byteOffset":306092,
			"target":34962
		},
		{
			"buffer":0,
			"byteLength":7664,
			"byteOffset":321420,
			"target":34962
		},
		{
			"buffer":0,
			"byteLength":30656,
			"byteOffset":329084,
			"target":34962
		},
		{
			"buffer":0,
			"byteLength":17304,
			"byteOffset":359740,
			"target":34963
		},
		{
			"buffer":0,
			"byteLength":912,
			"byteOffset":377044,
			"target":34962
		},
		{
			"buffer":0,
			"byteLength":912,
			"byteOffset":377956,
			"target":34962
		},
		{
			"buffer":0,
			"byteLength":608,
			"byteOffset":378868,
			"target":34962
		},
		{
			"buffer":0,
			"byteLength":304,
			"byteOffset":379476,
			"target":34962
		},
		{
			"buffer":0,
			"byteLength":1216,
			"byteOffset":379780,
			"target":34962
		},
		{
			"buffer":0,
			"byteLength":528,
			"byteOffset":380996,
			"target":34963
		},
		{
			"buffer":0,
			"byteLength":11940,
			"byteOffset":381524,
			"target":34962
		},
		{
			"buffer":0,
			"byteLength":11940,
			"byteOffset":393464,
			"target":34962
		},
		{
			"buffer":0,
			"byteLength":7960,
			"byteOffset":405404,
			"target":34962
		},
		{
			"buffer":0,
			"byteLength":3980,
			"byteOffset":413364,
			"target":34962
		},
		{
			"buffer":0,
			"byteLength":15920,
			"byteOffset":417344,
			"target":34962
		},
		{
			"buffer":0,
			"byteLength":8760,
			"byteOffset":433264,
			"target":34963
		},
		{
			"buffer":0,
			"byteLength":12408,
			"byteOffset":442024,
			"target":34962
		},
		{
			"buffer":0,
			"byteLength":12408,
			"byteOffset":454432,
			"target":34962
		},
		{
			"buffer":0,
			"byteLength":8272,
			"byteOffset":466840,
			"target":34962
		},
		{
			"buffer":0,
			"byteLength":4136,
			"byteOffset":475112,
			"target":34962
		},
		{
			"buffer":0,
			"byteLength":16544,
			"byteOffset":479248,
			"target":34962
		},
		{
			"buffer":0,
			"byteLength":9216,
			"byteOffset":495792,
			"target":34963
		},
		{
			"buffer":0,
			"byteLength":3648,
			"byteOffset":505008,
			"target":34962
		},
		{
			"buffer":0,
			"byteLength":3648,
			"byteOffset":508656,
			"target":34962
		},
		{
			"buffer":0,
			"byteLength":2432,
			"byteOffset":512304,
			"target":34962
		},
		{
			"buffer":0,
			"byteLength":1216,
			"byteOffset":514736,
			"target":34962
		},
		{
			"buffer":0,
			"byteLength":4864,
			"byteOffset":515952,
			"target":34962
		},
		{
			"buffer":0,
			"byteLength":2304,
			"byteOffset":520816,
			"target":34963
		},
		{
			"buffer":0,
			"byteLength":2640,
			"byteOffset":523120,
			"target":34962
		},
		{
			"buffer":0,
			"byteLength":2640,
			"byteOffset":525760,
			"target":34962
		},
		{
			"buffer":0,
			"byteLength":1760,
			"byteOffset":528400,
			"target":34962
		},
		{
			"buffer":0,
			"byteLength":880,
			"byteOffset":530160,
			"target":34962
		},
		{
			"buffer":0,
			"byteLength":3520,
			"byteOffset":531040,
			"target":34962
		},
		{
			"buffer":0,
			"byteLength":1440,
			"byteOffset":534560,
			"target":34963
		},
		{
			"buffer":0,
			"byteLength":1920,
			"byteOffset":536000,
			"target":34962
		},
		{
			"buffer":0,
			"byteLength":1920,
			"byteOffset":537920,
			"target":34962
		},
		{
			"buffer":0,
			"byteLength":1280,
			"byteOffset":539840,
			"target":34962
		},
		{
			"buffer":0,
			"byteLength":640,
			"byteOffset":541120,
			"target":34962
		},
		{
			"buffer":0,
			"byteLength":2560,
			"byteOffset":541760,
			"target":34962
		},
		{
			"buffer":0,
			"byteLength":960,
			"byteOffset":544320,
			"target":34963
		},
		{
			"buffer":0,
			"byteLength":1176,
			"byteOffset":545280,
			"target":34962
		},
		{
			"buffer":0,
			"byteLength":1176,
			"byteOffset":546456,
			"target":34962
		},
		{
			"buffer":0,
			"byteLength":784,
			"byteOffset":547632,
			"target":34962
		},
		{
			"buffer":0,
			"byteLength":392,
			"byteOffset":548416,
			"target":34962
		},
		{
			"buffer":0,
			"byteLength":1568,
			"byteOffset":548808,
			"target":34962
		},
		{
			"buffer":0,
			"byteLength":720,
			"byteOffset":550376,
			"target":34963
		},
		{
			"buffer":0,
			"byteLength":936,
			"byteOffset":551096,
			"target":34962
		},
		{
			"buffer":0,
			"byteLength":936,
			"byteOffset":552032,
			"target":34962
		},
		{
			"buffer":0,
			"byteLength":624,
			"byteOffset":552968,
			"target":34962
		},
		{
			"buffer":0,
			"byteLength":312,
			"byteOffset":553592,
			"target":34962
		},
		{
			"buffer":0,
			"byteLength":1248,
			"byteOffset":553904,
			"target":34962
		},
		{
			"buffer":0,
			"byteLength":528,
			"byteOffset":555152,
			"target":34963
		},
		{
			"buffer":0,
			"byteLength":288,
			"byteOffset":555680,
			"target":34962
		},
		{
			"buffer":0,
			"byteLength":288,
			"byteOffset":555968,
			"target":34962
		},
		{
			"buffer":0,
			"byteLength":192,
			"byteOffset":556256,
			"target":34962
		},
		{
			"buffer":0,
			"byteLength":96,
			"byteOffset":556448,
			"target":34962
		},
		{
			"buffer":0,
			"byteLength":384,
			"byteOffset":556544,
			"target":34962
		},
		{
			"buffer":0,
			"byteLength":72,
			"byteOffset":556928,
			"target":34963
		},
		{
			"buffer":0,
			"byteLength":1088,
			"byteOffset":557000
		},
		{
			"buffer":0,
			"byteLength":8,
			"byteOffset":558088
		},
		{
			"buffer":0,
			"byteLength":24,
			"byteOffset":558096
		},
		{
			"buffer":0,
			"byteLength":32,
			"byteOffset":558120
		},
		{
			"buffer":0,
			"byteLength":24,
			"byteOffset":558152
		},
		{
			"buffer":0,
			"byteLength":24,
			"byteOffset":558176
		},
		{
			"buffer":0,
			"byteLength":32,
			"byteOffset":558200
		},
		{
			"buffer":0,
			"byteLength":24,
			"byteOffset":558232
		},
		{
			"buffer":0,
			"byteLength":24,
			"byteOffset":558256
		},
		{
			"buffer":0,
			"byteLength":76,
			"byteOffset":558280
		},
		{
			"buffer":0,
			"byteLength":304,
			"byteOffset":558356
		},
		{
			"buffer":0,
			"byteLength":24,
			"byteOffset":558660
		},
		{
			"buffer":0,
			"byteLength":24,
			"byteOffset":558684
		},
		{
			"buffer":0,
			"byteLength":32,
			"byteOffset":558708
		},
		{
			"buffer":0,
			"byteLength":24,
			"byteOffset":558740
		},
		{
			"buffer":0,
			"byteLength":24,
			"byteOffset":558764
		},
		{
			"buffer":0,
			"byteLength":32,
			"byteOffset":558788
		},
		{
			"buffer":0,
			"byteLength":24,
			"byteOffset":558820
		},
		{
			"buffer":0,
			"byteLength":24,
			"byteOffset":558844
		},
		{
			"buffer":0,
			"byteLength":304,
			"byteOffset":558868
		},
		{
			"buffer":0,
			"byteLength":24,
			"byteOffset":559172
		},
		{
			"buffer":0,
			"byteLength":24,
			"byteOffset":559196
		},
		{
			"buffer":0,
			"byteLength":304,
			"byteOffset":559220
		},
		{
			"buffer":0,
			"byteLength":24,
			"byteOffset":559524
		},
		{
			"buffer":0,
			"byteLength":24,
			"byteOffset":559548
		},
		{
			"buffer":0,
			"byteLength":32,
			"byteOffset":559572
		},
		{
			"buffer":0,
			"byteLength":24,
			"byteOffset":559604
		},
		{
			"buffer":0,
			"byteLength":24,
			"byteOffset":559628
		},
		{
			"buffer":0,
			"byteLength":304,
			"byteOffset":559652
		},
		{
			"buffer":0,
			"byteLength":24,
			"byteOffset":559956
		},
		{
			"buffer":0,
			"byteLength":24,
			"byteOffset":559980
		},
		{
			"buffer":0,
			"byteLength":32,
			"byteOffset":560004
		},
		{
			"buffer":0,
			"byteLength":24,
			"byteOffset":560036
		},
		{
			"buffer":0,
			"byteLength":24,
			"byteOffset":560060
		},
		{
			"buffer":0,
			"byteLength":32,
			"byteOffset":560084
		},
		{
			"buffer":0,
			"byteLength":24,
			"byteOffset":560116
		},
		{
			"buffer":0,
			"byteLength":24,
			"byteOffset":560140
		},
		{
			"buffer":0,
			"byteLength":304,
			"byteOffset":560164
		},
		{
			"buffer":0,
			"byteLength":24,
			"byteOffset":560468
		},
		{
			"buffer":0,
			"byteLength":24,
			"byteOffset":560492
		},
		{
			"buffer":0,
			"byteLength":32,
			"byteOffset":560516
		},
		{
			"buffer":0,
			"byteLength":24,
			"byteOffset":560548
		},
		{
			"buffer":0,
			"byteLength":24,
			"byteOffset":560572
		},
		{
			"buffer":0,
			"byteLength":32,
			"byteOffset":560596
		},
		{
			"buffer":0,
			"byteLength":24,
			"byteOffset":560628
		},
		{
			"buffer":0,
			"byteLength":24,
			"byteOffset":560652
		},
		{
			"buffer":0,
			"byteLength":304,
			"byteOffset":560676
		},
		{
			"buffer":0,
			"byteLength":24,
			"byteOffset":560980
		},
		{
			"buffer":0,
			"byteLength":24,
			"byteOffset":561004
		},
		{
			"buffer":0,
			"byteLength":32,
			"byteOffset":561028
		},
		{
			"buffer":0,
			"byteLength":24,
			"byteOffset":561060
		},
		{
			"buffer":0,
			"byteLength":24,
			"byteOffset":561084
		},
		{
			"buffer":0,
			"byteLength":32,
			"byteOffset":561108
		},
		{
			"buffer":0,
			"byteLength":24,
			"byteOffset":561140
		},
		{
			"buffer":0,
			"byteLength":244,
			"byteOffset":561164
		},
		{
			"buffer":0,
			"byteLength":732,
			"byteOffset":561408
		},
		{
			"buffer":0,
			"byteLength":8,
			"byteOffset":562140
		},
		{
			"buffer":0,
			"byteLength":32,
			"byteOffset":562148
		},
		{
			"buffer":0,
			"byteLength":24,
			"byteOffset":562180
		},
		{
			"buffer":0,
			"byteLength":24,
			"byteOffset":562204
		},
		{
			"buffer":0,
			"byteLength":32,
			"byteOffset":562228
		},
		{
			"buffer":0,
			"byteLength":24,
			"byteOffset":562260
		},
		{
			"buffer":0,
			"byteLength":24,
			"byteOffset":562284
		},
		{
			"buffer":0,
			"byteLength":976,
			"byteOffset":562308
		},
		{
			"buffer":0,
			"byteLength":24,
			"byteOffset":563284
		},
		{
			"buffer":0,
			"byteLength":24,
			"byteOffset":563308
		},
		{
			"buffer":0,
			"byteLength":32,
			"byteOffset":563332
		},
		{
			"buffer":0,
			"byteLength":24,
			"byteOffset":563364
		},
		{
			"buffer":0,
			"byteLength":24,
			"byteOffset":563388
		},
		{
			"buffer":0,
			"byteLength":976,
			"byteOffset":563412
		},
		{
			"buffer":0,
			"byteLength":24,
			"byteOffset":564388
		},
		{
			"buffer":0,
			"byteLength":24,
			"byteOffset":564412
		},
		{
			"buffer":0,
			"byteLength":976,
			"byteOffset":564436
		},
		{
			"buffer":0,
			"byteLength":24,
			"byteOffset":565412
		},
		{
			"buffer":0,
			"byteLength":24,
			"byteOffset":565436
		},
		{
			"buffer":0,
			"byteLength":32,
			"byteOffset":565460
		},
		{
			"buffer":0,
			"byteLength":24,
			"byteOffset":565492
		},
		{
			"buffer":0,
			"byteLength":24,
			"byteOffset":565516
		},
		{
			"buffer":0,
			"byteLength":32,
			"byteOffset":565540
		},
		{
			"buffer":0,
			"byteLength":24,
			"byteOffset":565572
		},
		{
			"buffer":0,
			"byteLength":24,
			"byteOffset":565596
		},
		{
			"buffer":0,
			"byteLength":976,
			"byteOffset":565620
		},
		{
			"buffer":0,
			"byteLength":24,
			"byteOffset":566596
		},
		{
			"buffer":0,
			"byteLength":24,
			"byteOffset":566620
		},
		{
			"buffer":0,
			"byteLength":32,
			"byteOffset":566644
		},
		{
			"buffer":0,
			"byteLength":24,
			"byteOffset":566676
		},
		{
			"buffer":0,
			"byteLength":24,
			"byteOffset":566700
		},
		{
			"buffer":0,
			"byteLength":32,
			"byteOffset":566724
		},
		{
			"buffer":0,
			"byteLength":24,
			"byteOffset":566756
		},
		{
			"buffer":0,
			"byteLength":24,
			"byteOffset":566780
		},
		{
			"buffer":0,
			"byteLength":32,
			"byteOffset":566804
		},
		{
			"buffer":0,
			"byteLength":24,
			"byteOffset":566836
		},
		{
			"buffer":0,
			"byteLength":24,
			"byteOffset":566860
		},
		{
			"buffer":0,
			"byteLength":32,
			"byteOffset":566884
		},
		{
			"buffer":0,
			"byteLength":24,
			"byteOffset":566916
		},
		{
			"buffer":0,
			"byteLength":24,
			"byteOffset":566940
		},
		{
			"buffer":0,
			"byteLength":32,
			"byteOffset":566964
		},
		{
			"buffer":0,
			"byteLength":24,
			"byteOffset":566996
		},
		{
			"buffer":0,
			"byteLength":24,
			"byteOffset":567020
		},
		{
			"buffer":0,
			"byteLength":32,
			"byteOffset":567044
		},
		{
			"buffer":0,
			"byteLength":24,
			"byteOffset":567076
		},
		{
			"buffer":0,
			"byteLength":24,
			"byteOffset":567100
		},
		{
			"buffer":0,
			"byteLength":32,
			"byteOffset":567124
		},
		{
			"buffer":0,
			"byteLength":24,
			"byteOffset":567156
		},
		{
			"buffer":0,
			"byteLength":24,
			"byteOffset":567180
		},
		{
			"buffer":0,
			"byteLength":32,
			"byteOffset":567204
		},
		{
			"buffer":0,
			"byteLength":24,
			"byteOffset":567236
		},
		{
			"buffer":0,
			"byteLength":124,
			"byteOffset":567260
		},
		{
			"buffer":0,
			"byteLength":372,
			"byteOffset":567384
		},
		{
			"buffer":0,
			"byteLength":496,
			"byteOffset":567756
		},
		{
			"buffer":0,
			"byteLength":8,
			"byteOffset":568252
		},
		{
			"buffer":0,
			"byteLength":24,
			"byteOffset":568260
		},
		{
			"buffer":0,
			"byteLength":24,
			"byteOffset":568284
		},
		{
			"buffer":0,
			"byteLength":32,
			"byteOffset":568308
		},
		{
			"buffer":0,
			"byteLength":24,
			"byteOffset":568340
		},
		{
			"buffer":0,
			"byteLength":24,
			"byteOffset":568364
		},
		{
			"buffer":0,
			"byteLength":496,
			"byteOffset":568388
		},
		{
			"buffer":0,
			"byteLength":24,
			"byteOffset":568884
		},
		{
			"buffer":0,
			"byteLength":24,
			"byteOffset":568908
		},
		{
			"buffer":0,
			"byteLength":32,
			"byteOffset":568932
		},
		{
			"buffer":0,
			"byteLength":24,
			"byteOffset":568964
		},
		{
			"buffer":0,
			"byteLength":24,
			"byteOffset":568988
		},
		{
			"buffer":0,
			"byteLength":32,
			"byteOffset":569012
		},
		{
			"buffer":0,
			"byteLength":24,
			"byteOffset":569044
		},
		{
			"buffer":0,
			"byteLength":24,
			"byteOffset":569068
		},
		{
			"buffer":0,
			"byteLength":496,
			"byteOffset":569092
		},
		{
			"buffer":0,
			"byteLength":24,
			"byteOffset":569588
		},
		{
			"buffer":0,
			"byteLength":24,
			"byteOffset":569612
		},
		{
			"buffer":0,
			"byteLength":32,
			"byteOffset":569636
		},
		{
			"buffer":0,
			"byteLength":24,
			"byteOffset":569668
		},
		{
			"buffer":0,
			"byteLength":24,
			"byteOffset":569692
		},
		{
			"buffer":0,
			"byteLength":32,
			"byteOffset":569716
		},
		{
			"buffer":0,
			"byteLength":24,
			"byteOffset":569748
		},
		{
			"buffer":0,
			"byteLength":24,
			"byteOffset":569772
		},
		{
			"buffer":0,
			"byteLength":496,
			"byteOffset":569796
		},
		{
			"buffer":0,
			"byteLength":24,
			"byteOffset":570292
		},
		{
			"buffer":0,
			"byteLength":24,
			"byteOffset":570316
		},
		{
			"buffer":0,
			"byteLength":32,
			"byteOffset":570340
		},
		{
			"buffer":0,
			"byteLength":24,
			"byteOffset":570372
		},
		{
			"buffer":0,
			"byteLength":24,
			"byteOffset":570396
		},
		{
			"buffer":0,
			"byteLength":32,
			"byteOffset":570420
		},
		{
			"buffer":0,
			"byteLength":24,
			"byteOffset":570452
		},
		{
			"buffer":0,
			"byteLength":24,
			"byteOffset":570476
		},
		{
			"buffer":0,
			"byteLength":496,
			"byteOffset":570500
		},
		{
			"buffer":0,
			"byteLength":24,
			"byteOffset":570996
		},
		{
			"buffer":0,
			"byteLength":24,
			"byteOffset":571020
		},
		{
			"buffer":0,
			"byteLength":496,
			"byteOffset":571044
		},
		{
			"buffer":0,
			"byteLength":24,
			"byteOffset":571540
		},
		{
			"buffer":0,
			"byteLength":24,
			"byteOffset":571564
		},
		{
			"buffer":0,
			"byteLength":496,
			"byteOffset":571588
		},
		{
			"buffer":0,
			"byteLength":24,
			"byteOffset":572084
		},
		{
			"buffer":0,
			"byteLength":24,
			"byteOffset":572108
		},
		{
			"buffer":0,
			"byteLength":496,
			"byteOffset":572132
		},
		{
			"buffer":0,
			"byteLength":24,
			"byteOffset":572628
		},
		{
			"buffer":0,
			"byteLength":24,
			"byteOffset":572652
		},
		{
			"buffer":0,
			"byteLength":496,
			"byteOffset":572676
		},
		{
			"buffer":0,
			"byteLength":24,
			"byteOffset":573172
		},
		{
			"buffer":0,
			"byteLength":24,
			"byteOffset":573196
		},
		{
			"buffer":0,
			"byteLength":496,
			"byteOffset":573220
		},
		{
			"buffer":0,
			"byteLength":24,
			"byteOffset":573716
		}
	],
	"samplers":[
		{
			"magFilter":9729,
			"minFilter":9987
		}
	],
	"buffers":[
		{
			"byteLength":573740,
			"uri":"luminous.bin"
		}
	]
}
