{
	"asset":{
		"generator":"Khronos glTF Blender I/O v4.2.57",
		"version":"2.0"
	},
	"extensionsUsed":[
		"KHR_materials_clearcoat",
		"KHR_materials_emissive_strength",
		"KHR_materials_sheen"
	],
	"scene":0,
	"scenes":[
		{
			"name":"Scene",
			"nodes":[
				18
			]
		}
	],
	"nodes":[
		{
			"name":"head",
			"translation":[
				0,
				0.09999990463256836,
				0
			]
		},
		{
			"children":[
				0
			],
			"name":"neck",
			"translation":[
				0,
				0.21000003814697266,
				0
			]
		},
		{
			"name":"hand.R",
			"rotation":[
				-0.002831934718415141,
				-0.02058575302362442,
				0.02213011309504509,
				0.9995391368865967
			],
			"scale":[
				0.9999998807907104,
				0.9999999403953552,
				0.9999998807907104
			],
			"translation":[
				-4.773028194904327e-09,
				0.2517271339893341,
				-1.862645149230957e-09
			]
		},
		{
			"children":[
				2
			],
			"name":"forearm.R",
			"rotation":[
				0.04786790907382965,
				-0.06073953956365585,
				0.0701540857553482,
				0.9945339560508728
			],
			"translation":[
				-3.189779818058014e-08,
				0.2762984037399292,
				-6.51925802230835e-09
			]
		},
		{
			"children":[
				3
			],
			"name":"upper_arm.R",
			"rotation":[
				0.9885599613189697,
				0.10654280334711075,
				0.1065429225564003,
				0.006823054980486631
			],
			"scale":[
				0.9999995827674866,
				0.9999998807907104,
				0.9999999403953552
			],
			"translation":[
				0.2160000056028366,
				0.15999996662139893,
				0
			]
		},
		{
			"name":"hand.L",
			"rotation":[
				-0.002831934718415141,
				0.02058575302362442,
				-0.02213011309504509,
				0.9995391368865967
			],
			"scale":[
				0.9999998807907104,
				0.9999999403953552,
				0.9999998807907104
			],
			"translation":[
				4.773028194904327e-09,
				0.2517271339893341,
				-1.862645149230957e-09
			]
		},
		{
			"children":[
				5
			],
			"name":"forearm.L",
			"rotation":[
				0.04786790907382965,
				0.06073953956365585,
				-0.0701540857553482,
				0.9945339560508728
			],
			"translation":[
				3.189779818058014e-08,
				0.2762984037399292,
				-6.51925802230835e-09
			]
		},
		{
			"children":[
				6
			],
			"name":"upper_arm.L",
			"rotation":[
				0.9885599613189697,
				-0.10654280334711075,
				-0.1065429225564003,
				0.006823054980486631
			],
			"scale":[
				0.9999995827674866,
				0.9999998807907104,
				0.9999999403953552
			],
			"translation":[
				-0.2160000056028366,
				0.15999996662139893,
				0
			]
		},
		{
			"children":[
				1,
				4,
				7
			],
			"name":"chest",
			"translation":[
				0,
				0.16999995708465576,
				0
			]
		},
		{
			"children":[
				8
			],
			"name":"spine",
			"translation":[
				0,
				0.15000003576278687,
				0
			]
		},
		{
			"name":"foot.R",
			"rotation":[
				0.5914180874824524,
				-2.9070412743692486e-09,
				7.606066887433371e-10,
				0.8063651323318481
			],
			"translation":[
				-7.56543361291051e-09,
				0.41058987379074097,
				4.581082180266094e-10
			]
		},
		{
			"children":[
				10
			],
			"name":"shin.R",
			"rotation":[
				-0.041510097682476044,
				-0.00986466370522976,
				0.009349504485726357,
				0.9990456700325012
			],
			"scale":[
				0.9999999403953552,
				1,
				1
			],
			"translation":[
				-1.1161318980157375e-08,
				0.410253643989563,
				8.149072527885437e-10
			]
		},
		{
			"children":[
				11
			],
			"name":"thigh.R",
			"rotation":[
				-0.9997993111610413,
				-0.009610525332391262,
				-0.00961065012961626,
				0.014720412902534008
			],
			"scale":[
				1.0000001192092896,
				1,
				1.0000003576278687
			],
			"translation":[
				0.09200000017881393,
				-0.019999980926513672,
				0
			]
		},
		{
			"name":"foot.L",
			"rotation":[
				0.5914180874824524,
				2.9070412743692486e-09,
				-7.606066887433371e-10,
				0.8063651323318481
			],
			"translation":[
				7.56543361291051e-09,
				0.41058987379074097,
				4.581082180266094e-10
			]
		},
		{
			"children":[
				13
			],
			"name":"shin.L",
			"rotation":[
				-0.041510097682476044,
				0.00986466370522976,
				-0.009349504485726357,
				0.9990456700325012
			],
			"scale":[
				0.9999999403953552,
				1,
				1
			],
			"translation":[
				1.1161318980157375e-08,
				0.410253643989563,
				8.149072527885437e-10
			]
		},
		{
			"children":[
				14
			],
			"name":"thigh.L",
			"rotation":[
				-0.9997993111610413,
				0.009610525332391262,
				0.00961065012961626,
				0.014720412902534008
			],
			"scale":[
				1.0000001192092896,
				1,
				1.0000003576278687
			],
			"translation":[
				-0.09200000017881393,
				-0.019999980926513672,
				0
			]
		},
		{
			"children":[
				9,
				12,
				15
			],
			"name":"hips",
			"translation":[
				0,
				0.9300000071525574,
				0
			]
		},
		{
			"mesh":0,
			"name":"mage",
			"skin":0
		},
		{
			"children":[
				17,
				16
			],
			"name":"mage_rig"
		}
	],
	"animations":[
		{
			"channels":[
				{
					"sampler":0,
					"target":{
						"node":16,
						"path":"translation"
					}
				},
				{
					"sampler":1,
					"target":{
						"node":16,
						"path":"rotation"
					}
				},
				{
					"sampler":2,
					"target":{
						"node":16,
						"path":"scale"
					}
				},
				{
					"sampler":3,
					"target":{
						"node":9,
						"path":"translation"
					}
				},
				{
					"sampler":4,
					"target":{
						"node":9,
						"path":"rotation"
					}
				},
				{
					"sampler":5,
					"target":{
						"node":9,
						"path":"scale"
					}
				},
				{
					"sampler":6,
					"target":{
						"node":8,
						"path":"translation"
					}
				},
				{
					"sampler":7,
					"target":{
						"node":8,
						"path":"rotation"
					}
				},
				{
					"sampler":8,
					"target":{
						"node":8,
						"path":"scale"
					}
				},
				{
					"sampler":9,
					"target":{
						"node":1,
						"path":"translation"
					}
				},
				{
					"sampler":10,
					"target":{
						"node":1,
						"path":"rotation"
					}
				},
				{
					"sampler":11,
					"target":{
						"node":1,
						"path":"scale"
					}
				},
				{
					"sampler":12,
					"target":{
						"node":0,
						"path":"translation"
					}
				},
				{
					"sampler":13,
					"target":{
						"node":0,
						"path":"rotation"
					}
				},
				{
					"sampler":14,
					"target":{
						"node":0,
						"path":"scale"
					}
				},
				{
					"sampler":15,
					"target":{
						"node":4,
						"path":"translation"
					}
				},
				{
					"sampler":16,
					"target":{
						"node":4,
						"path":"rotation"
					}
				},
				{
					"sampler":17,
					"target":{
						"node":4,
						"path":"scale"
					}
				},
				{
					"sampler":18,
					"target":{
						"node":3,
						"path":"translation"
					}
				},
				{
					"sampler":19,
					"target":{
						"node":3,
						"path":"rotation"
					}
				},
				{
					"sampler":20,
					"target":{
						"node":3,
						"path":"scale"
					}
				},
				{
					"sampler":21,
					"target":{
						"node":2,
						"path":"translation"
					}
				},
				{
					"sampler":22,
					"target":{
						"node":2,
						"path":"rotation"
					}
				},
				{
					"sampler":23,
					"target":{
						"node":2,
						"path":"scale"
					}
				},
				{
					"sampler":24,
					"target":{
						"node":7,
						"path":"translation"
					}
				},
				{
					"sampler":25,
					"target":{
						"node":7,
						"path":"rotation"
					}
				},
				{
					"sampler":26,
					"target":{
						"node":7,
						"path":"scale"
					}
				},
				{
					"sampler":27,
					"target":{
						"node":6,
						"path":"translation"
					}
				},
				{
					"sampler":28,
					"target":{
						"node":6,
						"path":"rotation"
					}
				},
				{
					"sampler":29,
					"target":{
						"node":6,
						"path":"scale"
					}
				},
				{
					"sampler":30,
					"target":{
						"node":5,
						"path":"translation"
					}
				},
				{
					"sampler":31,
					"target":{
						"node":5,
						"path":"rotation"
					}
				},
				{
					"sampler":32,
					"target":{
						"node":5,
						"path":"scale"
					}
				},
				{
					"sampler":33,
					"target":{
						"node":12,
						"path":"translation"
					}
				},
				{
					"sampler":34,
					"target":{
						"node":12,
						"path":"rotation"
					}
				},
				{
					"sampler":35,
					"target":{
						"node":12,
						"path":"scale"
					}
				},
				{
					"sampler":36,
					"target":{
						"node":11,
						"path":"translation"
					}
				},
				{
					"sampler":37,
					"target":{
						"node":11,
						"path":"rotation"
					}
				},
				{
					"sampler":38,
					"target":{
						"node":11,
						"path":"scale"
					}
				},
				{
					"sampler":39,
					"target":{
						"node":10,
						"path":"translation"
					}
				},
				{
					"sampler":40,
					"target":{
						"node":10,
						"path":"rotation"
					}
				},
				{
					"sampler":41,
					"target":{
						"node":10,
						"path":"scale"
					}
				},
				{
					"sampler":42,
					"target":{
						"node":15,
						"path":"translation"
					}
				},
				{
					"sampler":43,
					"target":{
						"node":15,
						"path":"rotation"
					}
				},
				{
					"sampler":44,
					"target":{
						"node":15,
						"path":"scale"
					}
				},
				{
					"sampler":45,
					"target":{
						"node":14,
						"path":"translation"
					}
				},
				{
					"sampler":46,
					"target":{
						"node":14,
						"path":"rotation"
					}
				},
				{
					"sampler":47,
					"target":{
						"node":14,
						"path":"scale"
					}
				},
				{
					"sampler":48,
					"target":{
						"node":13,
						"path":"translation"
					}
				},
				{
					"sampler":49,
					"target":{
						"node":13,
						"path":"rotation"
					}
				},
				{
					"sampler":50,
					"target":{
						"node":13,
						"path":"scale"
					}
				}
			],
			"name":"attack",
			"samplers":[
				{
					"input":91,
					"interpolation":"STEP",
					"output":92
				},
				{
					"input":91,
					"interpolation":"STEP",
					"output":93
				},
				{
					"input":91,
					"interpolation":"STEP",
					"output":94
				},
				{
					"input":91,
					"interpolation":"STEP",
					"output":95
				},
				{
					"input":91,
					"interpolation":"STEP",
					"output":96
				},
				{
					"input":91,
					"interpolation":"STEP",
					"output":97
				},
				{
					"input":91,
					"interpolation":"STEP",
					"output":98
				},
				{
					"input":99,
					"interpolation":"LINEAR",
					"output":100
				},
				{
					"input":91,
					"interpolation":"STEP",
					"output":101
				},
				{
					"input":91,
					"interpolation":"STEP",
					"output":102
				},
				{
					"input":91,
					"interpolation":"STEP",
					"output":103
				},
				{
					"input":91,
					"interpolation":"STEP",
					"output":104
				},
				{
					"input":91,
					"interpolation":"STEP",
					"output":105
				},
				{
					"input":91,
					"interpolation":"STEP",
					"output":106
				},
				{
					"input":91,
					"interpolation":"STEP",
					"output":107
				},
				{
					"input":91,
					"interpolation":"STEP",
					"output":108
				},
				{
					"input":99,
					"interpolation":"LINEAR",
					"output":109
				},
				{
					"input":91,
					"interpolation":"STEP",
					"output":110
				},
				{
					"input":91,
					"interpolation":"STEP",
					"output":111
				},
				{
					"input":99,
					"interpolation":"LINEAR",
					"output":112
				},
				{
					"input":91,
					"interpolation":"STEP",
					"output":113
				},
				{
					"input":91,
					"interpolation":"STEP",
					"output":114
				},
				{
					"input":91,
					"interpolation":"STEP",
					"output":115
				},
				{
					"input":91,
					"interpolation":"STEP",
					"output":116
				},
				{
					"input":91,
					"interpolation":"STEP",
					"output":117
				},
				{
					"input":99,
					"interpolation":"LINEAR",
					"output":118
				},
				{
					"input":91,
					"interpolation":"STEP",
					"output":119
				},
				{
					"input":91,
					"interpolation":"STEP",
					"output":120
				},
				{
					"input":91,
					"interpolation":"STEP",
					"output":121
				},
				{
					"input":91,
					"interpolation":"STEP",
					"output":122
				},
				{
					"input":91,
					"interpolation":"STEP",
					"output":123
				},
				{
					"input":91,
					"interpolation":"STEP",
					"output":124
				},
				{
					"input":91,
					"interpolation":"STEP",
					"output":125
				},
				{
					"input":91,
					"interpolation":"STEP",
					"output":126
				},
				{
					"input":99,
					"interpolation":"LINEAR",
					"output":127
				},
				{
					"input":91,
					"interpolation":"STEP",
					"output":128
				},
				{
					"input":91,
					"interpolation":"LINEAR",
					"output":129
				},
				{
					"input":91,
					"interpolation":"LINEAR",
					"output":130
				},
				{
					"input":91,
					"interpolation":"STEP",
					"output":131
				},
				{
					"input":91,
					"interpolation":"LINEAR",
					"output":132
				},
				{
					"input":91,
					"interpolation":"LINEAR",
					"output":133
				},
				{
					"input":91,
					"interpolation":"STEP",
					"output":134
				},
				{
					"input":91,
					"interpolation":"STEP",
					"output":135
				},
				{
					"input":99,
					"interpolation":"LINEAR",
					"output":136
				},
				{
					"input":91,
					"interpolation":"STEP",
					"output":137
				},
				{
					"input":91,
					"interpolation":"LINEAR",
					"output":138
				},
				{
					"input":91,
					"interpolation":"LINEAR",
					"output":139
				},
				{
					"input":91,
					"interpolation":"STEP",
					"output":140
				},
				{
					"input":91,
					"interpolation":"LINEAR",
					"output":141
				},
				{
					"input":91,
					"interpolation":"LINEAR",
					"output":142
				},
				{
					"input":91,
					"interpolation":"STEP",
					"output":143
				}
			]
		},
		{
			"channels":[
				{
					"sampler":0,
					"target":{
						"node":16,
						"path":"translation"
					}
				},
				{
					"sampler":1,
					"target":{
						"node":16,
						"path":"rotation"
					}
				},
				{
					"sampler":2,
					"target":{
						"node":16,
						"path":"scale"
					}
				},
				{
					"sampler":3,
					"target":{
						"node":9,
						"path":"translation"
					}
				},
				{
					"sampler":4,
					"target":{
						"node":9,
						"path":"rotation"
					}
				},
				{
					"sampler":5,
					"target":{
						"node":9,
						"path":"scale"
					}
				},
				{
					"sampler":6,
					"target":{
						"node":8,
						"path":"translation"
					}
				},
				{
					"sampler":7,
					"target":{
						"node":8,
						"path":"rotation"
					}
				},
				{
					"sampler":8,
					"target":{
						"node":8,
						"path":"scale"
					}
				},
				{
					"sampler":9,
					"target":{
						"node":1,
						"path":"translation"
					}
				},
				{
					"sampler":10,
					"target":{
						"node":1,
						"path":"rotation"
					}
				},
				{
					"sampler":11,
					"target":{
						"node":1,
						"path":"scale"
					}
				},
				{
					"sampler":12,
					"target":{
						"node":0,
						"path":"translation"
					}
				},
				{
					"sampler":13,
					"target":{
						"node":0,
						"path":"rotation"
					}
				},
				{
					"sampler":14,
					"target":{
						"node":0,
						"path":"scale"
					}
				},
				{
					"sampler":15,
					"target":{
						"node":4,
						"path":"translation"
					}
				},
				{
					"sampler":16,
					"target":{
						"node":4,
						"path":"rotation"
					}
				},
				{
					"sampler":17,
					"target":{
						"node":4,
						"path":"scale"
					}
				},
				{
					"sampler":18,
					"target":{
						"node":3,
						"path":"translation"
					}
				},
				{
					"sampler":19,
					"target":{
						"node":3,
						"path":"rotation"
					}
				},
				{
					"sampler":20,
					"target":{
						"node":3,
						"path":"scale"
					}
				},
				{
					"sampler":21,
					"target":{
						"node":2,
						"path":"translation"
					}
				},
				{
					"sampler":22,
					"target":{
						"node":2,
						"path":"rotation"
					}
				},
				{
					"sampler":23,
					"target":{
						"node":2,
						"path":"scale"
					}
				},
				{
					"sampler":24,
					"target":{
						"node":7,
						"path":"translation"
					}
				},
				{
					"sampler":25,
					"target":{
						"node":7,
						"path":"rotation"
					}
				},
				{
					"sampler":26,
					"target":{
						"node":7,
						"path":"scale"
					}
				},
				{
					"sampler":27,
					"target":{
						"node":6,
						"path":"translation"
					}
				},
				{
					"sampler":28,
					"target":{
						"node":6,
						"path":"rotation"
					}
				},
				{
					"sampler":29,
					"target":{
						"node":6,
						"path":"scale"
					}
				},
				{
					"sampler":30,
					"target":{
						"node":5,
						"path":"translation"
					}
				},
				{
					"sampler":31,
					"target":{
						"node":5,
						"path":"rotation"
					}
				},
				{
					"sampler":32,
					"target":{
						"node":5,
						"path":"scale"
					}
				},
				{
					"sampler":33,
					"target":{
						"node":12,
						"path":"translation"
					}
				},
				{
					"sampler":34,
					"target":{
						"node":12,
						"path":"rotation"
					}
				},
				{
					"sampler":35,
					"target":{
						"node":12,
						"path":"scale"
					}
				},
				{
					"sampler":36,
					"target":{
						"node":11,
						"path":"translation"
					}
				},
				{
					"sampler":37,
					"target":{
						"node":11,
						"path":"rotation"
					}
				},
				{
					"sampler":38,
					"target":{
						"node":11,
						"path":"scale"
					}
				},
				{
					"sampler":39,
					"target":{
						"node":10,
						"path":"translation"
					}
				},
				{
					"sampler":40,
					"target":{
						"node":10,
						"path":"rotation"
					}
				},
				{
					"sampler":41,
					"target":{
						"node":10,
						"path":"scale"
					}
				},
				{
					"sampler":42,
					"target":{
						"node":15,
						"path":"translation"
					}
				},
				{
					"sampler":43,
					"target":{
						"node":15,
						"path":"rotation"
					}
				},
				{
					"sampler":44,
					"target":{
						"node":15,
						"path":"scale"
					}
				},
				{
					"sampler":45,
					"target":{
						"node":14,
						"path":"translation"
					}
				},
				{
					"sampler":46,
					"target":{
						"node":14,
						"path":"rotation"
					}
				},
				{
					"sampler":47,
					"target":{
						"node":14,
						"path":"scale"
					}
				},
				{
					"sampler":48,
					"target":{
						"node":13,
						"path":"translation"
					}
				},
				{
					"sampler":49,
					"target":{
						"node":13,
						"path":"rotation"
					}
				},
				{
					"sampler":50,
					"target":{
						"node":13,
						"path":"scale"
					}
				}
			],
			"name":"idle",
			"samplers":[
				{
					"input":144,
					"interpolation":"LINEAR",
					"output":145
				},
				{
					"input":146,
					"interpolation":"STEP",
					"output":147
				},
				{
					"input":146,
					"interpolation":"STEP",
					"output":148
				},
				{
					"input":146,
					"interpolation":"STEP",
					"output":149
				},
				{
					"input":146,
					"interpolation":"STEP",
					"output":150
				},
				{
					"input":146,
					"interpolation":"STEP",
					"output":151
				},
				{
					"input":146,
					"interpolation":"STEP",
					"output":152
				},
				{
					"input":144,
					"interpolation":"LINEAR",
					"output":153
				},
				{
					"input":146,
					"interpolation":"STEP",
					"output":154
				},
				{
					"input":146,
					"interpolation":"STEP",
					"output":155
				},
				{
					"input":146,
					"interpolation":"STEP",
					"output":156
				},
				{
					"input":146,
					"interpolation":"STEP",
					"output":157
				},
				{
					"input":146,
					"interpolation":"STEP",
					"output":158
				},
				{
					"input":144,
					"interpolation":"LINEAR",
					"output":159
				},
				{
					"input":146,
					"interpolation":"STEP",
					"output":160
				},
				{
					"input":146,
					"interpolation":"STEP",
					"output":161
				},
				{
					"input":144,
					"interpolation":"LINEAR",
					"output":162
				},
				{
					"input":146,
					"interpolation":"STEP",
					"output":163
				},
				{
					"input":146,
					"interpolation":"STEP",
					"output":164
				},
				{
					"input":146,
					"interpolation":"STEP",
					"output":165
				},
				{
					"input":146,
					"interpolation":"STEP",
					"output":166
				},
				{
					"input":146,
					"interpolation":"STEP",
					"output":167
				},
				{
					"input":146,
					"interpolation":"STEP",
					"output":168
				},
				{
					"input":146,
					"interpolation":"STEP",
					"output":169
				},
				{
					"input":146,
					"interpolation":"STEP",
					"output":170
				},
				{
					"input":144,
					"interpolation":"LINEAR",
					"output":171
				},
				{
					"input":146,
					"interpolation":"STEP",
					"output":172
				},
				{
					"input":146,
					"interpolation":"STEP",
					"output":173
				},
				{
					"input":146,
					"interpolation":"STEP",
					"output":174
				},
				{
					"input":146,
					"interpolation":"STEP",
					"output":175
				},
				{
					"input":146,
					"interpolation":"STEP",
					"output":176
				},
				{
					"input":146,
					"interpolation":"STEP",
					"output":177
				},
				{
					"input":146,
					"interpolation":"STEP",
					"output":178
				},
				{
					"input":146,
					"interpolation":"STEP",
					"output":179
				},
				{
					"input":146,
					"interpolation":"STEP",
					"output":180
				},
				{
					"input":146,
					"interpolation":"STEP",
					"output":181
				},
				{
					"input":146,
					"interpolation":"STEP",
					"output":182
				},
				{
					"input":146,
					"interpolation":"STEP",
					"output":183
				},
				{
					"input":146,
					"interpolation":"STEP",
					"output":184
				},
				{
					"input":146,
					"interpolation":"STEP",
					"output":185
				},
				{
					"input":146,
					"interpolation":"STEP",
					"output":186
				},
				{
					"input":146,
					"interpolation":"STEP",
					"output":187
				},
				{
					"input":146,
					"interpolation":"STEP",
					"output":188
				},
				{
					"input":146,
					"interpolation":"STEP",
					"output":189
				},
				{
					"input":146,
					"interpolation":"STEP",
					"output":190
				},
				{
					"input":146,
					"interpolation":"STEP",
					"output":191
				},
				{
					"input":146,
					"interpolation":"STEP",
					"output":192
				},
				{
					"input":146,
					"interpolation":"STEP",
					"output":193
				},
				{
					"input":146,
					"interpolation":"STEP",
					"output":194
				},
				{
					"input":146,
					"interpolation":"STEP",
					"output":195
				},
				{
					"input":146,
					"interpolation":"STEP",
					"output":196
				}
			]
		},
		{
			"channels":[
				{
					"sampler":0,
					"target":{
						"node":16,
						"path":"translation"
					}
				},
				{
					"sampler":1,
					"target":{
						"node":16,
						"path":"rotation"
					}
				},
				{
					"sampler":2,
					"target":{
						"node":16,
						"path":"scale"
					}
				},
				{
					"sampler":3,
					"target":{
						"node":9,
						"path":"translation"
					}
				},
				{
					"sampler":4,
					"target":{
						"node":9,
						"path":"rotation"
					}
				},
				{
					"sampler":5,
					"target":{
						"node":9,
						"path":"scale"
					}
				},
				{
					"sampler":6,
					"target":{
						"node":8,
						"path":"translation"
					}
				},
				{
					"sampler":7,
					"target":{
						"node":8,
						"path":"rotation"
					}
				},
				{
					"sampler":8,
					"target":{
						"node":8,
						"path":"scale"
					}
				},
				{
					"sampler":9,
					"target":{
						"node":1,
						"path":"translation"
					}
				},
				{
					"sampler":10,
					"target":{
						"node":1,
						"path":"rotation"
					}
				},
				{
					"sampler":11,
					"target":{
						"node":1,
						"path":"scale"
					}
				},
				{
					"sampler":12,
					"target":{
						"node":0,
						"path":"translation"
					}
				},
				{
					"sampler":13,
					"target":{
						"node":0,
						"path":"rotation"
					}
				},
				{
					"sampler":14,
					"target":{
						"node":0,
						"path":"scale"
					}
				},
				{
					"sampler":15,
					"target":{
						"node":4,
						"path":"translation"
					}
				},
				{
					"sampler":16,
					"target":{
						"node":4,
						"path":"rotation"
					}
				},
				{
					"sampler":17,
					"target":{
						"node":4,
						"path":"scale"
					}
				},
				{
					"sampler":18,
					"target":{
						"node":3,
						"path":"translation"
					}
				},
				{
					"sampler":19,
					"target":{
						"node":3,
						"path":"rotation"
					}
				},
				{
					"sampler":20,
					"target":{
						"node":3,
						"path":"scale"
					}
				},
				{
					"sampler":21,
					"target":{
						"node":2,
						"path":"translation"
					}
				},
				{
					"sampler":22,
					"target":{
						"node":2,
						"path":"rotation"
					}
				},
				{
					"sampler":23,
					"target":{
						"node":2,
						"path":"scale"
					}
				},
				{
					"sampler":24,
					"target":{
						"node":7,
						"path":"translation"
					}
				},
				{
					"sampler":25,
					"target":{
						"node":7,
						"path":"rotation"
					}
				},
				{
					"sampler":26,
					"target":{
						"node":7,
						"path":"scale"
					}
				},
				{
					"sampler":27,
					"target":{
						"node":6,
						"path":"translation"
					}
				},
				{
					"sampler":28,
					"target":{
						"node":6,
						"path":"rotation"
					}
				},
				{
					"sampler":29,
					"target":{
						"node":6,
						"path":"scale"
					}
				},
				{
					"sampler":30,
					"target":{
						"node":5,
						"path":"translation"
					}
				},
				{
					"sampler":31,
					"target":{
						"node":5,
						"path":"rotation"
					}
				},
				{
					"sampler":32,
					"target":{
						"node":5,
						"path":"scale"
					}
				},
				{
					"sampler":33,
					"target":{
						"node":12,
						"path":"translation"
					}
				},
				{
					"sampler":34,
					"target":{
						"node":12,
						"path":"rotation"
					}
				},
				{
					"sampler":35,
					"target":{
						"node":12,
						"path":"scale"
					}
				},
				{
					"sampler":36,
					"target":{
						"node":11,
						"path":"translation"
					}
				},
				{
					"sampler":37,
					"target":{
						"node":11,
						"path":"rotation"
					}
				},
				{
					"sampler":38,
					"target":{
						"node":11,
						"path":"scale"
					}
				},
				{
					"sampler":39,
					"target":{
						"node":10,
						"path":"translation"
					}
				},
				{
					"sampler":40,
					"target":{
						"node":10,
						"path":"rotation"
					}
				},
				{
					"sampler":41,
					"target":{
						"node":10,
						"path":"scale"
					}
				},
				{
					"sampler":42,
					"target":{
						"node":15,
						"path":"translation"
					}
				},
				{
					"sampler":43,
					"target":{
						"node":15,
						"path":"rotation"
					}
				},
				{
					"sampler":44,
					"target":{
						"node":15,
						"path":"scale"
					}
				},
				{
					"sampler":45,
					"target":{
						"node":14,
						"path":"translation"
					}
				},
				{
					"sampler":46,
					"target":{
						"node":14,
						"path":"rotation"
					}
				},
				{
					"sampler":47,
					"target":{
						"node":14,
						"path":"scale"
					}
				},
				{
					"sampler":48,
					"target":{
						"node":13,
						"path":"translation"
					}
				},
				{
					"sampler":49,
					"target":{
						"node":13,
						"path":"rotation"
					}
				},
				{
					"sampler":50,
					"target":{
						"node":13,
						"path":"scale"
					}
				}
			],
			"name":"walk",
			"samplers":[
				{
					"input":197,
					"interpolation":"LINEAR",
					"output":198
				},
				{
					"input":197,
					"interpolation":"LINEAR",
					"output":199
				},
				{
					"input":200,
					"interpolation":"STEP",
					"output":201
				},
				{
					"input":200,
					"interpolation":"STEP",
					"output":202
				},
				{
					"input":200,
					"interpolation":"STEP",
					"output":203
				},
				{
					"input":200,
					"interpolation":"STEP",
					"output":204
				},
				{
					"input":200,
					"interpolation":"STEP",
					"output":205
				},
				{
					"input":197,
					"interpolation":"LINEAR",
					"output":206
				},
				{
					"input":200,
					"interpolation":"STEP",
					"output":207
				},
				{
					"input":200,
					"interpolation":"STEP",
					"output":208
				},
				{
					"input":200,
					"interpolation":"STEP",
					"output":209
				},
				{
					"input":200,
					"interpolation":"STEP",
					"output":210
				},
				{
					"input":200,
					"interpolation":"STEP",
					"output":211
				},
				{
					"input":200,
					"interpolation":"STEP",
					"output":212
				},
				{
					"input":200,
					"interpolation":"STEP",
					"output":213
				},
				{
					"input":200,
					"interpolation":"STEP",
					"output":214
				},
				{
					"input":197,
					"interpolation":"LINEAR",
					"output":215
				},
				{
					"input":200,
					"interpolation":"STEP",
					"output":216
				},
				{
					"input":200,
					"interpolation":"STEP",
					"output":217
				},
				{
					"input":200,
					"interpolation":"STEP",
					"output":218
				},
				{
					"input":200,
					"interpolation":"STEP",
					"output":219
				},
				{
					"input":200,
					"interpolation":"STEP",
					"output":220
				},
				{
					"input":200,
					"interpolation":"STEP",
					"output":221
				},
				{
					"input":200,
					"interpolation":"STEP",
					"output":222
				},
				{
					"input":200,
					"interpolation":"STEP",
					"output":223
				},
				{
					"input":197,
					"interpolation":"LINEAR",
					"output":224
				},
				{
					"input":200,
					"interpolation":"STEP",
					"output":225
				},
				{
					"input":200,
					"interpolation":"STEP",
					"output":226
				},
				{
					"input":200,
					"interpolation":"STEP",
					"output":227
				},
				{
					"input":200,
					"interpolation":"STEP",
					"output":228
				},
				{
					"input":200,
					"interpolation":"STEP",
					"output":229
				},
				{
					"input":200,
					"interpolation":"STEP",
					"output":230
				},
				{
					"input":200,
					"interpolation":"STEP",
					"output":231
				},
				{
					"input":200,
					"interpolation":"STEP",
					"output":232
				},
				{
					"input":197,
					"interpolation":"LINEAR",
					"output":233
				},
				{
					"input":200,
					"interpolation":"STEP",
					"output":234
				},
				{
					"input":200,
					"interpolation":"STEP",
					"output":235
				},
				{
					"input":197,
					"interpolation":"LINEAR",
					"output":236
				},
				{
					"input":200,
					"interpolation":"STEP",
					"output":237
				},
				{
					"input":200,
					"interpolation":"STEP",
					"output":238
				},
				{
					"input":197,
					"interpolation":"LINEAR",
					"output":239
				},
				{
					"input":200,
					"interpolation":"STEP",
					"output":240
				},
				{
					"input":200,
					"interpolation":"STEP",
					"output":241
				},
				{
					"input":197,
					"interpolation":"LINEAR",
					"output":242
				},
				{
					"input":200,
					"interpolation":"STEP",
					"output":243
				},
				{
					"input":200,
					"interpolation":"STEP",
					"output":244
				},
				{
					"input":197,
					"interpolation":"LINEAR",
					"output":245
				},
				{
					"input":200,
					"interpolation":"STEP",
					"output":246
				},
				{
					"input":200,
					"interpolation":"STEP",
					"output":247
				},
				{
					"input":197,
					"interpolation":"LINEAR",
					"output":248
				},
				{
					"input":200,
					"interpolation":"STEP",
					"output":249
				}
			]
		}
	],
	"materials":[
		{
			"name":"skin",
			"normalTexture":{
				"index":0,
				"scale":0.4000000059604645
			},
			"pbrMetallicRoughness":{
				"baseColorFactor":[
					0.9551045894622803,
					0.7105664610862732,
					0.5382355451583862,
					1
				],
				"metallicFactor":0,
				"roughnessFactor":0.550000011920929
			}
		},
		{
			"extensions":{
				"KHR_materials_sheen":{
					"sheenColorFactor":[
						1.0,
						1.0,
						1.0
					],
					"sheenRoughnessFactor":0.5
				}
			},
			"name":"hair",
			"normalTexture":{
				"index":1,
				"scale":0.800000011920929
			},
			"pbrMetallicRoughness":{
				"baseColorFactor":[
					0.21404114365577698,
					0.17064493894577026,
					0.13286831974983215,
					1
				],
				"metallicFactor":0,
				"roughnessFactor":0.44999998807907104
			}
		},
		{
			"extensions":{
				"KHR_materials_sheen":{
					"sheenColorFactor":[
						1.0,
						1.0,
						1.0
					],
					"sheenRoughnessFactor":0.5
				}
			},
			"name":"outfit",
			"normalTexture":{
				"index":2,
				"scale":0.6000000238418579
			},
			"pbrMetallicRoughness":{
				"baseColorFactor":[
					0.07323895394802094,
					0.01960664801299572,
					0.17064493894577026,
					1
				],
				"metallicFactor":0,
				"roughnessFactor":0.75
			}
		},
		{
			"name":"outfit2",
			"normalTexture":{
				"index":3,
				"scale":0.4000000059604645
			},
			"pbrMetallicRoughness":{
				"baseColorFactor":[
					0.6038273572921753,
					0.4479884207248688,
					0.07323895394802094,
					1
				],
				"metallicFactor":0,
				"roughnessFactor":0.6000000238418579
			}
		},
		{
			"name":"pants",
			"normalTexture":{
				"index":4,
				"scale":0.6000000238418579
			},
			"pbrMetallicRoughness":{
				"baseColorFactor":[
					0.036306485533714294,
					0.010816383175551891,
					0.08088690787553787,
					1
				],
				"metallicFactor":0,
				"roughnessFactor":0.800000011920929
			}
		},
		{
			"extensions":{
				"KHR_materials_clearcoat":{
					"clearcoatFactor":0.30000001192092896
				}
			},
			"name":"boots",
			"normalTexture":{
				"index":5,
				"scale":0.800000011920929
			},
			"pbrMetallicRoughness":{
				"baseColorFactor":[
					0.0134117491543293,
					0.010022825561463833,
					0.010022825561463833,
					1
				],
				"metallicFactor":0,
				"roughnessFactor":0.44999998807907104
			}
		},
		{
			"name":"eye_white",
			"pbrMetallicRoughness":{
				"baseColorFactor":[
					0.8900054097175598,
					0.8900054097175598,
					0.8900054097175598,
					1
				],
				"metallicFactor":0,
				"roughnessFactor":0.20000000298023224
			}
		},
		{
			"emissiveFactor":[
				0.011763989275256348,
				0.011763989275256348,
				0.019862860485428957
			],
			"name":"iris",
			"pbrMetallicRoughness":{
				"baseColorFactor":[
					0.01960664801299572,
					0.01960664801299572,
					0.03310476616024971,
					1
				],
				"metallicFactor":0,
				"roughnessFactor":0.15000000596046448
			}
		},
		{
			"name":"pupil",
			"pbrMetallicRoughness":{
				"baseColorFactor":[
					0.0015479875728487968,
					0.0015479875728487968,
					0.0023219813592731953,
					1
				],
				"metallicFactor":0,
				"roughnessFactor":0.10000000149011612
			}
		},
		{
			"name":"lips",
			"pbrMetallicRoughness":{
				"baseColorFactor":[
					0.4283095896244049,
					0.32088616490364075,
					0.2448643445968628,
					1
				],
				"metallicFactor":0,
				"roughnessFactor":0.4000000059604645
			}
		},
		{
			"doubleSided":true,
			"extensions":{
				"KHR_materials_sheen":{
					"sheenColorFactor":[
						1.0,
						1.0,
						1.0
					],
					"sheenRoughnessFactor":0.5
				}
			},
			"name":"coat",
			"normalTexture":{
				"index":6,
				"scale":0.699999988079071
			},
			"pbrMetallicRoughness":{
				"baseColorFactor":[
					0.07323895394802094,
					0.01960664801299572,
					0.17064493894577026,
					1
				],
				"metallicFactor":0,
				"roughnessFactor":0.699999988079071
			}
		},
		{
			"doubleSided":true,
			"name":"collar",
			"pbrMetallicRoughness":{
				"baseColorFactor":[
					0.6038273572921753,
					0.4479884207248688,
					0.07323895394802094,
					1
				],
				"metallicFactor":0,
				"roughnessFactor":0.6000000238418579
			}
		},
		{
			"name":"buckle",
			"pbrMetallicRoughness":{
				"baseColorFactor":[
					0.6920710802078247,
					0.4479884207248688,
					0.07323895394802094,
					1
				],
				"metallicFactor":0.8999999761581421,
				"roughnessFactor":0.30000001192092896
			}
		},
		{
			"name":"wood",
			"normalTexture":{
				"index":7,
				"scale":0.6000000238418579
			},
			"pbrMetallicRoughness":{
				"baseColorFactor":[
					0.17064493894577026,
					0.07323895394802094,
					0.027211781591176987,
					1
				],
				"metallicFactor":0,
				"roughnessFactor":0.699999988079071
			}
		},
		{
			"emissiveFactor":[
				0.21404114365577698,
				0.6038273572921753,
				1
			],
			"extensions":{
				"KHR_materials_emissive_strength":{
					"emissiveStrength":3
				}
			},
			"name":"orb",
			"pbrMetallicRoughness":{
				"baseColorFactor":[
					0.21404114365577698,
					0.6038273572921753,
					1,
					1
				],
				"metallicFactor":0,
				"roughnessFactor":0.05000000074505806
			}
		}
	],
	"meshes":[
		{
			"name":"mage",
			"primitives":[
				{
					"attributes":{
						"POSITION":0,
						"NORMAL":1,
						"TEXCOORD_0":2,
						"JOINTS_0":3,
						"WEIGHTS_0":4
					},
					"indices":5,
					"material":0
				},
				{
					"attributes":{
						"POSITION":6,
						"NORMAL":7,
						"TEXCOORD_0":8,
						"JOINTS_0":9,
						"WEIGHTS_0":10
					},
					"indices":11,
					"material":1
				},
				{
					"attributes":{
						"POSITION":12,
						"NORMAL":13,
						"TEXCOORD_0":14,
						"JOINTS_0":15,
						"WEIGHTS_0":16
					},
					"indices":17,
					"material":2
				},
				{
					"attributes":{
						"POSITION":18,
						"NORMAL":19,
						"TEXCOORD_0":20,
						"JOINTS_0":21,
						"WEIGHTS_0":22
					},
					"indices":23,
					"material":3
				},
				{
					"attributes":{
						"POSITION":24,
						"NORMAL":25,
						"TEXCOORD_0":26,
						"JOINTS_0":27,
						"WEIGHTS_0":28
					},
					"indices":29,
					"material":4
				},
				{
					"attributes":{
						"POSITION":30,
						"NORMAL":31,
						"TEXCOORD_0":32,
						"JOINTS_0":33,
						"WEIGHTS_0":34
					},
					"indices":35,
					"material":5
				},
				{
					"attributes":{
						"POSITION":36,
						"NORMAL":37,
						"TEXCOORD_0":38,
						"JOINTS_0":39,
						"WEIGHTS_0":40
					},
					"indices":41,
					"material":6
				},
				{
					"attributes":{
						"POSITION":42,
						"NORMAL":43,
						"TEXCOORD_0":44,
						"JOINTS_0":45,
						"WEIGHTS_0":46
					},
					"indices":47,
					"material":7
				},
				{
					"attributes":{
						"POSITION":48,
						"NORMAL":49,
						"TEXCOORD_0":50,
						"JOINTS_0":51,
						"WEIGHTS_0":52
					},
					"indices":53,
					"material":8
				},
				{
					"attributes":{
						"POSITION":54,
						"NORMAL":55,
						"TEXCOORD_0":56,
						"JOINTS_0":57,
						"WEIGHTS_0":58
					},
					"indices":59,
					"material":9
				},
				{
					"attributes":{
						"POSITION":60,
						"NORMAL":61,
						"TEXCOORD_0":62,
						"JOINTS_0":63,
						"WEIGHTS_0":64
					},
					"indices":65,
					"material":10
				},
				{
					"attributes":{
						"POSITION":66,
						"NORMAL":67,
						"TEXCOORD_0":68,
						"JOINTS_0":69,
						"WEIGHTS_0":70
					},
					"indices":71,
					"material":11
				},
				{
					"attributes":{
						"POSITION":72,
						"NORMAL":73,
						"TEXCOORD_0":74,
						"JOINTS_0":75,
						"WEIGHTS_0":76
					},
					"indices":77,
					"material":12
				},
				{
					"attributes":{
						"POSITION":78,
						"NORMAL":79,
						"TEXCOORD_0":80,
						"JOINTS_0":81,
						"WEIGHTS_0":82
					},
					"indices":83,
					"material":13
				},
				{
					"attributes":{
						"POSITION":84,
						"NORMAL":85,
						"TEXCOORD_0":86,
						"JOINTS_0":87,
						"WEIGHTS_0":88
					},
					"indices":89,
					"material":14
				}
			]
		}
	],
	"textures":[
		{
			"sampler":0,
			"source":0
		},
		{
			"sampler":0,
			"source":1
		},
		{
			"sampler":0,
			"source":2
		},
		{
			"sampler":0,
			"source":2
		},
		{
			"sampler":0,
			"source":2
		},
		{
			"sampler":0,
			"source":3
		},
		{
			"sampler":0,
			"source":2
		},
		{
			"sampler":0,
			"source":3
		}
	],
	"images":[
		{
			"mimeType":"image/png",
			"name":"N_skin",
			"uri":"texturas/N_skin.png"
		},
		{
			"mimeType":"image/png",
			"name":"N_hair",
			"uri":"texturas/N_hair.png"
		},
		{
			"mimeType":"image/png",
			"name":"N_cloth",
			"uri":"texturas/N_cloth.png"
		},
		{
			"mimeType":"image/png",
			"name":"N_leather",
			"uri":"texturas/N_leather.png"
		}
	],
	"skins":[
		{
			"inverseBindMatrices":90,
			"joints":[
				16,
				9,
				8,
				1,
				0,
				4,
				3,
				2,
				7,
				6,
				5,
				12,
				11,
				10,
				15,
				14,
				13
			],
			"name":"mage_rig"
		}
	],
	"accessors":[
		{
			"bufferView":0,
			"componentType":5126,
			"count":1437,
			"max":[
				0.3208130896091461,
				1.7839999198913574,
				0.10721255838871002
			],
			"min":[
				-0.3208130896091461,
				0.7844679355621338,
				-0.11607673019170761
			],
			"type":"VEC3"
		},
		{
			"bufferView":1,
			"componentType":5126,
			"count":1437,
			"type":"VEC3"
		},
		{
			"bufferView":2,
			"componentType":5126,
			"count":1437,
			"type":"VEC2"
		},
		{
			"bufferView":3,
			"componentType":5121,
			"count":1437,
			"type":"VEC4"
		},
		{
			"bufferView":4,
			"componentType":5126,
			"count":1437,
			"type":"VEC4"
		},
		{
			"bufferView":5,
			"componentType":5123,
			"count":5868,
			"type":"SCALAR"
		},
		{
			"bufferView":6,
			"componentType":5126,
			"count":2941,
			"max":[
				0.14672242105007172,
				1.811551570892334,
				0.2068067491054535
			],
			"min":[
				-0.1308138072490692,
				0.9960645437240601,
				-0.12009954452514648
			],
			"type":"VEC3"
		},
		{
			"bufferView":7,
			"componentType":5126,
			"count":2941,
			"type":"VEC3"
		},
		{
			"bufferView":8,
			"componentType":5126,
			"count":2941,
			"type":"VEC2"
		},
		{
			"bufferView":9,
			"componentType":5121,
			"count":2941,
			"type":"VEC4"
		},
		{
			"bufferView":10,
			"componentType":5126,
			"count":2941,
			"type":"VEC4"
		},
		{
			"bufferView":11,
			"componentType":5123,
			"count":10392,
			"type":"SCALAR"
		},
		{
			"bufferView":12,
			"componentType":5126,
			"count":1461,
			"max":[
				0.3246443271636963,
				1.474212646484375,
				0.11217201501131058
			],
			"min":[
				-0.3246443271636963,
				0.9297775626182556,
				-0.11171648651361465
			],
			"type":"VEC3"
		},
		{
			"bufferView":13,
			"componentType":5126,
			"count":1461,
			"type":"VEC3"
		},
		{
			"bufferView":14,
			"componentType":5126,
			"count":1461,
			"type":"VEC2"
		},
		{
			"bufferView":15,
			"componentType":5121,
			"count":1461,
			"type":"VEC4"
		},
		{
			"bufferView":16,
			"componentType":5126,
			"count":1461,
			"type":"VEC4"
		},
		{
			"bufferView":17,
			"componentType":5123,
			"count":6648,
			"type":"SCALAR"
		},
		{
			"bufferView":18,
			"componentType":5126,
			"count":65,
			"max":[
				0.142655149102211,
				1.0319132804870605,
				0.11384035646915436
			],
			"min":[
				-0.142655149102211,
				0.8763115406036377,
				-0.11518235504627228
			],
			"type":"VEC3"
		},
		{
			"bufferView":19,
			"componentType":5126,
			"count":65,
			"type":"VEC3"
		},
		{
			"bufferView":20,
			"componentType":5126,
			"count":65,
			"type":"VEC2"
		},
		{
			"bufferView":21,
			"componentType":5121,
			"count":65,
			"type":"VEC4"
		},
		{
			"bufferView":22,
			"componentType":5126,
			"count":65,
			"type":"VEC4"
		},
		{
			"bufferView":23,
			"componentType":5123,
			"count":192,
			"type":"SCALAR"
		},
		{
			"bufferView":24,
			"componentType":5126,
			"count":977,
			"max":[
				0.3219468891620636,
				0.937298059463501,
				0.1108374372124672
			],
			"min":[
				-0.3219468593597412,
				0.3000607192516327,
				-0.11261609941720963
			],
			"type":"VEC3"
		},
		{
			"bufferView":25,
			"componentType":5126,
			"count":977,
			"type":"VEC3"
		},
		{
			"bufferView":26,
			"componentType":5126,
			"count":977,
			"type":"VEC2"
		},
		{
			"bufferView":27,
			"componentType":5121,
			"count":977,
			"type":"VEC4"
		},
		{
			"bufferView":28,
			"componentType":5126,
			"count":977,
			"type":"VEC4"
		},
		{
			"bufferView":29,
			"componentType":5123,
			"count":4332,
			"type":"SCALAR"
		},
		{
			"bufferView":30,
			"componentType":5126,
			"count":1034,
			"max":[
				0.16644366085529327,
				0.3064470589160919,
				0.07947749644517899
			],
			"min":[
				-0.16644367575645447,
				0.007597841322422028,
				-0.14012077450752258
			],
			"type":"VEC3"
		},
		{
			"bufferView":31,
			"componentType":5126,
			"count":1034,
			"type":"VEC3"
		},
		{
			"bufferView":32,
			"componentType":5126,
			"count":1034,
			"type":"VEC2"
		},
		{
			"bufferView":33,
			"componentType":5121,
			"count":1034,
			"type":"VEC4"
		},
		{
			"bufferView":34,
			"componentType":5126,
			"count":1034,
			"type":"VEC4"
		},
		{
			"bufferView":35,
			"componentType":5123,
			"count":4608,
			"type":"SCALAR"
		},
		{
			"bufferView":36,
			"componentType":5126,
			"count":304,
			"max":[
				0.050999999046325684,
				1.6864999532699585,
				-0.07000000029802322
			],
			"min":[
				-0.050999999046325684,
				1.6634999513626099,
				-0.08799999952316284
			],
			"type":"VEC3"
		},
		{
			"bufferView":37,
			"componentType":5126,
			"count":304,
			"type":"VEC3"
		},
		{
			"bufferView":38,
			"componentType":5126,
			"count":304,
			"type":"VEC2"
		},
		{
			"bufferView":39,
			"componentType":5121,
			"count":304,
			"type":"VEC4"
		},
		{
			"bufferView":40,
			"componentType":5126,
			"count":304,
			"type":"VEC4"
		},
		{
			"bufferView":41,
			"componentType":5123,
			"count":1152,
			"type":"SCALAR"
		},
		{
			"bufferView":42,
			"componentType":5126,
			"count":220,
			"max":[
				0.04349999874830246,
				1.6848000288009644,
				-0.08122024685144424
			],
			"min":[
				-0.04349999874830246,
				1.6651999950408936,
				-0.08977975696325302
			],
			"type":"VEC3"
		},
		{
			"bufferView":43,
			"componentType":5126,
			"count":220,
			"type":"VEC3"
		},
		{
			"bufferView":44,
			"componentType":5126,
			"count":220,
			"type":"VEC2"
		},
		{
			"bufferView":45,
			"componentType":5121,
			"count":220,
			"type":"VEC4"
		},
		{
			"bufferView":46,
			"componentType":5126,
			"count":220,
			"type":"VEC4"
		},
		{
			"bufferView":47,
			"componentType":5123,
			"count":720,
			"type":"SCALAR"
		},
		{
			"bufferView":48,
			"componentType":5126,
			"count":160,
			"max":[
				0.03799443691968918,
				1.6794999837875366,
				-0.08689788728952408
			],
			"min":[
				-0.03799443691968918,
				1.6705000400543213,
				-0.0907021164894104
			],
			"type":"VEC3"
		},
		{
			"bufferView":49,
			"componentType":5126,
			"count":160,
			"type":"VEC3"
		},
		{
			"bufferView":50,
			"componentType":5126,
			"count":160,
			"type":"VEC2"
		},
		{
			"bufferView":51,
			"componentType":5121,
			"count":160,
			"type":"VEC4"
		},
		{
			"bufferView":52,
			"componentType":5126,
			"count":160,
			"type":"VEC4"
		},
		{
			"bufferView":53,
			"componentType":5123,
			"count":480,
			"type":"SCALAR"
		},
		{
			"bufferView":54,
			"componentType":5126,
			"count":98,
			"max":[
				0.01899999938905239,
				1.6074999570846558,
				-0.07772024720907211
			],
			"min":[
				-0.01899999938905239,
				1.5985000133514404,
				-0.08627975732088089
			],
			"type":"VEC3"
		},
		{
			"bufferView":55,
			"componentType":5126,
			"count":98,
			"type":"VEC3"
		},
		{
			"bufferView":56,
			"componentType":5126,
			"count":98,
			"type":"VEC2"
		},
		{
			"bufferView":57,
			"componentType":5121,
			"count":98,
			"type":"VEC4"
		},
		{
			"bufferView":58,
			"componentType":5126,
			"count":98,
			"type":"VEC4"
		},
		{
			"bufferView":59,
			"componentType":5123,
			"count":360,
			"type":"SCALAR"
		},
		{
			"bufferView":60,
			"componentType":5126,
			"count":162,
			"max":[
				0.26999300718307495,
				1.4299999475479126,
				0.19439999759197235
			],
			"min":[
				-0.26999300718307495,
				0.46000000834465027,
				-0.18709546327590942
			],
			"type":"VEC3"
		},
		{
			"bufferView":61,
			"componentType":5126,
			"count":162,
			"type":"VEC3"
		},
		{
			"bufferView":62,
			"componentType":5126,
			"count":162,
			"type":"VEC2"
		},
		{
			"bufferView":63,
			"componentType":5121,
			"count":162,
			"type":"VEC4"
		},
		{
			"bufferView":64,
			"componentType":5126,
			"count":162,
			"type":"VEC4"
		},
		{
			"bufferView":65,
			"componentType":5123,
			"count":660,
			"type":"SCALAR"
		},
		{
			"bufferView":66,
			"componentType":5126,
			"count":42,
			"max":[
				0.08447265625,
				1.5199999809265137,
				0.07649999856948853
			],
			"min":[
				-0.08447265625,
				1.4600000381469727,
				-0.06888420134782791
			],
			"type":"VEC3"
		},
		{
			"bufferView":67,
			"componentType":5126,
			"count":42,
			"type":"VEC3"
		},
		{
			"bufferView":68,
			"componentType":5126,
			"count":42,
			"type":"VEC2"
		},
		{
			"bufferView":69,
			"componentType":5121,
			"count":42,
			"type":"VEC4"
		},
		{
			"bufferView":70,
			"componentType":5126,
			"count":42,
			"type":"VEC4"
		},
		{
			"bufferView":71,
			"componentType":5123,
			"count":96,
			"type":"SCALAR"
		},
		{
			"bufferView":72,
			"componentType":5126,
			"count":24,
			"max":[
				0.02500000037252903,
				0.9700000286102295,
				-0.09399999678134918
			],
			"min":[
				-0.02500000037252903,
				0.9300000071525574,
				-0.10599999874830246
			],
			"type":"VEC3"
		},
		{
			"bufferView":73,
			"componentType":5126,
			"count":24,
			"type":"VEC3"
		},
		{
			"bufferView":74,
			"componentType":5126,
			"count":24,
			"type":"VEC2"
		},
		{
			"bufferView":75,
			"componentType":5121,
			"count":24,
			"type":"VEC4"
		},
		{
			"bufferView":76,
			"componentType":5126,
			"count":24,
			"type":"VEC4"
		},
		{
			"bufferView":77,
			"componentType":5123,
			"count":36,
			"type":"SCALAR"
		},
		{
			"bufferView":78,
			"componentType":5126,
			"count":42,
			"max":[
				0.3208000063896179,
				1.5499999523162842,
				-0.004999998956918716
			],
			"min":[
				0.2807999849319458,
				0.09999996423721313,
				-0.044999998062849045
			],
			"type":"VEC3"
		},
		{
			"bufferView":79,
			"componentType":5126,
			"count":42,
			"type":"VEC3"
		},
		{
			"bufferView":80,
			"componentType":5126,
			"count":42,
			"type":"VEC2"
		},
		{
			"bufferView":81,
			"componentType":5121,
			"count":42,
			"type":"VEC4"
		},
		{
			"bufferView":82,
			"componentType":5126,
			"count":42,
			"type":"VEC4"
		},
		{
			"bufferView":83,
			"componentType":5123,
			"count":96,
			"type":"SCALAR"
		},
		{
			"bufferView":84,
			"componentType":5126,
			"count":218,
			"max":[
				0.36079999804496765,
				1.6999998092651367,
				0.03349567577242851
			],
			"min":[
				0.24079999327659607,
				1.5799999237060547,
				-0.08349566906690598
			],
			"type":"VEC3"
		},
		{
			"bufferView":85,
			"componentType":5126,
			"count":218,
			"type":"VEC3"
		},
		{
			"bufferView":86,
			"componentType":5126,
			"count":218,
			"type":"VEC2"
		},
		{
			"bufferView":87,
			"componentType":5121,
			"count":218,
			"type":"VEC4"
		},
		{
			"bufferView":88,
			"componentType":5126,
			"count":218,
			"type":"VEC4"
		},
		{
			"bufferView":89,
			"componentType":5123,
			"count":840,
			"type":"SCALAR"
		},
		{
			"bufferView":90,
			"componentType":5126,
			"count":17,
			"type":"MAT4"
		},
		{
			"bufferView":91,
			"componentType":5126,
			"count":2,
			"max":[
				0.6
			],
			"min":[
				0
			],
			"type":"SCALAR"
		},
		{
			"bufferView":92,
			"componentType":5126,
			"count":2,
			"type":"VEC3"
		},
		{
			"bufferView":93,
			"componentType":5126,
			"count":2,
			"type":"VEC4"
		},
		{
			"bufferView":94,
			"componentType":5126,
			"count":2,
			"type":"VEC3"
		},
		{
			"bufferView":95,
			"componentType":5126,
			"count":2,
			"type":"VEC3"
		},
		{
			"bufferView":96,
			"componentType":5126,
			"count":2,
			"type":"VEC4"
		},
		{
			"bufferView":97,
			"componentType":5126,
			"count":2,
			"type":"VEC3"
		},
		{
			"bufferView":98,
			"componentType":5126,
			"count":2,
			"type":"VEC3"
		},
		{
			"bufferView":99,
			"componentType":5126,
			"count":19,
			"max":[
				0.6
			],
			"min":[
				0
			],
			"type":"SCALAR"
		},
		{
			"bufferView":100,
			"componentType":5126,
			"count":19,
			"type":"VEC4"
		},
		{
			"bufferView":101,
			"componentType":5126,
			"count":2,
			"type":"VEC3"
		},
		{
			"bufferView":102,
			"componentType":5126,
			"count":2,
			"type":"VEC3"
		},
		{
			"bufferView":103,
			"componentType":5126,
			"count":2,
			"type":"VEC4"
		},
		{
			"bufferView":104,
			"componentType":5126,
			"count":2,
			"type":"VEC3"
		},
		{
			"bufferView":105,
			"componentType":5126,
			"count":2,
			"type":"VEC3"
		},
		{
			"bufferView":106,
			"componentType":5126,
			"count":2,
			"type":"VEC4"
		},
		{
			"bufferView":107,
			"componentType":5126,
			"count":2,
			"type":"VEC3"
		},
		{
			"bufferView":108,
			"componentType":5126,
			"count":2,
			"type":"VEC3"
		},
		{
			"bufferView":109,
			"componentType":5126,
			"count":19,
			"type":"VEC4"
		},
		{
			"bufferView":110,
			"componentType":5126,
			"count":2,
			"type":"VEC3"
		},
		{
			"bufferView":111,
			"componentType":5126,
			"count":2,
			"type":"VEC3"
		},
		{
			"bufferView":112,
			"componentType":5126,
			"count":19,
			"type":"VEC4"
		},
		{
			"bufferView":113,
			"componentType":5126,
			"count":2,
			"type":"VEC3"
		},
		{
			"bufferView":114,
			"componentType":5126,
			"count":2,
			"type":"VEC3"
		},
		{
			"bufferView":115,
			"componentType":5126,
			"count":2,
			"type":"VEC4"
		},
		{
			"bufferView":116,
			"componentType":5126,
			"count":2,
			"type":"VEC3"
		},
		{
			"bufferView":117,
			"componentType":5126,
			"count":2,
			"type":"VEC3"
		},
		{
			"bufferView":118,
			"componentType":5126,
			"count":19,
			"type":"VEC4"
		},
		{
			"bufferView":119,
			"componentType":5126,
			"count":2,
			"type":"VEC3"
		},
		{
			"bufferView":120,
			"componentType":5126,
			"count":2,
			"type":"VEC3"
		},
		{
			"bufferView":121,
			"componentType":5126,
			"count":2,
			"type":"VEC4"
		},
		{
			"bufferView":122,
			"componentType":5126,
			"count":2,
			"type":"VEC3"
		},
		{
			"bufferView":123,
			"componentType":5126,
			"count":2,
			"type":"VEC3"
		},
		{
			"bufferView":124,
			"componentType":5126,
			"count":2,
			"type":"VEC4"
		},
		{
			"bufferView":125,
			"componentType":5126,
			"count":2,
			"type":"VEC3"
		},
		{
			"bufferView":126,
			"componentType":5126,
			"count":2,
			"type":"VEC3"
		},
		{
			"bufferView":127,
			"componentType":5126,
			"count":19,
			"type":"VEC4"
		},
		{
			"bufferView":128,
			"componentType":5126,
			"count":2,
			"type":"VEC3"
		},
		{
			"bufferView":129,
			"componentType":5126,
			"count":2,
			"type":"VEC3"
		},
		{
			"bufferView":130,
			"componentType":5126,
			"count":2,
			"type":"VEC4"
		},
		{
			"bufferView":131,
			"componentType":5126,
			"count":2,
			"type":"VEC3"
		},
		{
			"bufferView":132,
			"componentType":5126,
			"count":2,
			"type":"VEC3"
		},
		{
			"bufferView":133,
			"componentType":5126,
			"count":2,
			"type":"VEC4"
		},
		{
			"bufferView":134,
			"componentType":5126,
			"count":2,
			"type":"VEC3"
		},
		{
			"bufferView":135,
			"componentType":5126,
			"count":2,
			"type":"VEC3"
		},
		{
			"bufferView":136,
			"componentType":5126,
			"count":19,
			"type":"VEC4"
		},
		{
			"bufferView":137,
			"componentType":5126,
			"count":2,
			"type":"VEC3"
		},
		{
			"bufferView":138,
			"componentType":5126,
			"count":2,
			"type":"VEC3"
		},
		{
			"bufferView":139,
			"componentType":5126,
			"count":2,
			"type":"VEC4"
		},
		{
			"bufferView":140,
			"componentType":5126,
			"count":2,
			"type":"VEC3"
		},
		{
			"bufferView":141,
			"componentType":5126,
			"count":2,
			"type":"VEC3"
		},
		{
			"bufferView":142,
			"componentType":5126,
			"count":2,
			"type":"VEC4"
		},
		{
			"bufferView":143,
			"componentType":5126,
			"count":2,
			"type":"VEC3"
		},
		{
			"bufferView":144,
			"componentType":5126,
			"count":61,
			"max":[
				2
			],
			"min":[
				0
			],
			"type":"SCALAR"
		},
		{
			"bufferView":145,
			"componentType":5126,
			"count":61,
			"type":"VEC3"
		},
		{
			"bufferView":146,
			"componentType":5126,
			"count":2,
			"max":[
				2
			],
			"min":[
				0
			],
			"type":"SCALAR"
		},
		{
			"bufferView":147,
			"componentType":5126,
			"count":2,
			"type":"VEC4"
		},
		{
			"bufferView":148,
			"componentType":5126,
			"count":2,
			"type":"VEC3"
		},
		{
			"bufferView":149,
			"componentType":5126,
			"count":2,
			"type":"VEC3"
		},
		{
			"bufferView":150,
			"componentType":5126,
			"count":2,
			"type":"VEC4"
		},
		{
			"bufferView":151,
			"componentType":5126,
			"count":2,
			"type":"VEC3"
		},
		{
			"bufferView":152,
			"componentType":5126,
			"count":2,
			"type":"VEC3"
		},
		{
			"bufferView":153,
			"componentType":5126,
			"count":61,
			"type":"VEC4"
		},
		{
			"bufferView":154,
			"componentType":5126,
			"count":2,
			"type":"VEC3"
		},
		{
			"bufferView":155,
			"componentType":5126,
			"count":2,
			"type":"VEC3"
		},
		{
			"bufferView":156,
			"componentType":5126,
			"count":2,
			"type":"VEC4"
		},
		{
			"bufferView":157,
			"componentType":5126,
			"count":2,
			"type":"VEC3"
		},
		{
			"bufferView":158,
			"componentType":5126,
			"count":2,
			"type":"VEC3"
		},
		{
			"bufferView":159,
			"componentType":5126,
			"count":61,
			"type":"VEC4"
		},
		{
			"bufferView":160,
			"componentType":5126,
			"count":2,
			"type":"VEC3"
		},
		{
			"bufferView":161,
			"componentType":5126,
			"count":2,
			"type":"VEC3"
		},
		{
			"bufferView":162,
			"componentType":5126,
			"count":61,
			"type":"VEC4"
		},
		{
			"bufferView":163,
			"componentType":5126,
			"count":2,
			"type":"VEC3"
		},
		{
			"bufferView":164,
			"componentType":5126,
			"count":2,
			"type":"VEC3"
		},
		{
			"bufferView":165,
			"componentType":5126,
			"count":2,
			"type":"VEC4"
		},
		{
			"bufferView":166,
			"componentType":5126,
			"count":2,
			"type":"VEC3"
		},
		{
			"bufferView":167,
			"componentType":5126,
			"count":2,
			"type":"VEC3"
		},
		{
			"bufferView":168,
			"componentType":5126,
			"count":2,
			"type":"VEC4"
		},
		{
			"bufferView":169,
			"componentType":5126,
			"count":2,
			"type":"VEC3"
		},
		{
			"bufferView":170,
			"componentType":5126,
			"count":2,
			"type":"VEC3"
		},
		{
			"bufferView":171,
			"componentType":5126,
			"count":61,
			"type":"VEC4"
		},
		{
			"bufferView":172,
			"componentType":5126,
			"count":2,
			"type":"VEC3"
		},
		{
			"bufferView":173,
			"componentType":5126,
			"count":2,
			"type":"VEC3"
		},
		{
			"bufferView":174,
			"componentType":5126,
			"count":2,
			"type":"VEC4"
		},
		{
			"bufferView":175,
			"componentType":5126,
			"count":2,
			"type":"VEC3"
		},
		{
			"bufferView":176,
			"componentType":5126,
			"count":2,
			"type":"VEC3"
		},
		{
			"bufferView":177,
			"componentType":5126,
			"count":2,
			"type":"VEC4"
		},
		{
			"bufferView":178,
			"componentType":5126,
			"count":2,
			"type":"VEC3"
		},
		{
			"bufferView":179,
			"componentType":5126,
			"count":2,
			"type":"VEC3"
		},
		{
			"bufferView":180,
			"componentType":5126,
			"count":2,
			"type":"VEC4"
		},
		{
			"bufferView":181,
			"componentType":5126,
			"count":2,
			"type":"VEC3"
		},
		{
			"bufferView":182,
			"componentType":5126,
			"count":2,
			"type":"VEC3"
		},
		{
			"bufferView":183,
			"componentType":5126,
			"count":2,
			"type":"VEC4"
		},
		{
			"bufferView":184,
			"componentType":5126,
			"count":2,
			"type":"VEC3"
		},
		{
			"bufferView":185,
			"componentType":5126,
			"count":2,
			"type":"VEC3"
		},
		{
			"bufferView":186,
			"componentType":5126,
			"count":2,
			"type":"VEC4"
		},
		{
			"bufferView":187,
			"componentType":5126,
			"count":2,
			"type":"VEC3"
		},
		{
			"bufferView":188,
			"componentType":5126,
			"count":2,
			"type":"VEC3"
		},
		{
			"bufferView":189,
			"componentType":5126,
			"count":2,
			"type":"VEC4"
		},
		{
			"bufferView":190,
			"componentType":5126,
			"count":2,
			"type":"VEC3"
		},
		{
			"bufferView":191,
			"componentType":5126,
			"count":2,
			"type":"VEC3"
		},
		{
			"bufferView":192,
			"componentType":5126,
			"count":2,
			"type":"VEC4"
		},
		{
			"bufferView":193,
			"componentType":5126,
			"count":2,
			"type":"VEC3"
		},
		{
			"bufferView":194,
			"componentType":5126,
			"count":2,
			"type":"VEC3"
		},
		{
			"bufferView":195,
			"componentType":5126,
			"count":2,
			"type":"VEC4"
		},
		{
			"bufferView":196,
			"componentType":5126,
			"count":2,
			"type":"VEC3"
		},
		{
			"bufferView":197,
			"componentType":5126,
			"count":31,
			"max":[
				1
			],
			"min":[
				0
			],
			"type":"SCALAR"
		},
		{
			"bufferView":198,
			"componentType":5126,
			"count":31,
			"type":"VEC3"
		},
		{
			"bufferView":199,
			"componentType":5126,
			"count":31,
			"type":"VEC4"
		},
		{
			"bufferView":200,
			"componentType":5126,
			"count":2,
			"max":[
				1
			],
			"min":[
				0
			],
			"type":"SCALAR"
		},
		{
			"bufferView":201,
			"componentType":5126,
			"count":2,
			"type":"VEC3"
		},
		{
			"bufferView":202,
			"componentType":5126,
			"count":2,
			"type":"VEC3"
		},
		{
			"bufferView":203,
			"componentType":5126,
			"count":2,
			"type":"VEC4"
		},
		{
			"bufferView":204,
			"componentType":5126,
			"count":2,
			"type":"VEC3"
		},
		{
			"bufferView":205,
			"componentType":5126,
			"count":2,
			"type":"VEC3"
		},
		{
			"bufferView":206,
			"componentType":5126,
			"count":31,
			"type":"VEC4"
		},
		{
			"bufferView":207,
			"componentType":5126,
			"count":2,
			"type":"VEC3"
		},
		{
			"bufferView":208,
			"componentType":5126,
			"count":2,
			"type":"VEC3"
		},
		{
			"bufferView":209,
			"componentType":5126,
			"count":2,
			"type":"VEC4"
		},
		{
			"bufferView":210,
			"componentType":5126,
			"count":2,
			"type":"VEC3"
		},
		{
			"bufferView":211,
			"componentType":5126,
			"count":2,
			"type":"VEC3"
		},
		{
			"bufferView":212,
			"componentType":5126,
			"count":2,
			"type":"VEC4"
		},
		{
			"bufferView":213,
			"componentType":5126,
			"count":2,
			"type":"VEC3"
		},
		{
			"bufferView":214,
			"componentType":5126,
			"count":2,
			"type":"VEC3"
		},
		{
			"bufferView":215,
			"componentType":5126,
			"count":31,
			"type":"VEC4"
		},
		{
			"bufferView":216,
			"componentType":5126,
			"count":2,
			"type":"VEC3"
		},
		{
			"bufferView":217,
			"componentType":5126,
			"count":2,
			"type":"VEC3"
		},
		{
			"bufferView":218,
			"componentType":5126,
			"count":2,
			"type":"VEC4"
		},
		{
			"bufferView":219,
			"componentType":5126,
			"count":2,
			"type":"VEC3"
		},
		{
			"bufferView":220,
			"componentType":5126,
			"count":2,
			"type":"VEC3"
		},
		{
			"bufferView":221,
			"componentType":5126,
			"count":2,
			"type":"VEC4"
		},
		{
			"bufferView":222,
			"componentType":5126,
			"count":2,
			"type":"VEC3"
		},
		{
			"bufferView":223,
			"componentType":5126,
			"count":2,
			"type":"VEC3"
		},
		{
			"bufferView":224,
			"componentType":5126,
			"count":31,
			"type":"VEC4"
		},
		{
			"bufferView":225,
			"componentType":5126,
			"count":2,
			"type":"VEC3"
		},
		{
			"bufferView":226,
			"componentType":5126,
			"count":2,
			"type":"VEC3"
		},
		{
			"bufferView":227,
			"componentType":5126,
			"count":2,
			"type":"VEC4"
		},
		{
			"bufferView":228,
			"componentType":5126,
			"count":2,
			"type":"VEC3"
		},
		{
			"bufferView":229,
			"componentType":5126,
			"count":2,
			"type":"VEC3"
		},
		{
			"bufferView":230,
			"componentType":5126,
			"count":2,
			"type":"VEC4"
		},
		{
			"bufferView":231,
			"componentType":5126,
			"count":2,
			"type":"VEC3"
		},
		{
			"bufferView":232,
			"componentType":5126,
			"count":2,
			"type":"VEC3"
		},
		{
			"bufferView":233,
			"componentType":5126,
			"count":31,
			"type":"VEC4"
		},
		{
			"bufferView":234,
			"componentType":5126,
			"count":2,
			"type":"VEC3"
		},
		{
			"bufferView":235,
			"componentType":5126,
			"count":2,
			"type":"VEC3"
		},
		{
			"bufferView":236,
			"componentType":5126,
			"count":31,
			"type":"VEC4"
		},
		{
			"bufferView":237,
			"componentType":5126,
			"count":2,
			"type":"VEC3"
		},
		{
			"bufferView":238,
			"componentType":5126,
			"count":2,
			"type":"VEC3"
		},
		{
			"bufferView":239,
			"componentType":5126,
			"count":31,
			"type":"VEC4"
		},
		{
			"bufferView":240,
			"componentType":5126,
			"count":2,
			"type":"VEC3"
		},
		{
			"bufferView":241,
			"componentType":5126,
			"count":2,
			"type":"VEC3"
		},
		{
			"bufferView":242,
			"componentType":5126,
			"count":31,
			"type":"VEC4"
		},
		{
			"bufferView":243,
			"componentType":5126,
			"count":2,
			"type":"VEC3"
		},
		{
			"bufferView":244,
			"componentType":5126,
			"count":2,
			"type":"VEC3"
		},
		{
			"bufferView":245,
			"componentType":5126,
			"count":31,
			"type":"VEC4"
		},
		{
			"bufferView":246,
			"componentType":5126,
			"count":2,
			"type":"VEC3"
		},
		{
			"bufferView":247,
			"componentType":5126,
			"count":2,
			"type":"VEC3"
		},
		{
			"bufferView":248,
			"componentType":5126,
			"count":31,
			"type":"VEC4"
		},
		{
			"bufferView":249,
			"componentType":5126,
			"count":2,
			"type":"VEC3"
		}
	],
	"bufferViews":[
		{
			"buffer":0,
			"byteLength":17244,
			"byteOffset":0,
			"target":34962
		},
		{
			"buffer":0,
			"byteLength":17244,
			"byteOffset":17244,
			"target":34962
		},
		{
			"buffer":0,
			"byteLength":11496,
			"byteOffset":34488,
			"target":34962
		},
		{
			"buffer":0,
			"byteLength":5748,
			"byteOffset":45984,
			"target":34962
		},
		{
			"buffer":0,
			"byteLength":22992,
			"byteOffset":51732,
			"target":34962
		},
		{
			"buffer":0,
			"byteLength":11736,
			"byteOffset":74724,
			"target":34963
		},
		{
			"buffer":0,
			"byteLength":35292,
			"byteOffset":86460,
			"target":34962
		},
		{
			"buffer":0,
			"byteLength":35292,
			"byteOffset":121752,
			"target":34962
		},
		{
			"buffer":0,
			"byteLength":23528,
			"byteOffset":157044,
			"target":34962
		},
		{
			"buffer":0,
			"byteLength":11764,
			"byteOffset":180572,
			"target":34962
		},
		{
			"buffer":0,
			"byteLength":47056,
			"byteOffset":192336,
			"target":34962
		},
		{
			"buffer":0,
			"byteLength":20784,
			"byteOffset":239392,
			"target":34963
		},
		{
			"buffer":0,
			"byteLength":17532,
			"byteOffset":260176,
			"target":34962
		},
		{
			"buffer":0,
			"byteLength":17532,
			"byteOffset":277708,
			"target":34962
		},
		{
			"buffer":0,
			"byteLength":11688,
			"byteOffset":295240,
			"target":34962
		},
		{
			"buffer":0,
			"byteLength":5844,
			"byteOffset":306928,
			"target":34962
		},
		{
			"buffer":0,
			"byteLength":23376,
			"byteOffset":312772,
			"target":34962
		},
		{
			"buffer":0,
			"byteLength":13296,
			"byteOffset":336148,
			"target":34963
		},
		{
			"buffer":0,
			"byteLength":780,
			"byteOffset":349444,
			"target":34962
		},
		{
			"buffer":0,
			"byteLength":780,
			"byteOffset":350224,
			"target":34962
		},
		{
			"buffer":0,
			"byteLength":520,
			"byteOffset":351004,
			"target":34962
		},
		{
			"buffer":0,
			"byteLength":260,
			"byteOffset":351524,
			"target":34962
		},
		{
			"buffer":0,
			"byteLength":1040,
			"byteOffset":351784,
			"target":34962
		},
		{
			"buffer":0,
			"byteLength":384,
			"byteOffset":352824,
			"target":34963
		},
		{
			"buffer":0,
			"byteLength":11724,
			"byteOffset":353208,
			"target":34962
		},
		{
			"buffer":0,
			"byteLength":11724,
			"byteOffset":364932,
			"target":34962
		},
		{
			"buffer":0,
			"byteLength":7816,
			"byteOffset":376656,
			"target":34962
		},
		{
			"buffer":0,
			"byteLength":3908,
			"byteOffset":384472,
			"target":34962
		},
		{
			"buffer":0,
			"byteLength":15632,
			"byteOffset":388380,
			"target":34962
		},
		{
			"buffer":0,
			"byteLength":8664,
			"byteOffset":404012,
			"target":34963
		},
		{
			"buffer":0,
			"byteLength":12408,
			"byteOffset":412676,
			"target":34962
		},
		{
			"buffer":0,
			"byteLength":12408,
			"byteOffset":425084,
			"target":34962
		},
		{
			"buffer":0,
			"byteLength":8272,
			"byteOffset":437492,
			"target":34962
		},
		{
			"buffer":0,
			"byteLength":4136,
			"byteOffset":445764,
			"target":34962
		},
		{
			"buffer":0,
			"byteLength":16544,
			"byteOffset":449900,
			"target":34962
		},
		{
			"buffer":0,
			"byteLength":9216,
			"byteOffset":466444,
			"target":34963
		},
		{
			"buffer":0,
			"byteLength":3648,
			"byteOffset":475660,
			"target":34962
		},
		{
			"buffer":0,
			"byteLength":3648,
			"byteOffset":479308,
			"target":34962
		},
		{
			"buffer":0,
			"byteLength":2432,
			"byteOffset":482956,
			"target":34962
		},
		{
			"buffer":0,
			"byteLength":1216,
			"byteOffset":485388,
			"target":34962
		},
		{
			"buffer":0,
			"byteLength":4864,
			"byteOffset":486604,
			"target":34962
		},
		{
			"buffer":0,
			"byteLength":2304,
			"byteOffset":491468,
			"target":34963
		},
		{
			"buffer":0,
			"byteLength":2640,
			"byteOffset":493772,
			"target":34962
		},
		{
			"buffer":0,
			"byteLength":2640,
			"byteOffset":496412,
			"target":34962
		},
		{
			"buffer":0,
			"byteLength":1760,
			"byteOffset":499052,
			"target":34962
		},
		{
			"buffer":0,
			"byteLength":880,
			"byteOffset":500812,
			"target":34962
		},
		{
			"buffer":0,
			"byteLength":3520,
			"byteOffset":501692,
			"target":34962
		},
		{
			"buffer":0,
			"byteLength":1440,
			"byteOffset":505212,
			"target":34963
		},
		{
			"buffer":0,
			"byteLength":1920,
			"byteOffset":506652,
			"target":34962
		},
		{
			"buffer":0,
			"byteLength":1920,
			"byteOffset":508572,
			"target":34962
		},
		{
			"buffer":0,
			"byteLength":1280,
			"byteOffset":510492,
			"target":34962
		},
		{
			"buffer":0,
			"byteLength":640,
			"byteOffset":511772,
			"target":34962
		},
		{
			"buffer":0,
			"byteLength":2560,
			"byteOffset":512412,
			"target":34962
		},
		{
			"buffer":0,
			"byteLength":960,
			"byteOffset":514972,
			"target":34963
		},
		{
			"buffer":0,
			"byteLength":1176,
			"byteOffset":515932,
			"target":34962
		},
		{
			"buffer":0,
			"byteLength":1176,
			"byteOffset":517108,
			"target":34962
		},
		{
			"buffer":0,
			"byteLength":784,
			"byteOffset":518284,
			"target":34962
		},
		{
			"buffer":0,
			"byteLength":392,
			"byteOffset":519068,
			"target":34962
		},
		{
			"buffer":0,
			"byteLength":1568,
			"byteOffset":519460,
			"target":34962
		},
		{
			"buffer":0,
			"byteLength":720,
			"byteOffset":521028,
			"target":34963
		},
		{
			"buffer":0,
			"byteLength":1944,
			"byteOffset":521748,
			"target":34962
		},
		{
			"buffer":0,
			"byteLength":1944,
			"byteOffset":523692,
			"target":34962
		},
		{
			"buffer":0,
			"byteLength":1296,
			"byteOffset":525636,
			"target":34962
		},
		{
			"buffer":0,
			"byteLength":648,
			"byteOffset":526932,
			"target":34962
		},
		{
			"buffer":0,
			"byteLength":2592,
			"byteOffset":527580,
			"target":34962
		},
		{
			"buffer":0,
			"byteLength":1320,
			"byteOffset":530172,
			"target":34963
		},
		{
			"buffer":0,
			"byteLength":504,
			"byteOffset":531492,
			"target":34962
		},
		{
			"buffer":0,
			"byteLength":504,
			"byteOffset":531996,
			"target":34962
		},
		{
			"buffer":0,
			"byteLength":336,
			"byteOffset":532500,
			"target":34962
		},
		{
			"buffer":0,
			"byteLength":168,
			"byteOffset":532836,
			"target":34962
		},
		{
			"buffer":0,
			"byteLength":672,
			"byteOffset":533004,
			"target":34962
		},
		{
			"buffer":0,
			"byteLength":192,
			"byteOffset":533676,
			"target":34963
		},
		{
			"buffer":0,
			"byteLength":288,
			"byteOffset":533868,
			"target":34962
		},
		{
			"buffer":0,
			"byteLength":288,
			"byteOffset":534156,
			"target":34962
		},
		{
			"buffer":0,
			"byteLength":192,
			"byteOffset":534444,
			"target":34962
		},
		{
			"buffer":0,
			"byteLength":96,
			"byteOffset":534636,
			"target":34962
		},
		{
			"buffer":0,
			"byteLength":384,
			"byteOffset":534732,
			"target":34962
		},
		{
			"buffer":0,
			"byteLength":72,
			"byteOffset":535116,
			"target":34963
		},
		{
			"buffer":0,
			"byteLength":504,
			"byteOffset":535188,
			"target":34962
		},
		{
			"buffer":0,
			"byteLength":504,
			"byteOffset":535692,
			"target":34962
		},
		{
			"buffer":0,
			"byteLength":336,
			"byteOffset":536196,
			"target":34962
		},
		{
			"buffer":0,
			"byteLength":168,
			"byteOffset":536532,
			"target":34962
		},
		{
			"buffer":0,
			"byteLength":672,
			"byteOffset":536700,
			"target":34962
		},
		{
			"buffer":0,
			"byteLength":192,
			"byteOffset":537372,
			"target":34963
		},
		{
			"buffer":0,
			"byteLength":2616,
			"byteOffset":537564,
			"target":34962
		},
		{
			"buffer":0,
			"byteLength":2616,
			"byteOffset":540180,
			"target":34962
		},
		{
			"buffer":0,
			"byteLength":1744,
			"byteOffset":542796,
			"target":34962
		},
		{
			"buffer":0,
			"byteLength":872,
			"byteOffset":544540,
			"target":34962
		},
		{
			"buffer":0,
			"byteLength":3488,
			"byteOffset":545412,
			"target":34962
		},
		{
			"buffer":0,
			"byteLength":1680,
			"byteOffset":548900,
			"target":34963
		},
		{
			"buffer":0,
			"byteLength":1088,
			"byteOffset":550580
		},
		{
			"buffer":0,
			"byteLength":8,
			"byteOffset":551668
		},
		{
			"buffer":0,
			"byteLength":24,
			"byteOffset":551676
		},
		{
			"buffer":0,
			"byteLength":32,
			"byteOffset":551700
		},
		{
			"buffer":0,
			"byteLength":24,
			"byteOffset":551732
		},
		{
			"buffer":0,
			"byteLength":24,
			"byteOffset":551756
		},
		{
			"buffer":0,
			"byteLength":32,
			"byteOffset":551780
		},
		{
			"buffer":0,
			"byteLength":24,
			"byteOffset":551812
		},
		{
			"buffer":0,
			"byteLength":24,
			"byteOffset":551836
		},
		{
			"buffer":0,
			"byteLength":76,
			"byteOffset":551860
		},
		{
			"buffer":0,
			"byteLength":304,
			"byteOffset":551936
		},
		{
			"buffer":0,
			"byteLength":24,
			"byteOffset":552240
		},
		{
			"buffer":0,
			"byteLength":24,
			"byteOffset":552264
		},
		{
			"buffer":0,
			"byteLength":32,
			"byteOffset":552288
		},
		{
			"buffer":0,
			"byteLength":24,
			"byteOffset":552320
		},
		{
			"buffer":0,
			"byteLength":24,
			"byteOffset":552344
		},
		{
			"buffer":0,
			"byteLength":32,
			"byteOffset":552368
		},
		{
			"buffer":0,
			"byteLength":24,
			"byteOffset":552400
		},
		{
			"buffer":0,
			"byteLength":24,
			"byteOffset":552424
		},
		{
			"buffer":0,
			"byteLength":304,
			"byteOffset":552448
		},
		{
			"buffer":0,
			"byteLength":24,
			"byteOffset":552752
		},
		{
			"buffer":0,
			"byteLength":24,
			"byteOffset":552776
		},
		{
			"buffer":0,
			"byteLength":304,
			"byteOffset":552800
		},
		{
			"buffer":0,
			"byteLength":24,
			"byteOffset":553104
		},
		{
			"buffer":0,
			"byteLength":24,
			"byteOffset":553128
		},
		{
			"buffer":0,
			"byteLength":32,
			"byteOffset":553152
		},
		{
			"buffer":0,
			"byteLength":24,
			"byteOffset":553184
		},
		{
			"buffer":0,
			"byteLength":24,
			"byteOffset":553208
		},
		{
			"buffer":0,
			"byteLength":304,
			"byteOffset":553232
		},
		{
			"buffer":0,
			"byteLength":24,
			"byteOffset":553536
		},
		{
			"buffer":0,
			"byteLength":24,
			"byteOffset":553560
		},
		{
			"buffer":0,
			"byteLength":32,
			"byteOffset":553584
		},
		{
			"buffer":0,
			"byteLength":24,
			"byteOffset":553616
		},
		{
			"buffer":0,
			"byteLength":24,
			"byteOffset":553640
		},
		{
			"buffer":0,
			"byteLength":32,
			"byteOffset":553664
		},
		{
			"buffer":0,
			"byteLength":24,
			"byteOffset":553696
		},
		{
			"buffer":0,
			"byteLength":24,
			"byteOffset":553720
		},
		{
			"buffer":0,
			"byteLength":304,
			"byteOffset":553744
		},
		{
			"buffer":0,
			"byteLength":24,
			"byteOffset":554048
		},
		{
			"buffer":0,
			"byteLength":24,
			"byteOffset":554072
		},
		{
			"buffer":0,
			"byteLength":32,
			"byteOffset":554096
		},
		{
			"buffer":0,
			"byteLength":24,
			"byteOffset":554128
		},
		{
			"buffer":0,
			"byteLength":24,
			"byteOffset":554152
		},
		{
			"buffer":0,
			"byteLength":32,
			"byteOffset":554176
		},
		{
			"buffer":0,
			"byteLength":24,
			"byteOffset":554208
		},
		{
			"buffer":0,
			"byteLength":24,
			"byteOffset":554232
		},
		{
			"buffer":0,
			"byteLength":304,
			"byteOffset":554256
		},
		{
			"buffer":0,
			"byteLength":24,
			"byteOffset":554560
		},
		{
			"buffer":0,
			"byteLength":24,
			"byteOffset":554584
		},
		{
			"buffer":0,
			"byteLength":32,
			"byteOffset":554608
		},
		{
			"buffer":0,
			"byteLength":24,
			"byteOffset":554640
		},
		{
			"buffer":0,
			"byteLength":24,
			"byteOffset":554664
		},
		{
			"buffer":0,
			"byteLength":32,
			"byteOffset":554688
		},
		{
			"buffer":0,
			"byteLength":24,
			"byteOffset":554720
		},
		{
			"buffer":0,
			"byteLength":244,
			"byteOffset":554744
		},
		{
			"buffer":0,
			"byteLength":732,
			"byteOffset":554988
		},
		{
			"buffer":0,
			"byteLength":8,
			"byteOffset":555720
		},
		{
			"buffer":0,
			"byteLength":32,
			"byteOffset":555728
		},
		{
			"buffer":0,
			"byteLength":24,
			"byteOffset":555760
		},
		{
			"buffer":0,
			"byteLength":24,
			"byteOffset":555784
		},
		{
			"buffer":0,
			"byteLength":32,
			"byteOffset":555808
		},
		{
			"buffer":0,
			"byteLength":24,
			"byteOffset":555840
		},
		{
			"buffer":0,
			"byteLength":24,
			"byteOffset":555864
		},
		{
			"buffer":0,
			"byteLength":976,
			"byteOffset":555888
		},
		{
			"buffer":0,
			"byteLength":24,
			"byteOffset":556864
		},
		{
			"buffer":0,
			"byteLength":24,
			"byteOffset":556888
		},
		{
			"buffer":0,
			"byteLength":32,
			"byteOffset":556912
		},
		{
			"buffer":0,
			"byteLength":24,
			"byteOffset":556944
		},
		{
			"buffer":0,
			"byteLength":24,
			"byteOffset":556968
		},
		{
			"buffer":0,
			"byteLength":976,
			"byteOffset":556992
		},
		{
			"buffer":0,
			"byteLength":24,
			"byteOffset":557968
		},
		{
			"buffer":0,
			"byteLength":24,
			"byteOffset":557992
		},
		{
			"buffer":0,
			"byteLength":976,
			"byteOffset":558016
		},
		{
			"buffer":0,
			"byteLength":24,
			"byteOffset":558992
		},
		{
			"buffer":0,
			"byteLength":24,
			"byteOffset":559016
		},
		{
			"buffer":0,
			"byteLength":32,
			"byteOffset":559040
		},
		{
			"buffer":0,
			"byteLength":24,
			"byteOffset":559072
		},
		{
			"buffer":0,
			"byteLength":24,
			"byteOffset":559096
		},
		{
			"buffer":0,
			"byteLength":32,
			"byteOffset":559120
		},
		{
			"buffer":0,
			"byteLength":24,
			"byteOffset":559152
		},
		{
			"buffer":0,
			"byteLength":24,
			"byteOffset":559176
		},
		{
			"buffer":0,
			"byteLength":976,
			"byteOffset":559200
		},
		{
			"buffer":0,
			"byteLength":24,
			"byteOffset":560176
		},
		{
			"buffer":0,
			"byteLength":24,
			"byteOffset":560200
		},
		{
			"buffer":0,
			"byteLength":32,
			"byteOffset":560224
		},
		{
			"buffer":0,
			"byteLength":24,
			"byteOffset":560256
		},
		{
			"buffer":0,
			"byteLength":24,
			"byteOffset":560280
		},
		{
			"buffer":0,
			"byteLength":32,
			"byteOffset":560304
		},
		{
			"buffer":0,
			"byteLength":24,
			"byteOffset":560336
		},
		{
			"buffer":0,
			"byteLength":24,
			"byteOffset":560360
		},
		{
			"buffer":0,
			"byteLength":32,
			"byteOffset":560384
		},
		{
			"buffer":0,
			"byteLength":24,
			"byteOffset":560416
		},
		{
			"buffer":0,
			"byteLength":24,
			"byteOffset":560440
		},
		{
			"buffer":0,
			"byteLength":32,
			"byteOffset":560464
		},
		{
			"buffer":0,
			"byteLength":24,
			"byteOffset":560496
		},
		{
			"buffer":0,
			"byteLength":24,
			"byteOffset":560520
		},
		{
			"buffer":0,
			"byteLength":32,
			"byteOffset":560544
		},
		{
			"buffer":0,
			"byteLength":24,
			"byteOffset":560576
		},
		{
			"buffer":0,
			"byteLength":24,
			"byteOffset":560600
		},
		{
			"buffer":0,
			"byteLength":32,
			"byteOffset":560624
		},
		{
			"buffer":0,
			"byteLength":24,
			"byteOffset":560656
		},
		{
			"buffer":0,
			"byteLength":24,
			"byteOffset":560680
		},
		{
			"buffer":0,
			"byteLength":32,
			"byteOffset":560704
		},
		{
			"buffer":0,
			"byteLength":24,
			"byteOffset":560736
		},
		{
			"buffer":0,
			"byteLength":24,
			"byteOffset":560760
		},
		{
			"buffer":0,
			"byteLength":32,
			"byteOffset":560784
		},
		{
			"buffer":0,
			"byteLength":24,
			"byteOffset":560816
		},
		{
			"buffer":0,
			"byteLength":124,
			"byteOffset":560840
		},
		{
			"buffer":0,
			"byteLength":372,
			"byteOffset":560964
		},
		{
			"buffer":0,
			"byteLength":496,
			"byteOffset":561336
		},
		{
			"buffer":0,
			"byteLength":8,
			"byteOffset":561832
		},
		{
			"buffer":0,
			"byteLength":24,
			"byteOffset":561840
		},
		{
			"buffer":0,
			"byteLength":24,
			"byteOffset":561864
		},
		{
			"buffer":0,
			"byteLength":32,
			"byteOffset":561888
		},
		{
			"buffer":0,
			"byteLength":24,
			"byteOffset":561920
		},
		{
			"buffer":0,
			"byteLength":24,
			"byteOffset":561944
		},
		{
			"buffer":0,
			"byteLength":496,
			"byteOffset":561968
		},
		{
			"buffer":0,
			"byteLength":24,
			"byteOffset":562464
		},
		{
			"buffer":0,
			"byteLength":24,
			"byteOffset":562488
		},
		{
			"buffer":0,
			"byteLength":32,
			"byteOffset":562512
		},
		{
			"buffer":0,
			"byteLength":24,
			"byteOffset":562544
		},
		{
			"buffer":0,
			"byteLength":24,
			"byteOffset":562568
		},
		{
			"buffer":0,
			"byteLength":32,
			"byteOffset":562592
		},
		{
			"buffer":0,
			"byteLength":24,
			"byteOffset":562624
		},
		{
			"buffer":0,
			"byteLength":24,
			"byteOffset":562648
		},
		{
			"buffer":0,
			"byteLength":496,
			"byteOffset":562672
		},
		{
			"buffer":0,
			"byteLength":24,
			"byteOffset":563168
		},
		{
			"buffer":0,
			"byteLength":24,
			"byteOffset":563192
		},
		{
			"buffer":0,
			"byteLength":32,
			"byteOffset":563216
		},
		{
			"buffer":0,
			"byteLength":24,
			"byteOffset":563248
		},
		{
			"buffer":0,
			"byteLength":24,
			"byteOffset":563272
		},
		{
			"buffer":0,
			"byteLength":32,
			"byteOffset":563296
		},
		{
			"buffer":0,
			"byteLength":24,
			"byteOffset":563328
		},
		{
			"buffer":0,
			"byteLength":24,
			"byteOffset":563352
		},
		{
			"buffer":0,
			"byteLength":496,
			"byteOffset":563376
		},
		{
			"buffer":0,
			"byteLength":24,
			"byteOffset":563872
		},
		{
			"buffer":0,
			"byteLength":24,
			"byteOffset":563896
		},
		{
			"buffer":0,
			"byteLength":32,
			"byteOffset":563920
		},
		{
			"buffer":0,
			"byteLength":24,
			"byteOffset":563952
		},
		{
			"buffer":0,
			"byteLength":24,
			"byteOffset":563976
		},
		{
			"buffer":0,
			"byteLength":32,
			"byteOffset":564000
		},
		{
			"buffer":0,
			"byteLength":24,
			"byteOffset":564032
		},
		{
			"buffer":0,
			"byteLength":24,
			"byteOffset":564056
		},
		{
			"buffer":0,
			"byteLength":496,
			"byteOffset":564080
		},
		{
			"buffer":0,
			"byteLength":24,
			"byteOffset":564576
		},
		{
			"buffer":0,
			"byteLength":24,
			"byteOffset":564600
		},
		{
			"buffer":0,
			"byteLength":496,
			"byteOffset":564624
		},
		{
			"buffer":0,
			"byteLength":24,
			"byteOffset":565120
		},
		{
			"buffer":0,
			"byteLength":24,
			"byteOffset":565144
		},
		{
			"buffer":0,
			"byteLength":496,
			"byteOffset":565168
		},
		{
			"buffer":0,
			"byteLength":24,
			"byteOffset":565664
		},
		{
			"buffer":0,
			"byteLength":24,
			"byteOffset":565688
		},
		{
			"buffer":0,
			"byteLength":496,
			"byteOffset":565712
		},
		{
			"buffer":0,
			"byteLength":24,
			"byteOffset":566208
		},
		{
			"buffer":0,
			"byteLength":24,
			"byteOffset":566232
		},
		{
			"buffer":0,
			"byteLength":496,
			"byteOffset":566256
		},
		{
			"buffer":0,
			"byteLength":24,
			"byteOffset":566752
		},
		{
			"buffer":0,
			"byteLength":24,
			"byteOffset":566776
		},
		{
			"buffer":0,
			"byteLength":496,
			"byteOffset":566800
		},
		{
			"buffer":0,
			"byteLength":24,
			"byteOffset":567296
		}
	],
	"samplers":[
		{
			"magFilter":9729,
			"minFilter":9987
		}
	],
	"buffers":[
		{
			"byteLength":567320,
			"uri":"mage.bin"
		}
	]
}
