{
	"asset":{
		"generator":"Khronos glTF Blender I/O v4.2.57",
		"version":"2.0"
	},
	"extensionsUsed":[
		"KHR_materials_emissive_strength"
	],
	"scene":0,
	"scenes":[
		{
			"name":"Scene",
			"nodes":[
				4
			]
		}
	],
	"nodes":[
		{
			"name":"barrel",
			"rotation":[
				-0.7071067690849304,
				0,
				0,
				0.7071067690849304
			],
			"translation":[
				0,
				0.3999999761581421,
				-0.4000000059604645
			]
		},
		{
			"children":[
				0
			],
			"name":"turret",
			"rotation":[
				0.7071067690849304,
				0,
				0,
				0.7071067690849304
			],
			"translation":[
				0,
				1,
				0.3999999761581421
			]
		},
		{
			"children":[
				1
			],
			"name":"hull",
			"rotation":[
				-0.7071067690849304,
				0,
				0,
				0.7071067690849304
			],
			"translation":[
				0,
				0.8500000238418579,
				1
			]
		},
		{
			"mesh":0,
			"name":"magic_tank",
			"skin":0
		},
		{
			"children":[
				3,
				2
			],
			"name":"magic_tank_rig"
		}
	],
	"animations":[
		{
			"channels":[
				{
					"sampler":0,
					"target":{
						"node":2,
						"path":"translation"
					}
				},
				{
					"sampler":1,
					"target":{
						"node":2,
						"path":"rotation"
					}
				},
				{
					"sampler":2,
					"target":{
						"node":2,
						"path":"scale"
					}
				},
				{
					"sampler":3,
					"target":{
						"node":1,
						"path":"translation"
					}
				},
				{
					"sampler":4,
					"target":{
						"node":1,
						"path":"rotation"
					}
				},
				{
					"sampler":5,
					"target":{
						"node":1,
						"path":"scale"
					}
				},
				{
					"sampler":6,
					"target":{
						"node":0,
						"path":"translation"
					}
				},
				{
					"sampler":7,
					"target":{
						"node":0,
						"path":"rotation"
					}
				},
				{
					"sampler":8,
					"target":{
						"node":0,
						"path":"scale"
					}
				}
			],
			"name":"attack",
			"samplers":[
				{
					"input":19,
					"interpolation":"STEP",
					"output":20
				},
				{
					"input":21,
					"interpolation":"LINEAR",
					"output":22
				},
				{
					"input":19,
					"interpolation":"STEP",
					"output":23
				},
				{
					"input":19,
					"interpolation":"STEP",
					"output":24
				},
				{
					"input":19,
					"interpolation":"STEP",
					"output":25
				},
				{
					"input":19,
					"interpolation":"STEP",
					"output":26
				},
				{
					"input":21,
					"interpolation":"LINEAR",
					"output":27
				},
				{
					"input":19,
					"interpolation":"STEP",
					"output":28
				},
				{
					"input":19,
					"interpolation":"STEP",
					"output":29
				}
			]
		},
		{
			"channels":[
				{
					"sampler":0,
					"target":{
						"node":2,
						"path":"translation"
					}
				},
				{
					"sampler":1,
					"target":{
						"node":2,
						"path":"rotation"
					}
				},
				{
					"sampler":2,
					"target":{
						"node":2,
						"path":"scale"
					}
				},
				{
					"sampler":3,
					"target":{
						"node":1,
						"path":"translation"
					}
				},
				{
					"sampler":4,
					"target":{
						"node":1,
						"path":"rotation"
					}
				},
				{
					"sampler":5,
					"target":{
						"node":1,
						"path":"scale"
					}
				},
				{
					"sampler":6,
					"target":{
						"node":0,
						"path":"translation"
					}
				},
				{
					"sampler":7,
					"target":{
						"node":0,
						"path":"rotation"
					}
				},
				{
					"sampler":8,
					"target":{
						"node":0,
						"path":"scale"
					}
				}
			],
			"name":"idle",
			"samplers":[
				{
					"input":30,
					"interpolation":"STEP",
					"output":31
				},
				{
					"input":30,
					"interpolation":"STEP",
					"output":32
				},
				{
					"input":30,
					"interpolation":"STEP",
					"output":33
				},
				{
					"input":30,
					"interpolation":"STEP",
					"output":34
				},
				{
					"input":35,
					"interpolation":"LINEAR",
					"output":36
				},
				{
					"input":30,
					"interpolation":"STEP",
					"output":37
				},
				{
					"input":30,
					"interpolation":"STEP",
					"output":38
				},
				{
					"input":30,
					"interpolation":"STEP",
					"output":39
				},
				{
					"input":30,
					"interpolation":"STEP",
					"output":40
				}
			]
		},
		{
			"channels":[
				{
					"sampler":0,
					"target":{
						"node":2,
						"path":"translation"
					}
				},
				{
					"sampler":1,
					"target":{
						"node":2,
						"path":"rotation"
					}
				},
				{
					"sampler":2,
					"target":{
						"node":2,
						"path":"scale"
					}
				},
				{
					"sampler":3,
					"target":{
						"node":1,
						"path":"translation"
					}
				},
				{
					"sampler":4,
					"target":{
						"node":1,
						"path":"rotation"
					}
				},
				{
					"sampler":5,
					"target":{
						"node":1,
						"path":"scale"
					}
				},
				{
					"sampler":6,
					"target":{
						"node":0,
						"path":"translation"
					}
				},
				{
					"sampler":7,
					"target":{
						"node":0,
						"path":"rotation"
					}
				},
				{
					"sampler":8,
					"target":{
						"node":0,
						"path":"scale"
					}
				}
			],
			"name":"walk",
			"samplers":[
				{
					"input":30,
					"interpolation":"STEP",
					"output":41
				},
				{
					"input":30,
					"interpolation":"STEP",
					"output":42
				},
				{
					"input":30,
					"interpolation":"STEP",
					"output":43
				},
				{
					"input":30,
					"interpolation":"STEP",
					"output":44
				},
				{
					"input":35,
					"interpolation":"LINEAR",
					"output":45
				},
				{
					"input":30,
					"interpolation":"STEP",
					"output":46
				},
				{
					"input":30,
					"interpolation":"STEP",
					"output":47
				},
				{
					"input":30,
					"interpolation":"STEP",
					"output":48
				},
				{
					"input":30,
					"interpolation":"STEP",
					"output":49
				}
			]
		}
	],
	"materials":[
		{
			"name":"hull",
			"normalTexture":{
				"index":0,
				"scale":0.800000011920929
			},
			"pbrMetallicRoughness":{
				"baseColorFactor":[
					0.07323895394802094,
					0.09462962299585342,
					0.05497173219919205,
					1
				],
				"metallicFactor":0.6000000238418579,
				"roughnessFactor":0.44999998807907104
			}
		},
		{
			"name":"dark",
			"normalTexture":{
				"index":1,
				"scale":0.6000000238418579
			},
			"pbrMetallicRoughness":{
				"baseColorFactor":[
					0.0134117491543293,
					0.0134117491543293,
					0.0134117491543293,
					1
				],
				"metallicFactor":0.5,
				"roughnessFactor":0.5
			}
		},
		{
			"emissiveFactor":[
				1,
				0.07323895394802094,
				0.03310476616024971
			],
			"extensions":{
				"KHR_materials_emissive_strength":{
					"emissiveStrength":4
				}
			},
			"name":"light",
			"pbrMetallicRoughness":{
				"baseColorFactor":[
					1,
					0.07323895394802094,
					0.03310476616024971,
					1
				],
				"metallicFactor":0,
				"roughnessFactor":0.20000000298023224
			}
		}
	],
	"meshes":[
		{
			"name":"magic_tank",
			"primitives":[
				{
					"attributes":{
						"POSITION":0,
						"NORMAL":1,
						"TEXCOORD_0":2,
						"JOINTS_0":3,
						"WEIGHTS_0":4
					},
					"indices":5,
					"material":0
				},
				{
					"attributes":{
						"POSITION":6,
						"NORMAL":7,
						"TEXCOORD_0":8,
						"JOINTS_0":9,
						"WEIGHTS_0":10
					},
					"indices":11,
					"material":1
				},
				{
					"attributes":{
						"POSITION":12,
						"NORMAL":13,
						"TEXCOORD_0":14,
						"JOINTS_0":15,
						"WEIGHTS_0":16
					},
					"indices":17,
					"material":2
				}
			]
		}
	],
	"textures":[
		{
			"sampler":0,
			"source":0
		},
		{
			"sampler":0,
			"source":0
		}
	],
	"images":[
		{
			"mimeType":"image/png",
			"name":"N_metal",
			"uri":"texturas/N_metal.png"
		}
	],
	"skins":[
		{
			"inverseBindMatrices":18,
			"joints":[
				2,
				1,
				0
			],
			"name":"magic_tank_rig"
		}
	],
	"accessors":[
		{
			"bufferView":0,
			"componentType":5126,
			"count":134,
			"max":[
				1.0499999523162842,
				1.9500000476837158,
				1.5
			],
			"min":[
				-1.0499999523162842,
				0.44999998807907104,
				-1.600000023841858
			],
			"type":"VEC3"
		},
		{
			"bufferView":1,
			"componentType":5126,
			"count":134,
			"type":"VEC3"
		},
		{
			"bufferView":2,
			"componentType":5126,
			"count":134,
			"type":"VEC2"
		},
		{
			"bufferView":3,
			"componentType":5121,
			"count":134,
			"type":"VEC4"
		},
		{
			"bufferView":4,
			"componentType":5126,
			"count":134,
			"type":"VEC4"
		},
		{
			"bufferView":5,
			"componentType":5123,
			"count":360,
			"type":"SCALAR"
		},
		{
			"bufferView":6,
			"componentType":5126,
			"count":802,
			"max":[
				1.3799999952316284,
				1.7799999713897705,
				1.649999976158142
			],
			"min":[
				-1.3799999952316284,
				0.06999999284744263,
				-2.5999999046325684
			],
			"type":"VEC3"
		},
		{
			"bufferView":7,
			"componentType":5126,
			"count":802,
			"type":"VEC3"
		},
		{
			"bufferView":8,
			"componentType":5126,
			"count":802,
			"type":"VEC2"
		},
		{
			"bufferView":9,
			"componentType":5121,
			"count":802,
			"type":"VEC4"
		},
		{
			"bufferView":10,
			"componentType":5126,
			"count":802,
			"type":"VEC4"
		},
		{
			"bufferView":11,
			"componentType":5123,
			"count":1944,
			"type":"SCALAR"
		},
		{
			"bufferView":12,
			"componentType":5126,
			"count":80,
			"max":[
				0.09510565549135208,
				1.8300000429153442,
				-0.6229366064071655
			],
			"min":[
				-0.09510565549135208,
				1.6699999570846558,
				-0.7370634078979492
			],
			"type":"VEC3"
		},
		{
			"bufferView":13,
			"componentType":5126,
			"count":80,
			"type":"VEC3"
		},
		{
			"bufferView":14,
			"componentType":5126,
			"count":80,
			"type":"VEC2"
		},
		{
			"bufferView":15,
			"componentType":5121,
			"count":80,
			"type":"VEC4"
		},
		{
			"bufferView":16,
			"componentType":5126,
			"count":80,
			"type":"VEC4"
		},
		{
			"bufferView":17,
			"componentType":5123,
			"count":240,
			"type":"SCALAR"
		},
		{
			"bufferView":18,
			"componentType":5126,
			"count":3,
			"type":"MAT4"
		},
		{
			"bufferView":19,
			"componentType":5126,
			"count":2,
			"max":[
				0.4
			],
			"min":[
				0
			],
			"type":"SCALAR"
		},
		{
			"bufferView":20,
			"componentType":5126,
			"count":2,
			"type":"VEC3"
		},
		{
			"bufferView":21,
			"componentType":5126,
			"count":13,
			"max":[
				0.4
			],
			"min":[
				0
			],
			"type":"SCALAR"
		},
		{
			"bufferView":22,
			"componentType":5126,
			"count":13,
			"type":"VEC4"
		},
		{
			"bufferView":23,
			"componentType":5126,
			"count":2,
			"type":"VEC3"
		},
		{
			"bufferView":24,
			"componentType":5126,
			"count":2,
			"type":"VEC3"
		},
		{
			"bufferView":25,
			"componentType":5126,
			"count":2,
			"type":"VEC4"
		},
		{
			"bufferView":26,
			"componentType":5126,
			"count":2,
			"type":"VEC3"
		},
		{
			"bufferView":27,
			"componentType":5126,
			"count":13,
			"type":"VEC3"
		},
		{
			"bufferView":28,
			"componentType":5126,
			"count":2,
			"type":"VEC4"
		},
		{
			"bufferView":29,
			"componentType":5126,
			"count":2,
			"type":"VEC3"
		},
		{
			"bufferView":30,
			"componentType":5126,
			"count":2,
			"max":[
				2
			],
			"min":[
				0
			],
			"type":"SCALAR"
		},
		{
			"bufferView":31,
			"componentType":5126,
			"count":2,
			"type":"VEC3"
		},
		{
			"bufferView":32,
			"componentType":5126,
			"count":2,
			"type":"VEC4"
		},
		{
			"bufferView":33,
			"componentType":5126,
			"count":2,
			"type":"VEC3"
		},
		{
			"bufferView":34,
			"componentType":5126,
			"count":2,
			"type":"VEC3"
		},
		{
			"bufferView":35,
			"componentType":5126,
			"count":61,
			"max":[
				2
			],
			"min":[
				0
			],
			"type":"SCALAR"
		},
		{
			"bufferView":36,
			"componentType":5126,
			"count":61,
			"type":"VEC4"
		},
		{
			"bufferView":37,
			"componentType":5126,
			"count":2,
			"type":"VEC3"
		},
		{
			"bufferView":38,
			"componentType":5126,
			"count":2,
			"type":"VEC3"
		},
		{
			"bufferView":39,
			"componentType":5126,
			"count":2,
			"type":"VEC4"
		},
		{
			"bufferView":40,
			"componentType":5126,
			"count":2,
			"type":"VEC3"
		},
		{
			"bufferView":41,
			"componentType":5126,
			"count":2,
			"type":"VEC3"
		},
		{
			"bufferView":42,
			"componentType":5126,
			"count":2,
			"type":"VEC4"
		},
		{
			"bufferView":43,
			"componentType":5126,
			"count":2,
			"type":"VEC3"
		},
		{
			"bufferView":44,
			"componentType":5126,
			"count":2,
			"type":"VEC3"
		},
		{
			"bufferView":45,
			"componentType":5126,
			"count":61,
			"type":"VEC4"
		},
		{
			"bufferView":46,
			"componentType":5126,
			"count":2,
			"type":"VEC3"
		},
		{
			"bufferView":47,
			"componentType":5126,
			"count":2,
			"type":"VEC3"
		},
		{
			"bufferView":48,
			"componentType":5126,
			"count":2,
			"type":"VEC4"
		},
		{
			"bufferView":49,
			"componentType":5126,
			"count":2,
			"type":"VEC3"
		}
	],
	"bufferViews":[
		{
			"buffer":0,
			"byteLength":1608,
			"byteOffset":0,
			"target":34962
		},
		{
			"buffer":0,
			"byteLength":1608,
			"byteOffset":1608,
			"target":34962
		},
		{
			"buffer":0,
			"byteLength":1072,
			"byteOffset":3216,
			"target":34962
		},
		{
			"buffer":0,
			"byteLength":536,
			"byteOffset":4288,
			"target":34962
		},
		{
			"buffer":0,
			"byteLength":2144,
			"byteOffset":4824,
			"target":34962
		},
		{
			"buffer":0,
			"byteLength":720,
			"byteOffset":6968,
			"target":34963
		},
		{
			"buffer":0,
			"byteLength":9624,
			"byteOffset":7688,
			"target":34962
		},
		{
			"buffer":0,
			"byteLength":9624,
			"byteOffset":17312,
			"target":34962
		},
		{
			"buffer":0,
			"byteLength":6416,
			"byteOffset":26936,
			"target":34962
		},
		{
			"buffer":0,
			"byteLength":3208,
			"byteOffset":33352,
			"target":34962
		},
		{
			"buffer":0,
			"byteLength":12832,
			"byteOffset":36560,
			"target":34962
		},
		{
			"buffer":0,
			"byteLength":3888,
			"byteOffset":49392,
			"target":34963
		},
		{
			"buffer":0,
			"byteLength":960,
			"byteOffset":53280,
			"target":34962
		},
		{
			"buffer":0,
			"byteLength":960,
			"byteOffset":54240,
			"target":34962
		},
		{
			"buffer":0,
			"byteLength":640,
			"byteOffset":55200,
			"target":34962
		},
		{
			"buffer":0,
			"byteLength":320,
			"byteOffset":55840,
			"target":34962
		},
		{
			"buffer":0,
			"byteLength":1280,
			"byteOffset":56160,
			"target":34962
		},
		{
			"buffer":0,
			"byteLength":480,
			"byteOffset":57440,
			"target":34963
		},
		{
			"buffer":0,
			"byteLength":192,
			"byteOffset":57920
		},
		{
			"buffer":0,
			"byteLength":8,
			"byteOffset":58112
		},
		{
			"buffer":0,
			"byteLength":24,
			"byteOffset":58120
		},
		{
			"buffer":0,
			"byteLength":52,
			"byteOffset":58144
		},
		{
			"buffer":0,
			"byteLength":208,
			"byteOffset":58196
		},
		{
			"buffer":0,
			"byteLength":24,
			"byteOffset":58404
		},
		{
			"buffer":0,
			"byteLength":24,
			"byteOffset":58428
		},
		{
			"buffer":0,
			"byteLength":32,
			"byteOffset":58452
		},
		{
			"buffer":0,
			"byteLength":24,
			"byteOffset":58484
		},
		{
			"buffer":0,
			"byteLength":156,
			"byteOffset":58508
		},
		{
			"buffer":0,
			"byteLength":32,
			"byteOffset":58664
		},
		{
			"buffer":0,
			"byteLength":24,
			"byteOffset":58696
		},
		{
			"buffer":0,
			"byteLength":8,
			"byteOffset":58720
		},
		{
			"buffer":0,
			"byteLength":24,
			"byteOffset":58728
		},
		{
			"buffer":0,
			"byteLength":32,
			"byteOffset":58752
		},
		{
			"buffer":0,
			"byteLength":24,
			"byteOffset":58784
		},
		{
			"buffer":0,
			"byteLength":24,
			"byteOffset":58808
		},
		{
			"buffer":0,
			"byteLength":244,
			"byteOffset":58832
		},
		{
			"buffer":0,
			"byteLength":976,
			"byteOffset":59076
		},
		{
			"buffer":0,
			"byteLength":24,
			"byteOffset":60052
		},
		{
			"buffer":0,
			"byteLength":24,
			"byteOffset":60076
		},
		{
			"buffer":0,
			"byteLength":32,
			"byteOffset":60100
		},
		{
			"buffer":0,
			"byteLength":24,
			"byteOffset":60132
		},
		{
			"buffer":0,
			"byteLength":24,
			"byteOffset":60156
		},
		{
			"buffer":0,
			"byteLength":32,
			"byteOffset":60180
		},
		{
			"buffer":0,
			"byteLength":24,
			"byteOffset":60212
		},
		{
			"buffer":0,
			"byteLength":24,
			"byteOffset":60236
		},
		{
			"buffer":0,
			"byteLength":976,
			"byteOffset":60260
		},
		{
			"buffer":0,
			"byteLength":24,
			"byteOffset":61236
		},
		{
			"buffer":0,
			"byteLength":24,
			"byteOffset":61260
		},
		{
			"buffer":0,
			"byteLength":32,
			"byteOffset":61284
		},
		{
			"buffer":0,
			"byteLength":24,
			"byteOffset":61316
		}
	],
	"samplers":[
		{
			"magFilter":9729,
			"minFilter":9987
		}
	],
	"buffers":[
		{
			"byteLength":61340,
			"uri":"magic_tank.bin"
		}
	]
}
