{
	"asset":{
		"generator":"Khronos glTF Blender I/O v4.2.57",
		"version":"2.0"
	},
	"extensionsUsed":[
		"KHR_materials_clearcoat",
		"KHR_materials_sheen"
	],
	"scene":0,
	"scenes":[
		{
			"name":"Scene",
			"nodes":[
				18
			]
		}
	],
	"nodes":[
		{
			"name":"head",
			"translation":[
				0,
				0.09999990463256836,
				0
			]
		},
		{
			"children":[
				0
			],
			"name":"neck",
			"translation":[
				0,
				0.21000003814697266,
				0
			]
		},
		{
			"name":"hand.R",
			"rotation":[
				-0.002364917891100049,
				-0.016494933515787125,
				0.017742689698934555,
				0.9997037053108215
			],
			"scale":[
				0.9999998211860657,
				1,
				1
			],
			"translation":[
				9.42964106798172e-09,
				0.25139346718788147,
				-3.725290298461914e-09
			]
		},
		{
			"children":[
				2
			],
			"name":"forearm.R",
			"rotation":[
				0.050181806087493896,
				-0.05601689964532852,
				0.06427944451570511,
				0.9950940012931824
			],
			"scale":[
				1,
				1,
				1.0000001192092896
			],
			"translation":[
				-7.450580596923828e-09,
				0.2748163044452667,
				-5.820766091346741e-10
			]
		},
		{
			"children":[
				3
			],
			"name":"upper_arm.R",
			"rotation":[
				0.9912448525428772,
				0.09311600029468536,
				0.09311702847480774,
				0.009607496671378613
			],
			"scale":[
				0.999993085861206,
				0.9999995827674866,
				0.9999997019767761
			],
			"translation":[
				0.1728000044822693,
				0.15999996662139893,
				0
			]
		},
		{
			"name":"hand.L",
			"rotation":[
				-0.002364917891100049,
				0.016494933515787125,
				-0.017742689698934555,
				0.9997037053108215
			],
			"scale":[
				0.9999998211860657,
				1,
				1
			],
			"translation":[
				-9.42964106798172e-09,
				0.25139346718788147,
				-3.725290298461914e-09
			]
		},
		{
			"children":[
				5
			],
			"name":"forearm.L",
			"rotation":[
				0.050181806087493896,
				0.05601689964532852,
				-0.06427944451570511,
				0.9950940012931824
			],
			"scale":[
				1,
				1,
				1.0000001192092896
			],
			"translation":[
				7.450580596923828e-09,
				0.2748163044452667,
				-5.820766091346741e-10
			]
		},
		{
			"children":[
				6
			],
			"name":"upper_arm.L",
			"rotation":[
				0.9912448525428772,
				-0.09311600029468536,
				-0.09311702847480774,
				0.009607496671378613
			],
			"scale":[
				0.999993085861206,
				0.9999995827674866,
				0.9999997019767761
			],
			"translation":[
				-0.1728000044822693,
				0.15999996662139893,
				0
			]
		},
		{
			"children":[
				1,
				4,
				7
			],
			"name":"chest",
			"translation":[
				0,
				0.16999995708465576,
				0
			]
		},
		{
			"children":[
				8
			],
			"name":"spine",
			"translation":[
				0,
				0.15000003576278687,
				0
			]
		},
		{
			"name":"foot.R",
			"rotation":[
				0.5914181470870972,
				-1.4707277617986847e-09,
				3.5683520027696147e-10,
				0.8063650727272034
			],
			"scale":[
				1,
				1,
				0.9999999403953552
			],
			"translation":[
				7.387953804283143e-09,
				0.41058987379074097,
				-8.435927512095986e-10
			]
		},
		{
			"children":[
				10
			],
			"name":"shin.R",
			"rotation":[
				-0.041478272527456284,
				-0.007892257533967495,
				0.007480104919523001,
				0.999080240726471
			],
			"scale":[
				0.9999999403953552,
				1,
				0.9999998211860657
			],
			"translation":[
				-1.3387762010097504e-09,
				0.4102255702018738,
				-2.3283064365386963e-10
			]
		},
		{
			"children":[
				11
			],
			"name":"thigh.R",
			"rotation":[
				-0.9998330473899841,
				-0.007688934449106455,
				-0.00768899405375123,
				0.014687671326100826
			],
			"scale":[
				0.9999999403953552,
				0.9999998211860657,
				1.0000001192092896
			],
			"translation":[
				0.07360000163316727,
				-0.019999980926513672,
				0
			]
		},
		{
			"name":"foot.L",
			"rotation":[
				0.5914181470870972,
				1.4707277617986847e-09,
				-3.5683520027696147e-10,
				0.8063650727272034
			],
			"scale":[
				1,
				1,
				0.9999999403953552
			],
			"translation":[
				-7.387953804283143e-09,
				0.41058987379074097,
				-8.435927512095986e-10
			]
		},
		{
			"children":[
				13
			],
			"name":"shin.L",
			"rotation":[
				-0.041478272527456284,
				0.007892257533967495,
				-0.007480104919523001,
				0.999080240726471
			],
			"scale":[
				0.9999999403953552,
				1,
				0.9999998211860657
			],
			"translation":[
				1.3387762010097504e-09,
				0.4102255702018738,
				-2.3283064365386963e-10
			]
		},
		{
			"children":[
				14
			],
			"name":"thigh.L",
			"rotation":[
				-0.9998330473899841,
				0.007688934449106455,
				0.00768899405375123,
				0.014687671326100826
			],
			"scale":[
				0.9999999403953552,
				0.9999998211860657,
				1.0000001192092896
			],
			"translation":[
				-0.07360000163316727,
				-0.019999980926513672,
				0
			]
		},
		{
			"children":[
				9,
				12,
				15
			],
			"name":"hips",
			"translation":[
				0,
				0.9300000071525574,
				0
			]
		},
		{
			"mesh":0,
			"name":"marionette",
			"skin":0
		},
		{
			"children":[
				17,
				16
			],
			"name":"marionette_rig"
		}
	],
	"animations":[
		{
			"channels":[
				{
					"sampler":0,
					"target":{
						"node":16,
						"path":"translation"
					}
				},
				{
					"sampler":1,
					"target":{
						"node":16,
						"path":"rotation"
					}
				},
				{
					"sampler":2,
					"target":{
						"node":16,
						"path":"scale"
					}
				},
				{
					"sampler":3,
					"target":{
						"node":9,
						"path":"translation"
					}
				},
				{
					"sampler":4,
					"target":{
						"node":9,
						"path":"rotation"
					}
				},
				{
					"sampler":5,
					"target":{
						"node":9,
						"path":"scale"
					}
				},
				{
					"sampler":6,
					"target":{
						"node":8,
						"path":"translation"
					}
				},
				{
					"sampler":7,
					"target":{
						"node":8,
						"path":"rotation"
					}
				},
				{
					"sampler":8,
					"target":{
						"node":8,
						"path":"scale"
					}
				},
				{
					"sampler":9,
					"target":{
						"node":1,
						"path":"translation"
					}
				},
				{
					"sampler":10,
					"target":{
						"node":1,
						"path":"rotation"
					}
				},
				{
					"sampler":11,
					"target":{
						"node":1,
						"path":"scale"
					}
				},
				{
					"sampler":12,
					"target":{
						"node":0,
						"path":"translation"
					}
				},
				{
					"sampler":13,
					"target":{
						"node":0,
						"path":"rotation"
					}
				},
				{
					"sampler":14,
					"target":{
						"node":0,
						"path":"scale"
					}
				},
				{
					"sampler":15,
					"target":{
						"node":4,
						"path":"translation"
					}
				},
				{
					"sampler":16,
					"target":{
						"node":4,
						"path":"rotation"
					}
				},
				{
					"sampler":17,
					"target":{
						"node":4,
						"path":"scale"
					}
				},
				{
					"sampler":18,
					"target":{
						"node":3,
						"path":"translation"
					}
				},
				{
					"sampler":19,
					"target":{
						"node":3,
						"path":"rotation"
					}
				},
				{
					"sampler":20,
					"target":{
						"node":3,
						"path":"scale"
					}
				},
				{
					"sampler":21,
					"target":{
						"node":2,
						"path":"translation"
					}
				},
				{
					"sampler":22,
					"target":{
						"node":2,
						"path":"rotation"
					}
				},
				{
					"sampler":23,
					"target":{
						"node":2,
						"path":"scale"
					}
				},
				{
					"sampler":24,
					"target":{
						"node":7,
						"path":"translation"
					}
				},
				{
					"sampler":25,
					"target":{
						"node":7,
						"path":"rotation"
					}
				},
				{
					"sampler":26,
					"target":{
						"node":7,
						"path":"scale"
					}
				},
				{
					"sampler":27,
					"target":{
						"node":6,
						"path":"translation"
					}
				},
				{
					"sampler":28,
					"target":{
						"node":6,
						"path":"rotation"
					}
				},
				{
					"sampler":29,
					"target":{
						"node":6,
						"path":"scale"
					}
				},
				{
					"sampler":30,
					"target":{
						"node":5,
						"path":"translation"
					}
				},
				{
					"sampler":31,
					"target":{
						"node":5,
						"path":"rotation"
					}
				},
				{
					"sampler":32,
					"target":{
						"node":5,
						"path":"scale"
					}
				},
				{
					"sampler":33,
					"target":{
						"node":12,
						"path":"translation"
					}
				},
				{
					"sampler":34,
					"target":{
						"node":12,
						"path":"rotation"
					}
				},
				{
					"sampler":35,
					"target":{
						"node":12,
						"path":"scale"
					}
				},
				{
					"sampler":36,
					"target":{
						"node":11,
						"path":"translation"
					}
				},
				{
					"sampler":37,
					"target":{
						"node":11,
						"path":"rotation"
					}
				},
				{
					"sampler":38,
					"target":{
						"node":11,
						"path":"scale"
					}
				},
				{
					"sampler":39,
					"target":{
						"node":10,
						"path":"translation"
					}
				},
				{
					"sampler":40,
					"target":{
						"node":10,
						"path":"rotation"
					}
				},
				{
					"sampler":41,
					"target":{
						"node":10,
						"path":"scale"
					}
				},
				{
					"sampler":42,
					"target":{
						"node":15,
						"path":"translation"
					}
				},
				{
					"sampler":43,
					"target":{
						"node":15,
						"path":"rotation"
					}
				},
				{
					"sampler":44,
					"target":{
						"node":15,
						"path":"scale"
					}
				},
				{
					"sampler":45,
					"target":{
						"node":14,
						"path":"translation"
					}
				},
				{
					"sampler":46,
					"target":{
						"node":14,
						"path":"rotation"
					}
				},
				{
					"sampler":47,
					"target":{
						"node":14,
						"path":"scale"
					}
				},
				{
					"sampler":48,
					"target":{
						"node":13,
						"path":"translation"
					}
				},
				{
					"sampler":49,
					"target":{
						"node":13,
						"path":"rotation"
					}
				},
				{
					"sampler":50,
					"target":{
						"node":13,
						"path":"scale"
					}
				}
			],
			"name":"attack",
			"samplers":[
				{
					"input":43,
					"interpolation":"STEP",
					"output":44
				},
				{
					"input":43,
					"interpolation":"STEP",
					"output":45
				},
				{
					"input":43,
					"interpolation":"STEP",
					"output":46
				},
				{
					"input":43,
					"interpolation":"STEP",
					"output":47
				},
				{
					"input":43,
					"interpolation":"STEP",
					"output":48
				},
				{
					"input":43,
					"interpolation":"STEP",
					"output":49
				},
				{
					"input":43,
					"interpolation":"STEP",
					"output":50
				},
				{
					"input":51,
					"interpolation":"LINEAR",
					"output":52
				},
				{
					"input":43,
					"interpolation":"STEP",
					"output":53
				},
				{
					"input":43,
					"interpolation":"STEP",
					"output":54
				},
				{
					"input":43,
					"interpolation":"STEP",
					"output":55
				},
				{
					"input":43,
					"interpolation":"STEP",
					"output":56
				},
				{
					"input":43,
					"interpolation":"STEP",
					"output":57
				},
				{
					"input":43,
					"interpolation":"STEP",
					"output":58
				},
				{
					"input":43,
					"interpolation":"STEP",
					"output":59
				},
				{
					"input":43,
					"interpolation":"STEP",
					"output":60
				},
				{
					"input":51,
					"interpolation":"LINEAR",
					"output":61
				},
				{
					"input":43,
					"interpolation":"STEP",
					"output":62
				},
				{
					"input":43,
					"interpolation":"STEP",
					"output":63
				},
				{
					"input":51,
					"interpolation":"LINEAR",
					"output":64
				},
				{
					"input":43,
					"interpolation":"STEP",
					"output":65
				},
				{
					"input":43,
					"interpolation":"STEP",
					"output":66
				},
				{
					"input":43,
					"interpolation":"STEP",
					"output":67
				},
				{
					"input":43,
					"interpolation":"STEP",
					"output":68
				},
				{
					"input":43,
					"interpolation":"STEP",
					"output":69
				},
				{
					"input":51,
					"interpolation":"LINEAR",
					"output":70
				},
				{
					"input":43,
					"interpolation":"STEP",
					"output":71
				},
				{
					"input":43,
					"interpolation":"STEP",
					"output":72
				},
				{
					"input":43,
					"interpolation":"STEP",
					"output":73
				},
				{
					"input":43,
					"interpolation":"STEP",
					"output":74
				},
				{
					"input":43,
					"interpolation":"STEP",
					"output":75
				},
				{
					"input":43,
					"interpolation":"STEP",
					"output":76
				},
				{
					"input":43,
					"interpolation":"STEP",
					"output":77
				},
				{
					"input":43,
					"interpolation":"STEP",
					"output":78
				},
				{
					"input":51,
					"interpolation":"LINEAR",
					"output":79
				},
				{
					"input":43,
					"interpolation":"STEP",
					"output":80
				},
				{
					"input":43,
					"interpolation":"LINEAR",
					"output":81
				},
				{
					"input":43,
					"interpolation":"LINEAR",
					"output":82
				},
				{
					"input":43,
					"interpolation":"STEP",
					"output":83
				},
				{
					"input":43,
					"interpolation":"LINEAR",
					"output":84
				},
				{
					"input":43,
					"interpolation":"LINEAR",
					"output":85
				},
				{
					"input":43,
					"interpolation":"STEP",
					"output":86
				},
				{
					"input":43,
					"interpolation":"STEP",
					"output":87
				},
				{
					"input":51,
					"interpolation":"LINEAR",
					"output":88
				},
				{
					"input":43,
					"interpolation":"STEP",
					"output":89
				},
				{
					"input":43,
					"interpolation":"LINEAR",
					"output":90
				},
				{
					"input":43,
					"interpolation":"LINEAR",
					"output":91
				},
				{
					"input":43,
					"interpolation":"STEP",
					"output":92
				},
				{
					"input":43,
					"interpolation":"LINEAR",
					"output":93
				},
				{
					"input":43,
					"interpolation":"LINEAR",
					"output":94
				},
				{
					"input":43,
					"interpolation":"STEP",
					"output":95
				}
			]
		},
		{
			"channels":[
				{
					"sampler":0,
					"target":{
						"node":16,
						"path":"translation"
					}
				},
				{
					"sampler":1,
					"target":{
						"node":16,
						"path":"rotation"
					}
				},
				{
					"sampler":2,
					"target":{
						"node":16,
						"path":"scale"
					}
				},
				{
					"sampler":3,
					"target":{
						"node":9,
						"path":"translation"
					}
				},
				{
					"sampler":4,
					"target":{
						"node":9,
						"path":"rotation"
					}
				},
				{
					"sampler":5,
					"target":{
						"node":9,
						"path":"scale"
					}
				},
				{
					"sampler":6,
					"target":{
						"node":8,
						"path":"translation"
					}
				},
				{
					"sampler":7,
					"target":{
						"node":8,
						"path":"rotation"
					}
				},
				{
					"sampler":8,
					"target":{
						"node":8,
						"path":"scale"
					}
				},
				{
					"sampler":9,
					"target":{
						"node":1,
						"path":"translation"
					}
				},
				{
					"sampler":10,
					"target":{
						"node":1,
						"path":"rotation"
					}
				},
				{
					"sampler":11,
					"target":{
						"node":1,
						"path":"scale"
					}
				},
				{
					"sampler":12,
					"target":{
						"node":0,
						"path":"translation"
					}
				},
				{
					"sampler":13,
					"target":{
						"node":0,
						"path":"rotation"
					}
				},
				{
					"sampler":14,
					"target":{
						"node":0,
						"path":"scale"
					}
				},
				{
					"sampler":15,
					"target":{
						"node":4,
						"path":"translation"
					}
				},
				{
					"sampler":16,
					"target":{
						"node":4,
						"path":"rotation"
					}
				},
				{
					"sampler":17,
					"target":{
						"node":4,
						"path":"scale"
					}
				},
				{
					"sampler":18,
					"target":{
						"node":3,
						"path":"translation"
					}
				},
				{
					"sampler":19,
					"target":{
						"node":3,
						"path":"rotation"
					}
				},
				{
					"sampler":20,
					"target":{
						"node":3,
						"path":"scale"
					}
				},
				{
					"sampler":21,
					"target":{
						"node":2,
						"path":"translation"
					}
				},
				{
					"sampler":22,
					"target":{
						"node":2,
						"path":"rotation"
					}
				},
				{
					"sampler":23,
					"target":{
						"node":2,
						"path":"scale"
					}
				},
				{
					"sampler":24,
					"target":{
						"node":7,
						"path":"translation"
					}
				},
				{
					"sampler":25,
					"target":{
						"node":7,
						"path":"rotation"
					}
				},
				{
					"sampler":26,
					"target":{
						"node":7,
						"path":"scale"
					}
				},
				{
					"sampler":27,
					"target":{
						"node":6,
						"path":"translation"
					}
				},
				{
					"sampler":28,
					"target":{
						"node":6,
						"path":"rotation"
					}
				},
				{
					"sampler":29,
					"target":{
						"node":6,
						"path":"scale"
					}
				},
				{
					"sampler":30,
					"target":{
						"node":5,
						"path":"translation"
					}
				},
				{
					"sampler":31,
					"target":{
						"node":5,
						"path":"rotation"
					}
				},
				{
					"sampler":32,
					"target":{
						"node":5,
						"path":"scale"
					}
				},
				{
					"sampler":33,
					"target":{
						"node":12,
						"path":"translation"
					}
				},
				{
					"sampler":34,
					"target":{
						"node":12,
						"path":"rotation"
					}
				},
				{
					"sampler":35,
					"target":{
						"node":12,
						"path":"scale"
					}
				},
				{
					"sampler":36,
					"target":{
						"node":11,
						"path":"translation"
					}
				},
				{
					"sampler":37,
					"target":{
						"node":11,
						"path":"rotation"
					}
				},
				{
					"sampler":38,
					"target":{
						"node":11,
						"path":"scale"
					}
				},
				{
					"sampler":39,
					"target":{
						"node":10,
						"path":"translation"
					}
				},
				{
					"sampler":40,
					"target":{
						"node":10,
						"path":"rotation"
					}
				},
				{
					"sampler":41,
					"target":{
						"node":10,
						"path":"scale"
					}
				},
				{
					"sampler":42,
					"target":{
						"node":15,
						"path":"translation"
					}
				},
				{
					"sampler":43,
					"target":{
						"node":15,
						"path":"rotation"
					}
				},
				{
					"sampler":44,
					"target":{
						"node":15,
						"path":"scale"
					}
				},
				{
					"sampler":45,
					"target":{
						"node":14,
						"path":"translation"
					}
				},
				{
					"sampler":46,
					"target":{
						"node":14,
						"path":"rotation"
					}
				},
				{
					"sampler":47,
					"target":{
						"node":14,
						"path":"scale"
					}
				},
				{
					"sampler":48,
					"target":{
						"node":13,
						"path":"translation"
					}
				},
				{
					"sampler":49,
					"target":{
						"node":13,
						"path":"rotation"
					}
				},
				{
					"sampler":50,
					"target":{
						"node":13,
						"path":"scale"
					}
				}
			],
			"name":"idle",
			"samplers":[
				{
					"input":96,
					"interpolation":"LINEAR",
					"output":97
				},
				{
					"input":98,
					"interpolation":"STEP",
					"output":99
				},
				{
					"input":98,
					"interpolation":"STEP",
					"output":100
				},
				{
					"input":98,
					"interpolation":"STEP",
					"output":101
				},
				{
					"input":98,
					"interpolation":"STEP",
					"output":102
				},
				{
					"input":98,
					"interpolation":"STEP",
					"output":103
				},
				{
					"input":98,
					"interpolation":"STEP",
					"output":104
				},
				{
					"input":96,
					"interpolation":"LINEAR",
					"output":105
				},
				{
					"input":98,
					"interpolation":"STEP",
					"output":106
				},
				{
					"input":98,
					"interpolation":"STEP",
					"output":107
				},
				{
					"input":98,
					"interpolation":"STEP",
					"output":108
				},
				{
					"input":98,
					"interpolation":"STEP",
					"output":109
				},
				{
					"input":98,
					"interpolation":"STEP",
					"output":110
				},
				{
					"input":96,
					"interpolation":"LINEAR",
					"output":111
				},
				{
					"input":98,
					"interpolation":"STEP",
					"output":112
				},
				{
					"input":98,
					"interpolation":"STEP",
					"output":113
				},
				{
					"input":96,
					"interpolation":"LINEAR",
					"output":114
				},
				{
					"input":98,
					"interpolation":"STEP",
					"output":115
				},
				{
					"input":98,
					"interpolation":"STEP",
					"output":116
				},
				{
					"input":98,
					"interpolation":"STEP",
					"output":117
				},
				{
					"input":98,
					"interpolation":"STEP",
					"output":118
				},
				{
					"input":98,
					"interpolation":"STEP",
					"output":119
				},
				{
					"input":98,
					"interpolation":"STEP",
					"output":120
				},
				{
					"input":98,
					"interpolation":"STEP",
					"output":121
				},
				{
					"input":98,
					"interpolation":"STEP",
					"output":122
				},
				{
					"input":96,
					"interpolation":"LINEAR",
					"output":123
				},
				{
					"input":98,
					"interpolation":"STEP",
					"output":124
				},
				{
					"input":98,
					"interpolation":"STEP",
					"output":125
				},
				{
					"input":98,
					"interpolation":"STEP",
					"output":126
				},
				{
					"input":98,
					"interpolation":"STEP",
					"output":127
				},
				{
					"input":98,
					"interpolation":"STEP",
					"output":128
				},
				{
					"input":98,
					"interpolation":"STEP",
					"output":129
				},
				{
					"input":98,
					"interpolation":"STEP",
					"output":130
				},
				{
					"input":98,
					"interpolation":"STEP",
					"output":131
				},
				{
					"input":98,
					"interpolation":"STEP",
					"output":132
				},
				{
					"input":98,
					"interpolation":"STEP",
					"output":133
				},
				{
					"input":98,
					"interpolation":"STEP",
					"output":134
				},
				{
					"input":98,
					"interpolation":"STEP",
					"output":135
				},
				{
					"input":98,
					"interpolation":"STEP",
					"output":136
				},
				{
					"input":98,
					"interpolation":"STEP",
					"output":137
				},
				{
					"input":98,
					"interpolation":"STEP",
					"output":138
				},
				{
					"input":98,
					"interpolation":"STEP",
					"output":139
				},
				{
					"input":98,
					"interpolation":"STEP",
					"output":140
				},
				{
					"input":98,
					"interpolation":"STEP",
					"output":141
				},
				{
					"input":98,
					"interpolation":"STEP",
					"output":142
				},
				{
					"input":98,
					"interpolation":"STEP",
					"output":143
				},
				{
					"input":98,
					"interpolation":"STEP",
					"output":144
				},
				{
					"input":98,
					"interpolation":"STEP",
					"output":145
				},
				{
					"input":98,
					"interpolation":"STEP",
					"output":146
				},
				{
					"input":98,
					"interpolation":"STEP",
					"output":147
				},
				{
					"input":98,
					"interpolation":"STEP",
					"output":148
				}
			]
		},
		{
			"channels":[
				{
					"sampler":0,
					"target":{
						"node":16,
						"path":"translation"
					}
				},
				{
					"sampler":1,
					"target":{
						"node":16,
						"path":"rotation"
					}
				},
				{
					"sampler":2,
					"target":{
						"node":16,
						"path":"scale"
					}
				},
				{
					"sampler":3,
					"target":{
						"node":9,
						"path":"translation"
					}
				},
				{
					"sampler":4,
					"target":{
						"node":9,
						"path":"rotation"
					}
				},
				{
					"sampler":5,
					"target":{
						"node":9,
						"path":"scale"
					}
				},
				{
					"sampler":6,
					"target":{
						"node":8,
						"path":"translation"
					}
				},
				{
					"sampler":7,
					"target":{
						"node":8,
						"path":"rotation"
					}
				},
				{
					"sampler":8,
					"target":{
						"node":8,
						"path":"scale"
					}
				},
				{
					"sampler":9,
					"target":{
						"node":1,
						"path":"translation"
					}
				},
				{
					"sampler":10,
					"target":{
						"node":1,
						"path":"rotation"
					}
				},
				{
					"sampler":11,
					"target":{
						"node":1,
						"path":"scale"
					}
				},
				{
					"sampler":12,
					"target":{
						"node":0,
						"path":"translation"
					}
				},
				{
					"sampler":13,
					"target":{
						"node":0,
						"path":"rotation"
					}
				},
				{
					"sampler":14,
					"target":{
						"node":0,
						"path":"scale"
					}
				},
				{
					"sampler":15,
					"target":{
						"node":4,
						"path":"translation"
					}
				},
				{
					"sampler":16,
					"target":{
						"node":4,
						"path":"rotation"
					}
				},
				{
					"sampler":17,
					"target":{
						"node":4,
						"path":"scale"
					}
				},
				{
					"sampler":18,
					"target":{
						"node":3,
						"path":"translation"
					}
				},
				{
					"sampler":19,
					"target":{
						"node":3,
						"path":"rotation"
					}
				},
				{
					"sampler":20,
					"target":{
						"node":3,
						"path":"scale"
					}
				},
				{
					"sampler":21,
					"target":{
						"node":2,
						"path":"translation"
					}
				},
				{
					"sampler":22,
					"target":{
						"node":2,
						"path":"rotation"
					}
				},
				{
					"sampler":23,
					"target":{
						"node":2,
						"path":"scale"
					}
				},
				{
					"sampler":24,
					"target":{
						"node":7,
						"path":"translation"
					}
				},
				{
					"sampler":25,
					"target":{
						"node":7,
						"path":"rotation"
					}
				},
				{
					"sampler":26,
					"target":{
						"node":7,
						"path":"scale"
					}
				},
				{
					"sampler":27,
					"target":{
						"node":6,
						"path":"translation"
					}
				},
				{
					"sampler":28,
					"target":{
						"node":6,
						"path":"rotation"
					}
				},
				{
					"sampler":29,
					"target":{
						"node":6,
						"path":"scale"
					}
				},
				{
					"sampler":30,
					"target":{
						"node":5,
						"path":"translation"
					}
				},
				{
					"sampler":31,
					"target":{
						"node":5,
						"path":"rotation"
					}
				},
				{
					"sampler":32,
					"target":{
						"node":5,
						"path":"scale"
					}
				},
				{
					"sampler":33,
					"target":{
						"node":12,
						"path":"translation"
					}
				},
				{
					"sampler":34,
					"target":{
						"node":12,
						"path":"rotation"
					}
				},
				{
					"sampler":35,
					"target":{
						"node":12,
						"path":"scale"
					}
				},
				{
					"sampler":36,
					"target":{
						"node":11,
						"path":"translation"
					}
				},
				{
					"sampler":37,
					"target":{
						"node":11,
						"path":"rotation"
					}
				},
				{
					"sampler":38,
					"target":{
						"node":11,
						"path":"scale"
					}
				},
				{
					"sampler":39,
					"target":{
						"node":10,
						"path":"translation"
					}
				},
				{
					"sampler":40,
					"target":{
						"node":10,
						"path":"rotation"
					}
				},
				{
					"sampler":41,
					"target":{
						"node":10,
						"path":"scale"
					}
				},
				{
					"sampler":42,
					"target":{
						"node":15,
						"path":"translation"
					}
				},
				{
					"sampler":43,
					"target":{
						"node":15,
						"path":"rotation"
					}
				},
				{
					"sampler":44,
					"target":{
						"node":15,
						"path":"scale"
					}
				},
				{
					"sampler":45,
					"target":{
						"node":14,
						"path":"translation"
					}
				},
				{
					"sampler":46,
					"target":{
						"node":14,
						"path":"rotation"
					}
				},
				{
					"sampler":47,
					"target":{
						"node":14,
						"path":"scale"
					}
				},
				{
					"sampler":48,
					"target":{
						"node":13,
						"path":"translation"
					}
				},
				{
					"sampler":49,
					"target":{
						"node":13,
						"path":"rotation"
					}
				},
				{
					"sampler":50,
					"target":{
						"node":13,
						"path":"scale"
					}
				}
			],
			"name":"walk",
			"samplers":[
				{
					"input":149,
					"interpolation":"LINEAR",
					"output":150
				},
				{
					"input":149,
					"interpolation":"LINEAR",
					"output":151
				},
				{
					"input":152,
					"interpolation":"STEP",
					"output":153
				},
				{
					"input":152,
					"interpolation":"STEP",
					"output":154
				},
				{
					"input":152,
					"interpolation":"STEP",
					"output":155
				},
				{
					"input":152,
					"interpolation":"STEP",
					"output":156
				},
				{
					"input":152,
					"interpolation":"STEP",
					"output":157
				},
				{
					"input":149,
					"interpolation":"LINEAR",
					"output":158
				},
				{
					"input":152,
					"interpolation":"STEP",
					"output":159
				},
				{
					"input":152,
					"interpolation":"STEP",
					"output":160
				},
				{
					"input":152,
					"interpolation":"STEP",
					"output":161
				},
				{
					"input":152,
					"interpolation":"STEP",
					"output":162
				},
				{
					"input":152,
					"interpolation":"STEP",
					"output":163
				},
				{
					"input":152,
					"interpolation":"STEP",
					"output":164
				},
				{
					"input":152,
					"interpolation":"STEP",
					"output":165
				},
				{
					"input":152,
					"interpolation":"STEP",
					"output":166
				},
				{
					"input":149,
					"interpolation":"LINEAR",
					"output":167
				},
				{
					"input":152,
					"interpolation":"STEP",
					"output":168
				},
				{
					"input":152,
					"interpolation":"STEP",
					"output":169
				},
				{
					"input":152,
					"interpolation":"STEP",
					"output":170
				},
				{
					"input":152,
					"interpolation":"STEP",
					"output":171
				},
				{
					"input":152,
					"interpolation":"STEP",
					"output":172
				},
				{
					"input":152,
					"interpolation":"STEP",
					"output":173
				},
				{
					"input":152,
					"interpolation":"STEP",
					"output":174
				},
				{
					"input":152,
					"interpolation":"STEP",
					"output":175
				},
				{
					"input":149,
					"interpolation":"LINEAR",
					"output":176
				},
				{
					"input":152,
					"interpolation":"STEP",
					"output":177
				},
				{
					"input":152,
					"interpolation":"STEP",
					"output":178
				},
				{
					"input":152,
					"interpolation":"STEP",
					"output":179
				},
				{
					"input":152,
					"interpolation":"STEP",
					"output":180
				},
				{
					"input":152,
					"interpolation":"STEP",
					"output":181
				},
				{
					"input":152,
					"interpolation":"STEP",
					"output":182
				},
				{
					"input":152,
					"interpolation":"STEP",
					"output":183
				},
				{
					"input":152,
					"interpolation":"STEP",
					"output":184
				},
				{
					"input":149,
					"interpolation":"LINEAR",
					"output":185
				},
				{
					"input":152,
					"interpolation":"STEP",
					"output":186
				},
				{
					"input":152,
					"interpolation":"STEP",
					"output":187
				},
				{
					"input":149,
					"interpolation":"LINEAR",
					"output":188
				},
				{
					"input":152,
					"interpolation":"STEP",
					"output":189
				},
				{
					"input":152,
					"interpolation":"STEP",
					"output":190
				},
				{
					"input":149,
					"interpolation":"LINEAR",
					"output":191
				},
				{
					"input":152,
					"interpolation":"STEP",
					"output":192
				},
				{
					"input":152,
					"interpolation":"STEP",
					"output":193
				},
				{
					"input":149,
					"interpolation":"LINEAR",
					"output":194
				},
				{
					"input":152,
					"interpolation":"STEP",
					"output":195
				},
				{
					"input":152,
					"interpolation":"STEP",
					"output":196
				},
				{
					"input":149,
					"interpolation":"LINEAR",
					"output":197
				},
				{
					"input":152,
					"interpolation":"STEP",
					"output":198
				},
				{
					"input":152,
					"interpolation":"STEP",
					"output":199
				},
				{
					"input":149,
					"interpolation":"LINEAR",
					"output":200
				},
				{
					"input":152,
					"interpolation":"STEP",
					"output":201
				}
			]
		}
	],
	"materials":[
		{
			"name":"skin",
			"normalTexture":{
				"index":0,
				"scale":0.4000000059604645
			},
			"pbrMetallicRoughness":{
				"baseColorFactor":[
					0.6920710802078247,
					0.6382831931114197,
					0.6038273572921753,
					1
				],
				"metallicFactor":0,
				"roughnessFactor":0.550000011920929
			}
		},
		{
			"extensions":{
				"KHR_materials_sheen":{
					"sheenColorFactor":[
						1.0,
						1.0,
						1.0
					],
					"sheenRoughnessFactor":0.5
				}
			},
			"name":"outfit",
			"normalTexture":{
				"index":1,
				"scale":0.6000000238418579
			},
			"pbrMetallicRoughness":{
				"baseColorFactor":[
					0.17064493894577026,
					0.03310476616024971,
					0.21404114365577698,
					1
				],
				"metallicFactor":0,
				"roughnessFactor":0.75
			}
		},
		{
			"name":"outfit2",
			"normalTexture":{
				"index":2,
				"scale":0.4000000059604645
			},
			"pbrMetallicRoughness":{
				"baseColorFactor":[
					0.03310476616024971,
					0.010022825561463833,
					0.03310476616024971,
					1
				],
				"metallicFactor":0,
				"roughnessFactor":0.6000000238418579
			}
		},
		{
			"name":"pants",
			"normalTexture":{
				"index":3,
				"scale":0.6000000238418579
			},
			"pbrMetallicRoughness":{
				"baseColorFactor":[
					0.08088690787553787,
					0.017389101907610893,
					0.10048151016235352,
					1
				],
				"metallicFactor":0,
				"roughnessFactor":0.800000011920929
			}
		},
		{
			"extensions":{
				"KHR_materials_clearcoat":{
					"clearcoatFactor":0.30000001192092896
				}
			},
			"name":"boots",
			"normalTexture":{
				"index":4,
				"scale":0.800000011920929
			},
			"pbrMetallicRoughness":{
				"baseColorFactor":[
					0.0134117491543293,
					0.010022825561463833,
					0.010022825561463833,
					1
				],
				"metallicFactor":0,
				"roughnessFactor":0.44999998807907104
			}
		},
		{
			"name":"buckle",
			"pbrMetallicRoughness":{
				"baseColorFactor":[
					0.6920710802078247,
					0.4479884207248688,
					0.07323895394802094,
					1
				],
				"metallicFactor":0.8999999761581421,
				"roughnessFactor":0.30000001192092896
			}
		},
		{
			"name":"blade",
			"normalTexture":{
				"index":5,
				"scale":0.30000001192092896
			},
			"pbrMetallicRoughness":{
				"baseColorFactor":[
					0.7484140992164612,
					0.7874122858047485,
					0.8900054097175598,
					1
				],
				"metallicFactor":0.550000011920929,
				"roughnessFactor":0.2199999988079071
			}
		}
	],
	"meshes":[
		{
			"name":"marionette",
			"primitives":[
				{
					"attributes":{
						"POSITION":0,
						"NORMAL":1,
						"TEXCOORD_0":2,
						"JOINTS_0":3,
						"WEIGHTS_0":4
					},
					"indices":5,
					"material":0
				},
				{
					"attributes":{
						"POSITION":6,
						"NORMAL":7,
						"TEXCOORD_0":8,
						"JOINTS_0":9,
						"WEIGHTS_0":10
					},
					"indices":11,
					"material":1
				},
				{
					"attributes":{
						"POSITION":12,
						"NORMAL":13,
						"TEXCOORD_0":14,
						"JOINTS_0":15,
						"WEIGHTS_0":16
					},
					"indices":17,
					"material":2
				},
				{
					"attributes":{
						"POSITION":18,
						"NORMAL":19,
						"TEXCOORD_0":20,
						"JOINTS_0":21,
						"WEIGHTS_0":22
					},
					"indices":23,
					"material":3
				},
				{
					"attributes":{
						"POSITION":24,
						"NORMAL":25,
						"TEXCOORD_0":26,
						"JOINTS_0":27,
						"WEIGHTS_0":28
					},
					"indices":29,
					"material":4
				},
				{
					"attributes":{
						"POSITION":30,
						"NORMAL":31,
						"TEXCOORD_0":32,
						"JOINTS_0":33,
						"WEIGHTS_0":34
					},
					"indices":35,
					"material":5
				},
				{
					"attributes":{
						"POSITION":36,
						"NORMAL":37,
						"TEXCOORD_0":38,
						"JOINTS_0":39,
						"WEIGHTS_0":40
					},
					"indices":41,
					"material":6
				}
			]
		}
	],
	"textures":[
		{
			"sampler":0,
			"source":0
		},
		{
			"sampler":0,
			"source":1
		},
		{
			"sampler":0,
			"source":1
		},
		{
			"sampler":0,
			"source":1
		},
		{
			"sampler":0,
			"source":2
		},
		{
			"sampler":0,
			"source":3
		}
	],
	"images":[
		{
			"mimeType":"image/png",
			"name":"N_skin",
			"uri":"texturas/N_skin.png"
		},
		{
			"mimeType":"image/png",
			"name":"N_cloth",
			"uri":"texturas/N_cloth.png"
		},
		{
			"mimeType":"image/png",
			"name":"N_leather",
			"uri":"texturas/N_leather.png"
		},
		{
			"mimeType":"image/png",
			"name":"N_metal",
			"uri":"texturas/N_metal.png"
		}
	],
	"skins":[
		{
			"inverseBindMatrices":42,
			"joints":[
				16,
				9,
				8,
				1,
				0,
				4,
				3,
				2,
				7,
				6,
				5,
				12,
				11,
				10,
				15,
				14,
				13
			],
			"name":"marionette_rig"
		}
	],
	"accessors":[
		{
			"bufferView":0,
			"componentType":5126,
			"count":1149,
			"max":[
				0.265205055475235,
				1.7839999198913574,
				0.10721255838871002
			],
			"min":[
				-0.265205055475235,
				0.784467875957489,
				-0.09141670912504196
			],
			"type":"VEC3"
		},
		{
			"bufferView":1,
			"componentType":5126,
			"count":1149,
			"type":"VEC3"
		},
		{
			"bufferView":2,
			"componentType":5126,
			"count":1149,
			"type":"VEC2"
		},
		{
			"bufferView":3,
			"componentType":5121,
			"count":1149,
			"type":"VEC4"
		},
		{
			"bufferView":4,
			"componentType":5126,
			"count":1149,
			"type":"VEC4"
		},
		{
			"bufferView":5,
			"componentType":5123,
			"count":4992,
			"type":"SCALAR"
		},
		{
			"bufferView":6,
			"componentType":5126,
			"count":1632,
			"max":[
				0.2663642168045044,
				1.4680099487304688,
				0.07722108066082001
			],
			"min":[
				-0.2663642168045044,
				0.9198153614997864,
				-0.07999791204929352
			],
			"type":"VEC3"
		},
		{
			"bufferView":7,
			"componentType":5126,
			"count":1632,
			"type":"VEC3"
		},
		{
			"bufferView":8,
			"componentType":5126,
			"count":1632,
			"type":"VEC2"
		},
		{
			"bufferView":9,
			"componentType":5121,
			"count":1632,
			"type":"VEC4"
		},
		{
			"bufferView":10,
			"componentType":5126,
			"count":1632,
			"type":"VEC4"
		},
		{
			"bufferView":11,
			"componentType":5123,
			"count":7518,
			"type":"SCALAR"
		},
		{
			"bufferView":12,
			"componentType":5126,
			"count":109,
			"max":[
				0.1410285085439682,
				1.1296241283416748,
				0.07722108066082001
			],
			"min":[
				-0.1410285085439682,
				0.8952915072441101,
				-0.07666309922933578
			],
			"type":"VEC3"
		},
		{
			"bufferView":13,
			"componentType":5126,
			"count":109,
			"type":"VEC3"
		},
		{
			"bufferView":14,
			"componentType":5126,
			"count":109,
			"type":"VEC2"
		},
		{
			"bufferView":15,
			"componentType":5121,
			"count":109,
			"type":"VEC4"
		},
		{
			"bufferView":16,
			"componentType":5126,
			"count":109,
			"type":"VEC4"
		},
		{
			"bufferView":17,
			"componentType":5123,
			"count":372,
			"type":"SCALAR"
		},
		{
			"bufferView":18,
			"componentType":5126,
			"count":1132,
			"max":[
				0.2656515836715698,
				0.9379027485847473,
				0.07426561415195465
			],
			"min":[
				-0.26565155386924744,
				0.3021638095378876,
				-0.07744988799095154
			],
			"type":"VEC3"
		},
		{
			"bufferView":19,
			"componentType":5126,
			"count":1132,
			"type":"VEC3"
		},
		{
			"bufferView":20,
			"componentType":5126,
			"count":1132,
			"type":"VEC2"
		},
		{
			"bufferView":21,
			"componentType":5121,
			"count":1132,
			"type":"VEC4"
		},
		{
			"bufferView":22,
			"componentType":5126,
			"count":1132,
			"type":"VEC4"
		},
		{
			"bufferView":23,
			"componentType":5123,
			"count":5070,
			"type":"SCALAR"
		},
		{
			"bufferView":24,
			"componentType":5126,
			"count":1034,
			"max":[
				0.13776284456253052,
				0.307569295167923,
				0.07120298594236374
			],
			"min":[
				-0.13776282966136932,
				0.007594164926558733,
				-0.140121728181839
			],
			"type":"VEC3"
		},
		{
			"bufferView":25,
			"componentType":5126,
			"count":1034,
			"type":"VEC3"
		},
		{
			"bufferView":26,
			"componentType":5126,
			"count":1034,
			"type":"VEC2"
		},
		{
			"bufferView":27,
			"componentType":5121,
			"count":1034,
			"type":"VEC4"
		},
		{
			"bufferView":28,
			"componentType":5126,
			"count":1034,
			"type":"VEC4"
		},
		{
			"bufferView":29,
			"componentType":5123,
			"count":4608,
			"type":"SCALAR"
		},
		{
			"bufferView":30,
			"componentType":5126,
			"count":24,
			"max":[
				0.02500000037252903,
				0.9700000286102295,
				-0.07500000298023224
			],
			"min":[
				-0.02500000037252903,
				0.9300000071525574,
				-0.08699999749660492
			],
			"type":"VEC3"
		},
		{
			"bufferView":31,
			"componentType":5126,
			"count":24,
			"type":"VEC3"
		},
		{
			"bufferView":32,
			"componentType":5126,
			"count":24,
			"type":"VEC2"
		},
		{
			"bufferView":33,
			"componentType":5121,
			"count":24,
			"type":"VEC4"
		},
		{
			"bufferView":34,
			"componentType":5126,
			"count":24,
			"type":"VEC4"
		},
		{
			"bufferView":35,
			"componentType":5123,
			"count":36,
			"type":"SCALAR"
		},
		{
			"bufferView":36,
			"componentType":5126,
			"count":102,
			"max":[
				0.2726399898529053,
				0.7941569089889526,
				-0.019457435235381126
			],
			"min":[
				0.21663999557495117,
				0.709480345249176,
				-0.08569281548261642
			],
			"type":"VEC3"
		},
		{
			"bufferView":37,
			"componentType":5126,
			"count":102,
			"type":"VEC3"
		},
		{
			"bufferView":38,
			"componentType":5126,
			"count":102,
			"type":"VEC2"
		},
		{
			"bufferView":39,
			"componentType":5121,
			"count":102,
			"type":"VEC4"
		},
		{
			"bufferView":40,
			"componentType":5126,
			"count":102,
			"type":"VEC4"
		},
		{
			"bufferView":41,
			"componentType":5123,
			"count":216,
			"type":"SCALAR"
		},
		{
			"bufferView":42,
			"componentType":5126,
			"count":17,
			"type":"MAT4"
		},
		{
			"bufferView":43,
			"componentType":5126,
			"count":2,
			"max":[
				0.6
			],
			"min":[
				0
			],
			"type":"SCALAR"
		},
		{
			"bufferView":44,
			"componentType":5126,
			"count":2,
			"type":"VEC3"
		},
		{
			"bufferView":45,
			"componentType":5126,
			"count":2,
			"type":"VEC4"
		},
		{
			"bufferView":46,
			"componentType":5126,
			"count":2,
			"type":"VEC3"
		},
		{
			"bufferView":47,
			"componentType":5126,
			"count":2,
			"type":"VEC3"
		},
		{
			"bufferView":48,
			"componentType":5126,
			"count":2,
			"type":"VEC4"
		},
		{
			"bufferView":49,
			"componentType":5126,
			"count":2,
			"type":"VEC3"
		},
		{
			"bufferView":50,
			"componentType":5126,
			"count":2,
			"type":"VEC3"
		},
		{
			"bufferView":51,
			"componentType":5126,
			"count":19,
			"max":[
				0.6
			],
			"min":[
				0
			],
			"type":"SCALAR"
		},
		{
			"bufferView":52,
			"componentType":5126,
			"count":19,
			"type":"VEC4"
		},
		{
			"bufferView":53,
			"componentType":5126,
			"count":2,
			"type":"VEC3"
		},
		{
			"bufferView":54,
			"componentType":5126,
			"count":2,
			"type":"VEC3"
		},
		{
			"bufferView":55,
			"componentType":5126,
			"count":2,
			"type":"VEC4"
		},
		{
			"bufferView":56,
			"componentType":5126,
			"count":2,
			"type":"VEC3"
		},
		{
			"bufferView":57,
			"componentType":5126,
			"count":2,
			"type":"VEC3"
		},
		{
			"bufferView":58,
			"componentType":5126,
			"count":2,
			"type":"VEC4"
		},
		{
			"bufferView":59,
			"componentType":5126,
			"count":2,
			"type":"VEC3"
		},
		{
			"bufferView":60,
			"componentType":5126,
			"count":2,
			"type":"VEC3"
		},
		{
			"bufferView":61,
			"componentType":5126,
			"count":19,
			"type":"VEC4"
		},
		{
			"bufferView":62,
			"componentType":5126,
			"count":2,
			"type":"VEC3"
		},
		{
			"bufferView":63,
			"componentType":5126,
			"count":2,
			"type":"VEC3"
		},
		{
			"bufferView":64,
			"componentType":5126,
			"count":19,
			"type":"VEC4"
		},
		{
			"bufferView":65,
			"componentType":5126,
			"count":2,
			"type":"VEC3"
		},
		{
			"bufferView":66,
			"componentType":5126,
			"count":2,
			"type":"VEC3"
		},
		{
			"bufferView":67,
			"componentType":5126,
			"count":2,
			"type":"VEC4"
		},
		{
			"bufferView":68,
			"componentType":5126,
			"count":2,
			"type":"VEC3"
		},
		{
			"bufferView":69,
			"componentType":5126,
			"count":2,
			"type":"VEC3"
		},
		{
			"bufferView":70,
			"componentType":5126,
			"count":19,
			"type":"VEC4"
		},
		{
			"bufferView":71,
			"componentType":5126,
			"count":2,
			"type":"VEC3"
		},
		{
			"bufferView":72,
			"componentType":5126,
			"count":2,
			"type":"VEC3"
		},
		{
			"bufferView":73,
			"componentType":5126,
			"count":2,
			"type":"VEC4"
		},
		{
			"bufferView":74,
			"componentType":5126,
			"count":2,
			"type":"VEC3"
		},
		{
			"bufferView":75,
			"componentType":5126,
			"count":2,
			"type":"VEC3"
		},
		{
			"bufferView":76,
			"componentType":5126,
			"count":2,
			"type":"VEC4"
		},
		{
			"bufferView":77,
			"componentType":5126,
			"count":2,
			"type":"VEC3"
		},
		{
			"bufferView":78,
			"componentType":5126,
			"count":2,
			"type":"VEC3"
		},
		{
			"bufferView":79,
			"componentType":5126,
			"count":19,
			"type":"VEC4"
		},
		{
			"bufferView":80,
			"componentType":5126,
			"count":2,
			"type":"VEC3"
		},
		{
			"bufferView":81,
			"componentType":5126,
			"count":2,
			"type":"VEC3"
		},
		{
			"bufferView":82,
			"componentType":5126,
			"count":2,
			"type":"VEC4"
		},
		{
			"bufferView":83,
			"componentType":5126,
			"count":2,
			"type":"VEC3"
		},
		{
			"bufferView":84,
			"componentType":5126,
			"count":2,
			"type":"VEC3"
		},
		{
			"bufferView":85,
			"componentType":5126,
			"count":2,
			"type":"VEC4"
		},
		{
			"bufferView":86,
			"componentType":5126,
			"count":2,
			"type":"VEC3"
		},
		{
			"bufferView":87,
			"componentType":5126,
			"count":2,
			"type":"VEC3"
		},
		{
			"bufferView":88,
			"componentType":5126,
			"count":19,
			"type":"VEC4"
		},
		{
			"bufferView":89,
			"componentType":5126,
			"count":2,
			"type":"VEC3"
		},
		{
			"bufferView":90,
			"componentType":5126,
			"count":2,
			"type":"VEC3"
		},
		{
			"bufferView":91,
			"componentType":5126,
			"count":2,
			"type":"VEC4"
		},
		{
			"bufferView":92,
			"componentType":5126,
			"count":2,
			"type":"VEC3"
		},
		{
			"bufferView":93,
			"componentType":5126,
			"count":2,
			"type":"VEC3"
		},
		{
			"bufferView":94,
			"componentType":5126,
			"count":2,
			"type":"VEC4"
		},
		{
			"bufferView":95,
			"componentType":5126,
			"count":2,
			"type":"VEC3"
		},
		{
			"bufferView":96,
			"componentType":5126,
			"count":61,
			"max":[
				2
			],
			"min":[
				0
			],
			"type":"SCALAR"
		},
		{
			"bufferView":97,
			"componentType":5126,
			"count":61,
			"type":"VEC3"
		},
		{
			"bufferView":98,
			"componentType":5126,
			"count":2,
			"max":[
				2
			],
			"min":[
				0
			],
			"type":"SCALAR"
		},
		{
			"bufferView":99,
			"componentType":5126,
			"count":2,
			"type":"VEC4"
		},
		{
			"bufferView":100,
			"componentType":5126,
			"count":2,
			"type":"VEC3"
		},
		{
			"bufferView":101,
			"componentType":5126,
			"count":2,
			"type":"VEC3"
		},
		{
			"bufferView":102,
			"componentType":5126,
			"count":2,
			"type":"VEC4"
		},
		{
			"bufferView":103,
			"componentType":5126,
			"count":2,
			"type":"VEC3"
		},
		{
			"bufferView":104,
			"componentType":5126,
			"count":2,
			"type":"VEC3"
		},
		{
			"bufferView":105,
			"componentType":5126,
			"count":61,
			"type":"VEC4"
		},
		{
			"bufferView":106,
			"componentType":5126,
			"count":2,
			"type":"VEC3"
		},
		{
			"bufferView":107,
			"componentType":5126,
			"count":2,
			"type":"VEC3"
		},
		{
			"bufferView":108,
			"componentType":5126,
			"count":2,
			"type":"VEC4"
		},
		{
			"bufferView":109,
			"componentType":5126,
			"count":2,
			"type":"VEC3"
		},
		{
			"bufferView":110,
			"componentType":5126,
			"count":2,
			"type":"VEC3"
		},
		{
			"bufferView":111,
			"componentType":5126,
			"count":61,
			"type":"VEC4"
		},
		{
			"bufferView":112,
			"componentType":5126,
			"count":2,
			"type":"VEC3"
		},
		{
			"bufferView":113,
			"componentType":5126,
			"count":2,
			"type":"VEC3"
		},
		{
			"bufferView":114,
			"componentType":5126,
			"count":61,
			"type":"VEC4"
		},
		{
			"bufferView":115,
			"componentType":5126,
			"count":2,
			"type":"VEC3"
		},
		{
			"bufferView":116,
			"componentType":5126,
			"count":2,
			"type":"VEC3"
		},
		{
			"bufferView":117,
			"componentType":5126,
			"count":2,
			"type":"VEC4"
		},
		{
			"bufferView":118,
			"componentType":5126,
			"count":2,
			"type":"VEC3"
		},
		{
			"bufferView":119,
			"componentType":5126,
			"count":2,
			"type":"VEC3"
		},
		{
			"bufferView":120,
			"componentType":5126,
			"count":2,
			"type":"VEC4"
		},
		{
			"bufferView":121,
			"componentType":5126,
			"count":2,
			"type":"VEC3"
		},
		{
			"bufferView":122,
			"componentType":5126,
			"count":2,
			"type":"VEC3"
		},
		{
			"bufferView":123,
			"componentType":5126,
			"count":61,
			"type":"VEC4"
		},
		{
			"bufferView":124,
			"componentType":5126,
			"count":2,
			"type":"VEC3"
		},
		{
			"bufferView":125,
			"componentType":5126,
			"count":2,
			"type":"VEC3"
		},
		{
			"bufferView":126,
			"componentType":5126,
			"count":2,
			"type":"VEC4"
		},
		{
			"bufferView":127,
			"componentType":5126,
			"count":2,
			"type":"VEC3"
		},
		{
			"bufferView":128,
			"componentType":5126,
			"count":2,
			"type":"VEC3"
		},
		{
			"bufferView":129,
			"componentType":5126,
			"count":2,
			"type":"VEC4"
		},
		{
			"bufferView":130,
			"componentType":5126,
			"count":2,
			"type":"VEC3"
		},
		{
			"bufferView":131,
			"componentType":5126,
			"count":2,
			"type":"VEC3"
		},
		{
			"bufferView":132,
			"componentType":5126,
			"count":2,
			"type":"VEC4"
		},
		{
			"bufferView":133,
			"componentType":5126,
			"count":2,
			"type":"VEC3"
		},
		{
			"bufferView":134,
			"componentType":5126,
			"count":2,
			"type":"VEC3"
		},
		{
			"bufferView":135,
			"componentType":5126,
			"count":2,
			"type":"VEC4"
		},
		{
			"bufferView":136,
			"componentType":5126,
			"count":2,
			"type":"VEC3"
		},
		{
			"bufferView":137,
			"componentType":5126,
			"count":2,
			"type":"VEC3"
		},
		{
			"bufferView":138,
			"componentType":5126,
			"count":2,
			"type":"VEC4"
		},
		{
			"bufferView":139,
			"componentType":5126,
			"count":2,
			"type":"VEC3"
		},
		{
			"bufferView":140,
			"componentType":5126,
			"count":2,
			"type":"VEC3"
		},
		{
			"bufferView":141,
			"componentType":5126,
			"count":2,
			"type":"VEC4"
		},
		{
			"bufferView":142,
			"componentType":5126,
			"count":2,
			"type":"VEC3"
		},
		{
			"bufferView":143,
			"componentType":5126,
			"count":2,
			"type":"VEC3"
		},
		{
			"bufferView":144,
			"componentType":5126,
			"count":2,
			"type":"VEC4"
		},
		{
			"bufferView":145,
			"componentType":5126,
			"count":2,
			"type":"VEC3"
		},
		{
			"bufferView":146,
			"componentType":5126,
			"count":2,
			"type":"VEC3"
		},
		{
			"bufferView":147,
			"componentType":5126,
			"count":2,
			"type":"VEC4"
		},
		{
			"bufferView":148,
			"componentType":5126,
			"count":2,
			"type":"VEC3"
		},
		{
			"bufferView":149,
			"componentType":5126,
			"count":31,
			"max":[
				1
			],
			"min":[
				0
			],
			"type":"SCALAR"
		},
		{
			"bufferView":150,
			"componentType":5126,
			"count":31,
			"type":"VEC3"
		},
		{
			"bufferView":151,
			"componentType":5126,
			"count":31,
			"type":"VEC4"
		},
		{
			"bufferView":152,
			"componentType":5126,
			"count":2,
			"max":[
				1
			],
			"min":[
				0
			],
			"type":"SCALAR"
		},
		{
			"bufferView":153,
			"componentType":5126,
			"count":2,
			"type":"VEC3"
		},
		{
			"bufferView":154,
			"componentType":5126,
			"count":2,
			"type":"VEC3"
		},
		{
			"bufferView":155,
			"componentType":5126,
			"count":2,
			"type":"VEC4"
		},
		{
			"bufferView":156,
			"componentType":5126,
			"count":2,
			"type":"VEC3"
		},
		{
			"bufferView":157,
			"componentType":5126,
			"count":2,
			"type":"VEC3"
		},
		{
			"bufferView":158,
			"componentType":5126,
			"count":31,
			"type":"VEC4"
		},
		{
			"bufferView":159,
			"componentType":5126,
			"count":2,
			"type":"VEC3"
		},
		{
			"bufferView":160,
			"componentType":5126,
			"count":2,
			"type":"VEC3"
		},
		{
			"bufferView":161,
			"componentType":5126,
			"count":2,
			"type":"VEC4"
		},
		{
			"bufferView":162,
			"componentType":5126,
			"count":2,
			"type":"VEC3"
		},
		{
			"bufferView":163,
			"componentType":5126,
			"count":2,
			"type":"VEC3"
		},
		{
			"bufferView":164,
			"componentType":5126,
			"count":2,
			"type":"VEC4"
		},
		{
			"bufferView":165,
			"componentType":5126,
			"count":2,
			"type":"VEC3"
		},
		{
			"bufferView":166,
			"componentType":5126,
			"count":2,
			"type":"VEC3"
		},
		{
			"bufferView":167,
			"componentType":5126,
			"count":31,
			"type":"VEC4"
		},
		{
			"bufferView":168,
			"componentType":5126,
			"count":2,
			"type":"VEC3"
		},
		{
			"bufferView":169,
			"componentType":5126,
			"count":2,
			"type":"VEC3"
		},
		{
			"bufferView":170,
			"componentType":5126,
			"count":2,
			"type":"VEC4"
		},
		{
			"bufferView":171,
			"componentType":5126,
			"count":2,
			"type":"VEC3"
		},
		{
			"bufferView":172,
			"componentType":5126,
			"count":2,
			"type":"VEC3"
		},
		{
			"bufferView":173,
			"componentType":5126,
			"count":2,
			"type":"VEC4"
		},
		{
			"bufferView":174,
			"componentType":5126,
			"count":2,
			"type":"VEC3"
		},
		{
			"bufferView":175,
			"componentType":5126,
			"count":2,
			"type":"VEC3"
		},
		{
			"bufferView":176,
			"componentType":5126,
			"count":31,
			"type":"VEC4"
		},
		{
			"bufferView":177,
			"componentType":5126,
			"count":2,
			"type":"VEC3"
		},
		{
			"bufferView":178,
			"componentType":5126,
			"count":2,
			"type":"VEC3"
		},
		{
			"bufferView":179,
			"componentType":5126,
			"count":2,
			"type":"VEC4"
		},
		{
			"bufferView":180,
			"componentType":5126,
			"count":2,
			"type":"VEC3"
		},
		{
			"bufferView":181,
			"componentType":5126,
			"count":2,
			"type":"VEC3"
		},
		{
			"bufferView":182,
			"componentType":5126,
			"count":2,
			"type":"VEC4"
		},
		{
			"bufferView":183,
			"componentType":5126,
			"count":2,
			"type":"VEC3"
		},
		{
			"bufferView":184,
			"componentType":5126,
			"count":2,
			"type":"VEC3"
		},
		{
			"bufferView":185,
			"componentType":5126,
			"count":31,
			"type":"VEC4"
		},
		{
			"bufferView":186,
			"componentType":5126,
			"count":2,
			"type":"VEC3"
		},
		{
			"bufferView":187,
			"componentType":5126,
			"count":2,
			"type":"VEC3"
		},
		{
			"bufferView":188,
			"componentType":5126,
			"count":31,
			"type":"VEC4"
		},
		{
			"bufferView":189,
			"componentType":5126,
			"count":2,
			"type":"VEC3"
		},
		{
			"bufferView":190,
			"componentType":5126,
			"count":2,
			"type":"VEC3"
		},
		{
			"bufferView":191,
			"componentType":5126,
			"count":31,
			"type":"VEC4"
		},
		{
			"bufferView":192,
			"componentType":5126,
			"count":2,
			"type":"VEC3"
		},
		{
			"bufferView":193,
			"componentType":5126,
			"count":2,
			"type":"VEC3"
		},
		{
			"bufferView":194,
			"componentType":5126,
			"count":31,
			"type":"VEC4"
		},
		{
			"bufferView":195,
			"componentType":5126,
			"count":2,
			"type":"VEC3"
		},
		{
			"bufferView":196,
			"componentType":5126,
			"count":2,
			"type":"VEC3"
		},
		{
			"bufferView":197,
			"componentType":5126,
			"count":31,
			"type":"VEC4"
		},
		{
			"bufferView":198,
			"componentType":5126,
			"count":2,
			"type":"VEC3"
		},
		{
			"bufferView":199,
			"componentType":5126,
			"count":2,
			"type":"VEC3"
		},
		{
			"bufferView":200,
			"componentType":5126,
			"count":31,
			"type":"VEC4"
		},
		{
			"bufferView":201,
			"componentType":5126,
			"count":2,
			"type":"VEC3"
		}
	],
	"bufferViews":[
		{
			"buffer":0,
			"byteLength":13788,
			"byteOffset":0,
			"target":34962
		},
		{
			"buffer":0,
			"byteLength":13788,
			"byteOffset":13788,
			"target":34962
		},
		{
			"buffer":0,
			"byteLength":9192,
			"byteOffset":27576,
			"target":34962
		},
		{
			"buffer":0,
			"byteLength":4596,
			"byteOffset":36768,
			"target":34962
		},
		{
			"buffer":0,
			"byteLength":18384,
			"byteOffset":41364,
			"target":34962
		},
		{
			"buffer":0,
			"byteLength":9984,
			"byteOffset":59748,
			"target":34963
		},
		{
			"buffer":0,
			"byteLength":19584,
			"byteOffset":69732,
			"target":34962
		},
		{
			"buffer":0,
			"byteLength":19584,
			"byteOffset":89316,
			"target":34962
		},
		{
			"buffer":0,
			"byteLength":13056,
			"byteOffset":108900,
			"target":34962
		},
		{
			"buffer":0,
			"byteLength":6528,
			"byteOffset":121956,
			"target":34962
		},
		{
			"buffer":0,
			"byteLength":26112,
			"byteOffset":128484,
			"target":34962
		},
		{
			"buffer":0,
			"byteLength":15036,
			"byteOffset":154596,
			"target":34963
		},
		{
			"buffer":0,
			"byteLength":1308,
			"byteOffset":169632,
			"target":34962
		},
		{
			"buffer":0,
			"byteLength":1308,
			"byteOffset":170940,
			"target":34962
		},
		{
			"buffer":0,
			"byteLength":872,
			"byteOffset":172248,
			"target":34962
		},
		{
			"buffer":0,
			"byteLength":436,
			"byteOffset":173120,
			"target":34962
		},
		{
			"buffer":0,
			"byteLength":1744,
			"byteOffset":173556,
			"target":34962
		},
		{
			"buffer":0,
			"byteLength":744,
			"byteOffset":175300,
			"target":34963
		},
		{
			"buffer":0,
			"byteLength":13584,
			"byteOffset":176044,
			"target":34962
		},
		{
			"buffer":0,
			"byteLength":13584,
			"byteOffset":189628,
			"target":34962
		},
		{
			"buffer":0,
			"byteLength":9056,
			"byteOffset":203212,
			"target":34962
		},
		{
			"buffer":0,
			"byteLength":4528,
			"byteOffset":212268,
			"target":34962
		},
		{
			"buffer":0,
			"byteLength":18112,
			"byteOffset":216796,
			"target":34962
		},
		{
			"buffer":0,
			"byteLength":10140,
			"byteOffset":234908,
			"target":34963
		},
		{
			"buffer":0,
			"byteLength":12408,
			"byteOffset":245048,
			"target":34962
		},
		{
			"buffer":0,
			"byteLength":12408,
			"byteOffset":257456,
			"target":34962
		},
		{
			"buffer":0,
			"byteLength":8272,
			"byteOffset":269864,
			"target":34962
		},
		{
			"buffer":0,
			"byteLength":4136,
			"byteOffset":278136,
			"target":34962
		},
		{
			"buffer":0,
			"byteLength":16544,
			"byteOffset":282272,
			"target":34962
		},
		{
			"buffer":0,
			"byteLength":9216,
			"byteOffset":298816,
			"target":34963
		},
		{
			"buffer":0,
			"byteLength":288,
			"byteOffset":308032,
			"target":34962
		},
		{
			"buffer":0,
			"byteLength":288,
			"byteOffset":308320,
			"target":34962
		},
		{
			"buffer":0,
			"byteLength":192,
			"byteOffset":308608,
			"target":34962
		},
		{
			"buffer":0,
			"byteLength":96,
			"byteOffset":308800,
			"target":34962
		},
		{
			"buffer":0,
			"byteLength":384,
			"byteOffset":308896,
			"target":34962
		},
		{
			"buffer":0,
			"byteLength":72,
			"byteOffset":309280,
			"target":34963
		},
		{
			"buffer":0,
			"byteLength":1224,
			"byteOffset":309352,
			"target":34962
		},
		{
			"buffer":0,
			"byteLength":1224,
			"byteOffset":310576,
			"target":34962
		},
		{
			"buffer":0,
			"byteLength":816,
			"byteOffset":311800,
			"target":34962
		},
		{
			"buffer":0,
			"byteLength":408,
			"byteOffset":312616,
			"target":34962
		},
		{
			"buffer":0,
			"byteLength":1632,
			"byteOffset":313024,
			"target":34962
		},
		{
			"buffer":0,
			"byteLength":432,
			"byteOffset":314656,
			"target":34963
		},
		{
			"buffer":0,
			"byteLength":1088,
			"byteOffset":315088
		},
		{
			"buffer":0,
			"byteLength":8,
			"byteOffset":316176
		},
		{
			"buffer":0,
			"byteLength":24,
			"byteOffset":316184
		},
		{
			"buffer":0,
			"byteLength":32,
			"byteOffset":316208
		},
		{
			"buffer":0,
			"byteLength":24,
			"byteOffset":316240
		},
		{
			"buffer":0,
			"byteLength":24,
			"byteOffset":316264
		},
		{
			"buffer":0,
			"byteLength":32,
			"byteOffset":316288
		},
		{
			"buffer":0,
			"byteLength":24,
			"byteOffset":316320
		},
		{
			"buffer":0,
			"byteLength":24,
			"byteOffset":316344
		},
		{
			"buffer":0,
			"byteLength":76,
			"byteOffset":316368
		},
		{
			"buffer":0,
			"byteLength":304,
			"byteOffset":316444
		},
		{
			"buffer":0,
			"byteLength":24,
			"byteOffset":316748
		},
		{
			"buffer":0,
			"byteLength":24,
			"byteOffset":316772
		},
		{
			"buffer":0,
			"byteLength":32,
			"byteOffset":316796
		},
		{
			"buffer":0,
			"byteLength":24,
			"byteOffset":316828
		},
		{
			"buffer":0,
			"byteLength":24,
			"byteOffset":316852
		},
		{
			"buffer":0,
			"byteLength":32,
			"byteOffset":316876
		},
		{
			"buffer":0,
			"byteLength":24,
			"byteOffset":316908
		},
		{
			"buffer":0,
			"byteLength":24,
			"byteOffset":316932
		},
		{
			"buffer":0,
			"byteLength":304,
			"byteOffset":316956
		},
		{
			"buffer":0,
			"byteLength":24,
			"byteOffset":317260
		},
		{
			"buffer":0,
			"byteLength":24,
			"byteOffset":317284
		},
		{
			"buffer":0,
			"byteLength":304,
			"byteOffset":317308
		},
		{
			"buffer":0,
			"byteLength":24,
			"byteOffset":317612
		},
		{
			"buffer":0,
			"byteLength":24,
			"byteOffset":317636
		},
		{
			"buffer":0,
			"byteLength":32,
			"byteOffset":317660
		},
		{
			"buffer":0,
			"byteLength":24,
			"byteOffset":317692
		},
		{
			"buffer":0,
			"byteLength":24,
			"byteOffset":317716
		},
		{
			"buffer":0,
			"byteLength":304,
			"byteOffset":317740
		},
		{
			"buffer":0,
			"byteLength":24,
			"byteOffset":318044
		},
		{
			"buffer":0,
			"byteLength":24,
			"byteOffset":318068
		},
		{
			"buffer":0,
			"byteLength":32,
			"byteOffset":318092
		},
		{
			"buffer":0,
			"byteLength":24,
			"byteOffset":318124
		},
		{
			"buffer":0,
			"byteLength":24,
			"byteOffset":318148
		},
		{
			"buffer":0,
			"byteLength":32,
			"byteOffset":318172
		},
		{
			"buffer":0,
			"byteLength":24,
			"byteOffset":318204
		},
		{
			"buffer":0,
			"byteLength":24,
			"byteOffset":318228
		},
		{
			"buffer":0,
			"byteLength":304,
			"byteOffset":318252
		},
		{
			"buffer":0,
			"byteLength":24,
			"byteOffset":318556
		},
		{
			"buffer":0,
			"byteLength":24,
			"byteOffset":318580
		},
		{
			"buffer":0,
			"byteLength":32,
			"byteOffset":318604
		},
		{
			"buffer":0,
			"byteLength":24,
			"byteOffset":318636
		},
		{
			"buffer":0,
			"byteLength":24,
			"byteOffset":318660
		},
		{
			"buffer":0,
			"byteLength":32,
			"byteOffset":318684
		},
		{
			"buffer":0,
			"byteLength":24,
			"byteOffset":318716
		},
		{
			"buffer":0,
			"byteLength":24,
			"byteOffset":318740
		},
		{
			"buffer":0,
			"byteLength":304,
			"byteOffset":318764
		},
		{
			"buffer":0,
			"byteLength":24,
			"byteOffset":319068
		},
		{
			"buffer":0,
			"byteLength":24,
			"byteOffset":319092
		},
		{
			"buffer":0,
			"byteLength":32,
			"byteOffset":319116
		},
		{
			"buffer":0,
			"byteLength":24,
			"byteOffset":319148
		},
		{
			"buffer":0,
			"byteLength":24,
			"byteOffset":319172
		},
		{
			"buffer":0,
			"byteLength":32,
			"byteOffset":319196
		},
		{
			"buffer":0,
			"byteLength":24,
			"byteOffset":319228
		},
		{
			"buffer":0,
			"byteLength":244,
			"byteOffset":319252
		},
		{
			"buffer":0,
			"byteLength":732,
			"byteOffset":319496
		},
		{
			"buffer":0,
			"byteLength":8,
			"byteOffset":320228
		},
		{
			"buffer":0,
			"byteLength":32,
			"byteOffset":320236
		},
		{
			"buffer":0,
			"byteLength":24,
			"byteOffset":320268
		},
		{
			"buffer":0,
			"byteLength":24,
			"byteOffset":320292
		},
		{
			"buffer":0,
			"byteLength":32,
			"byteOffset":320316
		},
		{
			"buffer":0,
			"byteLength":24,
			"byteOffset":320348
		},
		{
			"buffer":0,
			"byteLength":24,
			"byteOffset":320372
		},
		{
			"buffer":0,
			"byteLength":976,
			"byteOffset":320396
		},
		{
			"buffer":0,
			"byteLength":24,
			"byteOffset":321372
		},
		{
			"buffer":0,
			"byteLength":24,
			"byteOffset":321396
		},
		{
			"buffer":0,
			"byteLength":32,
			"byteOffset":321420
		},
		{
			"buffer":0,
			"byteLength":24,
			"byteOffset":321452
		},
		{
			"buffer":0,
			"byteLength":24,
			"byteOffset":321476
		},
		{
			"buffer":0,
			"byteLength":976,
			"byteOffset":321500
		},
		{
			"buffer":0,
			"byteLength":24,
			"byteOffset":322476
		},
		{
			"buffer":0,
			"byteLength":24,
			"byteOffset":322500
		},
		{
			"buffer":0,
			"byteLength":976,
			"byteOffset":322524
		},
		{
			"buffer":0,
			"byteLength":24,
			"byteOffset":323500
		},
		{
			"buffer":0,
			"byteLength":24,
			"byteOffset":323524
		},
		{
			"buffer":0,
			"byteLength":32,
			"byteOffset":323548
		},
		{
			"buffer":0,
			"byteLength":24,
			"byteOffset":323580
		},
		{
			"buffer":0,
			"byteLength":24,
			"byteOffset":323604
		},
		{
			"buffer":0,
			"byteLength":32,
			"byteOffset":323628
		},
		{
			"buffer":0,
			"byteLength":24,
			"byteOffset":323660
		},
		{
			"buffer":0,
			"byteLength":24,
			"byteOffset":323684
		},
		{
			"buffer":0,
			"byteLength":976,
			"byteOffset":323708
		},
		{
			"buffer":0,
			"byteLength":24,
			"byteOffset":324684
		},
		{
			"buffer":0,
			"byteLength":24,
			"byteOffset":324708
		},
		{
			"buffer":0,
			"byteLength":32,
			"byteOffset":324732
		},
		{
			"buffer":0,
			"byteLength":24,
			"byteOffset":324764
		},
		{
			"buffer":0,
			"byteLength":24,
			"byteOffset":324788
		},
		{
			"buffer":0,
			"byteLength":32,
			"byteOffset":324812
		},
		{
			"buffer":0,
			"byteLength":24,
			"byteOffset":324844
		},
		{
			"buffer":0,
			"byteLength":24,
			"byteOffset":324868
		},
		{
			"buffer":0,
			"byteLength":32,
			"byteOffset":324892
		},
		{
			"buffer":0,
			"byteLength":24,
			"byteOffset":324924
		},
		{
			"buffer":0,
			"byteLength":24,
			"byteOffset":324948
		},
		{
			"buffer":0,
			"byteLength":32,
			"byteOffset":324972
		},
		{
			"buffer":0,
			"byteLength":24,
			"byteOffset":325004
		},
		{
			"buffer":0,
			"byteLength":24,
			"byteOffset":325028
		},
		{
			"buffer":0,
			"byteLength":32,
			"byteOffset":325052
		},
		{
			"buffer":0,
			"byteLength":24,
			"byteOffset":325084
		},
		{
			"buffer":0,
			"byteLength":24,
			"byteOffset":325108
		},
		{
			"buffer":0,
			"byteLength":32,
			"byteOffset":325132
		},
		{
			"buffer":0,
			"byteLength":24,
			"byteOffset":325164
		},
		{
			"buffer":0,
			"byteLength":24,
			"byteOffset":325188
		},
		{
			"buffer":0,
			"byteLength":32,
			"byteOffset":325212
		},
		{
			"buffer":0,
			"byteLength":24,
			"byteOffset":325244
		},
		{
			"buffer":0,
			"byteLength":24,
			"byteOffset":325268
		},
		{
			"buffer":0,
			"byteLength":32,
			"byteOffset":325292
		},
		{
			"buffer":0,
			"byteLength":24,
			"byteOffset":325324
		},
		{
			"buffer":0,
			"byteLength":124,
			"byteOffset":325348
		},
		{
			"buffer":0,
			"byteLength":372,
			"byteOffset":325472
		},
		{
			"buffer":0,
			"byteLength":496,
			"byteOffset":325844
		},
		{
			"buffer":0,
			"byteLength":8,
			"byteOffset":326340
		},
		{
			"buffer":0,
			"byteLength":24,
			"byteOffset":326348
		},
		{
			"buffer":0,
			"byteLength":24,
			"byteOffset":326372
		},
		{
			"buffer":0,
			"byteLength":32,
			"byteOffset":326396
		},
		{
			"buffer":0,
			"byteLength":24,
			"byteOffset":326428
		},
		{
			"buffer":0,
			"byteLength":24,
			"byteOffset":326452
		},
		{
			"buffer":0,
			"byteLength":496,
			"byteOffset":326476
		},
		{
			"buffer":0,
			"byteLength":24,
			"byteOffset":326972
		},
		{
			"buffer":0,
			"byteLength":24,
			"byteOffset":326996
		},
		{
			"buffer":0,
			"byteLength":32,
			"byteOffset":327020
		},
		{
			"buffer":0,
			"byteLength":24,
			"byteOffset":327052
		},
		{
			"buffer":0,
			"byteLength":24,
			"byteOffset":327076
		},
		{
			"buffer":0,
			"byteLength":32,
			"byteOffset":327100
		},
		{
			"buffer":0,
			"byteLength":24,
			"byteOffset":327132
		},
		{
			"buffer":0,
			"byteLength":24,
			"byteOffset":327156
		},
		{
			"buffer":0,
			"byteLength":496,
			"byteOffset":327180
		},
		{
			"buffer":0,
			"byteLength":24,
			"byteOffset":327676
		},
		{
			"buffer":0,
			"byteLength":24,
			"byteOffset":327700
		},
		{
			"buffer":0,
			"byteLength":32,
			"byteOffset":327724
		},
		{
			"buffer":0,
			"byteLength":24,
			"byteOffset":327756
		},
		{
			"buffer":0,
			"byteLength":24,
			"byteOffset":327780
		},
		{
			"buffer":0,
			"byteLength":32,
			"byteOffset":327804
		},
		{
			"buffer":0,
			"byteLength":24,
			"byteOffset":327836
		},
		{
			"buffer":0,
			"byteLength":24,
			"byteOffset":327860
		},
		{
			"buffer":0,
			"byteLength":496,
			"byteOffset":327884
		},
		{
			"buffer":0,
			"byteLength":24,
			"byteOffset":328380
		},
		{
			"buffer":0,
			"byteLength":24,
			"byteOffset":328404
		},
		{
			"buffer":0,
			"byteLength":32,
			"byteOffset":328428
		},
		{
			"buffer":0,
			"byteLength":24,
			"byteOffset":328460
		},
		{
			"buffer":0,
			"byteLength":24,
			"byteOffset":328484
		},
		{
			"buffer":0,
			"byteLength":32,
			"byteOffset":328508
		},
		{
			"buffer":0,
			"byteLength":24,
			"byteOffset":328540
		},
		{
			"buffer":0,
			"byteLength":24,
			"byteOffset":328564
		},
		{
			"buffer":0,
			"byteLength":496,
			"byteOffset":328588
		},
		{
			"buffer":0,
			"byteLength":24,
			"byteOffset":329084
		},
		{
			"buffer":0,
			"byteLength":24,
			"byteOffset":329108
		},
		{
			"buffer":0,
			"byteLength":496,
			"byteOffset":329132
		},
		{
			"buffer":0,
			"byteLength":24,
			"byteOffset":329628
		},
		{
			"buffer":0,
			"byteLength":24,
			"byteOffset":329652
		},
		{
			"buffer":0,
			"byteLength":496,
			"byteOffset":329676
		},
		{
			"buffer":0,
			"byteLength":24,
			"byteOffset":330172
		},
		{
			"buffer":0,
			"byteLength":24,
			"byteOffset":330196
		},
		{
			"buffer":0,
			"byteLength":496,
			"byteOffset":330220
		},
		{
			"buffer":0,
			"byteLength":24,
			"byteOffset":330716
		},
		{
			"buffer":0,
			"byteLength":24,
			"byteOffset":330740
		},
		{
			"buffer":0,
			"byteLength":496,
			"byteOffset":330764
		},
		{
			"buffer":0,
			"byteLength":24,
			"byteOffset":331260
		},
		{
			"buffer":0,
			"byteLength":24,
			"byteOffset":331284
		},
		{
			"buffer":0,
			"byteLength":496,
			"byteOffset":331308
		},
		{
			"buffer":0,
			"byteLength":24,
			"byteOffset":331804
		}
	],
	"samplers":[
		{
			"magFilter":9729,
			"minFilter":9987
		}
	],
	"buffers":[
		{
			"byteLength":331828,
			"uri":"marionette.bin"
		}
	]
}
