{
	"asset":{
		"generator":"Khronos glTF Blender I/O v4.2.57",
		"version":"2.0"
	},
	"extensionsUsed":[
		"KHR_materials_clearcoat",
		"KHR_materials_sheen"
	],
	"scene":0,
	"scenes":[
		{
			"name":"Scene",
			"nodes":[
				18
			]
		}
	],
	"nodes":[
		{
			"name":"head",
			"translation":[
				0,
				0.07999992370605469,
				0
			]
		},
		{
			"children":[
				0
			],
			"name":"neck",
			"translation":[
				0,
				0.16800010204315186,
				0
			]
		},
		{
			"name":"hand.R",
			"rotation":[
				-0.0023572128266096115,
				-0.01641838438808918,
				0.017661048099398613,
				0.9997064471244812
			],
			"scale":[
				0.9999999403953552,
				0.9999998807907104,
				0.9999998807907104
			],
			"translation":[
				-1.3329554349184036e-08,
				0.20111022889614105,
				9.313225746154785e-10
			]
		},
		{
			"children":[
				2
			],
			"name":"forearm.R",
			"rotation":[
				0.050222743302583694,
				-0.05592822656035423,
				0.0641680359840393,
				0.9951041340827942
			],
			"scale":[
				1,
				1,
				0.9999998211860657
			],
			"translation":[
				1.6298145055770874e-08,
				0.21983274817466736,
				1.1641532182693481e-09
			]
		},
		{
			"children":[
				3
			],
			"name":"upper_arm.R",
			"rotation":[
				0.9912914633750916,
				0.09286583960056305,
				0.09286516159772873,
				0.00965567771345377
			],
			"scale":[
				1.0000042915344238,
				1.0000001192092896,
				1.0000001192092896
			],
			"translation":[
				0.13760000467300415,
				0.12800002098083496,
				0
			]
		},
		{
			"name":"hand.L",
			"rotation":[
				-0.0023572128266096115,
				0.01641838438808918,
				-0.017661048099398613,
				0.9997064471244812
			],
			"scale":[
				0.9999999403953552,
				0.9999998807907104,
				0.9999998807907104
			],
			"translation":[
				1.3329554349184036e-08,
				0.20111022889614105,
				9.313225746154785e-10
			]
		},
		{
			"children":[
				5
			],
			"name":"forearm.L",
			"rotation":[
				0.050222743302583694,
				0.05592822656035423,
				-0.0641680359840393,
				0.9951041340827942
			],
			"scale":[
				1,
				1,
				0.9999998211860657
			],
			"translation":[
				-1.6298145055770874e-08,
				0.21983274817466736,
				1.1641532182693481e-09
			]
		},
		{
			"children":[
				6
			],
			"name":"upper_arm.L",
			"rotation":[
				0.9912914633750916,
				-0.09286583960056305,
				-0.09286516159772873,
				0.00965567771345377
			],
			"scale":[
				1.0000042915344238,
				1.0000001192092896,
				1.0000001192092896
			],
			"translation":[
				-0.13760000467300415,
				0.12800002098083496,
				0
			]
		},
		{
			"children":[
				1,
				4,
				7
			],
			"name":"chest",
			"translation":[
				0,
				0.13599997758865356,
				0
			]
		},
		{
			"children":[
				8
			],
			"name":"spine",
			"translation":[
				0,
				0.12000000476837158,
				0
			]
		},
		{
			"name":"foot.R",
			"rotation":[
				0.5914180278778076,
				-1.1360020701900453e-09,
				-1.5489083349251587e-09,
				0.8063651323318481
			],
			"scale":[
				1,
				0.9999999403953552,
				1
			],
			"translation":[
				7.176021554755607e-09,
				0.32847192883491516,
				1.0596359345527162e-09
			]
		},
		{
			"children":[
				10
			],
			"name":"shin.R",
			"rotation":[
				-0.04152865707874298,
				-0.010850707069039345,
				0.010284052230417728,
				0.9990254640579224
			],
			"scale":[
				1,
				1.0000001192092896,
				1
			],
			"translation":[
				7.275957614183426e-10,
				0.3282160758972168,
				-2.2118911147117615e-09
			]
		},
		{
			"children":[
				11
			],
			"name":"thigh.R",
			"rotation":[
				-0.9997795820236206,
				-0.010571160353720188,
				-0.010571318678557873,
				0.014739511534571648
			],
			"scale":[
				1.0000001192092896,
				0.9999998807907104,
				1.000000238418579
			],
			"translation":[
				0.0809599980711937,
				-0.015999972820281982,
				0
			]
		},
		{
			"name":"foot.L",
			"rotation":[
				0.5914180278778076,
				1.1360020701900453e-09,
				1.5489083349251587e-09,
				0.8063651323318481
			],
			"scale":[
				1,
				0.9999999403953552,
				1
			],
			"translation":[
				-7.176021554755607e-09,
				0.32847192883491516,
				1.0596359345527162e-09
			]
		},
		{
			"children":[
				13
			],
			"name":"shin.L",
			"rotation":[
				-0.04152865707874298,
				0.010850707069039345,
				-0.010284052230417728,
				0.9990254640579224
			],
			"scale":[
				1,
				1.0000001192092896,
				1
			],
			"translation":[
				-7.275957614183426e-10,
				0.3282160758972168,
				-2.2118911147117615e-09
			]
		},
		{
			"children":[
				14
			],
			"name":"thigh.L",
			"rotation":[
				-0.9997795820236206,
				0.010571160353720188,
				0.010571318678557873,
				0.014739511534571648
			],
			"scale":[
				1.0000001192092896,
				0.9999998807907104,
				1.000000238418579
			],
			"translation":[
				-0.0809599980711937,
				-0.015999972820281982,
				0
			]
		},
		{
			"children":[
				9,
				12,
				15
			],
			"name":"hips",
			"translation":[
				0,
				0.7440000176429749,
				0
			]
		},
		{
			"mesh":0,
			"name":"milim",
			"skin":0
		},
		{
			"children":[
				17,
				16
			],
			"name":"milim_rig"
		}
	],
	"animations":[
		{
			"channels":[
				{
					"sampler":0,
					"target":{
						"node":16,
						"path":"translation"
					}
				},
				{
					"sampler":1,
					"target":{
						"node":16,
						"path":"rotation"
					}
				},
				{
					"sampler":2,
					"target":{
						"node":16,
						"path":"scale"
					}
				},
				{
					"sampler":3,
					"target":{
						"node":9,
						"path":"translation"
					}
				},
				{
					"sampler":4,
					"target":{
						"node":9,
						"path":"rotation"
					}
				},
				{
					"sampler":5,
					"target":{
						"node":9,
						"path":"scale"
					}
				},
				{
					"sampler":6,
					"target":{
						"node":8,
						"path":"translation"
					}
				},
				{
					"sampler":7,
					"target":{
						"node":8,
						"path":"rotation"
					}
				},
				{
					"sampler":8,
					"target":{
						"node":8,
						"path":"scale"
					}
				},
				{
					"sampler":9,
					"target":{
						"node":1,
						"path":"translation"
					}
				},
				{
					"sampler":10,
					"target":{
						"node":1,
						"path":"rotation"
					}
				},
				{
					"sampler":11,
					"target":{
						"node":1,
						"path":"scale"
					}
				},
				{
					"sampler":12,
					"target":{
						"node":0,
						"path":"translation"
					}
				},
				{
					"sampler":13,
					"target":{
						"node":0,
						"path":"rotation"
					}
				},
				{
					"sampler":14,
					"target":{
						"node":0,
						"path":"scale"
					}
				},
				{
					"sampler":15,
					"target":{
						"node":4,
						"path":"translation"
					}
				},
				{
					"sampler":16,
					"target":{
						"node":4,
						"path":"rotation"
					}
				},
				{
					"sampler":17,
					"target":{
						"node":4,
						"path":"scale"
					}
				},
				{
					"sampler":18,
					"target":{
						"node":3,
						"path":"translation"
					}
				},
				{
					"sampler":19,
					"target":{
						"node":3,
						"path":"rotation"
					}
				},
				{
					"sampler":20,
					"target":{
						"node":3,
						"path":"scale"
					}
				},
				{
					"sampler":21,
					"target":{
						"node":2,
						"path":"translation"
					}
				},
				{
					"sampler":22,
					"target":{
						"node":2,
						"path":"rotation"
					}
				},
				{
					"sampler":23,
					"target":{
						"node":2,
						"path":"scale"
					}
				},
				{
					"sampler":24,
					"target":{
						"node":7,
						"path":"translation"
					}
				},
				{
					"sampler":25,
					"target":{
						"node":7,
						"path":"rotation"
					}
				},
				{
					"sampler":26,
					"target":{
						"node":7,
						"path":"scale"
					}
				},
				{
					"sampler":27,
					"target":{
						"node":6,
						"path":"translation"
					}
				},
				{
					"sampler":28,
					"target":{
						"node":6,
						"path":"rotation"
					}
				},
				{
					"sampler":29,
					"target":{
						"node":6,
						"path":"scale"
					}
				},
				{
					"sampler":30,
					"target":{
						"node":5,
						"path":"translation"
					}
				},
				{
					"sampler":31,
					"target":{
						"node":5,
						"path":"rotation"
					}
				},
				{
					"sampler":32,
					"target":{
						"node":5,
						"path":"scale"
					}
				},
				{
					"sampler":33,
					"target":{
						"node":12,
						"path":"translation"
					}
				},
				{
					"sampler":34,
					"target":{
						"node":12,
						"path":"rotation"
					}
				},
				{
					"sampler":35,
					"target":{
						"node":12,
						"path":"scale"
					}
				},
				{
					"sampler":36,
					"target":{
						"node":11,
						"path":"translation"
					}
				},
				{
					"sampler":37,
					"target":{
						"node":11,
						"path":"rotation"
					}
				},
				{
					"sampler":38,
					"target":{
						"node":11,
						"path":"scale"
					}
				},
				{
					"sampler":39,
					"target":{
						"node":10,
						"path":"translation"
					}
				},
				{
					"sampler":40,
					"target":{
						"node":10,
						"path":"rotation"
					}
				},
				{
					"sampler":41,
					"target":{
						"node":10,
						"path":"scale"
					}
				},
				{
					"sampler":42,
					"target":{
						"node":15,
						"path":"translation"
					}
				},
				{
					"sampler":43,
					"target":{
						"node":15,
						"path":"rotation"
					}
				},
				{
					"sampler":44,
					"target":{
						"node":15,
						"path":"scale"
					}
				},
				{
					"sampler":45,
					"target":{
						"node":14,
						"path":"translation"
					}
				},
				{
					"sampler":46,
					"target":{
						"node":14,
						"path":"rotation"
					}
				},
				{
					"sampler":47,
					"target":{
						"node":14,
						"path":"scale"
					}
				},
				{
					"sampler":48,
					"target":{
						"node":13,
						"path":"translation"
					}
				},
				{
					"sampler":49,
					"target":{
						"node":13,
						"path":"rotation"
					}
				},
				{
					"sampler":50,
					"target":{
						"node":13,
						"path":"scale"
					}
				}
			],
			"name":"attack",
			"samplers":[
				{
					"input":73,
					"interpolation":"STEP",
					"output":74
				},
				{
					"input":73,
					"interpolation":"STEP",
					"output":75
				},
				{
					"input":73,
					"interpolation":"STEP",
					"output":76
				},
				{
					"input":73,
					"interpolation":"STEP",
					"output":77
				},
				{
					"input":73,
					"interpolation":"STEP",
					"output":78
				},
				{
					"input":73,
					"interpolation":"STEP",
					"output":79
				},
				{
					"input":73,
					"interpolation":"STEP",
					"output":80
				},
				{
					"input":81,
					"interpolation":"LINEAR",
					"output":82
				},
				{
					"input":73,
					"interpolation":"STEP",
					"output":83
				},
				{
					"input":73,
					"interpolation":"STEP",
					"output":84
				},
				{
					"input":73,
					"interpolation":"STEP",
					"output":85
				},
				{
					"input":73,
					"interpolation":"STEP",
					"output":86
				},
				{
					"input":73,
					"interpolation":"STEP",
					"output":87
				},
				{
					"input":73,
					"interpolation":"STEP",
					"output":88
				},
				{
					"input":73,
					"interpolation":"STEP",
					"output":89
				},
				{
					"input":73,
					"interpolation":"STEP",
					"output":90
				},
				{
					"input":81,
					"interpolation":"LINEAR",
					"output":91
				},
				{
					"input":73,
					"interpolation":"STEP",
					"output":92
				},
				{
					"input":73,
					"interpolation":"STEP",
					"output":93
				},
				{
					"input":81,
					"interpolation":"LINEAR",
					"output":94
				},
				{
					"input":73,
					"interpolation":"STEP",
					"output":95
				},
				{
					"input":73,
					"interpolation":"STEP",
					"output":96
				},
				{
					"input":73,
					"interpolation":"STEP",
					"output":97
				},
				{
					"input":73,
					"interpolation":"STEP",
					"output":98
				},
				{
					"input":73,
					"interpolation":"STEP",
					"output":99
				},
				{
					"input":81,
					"interpolation":"LINEAR",
					"output":100
				},
				{
					"input":73,
					"interpolation":"STEP",
					"output":101
				},
				{
					"input":73,
					"interpolation":"STEP",
					"output":102
				},
				{
					"input":73,
					"interpolation":"STEP",
					"output":103
				},
				{
					"input":73,
					"interpolation":"STEP",
					"output":104
				},
				{
					"input":73,
					"interpolation":"STEP",
					"output":105
				},
				{
					"input":73,
					"interpolation":"STEP",
					"output":106
				},
				{
					"input":73,
					"interpolation":"STEP",
					"output":107
				},
				{
					"input":73,
					"interpolation":"STEP",
					"output":108
				},
				{
					"input":81,
					"interpolation":"LINEAR",
					"output":109
				},
				{
					"input":73,
					"interpolation":"STEP",
					"output":110
				},
				{
					"input":73,
					"interpolation":"LINEAR",
					"output":111
				},
				{
					"input":73,
					"interpolation":"LINEAR",
					"output":112
				},
				{
					"input":73,
					"interpolation":"STEP",
					"output":113
				},
				{
					"input":73,
					"interpolation":"LINEAR",
					"output":114
				},
				{
					"input":73,
					"interpolation":"LINEAR",
					"output":115
				},
				{
					"input":73,
					"interpolation":"STEP",
					"output":116
				},
				{
					"input":73,
					"interpolation":"STEP",
					"output":117
				},
				{
					"input":81,
					"interpolation":"LINEAR",
					"output":118
				},
				{
					"input":73,
					"interpolation":"STEP",
					"output":119
				},
				{
					"input":73,
					"interpolation":"LINEAR",
					"output":120
				},
				{
					"input":73,
					"interpolation":"LINEAR",
					"output":121
				},
				{
					"input":73,
					"interpolation":"STEP",
					"output":122
				},
				{
					"input":73,
					"interpolation":"LINEAR",
					"output":123
				},
				{
					"input":73,
					"interpolation":"LINEAR",
					"output":124
				},
				{
					"input":73,
					"interpolation":"STEP",
					"output":125
				}
			]
		},
		{
			"channels":[
				{
					"sampler":0,
					"target":{
						"node":16,
						"path":"translation"
					}
				},
				{
					"sampler":1,
					"target":{
						"node":16,
						"path":"rotation"
					}
				},
				{
					"sampler":2,
					"target":{
						"node":16,
						"path":"scale"
					}
				},
				{
					"sampler":3,
					"target":{
						"node":9,
						"path":"translation"
					}
				},
				{
					"sampler":4,
					"target":{
						"node":9,
						"path":"rotation"
					}
				},
				{
					"sampler":5,
					"target":{
						"node":9,
						"path":"scale"
					}
				},
				{
					"sampler":6,
					"target":{
						"node":8,
						"path":"translation"
					}
				},
				{
					"sampler":7,
					"target":{
						"node":8,
						"path":"rotation"
					}
				},
				{
					"sampler":8,
					"target":{
						"node":8,
						"path":"scale"
					}
				},
				{
					"sampler":9,
					"target":{
						"node":1,
						"path":"translation"
					}
				},
				{
					"sampler":10,
					"target":{
						"node":1,
						"path":"rotation"
					}
				},
				{
					"sampler":11,
					"target":{
						"node":1,
						"path":"scale"
					}
				},
				{
					"sampler":12,
					"target":{
						"node":0,
						"path":"translation"
					}
				},
				{
					"sampler":13,
					"target":{
						"node":0,
						"path":"rotation"
					}
				},
				{
					"sampler":14,
					"target":{
						"node":0,
						"path":"scale"
					}
				},
				{
					"sampler":15,
					"target":{
						"node":4,
						"path":"translation"
					}
				},
				{
					"sampler":16,
					"target":{
						"node":4,
						"path":"rotation"
					}
				},
				{
					"sampler":17,
					"target":{
						"node":4,
						"path":"scale"
					}
				},
				{
					"sampler":18,
					"target":{
						"node":3,
						"path":"translation"
					}
				},
				{
					"sampler":19,
					"target":{
						"node":3,
						"path":"rotation"
					}
				},
				{
					"sampler":20,
					"target":{
						"node":3,
						"path":"scale"
					}
				},
				{
					"sampler":21,
					"target":{
						"node":2,
						"path":"translation"
					}
				},
				{
					"sampler":22,
					"target":{
						"node":2,
						"path":"rotation"
					}
				},
				{
					"sampler":23,
					"target":{
						"node":2,
						"path":"scale"
					}
				},
				{
					"sampler":24,
					"target":{
						"node":7,
						"path":"translation"
					}
				},
				{
					"sampler":25,
					"target":{
						"node":7,
						"path":"rotation"
					}
				},
				{
					"sampler":26,
					"target":{
						"node":7,
						"path":"scale"
					}
				},
				{
					"sampler":27,
					"target":{
						"node":6,
						"path":"translation"
					}
				},
				{
					"sampler":28,
					"target":{
						"node":6,
						"path":"rotation"
					}
				},
				{
					"sampler":29,
					"target":{
						"node":6,
						"path":"scale"
					}
				},
				{
					"sampler":30,
					"target":{
						"node":5,
						"path":"translation"
					}
				},
				{
					"sampler":31,
					"target":{
						"node":5,
						"path":"rotation"
					}
				},
				{
					"sampler":32,
					"target":{
						"node":5,
						"path":"scale"
					}
				},
				{
					"sampler":33,
					"target":{
						"node":12,
						"path":"translation"
					}
				},
				{
					"sampler":34,
					"target":{
						"node":12,
						"path":"rotation"
					}
				},
				{
					"sampler":35,
					"target":{
						"node":12,
						"path":"scale"
					}
				},
				{
					"sampler":36,
					"target":{
						"node":11,
						"path":"translation"
					}
				},
				{
					"sampler":37,
					"target":{
						"node":11,
						"path":"rotation"
					}
				},
				{
					"sampler":38,
					"target":{
						"node":11,
						"path":"scale"
					}
				},
				{
					"sampler":39,
					"target":{
						"node":10,
						"path":"translation"
					}
				},
				{
					"sampler":40,
					"target":{
						"node":10,
						"path":"rotation"
					}
				},
				{
					"sampler":41,
					"target":{
						"node":10,
						"path":"scale"
					}
				},
				{
					"sampler":42,
					"target":{
						"node":15,
						"path":"translation"
					}
				},
				{
					"sampler":43,
					"target":{
						"node":15,
						"path":"rotation"
					}
				},
				{
					"sampler":44,
					"target":{
						"node":15,
						"path":"scale"
					}
				},
				{
					"sampler":45,
					"target":{
						"node":14,
						"path":"translation"
					}
				},
				{
					"sampler":46,
					"target":{
						"node":14,
						"path":"rotation"
					}
				},
				{
					"sampler":47,
					"target":{
						"node":14,
						"path":"scale"
					}
				},
				{
					"sampler":48,
					"target":{
						"node":13,
						"path":"translation"
					}
				},
				{
					"sampler":49,
					"target":{
						"node":13,
						"path":"rotation"
					}
				},
				{
					"sampler":50,
					"target":{
						"node":13,
						"path":"scale"
					}
				}
			],
			"name":"idle",
			"samplers":[
				{
					"input":126,
					"interpolation":"LINEAR",
					"output":127
				},
				{
					"input":128,
					"interpolation":"STEP",
					"output":129
				},
				{
					"input":128,
					"interpolation":"STEP",
					"output":130
				},
				{
					"input":128,
					"interpolation":"STEP",
					"output":131
				},
				{
					"input":128,
					"interpolation":"STEP",
					"output":132
				},
				{
					"input":128,
					"interpolation":"STEP",
					"output":133
				},
				{
					"input":128,
					"interpolation":"STEP",
					"output":134
				},
				{
					"input":126,
					"interpolation":"LINEAR",
					"output":135
				},
				{
					"input":128,
					"interpolation":"STEP",
					"output":136
				},
				{
					"input":128,
					"interpolation":"STEP",
					"output":137
				},
				{
					"input":128,
					"interpolation":"STEP",
					"output":138
				},
				{
					"input":128,
					"interpolation":"STEP",
					"output":139
				},
				{
					"input":128,
					"interpolation":"STEP",
					"output":140
				},
				{
					"input":126,
					"interpolation":"LINEAR",
					"output":141
				},
				{
					"input":128,
					"interpolation":"STEP",
					"output":142
				},
				{
					"input":128,
					"interpolation":"STEP",
					"output":143
				},
				{
					"input":126,
					"interpolation":"LINEAR",
					"output":144
				},
				{
					"input":128,
					"interpolation":"STEP",
					"output":145
				},
				{
					"input":128,
					"interpolation":"STEP",
					"output":146
				},
				{
					"input":128,
					"interpolation":"STEP",
					"output":147
				},
				{
					"input":128,
					"interpolation":"STEP",
					"output":148
				},
				{
					"input":128,
					"interpolation":"STEP",
					"output":149
				},
				{
					"input":128,
					"interpolation":"STEP",
					"output":150
				},
				{
					"input":128,
					"interpolation":"STEP",
					"output":151
				},
				{
					"input":128,
					"interpolation":"STEP",
					"output":152
				},
				{
					"input":126,
					"interpolation":"LINEAR",
					"output":153
				},
				{
					"input":128,
					"interpolation":"STEP",
					"output":154
				},
				{
					"input":128,
					"interpolation":"STEP",
					"output":155
				},
				{
					"input":128,
					"interpolation":"STEP",
					"output":156
				},
				{
					"input":128,
					"interpolation":"STEP",
					"output":157
				},
				{
					"input":128,
					"interpolation":"STEP",
					"output":158
				},
				{
					"input":128,
					"interpolation":"STEP",
					"output":159
				},
				{
					"input":128,
					"interpolation":"STEP",
					"output":160
				},
				{
					"input":128,
					"interpolation":"STEP",
					"output":161
				},
				{
					"input":128,
					"interpolation":"STEP",
					"output":162
				},
				{
					"input":128,
					"interpolation":"STEP",
					"output":163
				},
				{
					"input":128,
					"interpolation":"STEP",
					"output":164
				},
				{
					"input":128,
					"interpolation":"STEP",
					"output":165
				},
				{
					"input":128,
					"interpolation":"STEP",
					"output":166
				},
				{
					"input":128,
					"interpolation":"STEP",
					"output":167
				},
				{
					"input":128,
					"interpolation":"STEP",
					"output":168
				},
				{
					"input":128,
					"interpolation":"STEP",
					"output":169
				},
				{
					"input":128,
					"interpolation":"STEP",
					"output":170
				},
				{
					"input":128,
					"interpolation":"STEP",
					"output":171
				},
				{
					"input":128,
					"interpolation":"STEP",
					"output":172
				},
				{
					"input":128,
					"interpolation":"STEP",
					"output":173
				},
				{
					"input":128,
					"interpolation":"STEP",
					"output":174
				},
				{
					"input":128,
					"interpolation":"STEP",
					"output":175
				},
				{
					"input":128,
					"interpolation":"STEP",
					"output":176
				},
				{
					"input":128,
					"interpolation":"STEP",
					"output":177
				},
				{
					"input":128,
					"interpolation":"STEP",
					"output":178
				}
			]
		},
		{
			"channels":[
				{
					"sampler":0,
					"target":{
						"node":16,
						"path":"translation"
					}
				},
				{
					"sampler":1,
					"target":{
						"node":16,
						"path":"rotation"
					}
				},
				{
					"sampler":2,
					"target":{
						"node":16,
						"path":"scale"
					}
				},
				{
					"sampler":3,
					"target":{
						"node":9,
						"path":"translation"
					}
				},
				{
					"sampler":4,
					"target":{
						"node":9,
						"path":"rotation"
					}
				},
				{
					"sampler":5,
					"target":{
						"node":9,
						"path":"scale"
					}
				},
				{
					"sampler":6,
					"target":{
						"node":8,
						"path":"translation"
					}
				},
				{
					"sampler":7,
					"target":{
						"node":8,
						"path":"rotation"
					}
				},
				{
					"sampler":8,
					"target":{
						"node":8,
						"path":"scale"
					}
				},
				{
					"sampler":9,
					"target":{
						"node":1,
						"path":"translation"
					}
				},
				{
					"sampler":10,
					"target":{
						"node":1,
						"path":"rotation"
					}
				},
				{
					"sampler":11,
					"target":{
						"node":1,
						"path":"scale"
					}
				},
				{
					"sampler":12,
					"target":{
						"node":0,
						"path":"translation"
					}
				},
				{
					"sampler":13,
					"target":{
						"node":0,
						"path":"rotation"
					}
				},
				{
					"sampler":14,
					"target":{
						"node":0,
						"path":"scale"
					}
				},
				{
					"sampler":15,
					"target":{
						"node":4,
						"path":"translation"
					}
				},
				{
					"sampler":16,
					"target":{
						"node":4,
						"path":"rotation"
					}
				},
				{
					"sampler":17,
					"target":{
						"node":4,
						"path":"scale"
					}
				},
				{
					"sampler":18,
					"target":{
						"node":3,
						"path":"translation"
					}
				},
				{
					"sampler":19,
					"target":{
						"node":3,
						"path":"rotation"
					}
				},
				{
					"sampler":20,
					"target":{
						"node":3,
						"path":"scale"
					}
				},
				{
					"sampler":21,
					"target":{
						"node":2,
						"path":"translation"
					}
				},
				{
					"sampler":22,
					"target":{
						"node":2,
						"path":"rotation"
					}
				},
				{
					"sampler":23,
					"target":{
						"node":2,
						"path":"scale"
					}
				},
				{
					"sampler":24,
					"target":{
						"node":7,
						"path":"translation"
					}
				},
				{
					"sampler":25,
					"target":{
						"node":7,
						"path":"rotation"
					}
				},
				{
					"sampler":26,
					"target":{
						"node":7,
						"path":"scale"
					}
				},
				{
					"sampler":27,
					"target":{
						"node":6,
						"path":"translation"
					}
				},
				{
					"sampler":28,
					"target":{
						"node":6,
						"path":"rotation"
					}
				},
				{
					"sampler":29,
					"target":{
						"node":6,
						"path":"scale"
					}
				},
				{
					"sampler":30,
					"target":{
						"node":5,
						"path":"translation"
					}
				},
				{
					"sampler":31,
					"target":{
						"node":5,
						"path":"rotation"
					}
				},
				{
					"sampler":32,
					"target":{
						"node":5,
						"path":"scale"
					}
				},
				{
					"sampler":33,
					"target":{
						"node":12,
						"path":"translation"
					}
				},
				{
					"sampler":34,
					"target":{
						"node":12,
						"path":"rotation"
					}
				},
				{
					"sampler":35,
					"target":{
						"node":12,
						"path":"scale"
					}
				},
				{
					"sampler":36,
					"target":{
						"node":11,
						"path":"translation"
					}
				},
				{
					"sampler":37,
					"target":{
						"node":11,
						"path":"rotation"
					}
				},
				{
					"sampler":38,
					"target":{
						"node":11,
						"path":"scale"
					}
				},
				{
					"sampler":39,
					"target":{
						"node":10,
						"path":"translation"
					}
				},
				{
					"sampler":40,
					"target":{
						"node":10,
						"path":"rotation"
					}
				},
				{
					"sampler":41,
					"target":{
						"node":10,
						"path":"scale"
					}
				},
				{
					"sampler":42,
					"target":{
						"node":15,
						"path":"translation"
					}
				},
				{
					"sampler":43,
					"target":{
						"node":15,
						"path":"rotation"
					}
				},
				{
					"sampler":44,
					"target":{
						"node":15,
						"path":"scale"
					}
				},
				{
					"sampler":45,
					"target":{
						"node":14,
						"path":"translation"
					}
				},
				{
					"sampler":46,
					"target":{
						"node":14,
						"path":"rotation"
					}
				},
				{
					"sampler":47,
					"target":{
						"node":14,
						"path":"scale"
					}
				},
				{
					"sampler":48,
					"target":{
						"node":13,
						"path":"translation"
					}
				},
				{
					"sampler":49,
					"target":{
						"node":13,
						"path":"rotation"
					}
				},
				{
					"sampler":50,
					"target":{
						"node":13,
						"path":"scale"
					}
				}
			],
			"name":"walk",
			"samplers":[
				{
					"input":179,
					"interpolation":"LINEAR",
					"output":180
				},
				{
					"input":179,
					"interpolation":"LINEAR",
					"output":181
				},
				{
					"input":182,
					"interpolation":"STEP",
					"output":183
				},
				{
					"input":182,
					"interpolation":"STEP",
					"output":184
				},
				{
					"input":182,
					"interpolation":"STEP",
					"output":185
				},
				{
					"input":182,
					"interpolation":"STEP",
					"output":186
				},
				{
					"input":182,
					"interpolation":"STEP",
					"output":187
				},
				{
					"input":179,
					"interpolation":"LINEAR",
					"output":188
				},
				{
					"input":182,
					"interpolation":"STEP",
					"output":189
				},
				{
					"input":182,
					"interpolation":"STEP",
					"output":190
				},
				{
					"input":182,
					"interpolation":"STEP",
					"output":191
				},
				{
					"input":182,
					"interpolation":"STEP",
					"output":192
				},
				{
					"input":182,
					"interpolation":"STEP",
					"output":193
				},
				{
					"input":182,
					"interpolation":"STEP",
					"output":194
				},
				{
					"input":182,
					"interpolation":"STEP",
					"output":195
				},
				{
					"input":182,
					"interpolation":"STEP",
					"output":196
				},
				{
					"input":179,
					"interpolation":"LINEAR",
					"output":197
				},
				{
					"input":182,
					"interpolation":"STEP",
					"output":198
				},
				{
					"input":182,
					"interpolation":"STEP",
					"output":199
				},
				{
					"input":182,
					"interpolation":"STEP",
					"output":200
				},
				{
					"input":182,
					"interpolation":"STEP",
					"output":201
				},
				{
					"input":182,
					"interpolation":"STEP",
					"output":202
				},
				{
					"input":182,
					"interpolation":"STEP",
					"output":203
				},
				{
					"input":182,
					"interpolation":"STEP",
					"output":204
				},
				{
					"input":182,
					"interpolation":"STEP",
					"output":205
				},
				{
					"input":179,
					"interpolation":"LINEAR",
					"output":206
				},
				{
					"input":182,
					"interpolation":"STEP",
					"output":207
				},
				{
					"input":182,
					"interpolation":"STEP",
					"output":208
				},
				{
					"input":182,
					"interpolation":"STEP",
					"output":209
				},
				{
					"input":182,
					"interpolation":"STEP",
					"output":210
				},
				{
					"input":182,
					"interpolation":"STEP",
					"output":211
				},
				{
					"input":182,
					"interpolation":"STEP",
					"output":212
				},
				{
					"input":182,
					"interpolation":"STEP",
					"output":213
				},
				{
					"input":182,
					"interpolation":"STEP",
					"output":214
				},
				{
					"input":179,
					"interpolation":"LINEAR",
					"output":215
				},
				{
					"input":182,
					"interpolation":"STEP",
					"output":216
				},
				{
					"input":182,
					"interpolation":"STEP",
					"output":217
				},
				{
					"input":179,
					"interpolation":"LINEAR",
					"output":218
				},
				{
					"input":182,
					"interpolation":"STEP",
					"output":219
				},
				{
					"input":182,
					"interpolation":"STEP",
					"output":220
				},
				{
					"input":179,
					"interpolation":"LINEAR",
					"output":221
				},
				{
					"input":182,
					"interpolation":"STEP",
					"output":222
				},
				{
					"input":182,
					"interpolation":"STEP",
					"output":223
				},
				{
					"input":179,
					"interpolation":"LINEAR",
					"output":224
				},
				{
					"input":182,
					"interpolation":"STEP",
					"output":225
				},
				{
					"input":182,
					"interpolation":"STEP",
					"output":226
				},
				{
					"input":179,
					"interpolation":"LINEAR",
					"output":227
				},
				{
					"input":182,
					"interpolation":"STEP",
					"output":228
				},
				{
					"input":182,
					"interpolation":"STEP",
					"output":229
				},
				{
					"input":179,
					"interpolation":"LINEAR",
					"output":230
				},
				{
					"input":182,
					"interpolation":"STEP",
					"output":231
				}
			]
		}
	],
	"materials":[
		{
			"name":"skin",
			"normalTexture":{
				"index":0,
				"scale":0.4000000059604645
			},
			"pbrMetallicRoughness":{
				"baseColorFactor":[
					0.9551045894622803,
					0.7105664610862732,
					0.5382355451583862,
					1
				],
				"metallicFactor":0,
				"roughnessFactor":0.550000011920929
			}
		},
		{
			"extensions":{
				"KHR_materials_sheen":{
					"sheenColorFactor":[
						1.0,
						1.0,
						1.0
					],
					"sheenRoughnessFactor":0.5
				}
			},
			"name":"hair",
			"normalTexture":{
				"index":1,
				"scale":0.800000011920929
			},
			"pbrMetallicRoughness":{
				"baseColorFactor":[
					0.9551045894622803,
					0.17064493894577026,
					0.38005632162094116,
					1
				],
				"metallicFactor":0,
				"roughnessFactor":0.44999998807907104
			}
		},
		{
			"extensions":{
				"KHR_materials_sheen":{
					"sheenColorFactor":[
						1.0,
						1.0,
						1.0
					],
					"sheenRoughnessFactor":0.5
				}
			},
			"name":"outfit",
			"normalTexture":{
				"index":2,
				"scale":0.6000000238418579
			},
			"pbrMetallicRoughness":{
				"baseColorFactor":[
					0.007194409146904945,
					0.007194409146904945,
					0.010022825561463833,
					1
				],
				"metallicFactor":0,
				"roughnessFactor":0.75
			}
		},
		{
			"name":"outfit2",
			"normalTexture":{
				"index":3,
				"scale":0.4000000059604645
			},
			"pbrMetallicRoughness":{
				"baseColorFactor":[
					0.7874122858047485,
					0.03310476616024971,
					0.07323895394802094,
					1
				],
				"metallicFactor":0,
				"roughnessFactor":0.6000000238418579
			}
		},
		{
			"name":"pants",
			"normalTexture":{
				"index":4,
				"scale":0.6000000238418579
			},
			"pbrMetallicRoughness":{
				"baseColorFactor":[
					0.004497480113059282,
					0.004497480113059282,
					0.005981059744954109,
					1
				],
				"metallicFactor":0,
				"roughnessFactor":0.800000011920929
			}
		},
		{
			"extensions":{
				"KHR_materials_clearcoat":{
					"clearcoatFactor":0.30000001192092896
				}
			},
			"name":"boots",
			"normalTexture":{
				"index":5,
				"scale":0.800000011920929
			},
			"pbrMetallicRoughness":{
				"baseColorFactor":[
					0.0134117491543293,
					0.010022825561463833,
					0.010022825561463833,
					1
				],
				"metallicFactor":0,
				"roughnessFactor":0.44999998807907104
			}
		},
		{
			"name":"eye_white",
			"pbrMetallicRoughness":{
				"baseColorFactor":[
					0.8900054097175598,
					0.8900054097175598,
					0.8900054097175598,
					1
				],
				"metallicFactor":0,
				"roughnessFactor":0.20000000298023224
			}
		},
		{
			"emissiveFactor":[
				0.043943374114965295,
				0.19112807079665117,
				0.6000000238418579
			],
			"name":"iris",
			"pbrMetallicRoughness":{
				"baseColorFactor":[
					0.07323895394802094,
					0.31854677200317383,
					1,
					1
				],
				"metallicFactor":0,
				"roughnessFactor":0.15000000596046448
			}
		},
		{
			"name":"pupil",
			"pbrMetallicRoughness":{
				"baseColorFactor":[
					0.0015479875728487968,
					0.0015479875728487968,
					0.0023219813592731953,
					1
				],
				"metallicFactor":0,
				"roughnessFactor":0.10000000149011612
			}
		},
		{
			"name":"lips",
			"pbrMetallicRoughness":{
				"baseColorFactor":[
					0.4283095896244049,
					0.32088616490364075,
					0.2448643445968628,
					1
				],
				"metallicFactor":0,
				"roughnessFactor":0.4000000059604645
			}
		},
		{
			"doubleSided":true,
			"name":"skirt",
			"normalTexture":{
				"index":6,
				"scale":0.6000000238418579
			},
			"pbrMetallicRoughness":{
				"baseColorFactor":[
					0.7874122858047485,
					0.03310476616024971,
					0.07323895394802094,
					1
				],
				"metallicFactor":0,
				"roughnessFactor":0.699999988079071
			}
		},
		{
			"name":"buckle",
			"pbrMetallicRoughness":{
				"baseColorFactor":[
					0.6920710802078247,
					0.4479884207248688,
					0.07323895394802094,
					1
				],
				"metallicFactor":0.8999999761581421,
				"roughnessFactor":0.30000001192092896
			}
		}
	],
	"meshes":[
		{
			"name":"milim",
			"primitives":[
				{
					"attributes":{
						"POSITION":0,
						"NORMAL":1,
						"TEXCOORD_0":2,
						"JOINTS_0":3,
						"WEIGHTS_0":4
					},
					"indices":5,
					"material":0
				},
				{
					"attributes":{
						"POSITION":6,
						"NORMAL":7,
						"TEXCOORD_0":8,
						"JOINTS_0":9,
						"WEIGHTS_0":10
					},
					"indices":11,
					"material":1
				},
				{
					"attributes":{
						"POSITION":12,
						"NORMAL":13,
						"TEXCOORD_0":14,
						"JOINTS_0":15,
						"WEIGHTS_0":16
					},
					"indices":17,
					"material":2
				},
				{
					"attributes":{
						"POSITION":18,
						"NORMAL":19,
						"TEXCOORD_0":20,
						"JOINTS_0":21,
						"WEIGHTS_0":22
					},
					"indices":23,
					"material":3
				},
				{
					"attributes":{
						"POSITION":24,
						"NORMAL":25,
						"TEXCOORD_0":26,
						"JOINTS_0":27,
						"WEIGHTS_0":28
					},
					"indices":29,
					"material":4
				},
				{
					"attributes":{
						"POSITION":30,
						"NORMAL":31,
						"TEXCOORD_0":32,
						"JOINTS_0":33,
						"WEIGHTS_0":34
					},
					"indices":35,
					"material":5
				},
				{
					"attributes":{
						"POSITION":36,
						"NORMAL":37,
						"TEXCOORD_0":38,
						"JOINTS_0":39,
						"WEIGHTS_0":40
					},
					"indices":41,
					"material":6
				},
				{
					"attributes":{
						"POSITION":42,
						"NORMAL":43,
						"TEXCOORD_0":44,
						"JOINTS_0":45,
						"WEIGHTS_0":46
					},
					"indices":47,
					"material":7
				},
				{
					"attributes":{
						"POSITION":48,
						"NORMAL":49,
						"TEXCOORD_0":50,
						"JOINTS_0":51,
						"WEIGHTS_0":52
					},
					"indices":53,
					"material":8
				},
				{
					"attributes":{
						"POSITION":54,
						"NORMAL":55,
						"TEXCOORD_0":56,
						"JOINTS_0":57,
						"WEIGHTS_0":58
					},
					"indices":59,
					"material":9
				},
				{
					"attributes":{
						"POSITION":60,
						"NORMAL":61,
						"TEXCOORD_0":62,
						"JOINTS_0":63,
						"WEIGHTS_0":64
					},
					"indices":65,
					"material":10
				},
				{
					"attributes":{
						"POSITION":66,
						"NORMAL":67,
						"TEXCOORD_0":68,
						"JOINTS_0":69,
						"WEIGHTS_0":70
					},
					"indices":71,
					"material":11
				}
			]
		}
	],
	"textures":[
		{
			"sampler":0,
			"source":0
		},
		{
			"sampler":0,
			"source":1
		},
		{
			"sampler":0,
			"source":2
		},
		{
			"sampler":0,
			"source":2
		},
		{
			"sampler":0,
			"source":2
		},
		{
			"sampler":0,
			"source":3
		},
		{
			"sampler":0,
			"source":2
		}
	],
	"images":[
		{
			"mimeType":"image/png",
			"name":"N_skin",
			"uri":"texturas/N_skin.png"
		},
		{
			"mimeType":"image/png",
			"name":"N_hair",
			"uri":"texturas/N_hair.png"
		},
		{
			"mimeType":"image/png",
			"name":"N_cloth",
			"uri":"texturas/N_cloth.png"
		},
		{
			"mimeType":"image/png",
			"name":"N_leather",
			"uri":"texturas/N_leather.png"
		}
	],
	"skins":[
		{
			"inverseBindMatrices":72,
			"joints":[
				16,
				9,
				8,
				1,
				0,
				4,
				3,
				2,
				7,
				6,
				5,
				12,
				11,
				10,
				15,
				14,
				13
			],
			"name":"milim_rig"
		}
	],
	"accessors":[
		{
			"bufferView":0,
			"componentType":5126,
			"count":1409,
			"max":[
				0.21156001091003418,
				1.4271999597549438,
				0.08577004820108414
			],
			"min":[
				-0.21156001091003418,
				0.6275742650032043,
				-0.09286138415336609
			],
			"type":"VEC3"
		},
		{
			"bufferView":1,
			"componentType":5126,
			"count":1409,
			"type":"VEC3"
		},
		{
			"bufferView":2,
			"componentType":5126,
			"count":1409,
			"type":"VEC2"
		},
		{
			"bufferView":3,
			"componentType":5121,
			"count":1409,
			"type":"VEC4"
		},
		{
			"bufferView":4,
			"componentType":5126,
			"count":1409,
			"type":"VEC4"
		},
		{
			"bufferView":5,
			"componentType":5123,
			"count":5808,
			"type":"SCALAR"
		},
		{
			"bufferView":6,
			"componentType":5126,
			"count":4330,
			"max":[
				0.20449960231781006,
				1.4487780332565308,
				0.11002569645643234
			],
			"min":[
				-0.20264290273189545,
				0.943901538848877,
				-0.09385138750076294
			],
			"type":"VEC3"
		},
		{
			"bufferView":7,
			"componentType":5126,
			"count":4330,
			"type":"VEC3"
		},
		{
			"bufferView":8,
			"componentType":5126,
			"count":4330,
			"type":"VEC2"
		},
		{
			"bufferView":9,
			"componentType":5121,
			"count":4330,
			"type":"VEC4"
		},
		{
			"bufferView":10,
			"componentType":5126,
			"count":4330,
			"type":"VEC4"
		},
		{
			"bufferView":11,
			"componentType":5123,
			"count":12648,
			"type":"SCALAR"
		},
		{
			"bufferView":12,
			"componentType":5126,
			"count":1916,
			"max":[
				0.21361246705055237,
				1.1750425100326538,
				0.07207182049751282
			],
			"min":[
				-0.21361243724822998,
				0.73808354139328,
				-0.09600000083446503
			],
			"type":"VEC3"
		},
		{
			"bufferView":13,
			"componentType":5126,
			"count":1916,
			"type":"VEC3"
		},
		{
			"bufferView":14,
			"componentType":5126,
			"count":1916,
			"type":"VEC2"
		},
		{
			"bufferView":15,
			"componentType":5121,
			"count":1916,
			"type":"VEC4"
		},
		{
			"bufferView":16,
			"componentType":5126,
			"count":1916,
			"type":"VEC4"
		},
		{
			"bufferView":17,
			"componentType":5123,
			"count":8652,
			"type":"SCALAR"
		},
		{
			"bufferView":18,
			"componentType":5126,
			"count":76,
			"max":[
				0.126273974776268,
				0.798105001449585,
				0.08546581119298935
			],
			"min":[
				-0.126273974776268,
				0.7039394378662109,
				-0.08695418387651443
			],
			"type":"VEC3"
		},
		{
			"bufferView":19,
			"componentType":5126,
			"count":76,
			"type":"VEC3"
		},
		{
			"bufferView":20,
			"componentType":5126,
			"count":76,
			"type":"VEC2"
		},
		{
			"bufferView":21,
			"componentType":5121,
			"count":76,
			"type":"VEC4"
		},
		{
			"bufferView":22,
			"componentType":5126,
			"count":76,
			"type":"VEC4"
		},
		{
			"bufferView":23,
			"componentType":5123,
			"count":264,
			"type":"SCALAR"
		},
		{
			"bufferView":24,
			"componentType":5126,
			"count":995,
			"max":[
				0.2122155874967575,
				0.7557304501533508,
				0.08524298667907715
			],
			"min":[
				-0.2122155874967575,
				0.24117565155029297,
				-0.08695418387651443
			],
			"type":"VEC3"
		},
		{
			"bufferView":25,
			"componentType":5126,
			"count":995,
			"type":"VEC3"
		},
		{
			"bufferView":26,
			"componentType":5126,
			"count":995,
			"type":"VEC2"
		},
		{
			"bufferView":27,
			"componentType":5121,
			"count":995,
			"type":"VEC4"
		},
		{
			"bufferView":28,
			"componentType":5126,
			"count":995,
			"type":"VEC4"
		},
		{
			"bufferView":29,
			"componentType":5123,
			"count":4380,
			"type":"SCALAR"
		},
		{
			"bufferView":30,
			"componentType":5126,
			"count":1034,
			"max":[
				0.1363554447889328,
				0.2457411140203476,
				0.05900575593113899
			],
			"min":[
				-0.1363554298877716,
				0.006079509388655424,
				-0.11209630966186523
			],
			"type":"VEC3"
		},
		{
			"bufferView":31,
			"componentType":5126,
			"count":1034,
			"type":"VEC3"
		},
		{
			"bufferView":32,
			"componentType":5126,
			"count":1034,
			"type":"VEC2"
		},
		{
			"bufferView":33,
			"componentType":5121,
			"count":1034,
			"type":"VEC4"
		},
		{
			"bufferView":34,
			"componentType":5126,
			"count":1034,
			"type":"VEC4"
		},
		{
			"bufferView":35,
			"componentType":5123,
			"count":4608,
			"type":"SCALAR"
		},
		{
			"bufferView":36,
			"componentType":5126,
			"count":304,
			"max":[
				0.040800001472234726,
				1.3492000102996826,
				-0.0560000017285347
			],
			"min":[
				-0.040800001472234726,
				1.33079993724823,
				-0.07039999961853027
			],
			"type":"VEC3"
		},
		{
			"bufferView":37,
			"componentType":5126,
			"count":304,
			"type":"VEC3"
		},
		{
			"bufferView":38,
			"componentType":5126,
			"count":304,
			"type":"VEC2"
		},
		{
			"bufferView":39,
			"componentType":5121,
			"count":304,
			"type":"VEC4"
		},
		{
			"bufferView":40,
			"componentType":5126,
			"count":304,
			"type":"VEC4"
		},
		{
			"bufferView":41,
			"componentType":5123,
			"count":1152,
			"type":"SCALAR"
		},
		{
			"bufferView":42,
			"componentType":5126,
			"count":220,
			"max":[
				0.03480000048875809,
				1.3478400707244873,
				-0.06497620046138763
			],
			"min":[
				-0.03480000048875809,
				1.3321599960327148,
				-0.07182380557060242
			],
			"type":"VEC3"
		},
		{
			"bufferView":43,
			"componentType":5126,
			"count":220,
			"type":"VEC3"
		},
		{
			"bufferView":44,
			"componentType":5126,
			"count":220,
			"type":"VEC2"
		},
		{
			"bufferView":45,
			"componentType":5121,
			"count":220,
			"type":"VEC4"
		},
		{
			"bufferView":46,
			"componentType":5126,
			"count":220,
			"type":"VEC4"
		},
		{
			"bufferView":47,
			"componentType":5123,
			"count":720,
			"type":"SCALAR"
		},
		{
			"bufferView":48,
			"componentType":5126,
			"count":160,
			"max":[
				0.030395550653338432,
				1.3436000347137451,
				-0.0695183128118515
			],
			"min":[
				-0.030395550653338432,
				1.336400032043457,
				-0.07256169617176056
			],
			"type":"VEC3"
		},
		{
			"bufferView":49,
			"componentType":5126,
			"count":160,
			"type":"VEC3"
		},
		{
			"bufferView":50,
			"componentType":5126,
			"count":160,
			"type":"VEC2"
		},
		{
			"bufferView":51,
			"componentType":5121,
			"count":160,
			"type":"VEC4"
		},
		{
			"bufferView":52,
			"componentType":5126,
			"count":160,
			"type":"VEC4"
		},
		{
			"bufferView":53,
			"componentType":5123,
			"count":480,
			"type":"SCALAR"
		},
		{
			"bufferView":54,
			"componentType":5126,
			"count":98,
			"max":[
				0.015199999324977398,
				1.2860000133514404,
				-0.06217619776725769
			],
			"min":[
				-0.015199999324977398,
				1.2788000106811523,
				-0.06902381032705307
			],
			"type":"VEC3"
		},
		{
			"bufferView":55,
			"componentType":5126,
			"count":98,
			"type":"VEC3"
		},
		{
			"bufferView":56,
			"componentType":5126,
			"count":98,
			"type":"VEC2"
		},
		{
			"bufferView":57,
			"componentType":5121,
			"count":98,
			"type":"VEC4"
		},
		{
			"bufferView":58,
			"componentType":5126,
			"count":98,
			"type":"VEC4"
		},
		{
			"bufferView":59,
			"componentType":5123,
			"count":360,
			"type":"SCALAR"
		},
		{
			"bufferView":60,
			"componentType":5126,
			"count":78,
			"max":[
				0.21119999885559082,
				0.800000011920929,
				0.1672402322292328
			],
			"min":[
				-0.21119999885559082,
				0.5440000295639038,
				-0.1672402322292328
			],
			"type":"VEC3"
		},
		{
			"bufferView":61,
			"componentType":5126,
			"count":78,
			"type":"VEC3"
		},
		{
			"bufferView":62,
			"componentType":5126,
			"count":78,
			"type":"VEC2"
		},
		{
			"bufferView":63,
			"componentType":5121,
			"count":78,
			"type":"VEC4"
		},
		{
			"bufferView":64,
			"componentType":5126,
			"count":78,
			"type":"VEC4"
		},
		{
			"bufferView":65,
			"componentType":5123,
			"count":264,
			"type":"SCALAR"
		},
		{
			"bufferView":66,
			"componentType":5126,
			"count":24,
			"max":[
				0.020000001415610313,
				0.7760000228881836,
				-0.0828000009059906
			],
			"min":[
				-0.020000001415610313,
				0.7440000176429749,
				-0.09240000694990158
			],
			"type":"VEC3"
		},
		{
			"bufferView":67,
			"componentType":5126,
			"count":24,
			"type":"VEC3"
		},
		{
			"bufferView":68,
			"componentType":5126,
			"count":24,
			"type":"VEC2"
		},
		{
			"bufferView":69,
			"componentType":5121,
			"count":24,
			"type":"VEC4"
		},
		{
			"bufferView":70,
			"componentType":5126,
			"count":24,
			"type":"VEC4"
		},
		{
			"bufferView":71,
			"componentType":5123,
			"count":36,
			"type":"SCALAR"
		},
		{
			"bufferView":72,
			"componentType":5126,
			"count":17,
			"type":"MAT4"
		},
		{
			"bufferView":73,
			"componentType":5126,
			"count":2,
			"max":[
				0.6
			],
			"min":[
				0
			],
			"type":"SCALAR"
		},
		{
			"bufferView":74,
			"componentType":5126,
			"count":2,
			"type":"VEC3"
		},
		{
			"bufferView":75,
			"componentType":5126,
			"count":2,
			"type":"VEC4"
		},
		{
			"bufferView":76,
			"componentType":5126,
			"count":2,
			"type":"VEC3"
		},
		{
			"bufferView":77,
			"componentType":5126,
			"count":2,
			"type":"VEC3"
		},
		{
			"bufferView":78,
			"componentType":5126,
			"count":2,
			"type":"VEC4"
		},
		{
			"bufferView":79,
			"componentType":5126,
			"count":2,
			"type":"VEC3"
		},
		{
			"bufferView":80,
			"componentType":5126,
			"count":2,
			"type":"VEC3"
		},
		{
			"bufferView":81,
			"componentType":5126,
			"count":19,
			"max":[
				0.6
			],
			"min":[
				0
			],
			"type":"SCALAR"
		},
		{
			"bufferView":82,
			"componentType":5126,
			"count":19,
			"type":"VEC4"
		},
		{
			"bufferView":83,
			"componentType":5126,
			"count":2,
			"type":"VEC3"
		},
		{
			"bufferView":84,
			"componentType":5126,
			"count":2,
			"type":"VEC3"
		},
		{
			"bufferView":85,
			"componentType":5126,
			"count":2,
			"type":"VEC4"
		},
		{
			"bufferView":86,
			"componentType":5126,
			"count":2,
			"type":"VEC3"
		},
		{
			"bufferView":87,
			"componentType":5126,
			"count":2,
			"type":"VEC3"
		},
		{
			"bufferView":88,
			"componentType":5126,
			"count":2,
			"type":"VEC4"
		},
		{
			"bufferView":89,
			"componentType":5126,
			"count":2,
			"type":"VEC3"
		},
		{
			"bufferView":90,
			"componentType":5126,
			"count":2,
			"type":"VEC3"
		},
		{
			"bufferView":91,
			"componentType":5126,
			"count":19,
			"type":"VEC4"
		},
		{
			"bufferView":92,
			"componentType":5126,
			"count":2,
			"type":"VEC3"
		},
		{
			"bufferView":93,
			"componentType":5126,
			"count":2,
			"type":"VEC3"
		},
		{
			"bufferView":94,
			"componentType":5126,
			"count":19,
			"type":"VEC4"
		},
		{
			"bufferView":95,
			"componentType":5126,
			"count":2,
			"type":"VEC3"
		},
		{
			"bufferView":96,
			"componentType":5126,
			"count":2,
			"type":"VEC3"
		},
		{
			"bufferView":97,
			"componentType":5126,
			"count":2,
			"type":"VEC4"
		},
		{
			"bufferView":98,
			"componentType":5126,
			"count":2,
			"type":"VEC3"
		},
		{
			"bufferView":99,
			"componentType":5126,
			"count":2,
			"type":"VEC3"
		},
		{
			"bufferView":100,
			"componentType":5126,
			"count":19,
			"type":"VEC4"
		},
		{
			"bufferView":101,
			"componentType":5126,
			"count":2,
			"type":"VEC3"
		},
		{
			"bufferView":102,
			"componentType":5126,
			"count":2,
			"type":"VEC3"
		},
		{
			"bufferView":103,
			"componentType":5126,
			"count":2,
			"type":"VEC4"
		},
		{
			"bufferView":104,
			"componentType":5126,
			"count":2,
			"type":"VEC3"
		},
		{
			"bufferView":105,
			"componentType":5126,
			"count":2,
			"type":"VEC3"
		},
		{
			"bufferView":106,
			"componentType":5126,
			"count":2,
			"type":"VEC4"
		},
		{
			"bufferView":107,
			"componentType":5126,
			"count":2,
			"type":"VEC3"
		},
		{
			"bufferView":108,
			"componentType":5126,
			"count":2,
			"type":"VEC3"
		},
		{
			"bufferView":109,
			"componentType":5126,
			"count":19,
			"type":"VEC4"
		},
		{
			"bufferView":110,
			"componentType":5126,
			"count":2,
			"type":"VEC3"
		},
		{
			"bufferView":111,
			"componentType":5126,
			"count":2,
			"type":"VEC3"
		},
		{
			"bufferView":112,
			"componentType":5126,
			"count":2,
			"type":"VEC4"
		},
		{
			"bufferView":113,
			"componentType":5126,
			"count":2,
			"type":"VEC3"
		},
		{
			"bufferView":114,
			"componentType":5126,
			"count":2,
			"type":"VEC3"
		},
		{
			"bufferView":115,
			"componentType":5126,
			"count":2,
			"type":"VEC4"
		},
		{
			"bufferView":116,
			"componentType":5126,
			"count":2,
			"type":"VEC3"
		},
		{
			"bufferView":117,
			"componentType":5126,
			"count":2,
			"type":"VEC3"
		},
		{
			"bufferView":118,
			"componentType":5126,
			"count":19,
			"type":"VEC4"
		},
		{
			"bufferView":119,
			"componentType":5126,
			"count":2,
			"type":"VEC3"
		},
		{
			"bufferView":120,
			"componentType":5126,
			"count":2,
			"type":"VEC3"
		},
		{
			"bufferView":121,
			"componentType":5126,
			"count":2,
			"type":"VEC4"
		},
		{
			"bufferView":122,
			"componentType":5126,
			"count":2,
			"type":"VEC3"
		},
		{
			"bufferView":123,
			"componentType":5126,
			"count":2,
			"type":"VEC3"
		},
		{
			"bufferView":124,
			"componentType":5126,
			"count":2,
			"type":"VEC4"
		},
		{
			"bufferView":125,
			"componentType":5126,
			"count":2,
			"type":"VEC3"
		},
		{
			"bufferView":126,
			"componentType":5126,
			"count":61,
			"max":[
				2
			],
			"min":[
				0
			],
			"type":"SCALAR"
		},
		{
			"bufferView":127,
			"componentType":5126,
			"count":61,
			"type":"VEC3"
		},
		{
			"bufferView":128,
			"componentType":5126,
			"count":2,
			"max":[
				2
			],
			"min":[
				0
			],
			"type":"SCALAR"
		},
		{
			"bufferView":129,
			"componentType":5126,
			"count":2,
			"type":"VEC4"
		},
		{
			"bufferView":130,
			"componentType":5126,
			"count":2,
			"type":"VEC3"
		},
		{
			"bufferView":131,
			"componentType":5126,
			"count":2,
			"type":"VEC3"
		},
		{
			"bufferView":132,
			"componentType":5126,
			"count":2,
			"type":"VEC4"
		},
		{
			"bufferView":133,
			"componentType":5126,
			"count":2,
			"type":"VEC3"
		},
		{
			"bufferView":134,
			"componentType":5126,
			"count":2,
			"type":"VEC3"
		},
		{
			"bufferView":135,
			"componentType":5126,
			"count":61,
			"type":"VEC4"
		},
		{
			"bufferView":136,
			"componentType":5126,
			"count":2,
			"type":"VEC3"
		},
		{
			"bufferView":137,
			"componentType":5126,
			"count":2,
			"type":"VEC3"
		},
		{
			"bufferView":138,
			"componentType":5126,
			"count":2,
			"type":"VEC4"
		},
		{
			"bufferView":139,
			"componentType":5126,
			"count":2,
			"type":"VEC3"
		},
		{
			"bufferView":140,
			"componentType":5126,
			"count":2,
			"type":"VEC3"
		},
		{
			"bufferView":141,
			"componentType":5126,
			"count":61,
			"type":"VEC4"
		},
		{
			"bufferView":142,
			"componentType":5126,
			"count":2,
			"type":"VEC3"
		},
		{
			"bufferView":143,
			"componentType":5126,
			"count":2,
			"type":"VEC3"
		},
		{
			"bufferView":144,
			"componentType":5126,
			"count":61,
			"type":"VEC4"
		},
		{
			"bufferView":145,
			"componentType":5126,
			"count":2,
			"type":"VEC3"
		},
		{
			"bufferView":146,
			"componentType":5126,
			"count":2,
			"type":"VEC3"
		},
		{
			"bufferView":147,
			"componentType":5126,
			"count":2,
			"type":"VEC4"
		},
		{
			"bufferView":148,
			"componentType":5126,
			"count":2,
			"type":"VEC3"
		},
		{
			"bufferView":149,
			"componentType":5126,
			"count":2,
			"type":"VEC3"
		},
		{
			"bufferView":150,
			"componentType":5126,
			"count":2,
			"type":"VEC4"
		},
		{
			"bufferView":151,
			"componentType":5126,
			"count":2,
			"type":"VEC3"
		},
		{
			"bufferView":152,
			"componentType":5126,
			"count":2,
			"type":"VEC3"
		},
		{
			"bufferView":153,
			"componentType":5126,
			"count":61,
			"type":"VEC4"
		},
		{
			"bufferView":154,
			"componentType":5126,
			"count":2,
			"type":"VEC3"
		},
		{
			"bufferView":155,
			"componentType":5126,
			"count":2,
			"type":"VEC3"
		},
		{
			"bufferView":156,
			"componentType":5126,
			"count":2,
			"type":"VEC4"
		},
		{
			"bufferView":157,
			"componentType":5126,
			"count":2,
			"type":"VEC3"
		},
		{
			"bufferView":158,
			"componentType":5126,
			"count":2,
			"type":"VEC3"
		},
		{
			"bufferView":159,
			"componentType":5126,
			"count":2,
			"type":"VEC4"
		},
		{
			"bufferView":160,
			"componentType":5126,
			"count":2,
			"type":"VEC3"
		},
		{
			"bufferView":161,
			"componentType":5126,
			"count":2,
			"type":"VEC3"
		},
		{
			"bufferView":162,
			"componentType":5126,
			"count":2,
			"type":"VEC4"
		},
		{
			"bufferView":163,
			"componentType":5126,
			"count":2,
			"type":"VEC3"
		},
		{
			"bufferView":164,
			"componentType":5126,
			"count":2,
			"type":"VEC3"
		},
		{
			"bufferView":165,
			"componentType":5126,
			"count":2,
			"type":"VEC4"
		},
		{
			"bufferView":166,
			"componentType":5126,
			"count":2,
			"type":"VEC3"
		},
		{
			"bufferView":167,
			"componentType":5126,
			"count":2,
			"type":"VEC3"
		},
		{
			"bufferView":168,
			"componentType":5126,
			"count":2,
			"type":"VEC4"
		},
		{
			"bufferView":169,
			"componentType":5126,
			"count":2,
			"type":"VEC3"
		},
		{
			"bufferView":170,
			"componentType":5126,
			"count":2,
			"type":"VEC3"
		},
		{
			"bufferView":171,
			"componentType":5126,
			"count":2,
			"type":"VEC4"
		},
		{
			"bufferView":172,
			"componentType":5126,
			"count":2,
			"type":"VEC3"
		},
		{
			"bufferView":173,
			"componentType":5126,
			"count":2,
			"type":"VEC3"
		},
		{
			"bufferView":174,
			"componentType":5126,
			"count":2,
			"type":"VEC4"
		},
		{
			"bufferView":175,
			"componentType":5126,
			"count":2,
			"type":"VEC3"
		},
		{
			"bufferView":176,
			"componentType":5126,
			"count":2,
			"type":"VEC3"
		},
		{
			"bufferView":177,
			"componentType":5126,
			"count":2,
			"type":"VEC4"
		},
		{
			"bufferView":178,
			"componentType":5126,
			"count":2,
			"type":"VEC3"
		},
		{
			"bufferView":179,
			"componentType":5126,
			"count":31,
			"max":[
				1
			],
			"min":[
				0
			],
			"type":"SCALAR"
		},
		{
			"bufferView":180,
			"componentType":5126,
			"count":31,
			"type":"VEC3"
		},
		{
			"bufferView":181,
			"componentType":5126,
			"count":31,
			"type":"VEC4"
		},
		{
			"bufferView":182,
			"componentType":5126,
			"count":2,
			"max":[
				1
			],
			"min":[
				0
			],
			"type":"SCALAR"
		},
		{
			"bufferView":183,
			"componentType":5126,
			"count":2,
			"type":"VEC3"
		},
		{
			"bufferView":184,
			"componentType":5126,
			"count":2,
			"type":"VEC3"
		},
		{
			"bufferView":185,
			"componentType":5126,
			"count":2,
			"type":"VEC4"
		},
		{
			"bufferView":186,
			"componentType":5126,
			"count":2,
			"type":"VEC3"
		},
		{
			"bufferView":187,
			"componentType":5126,
			"count":2,
			"type":"VEC3"
		},
		{
			"bufferView":188,
			"componentType":5126,
			"count":31,
			"type":"VEC4"
		},
		{
			"bufferView":189,
			"componentType":5126,
			"count":2,
			"type":"VEC3"
		},
		{
			"bufferView":190,
			"componentType":5126,
			"count":2,
			"type":"VEC3"
		},
		{
			"bufferView":191,
			"componentType":5126,
			"count":2,
			"type":"VEC4"
		},
		{
			"bufferView":192,
			"componentType":5126,
			"count":2,
			"type":"VEC3"
		},
		{
			"bufferView":193,
			"componentType":5126,
			"count":2,
			"type":"VEC3"
		},
		{
			"bufferView":194,
			"componentType":5126,
			"count":2,
			"type":"VEC4"
		},
		{
			"bufferView":195,
			"componentType":5126,
			"count":2,
			"type":"VEC3"
		},
		{
			"bufferView":196,
			"componentType":5126,
			"count":2,
			"type":"VEC3"
		},
		{
			"bufferView":197,
			"componentType":5126,
			"count":31,
			"type":"VEC4"
		},
		{
			"bufferView":198,
			"componentType":5126,
			"count":2,
			"type":"VEC3"
		},
		{
			"bufferView":199,
			"componentType":5126,
			"count":2,
			"type":"VEC3"
		},
		{
			"bufferView":200,
			"componentType":5126,
			"count":2,
			"type":"VEC4"
		},
		{
			"bufferView":201,
			"componentType":5126,
			"count":2,
			"type":"VEC3"
		},
		{
			"bufferView":202,
			"componentType":5126,
			"count":2,
			"type":"VEC3"
		},
		{
			"bufferView":203,
			"componentType":5126,
			"count":2,
			"type":"VEC4"
		},
		{
			"bufferView":204,
			"componentType":5126,
			"count":2,
			"type":"VEC3"
		},
		{
			"bufferView":205,
			"componentType":5126,
			"count":2,
			"type":"VEC3"
		},
		{
			"bufferView":206,
			"componentType":5126,
			"count":31,
			"type":"VEC4"
		},
		{
			"bufferView":207,
			"componentType":5126,
			"count":2,
			"type":"VEC3"
		},
		{
			"bufferView":208,
			"componentType":5126,
			"count":2,
			"type":"VEC3"
		},
		{
			"bufferView":209,
			"componentType":5126,
			"count":2,
			"type":"VEC4"
		},
		{
			"bufferView":210,
			"componentType":5126,
			"count":2,
			"type":"VEC3"
		},
		{
			"bufferView":211,
			"componentType":5126,
			"count":2,
			"type":"VEC3"
		},
		{
			"bufferView":212,
			"componentType":5126,
			"count":2,
			"type":"VEC4"
		},
		{
			"bufferView":213,
			"componentType":5126,
			"count":2,
			"type":"VEC3"
		},
		{
			"bufferView":214,
			"componentType":5126,
			"count":2,
			"type":"VEC3"
		},
		{
			"bufferView":215,
			"componentType":5126,
			"count":31,
			"type":"VEC4"
		},
		{
			"bufferView":216,
			"componentType":5126,
			"count":2,
			"type":"VEC3"
		},
		{
			"bufferView":217,
			"componentType":5126,
			"count":2,
			"type":"VEC3"
		},
		{
			"bufferView":218,
			"componentType":5126,
			"count":31,
			"type":"VEC4"
		},
		{
			"bufferView":219,
			"componentType":5126,
			"count":2,
			"type":"VEC3"
		},
		{
			"bufferView":220,
			"componentType":5126,
			"count":2,
			"type":"VEC3"
		},
		{
			"bufferView":221,
			"componentType":5126,
			"count":31,
			"type":"VEC4"
		},
		{
			"bufferView":222,
			"componentType":5126,
			"count":2,
			"type":"VEC3"
		},
		{
			"bufferView":223,
			"componentType":5126,
			"count":2,
			"type":"VEC3"
		},
		{
			"bufferView":224,
			"componentType":5126,
			"count":31,
			"type":"VEC4"
		},
		{
			"bufferView":225,
			"componentType":5126,
			"count":2,
			"type":"VEC3"
		},
		{
			"bufferView":226,
			"componentType":5126,
			"count":2,
			"type":"VEC3"
		},
		{
			"bufferView":227,
			"componentType":5126,
			"count":31,
			"type":"VEC4"
		},
		{
			"bufferView":228,
			"componentType":5126,
			"count":2,
			"type":"VEC3"
		},
		{
			"bufferView":229,
			"componentType":5126,
			"count":2,
			"type":"VEC3"
		},
		{
			"bufferView":230,
			"componentType":5126,
			"count":31,
			"type":"VEC4"
		},
		{
			"bufferView":231,
			"componentType":5126,
			"count":2,
			"type":"VEC3"
		}
	],
	"bufferViews":[
		{
			"buffer":0,
			"byteLength":16908,
			"byteOffset":0,
			"target":34962
		},
		{
			"buffer":0,
			"byteLength":16908,
			"byteOffset":16908,
			"target":34962
		},
		{
			"buffer":0,
			"byteLength":11272,
			"byteOffset":33816,
			"target":34962
		},
		{
			"buffer":0,
			"byteLength":5636,
			"byteOffset":45088,
			"target":34962
		},
		{
			"buffer":0,
			"byteLength":22544,
			"byteOffset":50724,
			"target":34962
		},
		{
			"buffer":0,
			"byteLength":11616,
			"byteOffset":73268,
			"target":34963
		},
		{
			"buffer":0,
			"byteLength":51960,
			"byteOffset":84884,
			"target":34962
		},
		{
			"buffer":0,
			"byteLength":51960,
			"byteOffset":136844,
			"target":34962
		},
		{
			"buffer":0,
			"byteLength":34640,
			"byteOffset":188804,
			"target":34962
		},
		{
			"buffer":0,
			"byteLength":17320,
			"byteOffset":223444,
			"target":34962
		},
		{
			"buffer":0,
			"byteLength":69280,
			"byteOffset":240764,
			"target":34962
		},
		{
			"buffer":0,
			"byteLength":25296,
			"byteOffset":310044,
			"target":34963
		},
		{
			"buffer":0,
			"byteLength":22992,
			"byteOffset":335340,
			"target":34962
		},
		{
			"buffer":0,
			"byteLength":22992,
			"byteOffset":358332,
			"target":34962
		},
		{
			"buffer":0,
			"byteLength":15328,
			"byteOffset":381324,
			"target":34962
		},
		{
			"buffer":0,
			"byteLength":7664,
			"byteOffset":396652,
			"target":34962
		},
		{
			"buffer":0,
			"byteLength":30656,
			"byteOffset":404316,
			"target":34962
		},
		{
			"buffer":0,
			"byteLength":17304,
			"byteOffset":434972,
			"target":34963
		},
		{
			"buffer":0,
			"byteLength":912,
			"byteOffset":452276,
			"target":34962
		},
		{
			"buffer":0,
			"byteLength":912,
			"byteOffset":453188,
			"target":34962
		},
		{
			"buffer":0,
			"byteLength":608,
			"byteOffset":454100,
			"target":34962
		},
		{
			"buffer":0,
			"byteLength":304,
			"byteOffset":454708,
			"target":34962
		},
		{
			"buffer":0,
			"byteLength":1216,
			"byteOffset":455012,
			"target":34962
		},
		{
			"buffer":0,
			"byteLength":528,
			"byteOffset":456228,
			"target":34963
		},
		{
			"buffer":0,
			"byteLength":11940,
			"byteOffset":456756,
			"target":34962
		},
		{
			"buffer":0,
			"byteLength":11940,
			"byteOffset":468696,
			"target":34962
		},
		{
			"buffer":0,
			"byteLength":7960,
			"byteOffset":480636,
			"target":34962
		},
		{
			"buffer":0,
			"byteLength":3980,
			"byteOffset":488596,
			"target":34962
		},
		{
			"buffer":0,
			"byteLength":15920,
			"byteOffset":492576,
			"target":34962
		},
		{
			"buffer":0,
			"byteLength":8760,
			"byteOffset":508496,
			"target":34963
		},
		{
			"buffer":0,
			"byteLength":12408,
			"byteOffset":517256,
			"target":34962
		},
		{
			"buffer":0,
			"byteLength":12408,
			"byteOffset":529664,
			"target":34962
		},
		{
			"buffer":0,
			"byteLength":8272,
			"byteOffset":542072,
			"target":34962
		},
		{
			"buffer":0,
			"byteLength":4136,
			"byteOffset":550344,
			"target":34962
		},
		{
			"buffer":0,
			"byteLength":16544,
			"byteOffset":554480,
			"target":34962
		},
		{
			"buffer":0,
			"byteLength":9216,
			"byteOffset":571024,
			"target":34963
		},
		{
			"buffer":0,
			"byteLength":3648,
			"byteOffset":580240,
			"target":34962
		},
		{
			"buffer":0,
			"byteLength":3648,
			"byteOffset":583888,
			"target":34962
		},
		{
			"buffer":0,
			"byteLength":2432,
			"byteOffset":587536,
			"target":34962
		},
		{
			"buffer":0,
			"byteLength":1216,
			"byteOffset":589968,
			"target":34962
		},
		{
			"buffer":0,
			"byteLength":4864,
			"byteOffset":591184,
			"target":34962
		},
		{
			"buffer":0,
			"byteLength":2304,
			"byteOffset":596048,
			"target":34963
		},
		{
			"buffer":0,
			"byteLength":2640,
			"byteOffset":598352,
			"target":34962
		},
		{
			"buffer":0,
			"byteLength":2640,
			"byteOffset":600992,
			"target":34962
		},
		{
			"buffer":0,
			"byteLength":1760,
			"byteOffset":603632,
			"target":34962
		},
		{
			"buffer":0,
			"byteLength":880,
			"byteOffset":605392,
			"target":34962
		},
		{
			"buffer":0,
			"byteLength":3520,
			"byteOffset":606272,
			"target":34962
		},
		{
			"buffer":0,
			"byteLength":1440,
			"byteOffset":609792,
			"target":34963
		},
		{
			"buffer":0,
			"byteLength":1920,
			"byteOffset":611232,
			"target":34962
		},
		{
			"buffer":0,
			"byteLength":1920,
			"byteOffset":613152,
			"target":34962
		},
		{
			"buffer":0,
			"byteLength":1280,
			"byteOffset":615072,
			"target":34962
		},
		{
			"buffer":0,
			"byteLength":640,
			"byteOffset":616352,
			"target":34962
		},
		{
			"buffer":0,
			"byteLength":2560,
			"byteOffset":616992,
			"target":34962
		},
		{
			"buffer":0,
			"byteLength":960,
			"byteOffset":619552,
			"target":34963
		},
		{
			"buffer":0,
			"byteLength":1176,
			"byteOffset":620512,
			"target":34962
		},
		{
			"buffer":0,
			"byteLength":1176,
			"byteOffset":621688,
			"target":34962
		},
		{
			"buffer":0,
			"byteLength":784,
			"byteOffset":622864,
			"target":34962
		},
		{
			"buffer":0,
			"byteLength":392,
			"byteOffset":623648,
			"target":34962
		},
		{
			"buffer":0,
			"byteLength":1568,
			"byteOffset":624040,
			"target":34962
		},
		{
			"buffer":0,
			"byteLength":720,
			"byteOffset":625608,
			"target":34963
		},
		{
			"buffer":0,
			"byteLength":936,
			"byteOffset":626328,
			"target":34962
		},
		{
			"buffer":0,
			"byteLength":936,
			"byteOffset":627264,
			"target":34962
		},
		{
			"buffer":0,
			"byteLength":624,
			"byteOffset":628200,
			"target":34962
		},
		{
			"buffer":0,
			"byteLength":312,
			"byteOffset":628824,
			"target":34962
		},
		{
			"buffer":0,
			"byteLength":1248,
			"byteOffset":629136,
			"target":34962
		},
		{
			"buffer":0,
			"byteLength":528,
			"byteOffset":630384,
			"target":34963
		},
		{
			"buffer":0,
			"byteLength":288,
			"byteOffset":630912,
			"target":34962
		},
		{
			"buffer":0,
			"byteLength":288,
			"byteOffset":631200,
			"target":34962
		},
		{
			"buffer":0,
			"byteLength":192,
			"byteOffset":631488,
			"target":34962
		},
		{
			"buffer":0,
			"byteLength":96,
			"byteOffset":631680,
			"target":34962
		},
		{
			"buffer":0,
			"byteLength":384,
			"byteOffset":631776,
			"target":34962
		},
		{
			"buffer":0,
			"byteLength":72,
			"byteOffset":632160,
			"target":34963
		},
		{
			"buffer":0,
			"byteLength":1088,
			"byteOffset":632232
		},
		{
			"buffer":0,
			"byteLength":8,
			"byteOffset":633320
		},
		{
			"buffer":0,
			"byteLength":24,
			"byteOffset":633328
		},
		{
			"buffer":0,
			"byteLength":32,
			"byteOffset":633352
		},
		{
			"buffer":0,
			"byteLength":24,
			"byteOffset":633384
		},
		{
			"buffer":0,
			"byteLength":24,
			"byteOffset":633408
		},
		{
			"buffer":0,
			"byteLength":32,
			"byteOffset":633432
		},
		{
			"buffer":0,
			"byteLength":24,
			"byteOffset":633464
		},
		{
			"buffer":0,
			"byteLength":24,
			"byteOffset":633488
		},
		{
			"buffer":0,
			"byteLength":76,
			"byteOffset":633512
		},
		{
			"buffer":0,
			"byteLength":304,
			"byteOffset":633588
		},
		{
			"buffer":0,
			"byteLength":24,
			"byteOffset":633892
		},
		{
			"buffer":0,
			"byteLength":24,
			"byteOffset":633916
		},
		{
			"buffer":0,
			"byteLength":32,
			"byteOffset":633940
		},
		{
			"buffer":0,
			"byteLength":24,
			"byteOffset":633972
		},
		{
			"buffer":0,
			"byteLength":24,
			"byteOffset":633996
		},
		{
			"buffer":0,
			"byteLength":32,
			"byteOffset":634020
		},
		{
			"buffer":0,
			"byteLength":24,
			"byteOffset":634052
		},
		{
			"buffer":0,
			"byteLength":24,
			"byteOffset":634076
		},
		{
			"buffer":0,
			"byteLength":304,
			"byteOffset":634100
		},
		{
			"buffer":0,
			"byteLength":24,
			"byteOffset":634404
		},
		{
			"buffer":0,
			"byteLength":24,
			"byteOffset":634428
		},
		{
			"buffer":0,
			"byteLength":304,
			"byteOffset":634452
		},
		{
			"buffer":0,
			"byteLength":24,
			"byteOffset":634756
		},
		{
			"buffer":0,
			"byteLength":24,
			"byteOffset":634780
		},
		{
			"buffer":0,
			"byteLength":32,
			"byteOffset":634804
		},
		{
			"buffer":0,
			"byteLength":24,
			"byteOffset":634836
		},
		{
			"buffer":0,
			"byteLength":24,
			"byteOffset":634860
		},
		{
			"buffer":0,
			"byteLength":304,
			"byteOffset":634884
		},
		{
			"buffer":0,
			"byteLength":24,
			"byteOffset":635188
		},
		{
			"buffer":0,
			"byteLength":24,
			"byteOffset":635212
		},
		{
			"buffer":0,
			"byteLength":32,
			"byteOffset":635236
		},
		{
			"buffer":0,
			"byteLength":24,
			"byteOffset":635268
		},
		{
			"buffer":0,
			"byteLength":24,
			"byteOffset":635292
		},
		{
			"buffer":0,
			"byteLength":32,
			"byteOffset":635316
		},
		{
			"buffer":0,
			"byteLength":24,
			"byteOffset":635348
		},
		{
			"buffer":0,
			"byteLength":24,
			"byteOffset":635372
		},
		{
			"buffer":0,
			"byteLength":304,
			"byteOffset":635396
		},
		{
			"buffer":0,
			"byteLength":24,
			"byteOffset":635700
		},
		{
			"buffer":0,
			"byteLength":24,
			"byteOffset":635724
		},
		{
			"buffer":0,
			"byteLength":32,
			"byteOffset":635748
		},
		{
			"buffer":0,
			"byteLength":24,
			"byteOffset":635780
		},
		{
			"buffer":0,
			"byteLength":24,
			"byteOffset":635804
		},
		{
			"buffer":0,
			"byteLength":32,
			"byteOffset":635828
		},
		{
			"buffer":0,
			"byteLength":24,
			"byteOffset":635860
		},
		{
			"buffer":0,
			"byteLength":24,
			"byteOffset":635884
		},
		{
			"buffer":0,
			"byteLength":304,
			"byteOffset":635908
		},
		{
			"buffer":0,
			"byteLength":24,
			"byteOffset":636212
		},
		{
			"buffer":0,
			"byteLength":24,
			"byteOffset":636236
		},
		{
			"buffer":0,
			"byteLength":32,
			"byteOffset":636260
		},
		{
			"buffer":0,
			"byteLength":24,
			"byteOffset":636292
		},
		{
			"buffer":0,
			"byteLength":24,
			"byteOffset":636316
		},
		{
			"buffer":0,
			"byteLength":32,
			"byteOffset":636340
		},
		{
			"buffer":0,
			"byteLength":24,
			"byteOffset":636372
		},
		{
			"buffer":0,
			"byteLength":244,
			"byteOffset":636396
		},
		{
			"buffer":0,
			"byteLength":732,
			"byteOffset":636640
		},
		{
			"buffer":0,
			"byteLength":8,
			"byteOffset":637372
		},
		{
			"buffer":0,
			"byteLength":32,
			"byteOffset":637380
		},
		{
			"buffer":0,
			"byteLength":24,
			"byteOffset":637412
		},
		{
			"buffer":0,
			"byteLength":24,
			"byteOffset":637436
		},
		{
			"buffer":0,
			"byteLength":32,
			"byteOffset":637460
		},
		{
			"buffer":0,
			"byteLength":24,
			"byteOffset":637492
		},
		{
			"buffer":0,
			"byteLength":24,
			"byteOffset":637516
		},
		{
			"buffer":0,
			"byteLength":976,
			"byteOffset":637540
		},
		{
			"buffer":0,
			"byteLength":24,
			"byteOffset":638516
		},
		{
			"buffer":0,
			"byteLength":24,
			"byteOffset":638540
		},
		{
			"buffer":0,
			"byteLength":32,
			"byteOffset":638564
		},
		{
			"buffer":0,
			"byteLength":24,
			"byteOffset":638596
		},
		{
			"buffer":0,
			"byteLength":24,
			"byteOffset":638620
		},
		{
			"buffer":0,
			"byteLength":976,
			"byteOffset":638644
		},
		{
			"buffer":0,
			"byteLength":24,
			"byteOffset":639620
		},
		{
			"buffer":0,
			"byteLength":24,
			"byteOffset":639644
		},
		{
			"buffer":0,
			"byteLength":976,
			"byteOffset":639668
		},
		{
			"buffer":0,
			"byteLength":24,
			"byteOffset":640644
		},
		{
			"buffer":0,
			"byteLength":24,
			"byteOffset":640668
		},
		{
			"buffer":0,
			"byteLength":32,
			"byteOffset":640692
		},
		{
			"buffer":0,
			"byteLength":24,
			"byteOffset":640724
		},
		{
			"buffer":0,
			"byteLength":24,
			"byteOffset":640748
		},
		{
			"buffer":0,
			"byteLength":32,
			"byteOffset":640772
		},
		{
			"buffer":0,
			"byteLength":24,
			"byteOffset":640804
		},
		{
			"buffer":0,
			"byteLength":24,
			"byteOffset":640828
		},
		{
			"buffer":0,
			"byteLength":976,
			"byteOffset":640852
		},
		{
			"buffer":0,
			"byteLength":24,
			"byteOffset":641828
		},
		{
			"buffer":0,
			"byteLength":24,
			"byteOffset":641852
		},
		{
			"buffer":0,
			"byteLength":32,
			"byteOffset":641876
		},
		{
			"buffer":0,
			"byteLength":24,
			"byteOffset":641908
		},
		{
			"buffer":0,
			"byteLength":24,
			"byteOffset":641932
		},
		{
			"buffer":0,
			"byteLength":32,
			"byteOffset":641956
		},
		{
			"buffer":0,
			"byteLength":24,
			"byteOffset":641988
		},
		{
			"buffer":0,
			"byteLength":24,
			"byteOffset":642012
		},
		{
			"buffer":0,
			"byteLength":32,
			"byteOffset":642036
		},
		{
			"buffer":0,
			"byteLength":24,
			"byteOffset":642068
		},
		{
			"buffer":0,
			"byteLength":24,
			"byteOffset":642092
		},
		{
			"buffer":0,
			"byteLength":32,
			"byteOffset":642116
		},
		{
			"buffer":0,
			"byteLength":24,
			"byteOffset":642148
		},
		{
			"buffer":0,
			"byteLength":24,
			"byteOffset":642172
		},
		{
			"buffer":0,
			"byteLength":32,
			"byteOffset":642196
		},
		{
			"buffer":0,
			"byteLength":24,
			"byteOffset":642228
		},
		{
			"buffer":0,
			"byteLength":24,
			"byteOffset":642252
		},
		{
			"buffer":0,
			"byteLength":32,
			"byteOffset":642276
		},
		{
			"buffer":0,
			"byteLength":24,
			"byteOffset":642308
		},
		{
			"buffer":0,
			"byteLength":24,
			"byteOffset":642332
		},
		{
			"buffer":0,
			"byteLength":32,
			"byteOffset":642356
		},
		{
			"buffer":0,
			"byteLength":24,
			"byteOffset":642388
		},
		{
			"buffer":0,
			"byteLength":24,
			"byteOffset":642412
		},
		{
			"buffer":0,
			"byteLength":32,
			"byteOffset":642436
		},
		{
			"buffer":0,
			"byteLength":24,
			"byteOffset":642468
		},
		{
			"buffer":0,
			"byteLength":124,
			"byteOffset":642492
		},
		{
			"buffer":0,
			"byteLength":372,
			"byteOffset":642616
		},
		{
			"buffer":0,
			"byteLength":496,
			"byteOffset":642988
		},
		{
			"buffer":0,
			"byteLength":8,
			"byteOffset":643484
		},
		{
			"buffer":0,
			"byteLength":24,
			"byteOffset":643492
		},
		{
			"buffer":0,
			"byteLength":24,
			"byteOffset":643516
		},
		{
			"buffer":0,
			"byteLength":32,
			"byteOffset":643540
		},
		{
			"buffer":0,
			"byteLength":24,
			"byteOffset":643572
		},
		{
			"buffer":0,
			"byteLength":24,
			"byteOffset":643596
		},
		{
			"buffer":0,
			"byteLength":496,
			"byteOffset":643620
		},
		{
			"buffer":0,
			"byteLength":24,
			"byteOffset":644116
		},
		{
			"buffer":0,
			"byteLength":24,
			"byteOffset":644140
		},
		{
			"buffer":0,
			"byteLength":32,
			"byteOffset":644164
		},
		{
			"buffer":0,
			"byteLength":24,
			"byteOffset":644196
		},
		{
			"buffer":0,
			"byteLength":24,
			"byteOffset":644220
		},
		{
			"buffer":0,
			"byteLength":32,
			"byteOffset":644244
		},
		{
			"buffer":0,
			"byteLength":24,
			"byteOffset":644276
		},
		{
			"buffer":0,
			"byteLength":24,
			"byteOffset":644300
		},
		{
			"buffer":0,
			"byteLength":496,
			"byteOffset":644324
		},
		{
			"buffer":0,
			"byteLength":24,
			"byteOffset":644820
		},
		{
			"buffer":0,
			"byteLength":24,
			"byteOffset":644844
		},
		{
			"buffer":0,
			"byteLength":32,
			"byteOffset":644868
		},
		{
			"buffer":0,
			"byteLength":24,
			"byteOffset":644900
		},
		{
			"buffer":0,
			"byteLength":24,
			"byteOffset":644924
		},
		{
			"buffer":0,
			"byteLength":32,
			"byteOffset":644948
		},
		{
			"buffer":0,
			"byteLength":24,
			"byteOffset":644980
		},
		{
			"buffer":0,
			"byteLength":24,
			"byteOffset":645004
		},
		{
			"buffer":0,
			"byteLength":496,
			"byteOffset":645028
		},
		{
			"buffer":0,
			"byteLength":24,
			"byteOffset":645524
		},
		{
			"buffer":0,
			"byteLength":24,
			"byteOffset":645548
		},
		{
			"buffer":0,
			"byteLength":32,
			"byteOffset":645572
		},
		{
			"buffer":0,
			"byteLength":24,
			"byteOffset":645604
		},
		{
			"buffer":0,
			"byteLength":24,
			"byteOffset":645628
		},
		{
			"buffer":0,
			"byteLength":32,
			"byteOffset":645652
		},
		{
			"buffer":0,
			"byteLength":24,
			"byteOffset":645684
		},
		{
			"buffer":0,
			"byteLength":24,
			"byteOffset":645708
		},
		{
			"buffer":0,
			"byteLength":496,
			"byteOffset":645732
		},
		{
			"buffer":0,
			"byteLength":24,
			"byteOffset":646228
		},
		{
			"buffer":0,
			"byteLength":24,
			"byteOffset":646252
		},
		{
			"buffer":0,
			"byteLength":496,
			"byteOffset":646276
		},
		{
			"buffer":0,
			"byteLength":24,
			"byteOffset":646772
		},
		{
			"buffer":0,
			"byteLength":24,
			"byteOffset":646796
		},
		{
			"buffer":0,
			"byteLength":496,
			"byteOffset":646820
		},
		{
			"buffer":0,
			"byteLength":24,
			"byteOffset":647316
		},
		{
			"buffer":0,
			"byteLength":24,
			"byteOffset":647340
		},
		{
			"buffer":0,
			"byteLength":496,
			"byteOffset":647364
		},
		{
			"buffer":0,
			"byteLength":24,
			"byteOffset":647860
		},
		{
			"buffer":0,
			"byteLength":24,
			"byteOffset":647884
		},
		{
			"buffer":0,
			"byteLength":496,
			"byteOffset":647908
		},
		{
			"buffer":0,
			"byteLength":24,
			"byteOffset":648404
		},
		{
			"buffer":0,
			"byteLength":24,
			"byteOffset":648428
		},
		{
			"buffer":0,
			"byteLength":496,
			"byteOffset":648452
		},
		{
			"buffer":0,
			"byteLength":24,
			"byteOffset":648948
		}
	],
	"samplers":[
		{
			"magFilter":9729,
			"minFilter":9987
		}
	],
	"buffers":[
		{
			"byteLength":648972,
			"uri":"milim.bin"
		}
	]
}
