{
	"asset":{
		"generator":"Khronos glTF Blender I/O v4.2.57",
		"version":"2.0"
	},
	"extensionsUsed":[
		"KHR_materials_clearcoat",
		"KHR_materials_sheen"
	],
	"scene":0,
	"scenes":[
		{
			"name":"Scene",
			"nodes":[
				18
			]
		}
	],
	"nodes":[
		{
			"name":"head",
			"translation":[
				0,
				0.13499987125396729,
				0
			]
		},
		{
			"children":[
				0
			],
			"name":"neck",
			"translation":[
				0,
				0.283500075340271,
				0
			]
		},
		{
			"name":"hand.R",
			"rotation":[
				-0.004066523164510727,
				-0.02869984693825245,
				0.030803948640823364,
				0.9991050362586975
			],
			"translation":[
				4.9709342420101166e-08,
				0.3410307765007019,
				1.6763806343078613e-08
			]
		},
		{
			"children":[
				2
			],
			"name":"forearm.R",
			"rotation":[
				0.0425911471247673,
				-0.06978467106819153,
				0.0812496468424797,
				0.9933350682258606
			],
			"scale":[
				1,
				1.0000001192092896,
				1.0000001192092896
			],
			"translation":[
				-3.026798367500305e-09,
				0.37780067324638367,
				-1.6763806343078613e-08
			]
		},
		{
			"children":[
				3
			],
			"name":"upper_arm.R",
			"rotation":[
				0.9822396039962769,
				0.1326747089624405,
				0.13267530500888824,
				0.0002687291125766933
			],
			"scale":[
				0.9999955892562866,
				0.9999995231628418,
				0.9999998807907104
			],
			"translation":[
				0.4082399904727936,
				0.21599996089935303,
				0
			]
		},
		{
			"name":"hand.L",
			"rotation":[
				-0.004066523164510727,
				0.02869984693825245,
				-0.030803948640823364,
				0.9991050362586975
			],
			"translation":[
				-4.9709342420101166e-08,
				0.3410307765007019,
				1.6763806343078613e-08
			]
		},
		{
			"children":[
				5
			],
			"name":"forearm.L",
			"rotation":[
				0.0425911471247673,
				0.06978467106819153,
				-0.0812496468424797,
				0.9933350682258606
			],
			"scale":[
				1,
				1.0000001192092896,
				1.0000001192092896
			],
			"translation":[
				3.026798367500305e-09,
				0.37780067324638367,
				-1.6763806343078613e-08
			]
		},
		{
			"children":[
				6
			],
			"name":"upper_arm.L",
			"rotation":[
				0.9822396039962769,
				-0.1326747089624405,
				-0.13267530500888824,
				0.0002687291125766933
			],
			"scale":[
				0.9999955892562866,
				0.9999995231628418,
				0.9999998807907104
			],
			"translation":[
				-0.4082399904727936,
				0.21599996089935303,
				0
			]
		},
		{
			"children":[
				1,
				4,
				7
			],
			"name":"chest",
			"translation":[
				0,
				0.2294999361038208,
				0
			]
		},
		{
			"children":[
				8
			],
			"name":"spine",
			"translation":[
				0,
				0.20249998569488525,
				0
			]
		},
		{
			"name":"foot.R",
			"rotation":[
				0.5914180278778076,
				-3.223224132042901e-09,
				-1.2452301412224642e-09,
				0.8063651323318481
			],
			"translation":[
				1.4273635606798507e-08,
				0.5542961359024048,
				3.5580285384639865e-09
			]
		},
		{
			"children":[
				10
			],
			"name":"shin.R",
			"rotation":[
				-0.04159494489431381,
				-0.013807994313538074,
				0.013086956925690174,
				0.9989534020423889
			],
			"scale":[
				1,
				0.9999999403953552,
				1
			],
			"translation":[
				6.4319465309381485e-09,
				0.5539433360099792,
				9.313225746154785e-10
			]
		},
		{
			"children":[
				11
			],
			"name":"thigh.R",
			"rotation":[
				-0.9997093677520752,
				-0.013452315703034401,
				-0.013452411629259586,
				0.014807699248194695
			],
			"scale":[
				1.000000238418579,
				1,
				1.0000003576278687
			],
			"translation":[
				0.17388001084327698,
				-0.027000069618225098,
				0
			]
		},
		{
			"name":"foot.L",
			"rotation":[
				0.5914180278778076,
				3.223224132042901e-09,
				1.2452301412224642e-09,
				0.8063651323318481
			],
			"translation":[
				-1.4273635606798507e-08,
				0.5542961359024048,
				3.5580285384639865e-09
			]
		},
		{
			"children":[
				13
			],
			"name":"shin.L",
			"rotation":[
				-0.04159494489431381,
				0.013807994313538074,
				-0.013086956925690174,
				0.9989534020423889
			],
			"scale":[
				1,
				0.9999999403953552,
				1
			],
			"translation":[
				-6.4319465309381485e-09,
				0.5539433360099792,
				9.313225746154785e-10
			]
		},
		{
			"children":[
				14
			],
			"name":"thigh.L",
			"rotation":[
				-0.9997093677520752,
				0.013452315703034401,
				0.013452411629259586,
				0.014807699248194695
			],
			"scale":[
				1.000000238418579,
				1,
				1.0000003576278687
			],
			"translation":[
				-0.17388001084327698,
				-0.027000069618225098,
				0
			]
		},
		{
			"children":[
				9,
				12,
				15
			],
			"name":"hips",
			"translation":[
				0,
				1.255500078201294,
				0
			]
		},
		{
			"mesh":0,
			"name":"ogre",
			"skin":0
		},
		{
			"children":[
				17,
				16
			],
			"name":"ogre_rig"
		}
	],
	"animations":[
		{
			"channels":[
				{
					"sampler":0,
					"target":{
						"node":16,
						"path":"translation"
					}
				},
				{
					"sampler":1,
					"target":{
						"node":16,
						"path":"rotation"
					}
				},
				{
					"sampler":2,
					"target":{
						"node":16,
						"path":"scale"
					}
				},
				{
					"sampler":3,
					"target":{
						"node":9,
						"path":"translation"
					}
				},
				{
					"sampler":4,
					"target":{
						"node":9,
						"path":"rotation"
					}
				},
				{
					"sampler":5,
					"target":{
						"node":9,
						"path":"scale"
					}
				},
				{
					"sampler":6,
					"target":{
						"node":8,
						"path":"translation"
					}
				},
				{
					"sampler":7,
					"target":{
						"node":8,
						"path":"rotation"
					}
				},
				{
					"sampler":8,
					"target":{
						"node":8,
						"path":"scale"
					}
				},
				{
					"sampler":9,
					"target":{
						"node":1,
						"path":"translation"
					}
				},
				{
					"sampler":10,
					"target":{
						"node":1,
						"path":"rotation"
					}
				},
				{
					"sampler":11,
					"target":{
						"node":1,
						"path":"scale"
					}
				},
				{
					"sampler":12,
					"target":{
						"node":0,
						"path":"translation"
					}
				},
				{
					"sampler":13,
					"target":{
						"node":0,
						"path":"rotation"
					}
				},
				{
					"sampler":14,
					"target":{
						"node":0,
						"path":"scale"
					}
				},
				{
					"sampler":15,
					"target":{
						"node":4,
						"path":"translation"
					}
				},
				{
					"sampler":16,
					"target":{
						"node":4,
						"path":"rotation"
					}
				},
				{
					"sampler":17,
					"target":{
						"node":4,
						"path":"scale"
					}
				},
				{
					"sampler":18,
					"target":{
						"node":3,
						"path":"translation"
					}
				},
				{
					"sampler":19,
					"target":{
						"node":3,
						"path":"rotation"
					}
				},
				{
					"sampler":20,
					"target":{
						"node":3,
						"path":"scale"
					}
				},
				{
					"sampler":21,
					"target":{
						"node":2,
						"path":"translation"
					}
				},
				{
					"sampler":22,
					"target":{
						"node":2,
						"path":"rotation"
					}
				},
				{
					"sampler":23,
					"target":{
						"node":2,
						"path":"scale"
					}
				},
				{
					"sampler":24,
					"target":{
						"node":7,
						"path":"translation"
					}
				},
				{
					"sampler":25,
					"target":{
						"node":7,
						"path":"rotation"
					}
				},
				{
					"sampler":26,
					"target":{
						"node":7,
						"path":"scale"
					}
				},
				{
					"sampler":27,
					"target":{
						"node":6,
						"path":"translation"
					}
				},
				{
					"sampler":28,
					"target":{
						"node":6,
						"path":"rotation"
					}
				},
				{
					"sampler":29,
					"target":{
						"node":6,
						"path":"scale"
					}
				},
				{
					"sampler":30,
					"target":{
						"node":5,
						"path":"translation"
					}
				},
				{
					"sampler":31,
					"target":{
						"node":5,
						"path":"rotation"
					}
				},
				{
					"sampler":32,
					"target":{
						"node":5,
						"path":"scale"
					}
				},
				{
					"sampler":33,
					"target":{
						"node":12,
						"path":"translation"
					}
				},
				{
					"sampler":34,
					"target":{
						"node":12,
						"path":"rotation"
					}
				},
				{
					"sampler":35,
					"target":{
						"node":12,
						"path":"scale"
					}
				},
				{
					"sampler":36,
					"target":{
						"node":11,
						"path":"translation"
					}
				},
				{
					"sampler":37,
					"target":{
						"node":11,
						"path":"rotation"
					}
				},
				{
					"sampler":38,
					"target":{
						"node":11,
						"path":"scale"
					}
				},
				{
					"sampler":39,
					"target":{
						"node":10,
						"path":"translation"
					}
				},
				{
					"sampler":40,
					"target":{
						"node":10,
						"path":"rotation"
					}
				},
				{
					"sampler":41,
					"target":{
						"node":10,
						"path":"scale"
					}
				},
				{
					"sampler":42,
					"target":{
						"node":15,
						"path":"translation"
					}
				},
				{
					"sampler":43,
					"target":{
						"node":15,
						"path":"rotation"
					}
				},
				{
					"sampler":44,
					"target":{
						"node":15,
						"path":"scale"
					}
				},
				{
					"sampler":45,
					"target":{
						"node":14,
						"path":"translation"
					}
				},
				{
					"sampler":46,
					"target":{
						"node":14,
						"path":"rotation"
					}
				},
				{
					"sampler":47,
					"target":{
						"node":14,
						"path":"scale"
					}
				},
				{
					"sampler":48,
					"target":{
						"node":13,
						"path":"translation"
					}
				},
				{
					"sampler":49,
					"target":{
						"node":13,
						"path":"rotation"
					}
				},
				{
					"sampler":50,
					"target":{
						"node":13,
						"path":"scale"
					}
				}
			],
			"name":"attack",
			"samplers":[
				{
					"input":79,
					"interpolation":"STEP",
					"output":80
				},
				{
					"input":79,
					"interpolation":"STEP",
					"output":81
				},
				{
					"input":79,
					"interpolation":"STEP",
					"output":82
				},
				{
					"input":79,
					"interpolation":"STEP",
					"output":83
				},
				{
					"input":79,
					"interpolation":"STEP",
					"output":84
				},
				{
					"input":79,
					"interpolation":"STEP",
					"output":85
				},
				{
					"input":79,
					"interpolation":"STEP",
					"output":86
				},
				{
					"input":87,
					"interpolation":"LINEAR",
					"output":88
				},
				{
					"input":79,
					"interpolation":"STEP",
					"output":89
				},
				{
					"input":79,
					"interpolation":"STEP",
					"output":90
				},
				{
					"input":79,
					"interpolation":"STEP",
					"output":91
				},
				{
					"input":79,
					"interpolation":"STEP",
					"output":92
				},
				{
					"input":79,
					"interpolation":"STEP",
					"output":93
				},
				{
					"input":79,
					"interpolation":"STEP",
					"output":94
				},
				{
					"input":79,
					"interpolation":"STEP",
					"output":95
				},
				{
					"input":79,
					"interpolation":"STEP",
					"output":96
				},
				{
					"input":87,
					"interpolation":"LINEAR",
					"output":97
				},
				{
					"input":79,
					"interpolation":"STEP",
					"output":98
				},
				{
					"input":79,
					"interpolation":"LINEAR",
					"output":99
				},
				{
					"input":87,
					"interpolation":"LINEAR",
					"output":100
				},
				{
					"input":79,
					"interpolation":"STEP",
					"output":101
				},
				{
					"input":79,
					"interpolation":"LINEAR",
					"output":102
				},
				{
					"input":79,
					"interpolation":"LINEAR",
					"output":103
				},
				{
					"input":79,
					"interpolation":"STEP",
					"output":104
				},
				{
					"input":79,
					"interpolation":"STEP",
					"output":105
				},
				{
					"input":87,
					"interpolation":"LINEAR",
					"output":106
				},
				{
					"input":79,
					"interpolation":"STEP",
					"output":107
				},
				{
					"input":79,
					"interpolation":"STEP",
					"output":108
				},
				{
					"input":79,
					"interpolation":"STEP",
					"output":109
				},
				{
					"input":79,
					"interpolation":"STEP",
					"output":110
				},
				{
					"input":79,
					"interpolation":"STEP",
					"output":111
				},
				{
					"input":79,
					"interpolation":"STEP",
					"output":112
				},
				{
					"input":79,
					"interpolation":"STEP",
					"output":113
				},
				{
					"input":79,
					"interpolation":"STEP",
					"output":114
				},
				{
					"input":87,
					"interpolation":"LINEAR",
					"output":115
				},
				{
					"input":79,
					"interpolation":"STEP",
					"output":116
				},
				{
					"input":79,
					"interpolation":"LINEAR",
					"output":117
				},
				{
					"input":79,
					"interpolation":"LINEAR",
					"output":118
				},
				{
					"input":79,
					"interpolation":"STEP",
					"output":119
				},
				{
					"input":79,
					"interpolation":"LINEAR",
					"output":120
				},
				{
					"input":79,
					"interpolation":"LINEAR",
					"output":121
				},
				{
					"input":79,
					"interpolation":"STEP",
					"output":122
				},
				{
					"input":79,
					"interpolation":"STEP",
					"output":123
				},
				{
					"input":87,
					"interpolation":"LINEAR",
					"output":124
				},
				{
					"input":79,
					"interpolation":"STEP",
					"output":125
				},
				{
					"input":79,
					"interpolation":"LINEAR",
					"output":126
				},
				{
					"input":79,
					"interpolation":"LINEAR",
					"output":127
				},
				{
					"input":79,
					"interpolation":"STEP",
					"output":128
				},
				{
					"input":79,
					"interpolation":"LINEAR",
					"output":129
				},
				{
					"input":79,
					"interpolation":"LINEAR",
					"output":130
				},
				{
					"input":79,
					"interpolation":"STEP",
					"output":131
				}
			]
		},
		{
			"channels":[
				{
					"sampler":0,
					"target":{
						"node":16,
						"path":"translation"
					}
				},
				{
					"sampler":1,
					"target":{
						"node":16,
						"path":"rotation"
					}
				},
				{
					"sampler":2,
					"target":{
						"node":16,
						"path":"scale"
					}
				},
				{
					"sampler":3,
					"target":{
						"node":9,
						"path":"translation"
					}
				},
				{
					"sampler":4,
					"target":{
						"node":9,
						"path":"rotation"
					}
				},
				{
					"sampler":5,
					"target":{
						"node":9,
						"path":"scale"
					}
				},
				{
					"sampler":6,
					"target":{
						"node":8,
						"path":"translation"
					}
				},
				{
					"sampler":7,
					"target":{
						"node":8,
						"path":"rotation"
					}
				},
				{
					"sampler":8,
					"target":{
						"node":8,
						"path":"scale"
					}
				},
				{
					"sampler":9,
					"target":{
						"node":1,
						"path":"translation"
					}
				},
				{
					"sampler":10,
					"target":{
						"node":1,
						"path":"rotation"
					}
				},
				{
					"sampler":11,
					"target":{
						"node":1,
						"path":"scale"
					}
				},
				{
					"sampler":12,
					"target":{
						"node":0,
						"path":"translation"
					}
				},
				{
					"sampler":13,
					"target":{
						"node":0,
						"path":"rotation"
					}
				},
				{
					"sampler":14,
					"target":{
						"node":0,
						"path":"scale"
					}
				},
				{
					"sampler":15,
					"target":{
						"node":4,
						"path":"translation"
					}
				},
				{
					"sampler":16,
					"target":{
						"node":4,
						"path":"rotation"
					}
				},
				{
					"sampler":17,
					"target":{
						"node":4,
						"path":"scale"
					}
				},
				{
					"sampler":18,
					"target":{
						"node":3,
						"path":"translation"
					}
				},
				{
					"sampler":19,
					"target":{
						"node":3,
						"path":"rotation"
					}
				},
				{
					"sampler":20,
					"target":{
						"node":3,
						"path":"scale"
					}
				},
				{
					"sampler":21,
					"target":{
						"node":2,
						"path":"translation"
					}
				},
				{
					"sampler":22,
					"target":{
						"node":2,
						"path":"rotation"
					}
				},
				{
					"sampler":23,
					"target":{
						"node":2,
						"path":"scale"
					}
				},
				{
					"sampler":24,
					"target":{
						"node":7,
						"path":"translation"
					}
				},
				{
					"sampler":25,
					"target":{
						"node":7,
						"path":"rotation"
					}
				},
				{
					"sampler":26,
					"target":{
						"node":7,
						"path":"scale"
					}
				},
				{
					"sampler":27,
					"target":{
						"node":6,
						"path":"translation"
					}
				},
				{
					"sampler":28,
					"target":{
						"node":6,
						"path":"rotation"
					}
				},
				{
					"sampler":29,
					"target":{
						"node":6,
						"path":"scale"
					}
				},
				{
					"sampler":30,
					"target":{
						"node":5,
						"path":"translation"
					}
				},
				{
					"sampler":31,
					"target":{
						"node":5,
						"path":"rotation"
					}
				},
				{
					"sampler":32,
					"target":{
						"node":5,
						"path":"scale"
					}
				},
				{
					"sampler":33,
					"target":{
						"node":12,
						"path":"translation"
					}
				},
				{
					"sampler":34,
					"target":{
						"node":12,
						"path":"rotation"
					}
				},
				{
					"sampler":35,
					"target":{
						"node":12,
						"path":"scale"
					}
				},
				{
					"sampler":36,
					"target":{
						"node":11,
						"path":"translation"
					}
				},
				{
					"sampler":37,
					"target":{
						"node":11,
						"path":"rotation"
					}
				},
				{
					"sampler":38,
					"target":{
						"node":11,
						"path":"scale"
					}
				},
				{
					"sampler":39,
					"target":{
						"node":10,
						"path":"translation"
					}
				},
				{
					"sampler":40,
					"target":{
						"node":10,
						"path":"rotation"
					}
				},
				{
					"sampler":41,
					"target":{
						"node":10,
						"path":"scale"
					}
				},
				{
					"sampler":42,
					"target":{
						"node":15,
						"path":"translation"
					}
				},
				{
					"sampler":43,
					"target":{
						"node":15,
						"path":"rotation"
					}
				},
				{
					"sampler":44,
					"target":{
						"node":15,
						"path":"scale"
					}
				},
				{
					"sampler":45,
					"target":{
						"node":14,
						"path":"translation"
					}
				},
				{
					"sampler":46,
					"target":{
						"node":14,
						"path":"rotation"
					}
				},
				{
					"sampler":47,
					"target":{
						"node":14,
						"path":"scale"
					}
				},
				{
					"sampler":48,
					"target":{
						"node":13,
						"path":"translation"
					}
				},
				{
					"sampler":49,
					"target":{
						"node":13,
						"path":"rotation"
					}
				},
				{
					"sampler":50,
					"target":{
						"node":13,
						"path":"scale"
					}
				}
			],
			"name":"idle",
			"samplers":[
				{
					"input":132,
					"interpolation":"LINEAR",
					"output":133
				},
				{
					"input":134,
					"interpolation":"STEP",
					"output":135
				},
				{
					"input":134,
					"interpolation":"STEP",
					"output":136
				},
				{
					"input":134,
					"interpolation":"STEP",
					"output":137
				},
				{
					"input":134,
					"interpolation":"STEP",
					"output":138
				},
				{
					"input":134,
					"interpolation":"STEP",
					"output":139
				},
				{
					"input":134,
					"interpolation":"STEP",
					"output":140
				},
				{
					"input":132,
					"interpolation":"LINEAR",
					"output":141
				},
				{
					"input":134,
					"interpolation":"STEP",
					"output":142
				},
				{
					"input":134,
					"interpolation":"STEP",
					"output":143
				},
				{
					"input":134,
					"interpolation":"STEP",
					"output":144
				},
				{
					"input":134,
					"interpolation":"STEP",
					"output":145
				},
				{
					"input":134,
					"interpolation":"STEP",
					"output":146
				},
				{
					"input":132,
					"interpolation":"LINEAR",
					"output":147
				},
				{
					"input":134,
					"interpolation":"STEP",
					"output":148
				},
				{
					"input":134,
					"interpolation":"STEP",
					"output":149
				},
				{
					"input":132,
					"interpolation":"LINEAR",
					"output":150
				},
				{
					"input":134,
					"interpolation":"STEP",
					"output":151
				},
				{
					"input":134,
					"interpolation":"STEP",
					"output":152
				},
				{
					"input":134,
					"interpolation":"STEP",
					"output":153
				},
				{
					"input":134,
					"interpolation":"STEP",
					"output":154
				},
				{
					"input":134,
					"interpolation":"STEP",
					"output":155
				},
				{
					"input":134,
					"interpolation":"STEP",
					"output":156
				},
				{
					"input":134,
					"interpolation":"STEP",
					"output":157
				},
				{
					"input":134,
					"interpolation":"STEP",
					"output":158
				},
				{
					"input":132,
					"interpolation":"LINEAR",
					"output":159
				},
				{
					"input":134,
					"interpolation":"STEP",
					"output":160
				},
				{
					"input":134,
					"interpolation":"STEP",
					"output":161
				},
				{
					"input":134,
					"interpolation":"STEP",
					"output":162
				},
				{
					"input":134,
					"interpolation":"STEP",
					"output":163
				},
				{
					"input":134,
					"interpolation":"STEP",
					"output":164
				},
				{
					"input":134,
					"interpolation":"STEP",
					"output":165
				},
				{
					"input":134,
					"interpolation":"STEP",
					"output":166
				},
				{
					"input":134,
					"interpolation":"STEP",
					"output":167
				},
				{
					"input":134,
					"interpolation":"STEP",
					"output":168
				},
				{
					"input":134,
					"interpolation":"STEP",
					"output":169
				},
				{
					"input":134,
					"interpolation":"STEP",
					"output":170
				},
				{
					"input":134,
					"interpolation":"STEP",
					"output":171
				},
				{
					"input":134,
					"interpolation":"STEP",
					"output":172
				},
				{
					"input":134,
					"interpolation":"STEP",
					"output":173
				},
				{
					"input":134,
					"interpolation":"STEP",
					"output":174
				},
				{
					"input":134,
					"interpolation":"STEP",
					"output":175
				},
				{
					"input":134,
					"interpolation":"STEP",
					"output":176
				},
				{
					"input":134,
					"interpolation":"STEP",
					"output":177
				},
				{
					"input":134,
					"interpolation":"STEP",
					"output":178
				},
				{
					"input":134,
					"interpolation":"STEP",
					"output":179
				},
				{
					"input":134,
					"interpolation":"STEP",
					"output":180
				},
				{
					"input":134,
					"interpolation":"STEP",
					"output":181
				},
				{
					"input":134,
					"interpolation":"STEP",
					"output":182
				},
				{
					"input":134,
					"interpolation":"STEP",
					"output":183
				},
				{
					"input":134,
					"interpolation":"STEP",
					"output":184
				}
			]
		},
		{
			"channels":[
				{
					"sampler":0,
					"target":{
						"node":16,
						"path":"translation"
					}
				},
				{
					"sampler":1,
					"target":{
						"node":16,
						"path":"rotation"
					}
				},
				{
					"sampler":2,
					"target":{
						"node":16,
						"path":"scale"
					}
				},
				{
					"sampler":3,
					"target":{
						"node":9,
						"path":"translation"
					}
				},
				{
					"sampler":4,
					"target":{
						"node":9,
						"path":"rotation"
					}
				},
				{
					"sampler":5,
					"target":{
						"node":9,
						"path":"scale"
					}
				},
				{
					"sampler":6,
					"target":{
						"node":8,
						"path":"translation"
					}
				},
				{
					"sampler":7,
					"target":{
						"node":8,
						"path":"rotation"
					}
				},
				{
					"sampler":8,
					"target":{
						"node":8,
						"path":"scale"
					}
				},
				{
					"sampler":9,
					"target":{
						"node":1,
						"path":"translation"
					}
				},
				{
					"sampler":10,
					"target":{
						"node":1,
						"path":"rotation"
					}
				},
				{
					"sampler":11,
					"target":{
						"node":1,
						"path":"scale"
					}
				},
				{
					"sampler":12,
					"target":{
						"node":0,
						"path":"translation"
					}
				},
				{
					"sampler":13,
					"target":{
						"node":0,
						"path":"rotation"
					}
				},
				{
					"sampler":14,
					"target":{
						"node":0,
						"path":"scale"
					}
				},
				{
					"sampler":15,
					"target":{
						"node":4,
						"path":"translation"
					}
				},
				{
					"sampler":16,
					"target":{
						"node":4,
						"path":"rotation"
					}
				},
				{
					"sampler":17,
					"target":{
						"node":4,
						"path":"scale"
					}
				},
				{
					"sampler":18,
					"target":{
						"node":3,
						"path":"translation"
					}
				},
				{
					"sampler":19,
					"target":{
						"node":3,
						"path":"rotation"
					}
				},
				{
					"sampler":20,
					"target":{
						"node":3,
						"path":"scale"
					}
				},
				{
					"sampler":21,
					"target":{
						"node":2,
						"path":"translation"
					}
				},
				{
					"sampler":22,
					"target":{
						"node":2,
						"path":"rotation"
					}
				},
				{
					"sampler":23,
					"target":{
						"node":2,
						"path":"scale"
					}
				},
				{
					"sampler":24,
					"target":{
						"node":7,
						"path":"translation"
					}
				},
				{
					"sampler":25,
					"target":{
						"node":7,
						"path":"rotation"
					}
				},
				{
					"sampler":26,
					"target":{
						"node":7,
						"path":"scale"
					}
				},
				{
					"sampler":27,
					"target":{
						"node":6,
						"path":"translation"
					}
				},
				{
					"sampler":28,
					"target":{
						"node":6,
						"path":"rotation"
					}
				},
				{
					"sampler":29,
					"target":{
						"node":6,
						"path":"scale"
					}
				},
				{
					"sampler":30,
					"target":{
						"node":5,
						"path":"translation"
					}
				},
				{
					"sampler":31,
					"target":{
						"node":5,
						"path":"rotation"
					}
				},
				{
					"sampler":32,
					"target":{
						"node":5,
						"path":"scale"
					}
				},
				{
					"sampler":33,
					"target":{
						"node":12,
						"path":"translation"
					}
				},
				{
					"sampler":34,
					"target":{
						"node":12,
						"path":"rotation"
					}
				},
				{
					"sampler":35,
					"target":{
						"node":12,
						"path":"scale"
					}
				},
				{
					"sampler":36,
					"target":{
						"node":11,
						"path":"translation"
					}
				},
				{
					"sampler":37,
					"target":{
						"node":11,
						"path":"rotation"
					}
				},
				{
					"sampler":38,
					"target":{
						"node":11,
						"path":"scale"
					}
				},
				{
					"sampler":39,
					"target":{
						"node":10,
						"path":"translation"
					}
				},
				{
					"sampler":40,
					"target":{
						"node":10,
						"path":"rotation"
					}
				},
				{
					"sampler":41,
					"target":{
						"node":10,
						"path":"scale"
					}
				},
				{
					"sampler":42,
					"target":{
						"node":15,
						"path":"translation"
					}
				},
				{
					"sampler":43,
					"target":{
						"node":15,
						"path":"rotation"
					}
				},
				{
					"sampler":44,
					"target":{
						"node":15,
						"path":"scale"
					}
				},
				{
					"sampler":45,
					"target":{
						"node":14,
						"path":"translation"
					}
				},
				{
					"sampler":46,
					"target":{
						"node":14,
						"path":"rotation"
					}
				},
				{
					"sampler":47,
					"target":{
						"node":14,
						"path":"scale"
					}
				},
				{
					"sampler":48,
					"target":{
						"node":13,
						"path":"translation"
					}
				},
				{
					"sampler":49,
					"target":{
						"node":13,
						"path":"rotation"
					}
				},
				{
					"sampler":50,
					"target":{
						"node":13,
						"path":"scale"
					}
				}
			],
			"name":"walk",
			"samplers":[
				{
					"input":185,
					"interpolation":"LINEAR",
					"output":186
				},
				{
					"input":185,
					"interpolation":"LINEAR",
					"output":187
				},
				{
					"input":188,
					"interpolation":"STEP",
					"output":189
				},
				{
					"input":188,
					"interpolation":"STEP",
					"output":190
				},
				{
					"input":188,
					"interpolation":"STEP",
					"output":191
				},
				{
					"input":188,
					"interpolation":"STEP",
					"output":192
				},
				{
					"input":188,
					"interpolation":"STEP",
					"output":193
				},
				{
					"input":185,
					"interpolation":"LINEAR",
					"output":194
				},
				{
					"input":188,
					"interpolation":"STEP",
					"output":195
				},
				{
					"input":188,
					"interpolation":"STEP",
					"output":196
				},
				{
					"input":188,
					"interpolation":"STEP",
					"output":197
				},
				{
					"input":188,
					"interpolation":"STEP",
					"output":198
				},
				{
					"input":188,
					"interpolation":"STEP",
					"output":199
				},
				{
					"input":188,
					"interpolation":"STEP",
					"output":200
				},
				{
					"input":188,
					"interpolation":"STEP",
					"output":201
				},
				{
					"input":188,
					"interpolation":"STEP",
					"output":202
				},
				{
					"input":185,
					"interpolation":"LINEAR",
					"output":203
				},
				{
					"input":188,
					"interpolation":"STEP",
					"output":204
				},
				{
					"input":188,
					"interpolation":"STEP",
					"output":205
				},
				{
					"input":188,
					"interpolation":"STEP",
					"output":206
				},
				{
					"input":188,
					"interpolation":"STEP",
					"output":207
				},
				{
					"input":188,
					"interpolation":"STEP",
					"output":208
				},
				{
					"input":188,
					"interpolation":"STEP",
					"output":209
				},
				{
					"input":188,
					"interpolation":"STEP",
					"output":210
				},
				{
					"input":188,
					"interpolation":"STEP",
					"output":211
				},
				{
					"input":185,
					"interpolation":"LINEAR",
					"output":212
				},
				{
					"input":188,
					"interpolation":"STEP",
					"output":213
				},
				{
					"input":188,
					"interpolation":"STEP",
					"output":214
				},
				{
					"input":188,
					"interpolation":"STEP",
					"output":215
				},
				{
					"input":188,
					"interpolation":"STEP",
					"output":216
				},
				{
					"input":188,
					"interpolation":"STEP",
					"output":217
				},
				{
					"input":188,
					"interpolation":"STEP",
					"output":218
				},
				{
					"input":188,
					"interpolation":"STEP",
					"output":219
				},
				{
					"input":188,
					"interpolation":"STEP",
					"output":220
				},
				{
					"input":185,
					"interpolation":"LINEAR",
					"output":221
				},
				{
					"input":188,
					"interpolation":"STEP",
					"output":222
				},
				{
					"input":188,
					"interpolation":"STEP",
					"output":223
				},
				{
					"input":185,
					"interpolation":"LINEAR",
					"output":224
				},
				{
					"input":188,
					"interpolation":"STEP",
					"output":225
				},
				{
					"input":188,
					"interpolation":"STEP",
					"output":226
				},
				{
					"input":185,
					"interpolation":"LINEAR",
					"output":227
				},
				{
					"input":188,
					"interpolation":"STEP",
					"output":228
				},
				{
					"input":188,
					"interpolation":"STEP",
					"output":229
				},
				{
					"input":185,
					"interpolation":"LINEAR",
					"output":230
				},
				{
					"input":188,
					"interpolation":"STEP",
					"output":231
				},
				{
					"input":188,
					"interpolation":"STEP",
					"output":232
				},
				{
					"input":185,
					"interpolation":"LINEAR",
					"output":233
				},
				{
					"input":188,
					"interpolation":"STEP",
					"output":234
				},
				{
					"input":188,
					"interpolation":"STEP",
					"output":235
				},
				{
					"input":185,
					"interpolation":"LINEAR",
					"output":236
				},
				{
					"input":188,
					"interpolation":"STEP",
					"output":237
				}
			]
		}
	],
	"materials":[
		{
			"name":"skin",
			"normalTexture":{
				"index":0,
				"scale":0.4000000059604645
			},
			"pbrMetallicRoughness":{
				"baseColorFactor":[
					0.6920710802078247,
					0.2632734179496765,
					0.17064493894577026,
					1
				],
				"metallicFactor":0,
				"roughnessFactor":0.550000011920929
			}
		},
		{
			"extensions":{
				"KHR_materials_sheen":{
					"sheenColorFactor":[
						1.0,
						1.0,
						1.0
					],
					"sheenRoughnessFactor":0.5
				}
			},
			"name":"hair",
			"normalTexture":{
				"index":1,
				"scale":0.800000011920929
			},
			"pbrMetallicRoughness":{
				"baseColorFactor":[
					0.03310476616024971,
					0.01960664801299572,
					0.0134117491543293,
					1
				],
				"metallicFactor":0,
				"roughnessFactor":0.44999998807907104
			}
		},
		{
			"extensions":{
				"KHR_materials_sheen":{
					"sheenColorFactor":[
						1.0,
						1.0,
						1.0
					],
					"sheenRoughnessFactor":0.5
				}
			},
			"name":"outfit",
			"normalTexture":{
				"index":2,
				"scale":0.6000000238418579
			},
			"pbrMetallicRoughness":{
				"baseColorFactor":[
					0.10048151016235352,
					0.05087608844041824,
					0.03310476616024971,
					1
				],
				"metallicFactor":0,
				"roughnessFactor":0.75
			}
		},
		{
			"name":"outfit2",
			"normalTexture":{
				"index":3,
				"scale":0.4000000059604645
			},
			"pbrMetallicRoughness":{
				"baseColorFactor":[
					0.31854677200317383,
					0.21404114365577698,
					0.07323895394802094,
					1
				],
				"metallicFactor":0,
				"roughnessFactor":0.6000000238418579
			}
		},
		{
			"name":"pants",
			"normalTexture":{
				"index":4,
				"scale":0.6000000238418579
			},
			"pbrMetallicRoughness":{
				"baseColorFactor":[
					0.04889732599258423,
					0.025842878967523575,
					0.017389101907610893,
					1
				],
				"metallicFactor":0,
				"roughnessFactor":0.800000011920929
			}
		},
		{
			"extensions":{
				"KHR_materials_clearcoat":{
					"clearcoatFactor":0.30000001192092896
				}
			},
			"name":"boots",
			"normalTexture":{
				"index":5,
				"scale":0.800000011920929
			},
			"pbrMetallicRoughness":{
				"baseColorFactor":[
					0.0134117491543293,
					0.010022825561463833,
					0.010022825561463833,
					1
				],
				"metallicFactor":0,
				"roughnessFactor":0.44999998807907104
			}
		},
		{
			"name":"eye_white",
			"pbrMetallicRoughness":{
				"baseColorFactor":[
					0.8900054097175598,
					0.8900054097175598,
					0.8900054097175598,
					1
				],
				"metallicFactor":0,
				"roughnessFactor":0.20000000298023224
			}
		},
		{
			"emissiveFactor":[
				0.011763989275256348,
				0.011763989275256348,
				0.019862860485428957
			],
			"name":"iris",
			"pbrMetallicRoughness":{
				"baseColorFactor":[
					0.01960664801299572,
					0.01960664801299572,
					0.03310476616024971,
					1
				],
				"metallicFactor":0,
				"roughnessFactor":0.15000000596046448
			}
		},
		{
			"name":"pupil",
			"pbrMetallicRoughness":{
				"baseColorFactor":[
					0.0015479875728487968,
					0.0015479875728487968,
					0.0023219813592731953,
					1
				],
				"metallicFactor":0,
				"roughnessFactor":0.10000000149011612
			}
		},
		{
			"name":"lips",
			"pbrMetallicRoughness":{
				"baseColorFactor":[
					0.3127419650554657,
					0.12259718775749207,
					0.08088690787553787,
					1
				],
				"metallicFactor":0,
				"roughnessFactor":0.4000000059604645
			}
		},
		{
			"extensions":{
				"KHR_materials_clearcoat":{
					"clearcoatFactor":0.5
				}
			},
			"name":"horn",
			"pbrMetallicRoughness":{
				"baseColorFactor":[
					0.010022825561463833,
					0.010022825561463833,
					0.0134117491543293,
					1
				],
				"metallicFactor":0,
				"roughnessFactor":0.30000001192092896
			}
		},
		{
			"name":"buckle",
			"pbrMetallicRoughness":{
				"baseColorFactor":[
					0.6920710802078247,
					0.4479884207248688,
					0.07323895394802094,
					1
				],
				"metallicFactor":0.8999999761581421,
				"roughnessFactor":0.30000001192092896
			}
		},
		{
			"name":"wood",
			"normalTexture":{
				"index":6,
				"scale":0.6000000238418579
			},
			"pbrMetallicRoughness":{
				"baseColorFactor":[
					0.13286831974983215,
					0.06372379511594772,
					0.01960664801299572,
					1
				],
				"metallicFactor":0,
				"roughnessFactor":0.800000011920929
			}
		}
	],
	"meshes":[
		{
			"name":"ogre",
			"primitives":[
				{
					"attributes":{
						"POSITION":0,
						"NORMAL":1,
						"TEXCOORD_0":2,
						"JOINTS_0":3,
						"WEIGHTS_0":4
					},
					"indices":5,
					"material":0
				},
				{
					"attributes":{
						"POSITION":6,
						"NORMAL":7,
						"TEXCOORD_0":8,
						"JOINTS_0":9,
						"WEIGHTS_0":10
					},
					"indices":11,
					"material":1
				},
				{
					"attributes":{
						"POSITION":12,
						"NORMAL":13,
						"TEXCOORD_0":14,
						"JOINTS_0":15,
						"WEIGHTS_0":16
					},
					"indices":17,
					"material":2
				},
				{
					"attributes":{
						"POSITION":18,
						"NORMAL":19,
						"TEXCOORD_0":20,
						"JOINTS_0":21,
						"WEIGHTS_0":22
					},
					"indices":23,
					"material":3
				},
				{
					"attributes":{
						"POSITION":24,
						"NORMAL":25,
						"TEXCOORD_0":26,
						"JOINTS_0":27,
						"WEIGHTS_0":28
					},
					"indices":29,
					"material":4
				},
				{
					"attributes":{
						"POSITION":30,
						"NORMAL":31,
						"TEXCOORD_0":32,
						"JOINTS_0":33,
						"WEIGHTS_0":34
					},
					"indices":35,
					"material":5
				},
				{
					"attributes":{
						"POSITION":36,
						"NORMAL":37,
						"TEXCOORD_0":38,
						"JOINTS_0":39,
						"WEIGHTS_0":40
					},
					"indices":41,
					"material":6
				},
				{
					"attributes":{
						"POSITION":42,
						"NORMAL":43,
						"TEXCOORD_0":44,
						"JOINTS_0":45,
						"WEIGHTS_0":46
					},
					"indices":47,
					"material":7
				},
				{
					"attributes":{
						"POSITION":48,
						"NORMAL":49,
						"TEXCOORD_0":50,
						"JOINTS_0":51,
						"WEIGHTS_0":52
					},
					"indices":53,
					"material":8
				},
				{
					"attributes":{
						"POSITION":54,
						"NORMAL":55,
						"TEXCOORD_0":56,
						"JOINTS_0":57,
						"WEIGHTS_0":58
					},
					"indices":59,
					"material":9
				},
				{
					"attributes":{
						"POSITION":60,
						"NORMAL":61,
						"TEXCOORD_0":62,
						"JOINTS_0":63,
						"WEIGHTS_0":64
					},
					"indices":65,
					"material":10
				},
				{
					"attributes":{
						"POSITION":66,
						"NORMAL":67,
						"TEXCOORD_0":68,
						"JOINTS_0":69,
						"WEIGHTS_0":70
					},
					"indices":71,
					"material":11
				},
				{
					"attributes":{
						"POSITION":72,
						"NORMAL":73,
						"TEXCOORD_0":74,
						"JOINTS_0":75,
						"WEIGHTS_0":76
					},
					"indices":77,
					"material":12
				}
			]
		}
	],
	"textures":[
		{
			"sampler":0,
			"source":0
		},
		{
			"sampler":0,
			"source":1
		},
		{
			"sampler":0,
			"source":2
		},
		{
			"sampler":0,
			"source":2
		},
		{
			"sampler":0,
			"source":2
		},
		{
			"sampler":0,
			"source":3
		},
		{
			"sampler":0,
			"source":3
		}
	],
	"images":[
		{
			"mimeType":"image/png",
			"name":"N_skin",
			"uri":"texturas/N_skin.png"
		},
		{
			"mimeType":"image/png",
			"name":"N_hair",
			"uri":"texturas/N_hair.png"
		},
		{
			"mimeType":"image/png",
			"name":"N_cloth",
			"uri":"texturas/N_cloth.png"
		},
		{
			"mimeType":"image/png",
			"name":"N_leather",
			"uri":"texturas/N_leather.png"
		}
	],
	"skins":[
		{
			"inverseBindMatrices":78,
			"joints":[
				16,
				9,
				8,
				1,
				0,
				4,
				3,
				2,
				7,
				6,
				5,
				12,
				11,
				10,
				15,
				14,
				13
			],
			"name":"ogre_rig"
		}
	],
	"accessors":[
		{
			"bufferView":0,
			"componentType":5126,
			"count":2251,
			"max":[
				0.5933603644371033,
				2.408399820327759,
				0.14473696053028107
			],
			"min":[
				-0.5933603644371033,
				1.0590317249298096,
				-0.21533575654029846
			],
			"type":"VEC3"
		},
		{
			"bufferView":1,
			"componentType":5126,
			"count":2251,
			"type":"VEC3"
		},
		{
			"bufferView":2,
			"componentType":5126,
			"count":2251,
			"type":"VEC2"
		},
		{
			"bufferView":3,
			"componentType":5121,
			"count":2251,
			"type":"VEC4"
		},
		{
			"bufferView":4,
			"componentType":5126,
			"count":2251,
			"type":"VEC4"
		},
		{
			"bufferView":5,
			"componentType":5123,
			"count":9372,
			"type":"SCALAR"
		},
		{
			"bufferView":6,
			"componentType":5126,
			"count":2121,
			"max":[
				0.3823172152042389,
				2.6809256076812744,
				0.38608235120773315
			],
			"min":[
				-0.3731961250305176,
				2.1425230503082275,
				-0.24612712860107422
			],
			"type":"VEC3"
		},
		{
			"bufferView":7,
			"componentType":5126,
			"count":2121,
			"type":"VEC3"
		},
		{
			"bufferView":8,
			"componentType":5126,
			"count":2121,
			"type":"VEC2"
		},
		{
			"bufferView":9,
			"componentType":5121,
			"count":2121,
			"type":"VEC4"
		},
		{
			"bufferView":10,
			"componentType":5126,
			"count":2121,
			"type":"VEC4"
		},
		{
			"bufferView":11,
			"componentType":5123,
			"count":7200,
			"type":"SCALAR"
		},
		{
			"bufferView":12,
			"componentType":5126,
			"count":372,
			"max":[
				0.5345800518989563,
				1.9815788269042969,
				0.24859459698200226
			],
			"min":[
				-0.5345800518989563,
				1.2817596197128296,
				-0.25084468722343445
			],
			"type":"VEC3"
		},
		{
			"bufferView":13,
			"componentType":5126,
			"count":372,
			"type":"VEC3"
		},
		{
			"bufferView":14,
			"componentType":5126,
			"count":372,
			"type":"VEC2"
		},
		{
			"bufferView":15,
			"componentType":5121,
			"count":372,
			"type":"VEC4"
		},
		{
			"bufferView":16,
			"componentType":5126,
			"count":372,
			"type":"VEC4"
		},
		{
			"bufferView":17,
			"componentType":5123,
			"count":1380,
			"type":"SCALAR"
		},
		{
			"bufferView":18,
			"componentType":5126,
			"count":60,
			"max":[
				0.2585502862930298,
				1.3653796911239624,
				0.2555621564388275
			],
			"min":[
				-0.2585502862930298,
				1.1859606504440308,
				-0.2573738694190979
			],
			"type":"VEC3"
		},
		{
			"bufferView":19,
			"componentType":5126,
			"count":60,
			"type":"VEC3"
		},
		{
			"bufferView":20,
			"componentType":5126,
			"count":60,
			"type":"VEC2"
		},
		{
			"bufferView":21,
			"componentType":5121,
			"count":60,
			"type":"VEC4"
		},
		{
			"bufferView":22,
			"componentType":5126,
			"count":60,
			"type":"VEC4"
		},
		{
			"bufferView":23,
			"componentType":5123,
			"count":168,
			"type":"SCALAR"
		},
		{
			"bufferView":24,
			"componentType":5126,
			"count":673,
			"max":[
				0.5859249234199524,
				1.2817597389221191,
				0.2534225583076477
			],
			"min":[
				-0.5859248638153076,
				0.39384159445762634,
				-0.2554961144924164
			],
			"type":"VEC3"
		},
		{
			"bufferView":25,
			"componentType":5126,
			"count":673,
			"type":"VEC3"
		},
		{
			"bufferView":26,
			"componentType":5126,
			"count":673,
			"type":"VEC2"
		},
		{
			"bufferView":27,
			"componentType":5121,
			"count":673,
			"type":"VEC4"
		},
		{
			"bufferView":28,
			"componentType":5126,
			"count":673,
			"type":"VEC4"
		},
		{
			"bufferView":29,
			"componentType":5123,
			"count":2808,
			"type":"SCALAR"
		},
		{
			"bufferView":30,
			"componentType":5126,
			"count":874,
			"max":[
				0.29659149050712585,
				0.40349650382995605,
				0.12238261848688126
			],
			"min":[
				-0.29659155011177063,
				0.010264170356094837,
				-0.18916121125221252
			],
			"type":"VEC3"
		},
		{
			"bufferView":31,
			"componentType":5126,
			"count":874,
			"type":"VEC3"
		},
		{
			"bufferView":32,
			"componentType":5126,
			"count":874,
			"type":"VEC2"
		},
		{
			"bufferView":33,
			"componentType":5121,
			"count":874,
			"type":"VEC4"
		},
		{
			"bufferView":34,
			"componentType":5126,
			"count":874,
			"type":"VEC4"
		},
		{
			"bufferView":35,
			"componentType":5123,
			"count":3840,
			"type":"SCALAR"
		},
		{
			"bufferView":36,
			"componentType":5126,
			"count":304,
			"max":[
				0.06885000318288803,
				2.2767748832702637,
				-0.09450000524520874
			],
			"min":[
				-0.06885000318288803,
				2.24572491645813,
				-0.11879999935626984
			],
			"type":"VEC3"
		},
		{
			"bufferView":37,
			"componentType":5126,
			"count":304,
			"type":"VEC3"
		},
		{
			"bufferView":38,
			"componentType":5126,
			"count":304,
			"type":"VEC2"
		},
		{
			"bufferView":39,
			"componentType":5121,
			"count":304,
			"type":"VEC4"
		},
		{
			"bufferView":40,
			"componentType":5126,
			"count":304,
			"type":"VEC4"
		},
		{
			"bufferView":41,
			"componentType":5123,
			"count":1152,
			"type":"SCALAR"
		},
		{
			"bufferView":42,
			"componentType":5126,
			"count":220,
			"max":[
				0.05872499942779541,
				2.274480104446411,
				-0.10964733362197876
			],
			"min":[
				-0.05872499942779541,
				2.2480199337005615,
				-0.12120267748832703
			],
			"type":"VEC3"
		},
		{
			"bufferView":43,
			"componentType":5126,
			"count":220,
			"type":"VEC3"
		},
		{
			"bufferView":44,
			"componentType":5126,
			"count":220,
			"type":"VEC2"
		},
		{
			"bufferView":45,
			"componentType":5121,
			"count":220,
			"type":"VEC4"
		},
		{
			"bufferView":46,
			"componentType":5126,
			"count":220,
			"type":"VEC4"
		},
		{
			"bufferView":47,
			"componentType":5123,
			"count":720,
			"type":"SCALAR"
		},
		{
			"bufferView":48,
			"componentType":5126,
			"count":160,
			"max":[
				0.05129249021410942,
				2.267324924468994,
				-0.11731214821338654
			],
			"min":[
				-0.05129249021410942,
				2.2551751136779785,
				-0.12244785577058792
			],
			"type":"VEC3"
		},
		{
			"bufferView":49,
			"componentType":5126,
			"count":160,
			"type":"VEC3"
		},
		{
			"bufferView":50,
			"componentType":5126,
			"count":160,
			"type":"VEC2"
		},
		{
			"bufferView":51,
			"componentType":5121,
			"count":160,
			"type":"VEC4"
		},
		{
			"bufferView":52,
			"componentType":5126,
			"count":160,
			"type":"VEC4"
		},
		{
			"bufferView":53,
			"componentType":5123,
			"count":480,
			"type":"SCALAR"
		},
		{
			"bufferView":54,
			"componentType":5126,
			"count":98,
			"max":[
				0.02565000019967556,
				2.1701250076293945,
				-0.1049223318696022
			],
			"min":[
				-0.02565000019967556,
				2.1579749584198,
				-0.11647767573595047
			],
			"type":"VEC3"
		},
		{
			"bufferView":55,
			"componentType":5126,
			"count":98,
			"type":"VEC3"
		},
		{
			"bufferView":56,
			"componentType":5126,
			"count":98,
			"type":"VEC2"
		},
		{
			"bufferView":57,
			"componentType":5121,
			"count":98,
			"type":"VEC4"
		},
		{
			"bufferView":58,
			"componentType":5126,
			"count":98,
			"type":"VEC4"
		},
		{
			"bufferView":59,
			"componentType":5123,
			"count":360,
			"type":"SCALAR"
		},
		{
			"bufferView":60,
			"componentType":5126,
			"count":180,
			"max":[
				0.08648212999105453,
				2.522491693496704,
				-0.04541059583425522
			],
			"min":[
				-0.08648212999105453,
				2.3843536376953125,
				-0.09657634049654007
			],
			"type":"VEC3"
		},
		{
			"bufferView":61,
			"componentType":5126,
			"count":180,
			"type":"VEC3"
		},
		{
			"bufferView":62,
			"componentType":5126,
			"count":180,
			"type":"VEC2"
		},
		{
			"bufferView":63,
			"componentType":5121,
			"count":180,
			"type":"VEC4"
		},
		{
			"bufferView":64,
			"componentType":5126,
			"count":180,
			"type":"VEC4"
		},
		{
			"bufferView":65,
			"componentType":5123,
			"count":576,
			"type":"SCALAR"
		},
		{
			"bufferView":66,
			"componentType":5126,
			"count":24,
			"max":[
				0.03375000134110451,
				1.3095000982284546,
				-0.17820000648498535
			],
			"min":[
				-0.03375000134110451,
				1.255500078201294,
				-0.19439999759197235
			],
			"type":"VEC3"
		},
		{
			"bufferView":67,
			"componentType":5126,
			"count":24,
			"type":"VEC3"
		},
		{
			"bufferView":68,
			"componentType":5126,
			"count":24,
			"type":"VEC2"
		},
		{
			"bufferView":69,
			"componentType":5121,
			"count":24,
			"type":"VEC4"
		},
		{
			"bufferView":70,
			"componentType":5126,
			"count":24,
			"type":"VEC4"
		},
		{
			"bufferView":71,
			"componentType":5123,
			"count":36,
			"type":"SCALAR"
		},
		{
			"bufferView":72,
			"componentType":5126,
			"count":64,
			"max":[
				0.6522120237350464,
				1.1535903215408325,
				0.07790946960449219
			],
			"min":[
				0.4632120132446289,
				0.5825469493865967,
				-0.9939519762992859
			],
			"type":"VEC3"
		},
		{
			"bufferView":73,
			"componentType":5126,
			"count":64,
			"type":"VEC3"
		},
		{
			"bufferView":74,
			"componentType":5126,
			"count":64,
			"type":"VEC2"
		},
		{
			"bufferView":75,
			"componentType":5121,
			"count":64,
			"type":"VEC4"
		},
		{
			"bufferView":76,
			"componentType":5126,
			"count":64,
			"type":"VEC4"
		},
		{
			"bufferView":77,
			"componentType":5123,
			"count":180,
			"type":"SCALAR"
		},
		{
			"bufferView":78,
			"componentType":5126,
			"count":17,
			"type":"MAT4"
		},
		{
			"bufferView":79,
			"componentType":5126,
			"count":2,
			"max":[
				0.6
			],
			"min":[
				0
			],
			"type":"SCALAR"
		},
		{
			"bufferView":80,
			"componentType":5126,
			"count":2,
			"type":"VEC3"
		},
		{
			"bufferView":81,
			"componentType":5126,
			"count":2,
			"type":"VEC4"
		},
		{
			"bufferView":82,
			"componentType":5126,
			"count":2,
			"type":"VEC3"
		},
		{
			"bufferView":83,
			"componentType":5126,
			"count":2,
			"type":"VEC3"
		},
		{
			"bufferView":84,
			"componentType":5126,
			"count":2,
			"type":"VEC4"
		},
		{
			"bufferView":85,
			"componentType":5126,
			"count":2,
			"type":"VEC3"
		},
		{
			"bufferView":86,
			"componentType":5126,
			"count":2,
			"type":"VEC3"
		},
		{
			"bufferView":87,
			"componentType":5126,
			"count":19,
			"max":[
				0.6
			],
			"min":[
				0
			],
			"type":"SCALAR"
		},
		{
			"bufferView":88,
			"componentType":5126,
			"count":19,
			"type":"VEC4"
		},
		{
			"bufferView":89,
			"componentType":5126,
			"count":2,
			"type":"VEC3"
		},
		{
			"bufferView":90,
			"componentType":5126,
			"count":2,
			"type":"VEC3"
		},
		{
			"bufferView":91,
			"componentType":5126,
			"count":2,
			"type":"VEC4"
		},
		{
			"bufferView":92,
			"componentType":5126,
			"count":2,
			"type":"VEC3"
		},
		{
			"bufferView":93,
			"componentType":5126,
			"count":2,
			"type":"VEC3"
		},
		{
			"bufferView":94,
			"componentType":5126,
			"count":2,
			"type":"VEC4"
		},
		{
			"bufferView":95,
			"componentType":5126,
			"count":2,
			"type":"VEC3"
		},
		{
			"bufferView":96,
			"componentType":5126,
			"count":2,
			"type":"VEC3"
		},
		{
			"bufferView":97,
			"componentType":5126,
			"count":19,
			"type":"VEC4"
		},
		{
			"bufferView":98,
			"componentType":5126,
			"count":2,
			"type":"VEC3"
		},
		{
			"bufferView":99,
			"componentType":5126,
			"count":2,
			"type":"VEC3"
		},
		{
			"bufferView":100,
			"componentType":5126,
			"count":19,
			"type":"VEC4"
		},
		{
			"bufferView":101,
			"componentType":5126,
			"count":2,
			"type":"VEC3"
		},
		{
			"bufferView":102,
			"componentType":5126,
			"count":2,
			"type":"VEC3"
		},
		{
			"bufferView":103,
			"componentType":5126,
			"count":2,
			"type":"VEC4"
		},
		{
			"bufferView":104,
			"componentType":5126,
			"count":2,
			"type":"VEC3"
		},
		{
			"bufferView":105,
			"componentType":5126,
			"count":2,
			"type":"VEC3"
		},
		{
			"bufferView":106,
			"componentType":5126,
			"count":19,
			"type":"VEC4"
		},
		{
			"bufferView":107,
			"componentType":5126,
			"count":2,
			"type":"VEC3"
		},
		{
			"bufferView":108,
			"componentType":5126,
			"count":2,
			"type":"VEC3"
		},
		{
			"bufferView":109,
			"componentType":5126,
			"count":2,
			"type":"VEC4"
		},
		{
			"bufferView":110,
			"componentType":5126,
			"count":2,
			"type":"VEC3"
		},
		{
			"bufferView":111,
			"componentType":5126,
			"count":2,
			"type":"VEC3"
		},
		{
			"bufferView":112,
			"componentType":5126,
			"count":2,
			"type":"VEC4"
		},
		{
			"bufferView":113,
			"componentType":5126,
			"count":2,
			"type":"VEC3"
		},
		{
			"bufferView":114,
			"componentType":5126,
			"count":2,
			"type":"VEC3"
		},
		{
			"bufferView":115,
			"componentType":5126,
			"count":19,
			"type":"VEC4"
		},
		{
			"bufferView":116,
			"componentType":5126,
			"count":2,
			"type":"VEC3"
		},
		{
			"bufferView":117,
			"componentType":5126,
			"count":2,
			"type":"VEC3"
		},
		{
			"bufferView":118,
			"componentType":5126,
			"count":2,
			"type":"VEC4"
		},
		{
			"bufferView":119,
			"componentType":5126,
			"count":2,
			"type":"VEC3"
		},
		{
			"bufferView":120,
			"componentType":5126,
			"count":2,
			"type":"VEC3"
		},
		{
			"bufferView":121,
			"componentType":5126,
			"count":2,
			"type":"VEC4"
		},
		{
			"bufferView":122,
			"componentType":5126,
			"count":2,
			"type":"VEC3"
		},
		{
			"bufferView":123,
			"componentType":5126,
			"count":2,
			"type":"VEC3"
		},
		{
			"bufferView":124,
			"componentType":5126,
			"count":19,
			"type":"VEC4"
		},
		{
			"bufferView":125,
			"componentType":5126,
			"count":2,
			"type":"VEC3"
		},
		{
			"bufferView":126,
			"componentType":5126,
			"count":2,
			"type":"VEC3"
		},
		{
			"bufferView":127,
			"componentType":5126,
			"count":2,
			"type":"VEC4"
		},
		{
			"bufferView":128,
			"componentType":5126,
			"count":2,
			"type":"VEC3"
		},
		{
			"bufferView":129,
			"componentType":5126,
			"count":2,
			"type":"VEC3"
		},
		{
			"bufferView":130,
			"componentType":5126,
			"count":2,
			"type":"VEC4"
		},
		{
			"bufferView":131,
			"componentType":5126,
			"count":2,
			"type":"VEC3"
		},
		{
			"bufferView":132,
			"componentType":5126,
			"count":61,
			"max":[
				2
			],
			"min":[
				0
			],
			"type":"SCALAR"
		},
		{
			"bufferView":133,
			"componentType":5126,
			"count":61,
			"type":"VEC3"
		},
		{
			"bufferView":134,
			"componentType":5126,
			"count":2,
			"max":[
				2
			],
			"min":[
				0
			],
			"type":"SCALAR"
		},
		{
			"bufferView":135,
			"componentType":5126,
			"count":2,
			"type":"VEC4"
		},
		{
			"bufferView":136,
			"componentType":5126,
			"count":2,
			"type":"VEC3"
		},
		{
			"bufferView":137,
			"componentType":5126,
			"count":2,
			"type":"VEC3"
		},
		{
			"bufferView":138,
			"componentType":5126,
			"count":2,
			"type":"VEC4"
		},
		{
			"bufferView":139,
			"componentType":5126,
			"count":2,
			"type":"VEC3"
		},
		{
			"bufferView":140,
			"componentType":5126,
			"count":2,
			"type":"VEC3"
		},
		{
			"bufferView":141,
			"componentType":5126,
			"count":61,
			"type":"VEC4"
		},
		{
			"bufferView":142,
			"componentType":5126,
			"count":2,
			"type":"VEC3"
		},
		{
			"bufferView":143,
			"componentType":5126,
			"count":2,
			"type":"VEC3"
		},
		{
			"bufferView":144,
			"componentType":5126,
			"count":2,
			"type":"VEC4"
		},
		{
			"bufferView":145,
			"componentType":5126,
			"count":2,
			"type":"VEC3"
		},
		{
			"bufferView":146,
			"componentType":5126,
			"count":2,
			"type":"VEC3"
		},
		{
			"bufferView":147,
			"componentType":5126,
			"count":61,
			"type":"VEC4"
		},
		{
			"bufferView":148,
			"componentType":5126,
			"count":2,
			"type":"VEC3"
		},
		{
			"bufferView":149,
			"componentType":5126,
			"count":2,
			"type":"VEC3"
		},
		{
			"bufferView":150,
			"componentType":5126,
			"count":61,
			"type":"VEC4"
		},
		{
			"bufferView":151,
			"componentType":5126,
			"count":2,
			"type":"VEC3"
		},
		{
			"bufferView":152,
			"componentType":5126,
			"count":2,
			"type":"VEC3"
		},
		{
			"bufferView":153,
			"componentType":5126,
			"count":2,
			"type":"VEC4"
		},
		{
			"bufferView":154,
			"componentType":5126,
			"count":2,
			"type":"VEC3"
		},
		{
			"bufferView":155,
			"componentType":5126,
			"count":2,
			"type":"VEC3"
		},
		{
			"bufferView":156,
			"componentType":5126,
			"count":2,
			"type":"VEC4"
		},
		{
			"bufferView":157,
			"componentType":5126,
			"count":2,
			"type":"VEC3"
		},
		{
			"bufferView":158,
			"componentType":5126,
			"count":2,
			"type":"VEC3"
		},
		{
			"bufferView":159,
			"componentType":5126,
			"count":61,
			"type":"VEC4"
		},
		{
			"bufferView":160,
			"componentType":5126,
			"count":2,
			"type":"VEC3"
		},
		{
			"bufferView":161,
			"componentType":5126,
			"count":2,
			"type":"VEC3"
		},
		{
			"bufferView":162,
			"componentType":5126,
			"count":2,
			"type":"VEC4"
		},
		{
			"bufferView":163,
			"componentType":5126,
			"count":2,
			"type":"VEC3"
		},
		{
			"bufferView":164,
			"componentType":5126,
			"count":2,
			"type":"VEC3"
		},
		{
			"bufferView":165,
			"componentType":5126,
			"count":2,
			"type":"VEC4"
		},
		{
			"bufferView":166,
			"componentType":5126,
			"count":2,
			"type":"VEC3"
		},
		{
			"bufferView":167,
			"componentType":5126,
			"count":2,
			"type":"VEC3"
		},
		{
			"bufferView":168,
			"componentType":5126,
			"count":2,
			"type":"VEC4"
		},
		{
			"bufferView":169,
			"componentType":5126,
			"count":2,
			"type":"VEC3"
		},
		{
			"bufferView":170,
			"componentType":5126,
			"count":2,
			"type":"VEC3"
		},
		{
			"bufferView":171,
			"componentType":5126,
			"count":2,
			"type":"VEC4"
		},
		{
			"bufferView":172,
			"componentType":5126,
			"count":2,
			"type":"VEC3"
		},
		{
			"bufferView":173,
			"componentType":5126,
			"count":2,
			"type":"VEC3"
		},
		{
			"bufferView":174,
			"componentType":5126,
			"count":2,
			"type":"VEC4"
		},
		{
			"bufferView":175,
			"componentType":5126,
			"count":2,
			"type":"VEC3"
		},
		{
			"bufferView":176,
			"componentType":5126,
			"count":2,
			"type":"VEC3"
		},
		{
			"bufferView":177,
			"componentType":5126,
			"count":2,
			"type":"VEC4"
		},
		{
			"bufferView":178,
			"componentType":5126,
			"count":2,
			"type":"VEC3"
		},
		{
			"bufferView":179,
			"componentType":5126,
			"count":2,
			"type":"VEC3"
		},
		{
			"bufferView":180,
			"componentType":5126,
			"count":2,
			"type":"VEC4"
		},
		{
			"bufferView":181,
			"componentType":5126,
			"count":2,
			"type":"VEC3"
		},
		{
			"bufferView":182,
			"componentType":5126,
			"count":2,
			"type":"VEC3"
		},
		{
			"bufferView":183,
			"componentType":5126,
			"count":2,
			"type":"VEC4"
		},
		{
			"bufferView":184,
			"componentType":5126,
			"count":2,
			"type":"VEC3"
		},
		{
			"bufferView":185,
			"componentType":5126,
			"count":31,
			"max":[
				1
			],
			"min":[
				0
			],
			"type":"SCALAR"
		},
		{
			"bufferView":186,
			"componentType":5126,
			"count":31,
			"type":"VEC3"
		},
		{
			"bufferView":187,
			"componentType":5126,
			"count":31,
			"type":"VEC4"
		},
		{
			"bufferView":188,
			"componentType":5126,
			"count":2,
			"max":[
				1
			],
			"min":[
				0
			],
			"type":"SCALAR"
		},
		{
			"bufferView":189,
			"componentType":5126,
			"count":2,
			"type":"VEC3"
		},
		{
			"bufferView":190,
			"componentType":5126,
			"count":2,
			"type":"VEC3"
		},
		{
			"bufferView":191,
			"componentType":5126,
			"count":2,
			"type":"VEC4"
		},
		{
			"bufferView":192,
			"componentType":5126,
			"count":2,
			"type":"VEC3"
		},
		{
			"bufferView":193,
			"componentType":5126,
			"count":2,
			"type":"VEC3"
		},
		{
			"bufferView":194,
			"componentType":5126,
			"count":31,
			"type":"VEC4"
		},
		{
			"bufferView":195,
			"componentType":5126,
			"count":2,
			"type":"VEC3"
		},
		{
			"bufferView":196,
			"componentType":5126,
			"count":2,
			"type":"VEC3"
		},
		{
			"bufferView":197,
			"componentType":5126,
			"count":2,
			"type":"VEC4"
		},
		{
			"bufferView":198,
			"componentType":5126,
			"count":2,
			"type":"VEC3"
		},
		{
			"bufferView":199,
			"componentType":5126,
			"count":2,
			"type":"VEC3"
		},
		{
			"bufferView":200,
			"componentType":5126,
			"count":2,
			"type":"VEC4"
		},
		{
			"bufferView":201,
			"componentType":5126,
			"count":2,
			"type":"VEC3"
		},
		{
			"bufferView":202,
			"componentType":5126,
			"count":2,
			"type":"VEC3"
		},
		{
			"bufferView":203,
			"componentType":5126,
			"count":31,
			"type":"VEC4"
		},
		{
			"bufferView":204,
			"componentType":5126,
			"count":2,
			"type":"VEC3"
		},
		{
			"bufferView":205,
			"componentType":5126,
			"count":2,
			"type":"VEC3"
		},
		{
			"bufferView":206,
			"componentType":5126,
			"count":2,
			"type":"VEC4"
		},
		{
			"bufferView":207,
			"componentType":5126,
			"count":2,
			"type":"VEC3"
		},
		{
			"bufferView":208,
			"componentType":5126,
			"count":2,
			"type":"VEC3"
		},
		{
			"bufferView":209,
			"componentType":5126,
			"count":2,
			"type":"VEC4"
		},
		{
			"bufferView":210,
			"componentType":5126,
			"count":2,
			"type":"VEC3"
		},
		{
			"bufferView":211,
			"componentType":5126,
			"count":2,
			"type":"VEC3"
		},
		{
			"bufferView":212,
			"componentType":5126,
			"count":31,
			"type":"VEC4"
		},
		{
			"bufferView":213,
			"componentType":5126,
			"count":2,
			"type":"VEC3"
		},
		{
			"bufferView":214,
			"componentType":5126,
			"count":2,
			"type":"VEC3"
		},
		{
			"bufferView":215,
			"componentType":5126,
			"count":2,
			"type":"VEC4"
		},
		{
			"bufferView":216,
			"componentType":5126,
			"count":2,
			"type":"VEC3"
		},
		{
			"bufferView":217,
			"componentType":5126,
			"count":2,
			"type":"VEC3"
		},
		{
			"bufferView":218,
			"componentType":5126,
			"count":2,
			"type":"VEC4"
		},
		{
			"bufferView":219,
			"componentType":5126,
			"count":2,
			"type":"VEC3"
		},
		{
			"bufferView":220,
			"componentType":5126,
			"count":2,
			"type":"VEC3"
		},
		{
			"bufferView":221,
			"componentType":5126,
			"count":31,
			"type":"VEC4"
		},
		{
			"bufferView":222,
			"componentType":5126,
			"count":2,
			"type":"VEC3"
		},
		{
			"bufferView":223,
			"componentType":5126,
			"count":2,
			"type":"VEC3"
		},
		{
			"bufferView":224,
			"componentType":5126,
			"count":31,
			"type":"VEC4"
		},
		{
			"bufferView":225,
			"componentType":5126,
			"count":2,
			"type":"VEC3"
		},
		{
			"bufferView":226,
			"componentType":5126,
			"count":2,
			"type":"VEC3"
		},
		{
			"bufferView":227,
			"componentType":5126,
			"count":31,
			"type":"VEC4"
		},
		{
			"bufferView":228,
			"componentType":5126,
			"count":2,
			"type":"VEC3"
		},
		{
			"bufferView":229,
			"componentType":5126,
			"count":2,
			"type":"VEC3"
		},
		{
			"bufferView":230,
			"componentType":5126,
			"count":31,
			"type":"VEC4"
		},
		{
			"bufferView":231,
			"componentType":5126,
			"count":2,
			"type":"VEC3"
		},
		{
			"bufferView":232,
			"componentType":5126,
			"count":2,
			"type":"VEC3"
		},
		{
			"bufferView":233,
			"componentType":5126,
			"count":31,
			"type":"VEC4"
		},
		{
			"bufferView":234,
			"componentType":5126,
			"count":2,
			"type":"VEC3"
		},
		{
			"bufferView":235,
			"componentType":5126,
			"count":2,
			"type":"VEC3"
		},
		{
			"bufferView":236,
			"componentType":5126,
			"count":31,
			"type":"VEC4"
		},
		{
			"bufferView":237,
			"componentType":5126,
			"count":2,
			"type":"VEC3"
		}
	],
	"bufferViews":[
		{
			"buffer":0,
			"byteLength":27012,
			"byteOffset":0,
			"target":34962
		},
		{
			"buffer":0,
			"byteLength":27012,
			"byteOffset":27012,
			"target":34962
		},
		{
			"buffer":0,
			"byteLength":18008,
			"byteOffset":54024,
			"target":34962
		},
		{
			"buffer":0,
			"byteLength":9004,
			"byteOffset":72032,
			"target":34962
		},
		{
			"buffer":0,
			"byteLength":36016,
			"byteOffset":81036,
			"target":34962
		},
		{
			"buffer":0,
			"byteLength":18744,
			"byteOffset":117052,
			"target":34963
		},
		{
			"buffer":0,
			"byteLength":25452,
			"byteOffset":135796,
			"target":34962
		},
		{
			"buffer":0,
			"byteLength":25452,
			"byteOffset":161248,
			"target":34962
		},
		{
			"buffer":0,
			"byteLength":16968,
			"byteOffset":186700,
			"target":34962
		},
		{
			"buffer":0,
			"byteLength":8484,
			"byteOffset":203668,
			"target":34962
		},
		{
			"buffer":0,
			"byteLength":33936,
			"byteOffset":212152,
			"target":34962
		},
		{
			"buffer":0,
			"byteLength":14400,
			"byteOffset":246088,
			"target":34963
		},
		{
			"buffer":0,
			"byteLength":4464,
			"byteOffset":260488,
			"target":34962
		},
		{
			"buffer":0,
			"byteLength":4464,
			"byteOffset":264952,
			"target":34962
		},
		{
			"buffer":0,
			"byteLength":2976,
			"byteOffset":269416,
			"target":34962
		},
		{
			"buffer":0,
			"byteLength":1488,
			"byteOffset":272392,
			"target":34962
		},
		{
			"buffer":0,
			"byteLength":5952,
			"byteOffset":273880,
			"target":34962
		},
		{
			"buffer":0,
			"byteLength":2760,
			"byteOffset":279832,
			"target":34963
		},
		{
			"buffer":0,
			"byteLength":720,
			"byteOffset":282592,
			"target":34962
		},
		{
			"buffer":0,
			"byteLength":720,
			"byteOffset":283312,
			"target":34962
		},
		{
			"buffer":0,
			"byteLength":480,
			"byteOffset":284032,
			"target":34962
		},
		{
			"buffer":0,
			"byteLength":240,
			"byteOffset":284512,
			"target":34962
		},
		{
			"buffer":0,
			"byteLength":960,
			"byteOffset":284752,
			"target":34962
		},
		{
			"buffer":0,
			"byteLength":336,
			"byteOffset":285712,
			"target":34963
		},
		{
			"buffer":0,
			"byteLength":8076,
			"byteOffset":286048,
			"target":34962
		},
		{
			"buffer":0,
			"byteLength":8076,
			"byteOffset":294124,
			"target":34962
		},
		{
			"buffer":0,
			"byteLength":5384,
			"byteOffset":302200,
			"target":34962
		},
		{
			"buffer":0,
			"byteLength":2692,
			"byteOffset":307584,
			"target":34962
		},
		{
			"buffer":0,
			"byteLength":10768,
			"byteOffset":310276,
			"target":34962
		},
		{
			"buffer":0,
			"byteLength":5616,
			"byteOffset":321044,
			"target":34963
		},
		{
			"buffer":0,
			"byteLength":10488,
			"byteOffset":326660,
			"target":34962
		},
		{
			"buffer":0,
			"byteLength":10488,
			"byteOffset":337148,
			"target":34962
		},
		{
			"buffer":0,
			"byteLength":6992,
			"byteOffset":347636,
			"target":34962
		},
		{
			"buffer":0,
			"byteLength":3496,
			"byteOffset":354628,
			"target":34962
		},
		{
			"buffer":0,
			"byteLength":13984,
			"byteOffset":358124,
			"target":34962
		},
		{
			"buffer":0,
			"byteLength":7680,
			"byteOffset":372108,
			"target":34963
		},
		{
			"buffer":0,
			"byteLength":3648,
			"byteOffset":379788,
			"target":34962
		},
		{
			"buffer":0,
			"byteLength":3648,
			"byteOffset":383436,
			"target":34962
		},
		{
			"buffer":0,
			"byteLength":2432,
			"byteOffset":387084,
			"target":34962
		},
		{
			"buffer":0,
			"byteLength":1216,
			"byteOffset":389516,
			"target":34962
		},
		{
			"buffer":0,
			"byteLength":4864,
			"byteOffset":390732,
			"target":34962
		},
		{
			"buffer":0,
			"byteLength":2304,
			"byteOffset":395596,
			"target":34963
		},
		{
			"buffer":0,
			"byteLength":2640,
			"byteOffset":397900,
			"target":34962
		},
		{
			"buffer":0,
			"byteLength":2640,
			"byteOffset":400540,
			"target":34962
		},
		{
			"buffer":0,
			"byteLength":1760,
			"byteOffset":403180,
			"target":34962
		},
		{
			"buffer":0,
			"byteLength":880,
			"byteOffset":404940,
			"target":34962
		},
		{
			"buffer":0,
			"byteLength":3520,
			"byteOffset":405820,
			"target":34962
		},
		{
			"buffer":0,
			"byteLength":1440,
			"byteOffset":409340,
			"target":34963
		},
		{
			"buffer":0,
			"byteLength":1920,
			"byteOffset":410780,
			"target":34962
		},
		{
			"buffer":0,
			"byteLength":1920,
			"byteOffset":412700,
			"target":34962
		},
		{
			"buffer":0,
			"byteLength":1280,
			"byteOffset":414620,
			"target":34962
		},
		{
			"buffer":0,
			"byteLength":640,
			"byteOffset":415900,
			"target":34962
		},
		{
			"buffer":0,
			"byteLength":2560,
			"byteOffset":416540,
			"target":34962
		},
		{
			"buffer":0,
			"byteLength":960,
			"byteOffset":419100,
			"target":34963
		},
		{
			"buffer":0,
			"byteLength":1176,
			"byteOffset":420060,
			"target":34962
		},
		{
			"buffer":0,
			"byteLength":1176,
			"byteOffset":421236,
			"target":34962
		},
		{
			"buffer":0,
			"byteLength":784,
			"byteOffset":422412,
			"target":34962
		},
		{
			"buffer":0,
			"byteLength":392,
			"byteOffset":423196,
			"target":34962
		},
		{
			"buffer":0,
			"byteLength":1568,
			"byteOffset":423588,
			"target":34962
		},
		{
			"buffer":0,
			"byteLength":720,
			"byteOffset":425156,
			"target":34963
		},
		{
			"buffer":0,
			"byteLength":2160,
			"byteOffset":425876,
			"target":34962
		},
		{
			"buffer":0,
			"byteLength":2160,
			"byteOffset":428036,
			"target":34962
		},
		{
			"buffer":0,
			"byteLength":1440,
			"byteOffset":430196,
			"target":34962
		},
		{
			"buffer":0,
			"byteLength":720,
			"byteOffset":431636,
			"target":34962
		},
		{
			"buffer":0,
			"byteLength":2880,
			"byteOffset":432356,
			"target":34962
		},
		{
			"buffer":0,
			"byteLength":1152,
			"byteOffset":435236,
			"target":34963
		},
		{
			"buffer":0,
			"byteLength":288,
			"byteOffset":436388,
			"target":34962
		},
		{
			"buffer":0,
			"byteLength":288,
			"byteOffset":436676,
			"target":34962
		},
		{
			"buffer":0,
			"byteLength":192,
			"byteOffset":436964,
			"target":34962
		},
		{
			"buffer":0,
			"byteLength":96,
			"byteOffset":437156,
			"target":34962
		},
		{
			"buffer":0,
			"byteLength":384,
			"byteOffset":437252,
			"target":34962
		},
		{
			"buffer":0,
			"byteLength":72,
			"byteOffset":437636,
			"target":34963
		},
		{
			"buffer":0,
			"byteLength":768,
			"byteOffset":437708,
			"target":34962
		},
		{
			"buffer":0,
			"byteLength":768,
			"byteOffset":438476,
			"target":34962
		},
		{
			"buffer":0,
			"byteLength":512,
			"byteOffset":439244,
			"target":34962
		},
		{
			"buffer":0,
			"byteLength":256,
			"byteOffset":439756,
			"target":34962
		},
		{
			"buffer":0,
			"byteLength":1024,
			"byteOffset":440012,
			"target":34962
		},
		{
			"buffer":0,
			"byteLength":360,
			"byteOffset":441036,
			"target":34963
		},
		{
			"buffer":0,
			"byteLength":1088,
			"byteOffset":441396
		},
		{
			"buffer":0,
			"byteLength":8,
			"byteOffset":442484
		},
		{
			"buffer":0,
			"byteLength":24,
			"byteOffset":442492
		},
		{
			"buffer":0,
			"byteLength":32,
			"byteOffset":442516
		},
		{
			"buffer":0,
			"byteLength":24,
			"byteOffset":442548
		},
		{
			"buffer":0,
			"byteLength":24,
			"byteOffset":442572
		},
		{
			"buffer":0,
			"byteLength":32,
			"byteOffset":442596
		},
		{
			"buffer":0,
			"byteLength":24,
			"byteOffset":442628
		},
		{
			"buffer":0,
			"byteLength":24,
			"byteOffset":442652
		},
		{
			"buffer":0,
			"byteLength":76,
			"byteOffset":442676
		},
		{
			"buffer":0,
			"byteLength":304,
			"byteOffset":442752
		},
		{
			"buffer":0,
			"byteLength":24,
			"byteOffset":443056
		},
		{
			"buffer":0,
			"byteLength":24,
			"byteOffset":443080
		},
		{
			"buffer":0,
			"byteLength":32,
			"byteOffset":443104
		},
		{
			"buffer":0,
			"byteLength":24,
			"byteOffset":443136
		},
		{
			"buffer":0,
			"byteLength":24,
			"byteOffset":443160
		},
		{
			"buffer":0,
			"byteLength":32,
			"byteOffset":443184
		},
		{
			"buffer":0,
			"byteLength":24,
			"byteOffset":443216
		},
		{
			"buffer":0,
			"byteLength":24,
			"byteOffset":443240
		},
		{
			"buffer":0,
			"byteLength":304,
			"byteOffset":443264
		},
		{
			"buffer":0,
			"byteLength":24,
			"byteOffset":443568
		},
		{
			"buffer":0,
			"byteLength":24,
			"byteOffset":443592
		},
		{
			"buffer":0,
			"byteLength":304,
			"byteOffset":443616
		},
		{
			"buffer":0,
			"byteLength":24,
			"byteOffset":443920
		},
		{
			"buffer":0,
			"byteLength":24,
			"byteOffset":443944
		},
		{
			"buffer":0,
			"byteLength":32,
			"byteOffset":443968
		},
		{
			"buffer":0,
			"byteLength":24,
			"byteOffset":444000
		},
		{
			"buffer":0,
			"byteLength":24,
			"byteOffset":444024
		},
		{
			"buffer":0,
			"byteLength":304,
			"byteOffset":444048
		},
		{
			"buffer":0,
			"byteLength":24,
			"byteOffset":444352
		},
		{
			"buffer":0,
			"byteLength":24,
			"byteOffset":444376
		},
		{
			"buffer":0,
			"byteLength":32,
			"byteOffset":444400
		},
		{
			"buffer":0,
			"byteLength":24,
			"byteOffset":444432
		},
		{
			"buffer":0,
			"byteLength":24,
			"byteOffset":444456
		},
		{
			"buffer":0,
			"byteLength":32,
			"byteOffset":444480
		},
		{
			"buffer":0,
			"byteLength":24,
			"byteOffset":444512
		},
		{
			"buffer":0,
			"byteLength":24,
			"byteOffset":444536
		},
		{
			"buffer":0,
			"byteLength":304,
			"byteOffset":444560
		},
		{
			"buffer":0,
			"byteLength":24,
			"byteOffset":444864
		},
		{
			"buffer":0,
			"byteLength":24,
			"byteOffset":444888
		},
		{
			"buffer":0,
			"byteLength":32,
			"byteOffset":444912
		},
		{
			"buffer":0,
			"byteLength":24,
			"byteOffset":444944
		},
		{
			"buffer":0,
			"byteLength":24,
			"byteOffset":444968
		},
		{
			"buffer":0,
			"byteLength":32,
			"byteOffset":444992
		},
		{
			"buffer":0,
			"byteLength":24,
			"byteOffset":445024
		},
		{
			"buffer":0,
			"byteLength":24,
			"byteOffset":445048
		},
		{
			"buffer":0,
			"byteLength":304,
			"byteOffset":445072
		},
		{
			"buffer":0,
			"byteLength":24,
			"byteOffset":445376
		},
		{
			"buffer":0,
			"byteLength":24,
			"byteOffset":445400
		},
		{
			"buffer":0,
			"byteLength":32,
			"byteOffset":445424
		},
		{
			"buffer":0,
			"byteLength":24,
			"byteOffset":445456
		},
		{
			"buffer":0,
			"byteLength":24,
			"byteOffset":445480
		},
		{
			"buffer":0,
			"byteLength":32,
			"byteOffset":445504
		},
		{
			"buffer":0,
			"byteLength":24,
			"byteOffset":445536
		},
		{
			"buffer":0,
			"byteLength":244,
			"byteOffset":445560
		},
		{
			"buffer":0,
			"byteLength":732,
			"byteOffset":445804
		},
		{
			"buffer":0,
			"byteLength":8,
			"byteOffset":446536
		},
		{
			"buffer":0,
			"byteLength":32,
			"byteOffset":446544
		},
		{
			"buffer":0,
			"byteLength":24,
			"byteOffset":446576
		},
		{
			"buffer":0,
			"byteLength":24,
			"byteOffset":446600
		},
		{
			"buffer":0,
			"byteLength":32,
			"byteOffset":446624
		},
		{
			"buffer":0,
			"byteLength":24,
			"byteOffset":446656
		},
		{
			"buffer":0,
			"byteLength":24,
			"byteOffset":446680
		},
		{
			"buffer":0,
			"byteLength":976,
			"byteOffset":446704
		},
		{
			"buffer":0,
			"byteLength":24,
			"byteOffset":447680
		},
		{
			"buffer":0,
			"byteLength":24,
			"byteOffset":447704
		},
		{
			"buffer":0,
			"byteLength":32,
			"byteOffset":447728
		},
		{
			"buffer":0,
			"byteLength":24,
			"byteOffset":447760
		},
		{
			"buffer":0,
			"byteLength":24,
			"byteOffset":447784
		},
		{
			"buffer":0,
			"byteLength":976,
			"byteOffset":447808
		},
		{
			"buffer":0,
			"byteLength":24,
			"byteOffset":448784
		},
		{
			"buffer":0,
			"byteLength":24,
			"byteOffset":448808
		},
		{
			"buffer":0,
			"byteLength":976,
			"byteOffset":448832
		},
		{
			"buffer":0,
			"byteLength":24,
			"byteOffset":449808
		},
		{
			"buffer":0,
			"byteLength":24,
			"byteOffset":449832
		},
		{
			"buffer":0,
			"byteLength":32,
			"byteOffset":449856
		},
		{
			"buffer":0,
			"byteLength":24,
			"byteOffset":449888
		},
		{
			"buffer":0,
			"byteLength":24,
			"byteOffset":449912
		},
		{
			"buffer":0,
			"byteLength":32,
			"byteOffset":449936
		},
		{
			"buffer":0,
			"byteLength":24,
			"byteOffset":449968
		},
		{
			"buffer":0,
			"byteLength":24,
			"byteOffset":449992
		},
		{
			"buffer":0,
			"byteLength":976,
			"byteOffset":450016
		},
		{
			"buffer":0,
			"byteLength":24,
			"byteOffset":450992
		},
		{
			"buffer":0,
			"byteLength":24,
			"byteOffset":451016
		},
		{
			"buffer":0,
			"byteLength":32,
			"byteOffset":451040
		},
		{
			"buffer":0,
			"byteLength":24,
			"byteOffset":451072
		},
		{
			"buffer":0,
			"byteLength":24,
			"byteOffset":451096
		},
		{
			"buffer":0,
			"byteLength":32,
			"byteOffset":451120
		},
		{
			"buffer":0,
			"byteLength":24,
			"byteOffset":451152
		},
		{
			"buffer":0,
			"byteLength":24,
			"byteOffset":451176
		},
		{
			"buffer":0,
			"byteLength":32,
			"byteOffset":451200
		},
		{
			"buffer":0,
			"byteLength":24,
			"byteOffset":451232
		},
		{
			"buffer":0,
			"byteLength":24,
			"byteOffset":451256
		},
		{
			"buffer":0,
			"byteLength":32,
			"byteOffset":451280
		},
		{
			"buffer":0,
			"byteLength":24,
			"byteOffset":451312
		},
		{
			"buffer":0,
			"byteLength":24,
			"byteOffset":451336
		},
		{
			"buffer":0,
			"byteLength":32,
			"byteOffset":451360
		},
		{
			"buffer":0,
			"byteLength":24,
			"byteOffset":451392
		},
		{
			"buffer":0,
			"byteLength":24,
			"byteOffset":451416
		},
		{
			"buffer":0,
			"byteLength":32,
			"byteOffset":451440
		},
		{
			"buffer":0,
			"byteLength":24,
			"byteOffset":451472
		},
		{
			"buffer":0,
			"byteLength":24,
			"byteOffset":451496
		},
		{
			"buffer":0,
			"byteLength":32,
			"byteOffset":451520
		},
		{
			"buffer":0,
			"byteLength":24,
			"byteOffset":451552
		},
		{
			"buffer":0,
			"byteLength":24,
			"byteOffset":451576
		},
		{
			"buffer":0,
			"byteLength":32,
			"byteOffset":451600
		},
		{
			"buffer":0,
			"byteLength":24,
			"byteOffset":451632
		},
		{
			"buffer":0,
			"byteLength":124,
			"byteOffset":451656
		},
		{
			"buffer":0,
			"byteLength":372,
			"byteOffset":451780
		},
		{
			"buffer":0,
			"byteLength":496,
			"byteOffset":452152
		},
		{
			"buffer":0,
			"byteLength":8,
			"byteOffset":452648
		},
		{
			"buffer":0,
			"byteLength":24,
			"byteOffset":452656
		},
		{
			"buffer":0,
			"byteLength":24,
			"byteOffset":452680
		},
		{
			"buffer":0,
			"byteLength":32,
			"byteOffset":452704
		},
		{
			"buffer":0,
			"byteLength":24,
			"byteOffset":452736
		},
		{
			"buffer":0,
			"byteLength":24,
			"byteOffset":452760
		},
		{
			"buffer":0,
			"byteLength":496,
			"byteOffset":452784
		},
		{
			"buffer":0,
			"byteLength":24,
			"byteOffset":453280
		},
		{
			"buffer":0,
			"byteLength":24,
			"byteOffset":453304
		},
		{
			"buffer":0,
			"byteLength":32,
			"byteOffset":453328
		},
		{
			"buffer":0,
			"byteLength":24,
			"byteOffset":453360
		},
		{
			"buffer":0,
			"byteLength":24,
			"byteOffset":453384
		},
		{
			"buffer":0,
			"byteLength":32,
			"byteOffset":453408
		},
		{
			"buffer":0,
			"byteLength":24,
			"byteOffset":453440
		},
		{
			"buffer":0,
			"byteLength":24,
			"byteOffset":453464
		},
		{
			"buffer":0,
			"byteLength":496,
			"byteOffset":453488
		},
		{
			"buffer":0,
			"byteLength":24,
			"byteOffset":453984
		},
		{
			"buffer":0,
			"byteLength":24,
			"byteOffset":454008
		},
		{
			"buffer":0,
			"byteLength":32,
			"byteOffset":454032
		},
		{
			"buffer":0,
			"byteLength":24,
			"byteOffset":454064
		},
		{
			"buffer":0,
			"byteLength":24,
			"byteOffset":454088
		},
		{
			"buffer":0,
			"byteLength":32,
			"byteOffset":454112
		},
		{
			"buffer":0,
			"byteLength":24,
			"byteOffset":454144
		},
		{
			"buffer":0,
			"byteLength":24,
			"byteOffset":454168
		},
		{
			"buffer":0,
			"byteLength":496,
			"byteOffset":454192
		},
		{
			"buffer":0,
			"byteLength":24,
			"byteOffset":454688
		},
		{
			"buffer":0,
			"byteLength":24,
			"byteOffset":454712
		},
		{
			"buffer":0,
			"byteLength":32,
			"byteOffset":454736
		},
		{
			"buffer":0,
			"byteLength":24,
			"byteOffset":454768
		},
		{
			"buffer":0,
			"byteLength":24,
			"byteOffset":454792
		},
		{
			"buffer":0,
			"byteLength":32,
			"byteOffset":454816
		},
		{
			"buffer":0,
			"byteLength":24,
			"byteOffset":454848
		},
		{
			"buffer":0,
			"byteLength":24,
			"byteOffset":454872
		},
		{
			"buffer":0,
			"byteLength":496,
			"byteOffset":454896
		},
		{
			"buffer":0,
			"byteLength":24,
			"byteOffset":455392
		},
		{
			"buffer":0,
			"byteLength":24,
			"byteOffset":455416
		},
		{
			"buffer":0,
			"byteLength":496,
			"byteOffset":455440
		},
		{
			"buffer":0,
			"byteLength":24,
			"byteOffset":455936
		},
		{
			"buffer":0,
			"byteLength":24,
			"byteOffset":455960
		},
		{
			"buffer":0,
			"byteLength":496,
			"byteOffset":455984
		},
		{
			"buffer":0,
			"byteLength":24,
			"byteOffset":456480
		},
		{
			"buffer":0,
			"byteLength":24,
			"byteOffset":456504
		},
		{
			"buffer":0,
			"byteLength":496,
			"byteOffset":456528
		},
		{
			"buffer":0,
			"byteLength":24,
			"byteOffset":457024
		},
		{
			"buffer":0,
			"byteLength":24,
			"byteOffset":457048
		},
		{
			"buffer":0,
			"byteLength":496,
			"byteOffset":457072
		},
		{
			"buffer":0,
			"byteLength":24,
			"byteOffset":457568
		},
		{
			"buffer":0,
			"byteLength":24,
			"byteOffset":457592
		},
		{
			"buffer":0,
			"byteLength":496,
			"byteOffset":457616
		},
		{
			"buffer":0,
			"byteLength":24,
			"byteOffset":458112
		}
	],
	"samplers":[
		{
			"magFilter":9729,
			"minFilter":9987
		}
	],
	"buffers":[
		{
			"byteLength":458136,
			"uri":"ogre.bin"
		}
	]
}
