{
	"asset":{
		"generator":"Khronos glTF Blender I/O v4.2.57",
		"version":"2.0"
	},
	"extensionsUsed":[
		"KHR_materials_clearcoat",
		"KHR_materials_sheen"
	],
	"scene":0,
	"scenes":[
		{
			"name":"Scene",
			"nodes":[
				18
			]
		}
	],
	"nodes":[
		{
			"name":"head",
			"translation":[
				0,
				0.1399998664855957,
				0
			]
		},
		{
			"children":[
				0
			],
			"name":"neck",
			"translation":[
				0,
				0.2940000295639038,
				0
			]
		},
		{
			"name":"hand.R",
			"rotation":[
				-0.003720849519595504,
				-0.026681000366806984,
				0.028650060296058655,
				0.999226450920105
			],
			"scale":[
				1,
				1,
				0.9999998807907104
			],
			"translation":[
				-4.400499165058136e-08,
				0.35331207513809204,
				-2.7939677238464355e-09
			]
		},
		{
			"children":[
				2
			],
			"name":"forearm.R",
			"rotation":[
				0.04398565739393234,
				-0.06757660955190659,
				0.0785626694560051,
				0.9936431050300598
			],
			"scale":[
				1,
				0.9999999403953552,
				0.9999998807907104
			],
			"translation":[
				-9.546056389808655e-09,
				0.3904477059841156,
				-2.514570951461792e-08
			]
		},
		{
			"children":[
				3
			],
			"name":"upper_arm.R",
			"rotation":[
				0.983932614326477,
				0.12623897194862366,
				0.1262388974428177,
				0.0020243809558451176
			],
			"scale":[
				1.000000238418579,
				1,
				0.9999998807907104
			],
			"translation":[
				0.39312002062797546,
				0.22400009632110596,
				0
			]
		},
		{
			"name":"hand.L",
			"rotation":[
				-0.003720849519595504,
				0.026681000366806984,
				-0.028650060296058655,
				0.999226450920105
			],
			"scale":[
				1,
				1,
				0.9999998807907104
			],
			"translation":[
				4.400499165058136e-08,
				0.35331207513809204,
				-2.7939677238464355e-09
			]
		},
		{
			"children":[
				5
			],
			"name":"forearm.L",
			"rotation":[
				0.04398565739393234,
				0.06757660955190659,
				-0.0785626694560051,
				0.9936431050300598
			],
			"scale":[
				1,
				0.9999999403953552,
				0.9999998807907104
			],
			"translation":[
				9.546056389808655e-09,
				0.3904477059841156,
				-2.514570951461792e-08
			]
		},
		{
			"children":[
				6
			],
			"name":"upper_arm.L",
			"rotation":[
				0.983932614326477,
				-0.12623897194862366,
				-0.1262388974428177,
				0.0020243809558451176
			],
			"scale":[
				1.000000238418579,
				1,
				0.9999998807907104
			],
			"translation":[
				-0.39312002062797546,
				0.22400009632110596,
				0
			]
		},
		{
			"children":[
				1,
				4,
				7
			],
			"name":"chest",
			"scale":[
				1,
				0.9999999403953552,
				1
			],
			"translation":[
				0,
				0.23799991607666016,
				0
			]
		},
		{
			"children":[
				8
			],
			"name":"spine",
			"translation":[
				0,
				0.21000003814697266,
				0
			]
		},
		{
			"name":"foot.R",
			"rotation":[
				0.5914182066917419,
				6.196472779329554e-10,
				8.448586830134275e-10,
				0.8063650131225586
			],
			"translation":[
				2.6207833125901914e-10,
				0.5748255848884583,
				-1.885972267245961e-09
			]
		},
		{
			"children":[
				10
			],
			"name":"shin.R",
			"rotation":[
				-0.04157108813524246,
				-0.012822362594306469,
				0.012152786366641521,
				0.9989793300628662
			],
			"translation":[
				2.246815711259842e-08,
				0.574430525302887,
				-1.862645149230957e-09
			]
		},
		{
			"children":[
				11
			],
			"name":"thigh.R",
			"rotation":[
				-0.99973464012146,
				-0.012492064386606216,
				-0.012492193840444088,
				0.01478315144777298
			],
			"scale":[
				1.0000003576278687,
				1.000000238418579,
				1.0000003576278687
			],
			"translation":[
				0.1674399971961975,
				-0.02799999713897705,
				0
			]
		},
		{
			"name":"foot.L",
			"rotation":[
				0.5914182066917419,
				-6.196472779329554e-10,
				-8.448586830134275e-10,
				0.8063650131225586
			],
			"translation":[
				-2.6207833125901914e-10,
				0.5748255848884583,
				-1.885972267245961e-09
			]
		},
		{
			"children":[
				13
			],
			"name":"shin.L",
			"rotation":[
				-0.04157108813524246,
				0.012822362594306469,
				-0.012152786366641521,
				0.9989793300628662
			],
			"translation":[
				-2.246815711259842e-08,
				0.574430525302887,
				-1.862645149230957e-09
			]
		},
		{
			"children":[
				14
			],
			"name":"thigh.L",
			"rotation":[
				-0.99973464012146,
				0.012492064386606216,
				0.012492193840444088,
				0.01478315144777298
			],
			"scale":[
				1.0000003576278687,
				1.000000238418579,
				1.0000003576278687
			],
			"translation":[
				-0.1674399971961975,
				-0.02799999713897705,
				0
			]
		},
		{
			"children":[
				9,
				12,
				15
			],
			"name":"hips",
			"translation":[
				0,
				1.3020000457763672,
				0
			]
		},
		{
			"mesh":0,
			"name":"ogre_prince",
			"skin":0
		},
		{
			"children":[
				17,
				16
			],
			"name":"ogre_prince_rig"
		}
	],
	"animations":[
		{
			"channels":[
				{
					"sampler":0,
					"target":{
						"node":16,
						"path":"translation"
					}
				},
				{
					"sampler":1,
					"target":{
						"node":16,
						"path":"rotation"
					}
				},
				{
					"sampler":2,
					"target":{
						"node":16,
						"path":"scale"
					}
				},
				{
					"sampler":3,
					"target":{
						"node":9,
						"path":"translation"
					}
				},
				{
					"sampler":4,
					"target":{
						"node":9,
						"path":"rotation"
					}
				},
				{
					"sampler":5,
					"target":{
						"node":9,
						"path":"scale"
					}
				},
				{
					"sampler":6,
					"target":{
						"node":8,
						"path":"translation"
					}
				},
				{
					"sampler":7,
					"target":{
						"node":8,
						"path":"rotation"
					}
				},
				{
					"sampler":8,
					"target":{
						"node":8,
						"path":"scale"
					}
				},
				{
					"sampler":9,
					"target":{
						"node":1,
						"path":"translation"
					}
				},
				{
					"sampler":10,
					"target":{
						"node":1,
						"path":"rotation"
					}
				},
				{
					"sampler":11,
					"target":{
						"node":1,
						"path":"scale"
					}
				},
				{
					"sampler":12,
					"target":{
						"node":0,
						"path":"translation"
					}
				},
				{
					"sampler":13,
					"target":{
						"node":0,
						"path":"rotation"
					}
				},
				{
					"sampler":14,
					"target":{
						"node":0,
						"path":"scale"
					}
				},
				{
					"sampler":15,
					"target":{
						"node":4,
						"path":"translation"
					}
				},
				{
					"sampler":16,
					"target":{
						"node":4,
						"path":"rotation"
					}
				},
				{
					"sampler":17,
					"target":{
						"node":4,
						"path":"scale"
					}
				},
				{
					"sampler":18,
					"target":{
						"node":3,
						"path":"translation"
					}
				},
				{
					"sampler":19,
					"target":{
						"node":3,
						"path":"rotation"
					}
				},
				{
					"sampler":20,
					"target":{
						"node":3,
						"path":"scale"
					}
				},
				{
					"sampler":21,
					"target":{
						"node":2,
						"path":"translation"
					}
				},
				{
					"sampler":22,
					"target":{
						"node":2,
						"path":"rotation"
					}
				},
				{
					"sampler":23,
					"target":{
						"node":2,
						"path":"scale"
					}
				},
				{
					"sampler":24,
					"target":{
						"node":7,
						"path":"translation"
					}
				},
				{
					"sampler":25,
					"target":{
						"node":7,
						"path":"rotation"
					}
				},
				{
					"sampler":26,
					"target":{
						"node":7,
						"path":"scale"
					}
				},
				{
					"sampler":27,
					"target":{
						"node":6,
						"path":"translation"
					}
				},
				{
					"sampler":28,
					"target":{
						"node":6,
						"path":"rotation"
					}
				},
				{
					"sampler":29,
					"target":{
						"node":6,
						"path":"scale"
					}
				},
				{
					"sampler":30,
					"target":{
						"node":5,
						"path":"translation"
					}
				},
				{
					"sampler":31,
					"target":{
						"node":5,
						"path":"rotation"
					}
				},
				{
					"sampler":32,
					"target":{
						"node":5,
						"path":"scale"
					}
				},
				{
					"sampler":33,
					"target":{
						"node":12,
						"path":"translation"
					}
				},
				{
					"sampler":34,
					"target":{
						"node":12,
						"path":"rotation"
					}
				},
				{
					"sampler":35,
					"target":{
						"node":12,
						"path":"scale"
					}
				},
				{
					"sampler":36,
					"target":{
						"node":11,
						"path":"translation"
					}
				},
				{
					"sampler":37,
					"target":{
						"node":11,
						"path":"rotation"
					}
				},
				{
					"sampler":38,
					"target":{
						"node":11,
						"path":"scale"
					}
				},
				{
					"sampler":39,
					"target":{
						"node":10,
						"path":"translation"
					}
				},
				{
					"sampler":40,
					"target":{
						"node":10,
						"path":"rotation"
					}
				},
				{
					"sampler":41,
					"target":{
						"node":10,
						"path":"scale"
					}
				},
				{
					"sampler":42,
					"target":{
						"node":15,
						"path":"translation"
					}
				},
				{
					"sampler":43,
					"target":{
						"node":15,
						"path":"rotation"
					}
				},
				{
					"sampler":44,
					"target":{
						"node":15,
						"path":"scale"
					}
				},
				{
					"sampler":45,
					"target":{
						"node":14,
						"path":"translation"
					}
				},
				{
					"sampler":46,
					"target":{
						"node":14,
						"path":"rotation"
					}
				},
				{
					"sampler":47,
					"target":{
						"node":14,
						"path":"scale"
					}
				},
				{
					"sampler":48,
					"target":{
						"node":13,
						"path":"translation"
					}
				},
				{
					"sampler":49,
					"target":{
						"node":13,
						"path":"rotation"
					}
				},
				{
					"sampler":50,
					"target":{
						"node":13,
						"path":"scale"
					}
				}
			],
			"name":"attack",
			"samplers":[
				{
					"input":91,
					"interpolation":"STEP",
					"output":92
				},
				{
					"input":91,
					"interpolation":"STEP",
					"output":93
				},
				{
					"input":91,
					"interpolation":"STEP",
					"output":94
				},
				{
					"input":91,
					"interpolation":"STEP",
					"output":95
				},
				{
					"input":91,
					"interpolation":"STEP",
					"output":96
				},
				{
					"input":91,
					"interpolation":"STEP",
					"output":97
				},
				{
					"input":91,
					"interpolation":"STEP",
					"output":98
				},
				{
					"input":99,
					"interpolation":"LINEAR",
					"output":100
				},
				{
					"input":91,
					"interpolation":"STEP",
					"output":101
				},
				{
					"input":91,
					"interpolation":"STEP",
					"output":102
				},
				{
					"input":91,
					"interpolation":"STEP",
					"output":103
				},
				{
					"input":91,
					"interpolation":"STEP",
					"output":104
				},
				{
					"input":91,
					"interpolation":"STEP",
					"output":105
				},
				{
					"input":91,
					"interpolation":"STEP",
					"output":106
				},
				{
					"input":91,
					"interpolation":"STEP",
					"output":107
				},
				{
					"input":91,
					"interpolation":"STEP",
					"output":108
				},
				{
					"input":99,
					"interpolation":"LINEAR",
					"output":109
				},
				{
					"input":91,
					"interpolation":"STEP",
					"output":110
				},
				{
					"input":91,
					"interpolation":"LINEAR",
					"output":111
				},
				{
					"input":99,
					"interpolation":"LINEAR",
					"output":112
				},
				{
					"input":91,
					"interpolation":"STEP",
					"output":113
				},
				{
					"input":91,
					"interpolation":"STEP",
					"output":114
				},
				{
					"input":91,
					"interpolation":"STEP",
					"output":115
				},
				{
					"input":91,
					"interpolation":"STEP",
					"output":116
				},
				{
					"input":91,
					"interpolation":"STEP",
					"output":117
				},
				{
					"input":99,
					"interpolation":"LINEAR",
					"output":118
				},
				{
					"input":91,
					"interpolation":"STEP",
					"output":119
				},
				{
					"input":91,
					"interpolation":"STEP",
					"output":120
				},
				{
					"input":91,
					"interpolation":"STEP",
					"output":121
				},
				{
					"input":91,
					"interpolation":"STEP",
					"output":122
				},
				{
					"input":91,
					"interpolation":"STEP",
					"output":123
				},
				{
					"input":91,
					"interpolation":"STEP",
					"output":124
				},
				{
					"input":91,
					"interpolation":"STEP",
					"output":125
				},
				{
					"input":91,
					"interpolation":"STEP",
					"output":126
				},
				{
					"input":99,
					"interpolation":"LINEAR",
					"output":127
				},
				{
					"input":91,
					"interpolation":"STEP",
					"output":128
				},
				{
					"input":91,
					"interpolation":"LINEAR",
					"output":129
				},
				{
					"input":91,
					"interpolation":"LINEAR",
					"output":130
				},
				{
					"input":91,
					"interpolation":"STEP",
					"output":131
				},
				{
					"input":91,
					"interpolation":"LINEAR",
					"output":132
				},
				{
					"input":91,
					"interpolation":"LINEAR",
					"output":133
				},
				{
					"input":91,
					"interpolation":"STEP",
					"output":134
				},
				{
					"input":91,
					"interpolation":"STEP",
					"output":135
				},
				{
					"input":99,
					"interpolation":"LINEAR",
					"output":136
				},
				{
					"input":91,
					"interpolation":"STEP",
					"output":137
				},
				{
					"input":91,
					"interpolation":"LINEAR",
					"output":138
				},
				{
					"input":91,
					"interpolation":"LINEAR",
					"output":139
				},
				{
					"input":91,
					"interpolation":"STEP",
					"output":140
				},
				{
					"input":91,
					"interpolation":"LINEAR",
					"output":141
				},
				{
					"input":91,
					"interpolation":"LINEAR",
					"output":142
				},
				{
					"input":91,
					"interpolation":"STEP",
					"output":143
				}
			]
		},
		{
			"channels":[
				{
					"sampler":0,
					"target":{
						"node":16,
						"path":"translation"
					}
				},
				{
					"sampler":1,
					"target":{
						"node":16,
						"path":"rotation"
					}
				},
				{
					"sampler":2,
					"target":{
						"node":16,
						"path":"scale"
					}
				},
				{
					"sampler":3,
					"target":{
						"node":9,
						"path":"translation"
					}
				},
				{
					"sampler":4,
					"target":{
						"node":9,
						"path":"rotation"
					}
				},
				{
					"sampler":5,
					"target":{
						"node":9,
						"path":"scale"
					}
				},
				{
					"sampler":6,
					"target":{
						"node":8,
						"path":"translation"
					}
				},
				{
					"sampler":7,
					"target":{
						"node":8,
						"path":"rotation"
					}
				},
				{
					"sampler":8,
					"target":{
						"node":8,
						"path":"scale"
					}
				},
				{
					"sampler":9,
					"target":{
						"node":1,
						"path":"translation"
					}
				},
				{
					"sampler":10,
					"target":{
						"node":1,
						"path":"rotation"
					}
				},
				{
					"sampler":11,
					"target":{
						"node":1,
						"path":"scale"
					}
				},
				{
					"sampler":12,
					"target":{
						"node":0,
						"path":"translation"
					}
				},
				{
					"sampler":13,
					"target":{
						"node":0,
						"path":"rotation"
					}
				},
				{
					"sampler":14,
					"target":{
						"node":0,
						"path":"scale"
					}
				},
				{
					"sampler":15,
					"target":{
						"node":4,
						"path":"translation"
					}
				},
				{
					"sampler":16,
					"target":{
						"node":4,
						"path":"rotation"
					}
				},
				{
					"sampler":17,
					"target":{
						"node":4,
						"path":"scale"
					}
				},
				{
					"sampler":18,
					"target":{
						"node":3,
						"path":"translation"
					}
				},
				{
					"sampler":19,
					"target":{
						"node":3,
						"path":"rotation"
					}
				},
				{
					"sampler":20,
					"target":{
						"node":3,
						"path":"scale"
					}
				},
				{
					"sampler":21,
					"target":{
						"node":2,
						"path":"translation"
					}
				},
				{
					"sampler":22,
					"target":{
						"node":2,
						"path":"rotation"
					}
				},
				{
					"sampler":23,
					"target":{
						"node":2,
						"path":"scale"
					}
				},
				{
					"sampler":24,
					"target":{
						"node":7,
						"path":"translation"
					}
				},
				{
					"sampler":25,
					"target":{
						"node":7,
						"path":"rotation"
					}
				},
				{
					"sampler":26,
					"target":{
						"node":7,
						"path":"scale"
					}
				},
				{
					"sampler":27,
					"target":{
						"node":6,
						"path":"translation"
					}
				},
				{
					"sampler":28,
					"target":{
						"node":6,
						"path":"rotation"
					}
				},
				{
					"sampler":29,
					"target":{
						"node":6,
						"path":"scale"
					}
				},
				{
					"sampler":30,
					"target":{
						"node":5,
						"path":"translation"
					}
				},
				{
					"sampler":31,
					"target":{
						"node":5,
						"path":"rotation"
					}
				},
				{
					"sampler":32,
					"target":{
						"node":5,
						"path":"scale"
					}
				},
				{
					"sampler":33,
					"target":{
						"node":12,
						"path":"translation"
					}
				},
				{
					"sampler":34,
					"target":{
						"node":12,
						"path":"rotation"
					}
				},
				{
					"sampler":35,
					"target":{
						"node":12,
						"path":"scale"
					}
				},
				{
					"sampler":36,
					"target":{
						"node":11,
						"path":"translation"
					}
				},
				{
					"sampler":37,
					"target":{
						"node":11,
						"path":"rotation"
					}
				},
				{
					"sampler":38,
					"target":{
						"node":11,
						"path":"scale"
					}
				},
				{
					"sampler":39,
					"target":{
						"node":10,
						"path":"translation"
					}
				},
				{
					"sampler":40,
					"target":{
						"node":10,
						"path":"rotation"
					}
				},
				{
					"sampler":41,
					"target":{
						"node":10,
						"path":"scale"
					}
				},
				{
					"sampler":42,
					"target":{
						"node":15,
						"path":"translation"
					}
				},
				{
					"sampler":43,
					"target":{
						"node":15,
						"path":"rotation"
					}
				},
				{
					"sampler":44,
					"target":{
						"node":15,
						"path":"scale"
					}
				},
				{
					"sampler":45,
					"target":{
						"node":14,
						"path":"translation"
					}
				},
				{
					"sampler":46,
					"target":{
						"node":14,
						"path":"rotation"
					}
				},
				{
					"sampler":47,
					"target":{
						"node":14,
						"path":"scale"
					}
				},
				{
					"sampler":48,
					"target":{
						"node":13,
						"path":"translation"
					}
				},
				{
					"sampler":49,
					"target":{
						"node":13,
						"path":"rotation"
					}
				},
				{
					"sampler":50,
					"target":{
						"node":13,
						"path":"scale"
					}
				}
			],
			"name":"idle",
			"samplers":[
				{
					"input":144,
					"interpolation":"LINEAR",
					"output":145
				},
				{
					"input":146,
					"interpolation":"STEP",
					"output":147
				},
				{
					"input":146,
					"interpolation":"STEP",
					"output":148
				},
				{
					"input":146,
					"interpolation":"STEP",
					"output":149
				},
				{
					"input":146,
					"interpolation":"STEP",
					"output":150
				},
				{
					"input":146,
					"interpolation":"STEP",
					"output":151
				},
				{
					"input":146,
					"interpolation":"STEP",
					"output":152
				},
				{
					"input":144,
					"interpolation":"LINEAR",
					"output":153
				},
				{
					"input":146,
					"interpolation":"STEP",
					"output":154
				},
				{
					"input":146,
					"interpolation":"STEP",
					"output":155
				},
				{
					"input":146,
					"interpolation":"STEP",
					"output":156
				},
				{
					"input":146,
					"interpolation":"STEP",
					"output":157
				},
				{
					"input":146,
					"interpolation":"STEP",
					"output":158
				},
				{
					"input":144,
					"interpolation":"LINEAR",
					"output":159
				},
				{
					"input":146,
					"interpolation":"STEP",
					"output":160
				},
				{
					"input":146,
					"interpolation":"STEP",
					"output":161
				},
				{
					"input":144,
					"interpolation":"LINEAR",
					"output":162
				},
				{
					"input":146,
					"interpolation":"STEP",
					"output":163
				},
				{
					"input":146,
					"interpolation":"STEP",
					"output":164
				},
				{
					"input":146,
					"interpolation":"STEP",
					"output":165
				},
				{
					"input":146,
					"interpolation":"STEP",
					"output":166
				},
				{
					"input":146,
					"interpolation":"STEP",
					"output":167
				},
				{
					"input":146,
					"interpolation":"STEP",
					"output":168
				},
				{
					"input":146,
					"interpolation":"STEP",
					"output":169
				},
				{
					"input":146,
					"interpolation":"STEP",
					"output":170
				},
				{
					"input":144,
					"interpolation":"LINEAR",
					"output":171
				},
				{
					"input":146,
					"interpolation":"STEP",
					"output":172
				},
				{
					"input":146,
					"interpolation":"STEP",
					"output":173
				},
				{
					"input":146,
					"interpolation":"STEP",
					"output":174
				},
				{
					"input":146,
					"interpolation":"STEP",
					"output":175
				},
				{
					"input":146,
					"interpolation":"STEP",
					"output":176
				},
				{
					"input":146,
					"interpolation":"STEP",
					"output":177
				},
				{
					"input":146,
					"interpolation":"STEP",
					"output":178
				},
				{
					"input":146,
					"interpolation":"STEP",
					"output":179
				},
				{
					"input":146,
					"interpolation":"STEP",
					"output":180
				},
				{
					"input":146,
					"interpolation":"STEP",
					"output":181
				},
				{
					"input":146,
					"interpolation":"STEP",
					"output":182
				},
				{
					"input":146,
					"interpolation":"STEP",
					"output":183
				},
				{
					"input":146,
					"interpolation":"STEP",
					"output":184
				},
				{
					"input":146,
					"interpolation":"STEP",
					"output":185
				},
				{
					"input":146,
					"interpolation":"STEP",
					"output":186
				},
				{
					"input":146,
					"interpolation":"STEP",
					"output":187
				},
				{
					"input":146,
					"interpolation":"STEP",
					"output":188
				},
				{
					"input":146,
					"interpolation":"STEP",
					"output":189
				},
				{
					"input":146,
					"interpolation":"STEP",
					"output":190
				},
				{
					"input":146,
					"interpolation":"STEP",
					"output":191
				},
				{
					"input":146,
					"interpolation":"STEP",
					"output":192
				},
				{
					"input":146,
					"interpolation":"STEP",
					"output":193
				},
				{
					"input":146,
					"interpolation":"STEP",
					"output":194
				},
				{
					"input":146,
					"interpolation":"STEP",
					"output":195
				},
				{
					"input":146,
					"interpolation":"STEP",
					"output":196
				}
			]
		},
		{
			"channels":[
				{
					"sampler":0,
					"target":{
						"node":16,
						"path":"translation"
					}
				},
				{
					"sampler":1,
					"target":{
						"node":16,
						"path":"rotation"
					}
				},
				{
					"sampler":2,
					"target":{
						"node":16,
						"path":"scale"
					}
				},
				{
					"sampler":3,
					"target":{
						"node":9,
						"path":"translation"
					}
				},
				{
					"sampler":4,
					"target":{
						"node":9,
						"path":"rotation"
					}
				},
				{
					"sampler":5,
					"target":{
						"node":9,
						"path":"scale"
					}
				},
				{
					"sampler":6,
					"target":{
						"node":8,
						"path":"translation"
					}
				},
				{
					"sampler":7,
					"target":{
						"node":8,
						"path":"rotation"
					}
				},
				{
					"sampler":8,
					"target":{
						"node":8,
						"path":"scale"
					}
				},
				{
					"sampler":9,
					"target":{
						"node":1,
						"path":"translation"
					}
				},
				{
					"sampler":10,
					"target":{
						"node":1,
						"path":"rotation"
					}
				},
				{
					"sampler":11,
					"target":{
						"node":1,
						"path":"scale"
					}
				},
				{
					"sampler":12,
					"target":{
						"node":0,
						"path":"translation"
					}
				},
				{
					"sampler":13,
					"target":{
						"node":0,
						"path":"rotation"
					}
				},
				{
					"sampler":14,
					"target":{
						"node":0,
						"path":"scale"
					}
				},
				{
					"sampler":15,
					"target":{
						"node":4,
						"path":"translation"
					}
				},
				{
					"sampler":16,
					"target":{
						"node":4,
						"path":"rotation"
					}
				},
				{
					"sampler":17,
					"target":{
						"node":4,
						"path":"scale"
					}
				},
				{
					"sampler":18,
					"target":{
						"node":3,
						"path":"translation"
					}
				},
				{
					"sampler":19,
					"target":{
						"node":3,
						"path":"rotation"
					}
				},
				{
					"sampler":20,
					"target":{
						"node":3,
						"path":"scale"
					}
				},
				{
					"sampler":21,
					"target":{
						"node":2,
						"path":"translation"
					}
				},
				{
					"sampler":22,
					"target":{
						"node":2,
						"path":"rotation"
					}
				},
				{
					"sampler":23,
					"target":{
						"node":2,
						"path":"scale"
					}
				},
				{
					"sampler":24,
					"target":{
						"node":7,
						"path":"translation"
					}
				},
				{
					"sampler":25,
					"target":{
						"node":7,
						"path":"rotation"
					}
				},
				{
					"sampler":26,
					"target":{
						"node":7,
						"path":"scale"
					}
				},
				{
					"sampler":27,
					"target":{
						"node":6,
						"path":"translation"
					}
				},
				{
					"sampler":28,
					"target":{
						"node":6,
						"path":"rotation"
					}
				},
				{
					"sampler":29,
					"target":{
						"node":6,
						"path":"scale"
					}
				},
				{
					"sampler":30,
					"target":{
						"node":5,
						"path":"translation"
					}
				},
				{
					"sampler":31,
					"target":{
						"node":5,
						"path":"rotation"
					}
				},
				{
					"sampler":32,
					"target":{
						"node":5,
						"path":"scale"
					}
				},
				{
					"sampler":33,
					"target":{
						"node":12,
						"path":"translation"
					}
				},
				{
					"sampler":34,
					"target":{
						"node":12,
						"path":"rotation"
					}
				},
				{
					"sampler":35,
					"target":{
						"node":12,
						"path":"scale"
					}
				},
				{
					"sampler":36,
					"target":{
						"node":11,
						"path":"translation"
					}
				},
				{
					"sampler":37,
					"target":{
						"node":11,
						"path":"rotation"
					}
				},
				{
					"sampler":38,
					"target":{
						"node":11,
						"path":"scale"
					}
				},
				{
					"sampler":39,
					"target":{
						"node":10,
						"path":"translation"
					}
				},
				{
					"sampler":40,
					"target":{
						"node":10,
						"path":"rotation"
					}
				},
				{
					"sampler":41,
					"target":{
						"node":10,
						"path":"scale"
					}
				},
				{
					"sampler":42,
					"target":{
						"node":15,
						"path":"translation"
					}
				},
				{
					"sampler":43,
					"target":{
						"node":15,
						"path":"rotation"
					}
				},
				{
					"sampler":44,
					"target":{
						"node":15,
						"path":"scale"
					}
				},
				{
					"sampler":45,
					"target":{
						"node":14,
						"path":"translation"
					}
				},
				{
					"sampler":46,
					"target":{
						"node":14,
						"path":"rotation"
					}
				},
				{
					"sampler":47,
					"target":{
						"node":14,
						"path":"scale"
					}
				},
				{
					"sampler":48,
					"target":{
						"node":13,
						"path":"translation"
					}
				},
				{
					"sampler":49,
					"target":{
						"node":13,
						"path":"rotation"
					}
				},
				{
					"sampler":50,
					"target":{
						"node":13,
						"path":"scale"
					}
				}
			],
			"name":"walk",
			"samplers":[
				{
					"input":197,
					"interpolation":"LINEAR",
					"output":198
				},
				{
					"input":197,
					"interpolation":"LINEAR",
					"output":199
				},
				{
					"input":200,
					"interpolation":"STEP",
					"output":201
				},
				{
					"input":200,
					"interpolation":"STEP",
					"output":202
				},
				{
					"input":200,
					"interpolation":"STEP",
					"output":203
				},
				{
					"input":200,
					"interpolation":"STEP",
					"output":204
				},
				{
					"input":200,
					"interpolation":"STEP",
					"output":205
				},
				{
					"input":197,
					"interpolation":"LINEAR",
					"output":206
				},
				{
					"input":200,
					"interpolation":"STEP",
					"output":207
				},
				{
					"input":200,
					"interpolation":"STEP",
					"output":208
				},
				{
					"input":200,
					"interpolation":"STEP",
					"output":209
				},
				{
					"input":200,
					"interpolation":"STEP",
					"output":210
				},
				{
					"input":200,
					"interpolation":"STEP",
					"output":211
				},
				{
					"input":200,
					"interpolation":"STEP",
					"output":212
				},
				{
					"input":200,
					"interpolation":"STEP",
					"output":213
				},
				{
					"input":200,
					"interpolation":"STEP",
					"output":214
				},
				{
					"input":197,
					"interpolation":"LINEAR",
					"output":215
				},
				{
					"input":200,
					"interpolation":"STEP",
					"output":216
				},
				{
					"input":200,
					"interpolation":"STEP",
					"output":217
				},
				{
					"input":200,
					"interpolation":"STEP",
					"output":218
				},
				{
					"input":200,
					"interpolation":"STEP",
					"output":219
				},
				{
					"input":200,
					"interpolation":"STEP",
					"output":220
				},
				{
					"input":200,
					"interpolation":"STEP",
					"output":221
				},
				{
					"input":200,
					"interpolation":"STEP",
					"output":222
				},
				{
					"input":200,
					"interpolation":"STEP",
					"output":223
				},
				{
					"input":197,
					"interpolation":"LINEAR",
					"output":224
				},
				{
					"input":200,
					"interpolation":"STEP",
					"output":225
				},
				{
					"input":200,
					"interpolation":"STEP",
					"output":226
				},
				{
					"input":200,
					"interpolation":"STEP",
					"output":227
				},
				{
					"input":200,
					"interpolation":"STEP",
					"output":228
				},
				{
					"input":200,
					"interpolation":"STEP",
					"output":229
				},
				{
					"input":200,
					"interpolation":"STEP",
					"output":230
				},
				{
					"input":200,
					"interpolation":"STEP",
					"output":231
				},
				{
					"input":200,
					"interpolation":"STEP",
					"output":232
				},
				{
					"input":197,
					"interpolation":"LINEAR",
					"output":233
				},
				{
					"input":200,
					"interpolation":"STEP",
					"output":234
				},
				{
					"input":200,
					"interpolation":"STEP",
					"output":235
				},
				{
					"input":197,
					"interpolation":"LINEAR",
					"output":236
				},
				{
					"input":200,
					"interpolation":"STEP",
					"output":237
				},
				{
					"input":200,
					"interpolation":"STEP",
					"output":238
				},
				{
					"input":197,
					"interpolation":"LINEAR",
					"output":239
				},
				{
					"input":200,
					"interpolation":"STEP",
					"output":240
				},
				{
					"input":200,
					"interpolation":"STEP",
					"output":241
				},
				{
					"input":197,
					"interpolation":"LINEAR",
					"output":242
				},
				{
					"input":200,
					"interpolation":"STEP",
					"output":243
				},
				{
					"input":200,
					"interpolation":"STEP",
					"output":244
				},
				{
					"input":197,
					"interpolation":"LINEAR",
					"output":245
				},
				{
					"input":200,
					"interpolation":"STEP",
					"output":246
				},
				{
					"input":200,
					"interpolation":"STEP",
					"output":247
				},
				{
					"input":197,
					"interpolation":"LINEAR",
					"output":248
				},
				{
					"input":200,
					"interpolation":"STEP",
					"output":249
				}
			]
		}
	],
	"materials":[
		{
			"name":"skin",
			"normalTexture":{
				"index":0,
				"scale":0.4000000059604645
			},
			"pbrMetallicRoughness":{
				"baseColorFactor":[
					0.7484140992164612,
					0.31854677200317383,
					0.21404114365577698,
					1
				],
				"metallicFactor":0,
				"roughnessFactor":0.550000011920929
			}
		},
		{
			"extensions":{
				"KHR_materials_sheen":{
					"sheenColorFactor":[
						1.0,
						1.0,
						1.0
					],
					"sheenRoughnessFactor":0.5
				}
			},
			"name":"hair",
			"normalTexture":{
				"index":1,
				"scale":0.800000011920929
			},
			"pbrMetallicRoughness":{
				"baseColorFactor":[
					0.6038273572921753,
					0.0134117491543293,
					0.010022825561463833,
					1
				],
				"metallicFactor":0,
				"roughnessFactor":0.44999998807907104
			}
		},
		{
			"extensions":{
				"KHR_materials_sheen":{
					"sheenColorFactor":[
						1.0,
						1.0,
						1.0
					],
					"sheenRoughnessFactor":0.5
				}
			},
			"name":"outfit",
			"normalTexture":{
				"index":2,
				"scale":0.6000000238418579
			},
			"pbrMetallicRoughness":{
				"baseColorFactor":[
					0.07323895394802094,
					0.0134117491543293,
					0.010022825561463833,
					1
				],
				"metallicFactor":0,
				"roughnessFactor":0.75
			}
		},
		{
			"name":"outfit2",
			"normalTexture":{
				"index":3,
				"scale":0.4000000059604645
			},
			"pbrMetallicRoughness":{
				"baseColorFactor":[
					0.4479884207248688,
					0.03310476616024971,
					0.010022825561463833,
					1
				],
				"metallicFactor":0,
				"roughnessFactor":0.6000000238418579
			}
		},
		{
			"name":"pants",
			"normalTexture":{
				"index":4,
				"scale":0.6000000238418579
			},
			"pbrMetallicRoughness":{
				"baseColorFactor":[
					0.036306485533714294,
					0.007716664578765631,
					0.005981059744954109,
					1
				],
				"metallicFactor":0,
				"roughnessFactor":0.800000011920929
			}
		},
		{
			"extensions":{
				"KHR_materials_clearcoat":{
					"clearcoatFactor":0.30000001192092896
				}
			},
			"name":"boots",
			"normalTexture":{
				"index":5,
				"scale":0.800000011920929
			},
			"pbrMetallicRoughness":{
				"baseColorFactor":[
					0.0134117491543293,
					0.010022825561463833,
					0.010022825561463833,
					1
				],
				"metallicFactor":0,
				"roughnessFactor":0.44999998807907104
			}
		},
		{
			"name":"eye_white",
			"pbrMetallicRoughness":{
				"baseColorFactor":[
					0.8900054097175598,
					0.8900054097175598,
					0.8900054097175598,
					1
				],
				"metallicFactor":0,
				"roughnessFactor":0.20000000298023224
			}
		},
		{
			"emissiveFactor":[
				0.011763989275256348,
				0.011763989275256348,
				0.019862860485428957
			],
			"name":"iris",
			"pbrMetallicRoughness":{
				"baseColorFactor":[
					0.01960664801299572,
					0.01960664801299572,
					0.03310476616024971,
					1
				],
				"metallicFactor":0,
				"roughnessFactor":0.15000000596046448
			}
		},
		{
			"name":"pupil",
			"pbrMetallicRoughness":{
				"baseColorFactor":[
					0.0015479875728487968,
					0.0015479875728487968,
					0.0023219813592731953,
					1
				],
				"metallicFactor":0,
				"roughnessFactor":0.10000000149011612
			}
		},
		{
			"name":"lips",
			"pbrMetallicRoughness":{
				"baseColorFactor":[
					0.33754226565361023,
					0.1473190039396286,
					0.10048151016235352,
					1
				],
				"metallicFactor":0,
				"roughnessFactor":0.4000000059604645
			}
		},
		{
			"extensions":{
				"KHR_materials_clearcoat":{
					"clearcoatFactor":0.5
				}
			},
			"name":"horn",
			"pbrMetallicRoughness":{
				"baseColorFactor":[
					0.010022825561463833,
					0.010022825561463833,
					0.0134117491543293,
					1
				],
				"metallicFactor":0,
				"roughnessFactor":0.30000001192092896
			}
		},
		{
			"name":"buckle",
			"pbrMetallicRoughness":{
				"baseColorFactor":[
					0.6920710802078247,
					0.4479884207248688,
					0.07323895394802094,
					1
				],
				"metallicFactor":0.8999999761581421,
				"roughnessFactor":0.30000001192092896
			}
		},
		{
			"name":"blade",
			"normalTexture":{
				"index":6,
				"scale":0.30000001192092896
			},
			"pbrMetallicRoughness":{
				"baseColorFactor":[
					0.7484140992164612,
					0.7874122858047485,
					0.8900054097175598,
					1
				],
				"metallicFactor":0.550000011920929,
				"roughnessFactor":0.2199999988079071
			}
		},
		{
			"name":"handle",
			"normalTexture":{
				"index":7,
				"scale":0.6000000238418579
			},
			"pbrMetallicRoughness":{
				"baseColorFactor":[
					0.0134117491543293,
					0.007194409146904945,
					0.004896310158073902,
					1
				],
				"metallicFactor":0,
				"roughnessFactor":0.6000000238418579
			}
		},
		{
			"name":"guard",
			"pbrMetallicRoughness":{
				"baseColorFactor":[
					0.6038273572921753,
					0.38005632162094116,
					0.05087608844041824,
					1
				],
				"metallicFactor":0.8999999761581421,
				"roughnessFactor":0.30000001192092896
			}
		}
	],
	"meshes":[
		{
			"name":"ogre_prince",
			"primitives":[
				{
					"attributes":{
						"POSITION":0,
						"NORMAL":1,
						"TEXCOORD_0":2,
						"JOINTS_0":3,
						"WEIGHTS_0":4
					},
					"indices":5,
					"material":0
				},
				{
					"attributes":{
						"POSITION":6,
						"NORMAL":7,
						"TEXCOORD_0":8,
						"JOINTS_0":9,
						"WEIGHTS_0":10
					},
					"indices":11,
					"material":1
				},
				{
					"attributes":{
						"POSITION":12,
						"NORMAL":13,
						"TEXCOORD_0":14,
						"JOINTS_0":15,
						"WEIGHTS_0":16
					},
					"indices":17,
					"material":2
				},
				{
					"attributes":{
						"POSITION":18,
						"NORMAL":19,
						"TEXCOORD_0":20,
						"JOINTS_0":21,
						"WEIGHTS_0":22
					},
					"indices":23,
					"material":3
				},
				{
					"attributes":{
						"POSITION":24,
						"NORMAL":25,
						"TEXCOORD_0":26,
						"JOINTS_0":27,
						"WEIGHTS_0":28
					},
					"indices":29,
					"material":4
				},
				{
					"attributes":{
						"POSITION":30,
						"NORMAL":31,
						"TEXCOORD_0":32,
						"JOINTS_0":33,
						"WEIGHTS_0":34
					},
					"indices":35,
					"material":5
				},
				{
					"attributes":{
						"POSITION":36,
						"NORMAL":37,
						"TEXCOORD_0":38,
						"JOINTS_0":39,
						"WEIGHTS_0":40
					},
					"indices":41,
					"material":6
				},
				{
					"attributes":{
						"POSITION":42,
						"NORMAL":43,
						"TEXCOORD_0":44,
						"JOINTS_0":45,
						"WEIGHTS_0":46
					},
					"indices":47,
					"material":7
				},
				{
					"attributes":{
						"POSITION":48,
						"NORMAL":49,
						"TEXCOORD_0":50,
						"JOINTS_0":51,
						"WEIGHTS_0":52
					},
					"indices":53,
					"material":8
				},
				{
					"attributes":{
						"POSITION":54,
						"NORMAL":55,
						"TEXCOORD_0":56,
						"JOINTS_0":57,
						"WEIGHTS_0":58
					},
					"indices":59,
					"material":9
				},
				{
					"attributes":{
						"POSITION":60,
						"NORMAL":61,
						"TEXCOORD_0":62,
						"JOINTS_0":63,
						"WEIGHTS_0":64
					},
					"indices":65,
					"material":10
				},
				{
					"attributes":{
						"POSITION":66,
						"NORMAL":67,
						"TEXCOORD_0":68,
						"JOINTS_0":69,
						"WEIGHTS_0":70
					},
					"indices":71,
					"material":11
				},
				{
					"attributes":{
						"POSITION":72,
						"NORMAL":73,
						"TEXCOORD_0":74,
						"JOINTS_0":75,
						"WEIGHTS_0":76
					},
					"indices":77,
					"material":12
				},
				{
					"attributes":{
						"POSITION":78,
						"NORMAL":79,
						"TEXCOORD_0":80,
						"JOINTS_0":81,
						"WEIGHTS_0":82
					},
					"indices":83,
					"material":13
				},
				{
					"attributes":{
						"POSITION":84,
						"NORMAL":85,
						"TEXCOORD_0":86,
						"JOINTS_0":87,
						"WEIGHTS_0":88
					},
					"indices":89,
					"material":14
				}
			]
		}
	],
	"textures":[
		{
			"sampler":0,
			"source":0
		},
		{
			"sampler":0,
			"source":1
		},
		{
			"sampler":0,
			"source":2
		},
		{
			"sampler":0,
			"source":2
		},
		{
			"sampler":0,
			"source":2
		},
		{
			"sampler":0,
			"source":3
		},
		{
			"sampler":0,
			"source":4
		},
		{
			"sampler":0,
			"source":3
		}
	],
	"images":[
		{
			"mimeType":"image/png",
			"name":"N_skin",
			"uri":"texturas/N_skin.png"
		},
		{
			"mimeType":"image/png",
			"name":"N_hair",
			"uri":"texturas/N_hair.png"
		},
		{
			"mimeType":"image/png",
			"name":"N_cloth",
			"uri":"texturas/N_cloth.png"
		},
		{
			"mimeType":"image/png",
			"name":"N_leather",
			"uri":"texturas/N_leather.png"
		},
		{
			"mimeType":"image/png",
			"name":"N_metal",
			"uri":"texturas/N_metal.png"
		}
	],
	"skins":[
		{
			"inverseBindMatrices":90,
			"joints":[
				16,
				9,
				8,
				1,
				0,
				4,
				3,
				2,
				7,
				6,
				5,
				12,
				11,
				10,
				15,
				14,
				13
			],
			"name":"ogre_prince_rig"
		}
	],
	"accessors":[
		{
			"bufferView":0,
			"componentType":5126,
			"count":2554,
			"max":[
				0.5760761499404907,
				2.4975998401641846,
				0.1500975787639618
			],
			"min":[
				-0.5760761499404907,
				1.0982550382614136,
				-0.20403556525707245
			],
			"type":"VEC3"
		},
		{
			"bufferView":1,
			"componentType":5126,
			"count":2554,
			"type":"VEC3"
		},
		{
			"bufferView":2,
			"componentType":5126,
			"count":2554,
			"type":"VEC2"
		},
		{
			"bufferView":3,
			"componentType":5121,
			"count":2554,
			"type":"VEC4"
		},
		{
			"bufferView":4,
			"componentType":5126,
			"count":2554,
			"type":"VEC4"
		},
		{
			"bufferView":5,
			"componentType":5123,
			"count":10824,
			"type":"SCALAR"
		},
		{
			"bufferView":6,
			"componentType":5126,
			"count":2124,
			"max":[
				0.3309645652770996,
				2.804218053817749,
				0.4026230275630951
			],
			"min":[
				-0.3721374273300171,
				2.2218756675720215,
				-0.266611248254776
			],
			"type":"VEC3"
		},
		{
			"bufferView":7,
			"componentType":5126,
			"count":2124,
			"type":"VEC3"
		},
		{
			"bufferView":8,
			"componentType":5126,
			"count":2124,
			"type":"VEC2"
		},
		{
			"bufferView":9,
			"componentType":5121,
			"count":2124,
			"type":"VEC4"
		},
		{
			"bufferView":10,
			"componentType":5126,
			"count":2124,
			"type":"VEC4"
		},
		{
			"bufferView":11,
			"componentType":5123,
			"count":7200,
			"type":"SCALAR"
		},
		{
			"bufferView":12,
			"componentType":5126,
			"count":389,
			"max":[
				0.5177112817764282,
				2.0638866424560547,
				0.23091186583042145
			],
			"min":[
				-0.5177112817764282,
				1.32906174659729,
				-0.23320883512496948
			],
			"type":"VEC3"
		},
		{
			"bufferView":13,
			"componentType":5126,
			"count":389,
			"type":"VEC3"
		},
		{
			"bufferView":14,
			"componentType":5126,
			"count":389,
			"type":"VEC2"
		},
		{
			"bufferView":15,
			"componentType":5121,
			"count":389,
			"type":"VEC4"
		},
		{
			"bufferView":16,
			"componentType":5126,
			"count":389,
			"type":"VEC4"
		},
		{
			"bufferView":17,
			"componentType":5123,
			"count":1464,
			"type":"SCALAR"
		},
		{
			"bufferView":18,
			"componentType":5126,
			"count":60,
			"max":[
				0.25119102001190186,
				1.4138630628585815,
				0.23673976957798004
			],
			"min":[
				-0.25119102001190186,
				1.2302424907684326,
				-0.23861858248710632
			],
			"type":"VEC3"
		},
		{
			"bufferView":19,
			"componentType":5126,
			"count":60,
			"type":"VEC3"
		},
		{
			"bufferView":20,
			"componentType":5126,
			"count":60,
			"type":"VEC2"
		},
		{
			"bufferView":21,
			"componentType":5121,
			"count":60,
			"type":"VEC4"
		},
		{
			"bufferView":22,
			"componentType":5126,
			"count":60,
			"type":"VEC4"
		},
		{
			"bufferView":23,
			"componentType":5123,
			"count":168,
			"type":"SCALAR"
		},
		{
			"bufferView":24,
			"componentType":5126,
			"count":664,
			"max":[
				0.568469762802124,
				1.32906174659729,
				0.23387511074543
			],
			"min":[
				-0.5684698224067688,
				0.40921810269355774,
				-0.23610688745975494
			],
			"type":"VEC3"
		},
		{
			"bufferView":25,
			"componentType":5126,
			"count":664,
			"type":"VEC3"
		},
		{
			"bufferView":26,
			"componentType":5126,
			"count":664,
			"type":"VEC2"
		},
		{
			"bufferView":27,
			"componentType":5121,
			"count":664,
			"type":"VEC4"
		},
		{
			"bufferView":28,
			"componentType":5126,
			"count":664,
			"type":"VEC4"
		},
		{
			"bufferView":29,
			"componentType":5123,
			"count":2808,
			"type":"SCALAR"
		},
		{
			"bufferView":30,
			"componentType":5126,
			"count":874,
			"max":[
				0.2885804772377014,
				0.41867727041244507,
				0.12213284522294998
			],
			"min":[
				-0.28858044743537903,
				0.01064278557896614,
				-0.19616760313510895
			],
			"type":"VEC3"
		},
		{
			"bufferView":31,
			"componentType":5126,
			"count":874,
			"type":"VEC3"
		},
		{
			"bufferView":32,
			"componentType":5126,
			"count":874,
			"type":"VEC2"
		},
		{
			"bufferView":33,
			"componentType":5121,
			"count":874,
			"type":"VEC4"
		},
		{
			"bufferView":34,
			"componentType":5126,
			"count":874,
			"type":"VEC4"
		},
		{
			"bufferView":35,
			"componentType":5123,
			"count":3840,
			"type":"SCALAR"
		},
		{
			"bufferView":36,
			"componentType":5126,
			"count":304,
			"max":[
				0.0713999941945076,
				2.3610999584198,
				-0.09799999743700027
			],
			"min":[
				-0.0713999941945076,
				2.32889986038208,
				-0.12319999933242798
			],
			"type":"VEC3"
		},
		{
			"bufferView":37,
			"componentType":5126,
			"count":304,
			"type":"VEC3"
		},
		{
			"bufferView":38,
			"componentType":5126,
			"count":304,
			"type":"VEC2"
		},
		{
			"bufferView":39,
			"componentType":5121,
			"count":304,
			"type":"VEC4"
		},
		{
			"bufferView":40,
			"componentType":5126,
			"count":304,
			"type":"VEC4"
		},
		{
			"bufferView":41,
			"componentType":5123,
			"count":1152,
			"type":"SCALAR"
		},
		{
			"bufferView":42,
			"componentType":5126,
			"count":220,
			"max":[
				0.0608999989926815,
				2.358720064163208,
				-0.11370834708213806
			],
			"min":[
				-0.0608999989926815,
				2.331279993057251,
				-0.12569165229797363
			],
			"type":"VEC3"
		},
		{
			"bufferView":43,
			"componentType":5126,
			"count":220,
			"type":"VEC3"
		},
		{
			"bufferView":44,
			"componentType":5126,
			"count":220,
			"type":"VEC2"
		},
		{
			"bufferView":45,
			"componentType":5121,
			"count":220,
			"type":"VEC4"
		},
		{
			"bufferView":46,
			"componentType":5126,
			"count":220,
			"type":"VEC4"
		},
		{
			"bufferView":47,
			"componentType":5123,
			"count":720,
			"type":"SCALAR"
		},
		{
			"bufferView":48,
			"componentType":5126,
			"count":160,
			"max":[
				0.05319220945239067,
				2.351300001144409,
				-0.12165704369544983
			],
			"min":[
				-0.05319220945239067,
				2.33870005607605,
				-0.12698295712471008
			],
			"type":"VEC3"
		},
		{
			"bufferView":49,
			"componentType":5126,
			"count":160,
			"type":"VEC3"
		},
		{
			"bufferView":50,
			"componentType":5126,
			"count":160,
			"type":"VEC2"
		},
		{
			"bufferView":51,
			"componentType":5121,
			"count":160,
			"type":"VEC4"
		},
		{
			"bufferView":52,
			"componentType":5126,
			"count":160,
			"type":"VEC4"
		},
		{
			"bufferView":53,
			"componentType":5123,
			"count":480,
			"type":"SCALAR"
		},
		{
			"bufferView":54,
			"componentType":5126,
			"count":98,
			"max":[
				0.026599999517202377,
				2.250499963760376,
				-0.10880834609270096
			],
			"min":[
				-0.026599999517202377,
				2.2379000186920166,
				-0.12079165875911713
			],
			"type":"VEC3"
		},
		{
			"bufferView":55,
			"componentType":5126,
			"count":98,
			"type":"VEC3"
		},
		{
			"bufferView":56,
			"componentType":5126,
			"count":98,
			"type":"VEC2"
		},
		{
			"bufferView":57,
			"componentType":5121,
			"count":98,
			"type":"VEC4"
		},
		{
			"bufferView":58,
			"componentType":5126,
			"count":98,
			"type":"VEC4"
		},
		{
			"bufferView":59,
			"componentType":5123,
			"count":360,
			"type":"SCALAR"
		},
		{
			"bufferView":60,
			"componentType":5126,
			"count":180,
			"max":[
				0.08968517184257507,
				2.615917205810547,
				-0.04709247127175331
			],
			"min":[
				-0.08968517184257507,
				2.472662925720215,
				-0.10015324503183365
			],
			"type":"VEC3"
		},
		{
			"bufferView":61,
			"componentType":5126,
			"count":180,
			"type":"VEC3"
		},
		{
			"bufferView":62,
			"componentType":5126,
			"count":180,
			"type":"VEC2"
		},
		{
			"bufferView":63,
			"componentType":5121,
			"count":180,
			"type":"VEC4"
		},
		{
			"bufferView":64,
			"componentType":5126,
			"count":180,
			"type":"VEC4"
		},
		{
			"bufferView":65,
			"componentType":5123,
			"count":576,
			"type":"SCALAR"
		},
		{
			"bufferView":66,
			"componentType":5126,
			"count":24,
			"max":[
				0.03500000014901161,
				1.3580000400543213,
				-0.17149999737739563
			],
			"min":[
				-0.03500000014901161,
				1.3020000457763672,
				-0.1882999986410141
			],
			"type":"VEC3"
		},
		{
			"bufferView":67,
			"componentType":5126,
			"count":24,
			"type":"VEC3"
		},
		{
			"bufferView":68,
			"componentType":5126,
			"count":24,
			"type":"VEC2"
		},
		{
			"bufferView":69,
			"componentType":5121,
			"count":24,
			"type":"VEC4"
		},
		{
			"bufferView":70,
			"componentType":5126,
			"count":24,
			"type":"VEC4"
		},
		{
			"bufferView":71,
			"componentType":5123,
			"count":36,
			"type":"SCALAR"
		},
		{
			"bufferView":72,
			"componentType":5126,
			"count":108,
			"max":[
				0.5474559664726257,
				1.0944660902023315,
				-0.1279430389404297
			],
			"min":[
				0.5306559801101685,
				0.5382888913154602,
				-1.1229952573776245
			],
			"type":"VEC3"
		},
		{
			"bufferView":73,
			"componentType":5126,
			"count":108,
			"type":"VEC3"
		},
		{
			"bufferView":74,
			"componentType":5126,
			"count":108,
			"type":"VEC2"
		},
		{
			"bufferView":75,
			"componentType":5121,
			"count":108,
			"type":"VEC4"
		},
		{
			"bufferView":76,
			"componentType":5126,
			"count":108,
			"type":"VEC4"
		},
		{
			"bufferView":77,
			"componentType":5123,
			"count":156,
			"type":"SCALAR"
		},
		{
			"bufferView":78,
			"componentType":5126,
			"count":42,
			"max":[
				0.5614559650421143,
				1.1978780031204224,
				0.10186118632555008
			],
			"min":[
				0.5166559815406799,
				1.065102219581604,
				-0.12079358100891113
			],
			"type":"VEC3"
		},
		{
			"bufferView":79,
			"componentType":5126,
			"count":42,
			"type":"VEC3"
		},
		{
			"bufferView":80,
			"componentType":5126,
			"count":42,
			"type":"VEC2"
		},
		{
			"bufferView":81,
			"componentType":5121,
			"count":42,
			"type":"VEC4"
		},
		{
			"bufferView":82,
			"componentType":5126,
			"count":42,
			"type":"VEC4"
		},
		{
			"bufferView":83,
			"componentType":5123,
			"count":96,
			"type":"SCALAR"
		},
		{
			"bufferView":84,
			"componentType":5126,
			"count":74,
			"max":[
				0.6020559668540955,
				1.1342988014221191,
				-0.09372758120298386
			],
			"min":[
				0.47605594992637634,
				1.025269627571106,
				-0.15500901639461517
			],
			"type":"VEC3"
		},
		{
			"bufferView":85,
			"componentType":5126,
			"count":74,
			"type":"VEC3"
		},
		{
			"bufferView":86,
			"componentType":5126,
			"count":74,
			"type":"VEC2"
		},
		{
			"bufferView":87,
			"componentType":5121,
			"count":74,
			"type":"VEC4"
		},
		{
			"bufferView":88,
			"componentType":5126,
			"count":74,
			"type":"VEC4"
		},
		{
			"bufferView":89,
			"componentType":5123,
			"count":144,
			"type":"SCALAR"
		},
		{
			"bufferView":90,
			"componentType":5126,
			"count":17,
			"type":"MAT4"
		},
		{
			"bufferView":91,
			"componentType":5126,
			"count":2,
			"max":[
				0.6
			],
			"min":[
				0
			],
			"type":"SCALAR"
		},
		{
			"bufferView":92,
			"componentType":5126,
			"count":2,
			"type":"VEC3"
		},
		{
			"bufferView":93,
			"componentType":5126,
			"count":2,
			"type":"VEC4"
		},
		{
			"bufferView":94,
			"componentType":5126,
			"count":2,
			"type":"VEC3"
		},
		{
			"bufferView":95,
			"componentType":5126,
			"count":2,
			"type":"VEC3"
		},
		{
			"bufferView":96,
			"componentType":5126,
			"count":2,
			"type":"VEC4"
		},
		{
			"bufferView":97,
			"componentType":5126,
			"count":2,
			"type":"VEC3"
		},
		{
			"bufferView":98,
			"componentType":5126,
			"count":2,
			"type":"VEC3"
		},
		{
			"bufferView":99,
			"componentType":5126,
			"count":19,
			"max":[
				0.6
			],
			"min":[
				0
			],
			"type":"SCALAR"
		},
		{
			"bufferView":100,
			"componentType":5126,
			"count":19,
			"type":"VEC4"
		},
		{
			"bufferView":101,
			"componentType":5126,
			"count":2,
			"type":"VEC3"
		},
		{
			"bufferView":102,
			"componentType":5126,
			"count":2,
			"type":"VEC3"
		},
		{
			"bufferView":103,
			"componentType":5126,
			"count":2,
			"type":"VEC4"
		},
		{
			"bufferView":104,
			"componentType":5126,
			"count":2,
			"type":"VEC3"
		},
		{
			"bufferView":105,
			"componentType":5126,
			"count":2,
			"type":"VEC3"
		},
		{
			"bufferView":106,
			"componentType":5126,
			"count":2,
			"type":"VEC4"
		},
		{
			"bufferView":107,
			"componentType":5126,
			"count":2,
			"type":"VEC3"
		},
		{
			"bufferView":108,
			"componentType":5126,
			"count":2,
			"type":"VEC3"
		},
		{
			"bufferView":109,
			"componentType":5126,
			"count":19,
			"type":"VEC4"
		},
		{
			"bufferView":110,
			"componentType":5126,
			"count":2,
			"type":"VEC3"
		},
		{
			"bufferView":111,
			"componentType":5126,
			"count":2,
			"type":"VEC3"
		},
		{
			"bufferView":112,
			"componentType":5126,
			"count":19,
			"type":"VEC4"
		},
		{
			"bufferView":113,
			"componentType":5126,
			"count":2,
			"type":"VEC3"
		},
		{
			"bufferView":114,
			"componentType":5126,
			"count":2,
			"type":"VEC3"
		},
		{
			"bufferView":115,
			"componentType":5126,
			"count":2,
			"type":"VEC4"
		},
		{
			"bufferView":116,
			"componentType":5126,
			"count":2,
			"type":"VEC3"
		},
		{
			"bufferView":117,
			"componentType":5126,
			"count":2,
			"type":"VEC3"
		},
		{
			"bufferView":118,
			"componentType":5126,
			"count":19,
			"type":"VEC4"
		},
		{
			"bufferView":119,
			"componentType":5126,
			"count":2,
			"type":"VEC3"
		},
		{
			"bufferView":120,
			"componentType":5126,
			"count":2,
			"type":"VEC3"
		},
		{
			"bufferView":121,
			"componentType":5126,
			"count":2,
			"type":"VEC4"
		},
		{
			"bufferView":122,
			"componentType":5126,
			"count":2,
			"type":"VEC3"
		},
		{
			"bufferView":123,
			"componentType":5126,
			"count":2,
			"type":"VEC3"
		},
		{
			"bufferView":124,
			"componentType":5126,
			"count":2,
			"type":"VEC4"
		},
		{
			"bufferView":125,
			"componentType":5126,
			"count":2,
			"type":"VEC3"
		},
		{
			"bufferView":126,
			"componentType":5126,
			"count":2,
			"type":"VEC3"
		},
		{
			"bufferView":127,
			"componentType":5126,
			"count":19,
			"type":"VEC4"
		},
		{
			"bufferView":128,
			"componentType":5126,
			"count":2,
			"type":"VEC3"
		},
		{
			"bufferView":129,
			"componentType":5126,
			"count":2,
			"type":"VEC3"
		},
		{
			"bufferView":130,
			"componentType":5126,
			"count":2,
			"type":"VEC4"
		},
		{
			"bufferView":131,
			"componentType":5126,
			"count":2,
			"type":"VEC3"
		},
		{
			"bufferView":132,
			"componentType":5126,
			"count":2,
			"type":"VEC3"
		},
		{
			"bufferView":133,
			"componentType":5126,
			"count":2,
			"type":"VEC4"
		},
		{
			"bufferView":134,
			"componentType":5126,
			"count":2,
			"type":"VEC3"
		},
		{
			"bufferView":135,
			"componentType":5126,
			"count":2,
			"type":"VEC3"
		},
		{
			"bufferView":136,
			"componentType":5126,
			"count":19,
			"type":"VEC4"
		},
		{
			"bufferView":137,
			"componentType":5126,
			"count":2,
			"type":"VEC3"
		},
		{
			"bufferView":138,
			"componentType":5126,
			"count":2,
			"type":"VEC3"
		},
		{
			"bufferView":139,
			"componentType":5126,
			"count":2,
			"type":"VEC4"
		},
		{
			"bufferView":140,
			"componentType":5126,
			"count":2,
			"type":"VEC3"
		},
		{
			"bufferView":141,
			"componentType":5126,
			"count":2,
			"type":"VEC3"
		},
		{
			"bufferView":142,
			"componentType":5126,
			"count":2,
			"type":"VEC4"
		},
		{
			"bufferView":143,
			"componentType":5126,
			"count":2,
			"type":"VEC3"
		},
		{
			"bufferView":144,
			"componentType":5126,
			"count":61,
			"max":[
				2
			],
			"min":[
				0
			],
			"type":"SCALAR"
		},
		{
			"bufferView":145,
			"componentType":5126,
			"count":61,
			"type":"VEC3"
		},
		{
			"bufferView":146,
			"componentType":5126,
			"count":2,
			"max":[
				2
			],
			"min":[
				0
			],
			"type":"SCALAR"
		},
		{
			"bufferView":147,
			"componentType":5126,
			"count":2,
			"type":"VEC4"
		},
		{
			"bufferView":148,
			"componentType":5126,
			"count":2,
			"type":"VEC3"
		},
		{
			"bufferView":149,
			"componentType":5126,
			"count":2,
			"type":"VEC3"
		},
		{
			"bufferView":150,
			"componentType":5126,
			"count":2,
			"type":"VEC4"
		},
		{
			"bufferView":151,
			"componentType":5126,
			"count":2,
			"type":"VEC3"
		},
		{
			"bufferView":152,
			"componentType":5126,
			"count":2,
			"type":"VEC3"
		},
		{
			"bufferView":153,
			"componentType":5126,
			"count":61,
			"type":"VEC4"
		},
		{
			"bufferView":154,
			"componentType":5126,
			"count":2,
			"type":"VEC3"
		},
		{
			"bufferView":155,
			"componentType":5126,
			"count":2,
			"type":"VEC3"
		},
		{
			"bufferView":156,
			"componentType":5126,
			"count":2,
			"type":"VEC4"
		},
		{
			"bufferView":157,
			"componentType":5126,
			"count":2,
			"type":"VEC3"
		},
		{
			"bufferView":158,
			"componentType":5126,
			"count":2,
			"type":"VEC3"
		},
		{
			"bufferView":159,
			"componentType":5126,
			"count":61,
			"type":"VEC4"
		},
		{
			"bufferView":160,
			"componentType":5126,
			"count":2,
			"type":"VEC3"
		},
		{
			"bufferView":161,
			"componentType":5126,
			"count":2,
			"type":"VEC3"
		},
		{
			"bufferView":162,
			"componentType":5126,
			"count":61,
			"type":"VEC4"
		},
		{
			"bufferView":163,
			"componentType":5126,
			"count":2,
			"type":"VEC3"
		},
		{
			"bufferView":164,
			"componentType":5126,
			"count":2,
			"type":"VEC3"
		},
		{
			"bufferView":165,
			"componentType":5126,
			"count":2,
			"type":"VEC4"
		},
		{
			"bufferView":166,
			"componentType":5126,
			"count":2,
			"type":"VEC3"
		},
		{
			"bufferView":167,
			"componentType":5126,
			"count":2,
			"type":"VEC3"
		},
		{
			"bufferView":168,
			"componentType":5126,
			"count":2,
			"type":"VEC4"
		},
		{
			"bufferView":169,
			"componentType":5126,
			"count":2,
			"type":"VEC3"
		},
		{
			"bufferView":170,
			"componentType":5126,
			"count":2,
			"type":"VEC3"
		},
		{
			"bufferView":171,
			"componentType":5126,
			"count":61,
			"type":"VEC4"
		},
		{
			"bufferView":172,
			"componentType":5126,
			"count":2,
			"type":"VEC3"
		},
		{
			"bufferView":173,
			"componentType":5126,
			"count":2,
			"type":"VEC3"
		},
		{
			"bufferView":174,
			"componentType":5126,
			"count":2,
			"type":"VEC4"
		},
		{
			"bufferView":175,
			"componentType":5126,
			"count":2,
			"type":"VEC3"
		},
		{
			"bufferView":176,
			"componentType":5126,
			"count":2,
			"type":"VEC3"
		},
		{
			"bufferView":177,
			"componentType":5126,
			"count":2,
			"type":"VEC4"
		},
		{
			"bufferView":178,
			"componentType":5126,
			"count":2,
			"type":"VEC3"
		},
		{
			"bufferView":179,
			"componentType":5126,
			"count":2,
			"type":"VEC3"
		},
		{
			"bufferView":180,
			"componentType":5126,
			"count":2,
			"type":"VEC4"
		},
		{
			"bufferView":181,
			"componentType":5126,
			"count":2,
			"type":"VEC3"
		},
		{
			"bufferView":182,
			"componentType":5126,
			"count":2,
			"type":"VEC3"
		},
		{
			"bufferView":183,
			"componentType":5126,
			"count":2,
			"type":"VEC4"
		},
		{
			"bufferView":184,
			"componentType":5126,
			"count":2,
			"type":"VEC3"
		},
		{
			"bufferView":185,
			"componentType":5126,
			"count":2,
			"type":"VEC3"
		},
		{
			"bufferView":186,
			"componentType":5126,
			"count":2,
			"type":"VEC4"
		},
		{
			"bufferView":187,
			"componentType":5126,
			"count":2,
			"type":"VEC3"
		},
		{
			"bufferView":188,
			"componentType":5126,
			"count":2,
			"type":"VEC3"
		},
		{
			"bufferView":189,
			"componentType":5126,
			"count":2,
			"type":"VEC4"
		},
		{
			"bufferView":190,
			"componentType":5126,
			"count":2,
			"type":"VEC3"
		},
		{
			"bufferView":191,
			"componentType":5126,
			"count":2,
			"type":"VEC3"
		},
		{
			"bufferView":192,
			"componentType":5126,
			"count":2,
			"type":"VEC4"
		},
		{
			"bufferView":193,
			"componentType":5126,
			"count":2,
			"type":"VEC3"
		},
		{
			"bufferView":194,
			"componentType":5126,
			"count":2,
			"type":"VEC3"
		},
		{
			"bufferView":195,
			"componentType":5126,
			"count":2,
			"type":"VEC4"
		},
		{
			"bufferView":196,
			"componentType":5126,
			"count":2,
			"type":"VEC3"
		},
		{
			"bufferView":197,
			"componentType":5126,
			"count":31,
			"max":[
				1
			],
			"min":[
				0
			],
			"type":"SCALAR"
		},
		{
			"bufferView":198,
			"componentType":5126,
			"count":31,
			"type":"VEC3"
		},
		{
			"bufferView":199,
			"componentType":5126,
			"count":31,
			"type":"VEC4"
		},
		{
			"bufferView":200,
			"componentType":5126,
			"count":2,
			"max":[
				1
			],
			"min":[
				0
			],
			"type":"SCALAR"
		},
		{
			"bufferView":201,
			"componentType":5126,
			"count":2,
			"type":"VEC3"
		},
		{
			"bufferView":202,
			"componentType":5126,
			"count":2,
			"type":"VEC3"
		},
		{
			"bufferView":203,
			"componentType":5126,
			"count":2,
			"type":"VEC4"
		},
		{
			"bufferView":204,
			"componentType":5126,
			"count":2,
			"type":"VEC3"
		},
		{
			"bufferView":205,
			"componentType":5126,
			"count":2,
			"type":"VEC3"
		},
		{
			"bufferView":206,
			"componentType":5126,
			"count":31,
			"type":"VEC4"
		},
		{
			"bufferView":207,
			"componentType":5126,
			"count":2,
			"type":"VEC3"
		},
		{
			"bufferView":208,
			"componentType":5126,
			"count":2,
			"type":"VEC3"
		},
		{
			"bufferView":209,
			"componentType":5126,
			"count":2,
			"type":"VEC4"
		},
		{
			"bufferView":210,
			"componentType":5126,
			"count":2,
			"type":"VEC3"
		},
		{
			"bufferView":211,
			"componentType":5126,
			"count":2,
			"type":"VEC3"
		},
		{
			"bufferView":212,
			"componentType":5126,
			"count":2,
			"type":"VEC4"
		},
		{
			"bufferView":213,
			"componentType":5126,
			"count":2,
			"type":"VEC3"
		},
		{
			"bufferView":214,
			"componentType":5126,
			"count":2,
			"type":"VEC3"
		},
		{
			"bufferView":215,
			"componentType":5126,
			"count":31,
			"type":"VEC4"
		},
		{
			"bufferView":216,
			"componentType":5126,
			"count":2,
			"type":"VEC3"
		},
		{
			"bufferView":217,
			"componentType":5126,
			"count":2,
			"type":"VEC3"
		},
		{
			"bufferView":218,
			"componentType":5126,
			"count":2,
			"type":"VEC4"
		},
		{
			"bufferView":219,
			"componentType":5126,
			"count":2,
			"type":"VEC3"
		},
		{
			"bufferView":220,
			"componentType":5126,
			"count":2,
			"type":"VEC3"
		},
		{
			"bufferView":221,
			"componentType":5126,
			"count":2,
			"type":"VEC4"
		},
		{
			"bufferView":222,
			"componentType":5126,
			"count":2,
			"type":"VEC3"
		},
		{
			"bufferView":223,
			"componentType":5126,
			"count":2,
			"type":"VEC3"
		},
		{
			"bufferView":224,
			"componentType":5126,
			"count":31,
			"type":"VEC4"
		},
		{
			"bufferView":225,
			"componentType":5126,
			"count":2,
			"type":"VEC3"
		},
		{
			"bufferView":226,
			"componentType":5126,
			"count":2,
			"type":"VEC3"
		},
		{
			"bufferView":227,
			"componentType":5126,
			"count":2,
			"type":"VEC4"
		},
		{
			"bufferView":228,
			"componentType":5126,
			"count":2,
			"type":"VEC3"
		},
		{
			"bufferView":229,
			"componentType":5126,
			"count":2,
			"type":"VEC3"
		},
		{
			"bufferView":230,
			"componentType":5126,
			"count":2,
			"type":"VEC4"
		},
		{
			"bufferView":231,
			"componentType":5126,
			"count":2,
			"type":"VEC3"
		},
		{
			"bufferView":232,
			"componentType":5126,
			"count":2,
			"type":"VEC3"
		},
		{
			"bufferView":233,
			"componentType":5126,
			"count":31,
			"type":"VEC4"
		},
		{
			"bufferView":234,
			"componentType":5126,
			"count":2,
			"type":"VEC3"
		},
		{
			"bufferView":235,
			"componentType":5126,
			"count":2,
			"type":"VEC3"
		},
		{
			"bufferView":236,
			"componentType":5126,
			"count":31,
			"type":"VEC4"
		},
		{
			"bufferView":237,
			"componentType":5126,
			"count":2,
			"type":"VEC3"
		},
		{
			"bufferView":238,
			"componentType":5126,
			"count":2,
			"type":"VEC3"
		},
		{
			"bufferView":239,
			"componentType":5126,
			"count":31,
			"type":"VEC4"
		},
		{
			"bufferView":240,
			"componentType":5126,
			"count":2,
			"type":"VEC3"
		},
		{
			"bufferView":241,
			"componentType":5126,
			"count":2,
			"type":"VEC3"
		},
		{
			"bufferView":242,
			"componentType":5126,
			"count":31,
			"type":"VEC4"
		},
		{
			"bufferView":243,
			"componentType":5126,
			"count":2,
			"type":"VEC3"
		},
		{
			"bufferView":244,
			"componentType":5126,
			"count":2,
			"type":"VEC3"
		},
		{
			"bufferView":245,
			"componentType":5126,
			"count":31,
			"type":"VEC4"
		},
		{
			"bufferView":246,
			"componentType":5126,
			"count":2,
			"type":"VEC3"
		},
		{
			"bufferView":247,
			"componentType":5126,
			"count":2,
			"type":"VEC3"
		},
		{
			"bufferView":248,
			"componentType":5126,
			"count":31,
			"type":"VEC4"
		},
		{
			"bufferView":249,
			"componentType":5126,
			"count":2,
			"type":"VEC3"
		}
	],
	"bufferViews":[
		{
			"buffer":0,
			"byteLength":30648,
			"byteOffset":0,
			"target":34962
		},
		{
			"buffer":0,
			"byteLength":30648,
			"byteOffset":30648,
			"target":34962
		},
		{
			"buffer":0,
			"byteLength":20432,
			"byteOffset":61296,
			"target":34962
		},
		{
			"buffer":0,
			"byteLength":10216,
			"byteOffset":81728,
			"target":34962
		},
		{
			"buffer":0,
			"byteLength":40864,
			"byteOffset":91944,
			"target":34962
		},
		{
			"buffer":0,
			"byteLength":21648,
			"byteOffset":132808,
			"target":34963
		},
		{
			"buffer":0,
			"byteLength":25488,
			"byteOffset":154456,
			"target":34962
		},
		{
			"buffer":0,
			"byteLength":25488,
			"byteOffset":179944,
			"target":34962
		},
		{
			"buffer":0,
			"byteLength":16992,
			"byteOffset":205432,
			"target":34962
		},
		{
			"buffer":0,
			"byteLength":8496,
			"byteOffset":222424,
			"target":34962
		},
		{
			"buffer":0,
			"byteLength":33984,
			"byteOffset":230920,
			"target":34962
		},
		{
			"buffer":0,
			"byteLength":14400,
			"byteOffset":264904,
			"target":34963
		},
		{
			"buffer":0,
			"byteLength":4668,
			"byteOffset":279304,
			"target":34962
		},
		{
			"buffer":0,
			"byteLength":4668,
			"byteOffset":283972,
			"target":34962
		},
		{
			"buffer":0,
			"byteLength":3112,
			"byteOffset":288640,
			"target":34962
		},
		{
			"buffer":0,
			"byteLength":1556,
			"byteOffset":291752,
			"target":34962
		},
		{
			"buffer":0,
			"byteLength":6224,
			"byteOffset":293308,
			"target":34962
		},
		{
			"buffer":0,
			"byteLength":2928,
			"byteOffset":299532,
			"target":34963
		},
		{
			"buffer":0,
			"byteLength":720,
			"byteOffset":302460,
			"target":34962
		},
		{
			"buffer":0,
			"byteLength":720,
			"byteOffset":303180,
			"target":34962
		},
		{
			"buffer":0,
			"byteLength":480,
			"byteOffset":303900,
			"target":34962
		},
		{
			"buffer":0,
			"byteLength":240,
			"byteOffset":304380,
			"target":34962
		},
		{
			"buffer":0,
			"byteLength":960,
			"byteOffset":304620,
			"target":34962
		},
		{
			"buffer":0,
			"byteLength":336,
			"byteOffset":305580,
			"target":34963
		},
		{
			"buffer":0,
			"byteLength":7968,
			"byteOffset":305916,
			"target":34962
		},
		{
			"buffer":0,
			"byteLength":7968,
			"byteOffset":313884,
			"target":34962
		},
		{
			"buffer":0,
			"byteLength":5312,
			"byteOffset":321852,
			"target":34962
		},
		{
			"buffer":0,
			"byteLength":2656,
			"byteOffset":327164,
			"target":34962
		},
		{
			"buffer":0,
			"byteLength":10624,
			"byteOffset":329820,
			"target":34962
		},
		{
			"buffer":0,
			"byteLength":5616,
			"byteOffset":340444,
			"target":34963
		},
		{
			"buffer":0,
			"byteLength":10488,
			"byteOffset":346060,
			"target":34962
		},
		{
			"buffer":0,
			"byteLength":10488,
			"byteOffset":356548,
			"target":34962
		},
		{
			"buffer":0,
			"byteLength":6992,
			"byteOffset":367036,
			"target":34962
		},
		{
			"buffer":0,
			"byteLength":3496,
			"byteOffset":374028,
			"target":34962
		},
		{
			"buffer":0,
			"byteLength":13984,
			"byteOffset":377524,
			"target":34962
		},
		{
			"buffer":0,
			"byteLength":7680,
			"byteOffset":391508,
			"target":34963
		},
		{
			"buffer":0,
			"byteLength":3648,
			"byteOffset":399188,
			"target":34962
		},
		{
			"buffer":0,
			"byteLength":3648,
			"byteOffset":402836,
			"target":34962
		},
		{
			"buffer":0,
			"byteLength":2432,
			"byteOffset":406484,
			"target":34962
		},
		{
			"buffer":0,
			"byteLength":1216,
			"byteOffset":408916,
			"target":34962
		},
		{
			"buffer":0,
			"byteLength":4864,
			"byteOffset":410132,
			"target":34962
		},
		{
			"buffer":0,
			"byteLength":2304,
			"byteOffset":414996,
			"target":34963
		},
		{
			"buffer":0,
			"byteLength":2640,
			"byteOffset":417300,
			"target":34962
		},
		{
			"buffer":0,
			"byteLength":2640,
			"byteOffset":419940,
			"target":34962
		},
		{
			"buffer":0,
			"byteLength":1760,
			"byteOffset":422580,
			"target":34962
		},
		{
			"buffer":0,
			"byteLength":880,
			"byteOffset":424340,
			"target":34962
		},
		{
			"buffer":0,
			"byteLength":3520,
			"byteOffset":425220,
			"target":34962
		},
		{
			"buffer":0,
			"byteLength":1440,
			"byteOffset":428740,
			"target":34963
		},
		{
			"buffer":0,
			"byteLength":1920,
			"byteOffset":430180,
			"target":34962
		},
		{
			"buffer":0,
			"byteLength":1920,
			"byteOffset":432100,
			"target":34962
		},
		{
			"buffer":0,
			"byteLength":1280,
			"byteOffset":434020,
			"target":34962
		},
		{
			"buffer":0,
			"byteLength":640,
			"byteOffset":435300,
			"target":34962
		},
		{
			"buffer":0,
			"byteLength":2560,
			"byteOffset":435940,
			"target":34962
		},
		{
			"buffer":0,
			"byteLength":960,
			"byteOffset":438500,
			"target":34963
		},
		{
			"buffer":0,
			"byteLength":1176,
			"byteOffset":439460,
			"target":34962
		},
		{
			"buffer":0,
			"byteLength":1176,
			"byteOffset":440636,
			"target":34962
		},
		{
			"buffer":0,
			"byteLength":784,
			"byteOffset":441812,
			"target":34962
		},
		{
			"buffer":0,
			"byteLength":392,
			"byteOffset":442596,
			"target":34962
		},
		{
			"buffer":0,
			"byteLength":1568,
			"byteOffset":442988,
			"target":34962
		},
		{
			"buffer":0,
			"byteLength":720,
			"byteOffset":444556,
			"target":34963
		},
		{
			"buffer":0,
			"byteLength":2160,
			"byteOffset":445276,
			"target":34962
		},
		{
			"buffer":0,
			"byteLength":2160,
			"byteOffset":447436,
			"target":34962
		},
		{
			"buffer":0,
			"byteLength":1440,
			"byteOffset":449596,
			"target":34962
		},
		{
			"buffer":0,
			"byteLength":720,
			"byteOffset":451036,
			"target":34962
		},
		{
			"buffer":0,
			"byteLength":2880,
			"byteOffset":451756,
			"target":34962
		},
		{
			"buffer":0,
			"byteLength":1152,
			"byteOffset":454636,
			"target":34963
		},
		{
			"buffer":0,
			"byteLength":288,
			"byteOffset":455788,
			"target":34962
		},
		{
			"buffer":0,
			"byteLength":288,
			"byteOffset":456076,
			"target":34962
		},
		{
			"buffer":0,
			"byteLength":192,
			"byteOffset":456364,
			"target":34962
		},
		{
			"buffer":0,
			"byteLength":96,
			"byteOffset":456556,
			"target":34962
		},
		{
			"buffer":0,
			"byteLength":384,
			"byteOffset":456652,
			"target":34962
		},
		{
			"buffer":0,
			"byteLength":72,
			"byteOffset":457036,
			"target":34963
		},
		{
			"buffer":0,
			"byteLength":1296,
			"byteOffset":457108,
			"target":34962
		},
		{
			"buffer":0,
			"byteLength":1296,
			"byteOffset":458404,
			"target":34962
		},
		{
			"buffer":0,
			"byteLength":864,
			"byteOffset":459700,
			"target":34962
		},
		{
			"buffer":0,
			"byteLength":432,
			"byteOffset":460564,
			"target":34962
		},
		{
			"buffer":0,
			"byteLength":1728,
			"byteOffset":460996,
			"target":34962
		},
		{
			"buffer":0,
			"byteLength":312,
			"byteOffset":462724,
			"target":34963
		},
		{
			"buffer":0,
			"byteLength":504,
			"byteOffset":463036,
			"target":34962
		},
		{
			"buffer":0,
			"byteLength":504,
			"byteOffset":463540,
			"target":34962
		},
		{
			"buffer":0,
			"byteLength":336,
			"byteOffset":464044,
			"target":34962
		},
		{
			"buffer":0,
			"byteLength":168,
			"byteOffset":464380,
			"target":34962
		},
		{
			"buffer":0,
			"byteLength":672,
			"byteOffset":464548,
			"target":34962
		},
		{
			"buffer":0,
			"byteLength":192,
			"byteOffset":465220,
			"target":34963
		},
		{
			"buffer":0,
			"byteLength":888,
			"byteOffset":465412,
			"target":34962
		},
		{
			"buffer":0,
			"byteLength":888,
			"byteOffset":466300,
			"target":34962
		},
		{
			"buffer":0,
			"byteLength":592,
			"byteOffset":467188,
			"target":34962
		},
		{
			"buffer":0,
			"byteLength":296,
			"byteOffset":467780,
			"target":34962
		},
		{
			"buffer":0,
			"byteLength":1184,
			"byteOffset":468076,
			"target":34962
		},
		{
			"buffer":0,
			"byteLength":288,
			"byteOffset":469260,
			"target":34963
		},
		{
			"buffer":0,
			"byteLength":1088,
			"byteOffset":469548
		},
		{
			"buffer":0,
			"byteLength":8,
			"byteOffset":470636
		},
		{
			"buffer":0,
			"byteLength":24,
			"byteOffset":470644
		},
		{
			"buffer":0,
			"byteLength":32,
			"byteOffset":470668
		},
		{
			"buffer":0,
			"byteLength":24,
			"byteOffset":470700
		},
		{
			"buffer":0,
			"byteLength":24,
			"byteOffset":470724
		},
		{
			"buffer":0,
			"byteLength":32,
			"byteOffset":470748
		},
		{
			"buffer":0,
			"byteLength":24,
			"byteOffset":470780
		},
		{
			"buffer":0,
			"byteLength":24,
			"byteOffset":470804
		},
		{
			"buffer":0,
			"byteLength":76,
			"byteOffset":470828
		},
		{
			"buffer":0,
			"byteLength":304,
			"byteOffset":470904
		},
		{
			"buffer":0,
			"byteLength":24,
			"byteOffset":471208
		},
		{
			"buffer":0,
			"byteLength":24,
			"byteOffset":471232
		},
		{
			"buffer":0,
			"byteLength":32,
			"byteOffset":471256
		},
		{
			"buffer":0,
			"byteLength":24,
			"byteOffset":471288
		},
		{
			"buffer":0,
			"byteLength":24,
			"byteOffset":471312
		},
		{
			"buffer":0,
			"byteLength":32,
			"byteOffset":471336
		},
		{
			"buffer":0,
			"byteLength":24,
			"byteOffset":471368
		},
		{
			"buffer":0,
			"byteLength":24,
			"byteOffset":471392
		},
		{
			"buffer":0,
			"byteLength":304,
			"byteOffset":471416
		},
		{
			"buffer":0,
			"byteLength":24,
			"byteOffset":471720
		},
		{
			"buffer":0,
			"byteLength":24,
			"byteOffset":471744
		},
		{
			"buffer":0,
			"byteLength":304,
			"byteOffset":471768
		},
		{
			"buffer":0,
			"byteLength":24,
			"byteOffset":472072
		},
		{
			"buffer":0,
			"byteLength":24,
			"byteOffset":472096
		},
		{
			"buffer":0,
			"byteLength":32,
			"byteOffset":472120
		},
		{
			"buffer":0,
			"byteLength":24,
			"byteOffset":472152
		},
		{
			"buffer":0,
			"byteLength":24,
			"byteOffset":472176
		},
		{
			"buffer":0,
			"byteLength":304,
			"byteOffset":472200
		},
		{
			"buffer":0,
			"byteLength":24,
			"byteOffset":472504
		},
		{
			"buffer":0,
			"byteLength":24,
			"byteOffset":472528
		},
		{
			"buffer":0,
			"byteLength":32,
			"byteOffset":472552
		},
		{
			"buffer":0,
			"byteLength":24,
			"byteOffset":472584
		},
		{
			"buffer":0,
			"byteLength":24,
			"byteOffset":472608
		},
		{
			"buffer":0,
			"byteLength":32,
			"byteOffset":472632
		},
		{
			"buffer":0,
			"byteLength":24,
			"byteOffset":472664
		},
		{
			"buffer":0,
			"byteLength":24,
			"byteOffset":472688
		},
		{
			"buffer":0,
			"byteLength":304,
			"byteOffset":472712
		},
		{
			"buffer":0,
			"byteLength":24,
			"byteOffset":473016
		},
		{
			"buffer":0,
			"byteLength":24,
			"byteOffset":473040
		},
		{
			"buffer":0,
			"byteLength":32,
			"byteOffset":473064
		},
		{
			"buffer":0,
			"byteLength":24,
			"byteOffset":473096
		},
		{
			"buffer":0,
			"byteLength":24,
			"byteOffset":473120
		},
		{
			"buffer":0,
			"byteLength":32,
			"byteOffset":473144
		},
		{
			"buffer":0,
			"byteLength":24,
			"byteOffset":473176
		},
		{
			"buffer":0,
			"byteLength":24,
			"byteOffset":473200
		},
		{
			"buffer":0,
			"byteLength":304,
			"byteOffset":473224
		},
		{
			"buffer":0,
			"byteLength":24,
			"byteOffset":473528
		},
		{
			"buffer":0,
			"byteLength":24,
			"byteOffset":473552
		},
		{
			"buffer":0,
			"byteLength":32,
			"byteOffset":473576
		},
		{
			"buffer":0,
			"byteLength":24,
			"byteOffset":473608
		},
		{
			"buffer":0,
			"byteLength":24,
			"byteOffset":473632
		},
		{
			"buffer":0,
			"byteLength":32,
			"byteOffset":473656
		},
		{
			"buffer":0,
			"byteLength":24,
			"byteOffset":473688
		},
		{
			"buffer":0,
			"byteLength":244,
			"byteOffset":473712
		},
		{
			"buffer":0,
			"byteLength":732,
			"byteOffset":473956
		},
		{
			"buffer":0,
			"byteLength":8,
			"byteOffset":474688
		},
		{
			"buffer":0,
			"byteLength":32,
			"byteOffset":474696
		},
		{
			"buffer":0,
			"byteLength":24,
			"byteOffset":474728
		},
		{
			"buffer":0,
			"byteLength":24,
			"byteOffset":474752
		},
		{
			"buffer":0,
			"byteLength":32,
			"byteOffset":474776
		},
		{
			"buffer":0,
			"byteLength":24,
			"byteOffset":474808
		},
		{
			"buffer":0,
			"byteLength":24,
			"byteOffset":474832
		},
		{
			"buffer":0,
			"byteLength":976,
			"byteOffset":474856
		},
		{
			"buffer":0,
			"byteLength":24,
			"byteOffset":475832
		},
		{
			"buffer":0,
			"byteLength":24,
			"byteOffset":475856
		},
		{
			"buffer":0,
			"byteLength":32,
			"byteOffset":475880
		},
		{
			"buffer":0,
			"byteLength":24,
			"byteOffset":475912
		},
		{
			"buffer":0,
			"byteLength":24,
			"byteOffset":475936
		},
		{
			"buffer":0,
			"byteLength":976,
			"byteOffset":475960
		},
		{
			"buffer":0,
			"byteLength":24,
			"byteOffset":476936
		},
		{
			"buffer":0,
			"byteLength":24,
			"byteOffset":476960
		},
		{
			"buffer":0,
			"byteLength":976,
			"byteOffset":476984
		},
		{
			"buffer":0,
			"byteLength":24,
			"byteOffset":477960
		},
		{
			"buffer":0,
			"byteLength":24,
			"byteOffset":477984
		},
		{
			"buffer":0,
			"byteLength":32,
			"byteOffset":478008
		},
		{
			"buffer":0,
			"byteLength":24,
			"byteOffset":478040
		},
		{
			"buffer":0,
			"byteLength":24,
			"byteOffset":478064
		},
		{
			"buffer":0,
			"byteLength":32,
			"byteOffset":478088
		},
		{
			"buffer":0,
			"byteLength":24,
			"byteOffset":478120
		},
		{
			"buffer":0,
			"byteLength":24,
			"byteOffset":478144
		},
		{
			"buffer":0,
			"byteLength":976,
			"byteOffset":478168
		},
		{
			"buffer":0,
			"byteLength":24,
			"byteOffset":479144
		},
		{
			"buffer":0,
			"byteLength":24,
			"byteOffset":479168
		},
		{
			"buffer":0,
			"byteLength":32,
			"byteOffset":479192
		},
		{
			"buffer":0,
			"byteLength":24,
			"byteOffset":479224
		},
		{
			"buffer":0,
			"byteLength":24,
			"byteOffset":479248
		},
		{
			"buffer":0,
			"byteLength":32,
			"byteOffset":479272
		},
		{
			"buffer":0,
			"byteLength":24,
			"byteOffset":479304
		},
		{
			"buffer":0,
			"byteLength":24,
			"byteOffset":479328
		},
		{
			"buffer":0,
			"byteLength":32,
			"byteOffset":479352
		},
		{
			"buffer":0,
			"byteLength":24,
			"byteOffset":479384
		},
		{
			"buffer":0,
			"byteLength":24,
			"byteOffset":479408
		},
		{
			"buffer":0,
			"byteLength":32,
			"byteOffset":479432
		},
		{
			"buffer":0,
			"byteLength":24,
			"byteOffset":479464
		},
		{
			"buffer":0,
			"byteLength":24,
			"byteOffset":479488
		},
		{
			"buffer":0,
			"byteLength":32,
			"byteOffset":479512
		},
		{
			"buffer":0,
			"byteLength":24,
			"byteOffset":479544
		},
		{
			"buffer":0,
			"byteLength":24,
			"byteOffset":479568
		},
		{
			"buffer":0,
			"byteLength":32,
			"byteOffset":479592
		},
		{
			"buffer":0,
			"byteLength":24,
			"byteOffset":479624
		},
		{
			"buffer":0,
			"byteLength":24,
			"byteOffset":479648
		},
		{
			"buffer":0,
			"byteLength":32,
			"byteOffset":479672
		},
		{
			"buffer":0,
			"byteLength":24,
			"byteOffset":479704
		},
		{
			"buffer":0,
			"byteLength":24,
			"byteOffset":479728
		},
		{
			"buffer":0,
			"byteLength":32,
			"byteOffset":479752
		},
		{
			"buffer":0,
			"byteLength":24,
			"byteOffset":479784
		},
		{
			"buffer":0,
			"byteLength":124,
			"byteOffset":479808
		},
		{
			"buffer":0,
			"byteLength":372,
			"byteOffset":479932
		},
		{
			"buffer":0,
			"byteLength":496,
			"byteOffset":480304
		},
		{
			"buffer":0,
			"byteLength":8,
			"byteOffset":480800
		},
		{
			"buffer":0,
			"byteLength":24,
			"byteOffset":480808
		},
		{
			"buffer":0,
			"byteLength":24,
			"byteOffset":480832
		},
		{
			"buffer":0,
			"byteLength":32,
			"byteOffset":480856
		},
		{
			"buffer":0,
			"byteLength":24,
			"byteOffset":480888
		},
		{
			"buffer":0,
			"byteLength":24,
			"byteOffset":480912
		},
		{
			"buffer":0,
			"byteLength":496,
			"byteOffset":480936
		},
		{
			"buffer":0,
			"byteLength":24,
			"byteOffset":481432
		},
		{
			"buffer":0,
			"byteLength":24,
			"byteOffset":481456
		},
		{
			"buffer":0,
			"byteLength":32,
			"byteOffset":481480
		},
		{
			"buffer":0,
			"byteLength":24,
			"byteOffset":481512
		},
		{
			"buffer":0,
			"byteLength":24,
			"byteOffset":481536
		},
		{
			"buffer":0,
			"byteLength":32,
			"byteOffset":481560
		},
		{
			"buffer":0,
			"byteLength":24,
			"byteOffset":481592
		},
		{
			"buffer":0,
			"byteLength":24,
			"byteOffset":481616
		},
		{
			"buffer":0,
			"byteLength":496,
			"byteOffset":481640
		},
		{
			"buffer":0,
			"byteLength":24,
			"byteOffset":482136
		},
		{
			"buffer":0,
			"byteLength":24,
			"byteOffset":482160
		},
		{
			"buffer":0,
			"byteLength":32,
			"byteOffset":482184
		},
		{
			"buffer":0,
			"byteLength":24,
			"byteOffset":482216
		},
		{
			"buffer":0,
			"byteLength":24,
			"byteOffset":482240
		},
		{
			"buffer":0,
			"byteLength":32,
			"byteOffset":482264
		},
		{
			"buffer":0,
			"byteLength":24,
			"byteOffset":482296
		},
		{
			"buffer":0,
			"byteLength":24,
			"byteOffset":482320
		},
		{
			"buffer":0,
			"byteLength":496,
			"byteOffset":482344
		},
		{
			"buffer":0,
			"byteLength":24,
			"byteOffset":482840
		},
		{
			"buffer":0,
			"byteLength":24,
			"byteOffset":482864
		},
		{
			"buffer":0,
			"byteLength":32,
			"byteOffset":482888
		},
		{
			"buffer":0,
			"byteLength":24,
			"byteOffset":482920
		},
		{
			"buffer":0,
			"byteLength":24,
			"byteOffset":482944
		},
		{
			"buffer":0,
			"byteLength":32,
			"byteOffset":482968
		},
		{
			"buffer":0,
			"byteLength":24,
			"byteOffset":483000
		},
		{
			"buffer":0,
			"byteLength":24,
			"byteOffset":483024
		},
		{
			"buffer":0,
			"byteLength":496,
			"byteOffset":483048
		},
		{
			"buffer":0,
			"byteLength":24,
			"byteOffset":483544
		},
		{
			"buffer":0,
			"byteLength":24,
			"byteOffset":483568
		},
		{
			"buffer":0,
			"byteLength":496,
			"byteOffset":483592
		},
		{
			"buffer":0,
			"byteLength":24,
			"byteOffset":484088
		},
		{
			"buffer":0,
			"byteLength":24,
			"byteOffset":484112
		},
		{
			"buffer":0,
			"byteLength":496,
			"byteOffset":484136
		},
		{
			"buffer":0,
			"byteLength":24,
			"byteOffset":484632
		},
		{
			"buffer":0,
			"byteLength":24,
			"byteOffset":484656
		},
		{
			"buffer":0,
			"byteLength":496,
			"byteOffset":484680
		},
		{
			"buffer":0,
			"byteLength":24,
			"byteOffset":485176
		},
		{
			"buffer":0,
			"byteLength":24,
			"byteOffset":485200
		},
		{
			"buffer":0,
			"byteLength":496,
			"byteOffset":485224
		},
		{
			"buffer":0,
			"byteLength":24,
			"byteOffset":485720
		},
		{
			"buffer":0,
			"byteLength":24,
			"byteOffset":485744
		},
		{
			"buffer":0,
			"byteLength":496,
			"byteOffset":485768
		},
		{
			"buffer":0,
			"byteLength":24,
			"byteOffset":486264
		}
	],
	"samplers":[
		{
			"magFilter":9729,
			"minFilter":9987
		}
	],
	"buffers":[
		{
			"byteLength":486288,
			"uri":"ogre_prince.bin"
		}
	]
}
