{
	"asset":{
		"generator":"Khronos glTF Blender I/O v4.2.57",
		"version":"2.0"
	},
	"extensionsUsed":[
		"KHR_materials_clearcoat",
		"KHR_materials_sheen"
	],
	"scene":0,
	"scenes":[
		{
			"name":"Scene",
			"nodes":[
				18
			]
		}
	],
	"nodes":[
		{
			"name":"head",
			"translation":[
				0,
				0.11500000953674316,
				0
			]
		},
		{
			"children":[
				0
			],
			"name":"neck",
			"translation":[
				0,
				0.2415001392364502,
				0
			]
		},
		{
			"name":"hand.R",
			"rotation":[
				-0.004066496156156063,
				-0.028699230402708054,
				0.030803773552179337,
				0.9991050958633423
			],
			"scale":[
				1,
				1,
				1.0000001192092896
			],
			"translation":[
				-3.14321368932724e-08,
				0.290507435798645,
				-1.0244548320770264e-08
			]
		},
		{
			"children":[
				2
			],
			"name":"forearm.R",
			"rotation":[
				0.042591363191604614,
				-0.06978468596935272,
				0.08124888688325882,
				0.9933351278305054
			],
			"scale":[
				1,
				0.9999999403953552,
				1
			],
			"translation":[
				8.079223334789276e-08,
				0.32183030247688293,
				4.6566128730773926e-09
			]
		},
		{
			"children":[
				3
			],
			"name":"upper_arm.R",
			"rotation":[
				0.9822396039962769,
				0.13267536461353302,
				0.13267464935779572,
				0.0002686305087991059
			],
			"scale":[
				1.0000053644180298,
				1.0000004768371582,
				1.0000001192092896
			],
			"translation":[
				0.34775999188423157,
				0.18400001525878906,
				0
			]
		},
		{
			"name":"hand.L",
			"rotation":[
				-0.004066496156156063,
				0.028699230402708054,
				-0.030803773552179337,
				0.9991050958633423
			],
			"scale":[
				1,
				1,
				1.0000001192092896
			],
			"translation":[
				3.14321368932724e-08,
				0.290507435798645,
				-1.0244548320770264e-08
			]
		},
		{
			"children":[
				5
			],
			"name":"forearm.L",
			"rotation":[
				0.042591363191604614,
				0.06978468596935272,
				-0.08124888688325882,
				0.9933351278305054
			],
			"scale":[
				1,
				0.9999999403953552,
				1
			],
			"translation":[
				-8.079223334789276e-08,
				0.32183030247688293,
				4.6566128730773926e-09
			]
		},
		{
			"children":[
				6
			],
			"name":"upper_arm.L",
			"rotation":[
				0.9822396039962769,
				-0.13267536461353302,
				-0.13267464935779572,
				0.0002686305087991059
			],
			"scale":[
				1.0000053644180298,
				1.0000004768371582,
				1.0000001192092896
			],
			"translation":[
				-0.34775999188423157,
				0.18400001525878906,
				0
			]
		},
		{
			"children":[
				1,
				4,
				7
			],
			"name":"chest",
			"scale":[
				1,
				0.9999999403953552,
				1
			],
			"translation":[
				0,
				0.19550001621246338,
				0
			]
		},
		{
			"children":[
				8
			],
			"name":"spine",
			"translation":[
				0,
				0.17250001430511475,
				0
			]
		},
		{
			"name":"foot.R",
			"rotation":[
				0.5914180278778076,
				-2.3218078570863554e-09,
				1.558528972545048e-09,
				0.8063651323318481
			],
			"translation":[
				-1.4829923067338768e-08,
				0.4721781015396118,
				-2.2265425059231347e-09
			]
		},
		{
			"children":[
				10
			],
			"name":"shin.R",
			"rotation":[
				-0.04159494861960411,
				-0.013807989656925201,
				0.013086950406432152,
				0.9989534616470337
			],
			"scale":[
				0.9999998807907104,
				0.9999997615814209,
				0.9999999403953552
			],
			"translation":[
				4.831235855817795e-09,
				0.47187769412994385,
				-2.3283064365386963e-09
			]
		},
		{
			"children":[
				11
			],
			"name":"thigh.R",
			"rotation":[
				-0.9997093677520752,
				-0.013452311977744102,
				-0.013452454470098019,
				0.014807697385549545
			],
			"scale":[
				1.0000003576278687,
				1.000000238418579,
				1.0000004768371582
			],
			"translation":[
				0.1481200009584427,
				-0.023000001907348633,
				0
			]
		},
		{
			"name":"foot.L",
			"rotation":[
				0.5914180278778076,
				2.3218078570863554e-09,
				-1.558528972545048e-09,
				0.8063651323318481
			],
			"translation":[
				1.4829923067338768e-08,
				0.4721781015396118,
				-2.2265425059231347e-09
			]
		},
		{
			"children":[
				13
			],
			"name":"shin.L",
			"rotation":[
				-0.04159494861960411,
				0.013807989656925201,
				-0.013086950406432152,
				0.9989534616470337
			],
			"scale":[
				0.9999998807907104,
				0.9999997615814209,
				0.9999999403953552
			],
			"translation":[
				-4.831235855817795e-09,
				0.47187769412994385,
				-2.3283064365386963e-09
			]
		},
		{
			"children":[
				14
			],
			"name":"thigh.L",
			"rotation":[
				-0.9997093677520752,
				0.013452311977744102,
				0.013452454470098019,
				0.014807697385549545
			],
			"scale":[
				1.0000003576278687,
				1.000000238418579,
				1.0000004768371582
			],
			"translation":[
				-0.1481200009584427,
				-0.023000001907348633,
				0
			]
		},
		{
			"children":[
				9,
				12,
				15
			],
			"name":"hips",
			"translation":[
				0,
				1.0694999694824219,
				0
			]
		},
		{
			"mesh":0,
			"name":"orc",
			"skin":0
		},
		{
			"children":[
				17,
				16
			],
			"name":"orc_rig"
		}
	],
	"animations":[
		{
			"channels":[
				{
					"sampler":0,
					"target":{
						"node":16,
						"path":"translation"
					}
				},
				{
					"sampler":1,
					"target":{
						"node":16,
						"path":"rotation"
					}
				},
				{
					"sampler":2,
					"target":{
						"node":16,
						"path":"scale"
					}
				},
				{
					"sampler":3,
					"target":{
						"node":9,
						"path":"translation"
					}
				},
				{
					"sampler":4,
					"target":{
						"node":9,
						"path":"rotation"
					}
				},
				{
					"sampler":5,
					"target":{
						"node":9,
						"path":"scale"
					}
				},
				{
					"sampler":6,
					"target":{
						"node":8,
						"path":"translation"
					}
				},
				{
					"sampler":7,
					"target":{
						"node":8,
						"path":"rotation"
					}
				},
				{
					"sampler":8,
					"target":{
						"node":8,
						"path":"scale"
					}
				},
				{
					"sampler":9,
					"target":{
						"node":1,
						"path":"translation"
					}
				},
				{
					"sampler":10,
					"target":{
						"node":1,
						"path":"rotation"
					}
				},
				{
					"sampler":11,
					"target":{
						"node":1,
						"path":"scale"
					}
				},
				{
					"sampler":12,
					"target":{
						"node":0,
						"path":"translation"
					}
				},
				{
					"sampler":13,
					"target":{
						"node":0,
						"path":"rotation"
					}
				},
				{
					"sampler":14,
					"target":{
						"node":0,
						"path":"scale"
					}
				},
				{
					"sampler":15,
					"target":{
						"node":4,
						"path":"translation"
					}
				},
				{
					"sampler":16,
					"target":{
						"node":4,
						"path":"rotation"
					}
				},
				{
					"sampler":17,
					"target":{
						"node":4,
						"path":"scale"
					}
				},
				{
					"sampler":18,
					"target":{
						"node":3,
						"path":"translation"
					}
				},
				{
					"sampler":19,
					"target":{
						"node":3,
						"path":"rotation"
					}
				},
				{
					"sampler":20,
					"target":{
						"node":3,
						"path":"scale"
					}
				},
				{
					"sampler":21,
					"target":{
						"node":2,
						"path":"translation"
					}
				},
				{
					"sampler":22,
					"target":{
						"node":2,
						"path":"rotation"
					}
				},
				{
					"sampler":23,
					"target":{
						"node":2,
						"path":"scale"
					}
				},
				{
					"sampler":24,
					"target":{
						"node":7,
						"path":"translation"
					}
				},
				{
					"sampler":25,
					"target":{
						"node":7,
						"path":"rotation"
					}
				},
				{
					"sampler":26,
					"target":{
						"node":7,
						"path":"scale"
					}
				},
				{
					"sampler":27,
					"target":{
						"node":6,
						"path":"translation"
					}
				},
				{
					"sampler":28,
					"target":{
						"node":6,
						"path":"rotation"
					}
				},
				{
					"sampler":29,
					"target":{
						"node":6,
						"path":"scale"
					}
				},
				{
					"sampler":30,
					"target":{
						"node":5,
						"path":"translation"
					}
				},
				{
					"sampler":31,
					"target":{
						"node":5,
						"path":"rotation"
					}
				},
				{
					"sampler":32,
					"target":{
						"node":5,
						"path":"scale"
					}
				},
				{
					"sampler":33,
					"target":{
						"node":12,
						"path":"translation"
					}
				},
				{
					"sampler":34,
					"target":{
						"node":12,
						"path":"rotation"
					}
				},
				{
					"sampler":35,
					"target":{
						"node":12,
						"path":"scale"
					}
				},
				{
					"sampler":36,
					"target":{
						"node":11,
						"path":"translation"
					}
				},
				{
					"sampler":37,
					"target":{
						"node":11,
						"path":"rotation"
					}
				},
				{
					"sampler":38,
					"target":{
						"node":11,
						"path":"scale"
					}
				},
				{
					"sampler":39,
					"target":{
						"node":10,
						"path":"translation"
					}
				},
				{
					"sampler":40,
					"target":{
						"node":10,
						"path":"rotation"
					}
				},
				{
					"sampler":41,
					"target":{
						"node":10,
						"path":"scale"
					}
				},
				{
					"sampler":42,
					"target":{
						"node":15,
						"path":"translation"
					}
				},
				{
					"sampler":43,
					"target":{
						"node":15,
						"path":"rotation"
					}
				},
				{
					"sampler":44,
					"target":{
						"node":15,
						"path":"scale"
					}
				},
				{
					"sampler":45,
					"target":{
						"node":14,
						"path":"translation"
					}
				},
				{
					"sampler":46,
					"target":{
						"node":14,
						"path":"rotation"
					}
				},
				{
					"sampler":47,
					"target":{
						"node":14,
						"path":"scale"
					}
				},
				{
					"sampler":48,
					"target":{
						"node":13,
						"path":"translation"
					}
				},
				{
					"sampler":49,
					"target":{
						"node":13,
						"path":"rotation"
					}
				},
				{
					"sampler":50,
					"target":{
						"node":13,
						"path":"scale"
					}
				}
			],
			"name":"attack",
			"samplers":[
				{
					"input":79,
					"interpolation":"STEP",
					"output":80
				},
				{
					"input":79,
					"interpolation":"STEP",
					"output":81
				},
				{
					"input":79,
					"interpolation":"STEP",
					"output":82
				},
				{
					"input":79,
					"interpolation":"STEP",
					"output":83
				},
				{
					"input":79,
					"interpolation":"STEP",
					"output":84
				},
				{
					"input":79,
					"interpolation":"STEP",
					"output":85
				},
				{
					"input":79,
					"interpolation":"STEP",
					"output":86
				},
				{
					"input":87,
					"interpolation":"LINEAR",
					"output":88
				},
				{
					"input":79,
					"interpolation":"STEP",
					"output":89
				},
				{
					"input":79,
					"interpolation":"STEP",
					"output":90
				},
				{
					"input":79,
					"interpolation":"STEP",
					"output":91
				},
				{
					"input":79,
					"interpolation":"STEP",
					"output":92
				},
				{
					"input":79,
					"interpolation":"STEP",
					"output":93
				},
				{
					"input":79,
					"interpolation":"STEP",
					"output":94
				},
				{
					"input":79,
					"interpolation":"STEP",
					"output":95
				},
				{
					"input":79,
					"interpolation":"STEP",
					"output":96
				},
				{
					"input":87,
					"interpolation":"LINEAR",
					"output":97
				},
				{
					"input":79,
					"interpolation":"STEP",
					"output":98
				},
				{
					"input":79,
					"interpolation":"STEP",
					"output":99
				},
				{
					"input":87,
					"interpolation":"LINEAR",
					"output":100
				},
				{
					"input":79,
					"interpolation":"STEP",
					"output":101
				},
				{
					"input":79,
					"interpolation":"STEP",
					"output":102
				},
				{
					"input":79,
					"interpolation":"STEP",
					"output":103
				},
				{
					"input":79,
					"interpolation":"STEP",
					"output":104
				},
				{
					"input":79,
					"interpolation":"STEP",
					"output":105
				},
				{
					"input":87,
					"interpolation":"LINEAR",
					"output":106
				},
				{
					"input":79,
					"interpolation":"STEP",
					"output":107
				},
				{
					"input":79,
					"interpolation":"STEP",
					"output":108
				},
				{
					"input":79,
					"interpolation":"STEP",
					"output":109
				},
				{
					"input":79,
					"interpolation":"STEP",
					"output":110
				},
				{
					"input":79,
					"interpolation":"STEP",
					"output":111
				},
				{
					"input":79,
					"interpolation":"STEP",
					"output":112
				},
				{
					"input":79,
					"interpolation":"STEP",
					"output":113
				},
				{
					"input":79,
					"interpolation":"STEP",
					"output":114
				},
				{
					"input":87,
					"interpolation":"LINEAR",
					"output":115
				},
				{
					"input":79,
					"interpolation":"STEP",
					"output":116
				},
				{
					"input":79,
					"interpolation":"LINEAR",
					"output":117
				},
				{
					"input":79,
					"interpolation":"LINEAR",
					"output":118
				},
				{
					"input":79,
					"interpolation":"STEP",
					"output":119
				},
				{
					"input":79,
					"interpolation":"LINEAR",
					"output":120
				},
				{
					"input":79,
					"interpolation":"LINEAR",
					"output":121
				},
				{
					"input":79,
					"interpolation":"STEP",
					"output":122
				},
				{
					"input":79,
					"interpolation":"STEP",
					"output":123
				},
				{
					"input":87,
					"interpolation":"LINEAR",
					"output":124
				},
				{
					"input":79,
					"interpolation":"STEP",
					"output":125
				},
				{
					"input":79,
					"interpolation":"LINEAR",
					"output":126
				},
				{
					"input":79,
					"interpolation":"LINEAR",
					"output":127
				},
				{
					"input":79,
					"interpolation":"STEP",
					"output":128
				},
				{
					"input":79,
					"interpolation":"LINEAR",
					"output":129
				},
				{
					"input":79,
					"interpolation":"LINEAR",
					"output":130
				},
				{
					"input":79,
					"interpolation":"STEP",
					"output":131
				}
			]
		},
		{
			"channels":[
				{
					"sampler":0,
					"target":{
						"node":16,
						"path":"translation"
					}
				},
				{
					"sampler":1,
					"target":{
						"node":16,
						"path":"rotation"
					}
				},
				{
					"sampler":2,
					"target":{
						"node":16,
						"path":"scale"
					}
				},
				{
					"sampler":3,
					"target":{
						"node":9,
						"path":"translation"
					}
				},
				{
					"sampler":4,
					"target":{
						"node":9,
						"path":"rotation"
					}
				},
				{
					"sampler":5,
					"target":{
						"node":9,
						"path":"scale"
					}
				},
				{
					"sampler":6,
					"target":{
						"node":8,
						"path":"translation"
					}
				},
				{
					"sampler":7,
					"target":{
						"node":8,
						"path":"rotation"
					}
				},
				{
					"sampler":8,
					"target":{
						"node":8,
						"path":"scale"
					}
				},
				{
					"sampler":9,
					"target":{
						"node":1,
						"path":"translation"
					}
				},
				{
					"sampler":10,
					"target":{
						"node":1,
						"path":"rotation"
					}
				},
				{
					"sampler":11,
					"target":{
						"node":1,
						"path":"scale"
					}
				},
				{
					"sampler":12,
					"target":{
						"node":0,
						"path":"translation"
					}
				},
				{
					"sampler":13,
					"target":{
						"node":0,
						"path":"rotation"
					}
				},
				{
					"sampler":14,
					"target":{
						"node":0,
						"path":"scale"
					}
				},
				{
					"sampler":15,
					"target":{
						"node":4,
						"path":"translation"
					}
				},
				{
					"sampler":16,
					"target":{
						"node":4,
						"path":"rotation"
					}
				},
				{
					"sampler":17,
					"target":{
						"node":4,
						"path":"scale"
					}
				},
				{
					"sampler":18,
					"target":{
						"node":3,
						"path":"translation"
					}
				},
				{
					"sampler":19,
					"target":{
						"node":3,
						"path":"rotation"
					}
				},
				{
					"sampler":20,
					"target":{
						"node":3,
						"path":"scale"
					}
				},
				{
					"sampler":21,
					"target":{
						"node":2,
						"path":"translation"
					}
				},
				{
					"sampler":22,
					"target":{
						"node":2,
						"path":"rotation"
					}
				},
				{
					"sampler":23,
					"target":{
						"node":2,
						"path":"scale"
					}
				},
				{
					"sampler":24,
					"target":{
						"node":7,
						"path":"translation"
					}
				},
				{
					"sampler":25,
					"target":{
						"node":7,
						"path":"rotation"
					}
				},
				{
					"sampler":26,
					"target":{
						"node":7,
						"path":"scale"
					}
				},
				{
					"sampler":27,
					"target":{
						"node":6,
						"path":"translation"
					}
				},
				{
					"sampler":28,
					"target":{
						"node":6,
						"path":"rotation"
					}
				},
				{
					"sampler":29,
					"target":{
						"node":6,
						"path":"scale"
					}
				},
				{
					"sampler":30,
					"target":{
						"node":5,
						"path":"translation"
					}
				},
				{
					"sampler":31,
					"target":{
						"node":5,
						"path":"rotation"
					}
				},
				{
					"sampler":32,
					"target":{
						"node":5,
						"path":"scale"
					}
				},
				{
					"sampler":33,
					"target":{
						"node":12,
						"path":"translation"
					}
				},
				{
					"sampler":34,
					"target":{
						"node":12,
						"path":"rotation"
					}
				},
				{
					"sampler":35,
					"target":{
						"node":12,
						"path":"scale"
					}
				},
				{
					"sampler":36,
					"target":{
						"node":11,
						"path":"translation"
					}
				},
				{
					"sampler":37,
					"target":{
						"node":11,
						"path":"rotation"
					}
				},
				{
					"sampler":38,
					"target":{
						"node":11,
						"path":"scale"
					}
				},
				{
					"sampler":39,
					"target":{
						"node":10,
						"path":"translation"
					}
				},
				{
					"sampler":40,
					"target":{
						"node":10,
						"path":"rotation"
					}
				},
				{
					"sampler":41,
					"target":{
						"node":10,
						"path":"scale"
					}
				},
				{
					"sampler":42,
					"target":{
						"node":15,
						"path":"translation"
					}
				},
				{
					"sampler":43,
					"target":{
						"node":15,
						"path":"rotation"
					}
				},
				{
					"sampler":44,
					"target":{
						"node":15,
						"path":"scale"
					}
				},
				{
					"sampler":45,
					"target":{
						"node":14,
						"path":"translation"
					}
				},
				{
					"sampler":46,
					"target":{
						"node":14,
						"path":"rotation"
					}
				},
				{
					"sampler":47,
					"target":{
						"node":14,
						"path":"scale"
					}
				},
				{
					"sampler":48,
					"target":{
						"node":13,
						"path":"translation"
					}
				},
				{
					"sampler":49,
					"target":{
						"node":13,
						"path":"rotation"
					}
				},
				{
					"sampler":50,
					"target":{
						"node":13,
						"path":"scale"
					}
				}
			],
			"name":"idle",
			"samplers":[
				{
					"input":132,
					"interpolation":"LINEAR",
					"output":133
				},
				{
					"input":134,
					"interpolation":"STEP",
					"output":135
				},
				{
					"input":134,
					"interpolation":"STEP",
					"output":136
				},
				{
					"input":134,
					"interpolation":"STEP",
					"output":137
				},
				{
					"input":134,
					"interpolation":"STEP",
					"output":138
				},
				{
					"input":134,
					"interpolation":"STEP",
					"output":139
				},
				{
					"input":134,
					"interpolation":"STEP",
					"output":140
				},
				{
					"input":132,
					"interpolation":"LINEAR",
					"output":141
				},
				{
					"input":134,
					"interpolation":"STEP",
					"output":142
				},
				{
					"input":134,
					"interpolation":"STEP",
					"output":143
				},
				{
					"input":134,
					"interpolation":"STEP",
					"output":144
				},
				{
					"input":134,
					"interpolation":"STEP",
					"output":145
				},
				{
					"input":134,
					"interpolation":"STEP",
					"output":146
				},
				{
					"input":132,
					"interpolation":"LINEAR",
					"output":147
				},
				{
					"input":134,
					"interpolation":"STEP",
					"output":148
				},
				{
					"input":134,
					"interpolation":"STEP",
					"output":149
				},
				{
					"input":132,
					"interpolation":"LINEAR",
					"output":150
				},
				{
					"input":134,
					"interpolation":"STEP",
					"output":151
				},
				{
					"input":134,
					"interpolation":"STEP",
					"output":152
				},
				{
					"input":134,
					"interpolation":"STEP",
					"output":153
				},
				{
					"input":134,
					"interpolation":"STEP",
					"output":154
				},
				{
					"input":134,
					"interpolation":"STEP",
					"output":155
				},
				{
					"input":134,
					"interpolation":"STEP",
					"output":156
				},
				{
					"input":134,
					"interpolation":"STEP",
					"output":157
				},
				{
					"input":134,
					"interpolation":"STEP",
					"output":158
				},
				{
					"input":132,
					"interpolation":"LINEAR",
					"output":159
				},
				{
					"input":134,
					"interpolation":"STEP",
					"output":160
				},
				{
					"input":134,
					"interpolation":"STEP",
					"output":161
				},
				{
					"input":134,
					"interpolation":"STEP",
					"output":162
				},
				{
					"input":134,
					"interpolation":"STEP",
					"output":163
				},
				{
					"input":134,
					"interpolation":"STEP",
					"output":164
				},
				{
					"input":134,
					"interpolation":"STEP",
					"output":165
				},
				{
					"input":134,
					"interpolation":"STEP",
					"output":166
				},
				{
					"input":134,
					"interpolation":"STEP",
					"output":167
				},
				{
					"input":134,
					"interpolation":"STEP",
					"output":168
				},
				{
					"input":134,
					"interpolation":"STEP",
					"output":169
				},
				{
					"input":134,
					"interpolation":"STEP",
					"output":170
				},
				{
					"input":134,
					"interpolation":"STEP",
					"output":171
				},
				{
					"input":134,
					"interpolation":"STEP",
					"output":172
				},
				{
					"input":134,
					"interpolation":"STEP",
					"output":173
				},
				{
					"input":134,
					"interpolation":"STEP",
					"output":174
				},
				{
					"input":134,
					"interpolation":"STEP",
					"output":175
				},
				{
					"input":134,
					"interpolation":"STEP",
					"output":176
				},
				{
					"input":134,
					"interpolation":"STEP",
					"output":177
				},
				{
					"input":134,
					"interpolation":"STEP",
					"output":178
				},
				{
					"input":134,
					"interpolation":"STEP",
					"output":179
				},
				{
					"input":134,
					"interpolation":"STEP",
					"output":180
				},
				{
					"input":134,
					"interpolation":"STEP",
					"output":181
				},
				{
					"input":134,
					"interpolation":"STEP",
					"output":182
				},
				{
					"input":134,
					"interpolation":"STEP",
					"output":183
				},
				{
					"input":134,
					"interpolation":"STEP",
					"output":184
				}
			]
		},
		{
			"channels":[
				{
					"sampler":0,
					"target":{
						"node":16,
						"path":"translation"
					}
				},
				{
					"sampler":1,
					"target":{
						"node":16,
						"path":"rotation"
					}
				},
				{
					"sampler":2,
					"target":{
						"node":16,
						"path":"scale"
					}
				},
				{
					"sampler":3,
					"target":{
						"node":9,
						"path":"translation"
					}
				},
				{
					"sampler":4,
					"target":{
						"node":9,
						"path":"rotation"
					}
				},
				{
					"sampler":5,
					"target":{
						"node":9,
						"path":"scale"
					}
				},
				{
					"sampler":6,
					"target":{
						"node":8,
						"path":"translation"
					}
				},
				{
					"sampler":7,
					"target":{
						"node":8,
						"path":"rotation"
					}
				},
				{
					"sampler":8,
					"target":{
						"node":8,
						"path":"scale"
					}
				},
				{
					"sampler":9,
					"target":{
						"node":1,
						"path":"translation"
					}
				},
				{
					"sampler":10,
					"target":{
						"node":1,
						"path":"rotation"
					}
				},
				{
					"sampler":11,
					"target":{
						"node":1,
						"path":"scale"
					}
				},
				{
					"sampler":12,
					"target":{
						"node":0,
						"path":"translation"
					}
				},
				{
					"sampler":13,
					"target":{
						"node":0,
						"path":"rotation"
					}
				},
				{
					"sampler":14,
					"target":{
						"node":0,
						"path":"scale"
					}
				},
				{
					"sampler":15,
					"target":{
						"node":4,
						"path":"translation"
					}
				},
				{
					"sampler":16,
					"target":{
						"node":4,
						"path":"rotation"
					}
				},
				{
					"sampler":17,
					"target":{
						"node":4,
						"path":"scale"
					}
				},
				{
					"sampler":18,
					"target":{
						"node":3,
						"path":"translation"
					}
				},
				{
					"sampler":19,
					"target":{
						"node":3,
						"path":"rotation"
					}
				},
				{
					"sampler":20,
					"target":{
						"node":3,
						"path":"scale"
					}
				},
				{
					"sampler":21,
					"target":{
						"node":2,
						"path":"translation"
					}
				},
				{
					"sampler":22,
					"target":{
						"node":2,
						"path":"rotation"
					}
				},
				{
					"sampler":23,
					"target":{
						"node":2,
						"path":"scale"
					}
				},
				{
					"sampler":24,
					"target":{
						"node":7,
						"path":"translation"
					}
				},
				{
					"sampler":25,
					"target":{
						"node":7,
						"path":"rotation"
					}
				},
				{
					"sampler":26,
					"target":{
						"node":7,
						"path":"scale"
					}
				},
				{
					"sampler":27,
					"target":{
						"node":6,
						"path":"translation"
					}
				},
				{
					"sampler":28,
					"target":{
						"node":6,
						"path":"rotation"
					}
				},
				{
					"sampler":29,
					"target":{
						"node":6,
						"path":"scale"
					}
				},
				{
					"sampler":30,
					"target":{
						"node":5,
						"path":"translation"
					}
				},
				{
					"sampler":31,
					"target":{
						"node":5,
						"path":"rotation"
					}
				},
				{
					"sampler":32,
					"target":{
						"node":5,
						"path":"scale"
					}
				},
				{
					"sampler":33,
					"target":{
						"node":12,
						"path":"translation"
					}
				},
				{
					"sampler":34,
					"target":{
						"node":12,
						"path":"rotation"
					}
				},
				{
					"sampler":35,
					"target":{
						"node":12,
						"path":"scale"
					}
				},
				{
					"sampler":36,
					"target":{
						"node":11,
						"path":"translation"
					}
				},
				{
					"sampler":37,
					"target":{
						"node":11,
						"path":"rotation"
					}
				},
				{
					"sampler":38,
					"target":{
						"node":11,
						"path":"scale"
					}
				},
				{
					"sampler":39,
					"target":{
						"node":10,
						"path":"translation"
					}
				},
				{
					"sampler":40,
					"target":{
						"node":10,
						"path":"rotation"
					}
				},
				{
					"sampler":41,
					"target":{
						"node":10,
						"path":"scale"
					}
				},
				{
					"sampler":42,
					"target":{
						"node":15,
						"path":"translation"
					}
				},
				{
					"sampler":43,
					"target":{
						"node":15,
						"path":"rotation"
					}
				},
				{
					"sampler":44,
					"target":{
						"node":15,
						"path":"scale"
					}
				},
				{
					"sampler":45,
					"target":{
						"node":14,
						"path":"translation"
					}
				},
				{
					"sampler":46,
					"target":{
						"node":14,
						"path":"rotation"
					}
				},
				{
					"sampler":47,
					"target":{
						"node":14,
						"path":"scale"
					}
				},
				{
					"sampler":48,
					"target":{
						"node":13,
						"path":"translation"
					}
				},
				{
					"sampler":49,
					"target":{
						"node":13,
						"path":"rotation"
					}
				},
				{
					"sampler":50,
					"target":{
						"node":13,
						"path":"scale"
					}
				}
			],
			"name":"walk",
			"samplers":[
				{
					"input":185,
					"interpolation":"LINEAR",
					"output":186
				},
				{
					"input":185,
					"interpolation":"LINEAR",
					"output":187
				},
				{
					"input":188,
					"interpolation":"STEP",
					"output":189
				},
				{
					"input":188,
					"interpolation":"STEP",
					"output":190
				},
				{
					"input":188,
					"interpolation":"STEP",
					"output":191
				},
				{
					"input":188,
					"interpolation":"STEP",
					"output":192
				},
				{
					"input":188,
					"interpolation":"STEP",
					"output":193
				},
				{
					"input":185,
					"interpolation":"LINEAR",
					"output":194
				},
				{
					"input":188,
					"interpolation":"STEP",
					"output":195
				},
				{
					"input":188,
					"interpolation":"STEP",
					"output":196
				},
				{
					"input":188,
					"interpolation":"STEP",
					"output":197
				},
				{
					"input":188,
					"interpolation":"STEP",
					"output":198
				},
				{
					"input":188,
					"interpolation":"STEP",
					"output":199
				},
				{
					"input":188,
					"interpolation":"STEP",
					"output":200
				},
				{
					"input":188,
					"interpolation":"STEP",
					"output":201
				},
				{
					"input":188,
					"interpolation":"STEP",
					"output":202
				},
				{
					"input":185,
					"interpolation":"LINEAR",
					"output":203
				},
				{
					"input":188,
					"interpolation":"STEP",
					"output":204
				},
				{
					"input":188,
					"interpolation":"STEP",
					"output":205
				},
				{
					"input":188,
					"interpolation":"STEP",
					"output":206
				},
				{
					"input":188,
					"interpolation":"STEP",
					"output":207
				},
				{
					"input":188,
					"interpolation":"STEP",
					"output":208
				},
				{
					"input":188,
					"interpolation":"STEP",
					"output":209
				},
				{
					"input":188,
					"interpolation":"STEP",
					"output":210
				},
				{
					"input":188,
					"interpolation":"STEP",
					"output":211
				},
				{
					"input":185,
					"interpolation":"LINEAR",
					"output":212
				},
				{
					"input":188,
					"interpolation":"STEP",
					"output":213
				},
				{
					"input":188,
					"interpolation":"STEP",
					"output":214
				},
				{
					"input":188,
					"interpolation":"STEP",
					"output":215
				},
				{
					"input":188,
					"interpolation":"STEP",
					"output":216
				},
				{
					"input":188,
					"interpolation":"STEP",
					"output":217
				},
				{
					"input":188,
					"interpolation":"STEP",
					"output":218
				},
				{
					"input":188,
					"interpolation":"STEP",
					"output":219
				},
				{
					"input":188,
					"interpolation":"STEP",
					"output":220
				},
				{
					"input":185,
					"interpolation":"LINEAR",
					"output":221
				},
				{
					"input":188,
					"interpolation":"STEP",
					"output":222
				},
				{
					"input":188,
					"interpolation":"STEP",
					"output":223
				},
				{
					"input":185,
					"interpolation":"LINEAR",
					"output":224
				},
				{
					"input":188,
					"interpolation":"STEP",
					"output":225
				},
				{
					"input":188,
					"interpolation":"STEP",
					"output":226
				},
				{
					"input":185,
					"interpolation":"LINEAR",
					"output":227
				},
				{
					"input":188,
					"interpolation":"STEP",
					"output":228
				},
				{
					"input":188,
					"interpolation":"STEP",
					"output":229
				},
				{
					"input":185,
					"interpolation":"LINEAR",
					"output":230
				},
				{
					"input":188,
					"interpolation":"STEP",
					"output":231
				},
				{
					"input":188,
					"interpolation":"STEP",
					"output":232
				},
				{
					"input":185,
					"interpolation":"LINEAR",
					"output":233
				},
				{
					"input":188,
					"interpolation":"STEP",
					"output":234
				},
				{
					"input":188,
					"interpolation":"STEP",
					"output":235
				},
				{
					"input":185,
					"interpolation":"LINEAR",
					"output":236
				},
				{
					"input":188,
					"interpolation":"STEP",
					"output":237
				}
			]
		}
	],
	"materials":[
		{
			"name":"skin",
			"normalTexture":{
				"index":0,
				"scale":0.4000000059604645
			},
			"pbrMetallicRoughness":{
				"baseColorFactor":[
					0.2632734179496765,
					0.21404114365577698,
					0.10048151016235352,
					1
				],
				"metallicFactor":0,
				"roughnessFactor":0.550000011920929
			}
		},
		{
			"extensions":{
				"KHR_materials_sheen":{
					"sheenColorFactor":[
						1.0,
						1.0,
						1.0
					],
					"sheenRoughnessFactor":0.5
				}
			},
			"name":"hair",
			"normalTexture":{
				"index":1,
				"scale":0.800000011920929
			},
			"pbrMetallicRoughness":{
				"baseColorFactor":[
					0.01960664801299572,
					0.0134117491543293,
					0.010022825561463833,
					1
				],
				"metallicFactor":0,
				"roughnessFactor":0.44999998807907104
			}
		},
		{
			"extensions":{
				"KHR_materials_sheen":{
					"sheenColorFactor":[
						1.0,
						1.0,
						1.0
					],
					"sheenRoughnessFactor":0.5
				}
			},
			"name":"outfit",
			"normalTexture":{
				"index":2,
				"scale":0.6000000238418579
			},
			"pbrMetallicRoughness":{
				"baseColorFactor":[
					0.10048151016235352,
					0.06372379511594772,
					0.03310476616024971,
					1
				],
				"metallicFactor":0,
				"roughnessFactor":0.75
			}
		},
		{
			"name":"outfit2",
			"normalTexture":{
				"index":3,
				"scale":0.4000000059604645
			},
			"pbrMetallicRoughness":{
				"baseColorFactor":[
					0.17064493894577026,
					0.13286831974983215,
					0.07323895394802094,
					1
				],
				"metallicFactor":0,
				"roughnessFactor":0.6000000238418579
			}
		},
		{
			"name":"pants",
			"normalTexture":{
				"index":4,
				"scale":0.6000000238418579
			},
			"pbrMetallicRoughness":{
				"baseColorFactor":[
					0.04889732599258423,
					0.03187212720513344,
					0.017389101907610893,
					1
				],
				"metallicFactor":0,
				"roughnessFactor":0.800000011920929
			}
		},
		{
			"extensions":{
				"KHR_materials_clearcoat":{
					"clearcoatFactor":0.30000001192092896
				}
			},
			"name":"boots",
			"normalTexture":{
				"index":5,
				"scale":0.800000011920929
			},
			"pbrMetallicRoughness":{
				"baseColorFactor":[
					0.0134117491543293,
					0.010022825561463833,
					0.010022825561463833,
					1
				],
				"metallicFactor":0,
				"roughnessFactor":0.44999998807907104
			}
		},
		{
			"name":"eye_white",
			"pbrMetallicRoughness":{
				"baseColorFactor":[
					0.8900054097175598,
					0.8900054097175598,
					0.8900054097175598,
					1
				],
				"metallicFactor":0,
				"roughnessFactor":0.20000000298023224
			}
		},
		{
			"emissiveFactor":[
				0.011763989275256348,
				0.011763989275256348,
				0.019862860485428957
			],
			"name":"iris",
			"pbrMetallicRoughness":{
				"baseColorFactor":[
					0.01960664801299572,
					0.01960664801299572,
					0.03310476616024971,
					1
				],
				"metallicFactor":0,
				"roughnessFactor":0.15000000596046448
			}
		},
		{
			"name":"pupil",
			"pbrMetallicRoughness":{
				"baseColorFactor":[
					0.0015479875728487968,
					0.0015479875728487968,
					0.0023219813592731953,
					1
				],
				"metallicFactor":0,
				"roughnessFactor":0.10000000149011612
			}
		},
		{
			"name":"lips",
			"pbrMetallicRoughness":{
				"baseColorFactor":[
					0.12259718775749207,
					0.10048151016235352,
					0.04889732599258423,
					1
				],
				"metallicFactor":0,
				"roughnessFactor":0.4000000059604645
			}
		},
		{
			"name":"tusk",
			"pbrMetallicRoughness":{
				"baseColorFactor":[
					0.8900054097175598,
					0.8275708556175232,
					0.6038273572921753,
					1
				],
				"metallicFactor":0,
				"roughnessFactor":0.3499999940395355
			}
		},
		{
			"name":"buckle",
			"pbrMetallicRoughness":{
				"baseColorFactor":[
					0.6920710802078247,
					0.4479884207248688,
					0.07323895394802094,
					1
				],
				"metallicFactor":0.8999999761581421,
				"roughnessFactor":0.30000001192092896
			}
		},
		{
			"name":"wood",
			"normalTexture":{
				"index":6,
				"scale":0.6000000238418579
			},
			"pbrMetallicRoughness":{
				"baseColorFactor":[
					0.13286831974983215,
					0.06372379511594772,
					0.01960664801299572,
					1
				],
				"metallicFactor":0,
				"roughnessFactor":0.800000011920929
			}
		}
	],
	"meshes":[
		{
			"name":"orc",
			"primitives":[
				{
					"attributes":{
						"POSITION":0,
						"NORMAL":1,
						"TEXCOORD_0":2,
						"JOINTS_0":3,
						"WEIGHTS_0":4
					},
					"indices":5,
					"material":0
				},
				{
					"attributes":{
						"POSITION":6,
						"NORMAL":7,
						"TEXCOORD_0":8,
						"JOINTS_0":9,
						"WEIGHTS_0":10
					},
					"indices":11,
					"material":1
				},
				{
					"attributes":{
						"POSITION":12,
						"NORMAL":13,
						"TEXCOORD_0":14,
						"JOINTS_0":15,
						"WEIGHTS_0":16
					},
					"indices":17,
					"material":2
				},
				{
					"attributes":{
						"POSITION":18,
						"NORMAL":19,
						"TEXCOORD_0":20,
						"JOINTS_0":21,
						"WEIGHTS_0":22
					},
					"indices":23,
					"material":3
				},
				{
					"attributes":{
						"POSITION":24,
						"NORMAL":25,
						"TEXCOORD_0":26,
						"JOINTS_0":27,
						"WEIGHTS_0":28
					},
					"indices":29,
					"material":4
				},
				{
					"attributes":{
						"POSITION":30,
						"NORMAL":31,
						"TEXCOORD_0":32,
						"JOINTS_0":33,
						"WEIGHTS_0":34
					},
					"indices":35,
					"material":5
				},
				{
					"attributes":{
						"POSITION":36,
						"NORMAL":37,
						"TEXCOORD_0":38,
						"JOINTS_0":39,
						"WEIGHTS_0":40
					},
					"indices":41,
					"material":6
				},
				{
					"attributes":{
						"POSITION":42,
						"NORMAL":43,
						"TEXCOORD_0":44,
						"JOINTS_0":45,
						"WEIGHTS_0":46
					},
					"indices":47,
					"material":7
				},
				{
					"attributes":{
						"POSITION":48,
						"NORMAL":49,
						"TEXCOORD_0":50,
						"JOINTS_0":51,
						"WEIGHTS_0":52
					},
					"indices":53,
					"material":8
				},
				{
					"attributes":{
						"POSITION":54,
						"NORMAL":55,
						"TEXCOORD_0":56,
						"JOINTS_0":57,
						"WEIGHTS_0":58
					},
					"indices":59,
					"material":9
				},
				{
					"attributes":{
						"POSITION":60,
						"NORMAL":61,
						"TEXCOORD_0":62,
						"JOINTS_0":63,
						"WEIGHTS_0":64
					},
					"indices":65,
					"material":10
				},
				{
					"attributes":{
						"POSITION":66,
						"NORMAL":67,
						"TEXCOORD_0":68,
						"JOINTS_0":69,
						"WEIGHTS_0":70
					},
					"indices":71,
					"material":11
				},
				{
					"attributes":{
						"POSITION":72,
						"NORMAL":73,
						"TEXCOORD_0":74,
						"JOINTS_0":75,
						"WEIGHTS_0":76
					},
					"indices":77,
					"material":12
				}
			]
		}
	],
	"textures":[
		{
			"sampler":0,
			"source":0
		},
		{
			"sampler":0,
			"source":1
		},
		{
			"sampler":0,
			"source":2
		},
		{
			"sampler":0,
			"source":2
		},
		{
			"sampler":0,
			"source":2
		},
		{
			"sampler":0,
			"source":3
		},
		{
			"sampler":0,
			"source":3
		}
	],
	"images":[
		{
			"mimeType":"image/png",
			"name":"N_skin",
			"uri":"texturas/N_skin.png"
		},
		{
			"mimeType":"image/png",
			"name":"N_hair",
			"uri":"texturas/N_hair.png"
		},
		{
			"mimeType":"image/png",
			"name":"N_cloth",
			"uri":"texturas/N_cloth.png"
		},
		{
			"mimeType":"image/png",
			"name":"N_leather",
			"uri":"texturas/N_leather.png"
		}
	],
	"skins":[
		{
			"inverseBindMatrices":78,
			"joints":[
				16,
				9,
				8,
				1,
				0,
				4,
				3,
				2,
				7,
				6,
				5,
				12,
				11,
				10,
				15,
				14,
				13
			],
			"name":"orc_rig"
		}
	],
	"accessors":[
		{
			"bufferView":0,
			"componentType":5126,
			"count":2259,
			"max":[
				0.5054550766944885,
				2.0515999794006348,
				0.12329444289207458
			],
			"min":[
				-0.5054550766944885,
				0.9021381139755249,
				-0.1834341436624527
			],
			"type":"VEC3"
		},
		{
			"bufferView":1,
			"componentType":5126,
			"count":2259,
			"type":"VEC3"
		},
		{
			"bufferView":2,
			"componentType":5126,
			"count":2259,
			"type":"VEC2"
		},
		{
			"bufferView":3,
			"componentType":5121,
			"count":2259,
			"type":"VEC4"
		},
		{
			"bufferView":4,
			"componentType":5126,
			"count":2259,
			"type":"VEC4"
		},
		{
			"bufferView":5,
			"componentType":5123,
			"count":9396,
			"type":"SCALAR"
		},
		{
			"bufferView":6,
			"componentType":5126,
			"count":48,
			"max":[
				0.056349996477365494,
				1.9550000429153442,
				-0.0965999960899353
			],
			"min":[
				-0.056349996477365494,
				1.948099970817566,
				-0.10350000113248825
			],
			"type":"VEC3"
		},
		{
			"bufferView":7,
			"componentType":5126,
			"count":48,
			"type":"VEC3"
		},
		{
			"bufferView":8,
			"componentType":5126,
			"count":48,
			"type":"VEC2"
		},
		{
			"bufferView":9,
			"componentType":5121,
			"count":48,
			"type":"VEC4"
		},
		{
			"bufferView":10,
			"componentType":5126,
			"count":48,
			"type":"VEC4"
		},
		{
			"bufferView":11,
			"componentType":5123,
			"count":72,
			"type":"SCALAR"
		},
		{
			"bufferView":12,
			"componentType":5126,
			"count":372,
			"max":[
				0.4553830027580261,
				1.6880115270614624,
				0.21176575124263763
			],
			"min":[
				-0.4553830027580261,
				1.0918692350387573,
				-0.21368250250816345
			],
			"type":"VEC3"
		},
		{
			"bufferView":13,
			"componentType":5126,
			"count":372,
			"type":"VEC3"
		},
		{
			"bufferView":14,
			"componentType":5126,
			"count":372,
			"type":"VEC2"
		},
		{
			"bufferView":15,
			"componentType":5121,
			"count":372,
			"type":"VEC4"
		},
		{
			"bufferView":16,
			"componentType":5126,
			"count":372,
			"type":"VEC4"
		},
		{
			"bufferView":17,
			"componentType":5123,
			"count":1380,
			"type":"SCALAR"
		},
		{
			"bufferView":18,
			"componentType":5126,
			"count":60,
			"max":[
				0.22024652361869812,
				1.1631011962890625,
				0.21770107746124268
			],
			"min":[
				-0.22024652361869812,
				1.0102627277374268,
				-0.21924439072608948
			],
			"type":"VEC3"
		},
		{
			"bufferView":19,
			"componentType":5126,
			"count":60,
			"type":"VEC3"
		},
		{
			"bufferView":20,
			"componentType":5126,
			"count":60,
			"type":"VEC2"
		},
		{
			"bufferView":21,
			"componentType":5121,
			"count":60,
			"type":"VEC4"
		},
		{
			"bufferView":22,
			"componentType":5126,
			"count":60,
			"type":"VEC4"
		},
		{
			"bufferView":23,
			"componentType":5123,
			"count":168,
			"type":"SCALAR"
		},
		{
			"bufferView":24,
			"componentType":5126,
			"count":673,
			"max":[
				0.49912118911743164,
				1.0918693542480469,
				0.2158784717321396
			],
			"min":[
				-0.49912115931510925,
				0.3354946970939636,
				-0.2176448255777359
			],
			"type":"VEC3"
		},
		{
			"bufferView":25,
			"componentType":5126,
			"count":673,
			"type":"VEC3"
		},
		{
			"bufferView":26,
			"componentType":5126,
			"count":673,
			"type":"VEC2"
		},
		{
			"bufferView":27,
			"componentType":5121,
			"count":673,
			"type":"VEC4"
		},
		{
			"bufferView":28,
			"componentType":5126,
			"count":673,
			"type":"VEC4"
		},
		{
			"bufferView":29,
			"componentType":5123,
			"count":2808,
			"type":"SCALAR"
		},
		{
			"bufferView":30,
			"componentType":5126,
			"count":874,
			"max":[
				0.25265201926231384,
				0.3437192440032959,
				0.10425186157226562
			],
			"min":[
				-0.25265204906463623,
				0.008743551559746265,
				-0.16113732755184174
			],
			"type":"VEC3"
		},
		{
			"bufferView":31,
			"componentType":5126,
			"count":874,
			"type":"VEC3"
		},
		{
			"bufferView":32,
			"componentType":5126,
			"count":874,
			"type":"VEC2"
		},
		{
			"bufferView":33,
			"componentType":5121,
			"count":874,
			"type":"VEC4"
		},
		{
			"bufferView":34,
			"componentType":5126,
			"count":874,
			"type":"VEC4"
		},
		{
			"bufferView":35,
			"componentType":5123,
			"count":3840,
			"type":"SCALAR"
		},
		{
			"bufferView":36,
			"componentType":5126,
			"count":304,
			"max":[
				0.058649998158216476,
				1.9394749402999878,
				-0.08049999922513962
			],
			"min":[
				-0.058649998158216476,
				1.91302490234375,
				-0.10119999945163727
			],
			"type":"VEC3"
		},
		{
			"bufferView":37,
			"componentType":5126,
			"count":304,
			"type":"VEC3"
		},
		{
			"bufferView":38,
			"componentType":5126,
			"count":304,
			"type":"VEC2"
		},
		{
			"bufferView":39,
			"componentType":5121,
			"count":304,
			"type":"VEC4"
		},
		{
			"bufferView":40,
			"componentType":5126,
			"count":304,
			"type":"VEC4"
		},
		{
			"bufferView":41,
			"componentType":5123,
			"count":1152,
			"type":"SCALAR"
		},
		{
			"bufferView":42,
			"componentType":5126,
			"count":220,
			"max":[
				0.05002499744296074,
				1.9375200271606445,
				-0.09340327978134155
			],
			"min":[
				-0.05002499744296074,
				1.9149799346923828,
				-0.10324671864509583
			],
			"type":"VEC3"
		},
		{
			"bufferView":43,
			"componentType":5126,
			"count":220,
			"type":"VEC3"
		},
		{
			"bufferView":44,
			"componentType":5126,
			"count":220,
			"type":"VEC2"
		},
		{
			"bufferView":45,
			"componentType":5121,
			"count":220,
			"type":"VEC4"
		},
		{
			"bufferView":46,
			"componentType":5126,
			"count":220,
			"type":"VEC4"
		},
		{
			"bufferView":47,
			"componentType":5123,
			"count":720,
			"type":"SCALAR"
		},
		{
			"bufferView":48,
			"componentType":5126,
			"count":260,
			"max":[
				0.043693602085113525,
				1.9314249753952026,
				-0.09993256628513336
			],
			"min":[
				-0.043693602085113525,
				1.8698999881744385,
				-0.13983778655529022
			],
			"type":"VEC3"
		},
		{
			"bufferView":49,
			"componentType":5126,
			"count":260,
			"type":"VEC3"
		},
		{
			"bufferView":50,
			"componentType":5126,
			"count":260,
			"type":"VEC2"
		},
		{
			"bufferView":51,
			"componentType":5121,
			"count":260,
			"type":"VEC4"
		},
		{
			"bufferView":52,
			"componentType":5126,
			"count":260,
			"type":"VEC4"
		},
		{
			"bufferView":53,
			"componentType":5123,
			"count":768,
			"type":"SCALAR"
		},
		{
			"bufferView":54,
			"componentType":5126,
			"count":98,
			"max":[
				0.021849999204277992,
				1.8486249446868896,
				-0.08937828242778778
			],
			"min":[
				-0.021849999204277992,
				1.8382749557495117,
				-0.09922172129154205
			],
			"type":"VEC3"
		},
		{
			"bufferView":55,
			"componentType":5126,
			"count":98,
			"type":"VEC3"
		},
		{
			"bufferView":56,
			"componentType":5126,
			"count":98,
			"type":"VEC2"
		},
		{
			"bufferView":57,
			"componentType":5121,
			"count":98,
			"type":"VEC4"
		},
		{
			"bufferView":58,
			"componentType":5126,
			"count":98,
			"type":"VEC4"
		},
		{
			"bufferView":59,
			"componentType":5123,
			"count":360,
			"type":"SCALAR"
		},
		{
			"bufferView":60,
			"componentType":5126,
			"count":88,
			"max":[
				0.04705135151743889,
				1.8919754028320312,
				-0.07330610603094101
			],
			"min":[
				-0.04705135151743889,
				1.8251945972442627,
				-0.10319206118583679
			],
			"type":"VEC3"
		},
		{
			"bufferView":61,
			"componentType":5126,
			"count":88,
			"type":"VEC3"
		},
		{
			"bufferView":62,
			"componentType":5126,
			"count":88,
			"type":"VEC2"
		},
		{
			"bufferView":63,
			"componentType":5121,
			"count":88,
			"type":"VEC4"
		},
		{
			"bufferView":64,
			"componentType":5126,
			"count":88,
			"type":"VEC4"
		},
		{
			"bufferView":65,
			"componentType":5123,
			"count":216,
			"type":"SCALAR"
		},
		{
			"bufferView":66,
			"componentType":5126,
			"count":24,
			"max":[
				0.028750000521540642,
				1.1154999732971191,
				-0.1517999917268753
			],
			"min":[
				-0.028750000521540642,
				1.0694999694824219,
				-0.16559998691082
			],
			"type":"VEC3"
		},
		{
			"bufferView":67,
			"componentType":5126,
			"count":24,
			"type":"VEC3"
		},
		{
			"bufferView":68,
			"componentType":5126,
			"count":24,
			"type":"VEC2"
		},
		{
			"bufferView":69,
			"componentType":5121,
			"count":24,
			"type":"VEC4"
		},
		{
			"bufferView":70,
			"componentType":5126,
			"count":24,
			"type":"VEC4"
		},
		{
			"bufferView":71,
			"componentType":5123,
			"count":36,
			"type":"SCALAR"
		},
		{
			"bufferView":72,
			"componentType":5126,
			"count":64,
			"max":[
				0.5555880069732666,
				0.9826880097389221,
				0.06636732816696167
			],
			"min":[
				0.39458799362182617,
				0.4962436556816101,
				-0.8466997742652893
			],
			"type":"VEC3"
		},
		{
			"bufferView":73,
			"componentType":5126,
			"count":64,
			"type":"VEC3"
		},
		{
			"bufferView":74,
			"componentType":5126,
			"count":64,
			"type":"VEC2"
		},
		{
			"bufferView":75,
			"componentType":5121,
			"count":64,
			"type":"VEC4"
		},
		{
			"bufferView":76,
			"componentType":5126,
			"count":64,
			"type":"VEC4"
		},
		{
			"bufferView":77,
			"componentType":5123,
			"count":180,
			"type":"SCALAR"
		},
		{
			"bufferView":78,
			"componentType":5126,
			"count":17,
			"type":"MAT4"
		},
		{
			"bufferView":79,
			"componentType":5126,
			"count":2,
			"max":[
				0.6
			],
			"min":[
				0
			],
			"type":"SCALAR"
		},
		{
			"bufferView":80,
			"componentType":5126,
			"count":2,
			"type":"VEC3"
		},
		{
			"bufferView":81,
			"componentType":5126,
			"count":2,
			"type":"VEC4"
		},
		{
			"bufferView":82,
			"componentType":5126,
			"count":2,
			"type":"VEC3"
		},
		{
			"bufferView":83,
			"componentType":5126,
			"count":2,
			"type":"VEC3"
		},
		{
			"bufferView":84,
			"componentType":5126,
			"count":2,
			"type":"VEC4"
		},
		{
			"bufferView":85,
			"componentType":5126,
			"count":2,
			"type":"VEC3"
		},
		{
			"bufferView":86,
			"componentType":5126,
			"count":2,
			"type":"VEC3"
		},
		{
			"bufferView":87,
			"componentType":5126,
			"count":19,
			"max":[
				0.6
			],
			"min":[
				0
			],
			"type":"SCALAR"
		},
		{
			"bufferView":88,
			"componentType":5126,
			"count":19,
			"type":"VEC4"
		},
		{
			"bufferView":89,
			"componentType":5126,
			"count":2,
			"type":"VEC3"
		},
		{
			"bufferView":90,
			"componentType":5126,
			"count":2,
			"type":"VEC3"
		},
		{
			"bufferView":91,
			"componentType":5126,
			"count":2,
			"type":"VEC4"
		},
		{
			"bufferView":92,
			"componentType":5126,
			"count":2,
			"type":"VEC3"
		},
		{
			"bufferView":93,
			"componentType":5126,
			"count":2,
			"type":"VEC3"
		},
		{
			"bufferView":94,
			"componentType":5126,
			"count":2,
			"type":"VEC4"
		},
		{
			"bufferView":95,
			"componentType":5126,
			"count":2,
			"type":"VEC3"
		},
		{
			"bufferView":96,
			"componentType":5126,
			"count":2,
			"type":"VEC3"
		},
		{
			"bufferView":97,
			"componentType":5126,
			"count":19,
			"type":"VEC4"
		},
		{
			"bufferView":98,
			"componentType":5126,
			"count":2,
			"type":"VEC3"
		},
		{
			"bufferView":99,
			"componentType":5126,
			"count":2,
			"type":"VEC3"
		},
		{
			"bufferView":100,
			"componentType":5126,
			"count":19,
			"type":"VEC4"
		},
		{
			"bufferView":101,
			"componentType":5126,
			"count":2,
			"type":"VEC3"
		},
		{
			"bufferView":102,
			"componentType":5126,
			"count":2,
			"type":"VEC3"
		},
		{
			"bufferView":103,
			"componentType":5126,
			"count":2,
			"type":"VEC4"
		},
		{
			"bufferView":104,
			"componentType":5126,
			"count":2,
			"type":"VEC3"
		},
		{
			"bufferView":105,
			"componentType":5126,
			"count":2,
			"type":"VEC3"
		},
		{
			"bufferView":106,
			"componentType":5126,
			"count":19,
			"type":"VEC4"
		},
		{
			"bufferView":107,
			"componentType":5126,
			"count":2,
			"type":"VEC3"
		},
		{
			"bufferView":108,
			"componentType":5126,
			"count":2,
			"type":"VEC3"
		},
		{
			"bufferView":109,
			"componentType":5126,
			"count":2,
			"type":"VEC4"
		},
		{
			"bufferView":110,
			"componentType":5126,
			"count":2,
			"type":"VEC3"
		},
		{
			"bufferView":111,
			"componentType":5126,
			"count":2,
			"type":"VEC3"
		},
		{
			"bufferView":112,
			"componentType":5126,
			"count":2,
			"type":"VEC4"
		},
		{
			"bufferView":113,
			"componentType":5126,
			"count":2,
			"type":"VEC3"
		},
		{
			"bufferView":114,
			"componentType":5126,
			"count":2,
			"type":"VEC3"
		},
		{
			"bufferView":115,
			"componentType":5126,
			"count":19,
			"type":"VEC4"
		},
		{
			"bufferView":116,
			"componentType":5126,
			"count":2,
			"type":"VEC3"
		},
		{
			"bufferView":117,
			"componentType":5126,
			"count":2,
			"type":"VEC3"
		},
		{
			"bufferView":118,
			"componentType":5126,
			"count":2,
			"type":"VEC4"
		},
		{
			"bufferView":119,
			"componentType":5126,
			"count":2,
			"type":"VEC3"
		},
		{
			"bufferView":120,
			"componentType":5126,
			"count":2,
			"type":"VEC3"
		},
		{
			"bufferView":121,
			"componentType":5126,
			"count":2,
			"type":"VEC4"
		},
		{
			"bufferView":122,
			"componentType":5126,
			"count":2,
			"type":"VEC3"
		},
		{
			"bufferView":123,
			"componentType":5126,
			"count":2,
			"type":"VEC3"
		},
		{
			"bufferView":124,
			"componentType":5126,
			"count":19,
			"type":"VEC4"
		},
		{
			"bufferView":125,
			"componentType":5126,
			"count":2,
			"type":"VEC3"
		},
		{
			"bufferView":126,
			"componentType":5126,
			"count":2,
			"type":"VEC3"
		},
		{
			"bufferView":127,
			"componentType":5126,
			"count":2,
			"type":"VEC4"
		},
		{
			"bufferView":128,
			"componentType":5126,
			"count":2,
			"type":"VEC3"
		},
		{
			"bufferView":129,
			"componentType":5126,
			"count":2,
			"type":"VEC3"
		},
		{
			"bufferView":130,
			"componentType":5126,
			"count":2,
			"type":"VEC4"
		},
		{
			"bufferView":131,
			"componentType":5126,
			"count":2,
			"type":"VEC3"
		},
		{
			"bufferView":132,
			"componentType":5126,
			"count":61,
			"max":[
				2
			],
			"min":[
				0
			],
			"type":"SCALAR"
		},
		{
			"bufferView":133,
			"componentType":5126,
			"count":61,
			"type":"VEC3"
		},
		{
			"bufferView":134,
			"componentType":5126,
			"count":2,
			"max":[
				2
			],
			"min":[
				0
			],
			"type":"SCALAR"
		},
		{
			"bufferView":135,
			"componentType":5126,
			"count":2,
			"type":"VEC4"
		},
		{
			"bufferView":136,
			"componentType":5126,
			"count":2,
			"type":"VEC3"
		},
		{
			"bufferView":137,
			"componentType":5126,
			"count":2,
			"type":"VEC3"
		},
		{
			"bufferView":138,
			"componentType":5126,
			"count":2,
			"type":"VEC4"
		},
		{
			"bufferView":139,
			"componentType":5126,
			"count":2,
			"type":"VEC3"
		},
		{
			"bufferView":140,
			"componentType":5126,
			"count":2,
			"type":"VEC3"
		},
		{
			"bufferView":141,
			"componentType":5126,
			"count":61,
			"type":"VEC4"
		},
		{
			"bufferView":142,
			"componentType":5126,
			"count":2,
			"type":"VEC3"
		},
		{
			"bufferView":143,
			"componentType":5126,
			"count":2,
			"type":"VEC3"
		},
		{
			"bufferView":144,
			"componentType":5126,
			"count":2,
			"type":"VEC4"
		},
		{
			"bufferView":145,
			"componentType":5126,
			"count":2,
			"type":"VEC3"
		},
		{
			"bufferView":146,
			"componentType":5126,
			"count":2,
			"type":"VEC3"
		},
		{
			"bufferView":147,
			"componentType":5126,
			"count":61,
			"type":"VEC4"
		},
		{
			"bufferView":148,
			"componentType":5126,
			"count":2,
			"type":"VEC3"
		},
		{
			"bufferView":149,
			"componentType":5126,
			"count":2,
			"type":"VEC3"
		},
		{
			"bufferView":150,
			"componentType":5126,
			"count":61,
			"type":"VEC4"
		},
		{
			"bufferView":151,
			"componentType":5126,
			"count":2,
			"type":"VEC3"
		},
		{
			"bufferView":152,
			"componentType":5126,
			"count":2,
			"type":"VEC3"
		},
		{
			"bufferView":153,
			"componentType":5126,
			"count":2,
			"type":"VEC4"
		},
		{
			"bufferView":154,
			"componentType":5126,
			"count":2,
			"type":"VEC3"
		},
		{
			"bufferView":155,
			"componentType":5126,
			"count":2,
			"type":"VEC3"
		},
		{
			"bufferView":156,
			"componentType":5126,
			"count":2,
			"type":"VEC4"
		},
		{
			"bufferView":157,
			"componentType":5126,
			"count":2,
			"type":"VEC3"
		},
		{
			"bufferView":158,
			"componentType":5126,
			"count":2,
			"type":"VEC3"
		},
		{
			"bufferView":159,
			"componentType":5126,
			"count":61,
			"type":"VEC4"
		},
		{
			"bufferView":160,
			"componentType":5126,
			"count":2,
			"type":"VEC3"
		},
		{
			"bufferView":161,
			"componentType":5126,
			"count":2,
			"type":"VEC3"
		},
		{
			"bufferView":162,
			"componentType":5126,
			"count":2,
			"type":"VEC4"
		},
		{
			"bufferView":163,
			"componentType":5126,
			"count":2,
			"type":"VEC3"
		},
		{
			"bufferView":164,
			"componentType":5126,
			"count":2,
			"type":"VEC3"
		},
		{
			"bufferView":165,
			"componentType":5126,
			"count":2,
			"type":"VEC4"
		},
		{
			"bufferView":166,
			"componentType":5126,
			"count":2,
			"type":"VEC3"
		},
		{
			"bufferView":167,
			"componentType":5126,
			"count":2,
			"type":"VEC3"
		},
		{
			"bufferView":168,
			"componentType":5126,
			"count":2,
			"type":"VEC4"
		},
		{
			"bufferView":169,
			"componentType":5126,
			"count":2,
			"type":"VEC3"
		},
		{
			"bufferView":170,
			"componentType":5126,
			"count":2,
			"type":"VEC3"
		},
		{
			"bufferView":171,
			"componentType":5126,
			"count":2,
			"type":"VEC4"
		},
		{
			"bufferView":172,
			"componentType":5126,
			"count":2,
			"type":"VEC3"
		},
		{
			"bufferView":173,
			"componentType":5126,
			"count":2,
			"type":"VEC3"
		},
		{
			"bufferView":174,
			"componentType":5126,
			"count":2,
			"type":"VEC4"
		},
		{
			"bufferView":175,
			"componentType":5126,
			"count":2,
			"type":"VEC3"
		},
		{
			"bufferView":176,
			"componentType":5126,
			"count":2,
			"type":"VEC3"
		},
		{
			"bufferView":177,
			"componentType":5126,
			"count":2,
			"type":"VEC4"
		},
		{
			"bufferView":178,
			"componentType":5126,
			"count":2,
			"type":"VEC3"
		},
		{
			"bufferView":179,
			"componentType":5126,
			"count":2,
			"type":"VEC3"
		},
		{
			"bufferView":180,
			"componentType":5126,
			"count":2,
			"type":"VEC4"
		},
		{
			"bufferView":181,
			"componentType":5126,
			"count":2,
			"type":"VEC3"
		},
		{
			"bufferView":182,
			"componentType":5126,
			"count":2,
			"type":"VEC3"
		},
		{
			"bufferView":183,
			"componentType":5126,
			"count":2,
			"type":"VEC4"
		},
		{
			"bufferView":184,
			"componentType":5126,
			"count":2,
			"type":"VEC3"
		},
		{
			"bufferView":185,
			"componentType":5126,
			"count":31,
			"max":[
				1
			],
			"min":[
				0
			],
			"type":"SCALAR"
		},
		{
			"bufferView":186,
			"componentType":5126,
			"count":31,
			"type":"VEC3"
		},
		{
			"bufferView":187,
			"componentType":5126,
			"count":31,
			"type":"VEC4"
		},
		{
			"bufferView":188,
			"componentType":5126,
			"count":2,
			"max":[
				1
			],
			"min":[
				0
			],
			"type":"SCALAR"
		},
		{
			"bufferView":189,
			"componentType":5126,
			"count":2,
			"type":"VEC3"
		},
		{
			"bufferView":190,
			"componentType":5126,
			"count":2,
			"type":"VEC3"
		},
		{
			"bufferView":191,
			"componentType":5126,
			"count":2,
			"type":"VEC4"
		},
		{
			"bufferView":192,
			"componentType":5126,
			"count":2,
			"type":"VEC3"
		},
		{
			"bufferView":193,
			"componentType":5126,
			"count":2,
			"type":"VEC3"
		},
		{
			"bufferView":194,
			"componentType":5126,
			"count":31,
			"type":"VEC4"
		},
		{
			"bufferView":195,
			"componentType":5126,
			"count":2,
			"type":"VEC3"
		},
		{
			"bufferView":196,
			"componentType":5126,
			"count":2,
			"type":"VEC3"
		},
		{
			"bufferView":197,
			"componentType":5126,
			"count":2,
			"type":"VEC4"
		},
		{
			"bufferView":198,
			"componentType":5126,
			"count":2,
			"type":"VEC3"
		},
		{
			"bufferView":199,
			"componentType":5126,
			"count":2,
			"type":"VEC3"
		},
		{
			"bufferView":200,
			"componentType":5126,
			"count":2,
			"type":"VEC4"
		},
		{
			"bufferView":201,
			"componentType":5126,
			"count":2,
			"type":"VEC3"
		},
		{
			"bufferView":202,
			"componentType":5126,
			"count":2,
			"type":"VEC3"
		},
		{
			"bufferView":203,
			"componentType":5126,
			"count":31,
			"type":"VEC4"
		},
		{
			"bufferView":204,
			"componentType":5126,
			"count":2,
			"type":"VEC3"
		},
		{
			"bufferView":205,
			"componentType":5126,
			"count":2,
			"type":"VEC3"
		},
		{
			"bufferView":206,
			"componentType":5126,
			"count":2,
			"type":"VEC4"
		},
		{
			"bufferView":207,
			"componentType":5126,
			"count":2,
			"type":"VEC3"
		},
		{
			"bufferView":208,
			"componentType":5126,
			"count":2,
			"type":"VEC3"
		},
		{
			"bufferView":209,
			"componentType":5126,
			"count":2,
			"type":"VEC4"
		},
		{
			"bufferView":210,
			"componentType":5126,
			"count":2,
			"type":"VEC3"
		},
		{
			"bufferView":211,
			"componentType":5126,
			"count":2,
			"type":"VEC3"
		},
		{
			"bufferView":212,
			"componentType":5126,
			"count":31,
			"type":"VEC4"
		},
		{
			"bufferView":213,
			"componentType":5126,
			"count":2,
			"type":"VEC3"
		},
		{
			"bufferView":214,
			"componentType":5126,
			"count":2,
			"type":"VEC3"
		},
		{
			"bufferView":215,
			"componentType":5126,
			"count":2,
			"type":"VEC4"
		},
		{
			"bufferView":216,
			"componentType":5126,
			"count":2,
			"type":"VEC3"
		},
		{
			"bufferView":217,
			"componentType":5126,
			"count":2,
			"type":"VEC3"
		},
		{
			"bufferView":218,
			"componentType":5126,
			"count":2,
			"type":"VEC4"
		},
		{
			"bufferView":219,
			"componentType":5126,
			"count":2,
			"type":"VEC3"
		},
		{
			"bufferView":220,
			"componentType":5126,
			"count":2,
			"type":"VEC3"
		},
		{
			"bufferView":221,
			"componentType":5126,
			"count":31,
			"type":"VEC4"
		},
		{
			"bufferView":222,
			"componentType":5126,
			"count":2,
			"type":"VEC3"
		},
		{
			"bufferView":223,
			"componentType":5126,
			"count":2,
			"type":"VEC3"
		},
		{
			"bufferView":224,
			"componentType":5126,
			"count":31,
			"type":"VEC4"
		},
		{
			"bufferView":225,
			"componentType":5126,
			"count":2,
			"type":"VEC3"
		},
		{
			"bufferView":226,
			"componentType":5126,
			"count":2,
			"type":"VEC3"
		},
		{
			"bufferView":227,
			"componentType":5126,
			"count":31,
			"type":"VEC4"
		},
		{
			"bufferView":228,
			"componentType":5126,
			"count":2,
			"type":"VEC3"
		},
		{
			"bufferView":229,
			"componentType":5126,
			"count":2,
			"type":"VEC3"
		},
		{
			"bufferView":230,
			"componentType":5126,
			"count":31,
			"type":"VEC4"
		},
		{
			"bufferView":231,
			"componentType":5126,
			"count":2,
			"type":"VEC3"
		},
		{
			"bufferView":232,
			"componentType":5126,
			"count":2,
			"type":"VEC3"
		},
		{
			"bufferView":233,
			"componentType":5126,
			"count":31,
			"type":"VEC4"
		},
		{
			"bufferView":234,
			"componentType":5126,
			"count":2,
			"type":"VEC3"
		},
		{
			"bufferView":235,
			"componentType":5126,
			"count":2,
			"type":"VEC3"
		},
		{
			"bufferView":236,
			"componentType":5126,
			"count":31,
			"type":"VEC4"
		},
		{
			"bufferView":237,
			"componentType":5126,
			"count":2,
			"type":"VEC3"
		}
	],
	"bufferViews":[
		{
			"buffer":0,
			"byteLength":27108,
			"byteOffset":0,
			"target":34962
		},
		{
			"buffer":0,
			"byteLength":27108,
			"byteOffset":27108,
			"target":34962
		},
		{
			"buffer":0,
			"byteLength":18072,
			"byteOffset":54216,
			"target":34962
		},
		{
			"buffer":0,
			"byteLength":9036,
			"byteOffset":72288,
			"target":34962
		},
		{
			"buffer":0,
			"byteLength":36144,
			"byteOffset":81324,
			"target":34962
		},
		{
			"buffer":0,
			"byteLength":18792,
			"byteOffset":117468,
			"target":34963
		},
		{
			"buffer":0,
			"byteLength":576,
			"byteOffset":136260,
			"target":34962
		},
		{
			"buffer":0,
			"byteLength":576,
			"byteOffset":136836,
			"target":34962
		},
		{
			"buffer":0,
			"byteLength":384,
			"byteOffset":137412,
			"target":34962
		},
		{
			"buffer":0,
			"byteLength":192,
			"byteOffset":137796,
			"target":34962
		},
		{
			"buffer":0,
			"byteLength":768,
			"byteOffset":137988,
			"target":34962
		},
		{
			"buffer":0,
			"byteLength":144,
			"byteOffset":138756,
			"target":34963
		},
		{
			"buffer":0,
			"byteLength":4464,
			"byteOffset":138900,
			"target":34962
		},
		{
			"buffer":0,
			"byteLength":4464,
			"byteOffset":143364,
			"target":34962
		},
		{
			"buffer":0,
			"byteLength":2976,
			"byteOffset":147828,
			"target":34962
		},
		{
			"buffer":0,
			"byteLength":1488,
			"byteOffset":150804,
			"target":34962
		},
		{
			"buffer":0,
			"byteLength":5952,
			"byteOffset":152292,
			"target":34962
		},
		{
			"buffer":0,
			"byteLength":2760,
			"byteOffset":158244,
			"target":34963
		},
		{
			"buffer":0,
			"byteLength":720,
			"byteOffset":161004,
			"target":34962
		},
		{
			"buffer":0,
			"byteLength":720,
			"byteOffset":161724,
			"target":34962
		},
		{
			"buffer":0,
			"byteLength":480,
			"byteOffset":162444,
			"target":34962
		},
		{
			"buffer":0,
			"byteLength":240,
			"byteOffset":162924,
			"target":34962
		},
		{
			"buffer":0,
			"byteLength":960,
			"byteOffset":163164,
			"target":34962
		},
		{
			"buffer":0,
			"byteLength":336,
			"byteOffset":164124,
			"target":34963
		},
		{
			"buffer":0,
			"byteLength":8076,
			"byteOffset":164460,
			"target":34962
		},
		{
			"buffer":0,
			"byteLength":8076,
			"byteOffset":172536,
			"target":34962
		},
		{
			"buffer":0,
			"byteLength":5384,
			"byteOffset":180612,
			"target":34962
		},
		{
			"buffer":0,
			"byteLength":2692,
			"byteOffset":185996,
			"target":34962
		},
		{
			"buffer":0,
			"byteLength":10768,
			"byteOffset":188688,
			"target":34962
		},
		{
			"buffer":0,
			"byteLength":5616,
			"byteOffset":199456,
			"target":34963
		},
		{
			"buffer":0,
			"byteLength":10488,
			"byteOffset":205072,
			"target":34962
		},
		{
			"buffer":0,
			"byteLength":10488,
			"byteOffset":215560,
			"target":34962
		},
		{
			"buffer":0,
			"byteLength":6992,
			"byteOffset":226048,
			"target":34962
		},
		{
			"buffer":0,
			"byteLength":3496,
			"byteOffset":233040,
			"target":34962
		},
		{
			"buffer":0,
			"byteLength":13984,
			"byteOffset":236536,
			"target":34962
		},
		{
			"buffer":0,
			"byteLength":7680,
			"byteOffset":250520,
			"target":34963
		},
		{
			"buffer":0,
			"byteLength":3648,
			"byteOffset":258200,
			"target":34962
		},
		{
			"buffer":0,
			"byteLength":3648,
			"byteOffset":261848,
			"target":34962
		},
		{
			"buffer":0,
			"byteLength":2432,
			"byteOffset":265496,
			"target":34962
		},
		{
			"buffer":0,
			"byteLength":1216,
			"byteOffset":267928,
			"target":34962
		},
		{
			"buffer":0,
			"byteLength":4864,
			"byteOffset":269144,
			"target":34962
		},
		{
			"buffer":0,
			"byteLength":2304,
			"byteOffset":274008,
			"target":34963
		},
		{
			"buffer":0,
			"byteLength":2640,
			"byteOffset":276312,
			"target":34962
		},
		{
			"buffer":0,
			"byteLength":2640,
			"byteOffset":278952,
			"target":34962
		},
		{
			"buffer":0,
			"byteLength":1760,
			"byteOffset":281592,
			"target":34962
		},
		{
			"buffer":0,
			"byteLength":880,
			"byteOffset":283352,
			"target":34962
		},
		{
			"buffer":0,
			"byteLength":3520,
			"byteOffset":284232,
			"target":34962
		},
		{
			"buffer":0,
			"byteLength":1440,
			"byteOffset":287752,
			"target":34963
		},
		{
			"buffer":0,
			"byteLength":3120,
			"byteOffset":289192,
			"target":34962
		},
		{
			"buffer":0,
			"byteLength":3120,
			"byteOffset":292312,
			"target":34962
		},
		{
			"buffer":0,
			"byteLength":2080,
			"byteOffset":295432,
			"target":34962
		},
		{
			"buffer":0,
			"byteLength":1040,
			"byteOffset":297512,
			"target":34962
		},
		{
			"buffer":0,
			"byteLength":4160,
			"byteOffset":298552,
			"target":34962
		},
		{
			"buffer":0,
			"byteLength":1536,
			"byteOffset":302712,
			"target":34963
		},
		{
			"buffer":0,
			"byteLength":1176,
			"byteOffset":304248,
			"target":34962
		},
		{
			"buffer":0,
			"byteLength":1176,
			"byteOffset":305424,
			"target":34962
		},
		{
			"buffer":0,
			"byteLength":784,
			"byteOffset":306600,
			"target":34962
		},
		{
			"buffer":0,
			"byteLength":392,
			"byteOffset":307384,
			"target":34962
		},
		{
			"buffer":0,
			"byteLength":1568,
			"byteOffset":307776,
			"target":34962
		},
		{
			"buffer":0,
			"byteLength":720,
			"byteOffset":309344,
			"target":34963
		},
		{
			"buffer":0,
			"byteLength":1056,
			"byteOffset":310064,
			"target":34962
		},
		{
			"buffer":0,
			"byteLength":1056,
			"byteOffset":311120,
			"target":34962
		},
		{
			"buffer":0,
			"byteLength":704,
			"byteOffset":312176,
			"target":34962
		},
		{
			"buffer":0,
			"byteLength":352,
			"byteOffset":312880,
			"target":34962
		},
		{
			"buffer":0,
			"byteLength":1408,
			"byteOffset":313232,
			"target":34962
		},
		{
			"buffer":0,
			"byteLength":432,
			"byteOffset":314640,
			"target":34963
		},
		{
			"buffer":0,
			"byteLength":288,
			"byteOffset":315072,
			"target":34962
		},
		{
			"buffer":0,
			"byteLength":288,
			"byteOffset":315360,
			"target":34962
		},
		{
			"buffer":0,
			"byteLength":192,
			"byteOffset":315648,
			"target":34962
		},
		{
			"buffer":0,
			"byteLength":96,
			"byteOffset":315840,
			"target":34962
		},
		{
			"buffer":0,
			"byteLength":384,
			"byteOffset":315936,
			"target":34962
		},
		{
			"buffer":0,
			"byteLength":72,
			"byteOffset":316320,
			"target":34963
		},
		{
			"buffer":0,
			"byteLength":768,
			"byteOffset":316392,
			"target":34962
		},
		{
			"buffer":0,
			"byteLength":768,
			"byteOffset":317160,
			"target":34962
		},
		{
			"buffer":0,
			"byteLength":512,
			"byteOffset":317928,
			"target":34962
		},
		{
			"buffer":0,
			"byteLength":256,
			"byteOffset":318440,
			"target":34962
		},
		{
			"buffer":0,
			"byteLength":1024,
			"byteOffset":318696,
			"target":34962
		},
		{
			"buffer":0,
			"byteLength":360,
			"byteOffset":319720,
			"target":34963
		},
		{
			"buffer":0,
			"byteLength":1088,
			"byteOffset":320080
		},
		{
			"buffer":0,
			"byteLength":8,
			"byteOffset":321168
		},
		{
			"buffer":0,
			"byteLength":24,
			"byteOffset":321176
		},
		{
			"buffer":0,
			"byteLength":32,
			"byteOffset":321200
		},
		{
			"buffer":0,
			"byteLength":24,
			"byteOffset":321232
		},
		{
			"buffer":0,
			"byteLength":24,
			"byteOffset":321256
		},
		{
			"buffer":0,
			"byteLength":32,
			"byteOffset":321280
		},
		{
			"buffer":0,
			"byteLength":24,
			"byteOffset":321312
		},
		{
			"buffer":0,
			"byteLength":24,
			"byteOffset":321336
		},
		{
			"buffer":0,
			"byteLength":76,
			"byteOffset":321360
		},
		{
			"buffer":0,
			"byteLength":304,
			"byteOffset":321436
		},
		{
			"buffer":0,
			"byteLength":24,
			"byteOffset":321740
		},
		{
			"buffer":0,
			"byteLength":24,
			"byteOffset":321764
		},
		{
			"buffer":0,
			"byteLength":32,
			"byteOffset":321788
		},
		{
			"buffer":0,
			"byteLength":24,
			"byteOffset":321820
		},
		{
			"buffer":0,
			"byteLength":24,
			"byteOffset":321844
		},
		{
			"buffer":0,
			"byteLength":32,
			"byteOffset":321868
		},
		{
			"buffer":0,
			"byteLength":24,
			"byteOffset":321900
		},
		{
			"buffer":0,
			"byteLength":24,
			"byteOffset":321924
		},
		{
			"buffer":0,
			"byteLength":304,
			"byteOffset":321948
		},
		{
			"buffer":0,
			"byteLength":24,
			"byteOffset":322252
		},
		{
			"buffer":0,
			"byteLength":24,
			"byteOffset":322276
		},
		{
			"buffer":0,
			"byteLength":304,
			"byteOffset":322300
		},
		{
			"buffer":0,
			"byteLength":24,
			"byteOffset":322604
		},
		{
			"buffer":0,
			"byteLength":24,
			"byteOffset":322628
		},
		{
			"buffer":0,
			"byteLength":32,
			"byteOffset":322652
		},
		{
			"buffer":0,
			"byteLength":24,
			"byteOffset":322684
		},
		{
			"buffer":0,
			"byteLength":24,
			"byteOffset":322708
		},
		{
			"buffer":0,
			"byteLength":304,
			"byteOffset":322732
		},
		{
			"buffer":0,
			"byteLength":24,
			"byteOffset":323036
		},
		{
			"buffer":0,
			"byteLength":24,
			"byteOffset":323060
		},
		{
			"buffer":0,
			"byteLength":32,
			"byteOffset":323084
		},
		{
			"buffer":0,
			"byteLength":24,
			"byteOffset":323116
		},
		{
			"buffer":0,
			"byteLength":24,
			"byteOffset":323140
		},
		{
			"buffer":0,
			"byteLength":32,
			"byteOffset":323164
		},
		{
			"buffer":0,
			"byteLength":24,
			"byteOffset":323196
		},
		{
			"buffer":0,
			"byteLength":24,
			"byteOffset":323220
		},
		{
			"buffer":0,
			"byteLength":304,
			"byteOffset":323244
		},
		{
			"buffer":0,
			"byteLength":24,
			"byteOffset":323548
		},
		{
			"buffer":0,
			"byteLength":24,
			"byteOffset":323572
		},
		{
			"buffer":0,
			"byteLength":32,
			"byteOffset":323596
		},
		{
			"buffer":0,
			"byteLength":24,
			"byteOffset":323628
		},
		{
			"buffer":0,
			"byteLength":24,
			"byteOffset":323652
		},
		{
			"buffer":0,
			"byteLength":32,
			"byteOffset":323676
		},
		{
			"buffer":0,
			"byteLength":24,
			"byteOffset":323708
		},
		{
			"buffer":0,
			"byteLength":24,
			"byteOffset":323732
		},
		{
			"buffer":0,
			"byteLength":304,
			"byteOffset":323756
		},
		{
			"buffer":0,
			"byteLength":24,
			"byteOffset":324060
		},
		{
			"buffer":0,
			"byteLength":24,
			"byteOffset":324084
		},
		{
			"buffer":0,
			"byteLength":32,
			"byteOffset":324108
		},
		{
			"buffer":0,
			"byteLength":24,
			"byteOffset":324140
		},
		{
			"buffer":0,
			"byteLength":24,
			"byteOffset":324164
		},
		{
			"buffer":0,
			"byteLength":32,
			"byteOffset":324188
		},
		{
			"buffer":0,
			"byteLength":24,
			"byteOffset":324220
		},
		{
			"buffer":0,
			"byteLength":244,
			"byteOffset":324244
		},
		{
			"buffer":0,
			"byteLength":732,
			"byteOffset":324488
		},
		{
			"buffer":0,
			"byteLength":8,
			"byteOffset":325220
		},
		{
			"buffer":0,
			"byteLength":32,
			"byteOffset":325228
		},
		{
			"buffer":0,
			"byteLength":24,
			"byteOffset":325260
		},
		{
			"buffer":0,
			"byteLength":24,
			"byteOffset":325284
		},
		{
			"buffer":0,
			"byteLength":32,
			"byteOffset":325308
		},
		{
			"buffer":0,
			"byteLength":24,
			"byteOffset":325340
		},
		{
			"buffer":0,
			"byteLength":24,
			"byteOffset":325364
		},
		{
			"buffer":0,
			"byteLength":976,
			"byteOffset":325388
		},
		{
			"buffer":0,
			"byteLength":24,
			"byteOffset":326364
		},
		{
			"buffer":0,
			"byteLength":24,
			"byteOffset":326388
		},
		{
			"buffer":0,
			"byteLength":32,
			"byteOffset":326412
		},
		{
			"buffer":0,
			"byteLength":24,
			"byteOffset":326444
		},
		{
			"buffer":0,
			"byteLength":24,
			"byteOffset":326468
		},
		{
			"buffer":0,
			"byteLength":976,
			"byteOffset":326492
		},
		{
			"buffer":0,
			"byteLength":24,
			"byteOffset":327468
		},
		{
			"buffer":0,
			"byteLength":24,
			"byteOffset":327492
		},
		{
			"buffer":0,
			"byteLength":976,
			"byteOffset":327516
		},
		{
			"buffer":0,
			"byteLength":24,
			"byteOffset":328492
		},
		{
			"buffer":0,
			"byteLength":24,
			"byteOffset":328516
		},
		{
			"buffer":0,
			"byteLength":32,
			"byteOffset":328540
		},
		{
			"buffer":0,
			"byteLength":24,
			"byteOffset":328572
		},
		{
			"buffer":0,
			"byteLength":24,
			"byteOffset":328596
		},
		{
			"buffer":0,
			"byteLength":32,
			"byteOffset":328620
		},
		{
			"buffer":0,
			"byteLength":24,
			"byteOffset":328652
		},
		{
			"buffer":0,
			"byteLength":24,
			"byteOffset":328676
		},
		{
			"buffer":0,
			"byteLength":976,
			"byteOffset":328700
		},
		{
			"buffer":0,
			"byteLength":24,
			"byteOffset":329676
		},
		{
			"buffer":0,
			"byteLength":24,
			"byteOffset":329700
		},
		{
			"buffer":0,
			"byteLength":32,
			"byteOffset":329724
		},
		{
			"buffer":0,
			"byteLength":24,
			"byteOffset":329756
		},
		{
			"buffer":0,
			"byteLength":24,
			"byteOffset":329780
		},
		{
			"buffer":0,
			"byteLength":32,
			"byteOffset":329804
		},
		{
			"buffer":0,
			"byteLength":24,
			"byteOffset":329836
		},
		{
			"buffer":0,
			"byteLength":24,
			"byteOffset":329860
		},
		{
			"buffer":0,
			"byteLength":32,
			"byteOffset":329884
		},
		{
			"buffer":0,
			"byteLength":24,
			"byteOffset":329916
		},
		{
			"buffer":0,
			"byteLength":24,
			"byteOffset":329940
		},
		{
			"buffer":0,
			"byteLength":32,
			"byteOffset":329964
		},
		{
			"buffer":0,
			"byteLength":24,
			"byteOffset":329996
		},
		{
			"buffer":0,
			"byteLength":24,
			"byteOffset":330020
		},
		{
			"buffer":0,
			"byteLength":32,
			"byteOffset":330044
		},
		{
			"buffer":0,
			"byteLength":24,
			"byteOffset":330076
		},
		{
			"buffer":0,
			"byteLength":24,
			"byteOffset":330100
		},
		{
			"buffer":0,
			"byteLength":32,
			"byteOffset":330124
		},
		{
			"buffer":0,
			"byteLength":24,
			"byteOffset":330156
		},
		{
			"buffer":0,
			"byteLength":24,
			"byteOffset":330180
		},
		{
			"buffer":0,
			"byteLength":32,
			"byteOffset":330204
		},
		{
			"buffer":0,
			"byteLength":24,
			"byteOffset":330236
		},
		{
			"buffer":0,
			"byteLength":24,
			"byteOffset":330260
		},
		{
			"buffer":0,
			"byteLength":32,
			"byteOffset":330284
		},
		{
			"buffer":0,
			"byteLength":24,
			"byteOffset":330316
		},
		{
			"buffer":0,
			"byteLength":124,
			"byteOffset":330340
		},
		{
			"buffer":0,
			"byteLength":372,
			"byteOffset":330464
		},
		{
			"buffer":0,
			"byteLength":496,
			"byteOffset":330836
		},
		{
			"buffer":0,
			"byteLength":8,
			"byteOffset":331332
		},
		{
			"buffer":0,
			"byteLength":24,
			"byteOffset":331340
		},
		{
			"buffer":0,
			"byteLength":24,
			"byteOffset":331364
		},
		{
			"buffer":0,
			"byteLength":32,
			"byteOffset":331388
		},
		{
			"buffer":0,
			"byteLength":24,
			"byteOffset":331420
		},
		{
			"buffer":0,
			"byteLength":24,
			"byteOffset":331444
		},
		{
			"buffer":0,
			"byteLength":496,
			"byteOffset":331468
		},
		{
			"buffer":0,
			"byteLength":24,
			"byteOffset":331964
		},
		{
			"buffer":0,
			"byteLength":24,
			"byteOffset":331988
		},
		{
			"buffer":0,
			"byteLength":32,
			"byteOffset":332012
		},
		{
			"buffer":0,
			"byteLength":24,
			"byteOffset":332044
		},
		{
			"buffer":0,
			"byteLength":24,
			"byteOffset":332068
		},
		{
			"buffer":0,
			"byteLength":32,
			"byteOffset":332092
		},
		{
			"buffer":0,
			"byteLength":24,
			"byteOffset":332124
		},
		{
			"buffer":0,
			"byteLength":24,
			"byteOffset":332148
		},
		{
			"buffer":0,
			"byteLength":496,
			"byteOffset":332172
		},
		{
			"buffer":0,
			"byteLength":24,
			"byteOffset":332668
		},
		{
			"buffer":0,
			"byteLength":24,
			"byteOffset":332692
		},
		{
			"buffer":0,
			"byteLength":32,
			"byteOffset":332716
		},
		{
			"buffer":0,
			"byteLength":24,
			"byteOffset":332748
		},
		{
			"buffer":0,
			"byteLength":24,
			"byteOffset":332772
		},
		{
			"buffer":0,
			"byteLength":32,
			"byteOffset":332796
		},
		{
			"buffer":0,
			"byteLength":24,
			"byteOffset":332828
		},
		{
			"buffer":0,
			"byteLength":24,
			"byteOffset":332852
		},
		{
			"buffer":0,
			"byteLength":496,
			"byteOffset":332876
		},
		{
			"buffer":0,
			"byteLength":24,
			"byteOffset":333372
		},
		{
			"buffer":0,
			"byteLength":24,
			"byteOffset":333396
		},
		{
			"buffer":0,
			"byteLength":32,
			"byteOffset":333420
		},
		{
			"buffer":0,
			"byteLength":24,
			"byteOffset":333452
		},
		{
			"buffer":0,
			"byteLength":24,
			"byteOffset":333476
		},
		{
			"buffer":0,
			"byteLength":32,
			"byteOffset":333500
		},
		{
			"buffer":0,
			"byteLength":24,
			"byteOffset":333532
		},
		{
			"buffer":0,
			"byteLength":24,
			"byteOffset":333556
		},
		{
			"buffer":0,
			"byteLength":496,
			"byteOffset":333580
		},
		{
			"buffer":0,
			"byteLength":24,
			"byteOffset":334076
		},
		{
			"buffer":0,
			"byteLength":24,
			"byteOffset":334100
		},
		{
			"buffer":0,
			"byteLength":496,
			"byteOffset":334124
		},
		{
			"buffer":0,
			"byteLength":24,
			"byteOffset":334620
		},
		{
			"buffer":0,
			"byteLength":24,
			"byteOffset":334644
		},
		{
			"buffer":0,
			"byteLength":496,
			"byteOffset":334668
		},
		{
			"buffer":0,
			"byteLength":24,
			"byteOffset":335164
		},
		{
			"buffer":0,
			"byteLength":24,
			"byteOffset":335188
		},
		{
			"buffer":0,
			"byteLength":496,
			"byteOffset":335212
		},
		{
			"buffer":0,
			"byteLength":24,
			"byteOffset":335708
		},
		{
			"buffer":0,
			"byteLength":24,
			"byteOffset":335732
		},
		{
			"buffer":0,
			"byteLength":496,
			"byteOffset":335756
		},
		{
			"buffer":0,
			"byteLength":24,
			"byteOffset":336252
		},
		{
			"buffer":0,
			"byteLength":24,
			"byteOffset":336276
		},
		{
			"buffer":0,
			"byteLength":496,
			"byteOffset":336300
		},
		{
			"buffer":0,
			"byteLength":24,
			"byteOffset":336796
		}
	],
	"samplers":[
		{
			"magFilter":9729,
			"minFilter":9987
		}
	],
	"buffers":[
		{
			"byteLength":336820,
			"uri":"orc.bin"
		}
	]
}
