{
	"asset":{
		"generator":"Khronos glTF Blender I/O v4.2.57",
		"version":"2.0"
	},
	"extensionsUsed":[
		"KHR_materials_clearcoat",
		"KHR_materials_sheen"
	],
	"scene":0,
	"scenes":[
		{
			"name":"Scene",
			"nodes":[
				18
			]
		}
	],
	"nodes":[
		{
			"name":"head",
			"translation":[
				0,
				0.12499988079071045,
				0
			]
		},
		{
			"children":[
				0
			],
			"name":"neck",
			"translation":[
				0,
				0.2625000476837158,
				0
			]
		},
		{
			"name":"hand.R",
			"rotation":[
				-0.004436360206454992,
				-0.030711155384778976,
				0.0329471118748188,
				0.9989752769470215
			],
			"scale":[
				1,
				0.9999999403953552,
				0.9999998807907104
			],
			"translation":[
				-5.2386894822120667e-08,
				0.3161037564277649,
				1.862645149230957e-09
			]
		},
		{
			"children":[
				2
			],
			"name":"forearm.R",
			"rotation":[
				0.04115070030093193,
				-0.07195534557104111,
				0.08387482911348343,
				0.9930226802825928
			],
			"scale":[
				0.9999999403953552,
				0.9999998807907104,
				1
			],
			"translation":[
				2.3283064365386963e-09,
				0.3510764539241791,
				0
			]
		},
		{
			"children":[
				3
			],
			"name":"upper_arm.R",
			"rotation":[
				-0.9804754853248596,
				-0.1390419453382492,
				-0.13904239237308502,
				0.0015607713721692562
			],
			"scale":[
				0.9999973177909851,
				0.9999997615814209,
				0.9999999403953552
			],
			"translation":[
				0.4050000011920929,
				0.19999992847442627,
				0
			]
		},
		{
			"name":"hand.L",
			"rotation":[
				-0.004436360206454992,
				0.030711155384778976,
				-0.0329471118748188,
				0.9989752769470215
			],
			"scale":[
				1,
				0.9999999403953552,
				0.9999998807907104
			],
			"translation":[
				5.2386894822120667e-08,
				0.3161037564277649,
				1.862645149230957e-09
			]
		},
		{
			"children":[
				5
			],
			"name":"forearm.L",
			"rotation":[
				0.04115070030093193,
				0.07195534557104111,
				-0.08387482911348343,
				0.9930226802825928
			],
			"scale":[
				0.9999999403953552,
				0.9999998807907104,
				1
			],
			"translation":[
				-2.3283064365386963e-09,
				0.3510764539241791,
				0
			]
		},
		{
			"children":[
				6
			],
			"name":"upper_arm.L",
			"rotation":[
				-0.9804754853248596,
				0.1390419453382492,
				0.13904239237308502,
				0.0015607713721692562
			],
			"scale":[
				0.9999973177909851,
				0.9999997615814209,
				0.9999999403953552
			],
			"translation":[
				-0.4050000011920929,
				0.19999992847442627,
				0
			]
		},
		{
			"children":[
				1,
				4,
				7
			],
			"name":"chest",
			"translation":[
				0,
				0.2124999761581421,
				0
			]
		},
		{
			"children":[
				8
			],
			"name":"spine",
			"translation":[
				0,
				0.1875,
				0
			]
		},
		{
			"name":"foot.R",
			"rotation":[
				0.5914180278778076,
				-3.899004230589753e-09,
				9.828490243890542e-10,
				0.8063651323318481
			],
			"scale":[
				1,
				0.9999999403953552,
				1
			],
			"translation":[
				2.9602233553305268e-08,
				0.5132373571395874,
				8.992628863779828e-10
			]
		},
		{
			"children":[
				10
			],
			"name":"shin.R",
			"rotation":[
				-0.041620559990406036,
				-0.014793462119996548,
				0.01402097474783659,
				0.9989255666732788
			],
			"scale":[
				1,
				0.9999998807907104,
				1
			],
			"translation":[
				-4.656612873077393e-10,
				0.512938916683197,
				2.7939677238464355e-09
			]
		},
		{
			"children":[
				11
			],
			"name":"thigh.R",
			"rotation":[
				-0.9996822476387024,
				-0.014412413351237774,
				-0.014412553049623966,
				0.014834051951766014
			],
			"scale":[
				1.000000238418579,
				0.9999998211860657,
				1.000000238418579
			],
			"translation":[
				0.17249999940395355,
				-0.02499997615814209,
				0
			]
		},
		{
			"name":"foot.L",
			"rotation":[
				0.5914180278778076,
				3.899004230589753e-09,
				-9.828490243890542e-10,
				0.8063651323318481
			],
			"scale":[
				1,
				0.9999999403953552,
				1
			],
			"translation":[
				-2.9602233553305268e-08,
				0.5132373571395874,
				8.992628863779828e-10
			]
		},
		{
			"children":[
				13
			],
			"name":"shin.L",
			"rotation":[
				-0.041620559990406036,
				0.014793462119996548,
				-0.01402097474783659,
				0.9989255666732788
			],
			"scale":[
				1,
				0.9999998807907104,
				1
			],
			"translation":[
				4.656612873077393e-10,
				0.512938916683197,
				2.7939677238464355e-09
			]
		},
		{
			"children":[
				14
			],
			"name":"thigh.L",
			"rotation":[
				-0.9996822476387024,
				0.014412413351237774,
				0.014412553049623966,
				0.014834051951766014
			],
			"scale":[
				1.000000238418579,
				0.9999998211860657,
				1.000000238418579
			],
			"translation":[
				-0.17249999940395355,
				-0.02499997615814209,
				0
			]
		},
		{
			"children":[
				9,
				12,
				15
			],
			"name":"hips",
			"translation":[
				0,
				1.162500023841858,
				0
			]
		},
		{
			"mesh":0,
			"name":"orc_knight",
			"skin":0
		},
		{
			"children":[
				17,
				16
			],
			"name":"orc_knight_rig"
		}
	],
	"animations":[
		{
			"channels":[
				{
					"sampler":0,
					"target":{
						"node":16,
						"path":"translation"
					}
				},
				{
					"sampler":1,
					"target":{
						"node":16,
						"path":"rotation"
					}
				},
				{
					"sampler":2,
					"target":{
						"node":16,
						"path":"scale"
					}
				},
				{
					"sampler":3,
					"target":{
						"node":9,
						"path":"translation"
					}
				},
				{
					"sampler":4,
					"target":{
						"node":9,
						"path":"rotation"
					}
				},
				{
					"sampler":5,
					"target":{
						"node":9,
						"path":"scale"
					}
				},
				{
					"sampler":6,
					"target":{
						"node":8,
						"path":"translation"
					}
				},
				{
					"sampler":7,
					"target":{
						"node":8,
						"path":"rotation"
					}
				},
				{
					"sampler":8,
					"target":{
						"node":8,
						"path":"scale"
					}
				},
				{
					"sampler":9,
					"target":{
						"node":1,
						"path":"translation"
					}
				},
				{
					"sampler":10,
					"target":{
						"node":1,
						"path":"rotation"
					}
				},
				{
					"sampler":11,
					"target":{
						"node":1,
						"path":"scale"
					}
				},
				{
					"sampler":12,
					"target":{
						"node":0,
						"path":"translation"
					}
				},
				{
					"sampler":13,
					"target":{
						"node":0,
						"path":"rotation"
					}
				},
				{
					"sampler":14,
					"target":{
						"node":0,
						"path":"scale"
					}
				},
				{
					"sampler":15,
					"target":{
						"node":4,
						"path":"translation"
					}
				},
				{
					"sampler":16,
					"target":{
						"node":4,
						"path":"rotation"
					}
				},
				{
					"sampler":17,
					"target":{
						"node":4,
						"path":"scale"
					}
				},
				{
					"sampler":18,
					"target":{
						"node":3,
						"path":"translation"
					}
				},
				{
					"sampler":19,
					"target":{
						"node":3,
						"path":"rotation"
					}
				},
				{
					"sampler":20,
					"target":{
						"node":3,
						"path":"scale"
					}
				},
				{
					"sampler":21,
					"target":{
						"node":2,
						"path":"translation"
					}
				},
				{
					"sampler":22,
					"target":{
						"node":2,
						"path":"rotation"
					}
				},
				{
					"sampler":23,
					"target":{
						"node":2,
						"path":"scale"
					}
				},
				{
					"sampler":24,
					"target":{
						"node":7,
						"path":"translation"
					}
				},
				{
					"sampler":25,
					"target":{
						"node":7,
						"path":"rotation"
					}
				},
				{
					"sampler":26,
					"target":{
						"node":7,
						"path":"scale"
					}
				},
				{
					"sampler":27,
					"target":{
						"node":6,
						"path":"translation"
					}
				},
				{
					"sampler":28,
					"target":{
						"node":6,
						"path":"rotation"
					}
				},
				{
					"sampler":29,
					"target":{
						"node":6,
						"path":"scale"
					}
				},
				{
					"sampler":30,
					"target":{
						"node":5,
						"path":"translation"
					}
				},
				{
					"sampler":31,
					"target":{
						"node":5,
						"path":"rotation"
					}
				},
				{
					"sampler":32,
					"target":{
						"node":5,
						"path":"scale"
					}
				},
				{
					"sampler":33,
					"target":{
						"node":12,
						"path":"translation"
					}
				},
				{
					"sampler":34,
					"target":{
						"node":12,
						"path":"rotation"
					}
				},
				{
					"sampler":35,
					"target":{
						"node":12,
						"path":"scale"
					}
				},
				{
					"sampler":36,
					"target":{
						"node":11,
						"path":"translation"
					}
				},
				{
					"sampler":37,
					"target":{
						"node":11,
						"path":"rotation"
					}
				},
				{
					"sampler":38,
					"target":{
						"node":11,
						"path":"scale"
					}
				},
				{
					"sampler":39,
					"target":{
						"node":10,
						"path":"translation"
					}
				},
				{
					"sampler":40,
					"target":{
						"node":10,
						"path":"rotation"
					}
				},
				{
					"sampler":41,
					"target":{
						"node":10,
						"path":"scale"
					}
				},
				{
					"sampler":42,
					"target":{
						"node":15,
						"path":"translation"
					}
				},
				{
					"sampler":43,
					"target":{
						"node":15,
						"path":"rotation"
					}
				},
				{
					"sampler":44,
					"target":{
						"node":15,
						"path":"scale"
					}
				},
				{
					"sampler":45,
					"target":{
						"node":14,
						"path":"translation"
					}
				},
				{
					"sampler":46,
					"target":{
						"node":14,
						"path":"rotation"
					}
				},
				{
					"sampler":47,
					"target":{
						"node":14,
						"path":"scale"
					}
				},
				{
					"sampler":48,
					"target":{
						"node":13,
						"path":"translation"
					}
				},
				{
					"sampler":49,
					"target":{
						"node":13,
						"path":"rotation"
					}
				},
				{
					"sampler":50,
					"target":{
						"node":13,
						"path":"scale"
					}
				}
			],
			"name":"attack",
			"samplers":[
				{
					"input":96,
					"interpolation":"STEP",
					"output":97
				},
				{
					"input":96,
					"interpolation":"STEP",
					"output":98
				},
				{
					"input":96,
					"interpolation":"STEP",
					"output":99
				},
				{
					"input":96,
					"interpolation":"STEP",
					"output":100
				},
				{
					"input":96,
					"interpolation":"STEP",
					"output":101
				},
				{
					"input":96,
					"interpolation":"STEP",
					"output":102
				},
				{
					"input":96,
					"interpolation":"STEP",
					"output":103
				},
				{
					"input":104,
					"interpolation":"LINEAR",
					"output":105
				},
				{
					"input":96,
					"interpolation":"STEP",
					"output":106
				},
				{
					"input":96,
					"interpolation":"STEP",
					"output":107
				},
				{
					"input":96,
					"interpolation":"STEP",
					"output":108
				},
				{
					"input":96,
					"interpolation":"STEP",
					"output":109
				},
				{
					"input":96,
					"interpolation":"STEP",
					"output":110
				},
				{
					"input":96,
					"interpolation":"STEP",
					"output":111
				},
				{
					"input":96,
					"interpolation":"STEP",
					"output":112
				},
				{
					"input":96,
					"interpolation":"STEP",
					"output":113
				},
				{
					"input":104,
					"interpolation":"LINEAR",
					"output":114
				},
				{
					"input":96,
					"interpolation":"STEP",
					"output":115
				},
				{
					"input":96,
					"interpolation":"STEP",
					"output":116
				},
				{
					"input":104,
					"interpolation":"LINEAR",
					"output":117
				},
				{
					"input":96,
					"interpolation":"STEP",
					"output":118
				},
				{
					"input":96,
					"interpolation":"STEP",
					"output":119
				},
				{
					"input":96,
					"interpolation":"STEP",
					"output":120
				},
				{
					"input":96,
					"interpolation":"STEP",
					"output":121
				},
				{
					"input":96,
					"interpolation":"STEP",
					"output":122
				},
				{
					"input":104,
					"interpolation":"LINEAR",
					"output":123
				},
				{
					"input":96,
					"interpolation":"STEP",
					"output":124
				},
				{
					"input":96,
					"interpolation":"STEP",
					"output":125
				},
				{
					"input":96,
					"interpolation":"STEP",
					"output":126
				},
				{
					"input":96,
					"interpolation":"STEP",
					"output":127
				},
				{
					"input":96,
					"interpolation":"STEP",
					"output":128
				},
				{
					"input":96,
					"interpolation":"STEP",
					"output":129
				},
				{
					"input":96,
					"interpolation":"STEP",
					"output":130
				},
				{
					"input":96,
					"interpolation":"STEP",
					"output":131
				},
				{
					"input":104,
					"interpolation":"LINEAR",
					"output":132
				},
				{
					"input":96,
					"interpolation":"STEP",
					"output":133
				},
				{
					"input":96,
					"interpolation":"LINEAR",
					"output":134
				},
				{
					"input":96,
					"interpolation":"LINEAR",
					"output":135
				},
				{
					"input":96,
					"interpolation":"STEP",
					"output":136
				},
				{
					"input":96,
					"interpolation":"LINEAR",
					"output":137
				},
				{
					"input":96,
					"interpolation":"LINEAR",
					"output":138
				},
				{
					"input":96,
					"interpolation":"STEP",
					"output":139
				},
				{
					"input":96,
					"interpolation":"STEP",
					"output":140
				},
				{
					"input":104,
					"interpolation":"LINEAR",
					"output":141
				},
				{
					"input":96,
					"interpolation":"STEP",
					"output":142
				},
				{
					"input":96,
					"interpolation":"LINEAR",
					"output":143
				},
				{
					"input":96,
					"interpolation":"LINEAR",
					"output":144
				},
				{
					"input":96,
					"interpolation":"STEP",
					"output":145
				},
				{
					"input":96,
					"interpolation":"LINEAR",
					"output":146
				},
				{
					"input":96,
					"interpolation":"LINEAR",
					"output":147
				},
				{
					"input":96,
					"interpolation":"STEP",
					"output":148
				}
			]
		},
		{
			"channels":[
				{
					"sampler":0,
					"target":{
						"node":16,
						"path":"translation"
					}
				},
				{
					"sampler":1,
					"target":{
						"node":16,
						"path":"rotation"
					}
				},
				{
					"sampler":2,
					"target":{
						"node":16,
						"path":"scale"
					}
				},
				{
					"sampler":3,
					"target":{
						"node":9,
						"path":"translation"
					}
				},
				{
					"sampler":4,
					"target":{
						"node":9,
						"path":"rotation"
					}
				},
				{
					"sampler":5,
					"target":{
						"node":9,
						"path":"scale"
					}
				},
				{
					"sampler":6,
					"target":{
						"node":8,
						"path":"translation"
					}
				},
				{
					"sampler":7,
					"target":{
						"node":8,
						"path":"rotation"
					}
				},
				{
					"sampler":8,
					"target":{
						"node":8,
						"path":"scale"
					}
				},
				{
					"sampler":9,
					"target":{
						"node":1,
						"path":"translation"
					}
				},
				{
					"sampler":10,
					"target":{
						"node":1,
						"path":"rotation"
					}
				},
				{
					"sampler":11,
					"target":{
						"node":1,
						"path":"scale"
					}
				},
				{
					"sampler":12,
					"target":{
						"node":0,
						"path":"translation"
					}
				},
				{
					"sampler":13,
					"target":{
						"node":0,
						"path":"rotation"
					}
				},
				{
					"sampler":14,
					"target":{
						"node":0,
						"path":"scale"
					}
				},
				{
					"sampler":15,
					"target":{
						"node":4,
						"path":"translation"
					}
				},
				{
					"sampler":16,
					"target":{
						"node":4,
						"path":"rotation"
					}
				},
				{
					"sampler":17,
					"target":{
						"node":4,
						"path":"scale"
					}
				},
				{
					"sampler":18,
					"target":{
						"node":3,
						"path":"translation"
					}
				},
				{
					"sampler":19,
					"target":{
						"node":3,
						"path":"rotation"
					}
				},
				{
					"sampler":20,
					"target":{
						"node":3,
						"path":"scale"
					}
				},
				{
					"sampler":21,
					"target":{
						"node":2,
						"path":"translation"
					}
				},
				{
					"sampler":22,
					"target":{
						"node":2,
						"path":"rotation"
					}
				},
				{
					"sampler":23,
					"target":{
						"node":2,
						"path":"scale"
					}
				},
				{
					"sampler":24,
					"target":{
						"node":7,
						"path":"translation"
					}
				},
				{
					"sampler":25,
					"target":{
						"node":7,
						"path":"rotation"
					}
				},
				{
					"sampler":26,
					"target":{
						"node":7,
						"path":"scale"
					}
				},
				{
					"sampler":27,
					"target":{
						"node":6,
						"path":"translation"
					}
				},
				{
					"sampler":28,
					"target":{
						"node":6,
						"path":"rotation"
					}
				},
				{
					"sampler":29,
					"target":{
						"node":6,
						"path":"scale"
					}
				},
				{
					"sampler":30,
					"target":{
						"node":5,
						"path":"translation"
					}
				},
				{
					"sampler":31,
					"target":{
						"node":5,
						"path":"rotation"
					}
				},
				{
					"sampler":32,
					"target":{
						"node":5,
						"path":"scale"
					}
				},
				{
					"sampler":33,
					"target":{
						"node":12,
						"path":"translation"
					}
				},
				{
					"sampler":34,
					"target":{
						"node":12,
						"path":"rotation"
					}
				},
				{
					"sampler":35,
					"target":{
						"node":12,
						"path":"scale"
					}
				},
				{
					"sampler":36,
					"target":{
						"node":11,
						"path":"translation"
					}
				},
				{
					"sampler":37,
					"target":{
						"node":11,
						"path":"rotation"
					}
				},
				{
					"sampler":38,
					"target":{
						"node":11,
						"path":"scale"
					}
				},
				{
					"sampler":39,
					"target":{
						"node":10,
						"path":"translation"
					}
				},
				{
					"sampler":40,
					"target":{
						"node":10,
						"path":"rotation"
					}
				},
				{
					"sampler":41,
					"target":{
						"node":10,
						"path":"scale"
					}
				},
				{
					"sampler":42,
					"target":{
						"node":15,
						"path":"translation"
					}
				},
				{
					"sampler":43,
					"target":{
						"node":15,
						"path":"rotation"
					}
				},
				{
					"sampler":44,
					"target":{
						"node":15,
						"path":"scale"
					}
				},
				{
					"sampler":45,
					"target":{
						"node":14,
						"path":"translation"
					}
				},
				{
					"sampler":46,
					"target":{
						"node":14,
						"path":"rotation"
					}
				},
				{
					"sampler":47,
					"target":{
						"node":14,
						"path":"scale"
					}
				},
				{
					"sampler":48,
					"target":{
						"node":13,
						"path":"translation"
					}
				},
				{
					"sampler":49,
					"target":{
						"node":13,
						"path":"rotation"
					}
				},
				{
					"sampler":50,
					"target":{
						"node":13,
						"path":"scale"
					}
				}
			],
			"name":"idle",
			"samplers":[
				{
					"input":149,
					"interpolation":"LINEAR",
					"output":150
				},
				{
					"input":151,
					"interpolation":"STEP",
					"output":152
				},
				{
					"input":151,
					"interpolation":"STEP",
					"output":153
				},
				{
					"input":151,
					"interpolation":"STEP",
					"output":154
				},
				{
					"input":151,
					"interpolation":"STEP",
					"output":155
				},
				{
					"input":151,
					"interpolation":"STEP",
					"output":156
				},
				{
					"input":151,
					"interpolation":"STEP",
					"output":157
				},
				{
					"input":149,
					"interpolation":"LINEAR",
					"output":158
				},
				{
					"input":151,
					"interpolation":"STEP",
					"output":159
				},
				{
					"input":151,
					"interpolation":"STEP",
					"output":160
				},
				{
					"input":151,
					"interpolation":"STEP",
					"output":161
				},
				{
					"input":151,
					"interpolation":"STEP",
					"output":162
				},
				{
					"input":151,
					"interpolation":"STEP",
					"output":163
				},
				{
					"input":149,
					"interpolation":"LINEAR",
					"output":164
				},
				{
					"input":151,
					"interpolation":"STEP",
					"output":165
				},
				{
					"input":151,
					"interpolation":"STEP",
					"output":166
				},
				{
					"input":149,
					"interpolation":"LINEAR",
					"output":167
				},
				{
					"input":151,
					"interpolation":"STEP",
					"output":168
				},
				{
					"input":151,
					"interpolation":"STEP",
					"output":169
				},
				{
					"input":151,
					"interpolation":"STEP",
					"output":170
				},
				{
					"input":151,
					"interpolation":"STEP",
					"output":171
				},
				{
					"input":151,
					"interpolation":"STEP",
					"output":172
				},
				{
					"input":151,
					"interpolation":"STEP",
					"output":173
				},
				{
					"input":151,
					"interpolation":"STEP",
					"output":174
				},
				{
					"input":151,
					"interpolation":"STEP",
					"output":175
				},
				{
					"input":149,
					"interpolation":"LINEAR",
					"output":176
				},
				{
					"input":151,
					"interpolation":"STEP",
					"output":177
				},
				{
					"input":151,
					"interpolation":"STEP",
					"output":178
				},
				{
					"input":151,
					"interpolation":"STEP",
					"output":179
				},
				{
					"input":151,
					"interpolation":"STEP",
					"output":180
				},
				{
					"input":151,
					"interpolation":"STEP",
					"output":181
				},
				{
					"input":151,
					"interpolation":"STEP",
					"output":182
				},
				{
					"input":151,
					"interpolation":"STEP",
					"output":183
				},
				{
					"input":151,
					"interpolation":"STEP",
					"output":184
				},
				{
					"input":151,
					"interpolation":"STEP",
					"output":185
				},
				{
					"input":151,
					"interpolation":"STEP",
					"output":186
				},
				{
					"input":151,
					"interpolation":"STEP",
					"output":187
				},
				{
					"input":151,
					"interpolation":"STEP",
					"output":188
				},
				{
					"input":151,
					"interpolation":"STEP",
					"output":189
				},
				{
					"input":151,
					"interpolation":"STEP",
					"output":190
				},
				{
					"input":151,
					"interpolation":"STEP",
					"output":191
				},
				{
					"input":151,
					"interpolation":"STEP",
					"output":192
				},
				{
					"input":151,
					"interpolation":"STEP",
					"output":193
				},
				{
					"input":151,
					"interpolation":"STEP",
					"output":194
				},
				{
					"input":151,
					"interpolation":"STEP",
					"output":195
				},
				{
					"input":151,
					"interpolation":"STEP",
					"output":196
				},
				{
					"input":151,
					"interpolation":"STEP",
					"output":197
				},
				{
					"input":151,
					"interpolation":"STEP",
					"output":198
				},
				{
					"input":151,
					"interpolation":"STEP",
					"output":199
				},
				{
					"input":151,
					"interpolation":"STEP",
					"output":200
				},
				{
					"input":151,
					"interpolation":"STEP",
					"output":201
				}
			]
		},
		{
			"channels":[
				{
					"sampler":0,
					"target":{
						"node":16,
						"path":"translation"
					}
				},
				{
					"sampler":1,
					"target":{
						"node":16,
						"path":"rotation"
					}
				},
				{
					"sampler":2,
					"target":{
						"node":16,
						"path":"scale"
					}
				},
				{
					"sampler":3,
					"target":{
						"node":9,
						"path":"translation"
					}
				},
				{
					"sampler":4,
					"target":{
						"node":9,
						"path":"rotation"
					}
				},
				{
					"sampler":5,
					"target":{
						"node":9,
						"path":"scale"
					}
				},
				{
					"sampler":6,
					"target":{
						"node":8,
						"path":"translation"
					}
				},
				{
					"sampler":7,
					"target":{
						"node":8,
						"path":"rotation"
					}
				},
				{
					"sampler":8,
					"target":{
						"node":8,
						"path":"scale"
					}
				},
				{
					"sampler":9,
					"target":{
						"node":1,
						"path":"translation"
					}
				},
				{
					"sampler":10,
					"target":{
						"node":1,
						"path":"rotation"
					}
				},
				{
					"sampler":11,
					"target":{
						"node":1,
						"path":"scale"
					}
				},
				{
					"sampler":12,
					"target":{
						"node":0,
						"path":"translation"
					}
				},
				{
					"sampler":13,
					"target":{
						"node":0,
						"path":"rotation"
					}
				},
				{
					"sampler":14,
					"target":{
						"node":0,
						"path":"scale"
					}
				},
				{
					"sampler":15,
					"target":{
						"node":4,
						"path":"translation"
					}
				},
				{
					"sampler":16,
					"target":{
						"node":4,
						"path":"rotation"
					}
				},
				{
					"sampler":17,
					"target":{
						"node":4,
						"path":"scale"
					}
				},
				{
					"sampler":18,
					"target":{
						"node":3,
						"path":"translation"
					}
				},
				{
					"sampler":19,
					"target":{
						"node":3,
						"path":"rotation"
					}
				},
				{
					"sampler":20,
					"target":{
						"node":3,
						"path":"scale"
					}
				},
				{
					"sampler":21,
					"target":{
						"node":2,
						"path":"translation"
					}
				},
				{
					"sampler":22,
					"target":{
						"node":2,
						"path":"rotation"
					}
				},
				{
					"sampler":23,
					"target":{
						"node":2,
						"path":"scale"
					}
				},
				{
					"sampler":24,
					"target":{
						"node":7,
						"path":"translation"
					}
				},
				{
					"sampler":25,
					"target":{
						"node":7,
						"path":"rotation"
					}
				},
				{
					"sampler":26,
					"target":{
						"node":7,
						"path":"scale"
					}
				},
				{
					"sampler":27,
					"target":{
						"node":6,
						"path":"translation"
					}
				},
				{
					"sampler":28,
					"target":{
						"node":6,
						"path":"rotation"
					}
				},
				{
					"sampler":29,
					"target":{
						"node":6,
						"path":"scale"
					}
				},
				{
					"sampler":30,
					"target":{
						"node":5,
						"path":"translation"
					}
				},
				{
					"sampler":31,
					"target":{
						"node":5,
						"path":"rotation"
					}
				},
				{
					"sampler":32,
					"target":{
						"node":5,
						"path":"scale"
					}
				},
				{
					"sampler":33,
					"target":{
						"node":12,
						"path":"translation"
					}
				},
				{
					"sampler":34,
					"target":{
						"node":12,
						"path":"rotation"
					}
				},
				{
					"sampler":35,
					"target":{
						"node":12,
						"path":"scale"
					}
				},
				{
					"sampler":36,
					"target":{
						"node":11,
						"path":"translation"
					}
				},
				{
					"sampler":37,
					"target":{
						"node":11,
						"path":"rotation"
					}
				},
				{
					"sampler":38,
					"target":{
						"node":11,
						"path":"scale"
					}
				},
				{
					"sampler":39,
					"target":{
						"node":10,
						"path":"translation"
					}
				},
				{
					"sampler":40,
					"target":{
						"node":10,
						"path":"rotation"
					}
				},
				{
					"sampler":41,
					"target":{
						"node":10,
						"path":"scale"
					}
				},
				{
					"sampler":42,
					"target":{
						"node":15,
						"path":"translation"
					}
				},
				{
					"sampler":43,
					"target":{
						"node":15,
						"path":"rotation"
					}
				},
				{
					"sampler":44,
					"target":{
						"node":15,
						"path":"scale"
					}
				},
				{
					"sampler":45,
					"target":{
						"node":14,
						"path":"translation"
					}
				},
				{
					"sampler":46,
					"target":{
						"node":14,
						"path":"rotation"
					}
				},
				{
					"sampler":47,
					"target":{
						"node":14,
						"path":"scale"
					}
				},
				{
					"sampler":48,
					"target":{
						"node":13,
						"path":"translation"
					}
				},
				{
					"sampler":49,
					"target":{
						"node":13,
						"path":"rotation"
					}
				},
				{
					"sampler":50,
					"target":{
						"node":13,
						"path":"scale"
					}
				}
			],
			"name":"walk",
			"samplers":[
				{
					"input":202,
					"interpolation":"LINEAR",
					"output":203
				},
				{
					"input":202,
					"interpolation":"LINEAR",
					"output":204
				},
				{
					"input":205,
					"interpolation":"STEP",
					"output":206
				},
				{
					"input":205,
					"interpolation":"STEP",
					"output":207
				},
				{
					"input":205,
					"interpolation":"STEP",
					"output":208
				},
				{
					"input":205,
					"interpolation":"STEP",
					"output":209
				},
				{
					"input":205,
					"interpolation":"STEP",
					"output":210
				},
				{
					"input":202,
					"interpolation":"LINEAR",
					"output":211
				},
				{
					"input":205,
					"interpolation":"STEP",
					"output":212
				},
				{
					"input":205,
					"interpolation":"STEP",
					"output":213
				},
				{
					"input":205,
					"interpolation":"STEP",
					"output":214
				},
				{
					"input":205,
					"interpolation":"STEP",
					"output":215
				},
				{
					"input":205,
					"interpolation":"STEP",
					"output":216
				},
				{
					"input":205,
					"interpolation":"STEP",
					"output":217
				},
				{
					"input":205,
					"interpolation":"STEP",
					"output":218
				},
				{
					"input":205,
					"interpolation":"STEP",
					"output":219
				},
				{
					"input":202,
					"interpolation":"LINEAR",
					"output":220
				},
				{
					"input":205,
					"interpolation":"STEP",
					"output":221
				},
				{
					"input":205,
					"interpolation":"STEP",
					"output":222
				},
				{
					"input":205,
					"interpolation":"STEP",
					"output":223
				},
				{
					"input":205,
					"interpolation":"STEP",
					"output":224
				},
				{
					"input":205,
					"interpolation":"STEP",
					"output":225
				},
				{
					"input":205,
					"interpolation":"STEP",
					"output":226
				},
				{
					"input":205,
					"interpolation":"STEP",
					"output":227
				},
				{
					"input":205,
					"interpolation":"STEP",
					"output":228
				},
				{
					"input":202,
					"interpolation":"LINEAR",
					"output":229
				},
				{
					"input":205,
					"interpolation":"STEP",
					"output":230
				},
				{
					"input":205,
					"interpolation":"STEP",
					"output":231
				},
				{
					"input":205,
					"interpolation":"STEP",
					"output":232
				},
				{
					"input":205,
					"interpolation":"STEP",
					"output":233
				},
				{
					"input":205,
					"interpolation":"STEP",
					"output":234
				},
				{
					"input":205,
					"interpolation":"STEP",
					"output":235
				},
				{
					"input":205,
					"interpolation":"STEP",
					"output":236
				},
				{
					"input":205,
					"interpolation":"STEP",
					"output":237
				},
				{
					"input":202,
					"interpolation":"LINEAR",
					"output":238
				},
				{
					"input":205,
					"interpolation":"STEP",
					"output":239
				},
				{
					"input":205,
					"interpolation":"STEP",
					"output":240
				},
				{
					"input":202,
					"interpolation":"LINEAR",
					"output":241
				},
				{
					"input":205,
					"interpolation":"STEP",
					"output":242
				},
				{
					"input":205,
					"interpolation":"STEP",
					"output":243
				},
				{
					"input":202,
					"interpolation":"LINEAR",
					"output":244
				},
				{
					"input":205,
					"interpolation":"STEP",
					"output":245
				},
				{
					"input":205,
					"interpolation":"STEP",
					"output":246
				},
				{
					"input":202,
					"interpolation":"LINEAR",
					"output":247
				},
				{
					"input":205,
					"interpolation":"STEP",
					"output":248
				},
				{
					"input":205,
					"interpolation":"STEP",
					"output":249
				},
				{
					"input":202,
					"interpolation":"LINEAR",
					"output":250
				},
				{
					"input":205,
					"interpolation":"STEP",
					"output":251
				},
				{
					"input":205,
					"interpolation":"STEP",
					"output":252
				},
				{
					"input":202,
					"interpolation":"LINEAR",
					"output":253
				},
				{
					"input":205,
					"interpolation":"STEP",
					"output":254
				}
			]
		}
	],
	"materials":[
		{
			"name":"skin",
			"normalTexture":{
				"index":0,
				"scale":0.4000000059604645
			},
			"pbrMetallicRoughness":{
				"baseColorFactor":[
					0.21404114365577698,
					0.17064493894577026,
					0.08353512734174728,
					1
				],
				"metallicFactor":0,
				"roughnessFactor":0.550000011920929
			}
		},
		{
			"extensions":{
				"KHR_materials_sheen":{
					"sheenColorFactor":[
						1.0,
						1.0,
						1.0
					],
					"sheenRoughnessFactor":0.5
				}
			},
			"name":"hair",
			"normalTexture":{
				"index":1,
				"scale":0.800000011920929
			},
			"pbrMetallicRoughness":{
				"baseColorFactor":[
					0.01960664801299572,
					0.0134117491543293,
					0.010022825561463833,
					1
				],
				"metallicFactor":0,
				"roughnessFactor":0.44999998807907104
			}
		},
		{
			"extensions":{
				"KHR_materials_sheen":{
					"sheenColorFactor":[
						1.0,
						1.0,
						1.0
					],
					"sheenRoughnessFactor":0.5
				}
			},
			"name":"outfit",
			"normalTexture":{
				"index":2,
				"scale":0.6000000238418579
			},
			"pbrMetallicRoughness":{
				"baseColorFactor":[
					0.07323895394802094,
					0.07323895394802094,
					0.10048151016235352,
					1
				],
				"metallicFactor":0,
				"roughnessFactor":0.75
			}
		},
		{
			"name":"outfit2",
			"normalTexture":{
				"index":3,
				"scale":0.4000000059604645
			},
			"pbrMetallicRoughness":{
				"baseColorFactor":[
					0.31854677200317383,
					0.31854677200317383,
					0.38005632162094116,
					1
				],
				"metallicFactor":0,
				"roughnessFactor":0.6000000238418579
			}
		},
		{
			"name":"pants",
			"normalTexture":{
				"index":4,
				"scale":0.6000000238418579
			},
			"pbrMetallicRoughness":{
				"baseColorFactor":[
					0.036306485533714294,
					0.036306485533714294,
					0.04889732599258423,
					1
				],
				"metallicFactor":0,
				"roughnessFactor":0.800000011920929
			}
		},
		{
			"extensions":{
				"KHR_materials_clearcoat":{
					"clearcoatFactor":0.30000001192092896
				}
			},
			"name":"boots",
			"normalTexture":{
				"index":5,
				"scale":0.800000011920929
			},
			"pbrMetallicRoughness":{
				"baseColorFactor":[
					0.0134117491543293,
					0.010022825561463833,
					0.010022825561463833,
					1
				],
				"metallicFactor":0,
				"roughnessFactor":0.44999998807907104
			}
		},
		{
			"name":"eye_white",
			"pbrMetallicRoughness":{
				"baseColorFactor":[
					0.8900054097175598,
					0.8900054097175598,
					0.8900054097175598,
					1
				],
				"metallicFactor":0,
				"roughnessFactor":0.20000000298023224
			}
		},
		{
			"emissiveFactor":[
				0.011763989275256348,
				0.011763989275256348,
				0.019862860485428957
			],
			"name":"iris",
			"pbrMetallicRoughness":{
				"baseColorFactor":[
					0.01960664801299572,
					0.01960664801299572,
					0.03310476616024971,
					1
				],
				"metallicFactor":0,
				"roughnessFactor":0.15000000596046448
			}
		},
		{
			"name":"pupil",
			"pbrMetallicRoughness":{
				"baseColorFactor":[
					0.0015479875728487968,
					0.0015479875728487968,
					0.0023219813592731953,
					1
				],
				"metallicFactor":0,
				"roughnessFactor":0.10000000149011612
			}
		},
		{
			"name":"lips",
			"pbrMetallicRoughness":{
				"baseColorFactor":[
					0.10048151016235352,
					0.08088690787553787,
					0.041081301867961884,
					1
				],
				"metallicFactor":0,
				"roughnessFactor":0.4000000059604645
			}
		},
		{
			"name":"metal",
			"normalTexture":{
				"index":6,
				"scale":0.5
			},
			"pbrMetallicRoughness":{
				"baseColorFactor":[
					0.5225215554237366,
					0.5542217493057251,
					0.6038273572921753,
					1
				],
				"metallicFactor":0.6000000238418579,
				"roughnessFactor":0.30000001192092896
			}
		},
		{
			"name":"tusk",
			"pbrMetallicRoughness":{
				"baseColorFactor":[
					0.8900054097175598,
					0.8275708556175232,
					0.6038273572921753,
					1
				],
				"metallicFactor":0,
				"roughnessFactor":0.3499999940395355
			}
		},
		{
			"name":"buckle",
			"pbrMetallicRoughness":{
				"baseColorFactor":[
					0.6920710802078247,
					0.4479884207248688,
					0.07323895394802094,
					1
				],
				"metallicFactor":0.8999999761581421,
				"roughnessFactor":0.30000001192092896
			}
		},
		{
			"name":"blade",
			"normalTexture":{
				"index":7,
				"scale":0.30000001192092896
			},
			"pbrMetallicRoughness":{
				"baseColorFactor":[
					0.7484140992164612,
					0.7874122858047485,
					0.8900054097175598,
					1
				],
				"metallicFactor":0.550000011920929,
				"roughnessFactor":0.2199999988079071
			}
		},
		{
			"name":"handle",
			"normalTexture":{
				"index":8,
				"scale":0.6000000238418579
			},
			"pbrMetallicRoughness":{
				"baseColorFactor":[
					0.0134117491543293,
					0.007194409146904945,
					0.004896310158073902,
					1
				],
				"metallicFactor":0,
				"roughnessFactor":0.6000000238418579
			}
		},
		{
			"name":"guard",
			"pbrMetallicRoughness":{
				"baseColorFactor":[
					0.6038273572921753,
					0.38005632162094116,
					0.05087608844041824,
					1
				],
				"metallicFactor":0.8999999761581421,
				"roughnessFactor":0.30000001192092896
			}
		}
	],
	"meshes":[
		{
			"name":"orc_knight",
			"primitives":[
				{
					"attributes":{
						"POSITION":0,
						"NORMAL":1,
						"TEXCOORD_0":2,
						"JOINTS_0":3,
						"WEIGHTS_0":4
					},
					"indices":5,
					"material":0
				},
				{
					"attributes":{
						"POSITION":6,
						"NORMAL":7,
						"TEXCOORD_0":8,
						"JOINTS_0":9,
						"WEIGHTS_0":10
					},
					"indices":11,
					"material":1
				},
				{
					"attributes":{
						"POSITION":12,
						"NORMAL":13,
						"TEXCOORD_0":14,
						"JOINTS_0":15,
						"WEIGHTS_0":16
					},
					"indices":17,
					"material":2
				},
				{
					"attributes":{
						"POSITION":18,
						"NORMAL":19,
						"TEXCOORD_0":20,
						"JOINTS_0":21,
						"WEIGHTS_0":22
					},
					"indices":23,
					"material":3
				},
				{
					"attributes":{
						"POSITION":24,
						"NORMAL":25,
						"TEXCOORD_0":26,
						"JOINTS_0":27,
						"WEIGHTS_0":28
					},
					"indices":29,
					"material":4
				},
				{
					"attributes":{
						"POSITION":30,
						"NORMAL":31,
						"TEXCOORD_0":32,
						"JOINTS_0":33,
						"WEIGHTS_0":34
					},
					"indices":35,
					"material":5
				},
				{
					"attributes":{
						"POSITION":36,
						"NORMAL":37,
						"TEXCOORD_0":38,
						"JOINTS_0":39,
						"WEIGHTS_0":40
					},
					"indices":41,
					"material":6
				},
				{
					"attributes":{
						"POSITION":42,
						"NORMAL":43,
						"TEXCOORD_0":44,
						"JOINTS_0":45,
						"WEIGHTS_0":46
					},
					"indices":47,
					"material":7
				},
				{
					"attributes":{
						"POSITION":48,
						"NORMAL":49,
						"TEXCOORD_0":50,
						"JOINTS_0":51,
						"WEIGHTS_0":52
					},
					"indices":53,
					"material":8
				},
				{
					"attributes":{
						"POSITION":54,
						"NORMAL":55,
						"TEXCOORD_0":56,
						"JOINTS_0":57,
						"WEIGHTS_0":58
					},
					"indices":59,
					"material":9
				},
				{
					"attributes":{
						"POSITION":60,
						"NORMAL":61,
						"TEXCOORD_0":62,
						"JOINTS_0":63,
						"WEIGHTS_0":64
					},
					"indices":65,
					"material":10
				},
				{
					"attributes":{
						"POSITION":66,
						"NORMAL":67,
						"TEXCOORD_0":68,
						"JOINTS_0":69,
						"WEIGHTS_0":70
					},
					"indices":71,
					"material":11
				},
				{
					"attributes":{
						"POSITION":72,
						"NORMAL":73,
						"TEXCOORD_0":74,
						"JOINTS_0":75,
						"WEIGHTS_0":76
					},
					"indices":77,
					"material":12
				},
				{
					"attributes":{
						"POSITION":78,
						"NORMAL":79,
						"TEXCOORD_0":80,
						"JOINTS_0":81,
						"WEIGHTS_0":82
					},
					"indices":83,
					"material":13
				},
				{
					"attributes":{
						"POSITION":84,
						"NORMAL":85,
						"TEXCOORD_0":86,
						"JOINTS_0":87,
						"WEIGHTS_0":88
					},
					"indices":89,
					"material":14
				},
				{
					"attributes":{
						"POSITION":90,
						"NORMAL":91,
						"TEXCOORD_0":92,
						"JOINTS_0":93,
						"WEIGHTS_0":94
					},
					"indices":77,
					"material":15
				}
			]
		}
	],
	"textures":[
		{
			"sampler":0,
			"source":0
		},
		{
			"sampler":0,
			"source":1
		},
		{
			"sampler":0,
			"source":2
		},
		{
			"sampler":0,
			"source":2
		},
		{
			"sampler":0,
			"source":2
		},
		{
			"sampler":0,
			"source":3
		},
		{
			"sampler":0,
			"source":4
		},
		{
			"sampler":0,
			"source":4
		},
		{
			"sampler":0,
			"source":3
		}
	],
	"images":[
		{
			"mimeType":"image/png",
			"name":"N_skin",
			"uri":"texturas/N_skin.png"
		},
		{
			"mimeType":"image/png",
			"name":"N_hair",
			"uri":"texturas/N_hair.png"
		},
		{
			"mimeType":"image/png",
			"name":"N_cloth",
			"uri":"texturas/N_cloth.png"
		},
		{
			"mimeType":"image/png",
			"name":"N_leather",
			"uri":"texturas/N_leather.png"
		},
		{
			"mimeType":"image/png",
			"name":"N_metal",
			"uri":"texturas/N_metal.png"
		}
	],
	"skins":[
		{
			"inverseBindMatrices":95,
			"joints":[
				16,
				9,
				8,
				1,
				0,
				4,
				3,
				2,
				7,
				6,
				5,
				12,
				11,
				10,
				15,
				14,
				13
			],
			"name":"orc_knight_rig"
		}
	],
	"accessors":[
		{
			"bufferView":0,
			"componentType":5126,
			"count":993,
			"max":[
				0.19343379139900208,
				2.2300000190734863,
				0.13401569426059723
			],
			"min":[
				-0.19343379139900208,
				1.8328630924224854,
				-0.14750000834465027
			],
			"type":"VEC3"
		},
		{
			"bufferView":1,
			"componentType":5126,
			"count":993,
			"type":"VEC3"
		},
		{
			"bufferView":2,
			"componentType":5126,
			"count":993,
			"type":"VEC2"
		},
		{
			"bufferView":3,
			"componentType":5121,
			"count":993,
			"type":"VEC4"
		},
		{
			"bufferView":4,
			"componentType":5126,
			"count":993,
			"type":"VEC4"
		},
		{
			"bufferView":5,
			"componentType":5123,
			"count":4008,
			"type":"SCALAR"
		},
		{
			"bufferView":6,
			"componentType":5126,
			"count":48,
			"max":[
				0.0612499974668026,
				2.125,
				-0.10499999672174454
			],
			"min":[
				-0.0612499974668026,
				2.117500066757202,
				-0.11250000447034836
			],
			"type":"VEC3"
		},
		{
			"bufferView":7,
			"componentType":5126,
			"count":48,
			"type":"VEC3"
		},
		{
			"bufferView":8,
			"componentType":5126,
			"count":48,
			"type":"VEC2"
		},
		{
			"bufferView":9,
			"componentType":5121,
			"count":48,
			"type":"VEC4"
		},
		{
			"bufferView":10,
			"componentType":5126,
			"count":48,
			"type":"VEC4"
		},
		{
			"bufferView":11,
			"componentType":5123,
			"count":72,
			"type":"SCALAR"
		},
		{
			"bufferView":12,
			"componentType":5126,
			"count":1080,
			"max":[
				0.5852518081665039,
				1.83693265914917,
				0.2551623582839966
			],
			"min":[
				-0.5852518081665039,
				1.1572234630584717,
				-0.2572774291038513
			],
			"type":"VEC3"
		},
		{
			"bufferView":13,
			"componentType":5126,
			"count":1080,
			"type":"VEC3"
		},
		{
			"bufferView":14,
			"componentType":5126,
			"count":1080,
			"type":"VEC2"
		},
		{
			"bufferView":15,
			"componentType":5121,
			"count":1080,
			"type":"VEC4"
		},
		{
			"bufferView":16,
			"componentType":5126,
			"count":1080,
			"type":"VEC4"
		},
		{
			"bufferView":17,
			"componentType":5123,
			"count":4848,
			"type":"SCALAR"
		},
		{
			"bufferView":18,
			"componentType":5126,
			"count":60,
			"max":[
				0.2544301450252533,
				1.2660712003707886,
				0.2629622519016266
			],
			"min":[
				-0.2544301748275757,
				1.0978260040283203,
				-0.2646397650241852
			],
			"type":"VEC3"
		},
		{
			"bufferView":19,
			"componentType":5126,
			"count":60,
			"type":"VEC3"
		},
		{
			"bufferView":20,
			"componentType":5126,
			"count":60,
			"type":"VEC2"
		},
		{
			"bufferView":21,
			"componentType":5121,
			"count":60,
			"type":"VEC4"
		},
		{
			"bufferView":22,
			"componentType":5126,
			"count":60,
			"type":"VEC4"
		},
		{
			"bufferView":23,
			"componentType":5123,
			"count":168,
			"type":"SCALAR"
		},
		{
			"bufferView":24,
			"componentType":5126,
			"count":675,
			"max":[
				0.5774506330490112,
				1.1869462728500366,
				0.26164308190345764
			],
			"min":[
				-0.5774505734443665,
				0.36401742696762085,
				-0.2634924352169037
			],
			"type":"VEC3"
		},
		{
			"bufferView":25,
			"componentType":5126,
			"count":675,
			"type":"VEC3"
		},
		{
			"bufferView":26,
			"componentType":5126,
			"count":675,
			"type":"VEC2"
		},
		{
			"bufferView":27,
			"componentType":5121,
			"count":675,
			"type":"VEC4"
		},
		{
			"bufferView":28,
			"componentType":5126,
			"count":675,
			"type":"VEC4"
		},
		{
			"bufferView":29,
			"componentType":5123,
			"count":2808,
			"type":"SCALAR"
		},
		{
			"bufferView":30,
			"componentType":5126,
			"count":1332,
			"max":[
				0.5743770599365234,
				1.1340676546096802,
				0.11749082803726196
			],
			"min":[
				-0.5743770599365234,
				0.009505080059170723,
				-0.17514896392822266
			],
			"type":"VEC3"
		},
		{
			"bufferView":31,
			"componentType":5126,
			"count":1332,
			"type":"VEC3"
		},
		{
			"bufferView":32,
			"componentType":5126,
			"count":1332,
			"type":"VEC2"
		},
		{
			"bufferView":33,
			"componentType":5121,
			"count":1332,
			"type":"VEC4"
		},
		{
			"bufferView":34,
			"componentType":5126,
			"count":1332,
			"type":"VEC4"
		},
		{
			"bufferView":35,
			"componentType":5123,
			"count":5760,
			"type":"SCALAR"
		},
		{
			"bufferView":36,
			"componentType":5126,
			"count":304,
			"max":[
				0.0637499988079071,
				2.1081249713897705,
				-0.08749999850988388
			],
			"min":[
				-0.0637499988079071,
				2.0793750286102295,
				-0.10999999940395355
			],
			"type":"VEC3"
		},
		{
			"bufferView":37,
			"componentType":5126,
			"count":304,
			"type":"VEC3"
		},
		{
			"bufferView":38,
			"componentType":5126,
			"count":304,
			"type":"VEC2"
		},
		{
			"bufferView":39,
			"componentType":5121,
			"count":304,
			"type":"VEC4"
		},
		{
			"bufferView":40,
			"componentType":5126,
			"count":304,
			"type":"VEC4"
		},
		{
			"bufferView":41,
			"componentType":5123,
			"count":1152,
			"type":"SCALAR"
		},
		{
			"bufferView":42,
			"componentType":5126,
			"count":220,
			"max":[
				0.054375000298023224,
				2.1059999465942383,
				-0.10152530670166016
			],
			"min":[
				-0.054375000298023224,
				2.0815000534057617,
				-0.11222469806671143
			],
			"type":"VEC3"
		},
		{
			"bufferView":43,
			"componentType":5126,
			"count":220,
			"type":"VEC3"
		},
		{
			"bufferView":44,
			"componentType":5126,
			"count":220,
			"type":"VEC2"
		},
		{
			"bufferView":45,
			"componentType":5121,
			"count":220,
			"type":"VEC4"
		},
		{
			"bufferView":46,
			"componentType":5126,
			"count":220,
			"type":"VEC4"
		},
		{
			"bufferView":47,
			"componentType":5123,
			"count":720,
			"type":"SCALAR"
		},
		{
			"bufferView":48,
			"componentType":5126,
			"count":260,
			"max":[
				0.04749304801225662,
				2.099375009536743,
				-0.10862235724925995
			],
			"min":[
				-0.04749304801225662,
				2.0325000286102295,
				-0.15199759602546692
			],
			"type":"VEC3"
		},
		{
			"bufferView":49,
			"componentType":5126,
			"count":260,
			"type":"VEC3"
		},
		{
			"bufferView":50,
			"componentType":5126,
			"count":260,
			"type":"VEC2"
		},
		{
			"bufferView":51,
			"componentType":5121,
			"count":260,
			"type":"VEC4"
		},
		{
			"bufferView":52,
			"componentType":5126,
			"count":260,
			"type":"VEC4"
		},
		{
			"bufferView":53,
			"componentType":5123,
			"count":768,
			"type":"SCALAR"
		},
		{
			"bufferView":54,
			"componentType":5126,
			"count":98,
			"max":[
				0.023749999701976776,
				2.0093748569488525,
				-0.09715031087398529
			],
			"min":[
				-0.023749999701976776,
				1.9981250762939453,
				-0.10784969478845596
			],
			"type":"VEC3"
		},
		{
			"bufferView":55,
			"componentType":5126,
			"count":98,
			"type":"VEC3"
		},
		{
			"bufferView":56,
			"componentType":5126,
			"count":98,
			"type":"VEC2"
		},
		{
			"bufferView":57,
			"componentType":5121,
			"count":98,
			"type":"VEC4"
		},
		{
			"bufferView":58,
			"componentType":5126,
			"count":98,
			"type":"VEC4"
		},
		{
			"bufferView":59,
			"componentType":5123,
			"count":360,
			"type":"SCALAR"
		},
		{
			"bufferView":60,
			"componentType":5126,
			"count":969,
			"max":[
				0.5049999952316284,
				2.2849998474121094,
				0.15000000596046448
			],
			"min":[
				-0.5049999952316284,
				1.3875000476837158,
				-0.16060097515583038
			],
			"type":"VEC3"
		},
		{
			"bufferView":61,
			"componentType":5126,
			"count":969,
			"type":"VEC3"
		},
		{
			"bufferView":62,
			"componentType":5126,
			"count":969,
			"type":"VEC2"
		},
		{
			"bufferView":63,
			"componentType":5121,
			"count":969,
			"type":"VEC4"
		},
		{
			"bufferView":64,
			"componentType":5126,
			"count":969,
			"type":"VEC4"
		},
		{
			"bufferView":65,
			"componentType":5123,
			"count":3852,
			"type":"SCALAR"
		},
		{
			"bufferView":66,
			"componentType":5126,
			"count":88,
			"max":[
				0.051142774522304535,
				2.056495189666748,
				-0.07968054711818695
			],
			"min":[
				-0.051142774522304535,
				1.9839072227478027,
				-0.11216528713703156
			],
			"type":"VEC3"
		},
		{
			"bufferView":67,
			"componentType":5126,
			"count":88,
			"type":"VEC3"
		},
		{
			"bufferView":68,
			"componentType":5126,
			"count":88,
			"type":"VEC2"
		},
		{
			"bufferView":69,
			"componentType":5121,
			"count":88,
			"type":"VEC4"
		},
		{
			"bufferView":70,
			"componentType":5126,
			"count":88,
			"type":"VEC4"
		},
		{
			"bufferView":71,
			"componentType":5123,
			"count":216,
			"type":"SCALAR"
		},
		{
			"bufferView":72,
			"componentType":5126,
			"count":24,
			"max":[
				0.03125,
				1.2125000953674316,
				-0.17687499523162842
			],
			"min":[
				-0.03125,
				1.162500023841858,
				-0.19187501072883606
			],
			"type":"VEC3"
		},
		{
			"bufferView":73,
			"componentType":5126,
			"count":24,
			"type":"VEC3"
		},
		{
			"bufferView":74,
			"componentType":5126,
			"count":24,
			"type":"VEC2"
		},
		{
			"bufferView":75,
			"componentType":5121,
			"count":24,
			"type":"VEC4"
		},
		{
			"bufferView":76,
			"componentType":5126,
			"count":24,
			"type":"VEC4"
		},
		{
			"bufferView":77,
			"componentType":5123,
			"count":36,
			"type":"SCALAR"
		},
		{
			"bufferView":78,
			"componentType":5126,
			"count":108,
			"max":[
				0.5590000152587891,
				1.0330570936203003,
				-0.08910001069307327
			],
			"min":[
				0.543999969959259,
				0.2777582108974457,
				-1.6362318992614746
			],
			"type":"VEC3"
		},
		{
			"bufferView":79,
			"componentType":5126,
			"count":108,
			"type":"VEC3"
		},
		{
			"bufferView":80,
			"componentType":5126,
			"count":108,
			"type":"VEC2"
		},
		{
			"bufferView":81,
			"componentType":5121,
			"count":108,
			"type":"VEC4"
		},
		{
			"bufferView":82,
			"componentType":5126,
			"count":108,
			"type":"VEC4"
		},
		{
			"bufferView":83,
			"componentType":5123,
			"count":156,
			"type":"SCALAR"
		},
		{
			"bufferView":84,
			"componentType":5126,
			"count":42,
			"max":[
				0.5715000033378601,
				1.0695339441299438,
				0.09094748646020889
			],
			"min":[
				0.531499981880188,
				0.9509841203689575,
				-0.10785140842199326
			],
			"type":"VEC3"
		},
		{
			"bufferView":85,
			"componentType":5126,
			"count":42,
			"type":"VEC3"
		},
		{
			"bufferView":86,
			"componentType":5126,
			"count":42,
			"type":"VEC2"
		},
		{
			"bufferView":87,
			"componentType":5121,
			"count":42,
			"type":"VEC4"
		},
		{
			"bufferView":88,
			"componentType":5126,
			"count":42,
			"type":"VEC4"
		},
		{
			"bufferView":89,
			"componentType":5123,
			"count":96,
			"type":"SCALAR"
		},
		{
			"bufferView":90,
			"componentType":5126,
			"count":24,
			"max":[
				0.7389999628067017,
				0.9828430414199829,
				-0.09541812539100647
			],
			"min":[
				0.36399996280670166,
				0.9453430771827698,
				-0.12666812539100647
			],
			"type":"VEC3"
		},
		{
			"bufferView":91,
			"componentType":5126,
			"count":24,
			"type":"VEC3"
		},
		{
			"bufferView":92,
			"componentType":5126,
			"count":24,
			"type":"VEC2"
		},
		{
			"bufferView":93,
			"componentType":5121,
			"count":24,
			"type":"VEC4"
		},
		{
			"bufferView":94,
			"componentType":5126,
			"count":24,
			"type":"VEC4"
		},
		{
			"bufferView":95,
			"componentType":5126,
			"count":17,
			"type":"MAT4"
		},
		{
			"bufferView":96,
			"componentType":5126,
			"count":2,
			"max":[
				0.6
			],
			"min":[
				0
			],
			"type":"SCALAR"
		},
		{
			"bufferView":97,
			"componentType":5126,
			"count":2,
			"type":"VEC3"
		},
		{
			"bufferView":98,
			"componentType":5126,
			"count":2,
			"type":"VEC4"
		},
		{
			"bufferView":99,
			"componentType":5126,
			"count":2,
			"type":"VEC3"
		},
		{
			"bufferView":100,
			"componentType":5126,
			"count":2,
			"type":"VEC3"
		},
		{
			"bufferView":101,
			"componentType":5126,
			"count":2,
			"type":"VEC4"
		},
		{
			"bufferView":102,
			"componentType":5126,
			"count":2,
			"type":"VEC3"
		},
		{
			"bufferView":103,
			"componentType":5126,
			"count":2,
			"type":"VEC3"
		},
		{
			"bufferView":104,
			"componentType":5126,
			"count":19,
			"max":[
				0.6
			],
			"min":[
				0
			],
			"type":"SCALAR"
		},
		{
			"bufferView":105,
			"componentType":5126,
			"count":19,
			"type":"VEC4"
		},
		{
			"bufferView":106,
			"componentType":5126,
			"count":2,
			"type":"VEC3"
		},
		{
			"bufferView":107,
			"componentType":5126,
			"count":2,
			"type":"VEC3"
		},
		{
			"bufferView":108,
			"componentType":5126,
			"count":2,
			"type":"VEC4"
		},
		{
			"bufferView":109,
			"componentType":5126,
			"count":2,
			"type":"VEC3"
		},
		{
			"bufferView":110,
			"componentType":5126,
			"count":2,
			"type":"VEC3"
		},
		{
			"bufferView":111,
			"componentType":5126,
			"count":2,
			"type":"VEC4"
		},
		{
			"bufferView":112,
			"componentType":5126,
			"count":2,
			"type":"VEC3"
		},
		{
			"bufferView":113,
			"componentType":5126,
			"count":2,
			"type":"VEC3"
		},
		{
			"bufferView":114,
			"componentType":5126,
			"count":19,
			"type":"VEC4"
		},
		{
			"bufferView":115,
			"componentType":5126,
			"count":2,
			"type":"VEC3"
		},
		{
			"bufferView":116,
			"componentType":5126,
			"count":2,
			"type":"VEC3"
		},
		{
			"bufferView":117,
			"componentType":5126,
			"count":19,
			"type":"VEC4"
		},
		{
			"bufferView":118,
			"componentType":5126,
			"count":2,
			"type":"VEC3"
		},
		{
			"bufferView":119,
			"componentType":5126,
			"count":2,
			"type":"VEC3"
		},
		{
			"bufferView":120,
			"componentType":5126,
			"count":2,
			"type":"VEC4"
		},
		{
			"bufferView":121,
			"componentType":5126,
			"count":2,
			"type":"VEC3"
		},
		{
			"bufferView":122,
			"componentType":5126,
			"count":2,
			"type":"VEC3"
		},
		{
			"bufferView":123,
			"componentType":5126,
			"count":19,
			"type":"VEC4"
		},
		{
			"bufferView":124,
			"componentType":5126,
			"count":2,
			"type":"VEC3"
		},
		{
			"bufferView":125,
			"componentType":5126,
			"count":2,
			"type":"VEC3"
		},
		{
			"bufferView":126,
			"componentType":5126,
			"count":2,
			"type":"VEC4"
		},
		{
			"bufferView":127,
			"componentType":5126,
			"count":2,
			"type":"VEC3"
		},
		{
			"bufferView":128,
			"componentType":5126,
			"count":2,
			"type":"VEC3"
		},
		{
			"bufferView":129,
			"componentType":5126,
			"count":2,
			"type":"VEC4"
		},
		{
			"bufferView":130,
			"componentType":5126,
			"count":2,
			"type":"VEC3"
		},
		{
			"bufferView":131,
			"componentType":5126,
			"count":2,
			"type":"VEC3"
		},
		{
			"bufferView":132,
			"componentType":5126,
			"count":19,
			"type":"VEC4"
		},
		{
			"bufferView":133,
			"componentType":5126,
			"count":2,
			"type":"VEC3"
		},
		{
			"bufferView":134,
			"componentType":5126,
			"count":2,
			"type":"VEC3"
		},
		{
			"bufferView":135,
			"componentType":5126,
			"count":2,
			"type":"VEC4"
		},
		{
			"bufferView":136,
			"componentType":5126,
			"count":2,
			"type":"VEC3"
		},
		{
			"bufferView":137,
			"componentType":5126,
			"count":2,
			"type":"VEC3"
		},
		{
			"bufferView":138,
			"componentType":5126,
			"count":2,
			"type":"VEC4"
		},
		{
			"bufferView":139,
			"componentType":5126,
			"count":2,
			"type":"VEC3"
		},
		{
			"bufferView":140,
			"componentType":5126,
			"count":2,
			"type":"VEC3"
		},
		{
			"bufferView":141,
			"componentType":5126,
			"count":19,
			"type":"VEC4"
		},
		{
			"bufferView":142,
			"componentType":5126,
			"count":2,
			"type":"VEC3"
		},
		{
			"bufferView":143,
			"componentType":5126,
			"count":2,
			"type":"VEC3"
		},
		{
			"bufferView":144,
			"componentType":5126,
			"count":2,
			"type":"VEC4"
		},
		{
			"bufferView":145,
			"componentType":5126,
			"count":2,
			"type":"VEC3"
		},
		{
			"bufferView":146,
			"componentType":5126,
			"count":2,
			"type":"VEC3"
		},
		{
			"bufferView":147,
			"componentType":5126,
			"count":2,
			"type":"VEC4"
		},
		{
			"bufferView":148,
			"componentType":5126,
			"count":2,
			"type":"VEC3"
		},
		{
			"bufferView":149,
			"componentType":5126,
			"count":61,
			"max":[
				2
			],
			"min":[
				0
			],
			"type":"SCALAR"
		},
		{
			"bufferView":150,
			"componentType":5126,
			"count":61,
			"type":"VEC3"
		},
		{
			"bufferView":151,
			"componentType":5126,
			"count":2,
			"max":[
				2
			],
			"min":[
				0
			],
			"type":"SCALAR"
		},
		{
			"bufferView":152,
			"componentType":5126,
			"count":2,
			"type":"VEC4"
		},
		{
			"bufferView":153,
			"componentType":5126,
			"count":2,
			"type":"VEC3"
		},
		{
			"bufferView":154,
			"componentType":5126,
			"count":2,
			"type":"VEC3"
		},
		{
			"bufferView":155,
			"componentType":5126,
			"count":2,
			"type":"VEC4"
		},
		{
			"bufferView":156,
			"componentType":5126,
			"count":2,
			"type":"VEC3"
		},
		{
			"bufferView":157,
			"componentType":5126,
			"count":2,
			"type":"VEC3"
		},
		{
			"bufferView":158,
			"componentType":5126,
			"count":61,
			"type":"VEC4"
		},
		{
			"bufferView":159,
			"componentType":5126,
			"count":2,
			"type":"VEC3"
		},
		{
			"bufferView":160,
			"componentType":5126,
			"count":2,
			"type":"VEC3"
		},
		{
			"bufferView":161,
			"componentType":5126,
			"count":2,
			"type":"VEC4"
		},
		{
			"bufferView":162,
			"componentType":5126,
			"count":2,
			"type":"VEC3"
		},
		{
			"bufferView":163,
			"componentType":5126,
			"count":2,
			"type":"VEC3"
		},
		{
			"bufferView":164,
			"componentType":5126,
			"count":61,
			"type":"VEC4"
		},
		{
			"bufferView":165,
			"componentType":5126,
			"count":2,
			"type":"VEC3"
		},
		{
			"bufferView":166,
			"componentType":5126,
			"count":2,
			"type":"VEC3"
		},
		{
			"bufferView":167,
			"componentType":5126,
			"count":61,
			"type":"VEC4"
		},
		{
			"bufferView":168,
			"componentType":5126,
			"count":2,
			"type":"VEC3"
		},
		{
			"bufferView":169,
			"componentType":5126,
			"count":2,
			"type":"VEC3"
		},
		{
			"bufferView":170,
			"componentType":5126,
			"count":2,
			"type":"VEC4"
		},
		{
			"bufferView":171,
			"componentType":5126,
			"count":2,
			"type":"VEC3"
		},
		{
			"bufferView":172,
			"componentType":5126,
			"count":2,
			"type":"VEC3"
		},
		{
			"bufferView":173,
			"componentType":5126,
			"count":2,
			"type":"VEC4"
		},
		{
			"bufferView":174,
			"componentType":5126,
			"count":2,
			"type":"VEC3"
		},
		{
			"bufferView":175,
			"componentType":5126,
			"count":2,
			"type":"VEC3"
		},
		{
			"bufferView":176,
			"componentType":5126,
			"count":61,
			"type":"VEC4"
		},
		{
			"bufferView":177,
			"componentType":5126,
			"count":2,
			"type":"VEC3"
		},
		{
			"bufferView":178,
			"componentType":5126,
			"count":2,
			"type":"VEC3"
		},
		{
			"bufferView":179,
			"componentType":5126,
			"count":2,
			"type":"VEC4"
		},
		{
			"bufferView":180,
			"componentType":5126,
			"count":2,
			"type":"VEC3"
		},
		{
			"bufferView":181,
			"componentType":5126,
			"count":2,
			"type":"VEC3"
		},
		{
			"bufferView":182,
			"componentType":5126,
			"count":2,
			"type":"VEC4"
		},
		{
			"bufferView":183,
			"componentType":5126,
			"count":2,
			"type":"VEC3"
		},
		{
			"bufferView":184,
			"componentType":5126,
			"count":2,
			"type":"VEC3"
		},
		{
			"bufferView":185,
			"componentType":5126,
			"count":2,
			"type":"VEC4"
		},
		{
			"bufferView":186,
			"componentType":5126,
			"count":2,
			"type":"VEC3"
		},
		{
			"bufferView":187,
			"componentType":5126,
			"count":2,
			"type":"VEC3"
		},
		{
			"bufferView":188,
			"componentType":5126,
			"count":2,
			"type":"VEC4"
		},
		{
			"bufferView":189,
			"componentType":5126,
			"count":2,
			"type":"VEC3"
		},
		{
			"bufferView":190,
			"componentType":5126,
			"count":2,
			"type":"VEC3"
		},
		{
			"bufferView":191,
			"componentType":5126,
			"count":2,
			"type":"VEC4"
		},
		{
			"bufferView":192,
			"componentType":5126,
			"count":2,
			"type":"VEC3"
		},
		{
			"bufferView":193,
			"componentType":5126,
			"count":2,
			"type":"VEC3"
		},
		{
			"bufferView":194,
			"componentType":5126,
			"count":2,
			"type":"VEC4"
		},
		{
			"bufferView":195,
			"componentType":5126,
			"count":2,
			"type":"VEC3"
		},
		{
			"bufferView":196,
			"componentType":5126,
			"count":2,
			"type":"VEC3"
		},
		{
			"bufferView":197,
			"componentType":5126,
			"count":2,
			"type":"VEC4"
		},
		{
			"bufferView":198,
			"componentType":5126,
			"count":2,
			"type":"VEC3"
		},
		{
			"bufferView":199,
			"componentType":5126,
			"count":2,
			"type":"VEC3"
		},
		{
			"bufferView":200,
			"componentType":5126,
			"count":2,
			"type":"VEC4"
		},
		{
			"bufferView":201,
			"componentType":5126,
			"count":2,
			"type":"VEC3"
		},
		{
			"bufferView":202,
			"componentType":5126,
			"count":31,
			"max":[
				1
			],
			"min":[
				0
			],
			"type":"SCALAR"
		},
		{
			"bufferView":203,
			"componentType":5126,
			"count":31,
			"type":"VEC3"
		},
		{
			"bufferView":204,
			"componentType":5126,
			"count":31,
			"type":"VEC4"
		},
		{
			"bufferView":205,
			"componentType":5126,
			"count":2,
			"max":[
				1
			],
			"min":[
				0
			],
			"type":"SCALAR"
		},
		{
			"bufferView":206,
			"componentType":5126,
			"count":2,
			"type":"VEC3"
		},
		{
			"bufferView":207,
			"componentType":5126,
			"count":2,
			"type":"VEC3"
		},
		{
			"bufferView":208,
			"componentType":5126,
			"count":2,
			"type":"VEC4"
		},
		{
			"bufferView":209,
			"componentType":5126,
			"count":2,
			"type":"VEC3"
		},
		{
			"bufferView":210,
			"componentType":5126,
			"count":2,
			"type":"VEC3"
		},
		{
			"bufferView":211,
			"componentType":5126,
			"count":31,
			"type":"VEC4"
		},
		{
			"bufferView":212,
			"componentType":5126,
			"count":2,
			"type":"VEC3"
		},
		{
			"bufferView":213,
			"componentType":5126,
			"count":2,
			"type":"VEC3"
		},
		{
			"bufferView":214,
			"componentType":5126,
			"count":2,
			"type":"VEC4"
		},
		{
			"bufferView":215,
			"componentType":5126,
			"count":2,
			"type":"VEC3"
		},
		{
			"bufferView":216,
			"componentType":5126,
			"count":2,
			"type":"VEC3"
		},
		{
			"bufferView":217,
			"componentType":5126,
			"count":2,
			"type":"VEC4"
		},
		{
			"bufferView":218,
			"componentType":5126,
			"count":2,
			"type":"VEC3"
		},
		{
			"bufferView":219,
			"componentType":5126,
			"count":2,
			"type":"VEC3"
		},
		{
			"bufferView":220,
			"componentType":5126,
			"count":31,
			"type":"VEC4"
		},
		{
			"bufferView":221,
			"componentType":5126,
			"count":2,
			"type":"VEC3"
		},
		{
			"bufferView":222,
			"componentType":5126,
			"count":2,
			"type":"VEC3"
		},
		{
			"bufferView":223,
			"componentType":5126,
			"count":2,
			"type":"VEC4"
		},
		{
			"bufferView":224,
			"componentType":5126,
			"count":2,
			"type":"VEC3"
		},
		{
			"bufferView":225,
			"componentType":5126,
			"count":2,
			"type":"VEC3"
		},
		{
			"bufferView":226,
			"componentType":5126,
			"count":2,
			"type":"VEC4"
		},
		{
			"bufferView":227,
			"componentType":5126,
			"count":2,
			"type":"VEC3"
		},
		{
			"bufferView":228,
			"componentType":5126,
			"count":2,
			"type":"VEC3"
		},
		{
			"bufferView":229,
			"componentType":5126,
			"count":31,
			"type":"VEC4"
		},
		{
			"bufferView":230,
			"componentType":5126,
			"count":2,
			"type":"VEC3"
		},
		{
			"bufferView":231,
			"componentType":5126,
			"count":2,
			"type":"VEC3"
		},
		{
			"bufferView":232,
			"componentType":5126,
			"count":2,
			"type":"VEC4"
		},
		{
			"bufferView":233,
			"componentType":5126,
			"count":2,
			"type":"VEC3"
		},
		{
			"bufferView":234,
			"componentType":5126,
			"count":2,
			"type":"VEC3"
		},
		{
			"bufferView":235,
			"componentType":5126,
			"count":2,
			"type":"VEC4"
		},
		{
			"bufferView":236,
			"componentType":5126,
			"count":2,
			"type":"VEC3"
		},
		{
			"bufferView":237,
			"componentType":5126,
			"count":2,
			"type":"VEC3"
		},
		{
			"bufferView":238,
			"componentType":5126,
			"count":31,
			"type":"VEC4"
		},
		{
			"bufferView":239,
			"componentType":5126,
			"count":2,
			"type":"VEC3"
		},
		{
			"bufferView":240,
			"componentType":5126,
			"count":2,
			"type":"VEC3"
		},
		{
			"bufferView":241,
			"componentType":5126,
			"count":31,
			"type":"VEC4"
		},
		{
			"bufferView":242,
			"componentType":5126,
			"count":2,
			"type":"VEC3"
		},
		{
			"bufferView":243,
			"componentType":5126,
			"count":2,
			"type":"VEC3"
		},
		{
			"bufferView":244,
			"componentType":5126,
			"count":31,
			"type":"VEC4"
		},
		{
			"bufferView":245,
			"componentType":5126,
			"count":2,
			"type":"VEC3"
		},
		{
			"bufferView":246,
			"componentType":5126,
			"count":2,
			"type":"VEC3"
		},
		{
			"bufferView":247,
			"componentType":5126,
			"count":31,
			"type":"VEC4"
		},
		{
			"bufferView":248,
			"componentType":5126,
			"count":2,
			"type":"VEC3"
		},
		{
			"bufferView":249,
			"componentType":5126,
			"count":2,
			"type":"VEC3"
		},
		{
			"bufferView":250,
			"componentType":5126,
			"count":31,
			"type":"VEC4"
		},
		{
			"bufferView":251,
			"componentType":5126,
			"count":2,
			"type":"VEC3"
		},
		{
			"bufferView":252,
			"componentType":5126,
			"count":2,
			"type":"VEC3"
		},
		{
			"bufferView":253,
			"componentType":5126,
			"count":31,
			"type":"VEC4"
		},
		{
			"bufferView":254,
			"componentType":5126,
			"count":2,
			"type":"VEC3"
		}
	],
	"bufferViews":[
		{
			"buffer":0,
			"byteLength":11916,
			"byteOffset":0,
			"target":34962
		},
		{
			"buffer":0,
			"byteLength":11916,
			"byteOffset":11916,
			"target":34962
		},
		{
			"buffer":0,
			"byteLength":7944,
			"byteOffset":23832,
			"target":34962
		},
		{
			"buffer":0,
			"byteLength":3972,
			"byteOffset":31776,
			"target":34962
		},
		{
			"buffer":0,
			"byteLength":15888,
			"byteOffset":35748,
			"target":34962
		},
		{
			"buffer":0,
			"byteLength":8016,
			"byteOffset":51636,
			"target":34963
		},
		{
			"buffer":0,
			"byteLength":576,
			"byteOffset":59652,
			"target":34962
		},
		{
			"buffer":0,
			"byteLength":576,
			"byteOffset":60228,
			"target":34962
		},
		{
			"buffer":0,
			"byteLength":384,
			"byteOffset":60804,
			"target":34962
		},
		{
			"buffer":0,
			"byteLength":192,
			"byteOffset":61188,
			"target":34962
		},
		{
			"buffer":0,
			"byteLength":768,
			"byteOffset":61380,
			"target":34962
		},
		{
			"buffer":0,
			"byteLength":144,
			"byteOffset":62148,
			"target":34963
		},
		{
			"buffer":0,
			"byteLength":12960,
			"byteOffset":62292,
			"target":34962
		},
		{
			"buffer":0,
			"byteLength":12960,
			"byteOffset":75252,
			"target":34962
		},
		{
			"buffer":0,
			"byteLength":8640,
			"byteOffset":88212,
			"target":34962
		},
		{
			"buffer":0,
			"byteLength":4320,
			"byteOffset":96852,
			"target":34962
		},
		{
			"buffer":0,
			"byteLength":17280,
			"byteOffset":101172,
			"target":34962
		},
		{
			"buffer":0,
			"byteLength":9696,
			"byteOffset":118452,
			"target":34963
		},
		{
			"buffer":0,
			"byteLength":720,
			"byteOffset":128148,
			"target":34962
		},
		{
			"buffer":0,
			"byteLength":720,
			"byteOffset":128868,
			"target":34962
		},
		{
			"buffer":0,
			"byteLength":480,
			"byteOffset":129588,
			"target":34962
		},
		{
			"buffer":0,
			"byteLength":240,
			"byteOffset":130068,
			"target":34962
		},
		{
			"buffer":0,
			"byteLength":960,
			"byteOffset":130308,
			"target":34962
		},
		{
			"buffer":0,
			"byteLength":336,
			"byteOffset":131268,
			"target":34963
		},
		{
			"buffer":0,
			"byteLength":8100,
			"byteOffset":131604,
			"target":34962
		},
		{
			"buffer":0,
			"byteLength":8100,
			"byteOffset":139704,
			"target":34962
		},
		{
			"buffer":0,
			"byteLength":5400,
			"byteOffset":147804,
			"target":34962
		},
		{
			"buffer":0,
			"byteLength":2700,
			"byteOffset":153204,
			"target":34962
		},
		{
			"buffer":0,
			"byteLength":10800,
			"byteOffset":155904,
			"target":34962
		},
		{
			"buffer":0,
			"byteLength":5616,
			"byteOffset":166704,
			"target":34963
		},
		{
			"buffer":0,
			"byteLength":15984,
			"byteOffset":172320,
			"target":34962
		},
		{
			"buffer":0,
			"byteLength":15984,
			"byteOffset":188304,
			"target":34962
		},
		{
			"buffer":0,
			"byteLength":10656,
			"byteOffset":204288,
			"target":34962
		},
		{
			"buffer":0,
			"byteLength":5328,
			"byteOffset":214944,
			"target":34962
		},
		{
			"buffer":0,
			"byteLength":21312,
			"byteOffset":220272,
			"target":34962
		},
		{
			"buffer":0,
			"byteLength":11520,
			"byteOffset":241584,
			"target":34963
		},
		{
			"buffer":0,
			"byteLength":3648,
			"byteOffset":253104,
			"target":34962
		},
		{
			"buffer":0,
			"byteLength":3648,
			"byteOffset":256752,
			"target":34962
		},
		{
			"buffer":0,
			"byteLength":2432,
			"byteOffset":260400,
			"target":34962
		},
		{
			"buffer":0,
			"byteLength":1216,
			"byteOffset":262832,
			"target":34962
		},
		{
			"buffer":0,
			"byteLength":4864,
			"byteOffset":264048,
			"target":34962
		},
		{
			"buffer":0,
			"byteLength":2304,
			"byteOffset":268912,
			"target":34963
		},
		{
			"buffer":0,
			"byteLength":2640,
			"byteOffset":271216,
			"target":34962
		},
		{
			"buffer":0,
			"byteLength":2640,
			"byteOffset":273856,
			"target":34962
		},
		{
			"buffer":0,
			"byteLength":1760,
			"byteOffset":276496,
			"target":34962
		},
		{
			"buffer":0,
			"byteLength":880,
			"byteOffset":278256,
			"target":34962
		},
		{
			"buffer":0,
			"byteLength":3520,
			"byteOffset":279136,
			"target":34962
		},
		{
			"buffer":0,
			"byteLength":1440,
			"byteOffset":282656,
			"target":34963
		},
		{
			"buffer":0,
			"byteLength":3120,
			"byteOffset":284096,
			"target":34962
		},
		{
			"buffer":0,
			"byteLength":3120,
			"byteOffset":287216,
			"target":34962
		},
		{
			"buffer":0,
			"byteLength":2080,
			"byteOffset":290336,
			"target":34962
		},
		{
			"buffer":0,
			"byteLength":1040,
			"byteOffset":292416,
			"target":34962
		},
		{
			"buffer":0,
			"byteLength":4160,
			"byteOffset":293456,
			"target":34962
		},
		{
			"buffer":0,
			"byteLength":1536,
			"byteOffset":297616,
			"target":34963
		},
		{
			"buffer":0,
			"byteLength":1176,
			"byteOffset":299152,
			"target":34962
		},
		{
			"buffer":0,
			"byteLength":1176,
			"byteOffset":300328,
			"target":34962
		},
		{
			"buffer":0,
			"byteLength":784,
			"byteOffset":301504,
			"target":34962
		},
		{
			"buffer":0,
			"byteLength":392,
			"byteOffset":302288,
			"target":34962
		},
		{
			"buffer":0,
			"byteLength":1568,
			"byteOffset":302680,
			"target":34962
		},
		{
			"buffer":0,
			"byteLength":720,
			"byteOffset":304248,
			"target":34963
		},
		{
			"buffer":0,
			"byteLength":11628,
			"byteOffset":304968,
			"target":34962
		},
		{
			"buffer":0,
			"byteLength":11628,
			"byteOffset":316596,
			"target":34962
		},
		{
			"buffer":0,
			"byteLength":7752,
			"byteOffset":328224,
			"target":34962
		},
		{
			"buffer":0,
			"byteLength":3876,
			"byteOffset":335976,
			"target":34962
		},
		{
			"buffer":0,
			"byteLength":15504,
			"byteOffset":339852,
			"target":34962
		},
		{
			"buffer":0,
			"byteLength":7704,
			"byteOffset":355356,
			"target":34963
		},
		{
			"buffer":0,
			"byteLength":1056,
			"byteOffset":363060,
			"target":34962
		},
		{
			"buffer":0,
			"byteLength":1056,
			"byteOffset":364116,
			"target":34962
		},
		{
			"buffer":0,
			"byteLength":704,
			"byteOffset":365172,
			"target":34962
		},
		{
			"buffer":0,
			"byteLength":352,
			"byteOffset":365876,
			"target":34962
		},
		{
			"buffer":0,
			"byteLength":1408,
			"byteOffset":366228,
			"target":34962
		},
		{
			"buffer":0,
			"byteLength":432,
			"byteOffset":367636,
			"target":34963
		},
		{
			"buffer":0,
			"byteLength":288,
			"byteOffset":368068,
			"target":34962
		},
		{
			"buffer":0,
			"byteLength":288,
			"byteOffset":368356,
			"target":34962
		},
		{
			"buffer":0,
			"byteLength":192,
			"byteOffset":368644,
			"target":34962
		},
		{
			"buffer":0,
			"byteLength":96,
			"byteOffset":368836,
			"target":34962
		},
		{
			"buffer":0,
			"byteLength":384,
			"byteOffset":368932,
			"target":34962
		},
		{
			"buffer":0,
			"byteLength":72,
			"byteOffset":369316,
			"target":34963
		},
		{
			"buffer":0,
			"byteLength":1296,
			"byteOffset":369388,
			"target":34962
		},
		{
			"buffer":0,
			"byteLength":1296,
			"byteOffset":370684,
			"target":34962
		},
		{
			"buffer":0,
			"byteLength":864,
			"byteOffset":371980,
			"target":34962
		},
		{
			"buffer":0,
			"byteLength":432,
			"byteOffset":372844,
			"target":34962
		},
		{
			"buffer":0,
			"byteLength":1728,
			"byteOffset":373276,
			"target":34962
		},
		{
			"buffer":0,
			"byteLength":312,
			"byteOffset":375004,
			"target":34963
		},
		{
			"buffer":0,
			"byteLength":504,
			"byteOffset":375316,
			"target":34962
		},
		{
			"buffer":0,
			"byteLength":504,
			"byteOffset":375820,
			"target":34962
		},
		{
			"buffer":0,
			"byteLength":336,
			"byteOffset":376324,
			"target":34962
		},
		{
			"buffer":0,
			"byteLength":168,
			"byteOffset":376660,
			"target":34962
		},
		{
			"buffer":0,
			"byteLength":672,
			"byteOffset":376828,
			"target":34962
		},
		{
			"buffer":0,
			"byteLength":192,
			"byteOffset":377500,
			"target":34963
		},
		{
			"buffer":0,
			"byteLength":288,
			"byteOffset":377692,
			"target":34962
		},
		{
			"buffer":0,
			"byteLength":288,
			"byteOffset":377980,
			"target":34962
		},
		{
			"buffer":0,
			"byteLength":192,
			"byteOffset":378268,
			"target":34962
		},
		{
			"buffer":0,
			"byteLength":96,
			"byteOffset":378460,
			"target":34962
		},
		{
			"buffer":0,
			"byteLength":384,
			"byteOffset":378556,
			"target":34962
		},
		{
			"buffer":0,
			"byteLength":1088,
			"byteOffset":378940
		},
		{
			"buffer":0,
			"byteLength":8,
			"byteOffset":380028
		},
		{
			"buffer":0,
			"byteLength":24,
			"byteOffset":380036
		},
		{
			"buffer":0,
			"byteLength":32,
			"byteOffset":380060
		},
		{
			"buffer":0,
			"byteLength":24,
			"byteOffset":380092
		},
		{
			"buffer":0,
			"byteLength":24,
			"byteOffset":380116
		},
		{
			"buffer":0,
			"byteLength":32,
			"byteOffset":380140
		},
		{
			"buffer":0,
			"byteLength":24,
			"byteOffset":380172
		},
		{
			"buffer":0,
			"byteLength":24,
			"byteOffset":380196
		},
		{
			"buffer":0,
			"byteLength":76,
			"byteOffset":380220
		},
		{
			"buffer":0,
			"byteLength":304,
			"byteOffset":380296
		},
		{
			"buffer":0,
			"byteLength":24,
			"byteOffset":380600
		},
		{
			"buffer":0,
			"byteLength":24,
			"byteOffset":380624
		},
		{
			"buffer":0,
			"byteLength":32,
			"byteOffset":380648
		},
		{
			"buffer":0,
			"byteLength":24,
			"byteOffset":380680
		},
		{
			"buffer":0,
			"byteLength":24,
			"byteOffset":380704
		},
		{
			"buffer":0,
			"byteLength":32,
			"byteOffset":380728
		},
		{
			"buffer":0,
			"byteLength":24,
			"byteOffset":380760
		},
		{
			"buffer":0,
			"byteLength":24,
			"byteOffset":380784
		},
		{
			"buffer":0,
			"byteLength":304,
			"byteOffset":380808
		},
		{
			"buffer":0,
			"byteLength":24,
			"byteOffset":381112
		},
		{
			"buffer":0,
			"byteLength":24,
			"byteOffset":381136
		},
		{
			"buffer":0,
			"byteLength":304,
			"byteOffset":381160
		},
		{
			"buffer":0,
			"byteLength":24,
			"byteOffset":381464
		},
		{
			"buffer":0,
			"byteLength":24,
			"byteOffset":381488
		},
		{
			"buffer":0,
			"byteLength":32,
			"byteOffset":381512
		},
		{
			"buffer":0,
			"byteLength":24,
			"byteOffset":381544
		},
		{
			"buffer":0,
			"byteLength":24,
			"byteOffset":381568
		},
		{
			"buffer":0,
			"byteLength":304,
			"byteOffset":381592
		},
		{
			"buffer":0,
			"byteLength":24,
			"byteOffset":381896
		},
		{
			"buffer":0,
			"byteLength":24,
			"byteOffset":381920
		},
		{
			"buffer":0,
			"byteLength":32,
			"byteOffset":381944
		},
		{
			"buffer":0,
			"byteLength":24,
			"byteOffset":381976
		},
		{
			"buffer":0,
			"byteLength":24,
			"byteOffset":382000
		},
		{
			"buffer":0,
			"byteLength":32,
			"byteOffset":382024
		},
		{
			"buffer":0,
			"byteLength":24,
			"byteOffset":382056
		},
		{
			"buffer":0,
			"byteLength":24,
			"byteOffset":382080
		},
		{
			"buffer":0,
			"byteLength":304,
			"byteOffset":382104
		},
		{
			"buffer":0,
			"byteLength":24,
			"byteOffset":382408
		},
		{
			"buffer":0,
			"byteLength":24,
			"byteOffset":382432
		},
		{
			"buffer":0,
			"byteLength":32,
			"byteOffset":382456
		},
		{
			"buffer":0,
			"byteLength":24,
			"byteOffset":382488
		},
		{
			"buffer":0,
			"byteLength":24,
			"byteOffset":382512
		},
		{
			"buffer":0,
			"byteLength":32,
			"byteOffset":382536
		},
		{
			"buffer":0,
			"byteLength":24,
			"byteOffset":382568
		},
		{
			"buffer":0,
			"byteLength":24,
			"byteOffset":382592
		},
		{
			"buffer":0,
			"byteLength":304,
			"byteOffset":382616
		},
		{
			"buffer":0,
			"byteLength":24,
			"byteOffset":382920
		},
		{
			"buffer":0,
			"byteLength":24,
			"byteOffset":382944
		},
		{
			"buffer":0,
			"byteLength":32,
			"byteOffset":382968
		},
		{
			"buffer":0,
			"byteLength":24,
			"byteOffset":383000
		},
		{
			"buffer":0,
			"byteLength":24,
			"byteOffset":383024
		},
		{
			"buffer":0,
			"byteLength":32,
			"byteOffset":383048
		},
		{
			"buffer":0,
			"byteLength":24,
			"byteOffset":383080
		},
		{
			"buffer":0,
			"byteLength":244,
			"byteOffset":383104
		},
		{
			"buffer":0,
			"byteLength":732,
			"byteOffset":383348
		},
		{
			"buffer":0,
			"byteLength":8,
			"byteOffset":384080
		},
		{
			"buffer":0,
			"byteLength":32,
			"byteOffset":384088
		},
		{
			"buffer":0,
			"byteLength":24,
			"byteOffset":384120
		},
		{
			"buffer":0,
			"byteLength":24,
			"byteOffset":384144
		},
		{
			"buffer":0,
			"byteLength":32,
			"byteOffset":384168
		},
		{
			"buffer":0,
			"byteLength":24,
			"byteOffset":384200
		},
		{
			"buffer":0,
			"byteLength":24,
			"byteOffset":384224
		},
		{
			"buffer":0,
			"byteLength":976,
			"byteOffset":384248
		},
		{
			"buffer":0,
			"byteLength":24,
			"byteOffset":385224
		},
		{
			"buffer":0,
			"byteLength":24,
			"byteOffset":385248
		},
		{
			"buffer":0,
			"byteLength":32,
			"byteOffset":385272
		},
		{
			"buffer":0,
			"byteLength":24,
			"byteOffset":385304
		},
		{
			"buffer":0,
			"byteLength":24,
			"byteOffset":385328
		},
		{
			"buffer":0,
			"byteLength":976,
			"byteOffset":385352
		},
		{
			"buffer":0,
			"byteLength":24,
			"byteOffset":386328
		},
		{
			"buffer":0,
			"byteLength":24,
			"byteOffset":386352
		},
		{
			"buffer":0,
			"byteLength":976,
			"byteOffset":386376
		},
		{
			"buffer":0,
			"byteLength":24,
			"byteOffset":387352
		},
		{
			"buffer":0,
			"byteLength":24,
			"byteOffset":387376
		},
		{
			"buffer":0,
			"byteLength":32,
			"byteOffset":387400
		},
		{
			"buffer":0,
			"byteLength":24,
			"byteOffset":387432
		},
		{
			"buffer":0,
			"byteLength":24,
			"byteOffset":387456
		},
		{
			"buffer":0,
			"byteLength":32,
			"byteOffset":387480
		},
		{
			"buffer":0,
			"byteLength":24,
			"byteOffset":387512
		},
		{
			"buffer":0,
			"byteLength":24,
			"byteOffset":387536
		},
		{
			"buffer":0,
			"byteLength":976,
			"byteOffset":387560
		},
		{
			"buffer":0,
			"byteLength":24,
			"byteOffset":388536
		},
		{
			"buffer":0,
			"byteLength":24,
			"byteOffset":388560
		},
		{
			"buffer":0,
			"byteLength":32,
			"byteOffset":388584
		},
		{
			"buffer":0,
			"byteLength":24,
			"byteOffset":388616
		},
		{
			"buffer":0,
			"byteLength":24,
			"byteOffset":388640
		},
		{
			"buffer":0,
			"byteLength":32,
			"byteOffset":388664
		},
		{
			"buffer":0,
			"byteLength":24,
			"byteOffset":388696
		},
		{
			"buffer":0,
			"byteLength":24,
			"byteOffset":388720
		},
		{
			"buffer":0,
			"byteLength":32,
			"byteOffset":388744
		},
		{
			"buffer":0,
			"byteLength":24,
			"byteOffset":388776
		},
		{
			"buffer":0,
			"byteLength":24,
			"byteOffset":388800
		},
		{
			"buffer":0,
			"byteLength":32,
			"byteOffset":388824
		},
		{
			"buffer":0,
			"byteLength":24,
			"byteOffset":388856
		},
		{
			"buffer":0,
			"byteLength":24,
			"byteOffset":388880
		},
		{
			"buffer":0,
			"byteLength":32,
			"byteOffset":388904
		},
		{
			"buffer":0,
			"byteLength":24,
			"byteOffset":388936
		},
		{
			"buffer":0,
			"byteLength":24,
			"byteOffset":388960
		},
		{
			"buffer":0,
			"byteLength":32,
			"byteOffset":388984
		},
		{
			"buffer":0,
			"byteLength":24,
			"byteOffset":389016
		},
		{
			"buffer":0,
			"byteLength":24,
			"byteOffset":389040
		},
		{
			"buffer":0,
			"byteLength":32,
			"byteOffset":389064
		},
		{
			"buffer":0,
			"byteLength":24,
			"byteOffset":389096
		},
		{
			"buffer":0,
			"byteLength":24,
			"byteOffset":389120
		},
		{
			"buffer":0,
			"byteLength":32,
			"byteOffset":389144
		},
		{
			"buffer":0,
			"byteLength":24,
			"byteOffset":389176
		},
		{
			"buffer":0,
			"byteLength":124,
			"byteOffset":389200
		},
		{
			"buffer":0,
			"byteLength":372,
			"byteOffset":389324
		},
		{
			"buffer":0,
			"byteLength":496,
			"byteOffset":389696
		},
		{
			"buffer":0,
			"byteLength":8,
			"byteOffset":390192
		},
		{
			"buffer":0,
			"byteLength":24,
			"byteOffset":390200
		},
		{
			"buffer":0,
			"byteLength":24,
			"byteOffset":390224
		},
		{
			"buffer":0,
			"byteLength":32,
			"byteOffset":390248
		},
		{
			"buffer":0,
			"byteLength":24,
			"byteOffset":390280
		},
		{
			"buffer":0,
			"byteLength":24,
			"byteOffset":390304
		},
		{
			"buffer":0,
			"byteLength":496,
			"byteOffset":390328
		},
		{
			"buffer":0,
			"byteLength":24,
			"byteOffset":390824
		},
		{
			"buffer":0,
			"byteLength":24,
			"byteOffset":390848
		},
		{
			"buffer":0,
			"byteLength":32,
			"byteOffset":390872
		},
		{
			"buffer":0,
			"byteLength":24,
			"byteOffset":390904
		},
		{
			"buffer":0,
			"byteLength":24,
			"byteOffset":390928
		},
		{
			"buffer":0,
			"byteLength":32,
			"byteOffset":390952
		},
		{
			"buffer":0,
			"byteLength":24,
			"byteOffset":390984
		},
		{
			"buffer":0,
			"byteLength":24,
			"byteOffset":391008
		},
		{
			"buffer":0,
			"byteLength":496,
			"byteOffset":391032
		},
		{
			"buffer":0,
			"byteLength":24,
			"byteOffset":391528
		},
		{
			"buffer":0,
			"byteLength":24,
			"byteOffset":391552
		},
		{
			"buffer":0,
			"byteLength":32,
			"byteOffset":391576
		},
		{
			"buffer":0,
			"byteLength":24,
			"byteOffset":391608
		},
		{
			"buffer":0,
			"byteLength":24,
			"byteOffset":391632
		},
		{
			"buffer":0,
			"byteLength":32,
			"byteOffset":391656
		},
		{
			"buffer":0,
			"byteLength":24,
			"byteOffset":391688
		},
		{
			"buffer":0,
			"byteLength":24,
			"byteOffset":391712
		},
		{
			"buffer":0,
			"byteLength":496,
			"byteOffset":391736
		},
		{
			"buffer":0,
			"byteLength":24,
			"byteOffset":392232
		},
		{
			"buffer":0,
			"byteLength":24,
			"byteOffset":392256
		},
		{
			"buffer":0,
			"byteLength":32,
			"byteOffset":392280
		},
		{
			"buffer":0,
			"byteLength":24,
			"byteOffset":392312
		},
		{
			"buffer":0,
			"byteLength":24,
			"byteOffset":392336
		},
		{
			"buffer":0,
			"byteLength":32,
			"byteOffset":392360
		},
		{
			"buffer":0,
			"byteLength":24,
			"byteOffset":392392
		},
		{
			"buffer":0,
			"byteLength":24,
			"byteOffset":392416
		},
		{
			"buffer":0,
			"byteLength":496,
			"byteOffset":392440
		},
		{
			"buffer":0,
			"byteLength":24,
			"byteOffset":392936
		},
		{
			"buffer":0,
			"byteLength":24,
			"byteOffset":392960
		},
		{
			"buffer":0,
			"byteLength":496,
			"byteOffset":392984
		},
		{
			"buffer":0,
			"byteLength":24,
			"byteOffset":393480
		},
		{
			"buffer":0,
			"byteLength":24,
			"byteOffset":393504
		},
		{
			"buffer":0,
			"byteLength":496,
			"byteOffset":393528
		},
		{
			"buffer":0,
			"byteLength":24,
			"byteOffset":394024
		},
		{
			"buffer":0,
			"byteLength":24,
			"byteOffset":394048
		},
		{
			"buffer":0,
			"byteLength":496,
			"byteOffset":394072
		},
		{
			"buffer":0,
			"byteLength":24,
			"byteOffset":394568
		},
		{
			"buffer":0,
			"byteLength":24,
			"byteOffset":394592
		},
		{
			"buffer":0,
			"byteLength":496,
			"byteOffset":394616
		},
		{
			"buffer":0,
			"byteLength":24,
			"byteOffset":395112
		},
		{
			"buffer":0,
			"byteLength":24,
			"byteOffset":395136
		},
		{
			"buffer":0,
			"byteLength":496,
			"byteOffset":395160
		},
		{
			"buffer":0,
			"byteLength":24,
			"byteOffset":395656
		}
	],
	"samplers":[
		{
			"magFilter":9729,
			"minFilter":9987
		}
	],
	"buffers":[
		{
			"byteLength":395680,
			"uri":"orc_knight.bin"
		}
	]
}
