{
	"asset":{
		"generator":"Khronos glTF Blender I/O v4.2.57",
		"version":"2.0"
	},
	"extensionsUsed":[
		"KHR_materials_clearcoat",
		"KHR_materials_emissive_strength",
		"KHR_materials_sheen"
	],
	"scene":0,
	"scenes":[
		{
			"name":"Scene",
			"nodes":[
				20
			]
		}
	],
	"nodes":[
		{
			"name":"head",
			"scale":[
				1,
				0.9999999403953552,
				1
			],
			"translation":[
				0,
				0.04499995708465576,
				0
			]
		},
		{
			"children":[
				0
			],
			"name":"neck",
			"translation":[
				0,
				0.09450000524520874,
				0
			]
		},
		{
			"name":"hand.R",
			"rotation":[
				-0.0023571928031742573,
				-0.016418326646089554,
				0.017660995945334435,
				0.9997064471244812
			],
			"scale":[
				1,
				0.9999999403953552,
				1
			],
			"translation":[
				4.976755008101463e-09,
				0.11312457919120789,
				-1.3969838619232178e-09
			]
		},
		{
			"children":[
				2
			],
			"name":"forearm.R",
			"rotation":[
				0.05022275820374489,
				-0.05592823028564453,
				0.06416800618171692,
				0.9951040744781494
			],
			"scale":[
				0.9999998807907104,
				1,
				1
			],
			"translation":[
				3.2247044146060944e-08,
				0.12365584820508957,
				2.0954757928848267e-09
			]
		},
		{
			"children":[
				3
			],
			"name":"upper_arm.R",
			"rotation":[
				0.9912914633750916,
				0.09286590665578842,
				0.09286509454250336,
				0.00965566374361515
			],
			"scale":[
				1.0000051259994507,
				1.0000001192092896,
				1.0000001192092896
			],
			"translation":[
				0.07739999890327454,
				0.07199996709823608,
				0
			]
		},
		{
			"name":"hand.L",
			"rotation":[
				-0.0023571928031742573,
				0.016418326646089554,
				-0.017660995945334435,
				0.9997064471244812
			],
			"scale":[
				1,
				0.9999999403953552,
				1
			],
			"translation":[
				-4.976755008101463e-09,
				0.11312457919120789,
				-1.3969838619232178e-09
			]
		},
		{
			"children":[
				5
			],
			"name":"forearm.L",
			"rotation":[
				0.05022275820374489,
				0.05592823028564453,
				-0.06416800618171692,
				0.9951040744781494
			],
			"scale":[
				0.9999998807907104,
				1,
				1
			],
			"translation":[
				-3.2247044146060944e-08,
				0.12365584820508957,
				2.0954757928848267e-09
			]
		},
		{
			"children":[
				6
			],
			"name":"upper_arm.L",
			"rotation":[
				0.9912914633750916,
				-0.09286590665578842,
				-0.09286509454250336,
				0.00965566374361515
			],
			"scale":[
				1.0000051259994507,
				1.0000001192092896,
				1.0000001192092896
			],
			"translation":[
				-0.07739999890327454,
				0.07199996709823608,
				0
			]
		},
		{
			"name":"wing.R",
			"rotation":[
				-0.37224483489990234,
				-0.51365727186203,
				-0.51365727186203,
				0.5777077674865723
			],
			"scale":[
				1,
				0.9999999403953552,
				1
			],
			"translation":[
				0,
				0.03149998188018799,
				0.053999997675418854
			]
		},
		{
			"name":"wing.L",
			"rotation":[
				-0.37224483489990234,
				0.51365727186203,
				0.51365727186203,
				0.5777077674865723
			],
			"scale":[
				1,
				0.9999999403953552,
				1
			],
			"translation":[
				0,
				0.03149998188018799,
				0.053999997675418854
			]
		},
		{
			"children":[
				1,
				4,
				7,
				8,
				9
			],
			"name":"chest",
			"translation":[
				0,
				0.07649999856948853,
				0
			]
		},
		{
			"children":[
				10
			],
			"name":"spine",
			"translation":[
				0,
				0.06749999523162842,
				0
			]
		},
		{
			"name":"foot.R",
			"rotation":[
				0.5914181470870972,
				2.0654286614352202e-10,
				2.8161981080465637e-10,
				0.8063650727272034
			],
			"translation":[
				-3.6972105377230946e-09,
				0.18476541340351105,
				2.447109181957785e-11
			]
		},
		{
			"children":[
				12
			],
			"name":"shin.R",
			"rotation":[
				-0.04152866080403328,
				-0.010850721038877964,
				0.010284051299095154,
				0.9990254640579224
			],
			"scale":[
				1,
				1.0000001192092896,
				1.0000001192092896
			],
			"translation":[
				-2.255546860396862e-09,
				0.18462152779102325,
				1.1641532182693481e-10
			]
		},
		{
			"children":[
				13
			],
			"name":"thigh.R",
			"rotation":[
				-0.9997796416282654,
				-0.010571165010333061,
				-0.010571296326816082,
				0.014739511534571648
			],
			"scale":[
				1.0000001192092896,
				0.9999999403953552,
				1.000000238418579
			],
			"translation":[
				0.04553999751806259,
				-0.009000003337860107,
				0
			]
		},
		{
			"name":"foot.L",
			"rotation":[
				0.5914181470870972,
				-2.0654286614352202e-10,
				-2.8161981080465637e-10,
				0.8063650727272034
			],
			"translation":[
				3.6972105377230946e-09,
				0.18476541340351105,
				2.447109181957785e-11
			]
		},
		{
			"children":[
				15
			],
			"name":"shin.L",
			"rotation":[
				-0.04152866080403328,
				0.010850721038877964,
				-0.010284051299095154,
				0.9990254640579224
			],
			"scale":[
				1,
				1.0000001192092896,
				1.0000001192092896
			],
			"translation":[
				2.255546860396862e-09,
				0.18462152779102325,
				1.1641532182693481e-10
			]
		},
		{
			"children":[
				16
			],
			"name":"thigh.L",
			"rotation":[
				-0.9997796416282654,
				0.010571165010333061,
				0.010571296326816082,
				0.014739511534571648
			],
			"scale":[
				1.0000001192092896,
				0.9999999403953552,
				1.000000238418579
			],
			"translation":[
				-0.04553999751806259,
				-0.009000003337860107,
				0
			]
		},
		{
			"children":[
				11,
				14,
				17
			],
			"name":"hips",
			"translation":[
				0,
				0.41850000619888306,
				0
			]
		},
		{
			"mesh":0,
			"name":"ramiris",
			"skin":0
		},
		{
			"children":[
				19,
				18
			],
			"name":"ramiris_rig"
		}
	],
	"animations":[
		{
			"channels":[
				{
					"sampler":0,
					"target":{
						"node":18,
						"path":"translation"
					}
				},
				{
					"sampler":1,
					"target":{
						"node":18,
						"path":"rotation"
					}
				},
				{
					"sampler":2,
					"target":{
						"node":18,
						"path":"scale"
					}
				},
				{
					"sampler":3,
					"target":{
						"node":11,
						"path":"translation"
					}
				},
				{
					"sampler":4,
					"target":{
						"node":11,
						"path":"rotation"
					}
				},
				{
					"sampler":5,
					"target":{
						"node":11,
						"path":"scale"
					}
				},
				{
					"sampler":6,
					"target":{
						"node":10,
						"path":"translation"
					}
				},
				{
					"sampler":7,
					"target":{
						"node":10,
						"path":"rotation"
					}
				},
				{
					"sampler":8,
					"target":{
						"node":10,
						"path":"scale"
					}
				},
				{
					"sampler":9,
					"target":{
						"node":1,
						"path":"translation"
					}
				},
				{
					"sampler":10,
					"target":{
						"node":1,
						"path":"rotation"
					}
				},
				{
					"sampler":11,
					"target":{
						"node":1,
						"path":"scale"
					}
				},
				{
					"sampler":12,
					"target":{
						"node":0,
						"path":"translation"
					}
				},
				{
					"sampler":13,
					"target":{
						"node":0,
						"path":"rotation"
					}
				},
				{
					"sampler":14,
					"target":{
						"node":0,
						"path":"scale"
					}
				},
				{
					"sampler":15,
					"target":{
						"node":4,
						"path":"translation"
					}
				},
				{
					"sampler":16,
					"target":{
						"node":4,
						"path":"rotation"
					}
				},
				{
					"sampler":17,
					"target":{
						"node":4,
						"path":"scale"
					}
				},
				{
					"sampler":18,
					"target":{
						"node":3,
						"path":"translation"
					}
				},
				{
					"sampler":19,
					"target":{
						"node":3,
						"path":"rotation"
					}
				},
				{
					"sampler":20,
					"target":{
						"node":3,
						"path":"scale"
					}
				},
				{
					"sampler":21,
					"target":{
						"node":2,
						"path":"translation"
					}
				},
				{
					"sampler":22,
					"target":{
						"node":2,
						"path":"rotation"
					}
				},
				{
					"sampler":23,
					"target":{
						"node":2,
						"path":"scale"
					}
				},
				{
					"sampler":24,
					"target":{
						"node":7,
						"path":"translation"
					}
				},
				{
					"sampler":25,
					"target":{
						"node":7,
						"path":"rotation"
					}
				},
				{
					"sampler":26,
					"target":{
						"node":7,
						"path":"scale"
					}
				},
				{
					"sampler":27,
					"target":{
						"node":6,
						"path":"translation"
					}
				},
				{
					"sampler":28,
					"target":{
						"node":6,
						"path":"rotation"
					}
				},
				{
					"sampler":29,
					"target":{
						"node":6,
						"path":"scale"
					}
				},
				{
					"sampler":30,
					"target":{
						"node":5,
						"path":"translation"
					}
				},
				{
					"sampler":31,
					"target":{
						"node":5,
						"path":"rotation"
					}
				},
				{
					"sampler":32,
					"target":{
						"node":5,
						"path":"scale"
					}
				},
				{
					"sampler":33,
					"target":{
						"node":8,
						"path":"translation"
					}
				},
				{
					"sampler":34,
					"target":{
						"node":8,
						"path":"rotation"
					}
				},
				{
					"sampler":35,
					"target":{
						"node":8,
						"path":"scale"
					}
				},
				{
					"sampler":36,
					"target":{
						"node":9,
						"path":"translation"
					}
				},
				{
					"sampler":37,
					"target":{
						"node":9,
						"path":"rotation"
					}
				},
				{
					"sampler":38,
					"target":{
						"node":9,
						"path":"scale"
					}
				},
				{
					"sampler":39,
					"target":{
						"node":14,
						"path":"translation"
					}
				},
				{
					"sampler":40,
					"target":{
						"node":14,
						"path":"rotation"
					}
				},
				{
					"sampler":41,
					"target":{
						"node":14,
						"path":"scale"
					}
				},
				{
					"sampler":42,
					"target":{
						"node":13,
						"path":"translation"
					}
				},
				{
					"sampler":43,
					"target":{
						"node":13,
						"path":"rotation"
					}
				},
				{
					"sampler":44,
					"target":{
						"node":13,
						"path":"scale"
					}
				},
				{
					"sampler":45,
					"target":{
						"node":12,
						"path":"translation"
					}
				},
				{
					"sampler":46,
					"target":{
						"node":12,
						"path":"rotation"
					}
				},
				{
					"sampler":47,
					"target":{
						"node":12,
						"path":"scale"
					}
				},
				{
					"sampler":48,
					"target":{
						"node":17,
						"path":"translation"
					}
				},
				{
					"sampler":49,
					"target":{
						"node":17,
						"path":"rotation"
					}
				},
				{
					"sampler":50,
					"target":{
						"node":17,
						"path":"scale"
					}
				},
				{
					"sampler":51,
					"target":{
						"node":16,
						"path":"translation"
					}
				},
				{
					"sampler":52,
					"target":{
						"node":16,
						"path":"rotation"
					}
				},
				{
					"sampler":53,
					"target":{
						"node":16,
						"path":"scale"
					}
				},
				{
					"sampler":54,
					"target":{
						"node":15,
						"path":"translation"
					}
				},
				{
					"sampler":55,
					"target":{
						"node":15,
						"path":"rotation"
					}
				},
				{
					"sampler":56,
					"target":{
						"node":15,
						"path":"scale"
					}
				}
			],
			"name":"attack",
			"samplers":[
				{
					"input":79,
					"interpolation":"STEP",
					"output":80
				},
				{
					"input":79,
					"interpolation":"STEP",
					"output":81
				},
				{
					"input":79,
					"interpolation":"STEP",
					"output":82
				},
				{
					"input":79,
					"interpolation":"STEP",
					"output":83
				},
				{
					"input":79,
					"interpolation":"STEP",
					"output":84
				},
				{
					"input":79,
					"interpolation":"STEP",
					"output":85
				},
				{
					"input":79,
					"interpolation":"STEP",
					"output":86
				},
				{
					"input":87,
					"interpolation":"LINEAR",
					"output":88
				},
				{
					"input":79,
					"interpolation":"STEP",
					"output":89
				},
				{
					"input":79,
					"interpolation":"STEP",
					"output":90
				},
				{
					"input":79,
					"interpolation":"STEP",
					"output":91
				},
				{
					"input":79,
					"interpolation":"STEP",
					"output":92
				},
				{
					"input":79,
					"interpolation":"STEP",
					"output":93
				},
				{
					"input":79,
					"interpolation":"STEP",
					"output":94
				},
				{
					"input":79,
					"interpolation":"STEP",
					"output":95
				},
				{
					"input":79,
					"interpolation":"STEP",
					"output":96
				},
				{
					"input":87,
					"interpolation":"LINEAR",
					"output":97
				},
				{
					"input":79,
					"interpolation":"STEP",
					"output":98
				},
				{
					"input":79,
					"interpolation":"STEP",
					"output":99
				},
				{
					"input":87,
					"interpolation":"LINEAR",
					"output":100
				},
				{
					"input":79,
					"interpolation":"STEP",
					"output":101
				},
				{
					"input":79,
					"interpolation":"STEP",
					"output":102
				},
				{
					"input":79,
					"interpolation":"STEP",
					"output":103
				},
				{
					"input":79,
					"interpolation":"STEP",
					"output":104
				},
				{
					"input":79,
					"interpolation":"STEP",
					"output":105
				},
				{
					"input":87,
					"interpolation":"LINEAR",
					"output":106
				},
				{
					"input":79,
					"interpolation":"STEP",
					"output":107
				},
				{
					"input":79,
					"interpolation":"STEP",
					"output":108
				},
				{
					"input":79,
					"interpolation":"STEP",
					"output":109
				},
				{
					"input":79,
					"interpolation":"STEP",
					"output":110
				},
				{
					"input":79,
					"interpolation":"STEP",
					"output":111
				},
				{
					"input":79,
					"interpolation":"STEP",
					"output":112
				},
				{
					"input":79,
					"interpolation":"STEP",
					"output":113
				},
				{
					"input":79,
					"interpolation":"STEP",
					"output":114
				},
				{
					"input":79,
					"interpolation":"STEP",
					"output":115
				},
				{
					"input":79,
					"interpolation":"STEP",
					"output":116
				},
				{
					"input":79,
					"interpolation":"STEP",
					"output":117
				},
				{
					"input":79,
					"interpolation":"STEP",
					"output":118
				},
				{
					"input":79,
					"interpolation":"STEP",
					"output":119
				},
				{
					"input":79,
					"interpolation":"STEP",
					"output":120
				},
				{
					"input":87,
					"interpolation":"LINEAR",
					"output":121
				},
				{
					"input":79,
					"interpolation":"STEP",
					"output":122
				},
				{
					"input":79,
					"interpolation":"LINEAR",
					"output":123
				},
				{
					"input":79,
					"interpolation":"LINEAR",
					"output":124
				},
				{
					"input":79,
					"interpolation":"STEP",
					"output":125
				},
				{
					"input":79,
					"interpolation":"LINEAR",
					"output":126
				},
				{
					"input":79,
					"interpolation":"LINEAR",
					"output":127
				},
				{
					"input":79,
					"interpolation":"STEP",
					"output":128
				},
				{
					"input":79,
					"interpolation":"STEP",
					"output":129
				},
				{
					"input":87,
					"interpolation":"LINEAR",
					"output":130
				},
				{
					"input":79,
					"interpolation":"STEP",
					"output":131
				},
				{
					"input":79,
					"interpolation":"LINEAR",
					"output":132
				},
				{
					"input":79,
					"interpolation":"LINEAR",
					"output":133
				},
				{
					"input":79,
					"interpolation":"STEP",
					"output":134
				},
				{
					"input":79,
					"interpolation":"LINEAR",
					"output":135
				},
				{
					"input":79,
					"interpolation":"LINEAR",
					"output":136
				},
				{
					"input":79,
					"interpolation":"STEP",
					"output":137
				}
			]
		},
		{
			"channels":[
				{
					"sampler":0,
					"target":{
						"node":18,
						"path":"translation"
					}
				},
				{
					"sampler":1,
					"target":{
						"node":18,
						"path":"rotation"
					}
				},
				{
					"sampler":2,
					"target":{
						"node":18,
						"path":"scale"
					}
				},
				{
					"sampler":3,
					"target":{
						"node":11,
						"path":"translation"
					}
				},
				{
					"sampler":4,
					"target":{
						"node":11,
						"path":"rotation"
					}
				},
				{
					"sampler":5,
					"target":{
						"node":11,
						"path":"scale"
					}
				},
				{
					"sampler":6,
					"target":{
						"node":10,
						"path":"translation"
					}
				},
				{
					"sampler":7,
					"target":{
						"node":10,
						"path":"rotation"
					}
				},
				{
					"sampler":8,
					"target":{
						"node":10,
						"path":"scale"
					}
				},
				{
					"sampler":9,
					"target":{
						"node":1,
						"path":"translation"
					}
				},
				{
					"sampler":10,
					"target":{
						"node":1,
						"path":"rotation"
					}
				},
				{
					"sampler":11,
					"target":{
						"node":1,
						"path":"scale"
					}
				},
				{
					"sampler":12,
					"target":{
						"node":0,
						"path":"translation"
					}
				},
				{
					"sampler":13,
					"target":{
						"node":0,
						"path":"rotation"
					}
				},
				{
					"sampler":14,
					"target":{
						"node":0,
						"path":"scale"
					}
				},
				{
					"sampler":15,
					"target":{
						"node":4,
						"path":"translation"
					}
				},
				{
					"sampler":16,
					"target":{
						"node":4,
						"path":"rotation"
					}
				},
				{
					"sampler":17,
					"target":{
						"node":4,
						"path":"scale"
					}
				},
				{
					"sampler":18,
					"target":{
						"node":3,
						"path":"translation"
					}
				},
				{
					"sampler":19,
					"target":{
						"node":3,
						"path":"rotation"
					}
				},
				{
					"sampler":20,
					"target":{
						"node":3,
						"path":"scale"
					}
				},
				{
					"sampler":21,
					"target":{
						"node":2,
						"path":"translation"
					}
				},
				{
					"sampler":22,
					"target":{
						"node":2,
						"path":"rotation"
					}
				},
				{
					"sampler":23,
					"target":{
						"node":2,
						"path":"scale"
					}
				},
				{
					"sampler":24,
					"target":{
						"node":7,
						"path":"translation"
					}
				},
				{
					"sampler":25,
					"target":{
						"node":7,
						"path":"rotation"
					}
				},
				{
					"sampler":26,
					"target":{
						"node":7,
						"path":"scale"
					}
				},
				{
					"sampler":27,
					"target":{
						"node":6,
						"path":"translation"
					}
				},
				{
					"sampler":28,
					"target":{
						"node":6,
						"path":"rotation"
					}
				},
				{
					"sampler":29,
					"target":{
						"node":6,
						"path":"scale"
					}
				},
				{
					"sampler":30,
					"target":{
						"node":5,
						"path":"translation"
					}
				},
				{
					"sampler":31,
					"target":{
						"node":5,
						"path":"rotation"
					}
				},
				{
					"sampler":32,
					"target":{
						"node":5,
						"path":"scale"
					}
				},
				{
					"sampler":33,
					"target":{
						"node":8,
						"path":"translation"
					}
				},
				{
					"sampler":34,
					"target":{
						"node":8,
						"path":"rotation"
					}
				},
				{
					"sampler":35,
					"target":{
						"node":8,
						"path":"scale"
					}
				},
				{
					"sampler":36,
					"target":{
						"node":9,
						"path":"translation"
					}
				},
				{
					"sampler":37,
					"target":{
						"node":9,
						"path":"rotation"
					}
				},
				{
					"sampler":38,
					"target":{
						"node":9,
						"path":"scale"
					}
				},
				{
					"sampler":39,
					"target":{
						"node":14,
						"path":"translation"
					}
				},
				{
					"sampler":40,
					"target":{
						"node":14,
						"path":"rotation"
					}
				},
				{
					"sampler":41,
					"target":{
						"node":14,
						"path":"scale"
					}
				},
				{
					"sampler":42,
					"target":{
						"node":13,
						"path":"translation"
					}
				},
				{
					"sampler":43,
					"target":{
						"node":13,
						"path":"rotation"
					}
				},
				{
					"sampler":44,
					"target":{
						"node":13,
						"path":"scale"
					}
				},
				{
					"sampler":45,
					"target":{
						"node":12,
						"path":"translation"
					}
				},
				{
					"sampler":46,
					"target":{
						"node":12,
						"path":"rotation"
					}
				},
				{
					"sampler":47,
					"target":{
						"node":12,
						"path":"scale"
					}
				},
				{
					"sampler":48,
					"target":{
						"node":17,
						"path":"translation"
					}
				},
				{
					"sampler":49,
					"target":{
						"node":17,
						"path":"rotation"
					}
				},
				{
					"sampler":50,
					"target":{
						"node":17,
						"path":"scale"
					}
				},
				{
					"sampler":51,
					"target":{
						"node":16,
						"path":"translation"
					}
				},
				{
					"sampler":52,
					"target":{
						"node":16,
						"path":"rotation"
					}
				},
				{
					"sampler":53,
					"target":{
						"node":16,
						"path":"scale"
					}
				},
				{
					"sampler":54,
					"target":{
						"node":15,
						"path":"translation"
					}
				},
				{
					"sampler":55,
					"target":{
						"node":15,
						"path":"rotation"
					}
				},
				{
					"sampler":56,
					"target":{
						"node":15,
						"path":"scale"
					}
				}
			],
			"name":"idle",
			"samplers":[
				{
					"input":138,
					"interpolation":"LINEAR",
					"output":139
				},
				{
					"input":140,
					"interpolation":"STEP",
					"output":141
				},
				{
					"input":140,
					"interpolation":"STEP",
					"output":142
				},
				{
					"input":140,
					"interpolation":"STEP",
					"output":143
				},
				{
					"input":140,
					"interpolation":"STEP",
					"output":144
				},
				{
					"input":140,
					"interpolation":"STEP",
					"output":145
				},
				{
					"input":140,
					"interpolation":"STEP",
					"output":146
				},
				{
					"input":138,
					"interpolation":"LINEAR",
					"output":147
				},
				{
					"input":140,
					"interpolation":"STEP",
					"output":148
				},
				{
					"input":140,
					"interpolation":"STEP",
					"output":149
				},
				{
					"input":140,
					"interpolation":"STEP",
					"output":150
				},
				{
					"input":140,
					"interpolation":"STEP",
					"output":151
				},
				{
					"input":140,
					"interpolation":"STEP",
					"output":152
				},
				{
					"input":138,
					"interpolation":"LINEAR",
					"output":153
				},
				{
					"input":140,
					"interpolation":"STEP",
					"output":154
				},
				{
					"input":140,
					"interpolation":"STEP",
					"output":155
				},
				{
					"input":138,
					"interpolation":"LINEAR",
					"output":156
				},
				{
					"input":140,
					"interpolation":"STEP",
					"output":157
				},
				{
					"input":140,
					"interpolation":"STEP",
					"output":158
				},
				{
					"input":140,
					"interpolation":"STEP",
					"output":159
				},
				{
					"input":140,
					"interpolation":"STEP",
					"output":160
				},
				{
					"input":140,
					"interpolation":"STEP",
					"output":161
				},
				{
					"input":140,
					"interpolation":"STEP",
					"output":162
				},
				{
					"input":140,
					"interpolation":"STEP",
					"output":163
				},
				{
					"input":140,
					"interpolation":"STEP",
					"output":164
				},
				{
					"input":138,
					"interpolation":"LINEAR",
					"output":165
				},
				{
					"input":140,
					"interpolation":"STEP",
					"output":166
				},
				{
					"input":140,
					"interpolation":"STEP",
					"output":167
				},
				{
					"input":140,
					"interpolation":"STEP",
					"output":168
				},
				{
					"input":140,
					"interpolation":"STEP",
					"output":169
				},
				{
					"input":140,
					"interpolation":"STEP",
					"output":170
				},
				{
					"input":140,
					"interpolation":"STEP",
					"output":171
				},
				{
					"input":140,
					"interpolation":"STEP",
					"output":172
				},
				{
					"input":140,
					"interpolation":"STEP",
					"output":173
				},
				{
					"input":138,
					"interpolation":"LINEAR",
					"output":174
				},
				{
					"input":140,
					"interpolation":"STEP",
					"output":175
				},
				{
					"input":140,
					"interpolation":"STEP",
					"output":176
				},
				{
					"input":138,
					"interpolation":"LINEAR",
					"output":177
				},
				{
					"input":140,
					"interpolation":"STEP",
					"output":178
				},
				{
					"input":140,
					"interpolation":"STEP",
					"output":179
				},
				{
					"input":140,
					"interpolation":"STEP",
					"output":180
				},
				{
					"input":140,
					"interpolation":"STEP",
					"output":181
				},
				{
					"input":140,
					"interpolation":"STEP",
					"output":182
				},
				{
					"input":140,
					"interpolation":"STEP",
					"output":183
				},
				{
					"input":140,
					"interpolation":"STEP",
					"output":184
				},
				{
					"input":140,
					"interpolation":"STEP",
					"output":185
				},
				{
					"input":140,
					"interpolation":"STEP",
					"output":186
				},
				{
					"input":140,
					"interpolation":"STEP",
					"output":187
				},
				{
					"input":140,
					"interpolation":"STEP",
					"output":188
				},
				{
					"input":140,
					"interpolation":"STEP",
					"output":189
				},
				{
					"input":140,
					"interpolation":"STEP",
					"output":190
				},
				{
					"input":140,
					"interpolation":"STEP",
					"output":191
				},
				{
					"input":140,
					"interpolation":"STEP",
					"output":192
				},
				{
					"input":140,
					"interpolation":"STEP",
					"output":193
				},
				{
					"input":140,
					"interpolation":"STEP",
					"output":194
				},
				{
					"input":140,
					"interpolation":"STEP",
					"output":195
				},
				{
					"input":140,
					"interpolation":"STEP",
					"output":196
				}
			]
		},
		{
			"channels":[
				{
					"sampler":0,
					"target":{
						"node":18,
						"path":"translation"
					}
				},
				{
					"sampler":1,
					"target":{
						"node":18,
						"path":"rotation"
					}
				},
				{
					"sampler":2,
					"target":{
						"node":18,
						"path":"scale"
					}
				},
				{
					"sampler":3,
					"target":{
						"node":11,
						"path":"translation"
					}
				},
				{
					"sampler":4,
					"target":{
						"node":11,
						"path":"rotation"
					}
				},
				{
					"sampler":5,
					"target":{
						"node":11,
						"path":"scale"
					}
				},
				{
					"sampler":6,
					"target":{
						"node":10,
						"path":"translation"
					}
				},
				{
					"sampler":7,
					"target":{
						"node":10,
						"path":"rotation"
					}
				},
				{
					"sampler":8,
					"target":{
						"node":10,
						"path":"scale"
					}
				},
				{
					"sampler":9,
					"target":{
						"node":1,
						"path":"translation"
					}
				},
				{
					"sampler":10,
					"target":{
						"node":1,
						"path":"rotation"
					}
				},
				{
					"sampler":11,
					"target":{
						"node":1,
						"path":"scale"
					}
				},
				{
					"sampler":12,
					"target":{
						"node":0,
						"path":"translation"
					}
				},
				{
					"sampler":13,
					"target":{
						"node":0,
						"path":"rotation"
					}
				},
				{
					"sampler":14,
					"target":{
						"node":0,
						"path":"scale"
					}
				},
				{
					"sampler":15,
					"target":{
						"node":4,
						"path":"translation"
					}
				},
				{
					"sampler":16,
					"target":{
						"node":4,
						"path":"rotation"
					}
				},
				{
					"sampler":17,
					"target":{
						"node":4,
						"path":"scale"
					}
				},
				{
					"sampler":18,
					"target":{
						"node":3,
						"path":"translation"
					}
				},
				{
					"sampler":19,
					"target":{
						"node":3,
						"path":"rotation"
					}
				},
				{
					"sampler":20,
					"target":{
						"node":3,
						"path":"scale"
					}
				},
				{
					"sampler":21,
					"target":{
						"node":2,
						"path":"translation"
					}
				},
				{
					"sampler":22,
					"target":{
						"node":2,
						"path":"rotation"
					}
				},
				{
					"sampler":23,
					"target":{
						"node":2,
						"path":"scale"
					}
				},
				{
					"sampler":24,
					"target":{
						"node":7,
						"path":"translation"
					}
				},
				{
					"sampler":25,
					"target":{
						"node":7,
						"path":"rotation"
					}
				},
				{
					"sampler":26,
					"target":{
						"node":7,
						"path":"scale"
					}
				},
				{
					"sampler":27,
					"target":{
						"node":6,
						"path":"translation"
					}
				},
				{
					"sampler":28,
					"target":{
						"node":6,
						"path":"rotation"
					}
				},
				{
					"sampler":29,
					"target":{
						"node":6,
						"path":"scale"
					}
				},
				{
					"sampler":30,
					"target":{
						"node":5,
						"path":"translation"
					}
				},
				{
					"sampler":31,
					"target":{
						"node":5,
						"path":"rotation"
					}
				},
				{
					"sampler":32,
					"target":{
						"node":5,
						"path":"scale"
					}
				},
				{
					"sampler":33,
					"target":{
						"node":8,
						"path":"translation"
					}
				},
				{
					"sampler":34,
					"target":{
						"node":8,
						"path":"rotation"
					}
				},
				{
					"sampler":35,
					"target":{
						"node":8,
						"path":"scale"
					}
				},
				{
					"sampler":36,
					"target":{
						"node":9,
						"path":"translation"
					}
				},
				{
					"sampler":37,
					"target":{
						"node":9,
						"path":"rotation"
					}
				},
				{
					"sampler":38,
					"target":{
						"node":9,
						"path":"scale"
					}
				},
				{
					"sampler":39,
					"target":{
						"node":14,
						"path":"translation"
					}
				},
				{
					"sampler":40,
					"target":{
						"node":14,
						"path":"rotation"
					}
				},
				{
					"sampler":41,
					"target":{
						"node":14,
						"path":"scale"
					}
				},
				{
					"sampler":42,
					"target":{
						"node":13,
						"path":"translation"
					}
				},
				{
					"sampler":43,
					"target":{
						"node":13,
						"path":"rotation"
					}
				},
				{
					"sampler":44,
					"target":{
						"node":13,
						"path":"scale"
					}
				},
				{
					"sampler":45,
					"target":{
						"node":12,
						"path":"translation"
					}
				},
				{
					"sampler":46,
					"target":{
						"node":12,
						"path":"rotation"
					}
				},
				{
					"sampler":47,
					"target":{
						"node":12,
						"path":"scale"
					}
				},
				{
					"sampler":48,
					"target":{
						"node":17,
						"path":"translation"
					}
				},
				{
					"sampler":49,
					"target":{
						"node":17,
						"path":"rotation"
					}
				},
				{
					"sampler":50,
					"target":{
						"node":17,
						"path":"scale"
					}
				},
				{
					"sampler":51,
					"target":{
						"node":16,
						"path":"translation"
					}
				},
				{
					"sampler":52,
					"target":{
						"node":16,
						"path":"rotation"
					}
				},
				{
					"sampler":53,
					"target":{
						"node":16,
						"path":"scale"
					}
				},
				{
					"sampler":54,
					"target":{
						"node":15,
						"path":"translation"
					}
				},
				{
					"sampler":55,
					"target":{
						"node":15,
						"path":"rotation"
					}
				},
				{
					"sampler":56,
					"target":{
						"node":15,
						"path":"scale"
					}
				}
			],
			"name":"walk",
			"samplers":[
				{
					"input":197,
					"interpolation":"LINEAR",
					"output":198
				},
				{
					"input":197,
					"interpolation":"LINEAR",
					"output":199
				},
				{
					"input":200,
					"interpolation":"STEP",
					"output":201
				},
				{
					"input":200,
					"interpolation":"STEP",
					"output":202
				},
				{
					"input":200,
					"interpolation":"STEP",
					"output":203
				},
				{
					"input":200,
					"interpolation":"STEP",
					"output":204
				},
				{
					"input":200,
					"interpolation":"STEP",
					"output":205
				},
				{
					"input":197,
					"interpolation":"LINEAR",
					"output":206
				},
				{
					"input":200,
					"interpolation":"STEP",
					"output":207
				},
				{
					"input":200,
					"interpolation":"STEP",
					"output":208
				},
				{
					"input":200,
					"interpolation":"STEP",
					"output":209
				},
				{
					"input":200,
					"interpolation":"STEP",
					"output":210
				},
				{
					"input":200,
					"interpolation":"STEP",
					"output":211
				},
				{
					"input":200,
					"interpolation":"STEP",
					"output":212
				},
				{
					"input":200,
					"interpolation":"STEP",
					"output":213
				},
				{
					"input":200,
					"interpolation":"STEP",
					"output":214
				},
				{
					"input":197,
					"interpolation":"LINEAR",
					"output":215
				},
				{
					"input":200,
					"interpolation":"STEP",
					"output":216
				},
				{
					"input":200,
					"interpolation":"STEP",
					"output":217
				},
				{
					"input":200,
					"interpolation":"STEP",
					"output":218
				},
				{
					"input":200,
					"interpolation":"STEP",
					"output":219
				},
				{
					"input":200,
					"interpolation":"STEP",
					"output":220
				},
				{
					"input":200,
					"interpolation":"STEP",
					"output":221
				},
				{
					"input":200,
					"interpolation":"STEP",
					"output":222
				},
				{
					"input":200,
					"interpolation":"STEP",
					"output":223
				},
				{
					"input":197,
					"interpolation":"LINEAR",
					"output":224
				},
				{
					"input":200,
					"interpolation":"STEP",
					"output":225
				},
				{
					"input":200,
					"interpolation":"STEP",
					"output":226
				},
				{
					"input":200,
					"interpolation":"STEP",
					"output":227
				},
				{
					"input":200,
					"interpolation":"STEP",
					"output":228
				},
				{
					"input":200,
					"interpolation":"STEP",
					"output":229
				},
				{
					"input":200,
					"interpolation":"STEP",
					"output":230
				},
				{
					"input":200,
					"interpolation":"STEP",
					"output":231
				},
				{
					"input":200,
					"interpolation":"STEP",
					"output":232
				},
				{
					"input":197,
					"interpolation":"LINEAR",
					"output":233
				},
				{
					"input":200,
					"interpolation":"STEP",
					"output":234
				},
				{
					"input":200,
					"interpolation":"STEP",
					"output":235
				},
				{
					"input":197,
					"interpolation":"LINEAR",
					"output":236
				},
				{
					"input":200,
					"interpolation":"STEP",
					"output":237
				},
				{
					"input":200,
					"interpolation":"STEP",
					"output":238
				},
				{
					"input":197,
					"interpolation":"LINEAR",
					"output":239
				},
				{
					"input":200,
					"interpolation":"STEP",
					"output":240
				},
				{
					"input":200,
					"interpolation":"STEP",
					"output":241
				},
				{
					"input":197,
					"interpolation":"LINEAR",
					"output":242
				},
				{
					"input":200,
					"interpolation":"STEP",
					"output":243
				},
				{
					"input":200,
					"interpolation":"STEP",
					"output":244
				},
				{
					"input":197,
					"interpolation":"LINEAR",
					"output":245
				},
				{
					"input":200,
					"interpolation":"STEP",
					"output":246
				},
				{
					"input":200,
					"interpolation":"STEP",
					"output":247
				},
				{
					"input":197,
					"interpolation":"LINEAR",
					"output":248
				},
				{
					"input":200,
					"interpolation":"STEP",
					"output":249
				},
				{
					"input":200,
					"interpolation":"STEP",
					"output":250
				},
				{
					"input":197,
					"interpolation":"LINEAR",
					"output":251
				},
				{
					"input":200,
					"interpolation":"STEP",
					"output":252
				},
				{
					"input":200,
					"interpolation":"STEP",
					"output":253
				},
				{
					"input":197,
					"interpolation":"LINEAR",
					"output":254
				},
				{
					"input":200,
					"interpolation":"STEP",
					"output":255
				}
			]
		}
	],
	"materials":[
		{
			"name":"skin",
			"normalTexture":{
				"index":0,
				"scale":0.4000000059604645
			},
			"pbrMetallicRoughness":{
				"baseColorFactor":[
					0.9551045894622803,
					0.7105664610862732,
					0.5382355451583862,
					1
				],
				"metallicFactor":0,
				"roughnessFactor":0.550000011920929
			}
		},
		{
			"extensions":{
				"KHR_materials_sheen":{
					"sheenColorFactor":[
						1.0,
						1.0,
						1.0
					],
					"sheenRoughnessFactor":0.5
				}
			},
			"name":"hair",
			"normalTexture":{
				"index":1,
				"scale":0.800000011920929
			},
			"pbrMetallicRoughness":{
				"baseColorFactor":[
					0.13286831974983215,
					0.2632734179496765,
					0.8900054097175598,
					1
				],
				"metallicFactor":0,
				"roughnessFactor":0.44999998807907104
			}
		},
		{
			"extensions":{
				"KHR_materials_sheen":{
					"sheenColorFactor":[
						1.0,
						1.0,
						1.0
					],
					"sheenRoughnessFactor":0.5
				}
			},
			"name":"outfit",
			"normalTexture":{
				"index":2,
				"scale":0.6000000238418579
			},
			"pbrMetallicRoughness":{
				"baseColorFactor":[
					0.7874122858047485,
					0.7874122858047485,
					1,
					1
				],
				"metallicFactor":0,
				"roughnessFactor":0.75
			}
		},
		{
			"name":"outfit2",
			"normalTexture":{
				"index":3,
				"scale":0.4000000059604645
			},
			"pbrMetallicRoughness":{
				"baseColorFactor":[
					0.21404114365577698,
					0.4479884207248688,
					1,
					1
				],
				"metallicFactor":0,
				"roughnessFactor":0.6000000238418579
			}
		},
		{
			"name":"pants",
			"normalTexture":{
				"index":4,
				"scale":0.6000000238418579
			},
			"pbrMetallicRoughness":{
				"baseColorFactor":[
					0.3546920716762543,
					0.3546920716762543,
					0.4479884207248688,
					1
				],
				"metallicFactor":0,
				"roughnessFactor":0.800000011920929
			}
		},
		{
			"extensions":{
				"KHR_materials_clearcoat":{
					"clearcoatFactor":0.30000001192092896
				}
			},
			"name":"boots",
			"normalTexture":{
				"index":5,
				"scale":0.800000011920929
			},
			"pbrMetallicRoughness":{
				"baseColorFactor":[
					0.0134117491543293,
					0.010022825561463833,
					0.010022825561463833,
					1
				],
				"metallicFactor":0,
				"roughnessFactor":0.44999998807907104
			}
		},
		{
			"name":"eye_white",
			"pbrMetallicRoughness":{
				"baseColorFactor":[
					0.8900054097175598,
					0.8900054097175598,
					0.8900054097175598,
					1
				],
				"metallicFactor":0,
				"roughnessFactor":0.20000000298023224
			}
		},
		{
			"emissiveFactor":[
				0.011763989275256348,
				0.011763989275256348,
				0.019862860485428957
			],
			"name":"iris",
			"pbrMetallicRoughness":{
				"baseColorFactor":[
					0.01960664801299572,
					0.01960664801299572,
					0.03310476616024971,
					1
				],
				"metallicFactor":0,
				"roughnessFactor":0.15000000596046448
			}
		},
		{
			"name":"pupil",
			"pbrMetallicRoughness":{
				"baseColorFactor":[
					0.0015479875728487968,
					0.0015479875728487968,
					0.0023219813592731953,
					1
				],
				"metallicFactor":0,
				"roughnessFactor":0.10000000149011612
			}
		},
		{
			"name":"lips",
			"pbrMetallicRoughness":{
				"baseColorFactor":[
					0.4283095896244049,
					0.32088616490364075,
					0.2448643445968628,
					1
				],
				"metallicFactor":0,
				"roughnessFactor":0.4000000059604645
			}
		},
		{
			"doubleSided":true,
			"name":"skirt",
			"normalTexture":{
				"index":6,
				"scale":0.6000000238418579
			},
			"pbrMetallicRoughness":{
				"baseColorFactor":[
					0.21404114365577698,
					0.4479884207248688,
					1,
					1
				],
				"metallicFactor":0,
				"roughnessFactor":0.699999988079071
			}
		},
		{
			"name":"buckle",
			"pbrMetallicRoughness":{
				"baseColorFactor":[
					0.6920710802078247,
					0.4479884207248688,
					0.07323895394802094,
					1
				],
				"metallicFactor":0.8999999761581421,
				"roughnessFactor":0.30000001192092896
			}
		},
		{
			"alphaMode":"BLEND",
			"doubleSided":true,
			"emissiveFactor":[
				0.4479884207248688,
				0.7874122858047485,
				1
			],
			"extensions":{
				"KHR_materials_emissive_strength":{
					"emissiveStrength":1.5
				}
			},
			"name":"fwing",
			"pbrMetallicRoughness":{
				"baseColorFactor":[
					0.4479884207248688,
					0.7874122858047485,
					1,
					0.5
				],
				"metallicFactor":0,
				"roughnessFactor":0.10000000149011612
			}
		}
	],
	"meshes":[
		{
			"name":"ramiris",
			"primitives":[
				{
					"attributes":{
						"POSITION":0,
						"NORMAL":1,
						"TEXCOORD_0":2,
						"JOINTS_0":3,
						"WEIGHTS_0":4
					},
					"indices":5,
					"material":0
				},
				{
					"attributes":{
						"POSITION":6,
						"NORMAL":7,
						"TEXCOORD_0":8,
						"JOINTS_0":9,
						"WEIGHTS_0":10
					},
					"indices":11,
					"material":1
				},
				{
					"attributes":{
						"POSITION":12,
						"NORMAL":13,
						"TEXCOORD_0":14,
						"JOINTS_0":15,
						"WEIGHTS_0":16
					},
					"indices":17,
					"material":2
				},
				{
					"attributes":{
						"POSITION":18,
						"NORMAL":19,
						"TEXCOORD_0":20,
						"JOINTS_0":21,
						"WEIGHTS_0":22
					},
					"indices":23,
					"material":3
				},
				{
					"attributes":{
						"POSITION":24,
						"NORMAL":25,
						"TEXCOORD_0":26,
						"JOINTS_0":27,
						"WEIGHTS_0":28
					},
					"indices":29,
					"material":4
				},
				{
					"attributes":{
						"POSITION":30,
						"NORMAL":31,
						"TEXCOORD_0":32,
						"JOINTS_0":33,
						"WEIGHTS_0":34
					},
					"indices":35,
					"material":5
				},
				{
					"attributes":{
						"POSITION":36,
						"NORMAL":37,
						"TEXCOORD_0":38,
						"JOINTS_0":39,
						"WEIGHTS_0":40
					},
					"indices":41,
					"material":6
				},
				{
					"attributes":{
						"POSITION":42,
						"NORMAL":43,
						"TEXCOORD_0":44,
						"JOINTS_0":45,
						"WEIGHTS_0":46
					},
					"indices":47,
					"material":7
				},
				{
					"attributes":{
						"POSITION":48,
						"NORMAL":49,
						"TEXCOORD_0":50,
						"JOINTS_0":51,
						"WEIGHTS_0":52
					},
					"indices":53,
					"material":8
				},
				{
					"attributes":{
						"POSITION":54,
						"NORMAL":55,
						"TEXCOORD_0":56,
						"JOINTS_0":57,
						"WEIGHTS_0":58
					},
					"indices":59,
					"material":9
				},
				{
					"attributes":{
						"POSITION":60,
						"NORMAL":61,
						"TEXCOORD_0":62,
						"JOINTS_0":63,
						"WEIGHTS_0":64
					},
					"indices":65,
					"material":10
				},
				{
					"attributes":{
						"POSITION":66,
						"NORMAL":67,
						"TEXCOORD_0":68,
						"JOINTS_0":69,
						"WEIGHTS_0":70
					},
					"indices":71,
					"material":11
				},
				{
					"attributes":{
						"POSITION":72,
						"NORMAL":73,
						"TEXCOORD_0":74,
						"JOINTS_0":75,
						"WEIGHTS_0":76
					},
					"indices":77,
					"material":12
				}
			]
		}
	],
	"textures":[
		{
			"sampler":0,
			"source":0
		},
		{
			"sampler":0,
			"source":1
		},
		{
			"sampler":0,
			"source":2
		},
		{
			"sampler":0,
			"source":2
		},
		{
			"sampler":0,
			"source":2
		},
		{
			"sampler":0,
			"source":3
		},
		{
			"sampler":0,
			"source":2
		}
	],
	"images":[
		{
			"mimeType":"image/png",
			"name":"N_skin",
			"uri":"texturas/N_skin.png"
		},
		{
			"mimeType":"image/png",
			"name":"N_hair",
			"uri":"texturas/N_hair.png"
		},
		{
			"mimeType":"image/png",
			"name":"N_cloth",
			"uri":"texturas/N_cloth.png"
		},
		{
			"mimeType":"image/png",
			"name":"N_leather",
			"uri":"texturas/N_leather.png"
		}
	],
	"skins":[
		{
			"inverseBindMatrices":78,
			"joints":[
				18,
				11,
				10,
				1,
				0,
				4,
				3,
				2,
				7,
				6,
				5,
				8,
				9,
				14,
				13,
				12,
				17,
				16,
				15
			],
			"name":"ramiris_rig"
		}
	],
	"accessors":[
		{
			"bufferView":0,
			"componentType":5126,
			"count":1409,
			"max":[
				0.11900250613689423,
				0.8027999401092529,
				0.04824564978480339
			],
			"min":[
				-0.11900250613689423,
				0.35301050543785095,
				-0.052234526723623276
			],
			"type":"VEC3"
		},
		{
			"bufferView":1,
			"componentType":5126,
			"count":1409,
			"type":"VEC3"
		},
		{
			"bufferView":2,
			"componentType":5126,
			"count":1409,
			"type":"VEC2"
		},
		{
			"bufferView":3,
			"componentType":5121,
			"count":1409,
			"type":"VEC4"
		},
		{
			"bufferView":4,
			"componentType":5126,
			"count":1409,
			"type":"VEC4"
		},
		{
			"bufferView":5,
			"componentType":5123,
			"count":5808,
			"type":"SCALAR"
		},
		{
			"bufferView":6,
			"componentType":5126,
			"count":2920,
			"max":[
				0.0682273730635643,
				0.8160616159439087,
				0.09014269709587097
			],
			"min":[
				-0.06340421736240387,
				0.4673686921596527,
				-0.05163494125008583
			],
			"type":"VEC3"
		},
		{
			"bufferView":7,
			"componentType":5126,
			"count":2920,
			"type":"VEC3"
		},
		{
			"bufferView":8,
			"componentType":5126,
			"count":2920,
			"type":"VEC2"
		},
		{
			"bufferView":9,
			"componentType":5121,
			"count":2920,
			"type":"VEC4"
		},
		{
			"bufferView":10,
			"componentType":5126,
			"count":2920,
			"type":"VEC4"
		},
		{
			"bufferView":11,
			"componentType":5123,
			"count":10488,
			"type":"SCALAR"
		},
		{
			"bufferView":12,
			"componentType":5126,
			"count":1916,
			"max":[
				0.12015700340270996,
				0.6609613299369812,
				0.04054039716720581
			],
			"min":[
				-0.12015699595212936,
				0.41517195105552673,
				-0.053999997675418854
			],
			"type":"VEC3"
		},
		{
			"bufferView":13,
			"componentType":5126,
			"count":1916,
			"type":"VEC3"
		},
		{
			"bufferView":14,
			"componentType":5126,
			"count":1916,
			"type":"VEC2"
		},
		{
			"bufferView":15,
			"componentType":5121,
			"count":1916,
			"type":"VEC4"
		},
		{
			"bufferView":16,
			"componentType":5126,
			"count":1916,
			"type":"VEC4"
		},
		{
			"bufferView":17,
			"componentType":5123,
			"count":8652,
			"type":"SCALAR"
		},
		{
			"bufferView":18,
			"componentType":5126,
			"count":76,
			"max":[
				0.07102910429239273,
				0.44893404841423035,
				0.04807451739907265
			],
			"min":[
				-0.07102910429239273,
				0.39596593379974365,
				-0.04891172796487808
			],
			"type":"VEC3"
		},
		{
			"bufferView":19,
			"componentType":5126,
			"count":76,
			"type":"VEC3"
		},
		{
			"bufferView":20,
			"componentType":5126,
			"count":76,
			"type":"VEC2"
		},
		{
			"bufferView":21,
			"componentType":5121,
			"count":76,
			"type":"VEC4"
		},
		{
			"bufferView":22,
			"componentType":5126,
			"count":76,
			"type":"VEC4"
		},
		{
			"bufferView":23,
			"componentType":5123,
			"count":264,
			"type":"SCALAR"
		},
		{
			"bufferView":24,
			"componentType":5126,
			"count":995,
			"max":[
				0.11937126517295837,
				0.42509835958480835,
				0.047949180006980896
			],
			"min":[
				-0.11937126517295837,
				0.1356613039970398,
				-0.04891172796487808
			],
			"type":"VEC3"
		},
		{
			"bufferView":25,
			"componentType":5126,
			"count":995,
			"type":"VEC3"
		},
		{
			"bufferView":26,
			"componentType":5126,
			"count":995,
			"type":"VEC2"
		},
		{
			"bufferView":27,
			"componentType":5121,
			"count":995,
			"type":"VEC4"
		},
		{
			"bufferView":28,
			"componentType":5126,
			"count":995,
			"type":"VEC4"
		},
		{
			"bufferView":29,
			"componentType":5123,
			"count":4380,
			"type":"SCALAR"
		},
		{
			"bufferView":30,
			"componentType":5126,
			"count":1034,
			"max":[
				0.07669992744922638,
				0.1382293701171875,
				0.033190734684467316
			],
			"min":[
				-0.07669992744922638,
				0.0034197240602225065,
				-0.0630541741847992
			],
			"type":"VEC3"
		},
		{
			"bufferView":31,
			"componentType":5126,
			"count":1034,
			"type":"VEC3"
		},
		{
			"bufferView":32,
			"componentType":5126,
			"count":1034,
			"type":"VEC2"
		},
		{
			"bufferView":33,
			"componentType":5121,
			"count":1034,
			"type":"VEC4"
		},
		{
			"bufferView":34,
			"componentType":5126,
			"count":1034,
			"type":"VEC4"
		},
		{
			"bufferView":35,
			"componentType":5123,
			"count":4608,
			"type":"SCALAR"
		},
		{
			"bufferView":36,
			"componentType":5126,
			"count":304,
			"max":[
				0.022949999198317528,
				0.7589249610900879,
				-0.03150000050663948
			],
			"min":[
				-0.022949999198317528,
				0.74857497215271,
				-0.03959999978542328
			],
			"type":"VEC3"
		},
		{
			"bufferView":37,
			"componentType":5126,
			"count":304,
			"type":"VEC3"
		},
		{
			"bufferView":38,
			"componentType":5126,
			"count":304,
			"type":"VEC2"
		},
		{
			"bufferView":39,
			"componentType":5121,
			"count":304,
			"type":"VEC4"
		},
		{
			"bufferView":40,
			"componentType":5126,
			"count":304,
			"type":"VEC4"
		},
		{
			"bufferView":41,
			"componentType":5123,
			"count":1152,
			"type":"SCALAR"
		},
		{
			"bufferView":42,
			"componentType":5126,
			"count":220,
			"max":[
				0.019574999809265137,
				0.7581599950790405,
				-0.03654910996556282
			],
			"min":[
				-0.019574999809265137,
				0.7493399977684021,
				-0.04040088877081871
			],
			"type":"VEC3"
		},
		{
			"bufferView":43,
			"componentType":5126,
			"count":220,
			"type":"VEC3"
		},
		{
			"bufferView":44,
			"componentType":5126,
			"count":220,
			"type":"VEC2"
		},
		{
			"bufferView":45,
			"componentType":5121,
			"count":220,
			"type":"VEC4"
		},
		{
			"bufferView":46,
			"componentType":5126,
			"count":220,
			"type":"VEC4"
		},
		{
			"bufferView":47,
			"componentType":5123,
			"count":720,
			"type":"SCALAR"
		},
		{
			"bufferView":48,
			"componentType":5126,
			"count":160,
			"max":[
				0.01709749549627304,
				0.755774974822998,
				-0.039104048162698746
			],
			"min":[
				-0.01709749549627304,
				0.7517250180244446,
				-0.04081595316529274
			],
			"type":"VEC3"
		},
		{
			"bufferView":49,
			"componentType":5126,
			"count":160,
			"type":"VEC3"
		},
		{
			"bufferView":50,
			"componentType":5126,
			"count":160,
			"type":"VEC2"
		},
		{
			"bufferView":51,
			"componentType":5121,
			"count":160,
			"type":"VEC4"
		},
		{
			"bufferView":52,
			"componentType":5126,
			"count":160,
			"type":"VEC4"
		},
		{
			"bufferView":53,
			"componentType":5123,
			"count":480,
			"type":"SCALAR"
		},
		{
			"bufferView":54,
			"componentType":5126,
			"count":98,
			"max":[
				0.008549999445676804,
				0.7233749628067017,
				-0.0349741093814373
			],
			"min":[
				-0.008549999445676804,
				0.7193250060081482,
				-0.03882588818669319
			],
			"type":"VEC3"
		},
		{
			"bufferView":55,
			"componentType":5126,
			"count":98,
			"type":"VEC3"
		},
		{
			"bufferView":56,
			"componentType":5126,
			"count":98,
			"type":"VEC2"
		},
		{
			"bufferView":57,
			"componentType":5121,
			"count":98,
			"type":"VEC4"
		},
		{
			"bufferView":58,
			"componentType":5126,
			"count":98,
			"type":"VEC4"
		},
		{
			"bufferView":59,
			"componentType":5123,
			"count":360,
			"type":"SCALAR"
		},
		{
			"bufferView":60,
			"componentType":5126,
			"count":78,
			"max":[
				0.11879999935626984,
				0.44999998807907104,
				0.094072625041008
			],
			"min":[
				-0.11879999935626984,
				0.3059999942779541,
				-0.094072625041008
			],
			"type":"VEC3"
		},
		{
			"bufferView":61,
			"componentType":5126,
			"count":78,
			"type":"VEC3"
		},
		{
			"bufferView":62,
			"componentType":5126,
			"count":78,
			"type":"VEC2"
		},
		{
			"bufferView":63,
			"componentType":5121,
			"count":78,
			"type":"VEC4"
		},
		{
			"bufferView":64,
			"componentType":5126,
			"count":78,
			"type":"VEC4"
		},
		{
			"bufferView":65,
			"componentType":5123,
			"count":264,
			"type":"SCALAR"
		},
		{
			"bufferView":66,
			"componentType":5126,
			"count":24,
			"max":[
				0.011249999515712261,
				0.43650001287460327,
				-0.046574998646974564
			],
			"min":[
				-0.011249999515712261,
				0.41850000619888306,
				-0.05197500064969063
			],
			"type":"VEC3"
		},
		{
			"bufferView":67,
			"componentType":5126,
			"count":24,
			"type":"VEC3"
		},
		{
			"bufferView":68,
			"componentType":5126,
			"count":24,
			"type":"VEC2"
		},
		{
			"bufferView":69,
			"componentType":5121,
			"count":24,
			"type":"VEC4"
		},
		{
			"bufferView":70,
			"componentType":5126,
			"count":24,
			"type":"VEC4"
		},
		{
			"bufferView":71,
			"componentType":5123,
			"count":36,
			"type":"SCALAR"
		},
		{
			"bufferView":72,
			"componentType":5126,
			"count":600,
			"max":[
				0.26999998092651367,
				0.7829999327659607,
				0.08624927699565887
			],
			"min":[
				-0.26999998092651367,
				0.45899999141693115,
				0.06675072014331818
			],
			"type":"VEC3"
		},
		{
			"bufferView":73,
			"componentType":5126,
			"count":600,
			"type":"VEC3"
		},
		{
			"bufferView":74,
			"componentType":5126,
			"count":600,
			"type":"VEC2"
		},
		{
			"bufferView":75,
			"componentType":5121,
			"count":600,
			"type":"VEC4"
		},
		{
			"bufferView":76,
			"componentType":5126,
			"count":600,
			"type":"VEC4"
		},
		{
			"bufferView":77,
			"componentType":5123,
			"count":2688,
			"type":"SCALAR"
		},
		{
			"bufferView":78,
			"componentType":5126,
			"count":19,
			"type":"MAT4"
		},
		{
			"bufferView":79,
			"componentType":5126,
			"count":2,
			"max":[
				0.6
			],
			"min":[
				0
			],
			"type":"SCALAR"
		},
		{
			"bufferView":80,
			"componentType":5126,
			"count":2,
			"type":"VEC3"
		},
		{
			"bufferView":81,
			"componentType":5126,
			"count":2,
			"type":"VEC4"
		},
		{
			"bufferView":82,
			"componentType":5126,
			"count":2,
			"type":"VEC3"
		},
		{
			"bufferView":83,
			"componentType":5126,
			"count":2,
			"type":"VEC3"
		},
		{
			"bufferView":84,
			"componentType":5126,
			"count":2,
			"type":"VEC4"
		},
		{
			"bufferView":85,
			"componentType":5126,
			"count":2,
			"type":"VEC3"
		},
		{
			"bufferView":86,
			"componentType":5126,
			"count":2,
			"type":"VEC3"
		},
		{
			"bufferView":87,
			"componentType":5126,
			"count":19,
			"max":[
				0.6
			],
			"min":[
				0
			],
			"type":"SCALAR"
		},
		{
			"bufferView":88,
			"componentType":5126,
			"count":19,
			"type":"VEC4"
		},
		{
			"bufferView":89,
			"componentType":5126,
			"count":2,
			"type":"VEC3"
		},
		{
			"bufferView":90,
			"componentType":5126,
			"count":2,
			"type":"VEC3"
		},
		{
			"bufferView":91,
			"componentType":5126,
			"count":2,
			"type":"VEC4"
		},
		{
			"bufferView":92,
			"componentType":5126,
			"count":2,
			"type":"VEC3"
		},
		{
			"bufferView":93,
			"componentType":5126,
			"count":2,
			"type":"VEC3"
		},
		{
			"bufferView":94,
			"componentType":5126,
			"count":2,
			"type":"VEC4"
		},
		{
			"bufferView":95,
			"componentType":5126,
			"count":2,
			"type":"VEC3"
		},
		{
			"bufferView":96,
			"componentType":5126,
			"count":2,
			"type":"VEC3"
		},
		{
			"bufferView":97,
			"componentType":5126,
			"count":19,
			"type":"VEC4"
		},
		{
			"bufferView":98,
			"componentType":5126,
			"count":2,
			"type":"VEC3"
		},
		{
			"bufferView":99,
			"componentType":5126,
			"count":2,
			"type":"VEC3"
		},
		{
			"bufferView":100,
			"componentType":5126,
			"count":19,
			"type":"VEC4"
		},
		{
			"bufferView":101,
			"componentType":5126,
			"count":2,
			"type":"VEC3"
		},
		{
			"bufferView":102,
			"componentType":5126,
			"count":2,
			"type":"VEC3"
		},
		{
			"bufferView":103,
			"componentType":5126,
			"count":2,
			"type":"VEC4"
		},
		{
			"bufferView":104,
			"componentType":5126,
			"count":2,
			"type":"VEC3"
		},
		{
			"bufferView":105,
			"componentType":5126,
			"count":2,
			"type":"VEC3"
		},
		{
			"bufferView":106,
			"componentType":5126,
			"count":19,
			"type":"VEC4"
		},
		{
			"bufferView":107,
			"componentType":5126,
			"count":2,
			"type":"VEC3"
		},
		{
			"bufferView":108,
			"componentType":5126,
			"count":2,
			"type":"VEC3"
		},
		{
			"bufferView":109,
			"componentType":5126,
			"count":2,
			"type":"VEC4"
		},
		{
			"bufferView":110,
			"componentType":5126,
			"count":2,
			"type":"VEC3"
		},
		{
			"bufferView":111,
			"componentType":5126,
			"count":2,
			"type":"VEC3"
		},
		{
			"bufferView":112,
			"componentType":5126,
			"count":2,
			"type":"VEC4"
		},
		{
			"bufferView":113,
			"componentType":5126,
			"count":2,
			"type":"VEC3"
		},
		{
			"bufferView":114,
			"componentType":5126,
			"count":2,
			"type":"VEC3"
		},
		{
			"bufferView":115,
			"componentType":5126,
			"count":2,
			"type":"VEC4"
		},
		{
			"bufferView":116,
			"componentType":5126,
			"count":2,
			"type":"VEC3"
		},
		{
			"bufferView":117,
			"componentType":5126,
			"count":2,
			"type":"VEC3"
		},
		{
			"bufferView":118,
			"componentType":5126,
			"count":2,
			"type":"VEC4"
		},
		{
			"bufferView":119,
			"componentType":5126,
			"count":2,
			"type":"VEC3"
		},
		{
			"bufferView":120,
			"componentType":5126,
			"count":2,
			"type":"VEC3"
		},
		{
			"bufferView":121,
			"componentType":5126,
			"count":19,
			"type":"VEC4"
		},
		{
			"bufferView":122,
			"componentType":5126,
			"count":2,
			"type":"VEC3"
		},
		{
			"bufferView":123,
			"componentType":5126,
			"count":2,
			"type":"VEC3"
		},
		{
			"bufferView":124,
			"componentType":5126,
			"count":2,
			"type":"VEC4"
		},
		{
			"bufferView":125,
			"componentType":5126,
			"count":2,
			"type":"VEC3"
		},
		{
			"bufferView":126,
			"componentType":5126,
			"count":2,
			"type":"VEC3"
		},
		{
			"bufferView":127,
			"componentType":5126,
			"count":2,
			"type":"VEC4"
		},
		{
			"bufferView":128,
			"componentType":5126,
			"count":2,
			"type":"VEC3"
		},
		{
			"bufferView":129,
			"componentType":5126,
			"count":2,
			"type":"VEC3"
		},
		{
			"bufferView":130,
			"componentType":5126,
			"count":19,
			"type":"VEC4"
		},
		{
			"bufferView":131,
			"componentType":5126,
			"count":2,
			"type":"VEC3"
		},
		{
			"bufferView":132,
			"componentType":5126,
			"count":2,
			"type":"VEC3"
		},
		{
			"bufferView":133,
			"componentType":5126,
			"count":2,
			"type":"VEC4"
		},
		{
			"bufferView":134,
			"componentType":5126,
			"count":2,
			"type":"VEC3"
		},
		{
			"bufferView":135,
			"componentType":5126,
			"count":2,
			"type":"VEC3"
		},
		{
			"bufferView":136,
			"componentType":5126,
			"count":2,
			"type":"VEC4"
		},
		{
			"bufferView":137,
			"componentType":5126,
			"count":2,
			"type":"VEC3"
		},
		{
			"bufferView":138,
			"componentType":5126,
			"count":61,
			"max":[
				2
			],
			"min":[
				0
			],
			"type":"SCALAR"
		},
		{
			"bufferView":139,
			"componentType":5126,
			"count":61,
			"type":"VEC3"
		},
		{
			"bufferView":140,
			"componentType":5126,
			"count":2,
			"max":[
				2
			],
			"min":[
				0
			],
			"type":"SCALAR"
		},
		{
			"bufferView":141,
			"componentType":5126,
			"count":2,
			"type":"VEC4"
		},
		{
			"bufferView":142,
			"componentType":5126,
			"count":2,
			"type":"VEC3"
		},
		{
			"bufferView":143,
			"componentType":5126,
			"count":2,
			"type":"VEC3"
		},
		{
			"bufferView":144,
			"componentType":5126,
			"count":2,
			"type":"VEC4"
		},
		{
			"bufferView":145,
			"componentType":5126,
			"count":2,
			"type":"VEC3"
		},
		{
			"bufferView":146,
			"componentType":5126,
			"count":2,
			"type":"VEC3"
		},
		{
			"bufferView":147,
			"componentType":5126,
			"count":61,
			"type":"VEC4"
		},
		{
			"bufferView":148,
			"componentType":5126,
			"count":2,
			"type":"VEC3"
		},
		{
			"bufferView":149,
			"componentType":5126,
			"count":2,
			"type":"VEC3"
		},
		{
			"bufferView":150,
			"componentType":5126,
			"count":2,
			"type":"VEC4"
		},
		{
			"bufferView":151,
			"componentType":5126,
			"count":2,
			"type":"VEC3"
		},
		{
			"bufferView":152,
			"componentType":5126,
			"count":2,
			"type":"VEC3"
		},
		{
			"bufferView":153,
			"componentType":5126,
			"count":61,
			"type":"VEC4"
		},
		{
			"bufferView":154,
			"componentType":5126,
			"count":2,
			"type":"VEC3"
		},
		{
			"bufferView":155,
			"componentType":5126,
			"count":2,
			"type":"VEC3"
		},
		{
			"bufferView":156,
			"componentType":5126,
			"count":61,
			"type":"VEC4"
		},
		{
			"bufferView":157,
			"componentType":5126,
			"count":2,
			"type":"VEC3"
		},
		{
			"bufferView":158,
			"componentType":5126,
			"count":2,
			"type":"VEC3"
		},
		{
			"bufferView":159,
			"componentType":5126,
			"count":2,
			"type":"VEC4"
		},
		{
			"bufferView":160,
			"componentType":5126,
			"count":2,
			"type":"VEC3"
		},
		{
			"bufferView":161,
			"componentType":5126,
			"count":2,
			"type":"VEC3"
		},
		{
			"bufferView":162,
			"componentType":5126,
			"count":2,
			"type":"VEC4"
		},
		{
			"bufferView":163,
			"componentType":5126,
			"count":2,
			"type":"VEC3"
		},
		{
			"bufferView":164,
			"componentType":5126,
			"count":2,
			"type":"VEC3"
		},
		{
			"bufferView":165,
			"componentType":5126,
			"count":61,
			"type":"VEC4"
		},
		{
			"bufferView":166,
			"componentType":5126,
			"count":2,
			"type":"VEC3"
		},
		{
			"bufferView":167,
			"componentType":5126,
			"count":2,
			"type":"VEC3"
		},
		{
			"bufferView":168,
			"componentType":5126,
			"count":2,
			"type":"VEC4"
		},
		{
			"bufferView":169,
			"componentType":5126,
			"count":2,
			"type":"VEC3"
		},
		{
			"bufferView":170,
			"componentType":5126,
			"count":2,
			"type":"VEC3"
		},
		{
			"bufferView":171,
			"componentType":5126,
			"count":2,
			"type":"VEC4"
		},
		{
			"bufferView":172,
			"componentType":5126,
			"count":2,
			"type":"VEC3"
		},
		{
			"bufferView":173,
			"componentType":5126,
			"count":2,
			"type":"VEC3"
		},
		{
			"bufferView":174,
			"componentType":5126,
			"count":61,
			"type":"VEC4"
		},
		{
			"bufferView":175,
			"componentType":5126,
			"count":2,
			"type":"VEC3"
		},
		{
			"bufferView":176,
			"componentType":5126,
			"count":2,
			"type":"VEC3"
		},
		{
			"bufferView":177,
			"componentType":5126,
			"count":61,
			"type":"VEC4"
		},
		{
			"bufferView":178,
			"componentType":5126,
			"count":2,
			"type":"VEC3"
		},
		{
			"bufferView":179,
			"componentType":5126,
			"count":2,
			"type":"VEC3"
		},
		{
			"bufferView":180,
			"componentType":5126,
			"count":2,
			"type":"VEC4"
		},
		{
			"bufferView":181,
			"componentType":5126,
			"count":2,
			"type":"VEC3"
		},
		{
			"bufferView":182,
			"componentType":5126,
			"count":2,
			"type":"VEC3"
		},
		{
			"bufferView":183,
			"componentType":5126,
			"count":2,
			"type":"VEC4"
		},
		{
			"bufferView":184,
			"componentType":5126,
			"count":2,
			"type":"VEC3"
		},
		{
			"bufferView":185,
			"componentType":5126,
			"count":2,
			"type":"VEC3"
		},
		{
			"bufferView":186,
			"componentType":5126,
			"count":2,
			"type":"VEC4"
		},
		{
			"bufferView":187,
			"componentType":5126,
			"count":2,
			"type":"VEC3"
		},
		{
			"bufferView":188,
			"componentType":5126,
			"count":2,
			"type":"VEC3"
		},
		{
			"bufferView":189,
			"componentType":5126,
			"count":2,
			"type":"VEC4"
		},
		{
			"bufferView":190,
			"componentType":5126,
			"count":2,
			"type":"VEC3"
		},
		{
			"bufferView":191,
			"componentType":5126,
			"count":2,
			"type":"VEC3"
		},
		{
			"bufferView":192,
			"componentType":5126,
			"count":2,
			"type":"VEC4"
		},
		{
			"bufferView":193,
			"componentType":5126,
			"count":2,
			"type":"VEC3"
		},
		{
			"bufferView":194,
			"componentType":5126,
			"count":2,
			"type":"VEC3"
		},
		{
			"bufferView":195,
			"componentType":5126,
			"count":2,
			"type":"VEC4"
		},
		{
			"bufferView":196,
			"componentType":5126,
			"count":2,
			"type":"VEC3"
		},
		{
			"bufferView":197,
			"componentType":5126,
			"count":31,
			"max":[
				1
			],
			"min":[
				0
			],
			"type":"SCALAR"
		},
		{
			"bufferView":198,
			"componentType":5126,
			"count":31,
			"type":"VEC3"
		},
		{
			"bufferView":199,
			"componentType":5126,
			"count":31,
			"type":"VEC4"
		},
		{
			"bufferView":200,
			"componentType":5126,
			"count":2,
			"max":[
				1
			],
			"min":[
				0
			],
			"type":"SCALAR"
		},
		{
			"bufferView":201,
			"componentType":5126,
			"count":2,
			"type":"VEC3"
		},
		{
			"bufferView":202,
			"componentType":5126,
			"count":2,
			"type":"VEC3"
		},
		{
			"bufferView":203,
			"componentType":5126,
			"count":2,
			"type":"VEC4"
		},
		{
			"bufferView":204,
			"componentType":5126,
			"count":2,
			"type":"VEC3"
		},
		{
			"bufferView":205,
			"componentType":5126,
			"count":2,
			"type":"VEC3"
		},
		{
			"bufferView":206,
			"componentType":5126,
			"count":31,
			"type":"VEC4"
		},
		{
			"bufferView":207,
			"componentType":5126,
			"count":2,
			"type":"VEC3"
		},
		{
			"bufferView":208,
			"componentType":5126,
			"count":2,
			"type":"VEC3"
		},
		{
			"bufferView":209,
			"componentType":5126,
			"count":2,
			"type":"VEC4"
		},
		{
			"bufferView":210,
			"componentType":5126,
			"count":2,
			"type":"VEC3"
		},
		{
			"bufferView":211,
			"componentType":5126,
			"count":2,
			"type":"VEC3"
		},
		{
			"bufferView":212,
			"componentType":5126,
			"count":2,
			"type":"VEC4"
		},
		{
			"bufferView":213,
			"componentType":5126,
			"count":2,
			"type":"VEC3"
		},
		{
			"bufferView":214,
			"componentType":5126,
			"count":2,
			"type":"VEC3"
		},
		{
			"bufferView":215,
			"componentType":5126,
			"count":31,
			"type":"VEC4"
		},
		{
			"bufferView":216,
			"componentType":5126,
			"count":2,
			"type":"VEC3"
		},
		{
			"bufferView":217,
			"componentType":5126,
			"count":2,
			"type":"VEC3"
		},
		{
			"bufferView":218,
			"componentType":5126,
			"count":2,
			"type":"VEC4"
		},
		{
			"bufferView":219,
			"componentType":5126,
			"count":2,
			"type":"VEC3"
		},
		{
			"bufferView":220,
			"componentType":5126,
			"count":2,
			"type":"VEC3"
		},
		{
			"bufferView":221,
			"componentType":5126,
			"count":2,
			"type":"VEC4"
		},
		{
			"bufferView":222,
			"componentType":5126,
			"count":2,
			"type":"VEC3"
		},
		{
			"bufferView":223,
			"componentType":5126,
			"count":2,
			"type":"VEC3"
		},
		{
			"bufferView":224,
			"componentType":5126,
			"count":31,
			"type":"VEC4"
		},
		{
			"bufferView":225,
			"componentType":5126,
			"count":2,
			"type":"VEC3"
		},
		{
			"bufferView":226,
			"componentType":5126,
			"count":2,
			"type":"VEC3"
		},
		{
			"bufferView":227,
			"componentType":5126,
			"count":2,
			"type":"VEC4"
		},
		{
			"bufferView":228,
			"componentType":5126,
			"count":2,
			"type":"VEC3"
		},
		{
			"bufferView":229,
			"componentType":5126,
			"count":2,
			"type":"VEC3"
		},
		{
			"bufferView":230,
			"componentType":5126,
			"count":2,
			"type":"VEC4"
		},
		{
			"bufferView":231,
			"componentType":5126,
			"count":2,
			"type":"VEC3"
		},
		{
			"bufferView":232,
			"componentType":5126,
			"count":2,
			"type":"VEC3"
		},
		{
			"bufferView":233,
			"componentType":5126,
			"count":31,
			"type":"VEC4"
		},
		{
			"bufferView":234,
			"componentType":5126,
			"count":2,
			"type":"VEC3"
		},
		{
			"bufferView":235,
			"componentType":5126,
			"count":2,
			"type":"VEC3"
		},
		{
			"bufferView":236,
			"componentType":5126,
			"count":31,
			"type":"VEC4"
		},
		{
			"bufferView":237,
			"componentType":5126,
			"count":2,
			"type":"VEC3"
		},
		{
			"bufferView":238,
			"componentType":5126,
			"count":2,
			"type":"VEC3"
		},
		{
			"bufferView":239,
			"componentType":5126,
			"count":31,
			"type":"VEC4"
		},
		{
			"bufferView":240,
			"componentType":5126,
			"count":2,
			"type":"VEC3"
		},
		{
			"bufferView":241,
			"componentType":5126,
			"count":2,
			"type":"VEC3"
		},
		{
			"bufferView":242,
			"componentType":5126,
			"count":31,
			"type":"VEC4"
		},
		{
			"bufferView":243,
			"componentType":5126,
			"count":2,
			"type":"VEC3"
		},
		{
			"bufferView":244,
			"componentType":5126,
			"count":2,
			"type":"VEC3"
		},
		{
			"bufferView":245,
			"componentType":5126,
			"count":31,
			"type":"VEC4"
		},
		{
			"bufferView":246,
			"componentType":5126,
			"count":2,
			"type":"VEC3"
		},
		{
			"bufferView":247,
			"componentType":5126,
			"count":2,
			"type":"VEC3"
		},
		{
			"bufferView":248,
			"componentType":5126,
			"count":31,
			"type":"VEC4"
		},
		{
			"bufferView":249,
			"componentType":5126,
			"count":2,
			"type":"VEC3"
		},
		{
			"bufferView":250,
			"componentType":5126,
			"count":2,
			"type":"VEC3"
		},
		{
			"bufferView":251,
			"componentType":5126,
			"count":31,
			"type":"VEC4"
		},
		{
			"bufferView":252,
			"componentType":5126,
			"count":2,
			"type":"VEC3"
		},
		{
			"bufferView":253,
			"componentType":5126,
			"count":2,
			"type":"VEC3"
		},
		{
			"bufferView":254,
			"componentType":5126,
			"count":31,
			"type":"VEC4"
		},
		{
			"bufferView":255,
			"componentType":5126,
			"count":2,
			"type":"VEC3"
		}
	],
	"bufferViews":[
		{
			"buffer":0,
			"byteLength":16908,
			"byteOffset":0,
			"target":34962
		},
		{
			"buffer":0,
			"byteLength":16908,
			"byteOffset":16908,
			"target":34962
		},
		{
			"buffer":0,
			"byteLength":11272,
			"byteOffset":33816,
			"target":34962
		},
		{
			"buffer":0,
			"byteLength":5636,
			"byteOffset":45088,
			"target":34962
		},
		{
			"buffer":0,
			"byteLength":22544,
			"byteOffset":50724,
			"target":34962
		},
		{
			"buffer":0,
			"byteLength":11616,
			"byteOffset":73268,
			"target":34963
		},
		{
			"buffer":0,
			"byteLength":35040,
			"byteOffset":84884,
			"target":34962
		},
		{
			"buffer":0,
			"byteLength":35040,
			"byteOffset":119924,
			"target":34962
		},
		{
			"buffer":0,
			"byteLength":23360,
			"byteOffset":154964,
			"target":34962
		},
		{
			"buffer":0,
			"byteLength":11680,
			"byteOffset":178324,
			"target":34962
		},
		{
			"buffer":0,
			"byteLength":46720,
			"byteOffset":190004,
			"target":34962
		},
		{
			"buffer":0,
			"byteLength":20976,
			"byteOffset":236724,
			"target":34963
		},
		{
			"buffer":0,
			"byteLength":22992,
			"byteOffset":257700,
			"target":34962
		},
		{
			"buffer":0,
			"byteLength":22992,
			"byteOffset":280692,
			"target":34962
		},
		{
			"buffer":0,
			"byteLength":15328,
			"byteOffset":303684,
			"target":34962
		},
		{
			"buffer":0,
			"byteLength":7664,
			"byteOffset":319012,
			"target":34962
		},
		{
			"buffer":0,
			"byteLength":30656,
			"byteOffset":326676,
			"target":34962
		},
		{
			"buffer":0,
			"byteLength":17304,
			"byteOffset":357332,
			"target":34963
		},
		{
			"buffer":0,
			"byteLength":912,
			"byteOffset":374636,
			"target":34962
		},
		{
			"buffer":0,
			"byteLength":912,
			"byteOffset":375548,
			"target":34962
		},
		{
			"buffer":0,
			"byteLength":608,
			"byteOffset":376460,
			"target":34962
		},
		{
			"buffer":0,
			"byteLength":304,
			"byteOffset":377068,
			"target":34962
		},
		{
			"buffer":0,
			"byteLength":1216,
			"byteOffset":377372,
			"target":34962
		},
		{
			"buffer":0,
			"byteLength":528,
			"byteOffset":378588,
			"target":34963
		},
		{
			"buffer":0,
			"byteLength":11940,
			"byteOffset":379116,
			"target":34962
		},
		{
			"buffer":0,
			"byteLength":11940,
			"byteOffset":391056,
			"target":34962
		},
		{
			"buffer":0,
			"byteLength":7960,
			"byteOffset":402996,
			"target":34962
		},
		{
			"buffer":0,
			"byteLength":3980,
			"byteOffset":410956,
			"target":34962
		},
		{
			"buffer":0,
			"byteLength":15920,
			"byteOffset":414936,
			"target":34962
		},
		{
			"buffer":0,
			"byteLength":8760,
			"byteOffset":430856,
			"target":34963
		},
		{
			"buffer":0,
			"byteLength":12408,
			"byteOffset":439616,
			"target":34962
		},
		{
			"buffer":0,
			"byteLength":12408,
			"byteOffset":452024,
			"target":34962
		},
		{
			"buffer":0,
			"byteLength":8272,
			"byteOffset":464432,
			"target":34962
		},
		{
			"buffer":0,
			"byteLength":4136,
			"byteOffset":472704,
			"target":34962
		},
		{
			"buffer":0,
			"byteLength":16544,
			"byteOffset":476840,
			"target":34962
		},
		{
			"buffer":0,
			"byteLength":9216,
			"byteOffset":493384,
			"target":34963
		},
		{
			"buffer":0,
			"byteLength":3648,
			"byteOffset":502600,
			"target":34962
		},
		{
			"buffer":0,
			"byteLength":3648,
			"byteOffset":506248,
			"target":34962
		},
		{
			"buffer":0,
			"byteLength":2432,
			"byteOffset":509896,
			"target":34962
		},
		{
			"buffer":0,
			"byteLength":1216,
			"byteOffset":512328,
			"target":34962
		},
		{
			"buffer":0,
			"byteLength":4864,
			"byteOffset":513544,
			"target":34962
		},
		{
			"buffer":0,
			"byteLength":2304,
			"byteOffset":518408,
			"target":34963
		},
		{
			"buffer":0,
			"byteLength":2640,
			"byteOffset":520712,
			"target":34962
		},
		{
			"buffer":0,
			"byteLength":2640,
			"byteOffset":523352,
			"target":34962
		},
		{
			"buffer":0,
			"byteLength":1760,
			"byteOffset":525992,
			"target":34962
		},
		{
			"buffer":0,
			"byteLength":880,
			"byteOffset":527752,
			"target":34962
		},
		{
			"buffer":0,
			"byteLength":3520,
			"byteOffset":528632,
			"target":34962
		},
		{
			"buffer":0,
			"byteLength":1440,
			"byteOffset":532152,
			"target":34963
		},
		{
			"buffer":0,
			"byteLength":1920,
			"byteOffset":533592,
			"target":34962
		},
		{
			"buffer":0,
			"byteLength":1920,
			"byteOffset":535512,
			"target":34962
		},
		{
			"buffer":0,
			"byteLength":1280,
			"byteOffset":537432,
			"target":34962
		},
		{
			"buffer":0,
			"byteLength":640,
			"byteOffset":538712,
			"target":34962
		},
		{
			"buffer":0,
			"byteLength":2560,
			"byteOffset":539352,
			"target":34962
		},
		{
			"buffer":0,
			"byteLength":960,
			"byteOffset":541912,
			"target":34963
		},
		{
			"buffer":0,
			"byteLength":1176,
			"byteOffset":542872,
			"target":34962
		},
		{
			"buffer":0,
			"byteLength":1176,
			"byteOffset":544048,
			"target":34962
		},
		{
			"buffer":0,
			"byteLength":784,
			"byteOffset":545224,
			"target":34962
		},
		{
			"buffer":0,
			"byteLength":392,
			"byteOffset":546008,
			"target":34962
		},
		{
			"buffer":0,
			"byteLength":1568,
			"byteOffset":546400,
			"target":34962
		},
		{
			"buffer":0,
			"byteLength":720,
			"byteOffset":547968,
			"target":34963
		},
		{
			"buffer":0,
			"byteLength":936,
			"byteOffset":548688,
			"target":34962
		},
		{
			"buffer":0,
			"byteLength":936,
			"byteOffset":549624,
			"target":34962
		},
		{
			"buffer":0,
			"byteLength":624,
			"byteOffset":550560,
			"target":34962
		},
		{
			"buffer":0,
			"byteLength":312,
			"byteOffset":551184,
			"target":34962
		},
		{
			"buffer":0,
			"byteLength":1248,
			"byteOffset":551496,
			"target":34962
		},
		{
			"buffer":0,
			"byteLength":528,
			"byteOffset":552744,
			"target":34963
		},
		{
			"buffer":0,
			"byteLength":288,
			"byteOffset":553272,
			"target":34962
		},
		{
			"buffer":0,
			"byteLength":288,
			"byteOffset":553560,
			"target":34962
		},
		{
			"buffer":0,
			"byteLength":192,
			"byteOffset":553848,
			"target":34962
		},
		{
			"buffer":0,
			"byteLength":96,
			"byteOffset":554040,
			"target":34962
		},
		{
			"buffer":0,
			"byteLength":384,
			"byteOffset":554136,
			"target":34962
		},
		{
			"buffer":0,
			"byteLength":72,
			"byteOffset":554520,
			"target":34963
		},
		{
			"buffer":0,
			"byteLength":7200,
			"byteOffset":554592,
			"target":34962
		},
		{
			"buffer":0,
			"byteLength":7200,
			"byteOffset":561792,
			"target":34962
		},
		{
			"buffer":0,
			"byteLength":4800,
			"byteOffset":568992,
			"target":34962
		},
		{
			"buffer":0,
			"byteLength":2400,
			"byteOffset":573792,
			"target":34962
		},
		{
			"buffer":0,
			"byteLength":9600,
			"byteOffset":576192,
			"target":34962
		},
		{
			"buffer":0,
			"byteLength":5376,
			"byteOffset":585792,
			"target":34963
		},
		{
			"buffer":0,
			"byteLength":1216,
			"byteOffset":591168
		},
		{
			"buffer":0,
			"byteLength":8,
			"byteOffset":592384
		},
		{
			"buffer":0,
			"byteLength":24,
			"byteOffset":592392
		},
		{
			"buffer":0,
			"byteLength":32,
			"byteOffset":592416
		},
		{
			"buffer":0,
			"byteLength":24,
			"byteOffset":592448
		},
		{
			"buffer":0,
			"byteLength":24,
			"byteOffset":592472
		},
		{
			"buffer":0,
			"byteLength":32,
			"byteOffset":592496
		},
		{
			"buffer":0,
			"byteLength":24,
			"byteOffset":592528
		},
		{
			"buffer":0,
			"byteLength":24,
			"byteOffset":592552
		},
		{
			"buffer":0,
			"byteLength":76,
			"byteOffset":592576
		},
		{
			"buffer":0,
			"byteLength":304,
			"byteOffset":592652
		},
		{
			"buffer":0,
			"byteLength":24,
			"byteOffset":592956
		},
		{
			"buffer":0,
			"byteLength":24,
			"byteOffset":592980
		},
		{
			"buffer":0,
			"byteLength":32,
			"byteOffset":593004
		},
		{
			"buffer":0,
			"byteLength":24,
			"byteOffset":593036
		},
		{
			"buffer":0,
			"byteLength":24,
			"byteOffset":593060
		},
		{
			"buffer":0,
			"byteLength":32,
			"byteOffset":593084
		},
		{
			"buffer":0,
			"byteLength":24,
			"byteOffset":593116
		},
		{
			"buffer":0,
			"byteLength":24,
			"byteOffset":593140
		},
		{
			"buffer":0,
			"byteLength":304,
			"byteOffset":593164
		},
		{
			"buffer":0,
			"byteLength":24,
			"byteOffset":593468
		},
		{
			"buffer":0,
			"byteLength":24,
			"byteOffset":593492
		},
		{
			"buffer":0,
			"byteLength":304,
			"byteOffset":593516
		},
		{
			"buffer":0,
			"byteLength":24,
			"byteOffset":593820
		},
		{
			"buffer":0,
			"byteLength":24,
			"byteOffset":593844
		},
		{
			"buffer":0,
			"byteLength":32,
			"byteOffset":593868
		},
		{
			"buffer":0,
			"byteLength":24,
			"byteOffset":593900
		},
		{
			"buffer":0,
			"byteLength":24,
			"byteOffset":593924
		},
		{
			"buffer":0,
			"byteLength":304,
			"byteOffset":593948
		},
		{
			"buffer":0,
			"byteLength":24,
			"byteOffset":594252
		},
		{
			"buffer":0,
			"byteLength":24,
			"byteOffset":594276
		},
		{
			"buffer":0,
			"byteLength":32,
			"byteOffset":594300
		},
		{
			"buffer":0,
			"byteLength":24,
			"byteOffset":594332
		},
		{
			"buffer":0,
			"byteLength":24,
			"byteOffset":594356
		},
		{
			"buffer":0,
			"byteLength":32,
			"byteOffset":594380
		},
		{
			"buffer":0,
			"byteLength":24,
			"byteOffset":594412
		},
		{
			"buffer":0,
			"byteLength":24,
			"byteOffset":594436
		},
		{
			"buffer":0,
			"byteLength":32,
			"byteOffset":594460
		},
		{
			"buffer":0,
			"byteLength":24,
			"byteOffset":594492
		},
		{
			"buffer":0,
			"byteLength":24,
			"byteOffset":594516
		},
		{
			"buffer":0,
			"byteLength":32,
			"byteOffset":594540
		},
		{
			"buffer":0,
			"byteLength":24,
			"byteOffset":594572
		},
		{
			"buffer":0,
			"byteLength":24,
			"byteOffset":594596
		},
		{
			"buffer":0,
			"byteLength":304,
			"byteOffset":594620
		},
		{
			"buffer":0,
			"byteLength":24,
			"byteOffset":594924
		},
		{
			"buffer":0,
			"byteLength":24,
			"byteOffset":594948
		},
		{
			"buffer":0,
			"byteLength":32,
			"byteOffset":594972
		},
		{
			"buffer":0,
			"byteLength":24,
			"byteOffset":595004
		},
		{
			"buffer":0,
			"byteLength":24,
			"byteOffset":595028
		},
		{
			"buffer":0,
			"byteLength":32,
			"byteOffset":595052
		},
		{
			"buffer":0,
			"byteLength":24,
			"byteOffset":595084
		},
		{
			"buffer":0,
			"byteLength":24,
			"byteOffset":595108
		},
		{
			"buffer":0,
			"byteLength":304,
			"byteOffset":595132
		},
		{
			"buffer":0,
			"byteLength":24,
			"byteOffset":595436
		},
		{
			"buffer":0,
			"byteLength":24,
			"byteOffset":595460
		},
		{
			"buffer":0,
			"byteLength":32,
			"byteOffset":595484
		},
		{
			"buffer":0,
			"byteLength":24,
			"byteOffset":595516
		},
		{
			"buffer":0,
			"byteLength":24,
			"byteOffset":595540
		},
		{
			"buffer":0,
			"byteLength":32,
			"byteOffset":595564
		},
		{
			"buffer":0,
			"byteLength":24,
			"byteOffset":595596
		},
		{
			"buffer":0,
			"byteLength":244,
			"byteOffset":595620
		},
		{
			"buffer":0,
			"byteLength":732,
			"byteOffset":595864
		},
		{
			"buffer":0,
			"byteLength":8,
			"byteOffset":596596
		},
		{
			"buffer":0,
			"byteLength":32,
			"byteOffset":596604
		},
		{
			"buffer":0,
			"byteLength":24,
			"byteOffset":596636
		},
		{
			"buffer":0,
			"byteLength":24,
			"byteOffset":596660
		},
		{
			"buffer":0,
			"byteLength":32,
			"byteOffset":596684
		},
		{
			"buffer":0,
			"byteLength":24,
			"byteOffset":596716
		},
		{
			"buffer":0,
			"byteLength":24,
			"byteOffset":596740
		},
		{
			"buffer":0,
			"byteLength":976,
			"byteOffset":596764
		},
		{
			"buffer":0,
			"byteLength":24,
			"byteOffset":597740
		},
		{
			"buffer":0,
			"byteLength":24,
			"byteOffset":597764
		},
		{
			"buffer":0,
			"byteLength":32,
			"byteOffset":597788
		},
		{
			"buffer":0,
			"byteLength":24,
			"byteOffset":597820
		},
		{
			"buffer":0,
			"byteLength":24,
			"byteOffset":597844
		},
		{
			"buffer":0,
			"byteLength":976,
			"byteOffset":597868
		},
		{
			"buffer":0,
			"byteLength":24,
			"byteOffset":598844
		},
		{
			"buffer":0,
			"byteLength":24,
			"byteOffset":598868
		},
		{
			"buffer":0,
			"byteLength":976,
			"byteOffset":598892
		},
		{
			"buffer":0,
			"byteLength":24,
			"byteOffset":599868
		},
		{
			"buffer":0,
			"byteLength":24,
			"byteOffset":599892
		},
		{
			"buffer":0,
			"byteLength":32,
			"byteOffset":599916
		},
		{
			"buffer":0,
			"byteLength":24,
			"byteOffset":599948
		},
		{
			"buffer":0,
			"byteLength":24,
			"byteOffset":599972
		},
		{
			"buffer":0,
			"byteLength":32,
			"byteOffset":599996
		},
		{
			"buffer":0,
			"byteLength":24,
			"byteOffset":600028
		},
		{
			"buffer":0,
			"byteLength":24,
			"byteOffset":600052
		},
		{
			"buffer":0,
			"byteLength":976,
			"byteOffset":600076
		},
		{
			"buffer":0,
			"byteLength":24,
			"byteOffset":601052
		},
		{
			"buffer":0,
			"byteLength":24,
			"byteOffset":601076
		},
		{
			"buffer":0,
			"byteLength":32,
			"byteOffset":601100
		},
		{
			"buffer":0,
			"byteLength":24,
			"byteOffset":601132
		},
		{
			"buffer":0,
			"byteLength":24,
			"byteOffset":601156
		},
		{
			"buffer":0,
			"byteLength":32,
			"byteOffset":601180
		},
		{
			"buffer":0,
			"byteLength":24,
			"byteOffset":601212
		},
		{
			"buffer":0,
			"byteLength":24,
			"byteOffset":601236
		},
		{
			"buffer":0,
			"byteLength":976,
			"byteOffset":601260
		},
		{
			"buffer":0,
			"byteLength":24,
			"byteOffset":602236
		},
		{
			"buffer":0,
			"byteLength":24,
			"byteOffset":602260
		},
		{
			"buffer":0,
			"byteLength":976,
			"byteOffset":602284
		},
		{
			"buffer":0,
			"byteLength":24,
			"byteOffset":603260
		},
		{
			"buffer":0,
			"byteLength":24,
			"byteOffset":603284
		},
		{
			"buffer":0,
			"byteLength":32,
			"byteOffset":603308
		},
		{
			"buffer":0,
			"byteLength":24,
			"byteOffset":603340
		},
		{
			"buffer":0,
			"byteLength":24,
			"byteOffset":603364
		},
		{
			"buffer":0,
			"byteLength":32,
			"byteOffset":603388
		},
		{
			"buffer":0,
			"byteLength":24,
			"byteOffset":603420
		},
		{
			"buffer":0,
			"byteLength":24,
			"byteOffset":603444
		},
		{
			"buffer":0,
			"byteLength":32,
			"byteOffset":603468
		},
		{
			"buffer":0,
			"byteLength":24,
			"byteOffset":603500
		},
		{
			"buffer":0,
			"byteLength":24,
			"byteOffset":603524
		},
		{
			"buffer":0,
			"byteLength":32,
			"byteOffset":603548
		},
		{
			"buffer":0,
			"byteLength":24,
			"byteOffset":603580
		},
		{
			"buffer":0,
			"byteLength":24,
			"byteOffset":603604
		},
		{
			"buffer":0,
			"byteLength":32,
			"byteOffset":603628
		},
		{
			"buffer":0,
			"byteLength":24,
			"byteOffset":603660
		},
		{
			"buffer":0,
			"byteLength":24,
			"byteOffset":603684
		},
		{
			"buffer":0,
			"byteLength":32,
			"byteOffset":603708
		},
		{
			"buffer":0,
			"byteLength":24,
			"byteOffset":603740
		},
		{
			"buffer":0,
			"byteLength":124,
			"byteOffset":603764
		},
		{
			"buffer":0,
			"byteLength":372,
			"byteOffset":603888
		},
		{
			"buffer":0,
			"byteLength":496,
			"byteOffset":604260
		},
		{
			"buffer":0,
			"byteLength":8,
			"byteOffset":604756
		},
		{
			"buffer":0,
			"byteLength":24,
			"byteOffset":604764
		},
		{
			"buffer":0,
			"byteLength":24,
			"byteOffset":604788
		},
		{
			"buffer":0,
			"byteLength":32,
			"byteOffset":604812
		},
		{
			"buffer":0,
			"byteLength":24,
			"byteOffset":604844
		},
		{
			"buffer":0,
			"byteLength":24,
			"byteOffset":604868
		},
		{
			"buffer":0,
			"byteLength":496,
			"byteOffset":604892
		},
		{
			"buffer":0,
			"byteLength":24,
			"byteOffset":605388
		},
		{
			"buffer":0,
			"byteLength":24,
			"byteOffset":605412
		},
		{
			"buffer":0,
			"byteLength":32,
			"byteOffset":605436
		},
		{
			"buffer":0,
			"byteLength":24,
			"byteOffset":605468
		},
		{
			"buffer":0,
			"byteLength":24,
			"byteOffset":605492
		},
		{
			"buffer":0,
			"byteLength":32,
			"byteOffset":605516
		},
		{
			"buffer":0,
			"byteLength":24,
			"byteOffset":605548
		},
		{
			"buffer":0,
			"byteLength":24,
			"byteOffset":605572
		},
		{
			"buffer":0,
			"byteLength":496,
			"byteOffset":605596
		},
		{
			"buffer":0,
			"byteLength":24,
			"byteOffset":606092
		},
		{
			"buffer":0,
			"byteLength":24,
			"byteOffset":606116
		},
		{
			"buffer":0,
			"byteLength":32,
			"byteOffset":606140
		},
		{
			"buffer":0,
			"byteLength":24,
			"byteOffset":606172
		},
		{
			"buffer":0,
			"byteLength":24,
			"byteOffset":606196
		},
		{
			"buffer":0,
			"byteLength":32,
			"byteOffset":606220
		},
		{
			"buffer":0,
			"byteLength":24,
			"byteOffset":606252
		},
		{
			"buffer":0,
			"byteLength":24,
			"byteOffset":606276
		},
		{
			"buffer":0,
			"byteLength":496,
			"byteOffset":606300
		},
		{
			"buffer":0,
			"byteLength":24,
			"byteOffset":606796
		},
		{
			"buffer":0,
			"byteLength":24,
			"byteOffset":606820
		},
		{
			"buffer":0,
			"byteLength":32,
			"byteOffset":606844
		},
		{
			"buffer":0,
			"byteLength":24,
			"byteOffset":606876
		},
		{
			"buffer":0,
			"byteLength":24,
			"byteOffset":606900
		},
		{
			"buffer":0,
			"byteLength":32,
			"byteOffset":606924
		},
		{
			"buffer":0,
			"byteLength":24,
			"byteOffset":606956
		},
		{
			"buffer":0,
			"byteLength":24,
			"byteOffset":606980
		},
		{
			"buffer":0,
			"byteLength":496,
			"byteOffset":607004
		},
		{
			"buffer":0,
			"byteLength":24,
			"byteOffset":607500
		},
		{
			"buffer":0,
			"byteLength":24,
			"byteOffset":607524
		},
		{
			"buffer":0,
			"byteLength":496,
			"byteOffset":607548
		},
		{
			"buffer":0,
			"byteLength":24,
			"byteOffset":608044
		},
		{
			"buffer":0,
			"byteLength":24,
			"byteOffset":608068
		},
		{
			"buffer":0,
			"byteLength":496,
			"byteOffset":608092
		},
		{
			"buffer":0,
			"byteLength":24,
			"byteOffset":608588
		},
		{
			"buffer":0,
			"byteLength":24,
			"byteOffset":608612
		},
		{
			"buffer":0,
			"byteLength":496,
			"byteOffset":608636
		},
		{
			"buffer":0,
			"byteLength":24,
			"byteOffset":609132
		},
		{
			"buffer":0,
			"byteLength":24,
			"byteOffset":609156
		},
		{
			"buffer":0,
			"byteLength":496,
			"byteOffset":609180
		},
		{
			"buffer":0,
			"byteLength":24,
			"byteOffset":609676
		},
		{
			"buffer":0,
			"byteLength":24,
			"byteOffset":609700
		},
		{
			"buffer":0,
			"byteLength":496,
			"byteOffset":609724
		},
		{
			"buffer":0,
			"byteLength":24,
			"byteOffset":610220
		},
		{
			"buffer":0,
			"byteLength":24,
			"byteOffset":610244
		},
		{
			"buffer":0,
			"byteLength":496,
			"byteOffset":610268
		},
		{
			"buffer":0,
			"byteLength":24,
			"byteOffset":610764
		},
		{
			"buffer":0,
			"byteLength":24,
			"byteOffset":610788
		},
		{
			"buffer":0,
			"byteLength":496,
			"byteOffset":610812
		},
		{
			"buffer":0,
			"byteLength":24,
			"byteOffset":611308
		}
	],
	"samplers":[
		{
			"magFilter":9729,
			"minFilter":9987
		}
	],
	"buffers":[
		{
			"byteLength":611332,
			"uri":"ramiris.bin"
		}
	]
}
