{
	"asset":{
		"generator":"Khronos glTF Blender I/O v4.2.57",
		"version":"2.0"
	},
	"extensionsUsed":[
		"KHR_materials_clearcoat",
		"KHR_materials_sheen"
	],
	"scene":0,
	"scenes":[
		{
			"name":"Scene",
			"nodes":[
				18
			]
		}
	],
	"nodes":[
		{
			"name":"head",
			"translation":[
				0,
				0.11500000953674316,
				0
			]
		},
		{
			"children":[
				0
			],
			"name":"neck",
			"translation":[
				0,
				0.2415001392364502,
				0
			]
		},
		{
			"name":"hand.R",
			"rotation":[
				-0.0038906349800527096,
				-0.027691137045621872,
				0.029728226363658905,
				0.9991667866706848
			],
			"scale":[
				0.9999999403953552,
				0.9999997615814209,
				0.9999998807907104
			],
			"translation":[
				1.1338852345943451e-07,
				0.2903614640235901,
				2.514570951461792e-08
			]
		},
		{
			"children":[
				2
			],
			"name":"forearm.R",
			"rotation":[
				0.04329434409737587,
				-0.06868528574705124,
				0.07991358637809753,
				0.993489682674408
			],
			"scale":[
				1.0000001192092896,
				0.9999999403953552,
				0.9999999403953552
			],
			"translation":[
				1.83936208486557e-08,
				0.32127052545547485,
				-1.6763806343078613e-08
			]
		},
		{
			"children":[
				3
			],
			"name":"upper_arm.R",
			"rotation":[
				0.9830951690673828,
				0.1294655203819275,
				0.12946541607379913,
				0.0011559014674276114
			],
			"scale":[
				1.0000005960464478,
				1,
				1
			],
			"translation":[
				0.3353399932384491,
				0.18400001525878906,
				0
			]
		},
		{
			"name":"hand.L",
			"rotation":[
				-0.0038906349800527096,
				0.027691137045621872,
				-0.029728226363658905,
				0.9991667866706848
			],
			"scale":[
				0.9999999403953552,
				0.9999997615814209,
				0.9999998807907104
			],
			"translation":[
				-1.1338852345943451e-07,
				0.2903614640235901,
				2.514570951461792e-08
			]
		},
		{
			"children":[
				5
			],
			"name":"forearm.L",
			"rotation":[
				0.04329434409737587,
				0.06868528574705124,
				-0.07991358637809753,
				0.993489682674408
			],
			"scale":[
				1.0000001192092896,
				0.9999999403953552,
				0.9999999403953552
			],
			"translation":[
				-1.83936208486557e-08,
				0.32127052545547485,
				-1.6763806343078613e-08
			]
		},
		{
			"children":[
				6
			],
			"name":"upper_arm.L",
			"rotation":[
				0.9830951690673828,
				-0.1294655203819275,
				-0.12946541607379913,
				0.0011559014674276114
			],
			"scale":[
				1.0000005960464478,
				1,
				1
			],
			"translation":[
				-0.3353399932384491,
				0.18400001525878906,
				0
			]
		},
		{
			"children":[
				1,
				4,
				7
			],
			"name":"chest",
			"scale":[
				1,
				0.9999999403953552,
				1
			],
			"translation":[
				0,
				0.19550001621246338,
				0
			]
		},
		{
			"children":[
				8
			],
			"name":"spine",
			"translation":[
				0,
				0.17250001430511475,
				0
			]
		},
		{
			"name":"foot.R",
			"rotation":[
				0.5914180874824524,
				-3.442564289191097e-10,
				-4.693664346078208e-10,
				0.8063651323318481
			],
			"translation":[
				-1.5020759747130796e-08,
				0.47217822074890137,
				1.6908288102968072e-09
			]
		},
		{
			"children":[
				10
			],
			"name":"shin.R",
			"rotation":[
				-0.04158279299736023,
				-0.013315198011696339,
				0.012619884684681892,
				0.998966634273529
			],
			"translation":[
				4.103640094399452e-09,
				0.4718655049800873,
				1.862645149230957e-09
			]
		},
		{
			"children":[
				11
			],
			"name":"thigh.R",
			"rotation":[
				-0.9997222423553467,
				-0.012972208671271801,
				-0.012972312048077583,
				0.014795200899243355
			],
			"scale":[
				1.000000238418579,
				1,
				1.000000238418579
			],
			"translation":[
				0.1428299993276596,
				-0.023000001907348633,
				0
			]
		},
		{
			"name":"foot.L",
			"rotation":[
				0.5914180874824524,
				3.442564289191097e-10,
				4.693664346078208e-10,
				0.8063651323318481
			],
			"translation":[
				1.5020759747130796e-08,
				0.47217822074890137,
				1.6908288102968072e-09
			]
		},
		{
			"children":[
				13
			],
			"name":"shin.L",
			"rotation":[
				-0.04158279299736023,
				0.013315198011696339,
				-0.012619884684681892,
				0.998966634273529
			],
			"translation":[
				-4.103640094399452e-09,
				0.4718655049800873,
				1.862645149230957e-09
			]
		},
		{
			"children":[
				14
			],
			"name":"thigh.L",
			"rotation":[
				-0.9997222423553467,
				0.012972208671271801,
				0.012972312048077583,
				0.014795200899243355
			],
			"scale":[
				1.000000238418579,
				1,
				1.000000238418579
			],
			"translation":[
				-0.1428299993276596,
				-0.023000001907348633,
				0
			]
		},
		{
			"children":[
				9,
				12,
				15
			],
			"name":"hips",
			"translation":[
				0,
				1.0694999694824219,
				0
			]
		},
		{
			"mesh":0,
			"name":"rigurd",
			"skin":0
		},
		{
			"children":[
				17,
				16
			],
			"name":"rigurd_rig"
		}
	],
	"animations":[
		{
			"channels":[
				{
					"sampler":0,
					"target":{
						"node":16,
						"path":"translation"
					}
				},
				{
					"sampler":1,
					"target":{
						"node":16,
						"path":"rotation"
					}
				},
				{
					"sampler":2,
					"target":{
						"node":16,
						"path":"scale"
					}
				},
				{
					"sampler":3,
					"target":{
						"node":9,
						"path":"translation"
					}
				},
				{
					"sampler":4,
					"target":{
						"node":9,
						"path":"rotation"
					}
				},
				{
					"sampler":5,
					"target":{
						"node":9,
						"path":"scale"
					}
				},
				{
					"sampler":6,
					"target":{
						"node":8,
						"path":"translation"
					}
				},
				{
					"sampler":7,
					"target":{
						"node":8,
						"path":"rotation"
					}
				},
				{
					"sampler":8,
					"target":{
						"node":8,
						"path":"scale"
					}
				},
				{
					"sampler":9,
					"target":{
						"node":1,
						"path":"translation"
					}
				},
				{
					"sampler":10,
					"target":{
						"node":1,
						"path":"rotation"
					}
				},
				{
					"sampler":11,
					"target":{
						"node":1,
						"path":"scale"
					}
				},
				{
					"sampler":12,
					"target":{
						"node":0,
						"path":"translation"
					}
				},
				{
					"sampler":13,
					"target":{
						"node":0,
						"path":"rotation"
					}
				},
				{
					"sampler":14,
					"target":{
						"node":0,
						"path":"scale"
					}
				},
				{
					"sampler":15,
					"target":{
						"node":4,
						"path":"translation"
					}
				},
				{
					"sampler":16,
					"target":{
						"node":4,
						"path":"rotation"
					}
				},
				{
					"sampler":17,
					"target":{
						"node":4,
						"path":"scale"
					}
				},
				{
					"sampler":18,
					"target":{
						"node":3,
						"path":"translation"
					}
				},
				{
					"sampler":19,
					"target":{
						"node":3,
						"path":"rotation"
					}
				},
				{
					"sampler":20,
					"target":{
						"node":3,
						"path":"scale"
					}
				},
				{
					"sampler":21,
					"target":{
						"node":2,
						"path":"translation"
					}
				},
				{
					"sampler":22,
					"target":{
						"node":2,
						"path":"rotation"
					}
				},
				{
					"sampler":23,
					"target":{
						"node":2,
						"path":"scale"
					}
				},
				{
					"sampler":24,
					"target":{
						"node":7,
						"path":"translation"
					}
				},
				{
					"sampler":25,
					"target":{
						"node":7,
						"path":"rotation"
					}
				},
				{
					"sampler":26,
					"target":{
						"node":7,
						"path":"scale"
					}
				},
				{
					"sampler":27,
					"target":{
						"node":6,
						"path":"translation"
					}
				},
				{
					"sampler":28,
					"target":{
						"node":6,
						"path":"rotation"
					}
				},
				{
					"sampler":29,
					"target":{
						"node":6,
						"path":"scale"
					}
				},
				{
					"sampler":30,
					"target":{
						"node":5,
						"path":"translation"
					}
				},
				{
					"sampler":31,
					"target":{
						"node":5,
						"path":"rotation"
					}
				},
				{
					"sampler":32,
					"target":{
						"node":5,
						"path":"scale"
					}
				},
				{
					"sampler":33,
					"target":{
						"node":12,
						"path":"translation"
					}
				},
				{
					"sampler":34,
					"target":{
						"node":12,
						"path":"rotation"
					}
				},
				{
					"sampler":35,
					"target":{
						"node":12,
						"path":"scale"
					}
				},
				{
					"sampler":36,
					"target":{
						"node":11,
						"path":"translation"
					}
				},
				{
					"sampler":37,
					"target":{
						"node":11,
						"path":"rotation"
					}
				},
				{
					"sampler":38,
					"target":{
						"node":11,
						"path":"scale"
					}
				},
				{
					"sampler":39,
					"target":{
						"node":10,
						"path":"translation"
					}
				},
				{
					"sampler":40,
					"target":{
						"node":10,
						"path":"rotation"
					}
				},
				{
					"sampler":41,
					"target":{
						"node":10,
						"path":"scale"
					}
				},
				{
					"sampler":42,
					"target":{
						"node":15,
						"path":"translation"
					}
				},
				{
					"sampler":43,
					"target":{
						"node":15,
						"path":"rotation"
					}
				},
				{
					"sampler":44,
					"target":{
						"node":15,
						"path":"scale"
					}
				},
				{
					"sampler":45,
					"target":{
						"node":14,
						"path":"translation"
					}
				},
				{
					"sampler":46,
					"target":{
						"node":14,
						"path":"rotation"
					}
				},
				{
					"sampler":47,
					"target":{
						"node":14,
						"path":"scale"
					}
				},
				{
					"sampler":48,
					"target":{
						"node":13,
						"path":"translation"
					}
				},
				{
					"sampler":49,
					"target":{
						"node":13,
						"path":"rotation"
					}
				},
				{
					"sampler":50,
					"target":{
						"node":13,
						"path":"scale"
					}
				}
			],
			"name":"attack",
			"samplers":[
				{
					"input":67,
					"interpolation":"STEP",
					"output":68
				},
				{
					"input":67,
					"interpolation":"STEP",
					"output":69
				},
				{
					"input":67,
					"interpolation":"STEP",
					"output":70
				},
				{
					"input":67,
					"interpolation":"STEP",
					"output":71
				},
				{
					"input":67,
					"interpolation":"STEP",
					"output":72
				},
				{
					"input":67,
					"interpolation":"STEP",
					"output":73
				},
				{
					"input":67,
					"interpolation":"STEP",
					"output":74
				},
				{
					"input":75,
					"interpolation":"LINEAR",
					"output":76
				},
				{
					"input":67,
					"interpolation":"STEP",
					"output":77
				},
				{
					"input":67,
					"interpolation":"STEP",
					"output":78
				},
				{
					"input":67,
					"interpolation":"STEP",
					"output":79
				},
				{
					"input":67,
					"interpolation":"STEP",
					"output":80
				},
				{
					"input":67,
					"interpolation":"STEP",
					"output":81
				},
				{
					"input":67,
					"interpolation":"STEP",
					"output":82
				},
				{
					"input":67,
					"interpolation":"STEP",
					"output":83
				},
				{
					"input":67,
					"interpolation":"STEP",
					"output":84
				},
				{
					"input":75,
					"interpolation":"LINEAR",
					"output":85
				},
				{
					"input":67,
					"interpolation":"STEP",
					"output":86
				},
				{
					"input":67,
					"interpolation":"LINEAR",
					"output":87
				},
				{
					"input":75,
					"interpolation":"LINEAR",
					"output":88
				},
				{
					"input":67,
					"interpolation":"STEP",
					"output":89
				},
				{
					"input":67,
					"interpolation":"LINEAR",
					"output":90
				},
				{
					"input":67,
					"interpolation":"LINEAR",
					"output":91
				},
				{
					"input":67,
					"interpolation":"STEP",
					"output":92
				},
				{
					"input":67,
					"interpolation":"STEP",
					"output":93
				},
				{
					"input":75,
					"interpolation":"LINEAR",
					"output":94
				},
				{
					"input":67,
					"interpolation":"STEP",
					"output":95
				},
				{
					"input":67,
					"interpolation":"STEP",
					"output":96
				},
				{
					"input":67,
					"interpolation":"STEP",
					"output":97
				},
				{
					"input":67,
					"interpolation":"STEP",
					"output":98
				},
				{
					"input":67,
					"interpolation":"STEP",
					"output":99
				},
				{
					"input":67,
					"interpolation":"STEP",
					"output":100
				},
				{
					"input":67,
					"interpolation":"STEP",
					"output":101
				},
				{
					"input":67,
					"interpolation":"STEP",
					"output":102
				},
				{
					"input":75,
					"interpolation":"LINEAR",
					"output":103
				},
				{
					"input":67,
					"interpolation":"STEP",
					"output":104
				},
				{
					"input":67,
					"interpolation":"LINEAR",
					"output":105
				},
				{
					"input":67,
					"interpolation":"LINEAR",
					"output":106
				},
				{
					"input":67,
					"interpolation":"STEP",
					"output":107
				},
				{
					"input":67,
					"interpolation":"LINEAR",
					"output":108
				},
				{
					"input":67,
					"interpolation":"LINEAR",
					"output":109
				},
				{
					"input":67,
					"interpolation":"STEP",
					"output":110
				},
				{
					"input":67,
					"interpolation":"STEP",
					"output":111
				},
				{
					"input":75,
					"interpolation":"LINEAR",
					"output":112
				},
				{
					"input":67,
					"interpolation":"STEP",
					"output":113
				},
				{
					"input":67,
					"interpolation":"LINEAR",
					"output":114
				},
				{
					"input":67,
					"interpolation":"LINEAR",
					"output":115
				},
				{
					"input":67,
					"interpolation":"STEP",
					"output":116
				},
				{
					"input":67,
					"interpolation":"LINEAR",
					"output":117
				},
				{
					"input":67,
					"interpolation":"LINEAR",
					"output":118
				},
				{
					"input":67,
					"interpolation":"STEP",
					"output":119
				}
			]
		},
		{
			"channels":[
				{
					"sampler":0,
					"target":{
						"node":16,
						"path":"translation"
					}
				},
				{
					"sampler":1,
					"target":{
						"node":16,
						"path":"rotation"
					}
				},
				{
					"sampler":2,
					"target":{
						"node":16,
						"path":"scale"
					}
				},
				{
					"sampler":3,
					"target":{
						"node":9,
						"path":"translation"
					}
				},
				{
					"sampler":4,
					"target":{
						"node":9,
						"path":"rotation"
					}
				},
				{
					"sampler":5,
					"target":{
						"node":9,
						"path":"scale"
					}
				},
				{
					"sampler":6,
					"target":{
						"node":8,
						"path":"translation"
					}
				},
				{
					"sampler":7,
					"target":{
						"node":8,
						"path":"rotation"
					}
				},
				{
					"sampler":8,
					"target":{
						"node":8,
						"path":"scale"
					}
				},
				{
					"sampler":9,
					"target":{
						"node":1,
						"path":"translation"
					}
				},
				{
					"sampler":10,
					"target":{
						"node":1,
						"path":"rotation"
					}
				},
				{
					"sampler":11,
					"target":{
						"node":1,
						"path":"scale"
					}
				},
				{
					"sampler":12,
					"target":{
						"node":0,
						"path":"translation"
					}
				},
				{
					"sampler":13,
					"target":{
						"node":0,
						"path":"rotation"
					}
				},
				{
					"sampler":14,
					"target":{
						"node":0,
						"path":"scale"
					}
				},
				{
					"sampler":15,
					"target":{
						"node":4,
						"path":"translation"
					}
				},
				{
					"sampler":16,
					"target":{
						"node":4,
						"path":"rotation"
					}
				},
				{
					"sampler":17,
					"target":{
						"node":4,
						"path":"scale"
					}
				},
				{
					"sampler":18,
					"target":{
						"node":3,
						"path":"translation"
					}
				},
				{
					"sampler":19,
					"target":{
						"node":3,
						"path":"rotation"
					}
				},
				{
					"sampler":20,
					"target":{
						"node":3,
						"path":"scale"
					}
				},
				{
					"sampler":21,
					"target":{
						"node":2,
						"path":"translation"
					}
				},
				{
					"sampler":22,
					"target":{
						"node":2,
						"path":"rotation"
					}
				},
				{
					"sampler":23,
					"target":{
						"node":2,
						"path":"scale"
					}
				},
				{
					"sampler":24,
					"target":{
						"node":7,
						"path":"translation"
					}
				},
				{
					"sampler":25,
					"target":{
						"node":7,
						"path":"rotation"
					}
				},
				{
					"sampler":26,
					"target":{
						"node":7,
						"path":"scale"
					}
				},
				{
					"sampler":27,
					"target":{
						"node":6,
						"path":"translation"
					}
				},
				{
					"sampler":28,
					"target":{
						"node":6,
						"path":"rotation"
					}
				},
				{
					"sampler":29,
					"target":{
						"node":6,
						"path":"scale"
					}
				},
				{
					"sampler":30,
					"target":{
						"node":5,
						"path":"translation"
					}
				},
				{
					"sampler":31,
					"target":{
						"node":5,
						"path":"rotation"
					}
				},
				{
					"sampler":32,
					"target":{
						"node":5,
						"path":"scale"
					}
				},
				{
					"sampler":33,
					"target":{
						"node":12,
						"path":"translation"
					}
				},
				{
					"sampler":34,
					"target":{
						"node":12,
						"path":"rotation"
					}
				},
				{
					"sampler":35,
					"target":{
						"node":12,
						"path":"scale"
					}
				},
				{
					"sampler":36,
					"target":{
						"node":11,
						"path":"translation"
					}
				},
				{
					"sampler":37,
					"target":{
						"node":11,
						"path":"rotation"
					}
				},
				{
					"sampler":38,
					"target":{
						"node":11,
						"path":"scale"
					}
				},
				{
					"sampler":39,
					"target":{
						"node":10,
						"path":"translation"
					}
				},
				{
					"sampler":40,
					"target":{
						"node":10,
						"path":"rotation"
					}
				},
				{
					"sampler":41,
					"target":{
						"node":10,
						"path":"scale"
					}
				},
				{
					"sampler":42,
					"target":{
						"node":15,
						"path":"translation"
					}
				},
				{
					"sampler":43,
					"target":{
						"node":15,
						"path":"rotation"
					}
				},
				{
					"sampler":44,
					"target":{
						"node":15,
						"path":"scale"
					}
				},
				{
					"sampler":45,
					"target":{
						"node":14,
						"path":"translation"
					}
				},
				{
					"sampler":46,
					"target":{
						"node":14,
						"path":"rotation"
					}
				},
				{
					"sampler":47,
					"target":{
						"node":14,
						"path":"scale"
					}
				},
				{
					"sampler":48,
					"target":{
						"node":13,
						"path":"translation"
					}
				},
				{
					"sampler":49,
					"target":{
						"node":13,
						"path":"rotation"
					}
				},
				{
					"sampler":50,
					"target":{
						"node":13,
						"path":"scale"
					}
				}
			],
			"name":"idle",
			"samplers":[
				{
					"input":120,
					"interpolation":"LINEAR",
					"output":121
				},
				{
					"input":122,
					"interpolation":"STEP",
					"output":123
				},
				{
					"input":122,
					"interpolation":"STEP",
					"output":124
				},
				{
					"input":122,
					"interpolation":"STEP",
					"output":125
				},
				{
					"input":122,
					"interpolation":"STEP",
					"output":126
				},
				{
					"input":122,
					"interpolation":"STEP",
					"output":127
				},
				{
					"input":122,
					"interpolation":"STEP",
					"output":128
				},
				{
					"input":120,
					"interpolation":"LINEAR",
					"output":129
				},
				{
					"input":122,
					"interpolation":"STEP",
					"output":130
				},
				{
					"input":122,
					"interpolation":"STEP",
					"output":131
				},
				{
					"input":122,
					"interpolation":"STEP",
					"output":132
				},
				{
					"input":122,
					"interpolation":"STEP",
					"output":133
				},
				{
					"input":122,
					"interpolation":"STEP",
					"output":134
				},
				{
					"input":120,
					"interpolation":"LINEAR",
					"output":135
				},
				{
					"input":122,
					"interpolation":"STEP",
					"output":136
				},
				{
					"input":122,
					"interpolation":"STEP",
					"output":137
				},
				{
					"input":120,
					"interpolation":"LINEAR",
					"output":138
				},
				{
					"input":122,
					"interpolation":"STEP",
					"output":139
				},
				{
					"input":122,
					"interpolation":"STEP",
					"output":140
				},
				{
					"input":122,
					"interpolation":"STEP",
					"output":141
				},
				{
					"input":122,
					"interpolation":"STEP",
					"output":142
				},
				{
					"input":122,
					"interpolation":"STEP",
					"output":143
				},
				{
					"input":122,
					"interpolation":"STEP",
					"output":144
				},
				{
					"input":122,
					"interpolation":"STEP",
					"output":145
				},
				{
					"input":122,
					"interpolation":"STEP",
					"output":146
				},
				{
					"input":120,
					"interpolation":"LINEAR",
					"output":147
				},
				{
					"input":122,
					"interpolation":"STEP",
					"output":148
				},
				{
					"input":122,
					"interpolation":"STEP",
					"output":149
				},
				{
					"input":122,
					"interpolation":"STEP",
					"output":150
				},
				{
					"input":122,
					"interpolation":"STEP",
					"output":151
				},
				{
					"input":122,
					"interpolation":"STEP",
					"output":152
				},
				{
					"input":122,
					"interpolation":"STEP",
					"output":153
				},
				{
					"input":122,
					"interpolation":"STEP",
					"output":154
				},
				{
					"input":122,
					"interpolation":"STEP",
					"output":155
				},
				{
					"input":122,
					"interpolation":"STEP",
					"output":156
				},
				{
					"input":122,
					"interpolation":"STEP",
					"output":157
				},
				{
					"input":122,
					"interpolation":"STEP",
					"output":158
				},
				{
					"input":122,
					"interpolation":"STEP",
					"output":159
				},
				{
					"input":122,
					"interpolation":"STEP",
					"output":160
				},
				{
					"input":122,
					"interpolation":"STEP",
					"output":161
				},
				{
					"input":122,
					"interpolation":"STEP",
					"output":162
				},
				{
					"input":122,
					"interpolation":"STEP",
					"output":163
				},
				{
					"input":122,
					"interpolation":"STEP",
					"output":164
				},
				{
					"input":122,
					"interpolation":"STEP",
					"output":165
				},
				{
					"input":122,
					"interpolation":"STEP",
					"output":166
				},
				{
					"input":122,
					"interpolation":"STEP",
					"output":167
				},
				{
					"input":122,
					"interpolation":"STEP",
					"output":168
				},
				{
					"input":122,
					"interpolation":"STEP",
					"output":169
				},
				{
					"input":122,
					"interpolation":"STEP",
					"output":170
				},
				{
					"input":122,
					"interpolation":"STEP",
					"output":171
				},
				{
					"input":122,
					"interpolation":"STEP",
					"output":172
				}
			]
		},
		{
			"channels":[
				{
					"sampler":0,
					"target":{
						"node":16,
						"path":"translation"
					}
				},
				{
					"sampler":1,
					"target":{
						"node":16,
						"path":"rotation"
					}
				},
				{
					"sampler":2,
					"target":{
						"node":16,
						"path":"scale"
					}
				},
				{
					"sampler":3,
					"target":{
						"node":9,
						"path":"translation"
					}
				},
				{
					"sampler":4,
					"target":{
						"node":9,
						"path":"rotation"
					}
				},
				{
					"sampler":5,
					"target":{
						"node":9,
						"path":"scale"
					}
				},
				{
					"sampler":6,
					"target":{
						"node":8,
						"path":"translation"
					}
				},
				{
					"sampler":7,
					"target":{
						"node":8,
						"path":"rotation"
					}
				},
				{
					"sampler":8,
					"target":{
						"node":8,
						"path":"scale"
					}
				},
				{
					"sampler":9,
					"target":{
						"node":1,
						"path":"translation"
					}
				},
				{
					"sampler":10,
					"target":{
						"node":1,
						"path":"rotation"
					}
				},
				{
					"sampler":11,
					"target":{
						"node":1,
						"path":"scale"
					}
				},
				{
					"sampler":12,
					"target":{
						"node":0,
						"path":"translation"
					}
				},
				{
					"sampler":13,
					"target":{
						"node":0,
						"path":"rotation"
					}
				},
				{
					"sampler":14,
					"target":{
						"node":0,
						"path":"scale"
					}
				},
				{
					"sampler":15,
					"target":{
						"node":4,
						"path":"translation"
					}
				},
				{
					"sampler":16,
					"target":{
						"node":4,
						"path":"rotation"
					}
				},
				{
					"sampler":17,
					"target":{
						"node":4,
						"path":"scale"
					}
				},
				{
					"sampler":18,
					"target":{
						"node":3,
						"path":"translation"
					}
				},
				{
					"sampler":19,
					"target":{
						"node":3,
						"path":"rotation"
					}
				},
				{
					"sampler":20,
					"target":{
						"node":3,
						"path":"scale"
					}
				},
				{
					"sampler":21,
					"target":{
						"node":2,
						"path":"translation"
					}
				},
				{
					"sampler":22,
					"target":{
						"node":2,
						"path":"rotation"
					}
				},
				{
					"sampler":23,
					"target":{
						"node":2,
						"path":"scale"
					}
				},
				{
					"sampler":24,
					"target":{
						"node":7,
						"path":"translation"
					}
				},
				{
					"sampler":25,
					"target":{
						"node":7,
						"path":"rotation"
					}
				},
				{
					"sampler":26,
					"target":{
						"node":7,
						"path":"scale"
					}
				},
				{
					"sampler":27,
					"target":{
						"node":6,
						"path":"translation"
					}
				},
				{
					"sampler":28,
					"target":{
						"node":6,
						"path":"rotation"
					}
				},
				{
					"sampler":29,
					"target":{
						"node":6,
						"path":"scale"
					}
				},
				{
					"sampler":30,
					"target":{
						"node":5,
						"path":"translation"
					}
				},
				{
					"sampler":31,
					"target":{
						"node":5,
						"path":"rotation"
					}
				},
				{
					"sampler":32,
					"target":{
						"node":5,
						"path":"scale"
					}
				},
				{
					"sampler":33,
					"target":{
						"node":12,
						"path":"translation"
					}
				},
				{
					"sampler":34,
					"target":{
						"node":12,
						"path":"rotation"
					}
				},
				{
					"sampler":35,
					"target":{
						"node":12,
						"path":"scale"
					}
				},
				{
					"sampler":36,
					"target":{
						"node":11,
						"path":"translation"
					}
				},
				{
					"sampler":37,
					"target":{
						"node":11,
						"path":"rotation"
					}
				},
				{
					"sampler":38,
					"target":{
						"node":11,
						"path":"scale"
					}
				},
				{
					"sampler":39,
					"target":{
						"node":10,
						"path":"translation"
					}
				},
				{
					"sampler":40,
					"target":{
						"node":10,
						"path":"rotation"
					}
				},
				{
					"sampler":41,
					"target":{
						"node":10,
						"path":"scale"
					}
				},
				{
					"sampler":42,
					"target":{
						"node":15,
						"path":"translation"
					}
				},
				{
					"sampler":43,
					"target":{
						"node":15,
						"path":"rotation"
					}
				},
				{
					"sampler":44,
					"target":{
						"node":15,
						"path":"scale"
					}
				},
				{
					"sampler":45,
					"target":{
						"node":14,
						"path":"translation"
					}
				},
				{
					"sampler":46,
					"target":{
						"node":14,
						"path":"rotation"
					}
				},
				{
					"sampler":47,
					"target":{
						"node":14,
						"path":"scale"
					}
				},
				{
					"sampler":48,
					"target":{
						"node":13,
						"path":"translation"
					}
				},
				{
					"sampler":49,
					"target":{
						"node":13,
						"path":"rotation"
					}
				},
				{
					"sampler":50,
					"target":{
						"node":13,
						"path":"scale"
					}
				}
			],
			"name":"walk",
			"samplers":[
				{
					"input":173,
					"interpolation":"LINEAR",
					"output":174
				},
				{
					"input":173,
					"interpolation":"LINEAR",
					"output":175
				},
				{
					"input":176,
					"interpolation":"STEP",
					"output":177
				},
				{
					"input":176,
					"interpolation":"STEP",
					"output":178
				},
				{
					"input":176,
					"interpolation":"STEP",
					"output":179
				},
				{
					"input":176,
					"interpolation":"STEP",
					"output":180
				},
				{
					"input":176,
					"interpolation":"STEP",
					"output":181
				},
				{
					"input":173,
					"interpolation":"LINEAR",
					"output":182
				},
				{
					"input":176,
					"interpolation":"STEP",
					"output":183
				},
				{
					"input":176,
					"interpolation":"STEP",
					"output":184
				},
				{
					"input":176,
					"interpolation":"STEP",
					"output":185
				},
				{
					"input":176,
					"interpolation":"STEP",
					"output":186
				},
				{
					"input":176,
					"interpolation":"STEP",
					"output":187
				},
				{
					"input":176,
					"interpolation":"STEP",
					"output":188
				},
				{
					"input":176,
					"interpolation":"STEP",
					"output":189
				},
				{
					"input":176,
					"interpolation":"STEP",
					"output":190
				},
				{
					"input":173,
					"interpolation":"LINEAR",
					"output":191
				},
				{
					"input":176,
					"interpolation":"STEP",
					"output":192
				},
				{
					"input":176,
					"interpolation":"STEP",
					"output":193
				},
				{
					"input":176,
					"interpolation":"STEP",
					"output":194
				},
				{
					"input":176,
					"interpolation":"STEP",
					"output":195
				},
				{
					"input":176,
					"interpolation":"STEP",
					"output":196
				},
				{
					"input":176,
					"interpolation":"STEP",
					"output":197
				},
				{
					"input":176,
					"interpolation":"STEP",
					"output":198
				},
				{
					"input":176,
					"interpolation":"STEP",
					"output":199
				},
				{
					"input":173,
					"interpolation":"LINEAR",
					"output":200
				},
				{
					"input":176,
					"interpolation":"STEP",
					"output":201
				},
				{
					"input":176,
					"interpolation":"STEP",
					"output":202
				},
				{
					"input":176,
					"interpolation":"STEP",
					"output":203
				},
				{
					"input":176,
					"interpolation":"STEP",
					"output":204
				},
				{
					"input":176,
					"interpolation":"STEP",
					"output":205
				},
				{
					"input":176,
					"interpolation":"STEP",
					"output":206
				},
				{
					"input":176,
					"interpolation":"STEP",
					"output":207
				},
				{
					"input":176,
					"interpolation":"STEP",
					"output":208
				},
				{
					"input":173,
					"interpolation":"LINEAR",
					"output":209
				},
				{
					"input":176,
					"interpolation":"STEP",
					"output":210
				},
				{
					"input":176,
					"interpolation":"STEP",
					"output":211
				},
				{
					"input":173,
					"interpolation":"LINEAR",
					"output":212
				},
				{
					"input":176,
					"interpolation":"STEP",
					"output":213
				},
				{
					"input":176,
					"interpolation":"STEP",
					"output":214
				},
				{
					"input":173,
					"interpolation":"LINEAR",
					"output":215
				},
				{
					"input":176,
					"interpolation":"STEP",
					"output":216
				},
				{
					"input":176,
					"interpolation":"STEP",
					"output":217
				},
				{
					"input":173,
					"interpolation":"LINEAR",
					"output":218
				},
				{
					"input":176,
					"interpolation":"STEP",
					"output":219
				},
				{
					"input":176,
					"interpolation":"STEP",
					"output":220
				},
				{
					"input":173,
					"interpolation":"LINEAR",
					"output":221
				},
				{
					"input":176,
					"interpolation":"STEP",
					"output":222
				},
				{
					"input":176,
					"interpolation":"STEP",
					"output":223
				},
				{
					"input":173,
					"interpolation":"LINEAR",
					"output":224
				},
				{
					"input":176,
					"interpolation":"STEP",
					"output":225
				}
			]
		}
	],
	"materials":[
		{
			"name":"skin",
			"normalTexture":{
				"index":0,
				"scale":0.4000000059604645
			},
			"pbrMetallicRoughness":{
				"baseColorFactor":[
					0.19599418342113495,
					0.3931231200695038,
					0.13286831974983215,
					1
				],
				"metallicFactor":0,
				"roughnessFactor":0.550000011920929
			}
		},
		{
			"extensions":{
				"KHR_materials_sheen":{
					"sheenColorFactor":[
						1.0,
						1.0,
						1.0
					],
					"sheenRoughnessFactor":0.5
				}
			},
			"name":"hair",
			"normalTexture":{
				"index":1,
				"scale":0.800000011920929
			},
			"pbrMetallicRoughness":{
				"baseColorFactor":[
					0.6920710802078247,
					0.6920710802078247,
					0.6920710802078247,
					1
				],
				"metallicFactor":0,
				"roughnessFactor":0.44999998807907104
			}
		},
		{
			"extensions":{
				"KHR_materials_sheen":{
					"sheenColorFactor":[
						1.0,
						1.0,
						1.0
					],
					"sheenRoughnessFactor":0.5
				}
			},
			"name":"outfit",
			"normalTexture":{
				"index":2,
				"scale":0.6000000238418579
			},
			"pbrMetallicRoughness":{
				"baseColorFactor":[
					0.10048151016235352,
					0.13286831974983215,
					0.31854677200317383,
					1
				],
				"metallicFactor":0,
				"roughnessFactor":0.75
			}
		},
		{
			"name":"outfit2",
			"normalTexture":{
				"index":3,
				"scale":0.4000000059604645
			},
			"pbrMetallicRoughness":{
				"baseColorFactor":[
					0.6038273572921753,
					0.4479884207248688,
					0.07323895394802094,
					1
				],
				"metallicFactor":0,
				"roughnessFactor":0.6000000238418579
			}
		},
		{
			"name":"pants",
			"normalTexture":{
				"index":4,
				"scale":0.6000000238418579
			},
			"pbrMetallicRoughness":{
				"baseColorFactor":[
					0.04889732599258423,
					0.06372379511594772,
					0.1473190039396286,
					1
				],
				"metallicFactor":0,
				"roughnessFactor":0.800000011920929
			}
		},
		{
			"extensions":{
				"KHR_materials_clearcoat":{
					"clearcoatFactor":0.30000001192092896
				}
			},
			"name":"boots",
			"normalTexture":{
				"index":5,
				"scale":0.800000011920929
			},
			"pbrMetallicRoughness":{
				"baseColorFactor":[
					0.0134117491543293,
					0.010022825561463833,
					0.010022825561463833,
					1
				],
				"metallicFactor":0,
				"roughnessFactor":0.44999998807907104
			}
		},
		{
			"name":"eye_white",
			"pbrMetallicRoughness":{
				"baseColorFactor":[
					0.8900054097175598,
					0.8900054097175598,
					0.8900054097175598,
					1
				],
				"metallicFactor":0,
				"roughnessFactor":0.20000000298023224
			}
		},
		{
			"emissiveFactor":[
				0.011763989275256348,
				0.011763989275256348,
				0.019862860485428957
			],
			"name":"iris",
			"pbrMetallicRoughness":{
				"baseColorFactor":[
					0.01960664801299572,
					0.01960664801299572,
					0.03310476616024971,
					1
				],
				"metallicFactor":0,
				"roughnessFactor":0.15000000596046448
			}
		},
		{
			"name":"pupil",
			"pbrMetallicRoughness":{
				"baseColorFactor":[
					0.0015479875728487968,
					0.0015479875728487968,
					0.0023219813592731953,
					1
				],
				"metallicFactor":0,
				"roughnessFactor":0.10000000149011612
			}
		},
		{
			"name":"lips",
			"pbrMetallicRoughness":{
				"baseColorFactor":[
					0.09234604984521866,
					0.18053914606571198,
					0.06372379511594772,
					1
				],
				"metallicFactor":0,
				"roughnessFactor":0.4000000059604645
			}
		},
		{
			"name":"buckle",
			"pbrMetallicRoughness":{
				"baseColorFactor":[
					0.6920710802078247,
					0.4479884207248688,
					0.07323895394802094,
					1
				],
				"metallicFactor":0.8999999761581421,
				"roughnessFactor":0.30000001192092896
			}
		}
	],
	"meshes":[
		{
			"name":"rigurd",
			"primitives":[
				{
					"attributes":{
						"POSITION":0,
						"NORMAL":1,
						"TEXCOORD_0":2,
						"JOINTS_0":3,
						"WEIGHTS_0":4
					},
					"indices":5,
					"material":0
				},
				{
					"attributes":{
						"POSITION":6,
						"NORMAL":7,
						"TEXCOORD_0":8,
						"JOINTS_0":9,
						"WEIGHTS_0":10
					},
					"indices":11,
					"material":1
				},
				{
					"attributes":{
						"POSITION":12,
						"NORMAL":13,
						"TEXCOORD_0":14,
						"JOINTS_0":15,
						"WEIGHTS_0":16
					},
					"indices":17,
					"material":2
				},
				{
					"attributes":{
						"POSITION":18,
						"NORMAL":19,
						"TEXCOORD_0":20,
						"JOINTS_0":21,
						"WEIGHTS_0":22
					},
					"indices":23,
					"material":3
				},
				{
					"attributes":{
						"POSITION":24,
						"NORMAL":25,
						"TEXCOORD_0":26,
						"JOINTS_0":27,
						"WEIGHTS_0":28
					},
					"indices":29,
					"material":4
				},
				{
					"attributes":{
						"POSITION":30,
						"NORMAL":31,
						"TEXCOORD_0":32,
						"JOINTS_0":33,
						"WEIGHTS_0":34
					},
					"indices":35,
					"material":5
				},
				{
					"attributes":{
						"POSITION":36,
						"NORMAL":37,
						"TEXCOORD_0":38,
						"JOINTS_0":39,
						"WEIGHTS_0":40
					},
					"indices":41,
					"material":6
				},
				{
					"attributes":{
						"POSITION":42,
						"NORMAL":43,
						"TEXCOORD_0":44,
						"JOINTS_0":45,
						"WEIGHTS_0":46
					},
					"indices":47,
					"material":7
				},
				{
					"attributes":{
						"POSITION":48,
						"NORMAL":49,
						"TEXCOORD_0":50,
						"JOINTS_0":51,
						"WEIGHTS_0":52
					},
					"indices":53,
					"material":8
				},
				{
					"attributes":{
						"POSITION":54,
						"NORMAL":55,
						"TEXCOORD_0":56,
						"JOINTS_0":57,
						"WEIGHTS_0":58
					},
					"indices":59,
					"material":9
				},
				{
					"attributes":{
						"POSITION":60,
						"NORMAL":61,
						"TEXCOORD_0":62,
						"JOINTS_0":63,
						"WEIGHTS_0":64
					},
					"indices":65,
					"material":10
				}
			]
		}
	],
	"textures":[
		{
			"sampler":0,
			"source":0
		},
		{
			"sampler":0,
			"source":1
		},
		{
			"sampler":0,
			"source":2
		},
		{
			"sampler":0,
			"source":2
		},
		{
			"sampler":0,
			"source":2
		},
		{
			"sampler":0,
			"source":3
		}
	],
	"images":[
		{
			"mimeType":"image/png",
			"name":"N_skin",
			"uri":"texturas/N_skin.png"
		},
		{
			"mimeType":"image/png",
			"name":"N_hair",
			"uri":"texturas/N_hair.png"
		},
		{
			"mimeType":"image/png",
			"name":"N_cloth",
			"uri":"texturas/N_cloth.png"
		},
		{
			"mimeType":"image/png",
			"name":"N_leather",
			"uri":"texturas/N_leather.png"
		}
	],
	"skins":[
		{
			"inverseBindMatrices":66,
			"joints":[
				16,
				9,
				8,
				1,
				0,
				4,
				3,
				2,
				7,
				6,
				5,
				12,
				11,
				10,
				15,
				14,
				13
			],
			"name":"rigurd_rig"
		}
	],
	"accessors":[
		{
			"bufferView":0,
			"componentType":5126,
			"count":1325,
			"max":[
				0.48062172532081604,
				2.0515999794006348,
				0.12329444289207458
			],
			"min":[
				-0.4806217849254608,
				0.9021381139755249,
				-0.1334882378578186
			],
			"type":"VEC3"
		},
		{
			"bufferView":1,
			"componentType":5126,
			"count":1325,
			"type":"VEC3"
		},
		{
			"bufferView":2,
			"componentType":5126,
			"count":1325,
			"type":"VEC2"
		},
		{
			"bufferView":3,
			"componentType":5121,
			"count":1325,
			"type":"VEC4"
		},
		{
			"bufferView":4,
			"componentType":5126,
			"count":1325,
			"type":"VEC4"
		},
		{
			"bufferView":5,
			"componentType":5123,
			"count":5424,
			"type":"SCALAR"
		},
		{
			"bufferView":6,
			"componentType":5126,
			"count":2705,
			"max":[
				0.1377241015434265,
				2.0808494091033936,
				0.15652956068515778
			],
			"min":[
				-0.13553108274936676,
				1.756636381149292,
				-0.13510219752788544
			],
			"type":"VEC3"
		},
		{
			"bufferView":7,
			"componentType":5126,
			"count":2705,
			"type":"VEC3"
		},
		{
			"bufferView":8,
			"componentType":5126,
			"count":2705,
			"type":"VEC2"
		},
		{
			"bufferView":9,
			"componentType":5121,
			"count":2705,
			"type":"VEC4"
		},
		{
			"bufferView":10,
			"componentType":5126,
			"count":2705,
			"type":"VEC4"
		},
		{
			"bufferView":11,
			"componentType":5123,
			"count":8328,
			"type":"SCALAR"
		},
		{
			"bufferView":12,
			"componentType":5126,
			"count":1416,
			"max":[
				0.48979631066322327,
				1.6960190534591675,
				0.20060858130455017
			],
			"min":[
				-0.4897962808609009,
				1.0658570528030396,
				-0.20251037180423737
			],
			"type":"VEC3"
		},
		{
			"bufferView":13,
			"componentType":5126,
			"count":1416,
			"type":"VEC3"
		},
		{
			"bufferView":14,
			"componentType":5126,
			"count":1416,
			"type":"VEC2"
		},
		{
			"bufferView":15,
			"componentType":5121,
			"count":1416,
			"type":"VEC4"
		},
		{
			"bufferView":16,
			"componentType":5126,
			"count":1416,
			"type":"VEC4"
		},
		{
			"bufferView":17,
			"componentType":5123,
			"count":6432,
			"type":"SCALAR"
		},
		{
			"bufferView":18,
			"componentType":5126,
			"count":60,
			"max":[
				0.21330170333385468,
				1.1622482538223267,
				0.20595821738243103
			],
			"min":[
				-0.21330170333385468,
				1.010405421257019,
				-0.20750144124031067
			],
			"type":"VEC3"
		},
		{
			"bufferView":19,
			"componentType":5126,
			"count":60,
			"type":"VEC3"
		},
		{
			"bufferView":20,
			"componentType":5126,
			"count":60,
			"type":"VEC2"
		},
		{
			"bufferView":21,
			"componentType":5121,
			"count":60,
			"type":"VEC4"
		},
		{
			"bufferView":22,
			"componentType":5126,
			"count":60,
			"type":"VEC4"
		},
		{
			"bufferView":23,
			"componentType":5123,
			"count":168,
			"type":"SCALAR"
		},
		{
			"bufferView":24,
			"componentType":5126,
			"count":668,
			"max":[
				0.4830433428287506,
				1.0918017625808716,
				0.2038603127002716
			],
			"min":[
				-0.48304328322410583,
				0.3358122706413269,
				-0.20565985143184662
			],
			"type":"VEC3"
		},
		{
			"bufferView":25,
			"componentType":5126,
			"count":668,
			"type":"VEC3"
		},
		{
			"bufferView":26,
			"componentType":5126,
			"count":668,
			"type":"VEC2"
		},
		{
			"bufferView":27,
			"componentType":5121,
			"count":668,
			"type":"VEC4"
		},
		{
			"bufferView":28,
			"componentType":5126,
			"count":668,
			"type":"VEC4"
		},
		{
			"bufferView":29,
			"componentType":5123,
			"count":2808,
			"type":"SCALAR"
		},
		{
			"bufferView":30,
			"componentType":5126,
			"count":874,
			"max":[
				0.24486251175403595,
				0.3438107371330261,
				0.10229930281639099
			],
			"min":[
				-0.24486251175403595,
				0.008742939680814743,
				-0.16113750636577606
			],
			"type":"VEC3"
		},
		{
			"bufferView":31,
			"componentType":5126,
			"count":874,
			"type":"VEC3"
		},
		{
			"bufferView":32,
			"componentType":5126,
			"count":874,
			"type":"VEC2"
		},
		{
			"bufferView":33,
			"componentType":5121,
			"count":874,
			"type":"VEC4"
		},
		{
			"bufferView":34,
			"componentType":5126,
			"count":874,
			"type":"VEC4"
		},
		{
			"bufferView":35,
			"componentType":5123,
			"count":3840,
			"type":"SCALAR"
		},
		{
			"bufferView":36,
			"componentType":5126,
			"count":304,
			"max":[
				0.058649998158216476,
				1.9394749402999878,
				-0.08049999922513962
			],
			"min":[
				-0.058649998158216476,
				1.91302490234375,
				-0.10119999945163727
			],
			"type":"VEC3"
		},
		{
			"bufferView":37,
			"componentType":5126,
			"count":304,
			"type":"VEC3"
		},
		{
			"bufferView":38,
			"componentType":5126,
			"count":304,
			"type":"VEC2"
		},
		{
			"bufferView":39,
			"componentType":5121,
			"count":304,
			"type":"VEC4"
		},
		{
			"bufferView":40,
			"componentType":5126,
			"count":304,
			"type":"VEC4"
		},
		{
			"bufferView":41,
			"componentType":5123,
			"count":1152,
			"type":"SCALAR"
		},
		{
			"bufferView":42,
			"componentType":5126,
			"count":220,
			"max":[
				0.05002499744296074,
				1.9375200271606445,
				-0.09340327978134155
			],
			"min":[
				-0.05002499744296074,
				1.9149799346923828,
				-0.10324671864509583
			],
			"type":"VEC3"
		},
		{
			"bufferView":43,
			"componentType":5126,
			"count":220,
			"type":"VEC3"
		},
		{
			"bufferView":44,
			"componentType":5126,
			"count":220,
			"type":"VEC2"
		},
		{
			"bufferView":45,
			"componentType":5121,
			"count":220,
			"type":"VEC4"
		},
		{
			"bufferView":46,
			"componentType":5126,
			"count":220,
			"type":"VEC4"
		},
		{
			"bufferView":47,
			"componentType":5123,
			"count":720,
			"type":"SCALAR"
		},
		{
			"bufferView":48,
			"componentType":5126,
			"count":160,
			"max":[
				0.043693602085113525,
				1.9314249753952026,
				-0.09993256628513336
			],
			"min":[
				-0.043693602085113525,
				1.9210749864578247,
				-0.10430743545293808
			],
			"type":"VEC3"
		},
		{
			"bufferView":49,
			"componentType":5126,
			"count":160,
			"type":"VEC3"
		},
		{
			"bufferView":50,
			"componentType":5126,
			"count":160,
			"type":"VEC2"
		},
		{
			"bufferView":51,
			"componentType":5121,
			"count":160,
			"type":"VEC4"
		},
		{
			"bufferView":52,
			"componentType":5126,
			"count":160,
			"type":"VEC4"
		},
		{
			"bufferView":53,
			"componentType":5123,
			"count":480,
			"type":"SCALAR"
		},
		{
			"bufferView":54,
			"componentType":5126,
			"count":98,
			"max":[
				0.021849999204277992,
				1.8486249446868896,
				-0.08937828242778778
			],
			"min":[
				-0.021849999204277992,
				1.8382749557495117,
				-0.09922172129154205
			],
			"type":"VEC3"
		},
		{
			"bufferView":55,
			"componentType":5126,
			"count":98,
			"type":"VEC3"
		},
		{
			"bufferView":56,
			"componentType":5126,
			"count":98,
			"type":"VEC2"
		},
		{
			"bufferView":57,
			"componentType":5121,
			"count":98,
			"type":"VEC4"
		},
		{
			"bufferView":58,
			"componentType":5126,
			"count":98,
			"type":"VEC4"
		},
		{
			"bufferView":59,
			"componentType":5123,
			"count":360,
			"type":"SCALAR"
		},
		{
			"bufferView":60,
			"componentType":5126,
			"count":24,
			"max":[
				0.028750000521540642,
				1.1154999732971191,
				-0.14633749425411224
			],
			"min":[
				-0.028750000521540642,
				1.0694999694824219,
				-0.16013748943805695
			],
			"type":"VEC3"
		},
		{
			"bufferView":61,
			"componentType":5126,
			"count":24,
			"type":"VEC3"
		},
		{
			"bufferView":62,
			"componentType":5126,
			"count":24,
			"type":"VEC2"
		},
		{
			"bufferView":63,
			"componentType":5121,
			"count":24,
			"type":"VEC4"
		},
		{
			"bufferView":64,
			"componentType":5126,
			"count":24,
			"type":"VEC4"
		},
		{
			"bufferView":65,
			"componentType":5123,
			"count":36,
			"type":"SCALAR"
		},
		{
			"bufferView":66,
			"componentType":5126,
			"count":17,
			"type":"MAT4"
		},
		{
			"bufferView":67,
			"componentType":5126,
			"count":2,
			"max":[
				0.6
			],
			"min":[
				0
			],
			"type":"SCALAR"
		},
		{
			"bufferView":68,
			"componentType":5126,
			"count":2,
			"type":"VEC3"
		},
		{
			"bufferView":69,
			"componentType":5126,
			"count":2,
			"type":"VEC4"
		},
		{
			"bufferView":70,
			"componentType":5126,
			"count":2,
			"type":"VEC3"
		},
		{
			"bufferView":71,
			"componentType":5126,
			"count":2,
			"type":"VEC3"
		},
		{
			"bufferView":72,
			"componentType":5126,
			"count":2,
			"type":"VEC4"
		},
		{
			"bufferView":73,
			"componentType":5126,
			"count":2,
			"type":"VEC3"
		},
		{
			"bufferView":74,
			"componentType":5126,
			"count":2,
			"type":"VEC3"
		},
		{
			"bufferView":75,
			"componentType":5126,
			"count":19,
			"max":[
				0.6
			],
			"min":[
				0
			],
			"type":"SCALAR"
		},
		{
			"bufferView":76,
			"componentType":5126,
			"count":19,
			"type":"VEC4"
		},
		{
			"bufferView":77,
			"componentType":5126,
			"count":2,
			"type":"VEC3"
		},
		{
			"bufferView":78,
			"componentType":5126,
			"count":2,
			"type":"VEC3"
		},
		{
			"bufferView":79,
			"componentType":5126,
			"count":2,
			"type":"VEC4"
		},
		{
			"bufferView":80,
			"componentType":5126,
			"count":2,
			"type":"VEC3"
		},
		{
			"bufferView":81,
			"componentType":5126,
			"count":2,
			"type":"VEC3"
		},
		{
			"bufferView":82,
			"componentType":5126,
			"count":2,
			"type":"VEC4"
		},
		{
			"bufferView":83,
			"componentType":5126,
			"count":2,
			"type":"VEC3"
		},
		{
			"bufferView":84,
			"componentType":5126,
			"count":2,
			"type":"VEC3"
		},
		{
			"bufferView":85,
			"componentType":5126,
			"count":19,
			"type":"VEC4"
		},
		{
			"bufferView":86,
			"componentType":5126,
			"count":2,
			"type":"VEC3"
		},
		{
			"bufferView":87,
			"componentType":5126,
			"count":2,
			"type":"VEC3"
		},
		{
			"bufferView":88,
			"componentType":5126,
			"count":19,
			"type":"VEC4"
		},
		{
			"bufferView":89,
			"componentType":5126,
			"count":2,
			"type":"VEC3"
		},
		{
			"bufferView":90,
			"componentType":5126,
			"count":2,
			"type":"VEC3"
		},
		{
			"bufferView":91,
			"componentType":5126,
			"count":2,
			"type":"VEC4"
		},
		{
			"bufferView":92,
			"componentType":5126,
			"count":2,
			"type":"VEC3"
		},
		{
			"bufferView":93,
			"componentType":5126,
			"count":2,
			"type":"VEC3"
		},
		{
			"bufferView":94,
			"componentType":5126,
			"count":19,
			"type":"VEC4"
		},
		{
			"bufferView":95,
			"componentType":5126,
			"count":2,
			"type":"VEC3"
		},
		{
			"bufferView":96,
			"componentType":5126,
			"count":2,
			"type":"VEC3"
		},
		{
			"bufferView":97,
			"componentType":5126,
			"count":2,
			"type":"VEC4"
		},
		{
			"bufferView":98,
			"componentType":5126,
			"count":2,
			"type":"VEC3"
		},
		{
			"bufferView":99,
			"componentType":5126,
			"count":2,
			"type":"VEC3"
		},
		{
			"bufferView":100,
			"componentType":5126,
			"count":2,
			"type":"VEC4"
		},
		{
			"bufferView":101,
			"componentType":5126,
			"count":2,
			"type":"VEC3"
		},
		{
			"bufferView":102,
			"componentType":5126,
			"count":2,
			"type":"VEC3"
		},
		{
			"bufferView":103,
			"componentType":5126,
			"count":19,
			"type":"VEC4"
		},
		{
			"bufferView":104,
			"componentType":5126,
			"count":2,
			"type":"VEC3"
		},
		{
			"bufferView":105,
			"componentType":5126,
			"count":2,
			"type":"VEC3"
		},
		{
			"bufferView":106,
			"componentType":5126,
			"count":2,
			"type":"VEC4"
		},
		{
			"bufferView":107,
			"componentType":5126,
			"count":2,
			"type":"VEC3"
		},
		{
			"bufferView":108,
			"componentType":5126,
			"count":2,
			"type":"VEC3"
		},
		{
			"bufferView":109,
			"componentType":5126,
			"count":2,
			"type":"VEC4"
		},
		{
			"bufferView":110,
			"componentType":5126,
			"count":2,
			"type":"VEC3"
		},
		{
			"bufferView":111,
			"componentType":5126,
			"count":2,
			"type":"VEC3"
		},
		{
			"bufferView":112,
			"componentType":5126,
			"count":19,
			"type":"VEC4"
		},
		{
			"bufferView":113,
			"componentType":5126,
			"count":2,
			"type":"VEC3"
		},
		{
			"bufferView":114,
			"componentType":5126,
			"count":2,
			"type":"VEC3"
		},
		{
			"bufferView":115,
			"componentType":5126,
			"count":2,
			"type":"VEC4"
		},
		{
			"bufferView":116,
			"componentType":5126,
			"count":2,
			"type":"VEC3"
		},
		{
			"bufferView":117,
			"componentType":5126,
			"count":2,
			"type":"VEC3"
		},
		{
			"bufferView":118,
			"componentType":5126,
			"count":2,
			"type":"VEC4"
		},
		{
			"bufferView":119,
			"componentType":5126,
			"count":2,
			"type":"VEC3"
		},
		{
			"bufferView":120,
			"componentType":5126,
			"count":61,
			"max":[
				2
			],
			"min":[
				0
			],
			"type":"SCALAR"
		},
		{
			"bufferView":121,
			"componentType":5126,
			"count":61,
			"type":"VEC3"
		},
		{
			"bufferView":122,
			"componentType":5126,
			"count":2,
			"max":[
				2
			],
			"min":[
				0
			],
			"type":"SCALAR"
		},
		{
			"bufferView":123,
			"componentType":5126,
			"count":2,
			"type":"VEC4"
		},
		{
			"bufferView":124,
			"componentType":5126,
			"count":2,
			"type":"VEC3"
		},
		{
			"bufferView":125,
			"componentType":5126,
			"count":2,
			"type":"VEC3"
		},
		{
			"bufferView":126,
			"componentType":5126,
			"count":2,
			"type":"VEC4"
		},
		{
			"bufferView":127,
			"componentType":5126,
			"count":2,
			"type":"VEC3"
		},
		{
			"bufferView":128,
			"componentType":5126,
			"count":2,
			"type":"VEC3"
		},
		{
			"bufferView":129,
			"componentType":5126,
			"count":61,
			"type":"VEC4"
		},
		{
			"bufferView":130,
			"componentType":5126,
			"count":2,
			"type":"VEC3"
		},
		{
			"bufferView":131,
			"componentType":5126,
			"count":2,
			"type":"VEC3"
		},
		{
			"bufferView":132,
			"componentType":5126,
			"count":2,
			"type":"VEC4"
		},
		{
			"bufferView":133,
			"componentType":5126,
			"count":2,
			"type":"VEC3"
		},
		{
			"bufferView":134,
			"componentType":5126,
			"count":2,
			"type":"VEC3"
		},
		{
			"bufferView":135,
			"componentType":5126,
			"count":61,
			"type":"VEC4"
		},
		{
			"bufferView":136,
			"componentType":5126,
			"count":2,
			"type":"VEC3"
		},
		{
			"bufferView":137,
			"componentType":5126,
			"count":2,
			"type":"VEC3"
		},
		{
			"bufferView":138,
			"componentType":5126,
			"count":61,
			"type":"VEC4"
		},
		{
			"bufferView":139,
			"componentType":5126,
			"count":2,
			"type":"VEC3"
		},
		{
			"bufferView":140,
			"componentType":5126,
			"count":2,
			"type":"VEC3"
		},
		{
			"bufferView":141,
			"componentType":5126,
			"count":2,
			"type":"VEC4"
		},
		{
			"bufferView":142,
			"componentType":5126,
			"count":2,
			"type":"VEC3"
		},
		{
			"bufferView":143,
			"componentType":5126,
			"count":2,
			"type":"VEC3"
		},
		{
			"bufferView":144,
			"componentType":5126,
			"count":2,
			"type":"VEC4"
		},
		{
			"bufferView":145,
			"componentType":5126,
			"count":2,
			"type":"VEC3"
		},
		{
			"bufferView":146,
			"componentType":5126,
			"count":2,
			"type":"VEC3"
		},
		{
			"bufferView":147,
			"componentType":5126,
			"count":61,
			"type":"VEC4"
		},
		{
			"bufferView":148,
			"componentType":5126,
			"count":2,
			"type":"VEC3"
		},
		{
			"bufferView":149,
			"componentType":5126,
			"count":2,
			"type":"VEC3"
		},
		{
			"bufferView":150,
			"componentType":5126,
			"count":2,
			"type":"VEC4"
		},
		{
			"bufferView":151,
			"componentType":5126,
			"count":2,
			"type":"VEC3"
		},
		{
			"bufferView":152,
			"componentType":5126,
			"count":2,
			"type":"VEC3"
		},
		{
			"bufferView":153,
			"componentType":5126,
			"count":2,
			"type":"VEC4"
		},
		{
			"bufferView":154,
			"componentType":5126,
			"count":2,
			"type":"VEC3"
		},
		{
			"bufferView":155,
			"componentType":5126,
			"count":2,
			"type":"VEC3"
		},
		{
			"bufferView":156,
			"componentType":5126,
			"count":2,
			"type":"VEC4"
		},
		{
			"bufferView":157,
			"componentType":5126,
			"count":2,
			"type":"VEC3"
		},
		{
			"bufferView":158,
			"componentType":5126,
			"count":2,
			"type":"VEC3"
		},
		{
			"bufferView":159,
			"componentType":5126,
			"count":2,
			"type":"VEC4"
		},
		{
			"bufferView":160,
			"componentType":5126,
			"count":2,
			"type":"VEC3"
		},
		{
			"bufferView":161,
			"componentType":5126,
			"count":2,
			"type":"VEC3"
		},
		{
			"bufferView":162,
			"componentType":5126,
			"count":2,
			"type":"VEC4"
		},
		{
			"bufferView":163,
			"componentType":5126,
			"count":2,
			"type":"VEC3"
		},
		{
			"bufferView":164,
			"componentType":5126,
			"count":2,
			"type":"VEC3"
		},
		{
			"bufferView":165,
			"componentType":5126,
			"count":2,
			"type":"VEC4"
		},
		{
			"bufferView":166,
			"componentType":5126,
			"count":2,
			"type":"VEC3"
		},
		{
			"bufferView":167,
			"componentType":5126,
			"count":2,
			"type":"VEC3"
		},
		{
			"bufferView":168,
			"componentType":5126,
			"count":2,
			"type":"VEC4"
		},
		{
			"bufferView":169,
			"componentType":5126,
			"count":2,
			"type":"VEC3"
		},
		{
			"bufferView":170,
			"componentType":5126,
			"count":2,
			"type":"VEC3"
		},
		{
			"bufferView":171,
			"componentType":5126,
			"count":2,
			"type":"VEC4"
		},
		{
			"bufferView":172,
			"componentType":5126,
			"count":2,
			"type":"VEC3"
		},
		{
			"bufferView":173,
			"componentType":5126,
			"count":31,
			"max":[
				1
			],
			"min":[
				0
			],
			"type":"SCALAR"
		},
		{
			"bufferView":174,
			"componentType":5126,
			"count":31,
			"type":"VEC3"
		},
		{
			"bufferView":175,
			"componentType":5126,
			"count":31,
			"type":"VEC4"
		},
		{
			"bufferView":176,
			"componentType":5126,
			"count":2,
			"max":[
				1
			],
			"min":[
				0
			],
			"type":"SCALAR"
		},
		{
			"bufferView":177,
			"componentType":5126,
			"count":2,
			"type":"VEC3"
		},
		{
			"bufferView":178,
			"componentType":5126,
			"count":2,
			"type":"VEC3"
		},
		{
			"bufferView":179,
			"componentType":5126,
			"count":2,
			"type":"VEC4"
		},
		{
			"bufferView":180,
			"componentType":5126,
			"count":2,
			"type":"VEC3"
		},
		{
			"bufferView":181,
			"componentType":5126,
			"count":2,
			"type":"VEC3"
		},
		{
			"bufferView":182,
			"componentType":5126,
			"count":31,
			"type":"VEC4"
		},
		{
			"bufferView":183,
			"componentType":5126,
			"count":2,
			"type":"VEC3"
		},
		{
			"bufferView":184,
			"componentType":5126,
			"count":2,
			"type":"VEC3"
		},
		{
			"bufferView":185,
			"componentType":5126,
			"count":2,
			"type":"VEC4"
		},
		{
			"bufferView":186,
			"componentType":5126,
			"count":2,
			"type":"VEC3"
		},
		{
			"bufferView":187,
			"componentType":5126,
			"count":2,
			"type":"VEC3"
		},
		{
			"bufferView":188,
			"componentType":5126,
			"count":2,
			"type":"VEC4"
		},
		{
			"bufferView":189,
			"componentType":5126,
			"count":2,
			"type":"VEC3"
		},
		{
			"bufferView":190,
			"componentType":5126,
			"count":2,
			"type":"VEC3"
		},
		{
			"bufferView":191,
			"componentType":5126,
			"count":31,
			"type":"VEC4"
		},
		{
			"bufferView":192,
			"componentType":5126,
			"count":2,
			"type":"VEC3"
		},
		{
			"bufferView":193,
			"componentType":5126,
			"count":2,
			"type":"VEC3"
		},
		{
			"bufferView":194,
			"componentType":5126,
			"count":2,
			"type":"VEC4"
		},
		{
			"bufferView":195,
			"componentType":5126,
			"count":2,
			"type":"VEC3"
		},
		{
			"bufferView":196,
			"componentType":5126,
			"count":2,
			"type":"VEC3"
		},
		{
			"bufferView":197,
			"componentType":5126,
			"count":2,
			"type":"VEC4"
		},
		{
			"bufferView":198,
			"componentType":5126,
			"count":2,
			"type":"VEC3"
		},
		{
			"bufferView":199,
			"componentType":5126,
			"count":2,
			"type":"VEC3"
		},
		{
			"bufferView":200,
			"componentType":5126,
			"count":31,
			"type":"VEC4"
		},
		{
			"bufferView":201,
			"componentType":5126,
			"count":2,
			"type":"VEC3"
		},
		{
			"bufferView":202,
			"componentType":5126,
			"count":2,
			"type":"VEC3"
		},
		{
			"bufferView":203,
			"componentType":5126,
			"count":2,
			"type":"VEC4"
		},
		{
			"bufferView":204,
			"componentType":5126,
			"count":2,
			"type":"VEC3"
		},
		{
			"bufferView":205,
			"componentType":5126,
			"count":2,
			"type":"VEC3"
		},
		{
			"bufferView":206,
			"componentType":5126,
			"count":2,
			"type":"VEC4"
		},
		{
			"bufferView":207,
			"componentType":5126,
			"count":2,
			"type":"VEC3"
		},
		{
			"bufferView":208,
			"componentType":5126,
			"count":2,
			"type":"VEC3"
		},
		{
			"bufferView":209,
			"componentType":5126,
			"count":31,
			"type":"VEC4"
		},
		{
			"bufferView":210,
			"componentType":5126,
			"count":2,
			"type":"VEC3"
		},
		{
			"bufferView":211,
			"componentType":5126,
			"count":2,
			"type":"VEC3"
		},
		{
			"bufferView":212,
			"componentType":5126,
			"count":31,
			"type":"VEC4"
		},
		{
			"bufferView":213,
			"componentType":5126,
			"count":2,
			"type":"VEC3"
		},
		{
			"bufferView":214,
			"componentType":5126,
			"count":2,
			"type":"VEC3"
		},
		{
			"bufferView":215,
			"componentType":5126,
			"count":31,
			"type":"VEC4"
		},
		{
			"bufferView":216,
			"componentType":5126,
			"count":2,
			"type":"VEC3"
		},
		{
			"bufferView":217,
			"componentType":5126,
			"count":2,
			"type":"VEC3"
		},
		{
			"bufferView":218,
			"componentType":5126,
			"count":31,
			"type":"VEC4"
		},
		{
			"bufferView":219,
			"componentType":5126,
			"count":2,
			"type":"VEC3"
		},
		{
			"bufferView":220,
			"componentType":5126,
			"count":2,
			"type":"VEC3"
		},
		{
			"bufferView":221,
			"componentType":5126,
			"count":31,
			"type":"VEC4"
		},
		{
			"bufferView":222,
			"componentType":5126,
			"count":2,
			"type":"VEC3"
		},
		{
			"bufferView":223,
			"componentType":5126,
			"count":2,
			"type":"VEC3"
		},
		{
			"bufferView":224,
			"componentType":5126,
			"count":31,
			"type":"VEC4"
		},
		{
			"bufferView":225,
			"componentType":5126,
			"count":2,
			"type":"VEC3"
		}
	],
	"bufferViews":[
		{
			"buffer":0,
			"byteLength":15900,
			"byteOffset":0,
			"target":34962
		},
		{
			"buffer":0,
			"byteLength":15900,
			"byteOffset":15900,
			"target":34962
		},
		{
			"buffer":0,
			"byteLength":10600,
			"byteOffset":31800,
			"target":34962
		},
		{
			"buffer":0,
			"byteLength":5300,
			"byteOffset":42400,
			"target":34962
		},
		{
			"buffer":0,
			"byteLength":21200,
			"byteOffset":47700,
			"target":34962
		},
		{
			"buffer":0,
			"byteLength":10848,
			"byteOffset":68900,
			"target":34963
		},
		{
			"buffer":0,
			"byteLength":32460,
			"byteOffset":79748,
			"target":34962
		},
		{
			"buffer":0,
			"byteLength":32460,
			"byteOffset":112208,
			"target":34962
		},
		{
			"buffer":0,
			"byteLength":21640,
			"byteOffset":144668,
			"target":34962
		},
		{
			"buffer":0,
			"byteLength":10820,
			"byteOffset":166308,
			"target":34962
		},
		{
			"buffer":0,
			"byteLength":43280,
			"byteOffset":177128,
			"target":34962
		},
		{
			"buffer":0,
			"byteLength":16656,
			"byteOffset":220408,
			"target":34963
		},
		{
			"buffer":0,
			"byteLength":16992,
			"byteOffset":237064,
			"target":34962
		},
		{
			"buffer":0,
			"byteLength":16992,
			"byteOffset":254056,
			"target":34962
		},
		{
			"buffer":0,
			"byteLength":11328,
			"byteOffset":271048,
			"target":34962
		},
		{
			"buffer":0,
			"byteLength":5664,
			"byteOffset":282376,
			"target":34962
		},
		{
			"buffer":0,
			"byteLength":22656,
			"byteOffset":288040,
			"target":34962
		},
		{
			"buffer":0,
			"byteLength":12864,
			"byteOffset":310696,
			"target":34963
		},
		{
			"buffer":0,
			"byteLength":720,
			"byteOffset":323560,
			"target":34962
		},
		{
			"buffer":0,
			"byteLength":720,
			"byteOffset":324280,
			"target":34962
		},
		{
			"buffer":0,
			"byteLength":480,
			"byteOffset":325000,
			"target":34962
		},
		{
			"buffer":0,
			"byteLength":240,
			"byteOffset":325480,
			"target":34962
		},
		{
			"buffer":0,
			"byteLength":960,
			"byteOffset":325720,
			"target":34962
		},
		{
			"buffer":0,
			"byteLength":336,
			"byteOffset":326680,
			"target":34963
		},
		{
			"buffer":0,
			"byteLength":8016,
			"byteOffset":327016,
			"target":34962
		},
		{
			"buffer":0,
			"byteLength":8016,
			"byteOffset":335032,
			"target":34962
		},
		{
			"buffer":0,
			"byteLength":5344,
			"byteOffset":343048,
			"target":34962
		},
		{
			"buffer":0,
			"byteLength":2672,
			"byteOffset":348392,
			"target":34962
		},
		{
			"buffer":0,
			"byteLength":10688,
			"byteOffset":351064,
			"target":34962
		},
		{
			"buffer":0,
			"byteLength":5616,
			"byteOffset":361752,
			"target":34963
		},
		{
			"buffer":0,
			"byteLength":10488,
			"byteOffset":367368,
			"target":34962
		},
		{
			"buffer":0,
			"byteLength":10488,
			"byteOffset":377856,
			"target":34962
		},
		{
			"buffer":0,
			"byteLength":6992,
			"byteOffset":388344,
			"target":34962
		},
		{
			"buffer":0,
			"byteLength":3496,
			"byteOffset":395336,
			"target":34962
		},
		{
			"buffer":0,
			"byteLength":13984,
			"byteOffset":398832,
			"target":34962
		},
		{
			"buffer":0,
			"byteLength":7680,
			"byteOffset":412816,
			"target":34963
		},
		{
			"buffer":0,
			"byteLength":3648,
			"byteOffset":420496,
			"target":34962
		},
		{
			"buffer":0,
			"byteLength":3648,
			"byteOffset":424144,
			"target":34962
		},
		{
			"buffer":0,
			"byteLength":2432,
			"byteOffset":427792,
			"target":34962
		},
		{
			"buffer":0,
			"byteLength":1216,
			"byteOffset":430224,
			"target":34962
		},
		{
			"buffer":0,
			"byteLength":4864,
			"byteOffset":431440,
			"target":34962
		},
		{
			"buffer":0,
			"byteLength":2304,
			"byteOffset":436304,
			"target":34963
		},
		{
			"buffer":0,
			"byteLength":2640,
			"byteOffset":438608,
			"target":34962
		},
		{
			"buffer":0,
			"byteLength":2640,
			"byteOffset":441248,
			"target":34962
		},
		{
			"buffer":0,
			"byteLength":1760,
			"byteOffset":443888,
			"target":34962
		},
		{
			"buffer":0,
			"byteLength":880,
			"byteOffset":445648,
			"target":34962
		},
		{
			"buffer":0,
			"byteLength":3520,
			"byteOffset":446528,
			"target":34962
		},
		{
			"buffer":0,
			"byteLength":1440,
			"byteOffset":450048,
			"target":34963
		},
		{
			"buffer":0,
			"byteLength":1920,
			"byteOffset":451488,
			"target":34962
		},
		{
			"buffer":0,
			"byteLength":1920,
			"byteOffset":453408,
			"target":34962
		},
		{
			"buffer":0,
			"byteLength":1280,
			"byteOffset":455328,
			"target":34962
		},
		{
			"buffer":0,
			"byteLength":640,
			"byteOffset":456608,
			"target":34962
		},
		{
			"buffer":0,
			"byteLength":2560,
			"byteOffset":457248,
			"target":34962
		},
		{
			"buffer":0,
			"byteLength":960,
			"byteOffset":459808,
			"target":34963
		},
		{
			"buffer":0,
			"byteLength":1176,
			"byteOffset":460768,
			"target":34962
		},
		{
			"buffer":0,
			"byteLength":1176,
			"byteOffset":461944,
			"target":34962
		},
		{
			"buffer":0,
			"byteLength":784,
			"byteOffset":463120,
			"target":34962
		},
		{
			"buffer":0,
			"byteLength":392,
			"byteOffset":463904,
			"target":34962
		},
		{
			"buffer":0,
			"byteLength":1568,
			"byteOffset":464296,
			"target":34962
		},
		{
			"buffer":0,
			"byteLength":720,
			"byteOffset":465864,
			"target":34963
		},
		{
			"buffer":0,
			"byteLength":288,
			"byteOffset":466584,
			"target":34962
		},
		{
			"buffer":0,
			"byteLength":288,
			"byteOffset":466872,
			"target":34962
		},
		{
			"buffer":0,
			"byteLength":192,
			"byteOffset":467160,
			"target":34962
		},
		{
			"buffer":0,
			"byteLength":96,
			"byteOffset":467352,
			"target":34962
		},
		{
			"buffer":0,
			"byteLength":384,
			"byteOffset":467448,
			"target":34962
		},
		{
			"buffer":0,
			"byteLength":72,
			"byteOffset":467832,
			"target":34963
		},
		{
			"buffer":0,
			"byteLength":1088,
			"byteOffset":467904
		},
		{
			"buffer":0,
			"byteLength":8,
			"byteOffset":468992
		},
		{
			"buffer":0,
			"byteLength":24,
			"byteOffset":469000
		},
		{
			"buffer":0,
			"byteLength":32,
			"byteOffset":469024
		},
		{
			"buffer":0,
			"byteLength":24,
			"byteOffset":469056
		},
		{
			"buffer":0,
			"byteLength":24,
			"byteOffset":469080
		},
		{
			"buffer":0,
			"byteLength":32,
			"byteOffset":469104
		},
		{
			"buffer":0,
			"byteLength":24,
			"byteOffset":469136
		},
		{
			"buffer":0,
			"byteLength":24,
			"byteOffset":469160
		},
		{
			"buffer":0,
			"byteLength":76,
			"byteOffset":469184
		},
		{
			"buffer":0,
			"byteLength":304,
			"byteOffset":469260
		},
		{
			"buffer":0,
			"byteLength":24,
			"byteOffset":469564
		},
		{
			"buffer":0,
			"byteLength":24,
			"byteOffset":469588
		},
		{
			"buffer":0,
			"byteLength":32,
			"byteOffset":469612
		},
		{
			"buffer":0,
			"byteLength":24,
			"byteOffset":469644
		},
		{
			"buffer":0,
			"byteLength":24,
			"byteOffset":469668
		},
		{
			"buffer":0,
			"byteLength":32,
			"byteOffset":469692
		},
		{
			"buffer":0,
			"byteLength":24,
			"byteOffset":469724
		},
		{
			"buffer":0,
			"byteLength":24,
			"byteOffset":469748
		},
		{
			"buffer":0,
			"byteLength":304,
			"byteOffset":469772
		},
		{
			"buffer":0,
			"byteLength":24,
			"byteOffset":470076
		},
		{
			"buffer":0,
			"byteLength":24,
			"byteOffset":470100
		},
		{
			"buffer":0,
			"byteLength":304,
			"byteOffset":470124
		},
		{
			"buffer":0,
			"byteLength":24,
			"byteOffset":470428
		},
		{
			"buffer":0,
			"byteLength":24,
			"byteOffset":470452
		},
		{
			"buffer":0,
			"byteLength":32,
			"byteOffset":470476
		},
		{
			"buffer":0,
			"byteLength":24,
			"byteOffset":470508
		},
		{
			"buffer":0,
			"byteLength":24,
			"byteOffset":470532
		},
		{
			"buffer":0,
			"byteLength":304,
			"byteOffset":470556
		},
		{
			"buffer":0,
			"byteLength":24,
			"byteOffset":470860
		},
		{
			"buffer":0,
			"byteLength":24,
			"byteOffset":470884
		},
		{
			"buffer":0,
			"byteLength":32,
			"byteOffset":470908
		},
		{
			"buffer":0,
			"byteLength":24,
			"byteOffset":470940
		},
		{
			"buffer":0,
			"byteLength":24,
			"byteOffset":470964
		},
		{
			"buffer":0,
			"byteLength":32,
			"byteOffset":470988
		},
		{
			"buffer":0,
			"byteLength":24,
			"byteOffset":471020
		},
		{
			"buffer":0,
			"byteLength":24,
			"byteOffset":471044
		},
		{
			"buffer":0,
			"byteLength":304,
			"byteOffset":471068
		},
		{
			"buffer":0,
			"byteLength":24,
			"byteOffset":471372
		},
		{
			"buffer":0,
			"byteLength":24,
			"byteOffset":471396
		},
		{
			"buffer":0,
			"byteLength":32,
			"byteOffset":471420
		},
		{
			"buffer":0,
			"byteLength":24,
			"byteOffset":471452
		},
		{
			"buffer":0,
			"byteLength":24,
			"byteOffset":471476
		},
		{
			"buffer":0,
			"byteLength":32,
			"byteOffset":471500
		},
		{
			"buffer":0,
			"byteLength":24,
			"byteOffset":471532
		},
		{
			"buffer":0,
			"byteLength":24,
			"byteOffset":471556
		},
		{
			"buffer":0,
			"byteLength":304,
			"byteOffset":471580
		},
		{
			"buffer":0,
			"byteLength":24,
			"byteOffset":471884
		},
		{
			"buffer":0,
			"byteLength":24,
			"byteOffset":471908
		},
		{
			"buffer":0,
			"byteLength":32,
			"byteOffset":471932
		},
		{
			"buffer":0,
			"byteLength":24,
			"byteOffset":471964
		},
		{
			"buffer":0,
			"byteLength":24,
			"byteOffset":471988
		},
		{
			"buffer":0,
			"byteLength":32,
			"byteOffset":472012
		},
		{
			"buffer":0,
			"byteLength":24,
			"byteOffset":472044
		},
		{
			"buffer":0,
			"byteLength":244,
			"byteOffset":472068
		},
		{
			"buffer":0,
			"byteLength":732,
			"byteOffset":472312
		},
		{
			"buffer":0,
			"byteLength":8,
			"byteOffset":473044
		},
		{
			"buffer":0,
			"byteLength":32,
			"byteOffset":473052
		},
		{
			"buffer":0,
			"byteLength":24,
			"byteOffset":473084
		},
		{
			"buffer":0,
			"byteLength":24,
			"byteOffset":473108
		},
		{
			"buffer":0,
			"byteLength":32,
			"byteOffset":473132
		},
		{
			"buffer":0,
			"byteLength":24,
			"byteOffset":473164
		},
		{
			"buffer":0,
			"byteLength":24,
			"byteOffset":473188
		},
		{
			"buffer":0,
			"byteLength":976,
			"byteOffset":473212
		},
		{
			"buffer":0,
			"byteLength":24,
			"byteOffset":474188
		},
		{
			"buffer":0,
			"byteLength":24,
			"byteOffset":474212
		},
		{
			"buffer":0,
			"byteLength":32,
			"byteOffset":474236
		},
		{
			"buffer":0,
			"byteLength":24,
			"byteOffset":474268
		},
		{
			"buffer":0,
			"byteLength":24,
			"byteOffset":474292
		},
		{
			"buffer":0,
			"byteLength":976,
			"byteOffset":474316
		},
		{
			"buffer":0,
			"byteLength":24,
			"byteOffset":475292
		},
		{
			"buffer":0,
			"byteLength":24,
			"byteOffset":475316
		},
		{
			"buffer":0,
			"byteLength":976,
			"byteOffset":475340
		},
		{
			"buffer":0,
			"byteLength":24,
			"byteOffset":476316
		},
		{
			"buffer":0,
			"byteLength":24,
			"byteOffset":476340
		},
		{
			"buffer":0,
			"byteLength":32,
			"byteOffset":476364
		},
		{
			"buffer":0,
			"byteLength":24,
			"byteOffset":476396
		},
		{
			"buffer":0,
			"byteLength":24,
			"byteOffset":476420
		},
		{
			"buffer":0,
			"byteLength":32,
			"byteOffset":476444
		},
		{
			"buffer":0,
			"byteLength":24,
			"byteOffset":476476
		},
		{
			"buffer":0,
			"byteLength":24,
			"byteOffset":476500
		},
		{
			"buffer":0,
			"byteLength":976,
			"byteOffset":476524
		},
		{
			"buffer":0,
			"byteLength":24,
			"byteOffset":477500
		},
		{
			"buffer":0,
			"byteLength":24,
			"byteOffset":477524
		},
		{
			"buffer":0,
			"byteLength":32,
			"byteOffset":477548
		},
		{
			"buffer":0,
			"byteLength":24,
			"byteOffset":477580
		},
		{
			"buffer":0,
			"byteLength":24,
			"byteOffset":477604
		},
		{
			"buffer":0,
			"byteLength":32,
			"byteOffset":477628
		},
		{
			"buffer":0,
			"byteLength":24,
			"byteOffset":477660
		},
		{
			"buffer":0,
			"byteLength":24,
			"byteOffset":477684
		},
		{
			"buffer":0,
			"byteLength":32,
			"byteOffset":477708
		},
		{
			"buffer":0,
			"byteLength":24,
			"byteOffset":477740
		},
		{
			"buffer":0,
			"byteLength":24,
			"byteOffset":477764
		},
		{
			"buffer":0,
			"byteLength":32,
			"byteOffset":477788
		},
		{
			"buffer":0,
			"byteLength":24,
			"byteOffset":477820
		},
		{
			"buffer":0,
			"byteLength":24,
			"byteOffset":477844
		},
		{
			"buffer":0,
			"byteLength":32,
			"byteOffset":477868
		},
		{
			"buffer":0,
			"byteLength":24,
			"byteOffset":477900
		},
		{
			"buffer":0,
			"byteLength":24,
			"byteOffset":477924
		},
		{
			"buffer":0,
			"byteLength":32,
			"byteOffset":477948
		},
		{
			"buffer":0,
			"byteLength":24,
			"byteOffset":477980
		},
		{
			"buffer":0,
			"byteLength":24,
			"byteOffset":478004
		},
		{
			"buffer":0,
			"byteLength":32,
			"byteOffset":478028
		},
		{
			"buffer":0,
			"byteLength":24,
			"byteOffset":478060
		},
		{
			"buffer":0,
			"byteLength":24,
			"byteOffset":478084
		},
		{
			"buffer":0,
			"byteLength":32,
			"byteOffset":478108
		},
		{
			"buffer":0,
			"byteLength":24,
			"byteOffset":478140
		},
		{
			"buffer":0,
			"byteLength":124,
			"byteOffset":478164
		},
		{
			"buffer":0,
			"byteLength":372,
			"byteOffset":478288
		},
		{
			"buffer":0,
			"byteLength":496,
			"byteOffset":478660
		},
		{
			"buffer":0,
			"byteLength":8,
			"byteOffset":479156
		},
		{
			"buffer":0,
			"byteLength":24,
			"byteOffset":479164
		},
		{
			"buffer":0,
			"byteLength":24,
			"byteOffset":479188
		},
		{
			"buffer":0,
			"byteLength":32,
			"byteOffset":479212
		},
		{
			"buffer":0,
			"byteLength":24,
			"byteOffset":479244
		},
		{
			"buffer":0,
			"byteLength":24,
			"byteOffset":479268
		},
		{
			"buffer":0,
			"byteLength":496,
			"byteOffset":479292
		},
		{
			"buffer":0,
			"byteLength":24,
			"byteOffset":479788
		},
		{
			"buffer":0,
			"byteLength":24,
			"byteOffset":479812
		},
		{
			"buffer":0,
			"byteLength":32,
			"byteOffset":479836
		},
		{
			"buffer":0,
			"byteLength":24,
			"byteOffset":479868
		},
		{
			"buffer":0,
			"byteLength":24,
			"byteOffset":479892
		},
		{
			"buffer":0,
			"byteLength":32,
			"byteOffset":479916
		},
		{
			"buffer":0,
			"byteLength":24,
			"byteOffset":479948
		},
		{
			"buffer":0,
			"byteLength":24,
			"byteOffset":479972
		},
		{
			"buffer":0,
			"byteLength":496,
			"byteOffset":479996
		},
		{
			"buffer":0,
			"byteLength":24,
			"byteOffset":480492
		},
		{
			"buffer":0,
			"byteLength":24,
			"byteOffset":480516
		},
		{
			"buffer":0,
			"byteLength":32,
			"byteOffset":480540
		},
		{
			"buffer":0,
			"byteLength":24,
			"byteOffset":480572
		},
		{
			"buffer":0,
			"byteLength":24,
			"byteOffset":480596
		},
		{
			"buffer":0,
			"byteLength":32,
			"byteOffset":480620
		},
		{
			"buffer":0,
			"byteLength":24,
			"byteOffset":480652
		},
		{
			"buffer":0,
			"byteLength":24,
			"byteOffset":480676
		},
		{
			"buffer":0,
			"byteLength":496,
			"byteOffset":480700
		},
		{
			"buffer":0,
			"byteLength":24,
			"byteOffset":481196
		},
		{
			"buffer":0,
			"byteLength":24,
			"byteOffset":481220
		},
		{
			"buffer":0,
			"byteLength":32,
			"byteOffset":481244
		},
		{
			"buffer":0,
			"byteLength":24,
			"byteOffset":481276
		},
		{
			"buffer":0,
			"byteLength":24,
			"byteOffset":481300
		},
		{
			"buffer":0,
			"byteLength":32,
			"byteOffset":481324
		},
		{
			"buffer":0,
			"byteLength":24,
			"byteOffset":481356
		},
		{
			"buffer":0,
			"byteLength":24,
			"byteOffset":481380
		},
		{
			"buffer":0,
			"byteLength":496,
			"byteOffset":481404
		},
		{
			"buffer":0,
			"byteLength":24,
			"byteOffset":481900
		},
		{
			"buffer":0,
			"byteLength":24,
			"byteOffset":481924
		},
		{
			"buffer":0,
			"byteLength":496,
			"byteOffset":481948
		},
		{
			"buffer":0,
			"byteLength":24,
			"byteOffset":482444
		},
		{
			"buffer":0,
			"byteLength":24,
			"byteOffset":482468
		},
		{
			"buffer":0,
			"byteLength":496,
			"byteOffset":482492
		},
		{
			"buffer":0,
			"byteLength":24,
			"byteOffset":482988
		},
		{
			"buffer":0,
			"byteLength":24,
			"byteOffset":483012
		},
		{
			"buffer":0,
			"byteLength":496,
			"byteOffset":483036
		},
		{
			"buffer":0,
			"byteLength":24,
			"byteOffset":483532
		},
		{
			"buffer":0,
			"byteLength":24,
			"byteOffset":483556
		},
		{
			"buffer":0,
			"byteLength":496,
			"byteOffset":483580
		},
		{
			"buffer":0,
			"byteLength":24,
			"byteOffset":484076
		},
		{
			"buffer":0,
			"byteLength":24,
			"byteOffset":484100
		},
		{
			"buffer":0,
			"byteLength":496,
			"byteOffset":484124
		},
		{
			"buffer":0,
			"byteLength":24,
			"byteOffset":484620
		}
	],
	"samplers":[
		{
			"magFilter":9729,
			"minFilter":9987
		}
	],
	"buffers":[
		{
			"byteLength":484644,
			"uri":"rigurd.bin"
		}
	]
}
