{
	"asset":{
		"generator":"Khronos glTF Blender I/O v4.2.57",
		"version":"2.0"
	},
	"extensionsUsed":[
		"KHR_materials_clearcoat",
		"KHR_materials_sheen"
	],
	"scene":0,
	"scenes":[
		{
			"name":"Scene",
			"nodes":[
				18
			]
		}
	],
	"nodes":[
		{
			"name":"head",
			"scale":[
				1,
				0.9999999403953552,
				1
			],
			"translation":[
				0,
				0.08999991416931152,
				0
			]
		},
		{
			"children":[
				0
			],
			"name":"neck",
			"translation":[
				0,
				0.18900001049041748,
				0
			]
		},
		{
			"name":"hand.R",
			"rotation":[
				-0.002831941470503807,
				-0.020585868507623672,
				0.02213023230433464,
				0.9995391368865967
			],
			"scale":[
				0.9999999403953552,
				1,
				0.9999998807907104
			],
			"translation":[
				5.238689482212067e-10,
				0.2265545278787613,
				2.7939677238464355e-09
			]
		},
		{
			"children":[
				2
			],
			"name":"forearm.R",
			"rotation":[
				0.04786788672208786,
				-0.06073946878314018,
				0.0701541006565094,
				0.9945339560508728
			],
			"scale":[
				1,
				0.9999999403953552,
				1
			],
			"translation":[
				-1.3853423297405243e-08,
				0.24866868555545807,
				-9.313225746154785e-10
			]
		},
		{
			"children":[
				3
			],
			"name":"upper_arm.R",
			"rotation":[
				0.9885599613189697,
				0.10654272139072418,
				0.1065429151058197,
				0.0068230708129704
			],
			"scale":[
				0.9999988079071045,
				0.9999998211860657,
				0.9999999403953552
			],
			"translation":[
				0.19439999759197235,
				0.14399993419647217,
				0
			]
		},
		{
			"name":"hand.L",
			"rotation":[
				-0.002831941470503807,
				0.020585868507623672,
				-0.02213023230433464,
				0.9995391368865967
			],
			"scale":[
				0.9999999403953552,
				1,
				0.9999998807907104
			],
			"translation":[
				-5.238689482212067e-10,
				0.2265545278787613,
				2.7939677238464355e-09
			]
		},
		{
			"children":[
				5
			],
			"name":"forearm.L",
			"rotation":[
				0.04786788672208786,
				0.06073946878314018,
				-0.0701541006565094,
				0.9945339560508728
			],
			"scale":[
				1,
				0.9999999403953552,
				1
			],
			"translation":[
				1.3853423297405243e-08,
				0.24866868555545807,
				-9.313225746154785e-10
			]
		},
		{
			"children":[
				6
			],
			"name":"upper_arm.L",
			"rotation":[
				0.9885599613189697,
				-0.10654272139072418,
				-0.1065429151058197,
				0.0068230708129704
			],
			"scale":[
				0.9999988079071045,
				0.9999998211860657,
				0.9999999403953552
			],
			"translation":[
				-0.19439999759197235,
				0.14399993419647217,
				0
			]
		},
		{
			"children":[
				1,
				4,
				7
			],
			"name":"chest",
			"translation":[
				0,
				0.15299999713897705,
				0
			]
		},
		{
			"children":[
				8
			],
			"name":"spine",
			"translation":[
				0,
				0.13499999046325684,
				0
			]
		},
		{
			"name":"foot.R",
			"rotation":[
				0.5914180278778076,
				-2.0018101065666372e-10,
				1.301787122542919e-09,
				0.8063651323318481
			],
			"scale":[
				1,
				1.0000001192092896,
				1
			],
			"translation":[
				-7.275997582212312e-09,
				0.36953088641166687,
				-3.0028068920273654e-10
			]
		},
		{
			"children":[
				10
			],
			"name":"shin.R",
			"rotation":[
				-0.041510093957185745,
				-0.009864621795713902,
				0.009349497966468334,
				0.9990456104278564
			],
			"translation":[
				8.003553375601768e-10,
				0.3692282438278198,
				0
			]
		},
		{
			"children":[
				11
			],
			"name":"thigh.R",
			"rotation":[
				-0.9997993111610413,
				-0.009610517881810665,
				-0.00961059145629406,
				0.014720412902534008
			],
			"scale":[
				1,
				1,
				1.000000238418579
			],
			"translation":[
				0.0828000009059906,
				-0.018000006675720215,
				0
			]
		},
		{
			"name":"foot.L",
			"rotation":[
				0.5914180278778076,
				2.0018101065666372e-10,
				-1.301787122542919e-09,
				0.8063651323318481
			],
			"scale":[
				1,
				1.0000001192092896,
				1
			],
			"translation":[
				7.275997582212312e-09,
				0.36953088641166687,
				-3.0028068920273654e-10
			]
		},
		{
			"children":[
				13
			],
			"name":"shin.L",
			"rotation":[
				-0.041510093957185745,
				0.009864621795713902,
				-0.009349497966468334,
				0.9990456104278564
			],
			"translation":[
				-8.003553375601768e-10,
				0.3692282438278198,
				0
			]
		},
		{
			"children":[
				14
			],
			"name":"thigh.L",
			"rotation":[
				-0.9997993111610413,
				0.009610517881810665,
				0.00961059145629406,
				0.014720412902534008
			],
			"scale":[
				1,
				1,
				1.000000238418579
			],
			"translation":[
				-0.0828000009059906,
				-0.018000006675720215,
				0
			]
		},
		{
			"children":[
				9,
				12,
				15
			],
			"name":"hips",
			"translation":[
				0,
				0.8370000123977661,
				0
			]
		},
		{
			"mesh":0,
			"name":"rimuru_human",
			"skin":0
		},
		{
			"children":[
				17,
				16
			],
			"name":"rimuru_human_rig"
		}
	],
	"animations":[
		{
			"channels":[
				{
					"sampler":0,
					"target":{
						"node":16,
						"path":"translation"
					}
				},
				{
					"sampler":1,
					"target":{
						"node":16,
						"path":"rotation"
					}
				},
				{
					"sampler":2,
					"target":{
						"node":16,
						"path":"scale"
					}
				},
				{
					"sampler":3,
					"target":{
						"node":9,
						"path":"translation"
					}
				},
				{
					"sampler":4,
					"target":{
						"node":9,
						"path":"rotation"
					}
				},
				{
					"sampler":5,
					"target":{
						"node":9,
						"path":"scale"
					}
				},
				{
					"sampler":6,
					"target":{
						"node":8,
						"path":"translation"
					}
				},
				{
					"sampler":7,
					"target":{
						"node":8,
						"path":"rotation"
					}
				},
				{
					"sampler":8,
					"target":{
						"node":8,
						"path":"scale"
					}
				},
				{
					"sampler":9,
					"target":{
						"node":1,
						"path":"translation"
					}
				},
				{
					"sampler":10,
					"target":{
						"node":1,
						"path":"rotation"
					}
				},
				{
					"sampler":11,
					"target":{
						"node":1,
						"path":"scale"
					}
				},
				{
					"sampler":12,
					"target":{
						"node":0,
						"path":"translation"
					}
				},
				{
					"sampler":13,
					"target":{
						"node":0,
						"path":"rotation"
					}
				},
				{
					"sampler":14,
					"target":{
						"node":0,
						"path":"scale"
					}
				},
				{
					"sampler":15,
					"target":{
						"node":4,
						"path":"translation"
					}
				},
				{
					"sampler":16,
					"target":{
						"node":4,
						"path":"rotation"
					}
				},
				{
					"sampler":17,
					"target":{
						"node":4,
						"path":"scale"
					}
				},
				{
					"sampler":18,
					"target":{
						"node":3,
						"path":"translation"
					}
				},
				{
					"sampler":19,
					"target":{
						"node":3,
						"path":"rotation"
					}
				},
				{
					"sampler":20,
					"target":{
						"node":3,
						"path":"scale"
					}
				},
				{
					"sampler":21,
					"target":{
						"node":2,
						"path":"translation"
					}
				},
				{
					"sampler":22,
					"target":{
						"node":2,
						"path":"rotation"
					}
				},
				{
					"sampler":23,
					"target":{
						"node":2,
						"path":"scale"
					}
				},
				{
					"sampler":24,
					"target":{
						"node":7,
						"path":"translation"
					}
				},
				{
					"sampler":25,
					"target":{
						"node":7,
						"path":"rotation"
					}
				},
				{
					"sampler":26,
					"target":{
						"node":7,
						"path":"scale"
					}
				},
				{
					"sampler":27,
					"target":{
						"node":6,
						"path":"translation"
					}
				},
				{
					"sampler":28,
					"target":{
						"node":6,
						"path":"rotation"
					}
				},
				{
					"sampler":29,
					"target":{
						"node":6,
						"path":"scale"
					}
				},
				{
					"sampler":30,
					"target":{
						"node":5,
						"path":"translation"
					}
				},
				{
					"sampler":31,
					"target":{
						"node":5,
						"path":"rotation"
					}
				},
				{
					"sampler":32,
					"target":{
						"node":5,
						"path":"scale"
					}
				},
				{
					"sampler":33,
					"target":{
						"node":12,
						"path":"translation"
					}
				},
				{
					"sampler":34,
					"target":{
						"node":12,
						"path":"rotation"
					}
				},
				{
					"sampler":35,
					"target":{
						"node":12,
						"path":"scale"
					}
				},
				{
					"sampler":36,
					"target":{
						"node":11,
						"path":"translation"
					}
				},
				{
					"sampler":37,
					"target":{
						"node":11,
						"path":"rotation"
					}
				},
				{
					"sampler":38,
					"target":{
						"node":11,
						"path":"scale"
					}
				},
				{
					"sampler":39,
					"target":{
						"node":10,
						"path":"translation"
					}
				},
				{
					"sampler":40,
					"target":{
						"node":10,
						"path":"rotation"
					}
				},
				{
					"sampler":41,
					"target":{
						"node":10,
						"path":"scale"
					}
				},
				{
					"sampler":42,
					"target":{
						"node":15,
						"path":"translation"
					}
				},
				{
					"sampler":43,
					"target":{
						"node":15,
						"path":"rotation"
					}
				},
				{
					"sampler":44,
					"target":{
						"node":15,
						"path":"scale"
					}
				},
				{
					"sampler":45,
					"target":{
						"node":14,
						"path":"translation"
					}
				},
				{
					"sampler":46,
					"target":{
						"node":14,
						"path":"rotation"
					}
				},
				{
					"sampler":47,
					"target":{
						"node":14,
						"path":"scale"
					}
				},
				{
					"sampler":48,
					"target":{
						"node":13,
						"path":"translation"
					}
				},
				{
					"sampler":49,
					"target":{
						"node":13,
						"path":"rotation"
					}
				},
				{
					"sampler":50,
					"target":{
						"node":13,
						"path":"scale"
					}
				}
			],
			"name":"attack",
			"samplers":[
				{
					"input":103,
					"interpolation":"STEP",
					"output":104
				},
				{
					"input":103,
					"interpolation":"STEP",
					"output":105
				},
				{
					"input":103,
					"interpolation":"STEP",
					"output":106
				},
				{
					"input":103,
					"interpolation":"STEP",
					"output":107
				},
				{
					"input":103,
					"interpolation":"STEP",
					"output":108
				},
				{
					"input":103,
					"interpolation":"STEP",
					"output":109
				},
				{
					"input":103,
					"interpolation":"STEP",
					"output":110
				},
				{
					"input":111,
					"interpolation":"LINEAR",
					"output":112
				},
				{
					"input":103,
					"interpolation":"STEP",
					"output":113
				},
				{
					"input":103,
					"interpolation":"STEP",
					"output":114
				},
				{
					"input":103,
					"interpolation":"STEP",
					"output":115
				},
				{
					"input":103,
					"interpolation":"STEP",
					"output":116
				},
				{
					"input":103,
					"interpolation":"STEP",
					"output":117
				},
				{
					"input":103,
					"interpolation":"STEP",
					"output":118
				},
				{
					"input":103,
					"interpolation":"STEP",
					"output":119
				},
				{
					"input":103,
					"interpolation":"STEP",
					"output":120
				},
				{
					"input":111,
					"interpolation":"LINEAR",
					"output":121
				},
				{
					"input":103,
					"interpolation":"STEP",
					"output":122
				},
				{
					"input":103,
					"interpolation":"LINEAR",
					"output":123
				},
				{
					"input":111,
					"interpolation":"LINEAR",
					"output":124
				},
				{
					"input":103,
					"interpolation":"STEP",
					"output":125
				},
				{
					"input":103,
					"interpolation":"LINEAR",
					"output":126
				},
				{
					"input":103,
					"interpolation":"STEP",
					"output":127
				},
				{
					"input":103,
					"interpolation":"STEP",
					"output":128
				},
				{
					"input":103,
					"interpolation":"STEP",
					"output":129
				},
				{
					"input":111,
					"interpolation":"LINEAR",
					"output":130
				},
				{
					"input":103,
					"interpolation":"STEP",
					"output":131
				},
				{
					"input":103,
					"interpolation":"STEP",
					"output":132
				},
				{
					"input":103,
					"interpolation":"STEP",
					"output":133
				},
				{
					"input":103,
					"interpolation":"STEP",
					"output":134
				},
				{
					"input":103,
					"interpolation":"STEP",
					"output":135
				},
				{
					"input":103,
					"interpolation":"STEP",
					"output":136
				},
				{
					"input":103,
					"interpolation":"STEP",
					"output":137
				},
				{
					"input":103,
					"interpolation":"STEP",
					"output":138
				},
				{
					"input":111,
					"interpolation":"LINEAR",
					"output":139
				},
				{
					"input":103,
					"interpolation":"STEP",
					"output":140
				},
				{
					"input":103,
					"interpolation":"LINEAR",
					"output":141
				},
				{
					"input":103,
					"interpolation":"LINEAR",
					"output":142
				},
				{
					"input":103,
					"interpolation":"STEP",
					"output":143
				},
				{
					"input":103,
					"interpolation":"LINEAR",
					"output":144
				},
				{
					"input":103,
					"interpolation":"LINEAR",
					"output":145
				},
				{
					"input":103,
					"interpolation":"STEP",
					"output":146
				},
				{
					"input":103,
					"interpolation":"STEP",
					"output":147
				},
				{
					"input":111,
					"interpolation":"LINEAR",
					"output":148
				},
				{
					"input":103,
					"interpolation":"STEP",
					"output":149
				},
				{
					"input":103,
					"interpolation":"LINEAR",
					"output":150
				},
				{
					"input":103,
					"interpolation":"LINEAR",
					"output":151
				},
				{
					"input":103,
					"interpolation":"STEP",
					"output":152
				},
				{
					"input":103,
					"interpolation":"LINEAR",
					"output":153
				},
				{
					"input":103,
					"interpolation":"LINEAR",
					"output":154
				},
				{
					"input":103,
					"interpolation":"STEP",
					"output":155
				}
			]
		},
		{
			"channels":[
				{
					"sampler":0,
					"target":{
						"node":16,
						"path":"translation"
					}
				},
				{
					"sampler":1,
					"target":{
						"node":16,
						"path":"rotation"
					}
				},
				{
					"sampler":2,
					"target":{
						"node":16,
						"path":"scale"
					}
				},
				{
					"sampler":3,
					"target":{
						"node":9,
						"path":"translation"
					}
				},
				{
					"sampler":4,
					"target":{
						"node":9,
						"path":"rotation"
					}
				},
				{
					"sampler":5,
					"target":{
						"node":9,
						"path":"scale"
					}
				},
				{
					"sampler":6,
					"target":{
						"node":8,
						"path":"translation"
					}
				},
				{
					"sampler":7,
					"target":{
						"node":8,
						"path":"rotation"
					}
				},
				{
					"sampler":8,
					"target":{
						"node":8,
						"path":"scale"
					}
				},
				{
					"sampler":9,
					"target":{
						"node":1,
						"path":"translation"
					}
				},
				{
					"sampler":10,
					"target":{
						"node":1,
						"path":"rotation"
					}
				},
				{
					"sampler":11,
					"target":{
						"node":1,
						"path":"scale"
					}
				},
				{
					"sampler":12,
					"target":{
						"node":0,
						"path":"translation"
					}
				},
				{
					"sampler":13,
					"target":{
						"node":0,
						"path":"rotation"
					}
				},
				{
					"sampler":14,
					"target":{
						"node":0,
						"path":"scale"
					}
				},
				{
					"sampler":15,
					"target":{
						"node":4,
						"path":"translation"
					}
				},
				{
					"sampler":16,
					"target":{
						"node":4,
						"path":"rotation"
					}
				},
				{
					"sampler":17,
					"target":{
						"node":4,
						"path":"scale"
					}
				},
				{
					"sampler":18,
					"target":{
						"node":3,
						"path":"translation"
					}
				},
				{
					"sampler":19,
					"target":{
						"node":3,
						"path":"rotation"
					}
				},
				{
					"sampler":20,
					"target":{
						"node":3,
						"path":"scale"
					}
				},
				{
					"sampler":21,
					"target":{
						"node":2,
						"path":"translation"
					}
				},
				{
					"sampler":22,
					"target":{
						"node":2,
						"path":"rotation"
					}
				},
				{
					"sampler":23,
					"target":{
						"node":2,
						"path":"scale"
					}
				},
				{
					"sampler":24,
					"target":{
						"node":7,
						"path":"translation"
					}
				},
				{
					"sampler":25,
					"target":{
						"node":7,
						"path":"rotation"
					}
				},
				{
					"sampler":26,
					"target":{
						"node":7,
						"path":"scale"
					}
				},
				{
					"sampler":27,
					"target":{
						"node":6,
						"path":"translation"
					}
				},
				{
					"sampler":28,
					"target":{
						"node":6,
						"path":"rotation"
					}
				},
				{
					"sampler":29,
					"target":{
						"node":6,
						"path":"scale"
					}
				},
				{
					"sampler":30,
					"target":{
						"node":5,
						"path":"translation"
					}
				},
				{
					"sampler":31,
					"target":{
						"node":5,
						"path":"rotation"
					}
				},
				{
					"sampler":32,
					"target":{
						"node":5,
						"path":"scale"
					}
				},
				{
					"sampler":33,
					"target":{
						"node":12,
						"path":"translation"
					}
				},
				{
					"sampler":34,
					"target":{
						"node":12,
						"path":"rotation"
					}
				},
				{
					"sampler":35,
					"target":{
						"node":12,
						"path":"scale"
					}
				},
				{
					"sampler":36,
					"target":{
						"node":11,
						"path":"translation"
					}
				},
				{
					"sampler":37,
					"target":{
						"node":11,
						"path":"rotation"
					}
				},
				{
					"sampler":38,
					"target":{
						"node":11,
						"path":"scale"
					}
				},
				{
					"sampler":39,
					"target":{
						"node":10,
						"path":"translation"
					}
				},
				{
					"sampler":40,
					"target":{
						"node":10,
						"path":"rotation"
					}
				},
				{
					"sampler":41,
					"target":{
						"node":10,
						"path":"scale"
					}
				},
				{
					"sampler":42,
					"target":{
						"node":15,
						"path":"translation"
					}
				},
				{
					"sampler":43,
					"target":{
						"node":15,
						"path":"rotation"
					}
				},
				{
					"sampler":44,
					"target":{
						"node":15,
						"path":"scale"
					}
				},
				{
					"sampler":45,
					"target":{
						"node":14,
						"path":"translation"
					}
				},
				{
					"sampler":46,
					"target":{
						"node":14,
						"path":"rotation"
					}
				},
				{
					"sampler":47,
					"target":{
						"node":14,
						"path":"scale"
					}
				},
				{
					"sampler":48,
					"target":{
						"node":13,
						"path":"translation"
					}
				},
				{
					"sampler":49,
					"target":{
						"node":13,
						"path":"rotation"
					}
				},
				{
					"sampler":50,
					"target":{
						"node":13,
						"path":"scale"
					}
				}
			],
			"name":"idle",
			"samplers":[
				{
					"input":156,
					"interpolation":"LINEAR",
					"output":157
				},
				{
					"input":158,
					"interpolation":"STEP",
					"output":159
				},
				{
					"input":158,
					"interpolation":"STEP",
					"output":160
				},
				{
					"input":158,
					"interpolation":"STEP",
					"output":161
				},
				{
					"input":158,
					"interpolation":"STEP",
					"output":162
				},
				{
					"input":158,
					"interpolation":"STEP",
					"output":163
				},
				{
					"input":158,
					"interpolation":"STEP",
					"output":164
				},
				{
					"input":156,
					"interpolation":"LINEAR",
					"output":165
				},
				{
					"input":158,
					"interpolation":"STEP",
					"output":166
				},
				{
					"input":158,
					"interpolation":"STEP",
					"output":167
				},
				{
					"input":158,
					"interpolation":"STEP",
					"output":168
				},
				{
					"input":158,
					"interpolation":"STEP",
					"output":169
				},
				{
					"input":158,
					"interpolation":"STEP",
					"output":170
				},
				{
					"input":156,
					"interpolation":"LINEAR",
					"output":171
				},
				{
					"input":158,
					"interpolation":"STEP",
					"output":172
				},
				{
					"input":158,
					"interpolation":"STEP",
					"output":173
				},
				{
					"input":156,
					"interpolation":"LINEAR",
					"output":174
				},
				{
					"input":158,
					"interpolation":"STEP",
					"output":175
				},
				{
					"input":158,
					"interpolation":"STEP",
					"output":176
				},
				{
					"input":158,
					"interpolation":"STEP",
					"output":177
				},
				{
					"input":158,
					"interpolation":"STEP",
					"output":178
				},
				{
					"input":158,
					"interpolation":"STEP",
					"output":179
				},
				{
					"input":158,
					"interpolation":"STEP",
					"output":180
				},
				{
					"input":158,
					"interpolation":"STEP",
					"output":181
				},
				{
					"input":158,
					"interpolation":"STEP",
					"output":182
				},
				{
					"input":156,
					"interpolation":"LINEAR",
					"output":183
				},
				{
					"input":158,
					"interpolation":"STEP",
					"output":184
				},
				{
					"input":158,
					"interpolation":"STEP",
					"output":185
				},
				{
					"input":158,
					"interpolation":"STEP",
					"output":186
				},
				{
					"input":158,
					"interpolation":"STEP",
					"output":187
				},
				{
					"input":158,
					"interpolation":"STEP",
					"output":188
				},
				{
					"input":158,
					"interpolation":"STEP",
					"output":189
				},
				{
					"input":158,
					"interpolation":"STEP",
					"output":190
				},
				{
					"input":158,
					"interpolation":"STEP",
					"output":191
				},
				{
					"input":158,
					"interpolation":"STEP",
					"output":192
				},
				{
					"input":158,
					"interpolation":"STEP",
					"output":193
				},
				{
					"input":158,
					"interpolation":"STEP",
					"output":194
				},
				{
					"input":158,
					"interpolation":"STEP",
					"output":195
				},
				{
					"input":158,
					"interpolation":"STEP",
					"output":196
				},
				{
					"input":158,
					"interpolation":"STEP",
					"output":197
				},
				{
					"input":158,
					"interpolation":"STEP",
					"output":198
				},
				{
					"input":158,
					"interpolation":"STEP",
					"output":199
				},
				{
					"input":158,
					"interpolation":"STEP",
					"output":200
				},
				{
					"input":158,
					"interpolation":"STEP",
					"output":201
				},
				{
					"input":158,
					"interpolation":"STEP",
					"output":202
				},
				{
					"input":158,
					"interpolation":"STEP",
					"output":203
				},
				{
					"input":158,
					"interpolation":"STEP",
					"output":204
				},
				{
					"input":158,
					"interpolation":"STEP",
					"output":205
				},
				{
					"input":158,
					"interpolation":"STEP",
					"output":206
				},
				{
					"input":158,
					"interpolation":"STEP",
					"output":207
				},
				{
					"input":158,
					"interpolation":"STEP",
					"output":208
				}
			]
		},
		{
			"channels":[
				{
					"sampler":0,
					"target":{
						"node":16,
						"path":"translation"
					}
				},
				{
					"sampler":1,
					"target":{
						"node":16,
						"path":"rotation"
					}
				},
				{
					"sampler":2,
					"target":{
						"node":16,
						"path":"scale"
					}
				},
				{
					"sampler":3,
					"target":{
						"node":9,
						"path":"translation"
					}
				},
				{
					"sampler":4,
					"target":{
						"node":9,
						"path":"rotation"
					}
				},
				{
					"sampler":5,
					"target":{
						"node":9,
						"path":"scale"
					}
				},
				{
					"sampler":6,
					"target":{
						"node":8,
						"path":"translation"
					}
				},
				{
					"sampler":7,
					"target":{
						"node":8,
						"path":"rotation"
					}
				},
				{
					"sampler":8,
					"target":{
						"node":8,
						"path":"scale"
					}
				},
				{
					"sampler":9,
					"target":{
						"node":1,
						"path":"translation"
					}
				},
				{
					"sampler":10,
					"target":{
						"node":1,
						"path":"rotation"
					}
				},
				{
					"sampler":11,
					"target":{
						"node":1,
						"path":"scale"
					}
				},
				{
					"sampler":12,
					"target":{
						"node":0,
						"path":"translation"
					}
				},
				{
					"sampler":13,
					"target":{
						"node":0,
						"path":"rotation"
					}
				},
				{
					"sampler":14,
					"target":{
						"node":0,
						"path":"scale"
					}
				},
				{
					"sampler":15,
					"target":{
						"node":4,
						"path":"translation"
					}
				},
				{
					"sampler":16,
					"target":{
						"node":4,
						"path":"rotation"
					}
				},
				{
					"sampler":17,
					"target":{
						"node":4,
						"path":"scale"
					}
				},
				{
					"sampler":18,
					"target":{
						"node":3,
						"path":"translation"
					}
				},
				{
					"sampler":19,
					"target":{
						"node":3,
						"path":"rotation"
					}
				},
				{
					"sampler":20,
					"target":{
						"node":3,
						"path":"scale"
					}
				},
				{
					"sampler":21,
					"target":{
						"node":2,
						"path":"translation"
					}
				},
				{
					"sampler":22,
					"target":{
						"node":2,
						"path":"rotation"
					}
				},
				{
					"sampler":23,
					"target":{
						"node":2,
						"path":"scale"
					}
				},
				{
					"sampler":24,
					"target":{
						"node":7,
						"path":"translation"
					}
				},
				{
					"sampler":25,
					"target":{
						"node":7,
						"path":"rotation"
					}
				},
				{
					"sampler":26,
					"target":{
						"node":7,
						"path":"scale"
					}
				},
				{
					"sampler":27,
					"target":{
						"node":6,
						"path":"translation"
					}
				},
				{
					"sampler":28,
					"target":{
						"node":6,
						"path":"rotation"
					}
				},
				{
					"sampler":29,
					"target":{
						"node":6,
						"path":"scale"
					}
				},
				{
					"sampler":30,
					"target":{
						"node":5,
						"path":"translation"
					}
				},
				{
					"sampler":31,
					"target":{
						"node":5,
						"path":"rotation"
					}
				},
				{
					"sampler":32,
					"target":{
						"node":5,
						"path":"scale"
					}
				},
				{
					"sampler":33,
					"target":{
						"node":12,
						"path":"translation"
					}
				},
				{
					"sampler":34,
					"target":{
						"node":12,
						"path":"rotation"
					}
				},
				{
					"sampler":35,
					"target":{
						"node":12,
						"path":"scale"
					}
				},
				{
					"sampler":36,
					"target":{
						"node":11,
						"path":"translation"
					}
				},
				{
					"sampler":37,
					"target":{
						"node":11,
						"path":"rotation"
					}
				},
				{
					"sampler":38,
					"target":{
						"node":11,
						"path":"scale"
					}
				},
				{
					"sampler":39,
					"target":{
						"node":10,
						"path":"translation"
					}
				},
				{
					"sampler":40,
					"target":{
						"node":10,
						"path":"rotation"
					}
				},
				{
					"sampler":41,
					"target":{
						"node":10,
						"path":"scale"
					}
				},
				{
					"sampler":42,
					"target":{
						"node":15,
						"path":"translation"
					}
				},
				{
					"sampler":43,
					"target":{
						"node":15,
						"path":"rotation"
					}
				},
				{
					"sampler":44,
					"target":{
						"node":15,
						"path":"scale"
					}
				},
				{
					"sampler":45,
					"target":{
						"node":14,
						"path":"translation"
					}
				},
				{
					"sampler":46,
					"target":{
						"node":14,
						"path":"rotation"
					}
				},
				{
					"sampler":47,
					"target":{
						"node":14,
						"path":"scale"
					}
				},
				{
					"sampler":48,
					"target":{
						"node":13,
						"path":"translation"
					}
				},
				{
					"sampler":49,
					"target":{
						"node":13,
						"path":"rotation"
					}
				},
				{
					"sampler":50,
					"target":{
						"node":13,
						"path":"scale"
					}
				}
			],
			"name":"walk",
			"samplers":[
				{
					"input":209,
					"interpolation":"LINEAR",
					"output":210
				},
				{
					"input":209,
					"interpolation":"LINEAR",
					"output":211
				},
				{
					"input":212,
					"interpolation":"STEP",
					"output":213
				},
				{
					"input":212,
					"interpolation":"STEP",
					"output":214
				},
				{
					"input":212,
					"interpolation":"STEP",
					"output":215
				},
				{
					"input":212,
					"interpolation":"STEP",
					"output":216
				},
				{
					"input":212,
					"interpolation":"STEP",
					"output":217
				},
				{
					"input":209,
					"interpolation":"LINEAR",
					"output":218
				},
				{
					"input":212,
					"interpolation":"STEP",
					"output":219
				},
				{
					"input":212,
					"interpolation":"STEP",
					"output":220
				},
				{
					"input":212,
					"interpolation":"STEP",
					"output":221
				},
				{
					"input":212,
					"interpolation":"STEP",
					"output":222
				},
				{
					"input":212,
					"interpolation":"STEP",
					"output":223
				},
				{
					"input":212,
					"interpolation":"STEP",
					"output":224
				},
				{
					"input":212,
					"interpolation":"STEP",
					"output":225
				},
				{
					"input":212,
					"interpolation":"STEP",
					"output":226
				},
				{
					"input":209,
					"interpolation":"LINEAR",
					"output":227
				},
				{
					"input":212,
					"interpolation":"STEP",
					"output":228
				},
				{
					"input":212,
					"interpolation":"STEP",
					"output":229
				},
				{
					"input":212,
					"interpolation":"STEP",
					"output":230
				},
				{
					"input":212,
					"interpolation":"STEP",
					"output":231
				},
				{
					"input":212,
					"interpolation":"STEP",
					"output":232
				},
				{
					"input":212,
					"interpolation":"STEP",
					"output":233
				},
				{
					"input":212,
					"interpolation":"STEP",
					"output":234
				},
				{
					"input":212,
					"interpolation":"STEP",
					"output":235
				},
				{
					"input":209,
					"interpolation":"LINEAR",
					"output":236
				},
				{
					"input":212,
					"interpolation":"STEP",
					"output":237
				},
				{
					"input":212,
					"interpolation":"STEP",
					"output":238
				},
				{
					"input":212,
					"interpolation":"STEP",
					"output":239
				},
				{
					"input":212,
					"interpolation":"STEP",
					"output":240
				},
				{
					"input":212,
					"interpolation":"STEP",
					"output":241
				},
				{
					"input":212,
					"interpolation":"STEP",
					"output":242
				},
				{
					"input":212,
					"interpolation":"STEP",
					"output":243
				},
				{
					"input":212,
					"interpolation":"STEP",
					"output":244
				},
				{
					"input":209,
					"interpolation":"LINEAR",
					"output":245
				},
				{
					"input":212,
					"interpolation":"STEP",
					"output":246
				},
				{
					"input":212,
					"interpolation":"STEP",
					"output":247
				},
				{
					"input":209,
					"interpolation":"LINEAR",
					"output":248
				},
				{
					"input":212,
					"interpolation":"STEP",
					"output":249
				},
				{
					"input":212,
					"interpolation":"STEP",
					"output":250
				},
				{
					"input":209,
					"interpolation":"LINEAR",
					"output":251
				},
				{
					"input":212,
					"interpolation":"STEP",
					"output":252
				},
				{
					"input":212,
					"interpolation":"STEP",
					"output":253
				},
				{
					"input":209,
					"interpolation":"LINEAR",
					"output":254
				},
				{
					"input":212,
					"interpolation":"STEP",
					"output":255
				},
				{
					"input":212,
					"interpolation":"STEP",
					"output":256
				},
				{
					"input":209,
					"interpolation":"LINEAR",
					"output":257
				},
				{
					"input":212,
					"interpolation":"STEP",
					"output":258
				},
				{
					"input":212,
					"interpolation":"STEP",
					"output":259
				},
				{
					"input":209,
					"interpolation":"LINEAR",
					"output":260
				},
				{
					"input":212,
					"interpolation":"STEP",
					"output":261
				}
			]
		}
	],
	"materials":[
		{
			"name":"skin",
			"normalTexture":{
				"index":0,
				"scale":0.4000000059604645
			},
			"pbrMetallicRoughness":{
				"baseColorFactor":[
					0.9331068396568298,
					0.7874122858047485,
					0.7105664610862732,
					1
				],
				"metallicFactor":0,
				"roughnessFactor":0.550000011920929
			}
		},
		{
			"extensions":{
				"KHR_materials_sheen":{
					"sheenColorFactor":[
						1.0,
						1.0,
						1.0
					],
					"sheenRoughnessFactor":0.5
				}
			},
			"name":"hair",
			"normalTexture":{
				"index":1,
				"scale":0.800000011920929
			},
			"pbrMetallicRoughness":{
				"baseColorFactor":[
					0.17064493894577026,
					0.5704815983772278,
					0.9551045894622803,
					1
				],
				"metallicFactor":0,
				"roughnessFactor":0.44999998807907104
			}
		},
		{
			"extensions":{
				"KHR_materials_sheen":{
					"sheenColorFactor":[
						1.0,
						1.0,
						1.0
					],
					"sheenRoughnessFactor":0.5
				}
			},
			"name":"outfit",
			"normalTexture":{
				"index":2,
				"scale":0.6000000238418579
			},
			"pbrMetallicRoughness":{
				"baseColorFactor":[
					0.0134117491543293,
					0.0134117491543293,
					0.027211781591176987,
					1
				],
				"metallicFactor":0,
				"roughnessFactor":0.75
			}
		},
		{
			"name":"outfit2",
			"normalTexture":{
				"index":3,
				"scale":0.4000000059604645
			},
			"pbrMetallicRoughness":{
				"baseColorFactor":[
					0.8900054097175598,
					0.8900054097175598,
					1,
					1
				],
				"metallicFactor":0,
				"roughnessFactor":0.6000000238418579
			}
		},
		{
			"name":"pants",
			"normalTexture":{
				"index":4,
				"scale":0.6000000238418579
			},
			"pbrMetallicRoughness":{
				"baseColorFactor":[
					0.007716664578765631,
					0.007716664578765631,
					0.01454195100814104,
					1
				],
				"metallicFactor":0,
				"roughnessFactor":0.800000011920929
			}
		},
		{
			"extensions":{
				"KHR_materials_clearcoat":{
					"clearcoatFactor":0.30000001192092896
				}
			},
			"name":"boots",
			"normalTexture":{
				"index":5,
				"scale":0.800000011920929
			},
			"pbrMetallicRoughness":{
				"baseColorFactor":[
					0.0134117491543293,
					0.010022825561463833,
					0.010022825561463833,
					1
				],
				"metallicFactor":0,
				"roughnessFactor":0.44999998807907104
			}
		},
		{
			"name":"eye_white",
			"pbrMetallicRoughness":{
				"baseColorFactor":[
					0.8900054097175598,
					0.8900054097175598,
					0.8900054097175598,
					1
				],
				"metallicFactor":0,
				"roughnessFactor":0.20000000298023224
			}
		},
		{
			"emissiveFactor":[
				0.6000000238418579,
				0.36229642877167123,
				0.019862860485428957
			],
			"name":"iris",
			"pbrMetallicRoughness":{
				"baseColorFactor":[
					1,
					0.6038273572921753,
					0.03310476616024971,
					1
				],
				"metallicFactor":0,
				"roughnessFactor":0.15000000596046448
			}
		},
		{
			"name":"pupil",
			"pbrMetallicRoughness":{
				"baseColorFactor":[
					0.0015479875728487968,
					0.0015479875728487968,
					0.0023219813592731953,
					1
				],
				"metallicFactor":0,
				"roughnessFactor":0.10000000149011612
			}
		},
		{
			"name":"lips",
			"pbrMetallicRoughness":{
				"baseColorFactor":[
					0.41866305470466614,
					0.3546920716762543,
					0.32088616490364075,
					1
				],
				"metallicFactor":0,
				"roughnessFactor":0.4000000059604645
			}
		},
		{
			"extensions":{
				"KHR_materials_clearcoat":{
					"clearcoatFactor":0.6000000238418579
				}
			},
			"name":"mask",
			"pbrMetallicRoughness":{
				"baseColorFactor":[
					0.911407470703125,
					0.8900054097175598,
					0.848088264465332,
					1
				],
				"metallicFactor":0,
				"roughnessFactor":0.30000001192092896
			}
		},
		{
			"doubleSided":true,
			"extensions":{
				"KHR_materials_sheen":{
					"sheenColorFactor":[
						1.0,
						1.0,
						1.0
					],
					"sheenRoughnessFactor":0.5
				}
			},
			"name":"coat",
			"normalTexture":{
				"index":6,
				"scale":0.699999988079071
			},
			"pbrMetallicRoughness":{
				"baseColorFactor":[
					0.0134117491543293,
					0.0134117491543293,
					0.027211781591176987,
					1
				],
				"metallicFactor":0,
				"roughnessFactor":0.699999988079071
			}
		},
		{
			"doubleSided":true,
			"name":"collar",
			"pbrMetallicRoughness":{
				"baseColorFactor":[
					0.8900054097175598,
					0.8900054097175598,
					1,
					1
				],
				"metallicFactor":0,
				"roughnessFactor":0.6000000238418579
			}
		},
		{
			"name":"buckle",
			"pbrMetallicRoughness":{
				"baseColorFactor":[
					0.6920710802078247,
					0.4479884207248688,
					0.07323895394802094,
					1
				],
				"metallicFactor":0.8999999761581421,
				"roughnessFactor":0.30000001192092896
			}
		},
		{
			"name":"blade",
			"normalTexture":{
				"index":7,
				"scale":0.30000001192092896
			},
			"pbrMetallicRoughness":{
				"baseColorFactor":[
					0.7484140992164612,
					0.7874122858047485,
					0.8900054097175598,
					1
				],
				"metallicFactor":0.550000011920929,
				"roughnessFactor":0.2199999988079071
			}
		},
		{
			"name":"handle",
			"normalTexture":{
				"index":8,
				"scale":0.6000000238418579
			},
			"pbrMetallicRoughness":{
				"baseColorFactor":[
					0.0134117491543293,
					0.007194409146904945,
					0.004896310158073902,
					1
				],
				"metallicFactor":0,
				"roughnessFactor":0.6000000238418579
			}
		},
		{
			"name":"guard",
			"pbrMetallicRoughness":{
				"baseColorFactor":[
					0.6038273572921753,
					0.38005632162094116,
					0.05087608844041824,
					1
				],
				"metallicFactor":0.8999999761581421,
				"roughnessFactor":0.30000001192092896
			}
		}
	],
	"meshes":[
		{
			"name":"rimuru_human",
			"primitives":[
				{
					"attributes":{
						"POSITION":0,
						"NORMAL":1,
						"TEXCOORD_0":2,
						"JOINTS_0":3,
						"WEIGHTS_0":4
					},
					"indices":5,
					"material":0
				},
				{
					"attributes":{
						"POSITION":6,
						"NORMAL":7,
						"TEXCOORD_0":8,
						"JOINTS_0":9,
						"WEIGHTS_0":10
					},
					"indices":11,
					"material":1
				},
				{
					"attributes":{
						"POSITION":12,
						"NORMAL":13,
						"TEXCOORD_0":14,
						"JOINTS_0":15,
						"WEIGHTS_0":16
					},
					"indices":17,
					"material":2
				},
				{
					"attributes":{
						"POSITION":18,
						"NORMAL":19,
						"TEXCOORD_0":20,
						"JOINTS_0":21,
						"WEIGHTS_0":22
					},
					"indices":23,
					"material":3
				},
				{
					"attributes":{
						"POSITION":24,
						"NORMAL":25,
						"TEXCOORD_0":26,
						"JOINTS_0":27,
						"WEIGHTS_0":28
					},
					"indices":29,
					"material":4
				},
				{
					"attributes":{
						"POSITION":30,
						"NORMAL":31,
						"TEXCOORD_0":32,
						"JOINTS_0":33,
						"WEIGHTS_0":34
					},
					"indices":35,
					"material":5
				},
				{
					"attributes":{
						"POSITION":36,
						"NORMAL":37,
						"TEXCOORD_0":38,
						"JOINTS_0":39,
						"WEIGHTS_0":40
					},
					"indices":41,
					"material":6
				},
				{
					"attributes":{
						"POSITION":42,
						"NORMAL":43,
						"TEXCOORD_0":44,
						"JOINTS_0":45,
						"WEIGHTS_0":46
					},
					"indices":47,
					"material":7
				},
				{
					"attributes":{
						"POSITION":48,
						"NORMAL":49,
						"TEXCOORD_0":50,
						"JOINTS_0":51,
						"WEIGHTS_0":52
					},
					"indices":53,
					"material":8
				},
				{
					"attributes":{
						"POSITION":54,
						"NORMAL":55,
						"TEXCOORD_0":56,
						"JOINTS_0":57,
						"WEIGHTS_0":58
					},
					"indices":59,
					"material":9
				},
				{
					"attributes":{
						"POSITION":60,
						"NORMAL":61,
						"TEXCOORD_0":62,
						"JOINTS_0":63,
						"WEIGHTS_0":64
					},
					"indices":65,
					"material":10
				},
				{
					"attributes":{
						"POSITION":66,
						"NORMAL":67,
						"TEXCOORD_0":68,
						"JOINTS_0":69,
						"WEIGHTS_0":70
					},
					"indices":71,
					"material":11
				},
				{
					"attributes":{
						"POSITION":72,
						"NORMAL":73,
						"TEXCOORD_0":74,
						"JOINTS_0":75,
						"WEIGHTS_0":76
					},
					"indices":77,
					"material":12
				},
				{
					"attributes":{
						"POSITION":78,
						"NORMAL":79,
						"TEXCOORD_0":80,
						"JOINTS_0":81,
						"WEIGHTS_0":82
					},
					"indices":83,
					"material":13
				},
				{
					"attributes":{
						"POSITION":84,
						"NORMAL":85,
						"TEXCOORD_0":86,
						"JOINTS_0":87,
						"WEIGHTS_0":88
					},
					"indices":89,
					"material":14
				},
				{
					"attributes":{
						"POSITION":90,
						"NORMAL":91,
						"TEXCOORD_0":92,
						"JOINTS_0":93,
						"WEIGHTS_0":94
					},
					"indices":95,
					"material":15
				},
				{
					"attributes":{
						"POSITION":96,
						"NORMAL":97,
						"TEXCOORD_0":98,
						"JOINTS_0":99,
						"WEIGHTS_0":100
					},
					"indices":101,
					"material":16
				}
			]
		}
	],
	"textures":[
		{
			"sampler":0,
			"source":0
		},
		{
			"sampler":0,
			"source":1
		},
		{
			"sampler":0,
			"source":2
		},
		{
			"sampler":0,
			"source":2
		},
		{
			"sampler":0,
			"source":2
		},
		{
			"sampler":0,
			"source":3
		},
		{
			"sampler":0,
			"source":2
		},
		{
			"sampler":0,
			"source":4
		},
		{
			"sampler":0,
			"source":3
		}
	],
	"images":[
		{
			"mimeType":"image/png",
			"name":"N_skin",
			"uri":"texturas/N_skin.png"
		},
		{
			"mimeType":"image/png",
			"name":"N_hair",
			"uri":"texturas/N_hair.png"
		},
		{
			"mimeType":"image/png",
			"name":"N_cloth",
			"uri":"texturas/N_cloth.png"
		},
		{
			"mimeType":"image/png",
			"name":"N_leather",
			"uri":"texturas/N_leather.png"
		},
		{
			"mimeType":"image/png",
			"name":"N_metal",
			"uri":"texturas/N_metal.png"
		}
	],
	"skins":[
		{
			"inverseBindMatrices":102,
			"joints":[
				16,
				9,
				8,
				1,
				0,
				4,
				3,
				2,
				7,
				6,
				5,
				12,
				11,
				10,
				15,
				14,
				13
			],
			"name":"rimuru_human_rig"
		}
	],
	"accessors":[
		{
			"bufferView":0,
			"componentType":5126,
			"count":1437,
			"max":[
				0.28873178362846375,
				1.6055998802185059,
				0.09649129956960678
			],
			"min":[
				-0.28873178362846375,
				0.7060211300849915,
				-0.10446905344724655
			],
			"type":"VEC3"
		},
		{
			"bufferView":1,
			"componentType":5126,
			"count":1437,
			"type":"VEC3"
		},
		{
			"bufferView":2,
			"componentType":5126,
			"count":1437,
			"type":"VEC2"
		},
		{
			"bufferView":3,
			"componentType":5121,
			"count":1437,
			"type":"VEC4"
		},
		{
			"bufferView":4,
			"componentType":5126,
			"count":1437,
			"type":"VEC4"
		},
		{
			"bufferView":5,
			"componentType":5123,
			"count":5868,
			"type":"SCALAR"
		},
		{
			"bufferView":6,
			"componentType":5126,
			"count":2921,
			"max":[
				0.12991634011268616,
				1.6310172080993652,
				0.17175956070423126
			],
			"min":[
				-0.12237602472305298,
				0.8968925476074219,
				-0.10326988250017166
			],
			"type":"VEC3"
		},
		{
			"bufferView":7,
			"componentType":5126,
			"count":2921,
			"type":"VEC3"
		},
		{
			"bufferView":8,
			"componentType":5126,
			"count":2921,
			"type":"VEC2"
		},
		{
			"bufferView":9,
			"componentType":5121,
			"count":2921,
			"type":"VEC4"
		},
		{
			"bufferView":10,
			"componentType":5126,
			"count":2921,
			"type":"VEC4"
		},
		{
			"bufferView":11,
			"componentType":5123,
			"count":10248,
			"type":"SCALAR"
		},
		{
			"bufferView":12,
			"componentType":5126,
			"count":1461,
			"max":[
				0.2921798825263977,
				1.3267914056777954,
				0.1009548082947731
			],
			"min":[
				-0.2921798825263977,
				0.8367998003959656,
				-0.10054483264684677
			],
			"type":"VEC3"
		},
		{
			"bufferView":13,
			"componentType":5126,
			"count":1461,
			"type":"VEC3"
		},
		{
			"bufferView":14,
			"componentType":5126,
			"count":1461,
			"type":"VEC2"
		},
		{
			"bufferView":15,
			"componentType":5121,
			"count":1461,
			"type":"VEC4"
		},
		{
			"bufferView":16,
			"componentType":5126,
			"count":1461,
			"type":"VEC4"
		},
		{
			"bufferView":17,
			"componentType":5123,
			"count":6648,
			"type":"SCALAR"
		},
		{
			"bufferView":18,
			"componentType":5126,
			"count":65,
			"max":[
				0.1283896267414093,
				0.9287219047546387,
				0.10245631635189056
			],
			"min":[
				-0.1283896267414093,
				0.788680374622345,
				-0.10366411507129669
			],
			"type":"VEC3"
		},
		{
			"bufferView":19,
			"componentType":5126,
			"count":65,
			"type":"VEC3"
		},
		{
			"bufferView":20,
			"componentType":5126,
			"count":65,
			"type":"VEC2"
		},
		{
			"bufferView":21,
			"componentType":5121,
			"count":65,
			"type":"VEC4"
		},
		{
			"bufferView":22,
			"componentType":5126,
			"count":65,
			"type":"VEC4"
		},
		{
			"bufferView":23,
			"componentType":5123,
			"count":192,
			"type":"SCALAR"
		},
		{
			"bufferView":24,
			"componentType":5126,
			"count":977,
			"max":[
				0.28975218534469604,
				0.8435682058334351,
				0.09975369274616241
			],
			"min":[
				-0.28975215554237366,
				0.2700546383857727,
				-0.10135448724031448
			],
			"type":"VEC3"
		},
		{
			"bufferView":25,
			"componentType":5126,
			"count":977,
			"type":"VEC3"
		},
		{
			"bufferView":26,
			"componentType":5126,
			"count":977,
			"type":"VEC2"
		},
		{
			"bufferView":27,
			"componentType":5121,
			"count":977,
			"type":"VEC4"
		},
		{
			"bufferView":28,
			"componentType":5126,
			"count":977,
			"type":"VEC4"
		},
		{
			"bufferView":29,
			"componentType":5123,
			"count":4332,
			"type":"SCALAR"
		},
		{
			"bufferView":30,
			"componentType":5126,
			"count":1034,
			"max":[
				0.14979928731918335,
				0.275802344083786,
				0.07152974605560303
			],
			"min":[
				-0.14979930222034454,
				0.006838057190179825,
				-0.12610869109630585
			],
			"type":"VEC3"
		},
		{
			"bufferView":31,
			"componentType":5126,
			"count":1034,
			"type":"VEC3"
		},
		{
			"bufferView":32,
			"componentType":5126,
			"count":1034,
			"type":"VEC2"
		},
		{
			"bufferView":33,
			"componentType":5121,
			"count":1034,
			"type":"VEC4"
		},
		{
			"bufferView":34,
			"componentType":5126,
			"count":1034,
			"type":"VEC4"
		},
		{
			"bufferView":35,
			"componentType":5123,
			"count":4608,
			"type":"SCALAR"
		},
		{
			"bufferView":36,
			"componentType":5126,
			"count":304,
			"max":[
				0.045899998396635056,
				1.5178499221801758,
				-0.06300000101327896
			],
			"min":[
				-0.045899998396635056,
				1.49714994430542,
				-0.07919999957084656
			],
			"type":"VEC3"
		},
		{
			"bufferView":37,
			"componentType":5126,
			"count":304,
			"type":"VEC3"
		},
		{
			"bufferView":38,
			"componentType":5126,
			"count":304,
			"type":"VEC2"
		},
		{
			"bufferView":39,
			"componentType":5121,
			"count":304,
			"type":"VEC4"
		},
		{
			"bufferView":40,
			"componentType":5126,
			"count":304,
			"type":"VEC4"
		},
		{
			"bufferView":41,
			"componentType":5123,
			"count":1152,
			"type":"SCALAR"
		},
		{
			"bufferView":42,
			"componentType":5126,
			"count":220,
			"max":[
				0.03914999961853027,
				1.516319990158081,
				-0.07309821993112564
			],
			"min":[
				-0.03914999961853027,
				1.4986799955368042,
				-0.08080177754163742
			],
			"type":"VEC3"
		},
		{
			"bufferView":43,
			"componentType":5126,
			"count":220,
			"type":"VEC3"
		},
		{
			"bufferView":44,
			"componentType":5126,
			"count":220,
			"type":"VEC2"
		},
		{
			"bufferView":45,
			"componentType":5121,
			"count":220,
			"type":"VEC4"
		},
		{
			"bufferView":46,
			"componentType":5126,
			"count":220,
			"type":"VEC4"
		},
		{
			"bufferView":47,
			"componentType":5123,
			"count":720,
			"type":"SCALAR"
		},
		{
			"bufferView":48,
			"componentType":5126,
			"count":160,
			"max":[
				0.03419499099254608,
				1.511549949645996,
				-0.07820809632539749
			],
			"min":[
				-0.03419499099254608,
				1.5034500360488892,
				-0.08163190633058548
			],
			"type":"VEC3"
		},
		{
			"bufferView":49,
			"componentType":5126,
			"count":160,
			"type":"VEC3"
		},
		{
			"bufferView":50,
			"componentType":5126,
			"count":160,
			"type":"VEC2"
		},
		{
			"bufferView":51,
			"componentType":5121,
			"count":160,
			"type":"VEC4"
		},
		{
			"bufferView":52,
			"componentType":5126,
			"count":160,
			"type":"VEC4"
		},
		{
			"bufferView":53,
			"componentType":5123,
			"count":480,
			"type":"SCALAR"
		},
		{
			"bufferView":54,
			"componentType":5126,
			"count":98,
			"max":[
				0.017099998891353607,
				1.4467499256134033,
				-0.0699482187628746
			],
			"min":[
				-0.017099998891353607,
				1.4386500120162964,
				-0.07765177637338638
			],
			"type":"VEC3"
		},
		{
			"bufferView":55,
			"componentType":5126,
			"count":98,
			"type":"VEC3"
		},
		{
			"bufferView":56,
			"componentType":5126,
			"count":98,
			"type":"VEC2"
		},
		{
			"bufferView":57,
			"componentType":5121,
			"count":98,
			"type":"VEC4"
		},
		{
			"bufferView":58,
			"componentType":5126,
			"count":98,
			"type":"VEC4"
		},
		{
			"bufferView":59,
			"componentType":5123,
			"count":360,
			"type":"SCALAR"
		},
		{
			"bufferView":60,
			"componentType":5126,
			"count":140,
			"max":[
				0.08730000257492065,
				1.6019998788833618,
				0.017999999225139618
			],
			"min":[
				0.0656999945640564,
				1.49399995803833,
				-0.07199999690055847
			],
			"type":"VEC3"
		},
		{
			"bufferView":61,
			"componentType":5126,
			"count":140,
			"type":"VEC3"
		},
		{
			"bufferView":62,
			"componentType":5126,
			"count":140,
			"type":"VEC2"
		},
		{
			"bufferView":63,
			"componentType":5121,
			"count":140,
			"type":"VEC4"
		},
		{
			"bufferView":64,
			"componentType":5126,
			"count":140,
			"type":"VEC4"
		},
		{
			"bufferView":65,
			"componentType":5123,
			"count":576,
			"type":"SCALAR"
		},
		{
			"bufferView":66,
			"componentType":5126,
			"count":162,
			"max":[
				0.24299369752407074,
				1.2869999408721924,
				0.17495998740196228
			],
			"min":[
				-0.24299369752407074,
				0.414000004529953,
				-0.16838590800762177
			],
			"type":"VEC3"
		},
		{
			"bufferView":67,
			"componentType":5126,
			"count":162,
			"type":"VEC3"
		},
		{
			"bufferView":68,
			"componentType":5126,
			"count":162,
			"type":"VEC2"
		},
		{
			"bufferView":69,
			"componentType":5121,
			"count":162,
			"type":"VEC4"
		},
		{
			"bufferView":70,
			"componentType":5126,
			"count":162,
			"type":"VEC4"
		},
		{
			"bufferView":71,
			"componentType":5123,
			"count":660,
			"type":"SCALAR"
		},
		{
			"bufferView":72,
			"componentType":5126,
			"count":42,
			"max":[
				0.07602538913488388,
				1.3679999113082886,
				0.06884999573230743
			],
			"min":[
				-0.07602538913488388,
				1.3140000104904175,
				-0.06199577823281288
			],
			"type":"VEC3"
		},
		{
			"bufferView":73,
			"componentType":5126,
			"count":42,
			"type":"VEC3"
		},
		{
			"bufferView":74,
			"componentType":5126,
			"count":42,
			"type":"VEC2"
		},
		{
			"bufferView":75,
			"componentType":5121,
			"count":42,
			"type":"VEC4"
		},
		{
			"bufferView":76,
			"componentType":5126,
			"count":42,
			"type":"VEC4"
		},
		{
			"bufferView":77,
			"componentType":5123,
			"count":96,
			"type":"SCALAR"
		},
		{
			"bufferView":78,
			"componentType":5126,
			"count":24,
			"max":[
				0.022499999031424522,
				0.8730000257492065,
				-0.08459999412298203
			],
			"min":[
				-0.022499999031424522,
				0.8370000123977661,
				-0.09539999812841415
			],
			"type":"VEC3"
		},
		{
			"bufferView":79,
			"componentType":5126,
			"count":24,
			"type":"VEC3"
		},
		{
			"bufferView":80,
			"componentType":5126,
			"count":24,
			"type":"VEC2"
		},
		{
			"bufferView":81,
			"componentType":5121,
			"count":24,
			"type":"VEC4"
		},
		{
			"bufferView":82,
			"componentType":5126,
			"count":24,
			"type":"VEC4"
		},
		{
			"bufferView":83,
			"componentType":5123,
			"count":36,
			"type":"SCALAR"
		},
		{
			"bufferView":84,
			"componentType":5126,
			"count":108,
			"max":[
				0.27612000703811646,
				0.7035853266716003,
				-0.08224909007549286
			],
			"min":[
				0.26531997323036194,
				0.34604284167289734,
				-0.7219255566596985
			],
			"type":"VEC3"
		},
		{
			"bufferView":85,
			"componentType":5126,
			"count":108,
			"type":"VEC3"
		},
		{
			"bufferView":86,
			"componentType":5126,
			"count":108,
			"type":"VEC2"
		},
		{
			"bufferView":87,
			"componentType":5121,
			"count":108,
			"type":"VEC4"
		},
		{
			"bufferView":88,
			"componentType":5126,
			"count":108,
			"type":"VEC4"
		},
		{
			"bufferView":89,
			"componentType":5123,
			"count":156,
			"type":"SCALAR"
		},
		{
			"bufferView":90,
			"componentType":5126,
			"count":42,
			"max":[
				0.2851199805736542,
				0.7700644135475159,
				0.06548219174146652
			],
			"min":[
				0.2563199996948242,
				0.6847085356712341,
				-0.07765301316976547
			],
			"type":"VEC3"
		},
		{
			"bufferView":91,
			"componentType":5126,
			"count":42,
			"type":"VEC3"
		},
		{
			"bufferView":92,
			"componentType":5126,
			"count":42,
			"type":"VEC2"
		},
		{
			"bufferView":93,
			"componentType":5121,
			"count":42,
			"type":"VEC4"
		},
		{
			"bufferView":94,
			"componentType":5126,
			"count":42,
			"type":"VEC4"
		},
		{
			"bufferView":95,
			"componentType":5123,
			"count":96,
			"type":"SCALAR"
		},
		{
			"bufferView":96,
			"componentType":5126,
			"count":74,
			"max":[
				0.3112199902534485,
				0.7291920781135559,
				-0.06025344505906105
			],
			"min":[
				0.2302200049161911,
				0.6591019034385681,
				-0.09964865446090698
			],
			"type":"VEC3"
		},
		{
			"bufferView":97,
			"componentType":5126,
			"count":74,
			"type":"VEC3"
		},
		{
			"bufferView":98,
			"componentType":5126,
			"count":74,
			"type":"VEC2"
		},
		{
			"bufferView":99,
			"componentType":5121,
			"count":74,
			"type":"VEC4"
		},
		{
			"bufferView":100,
			"componentType":5126,
			"count":74,
			"type":"VEC4"
		},
		{
			"bufferView":101,
			"componentType":5123,
			"count":144,
			"type":"SCALAR"
		},
		{
			"bufferView":102,
			"componentType":5126,
			"count":17,
			"type":"MAT4"
		},
		{
			"bufferView":103,
			"componentType":5126,
			"count":2,
			"max":[
				0.6
			],
			"min":[
				0
			],
			"type":"SCALAR"
		},
		{
			"bufferView":104,
			"componentType":5126,
			"count":2,
			"type":"VEC3"
		},
		{
			"bufferView":105,
			"componentType":5126,
			"count":2,
			"type":"VEC4"
		},
		{
			"bufferView":106,
			"componentType":5126,
			"count":2,
			"type":"VEC3"
		},
		{
			"bufferView":107,
			"componentType":5126,
			"count":2,
			"type":"VEC3"
		},
		{
			"bufferView":108,
			"componentType":5126,
			"count":2,
			"type":"VEC4"
		},
		{
			"bufferView":109,
			"componentType":5126,
			"count":2,
			"type":"VEC3"
		},
		{
			"bufferView":110,
			"componentType":5126,
			"count":2,
			"type":"VEC3"
		},
		{
			"bufferView":111,
			"componentType":5126,
			"count":19,
			"max":[
				0.6
			],
			"min":[
				0
			],
			"type":"SCALAR"
		},
		{
			"bufferView":112,
			"componentType":5126,
			"count":19,
			"type":"VEC4"
		},
		{
			"bufferView":113,
			"componentType":5126,
			"count":2,
			"type":"VEC3"
		},
		{
			"bufferView":114,
			"componentType":5126,
			"count":2,
			"type":"VEC3"
		},
		{
			"bufferView":115,
			"componentType":5126,
			"count":2,
			"type":"VEC4"
		},
		{
			"bufferView":116,
			"componentType":5126,
			"count":2,
			"type":"VEC3"
		},
		{
			"bufferView":117,
			"componentType":5126,
			"count":2,
			"type":"VEC3"
		},
		{
			"bufferView":118,
			"componentType":5126,
			"count":2,
			"type":"VEC4"
		},
		{
			"bufferView":119,
			"componentType":5126,
			"count":2,
			"type":"VEC3"
		},
		{
			"bufferView":120,
			"componentType":5126,
			"count":2,
			"type":"VEC3"
		},
		{
			"bufferView":121,
			"componentType":5126,
			"count":19,
			"type":"VEC4"
		},
		{
			"bufferView":122,
			"componentType":5126,
			"count":2,
			"type":"VEC3"
		},
		{
			"bufferView":123,
			"componentType":5126,
			"count":2,
			"type":"VEC3"
		},
		{
			"bufferView":124,
			"componentType":5126,
			"count":19,
			"type":"VEC4"
		},
		{
			"bufferView":125,
			"componentType":5126,
			"count":2,
			"type":"VEC3"
		},
		{
			"bufferView":126,
			"componentType":5126,
			"count":2,
			"type":"VEC3"
		},
		{
			"bufferView":127,
			"componentType":5126,
			"count":2,
			"type":"VEC4"
		},
		{
			"bufferView":128,
			"componentType":5126,
			"count":2,
			"type":"VEC3"
		},
		{
			"bufferView":129,
			"componentType":5126,
			"count":2,
			"type":"VEC3"
		},
		{
			"bufferView":130,
			"componentType":5126,
			"count":19,
			"type":"VEC4"
		},
		{
			"bufferView":131,
			"componentType":5126,
			"count":2,
			"type":"VEC3"
		},
		{
			"bufferView":132,
			"componentType":5126,
			"count":2,
			"type":"VEC3"
		},
		{
			"bufferView":133,
			"componentType":5126,
			"count":2,
			"type":"VEC4"
		},
		{
			"bufferView":134,
			"componentType":5126,
			"count":2,
			"type":"VEC3"
		},
		{
			"bufferView":135,
			"componentType":5126,
			"count":2,
			"type":"VEC3"
		},
		{
			"bufferView":136,
			"componentType":5126,
			"count":2,
			"type":"VEC4"
		},
		{
			"bufferView":137,
			"componentType":5126,
			"count":2,
			"type":"VEC3"
		},
		{
			"bufferView":138,
			"componentType":5126,
			"count":2,
			"type":"VEC3"
		},
		{
			"bufferView":139,
			"componentType":5126,
			"count":19,
			"type":"VEC4"
		},
		{
			"bufferView":140,
			"componentType":5126,
			"count":2,
			"type":"VEC3"
		},
		{
			"bufferView":141,
			"componentType":5126,
			"count":2,
			"type":"VEC3"
		},
		{
			"bufferView":142,
			"componentType":5126,
			"count":2,
			"type":"VEC4"
		},
		{
			"bufferView":143,
			"componentType":5126,
			"count":2,
			"type":"VEC3"
		},
		{
			"bufferView":144,
			"componentType":5126,
			"count":2,
			"type":"VEC3"
		},
		{
			"bufferView":145,
			"componentType":5126,
			"count":2,
			"type":"VEC4"
		},
		{
			"bufferView":146,
			"componentType":5126,
			"count":2,
			"type":"VEC3"
		},
		{
			"bufferView":147,
			"componentType":5126,
			"count":2,
			"type":"VEC3"
		},
		{
			"bufferView":148,
			"componentType":5126,
			"count":19,
			"type":"VEC4"
		},
		{
			"bufferView":149,
			"componentType":5126,
			"count":2,
			"type":"VEC3"
		},
		{
			"bufferView":150,
			"componentType":5126,
			"count":2,
			"type":"VEC3"
		},
		{
			"bufferView":151,
			"componentType":5126,
			"count":2,
			"type":"VEC4"
		},
		{
			"bufferView":152,
			"componentType":5126,
			"count":2,
			"type":"VEC3"
		},
		{
			"bufferView":153,
			"componentType":5126,
			"count":2,
			"type":"VEC3"
		},
		{
			"bufferView":154,
			"componentType":5126,
			"count":2,
			"type":"VEC4"
		},
		{
			"bufferView":155,
			"componentType":5126,
			"count":2,
			"type":"VEC3"
		},
		{
			"bufferView":156,
			"componentType":5126,
			"count":61,
			"max":[
				2
			],
			"min":[
				0
			],
			"type":"SCALAR"
		},
		{
			"bufferView":157,
			"componentType":5126,
			"count":61,
			"type":"VEC3"
		},
		{
			"bufferView":158,
			"componentType":5126,
			"count":2,
			"max":[
				2
			],
			"min":[
				0
			],
			"type":"SCALAR"
		},
		{
			"bufferView":159,
			"componentType":5126,
			"count":2,
			"type":"VEC4"
		},
		{
			"bufferView":160,
			"componentType":5126,
			"count":2,
			"type":"VEC3"
		},
		{
			"bufferView":161,
			"componentType":5126,
			"count":2,
			"type":"VEC3"
		},
		{
			"bufferView":162,
			"componentType":5126,
			"count":2,
			"type":"VEC4"
		},
		{
			"bufferView":163,
			"componentType":5126,
			"count":2,
			"type":"VEC3"
		},
		{
			"bufferView":164,
			"componentType":5126,
			"count":2,
			"type":"VEC3"
		},
		{
			"bufferView":165,
			"componentType":5126,
			"count":61,
			"type":"VEC4"
		},
		{
			"bufferView":166,
			"componentType":5126,
			"count":2,
			"type":"VEC3"
		},
		{
			"bufferView":167,
			"componentType":5126,
			"count":2,
			"type":"VEC3"
		},
		{
			"bufferView":168,
			"componentType":5126,
			"count":2,
			"type":"VEC4"
		},
		{
			"bufferView":169,
			"componentType":5126,
			"count":2,
			"type":"VEC3"
		},
		{
			"bufferView":170,
			"componentType":5126,
			"count":2,
			"type":"VEC3"
		},
		{
			"bufferView":171,
			"componentType":5126,
			"count":61,
			"type":"VEC4"
		},
		{
			"bufferView":172,
			"componentType":5126,
			"count":2,
			"type":"VEC3"
		},
		{
			"bufferView":173,
			"componentType":5126,
			"count":2,
			"type":"VEC3"
		},
		{
			"bufferView":174,
			"componentType":5126,
			"count":61,
			"type":"VEC4"
		},
		{
			"bufferView":175,
			"componentType":5126,
			"count":2,
			"type":"VEC3"
		},
		{
			"bufferView":176,
			"componentType":5126,
			"count":2,
			"type":"VEC3"
		},
		{
			"bufferView":177,
			"componentType":5126,
			"count":2,
			"type":"VEC4"
		},
		{
			"bufferView":178,
			"componentType":5126,
			"count":2,
			"type":"VEC3"
		},
		{
			"bufferView":179,
			"componentType":5126,
			"count":2,
			"type":"VEC3"
		},
		{
			"bufferView":180,
			"componentType":5126,
			"count":2,
			"type":"VEC4"
		},
		{
			"bufferView":181,
			"componentType":5126,
			"count":2,
			"type":"VEC3"
		},
		{
			"bufferView":182,
			"componentType":5126,
			"count":2,
			"type":"VEC3"
		},
		{
			"bufferView":183,
			"componentType":5126,
			"count":61,
			"type":"VEC4"
		},
		{
			"bufferView":184,
			"componentType":5126,
			"count":2,
			"type":"VEC3"
		},
		{
			"bufferView":185,
			"componentType":5126,
			"count":2,
			"type":"VEC3"
		},
		{
			"bufferView":186,
			"componentType":5126,
			"count":2,
			"type":"VEC4"
		},
		{
			"bufferView":187,
			"componentType":5126,
			"count":2,
			"type":"VEC3"
		},
		{
			"bufferView":188,
			"componentType":5126,
			"count":2,
			"type":"VEC3"
		},
		{
			"bufferView":189,
			"componentType":5126,
			"count":2,
			"type":"VEC4"
		},
		{
			"bufferView":190,
			"componentType":5126,
			"count":2,
			"type":"VEC3"
		},
		{
			"bufferView":191,
			"componentType":5126,
			"count":2,
			"type":"VEC3"
		},
		{
			"bufferView":192,
			"componentType":5126,
			"count":2,
			"type":"VEC4"
		},
		{
			"bufferView":193,
			"componentType":5126,
			"count":2,
			"type":"VEC3"
		},
		{
			"bufferView":194,
			"componentType":5126,
			"count":2,
			"type":"VEC3"
		},
		{
			"bufferView":195,
			"componentType":5126,
			"count":2,
			"type":"VEC4"
		},
		{
			"bufferView":196,
			"componentType":5126,
			"count":2,
			"type":"VEC3"
		},
		{
			"bufferView":197,
			"componentType":5126,
			"count":2,
			"type":"VEC3"
		},
		{
			"bufferView":198,
			"componentType":5126,
			"count":2,
			"type":"VEC4"
		},
		{
			"bufferView":199,
			"componentType":5126,
			"count":2,
			"type":"VEC3"
		},
		{
			"bufferView":200,
			"componentType":5126,
			"count":2,
			"type":"VEC3"
		},
		{
			"bufferView":201,
			"componentType":5126,
			"count":2,
			"type":"VEC4"
		},
		{
			"bufferView":202,
			"componentType":5126,
			"count":2,
			"type":"VEC3"
		},
		{
			"bufferView":203,
			"componentType":5126,
			"count":2,
			"type":"VEC3"
		},
		{
			"bufferView":204,
			"componentType":5126,
			"count":2,
			"type":"VEC4"
		},
		{
			"bufferView":205,
			"componentType":5126,
			"count":2,
			"type":"VEC3"
		},
		{
			"bufferView":206,
			"componentType":5126,
			"count":2,
			"type":"VEC3"
		},
		{
			"bufferView":207,
			"componentType":5126,
			"count":2,
			"type":"VEC4"
		},
		{
			"bufferView":208,
			"componentType":5126,
			"count":2,
			"type":"VEC3"
		},
		{
			"bufferView":209,
			"componentType":5126,
			"count":31,
			"max":[
				1
			],
			"min":[
				0
			],
			"type":"SCALAR"
		},
		{
			"bufferView":210,
			"componentType":5126,
			"count":31,
			"type":"VEC3"
		},
		{
			"bufferView":211,
			"componentType":5126,
			"count":31,
			"type":"VEC4"
		},
		{
			"bufferView":212,
			"componentType":5126,
			"count":2,
			"max":[
				1
			],
			"min":[
				0
			],
			"type":"SCALAR"
		},
		{
			"bufferView":213,
			"componentType":5126,
			"count":2,
			"type":"VEC3"
		},
		{
			"bufferView":214,
			"componentType":5126,
			"count":2,
			"type":"VEC3"
		},
		{
			"bufferView":215,
			"componentType":5126,
			"count":2,
			"type":"VEC4"
		},
		{
			"bufferView":216,
			"componentType":5126,
			"count":2,
			"type":"VEC3"
		},
		{
			"bufferView":217,
			"componentType":5126,
			"count":2,
			"type":"VEC3"
		},
		{
			"bufferView":218,
			"componentType":5126,
			"count":31,
			"type":"VEC4"
		},
		{
			"bufferView":219,
			"componentType":5126,
			"count":2,
			"type":"VEC3"
		},
		{
			"bufferView":220,
			"componentType":5126,
			"count":2,
			"type":"VEC3"
		},
		{
			"bufferView":221,
			"componentType":5126,
			"count":2,
			"type":"VEC4"
		},
		{
			"bufferView":222,
			"componentType":5126,
			"count":2,
			"type":"VEC3"
		},
		{
			"bufferView":223,
			"componentType":5126,
			"count":2,
			"type":"VEC3"
		},
		{
			"bufferView":224,
			"componentType":5126,
			"count":2,
			"type":"VEC4"
		},
		{
			"bufferView":225,
			"componentType":5126,
			"count":2,
			"type":"VEC3"
		},
		{
			"bufferView":226,
			"componentType":5126,
			"count":2,
			"type":"VEC3"
		},
		{
			"bufferView":227,
			"componentType":5126,
			"count":31,
			"type":"VEC4"
		},
		{
			"bufferView":228,
			"componentType":5126,
			"count":2,
			"type":"VEC3"
		},
		{
			"bufferView":229,
			"componentType":5126,
			"count":2,
			"type":"VEC3"
		},
		{
			"bufferView":230,
			"componentType":5126,
			"count":2,
			"type":"VEC4"
		},
		{
			"bufferView":231,
			"componentType":5126,
			"count":2,
			"type":"VEC3"
		},
		{
			"bufferView":232,
			"componentType":5126,
			"count":2,
			"type":"VEC3"
		},
		{
			"bufferView":233,
			"componentType":5126,
			"count":2,
			"type":"VEC4"
		},
		{
			"bufferView":234,
			"componentType":5126,
			"count":2,
			"type":"VEC3"
		},
		{
			"bufferView":235,
			"componentType":5126,
			"count":2,
			"type":"VEC3"
		},
		{
			"bufferView":236,
			"componentType":5126,
			"count":31,
			"type":"VEC4"
		},
		{
			"bufferView":237,
			"componentType":5126,
			"count":2,
			"type":"VEC3"
		},
		{
			"bufferView":238,
			"componentType":5126,
			"count":2,
			"type":"VEC3"
		},
		{
			"bufferView":239,
			"componentType":5126,
			"count":2,
			"type":"VEC4"
		},
		{
			"bufferView":240,
			"componentType":5126,
			"count":2,
			"type":"VEC3"
		},
		{
			"bufferView":241,
			"componentType":5126,
			"count":2,
			"type":"VEC3"
		},
		{
			"bufferView":242,
			"componentType":5126,
			"count":2,
			"type":"VEC4"
		},
		{
			"bufferView":243,
			"componentType":5126,
			"count":2,
			"type":"VEC3"
		},
		{
			"bufferView":244,
			"componentType":5126,
			"count":2,
			"type":"VEC3"
		},
		{
			"bufferView":245,
			"componentType":5126,
			"count":31,
			"type":"VEC4"
		},
		{
			"bufferView":246,
			"componentType":5126,
			"count":2,
			"type":"VEC3"
		},
		{
			"bufferView":247,
			"componentType":5126,
			"count":2,
			"type":"VEC3"
		},
		{
			"bufferView":248,
			"componentType":5126,
			"count":31,
			"type":"VEC4"
		},
		{
			"bufferView":249,
			"componentType":5126,
			"count":2,
			"type":"VEC3"
		},
		{
			"bufferView":250,
			"componentType":5126,
			"count":2,
			"type":"VEC3"
		},
		{
			"bufferView":251,
			"componentType":5126,
			"count":31,
			"type":"VEC4"
		},
		{
			"bufferView":252,
			"componentType":5126,
			"count":2,
			"type":"VEC3"
		},
		{
			"bufferView":253,
			"componentType":5126,
			"count":2,
			"type":"VEC3"
		},
		{
			"bufferView":254,
			"componentType":5126,
			"count":31,
			"type":"VEC4"
		},
		{
			"bufferView":255,
			"componentType":5126,
			"count":2,
			"type":"VEC3"
		},
		{
			"bufferView":256,
			"componentType":5126,
			"count":2,
			"type":"VEC3"
		},
		{
			"bufferView":257,
			"componentType":5126,
			"count":31,
			"type":"VEC4"
		},
		{
			"bufferView":258,
			"componentType":5126,
			"count":2,
			"type":"VEC3"
		},
		{
			"bufferView":259,
			"componentType":5126,
			"count":2,
			"type":"VEC3"
		},
		{
			"bufferView":260,
			"componentType":5126,
			"count":31,
			"type":"VEC4"
		},
		{
			"bufferView":261,
			"componentType":5126,
			"count":2,
			"type":"VEC3"
		}
	],
	"bufferViews":[
		{
			"buffer":0,
			"byteLength":17244,
			"byteOffset":0,
			"target":34962
		},
		{
			"buffer":0,
			"byteLength":17244,
			"byteOffset":17244,
			"target":34962
		},
		{
			"buffer":0,
			"byteLength":11496,
			"byteOffset":34488,
			"target":34962
		},
		{
			"buffer":0,
			"byteLength":5748,
			"byteOffset":45984,
			"target":34962
		},
		{
			"buffer":0,
			"byteLength":22992,
			"byteOffset":51732,
			"target":34962
		},
		{
			"buffer":0,
			"byteLength":11736,
			"byteOffset":74724,
			"target":34963
		},
		{
			"buffer":0,
			"byteLength":35052,
			"byteOffset":86460,
			"target":34962
		},
		{
			"buffer":0,
			"byteLength":35052,
			"byteOffset":121512,
			"target":34962
		},
		{
			"buffer":0,
			"byteLength":23368,
			"byteOffset":156564,
			"target":34962
		},
		{
			"buffer":0,
			"byteLength":11684,
			"byteOffset":179932,
			"target":34962
		},
		{
			"buffer":0,
			"byteLength":46736,
			"byteOffset":191616,
			"target":34962
		},
		{
			"buffer":0,
			"byteLength":20496,
			"byteOffset":238352,
			"target":34963
		},
		{
			"buffer":0,
			"byteLength":17532,
			"byteOffset":258848,
			"target":34962
		},
		{
			"buffer":0,
			"byteLength":17532,
			"byteOffset":276380,
			"target":34962
		},
		{
			"buffer":0,
			"byteLength":11688,
			"byteOffset":293912,
			"target":34962
		},
		{
			"buffer":0,
			"byteLength":5844,
			"byteOffset":305600,
			"target":34962
		},
		{
			"buffer":0,
			"byteLength":23376,
			"byteOffset":311444,
			"target":34962
		},
		{
			"buffer":0,
			"byteLength":13296,
			"byteOffset":334820,
			"target":34963
		},
		{
			"buffer":0,
			"byteLength":780,
			"byteOffset":348116,
			"target":34962
		},
		{
			"buffer":0,
			"byteLength":780,
			"byteOffset":348896,
			"target":34962
		},
		{
			"buffer":0,
			"byteLength":520,
			"byteOffset":349676,
			"target":34962
		},
		{
			"buffer":0,
			"byteLength":260,
			"byteOffset":350196,
			"target":34962
		},
		{
			"buffer":0,
			"byteLength":1040,
			"byteOffset":350456,
			"target":34962
		},
		{
			"buffer":0,
			"byteLength":384,
			"byteOffset":351496,
			"target":34963
		},
		{
			"buffer":0,
			"byteLength":11724,
			"byteOffset":351880,
			"target":34962
		},
		{
			"buffer":0,
			"byteLength":11724,
			"byteOffset":363604,
			"target":34962
		},
		{
			"buffer":0,
			"byteLength":7816,
			"byteOffset":375328,
			"target":34962
		},
		{
			"buffer":0,
			"byteLength":3908,
			"byteOffset":383144,
			"target":34962
		},
		{
			"buffer":0,
			"byteLength":15632,
			"byteOffset":387052,
			"target":34962
		},
		{
			"buffer":0,
			"byteLength":8664,
			"byteOffset":402684,
			"target":34963
		},
		{
			"buffer":0,
			"byteLength":12408,
			"byteOffset":411348,
			"target":34962
		},
		{
			"buffer":0,
			"byteLength":12408,
			"byteOffset":423756,
			"target":34962
		},
		{
			"buffer":0,
			"byteLength":8272,
			"byteOffset":436164,
			"target":34962
		},
		{
			"buffer":0,
			"byteLength":4136,
			"byteOffset":444436,
			"target":34962
		},
		{
			"buffer":0,
			"byteLength":16544,
			"byteOffset":448572,
			"target":34962
		},
		{
			"buffer":0,
			"byteLength":9216,
			"byteOffset":465116,
			"target":34963
		},
		{
			"buffer":0,
			"byteLength":3648,
			"byteOffset":474332,
			"target":34962
		},
		{
			"buffer":0,
			"byteLength":3648,
			"byteOffset":477980,
			"target":34962
		},
		{
			"buffer":0,
			"byteLength":2432,
			"byteOffset":481628,
			"target":34962
		},
		{
			"buffer":0,
			"byteLength":1216,
			"byteOffset":484060,
			"target":34962
		},
		{
			"buffer":0,
			"byteLength":4864,
			"byteOffset":485276,
			"target":34962
		},
		{
			"buffer":0,
			"byteLength":2304,
			"byteOffset":490140,
			"target":34963
		},
		{
			"buffer":0,
			"byteLength":2640,
			"byteOffset":492444,
			"target":34962
		},
		{
			"buffer":0,
			"byteLength":2640,
			"byteOffset":495084,
			"target":34962
		},
		{
			"buffer":0,
			"byteLength":1760,
			"byteOffset":497724,
			"target":34962
		},
		{
			"buffer":0,
			"byteLength":880,
			"byteOffset":499484,
			"target":34962
		},
		{
			"buffer":0,
			"byteLength":3520,
			"byteOffset":500364,
			"target":34962
		},
		{
			"buffer":0,
			"byteLength":1440,
			"byteOffset":503884,
			"target":34963
		},
		{
			"buffer":0,
			"byteLength":1920,
			"byteOffset":505324,
			"target":34962
		},
		{
			"buffer":0,
			"byteLength":1920,
			"byteOffset":507244,
			"target":34962
		},
		{
			"buffer":0,
			"byteLength":1280,
			"byteOffset":509164,
			"target":34962
		},
		{
			"buffer":0,
			"byteLength":640,
			"byteOffset":510444,
			"target":34962
		},
		{
			"buffer":0,
			"byteLength":2560,
			"byteOffset":511084,
			"target":34962
		},
		{
			"buffer":0,
			"byteLength":960,
			"byteOffset":513644,
			"target":34963
		},
		{
			"buffer":0,
			"byteLength":1176,
			"byteOffset":514604,
			"target":34962
		},
		{
			"buffer":0,
			"byteLength":1176,
			"byteOffset":515780,
			"target":34962
		},
		{
			"buffer":0,
			"byteLength":784,
			"byteOffset":516956,
			"target":34962
		},
		{
			"buffer":0,
			"byteLength":392,
			"byteOffset":517740,
			"target":34962
		},
		{
			"buffer":0,
			"byteLength":1568,
			"byteOffset":518132,
			"target":34962
		},
		{
			"buffer":0,
			"byteLength":720,
			"byteOffset":519700,
			"target":34963
		},
		{
			"buffer":0,
			"byteLength":1680,
			"byteOffset":520420,
			"target":34962
		},
		{
			"buffer":0,
			"byteLength":1680,
			"byteOffset":522100,
			"target":34962
		},
		{
			"buffer":0,
			"byteLength":1120,
			"byteOffset":523780,
			"target":34962
		},
		{
			"buffer":0,
			"byteLength":560,
			"byteOffset":524900,
			"target":34962
		},
		{
			"buffer":0,
			"byteLength":2240,
			"byteOffset":525460,
			"target":34962
		},
		{
			"buffer":0,
			"byteLength":1152,
			"byteOffset":527700,
			"target":34963
		},
		{
			"buffer":0,
			"byteLength":1944,
			"byteOffset":528852,
			"target":34962
		},
		{
			"buffer":0,
			"byteLength":1944,
			"byteOffset":530796,
			"target":34962
		},
		{
			"buffer":0,
			"byteLength":1296,
			"byteOffset":532740,
			"target":34962
		},
		{
			"buffer":0,
			"byteLength":648,
			"byteOffset":534036,
			"target":34962
		},
		{
			"buffer":0,
			"byteLength":2592,
			"byteOffset":534684,
			"target":34962
		},
		{
			"buffer":0,
			"byteLength":1320,
			"byteOffset":537276,
			"target":34963
		},
		{
			"buffer":0,
			"byteLength":504,
			"byteOffset":538596,
			"target":34962
		},
		{
			"buffer":0,
			"byteLength":504,
			"byteOffset":539100,
			"target":34962
		},
		{
			"buffer":0,
			"byteLength":336,
			"byteOffset":539604,
			"target":34962
		},
		{
			"buffer":0,
			"byteLength":168,
			"byteOffset":539940,
			"target":34962
		},
		{
			"buffer":0,
			"byteLength":672,
			"byteOffset":540108,
			"target":34962
		},
		{
			"buffer":0,
			"byteLength":192,
			"byteOffset":540780,
			"target":34963
		},
		{
			"buffer":0,
			"byteLength":288,
			"byteOffset":540972,
			"target":34962
		},
		{
			"buffer":0,
			"byteLength":288,
			"byteOffset":541260,
			"target":34962
		},
		{
			"buffer":0,
			"byteLength":192,
			"byteOffset":541548,
			"target":34962
		},
		{
			"buffer":0,
			"byteLength":96,
			"byteOffset":541740,
			"target":34962
		},
		{
			"buffer":0,
			"byteLength":384,
			"byteOffset":541836,
			"target":34962
		},
		{
			"buffer":0,
			"byteLength":72,
			"byteOffset":542220,
			"target":34963
		},
		{
			"buffer":0,
			"byteLength":1296,
			"byteOffset":542292,
			"target":34962
		},
		{
			"buffer":0,
			"byteLength":1296,
			"byteOffset":543588,
			"target":34962
		},
		{
			"buffer":0,
			"byteLength":864,
			"byteOffset":544884,
			"target":34962
		},
		{
			"buffer":0,
			"byteLength":432,
			"byteOffset":545748,
			"target":34962
		},
		{
			"buffer":0,
			"byteLength":1728,
			"byteOffset":546180,
			"target":34962
		},
		{
			"buffer":0,
			"byteLength":312,
			"byteOffset":547908,
			"target":34963
		},
		{
			"buffer":0,
			"byteLength":504,
			"byteOffset":548220,
			"target":34962
		},
		{
			"buffer":0,
			"byteLength":504,
			"byteOffset":548724,
			"target":34962
		},
		{
			"buffer":0,
			"byteLength":336,
			"byteOffset":549228,
			"target":34962
		},
		{
			"buffer":0,
			"byteLength":168,
			"byteOffset":549564,
			"target":34962
		},
		{
			"buffer":0,
			"byteLength":672,
			"byteOffset":549732,
			"target":34962
		},
		{
			"buffer":0,
			"byteLength":192,
			"byteOffset":550404,
			"target":34963
		},
		{
			"buffer":0,
			"byteLength":888,
			"byteOffset":550596,
			"target":34962
		},
		{
			"buffer":0,
			"byteLength":888,
			"byteOffset":551484,
			"target":34962
		},
		{
			"buffer":0,
			"byteLength":592,
			"byteOffset":552372,
			"target":34962
		},
		{
			"buffer":0,
			"byteLength":296,
			"byteOffset":552964,
			"target":34962
		},
		{
			"buffer":0,
			"byteLength":1184,
			"byteOffset":553260,
			"target":34962
		},
		{
			"buffer":0,
			"byteLength":288,
			"byteOffset":554444,
			"target":34963
		},
		{
			"buffer":0,
			"byteLength":1088,
			"byteOffset":554732
		},
		{
			"buffer":0,
			"byteLength":8,
			"byteOffset":555820
		},
		{
			"buffer":0,
			"byteLength":24,
			"byteOffset":555828
		},
		{
			"buffer":0,
			"byteLength":32,
			"byteOffset":555852
		},
		{
			"buffer":0,
			"byteLength":24,
			"byteOffset":555884
		},
		{
			"buffer":0,
			"byteLength":24,
			"byteOffset":555908
		},
		{
			"buffer":0,
			"byteLength":32,
			"byteOffset":555932
		},
		{
			"buffer":0,
			"byteLength":24,
			"byteOffset":555964
		},
		{
			"buffer":0,
			"byteLength":24,
			"byteOffset":555988
		},
		{
			"buffer":0,
			"byteLength":76,
			"byteOffset":556012
		},
		{
			"buffer":0,
			"byteLength":304,
			"byteOffset":556088
		},
		{
			"buffer":0,
			"byteLength":24,
			"byteOffset":556392
		},
		{
			"buffer":0,
			"byteLength":24,
			"byteOffset":556416
		},
		{
			"buffer":0,
			"byteLength":32,
			"byteOffset":556440
		},
		{
			"buffer":0,
			"byteLength":24,
			"byteOffset":556472
		},
		{
			"buffer":0,
			"byteLength":24,
			"byteOffset":556496
		},
		{
			"buffer":0,
			"byteLength":32,
			"byteOffset":556520
		},
		{
			"buffer":0,
			"byteLength":24,
			"byteOffset":556552
		},
		{
			"buffer":0,
			"byteLength":24,
			"byteOffset":556576
		},
		{
			"buffer":0,
			"byteLength":304,
			"byteOffset":556600
		},
		{
			"buffer":0,
			"byteLength":24,
			"byteOffset":556904
		},
		{
			"buffer":0,
			"byteLength":24,
			"byteOffset":556928
		},
		{
			"buffer":0,
			"byteLength":304,
			"byteOffset":556952
		},
		{
			"buffer":0,
			"byteLength":24,
			"byteOffset":557256
		},
		{
			"buffer":0,
			"byteLength":24,
			"byteOffset":557280
		},
		{
			"buffer":0,
			"byteLength":32,
			"byteOffset":557304
		},
		{
			"buffer":0,
			"byteLength":24,
			"byteOffset":557336
		},
		{
			"buffer":0,
			"byteLength":24,
			"byteOffset":557360
		},
		{
			"buffer":0,
			"byteLength":304,
			"byteOffset":557384
		},
		{
			"buffer":0,
			"byteLength":24,
			"byteOffset":557688
		},
		{
			"buffer":0,
			"byteLength":24,
			"byteOffset":557712
		},
		{
			"buffer":0,
			"byteLength":32,
			"byteOffset":557736
		},
		{
			"buffer":0,
			"byteLength":24,
			"byteOffset":557768
		},
		{
			"buffer":0,
			"byteLength":24,
			"byteOffset":557792
		},
		{
			"buffer":0,
			"byteLength":32,
			"byteOffset":557816
		},
		{
			"buffer":0,
			"byteLength":24,
			"byteOffset":557848
		},
		{
			"buffer":0,
			"byteLength":24,
			"byteOffset":557872
		},
		{
			"buffer":0,
			"byteLength":304,
			"byteOffset":557896
		},
		{
			"buffer":0,
			"byteLength":24,
			"byteOffset":558200
		},
		{
			"buffer":0,
			"byteLength":24,
			"byteOffset":558224
		},
		{
			"buffer":0,
			"byteLength":32,
			"byteOffset":558248
		},
		{
			"buffer":0,
			"byteLength":24,
			"byteOffset":558280
		},
		{
			"buffer":0,
			"byteLength":24,
			"byteOffset":558304
		},
		{
			"buffer":0,
			"byteLength":32,
			"byteOffset":558328
		},
		{
			"buffer":0,
			"byteLength":24,
			"byteOffset":558360
		},
		{
			"buffer":0,
			"byteLength":24,
			"byteOffset":558384
		},
		{
			"buffer":0,
			"byteLength":304,
			"byteOffset":558408
		},
		{
			"buffer":0,
			"byteLength":24,
			"byteOffset":558712
		},
		{
			"buffer":0,
			"byteLength":24,
			"byteOffset":558736
		},
		{
			"buffer":0,
			"byteLength":32,
			"byteOffset":558760
		},
		{
			"buffer":0,
			"byteLength":24,
			"byteOffset":558792
		},
		{
			"buffer":0,
			"byteLength":24,
			"byteOffset":558816
		},
		{
			"buffer":0,
			"byteLength":32,
			"byteOffset":558840
		},
		{
			"buffer":0,
			"byteLength":24,
			"byteOffset":558872
		},
		{
			"buffer":0,
			"byteLength":244,
			"byteOffset":558896
		},
		{
			"buffer":0,
			"byteLength":732,
			"byteOffset":559140
		},
		{
			"buffer":0,
			"byteLength":8,
			"byteOffset":559872
		},
		{
			"buffer":0,
			"byteLength":32,
			"byteOffset":559880
		},
		{
			"buffer":0,
			"byteLength":24,
			"byteOffset":559912
		},
		{
			"buffer":0,
			"byteLength":24,
			"byteOffset":559936
		},
		{
			"buffer":0,
			"byteLength":32,
			"byteOffset":559960
		},
		{
			"buffer":0,
			"byteLength":24,
			"byteOffset":559992
		},
		{
			"buffer":0,
			"byteLength":24,
			"byteOffset":560016
		},
		{
			"buffer":0,
			"byteLength":976,
			"byteOffset":560040
		},
		{
			"buffer":0,
			"byteLength":24,
			"byteOffset":561016
		},
		{
			"buffer":0,
			"byteLength":24,
			"byteOffset":561040
		},
		{
			"buffer":0,
			"byteLength":32,
			"byteOffset":561064
		},
		{
			"buffer":0,
			"byteLength":24,
			"byteOffset":561096
		},
		{
			"buffer":0,
			"byteLength":24,
			"byteOffset":561120
		},
		{
			"buffer":0,
			"byteLength":976,
			"byteOffset":561144
		},
		{
			"buffer":0,
			"byteLength":24,
			"byteOffset":562120
		},
		{
			"buffer":0,
			"byteLength":24,
			"byteOffset":562144
		},
		{
			"buffer":0,
			"byteLength":976,
			"byteOffset":562168
		},
		{
			"buffer":0,
			"byteLength":24,
			"byteOffset":563144
		},
		{
			"buffer":0,
			"byteLength":24,
			"byteOffset":563168
		},
		{
			"buffer":0,
			"byteLength":32,
			"byteOffset":563192
		},
		{
			"buffer":0,
			"byteLength":24,
			"byteOffset":563224
		},
		{
			"buffer":0,
			"byteLength":24,
			"byteOffset":563248
		},
		{
			"buffer":0,
			"byteLength":32,
			"byteOffset":563272
		},
		{
			"buffer":0,
			"byteLength":24,
			"byteOffset":563304
		},
		{
			"buffer":0,
			"byteLength":24,
			"byteOffset":563328
		},
		{
			"buffer":0,
			"byteLength":976,
			"byteOffset":563352
		},
		{
			"buffer":0,
			"byteLength":24,
			"byteOffset":564328
		},
		{
			"buffer":0,
			"byteLength":24,
			"byteOffset":564352
		},
		{
			"buffer":0,
			"byteLength":32,
			"byteOffset":564376
		},
		{
			"buffer":0,
			"byteLength":24,
			"byteOffset":564408
		},
		{
			"buffer":0,
			"byteLength":24,
			"byteOffset":564432
		},
		{
			"buffer":0,
			"byteLength":32,
			"byteOffset":564456
		},
		{
			"buffer":0,
			"byteLength":24,
			"byteOffset":564488
		},
		{
			"buffer":0,
			"byteLength":24,
			"byteOffset":564512
		},
		{
			"buffer":0,
			"byteLength":32,
			"byteOffset":564536
		},
		{
			"buffer":0,
			"byteLength":24,
			"byteOffset":564568
		},
		{
			"buffer":0,
			"byteLength":24,
			"byteOffset":564592
		},
		{
			"buffer":0,
			"byteLength":32,
			"byteOffset":564616
		},
		{
			"buffer":0,
			"byteLength":24,
			"byteOffset":564648
		},
		{
			"buffer":0,
			"byteLength":24,
			"byteOffset":564672
		},
		{
			"buffer":0,
			"byteLength":32,
			"byteOffset":564696
		},
		{
			"buffer":0,
			"byteLength":24,
			"byteOffset":564728
		},
		{
			"buffer":0,
			"byteLength":24,
			"byteOffset":564752
		},
		{
			"buffer":0,
			"byteLength":32,
			"byteOffset":564776
		},
		{
			"buffer":0,
			"byteLength":24,
			"byteOffset":564808
		},
		{
			"buffer":0,
			"byteLength":24,
			"byteOffset":564832
		},
		{
			"buffer":0,
			"byteLength":32,
			"byteOffset":564856
		},
		{
			"buffer":0,
			"byteLength":24,
			"byteOffset":564888
		},
		{
			"buffer":0,
			"byteLength":24,
			"byteOffset":564912
		},
		{
			"buffer":0,
			"byteLength":32,
			"byteOffset":564936
		},
		{
			"buffer":0,
			"byteLength":24,
			"byteOffset":564968
		},
		{
			"buffer":0,
			"byteLength":124,
			"byteOffset":564992
		},
		{
			"buffer":0,
			"byteLength":372,
			"byteOffset":565116
		},
		{
			"buffer":0,
			"byteLength":496,
			"byteOffset":565488
		},
		{
			"buffer":0,
			"byteLength":8,
			"byteOffset":565984
		},
		{
			"buffer":0,
			"byteLength":24,
			"byteOffset":565992
		},
		{
			"buffer":0,
			"byteLength":24,
			"byteOffset":566016
		},
		{
			"buffer":0,
			"byteLength":32,
			"byteOffset":566040
		},
		{
			"buffer":0,
			"byteLength":24,
			"byteOffset":566072
		},
		{
			"buffer":0,
			"byteLength":24,
			"byteOffset":566096
		},
		{
			"buffer":0,
			"byteLength":496,
			"byteOffset":566120
		},
		{
			"buffer":0,
			"byteLength":24,
			"byteOffset":566616
		},
		{
			"buffer":0,
			"byteLength":24,
			"byteOffset":566640
		},
		{
			"buffer":0,
			"byteLength":32,
			"byteOffset":566664
		},
		{
			"buffer":0,
			"byteLength":24,
			"byteOffset":566696
		},
		{
			"buffer":0,
			"byteLength":24,
			"byteOffset":566720
		},
		{
			"buffer":0,
			"byteLength":32,
			"byteOffset":566744
		},
		{
			"buffer":0,
			"byteLength":24,
			"byteOffset":566776
		},
		{
			"buffer":0,
			"byteLength":24,
			"byteOffset":566800
		},
		{
			"buffer":0,
			"byteLength":496,
			"byteOffset":566824
		},
		{
			"buffer":0,
			"byteLength":24,
			"byteOffset":567320
		},
		{
			"buffer":0,
			"byteLength":24,
			"byteOffset":567344
		},
		{
			"buffer":0,
			"byteLength":32,
			"byteOffset":567368
		},
		{
			"buffer":0,
			"byteLength":24,
			"byteOffset":567400
		},
		{
			"buffer":0,
			"byteLength":24,
			"byteOffset":567424
		},
		{
			"buffer":0,
			"byteLength":32,
			"byteOffset":567448
		},
		{
			"buffer":0,
			"byteLength":24,
			"byteOffset":567480
		},
		{
			"buffer":0,
			"byteLength":24,
			"byteOffset":567504
		},
		{
			"buffer":0,
			"byteLength":496,
			"byteOffset":567528
		},
		{
			"buffer":0,
			"byteLength":24,
			"byteOffset":568024
		},
		{
			"buffer":0,
			"byteLength":24,
			"byteOffset":568048
		},
		{
			"buffer":0,
			"byteLength":32,
			"byteOffset":568072
		},
		{
			"buffer":0,
			"byteLength":24,
			"byteOffset":568104
		},
		{
			"buffer":0,
			"byteLength":24,
			"byteOffset":568128
		},
		{
			"buffer":0,
			"byteLength":32,
			"byteOffset":568152
		},
		{
			"buffer":0,
			"byteLength":24,
			"byteOffset":568184
		},
		{
			"buffer":0,
			"byteLength":24,
			"byteOffset":568208
		},
		{
			"buffer":0,
			"byteLength":496,
			"byteOffset":568232
		},
		{
			"buffer":0,
			"byteLength":24,
			"byteOffset":568728
		},
		{
			"buffer":0,
			"byteLength":24,
			"byteOffset":568752
		},
		{
			"buffer":0,
			"byteLength":496,
			"byteOffset":568776
		},
		{
			"buffer":0,
			"byteLength":24,
			"byteOffset":569272
		},
		{
			"buffer":0,
			"byteLength":24,
			"byteOffset":569296
		},
		{
			"buffer":0,
			"byteLength":496,
			"byteOffset":569320
		},
		{
			"buffer":0,
			"byteLength":24,
			"byteOffset":569816
		},
		{
			"buffer":0,
			"byteLength":24,
			"byteOffset":569840
		},
		{
			"buffer":0,
			"byteLength":496,
			"byteOffset":569864
		},
		{
			"buffer":0,
			"byteLength":24,
			"byteOffset":570360
		},
		{
			"buffer":0,
			"byteLength":24,
			"byteOffset":570384
		},
		{
			"buffer":0,
			"byteLength":496,
			"byteOffset":570408
		},
		{
			"buffer":0,
			"byteLength":24,
			"byteOffset":570904
		},
		{
			"buffer":0,
			"byteLength":24,
			"byteOffset":570928
		},
		{
			"buffer":0,
			"byteLength":496,
			"byteOffset":570952
		},
		{
			"buffer":0,
			"byteLength":24,
			"byteOffset":571448
		}
	],
	"samplers":[
		{
			"magFilter":9729,
			"minFilter":9987
		}
	],
	"buffers":[
		{
			"byteLength":571472,
			"uri":"rimuru_human.bin"
		}
	]
}
