{
	"asset":{
		"generator":"Khronos glTF Blender I/O v4.2.57",
		"version":"2.0"
	},
	"extensionsUsed":[
		"KHR_materials_clearcoat",
		"KHR_materials_emissive_strength"
	],
	"scene":0,
	"scenes":[
		{
			"name":"Scene",
			"nodes":[
				9
			]
		}
	],
	"nodes":[
		{
			"name":"seg6",
			"rotation":[
				0.10182785987854004,
				0.38782110810279846,
				0.03647244721651077,
				0.9153664112091064
			],
			"scale":[
				1,
				1.0000001192092896,
				1
			],
			"translation":[
				-1.4901161193847656e-08,
				0.9588010907173157,
				-4.470348358154297e-08
			]
		},
		{
			"children":[
				0
			],
			"name":"seg5",
			"rotation":[
				0.055943626910448074,
				-0.9845364093780518,
				0.09057287871837616,
				0.13912224769592285
			],
			"scale":[
				0.9999999403953552,
				0.9999997019767761,
				0.9999998807907104
			],
			"translation":[
				-5.960464477539063e-08,
				0.9684169888496399,
				5.21540641784668e-08
			]
		},
		{
			"children":[
				1
			],
			"name":"seg4",
			"rotation":[
				-0.009058748371899128,
				0.08237199485301971,
				0.0032999084796756506,
				0.9965550303459167
			],
			"scale":[
				0.9999998807907104,
				0.9999999403953552,
				0.9999999403953552
			],
			"translation":[
				-1.1175870895385742e-07,
				0.9705836772918701,
				-2.2351741790771484e-08
			]
		},
		{
			"children":[
				2
			],
			"name":"seg3",
			"rotation":[
				0.05722299590706825,
				-0.4863646626472473,
				-0.03157367929816246,
				0.8713082671165466
			],
			"scale":[
				1,
				0.9999998807907104,
				1
			],
			"translation":[
				-4.586763679981232e-08,
				0.9560642242431641,
				-9.313225746154785e-09
			]
		},
		{
			"children":[
				3
			],
			"name":"seg2",
			"rotation":[
				0.0084844920784235,
				0.9884523749351501,
				-0.05456940829753876,
				0.14111007750034332
			],
			"scale":[
				1,
				1.0000001192092896,
				1
			],
			"translation":[
				-3.3527612686157227e-08,
				0.9567466378211975,
				-7.450580596923828e-09
			]
		},
		{
			"children":[
				4
			],
			"name":"seg1",
			"rotation":[
				-0.053937990218400955,
				-0.9984899759292603,
				-0.008764748461544514,
				0.005633557215332985
			],
			"scale":[
				0.9999998807907104,
				0.9999994039535522,
				0.9999999403953552
			],
			"translation":[
				-2.514570951461792e-08,
				0.9566918015480042,
				-3.725290298461914e-09
			]
		},
		{
			"children":[
				5
			],
			"name":"seg0",
			"rotation":[
				0.8123353719711304,
				4.1273118256413e-08,
				-0.5819140076637268,
				0.03856581076979637
			],
			"scale":[
				1.0000029802322388,
				1,
				1.000005841255188
			],
			"translation":[
				0,
				-0.050000011920928955,
				-0.03999999165534973
			]
		},
		{
			"children":[
				6
			],
			"name":"head",
			"rotation":[
				-0.7071067690849304,
				0,
				0,
				0.7071067690849304
			],
			"translation":[
				0,
				0.4000000059604645,
				-0.3499999940395355
			]
		},
		{
			"mesh":0,
			"name":"serpent",
			"skin":0
		},
		{
			"children":[
				8,
				7
			],
			"name":"serpent_rig"
		}
	],
	"animations":[
		{
			"channels":[
				{
					"sampler":0,
					"target":{
						"node":7,
						"path":"translation"
					}
				},
				{
					"sampler":1,
					"target":{
						"node":7,
						"path":"rotation"
					}
				},
				{
					"sampler":2,
					"target":{
						"node":7,
						"path":"scale"
					}
				},
				{
					"sampler":3,
					"target":{
						"node":6,
						"path":"translation"
					}
				},
				{
					"sampler":4,
					"target":{
						"node":6,
						"path":"rotation"
					}
				},
				{
					"sampler":5,
					"target":{
						"node":6,
						"path":"scale"
					}
				},
				{
					"sampler":6,
					"target":{
						"node":5,
						"path":"translation"
					}
				},
				{
					"sampler":7,
					"target":{
						"node":5,
						"path":"rotation"
					}
				},
				{
					"sampler":8,
					"target":{
						"node":5,
						"path":"scale"
					}
				},
				{
					"sampler":9,
					"target":{
						"node":4,
						"path":"translation"
					}
				},
				{
					"sampler":10,
					"target":{
						"node":4,
						"path":"rotation"
					}
				},
				{
					"sampler":11,
					"target":{
						"node":4,
						"path":"scale"
					}
				},
				{
					"sampler":12,
					"target":{
						"node":3,
						"path":"translation"
					}
				},
				{
					"sampler":13,
					"target":{
						"node":3,
						"path":"rotation"
					}
				},
				{
					"sampler":14,
					"target":{
						"node":3,
						"path":"scale"
					}
				},
				{
					"sampler":15,
					"target":{
						"node":2,
						"path":"translation"
					}
				},
				{
					"sampler":16,
					"target":{
						"node":2,
						"path":"rotation"
					}
				},
				{
					"sampler":17,
					"target":{
						"node":2,
						"path":"scale"
					}
				},
				{
					"sampler":18,
					"target":{
						"node":1,
						"path":"translation"
					}
				},
				{
					"sampler":19,
					"target":{
						"node":1,
						"path":"rotation"
					}
				},
				{
					"sampler":20,
					"target":{
						"node":1,
						"path":"scale"
					}
				},
				{
					"sampler":21,
					"target":{
						"node":0,
						"path":"translation"
					}
				},
				{
					"sampler":22,
					"target":{
						"node":0,
						"path":"rotation"
					}
				},
				{
					"sampler":23,
					"target":{
						"node":0,
						"path":"scale"
					}
				}
			],
			"name":"attack",
			"samplers":[
				{
					"input":31,
					"interpolation":"LINEAR",
					"output":32
				},
				{
					"input":31,
					"interpolation":"LINEAR",
					"output":33
				},
				{
					"input":34,
					"interpolation":"STEP",
					"output":35
				},
				{
					"input":34,
					"interpolation":"STEP",
					"output":36
				},
				{
					"input":34,
					"interpolation":"STEP",
					"output":37
				},
				{
					"input":34,
					"interpolation":"STEP",
					"output":38
				},
				{
					"input":34,
					"interpolation":"STEP",
					"output":39
				},
				{
					"input":34,
					"interpolation":"STEP",
					"output":40
				},
				{
					"input":34,
					"interpolation":"STEP",
					"output":41
				},
				{
					"input":34,
					"interpolation":"STEP",
					"output":42
				},
				{
					"input":34,
					"interpolation":"STEP",
					"output":43
				},
				{
					"input":34,
					"interpolation":"STEP",
					"output":44
				},
				{
					"input":34,
					"interpolation":"STEP",
					"output":45
				},
				{
					"input":34,
					"interpolation":"STEP",
					"output":46
				},
				{
					"input":34,
					"interpolation":"STEP",
					"output":47
				},
				{
					"input":34,
					"interpolation":"STEP",
					"output":48
				},
				{
					"input":34,
					"interpolation":"STEP",
					"output":49
				},
				{
					"input":34,
					"interpolation":"STEP",
					"output":50
				},
				{
					"input":34,
					"interpolation":"STEP",
					"output":51
				},
				{
					"input":34,
					"interpolation":"STEP",
					"output":52
				},
				{
					"input":34,
					"interpolation":"STEP",
					"output":53
				},
				{
					"input":34,
					"interpolation":"STEP",
					"output":54
				},
				{
					"input":34,
					"interpolation":"STEP",
					"output":55
				},
				{
					"input":34,
					"interpolation":"STEP",
					"output":56
				}
			]
		},
		{
			"channels":[
				{
					"sampler":0,
					"target":{
						"node":7,
						"path":"translation"
					}
				},
				{
					"sampler":1,
					"target":{
						"node":7,
						"path":"rotation"
					}
				},
				{
					"sampler":2,
					"target":{
						"node":7,
						"path":"scale"
					}
				},
				{
					"sampler":3,
					"target":{
						"node":6,
						"path":"translation"
					}
				},
				{
					"sampler":4,
					"target":{
						"node":6,
						"path":"rotation"
					}
				},
				{
					"sampler":5,
					"target":{
						"node":6,
						"path":"scale"
					}
				},
				{
					"sampler":6,
					"target":{
						"node":5,
						"path":"translation"
					}
				},
				{
					"sampler":7,
					"target":{
						"node":5,
						"path":"rotation"
					}
				},
				{
					"sampler":8,
					"target":{
						"node":5,
						"path":"scale"
					}
				},
				{
					"sampler":9,
					"target":{
						"node":4,
						"path":"translation"
					}
				},
				{
					"sampler":10,
					"target":{
						"node":4,
						"path":"rotation"
					}
				},
				{
					"sampler":11,
					"target":{
						"node":4,
						"path":"scale"
					}
				},
				{
					"sampler":12,
					"target":{
						"node":3,
						"path":"translation"
					}
				},
				{
					"sampler":13,
					"target":{
						"node":3,
						"path":"rotation"
					}
				},
				{
					"sampler":14,
					"target":{
						"node":3,
						"path":"scale"
					}
				},
				{
					"sampler":15,
					"target":{
						"node":2,
						"path":"translation"
					}
				},
				{
					"sampler":16,
					"target":{
						"node":2,
						"path":"rotation"
					}
				},
				{
					"sampler":17,
					"target":{
						"node":2,
						"path":"scale"
					}
				},
				{
					"sampler":18,
					"target":{
						"node":1,
						"path":"translation"
					}
				},
				{
					"sampler":19,
					"target":{
						"node":1,
						"path":"rotation"
					}
				},
				{
					"sampler":20,
					"target":{
						"node":1,
						"path":"scale"
					}
				},
				{
					"sampler":21,
					"target":{
						"node":0,
						"path":"translation"
					}
				},
				{
					"sampler":22,
					"target":{
						"node":0,
						"path":"rotation"
					}
				},
				{
					"sampler":23,
					"target":{
						"node":0,
						"path":"scale"
					}
				}
			],
			"name":"idle",
			"samplers":[
				{
					"input":57,
					"interpolation":"STEP",
					"output":58
				},
				{
					"input":59,
					"interpolation":"LINEAR",
					"output":60
				},
				{
					"input":57,
					"interpolation":"STEP",
					"output":61
				},
				{
					"input":57,
					"interpolation":"STEP",
					"output":62
				},
				{
					"input":59,
					"interpolation":"LINEAR",
					"output":63
				},
				{
					"input":57,
					"interpolation":"STEP",
					"output":64
				},
				{
					"input":57,
					"interpolation":"STEP",
					"output":65
				},
				{
					"input":59,
					"interpolation":"LINEAR",
					"output":66
				},
				{
					"input":57,
					"interpolation":"STEP",
					"output":67
				},
				{
					"input":57,
					"interpolation":"STEP",
					"output":68
				},
				{
					"input":59,
					"interpolation":"LINEAR",
					"output":69
				},
				{
					"input":57,
					"interpolation":"STEP",
					"output":70
				},
				{
					"input":57,
					"interpolation":"STEP",
					"output":71
				},
				{
					"input":59,
					"interpolation":"LINEAR",
					"output":72
				},
				{
					"input":57,
					"interpolation":"STEP",
					"output":73
				},
				{
					"input":57,
					"interpolation":"STEP",
					"output":74
				},
				{
					"input":59,
					"interpolation":"LINEAR",
					"output":75
				},
				{
					"input":57,
					"interpolation":"STEP",
					"output":76
				},
				{
					"input":57,
					"interpolation":"STEP",
					"output":77
				},
				{
					"input":59,
					"interpolation":"LINEAR",
					"output":78
				},
				{
					"input":57,
					"interpolation":"STEP",
					"output":79
				},
				{
					"input":57,
					"interpolation":"STEP",
					"output":80
				},
				{
					"input":59,
					"interpolation":"LINEAR",
					"output":81
				},
				{
					"input":57,
					"interpolation":"STEP",
					"output":82
				}
			]
		},
		{
			"channels":[
				{
					"sampler":0,
					"target":{
						"node":7,
						"path":"translation"
					}
				},
				{
					"sampler":1,
					"target":{
						"node":7,
						"path":"rotation"
					}
				},
				{
					"sampler":2,
					"target":{
						"node":7,
						"path":"scale"
					}
				},
				{
					"sampler":3,
					"target":{
						"node":6,
						"path":"translation"
					}
				},
				{
					"sampler":4,
					"target":{
						"node":6,
						"path":"rotation"
					}
				},
				{
					"sampler":5,
					"target":{
						"node":6,
						"path":"scale"
					}
				},
				{
					"sampler":6,
					"target":{
						"node":5,
						"path":"translation"
					}
				},
				{
					"sampler":7,
					"target":{
						"node":5,
						"path":"rotation"
					}
				},
				{
					"sampler":8,
					"target":{
						"node":5,
						"path":"scale"
					}
				},
				{
					"sampler":9,
					"target":{
						"node":4,
						"path":"translation"
					}
				},
				{
					"sampler":10,
					"target":{
						"node":4,
						"path":"rotation"
					}
				},
				{
					"sampler":11,
					"target":{
						"node":4,
						"path":"scale"
					}
				},
				{
					"sampler":12,
					"target":{
						"node":3,
						"path":"translation"
					}
				},
				{
					"sampler":13,
					"target":{
						"node":3,
						"path":"rotation"
					}
				},
				{
					"sampler":14,
					"target":{
						"node":3,
						"path":"scale"
					}
				},
				{
					"sampler":15,
					"target":{
						"node":2,
						"path":"translation"
					}
				},
				{
					"sampler":16,
					"target":{
						"node":2,
						"path":"rotation"
					}
				},
				{
					"sampler":17,
					"target":{
						"node":2,
						"path":"scale"
					}
				},
				{
					"sampler":18,
					"target":{
						"node":1,
						"path":"translation"
					}
				},
				{
					"sampler":19,
					"target":{
						"node":1,
						"path":"rotation"
					}
				},
				{
					"sampler":20,
					"target":{
						"node":1,
						"path":"scale"
					}
				},
				{
					"sampler":21,
					"target":{
						"node":0,
						"path":"translation"
					}
				},
				{
					"sampler":22,
					"target":{
						"node":0,
						"path":"rotation"
					}
				},
				{
					"sampler":23,
					"target":{
						"node":0,
						"path":"scale"
					}
				}
			],
			"name":"walk",
			"samplers":[
				{
					"input":83,
					"interpolation":"STEP",
					"output":84
				},
				{
					"input":85,
					"interpolation":"LINEAR",
					"output":86
				},
				{
					"input":83,
					"interpolation":"STEP",
					"output":87
				},
				{
					"input":83,
					"interpolation":"STEP",
					"output":88
				},
				{
					"input":85,
					"interpolation":"LINEAR",
					"output":89
				},
				{
					"input":83,
					"interpolation":"STEP",
					"output":90
				},
				{
					"input":83,
					"interpolation":"STEP",
					"output":91
				},
				{
					"input":85,
					"interpolation":"LINEAR",
					"output":92
				},
				{
					"input":83,
					"interpolation":"STEP",
					"output":93
				},
				{
					"input":83,
					"interpolation":"STEP",
					"output":94
				},
				{
					"input":85,
					"interpolation":"LINEAR",
					"output":95
				},
				{
					"input":83,
					"interpolation":"STEP",
					"output":96
				},
				{
					"input":83,
					"interpolation":"STEP",
					"output":97
				},
				{
					"input":85,
					"interpolation":"LINEAR",
					"output":98
				},
				{
					"input":83,
					"interpolation":"STEP",
					"output":99
				},
				{
					"input":83,
					"interpolation":"STEP",
					"output":100
				},
				{
					"input":85,
					"interpolation":"LINEAR",
					"output":101
				},
				{
					"input":83,
					"interpolation":"STEP",
					"output":102
				},
				{
					"input":83,
					"interpolation":"STEP",
					"output":103
				},
				{
					"input":85,
					"interpolation":"LINEAR",
					"output":104
				},
				{
					"input":83,
					"interpolation":"STEP",
					"output":105
				},
				{
					"input":83,
					"interpolation":"STEP",
					"output":106
				},
				{
					"input":85,
					"interpolation":"LINEAR",
					"output":107
				},
				{
					"input":83,
					"interpolation":"STEP",
					"output":108
				}
			]
		}
	],
	"materials":[
		{
			"extensions":{
				"KHR_materials_clearcoat":{
					"clearcoatFactor":0.5
				}
			},
			"name":"scales",
			"normalTexture":{
				"index":0,
				"scale":1.5
			},
			"pbrMetallicRoughness":{
				"baseColorFactor":[
					0.10048151016235352,
					0.03310476616024971,
					0.21404114365577698,
					1
				],
				"metallicFactor":0,
				"roughnessFactor":0.3499999940395355
			}
		},
		{
			"name":"belly",
			"normalTexture":{
				"index":1,
				"scale":0.6000000238418579
			},
			"pbrMetallicRoughness":{
				"baseColorFactor":[
					0.2929134964942932,
					0.19599418342113495,
					0.4132082164287567,
					1
				],
				"metallicFactor":0,
				"roughnessFactor":0.5
			}
		},
		{
			"emissiveFactor":[
				1,
				0.01960664801299572,
				0.010022825561463833
			],
			"extensions":{
				"KHR_materials_emissive_strength":{
					"emissiveStrength":1.600000023841858
				}
			},
			"name":"eye",
			"pbrMetallicRoughness":{
				"baseColorFactor":[
					1,
					0.01960664801299572,
					0.010022825561463833,
					1
				],
				"metallicFactor":0,
				"roughnessFactor":0.10000000149011612
			}
		},
		{
			"name":"teeth",
			"pbrMetallicRoughness":{
				"baseColorFactor":[
					0.8900054097175598,
					0.848088264465332,
					0.6920710802078247,
					1
				],
				"metallicFactor":0,
				"roughnessFactor":0.30000001192092896
			}
		},
		{
			"name":"horn",
			"pbrMetallicRoughness":{
				"baseColorFactor":[
					0.31854677200317383,
					0.21404114365577698,
					0.6038273572921753,
					1
				],
				"metallicFactor":0,
				"roughnessFactor":0.30000001192092896
			}
		}
	],
	"meshes":[
		{
			"name":"serpent",
			"primitives":[
				{
					"attributes":{
						"POSITION":0,
						"NORMAL":1,
						"TEXCOORD_0":2,
						"JOINTS_0":3,
						"WEIGHTS_0":4
					},
					"indices":5,
					"material":0
				},
				{
					"attributes":{
						"POSITION":6,
						"NORMAL":7,
						"TEXCOORD_0":8,
						"JOINTS_0":9,
						"WEIGHTS_0":10
					},
					"indices":11,
					"material":1
				},
				{
					"attributes":{
						"POSITION":12,
						"NORMAL":13,
						"TEXCOORD_0":14,
						"JOINTS_0":15,
						"WEIGHTS_0":16
					},
					"indices":17,
					"material":2
				},
				{
					"attributes":{
						"POSITION":18,
						"NORMAL":19,
						"TEXCOORD_0":20,
						"JOINTS_0":21,
						"WEIGHTS_0":22
					},
					"indices":23,
					"material":3
				},
				{
					"attributes":{
						"POSITION":24,
						"NORMAL":25,
						"TEXCOORD_0":26,
						"JOINTS_0":27,
						"WEIGHTS_0":28
					},
					"indices":29,
					"material":4
				}
			]
		}
	],
	"textures":[
		{
			"sampler":0,
			"source":0
		},
		{
			"sampler":0,
			"source":1
		}
	],
	"images":[
		{
			"mimeType":"image/png",
			"name":"N_scale",
			"uri":"texturas/N_scale.png"
		},
		{
			"mimeType":"image/png",
			"name":"N_leather",
			"uri":"texturas/N_leather.png"
		}
	],
	"skins":[
		{
			"inverseBindMatrices":30,
			"joints":[
				7,
				6,
				5,
				4,
				3,
				2,
				1,
				0
			],
			"name":"serpent_rig"
		}
	],
	"accessors":[
		{
			"bufferView":0,
			"componentType":5126,
			"count":537,
			"max":[
				0.48038816452026367,
				0.7678712606430054,
				5.911354064941406
			],
			"min":[
				-0.4816165864467621,
				0.0071169547736644745,
				-1.0636192560195923
			],
			"type":"VEC3"
		},
		{
			"bufferView":1,
			"componentType":5126,
			"count":537,
			"type":"VEC3"
		},
		{
			"bufferView":2,
			"componentType":5126,
			"count":537,
			"type":"VEC2"
		},
		{
			"bufferView":3,
			"componentType":5121,
			"count":537,
			"type":"VEC4"
		},
		{
			"bufferView":4,
			"componentType":5126,
			"count":537,
			"type":"VEC4"
		},
		{
			"bufferView":5,
			"componentType":5123,
			"count":2256,
			"type":"SCALAR"
		},
		{
			"bufferView":6,
			"componentType":5126,
			"count":166,
			"max":[
				0.25999999046325684,
				0.3999999761581421,
				-0.3490259349346161
			],
			"min":[
				-0.25999999046325684,
				0.19999998807907104,
				-1.0509740114212036
			],
			"type":"VEC3"
		},
		{
			"bufferView":7,
			"componentType":5126,
			"count":166,
			"type":"VEC3"
		},
		{
			"bufferView":8,
			"componentType":5126,
			"count":166,
			"type":"VEC2"
		},
		{
			"bufferView":9,
			"componentType":5121,
			"count":166,
			"type":"VEC4"
		},
		{
			"bufferView":10,
			"componentType":5126,
			"count":166,
			"type":"VEC4"
		},
		{
			"bufferView":11,
			"componentType":5123,
			"count":672,
			"type":"SCALAR"
		},
		{
			"bufferView":12,
			"componentType":5126,
			"count":220,
			"max":[
				0.25999999046325684,
				0.5699999928474426,
				-0.8024471402168274
			],
			"min":[
				-0.25999999046325684,
				0.4699999690055847,
				-0.8975527882575989
			],
			"type":"VEC3"
		},
		{
			"bufferView":13,
			"componentType":5126,
			"count":220,
			"type":"VEC3"
		},
		{
			"bufferView":14,
			"componentType":5126,
			"count":220,
			"type":"VEC2"
		},
		{
			"bufferView":15,
			"componentType":5121,
			"count":220,
			"type":"VEC4"
		},
		{
			"bufferView":16,
			"componentType":5126,
			"count":220,
			"type":"VEC4"
		},
		{
			"bufferView":17,
			"componentType":5123,
			"count":720,
			"type":"SCALAR"
		},
		{
			"bufferView":18,
			"componentType":5126,
			"count":68,
			"max":[
				0.10165063291788101,
				0.34146803617477417,
				-0.9750431180000305
			],
			"min":[
				-0.10165063291788101,
				0.16988253593444824,
				-1.0249568223953247
			],
			"type":"VEC3"
		},
		{
			"bufferView":19,
			"componentType":5126,
			"count":68,
			"type":"VEC3"
		},
		{
			"bufferView":20,
			"componentType":5126,
			"count":68,
			"type":"VEC2"
		},
		{
			"bufferView":21,
			"componentType":5121,
			"count":68,
			"type":"VEC4"
		},
		{
			"bufferView":22,
			"componentType":5126,
			"count":68,
			"type":"VEC4"
		},
		{
			"bufferView":23,
			"componentType":5123,
			"count":144,
			"type":"SCALAR"
		},
		{
			"bufferView":24,
			"componentType":5126,
			"count":42,
			"max":[
				0.05999999865889549,
				0.9707878828048706,
				-0.3981616795063019
			],
			"min":[
				-0.05999999865889549,
				0.5963648557662964,
				-0.6051486730575562
			],
			"type":"VEC3"
		},
		{
			"bufferView":25,
			"componentType":5126,
			"count":42,
			"type":"VEC3"
		},
		{
			"bufferView":26,
			"componentType":5126,
			"count":42,
			"type":"VEC2"
		},
		{
			"bufferView":27,
			"componentType":5121,
			"count":42,
			"type":"VEC4"
		},
		{
			"bufferView":28,
			"componentType":5126,
			"count":42,
			"type":"VEC4"
		},
		{
			"bufferView":29,
			"componentType":5123,
			"count":96,
			"type":"SCALAR"
		},
		{
			"bufferView":30,
			"componentType":5126,
			"count":8,
			"type":"MAT4"
		},
		{
			"bufferView":31,
			"componentType":5126,
			"count":17,
			"max":[
				0.5333333333333333
			],
			"min":[
				0
			],
			"type":"SCALAR"
		},
		{
			"bufferView":32,
			"componentType":5126,
			"count":17,
			"type":"VEC3"
		},
		{
			"bufferView":33,
			"componentType":5126,
			"count":17,
			"type":"VEC4"
		},
		{
			"bufferView":34,
			"componentType":5126,
			"count":2,
			"max":[
				0.5333333333333333
			],
			"min":[
				0
			],
			"type":"SCALAR"
		},
		{
			"bufferView":35,
			"componentType":5126,
			"count":2,
			"type":"VEC3"
		},
		{
			"bufferView":36,
			"componentType":5126,
			"count":2,
			"type":"VEC3"
		},
		{
			"bufferView":37,
			"componentType":5126,
			"count":2,
			"type":"VEC4"
		},
		{
			"bufferView":38,
			"componentType":5126,
			"count":2,
			"type":"VEC3"
		},
		{
			"bufferView":39,
			"componentType":5126,
			"count":2,
			"type":"VEC3"
		},
		{
			"bufferView":40,
			"componentType":5126,
			"count":2,
			"type":"VEC4"
		},
		{
			"bufferView":41,
			"componentType":5126,
			"count":2,
			"type":"VEC3"
		},
		{
			"bufferView":42,
			"componentType":5126,
			"count":2,
			"type":"VEC3"
		},
		{
			"bufferView":43,
			"componentType":5126,
			"count":2,
			"type":"VEC4"
		},
		{
			"bufferView":44,
			"componentType":5126,
			"count":2,
			"type":"VEC3"
		},
		{
			"bufferView":45,
			"componentType":5126,
			"count":2,
			"type":"VEC3"
		},
		{
			"bufferView":46,
			"componentType":5126,
			"count":2,
			"type":"VEC4"
		},
		{
			"bufferView":47,
			"componentType":5126,
			"count":2,
			"type":"VEC3"
		},
		{
			"bufferView":48,
			"componentType":5126,
			"count":2,
			"type":"VEC3"
		},
		{
			"bufferView":49,
			"componentType":5126,
			"count":2,
			"type":"VEC4"
		},
		{
			"bufferView":50,
			"componentType":5126,
			"count":2,
			"type":"VEC3"
		},
		{
			"bufferView":51,
			"componentType":5126,
			"count":2,
			"type":"VEC3"
		},
		{
			"bufferView":52,
			"componentType":5126,
			"count":2,
			"type":"VEC4"
		},
		{
			"bufferView":53,
			"componentType":5126,
			"count":2,
			"type":"VEC3"
		},
		{
			"bufferView":54,
			"componentType":5126,
			"count":2,
			"type":"VEC3"
		},
		{
			"bufferView":55,
			"componentType":5126,
			"count":2,
			"type":"VEC4"
		},
		{
			"bufferView":56,
			"componentType":5126,
			"count":2,
			"type":"VEC3"
		},
		{
			"bufferView":57,
			"componentType":5126,
			"count":2,
			"max":[
				2
			],
			"min":[
				0
			],
			"type":"SCALAR"
		},
		{
			"bufferView":58,
			"componentType":5126,
			"count":2,
			"type":"VEC3"
		},
		{
			"bufferView":59,
			"componentType":5126,
			"count":61,
			"max":[
				2
			],
			"min":[
				0
			],
			"type":"SCALAR"
		},
		{
			"bufferView":60,
			"componentType":5126,
			"count":61,
			"type":"VEC4"
		},
		{
			"bufferView":61,
			"componentType":5126,
			"count":2,
			"type":"VEC3"
		},
		{
			"bufferView":62,
			"componentType":5126,
			"count":2,
			"type":"VEC3"
		},
		{
			"bufferView":63,
			"componentType":5126,
			"count":61,
			"type":"VEC4"
		},
		{
			"bufferView":64,
			"componentType":5126,
			"count":2,
			"type":"VEC3"
		},
		{
			"bufferView":65,
			"componentType":5126,
			"count":2,
			"type":"VEC3"
		},
		{
			"bufferView":66,
			"componentType":5126,
			"count":61,
			"type":"VEC4"
		},
		{
			"bufferView":67,
			"componentType":5126,
			"count":2,
			"type":"VEC3"
		},
		{
			"bufferView":68,
			"componentType":5126,
			"count":2,
			"type":"VEC3"
		},
		{
			"bufferView":69,
			"componentType":5126,
			"count":61,
			"type":"VEC4"
		},
		{
			"bufferView":70,
			"componentType":5126,
			"count":2,
			"type":"VEC3"
		},
		{
			"bufferView":71,
			"componentType":5126,
			"count":2,
			"type":"VEC3"
		},
		{
			"bufferView":72,
			"componentType":5126,
			"count":61,
			"type":"VEC4"
		},
		{
			"bufferView":73,
			"componentType":5126,
			"count":2,
			"type":"VEC3"
		},
		{
			"bufferView":74,
			"componentType":5126,
			"count":2,
			"type":"VEC3"
		},
		{
			"bufferView":75,
			"componentType":5126,
			"count":61,
			"type":"VEC4"
		},
		{
			"bufferView":76,
			"componentType":5126,
			"count":2,
			"type":"VEC3"
		},
		{
			"bufferView":77,
			"componentType":5126,
			"count":2,
			"type":"VEC3"
		},
		{
			"bufferView":78,
			"componentType":5126,
			"count":61,
			"type":"VEC4"
		},
		{
			"bufferView":79,
			"componentType":5126,
			"count":2,
			"type":"VEC3"
		},
		{
			"bufferView":80,
			"componentType":5126,
			"count":2,
			"type":"VEC3"
		},
		{
			"bufferView":81,
			"componentType":5126,
			"count":61,
			"type":"VEC4"
		},
		{
			"bufferView":82,
			"componentType":5126,
			"count":2,
			"type":"VEC3"
		},
		{
			"bufferView":83,
			"componentType":5126,
			"count":2,
			"max":[
				1
			],
			"min":[
				0
			],
			"type":"SCALAR"
		},
		{
			"bufferView":84,
			"componentType":5126,
			"count":2,
			"type":"VEC3"
		},
		{
			"bufferView":85,
			"componentType":5126,
			"count":31,
			"max":[
				1
			],
			"min":[
				0
			],
			"type":"SCALAR"
		},
		{
			"bufferView":86,
			"componentType":5126,
			"count":31,
			"type":"VEC4"
		},
		{
			"bufferView":87,
			"componentType":5126,
			"count":2,
			"type":"VEC3"
		},
		{
			"bufferView":88,
			"componentType":5126,
			"count":2,
			"type":"VEC3"
		},
		{
			"bufferView":89,
			"componentType":5126,
			"count":31,
			"type":"VEC4"
		},
		{
			"bufferView":90,
			"componentType":5126,
			"count":2,
			"type":"VEC3"
		},
		{
			"bufferView":91,
			"componentType":5126,
			"count":2,
			"type":"VEC3"
		},
		{
			"bufferView":92,
			"componentType":5126,
			"count":31,
			"type":"VEC4"
		},
		{
			"bufferView":93,
			"componentType":5126,
			"count":2,
			"type":"VEC3"
		},
		{
			"bufferView":94,
			"componentType":5126,
			"count":2,
			"type":"VEC3"
		},
		{
			"bufferView":95,
			"componentType":5126,
			"count":31,
			"type":"VEC4"
		},
		{
			"bufferView":96,
			"componentType":5126,
			"count":2,
			"type":"VEC3"
		},
		{
			"bufferView":97,
			"componentType":5126,
			"count":2,
			"type":"VEC3"
		},
		{
			"bufferView":98,
			"componentType":5126,
			"count":31,
			"type":"VEC4"
		},
		{
			"bufferView":99,
			"componentType":5126,
			"count":2,
			"type":"VEC3"
		},
		{
			"bufferView":100,
			"componentType":5126,
			"count":2,
			"type":"VEC3"
		},
		{
			"bufferView":101,
			"componentType":5126,
			"count":31,
			"type":"VEC4"
		},
		{
			"bufferView":102,
			"componentType":5126,
			"count":2,
			"type":"VEC3"
		},
		{
			"bufferView":103,
			"componentType":5126,
			"count":2,
			"type":"VEC3"
		},
		{
			"bufferView":104,
			"componentType":5126,
			"count":31,
			"type":"VEC4"
		},
		{
			"bufferView":105,
			"componentType":5126,
			"count":2,
			"type":"VEC3"
		},
		{
			"bufferView":106,
			"componentType":5126,
			"count":2,
			"type":"VEC3"
		},
		{
			"bufferView":107,
			"componentType":5126,
			"count":31,
			"type":"VEC4"
		},
		{
			"bufferView":108,
			"componentType":5126,
			"count":2,
			"type":"VEC3"
		}
	],
	"bufferViews":[
		{
			"buffer":0,
			"byteLength":6444,
			"byteOffset":0,
			"target":34962
		},
		{
			"buffer":0,
			"byteLength":6444,
			"byteOffset":6444,
			"target":34962
		},
		{
			"buffer":0,
			"byteLength":4296,
			"byteOffset":12888,
			"target":34962
		},
		{
			"buffer":0,
			"byteLength":2148,
			"byteOffset":17184,
			"target":34962
		},
		{
			"buffer":0,
			"byteLength":8592,
			"byteOffset":19332,
			"target":34962
		},
		{
			"buffer":0,
			"byteLength":4512,
			"byteOffset":27924,
			"target":34963
		},
		{
			"buffer":0,
			"byteLength":1992,
			"byteOffset":32436,
			"target":34962
		},
		{
			"buffer":0,
			"byteLength":1992,
			"byteOffset":34428,
			"target":34962
		},
		{
			"buffer":0,
			"byteLength":1328,
			"byteOffset":36420,
			"target":34962
		},
		{
			"buffer":0,
			"byteLength":664,
			"byteOffset":37748,
			"target":34962
		},
		{
			"buffer":0,
			"byteLength":2656,
			"byteOffset":38412,
			"target":34962
		},
		{
			"buffer":0,
			"byteLength":1344,
			"byteOffset":41068,
			"target":34963
		},
		{
			"buffer":0,
			"byteLength":2640,
			"byteOffset":42412,
			"target":34962
		},
		{
			"buffer":0,
			"byteLength":2640,
			"byteOffset":45052,
			"target":34962
		},
		{
			"buffer":0,
			"byteLength":1760,
			"byteOffset":47692,
			"target":34962
		},
		{
			"buffer":0,
			"byteLength":880,
			"byteOffset":49452,
			"target":34962
		},
		{
			"buffer":0,
			"byteLength":3520,
			"byteOffset":50332,
			"target":34962
		},
		{
			"buffer":0,
			"byteLength":1440,
			"byteOffset":53852,
			"target":34963
		},
		{
			"buffer":0,
			"byteLength":816,
			"byteOffset":55292,
			"target":34962
		},
		{
			"buffer":0,
			"byteLength":816,
			"byteOffset":56108,
			"target":34962
		},
		{
			"buffer":0,
			"byteLength":544,
			"byteOffset":56924,
			"target":34962
		},
		{
			"buffer":0,
			"byteLength":272,
			"byteOffset":57468,
			"target":34962
		},
		{
			"buffer":0,
			"byteLength":1088,
			"byteOffset":57740,
			"target":34962
		},
		{
			"buffer":0,
			"byteLength":288,
			"byteOffset":58828,
			"target":34963
		},
		{
			"buffer":0,
			"byteLength":504,
			"byteOffset":59116,
			"target":34962
		},
		{
			"buffer":0,
			"byteLength":504,
			"byteOffset":59620,
			"target":34962
		},
		{
			"buffer":0,
			"byteLength":336,
			"byteOffset":60124,
			"target":34962
		},
		{
			"buffer":0,
			"byteLength":168,
			"byteOffset":60460,
			"target":34962
		},
		{
			"buffer":0,
			"byteLength":672,
			"byteOffset":60628,
			"target":34962
		},
		{
			"buffer":0,
			"byteLength":192,
			"byteOffset":61300,
			"target":34963
		},
		{
			"buffer":0,
			"byteLength":512,
			"byteOffset":61492
		},
		{
			"buffer":0,
			"byteLength":68,
			"byteOffset":62004
		},
		{
			"buffer":0,
			"byteLength":204,
			"byteOffset":62072
		},
		{
			"buffer":0,
			"byteLength":272,
			"byteOffset":62276
		},
		{
			"buffer":0,
			"byteLength":8,
			"byteOffset":62548
		},
		{
			"buffer":0,
			"byteLength":24,
			"byteOffset":62556
		},
		{
			"buffer":0,
			"byteLength":24,
			"byteOffset":62580
		},
		{
			"buffer":0,
			"byteLength":32,
			"byteOffset":62604
		},
		{
			"buffer":0,
			"byteLength":24,
			"byteOffset":62636
		},
		{
			"buffer":0,
			"byteLength":24,
			"byteOffset":62660
		},
		{
			"buffer":0,
			"byteLength":32,
			"byteOffset":62684
		},
		{
			"buffer":0,
			"byteLength":24,
			"byteOffset":62716
		},
		{
			"buffer":0,
			"byteLength":24,
			"byteOffset":62740
		},
		{
			"buffer":0,
			"byteLength":32,
			"byteOffset":62764
		},
		{
			"buffer":0,
			"byteLength":24,
			"byteOffset":62796
		},
		{
			"buffer":0,
			"byteLength":24,
			"byteOffset":62820
		},
		{
			"buffer":0,
			"byteLength":32,
			"byteOffset":62844
		},
		{
			"buffer":0,
			"byteLength":24,
			"byteOffset":62876
		},
		{
			"buffer":0,
			"byteLength":24,
			"byteOffset":62900
		},
		{
			"buffer":0,
			"byteLength":32,
			"byteOffset":62924
		},
		{
			"buffer":0,
			"byteLength":24,
			"byteOffset":62956
		},
		{
			"buffer":0,
			"byteLength":24,
			"byteOffset":62980
		},
		{
			"buffer":0,
			"byteLength":32,
			"byteOffset":63004
		},
		{
			"buffer":0,
			"byteLength":24,
			"byteOffset":63036
		},
		{
			"buffer":0,
			"byteLength":24,
			"byteOffset":63060
		},
		{
			"buffer":0,
			"byteLength":32,
			"byteOffset":63084
		},
		{
			"buffer":0,
			"byteLength":24,
			"byteOffset":63116
		},
		{
			"buffer":0,
			"byteLength":8,
			"byteOffset":63140
		},
		{
			"buffer":0,
			"byteLength":24,
			"byteOffset":63148
		},
		{
			"buffer":0,
			"byteLength":244,
			"byteOffset":63172
		},
		{
			"buffer":0,
			"byteLength":976,
			"byteOffset":63416
		},
		{
			"buffer":0,
			"byteLength":24,
			"byteOffset":64392
		},
		{
			"buffer":0,
			"byteLength":24,
			"byteOffset":64416
		},
		{
			"buffer":0,
			"byteLength":976,
			"byteOffset":64440
		},
		{
			"buffer":0,
			"byteLength":24,
			"byteOffset":65416
		},
		{
			"buffer":0,
			"byteLength":24,
			"byteOffset":65440
		},
		{
			"buffer":0,
			"byteLength":976,
			"byteOffset":65464
		},
		{
			"buffer":0,
			"byteLength":24,
			"byteOffset":66440
		},
		{
			"buffer":0,
			"byteLength":24,
			"byteOffset":66464
		},
		{
			"buffer":0,
			"byteLength":976,
			"byteOffset":66488
		},
		{
			"buffer":0,
			"byteLength":24,
			"byteOffset":67464
		},
		{
			"buffer":0,
			"byteLength":24,
			"byteOffset":67488
		},
		{
			"buffer":0,
			"byteLength":976,
			"byteOffset":67512
		},
		{
			"buffer":0,
			"byteLength":24,
			"byteOffset":68488
		},
		{
			"buffer":0,
			"byteLength":24,
			"byteOffset":68512
		},
		{
			"buffer":0,
			"byteLength":976,
			"byteOffset":68536
		},
		{
			"buffer":0,
			"byteLength":24,
			"byteOffset":69512
		},
		{
			"buffer":0,
			"byteLength":24,
			"byteOffset":69536
		},
		{
			"buffer":0,
			"byteLength":976,
			"byteOffset":69560
		},
		{
			"buffer":0,
			"byteLength":24,
			"byteOffset":70536
		},
		{
			"buffer":0,
			"byteLength":24,
			"byteOffset":70560
		},
		{
			"buffer":0,
			"byteLength":976,
			"byteOffset":70584
		},
		{
			"buffer":0,
			"byteLength":24,
			"byteOffset":71560
		},
		{
			"buffer":0,
			"byteLength":8,
			"byteOffset":71584
		},
		{
			"buffer":0,
			"byteLength":24,
			"byteOffset":71592
		},
		{
			"buffer":0,
			"byteLength":124,
			"byteOffset":71616
		},
		{
			"buffer":0,
			"byteLength":496,
			"byteOffset":71740
		},
		{
			"buffer":0,
			"byteLength":24,
			"byteOffset":72236
		},
		{
			"buffer":0,
			"byteLength":24,
			"byteOffset":72260
		},
		{
			"buffer":0,
			"byteLength":496,
			"byteOffset":72284
		},
		{
			"buffer":0,
			"byteLength":24,
			"byteOffset":72780
		},
		{
			"buffer":0,
			"byteLength":24,
			"byteOffset":72804
		},
		{
			"buffer":0,
			"byteLength":496,
			"byteOffset":72828
		},
		{
			"buffer":0,
			"byteLength":24,
			"byteOffset":73324
		},
		{
			"buffer":0,
			"byteLength":24,
			"byteOffset":73348
		},
		{
			"buffer":0,
			"byteLength":496,
			"byteOffset":73372
		},
		{
			"buffer":0,
			"byteLength":24,
			"byteOffset":73868
		},
		{
			"buffer":0,
			"byteLength":24,
			"byteOffset":73892
		},
		{
			"buffer":0,
			"byteLength":496,
			"byteOffset":73916
		},
		{
			"buffer":0,
			"byteLength":24,
			"byteOffset":74412
		},
		{
			"buffer":0,
			"byteLength":24,
			"byteOffset":74436
		},
		{
			"buffer":0,
			"byteLength":496,
			"byteOffset":74460
		},
		{
			"buffer":0,
			"byteLength":24,
			"byteOffset":74956
		},
		{
			"buffer":0,
			"byteLength":24,
			"byteOffset":74980
		},
		{
			"buffer":0,
			"byteLength":496,
			"byteOffset":75004
		},
		{
			"buffer":0,
			"byteLength":24,
			"byteOffset":75500
		},
		{
			"buffer":0,
			"byteLength":24,
			"byteOffset":75524
		},
		{
			"buffer":0,
			"byteLength":496,
			"byteOffset":75548
		},
		{
			"buffer":0,
			"byteLength":24,
			"byteOffset":76044
		}
	],
	"samplers":[
		{
			"magFilter":9729,
			"minFilter":9987
		}
	],
	"buffers":[
		{
			"byteLength":76068,
			"uri":"serpent.bin"
		}
	]
}
