{
	"asset":{
		"generator":"Khronos glTF Blender I/O v4.2.57",
		"version":"2.0"
	},
	"extensionsUsed":[
		"KHR_materials_clearcoat",
		"KHR_materials_sheen"
	],
	"scene":0,
	"scenes":[
		{
			"name":"Scene",
			"nodes":[
				18
			]
		}
	],
	"nodes":[
		{
			"name":"head",
			"translation":[
				0,
				0.10199999809265137,
				0
			]
		},
		{
			"children":[
				0
			],
			"name":"neck",
			"translation":[
				0,
				0.21420001983642578,
				0
			]
		},
		{
			"name":"hand.R",
			"rotation":[
				-0.0023571974597871304,
				-0.01641841046512127,
				0.017661025747656822,
				0.9997064471244812
			],
			"scale":[
				0.9999999403953552,
				0.9999999403953552,
				0.9999998807907104
			],
			"translation":[
				1.0186340659856796e-08,
				0.256415456533432,
				-1.3969838619232178e-08
			]
		},
		{
			"children":[
				2
			],
			"name":"forearm.R",
			"rotation":[
				0.05022271350026131,
				-0.05592827498912811,
				0.0641680657863617,
				0.9951040744781494
			],
			"scale":[
				0.9999999403953552,
				0.9999999403953552,
				0.9999998807907104
			],
			"translation":[
				-1.7578713595867157e-08,
				0.2802867591381073,
				-1.1641532182693481e-09
			]
		},
		{
			"children":[
				3
			],
			"name":"upper_arm.R",
			"rotation":[
				0.9912914633750916,
				0.09286581724882126,
				0.09286525845527649,
				0.009655676782131195
			],
			"scale":[
				1.0000038146972656,
				1.0000001192092896,
				1.0000001192092896
			],
			"translation":[
				0.1754399985074997,
				0.1632000207901001,
				0
			]
		},
		{
			"name":"hand.L",
			"rotation":[
				-0.0023571974597871304,
				0.01641841046512127,
				-0.017661025747656822,
				0.9997064471244812
			],
			"scale":[
				0.9999999403953552,
				0.9999999403953552,
				0.9999998807907104
			],
			"translation":[
				-1.0186340659856796e-08,
				0.256415456533432,
				-1.3969838619232178e-08
			]
		},
		{
			"children":[
				5
			],
			"name":"forearm.L",
			"rotation":[
				0.05022271350026131,
				0.05592827498912811,
				-0.0641680657863617,
				0.9951040744781494
			],
			"scale":[
				0.9999999403953552,
				0.9999999403953552,
				0.9999998807907104
			],
			"translation":[
				1.7578713595867157e-08,
				0.2802867591381073,
				-1.1641532182693481e-09
			]
		},
		{
			"children":[
				6
			],
			"name":"upper_arm.L",
			"rotation":[
				0.9912914633750916,
				-0.09286581724882126,
				-0.09286525845527649,
				0.009655676782131195
			],
			"scale":[
				1.0000038146972656,
				1.0000001192092896,
				1.0000001192092896
			],
			"translation":[
				-0.1754399985074997,
				0.1632000207901001,
				0
			]
		},
		{
			"children":[
				1,
				4,
				7
			],
			"name":"chest",
			"translation":[
				0,
				0.1733999252319336,
				0
			]
		},
		{
			"children":[
				8
			],
			"name":"spine",
			"scale":[
				1,
				0.9999999403953552,
				1
			],
			"translation":[
				0,
				0.15300005674362183,
				0
			]
		},
		{
			"name":"foot.R",
			"rotation":[
				0.5914180278778076,
				3.441634130463278e-11,
				4.693634370056543e-11,
				0.8063651323318481
			],
			"translation":[
				1.0607945077900638e-11,
				0.41880157589912415,
				-1.7967849430533533e-10
			]
		},
		{
			"children":[
				10
			],
			"name":"shin.R",
			"rotation":[
				-0.04152866452932358,
				-0.010850693099200726,
				0.010284057818353176,
				0.9990254640579224
			],
			"scale":[
				1,
				1.0000001192092896,
				1
			],
			"translation":[
				-8.149072527885437e-10,
				0.41847535967826843,
				-2.0954757928848267e-09
			]
		},
		{
			"children":[
				11
			],
			"name":"thigh.R",
			"rotation":[
				-0.9997796416282654,
				-0.010571165941655636,
				-0.010571266524493694,
				0.014739514328539371
			],
			"scale":[
				1.0000001192092896,
				1,
				1.000000238418579
			],
			"translation":[
				0.10322399437427521,
				-0.02039998769760132,
				0
			]
		},
		{
			"name":"foot.L",
			"rotation":[
				0.5914180278778076,
				-3.441634130463278e-11,
				-4.693634370056543e-11,
				0.8063651323318481
			],
			"translation":[
				-1.0607945077900638e-11,
				0.41880157589912415,
				-1.7967849430533533e-10
			]
		},
		{
			"children":[
				13
			],
			"name":"shin.L",
			"rotation":[
				-0.04152866452932358,
				0.010850693099200726,
				-0.010284057818353176,
				0.9990254640579224
			],
			"scale":[
				1,
				1.0000001192092896,
				1
			],
			"translation":[
				8.149072527885437e-10,
				0.41847535967826843,
				-2.0954757928848267e-09
			]
		},
		{
			"children":[
				14
			],
			"name":"thigh.L",
			"rotation":[
				-0.9997796416282654,
				0.010571165941655636,
				0.010571266524493694,
				0.014739514328539371
			],
			"scale":[
				1.0000001192092896,
				1,
				1.000000238418579
			],
			"translation":[
				-0.10322399437427521,
				-0.02039998769760132,
				0
			]
		},
		{
			"children":[
				9,
				12,
				15
			],
			"name":"hips",
			"translation":[
				0,
				0.9485999941825867,
				0
			]
		},
		{
			"mesh":0,
			"name":"shion",
			"skin":0
		},
		{
			"children":[
				17,
				16
			],
			"name":"shion_rig"
		}
	],
	"animations":[
		{
			"channels":[
				{
					"sampler":0,
					"target":{
						"node":16,
						"path":"translation"
					}
				},
				{
					"sampler":1,
					"target":{
						"node":16,
						"path":"rotation"
					}
				},
				{
					"sampler":2,
					"target":{
						"node":16,
						"path":"scale"
					}
				},
				{
					"sampler":3,
					"target":{
						"node":9,
						"path":"translation"
					}
				},
				{
					"sampler":4,
					"target":{
						"node":9,
						"path":"rotation"
					}
				},
				{
					"sampler":5,
					"target":{
						"node":9,
						"path":"scale"
					}
				},
				{
					"sampler":6,
					"target":{
						"node":8,
						"path":"translation"
					}
				},
				{
					"sampler":7,
					"target":{
						"node":8,
						"path":"rotation"
					}
				},
				{
					"sampler":8,
					"target":{
						"node":8,
						"path":"scale"
					}
				},
				{
					"sampler":9,
					"target":{
						"node":1,
						"path":"translation"
					}
				},
				{
					"sampler":10,
					"target":{
						"node":1,
						"path":"rotation"
					}
				},
				{
					"sampler":11,
					"target":{
						"node":1,
						"path":"scale"
					}
				},
				{
					"sampler":12,
					"target":{
						"node":0,
						"path":"translation"
					}
				},
				{
					"sampler":13,
					"target":{
						"node":0,
						"path":"rotation"
					}
				},
				{
					"sampler":14,
					"target":{
						"node":0,
						"path":"scale"
					}
				},
				{
					"sampler":15,
					"target":{
						"node":4,
						"path":"translation"
					}
				},
				{
					"sampler":16,
					"target":{
						"node":4,
						"path":"rotation"
					}
				},
				{
					"sampler":17,
					"target":{
						"node":4,
						"path":"scale"
					}
				},
				{
					"sampler":18,
					"target":{
						"node":3,
						"path":"translation"
					}
				},
				{
					"sampler":19,
					"target":{
						"node":3,
						"path":"rotation"
					}
				},
				{
					"sampler":20,
					"target":{
						"node":3,
						"path":"scale"
					}
				},
				{
					"sampler":21,
					"target":{
						"node":2,
						"path":"translation"
					}
				},
				{
					"sampler":22,
					"target":{
						"node":2,
						"path":"rotation"
					}
				},
				{
					"sampler":23,
					"target":{
						"node":2,
						"path":"scale"
					}
				},
				{
					"sampler":24,
					"target":{
						"node":7,
						"path":"translation"
					}
				},
				{
					"sampler":25,
					"target":{
						"node":7,
						"path":"rotation"
					}
				},
				{
					"sampler":26,
					"target":{
						"node":7,
						"path":"scale"
					}
				},
				{
					"sampler":27,
					"target":{
						"node":6,
						"path":"translation"
					}
				},
				{
					"sampler":28,
					"target":{
						"node":6,
						"path":"rotation"
					}
				},
				{
					"sampler":29,
					"target":{
						"node":6,
						"path":"scale"
					}
				},
				{
					"sampler":30,
					"target":{
						"node":5,
						"path":"translation"
					}
				},
				{
					"sampler":31,
					"target":{
						"node":5,
						"path":"rotation"
					}
				},
				{
					"sampler":32,
					"target":{
						"node":5,
						"path":"scale"
					}
				},
				{
					"sampler":33,
					"target":{
						"node":12,
						"path":"translation"
					}
				},
				{
					"sampler":34,
					"target":{
						"node":12,
						"path":"rotation"
					}
				},
				{
					"sampler":35,
					"target":{
						"node":12,
						"path":"scale"
					}
				},
				{
					"sampler":36,
					"target":{
						"node":11,
						"path":"translation"
					}
				},
				{
					"sampler":37,
					"target":{
						"node":11,
						"path":"rotation"
					}
				},
				{
					"sampler":38,
					"target":{
						"node":11,
						"path":"scale"
					}
				},
				{
					"sampler":39,
					"target":{
						"node":10,
						"path":"translation"
					}
				},
				{
					"sampler":40,
					"target":{
						"node":10,
						"path":"rotation"
					}
				},
				{
					"sampler":41,
					"target":{
						"node":10,
						"path":"scale"
					}
				},
				{
					"sampler":42,
					"target":{
						"node":15,
						"path":"translation"
					}
				},
				{
					"sampler":43,
					"target":{
						"node":15,
						"path":"rotation"
					}
				},
				{
					"sampler":44,
					"target":{
						"node":15,
						"path":"scale"
					}
				},
				{
					"sampler":45,
					"target":{
						"node":14,
						"path":"translation"
					}
				},
				{
					"sampler":46,
					"target":{
						"node":14,
						"path":"rotation"
					}
				},
				{
					"sampler":47,
					"target":{
						"node":14,
						"path":"scale"
					}
				},
				{
					"sampler":48,
					"target":{
						"node":13,
						"path":"translation"
					}
				},
				{
					"sampler":49,
					"target":{
						"node":13,
						"path":"rotation"
					}
				},
				{
					"sampler":50,
					"target":{
						"node":13,
						"path":"scale"
					}
				}
			],
			"name":"attack",
			"samplers":[
				{
					"input":96,
					"interpolation":"STEP",
					"output":97
				},
				{
					"input":96,
					"interpolation":"STEP",
					"output":98
				},
				{
					"input":96,
					"interpolation":"STEP",
					"output":99
				},
				{
					"input":96,
					"interpolation":"STEP",
					"output":100
				},
				{
					"input":96,
					"interpolation":"STEP",
					"output":101
				},
				{
					"input":96,
					"interpolation":"STEP",
					"output":102
				},
				{
					"input":96,
					"interpolation":"STEP",
					"output":103
				},
				{
					"input":104,
					"interpolation":"LINEAR",
					"output":105
				},
				{
					"input":96,
					"interpolation":"STEP",
					"output":106
				},
				{
					"input":96,
					"interpolation":"STEP",
					"output":107
				},
				{
					"input":96,
					"interpolation":"STEP",
					"output":108
				},
				{
					"input":96,
					"interpolation":"STEP",
					"output":109
				},
				{
					"input":96,
					"interpolation":"STEP",
					"output":110
				},
				{
					"input":96,
					"interpolation":"STEP",
					"output":111
				},
				{
					"input":96,
					"interpolation":"STEP",
					"output":112
				},
				{
					"input":96,
					"interpolation":"STEP",
					"output":113
				},
				{
					"input":104,
					"interpolation":"LINEAR",
					"output":114
				},
				{
					"input":96,
					"interpolation":"STEP",
					"output":115
				},
				{
					"input":96,
					"interpolation":"STEP",
					"output":116
				},
				{
					"input":104,
					"interpolation":"LINEAR",
					"output":117
				},
				{
					"input":96,
					"interpolation":"STEP",
					"output":118
				},
				{
					"input":96,
					"interpolation":"LINEAR",
					"output":119
				},
				{
					"input":96,
					"interpolation":"LINEAR",
					"output":120
				},
				{
					"input":96,
					"interpolation":"STEP",
					"output":121
				},
				{
					"input":96,
					"interpolation":"STEP",
					"output":122
				},
				{
					"input":104,
					"interpolation":"LINEAR",
					"output":123
				},
				{
					"input":96,
					"interpolation":"STEP",
					"output":124
				},
				{
					"input":96,
					"interpolation":"STEP",
					"output":125
				},
				{
					"input":96,
					"interpolation":"STEP",
					"output":126
				},
				{
					"input":96,
					"interpolation":"STEP",
					"output":127
				},
				{
					"input":96,
					"interpolation":"STEP",
					"output":128
				},
				{
					"input":96,
					"interpolation":"STEP",
					"output":129
				},
				{
					"input":96,
					"interpolation":"STEP",
					"output":130
				},
				{
					"input":96,
					"interpolation":"STEP",
					"output":131
				},
				{
					"input":104,
					"interpolation":"LINEAR",
					"output":132
				},
				{
					"input":96,
					"interpolation":"STEP",
					"output":133
				},
				{
					"input":96,
					"interpolation":"LINEAR",
					"output":134
				},
				{
					"input":96,
					"interpolation":"LINEAR",
					"output":135
				},
				{
					"input":96,
					"interpolation":"STEP",
					"output":136
				},
				{
					"input":96,
					"interpolation":"LINEAR",
					"output":137
				},
				{
					"input":96,
					"interpolation":"LINEAR",
					"output":138
				},
				{
					"input":96,
					"interpolation":"STEP",
					"output":139
				},
				{
					"input":96,
					"interpolation":"STEP",
					"output":140
				},
				{
					"input":104,
					"interpolation":"LINEAR",
					"output":141
				},
				{
					"input":96,
					"interpolation":"STEP",
					"output":142
				},
				{
					"input":96,
					"interpolation":"LINEAR",
					"output":143
				},
				{
					"input":96,
					"interpolation":"LINEAR",
					"output":144
				},
				{
					"input":96,
					"interpolation":"STEP",
					"output":145
				},
				{
					"input":96,
					"interpolation":"LINEAR",
					"output":146
				},
				{
					"input":96,
					"interpolation":"LINEAR",
					"output":147
				},
				{
					"input":96,
					"interpolation":"STEP",
					"output":148
				}
			]
		},
		{
			"channels":[
				{
					"sampler":0,
					"target":{
						"node":16,
						"path":"translation"
					}
				},
				{
					"sampler":1,
					"target":{
						"node":16,
						"path":"rotation"
					}
				},
				{
					"sampler":2,
					"target":{
						"node":16,
						"path":"scale"
					}
				},
				{
					"sampler":3,
					"target":{
						"node":9,
						"path":"translation"
					}
				},
				{
					"sampler":4,
					"target":{
						"node":9,
						"path":"rotation"
					}
				},
				{
					"sampler":5,
					"target":{
						"node":9,
						"path":"scale"
					}
				},
				{
					"sampler":6,
					"target":{
						"node":8,
						"path":"translation"
					}
				},
				{
					"sampler":7,
					"target":{
						"node":8,
						"path":"rotation"
					}
				},
				{
					"sampler":8,
					"target":{
						"node":8,
						"path":"scale"
					}
				},
				{
					"sampler":9,
					"target":{
						"node":1,
						"path":"translation"
					}
				},
				{
					"sampler":10,
					"target":{
						"node":1,
						"path":"rotation"
					}
				},
				{
					"sampler":11,
					"target":{
						"node":1,
						"path":"scale"
					}
				},
				{
					"sampler":12,
					"target":{
						"node":0,
						"path":"translation"
					}
				},
				{
					"sampler":13,
					"target":{
						"node":0,
						"path":"rotation"
					}
				},
				{
					"sampler":14,
					"target":{
						"node":0,
						"path":"scale"
					}
				},
				{
					"sampler":15,
					"target":{
						"node":4,
						"path":"translation"
					}
				},
				{
					"sampler":16,
					"target":{
						"node":4,
						"path":"rotation"
					}
				},
				{
					"sampler":17,
					"target":{
						"node":4,
						"path":"scale"
					}
				},
				{
					"sampler":18,
					"target":{
						"node":3,
						"path":"translation"
					}
				},
				{
					"sampler":19,
					"target":{
						"node":3,
						"path":"rotation"
					}
				},
				{
					"sampler":20,
					"target":{
						"node":3,
						"path":"scale"
					}
				},
				{
					"sampler":21,
					"target":{
						"node":2,
						"path":"translation"
					}
				},
				{
					"sampler":22,
					"target":{
						"node":2,
						"path":"rotation"
					}
				},
				{
					"sampler":23,
					"target":{
						"node":2,
						"path":"scale"
					}
				},
				{
					"sampler":24,
					"target":{
						"node":7,
						"path":"translation"
					}
				},
				{
					"sampler":25,
					"target":{
						"node":7,
						"path":"rotation"
					}
				},
				{
					"sampler":26,
					"target":{
						"node":7,
						"path":"scale"
					}
				},
				{
					"sampler":27,
					"target":{
						"node":6,
						"path":"translation"
					}
				},
				{
					"sampler":28,
					"target":{
						"node":6,
						"path":"rotation"
					}
				},
				{
					"sampler":29,
					"target":{
						"node":6,
						"path":"scale"
					}
				},
				{
					"sampler":30,
					"target":{
						"node":5,
						"path":"translation"
					}
				},
				{
					"sampler":31,
					"target":{
						"node":5,
						"path":"rotation"
					}
				},
				{
					"sampler":32,
					"target":{
						"node":5,
						"path":"scale"
					}
				},
				{
					"sampler":33,
					"target":{
						"node":12,
						"path":"translation"
					}
				},
				{
					"sampler":34,
					"target":{
						"node":12,
						"path":"rotation"
					}
				},
				{
					"sampler":35,
					"target":{
						"node":12,
						"path":"scale"
					}
				},
				{
					"sampler":36,
					"target":{
						"node":11,
						"path":"translation"
					}
				},
				{
					"sampler":37,
					"target":{
						"node":11,
						"path":"rotation"
					}
				},
				{
					"sampler":38,
					"target":{
						"node":11,
						"path":"scale"
					}
				},
				{
					"sampler":39,
					"target":{
						"node":10,
						"path":"translation"
					}
				},
				{
					"sampler":40,
					"target":{
						"node":10,
						"path":"rotation"
					}
				},
				{
					"sampler":41,
					"target":{
						"node":10,
						"path":"scale"
					}
				},
				{
					"sampler":42,
					"target":{
						"node":15,
						"path":"translation"
					}
				},
				{
					"sampler":43,
					"target":{
						"node":15,
						"path":"rotation"
					}
				},
				{
					"sampler":44,
					"target":{
						"node":15,
						"path":"scale"
					}
				},
				{
					"sampler":45,
					"target":{
						"node":14,
						"path":"translation"
					}
				},
				{
					"sampler":46,
					"target":{
						"node":14,
						"path":"rotation"
					}
				},
				{
					"sampler":47,
					"target":{
						"node":14,
						"path":"scale"
					}
				},
				{
					"sampler":48,
					"target":{
						"node":13,
						"path":"translation"
					}
				},
				{
					"sampler":49,
					"target":{
						"node":13,
						"path":"rotation"
					}
				},
				{
					"sampler":50,
					"target":{
						"node":13,
						"path":"scale"
					}
				}
			],
			"name":"idle",
			"samplers":[
				{
					"input":149,
					"interpolation":"LINEAR",
					"output":150
				},
				{
					"input":151,
					"interpolation":"STEP",
					"output":152
				},
				{
					"input":151,
					"interpolation":"STEP",
					"output":153
				},
				{
					"input":151,
					"interpolation":"STEP",
					"output":154
				},
				{
					"input":151,
					"interpolation":"STEP",
					"output":155
				},
				{
					"input":151,
					"interpolation":"STEP",
					"output":156
				},
				{
					"input":151,
					"interpolation":"STEP",
					"output":157
				},
				{
					"input":149,
					"interpolation":"LINEAR",
					"output":158
				},
				{
					"input":151,
					"interpolation":"STEP",
					"output":159
				},
				{
					"input":151,
					"interpolation":"STEP",
					"output":160
				},
				{
					"input":151,
					"interpolation":"STEP",
					"output":161
				},
				{
					"input":151,
					"interpolation":"STEP",
					"output":162
				},
				{
					"input":151,
					"interpolation":"STEP",
					"output":163
				},
				{
					"input":149,
					"interpolation":"LINEAR",
					"output":164
				},
				{
					"input":151,
					"interpolation":"STEP",
					"output":165
				},
				{
					"input":151,
					"interpolation":"STEP",
					"output":166
				},
				{
					"input":149,
					"interpolation":"LINEAR",
					"output":167
				},
				{
					"input":151,
					"interpolation":"STEP",
					"output":168
				},
				{
					"input":151,
					"interpolation":"STEP",
					"output":169
				},
				{
					"input":151,
					"interpolation":"STEP",
					"output":170
				},
				{
					"input":151,
					"interpolation":"STEP",
					"output":171
				},
				{
					"input":151,
					"interpolation":"STEP",
					"output":172
				},
				{
					"input":151,
					"interpolation":"STEP",
					"output":173
				},
				{
					"input":151,
					"interpolation":"STEP",
					"output":174
				},
				{
					"input":151,
					"interpolation":"STEP",
					"output":175
				},
				{
					"input":149,
					"interpolation":"LINEAR",
					"output":176
				},
				{
					"input":151,
					"interpolation":"STEP",
					"output":177
				},
				{
					"input":151,
					"interpolation":"STEP",
					"output":178
				},
				{
					"input":151,
					"interpolation":"STEP",
					"output":179
				},
				{
					"input":151,
					"interpolation":"STEP",
					"output":180
				},
				{
					"input":151,
					"interpolation":"STEP",
					"output":181
				},
				{
					"input":151,
					"interpolation":"STEP",
					"output":182
				},
				{
					"input":151,
					"interpolation":"STEP",
					"output":183
				},
				{
					"input":151,
					"interpolation":"STEP",
					"output":184
				},
				{
					"input":151,
					"interpolation":"STEP",
					"output":185
				},
				{
					"input":151,
					"interpolation":"STEP",
					"output":186
				},
				{
					"input":151,
					"interpolation":"STEP",
					"output":187
				},
				{
					"input":151,
					"interpolation":"STEP",
					"output":188
				},
				{
					"input":151,
					"interpolation":"STEP",
					"output":189
				},
				{
					"input":151,
					"interpolation":"STEP",
					"output":190
				},
				{
					"input":151,
					"interpolation":"STEP",
					"output":191
				},
				{
					"input":151,
					"interpolation":"STEP",
					"output":192
				},
				{
					"input":151,
					"interpolation":"STEP",
					"output":193
				},
				{
					"input":151,
					"interpolation":"STEP",
					"output":194
				},
				{
					"input":151,
					"interpolation":"STEP",
					"output":195
				},
				{
					"input":151,
					"interpolation":"STEP",
					"output":196
				},
				{
					"input":151,
					"interpolation":"STEP",
					"output":197
				},
				{
					"input":151,
					"interpolation":"STEP",
					"output":198
				},
				{
					"input":151,
					"interpolation":"STEP",
					"output":199
				},
				{
					"input":151,
					"interpolation":"STEP",
					"output":200
				},
				{
					"input":151,
					"interpolation":"STEP",
					"output":201
				}
			]
		},
		{
			"channels":[
				{
					"sampler":0,
					"target":{
						"node":16,
						"path":"translation"
					}
				},
				{
					"sampler":1,
					"target":{
						"node":16,
						"path":"rotation"
					}
				},
				{
					"sampler":2,
					"target":{
						"node":16,
						"path":"scale"
					}
				},
				{
					"sampler":3,
					"target":{
						"node":9,
						"path":"translation"
					}
				},
				{
					"sampler":4,
					"target":{
						"node":9,
						"path":"rotation"
					}
				},
				{
					"sampler":5,
					"target":{
						"node":9,
						"path":"scale"
					}
				},
				{
					"sampler":6,
					"target":{
						"node":8,
						"path":"translation"
					}
				},
				{
					"sampler":7,
					"target":{
						"node":8,
						"path":"rotation"
					}
				},
				{
					"sampler":8,
					"target":{
						"node":8,
						"path":"scale"
					}
				},
				{
					"sampler":9,
					"target":{
						"node":1,
						"path":"translation"
					}
				},
				{
					"sampler":10,
					"target":{
						"node":1,
						"path":"rotation"
					}
				},
				{
					"sampler":11,
					"target":{
						"node":1,
						"path":"scale"
					}
				},
				{
					"sampler":12,
					"target":{
						"node":0,
						"path":"translation"
					}
				},
				{
					"sampler":13,
					"target":{
						"node":0,
						"path":"rotation"
					}
				},
				{
					"sampler":14,
					"target":{
						"node":0,
						"path":"scale"
					}
				},
				{
					"sampler":15,
					"target":{
						"node":4,
						"path":"translation"
					}
				},
				{
					"sampler":16,
					"target":{
						"node":4,
						"path":"rotation"
					}
				},
				{
					"sampler":17,
					"target":{
						"node":4,
						"path":"scale"
					}
				},
				{
					"sampler":18,
					"target":{
						"node":3,
						"path":"translation"
					}
				},
				{
					"sampler":19,
					"target":{
						"node":3,
						"path":"rotation"
					}
				},
				{
					"sampler":20,
					"target":{
						"node":3,
						"path":"scale"
					}
				},
				{
					"sampler":21,
					"target":{
						"node":2,
						"path":"translation"
					}
				},
				{
					"sampler":22,
					"target":{
						"node":2,
						"path":"rotation"
					}
				},
				{
					"sampler":23,
					"target":{
						"node":2,
						"path":"scale"
					}
				},
				{
					"sampler":24,
					"target":{
						"node":7,
						"path":"translation"
					}
				},
				{
					"sampler":25,
					"target":{
						"node":7,
						"path":"rotation"
					}
				},
				{
					"sampler":26,
					"target":{
						"node":7,
						"path":"scale"
					}
				},
				{
					"sampler":27,
					"target":{
						"node":6,
						"path":"translation"
					}
				},
				{
					"sampler":28,
					"target":{
						"node":6,
						"path":"rotation"
					}
				},
				{
					"sampler":29,
					"target":{
						"node":6,
						"path":"scale"
					}
				},
				{
					"sampler":30,
					"target":{
						"node":5,
						"path":"translation"
					}
				},
				{
					"sampler":31,
					"target":{
						"node":5,
						"path":"rotation"
					}
				},
				{
					"sampler":32,
					"target":{
						"node":5,
						"path":"scale"
					}
				},
				{
					"sampler":33,
					"target":{
						"node":12,
						"path":"translation"
					}
				},
				{
					"sampler":34,
					"target":{
						"node":12,
						"path":"rotation"
					}
				},
				{
					"sampler":35,
					"target":{
						"node":12,
						"path":"scale"
					}
				},
				{
					"sampler":36,
					"target":{
						"node":11,
						"path":"translation"
					}
				},
				{
					"sampler":37,
					"target":{
						"node":11,
						"path":"rotation"
					}
				},
				{
					"sampler":38,
					"target":{
						"node":11,
						"path":"scale"
					}
				},
				{
					"sampler":39,
					"target":{
						"node":10,
						"path":"translation"
					}
				},
				{
					"sampler":40,
					"target":{
						"node":10,
						"path":"rotation"
					}
				},
				{
					"sampler":41,
					"target":{
						"node":10,
						"path":"scale"
					}
				},
				{
					"sampler":42,
					"target":{
						"node":15,
						"path":"translation"
					}
				},
				{
					"sampler":43,
					"target":{
						"node":15,
						"path":"rotation"
					}
				},
				{
					"sampler":44,
					"target":{
						"node":15,
						"path":"scale"
					}
				},
				{
					"sampler":45,
					"target":{
						"node":14,
						"path":"translation"
					}
				},
				{
					"sampler":46,
					"target":{
						"node":14,
						"path":"rotation"
					}
				},
				{
					"sampler":47,
					"target":{
						"node":14,
						"path":"scale"
					}
				},
				{
					"sampler":48,
					"target":{
						"node":13,
						"path":"translation"
					}
				},
				{
					"sampler":49,
					"target":{
						"node":13,
						"path":"rotation"
					}
				},
				{
					"sampler":50,
					"target":{
						"node":13,
						"path":"scale"
					}
				}
			],
			"name":"walk",
			"samplers":[
				{
					"input":202,
					"interpolation":"LINEAR",
					"output":203
				},
				{
					"input":202,
					"interpolation":"LINEAR",
					"output":204
				},
				{
					"input":205,
					"interpolation":"STEP",
					"output":206
				},
				{
					"input":205,
					"interpolation":"STEP",
					"output":207
				},
				{
					"input":205,
					"interpolation":"STEP",
					"output":208
				},
				{
					"input":205,
					"interpolation":"STEP",
					"output":209
				},
				{
					"input":205,
					"interpolation":"STEP",
					"output":210
				},
				{
					"input":202,
					"interpolation":"LINEAR",
					"output":211
				},
				{
					"input":205,
					"interpolation":"STEP",
					"output":212
				},
				{
					"input":205,
					"interpolation":"STEP",
					"output":213
				},
				{
					"input":205,
					"interpolation":"STEP",
					"output":214
				},
				{
					"input":205,
					"interpolation":"STEP",
					"output":215
				},
				{
					"input":205,
					"interpolation":"STEP",
					"output":216
				},
				{
					"input":205,
					"interpolation":"STEP",
					"output":217
				},
				{
					"input":205,
					"interpolation":"STEP",
					"output":218
				},
				{
					"input":205,
					"interpolation":"STEP",
					"output":219
				},
				{
					"input":202,
					"interpolation":"LINEAR",
					"output":220
				},
				{
					"input":205,
					"interpolation":"STEP",
					"output":221
				},
				{
					"input":205,
					"interpolation":"STEP",
					"output":222
				},
				{
					"input":205,
					"interpolation":"STEP",
					"output":223
				},
				{
					"input":205,
					"interpolation":"STEP",
					"output":224
				},
				{
					"input":205,
					"interpolation":"STEP",
					"output":225
				},
				{
					"input":205,
					"interpolation":"STEP",
					"output":226
				},
				{
					"input":205,
					"interpolation":"STEP",
					"output":227
				},
				{
					"input":205,
					"interpolation":"STEP",
					"output":228
				},
				{
					"input":202,
					"interpolation":"LINEAR",
					"output":229
				},
				{
					"input":205,
					"interpolation":"STEP",
					"output":230
				},
				{
					"input":205,
					"interpolation":"STEP",
					"output":231
				},
				{
					"input":205,
					"interpolation":"STEP",
					"output":232
				},
				{
					"input":205,
					"interpolation":"STEP",
					"output":233
				},
				{
					"input":205,
					"interpolation":"STEP",
					"output":234
				},
				{
					"input":205,
					"interpolation":"STEP",
					"output":235
				},
				{
					"input":205,
					"interpolation":"STEP",
					"output":236
				},
				{
					"input":205,
					"interpolation":"STEP",
					"output":237
				},
				{
					"input":202,
					"interpolation":"LINEAR",
					"output":238
				},
				{
					"input":205,
					"interpolation":"STEP",
					"output":239
				},
				{
					"input":205,
					"interpolation":"STEP",
					"output":240
				},
				{
					"input":202,
					"interpolation":"LINEAR",
					"output":241
				},
				{
					"input":205,
					"interpolation":"STEP",
					"output":242
				},
				{
					"input":205,
					"interpolation":"STEP",
					"output":243
				},
				{
					"input":202,
					"interpolation":"LINEAR",
					"output":244
				},
				{
					"input":205,
					"interpolation":"STEP",
					"output":245
				},
				{
					"input":205,
					"interpolation":"STEP",
					"output":246
				},
				{
					"input":202,
					"interpolation":"LINEAR",
					"output":247
				},
				{
					"input":205,
					"interpolation":"STEP",
					"output":248
				},
				{
					"input":205,
					"interpolation":"STEP",
					"output":249
				},
				{
					"input":202,
					"interpolation":"LINEAR",
					"output":250
				},
				{
					"input":205,
					"interpolation":"STEP",
					"output":251
				},
				{
					"input":205,
					"interpolation":"STEP",
					"output":252
				},
				{
					"input":202,
					"interpolation":"LINEAR",
					"output":253
				},
				{
					"input":205,
					"interpolation":"STEP",
					"output":254
				}
			]
		}
	],
	"materials":[
		{
			"name":"skin",
			"normalTexture":{
				"index":0,
				"scale":0.4000000059604645
			},
			"pbrMetallicRoughness":{
				"baseColorFactor":[
					0.9551045894622803,
					0.7105664610862732,
					0.5382355451583862,
					1
				],
				"metallicFactor":0,
				"roughnessFactor":0.550000011920929
			}
		},
		{
			"extensions":{
				"KHR_materials_sheen":{
					"sheenColorFactor":[
						1.0,
						1.0,
						1.0
					],
					"sheenRoughnessFactor":0.5
				}
			},
			"name":"hair",
			"normalTexture":{
				"index":1,
				"scale":0.800000011920929
			},
			"pbrMetallicRoughness":{
				"baseColorFactor":[
					0.17064493894577026,
					0.05087608844041824,
					0.38005632162094116,
					1
				],
				"metallicFactor":0,
				"roughnessFactor":0.44999998807907104
			}
		},
		{
			"extensions":{
				"KHR_materials_sheen":{
					"sheenColorFactor":[
						1.0,
						1.0,
						1.0
					],
					"sheenRoughnessFactor":0.5
				}
			},
			"name":"outfit",
			"normalTexture":{
				"index":2,
				"scale":0.6000000238418579
			},
			"pbrMetallicRoughness":{
				"baseColorFactor":[
					0.010022825561463833,
					0.010022825561463833,
					0.01960664801299572,
					1
				],
				"metallicFactor":0,
				"roughnessFactor":0.75
			}
		},
		{
			"name":"outfit2",
			"normalTexture":{
				"index":3,
				"scale":0.4000000059604645
			},
			"pbrMetallicRoughness":{
				"baseColorFactor":[
					0.31854677200317383,
					0.07323895394802094,
					0.6038273572921753,
					1
				],
				"metallicFactor":0,
				"roughnessFactor":0.6000000238418579
			}
		},
		{
			"name":"pants",
			"normalTexture":{
				"index":4,
				"scale":0.6000000238418579
			},
			"pbrMetallicRoughness":{
				"baseColorFactor":[
					0.005981059744954109,
					0.005981059744954109,
					0.010816383175551891,
					1
				],
				"metallicFactor":0,
				"roughnessFactor":0.800000011920929
			}
		},
		{
			"extensions":{
				"KHR_materials_clearcoat":{
					"clearcoatFactor":0.30000001192092896
				}
			},
			"name":"boots",
			"normalTexture":{
				"index":5,
				"scale":0.800000011920929
			},
			"pbrMetallicRoughness":{
				"baseColorFactor":[
					0.0134117491543293,
					0.010022825561463833,
					0.010022825561463833,
					1
				],
				"metallicFactor":0,
				"roughnessFactor":0.44999998807907104
			}
		},
		{
			"name":"eye_white",
			"pbrMetallicRoughness":{
				"baseColorFactor":[
					0.8900054097175598,
					0.8900054097175598,
					0.8900054097175598,
					1
				],
				"metallicFactor":0,
				"roughnessFactor":0.20000000298023224
			}
		},
		{
			"emissiveFactor":[
				0.19112807079665117,
				0.043943374114965295,
				0.36229642877167123
			],
			"name":"iris",
			"pbrMetallicRoughness":{
				"baseColorFactor":[
					0.31854677200317383,
					0.07323895394802094,
					0.6038273572921753,
					1
				],
				"metallicFactor":0,
				"roughnessFactor":0.15000000596046448
			}
		},
		{
			"name":"pupil",
			"pbrMetallicRoughness":{
				"baseColorFactor":[
					0.0015479875728487968,
					0.0015479875728487968,
					0.0023219813592731953,
					1
				],
				"metallicFactor":0,
				"roughnessFactor":0.10000000149011612
			}
		},
		{
			"name":"lips",
			"pbrMetallicRoughness":{
				"baseColorFactor":[
					0.4283095896244049,
					0.32088616490364075,
					0.2448643445968628,
					1
				],
				"metallicFactor":0,
				"roughnessFactor":0.4000000059604645
			}
		},
		{
			"extensions":{
				"KHR_materials_clearcoat":{
					"clearcoatFactor":0.5
				}
			},
			"name":"horn",
			"pbrMetallicRoughness":{
				"baseColorFactor":[
					0.010022825561463833,
					0.010022825561463833,
					0.0134117491543293,
					1
				],
				"metallicFactor":0,
				"roughnessFactor":0.30000001192092896
			}
		},
		{
			"doubleSided":true,
			"name":"skirt",
			"normalTexture":{
				"index":6,
				"scale":0.6000000238418579
			},
			"pbrMetallicRoughness":{
				"baseColorFactor":[
					0.31854677200317383,
					0.07323895394802094,
					0.6038273572921753,
					1
				],
				"metallicFactor":0,
				"roughnessFactor":0.699999988079071
			}
		},
		{
			"name":"buckle",
			"pbrMetallicRoughness":{
				"baseColorFactor":[
					0.6920710802078247,
					0.4479884207248688,
					0.07323895394802094,
					1
				],
				"metallicFactor":0.8999999761581421,
				"roughnessFactor":0.30000001192092896
			}
		},
		{
			"name":"blade",
			"normalTexture":{
				"index":7,
				"scale":0.30000001192092896
			},
			"pbrMetallicRoughness":{
				"baseColorFactor":[
					0.7484140992164612,
					0.7874122858047485,
					0.8900054097175598,
					1
				],
				"metallicFactor":0.550000011920929,
				"roughnessFactor":0.2199999988079071
			}
		},
		{
			"name":"handle",
			"normalTexture":{
				"index":8,
				"scale":0.6000000238418579
			},
			"pbrMetallicRoughness":{
				"baseColorFactor":[
					0.0134117491543293,
					0.007194409146904945,
					0.004896310158073902,
					1
				],
				"metallicFactor":0,
				"roughnessFactor":0.6000000238418579
			}
		},
		{
			"name":"guard",
			"pbrMetallicRoughness":{
				"baseColorFactor":[
					0.6038273572921753,
					0.38005632162094116,
					0.05087608844041824,
					1
				],
				"metallicFactor":0.8999999761581421,
				"roughnessFactor":0.30000001192092896
			}
		}
	],
	"meshes":[
		{
			"name":"shion",
			"primitives":[
				{
					"attributes":{
						"POSITION":0,
						"NORMAL":1,
						"TEXCOORD_0":2,
						"JOINTS_0":3,
						"WEIGHTS_0":4
					},
					"indices":5,
					"material":0
				},
				{
					"attributes":{
						"POSITION":6,
						"NORMAL":7,
						"TEXCOORD_0":8,
						"JOINTS_0":9,
						"WEIGHTS_0":10
					},
					"indices":11,
					"material":1
				},
				{
					"attributes":{
						"POSITION":12,
						"NORMAL":13,
						"TEXCOORD_0":14,
						"JOINTS_0":15,
						"WEIGHTS_0":16
					},
					"indices":17,
					"material":2
				},
				{
					"attributes":{
						"POSITION":18,
						"NORMAL":19,
						"TEXCOORD_0":20,
						"JOINTS_0":21,
						"WEIGHTS_0":22
					},
					"indices":23,
					"material":3
				},
				{
					"attributes":{
						"POSITION":24,
						"NORMAL":25,
						"TEXCOORD_0":26,
						"JOINTS_0":27,
						"WEIGHTS_0":28
					},
					"indices":29,
					"material":4
				},
				{
					"attributes":{
						"POSITION":30,
						"NORMAL":31,
						"TEXCOORD_0":32,
						"JOINTS_0":33,
						"WEIGHTS_0":34
					},
					"indices":35,
					"material":5
				},
				{
					"attributes":{
						"POSITION":36,
						"NORMAL":37,
						"TEXCOORD_0":38,
						"JOINTS_0":39,
						"WEIGHTS_0":40
					},
					"indices":41,
					"material":6
				},
				{
					"attributes":{
						"POSITION":42,
						"NORMAL":43,
						"TEXCOORD_0":44,
						"JOINTS_0":45,
						"WEIGHTS_0":46
					},
					"indices":47,
					"material":7
				},
				{
					"attributes":{
						"POSITION":48,
						"NORMAL":49,
						"TEXCOORD_0":50,
						"JOINTS_0":51,
						"WEIGHTS_0":52
					},
					"indices":53,
					"material":8
				},
				{
					"attributes":{
						"POSITION":54,
						"NORMAL":55,
						"TEXCOORD_0":56,
						"JOINTS_0":57,
						"WEIGHTS_0":58
					},
					"indices":59,
					"material":9
				},
				{
					"attributes":{
						"POSITION":60,
						"NORMAL":61,
						"TEXCOORD_0":62,
						"JOINTS_0":63,
						"WEIGHTS_0":64
					},
					"indices":65,
					"material":10
				},
				{
					"attributes":{
						"POSITION":66,
						"NORMAL":67,
						"TEXCOORD_0":68,
						"JOINTS_0":69,
						"WEIGHTS_0":70
					},
					"indices":71,
					"material":11
				},
				{
					"attributes":{
						"POSITION":72,
						"NORMAL":73,
						"TEXCOORD_0":74,
						"JOINTS_0":75,
						"WEIGHTS_0":76
					},
					"indices":77,
					"material":12
				},
				{
					"attributes":{
						"POSITION":78,
						"NORMAL":79,
						"TEXCOORD_0":80,
						"JOINTS_0":81,
						"WEIGHTS_0":82
					},
					"indices":83,
					"material":13
				},
				{
					"attributes":{
						"POSITION":84,
						"NORMAL":85,
						"TEXCOORD_0":86,
						"JOINTS_0":87,
						"WEIGHTS_0":88
					},
					"indices":89,
					"material":14
				},
				{
					"attributes":{
						"POSITION":90,
						"NORMAL":91,
						"TEXCOORD_0":92,
						"JOINTS_0":93,
						"WEIGHTS_0":94
					},
					"indices":77,
					"material":15
				}
			]
		}
	],
	"textures":[
		{
			"sampler":0,
			"source":0
		},
		{
			"sampler":0,
			"source":1
		},
		{
			"sampler":0,
			"source":2
		},
		{
			"sampler":0,
			"source":2
		},
		{
			"sampler":0,
			"source":2
		},
		{
			"sampler":0,
			"source":3
		},
		{
			"sampler":0,
			"source":2
		},
		{
			"sampler":0,
			"source":4
		},
		{
			"sampler":0,
			"source":3
		}
	],
	"images":[
		{
			"mimeType":"image/png",
			"name":"N_skin",
			"uri":"texturas/N_skin.png"
		},
		{
			"mimeType":"image/png",
			"name":"N_hair",
			"uri":"texturas/N_hair.png"
		},
		{
			"mimeType":"image/png",
			"name":"N_cloth",
			"uri":"texturas/N_cloth.png"
		},
		{
			"mimeType":"image/png",
			"name":"N_leather",
			"uri":"texturas/N_leather.png"
		},
		{
			"mimeType":"image/png",
			"name":"N_metal",
			"uri":"texturas/N_metal.png"
		}
	],
	"skins":[
		{
			"inverseBindMatrices":95,
			"joints":[
				16,
				9,
				8,
				1,
				0,
				4,
				3,
				2,
				7,
				6,
				5,
				12,
				11,
				10,
				15,
				14,
				13
			],
			"name":"shion_rig"
		}
	],
	"accessors":[
		{
			"bufferView":0,
			"componentType":5126,
			"count":1409,
			"max":[
				0.2697390019893646,
				1.819679856300354,
				0.10935680568218231
			],
			"min":[
				-0.2697390019893646,
				0.8001571297645569,
				-0.1183982640504837
			],
			"type":"VEC3"
		},
		{
			"bufferView":1,
			"componentType":5126,
			"count":1409,
			"type":"VEC3"
		},
		{
			"bufferView":2,
			"componentType":5126,
			"count":1409,
			"type":"VEC2"
		},
		{
			"bufferView":3,
			"componentType":5121,
			"count":1409,
			"type":"VEC4"
		},
		{
			"bufferView":4,
			"componentType":5126,
			"count":1409,
			"type":"VEC4"
		},
		{
			"bufferView":5,
			"componentType":5123,
			"count":5808,
			"type":"SCALAR"
		},
		{
			"bufferView":6,
			"componentType":5126,
			"count":3309,
			"max":[
				0.12155210971832275,
				1.845504879951477,
				0.2845290005207062
			],
			"min":[
				-0.11920388042926788,
				1.288983941078186,
				-0.11377961188554764
			],
			"type":"VEC3"
		},
		{
			"bufferView":7,
			"componentType":5126,
			"count":3309,
			"type":"VEC3"
		},
		{
			"bufferView":8,
			"componentType":5126,
			"count":3309,
			"type":"VEC2"
		},
		{
			"bufferView":9,
			"componentType":5121,
			"count":3309,
			"type":"VEC4"
		},
		{
			"bufferView":10,
			"componentType":5126,
			"count":3309,
			"type":"VEC4"
		},
		{
			"bufferView":11,
			"componentType":5123,
			"count":10848,
			"type":"SCALAR"
		},
		{
			"bufferView":12,
			"componentType":5126,
			"count":1916,
			"max":[
				0.2723558843135834,
				1.4981790781021118,
				0.0918915718793869
			],
			"min":[
				-0.272355854511261,
				0.9410564303398132,
				-0.12239999324083328
			],
			"type":"VEC3"
		},
		{
			"bufferView":13,
			"componentType":5126,
			"count":1916,
			"type":"VEC3"
		},
		{
			"bufferView":14,
			"componentType":5126,
			"count":1916,
			"type":"VEC2"
		},
		{
			"bufferView":15,
			"componentType":5121,
			"count":1916,
			"type":"VEC4"
		},
		{
			"bufferView":16,
			"componentType":5126,
			"count":1916,
			"type":"VEC4"
		},
		{
			"bufferView":17,
			"componentType":5123,
			"count":8652,
			"type":"SCALAR"
		},
		{
			"bufferView":18,
			"componentType":5126,
			"count":76,
			"max":[
				0.16099929809570312,
				1.0175838470458984,
				0.10896890610456467
			],
			"min":[
				-0.16099929809570312,
				0.8975227475166321,
				-0.11086658388376236
			],
			"type":"VEC3"
		},
		{
			"bufferView":19,
			"componentType":5126,
			"count":76,
			"type":"VEC3"
		},
		{
			"bufferView":20,
			"componentType":5126,
			"count":76,
			"type":"VEC2"
		},
		{
			"bufferView":21,
			"componentType":5121,
			"count":76,
			"type":"VEC4"
		},
		{
			"bufferView":22,
			"componentType":5126,
			"count":76,
			"type":"VEC4"
		},
		{
			"bufferView":23,
			"componentType":5123,
			"count":264,
			"type":"SCALAR"
		},
		{
			"bufferView":24,
			"componentType":5126,
			"count":995,
			"max":[
				0.2705748677253723,
				0.9635562896728516,
				0.10868480801582336
			],
			"min":[
				-0.2705748677253723,
				0.307498961687088,
				-0.11086658388376236
			],
			"type":"VEC3"
		},
		{
			"bufferView":25,
			"componentType":5126,
			"count":995,
			"type":"VEC3"
		},
		{
			"bufferView":26,
			"componentType":5126,
			"count":995,
			"type":"VEC2"
		},
		{
			"bufferView":27,
			"componentType":5121,
			"count":995,
			"type":"VEC4"
		},
		{
			"bufferView":28,
			"componentType":5126,
			"count":995,
			"type":"VEC4"
		},
		{
			"bufferView":29,
			"componentType":5123,
			"count":4380,
			"type":"SCALAR"
		},
		{
			"bufferView":30,
			"componentType":5126,
			"count":1034,
			"max":[
				0.17385317385196686,
				0.3133198916912079,
				0.07523233443498611
			],
			"min":[
				-0.17385315895080566,
				0.007751374505460262,
				-0.1429227888584137
			],
			"type":"VEC3"
		},
		{
			"bufferView":31,
			"componentType":5126,
			"count":1034,
			"type":"VEC3"
		},
		{
			"bufferView":32,
			"componentType":5126,
			"count":1034,
			"type":"VEC2"
		},
		{
			"bufferView":33,
			"componentType":5121,
			"count":1034,
			"type":"VEC4"
		},
		{
			"bufferView":34,
			"componentType":5126,
			"count":1034,
			"type":"VEC4"
		},
		{
			"bufferView":35,
			"componentType":5123,
			"count":4608,
			"type":"SCALAR"
		},
		{
			"bufferView":36,
			"componentType":5126,
			"count":304,
			"max":[
				0.05201999843120575,
				1.7202298641204834,
				-0.0714000016450882
			],
			"min":[
				-0.05201999843120575,
				1.6967699527740479,
				-0.08975999802350998
			],
			"type":"VEC3"
		},
		{
			"bufferView":37,
			"componentType":5126,
			"count":304,
			"type":"VEC3"
		},
		{
			"bufferView":38,
			"componentType":5126,
			"count":304,
			"type":"VEC2"
		},
		{
			"bufferView":39,
			"componentType":5121,
			"count":304,
			"type":"VEC4"
		},
		{
			"bufferView":40,
			"componentType":5126,
			"count":304,
			"type":"VEC4"
		},
		{
			"bufferView":41,
			"componentType":5123,
			"count":1152,
			"type":"SCALAR"
		},
		{
			"bufferView":42,
			"componentType":5126,
			"count":220,
			"max":[
				0.04436999931931496,
				1.7184959650039673,
				-0.08284465223550797
			],
			"min":[
				-0.04436999931931496,
				1.6985039710998535,
				-0.09157534688711166
			],
			"type":"VEC3"
		},
		{
			"bufferView":43,
			"componentType":5126,
			"count":220,
			"type":"VEC3"
		},
		{
			"bufferView":44,
			"componentType":5126,
			"count":220,
			"type":"VEC2"
		},
		{
			"bufferView":45,
			"componentType":5121,
			"count":220,
			"type":"VEC4"
		},
		{
			"bufferView":46,
			"componentType":5126,
			"count":220,
			"type":"VEC4"
		},
		{
			"bufferView":47,
			"componentType":5123,
			"count":720,
			"type":"SCALAR"
		},
		{
			"bufferView":48,
			"componentType":5126,
			"count":160,
			"max":[
				0.03875432536005974,
				1.713089942932129,
				-0.08863584697246552
			],
			"min":[
				-0.03875432536005974,
				1.703909993171692,
				-0.09251615405082703
			],
			"type":"VEC3"
		},
		{
			"bufferView":49,
			"componentType":5126,
			"count":160,
			"type":"VEC3"
		},
		{
			"bufferView":50,
			"componentType":5126,
			"count":160,
			"type":"VEC2"
		},
		{
			"bufferView":51,
			"componentType":5121,
			"count":160,
			"type":"VEC4"
		},
		{
			"bufferView":52,
			"componentType":5126,
			"count":160,
			"type":"VEC4"
		},
		{
			"bufferView":53,
			"componentType":5123,
			"count":480,
			"type":"SCALAR"
		},
		{
			"bufferView":54,
			"componentType":5126,
			"count":98,
			"max":[
				0.019379999488592148,
				1.6396498680114746,
				-0.07927465438842773
			],
			"min":[
				-0.019379999488592148,
				1.6304700374603271,
				-0.08800534904003143
			],
			"type":"VEC3"
		},
		{
			"bufferView":55,
			"componentType":5126,
			"count":98,
			"type":"VEC3"
		},
		{
			"bufferView":56,
			"componentType":5126,
			"count":98,
			"type":"VEC2"
		},
		{
			"bufferView":57,
			"componentType":5121,
			"count":98,
			"type":"VEC4"
		},
		{
			"bufferView":58,
			"componentType":5126,
			"count":98,
			"type":"VEC4"
		},
		{
			"bufferView":59,
			"componentType":5123,
			"count":360,
			"type":"SCALAR"
		},
		{
			"bufferView":60,
			"componentType":5126,
			"count":90,
			"max":[
				0.017340000718832016,
				1.9195013046264648,
				-0.054928939789533615
			],
			"min":[
				-0.017340000718832016,
				1.805079698562622,
				-0.09877268970012665
			],
			"type":"VEC3"
		},
		{
			"bufferView":61,
			"componentType":5126,
			"count":90,
			"type":"VEC3"
		},
		{
			"bufferView":62,
			"componentType":5126,
			"count":90,
			"type":"VEC2"
		},
		{
			"bufferView":63,
			"componentType":5121,
			"count":90,
			"type":"VEC4"
		},
		{
			"bufferView":64,
			"componentType":5126,
			"count":90,
			"type":"VEC4"
		},
		{
			"bufferView":65,
			"componentType":5123,
			"count":288,
			"type":"SCALAR"
		},
		{
			"bufferView":66,
			"componentType":5126,
			"count":78,
			"max":[
				0.26927998661994934,
				1.0199999809265137,
				0.21323128044605255
			],
			"min":[
				-0.26927998661994934,
				0.6935999989509583,
				-0.21323128044605255
			],
			"type":"VEC3"
		},
		{
			"bufferView":67,
			"componentType":5126,
			"count":78,
			"type":"VEC3"
		},
		{
			"bufferView":68,
			"componentType":5126,
			"count":78,
			"type":"VEC2"
		},
		{
			"bufferView":69,
			"componentType":5121,
			"count":78,
			"type":"VEC4"
		},
		{
			"bufferView":70,
			"componentType":5126,
			"count":78,
			"type":"VEC4"
		},
		{
			"bufferView":71,
			"componentType":5123,
			"count":264,
			"type":"SCALAR"
		},
		{
			"bufferView":72,
			"componentType":5126,
			"count":24,
			"max":[
				0.025499999523162842,
				0.9894000291824341,
				-0.1055699959397316
			],
			"min":[
				-0.025499999523162842,
				0.9485999941825867,
				-0.11781000345945358
			],
			"type":"VEC3"
		},
		{
			"bufferView":73,
			"componentType":5126,
			"count":24,
			"type":"VEC3"
		},
		{
			"bufferView":74,
			"componentType":5126,
			"count":24,
			"type":"VEC2"
		},
		{
			"bufferView":75,
			"componentType":5121,
			"count":24,
			"type":"VEC4"
		},
		{
			"bufferView":76,
			"componentType":5126,
			"count":24,
			"type":"VEC4"
		},
		{
			"bufferView":77,
			"componentType":5123,
			"count":36,
			"type":"SCALAR"
		},
		{
			"bufferView":78,
			"componentType":5126,
			"count":108,
			"max":[
				0.25459200143814087,
				0.8429746031761169,
				-0.07270561158657074
			],
			"min":[
				0.24235199391841888,
				0.2266506850719452,
				-1.3351651430130005
			],
			"type":"VEC3"
		},
		{
			"bufferView":79,
			"componentType":5126,
			"count":108,
			"type":"VEC3"
		},
		{
			"bufferView":80,
			"componentType":5126,
			"count":108,
			"type":"VEC2"
		},
		{
			"bufferView":81,
			"componentType":5121,
			"count":108,
			"type":"VEC4"
		},
		{
			"bufferView":82,
			"componentType":5126,
			"count":108,
			"type":"VEC4"
		},
		{
			"bufferView":83,
			"componentType":5123,
			"count":156,
			"type":"SCALAR"
		},
		{
			"bufferView":84,
			"componentType":5126,
			"count":42,
			"max":[
				0.26479196548461914,
				0.8727397322654724,
				0.07421314716339111
			],
			"min":[
				0.23215198516845703,
				0.7760030627250671,
				-0.08800674974918365
			],
			"type":"VEC3"
		},
		{
			"bufferView":85,
			"componentType":5126,
			"count":42,
			"type":"VEC3"
		},
		{
			"bufferView":86,
			"componentType":5126,
			"count":42,
			"type":"VEC2"
		},
		{
			"bufferView":87,
			"componentType":5121,
			"count":42,
			"type":"VEC4"
		},
		{
			"bufferView":88,
			"componentType":5126,
			"count":42,
			"type":"VEC4"
		},
		{
			"bufferView":89,
			"componentType":5123,
			"count":96,
			"type":"SCALAR"
		},
		{
			"bufferView":90,
			"componentType":5126,
			"count":24,
			"max":[
				0.40147197246551514,
				0.8019999265670776,
				-0.07786118984222412
			],
			"min":[
				0.09547199308872223,
				0.7713999152183533,
				-0.10336118936538696
			],
			"type":"VEC3"
		},
		{
			"bufferView":91,
			"componentType":5126,
			"count":24,
			"type":"VEC3"
		},
		{
			"bufferView":92,
			"componentType":5126,
			"count":24,
			"type":"VEC2"
		},
		{
			"bufferView":93,
			"componentType":5121,
			"count":24,
			"type":"VEC4"
		},
		{
			"bufferView":94,
			"componentType":5126,
			"count":24,
			"type":"VEC4"
		},
		{
			"bufferView":95,
			"componentType":5126,
			"count":17,
			"type":"MAT4"
		},
		{
			"bufferView":96,
			"componentType":5126,
			"count":2,
			"max":[
				0.6
			],
			"min":[
				0
			],
			"type":"SCALAR"
		},
		{
			"bufferView":97,
			"componentType":5126,
			"count":2,
			"type":"VEC3"
		},
		{
			"bufferView":98,
			"componentType":5126,
			"count":2,
			"type":"VEC4"
		},
		{
			"bufferView":99,
			"componentType":5126,
			"count":2,
			"type":"VEC3"
		},
		{
			"bufferView":100,
			"componentType":5126,
			"count":2,
			"type":"VEC3"
		},
		{
			"bufferView":101,
			"componentType":5126,
			"count":2,
			"type":"VEC4"
		},
		{
			"bufferView":102,
			"componentType":5126,
			"count":2,
			"type":"VEC3"
		},
		{
			"bufferView":103,
			"componentType":5126,
			"count":2,
			"type":"VEC3"
		},
		{
			"bufferView":104,
			"componentType":5126,
			"count":19,
			"max":[
				0.6
			],
			"min":[
				0
			],
			"type":"SCALAR"
		},
		{
			"bufferView":105,
			"componentType":5126,
			"count":19,
			"type":"VEC4"
		},
		{
			"bufferView":106,
			"componentType":5126,
			"count":2,
			"type":"VEC3"
		},
		{
			"bufferView":107,
			"componentType":5126,
			"count":2,
			"type":"VEC3"
		},
		{
			"bufferView":108,
			"componentType":5126,
			"count":2,
			"type":"VEC4"
		},
		{
			"bufferView":109,
			"componentType":5126,
			"count":2,
			"type":"VEC3"
		},
		{
			"bufferView":110,
			"componentType":5126,
			"count":2,
			"type":"VEC3"
		},
		{
			"bufferView":111,
			"componentType":5126,
			"count":2,
			"type":"VEC4"
		},
		{
			"bufferView":112,
			"componentType":5126,
			"count":2,
			"type":"VEC3"
		},
		{
			"bufferView":113,
			"componentType":5126,
			"count":2,
			"type":"VEC3"
		},
		{
			"bufferView":114,
			"componentType":5126,
			"count":19,
			"type":"VEC4"
		},
		{
			"bufferView":115,
			"componentType":5126,
			"count":2,
			"type":"VEC3"
		},
		{
			"bufferView":116,
			"componentType":5126,
			"count":2,
			"type":"VEC3"
		},
		{
			"bufferView":117,
			"componentType":5126,
			"count":19,
			"type":"VEC4"
		},
		{
			"bufferView":118,
			"componentType":5126,
			"count":2,
			"type":"VEC3"
		},
		{
			"bufferView":119,
			"componentType":5126,
			"count":2,
			"type":"VEC3"
		},
		{
			"bufferView":120,
			"componentType":5126,
			"count":2,
			"type":"VEC4"
		},
		{
			"bufferView":121,
			"componentType":5126,
			"count":2,
			"type":"VEC3"
		},
		{
			"bufferView":122,
			"componentType":5126,
			"count":2,
			"type":"VEC3"
		},
		{
			"bufferView":123,
			"componentType":5126,
			"count":19,
			"type":"VEC4"
		},
		{
			"bufferView":124,
			"componentType":5126,
			"count":2,
			"type":"VEC3"
		},
		{
			"bufferView":125,
			"componentType":5126,
			"count":2,
			"type":"VEC3"
		},
		{
			"bufferView":126,
			"componentType":5126,
			"count":2,
			"type":"VEC4"
		},
		{
			"bufferView":127,
			"componentType":5126,
			"count":2,
			"type":"VEC3"
		},
		{
			"bufferView":128,
			"componentType":5126,
			"count":2,
			"type":"VEC3"
		},
		{
			"bufferView":129,
			"componentType":5126,
			"count":2,
			"type":"VEC4"
		},
		{
			"bufferView":130,
			"componentType":5126,
			"count":2,
			"type":"VEC3"
		},
		{
			"bufferView":131,
			"componentType":5126,
			"count":2,
			"type":"VEC3"
		},
		{
			"bufferView":132,
			"componentType":5126,
			"count":19,
			"type":"VEC4"
		},
		{
			"bufferView":133,
			"componentType":5126,
			"count":2,
			"type":"VEC3"
		},
		{
			"bufferView":134,
			"componentType":5126,
			"count":2,
			"type":"VEC3"
		},
		{
			"bufferView":135,
			"componentType":5126,
			"count":2,
			"type":"VEC4"
		},
		{
			"bufferView":136,
			"componentType":5126,
			"count":2,
			"type":"VEC3"
		},
		{
			"bufferView":137,
			"componentType":5126,
			"count":2,
			"type":"VEC3"
		},
		{
			"bufferView":138,
			"componentType":5126,
			"count":2,
			"type":"VEC4"
		},
		{
			"bufferView":139,
			"componentType":5126,
			"count":2,
			"type":"VEC3"
		},
		{
			"bufferView":140,
			"componentType":5126,
			"count":2,
			"type":"VEC3"
		},
		{
			"bufferView":141,
			"componentType":5126,
			"count":19,
			"type":"VEC4"
		},
		{
			"bufferView":142,
			"componentType":5126,
			"count":2,
			"type":"VEC3"
		},
		{
			"bufferView":143,
			"componentType":5126,
			"count":2,
			"type":"VEC3"
		},
		{
			"bufferView":144,
			"componentType":5126,
			"count":2,
			"type":"VEC4"
		},
		{
			"bufferView":145,
			"componentType":5126,
			"count":2,
			"type":"VEC3"
		},
		{
			"bufferView":146,
			"componentType":5126,
			"count":2,
			"type":"VEC3"
		},
		{
			"bufferView":147,
			"componentType":5126,
			"count":2,
			"type":"VEC4"
		},
		{
			"bufferView":148,
			"componentType":5126,
			"count":2,
			"type":"VEC3"
		},
		{
			"bufferView":149,
			"componentType":5126,
			"count":61,
			"max":[
				2
			],
			"min":[
				0
			],
			"type":"SCALAR"
		},
		{
			"bufferView":150,
			"componentType":5126,
			"count":61,
			"type":"VEC3"
		},
		{
			"bufferView":151,
			"componentType":5126,
			"count":2,
			"max":[
				2
			],
			"min":[
				0
			],
			"type":"SCALAR"
		},
		{
			"bufferView":152,
			"componentType":5126,
			"count":2,
			"type":"VEC4"
		},
		{
			"bufferView":153,
			"componentType":5126,
			"count":2,
			"type":"VEC3"
		},
		{
			"bufferView":154,
			"componentType":5126,
			"count":2,
			"type":"VEC3"
		},
		{
			"bufferView":155,
			"componentType":5126,
			"count":2,
			"type":"VEC4"
		},
		{
			"bufferView":156,
			"componentType":5126,
			"count":2,
			"type":"VEC3"
		},
		{
			"bufferView":157,
			"componentType":5126,
			"count":2,
			"type":"VEC3"
		},
		{
			"bufferView":158,
			"componentType":5126,
			"count":61,
			"type":"VEC4"
		},
		{
			"bufferView":159,
			"componentType":5126,
			"count":2,
			"type":"VEC3"
		},
		{
			"bufferView":160,
			"componentType":5126,
			"count":2,
			"type":"VEC3"
		},
		{
			"bufferView":161,
			"componentType":5126,
			"count":2,
			"type":"VEC4"
		},
		{
			"bufferView":162,
			"componentType":5126,
			"count":2,
			"type":"VEC3"
		},
		{
			"bufferView":163,
			"componentType":5126,
			"count":2,
			"type":"VEC3"
		},
		{
			"bufferView":164,
			"componentType":5126,
			"count":61,
			"type":"VEC4"
		},
		{
			"bufferView":165,
			"componentType":5126,
			"count":2,
			"type":"VEC3"
		},
		{
			"bufferView":166,
			"componentType":5126,
			"count":2,
			"type":"VEC3"
		},
		{
			"bufferView":167,
			"componentType":5126,
			"count":61,
			"type":"VEC4"
		},
		{
			"bufferView":168,
			"componentType":5126,
			"count":2,
			"type":"VEC3"
		},
		{
			"bufferView":169,
			"componentType":5126,
			"count":2,
			"type":"VEC3"
		},
		{
			"bufferView":170,
			"componentType":5126,
			"count":2,
			"type":"VEC4"
		},
		{
			"bufferView":171,
			"componentType":5126,
			"count":2,
			"type":"VEC3"
		},
		{
			"bufferView":172,
			"componentType":5126,
			"count":2,
			"type":"VEC3"
		},
		{
			"bufferView":173,
			"componentType":5126,
			"count":2,
			"type":"VEC4"
		},
		{
			"bufferView":174,
			"componentType":5126,
			"count":2,
			"type":"VEC3"
		},
		{
			"bufferView":175,
			"componentType":5126,
			"count":2,
			"type":"VEC3"
		},
		{
			"bufferView":176,
			"componentType":5126,
			"count":61,
			"type":"VEC4"
		},
		{
			"bufferView":177,
			"componentType":5126,
			"count":2,
			"type":"VEC3"
		},
		{
			"bufferView":178,
			"componentType":5126,
			"count":2,
			"type":"VEC3"
		},
		{
			"bufferView":179,
			"componentType":5126,
			"count":2,
			"type":"VEC4"
		},
		{
			"bufferView":180,
			"componentType":5126,
			"count":2,
			"type":"VEC3"
		},
		{
			"bufferView":181,
			"componentType":5126,
			"count":2,
			"type":"VEC3"
		},
		{
			"bufferView":182,
			"componentType":5126,
			"count":2,
			"type":"VEC4"
		},
		{
			"bufferView":183,
			"componentType":5126,
			"count":2,
			"type":"VEC3"
		},
		{
			"bufferView":184,
			"componentType":5126,
			"count":2,
			"type":"VEC3"
		},
		{
			"bufferView":185,
			"componentType":5126,
			"count":2,
			"type":"VEC4"
		},
		{
			"bufferView":186,
			"componentType":5126,
			"count":2,
			"type":"VEC3"
		},
		{
			"bufferView":187,
			"componentType":5126,
			"count":2,
			"type":"VEC3"
		},
		{
			"bufferView":188,
			"componentType":5126,
			"count":2,
			"type":"VEC4"
		},
		{
			"bufferView":189,
			"componentType":5126,
			"count":2,
			"type":"VEC3"
		},
		{
			"bufferView":190,
			"componentType":5126,
			"count":2,
			"type":"VEC3"
		},
		{
			"bufferView":191,
			"componentType":5126,
			"count":2,
			"type":"VEC4"
		},
		{
			"bufferView":192,
			"componentType":5126,
			"count":2,
			"type":"VEC3"
		},
		{
			"bufferView":193,
			"componentType":5126,
			"count":2,
			"type":"VEC3"
		},
		{
			"bufferView":194,
			"componentType":5126,
			"count":2,
			"type":"VEC4"
		},
		{
			"bufferView":195,
			"componentType":5126,
			"count":2,
			"type":"VEC3"
		},
		{
			"bufferView":196,
			"componentType":5126,
			"count":2,
			"type":"VEC3"
		},
		{
			"bufferView":197,
			"componentType":5126,
			"count":2,
			"type":"VEC4"
		},
		{
			"bufferView":198,
			"componentType":5126,
			"count":2,
			"type":"VEC3"
		},
		{
			"bufferView":199,
			"componentType":5126,
			"count":2,
			"type":"VEC3"
		},
		{
			"bufferView":200,
			"componentType":5126,
			"count":2,
			"type":"VEC4"
		},
		{
			"bufferView":201,
			"componentType":5126,
			"count":2,
			"type":"VEC3"
		},
		{
			"bufferView":202,
			"componentType":5126,
			"count":31,
			"max":[
				1
			],
			"min":[
				0
			],
			"type":"SCALAR"
		},
		{
			"bufferView":203,
			"componentType":5126,
			"count":31,
			"type":"VEC3"
		},
		{
			"bufferView":204,
			"componentType":5126,
			"count":31,
			"type":"VEC4"
		},
		{
			"bufferView":205,
			"componentType":5126,
			"count":2,
			"max":[
				1
			],
			"min":[
				0
			],
			"type":"SCALAR"
		},
		{
			"bufferView":206,
			"componentType":5126,
			"count":2,
			"type":"VEC3"
		},
		{
			"bufferView":207,
			"componentType":5126,
			"count":2,
			"type":"VEC3"
		},
		{
			"bufferView":208,
			"componentType":5126,
			"count":2,
			"type":"VEC4"
		},
		{
			"bufferView":209,
			"componentType":5126,
			"count":2,
			"type":"VEC3"
		},
		{
			"bufferView":210,
			"componentType":5126,
			"count":2,
			"type":"VEC3"
		},
		{
			"bufferView":211,
			"componentType":5126,
			"count":31,
			"type":"VEC4"
		},
		{
			"bufferView":212,
			"componentType":5126,
			"count":2,
			"type":"VEC3"
		},
		{
			"bufferView":213,
			"componentType":5126,
			"count":2,
			"type":"VEC3"
		},
		{
			"bufferView":214,
			"componentType":5126,
			"count":2,
			"type":"VEC4"
		},
		{
			"bufferView":215,
			"componentType":5126,
			"count":2,
			"type":"VEC3"
		},
		{
			"bufferView":216,
			"componentType":5126,
			"count":2,
			"type":"VEC3"
		},
		{
			"bufferView":217,
			"componentType":5126,
			"count":2,
			"type":"VEC4"
		},
		{
			"bufferView":218,
			"componentType":5126,
			"count":2,
			"type":"VEC3"
		},
		{
			"bufferView":219,
			"componentType":5126,
			"count":2,
			"type":"VEC3"
		},
		{
			"bufferView":220,
			"componentType":5126,
			"count":31,
			"type":"VEC4"
		},
		{
			"bufferView":221,
			"componentType":5126,
			"count":2,
			"type":"VEC3"
		},
		{
			"bufferView":222,
			"componentType":5126,
			"count":2,
			"type":"VEC3"
		},
		{
			"bufferView":223,
			"componentType":5126,
			"count":2,
			"type":"VEC4"
		},
		{
			"bufferView":224,
			"componentType":5126,
			"count":2,
			"type":"VEC3"
		},
		{
			"bufferView":225,
			"componentType":5126,
			"count":2,
			"type":"VEC3"
		},
		{
			"bufferView":226,
			"componentType":5126,
			"count":2,
			"type":"VEC4"
		},
		{
			"bufferView":227,
			"componentType":5126,
			"count":2,
			"type":"VEC3"
		},
		{
			"bufferView":228,
			"componentType":5126,
			"count":2,
			"type":"VEC3"
		},
		{
			"bufferView":229,
			"componentType":5126,
			"count":31,
			"type":"VEC4"
		},
		{
			"bufferView":230,
			"componentType":5126,
			"count":2,
			"type":"VEC3"
		},
		{
			"bufferView":231,
			"componentType":5126,
			"count":2,
			"type":"VEC3"
		},
		{
			"bufferView":232,
			"componentType":5126,
			"count":2,
			"type":"VEC4"
		},
		{
			"bufferView":233,
			"componentType":5126,
			"count":2,
			"type":"VEC3"
		},
		{
			"bufferView":234,
			"componentType":5126,
			"count":2,
			"type":"VEC3"
		},
		{
			"bufferView":235,
			"componentType":5126,
			"count":2,
			"type":"VEC4"
		},
		{
			"bufferView":236,
			"componentType":5126,
			"count":2,
			"type":"VEC3"
		},
		{
			"bufferView":237,
			"componentType":5126,
			"count":2,
			"type":"VEC3"
		},
		{
			"bufferView":238,
			"componentType":5126,
			"count":31,
			"type":"VEC4"
		},
		{
			"bufferView":239,
			"componentType":5126,
			"count":2,
			"type":"VEC3"
		},
		{
			"bufferView":240,
			"componentType":5126,
			"count":2,
			"type":"VEC3"
		},
		{
			"bufferView":241,
			"componentType":5126,
			"count":31,
			"type":"VEC4"
		},
		{
			"bufferView":242,
			"componentType":5126,
			"count":2,
			"type":"VEC3"
		},
		{
			"bufferView":243,
			"componentType":5126,
			"count":2,
			"type":"VEC3"
		},
		{
			"bufferView":244,
			"componentType":5126,
			"count":31,
			"type":"VEC4"
		},
		{
			"bufferView":245,
			"componentType":5126,
			"count":2,
			"type":"VEC3"
		},
		{
			"bufferView":246,
			"componentType":5126,
			"count":2,
			"type":"VEC3"
		},
		{
			"bufferView":247,
			"componentType":5126,
			"count":31,
			"type":"VEC4"
		},
		{
			"bufferView":248,
			"componentType":5126,
			"count":2,
			"type":"VEC3"
		},
		{
			"bufferView":249,
			"componentType":5126,
			"count":2,
			"type":"VEC3"
		},
		{
			"bufferView":250,
			"componentType":5126,
			"count":31,
			"type":"VEC4"
		},
		{
			"bufferView":251,
			"componentType":5126,
			"count":2,
			"type":"VEC3"
		},
		{
			"bufferView":252,
			"componentType":5126,
			"count":2,
			"type":"VEC3"
		},
		{
			"bufferView":253,
			"componentType":5126,
			"count":31,
			"type":"VEC4"
		},
		{
			"bufferView":254,
			"componentType":5126,
			"count":2,
			"type":"VEC3"
		}
	],
	"bufferViews":[
		{
			"buffer":0,
			"byteLength":16908,
			"byteOffset":0,
			"target":34962
		},
		{
			"buffer":0,
			"byteLength":16908,
			"byteOffset":16908,
			"target":34962
		},
		{
			"buffer":0,
			"byteLength":11272,
			"byteOffset":33816,
			"target":34962
		},
		{
			"buffer":0,
			"byteLength":5636,
			"byteOffset":45088,
			"target":34962
		},
		{
			"buffer":0,
			"byteLength":22544,
			"byteOffset":50724,
			"target":34962
		},
		{
			"buffer":0,
			"byteLength":11616,
			"byteOffset":73268,
			"target":34963
		},
		{
			"buffer":0,
			"byteLength":39708,
			"byteOffset":84884,
			"target":34962
		},
		{
			"buffer":0,
			"byteLength":39708,
			"byteOffset":124592,
			"target":34962
		},
		{
			"buffer":0,
			"byteLength":26472,
			"byteOffset":164300,
			"target":34962
		},
		{
			"buffer":0,
			"byteLength":13236,
			"byteOffset":190772,
			"target":34962
		},
		{
			"buffer":0,
			"byteLength":52944,
			"byteOffset":204008,
			"target":34962
		},
		{
			"buffer":0,
			"byteLength":21696,
			"byteOffset":256952,
			"target":34963
		},
		{
			"buffer":0,
			"byteLength":22992,
			"byteOffset":278648,
			"target":34962
		},
		{
			"buffer":0,
			"byteLength":22992,
			"byteOffset":301640,
			"target":34962
		},
		{
			"buffer":0,
			"byteLength":15328,
			"byteOffset":324632,
			"target":34962
		},
		{
			"buffer":0,
			"byteLength":7664,
			"byteOffset":339960,
			"target":34962
		},
		{
			"buffer":0,
			"byteLength":30656,
			"byteOffset":347624,
			"target":34962
		},
		{
			"buffer":0,
			"byteLength":17304,
			"byteOffset":378280,
			"target":34963
		},
		{
			"buffer":0,
			"byteLength":912,
			"byteOffset":395584,
			"target":34962
		},
		{
			"buffer":0,
			"byteLength":912,
			"byteOffset":396496,
			"target":34962
		},
		{
			"buffer":0,
			"byteLength":608,
			"byteOffset":397408,
			"target":34962
		},
		{
			"buffer":0,
			"byteLength":304,
			"byteOffset":398016,
			"target":34962
		},
		{
			"buffer":0,
			"byteLength":1216,
			"byteOffset":398320,
			"target":34962
		},
		{
			"buffer":0,
			"byteLength":528,
			"byteOffset":399536,
			"target":34963
		},
		{
			"buffer":0,
			"byteLength":11940,
			"byteOffset":400064,
			"target":34962
		},
		{
			"buffer":0,
			"byteLength":11940,
			"byteOffset":412004,
			"target":34962
		},
		{
			"buffer":0,
			"byteLength":7960,
			"byteOffset":423944,
			"target":34962
		},
		{
			"buffer":0,
			"byteLength":3980,
			"byteOffset":431904,
			"target":34962
		},
		{
			"buffer":0,
			"byteLength":15920,
			"byteOffset":435884,
			"target":34962
		},
		{
			"buffer":0,
			"byteLength":8760,
			"byteOffset":451804,
			"target":34963
		},
		{
			"buffer":0,
			"byteLength":12408,
			"byteOffset":460564,
			"target":34962
		},
		{
			"buffer":0,
			"byteLength":12408,
			"byteOffset":472972,
			"target":34962
		},
		{
			"buffer":0,
			"byteLength":8272,
			"byteOffset":485380,
			"target":34962
		},
		{
			"buffer":0,
			"byteLength":4136,
			"byteOffset":493652,
			"target":34962
		},
		{
			"buffer":0,
			"byteLength":16544,
			"byteOffset":497788,
			"target":34962
		},
		{
			"buffer":0,
			"byteLength":9216,
			"byteOffset":514332,
			"target":34963
		},
		{
			"buffer":0,
			"byteLength":3648,
			"byteOffset":523548,
			"target":34962
		},
		{
			"buffer":0,
			"byteLength":3648,
			"byteOffset":527196,
			"target":34962
		},
		{
			"buffer":0,
			"byteLength":2432,
			"byteOffset":530844,
			"target":34962
		},
		{
			"buffer":0,
			"byteLength":1216,
			"byteOffset":533276,
			"target":34962
		},
		{
			"buffer":0,
			"byteLength":4864,
			"byteOffset":534492,
			"target":34962
		},
		{
			"buffer":0,
			"byteLength":2304,
			"byteOffset":539356,
			"target":34963
		},
		{
			"buffer":0,
			"byteLength":2640,
			"byteOffset":541660,
			"target":34962
		},
		{
			"buffer":0,
			"byteLength":2640,
			"byteOffset":544300,
			"target":34962
		},
		{
			"buffer":0,
			"byteLength":1760,
			"byteOffset":546940,
			"target":34962
		},
		{
			"buffer":0,
			"byteLength":880,
			"byteOffset":548700,
			"target":34962
		},
		{
			"buffer":0,
			"byteLength":3520,
			"byteOffset":549580,
			"target":34962
		},
		{
			"buffer":0,
			"byteLength":1440,
			"byteOffset":553100,
			"target":34963
		},
		{
			"buffer":0,
			"byteLength":1920,
			"byteOffset":554540,
			"target":34962
		},
		{
			"buffer":0,
			"byteLength":1920,
			"byteOffset":556460,
			"target":34962
		},
		{
			"buffer":0,
			"byteLength":1280,
			"byteOffset":558380,
			"target":34962
		},
		{
			"buffer":0,
			"byteLength":640,
			"byteOffset":559660,
			"target":34962
		},
		{
			"buffer":0,
			"byteLength":2560,
			"byteOffset":560300,
			"target":34962
		},
		{
			"buffer":0,
			"byteLength":960,
			"byteOffset":562860,
			"target":34963
		},
		{
			"buffer":0,
			"byteLength":1176,
			"byteOffset":563820,
			"target":34962
		},
		{
			"buffer":0,
			"byteLength":1176,
			"byteOffset":564996,
			"target":34962
		},
		{
			"buffer":0,
			"byteLength":784,
			"byteOffset":566172,
			"target":34962
		},
		{
			"buffer":0,
			"byteLength":392,
			"byteOffset":566956,
			"target":34962
		},
		{
			"buffer":0,
			"byteLength":1568,
			"byteOffset":567348,
			"target":34962
		},
		{
			"buffer":0,
			"byteLength":720,
			"byteOffset":568916,
			"target":34963
		},
		{
			"buffer":0,
			"byteLength":1080,
			"byteOffset":569636,
			"target":34962
		},
		{
			"buffer":0,
			"byteLength":1080,
			"byteOffset":570716,
			"target":34962
		},
		{
			"buffer":0,
			"byteLength":720,
			"byteOffset":571796,
			"target":34962
		},
		{
			"buffer":0,
			"byteLength":360,
			"byteOffset":572516,
			"target":34962
		},
		{
			"buffer":0,
			"byteLength":1440,
			"byteOffset":572876,
			"target":34962
		},
		{
			"buffer":0,
			"byteLength":576,
			"byteOffset":574316,
			"target":34963
		},
		{
			"buffer":0,
			"byteLength":936,
			"byteOffset":574892,
			"target":34962
		},
		{
			"buffer":0,
			"byteLength":936,
			"byteOffset":575828,
			"target":34962
		},
		{
			"buffer":0,
			"byteLength":624,
			"byteOffset":576764,
			"target":34962
		},
		{
			"buffer":0,
			"byteLength":312,
			"byteOffset":577388,
			"target":34962
		},
		{
			"buffer":0,
			"byteLength":1248,
			"byteOffset":577700,
			"target":34962
		},
		{
			"buffer":0,
			"byteLength":528,
			"byteOffset":578948,
			"target":34963
		},
		{
			"buffer":0,
			"byteLength":288,
			"byteOffset":579476,
			"target":34962
		},
		{
			"buffer":0,
			"byteLength":288,
			"byteOffset":579764,
			"target":34962
		},
		{
			"buffer":0,
			"byteLength":192,
			"byteOffset":580052,
			"target":34962
		},
		{
			"buffer":0,
			"byteLength":96,
			"byteOffset":580244,
			"target":34962
		},
		{
			"buffer":0,
			"byteLength":384,
			"byteOffset":580340,
			"target":34962
		},
		{
			"buffer":0,
			"byteLength":72,
			"byteOffset":580724,
			"target":34963
		},
		{
			"buffer":0,
			"byteLength":1296,
			"byteOffset":580796,
			"target":34962
		},
		{
			"buffer":0,
			"byteLength":1296,
			"byteOffset":582092,
			"target":34962
		},
		{
			"buffer":0,
			"byteLength":864,
			"byteOffset":583388,
			"target":34962
		},
		{
			"buffer":0,
			"byteLength":432,
			"byteOffset":584252,
			"target":34962
		},
		{
			"buffer":0,
			"byteLength":1728,
			"byteOffset":584684,
			"target":34962
		},
		{
			"buffer":0,
			"byteLength":312,
			"byteOffset":586412,
			"target":34963
		},
		{
			"buffer":0,
			"byteLength":504,
			"byteOffset":586724,
			"target":34962
		},
		{
			"buffer":0,
			"byteLength":504,
			"byteOffset":587228,
			"target":34962
		},
		{
			"buffer":0,
			"byteLength":336,
			"byteOffset":587732,
			"target":34962
		},
		{
			"buffer":0,
			"byteLength":168,
			"byteOffset":588068,
			"target":34962
		},
		{
			"buffer":0,
			"byteLength":672,
			"byteOffset":588236,
			"target":34962
		},
		{
			"buffer":0,
			"byteLength":192,
			"byteOffset":588908,
			"target":34963
		},
		{
			"buffer":0,
			"byteLength":288,
			"byteOffset":589100,
			"target":34962
		},
		{
			"buffer":0,
			"byteLength":288,
			"byteOffset":589388,
			"target":34962
		},
		{
			"buffer":0,
			"byteLength":192,
			"byteOffset":589676,
			"target":34962
		},
		{
			"buffer":0,
			"byteLength":96,
			"byteOffset":589868,
			"target":34962
		},
		{
			"buffer":0,
			"byteLength":384,
			"byteOffset":589964,
			"target":34962
		},
		{
			"buffer":0,
			"byteLength":1088,
			"byteOffset":590348
		},
		{
			"buffer":0,
			"byteLength":8,
			"byteOffset":591436
		},
		{
			"buffer":0,
			"byteLength":24,
			"byteOffset":591444
		},
		{
			"buffer":0,
			"byteLength":32,
			"byteOffset":591468
		},
		{
			"buffer":0,
			"byteLength":24,
			"byteOffset":591500
		},
		{
			"buffer":0,
			"byteLength":24,
			"byteOffset":591524
		},
		{
			"buffer":0,
			"byteLength":32,
			"byteOffset":591548
		},
		{
			"buffer":0,
			"byteLength":24,
			"byteOffset":591580
		},
		{
			"buffer":0,
			"byteLength":24,
			"byteOffset":591604
		},
		{
			"buffer":0,
			"byteLength":76,
			"byteOffset":591628
		},
		{
			"buffer":0,
			"byteLength":304,
			"byteOffset":591704
		},
		{
			"buffer":0,
			"byteLength":24,
			"byteOffset":592008
		},
		{
			"buffer":0,
			"byteLength":24,
			"byteOffset":592032
		},
		{
			"buffer":0,
			"byteLength":32,
			"byteOffset":592056
		},
		{
			"buffer":0,
			"byteLength":24,
			"byteOffset":592088
		},
		{
			"buffer":0,
			"byteLength":24,
			"byteOffset":592112
		},
		{
			"buffer":0,
			"byteLength":32,
			"byteOffset":592136
		},
		{
			"buffer":0,
			"byteLength":24,
			"byteOffset":592168
		},
		{
			"buffer":0,
			"byteLength":24,
			"byteOffset":592192
		},
		{
			"buffer":0,
			"byteLength":304,
			"byteOffset":592216
		},
		{
			"buffer":0,
			"byteLength":24,
			"byteOffset":592520
		},
		{
			"buffer":0,
			"byteLength":24,
			"byteOffset":592544
		},
		{
			"buffer":0,
			"byteLength":304,
			"byteOffset":592568
		},
		{
			"buffer":0,
			"byteLength":24,
			"byteOffset":592872
		},
		{
			"buffer":0,
			"byteLength":24,
			"byteOffset":592896
		},
		{
			"buffer":0,
			"byteLength":32,
			"byteOffset":592920
		},
		{
			"buffer":0,
			"byteLength":24,
			"byteOffset":592952
		},
		{
			"buffer":0,
			"byteLength":24,
			"byteOffset":592976
		},
		{
			"buffer":0,
			"byteLength":304,
			"byteOffset":593000
		},
		{
			"buffer":0,
			"byteLength":24,
			"byteOffset":593304
		},
		{
			"buffer":0,
			"byteLength":24,
			"byteOffset":593328
		},
		{
			"buffer":0,
			"byteLength":32,
			"byteOffset":593352
		},
		{
			"buffer":0,
			"byteLength":24,
			"byteOffset":593384
		},
		{
			"buffer":0,
			"byteLength":24,
			"byteOffset":593408
		},
		{
			"buffer":0,
			"byteLength":32,
			"byteOffset":593432
		},
		{
			"buffer":0,
			"byteLength":24,
			"byteOffset":593464
		},
		{
			"buffer":0,
			"byteLength":24,
			"byteOffset":593488
		},
		{
			"buffer":0,
			"byteLength":304,
			"byteOffset":593512
		},
		{
			"buffer":0,
			"byteLength":24,
			"byteOffset":593816
		},
		{
			"buffer":0,
			"byteLength":24,
			"byteOffset":593840
		},
		{
			"buffer":0,
			"byteLength":32,
			"byteOffset":593864
		},
		{
			"buffer":0,
			"byteLength":24,
			"byteOffset":593896
		},
		{
			"buffer":0,
			"byteLength":24,
			"byteOffset":593920
		},
		{
			"buffer":0,
			"byteLength":32,
			"byteOffset":593944
		},
		{
			"buffer":0,
			"byteLength":24,
			"byteOffset":593976
		},
		{
			"buffer":0,
			"byteLength":24,
			"byteOffset":594000
		},
		{
			"buffer":0,
			"byteLength":304,
			"byteOffset":594024
		},
		{
			"buffer":0,
			"byteLength":24,
			"byteOffset":594328
		},
		{
			"buffer":0,
			"byteLength":24,
			"byteOffset":594352
		},
		{
			"buffer":0,
			"byteLength":32,
			"byteOffset":594376
		},
		{
			"buffer":0,
			"byteLength":24,
			"byteOffset":594408
		},
		{
			"buffer":0,
			"byteLength":24,
			"byteOffset":594432
		},
		{
			"buffer":0,
			"byteLength":32,
			"byteOffset":594456
		},
		{
			"buffer":0,
			"byteLength":24,
			"byteOffset":594488
		},
		{
			"buffer":0,
			"byteLength":244,
			"byteOffset":594512
		},
		{
			"buffer":0,
			"byteLength":732,
			"byteOffset":594756
		},
		{
			"buffer":0,
			"byteLength":8,
			"byteOffset":595488
		},
		{
			"buffer":0,
			"byteLength":32,
			"byteOffset":595496
		},
		{
			"buffer":0,
			"byteLength":24,
			"byteOffset":595528
		},
		{
			"buffer":0,
			"byteLength":24,
			"byteOffset":595552
		},
		{
			"buffer":0,
			"byteLength":32,
			"byteOffset":595576
		},
		{
			"buffer":0,
			"byteLength":24,
			"byteOffset":595608
		},
		{
			"buffer":0,
			"byteLength":24,
			"byteOffset":595632
		},
		{
			"buffer":0,
			"byteLength":976,
			"byteOffset":595656
		},
		{
			"buffer":0,
			"byteLength":24,
			"byteOffset":596632
		},
		{
			"buffer":0,
			"byteLength":24,
			"byteOffset":596656
		},
		{
			"buffer":0,
			"byteLength":32,
			"byteOffset":596680
		},
		{
			"buffer":0,
			"byteLength":24,
			"byteOffset":596712
		},
		{
			"buffer":0,
			"byteLength":24,
			"byteOffset":596736
		},
		{
			"buffer":0,
			"byteLength":976,
			"byteOffset":596760
		},
		{
			"buffer":0,
			"byteLength":24,
			"byteOffset":597736
		},
		{
			"buffer":0,
			"byteLength":24,
			"byteOffset":597760
		},
		{
			"buffer":0,
			"byteLength":976,
			"byteOffset":597784
		},
		{
			"buffer":0,
			"byteLength":24,
			"byteOffset":598760
		},
		{
			"buffer":0,
			"byteLength":24,
			"byteOffset":598784
		},
		{
			"buffer":0,
			"byteLength":32,
			"byteOffset":598808
		},
		{
			"buffer":0,
			"byteLength":24,
			"byteOffset":598840
		},
		{
			"buffer":0,
			"byteLength":24,
			"byteOffset":598864
		},
		{
			"buffer":0,
			"byteLength":32,
			"byteOffset":598888
		},
		{
			"buffer":0,
			"byteLength":24,
			"byteOffset":598920
		},
		{
			"buffer":0,
			"byteLength":24,
			"byteOffset":598944
		},
		{
			"buffer":0,
			"byteLength":976,
			"byteOffset":598968
		},
		{
			"buffer":0,
			"byteLength":24,
			"byteOffset":599944
		},
		{
			"buffer":0,
			"byteLength":24,
			"byteOffset":599968
		},
		{
			"buffer":0,
			"byteLength":32,
			"byteOffset":599992
		},
		{
			"buffer":0,
			"byteLength":24,
			"byteOffset":600024
		},
		{
			"buffer":0,
			"byteLength":24,
			"byteOffset":600048
		},
		{
			"buffer":0,
			"byteLength":32,
			"byteOffset":600072
		},
		{
			"buffer":0,
			"byteLength":24,
			"byteOffset":600104
		},
		{
			"buffer":0,
			"byteLength":24,
			"byteOffset":600128
		},
		{
			"buffer":0,
			"byteLength":32,
			"byteOffset":600152
		},
		{
			"buffer":0,
			"byteLength":24,
			"byteOffset":600184
		},
		{
			"buffer":0,
			"byteLength":24,
			"byteOffset":600208
		},
		{
			"buffer":0,
			"byteLength":32,
			"byteOffset":600232
		},
		{
			"buffer":0,
			"byteLength":24,
			"byteOffset":600264
		},
		{
			"buffer":0,
			"byteLength":24,
			"byteOffset":600288
		},
		{
			"buffer":0,
			"byteLength":32,
			"byteOffset":600312
		},
		{
			"buffer":0,
			"byteLength":24,
			"byteOffset":600344
		},
		{
			"buffer":0,
			"byteLength":24,
			"byteOffset":600368
		},
		{
			"buffer":0,
			"byteLength":32,
			"byteOffset":600392
		},
		{
			"buffer":0,
			"byteLength":24,
			"byteOffset":600424
		},
		{
			"buffer":0,
			"byteLength":24,
			"byteOffset":600448
		},
		{
			"buffer":0,
			"byteLength":32,
			"byteOffset":600472
		},
		{
			"buffer":0,
			"byteLength":24,
			"byteOffset":600504
		},
		{
			"buffer":0,
			"byteLength":24,
			"byteOffset":600528
		},
		{
			"buffer":0,
			"byteLength":32,
			"byteOffset":600552
		},
		{
			"buffer":0,
			"byteLength":24,
			"byteOffset":600584
		},
		{
			"buffer":0,
			"byteLength":124,
			"byteOffset":600608
		},
		{
			"buffer":0,
			"byteLength":372,
			"byteOffset":600732
		},
		{
			"buffer":0,
			"byteLength":496,
			"byteOffset":601104
		},
		{
			"buffer":0,
			"byteLength":8,
			"byteOffset":601600
		},
		{
			"buffer":0,
			"byteLength":24,
			"byteOffset":601608
		},
		{
			"buffer":0,
			"byteLength":24,
			"byteOffset":601632
		},
		{
			"buffer":0,
			"byteLength":32,
			"byteOffset":601656
		},
		{
			"buffer":0,
			"byteLength":24,
			"byteOffset":601688
		},
		{
			"buffer":0,
			"byteLength":24,
			"byteOffset":601712
		},
		{
			"buffer":0,
			"byteLength":496,
			"byteOffset":601736
		},
		{
			"buffer":0,
			"byteLength":24,
			"byteOffset":602232
		},
		{
			"buffer":0,
			"byteLength":24,
			"byteOffset":602256
		},
		{
			"buffer":0,
			"byteLength":32,
			"byteOffset":602280
		},
		{
			"buffer":0,
			"byteLength":24,
			"byteOffset":602312
		},
		{
			"buffer":0,
			"byteLength":24,
			"byteOffset":602336
		},
		{
			"buffer":0,
			"byteLength":32,
			"byteOffset":602360
		},
		{
			"buffer":0,
			"byteLength":24,
			"byteOffset":602392
		},
		{
			"buffer":0,
			"byteLength":24,
			"byteOffset":602416
		},
		{
			"buffer":0,
			"byteLength":496,
			"byteOffset":602440
		},
		{
			"buffer":0,
			"byteLength":24,
			"byteOffset":602936
		},
		{
			"buffer":0,
			"byteLength":24,
			"byteOffset":602960
		},
		{
			"buffer":0,
			"byteLength":32,
			"byteOffset":602984
		},
		{
			"buffer":0,
			"byteLength":24,
			"byteOffset":603016
		},
		{
			"buffer":0,
			"byteLength":24,
			"byteOffset":603040
		},
		{
			"buffer":0,
			"byteLength":32,
			"byteOffset":603064
		},
		{
			"buffer":0,
			"byteLength":24,
			"byteOffset":603096
		},
		{
			"buffer":0,
			"byteLength":24,
			"byteOffset":603120
		},
		{
			"buffer":0,
			"byteLength":496,
			"byteOffset":603144
		},
		{
			"buffer":0,
			"byteLength":24,
			"byteOffset":603640
		},
		{
			"buffer":0,
			"byteLength":24,
			"byteOffset":603664
		},
		{
			"buffer":0,
			"byteLength":32,
			"byteOffset":603688
		},
		{
			"buffer":0,
			"byteLength":24,
			"byteOffset":603720
		},
		{
			"buffer":0,
			"byteLength":24,
			"byteOffset":603744
		},
		{
			"buffer":0,
			"byteLength":32,
			"byteOffset":603768
		},
		{
			"buffer":0,
			"byteLength":24,
			"byteOffset":603800
		},
		{
			"buffer":0,
			"byteLength":24,
			"byteOffset":603824
		},
		{
			"buffer":0,
			"byteLength":496,
			"byteOffset":603848
		},
		{
			"buffer":0,
			"byteLength":24,
			"byteOffset":604344
		},
		{
			"buffer":0,
			"byteLength":24,
			"byteOffset":604368
		},
		{
			"buffer":0,
			"byteLength":496,
			"byteOffset":604392
		},
		{
			"buffer":0,
			"byteLength":24,
			"byteOffset":604888
		},
		{
			"buffer":0,
			"byteLength":24,
			"byteOffset":604912
		},
		{
			"buffer":0,
			"byteLength":496,
			"byteOffset":604936
		},
		{
			"buffer":0,
			"byteLength":24,
			"byteOffset":605432
		},
		{
			"buffer":0,
			"byteLength":24,
			"byteOffset":605456
		},
		{
			"buffer":0,
			"byteLength":496,
			"byteOffset":605480
		},
		{
			"buffer":0,
			"byteLength":24,
			"byteOffset":605976
		},
		{
			"buffer":0,
			"byteLength":24,
			"byteOffset":606000
		},
		{
			"buffer":0,
			"byteLength":496,
			"byteOffset":606024
		},
		{
			"buffer":0,
			"byteLength":24,
			"byteOffset":606520
		},
		{
			"buffer":0,
			"byteLength":24,
			"byteOffset":606544
		},
		{
			"buffer":0,
			"byteLength":496,
			"byteOffset":606568
		},
		{
			"buffer":0,
			"byteLength":24,
			"byteOffset":607064
		}
	],
	"samplers":[
		{
			"magFilter":9729,
			"minFilter":9987
		}
	],
	"buffers":[
		{
			"byteLength":607088,
			"uri":"shion.bin"
		}
	]
}
