{
	"asset":{
		"generator":"Khronos glTF Blender I/O v4.2.57",
		"version":"2.0"
	},
	"extensionsUsed":[
		"KHR_materials_clearcoat",
		"KHR_materials_sheen"
	],
	"scene":0,
	"scenes":[
		{
			"name":"Scene",
			"nodes":[
				18
			]
		}
	],
	"nodes":[
		{
			"name":"head",
			"translation":[
				0,
				0.09999990463256836,
				0
			]
		},
		{
			"children":[
				0
			],
			"name":"neck",
			"translation":[
				0,
				0.21000003814697266,
				0
			]
		},
		{
			"name":"hand.R",
			"rotation":[
				-0.0023571813944727182,
				-0.016418322920799255,
				0.017660969868302345,
				0.9997064471244812
			],
			"translation":[
				-1.9208528101444244e-09,
				0.2513878643512726,
				-2.7939677238464355e-09
			]
		},
		{
			"children":[
				2
			],
			"name":"forearm.R",
			"rotation":[
				0.05022275075316429,
				-0.05592827498912811,
				0.06416802108287811,
				0.9951040744781494
			],
			"scale":[
				1,
				1.0000001192092896,
				1
			],
			"translation":[
				3.91155481338501e-08,
				0.27479061484336853,
				-2.7939677238464355e-09
			]
		},
		{
			"children":[
				3
			],
			"name":"upper_arm.R",
			"rotation":[
				0.9912914633750916,
				0.09286591410636902,
				0.09286512434482574,
				0.009655661880970001
			],
			"scale":[
				1.0000052452087402,
				1.0000001192092896,
				1.000000238418579
			],
			"translation":[
				0.1720000058412552,
				0.15999996662139893,
				0
			]
		},
		{
			"name":"hand.L",
			"rotation":[
				-0.0023571813944727182,
				0.016418322920799255,
				-0.017660969868302345,
				0.9997064471244812
			],
			"translation":[
				1.9208528101444244e-09,
				0.2513878643512726,
				-2.7939677238464355e-09
			]
		},
		{
			"children":[
				5
			],
			"name":"forearm.L",
			"rotation":[
				0.05022275075316429,
				0.05592827498912811,
				-0.06416802108287811,
				0.9951040744781494
			],
			"scale":[
				1,
				1.0000001192092896,
				1
			],
			"translation":[
				-3.91155481338501e-08,
				0.27479061484336853,
				-2.7939677238464355e-09
			]
		},
		{
			"children":[
				6
			],
			"name":"upper_arm.L",
			"rotation":[
				0.9912914633750916,
				-0.09286591410636902,
				-0.09286512434482574,
				0.009655661880970001
			],
			"scale":[
				1.0000052452087402,
				1.0000001192092896,
				1.000000238418579
			],
			"translation":[
				-0.1720000058412552,
				0.15999996662139893,
				0
			]
		},
		{
			"children":[
				1,
				4,
				7
			],
			"name":"chest",
			"translation":[
				0,
				0.16999995708465576,
				0
			]
		},
		{
			"children":[
				8
			],
			"name":"spine",
			"translation":[
				0,
				0.15000003576278687,
				0
			]
		},
		{
			"name":"foot.R",
			"rotation":[
				0.5914181470870972,
				2.087205963618999e-09,
				-3.036795537258996e-10,
				0.8063650131225586
			],
			"translation":[
				-7.328945450524316e-09,
				0.4105897545814514,
				-2.2662050014332635e-10
			]
		},
		{
			"children":[
				10
			],
			"name":"shin.R",
			"rotation":[
				-0.04152866080403328,
				-0.010850693099200726,
				0.010284049436450005,
				0.9990255236625671
			],
			"scale":[
				1,
				1.0000001192092896,
				1
			],
			"translation":[
				-4.103640094399452e-09,
				0.4102700352668762,
				-1.1641532182693481e-09
			]
		},
		{
			"children":[
				11
			],
			"name":"thigh.R",
			"rotation":[
				-0.9997796416282654,
				-0.010571159422397614,
				-0.010571259073913097,
				0.014739512465894222
			],
			"scale":[
				1.0000001192092896,
				1,
				1.000000238418579
			],
			"translation":[
				0.10119999945163727,
				-0.019999980926513672,
				0
			]
		},
		{
			"name":"foot.L",
			"rotation":[
				0.5914181470870972,
				-2.087205963618999e-09,
				3.036795537258996e-10,
				0.8063650131225586
			],
			"translation":[
				7.328945450524316e-09,
				0.4105897545814514,
				-2.2662050014332635e-10
			]
		},
		{
			"children":[
				13
			],
			"name":"shin.L",
			"rotation":[
				-0.04152866080403328,
				0.010850693099200726,
				-0.010284049436450005,
				0.9990255236625671
			],
			"scale":[
				1,
				1.0000001192092896,
				1
			],
			"translation":[
				4.103640094399452e-09,
				0.4102700352668762,
				-1.1641532182693481e-09
			]
		},
		{
			"children":[
				14
			],
			"name":"thigh.L",
			"rotation":[
				-0.9997796416282654,
				0.010571159422397614,
				0.010571259073913097,
				0.014739512465894222
			],
			"scale":[
				1.0000001192092896,
				1,
				1.000000238418579
			],
			"translation":[
				-0.10119999945163727,
				-0.019999980926513672,
				0
			]
		},
		{
			"children":[
				9,
				12,
				15
			],
			"name":"hips",
			"translation":[
				0,
				0.9300000071525574,
				0
			]
		},
		{
			"mesh":0,
			"name":"shizu",
			"skin":0
		},
		{
			"children":[
				17,
				16
			],
			"name":"shizu_rig"
		}
	],
	"animations":[
		{
			"channels":[
				{
					"sampler":0,
					"target":{
						"node":16,
						"path":"translation"
					}
				},
				{
					"sampler":1,
					"target":{
						"node":16,
						"path":"rotation"
					}
				},
				{
					"sampler":2,
					"target":{
						"node":16,
						"path":"scale"
					}
				},
				{
					"sampler":3,
					"target":{
						"node":9,
						"path":"translation"
					}
				},
				{
					"sampler":4,
					"target":{
						"node":9,
						"path":"rotation"
					}
				},
				{
					"sampler":5,
					"target":{
						"node":9,
						"path":"scale"
					}
				},
				{
					"sampler":6,
					"target":{
						"node":8,
						"path":"translation"
					}
				},
				{
					"sampler":7,
					"target":{
						"node":8,
						"path":"rotation"
					}
				},
				{
					"sampler":8,
					"target":{
						"node":8,
						"path":"scale"
					}
				},
				{
					"sampler":9,
					"target":{
						"node":1,
						"path":"translation"
					}
				},
				{
					"sampler":10,
					"target":{
						"node":1,
						"path":"rotation"
					}
				},
				{
					"sampler":11,
					"target":{
						"node":1,
						"path":"scale"
					}
				},
				{
					"sampler":12,
					"target":{
						"node":0,
						"path":"translation"
					}
				},
				{
					"sampler":13,
					"target":{
						"node":0,
						"path":"rotation"
					}
				},
				{
					"sampler":14,
					"target":{
						"node":0,
						"path":"scale"
					}
				},
				{
					"sampler":15,
					"target":{
						"node":4,
						"path":"translation"
					}
				},
				{
					"sampler":16,
					"target":{
						"node":4,
						"path":"rotation"
					}
				},
				{
					"sampler":17,
					"target":{
						"node":4,
						"path":"scale"
					}
				},
				{
					"sampler":18,
					"target":{
						"node":3,
						"path":"translation"
					}
				},
				{
					"sampler":19,
					"target":{
						"node":3,
						"path":"rotation"
					}
				},
				{
					"sampler":20,
					"target":{
						"node":3,
						"path":"scale"
					}
				},
				{
					"sampler":21,
					"target":{
						"node":2,
						"path":"translation"
					}
				},
				{
					"sampler":22,
					"target":{
						"node":2,
						"path":"rotation"
					}
				},
				{
					"sampler":23,
					"target":{
						"node":2,
						"path":"scale"
					}
				},
				{
					"sampler":24,
					"target":{
						"node":7,
						"path":"translation"
					}
				},
				{
					"sampler":25,
					"target":{
						"node":7,
						"path":"rotation"
					}
				},
				{
					"sampler":26,
					"target":{
						"node":7,
						"path":"scale"
					}
				},
				{
					"sampler":27,
					"target":{
						"node":6,
						"path":"translation"
					}
				},
				{
					"sampler":28,
					"target":{
						"node":6,
						"path":"rotation"
					}
				},
				{
					"sampler":29,
					"target":{
						"node":6,
						"path":"scale"
					}
				},
				{
					"sampler":30,
					"target":{
						"node":5,
						"path":"translation"
					}
				},
				{
					"sampler":31,
					"target":{
						"node":5,
						"path":"rotation"
					}
				},
				{
					"sampler":32,
					"target":{
						"node":5,
						"path":"scale"
					}
				},
				{
					"sampler":33,
					"target":{
						"node":12,
						"path":"translation"
					}
				},
				{
					"sampler":34,
					"target":{
						"node":12,
						"path":"rotation"
					}
				},
				{
					"sampler":35,
					"target":{
						"node":12,
						"path":"scale"
					}
				},
				{
					"sampler":36,
					"target":{
						"node":11,
						"path":"translation"
					}
				},
				{
					"sampler":37,
					"target":{
						"node":11,
						"path":"rotation"
					}
				},
				{
					"sampler":38,
					"target":{
						"node":11,
						"path":"scale"
					}
				},
				{
					"sampler":39,
					"target":{
						"node":10,
						"path":"translation"
					}
				},
				{
					"sampler":40,
					"target":{
						"node":10,
						"path":"rotation"
					}
				},
				{
					"sampler":41,
					"target":{
						"node":10,
						"path":"scale"
					}
				},
				{
					"sampler":42,
					"target":{
						"node":15,
						"path":"translation"
					}
				},
				{
					"sampler":43,
					"target":{
						"node":15,
						"path":"rotation"
					}
				},
				{
					"sampler":44,
					"target":{
						"node":15,
						"path":"scale"
					}
				},
				{
					"sampler":45,
					"target":{
						"node":14,
						"path":"translation"
					}
				},
				{
					"sampler":46,
					"target":{
						"node":14,
						"path":"rotation"
					}
				},
				{
					"sampler":47,
					"target":{
						"node":14,
						"path":"scale"
					}
				},
				{
					"sampler":48,
					"target":{
						"node":13,
						"path":"translation"
					}
				},
				{
					"sampler":49,
					"target":{
						"node":13,
						"path":"rotation"
					}
				},
				{
					"sampler":50,
					"target":{
						"node":13,
						"path":"scale"
					}
				}
			],
			"name":"attack",
			"samplers":[
				{
					"input":96,
					"interpolation":"STEP",
					"output":97
				},
				{
					"input":96,
					"interpolation":"STEP",
					"output":98
				},
				{
					"input":96,
					"interpolation":"STEP",
					"output":99
				},
				{
					"input":96,
					"interpolation":"STEP",
					"output":100
				},
				{
					"input":96,
					"interpolation":"STEP",
					"output":101
				},
				{
					"input":96,
					"interpolation":"STEP",
					"output":102
				},
				{
					"input":96,
					"interpolation":"STEP",
					"output":103
				},
				{
					"input":104,
					"interpolation":"LINEAR",
					"output":105
				},
				{
					"input":96,
					"interpolation":"STEP",
					"output":106
				},
				{
					"input":96,
					"interpolation":"STEP",
					"output":107
				},
				{
					"input":96,
					"interpolation":"STEP",
					"output":108
				},
				{
					"input":96,
					"interpolation":"STEP",
					"output":109
				},
				{
					"input":96,
					"interpolation":"STEP",
					"output":110
				},
				{
					"input":96,
					"interpolation":"STEP",
					"output":111
				},
				{
					"input":96,
					"interpolation":"STEP",
					"output":112
				},
				{
					"input":96,
					"interpolation":"STEP",
					"output":113
				},
				{
					"input":104,
					"interpolation":"LINEAR",
					"output":114
				},
				{
					"input":96,
					"interpolation":"STEP",
					"output":115
				},
				{
					"input":96,
					"interpolation":"STEP",
					"output":116
				},
				{
					"input":104,
					"interpolation":"LINEAR",
					"output":117
				},
				{
					"input":96,
					"interpolation":"STEP",
					"output":118
				},
				{
					"input":96,
					"interpolation":"LINEAR",
					"output":119
				},
				{
					"input":96,
					"interpolation":"LINEAR",
					"output":120
				},
				{
					"input":96,
					"interpolation":"STEP",
					"output":121
				},
				{
					"input":96,
					"interpolation":"STEP",
					"output":122
				},
				{
					"input":104,
					"interpolation":"LINEAR",
					"output":123
				},
				{
					"input":96,
					"interpolation":"STEP",
					"output":124
				},
				{
					"input":96,
					"interpolation":"STEP",
					"output":125
				},
				{
					"input":96,
					"interpolation":"STEP",
					"output":126
				},
				{
					"input":96,
					"interpolation":"STEP",
					"output":127
				},
				{
					"input":96,
					"interpolation":"STEP",
					"output":128
				},
				{
					"input":96,
					"interpolation":"STEP",
					"output":129
				},
				{
					"input":96,
					"interpolation":"STEP",
					"output":130
				},
				{
					"input":96,
					"interpolation":"STEP",
					"output":131
				},
				{
					"input":104,
					"interpolation":"LINEAR",
					"output":132
				},
				{
					"input":96,
					"interpolation":"STEP",
					"output":133
				},
				{
					"input":96,
					"interpolation":"LINEAR",
					"output":134
				},
				{
					"input":96,
					"interpolation":"LINEAR",
					"output":135
				},
				{
					"input":96,
					"interpolation":"STEP",
					"output":136
				},
				{
					"input":96,
					"interpolation":"LINEAR",
					"output":137
				},
				{
					"input":96,
					"interpolation":"LINEAR",
					"output":138
				},
				{
					"input":96,
					"interpolation":"STEP",
					"output":139
				},
				{
					"input":96,
					"interpolation":"STEP",
					"output":140
				},
				{
					"input":104,
					"interpolation":"LINEAR",
					"output":141
				},
				{
					"input":96,
					"interpolation":"STEP",
					"output":142
				},
				{
					"input":96,
					"interpolation":"LINEAR",
					"output":143
				},
				{
					"input":96,
					"interpolation":"LINEAR",
					"output":144
				},
				{
					"input":96,
					"interpolation":"STEP",
					"output":145
				},
				{
					"input":96,
					"interpolation":"LINEAR",
					"output":146
				},
				{
					"input":96,
					"interpolation":"LINEAR",
					"output":147
				},
				{
					"input":96,
					"interpolation":"STEP",
					"output":148
				}
			]
		},
		{
			"channels":[
				{
					"sampler":0,
					"target":{
						"node":16,
						"path":"translation"
					}
				},
				{
					"sampler":1,
					"target":{
						"node":16,
						"path":"rotation"
					}
				},
				{
					"sampler":2,
					"target":{
						"node":16,
						"path":"scale"
					}
				},
				{
					"sampler":3,
					"target":{
						"node":9,
						"path":"translation"
					}
				},
				{
					"sampler":4,
					"target":{
						"node":9,
						"path":"rotation"
					}
				},
				{
					"sampler":5,
					"target":{
						"node":9,
						"path":"scale"
					}
				},
				{
					"sampler":6,
					"target":{
						"node":8,
						"path":"translation"
					}
				},
				{
					"sampler":7,
					"target":{
						"node":8,
						"path":"rotation"
					}
				},
				{
					"sampler":8,
					"target":{
						"node":8,
						"path":"scale"
					}
				},
				{
					"sampler":9,
					"target":{
						"node":1,
						"path":"translation"
					}
				},
				{
					"sampler":10,
					"target":{
						"node":1,
						"path":"rotation"
					}
				},
				{
					"sampler":11,
					"target":{
						"node":1,
						"path":"scale"
					}
				},
				{
					"sampler":12,
					"target":{
						"node":0,
						"path":"translation"
					}
				},
				{
					"sampler":13,
					"target":{
						"node":0,
						"path":"rotation"
					}
				},
				{
					"sampler":14,
					"target":{
						"node":0,
						"path":"scale"
					}
				},
				{
					"sampler":15,
					"target":{
						"node":4,
						"path":"translation"
					}
				},
				{
					"sampler":16,
					"target":{
						"node":4,
						"path":"rotation"
					}
				},
				{
					"sampler":17,
					"target":{
						"node":4,
						"path":"scale"
					}
				},
				{
					"sampler":18,
					"target":{
						"node":3,
						"path":"translation"
					}
				},
				{
					"sampler":19,
					"target":{
						"node":3,
						"path":"rotation"
					}
				},
				{
					"sampler":20,
					"target":{
						"node":3,
						"path":"scale"
					}
				},
				{
					"sampler":21,
					"target":{
						"node":2,
						"path":"translation"
					}
				},
				{
					"sampler":22,
					"target":{
						"node":2,
						"path":"rotation"
					}
				},
				{
					"sampler":23,
					"target":{
						"node":2,
						"path":"scale"
					}
				},
				{
					"sampler":24,
					"target":{
						"node":7,
						"path":"translation"
					}
				},
				{
					"sampler":25,
					"target":{
						"node":7,
						"path":"rotation"
					}
				},
				{
					"sampler":26,
					"target":{
						"node":7,
						"path":"scale"
					}
				},
				{
					"sampler":27,
					"target":{
						"node":6,
						"path":"translation"
					}
				},
				{
					"sampler":28,
					"target":{
						"node":6,
						"path":"rotation"
					}
				},
				{
					"sampler":29,
					"target":{
						"node":6,
						"path":"scale"
					}
				},
				{
					"sampler":30,
					"target":{
						"node":5,
						"path":"translation"
					}
				},
				{
					"sampler":31,
					"target":{
						"node":5,
						"path":"rotation"
					}
				},
				{
					"sampler":32,
					"target":{
						"node":5,
						"path":"scale"
					}
				},
				{
					"sampler":33,
					"target":{
						"node":12,
						"path":"translation"
					}
				},
				{
					"sampler":34,
					"target":{
						"node":12,
						"path":"rotation"
					}
				},
				{
					"sampler":35,
					"target":{
						"node":12,
						"path":"scale"
					}
				},
				{
					"sampler":36,
					"target":{
						"node":11,
						"path":"translation"
					}
				},
				{
					"sampler":37,
					"target":{
						"node":11,
						"path":"rotation"
					}
				},
				{
					"sampler":38,
					"target":{
						"node":11,
						"path":"scale"
					}
				},
				{
					"sampler":39,
					"target":{
						"node":10,
						"path":"translation"
					}
				},
				{
					"sampler":40,
					"target":{
						"node":10,
						"path":"rotation"
					}
				},
				{
					"sampler":41,
					"target":{
						"node":10,
						"path":"scale"
					}
				},
				{
					"sampler":42,
					"target":{
						"node":15,
						"path":"translation"
					}
				},
				{
					"sampler":43,
					"target":{
						"node":15,
						"path":"rotation"
					}
				},
				{
					"sampler":44,
					"target":{
						"node":15,
						"path":"scale"
					}
				},
				{
					"sampler":45,
					"target":{
						"node":14,
						"path":"translation"
					}
				},
				{
					"sampler":46,
					"target":{
						"node":14,
						"path":"rotation"
					}
				},
				{
					"sampler":47,
					"target":{
						"node":14,
						"path":"scale"
					}
				},
				{
					"sampler":48,
					"target":{
						"node":13,
						"path":"translation"
					}
				},
				{
					"sampler":49,
					"target":{
						"node":13,
						"path":"rotation"
					}
				},
				{
					"sampler":50,
					"target":{
						"node":13,
						"path":"scale"
					}
				}
			],
			"name":"idle",
			"samplers":[
				{
					"input":149,
					"interpolation":"LINEAR",
					"output":150
				},
				{
					"input":151,
					"interpolation":"STEP",
					"output":152
				},
				{
					"input":151,
					"interpolation":"STEP",
					"output":153
				},
				{
					"input":151,
					"interpolation":"STEP",
					"output":154
				},
				{
					"input":151,
					"interpolation":"STEP",
					"output":155
				},
				{
					"input":151,
					"interpolation":"STEP",
					"output":156
				},
				{
					"input":151,
					"interpolation":"STEP",
					"output":157
				},
				{
					"input":149,
					"interpolation":"LINEAR",
					"output":158
				},
				{
					"input":151,
					"interpolation":"STEP",
					"output":159
				},
				{
					"input":151,
					"interpolation":"STEP",
					"output":160
				},
				{
					"input":151,
					"interpolation":"STEP",
					"output":161
				},
				{
					"input":151,
					"interpolation":"STEP",
					"output":162
				},
				{
					"input":151,
					"interpolation":"STEP",
					"output":163
				},
				{
					"input":149,
					"interpolation":"LINEAR",
					"output":164
				},
				{
					"input":151,
					"interpolation":"STEP",
					"output":165
				},
				{
					"input":151,
					"interpolation":"STEP",
					"output":166
				},
				{
					"input":149,
					"interpolation":"LINEAR",
					"output":167
				},
				{
					"input":151,
					"interpolation":"STEP",
					"output":168
				},
				{
					"input":151,
					"interpolation":"STEP",
					"output":169
				},
				{
					"input":151,
					"interpolation":"STEP",
					"output":170
				},
				{
					"input":151,
					"interpolation":"STEP",
					"output":171
				},
				{
					"input":151,
					"interpolation":"STEP",
					"output":172
				},
				{
					"input":151,
					"interpolation":"STEP",
					"output":173
				},
				{
					"input":151,
					"interpolation":"STEP",
					"output":174
				},
				{
					"input":151,
					"interpolation":"STEP",
					"output":175
				},
				{
					"input":149,
					"interpolation":"LINEAR",
					"output":176
				},
				{
					"input":151,
					"interpolation":"STEP",
					"output":177
				},
				{
					"input":151,
					"interpolation":"STEP",
					"output":178
				},
				{
					"input":151,
					"interpolation":"STEP",
					"output":179
				},
				{
					"input":151,
					"interpolation":"STEP",
					"output":180
				},
				{
					"input":151,
					"interpolation":"STEP",
					"output":181
				},
				{
					"input":151,
					"interpolation":"STEP",
					"output":182
				},
				{
					"input":151,
					"interpolation":"STEP",
					"output":183
				},
				{
					"input":151,
					"interpolation":"STEP",
					"output":184
				},
				{
					"input":151,
					"interpolation":"STEP",
					"output":185
				},
				{
					"input":151,
					"interpolation":"STEP",
					"output":186
				},
				{
					"input":151,
					"interpolation":"STEP",
					"output":187
				},
				{
					"input":151,
					"interpolation":"STEP",
					"output":188
				},
				{
					"input":151,
					"interpolation":"STEP",
					"output":189
				},
				{
					"input":151,
					"interpolation":"STEP",
					"output":190
				},
				{
					"input":151,
					"interpolation":"STEP",
					"output":191
				},
				{
					"input":151,
					"interpolation":"STEP",
					"output":192
				},
				{
					"input":151,
					"interpolation":"STEP",
					"output":193
				},
				{
					"input":151,
					"interpolation":"STEP",
					"output":194
				},
				{
					"input":151,
					"interpolation":"STEP",
					"output":195
				},
				{
					"input":151,
					"interpolation":"STEP",
					"output":196
				},
				{
					"input":151,
					"interpolation":"STEP",
					"output":197
				},
				{
					"input":151,
					"interpolation":"STEP",
					"output":198
				},
				{
					"input":151,
					"interpolation":"STEP",
					"output":199
				},
				{
					"input":151,
					"interpolation":"STEP",
					"output":200
				},
				{
					"input":151,
					"interpolation":"STEP",
					"output":201
				}
			]
		},
		{
			"channels":[
				{
					"sampler":0,
					"target":{
						"node":16,
						"path":"translation"
					}
				},
				{
					"sampler":1,
					"target":{
						"node":16,
						"path":"rotation"
					}
				},
				{
					"sampler":2,
					"target":{
						"node":16,
						"path":"scale"
					}
				},
				{
					"sampler":3,
					"target":{
						"node":9,
						"path":"translation"
					}
				},
				{
					"sampler":4,
					"target":{
						"node":9,
						"path":"rotation"
					}
				},
				{
					"sampler":5,
					"target":{
						"node":9,
						"path":"scale"
					}
				},
				{
					"sampler":6,
					"target":{
						"node":8,
						"path":"translation"
					}
				},
				{
					"sampler":7,
					"target":{
						"node":8,
						"path":"rotation"
					}
				},
				{
					"sampler":8,
					"target":{
						"node":8,
						"path":"scale"
					}
				},
				{
					"sampler":9,
					"target":{
						"node":1,
						"path":"translation"
					}
				},
				{
					"sampler":10,
					"target":{
						"node":1,
						"path":"rotation"
					}
				},
				{
					"sampler":11,
					"target":{
						"node":1,
						"path":"scale"
					}
				},
				{
					"sampler":12,
					"target":{
						"node":0,
						"path":"translation"
					}
				},
				{
					"sampler":13,
					"target":{
						"node":0,
						"path":"rotation"
					}
				},
				{
					"sampler":14,
					"target":{
						"node":0,
						"path":"scale"
					}
				},
				{
					"sampler":15,
					"target":{
						"node":4,
						"path":"translation"
					}
				},
				{
					"sampler":16,
					"target":{
						"node":4,
						"path":"rotation"
					}
				},
				{
					"sampler":17,
					"target":{
						"node":4,
						"path":"scale"
					}
				},
				{
					"sampler":18,
					"target":{
						"node":3,
						"path":"translation"
					}
				},
				{
					"sampler":19,
					"target":{
						"node":3,
						"path":"rotation"
					}
				},
				{
					"sampler":20,
					"target":{
						"node":3,
						"path":"scale"
					}
				},
				{
					"sampler":21,
					"target":{
						"node":2,
						"path":"translation"
					}
				},
				{
					"sampler":22,
					"target":{
						"node":2,
						"path":"rotation"
					}
				},
				{
					"sampler":23,
					"target":{
						"node":2,
						"path":"scale"
					}
				},
				{
					"sampler":24,
					"target":{
						"node":7,
						"path":"translation"
					}
				},
				{
					"sampler":25,
					"target":{
						"node":7,
						"path":"rotation"
					}
				},
				{
					"sampler":26,
					"target":{
						"node":7,
						"path":"scale"
					}
				},
				{
					"sampler":27,
					"target":{
						"node":6,
						"path":"translation"
					}
				},
				{
					"sampler":28,
					"target":{
						"node":6,
						"path":"rotation"
					}
				},
				{
					"sampler":29,
					"target":{
						"node":6,
						"path":"scale"
					}
				},
				{
					"sampler":30,
					"target":{
						"node":5,
						"path":"translation"
					}
				},
				{
					"sampler":31,
					"target":{
						"node":5,
						"path":"rotation"
					}
				},
				{
					"sampler":32,
					"target":{
						"node":5,
						"path":"scale"
					}
				},
				{
					"sampler":33,
					"target":{
						"node":12,
						"path":"translation"
					}
				},
				{
					"sampler":34,
					"target":{
						"node":12,
						"path":"rotation"
					}
				},
				{
					"sampler":35,
					"target":{
						"node":12,
						"path":"scale"
					}
				},
				{
					"sampler":36,
					"target":{
						"node":11,
						"path":"translation"
					}
				},
				{
					"sampler":37,
					"target":{
						"node":11,
						"path":"rotation"
					}
				},
				{
					"sampler":38,
					"target":{
						"node":11,
						"path":"scale"
					}
				},
				{
					"sampler":39,
					"target":{
						"node":10,
						"path":"translation"
					}
				},
				{
					"sampler":40,
					"target":{
						"node":10,
						"path":"rotation"
					}
				},
				{
					"sampler":41,
					"target":{
						"node":10,
						"path":"scale"
					}
				},
				{
					"sampler":42,
					"target":{
						"node":15,
						"path":"translation"
					}
				},
				{
					"sampler":43,
					"target":{
						"node":15,
						"path":"rotation"
					}
				},
				{
					"sampler":44,
					"target":{
						"node":15,
						"path":"scale"
					}
				},
				{
					"sampler":45,
					"target":{
						"node":14,
						"path":"translation"
					}
				},
				{
					"sampler":46,
					"target":{
						"node":14,
						"path":"rotation"
					}
				},
				{
					"sampler":47,
					"target":{
						"node":14,
						"path":"scale"
					}
				},
				{
					"sampler":48,
					"target":{
						"node":13,
						"path":"translation"
					}
				},
				{
					"sampler":49,
					"target":{
						"node":13,
						"path":"rotation"
					}
				},
				{
					"sampler":50,
					"target":{
						"node":13,
						"path":"scale"
					}
				}
			],
			"name":"walk",
			"samplers":[
				{
					"input":202,
					"interpolation":"LINEAR",
					"output":203
				},
				{
					"input":202,
					"interpolation":"LINEAR",
					"output":204
				},
				{
					"input":205,
					"interpolation":"STEP",
					"output":206
				},
				{
					"input":205,
					"interpolation":"STEP",
					"output":207
				},
				{
					"input":205,
					"interpolation":"STEP",
					"output":208
				},
				{
					"input":205,
					"interpolation":"STEP",
					"output":209
				},
				{
					"input":205,
					"interpolation":"STEP",
					"output":210
				},
				{
					"input":202,
					"interpolation":"LINEAR",
					"output":211
				},
				{
					"input":205,
					"interpolation":"STEP",
					"output":212
				},
				{
					"input":205,
					"interpolation":"STEP",
					"output":213
				},
				{
					"input":205,
					"interpolation":"STEP",
					"output":214
				},
				{
					"input":205,
					"interpolation":"STEP",
					"output":215
				},
				{
					"input":205,
					"interpolation":"STEP",
					"output":216
				},
				{
					"input":205,
					"interpolation":"STEP",
					"output":217
				},
				{
					"input":205,
					"interpolation":"STEP",
					"output":218
				},
				{
					"input":205,
					"interpolation":"STEP",
					"output":219
				},
				{
					"input":202,
					"interpolation":"LINEAR",
					"output":220
				},
				{
					"input":205,
					"interpolation":"STEP",
					"output":221
				},
				{
					"input":205,
					"interpolation":"STEP",
					"output":222
				},
				{
					"input":205,
					"interpolation":"STEP",
					"output":223
				},
				{
					"input":205,
					"interpolation":"STEP",
					"output":224
				},
				{
					"input":205,
					"interpolation":"STEP",
					"output":225
				},
				{
					"input":205,
					"interpolation":"STEP",
					"output":226
				},
				{
					"input":205,
					"interpolation":"STEP",
					"output":227
				},
				{
					"input":205,
					"interpolation":"STEP",
					"output":228
				},
				{
					"input":202,
					"interpolation":"LINEAR",
					"output":229
				},
				{
					"input":205,
					"interpolation":"STEP",
					"output":230
				},
				{
					"input":205,
					"interpolation":"STEP",
					"output":231
				},
				{
					"input":205,
					"interpolation":"STEP",
					"output":232
				},
				{
					"input":205,
					"interpolation":"STEP",
					"output":233
				},
				{
					"input":205,
					"interpolation":"STEP",
					"output":234
				},
				{
					"input":205,
					"interpolation":"STEP",
					"output":235
				},
				{
					"input":205,
					"interpolation":"STEP",
					"output":236
				},
				{
					"input":205,
					"interpolation":"STEP",
					"output":237
				},
				{
					"input":202,
					"interpolation":"LINEAR",
					"output":238
				},
				{
					"input":205,
					"interpolation":"STEP",
					"output":239
				},
				{
					"input":205,
					"interpolation":"STEP",
					"output":240
				},
				{
					"input":202,
					"interpolation":"LINEAR",
					"output":241
				},
				{
					"input":205,
					"interpolation":"STEP",
					"output":242
				},
				{
					"input":205,
					"interpolation":"STEP",
					"output":243
				},
				{
					"input":202,
					"interpolation":"LINEAR",
					"output":244
				},
				{
					"input":205,
					"interpolation":"STEP",
					"output":245
				},
				{
					"input":205,
					"interpolation":"STEP",
					"output":246
				},
				{
					"input":202,
					"interpolation":"LINEAR",
					"output":247
				},
				{
					"input":205,
					"interpolation":"STEP",
					"output":248
				},
				{
					"input":205,
					"interpolation":"STEP",
					"output":249
				},
				{
					"input":202,
					"interpolation":"LINEAR",
					"output":250
				},
				{
					"input":205,
					"interpolation":"STEP",
					"output":251
				},
				{
					"input":205,
					"interpolation":"STEP",
					"output":252
				},
				{
					"input":202,
					"interpolation":"LINEAR",
					"output":253
				},
				{
					"input":205,
					"interpolation":"STEP",
					"output":254
				}
			]
		}
	],
	"materials":[
		{
			"name":"skin",
			"normalTexture":{
				"index":0,
				"scale":0.4000000059604645
			},
			"pbrMetallicRoughness":{
				"baseColorFactor":[
					0.9551045894622803,
					0.7105664610862732,
					0.5382355451583862,
					1
				],
				"metallicFactor":0,
				"roughnessFactor":0.550000011920929
			}
		},
		{
			"extensions":{
				"KHR_materials_sheen":{
					"sheenColorFactor":[
						1.0,
						1.0,
						1.0
					],
					"sheenRoughnessFactor":0.5
				}
			},
			"name":"hair",
			"normalTexture":{
				"index":1,
				"scale":0.800000011920929
			},
			"pbrMetallicRoughness":{
				"baseColorFactor":[
					0.007194409146904945,
					0.007194409146904945,
					0.010022825561463833,
					1
				],
				"metallicFactor":0,
				"roughnessFactor":0.44999998807907104
			}
		},
		{
			"extensions":{
				"KHR_materials_sheen":{
					"sheenColorFactor":[
						1.0,
						1.0,
						1.0
					],
					"sheenRoughnessFactor":0.5
				}
			},
			"name":"outfit",
			"normalTexture":{
				"index":2,
				"scale":0.6000000238418579
			},
			"pbrMetallicRoughness":{
				"baseColorFactor":[
					0.05087608844041824,
					0.03968190774321556,
					0.03310476616024971,
					1
				],
				"metallicFactor":0,
				"roughnessFactor":0.75
			}
		},
		{
			"name":"outfit2",
			"normalTexture":{
				"index":3,
				"scale":0.4000000059604645
			},
			"pbrMetallicRoughness":{
				"baseColorFactor":[
					0.6038273572921753,
					0.03310476616024971,
					0.01960664801299572,
					1
				],
				"metallicFactor":0,
				"roughnessFactor":0.6000000238418579
			}
		},
		{
			"name":"pants",
			"normalTexture":{
				"index":4,
				"scale":0.6000000238418579
			},
			"pbrMetallicRoughness":{
				"baseColorFactor":[
					0.025842878967523575,
					0.02053738757967949,
					0.017389101907610893,
					1
				],
				"metallicFactor":0,
				"roughnessFactor":0.800000011920929
			}
		},
		{
			"extensions":{
				"KHR_materials_clearcoat":{
					"clearcoatFactor":0.30000001192092896
				}
			},
			"name":"boots",
			"normalTexture":{
				"index":5,
				"scale":0.800000011920929
			},
			"pbrMetallicRoughness":{
				"baseColorFactor":[
					0.0134117491543293,
					0.010022825561463833,
					0.010022825561463833,
					1
				],
				"metallicFactor":0,
				"roughnessFactor":0.44999998807907104
			}
		},
		{
			"name":"eye_white",
			"pbrMetallicRoughness":{
				"baseColorFactor":[
					0.8900054097175598,
					0.8900054097175598,
					0.8900054097175598,
					1
				],
				"metallicFactor":0,
				"roughnessFactor":0.20000000298023224
			}
		},
		{
			"emissiveFactor":[
				0.011763989275256348,
				0.011763989275256348,
				0.019862860485428957
			],
			"name":"iris",
			"pbrMetallicRoughness":{
				"baseColorFactor":[
					0.01960664801299572,
					0.01960664801299572,
					0.03310476616024971,
					1
				],
				"metallicFactor":0,
				"roughnessFactor":0.15000000596046448
			}
		},
		{
			"name":"pupil",
			"pbrMetallicRoughness":{
				"baseColorFactor":[
					0.0015479875728487968,
					0.0015479875728487968,
					0.0023219813592731953,
					1
				],
				"metallicFactor":0,
				"roughnessFactor":0.10000000149011612
			}
		},
		{
			"name":"lips",
			"pbrMetallicRoughness":{
				"baseColorFactor":[
					0.4283095896244049,
					0.32088616490364075,
					0.2448643445968628,
					1
				],
				"metallicFactor":0,
				"roughnessFactor":0.4000000059604645
			}
		},
		{
			"extensions":{
				"KHR_materials_clearcoat":{
					"clearcoatFactor":0.6000000238418579
				}
			},
			"name":"mask",
			"pbrMetallicRoughness":{
				"baseColorFactor":[
					0.911407470703125,
					0.8900054097175598,
					0.848088264465332,
					1
				],
				"metallicFactor":0,
				"roughnessFactor":0.30000001192092896
			}
		},
		{
			"doubleSided":true,
			"extensions":{
				"KHR_materials_sheen":{
					"sheenColorFactor":[
						1.0,
						1.0,
						1.0
					],
					"sheenRoughnessFactor":0.5
				}
			},
			"name":"cape",
			"normalTexture":{
				"index":6,
				"scale":0.699999988079071
			},
			"pbrMetallicRoughness":{
				"baseColorFactor":[
					0.07323895394802094,
					0.05087608844041824,
					0.03968190774321556,
					1
				],
				"metallicFactor":0,
				"roughnessFactor":0.75
			}
		},
		{
			"name":"buckle",
			"pbrMetallicRoughness":{
				"baseColorFactor":[
					0.6920710802078247,
					0.4479884207248688,
					0.07323895394802094,
					1
				],
				"metallicFactor":0.8999999761581421,
				"roughnessFactor":0.30000001192092896
			}
		},
		{
			"name":"blade",
			"normalTexture":{
				"index":7,
				"scale":0.30000001192092896
			},
			"pbrMetallicRoughness":{
				"baseColorFactor":[
					0.7484140992164612,
					0.7874122858047485,
					0.8900054097175598,
					1
				],
				"metallicFactor":0.550000011920929,
				"roughnessFactor":0.2199999988079071
			}
		},
		{
			"name":"handle",
			"normalTexture":{
				"index":8,
				"scale":0.6000000238418579
			},
			"pbrMetallicRoughness":{
				"baseColorFactor":[
					0.0134117491543293,
					0.007194409146904945,
					0.004896310158073902,
					1
				],
				"metallicFactor":0,
				"roughnessFactor":0.6000000238418579
			}
		},
		{
			"name":"guard",
			"pbrMetallicRoughness":{
				"baseColorFactor":[
					0.6038273572921753,
					0.38005632162094116,
					0.05087608844041824,
					1
				],
				"metallicFactor":0.8999999761581421,
				"roughnessFactor":0.30000001192092896
			}
		}
	],
	"meshes":[
		{
			"name":"shizu",
			"primitives":[
				{
					"attributes":{
						"POSITION":0,
						"NORMAL":1,
						"TEXCOORD_0":2,
						"JOINTS_0":3,
						"WEIGHTS_0":4
					},
					"indices":5,
					"material":0
				},
				{
					"attributes":{
						"POSITION":6,
						"NORMAL":7,
						"TEXCOORD_0":8,
						"JOINTS_0":9,
						"WEIGHTS_0":10
					},
					"indices":11,
					"material":1
				},
				{
					"attributes":{
						"POSITION":12,
						"NORMAL":13,
						"TEXCOORD_0":14,
						"JOINTS_0":15,
						"WEIGHTS_0":16
					},
					"indices":17,
					"material":2
				},
				{
					"attributes":{
						"POSITION":18,
						"NORMAL":19,
						"TEXCOORD_0":20,
						"JOINTS_0":21,
						"WEIGHTS_0":22
					},
					"indices":23,
					"material":3
				},
				{
					"attributes":{
						"POSITION":24,
						"NORMAL":25,
						"TEXCOORD_0":26,
						"JOINTS_0":27,
						"WEIGHTS_0":28
					},
					"indices":29,
					"material":4
				},
				{
					"attributes":{
						"POSITION":30,
						"NORMAL":31,
						"TEXCOORD_0":32,
						"JOINTS_0":33,
						"WEIGHTS_0":34
					},
					"indices":35,
					"material":5
				},
				{
					"attributes":{
						"POSITION":36,
						"NORMAL":37,
						"TEXCOORD_0":38,
						"JOINTS_0":39,
						"WEIGHTS_0":40
					},
					"indices":41,
					"material":6
				},
				{
					"attributes":{
						"POSITION":42,
						"NORMAL":43,
						"TEXCOORD_0":44,
						"JOINTS_0":45,
						"WEIGHTS_0":46
					},
					"indices":47,
					"material":7
				},
				{
					"attributes":{
						"POSITION":48,
						"NORMAL":49,
						"TEXCOORD_0":50,
						"JOINTS_0":51,
						"WEIGHTS_0":52
					},
					"indices":53,
					"material":8
				},
				{
					"attributes":{
						"POSITION":54,
						"NORMAL":55,
						"TEXCOORD_0":56,
						"JOINTS_0":57,
						"WEIGHTS_0":58
					},
					"indices":59,
					"material":9
				},
				{
					"attributes":{
						"POSITION":60,
						"NORMAL":61,
						"TEXCOORD_0":62,
						"JOINTS_0":63,
						"WEIGHTS_0":64
					},
					"indices":65,
					"material":10
				},
				{
					"attributes":{
						"POSITION":66,
						"NORMAL":67,
						"TEXCOORD_0":68,
						"JOINTS_0":69,
						"WEIGHTS_0":70
					},
					"indices":71,
					"material":11
				},
				{
					"attributes":{
						"POSITION":72,
						"NORMAL":73,
						"TEXCOORD_0":74,
						"JOINTS_0":75,
						"WEIGHTS_0":76
					},
					"indices":77,
					"material":12
				},
				{
					"attributes":{
						"POSITION":78,
						"NORMAL":79,
						"TEXCOORD_0":80,
						"JOINTS_0":81,
						"WEIGHTS_0":82
					},
					"indices":83,
					"material":13
				},
				{
					"attributes":{
						"POSITION":84,
						"NORMAL":85,
						"TEXCOORD_0":86,
						"JOINTS_0":87,
						"WEIGHTS_0":88
					},
					"indices":89,
					"material":14
				},
				{
					"attributes":{
						"POSITION":90,
						"NORMAL":91,
						"TEXCOORD_0":92,
						"JOINTS_0":93,
						"WEIGHTS_0":94
					},
					"indices":77,
					"material":15
				}
			]
		}
	],
	"textures":[
		{
			"sampler":0,
			"source":0
		},
		{
			"sampler":0,
			"source":1
		},
		{
			"sampler":0,
			"source":2
		},
		{
			"sampler":0,
			"source":2
		},
		{
			"sampler":0,
			"source":2
		},
		{
			"sampler":0,
			"source":3
		},
		{
			"sampler":0,
			"source":2
		},
		{
			"sampler":0,
			"source":4
		},
		{
			"sampler":0,
			"source":3
		}
	],
	"images":[
		{
			"mimeType":"image/png",
			"name":"N_skin",
			"uri":"texturas/N_skin.png"
		},
		{
			"mimeType":"image/png",
			"name":"N_hair",
			"uri":"texturas/N_hair.png"
		},
		{
			"mimeType":"image/png",
			"name":"N_cloth",
			"uri":"texturas/N_cloth.png"
		},
		{
			"mimeType":"image/png",
			"name":"N_leather",
			"uri":"texturas/N_leather.png"
		},
		{
			"mimeType":"image/png",
			"name":"N_metal",
			"uri":"texturas/N_metal.png"
		}
	],
	"skins":[
		{
			"inverseBindMatrices":95,
			"joints":[
				16,
				9,
				8,
				1,
				0,
				4,
				3,
				2,
				7,
				6,
				5,
				12,
				11,
				10,
				15,
				14,
				13
			],
			"name":"shizu_rig"
		}
	],
	"accessors":[
		{
			"bufferView":0,
			"componentType":5126,
			"count":1409,
			"max":[
				0.2644500136375427,
				1.7839999198913574,
				0.10721255838871002
			],
			"min":[
				-0.2644500136375427,
				0.7844678163528442,
				-0.11607673019170761
			],
			"type":"VEC3"
		},
		{
			"bufferView":1,
			"componentType":5126,
			"count":1409,
			"type":"VEC3"
		},
		{
			"bufferView":2,
			"componentType":5126,
			"count":1409,
			"type":"VEC2"
		},
		{
			"bufferView":3,
			"componentType":5121,
			"count":1409,
			"type":"VEC4"
		},
		{
			"bufferView":4,
			"componentType":5126,
			"count":1409,
			"type":"VEC4"
		},
		{
			"bufferView":5,
			"componentType":5123,
			"count":5808,
			"type":"SCALAR"
		},
		{
			"bufferView":6,
			"componentType":5126,
			"count":2960,
			"max":[
				0.14692893624305725,
				1.8120887279510498,
				0.20280714333057404
			],
			"min":[
				-0.1379384547472,
				0.9642971158027649,
				-0.11474431306123734
			],
			"type":"VEC3"
		},
		{
			"bufferView":7,
			"componentType":5126,
			"count":2960,
			"type":"VEC3"
		},
		{
			"bufferView":8,
			"componentType":5126,
			"count":2960,
			"type":"VEC2"
		},
		{
			"bufferView":9,
			"componentType":5121,
			"count":2960,
			"type":"VEC4"
		},
		{
			"bufferView":10,
			"componentType":5126,
			"count":2960,
			"type":"VEC4"
		},
		{
			"bufferView":11,
			"componentType":5123,
			"count":10440,
			"type":"SCALAR"
		},
		{
			"bufferView":12,
			"componentType":5126,
			"count":1916,
			"max":[
				0.26701557636260986,
				1.46880304813385,
				0.09008977562189102
			],
			"min":[
				-0.2670155465602875,
				0.9226043820381165,
				-0.11999999731779099
			],
			"type":"VEC3"
		},
		{
			"bufferView":13,
			"componentType":5126,
			"count":1916,
			"type":"VEC3"
		},
		{
			"bufferView":14,
			"componentType":5126,
			"count":1916,
			"type":"VEC2"
		},
		{
			"bufferView":15,
			"componentType":5121,
			"count":1916,
			"type":"VEC4"
		},
		{
			"bufferView":16,
			"componentType":5126,
			"count":1916,
			"type":"VEC4"
		},
		{
			"bufferView":17,
			"componentType":5123,
			"count":8652,
			"type":"SCALAR"
		},
		{
			"bufferView":18,
			"componentType":5126,
			"count":76,
			"max":[
				0.1578424572944641,
				0.9976312518119812,
				0.10683226585388184
			],
			"min":[
				-0.1578424572944641,
				0.8799242973327637,
				-0.1086927279829979
			],
			"type":"VEC3"
		},
		{
			"bufferView":19,
			"componentType":5126,
			"count":76,
			"type":"VEC3"
		},
		{
			"bufferView":20,
			"componentType":5126,
			"count":76,
			"type":"VEC2"
		},
		{
			"bufferView":21,
			"componentType":5121,
			"count":76,
			"type":"VEC4"
		},
		{
			"bufferView":22,
			"componentType":5126,
			"count":76,
			"type":"VEC4"
		},
		{
			"bufferView":23,
			"componentType":5123,
			"count":264,
			"type":"SCALAR"
		},
		{
			"bufferView":24,
			"componentType":5126,
			"count":995,
			"max":[
				0.2652694880962372,
				0.9446630477905273,
				0.10655373334884644
			],
			"min":[
				-0.2652694880962372,
				0.3014695644378662,
				-0.1086927279829979
			],
			"type":"VEC3"
		},
		{
			"bufferView":25,
			"componentType":5126,
			"count":995,
			"type":"VEC3"
		},
		{
			"bufferView":26,
			"componentType":5126,
			"count":995,
			"type":"VEC2"
		},
		{
			"bufferView":27,
			"componentType":5121,
			"count":995,
			"type":"VEC4"
		},
		{
			"bufferView":28,
			"componentType":5126,
			"count":995,
			"type":"VEC4"
		},
		{
			"bufferView":29,
			"componentType":5123,
			"count":4380,
			"type":"SCALAR"
		},
		{
			"bufferView":30,
			"componentType":5126,
			"count":1034,
			"max":[
				0.1704442948102951,
				0.3071763813495636,
				0.07375719398260117
			],
			"min":[
				-0.1704442799091339,
				0.007599386852234602,
				-0.14012038707733154
			],
			"type":"VEC3"
		},
		{
			"bufferView":31,
			"componentType":5126,
			"count":1034,
			"type":"VEC3"
		},
		{
			"bufferView":32,
			"componentType":5126,
			"count":1034,
			"type":"VEC2"
		},
		{
			"bufferView":33,
			"componentType":5121,
			"count":1034,
			"type":"VEC4"
		},
		{
			"bufferView":34,
			"componentType":5126,
			"count":1034,
			"type":"VEC4"
		},
		{
			"bufferView":35,
			"componentType":5123,
			"count":4608,
			"type":"SCALAR"
		},
		{
			"bufferView":36,
			"componentType":5126,
			"count":304,
			"max":[
				0.050999999046325684,
				1.6864999532699585,
				-0.07000000029802322
			],
			"min":[
				-0.050999999046325684,
				1.6634999513626099,
				-0.08799999952316284
			],
			"type":"VEC3"
		},
		{
			"bufferView":37,
			"componentType":5126,
			"count":304,
			"type":"VEC3"
		},
		{
			"bufferView":38,
			"componentType":5126,
			"count":304,
			"type":"VEC2"
		},
		{
			"bufferView":39,
			"componentType":5121,
			"count":304,
			"type":"VEC4"
		},
		{
			"bufferView":40,
			"componentType":5126,
			"count":304,
			"type":"VEC4"
		},
		{
			"bufferView":41,
			"componentType":5123,
			"count":1152,
			"type":"SCALAR"
		},
		{
			"bufferView":42,
			"componentType":5126,
			"count":220,
			"max":[
				0.04349999874830246,
				1.6848000288009644,
				-0.08122024685144424
			],
			"min":[
				-0.04349999874830246,
				1.6651999950408936,
				-0.08977975696325302
			],
			"type":"VEC3"
		},
		{
			"bufferView":43,
			"componentType":5126,
			"count":220,
			"type":"VEC3"
		},
		{
			"bufferView":44,
			"componentType":5126,
			"count":220,
			"type":"VEC2"
		},
		{
			"bufferView":45,
			"componentType":5121,
			"count":220,
			"type":"VEC4"
		},
		{
			"bufferView":46,
			"componentType":5126,
			"count":220,
			"type":"VEC4"
		},
		{
			"bufferView":47,
			"componentType":5123,
			"count":720,
			"type":"SCALAR"
		},
		{
			"bufferView":48,
			"componentType":5126,
			"count":160,
			"max":[
				0.03799443691968918,
				1.6794999837875366,
				-0.08689788728952408
			],
			"min":[
				-0.03799443691968918,
				1.6705000400543213,
				-0.0907021164894104
			],
			"type":"VEC3"
		},
		{
			"bufferView":49,
			"componentType":5126,
			"count":160,
			"type":"VEC3"
		},
		{
			"bufferView":50,
			"componentType":5126,
			"count":160,
			"type":"VEC2"
		},
		{
			"bufferView":51,
			"componentType":5121,
			"count":160,
			"type":"VEC4"
		},
		{
			"bufferView":52,
			"componentType":5126,
			"count":160,
			"type":"VEC4"
		},
		{
			"bufferView":53,
			"componentType":5123,
			"count":480,
			"type":"SCALAR"
		},
		{
			"bufferView":54,
			"componentType":5126,
			"count":98,
			"max":[
				0.01899999938905239,
				1.6074999570846558,
				-0.07772024720907211
			],
			"min":[
				-0.01899999938905239,
				1.5985000133514404,
				-0.08627975732088089
			],
			"type":"VEC3"
		},
		{
			"bufferView":55,
			"componentType":5126,
			"count":98,
			"type":"VEC3"
		},
		{
			"bufferView":56,
			"componentType":5126,
			"count":98,
			"type":"VEC2"
		},
		{
			"bufferView":57,
			"componentType":5121,
			"count":98,
			"type":"VEC4"
		},
		{
			"bufferView":58,
			"componentType":5126,
			"count":98,
			"type":"VEC4"
		},
		{
			"bufferView":59,
			"componentType":5123,
			"count":360,
			"type":"SCALAR"
		},
		{
			"bufferView":60,
			"componentType":5126,
			"count":140,
			"max":[
				0.09700000286102295,
				1.7799999713897705,
				0.019999999552965164
			],
			"min":[
				0.0729999989271164,
				1.659999966621399,
				-0.07999999821186066
			],
			"type":"VEC3"
		},
		{
			"bufferView":61,
			"componentType":5126,
			"count":140,
			"type":"VEC3"
		},
		{
			"bufferView":62,
			"componentType":5126,
			"count":140,
			"type":"VEC2"
		},
		{
			"bufferView":63,
			"componentType":5121,
			"count":140,
			"type":"VEC4"
		},
		{
			"bufferView":64,
			"componentType":5126,
			"count":140,
			"type":"VEC4"
		},
		{
			"bufferView":65,
			"componentType":5123,
			"count":576,
			"type":"SCALAR"
		},
		{
			"bufferView":66,
			"componentType":5126,
			"count":56,
			"max":[
				0.2752000093460083,
				1.440000057220459,
				0.27320000529289246
			],
			"min":[
				-0.2752000093460083,
				0.4399999976158142,
				0.12319999933242798
			],
			"type":"VEC3"
		},
		{
			"bufferView":67,
			"componentType":5126,
			"count":56,
			"type":"VEC3"
		},
		{
			"bufferView":68,
			"componentType":5126,
			"count":56,
			"type":"VEC2"
		},
		{
			"bufferView":69,
			"componentType":5121,
			"count":56,
			"type":"VEC4"
		},
		{
			"bufferView":70,
			"componentType":5126,
			"count":56,
			"type":"VEC4"
		},
		{
			"bufferView":71,
			"componentType":5123,
			"count":252,
			"type":"SCALAR"
		},
		{
			"bufferView":72,
			"componentType":5126,
			"count":24,
			"max":[
				0.02500000037252903,
				0.9700000286102295,
				-0.10350000113248825
			],
			"min":[
				-0.02500000037252903,
				0.9300000071525574,
				-0.11550000309944153
			],
			"type":"VEC3"
		},
		{
			"bufferView":73,
			"componentType":5126,
			"count":24,
			"type":"VEC3"
		},
		{
			"bufferView":74,
			"componentType":5126,
			"count":24,
			"type":"VEC2"
		},
		{
			"bufferView":75,
			"componentType":5121,
			"count":24,
			"type":"VEC4"
		},
		{
			"bufferView":76,
			"componentType":5126,
			"count":24,
			"type":"VEC4"
		},
		{
			"bufferView":77,
			"componentType":5123,
			"count":36,
			"type":"SCALAR"
		},
		{
			"bufferView":78,
			"componentType":5126,
			"count":108,
			"max":[
				0.24959999322891235,
				0.7876890301704407,
				-0.08872050791978836
			],
			"min":[
				0.23759999871253967,
				0.4277992248535156,
				-0.8521128296852112
			],
			"type":"VEC3"
		},
		{
			"bufferView":79,
			"componentType":5126,
			"count":108,
			"type":"VEC3"
		},
		{
			"bufferView":80,
			"componentType":5126,
			"count":108,
			"type":"VEC2"
		},
		{
			"bufferView":81,
			"componentType":5121,
			"count":108,
			"type":"VEC4"
		},
		{
			"bufferView":82,
			"componentType":5126,
			"count":108,
			"type":"VEC4"
		},
		{
			"bufferView":83,
			"componentType":5123,
			"count":156,
			"type":"SCALAR"
		},
		{
			"bufferView":84,
			"componentType":5126,
			"count":42,
			"max":[
				0.2595999836921692,
				0.855627179145813,
				0.07275798916816711
			],
			"min":[
				0.22759999334812164,
				0.760787308216095,
				-0.08628112822771072
			],
			"type":"VEC3"
		},
		{
			"bufferView":85,
			"componentType":5126,
			"count":42,
			"type":"VEC3"
		},
		{
			"bufferView":86,
			"componentType":5126,
			"count":42,
			"type":"VEC2"
		},
		{
			"bufferView":87,
			"componentType":5121,
			"count":42,
			"type":"VEC4"
		},
		{
			"bufferView":88,
			"componentType":5126,
			"count":42,
			"type":"VEC4"
		},
		{
			"bufferView":89,
			"componentType":5123,
			"count":96,
			"type":"SCALAR"
		},
		{
			"bufferView":90,
			"componentType":5126,
			"count":24,
			"max":[
				0.34360000491142273,
				0.7862744331359863,
				-0.07633449882268906
			],
			"min":[
				0.1436000019311905,
				0.7562744617462158,
				-0.10133450478315353
			],
			"type":"VEC3"
		},
		{
			"bufferView":91,
			"componentType":5126,
			"count":24,
			"type":"VEC3"
		},
		{
			"bufferView":92,
			"componentType":5126,
			"count":24,
			"type":"VEC2"
		},
		{
			"bufferView":93,
			"componentType":5121,
			"count":24,
			"type":"VEC4"
		},
		{
			"bufferView":94,
			"componentType":5126,
			"count":24,
			"type":"VEC4"
		},
		{
			"bufferView":95,
			"componentType":5126,
			"count":17,
			"type":"MAT4"
		},
		{
			"bufferView":96,
			"componentType":5126,
			"count":2,
			"max":[
				0.6
			],
			"min":[
				0
			],
			"type":"SCALAR"
		},
		{
			"bufferView":97,
			"componentType":5126,
			"count":2,
			"type":"VEC3"
		},
		{
			"bufferView":98,
			"componentType":5126,
			"count":2,
			"type":"VEC4"
		},
		{
			"bufferView":99,
			"componentType":5126,
			"count":2,
			"type":"VEC3"
		},
		{
			"bufferView":100,
			"componentType":5126,
			"count":2,
			"type":"VEC3"
		},
		{
			"bufferView":101,
			"componentType":5126,
			"count":2,
			"type":"VEC4"
		},
		{
			"bufferView":102,
			"componentType":5126,
			"count":2,
			"type":"VEC3"
		},
		{
			"bufferView":103,
			"componentType":5126,
			"count":2,
			"type":"VEC3"
		},
		{
			"bufferView":104,
			"componentType":5126,
			"count":19,
			"max":[
				0.6
			],
			"min":[
				0
			],
			"type":"SCALAR"
		},
		{
			"bufferView":105,
			"componentType":5126,
			"count":19,
			"type":"VEC4"
		},
		{
			"bufferView":106,
			"componentType":5126,
			"count":2,
			"type":"VEC3"
		},
		{
			"bufferView":107,
			"componentType":5126,
			"count":2,
			"type":"VEC3"
		},
		{
			"bufferView":108,
			"componentType":5126,
			"count":2,
			"type":"VEC4"
		},
		{
			"bufferView":109,
			"componentType":5126,
			"count":2,
			"type":"VEC3"
		},
		{
			"bufferView":110,
			"componentType":5126,
			"count":2,
			"type":"VEC3"
		},
		{
			"bufferView":111,
			"componentType":5126,
			"count":2,
			"type":"VEC4"
		},
		{
			"bufferView":112,
			"componentType":5126,
			"count":2,
			"type":"VEC3"
		},
		{
			"bufferView":113,
			"componentType":5126,
			"count":2,
			"type":"VEC3"
		},
		{
			"bufferView":114,
			"componentType":5126,
			"count":19,
			"type":"VEC4"
		},
		{
			"bufferView":115,
			"componentType":5126,
			"count":2,
			"type":"VEC3"
		},
		{
			"bufferView":116,
			"componentType":5126,
			"count":2,
			"type":"VEC3"
		},
		{
			"bufferView":117,
			"componentType":5126,
			"count":19,
			"type":"VEC4"
		},
		{
			"bufferView":118,
			"componentType":5126,
			"count":2,
			"type":"VEC3"
		},
		{
			"bufferView":119,
			"componentType":5126,
			"count":2,
			"type":"VEC3"
		},
		{
			"bufferView":120,
			"componentType":5126,
			"count":2,
			"type":"VEC4"
		},
		{
			"bufferView":121,
			"componentType":5126,
			"count":2,
			"type":"VEC3"
		},
		{
			"bufferView":122,
			"componentType":5126,
			"count":2,
			"type":"VEC3"
		},
		{
			"bufferView":123,
			"componentType":5126,
			"count":19,
			"type":"VEC4"
		},
		{
			"bufferView":124,
			"componentType":5126,
			"count":2,
			"type":"VEC3"
		},
		{
			"bufferView":125,
			"componentType":5126,
			"count":2,
			"type":"VEC3"
		},
		{
			"bufferView":126,
			"componentType":5126,
			"count":2,
			"type":"VEC4"
		},
		{
			"bufferView":127,
			"componentType":5126,
			"count":2,
			"type":"VEC3"
		},
		{
			"bufferView":128,
			"componentType":5126,
			"count":2,
			"type":"VEC3"
		},
		{
			"bufferView":129,
			"componentType":5126,
			"count":2,
			"type":"VEC4"
		},
		{
			"bufferView":130,
			"componentType":5126,
			"count":2,
			"type":"VEC3"
		},
		{
			"bufferView":131,
			"componentType":5126,
			"count":2,
			"type":"VEC3"
		},
		{
			"bufferView":132,
			"componentType":5126,
			"count":19,
			"type":"VEC4"
		},
		{
			"bufferView":133,
			"componentType":5126,
			"count":2,
			"type":"VEC3"
		},
		{
			"bufferView":134,
			"componentType":5126,
			"count":2,
			"type":"VEC3"
		},
		{
			"bufferView":135,
			"componentType":5126,
			"count":2,
			"type":"VEC4"
		},
		{
			"bufferView":136,
			"componentType":5126,
			"count":2,
			"type":"VEC3"
		},
		{
			"bufferView":137,
			"componentType":5126,
			"count":2,
			"type":"VEC3"
		},
		{
			"bufferView":138,
			"componentType":5126,
			"count":2,
			"type":"VEC4"
		},
		{
			"bufferView":139,
			"componentType":5126,
			"count":2,
			"type":"VEC3"
		},
		{
			"bufferView":140,
			"componentType":5126,
			"count":2,
			"type":"VEC3"
		},
		{
			"bufferView":141,
			"componentType":5126,
			"count":19,
			"type":"VEC4"
		},
		{
			"bufferView":142,
			"componentType":5126,
			"count":2,
			"type":"VEC3"
		},
		{
			"bufferView":143,
			"componentType":5126,
			"count":2,
			"type":"VEC3"
		},
		{
			"bufferView":144,
			"componentType":5126,
			"count":2,
			"type":"VEC4"
		},
		{
			"bufferView":145,
			"componentType":5126,
			"count":2,
			"type":"VEC3"
		},
		{
			"bufferView":146,
			"componentType":5126,
			"count":2,
			"type":"VEC3"
		},
		{
			"bufferView":147,
			"componentType":5126,
			"count":2,
			"type":"VEC4"
		},
		{
			"bufferView":148,
			"componentType":5126,
			"count":2,
			"type":"VEC3"
		},
		{
			"bufferView":149,
			"componentType":5126,
			"count":61,
			"max":[
				2
			],
			"min":[
				0
			],
			"type":"SCALAR"
		},
		{
			"bufferView":150,
			"componentType":5126,
			"count":61,
			"type":"VEC3"
		},
		{
			"bufferView":151,
			"componentType":5126,
			"count":2,
			"max":[
				2
			],
			"min":[
				0
			],
			"type":"SCALAR"
		},
		{
			"bufferView":152,
			"componentType":5126,
			"count":2,
			"type":"VEC4"
		},
		{
			"bufferView":153,
			"componentType":5126,
			"count":2,
			"type":"VEC3"
		},
		{
			"bufferView":154,
			"componentType":5126,
			"count":2,
			"type":"VEC3"
		},
		{
			"bufferView":155,
			"componentType":5126,
			"count":2,
			"type":"VEC4"
		},
		{
			"bufferView":156,
			"componentType":5126,
			"count":2,
			"type":"VEC3"
		},
		{
			"bufferView":157,
			"componentType":5126,
			"count":2,
			"type":"VEC3"
		},
		{
			"bufferView":158,
			"componentType":5126,
			"count":61,
			"type":"VEC4"
		},
		{
			"bufferView":159,
			"componentType":5126,
			"count":2,
			"type":"VEC3"
		},
		{
			"bufferView":160,
			"componentType":5126,
			"count":2,
			"type":"VEC3"
		},
		{
			"bufferView":161,
			"componentType":5126,
			"count":2,
			"type":"VEC4"
		},
		{
			"bufferView":162,
			"componentType":5126,
			"count":2,
			"type":"VEC3"
		},
		{
			"bufferView":163,
			"componentType":5126,
			"count":2,
			"type":"VEC3"
		},
		{
			"bufferView":164,
			"componentType":5126,
			"count":61,
			"type":"VEC4"
		},
		{
			"bufferView":165,
			"componentType":5126,
			"count":2,
			"type":"VEC3"
		},
		{
			"bufferView":166,
			"componentType":5126,
			"count":2,
			"type":"VEC3"
		},
		{
			"bufferView":167,
			"componentType":5126,
			"count":61,
			"type":"VEC4"
		},
		{
			"bufferView":168,
			"componentType":5126,
			"count":2,
			"type":"VEC3"
		},
		{
			"bufferView":169,
			"componentType":5126,
			"count":2,
			"type":"VEC3"
		},
		{
			"bufferView":170,
			"componentType":5126,
			"count":2,
			"type":"VEC4"
		},
		{
			"bufferView":171,
			"componentType":5126,
			"count":2,
			"type":"VEC3"
		},
		{
			"bufferView":172,
			"componentType":5126,
			"count":2,
			"type":"VEC3"
		},
		{
			"bufferView":173,
			"componentType":5126,
			"count":2,
			"type":"VEC4"
		},
		{
			"bufferView":174,
			"componentType":5126,
			"count":2,
			"type":"VEC3"
		},
		{
			"bufferView":175,
			"componentType":5126,
			"count":2,
			"type":"VEC3"
		},
		{
			"bufferView":176,
			"componentType":5126,
			"count":61,
			"type":"VEC4"
		},
		{
			"bufferView":177,
			"componentType":5126,
			"count":2,
			"type":"VEC3"
		},
		{
			"bufferView":178,
			"componentType":5126,
			"count":2,
			"type":"VEC3"
		},
		{
			"bufferView":179,
			"componentType":5126,
			"count":2,
			"type":"VEC4"
		},
		{
			"bufferView":180,
			"componentType":5126,
			"count":2,
			"type":"VEC3"
		},
		{
			"bufferView":181,
			"componentType":5126,
			"count":2,
			"type":"VEC3"
		},
		{
			"bufferView":182,
			"componentType":5126,
			"count":2,
			"type":"VEC4"
		},
		{
			"bufferView":183,
			"componentType":5126,
			"count":2,
			"type":"VEC3"
		},
		{
			"bufferView":184,
			"componentType":5126,
			"count":2,
			"type":"VEC3"
		},
		{
			"bufferView":185,
			"componentType":5126,
			"count":2,
			"type":"VEC4"
		},
		{
			"bufferView":186,
			"componentType":5126,
			"count":2,
			"type":"VEC3"
		},
		{
			"bufferView":187,
			"componentType":5126,
			"count":2,
			"type":"VEC3"
		},
		{
			"bufferView":188,
			"componentType":5126,
			"count":2,
			"type":"VEC4"
		},
		{
			"bufferView":189,
			"componentType":5126,
			"count":2,
			"type":"VEC3"
		},
		{
			"bufferView":190,
			"componentType":5126,
			"count":2,
			"type":"VEC3"
		},
		{
			"bufferView":191,
			"componentType":5126,
			"count":2,
			"type":"VEC4"
		},
		{
			"bufferView":192,
			"componentType":5126,
			"count":2,
			"type":"VEC3"
		},
		{
			"bufferView":193,
			"componentType":5126,
			"count":2,
			"type":"VEC3"
		},
		{
			"bufferView":194,
			"componentType":5126,
			"count":2,
			"type":"VEC4"
		},
		{
			"bufferView":195,
			"componentType":5126,
			"count":2,
			"type":"VEC3"
		},
		{
			"bufferView":196,
			"componentType":5126,
			"count":2,
			"type":"VEC3"
		},
		{
			"bufferView":197,
			"componentType":5126,
			"count":2,
			"type":"VEC4"
		},
		{
			"bufferView":198,
			"componentType":5126,
			"count":2,
			"type":"VEC3"
		},
		{
			"bufferView":199,
			"componentType":5126,
			"count":2,
			"type":"VEC3"
		},
		{
			"bufferView":200,
			"componentType":5126,
			"count":2,
			"type":"VEC4"
		},
		{
			"bufferView":201,
			"componentType":5126,
			"count":2,
			"type":"VEC3"
		},
		{
			"bufferView":202,
			"componentType":5126,
			"count":31,
			"max":[
				1
			],
			"min":[
				0
			],
			"type":"SCALAR"
		},
		{
			"bufferView":203,
			"componentType":5126,
			"count":31,
			"type":"VEC3"
		},
		{
			"bufferView":204,
			"componentType":5126,
			"count":31,
			"type":"VEC4"
		},
		{
			"bufferView":205,
			"componentType":5126,
			"count":2,
			"max":[
				1
			],
			"min":[
				0
			],
			"type":"SCALAR"
		},
		{
			"bufferView":206,
			"componentType":5126,
			"count":2,
			"type":"VEC3"
		},
		{
			"bufferView":207,
			"componentType":5126,
			"count":2,
			"type":"VEC3"
		},
		{
			"bufferView":208,
			"componentType":5126,
			"count":2,
			"type":"VEC4"
		},
		{
			"bufferView":209,
			"componentType":5126,
			"count":2,
			"type":"VEC3"
		},
		{
			"bufferView":210,
			"componentType":5126,
			"count":2,
			"type":"VEC3"
		},
		{
			"bufferView":211,
			"componentType":5126,
			"count":31,
			"type":"VEC4"
		},
		{
			"bufferView":212,
			"componentType":5126,
			"count":2,
			"type":"VEC3"
		},
		{
			"bufferView":213,
			"componentType":5126,
			"count":2,
			"type":"VEC3"
		},
		{
			"bufferView":214,
			"componentType":5126,
			"count":2,
			"type":"VEC4"
		},
		{
			"bufferView":215,
			"componentType":5126,
			"count":2,
			"type":"VEC3"
		},
		{
			"bufferView":216,
			"componentType":5126,
			"count":2,
			"type":"VEC3"
		},
		{
			"bufferView":217,
			"componentType":5126,
			"count":2,
			"type":"VEC4"
		},
		{
			"bufferView":218,
			"componentType":5126,
			"count":2,
			"type":"VEC3"
		},
		{
			"bufferView":219,
			"componentType":5126,
			"count":2,
			"type":"VEC3"
		},
		{
			"bufferView":220,
			"componentType":5126,
			"count":31,
			"type":"VEC4"
		},
		{
			"bufferView":221,
			"componentType":5126,
			"count":2,
			"type":"VEC3"
		},
		{
			"bufferView":222,
			"componentType":5126,
			"count":2,
			"type":"VEC3"
		},
		{
			"bufferView":223,
			"componentType":5126,
			"count":2,
			"type":"VEC4"
		},
		{
			"bufferView":224,
			"componentType":5126,
			"count":2,
			"type":"VEC3"
		},
		{
			"bufferView":225,
			"componentType":5126,
			"count":2,
			"type":"VEC3"
		},
		{
			"bufferView":226,
			"componentType":5126,
			"count":2,
			"type":"VEC4"
		},
		{
			"bufferView":227,
			"componentType":5126,
			"count":2,
			"type":"VEC3"
		},
		{
			"bufferView":228,
			"componentType":5126,
			"count":2,
			"type":"VEC3"
		},
		{
			"bufferView":229,
			"componentType":5126,
			"count":31,
			"type":"VEC4"
		},
		{
			"bufferView":230,
			"componentType":5126,
			"count":2,
			"type":"VEC3"
		},
		{
			"bufferView":231,
			"componentType":5126,
			"count":2,
			"type":"VEC3"
		},
		{
			"bufferView":232,
			"componentType":5126,
			"count":2,
			"type":"VEC4"
		},
		{
			"bufferView":233,
			"componentType":5126,
			"count":2,
			"type":"VEC3"
		},
		{
			"bufferView":234,
			"componentType":5126,
			"count":2,
			"type":"VEC3"
		},
		{
			"bufferView":235,
			"componentType":5126,
			"count":2,
			"type":"VEC4"
		},
		{
			"bufferView":236,
			"componentType":5126,
			"count":2,
			"type":"VEC3"
		},
		{
			"bufferView":237,
			"componentType":5126,
			"count":2,
			"type":"VEC3"
		},
		{
			"bufferView":238,
			"componentType":5126,
			"count":31,
			"type":"VEC4"
		},
		{
			"bufferView":239,
			"componentType":5126,
			"count":2,
			"type":"VEC3"
		},
		{
			"bufferView":240,
			"componentType":5126,
			"count":2,
			"type":"VEC3"
		},
		{
			"bufferView":241,
			"componentType":5126,
			"count":31,
			"type":"VEC4"
		},
		{
			"bufferView":242,
			"componentType":5126,
			"count":2,
			"type":"VEC3"
		},
		{
			"bufferView":243,
			"componentType":5126,
			"count":2,
			"type":"VEC3"
		},
		{
			"bufferView":244,
			"componentType":5126,
			"count":31,
			"type":"VEC4"
		},
		{
			"bufferView":245,
			"componentType":5126,
			"count":2,
			"type":"VEC3"
		},
		{
			"bufferView":246,
			"componentType":5126,
			"count":2,
			"type":"VEC3"
		},
		{
			"bufferView":247,
			"componentType":5126,
			"count":31,
			"type":"VEC4"
		},
		{
			"bufferView":248,
			"componentType":5126,
			"count":2,
			"type":"VEC3"
		},
		{
			"bufferView":249,
			"componentType":5126,
			"count":2,
			"type":"VEC3"
		},
		{
			"bufferView":250,
			"componentType":5126,
			"count":31,
			"type":"VEC4"
		},
		{
			"bufferView":251,
			"componentType":5126,
			"count":2,
			"type":"VEC3"
		},
		{
			"bufferView":252,
			"componentType":5126,
			"count":2,
			"type":"VEC3"
		},
		{
			"bufferView":253,
			"componentType":5126,
			"count":31,
			"type":"VEC4"
		},
		{
			"bufferView":254,
			"componentType":5126,
			"count":2,
			"type":"VEC3"
		}
	],
	"bufferViews":[
		{
			"buffer":0,
			"byteLength":16908,
			"byteOffset":0,
			"target":34962
		},
		{
			"buffer":0,
			"byteLength":16908,
			"byteOffset":16908,
			"target":34962
		},
		{
			"buffer":0,
			"byteLength":11272,
			"byteOffset":33816,
			"target":34962
		},
		{
			"buffer":0,
			"byteLength":5636,
			"byteOffset":45088,
			"target":34962
		},
		{
			"buffer":0,
			"byteLength":22544,
			"byteOffset":50724,
			"target":34962
		},
		{
			"buffer":0,
			"byteLength":11616,
			"byteOffset":73268,
			"target":34963
		},
		{
			"buffer":0,
			"byteLength":35520,
			"byteOffset":84884,
			"target":34962
		},
		{
			"buffer":0,
			"byteLength":35520,
			"byteOffset":120404,
			"target":34962
		},
		{
			"buffer":0,
			"byteLength":23680,
			"byteOffset":155924,
			"target":34962
		},
		{
			"buffer":0,
			"byteLength":11840,
			"byteOffset":179604,
			"target":34962
		},
		{
			"buffer":0,
			"byteLength":47360,
			"byteOffset":191444,
			"target":34962
		},
		{
			"buffer":0,
			"byteLength":20880,
			"byteOffset":238804,
			"target":34963
		},
		{
			"buffer":0,
			"byteLength":22992,
			"byteOffset":259684,
			"target":34962
		},
		{
			"buffer":0,
			"byteLength":22992,
			"byteOffset":282676,
			"target":34962
		},
		{
			"buffer":0,
			"byteLength":15328,
			"byteOffset":305668,
			"target":34962
		},
		{
			"buffer":0,
			"byteLength":7664,
			"byteOffset":320996,
			"target":34962
		},
		{
			"buffer":0,
			"byteLength":30656,
			"byteOffset":328660,
			"target":34962
		},
		{
			"buffer":0,
			"byteLength":17304,
			"byteOffset":359316,
			"target":34963
		},
		{
			"buffer":0,
			"byteLength":912,
			"byteOffset":376620,
			"target":34962
		},
		{
			"buffer":0,
			"byteLength":912,
			"byteOffset":377532,
			"target":34962
		},
		{
			"buffer":0,
			"byteLength":608,
			"byteOffset":378444,
			"target":34962
		},
		{
			"buffer":0,
			"byteLength":304,
			"byteOffset":379052,
			"target":34962
		},
		{
			"buffer":0,
			"byteLength":1216,
			"byteOffset":379356,
			"target":34962
		},
		{
			"buffer":0,
			"byteLength":528,
			"byteOffset":380572,
			"target":34963
		},
		{
			"buffer":0,
			"byteLength":11940,
			"byteOffset":381100,
			"target":34962
		},
		{
			"buffer":0,
			"byteLength":11940,
			"byteOffset":393040,
			"target":34962
		},
		{
			"buffer":0,
			"byteLength":7960,
			"byteOffset":404980,
			"target":34962
		},
		{
			"buffer":0,
			"byteLength":3980,
			"byteOffset":412940,
			"target":34962
		},
		{
			"buffer":0,
			"byteLength":15920,
			"byteOffset":416920,
			"target":34962
		},
		{
			"buffer":0,
			"byteLength":8760,
			"byteOffset":432840,
			"target":34963
		},
		{
			"buffer":0,
			"byteLength":12408,
			"byteOffset":441600,
			"target":34962
		},
		{
			"buffer":0,
			"byteLength":12408,
			"byteOffset":454008,
			"target":34962
		},
		{
			"buffer":0,
			"byteLength":8272,
			"byteOffset":466416,
			"target":34962
		},
		{
			"buffer":0,
			"byteLength":4136,
			"byteOffset":474688,
			"target":34962
		},
		{
			"buffer":0,
			"byteLength":16544,
			"byteOffset":478824,
			"target":34962
		},
		{
			"buffer":0,
			"byteLength":9216,
			"byteOffset":495368,
			"target":34963
		},
		{
			"buffer":0,
			"byteLength":3648,
			"byteOffset":504584,
			"target":34962
		},
		{
			"buffer":0,
			"byteLength":3648,
			"byteOffset":508232,
			"target":34962
		},
		{
			"buffer":0,
			"byteLength":2432,
			"byteOffset":511880,
			"target":34962
		},
		{
			"buffer":0,
			"byteLength":1216,
			"byteOffset":514312,
			"target":34962
		},
		{
			"buffer":0,
			"byteLength":4864,
			"byteOffset":515528,
			"target":34962
		},
		{
			"buffer":0,
			"byteLength":2304,
			"byteOffset":520392,
			"target":34963
		},
		{
			"buffer":0,
			"byteLength":2640,
			"byteOffset":522696,
			"target":34962
		},
		{
			"buffer":0,
			"byteLength":2640,
			"byteOffset":525336,
			"target":34962
		},
		{
			"buffer":0,
			"byteLength":1760,
			"byteOffset":527976,
			"target":34962
		},
		{
			"buffer":0,
			"byteLength":880,
			"byteOffset":529736,
			"target":34962
		},
		{
			"buffer":0,
			"byteLength":3520,
			"byteOffset":530616,
			"target":34962
		},
		{
			"buffer":0,
			"byteLength":1440,
			"byteOffset":534136,
			"target":34963
		},
		{
			"buffer":0,
			"byteLength":1920,
			"byteOffset":535576,
			"target":34962
		},
		{
			"buffer":0,
			"byteLength":1920,
			"byteOffset":537496,
			"target":34962
		},
		{
			"buffer":0,
			"byteLength":1280,
			"byteOffset":539416,
			"target":34962
		},
		{
			"buffer":0,
			"byteLength":640,
			"byteOffset":540696,
			"target":34962
		},
		{
			"buffer":0,
			"byteLength":2560,
			"byteOffset":541336,
			"target":34962
		},
		{
			"buffer":0,
			"byteLength":960,
			"byteOffset":543896,
			"target":34963
		},
		{
			"buffer":0,
			"byteLength":1176,
			"byteOffset":544856,
			"target":34962
		},
		{
			"buffer":0,
			"byteLength":1176,
			"byteOffset":546032,
			"target":34962
		},
		{
			"buffer":0,
			"byteLength":784,
			"byteOffset":547208,
			"target":34962
		},
		{
			"buffer":0,
			"byteLength":392,
			"byteOffset":547992,
			"target":34962
		},
		{
			"buffer":0,
			"byteLength":1568,
			"byteOffset":548384,
			"target":34962
		},
		{
			"buffer":0,
			"byteLength":720,
			"byteOffset":549952,
			"target":34963
		},
		{
			"buffer":0,
			"byteLength":1680,
			"byteOffset":550672,
			"target":34962
		},
		{
			"buffer":0,
			"byteLength":1680,
			"byteOffset":552352,
			"target":34962
		},
		{
			"buffer":0,
			"byteLength":1120,
			"byteOffset":554032,
			"target":34962
		},
		{
			"buffer":0,
			"byteLength":560,
			"byteOffset":555152,
			"target":34962
		},
		{
			"buffer":0,
			"byteLength":2240,
			"byteOffset":555712,
			"target":34962
		},
		{
			"buffer":0,
			"byteLength":1152,
			"byteOffset":557952,
			"target":34963
		},
		{
			"buffer":0,
			"byteLength":672,
			"byteOffset":559104,
			"target":34962
		},
		{
			"buffer":0,
			"byteLength":672,
			"byteOffset":559776,
			"target":34962
		},
		{
			"buffer":0,
			"byteLength":448,
			"byteOffset":560448,
			"target":34962
		},
		{
			"buffer":0,
			"byteLength":224,
			"byteOffset":560896,
			"target":34962
		},
		{
			"buffer":0,
			"byteLength":896,
			"byteOffset":561120,
			"target":34962
		},
		{
			"buffer":0,
			"byteLength":504,
			"byteOffset":562016,
			"target":34963
		},
		{
			"buffer":0,
			"byteLength":288,
			"byteOffset":562520,
			"target":34962
		},
		{
			"buffer":0,
			"byteLength":288,
			"byteOffset":562808,
			"target":34962
		},
		{
			"buffer":0,
			"byteLength":192,
			"byteOffset":563096,
			"target":34962
		},
		{
			"buffer":0,
			"byteLength":96,
			"byteOffset":563288,
			"target":34962
		},
		{
			"buffer":0,
			"byteLength":384,
			"byteOffset":563384,
			"target":34962
		},
		{
			"buffer":0,
			"byteLength":72,
			"byteOffset":563768,
			"target":34963
		},
		{
			"buffer":0,
			"byteLength":1296,
			"byteOffset":563840,
			"target":34962
		},
		{
			"buffer":0,
			"byteLength":1296,
			"byteOffset":565136,
			"target":34962
		},
		{
			"buffer":0,
			"byteLength":864,
			"byteOffset":566432,
			"target":34962
		},
		{
			"buffer":0,
			"byteLength":432,
			"byteOffset":567296,
			"target":34962
		},
		{
			"buffer":0,
			"byteLength":1728,
			"byteOffset":567728,
			"target":34962
		},
		{
			"buffer":0,
			"byteLength":312,
			"byteOffset":569456,
			"target":34963
		},
		{
			"buffer":0,
			"byteLength":504,
			"byteOffset":569768,
			"target":34962
		},
		{
			"buffer":0,
			"byteLength":504,
			"byteOffset":570272,
			"target":34962
		},
		{
			"buffer":0,
			"byteLength":336,
			"byteOffset":570776,
			"target":34962
		},
		{
			"buffer":0,
			"byteLength":168,
			"byteOffset":571112,
			"target":34962
		},
		{
			"buffer":0,
			"byteLength":672,
			"byteOffset":571280,
			"target":34962
		},
		{
			"buffer":0,
			"byteLength":192,
			"byteOffset":571952,
			"target":34963
		},
		{
			"buffer":0,
			"byteLength":288,
			"byteOffset":572144,
			"target":34962
		},
		{
			"buffer":0,
			"byteLength":288,
			"byteOffset":572432,
			"target":34962
		},
		{
			"buffer":0,
			"byteLength":192,
			"byteOffset":572720,
			"target":34962
		},
		{
			"buffer":0,
			"byteLength":96,
			"byteOffset":572912,
			"target":34962
		},
		{
			"buffer":0,
			"byteLength":384,
			"byteOffset":573008,
			"target":34962
		},
		{
			"buffer":0,
			"byteLength":1088,
			"byteOffset":573392
		},
		{
			"buffer":0,
			"byteLength":8,
			"byteOffset":574480
		},
		{
			"buffer":0,
			"byteLength":24,
			"byteOffset":574488
		},
		{
			"buffer":0,
			"byteLength":32,
			"byteOffset":574512
		},
		{
			"buffer":0,
			"byteLength":24,
			"byteOffset":574544
		},
		{
			"buffer":0,
			"byteLength":24,
			"byteOffset":574568
		},
		{
			"buffer":0,
			"byteLength":32,
			"byteOffset":574592
		},
		{
			"buffer":0,
			"byteLength":24,
			"byteOffset":574624
		},
		{
			"buffer":0,
			"byteLength":24,
			"byteOffset":574648
		},
		{
			"buffer":0,
			"byteLength":76,
			"byteOffset":574672
		},
		{
			"buffer":0,
			"byteLength":304,
			"byteOffset":574748
		},
		{
			"buffer":0,
			"byteLength":24,
			"byteOffset":575052
		},
		{
			"buffer":0,
			"byteLength":24,
			"byteOffset":575076
		},
		{
			"buffer":0,
			"byteLength":32,
			"byteOffset":575100
		},
		{
			"buffer":0,
			"byteLength":24,
			"byteOffset":575132
		},
		{
			"buffer":0,
			"byteLength":24,
			"byteOffset":575156
		},
		{
			"buffer":0,
			"byteLength":32,
			"byteOffset":575180
		},
		{
			"buffer":0,
			"byteLength":24,
			"byteOffset":575212
		},
		{
			"buffer":0,
			"byteLength":24,
			"byteOffset":575236
		},
		{
			"buffer":0,
			"byteLength":304,
			"byteOffset":575260
		},
		{
			"buffer":0,
			"byteLength":24,
			"byteOffset":575564
		},
		{
			"buffer":0,
			"byteLength":24,
			"byteOffset":575588
		},
		{
			"buffer":0,
			"byteLength":304,
			"byteOffset":575612
		},
		{
			"buffer":0,
			"byteLength":24,
			"byteOffset":575916
		},
		{
			"buffer":0,
			"byteLength":24,
			"byteOffset":575940
		},
		{
			"buffer":0,
			"byteLength":32,
			"byteOffset":575964
		},
		{
			"buffer":0,
			"byteLength":24,
			"byteOffset":575996
		},
		{
			"buffer":0,
			"byteLength":24,
			"byteOffset":576020
		},
		{
			"buffer":0,
			"byteLength":304,
			"byteOffset":576044
		},
		{
			"buffer":0,
			"byteLength":24,
			"byteOffset":576348
		},
		{
			"buffer":0,
			"byteLength":24,
			"byteOffset":576372
		},
		{
			"buffer":0,
			"byteLength":32,
			"byteOffset":576396
		},
		{
			"buffer":0,
			"byteLength":24,
			"byteOffset":576428
		},
		{
			"buffer":0,
			"byteLength":24,
			"byteOffset":576452
		},
		{
			"buffer":0,
			"byteLength":32,
			"byteOffset":576476
		},
		{
			"buffer":0,
			"byteLength":24,
			"byteOffset":576508
		},
		{
			"buffer":0,
			"byteLength":24,
			"byteOffset":576532
		},
		{
			"buffer":0,
			"byteLength":304,
			"byteOffset":576556
		},
		{
			"buffer":0,
			"byteLength":24,
			"byteOffset":576860
		},
		{
			"buffer":0,
			"byteLength":24,
			"byteOffset":576884
		},
		{
			"buffer":0,
			"byteLength":32,
			"byteOffset":576908
		},
		{
			"buffer":0,
			"byteLength":24,
			"byteOffset":576940
		},
		{
			"buffer":0,
			"byteLength":24,
			"byteOffset":576964
		},
		{
			"buffer":0,
			"byteLength":32,
			"byteOffset":576988
		},
		{
			"buffer":0,
			"byteLength":24,
			"byteOffset":577020
		},
		{
			"buffer":0,
			"byteLength":24,
			"byteOffset":577044
		},
		{
			"buffer":0,
			"byteLength":304,
			"byteOffset":577068
		},
		{
			"buffer":0,
			"byteLength":24,
			"byteOffset":577372
		},
		{
			"buffer":0,
			"byteLength":24,
			"byteOffset":577396
		},
		{
			"buffer":0,
			"byteLength":32,
			"byteOffset":577420
		},
		{
			"buffer":0,
			"byteLength":24,
			"byteOffset":577452
		},
		{
			"buffer":0,
			"byteLength":24,
			"byteOffset":577476
		},
		{
			"buffer":0,
			"byteLength":32,
			"byteOffset":577500
		},
		{
			"buffer":0,
			"byteLength":24,
			"byteOffset":577532
		},
		{
			"buffer":0,
			"byteLength":244,
			"byteOffset":577556
		},
		{
			"buffer":0,
			"byteLength":732,
			"byteOffset":577800
		},
		{
			"buffer":0,
			"byteLength":8,
			"byteOffset":578532
		},
		{
			"buffer":0,
			"byteLength":32,
			"byteOffset":578540
		},
		{
			"buffer":0,
			"byteLength":24,
			"byteOffset":578572
		},
		{
			"buffer":0,
			"byteLength":24,
			"byteOffset":578596
		},
		{
			"buffer":0,
			"byteLength":32,
			"byteOffset":578620
		},
		{
			"buffer":0,
			"byteLength":24,
			"byteOffset":578652
		},
		{
			"buffer":0,
			"byteLength":24,
			"byteOffset":578676
		},
		{
			"buffer":0,
			"byteLength":976,
			"byteOffset":578700
		},
		{
			"buffer":0,
			"byteLength":24,
			"byteOffset":579676
		},
		{
			"buffer":0,
			"byteLength":24,
			"byteOffset":579700
		},
		{
			"buffer":0,
			"byteLength":32,
			"byteOffset":579724
		},
		{
			"buffer":0,
			"byteLength":24,
			"byteOffset":579756
		},
		{
			"buffer":0,
			"byteLength":24,
			"byteOffset":579780
		},
		{
			"buffer":0,
			"byteLength":976,
			"byteOffset":579804
		},
		{
			"buffer":0,
			"byteLength":24,
			"byteOffset":580780
		},
		{
			"buffer":0,
			"byteLength":24,
			"byteOffset":580804
		},
		{
			"buffer":0,
			"byteLength":976,
			"byteOffset":580828
		},
		{
			"buffer":0,
			"byteLength":24,
			"byteOffset":581804
		},
		{
			"buffer":0,
			"byteLength":24,
			"byteOffset":581828
		},
		{
			"buffer":0,
			"byteLength":32,
			"byteOffset":581852
		},
		{
			"buffer":0,
			"byteLength":24,
			"byteOffset":581884
		},
		{
			"buffer":0,
			"byteLength":24,
			"byteOffset":581908
		},
		{
			"buffer":0,
			"byteLength":32,
			"byteOffset":581932
		},
		{
			"buffer":0,
			"byteLength":24,
			"byteOffset":581964
		},
		{
			"buffer":0,
			"byteLength":24,
			"byteOffset":581988
		},
		{
			"buffer":0,
			"byteLength":976,
			"byteOffset":582012
		},
		{
			"buffer":0,
			"byteLength":24,
			"byteOffset":582988
		},
		{
			"buffer":0,
			"byteLength":24,
			"byteOffset":583012
		},
		{
			"buffer":0,
			"byteLength":32,
			"byteOffset":583036
		},
		{
			"buffer":0,
			"byteLength":24,
			"byteOffset":583068
		},
		{
			"buffer":0,
			"byteLength":24,
			"byteOffset":583092
		},
		{
			"buffer":0,
			"byteLength":32,
			"byteOffset":583116
		},
		{
			"buffer":0,
			"byteLength":24,
			"byteOffset":583148
		},
		{
			"buffer":0,
			"byteLength":24,
			"byteOffset":583172
		},
		{
			"buffer":0,
			"byteLength":32,
			"byteOffset":583196
		},
		{
			"buffer":0,
			"byteLength":24,
			"byteOffset":583228
		},
		{
			"buffer":0,
			"byteLength":24,
			"byteOffset":583252
		},
		{
			"buffer":0,
			"byteLength":32,
			"byteOffset":583276
		},
		{
			"buffer":0,
			"byteLength":24,
			"byteOffset":583308
		},
		{
			"buffer":0,
			"byteLength":24,
			"byteOffset":583332
		},
		{
			"buffer":0,
			"byteLength":32,
			"byteOffset":583356
		},
		{
			"buffer":0,
			"byteLength":24,
			"byteOffset":583388
		},
		{
			"buffer":0,
			"byteLength":24,
			"byteOffset":583412
		},
		{
			"buffer":0,
			"byteLength":32,
			"byteOffset":583436
		},
		{
			"buffer":0,
			"byteLength":24,
			"byteOffset":583468
		},
		{
			"buffer":0,
			"byteLength":24,
			"byteOffset":583492
		},
		{
			"buffer":0,
			"byteLength":32,
			"byteOffset":583516
		},
		{
			"buffer":0,
			"byteLength":24,
			"byteOffset":583548
		},
		{
			"buffer":0,
			"byteLength":24,
			"byteOffset":583572
		},
		{
			"buffer":0,
			"byteLength":32,
			"byteOffset":583596
		},
		{
			"buffer":0,
			"byteLength":24,
			"byteOffset":583628
		},
		{
			"buffer":0,
			"byteLength":124,
			"byteOffset":583652
		},
		{
			"buffer":0,
			"byteLength":372,
			"byteOffset":583776
		},
		{
			"buffer":0,
			"byteLength":496,
			"byteOffset":584148
		},
		{
			"buffer":0,
			"byteLength":8,
			"byteOffset":584644
		},
		{
			"buffer":0,
			"byteLength":24,
			"byteOffset":584652
		},
		{
			"buffer":0,
			"byteLength":24,
			"byteOffset":584676
		},
		{
			"buffer":0,
			"byteLength":32,
			"byteOffset":584700
		},
		{
			"buffer":0,
			"byteLength":24,
			"byteOffset":584732
		},
		{
			"buffer":0,
			"byteLength":24,
			"byteOffset":584756
		},
		{
			"buffer":0,
			"byteLength":496,
			"byteOffset":584780
		},
		{
			"buffer":0,
			"byteLength":24,
			"byteOffset":585276
		},
		{
			"buffer":0,
			"byteLength":24,
			"byteOffset":585300
		},
		{
			"buffer":0,
			"byteLength":32,
			"byteOffset":585324
		},
		{
			"buffer":0,
			"byteLength":24,
			"byteOffset":585356
		},
		{
			"buffer":0,
			"byteLength":24,
			"byteOffset":585380
		},
		{
			"buffer":0,
			"byteLength":32,
			"byteOffset":585404
		},
		{
			"buffer":0,
			"byteLength":24,
			"byteOffset":585436
		},
		{
			"buffer":0,
			"byteLength":24,
			"byteOffset":585460
		},
		{
			"buffer":0,
			"byteLength":496,
			"byteOffset":585484
		},
		{
			"buffer":0,
			"byteLength":24,
			"byteOffset":585980
		},
		{
			"buffer":0,
			"byteLength":24,
			"byteOffset":586004
		},
		{
			"buffer":0,
			"byteLength":32,
			"byteOffset":586028
		},
		{
			"buffer":0,
			"byteLength":24,
			"byteOffset":586060
		},
		{
			"buffer":0,
			"byteLength":24,
			"byteOffset":586084
		},
		{
			"buffer":0,
			"byteLength":32,
			"byteOffset":586108
		},
		{
			"buffer":0,
			"byteLength":24,
			"byteOffset":586140
		},
		{
			"buffer":0,
			"byteLength":24,
			"byteOffset":586164
		},
		{
			"buffer":0,
			"byteLength":496,
			"byteOffset":586188
		},
		{
			"buffer":0,
			"byteLength":24,
			"byteOffset":586684
		},
		{
			"buffer":0,
			"byteLength":24,
			"byteOffset":586708
		},
		{
			"buffer":0,
			"byteLength":32,
			"byteOffset":586732
		},
		{
			"buffer":0,
			"byteLength":24,
			"byteOffset":586764
		},
		{
			"buffer":0,
			"byteLength":24,
			"byteOffset":586788
		},
		{
			"buffer":0,
			"byteLength":32,
			"byteOffset":586812
		},
		{
			"buffer":0,
			"byteLength":24,
			"byteOffset":586844
		},
		{
			"buffer":0,
			"byteLength":24,
			"byteOffset":586868
		},
		{
			"buffer":0,
			"byteLength":496,
			"byteOffset":586892
		},
		{
			"buffer":0,
			"byteLength":24,
			"byteOffset":587388
		},
		{
			"buffer":0,
			"byteLength":24,
			"byteOffset":587412
		},
		{
			"buffer":0,
			"byteLength":496,
			"byteOffset":587436
		},
		{
			"buffer":0,
			"byteLength":24,
			"byteOffset":587932
		},
		{
			"buffer":0,
			"byteLength":24,
			"byteOffset":587956
		},
		{
			"buffer":0,
			"byteLength":496,
			"byteOffset":587980
		},
		{
			"buffer":0,
			"byteLength":24,
			"byteOffset":588476
		},
		{
			"buffer":0,
			"byteLength":24,
			"byteOffset":588500
		},
		{
			"buffer":0,
			"byteLength":496,
			"byteOffset":588524
		},
		{
			"buffer":0,
			"byteLength":24,
			"byteOffset":589020
		},
		{
			"buffer":0,
			"byteLength":24,
			"byteOffset":589044
		},
		{
			"buffer":0,
			"byteLength":496,
			"byteOffset":589068
		},
		{
			"buffer":0,
			"byteLength":24,
			"byteOffset":589564
		},
		{
			"buffer":0,
			"byteLength":24,
			"byteOffset":589588
		},
		{
			"buffer":0,
			"byteLength":496,
			"byteOffset":589612
		},
		{
			"buffer":0,
			"byteLength":24,
			"byteOffset":590108
		}
	],
	"samplers":[
		{
			"magFilter":9729,
			"minFilter":9987
		}
	],
	"buffers":[
		{
			"byteLength":590132,
			"uri":"shizu.bin"
		}
	]
}
