{
	"asset":{
		"generator":"Khronos glTF Blender I/O v4.2.57",
		"version":"2.0"
	},
	"extensionsUsed":[
		"KHR_materials_clearcoat",
		"KHR_materials_emissive_strength",
		"KHR_materials_sheen"
	],
	"scene":0,
	"scenes":[
		{
			"name":"Scene",
			"nodes":[
				18
			]
		}
	],
	"nodes":[
		{
			"name":"head",
			"translation":[
				0,
				0.09199988842010498,
				0
			]
		},
		{
			"children":[
				0
			],
			"name":"neck",
			"translation":[
				0,
				0.19320011138916016,
				0
			]
		},
		{
			"name":"hand.R",
			"rotation":[
				-0.0023572281934320927,
				-0.01641896925866604,
				0.017661137506365776,
				0.9997064471244812
			],
			"scale":[
				0.9999999403953552,
				1,
				1
			],
			"translation":[
				-7.508788257837296e-09,
				0.23127703368663788,
				9.313225746154785e-10
			]
		},
		{
			"children":[
				2
			],
			"name":"forearm.R",
			"rotation":[
				0.05022243410348892,
				-0.05592840537428856,
				0.06416882574558258,
				0.9951040744781494
			],
			"scale":[
				1,
				1,
				1.0000001192092896
			],
			"translation":[
				-1.7462298274040222e-09,
				0.2528075873851776,
				1.6298145055770874e-09
			]
		},
		{
			"children":[
				3
			],
			"name":"upper_arm.R",
			"rotation":[
				0.9912914037704468,
				0.09286532551050186,
				0.09286650270223618,
				0.009655779227614403
			],
			"scale":[
				0.9999925494194031,
				0.9999997615814209,
				0.9999996423721313
			],
			"translation":[
				0.15824000537395477,
				0.14719998836517334,
				0
			]
		},
		{
			"name":"hand.L",
			"rotation":[
				-0.0023572281934320927,
				0.01641896925866604,
				-0.017661137506365776,
				0.9997064471244812
			],
			"scale":[
				0.9999999403953552,
				1,
				1
			],
			"translation":[
				7.508788257837296e-09,
				0.23127703368663788,
				9.313225746154785e-10
			]
		},
		{
			"children":[
				5
			],
			"name":"forearm.L",
			"rotation":[
				0.05022243410348892,
				0.05592840537428856,
				-0.06416882574558258,
				0.9951040744781494
			],
			"scale":[
				1,
				1,
				1.0000001192092896
			],
			"translation":[
				1.7462298274040222e-09,
				0.2528075873851776,
				1.6298145055770874e-09
			]
		},
		{
			"children":[
				6
			],
			"name":"upper_arm.L",
			"rotation":[
				0.9912914037704468,
				-0.09286532551050186,
				-0.09286650270223618,
				0.009655779227614403
			],
			"scale":[
				0.9999925494194031,
				0.9999997615814209,
				0.9999996423721313
			],
			"translation":[
				-0.15824000537395477,
				0.14719998836517334,
				0
			]
		},
		{
			"children":[
				1,
				4,
				7
			],
			"name":"chest",
			"translation":[
				0,
				0.1563999056816101,
				0
			]
		},
		{
			"children":[
				8
			],
			"name":"spine",
			"translation":[
				0,
				0.13800007104873657,
				0
			]
		},
		{
			"name":"foot.R",
			"rotation":[
				0.5914180278778076,
				9.919559618154494e-10,
				-2.2224488915867369e-10,
				0.8063651323318481
			],
			"translation":[
				4.160029265509735e-11,
				0.377742737531662,
				-1.2791865344752296e-09
			]
		},
		{
			"children":[
				10
			],
			"name":"shin.R",
			"rotation":[
				-0.04152866080403328,
				-0.010850677266716957,
				0.010284041054546833,
				0.9990254640579224
			],
			"scale":[
				1,
				1.0000001192092896,
				1
			],
			"translation":[
				-8.629285730421543e-09,
				0.37744852900505066,
				9.313225746154785e-10
			]
		},
		{
			"children":[
				11
			],
			"name":"thigh.R",
			"rotation":[
				-0.9997796416282654,
				-0.010571152903139591,
				-0.010571259073913097,
				0.014739511534571648
			],
			"scale":[
				1.0000001192092896,
				0.9999998211860657,
				1.000000238418579
			],
			"translation":[
				0.09310400485992432,
				-0.018399953842163086,
				0
			]
		},
		{
			"name":"foot.L",
			"rotation":[
				0.5914180278778076,
				-9.919559618154494e-10,
				2.2224488915867369e-10,
				0.8063651323318481
			],
			"translation":[
				-4.160029265509735e-11,
				0.377742737531662,
				-1.2791865344752296e-09
			]
		},
		{
			"children":[
				13
			],
			"name":"shin.L",
			"rotation":[
				-0.04152866080403328,
				0.010850677266716957,
				-0.010284041054546833,
				0.9990254640579224
			],
			"scale":[
				1,
				1.0000001192092896,
				1
			],
			"translation":[
				8.629285730421543e-09,
				0.37744852900505066,
				9.313225746154785e-10
			]
		},
		{
			"children":[
				14
			],
			"name":"thigh.L",
			"rotation":[
				-0.9997796416282654,
				0.010571152903139591,
				0.010571259073913097,
				0.014739511534571648
			],
			"scale":[
				1.0000001192092896,
				0.9999998211860657,
				1.000000238418579
			],
			"translation":[
				-0.09310400485992432,
				-0.018399953842163086,
				0
			]
		},
		{
			"children":[
				9,
				12,
				15
			],
			"name":"hips",
			"translation":[
				0,
				0.8555999994277954,
				0
			]
		},
		{
			"mesh":0,
			"name":"shuna",
			"skin":0
		},
		{
			"children":[
				17,
				16
			],
			"name":"shuna_rig"
		}
	],
	"animations":[
		{
			"channels":[
				{
					"sampler":0,
					"target":{
						"node":16,
						"path":"translation"
					}
				},
				{
					"sampler":1,
					"target":{
						"node":16,
						"path":"rotation"
					}
				},
				{
					"sampler":2,
					"target":{
						"node":16,
						"path":"scale"
					}
				},
				{
					"sampler":3,
					"target":{
						"node":9,
						"path":"translation"
					}
				},
				{
					"sampler":4,
					"target":{
						"node":9,
						"path":"rotation"
					}
				},
				{
					"sampler":5,
					"target":{
						"node":9,
						"path":"scale"
					}
				},
				{
					"sampler":6,
					"target":{
						"node":8,
						"path":"translation"
					}
				},
				{
					"sampler":7,
					"target":{
						"node":8,
						"path":"rotation"
					}
				},
				{
					"sampler":8,
					"target":{
						"node":8,
						"path":"scale"
					}
				},
				{
					"sampler":9,
					"target":{
						"node":1,
						"path":"translation"
					}
				},
				{
					"sampler":10,
					"target":{
						"node":1,
						"path":"rotation"
					}
				},
				{
					"sampler":11,
					"target":{
						"node":1,
						"path":"scale"
					}
				},
				{
					"sampler":12,
					"target":{
						"node":0,
						"path":"translation"
					}
				},
				{
					"sampler":13,
					"target":{
						"node":0,
						"path":"rotation"
					}
				},
				{
					"sampler":14,
					"target":{
						"node":0,
						"path":"scale"
					}
				},
				{
					"sampler":15,
					"target":{
						"node":4,
						"path":"translation"
					}
				},
				{
					"sampler":16,
					"target":{
						"node":4,
						"path":"rotation"
					}
				},
				{
					"sampler":17,
					"target":{
						"node":4,
						"path":"scale"
					}
				},
				{
					"sampler":18,
					"target":{
						"node":3,
						"path":"translation"
					}
				},
				{
					"sampler":19,
					"target":{
						"node":3,
						"path":"rotation"
					}
				},
				{
					"sampler":20,
					"target":{
						"node":3,
						"path":"scale"
					}
				},
				{
					"sampler":21,
					"target":{
						"node":2,
						"path":"translation"
					}
				},
				{
					"sampler":22,
					"target":{
						"node":2,
						"path":"rotation"
					}
				},
				{
					"sampler":23,
					"target":{
						"node":2,
						"path":"scale"
					}
				},
				{
					"sampler":24,
					"target":{
						"node":7,
						"path":"translation"
					}
				},
				{
					"sampler":25,
					"target":{
						"node":7,
						"path":"rotation"
					}
				},
				{
					"sampler":26,
					"target":{
						"node":7,
						"path":"scale"
					}
				},
				{
					"sampler":27,
					"target":{
						"node":6,
						"path":"translation"
					}
				},
				{
					"sampler":28,
					"target":{
						"node":6,
						"path":"rotation"
					}
				},
				{
					"sampler":29,
					"target":{
						"node":6,
						"path":"scale"
					}
				},
				{
					"sampler":30,
					"target":{
						"node":5,
						"path":"translation"
					}
				},
				{
					"sampler":31,
					"target":{
						"node":5,
						"path":"rotation"
					}
				},
				{
					"sampler":32,
					"target":{
						"node":5,
						"path":"scale"
					}
				},
				{
					"sampler":33,
					"target":{
						"node":12,
						"path":"translation"
					}
				},
				{
					"sampler":34,
					"target":{
						"node":12,
						"path":"rotation"
					}
				},
				{
					"sampler":35,
					"target":{
						"node":12,
						"path":"scale"
					}
				},
				{
					"sampler":36,
					"target":{
						"node":11,
						"path":"translation"
					}
				},
				{
					"sampler":37,
					"target":{
						"node":11,
						"path":"rotation"
					}
				},
				{
					"sampler":38,
					"target":{
						"node":11,
						"path":"scale"
					}
				},
				{
					"sampler":39,
					"target":{
						"node":10,
						"path":"translation"
					}
				},
				{
					"sampler":40,
					"target":{
						"node":10,
						"path":"rotation"
					}
				},
				{
					"sampler":41,
					"target":{
						"node":10,
						"path":"scale"
					}
				},
				{
					"sampler":42,
					"target":{
						"node":15,
						"path":"translation"
					}
				},
				{
					"sampler":43,
					"target":{
						"node":15,
						"path":"rotation"
					}
				},
				{
					"sampler":44,
					"target":{
						"node":15,
						"path":"scale"
					}
				},
				{
					"sampler":45,
					"target":{
						"node":14,
						"path":"translation"
					}
				},
				{
					"sampler":46,
					"target":{
						"node":14,
						"path":"rotation"
					}
				},
				{
					"sampler":47,
					"target":{
						"node":14,
						"path":"scale"
					}
				},
				{
					"sampler":48,
					"target":{
						"node":13,
						"path":"translation"
					}
				},
				{
					"sampler":49,
					"target":{
						"node":13,
						"path":"rotation"
					}
				},
				{
					"sampler":50,
					"target":{
						"node":13,
						"path":"scale"
					}
				}
			],
			"name":"attack",
			"samplers":[
				{
					"input":91,
					"interpolation":"STEP",
					"output":92
				},
				{
					"input":91,
					"interpolation":"STEP",
					"output":93
				},
				{
					"input":91,
					"interpolation":"STEP",
					"output":94
				},
				{
					"input":91,
					"interpolation":"STEP",
					"output":95
				},
				{
					"input":91,
					"interpolation":"STEP",
					"output":96
				},
				{
					"input":91,
					"interpolation":"STEP",
					"output":97
				},
				{
					"input":91,
					"interpolation":"STEP",
					"output":98
				},
				{
					"input":99,
					"interpolation":"LINEAR",
					"output":100
				},
				{
					"input":91,
					"interpolation":"STEP",
					"output":101
				},
				{
					"input":91,
					"interpolation":"STEP",
					"output":102
				},
				{
					"input":91,
					"interpolation":"STEP",
					"output":103
				},
				{
					"input":91,
					"interpolation":"STEP",
					"output":104
				},
				{
					"input":91,
					"interpolation":"STEP",
					"output":105
				},
				{
					"input":91,
					"interpolation":"STEP",
					"output":106
				},
				{
					"input":91,
					"interpolation":"STEP",
					"output":107
				},
				{
					"input":91,
					"interpolation":"STEP",
					"output":108
				},
				{
					"input":99,
					"interpolation":"LINEAR",
					"output":109
				},
				{
					"input":91,
					"interpolation":"STEP",
					"output":110
				},
				{
					"input":91,
					"interpolation":"STEP",
					"output":111
				},
				{
					"input":99,
					"interpolation":"LINEAR",
					"output":112
				},
				{
					"input":91,
					"interpolation":"STEP",
					"output":113
				},
				{
					"input":91,
					"interpolation":"STEP",
					"output":114
				},
				{
					"input":91,
					"interpolation":"STEP",
					"output":115
				},
				{
					"input":91,
					"interpolation":"STEP",
					"output":116
				},
				{
					"input":91,
					"interpolation":"STEP",
					"output":117
				},
				{
					"input":99,
					"interpolation":"LINEAR",
					"output":118
				},
				{
					"input":91,
					"interpolation":"STEP",
					"output":119
				},
				{
					"input":91,
					"interpolation":"STEP",
					"output":120
				},
				{
					"input":91,
					"interpolation":"STEP",
					"output":121
				},
				{
					"input":91,
					"interpolation":"STEP",
					"output":122
				},
				{
					"input":91,
					"interpolation":"STEP",
					"output":123
				},
				{
					"input":91,
					"interpolation":"STEP",
					"output":124
				},
				{
					"input":91,
					"interpolation":"STEP",
					"output":125
				},
				{
					"input":91,
					"interpolation":"STEP",
					"output":126
				},
				{
					"input":99,
					"interpolation":"LINEAR",
					"output":127
				},
				{
					"input":91,
					"interpolation":"STEP",
					"output":128
				},
				{
					"input":91,
					"interpolation":"LINEAR",
					"output":129
				},
				{
					"input":91,
					"interpolation":"LINEAR",
					"output":130
				},
				{
					"input":91,
					"interpolation":"STEP",
					"output":131
				},
				{
					"input":91,
					"interpolation":"LINEAR",
					"output":132
				},
				{
					"input":91,
					"interpolation":"LINEAR",
					"output":133
				},
				{
					"input":91,
					"interpolation":"STEP",
					"output":134
				},
				{
					"input":91,
					"interpolation":"STEP",
					"output":135
				},
				{
					"input":99,
					"interpolation":"LINEAR",
					"output":136
				},
				{
					"input":91,
					"interpolation":"STEP",
					"output":137
				},
				{
					"input":91,
					"interpolation":"LINEAR",
					"output":138
				},
				{
					"input":91,
					"interpolation":"LINEAR",
					"output":139
				},
				{
					"input":91,
					"interpolation":"STEP",
					"output":140
				},
				{
					"input":91,
					"interpolation":"LINEAR",
					"output":141
				},
				{
					"input":91,
					"interpolation":"LINEAR",
					"output":142
				},
				{
					"input":91,
					"interpolation":"STEP",
					"output":143
				}
			]
		},
		{
			"channels":[
				{
					"sampler":0,
					"target":{
						"node":16,
						"path":"translation"
					}
				},
				{
					"sampler":1,
					"target":{
						"node":16,
						"path":"rotation"
					}
				},
				{
					"sampler":2,
					"target":{
						"node":16,
						"path":"scale"
					}
				},
				{
					"sampler":3,
					"target":{
						"node":9,
						"path":"translation"
					}
				},
				{
					"sampler":4,
					"target":{
						"node":9,
						"path":"rotation"
					}
				},
				{
					"sampler":5,
					"target":{
						"node":9,
						"path":"scale"
					}
				},
				{
					"sampler":6,
					"target":{
						"node":8,
						"path":"translation"
					}
				},
				{
					"sampler":7,
					"target":{
						"node":8,
						"path":"rotation"
					}
				},
				{
					"sampler":8,
					"target":{
						"node":8,
						"path":"scale"
					}
				},
				{
					"sampler":9,
					"target":{
						"node":1,
						"path":"translation"
					}
				},
				{
					"sampler":10,
					"target":{
						"node":1,
						"path":"rotation"
					}
				},
				{
					"sampler":11,
					"target":{
						"node":1,
						"path":"scale"
					}
				},
				{
					"sampler":12,
					"target":{
						"node":0,
						"path":"translation"
					}
				},
				{
					"sampler":13,
					"target":{
						"node":0,
						"path":"rotation"
					}
				},
				{
					"sampler":14,
					"target":{
						"node":0,
						"path":"scale"
					}
				},
				{
					"sampler":15,
					"target":{
						"node":4,
						"path":"translation"
					}
				},
				{
					"sampler":16,
					"target":{
						"node":4,
						"path":"rotation"
					}
				},
				{
					"sampler":17,
					"target":{
						"node":4,
						"path":"scale"
					}
				},
				{
					"sampler":18,
					"target":{
						"node":3,
						"path":"translation"
					}
				},
				{
					"sampler":19,
					"target":{
						"node":3,
						"path":"rotation"
					}
				},
				{
					"sampler":20,
					"target":{
						"node":3,
						"path":"scale"
					}
				},
				{
					"sampler":21,
					"target":{
						"node":2,
						"path":"translation"
					}
				},
				{
					"sampler":22,
					"target":{
						"node":2,
						"path":"rotation"
					}
				},
				{
					"sampler":23,
					"target":{
						"node":2,
						"path":"scale"
					}
				},
				{
					"sampler":24,
					"target":{
						"node":7,
						"path":"translation"
					}
				},
				{
					"sampler":25,
					"target":{
						"node":7,
						"path":"rotation"
					}
				},
				{
					"sampler":26,
					"target":{
						"node":7,
						"path":"scale"
					}
				},
				{
					"sampler":27,
					"target":{
						"node":6,
						"path":"translation"
					}
				},
				{
					"sampler":28,
					"target":{
						"node":6,
						"path":"rotation"
					}
				},
				{
					"sampler":29,
					"target":{
						"node":6,
						"path":"scale"
					}
				},
				{
					"sampler":30,
					"target":{
						"node":5,
						"path":"translation"
					}
				},
				{
					"sampler":31,
					"target":{
						"node":5,
						"path":"rotation"
					}
				},
				{
					"sampler":32,
					"target":{
						"node":5,
						"path":"scale"
					}
				},
				{
					"sampler":33,
					"target":{
						"node":12,
						"path":"translation"
					}
				},
				{
					"sampler":34,
					"target":{
						"node":12,
						"path":"rotation"
					}
				},
				{
					"sampler":35,
					"target":{
						"node":12,
						"path":"scale"
					}
				},
				{
					"sampler":36,
					"target":{
						"node":11,
						"path":"translation"
					}
				},
				{
					"sampler":37,
					"target":{
						"node":11,
						"path":"rotation"
					}
				},
				{
					"sampler":38,
					"target":{
						"node":11,
						"path":"scale"
					}
				},
				{
					"sampler":39,
					"target":{
						"node":10,
						"path":"translation"
					}
				},
				{
					"sampler":40,
					"target":{
						"node":10,
						"path":"rotation"
					}
				},
				{
					"sampler":41,
					"target":{
						"node":10,
						"path":"scale"
					}
				},
				{
					"sampler":42,
					"target":{
						"node":15,
						"path":"translation"
					}
				},
				{
					"sampler":43,
					"target":{
						"node":15,
						"path":"rotation"
					}
				},
				{
					"sampler":44,
					"target":{
						"node":15,
						"path":"scale"
					}
				},
				{
					"sampler":45,
					"target":{
						"node":14,
						"path":"translation"
					}
				},
				{
					"sampler":46,
					"target":{
						"node":14,
						"path":"rotation"
					}
				},
				{
					"sampler":47,
					"target":{
						"node":14,
						"path":"scale"
					}
				},
				{
					"sampler":48,
					"target":{
						"node":13,
						"path":"translation"
					}
				},
				{
					"sampler":49,
					"target":{
						"node":13,
						"path":"rotation"
					}
				},
				{
					"sampler":50,
					"target":{
						"node":13,
						"path":"scale"
					}
				}
			],
			"name":"idle",
			"samplers":[
				{
					"input":144,
					"interpolation":"LINEAR",
					"output":145
				},
				{
					"input":146,
					"interpolation":"STEP",
					"output":147
				},
				{
					"input":146,
					"interpolation":"STEP",
					"output":148
				},
				{
					"input":146,
					"interpolation":"STEP",
					"output":149
				},
				{
					"input":146,
					"interpolation":"STEP",
					"output":150
				},
				{
					"input":146,
					"interpolation":"STEP",
					"output":151
				},
				{
					"input":146,
					"interpolation":"STEP",
					"output":152
				},
				{
					"input":144,
					"interpolation":"LINEAR",
					"output":153
				},
				{
					"input":146,
					"interpolation":"STEP",
					"output":154
				},
				{
					"input":146,
					"interpolation":"STEP",
					"output":155
				},
				{
					"input":146,
					"interpolation":"STEP",
					"output":156
				},
				{
					"input":146,
					"interpolation":"STEP",
					"output":157
				},
				{
					"input":146,
					"interpolation":"STEP",
					"output":158
				},
				{
					"input":144,
					"interpolation":"LINEAR",
					"output":159
				},
				{
					"input":146,
					"interpolation":"STEP",
					"output":160
				},
				{
					"input":146,
					"interpolation":"STEP",
					"output":161
				},
				{
					"input":144,
					"interpolation":"LINEAR",
					"output":162
				},
				{
					"input":146,
					"interpolation":"STEP",
					"output":163
				},
				{
					"input":146,
					"interpolation":"STEP",
					"output":164
				},
				{
					"input":146,
					"interpolation":"STEP",
					"output":165
				},
				{
					"input":146,
					"interpolation":"STEP",
					"output":166
				},
				{
					"input":146,
					"interpolation":"STEP",
					"output":167
				},
				{
					"input":146,
					"interpolation":"STEP",
					"output":168
				},
				{
					"input":146,
					"interpolation":"STEP",
					"output":169
				},
				{
					"input":146,
					"interpolation":"STEP",
					"output":170
				},
				{
					"input":144,
					"interpolation":"LINEAR",
					"output":171
				},
				{
					"input":146,
					"interpolation":"STEP",
					"output":172
				},
				{
					"input":146,
					"interpolation":"STEP",
					"output":173
				},
				{
					"input":146,
					"interpolation":"STEP",
					"output":174
				},
				{
					"input":146,
					"interpolation":"STEP",
					"output":175
				},
				{
					"input":146,
					"interpolation":"STEP",
					"output":176
				},
				{
					"input":146,
					"interpolation":"STEP",
					"output":177
				},
				{
					"input":146,
					"interpolation":"STEP",
					"output":178
				},
				{
					"input":146,
					"interpolation":"STEP",
					"output":179
				},
				{
					"input":146,
					"interpolation":"STEP",
					"output":180
				},
				{
					"input":146,
					"interpolation":"STEP",
					"output":181
				},
				{
					"input":146,
					"interpolation":"STEP",
					"output":182
				},
				{
					"input":146,
					"interpolation":"STEP",
					"output":183
				},
				{
					"input":146,
					"interpolation":"STEP",
					"output":184
				},
				{
					"input":146,
					"interpolation":"STEP",
					"output":185
				},
				{
					"input":146,
					"interpolation":"STEP",
					"output":186
				},
				{
					"input":146,
					"interpolation":"STEP",
					"output":187
				},
				{
					"input":146,
					"interpolation":"STEP",
					"output":188
				},
				{
					"input":146,
					"interpolation":"STEP",
					"output":189
				},
				{
					"input":146,
					"interpolation":"STEP",
					"output":190
				},
				{
					"input":146,
					"interpolation":"STEP",
					"output":191
				},
				{
					"input":146,
					"interpolation":"STEP",
					"output":192
				},
				{
					"input":146,
					"interpolation":"STEP",
					"output":193
				},
				{
					"input":146,
					"interpolation":"STEP",
					"output":194
				},
				{
					"input":146,
					"interpolation":"STEP",
					"output":195
				},
				{
					"input":146,
					"interpolation":"STEP",
					"output":196
				}
			]
		},
		{
			"channels":[
				{
					"sampler":0,
					"target":{
						"node":16,
						"path":"translation"
					}
				},
				{
					"sampler":1,
					"target":{
						"node":16,
						"path":"rotation"
					}
				},
				{
					"sampler":2,
					"target":{
						"node":16,
						"path":"scale"
					}
				},
				{
					"sampler":3,
					"target":{
						"node":9,
						"path":"translation"
					}
				},
				{
					"sampler":4,
					"target":{
						"node":9,
						"path":"rotation"
					}
				},
				{
					"sampler":5,
					"target":{
						"node":9,
						"path":"scale"
					}
				},
				{
					"sampler":6,
					"target":{
						"node":8,
						"path":"translation"
					}
				},
				{
					"sampler":7,
					"target":{
						"node":8,
						"path":"rotation"
					}
				},
				{
					"sampler":8,
					"target":{
						"node":8,
						"path":"scale"
					}
				},
				{
					"sampler":9,
					"target":{
						"node":1,
						"path":"translation"
					}
				},
				{
					"sampler":10,
					"target":{
						"node":1,
						"path":"rotation"
					}
				},
				{
					"sampler":11,
					"target":{
						"node":1,
						"path":"scale"
					}
				},
				{
					"sampler":12,
					"target":{
						"node":0,
						"path":"translation"
					}
				},
				{
					"sampler":13,
					"target":{
						"node":0,
						"path":"rotation"
					}
				},
				{
					"sampler":14,
					"target":{
						"node":0,
						"path":"scale"
					}
				},
				{
					"sampler":15,
					"target":{
						"node":4,
						"path":"translation"
					}
				},
				{
					"sampler":16,
					"target":{
						"node":4,
						"path":"rotation"
					}
				},
				{
					"sampler":17,
					"target":{
						"node":4,
						"path":"scale"
					}
				},
				{
					"sampler":18,
					"target":{
						"node":3,
						"path":"translation"
					}
				},
				{
					"sampler":19,
					"target":{
						"node":3,
						"path":"rotation"
					}
				},
				{
					"sampler":20,
					"target":{
						"node":3,
						"path":"scale"
					}
				},
				{
					"sampler":21,
					"target":{
						"node":2,
						"path":"translation"
					}
				},
				{
					"sampler":22,
					"target":{
						"node":2,
						"path":"rotation"
					}
				},
				{
					"sampler":23,
					"target":{
						"node":2,
						"path":"scale"
					}
				},
				{
					"sampler":24,
					"target":{
						"node":7,
						"path":"translation"
					}
				},
				{
					"sampler":25,
					"target":{
						"node":7,
						"path":"rotation"
					}
				},
				{
					"sampler":26,
					"target":{
						"node":7,
						"path":"scale"
					}
				},
				{
					"sampler":27,
					"target":{
						"node":6,
						"path":"translation"
					}
				},
				{
					"sampler":28,
					"target":{
						"node":6,
						"path":"rotation"
					}
				},
				{
					"sampler":29,
					"target":{
						"node":6,
						"path":"scale"
					}
				},
				{
					"sampler":30,
					"target":{
						"node":5,
						"path":"translation"
					}
				},
				{
					"sampler":31,
					"target":{
						"node":5,
						"path":"rotation"
					}
				},
				{
					"sampler":32,
					"target":{
						"node":5,
						"path":"scale"
					}
				},
				{
					"sampler":33,
					"target":{
						"node":12,
						"path":"translation"
					}
				},
				{
					"sampler":34,
					"target":{
						"node":12,
						"path":"rotation"
					}
				},
				{
					"sampler":35,
					"target":{
						"node":12,
						"path":"scale"
					}
				},
				{
					"sampler":36,
					"target":{
						"node":11,
						"path":"translation"
					}
				},
				{
					"sampler":37,
					"target":{
						"node":11,
						"path":"rotation"
					}
				},
				{
					"sampler":38,
					"target":{
						"node":11,
						"path":"scale"
					}
				},
				{
					"sampler":39,
					"target":{
						"node":10,
						"path":"translation"
					}
				},
				{
					"sampler":40,
					"target":{
						"node":10,
						"path":"rotation"
					}
				},
				{
					"sampler":41,
					"target":{
						"node":10,
						"path":"scale"
					}
				},
				{
					"sampler":42,
					"target":{
						"node":15,
						"path":"translation"
					}
				},
				{
					"sampler":43,
					"target":{
						"node":15,
						"path":"rotation"
					}
				},
				{
					"sampler":44,
					"target":{
						"node":15,
						"path":"scale"
					}
				},
				{
					"sampler":45,
					"target":{
						"node":14,
						"path":"translation"
					}
				},
				{
					"sampler":46,
					"target":{
						"node":14,
						"path":"rotation"
					}
				},
				{
					"sampler":47,
					"target":{
						"node":14,
						"path":"scale"
					}
				},
				{
					"sampler":48,
					"target":{
						"node":13,
						"path":"translation"
					}
				},
				{
					"sampler":49,
					"target":{
						"node":13,
						"path":"rotation"
					}
				},
				{
					"sampler":50,
					"target":{
						"node":13,
						"path":"scale"
					}
				}
			],
			"name":"walk",
			"samplers":[
				{
					"input":197,
					"interpolation":"LINEAR",
					"output":198
				},
				{
					"input":197,
					"interpolation":"LINEAR",
					"output":199
				},
				{
					"input":200,
					"interpolation":"STEP",
					"output":201
				},
				{
					"input":200,
					"interpolation":"STEP",
					"output":202
				},
				{
					"input":200,
					"interpolation":"STEP",
					"output":203
				},
				{
					"input":200,
					"interpolation":"STEP",
					"output":204
				},
				{
					"input":200,
					"interpolation":"STEP",
					"output":205
				},
				{
					"input":197,
					"interpolation":"LINEAR",
					"output":206
				},
				{
					"input":200,
					"interpolation":"STEP",
					"output":207
				},
				{
					"input":200,
					"interpolation":"STEP",
					"output":208
				},
				{
					"input":200,
					"interpolation":"STEP",
					"output":209
				},
				{
					"input":200,
					"interpolation":"STEP",
					"output":210
				},
				{
					"input":200,
					"interpolation":"STEP",
					"output":211
				},
				{
					"input":200,
					"interpolation":"STEP",
					"output":212
				},
				{
					"input":200,
					"interpolation":"STEP",
					"output":213
				},
				{
					"input":200,
					"interpolation":"STEP",
					"output":214
				},
				{
					"input":197,
					"interpolation":"LINEAR",
					"output":215
				},
				{
					"input":200,
					"interpolation":"STEP",
					"output":216
				},
				{
					"input":200,
					"interpolation":"STEP",
					"output":217
				},
				{
					"input":200,
					"interpolation":"STEP",
					"output":218
				},
				{
					"input":200,
					"interpolation":"STEP",
					"output":219
				},
				{
					"input":200,
					"interpolation":"STEP",
					"output":220
				},
				{
					"input":200,
					"interpolation":"STEP",
					"output":221
				},
				{
					"input":200,
					"interpolation":"STEP",
					"output":222
				},
				{
					"input":200,
					"interpolation":"STEP",
					"output":223
				},
				{
					"input":197,
					"interpolation":"LINEAR",
					"output":224
				},
				{
					"input":200,
					"interpolation":"STEP",
					"output":225
				},
				{
					"input":200,
					"interpolation":"STEP",
					"output":226
				},
				{
					"input":200,
					"interpolation":"STEP",
					"output":227
				},
				{
					"input":200,
					"interpolation":"STEP",
					"output":228
				},
				{
					"input":200,
					"interpolation":"STEP",
					"output":229
				},
				{
					"input":200,
					"interpolation":"STEP",
					"output":230
				},
				{
					"input":200,
					"interpolation":"STEP",
					"output":231
				},
				{
					"input":200,
					"interpolation":"STEP",
					"output":232
				},
				{
					"input":197,
					"interpolation":"LINEAR",
					"output":233
				},
				{
					"input":200,
					"interpolation":"STEP",
					"output":234
				},
				{
					"input":200,
					"interpolation":"STEP",
					"output":235
				},
				{
					"input":197,
					"interpolation":"LINEAR",
					"output":236
				},
				{
					"input":200,
					"interpolation":"STEP",
					"output":237
				},
				{
					"input":200,
					"interpolation":"STEP",
					"output":238
				},
				{
					"input":197,
					"interpolation":"LINEAR",
					"output":239
				},
				{
					"input":200,
					"interpolation":"STEP",
					"output":240
				},
				{
					"input":200,
					"interpolation":"STEP",
					"output":241
				},
				{
					"input":197,
					"interpolation":"LINEAR",
					"output":242
				},
				{
					"input":200,
					"interpolation":"STEP",
					"output":243
				},
				{
					"input":200,
					"interpolation":"STEP",
					"output":244
				},
				{
					"input":197,
					"interpolation":"LINEAR",
					"output":245
				},
				{
					"input":200,
					"interpolation":"STEP",
					"output":246
				},
				{
					"input":200,
					"interpolation":"STEP",
					"output":247
				},
				{
					"input":197,
					"interpolation":"LINEAR",
					"output":248
				},
				{
					"input":200,
					"interpolation":"STEP",
					"output":249
				}
			]
		}
	],
	"materials":[
		{
			"name":"skin",
			"normalTexture":{
				"index":0,
				"scale":0.4000000059604645
			},
			"pbrMetallicRoughness":{
				"baseColorFactor":[
					0.9551045894622803,
					0.7105664610862732,
					0.5382355451583862,
					1
				],
				"metallicFactor":0,
				"roughnessFactor":0.550000011920929
			}
		},
		{
			"extensions":{
				"KHR_materials_sheen":{
					"sheenColorFactor":[
						1.0,
						1.0,
						1.0
					],
					"sheenRoughnessFactor":0.5
				}
			},
			"name":"hair",
			"normalTexture":{
				"index":1,
				"scale":0.800000011920929
			},
			"pbrMetallicRoughness":{
				"baseColorFactor":[
					0.9551045894622803,
					0.5225215554237366,
					0.6920710802078247,
					1
				],
				"metallicFactor":0,
				"roughnessFactor":0.44999998807907104
			}
		},
		{
			"extensions":{
				"KHR_materials_sheen":{
					"sheenColorFactor":[
						1.0,
						1.0,
						1.0
					],
					"sheenRoughnessFactor":0.5
				}
			},
			"name":"outfit",
			"normalTexture":{
				"index":2,
				"scale":0.6000000238418579
			},
			"pbrMetallicRoughness":{
				"baseColorFactor":[
					0.9331068396568298,
					0.9331068396568298,
					0.9331068396568298,
					1
				],
				"metallicFactor":0,
				"roughnessFactor":0.75
			}
		},
		{
			"name":"outfit2",
			"normalTexture":{
				"index":3,
				"scale":0.4000000059604645
			},
			"pbrMetallicRoughness":{
				"baseColorFactor":[
					0.6920710802078247,
					0.03310476616024971,
					0.10048151016235352,
					1
				],
				"metallicFactor":0,
				"roughnessFactor":0.6000000238418579
			}
		},
		{
			"name":"pants",
			"normalTexture":{
				"index":4,
				"scale":0.6000000238418579
			},
			"pbrMetallicRoughness":{
				"baseColorFactor":[
					0.41866305470466614,
					0.41866305470466614,
					0.41866305470466614,
					1
				],
				"metallicFactor":0,
				"roughnessFactor":0.800000011920929
			}
		},
		{
			"extensions":{
				"KHR_materials_clearcoat":{
					"clearcoatFactor":0.30000001192092896
				}
			},
			"name":"boots",
			"normalTexture":{
				"index":5,
				"scale":0.800000011920929
			},
			"pbrMetallicRoughness":{
				"baseColorFactor":[
					0.0134117491543293,
					0.010022825561463833,
					0.010022825561463833,
					1
				],
				"metallicFactor":0,
				"roughnessFactor":0.44999998807907104
			}
		},
		{
			"name":"eye_white",
			"pbrMetallicRoughness":{
				"baseColorFactor":[
					0.8900054097175598,
					0.8900054097175598,
					0.8900054097175598,
					1
				],
				"metallicFactor":0,
				"roughnessFactor":0.20000000298023224
			}
		},
		{
			"emissiveFactor":[
				0.4152426646249552,
				0.019862860485428957,
				0.07972099501772689
			],
			"name":"iris",
			"pbrMetallicRoughness":{
				"baseColorFactor":[
					0.6920710802078247,
					0.03310476616024971,
					0.13286831974983215,
					1
				],
				"metallicFactor":0,
				"roughnessFactor":0.15000000596046448
			}
		},
		{
			"name":"pupil",
			"pbrMetallicRoughness":{
				"baseColorFactor":[
					0.0015479875728487968,
					0.0015479875728487968,
					0.0023219813592731953,
					1
				],
				"metallicFactor":0,
				"roughnessFactor":0.10000000149011612
			}
		},
		{
			"name":"lips",
			"pbrMetallicRoughness":{
				"baseColorFactor":[
					0.4283095896244049,
					0.32088616490364075,
					0.2448643445968628,
					1
				],
				"metallicFactor":0,
				"roughnessFactor":0.4000000059604645
			}
		},
		{
			"extensions":{
				"KHR_materials_clearcoat":{
					"clearcoatFactor":0.5
				}
			},
			"name":"horn",
			"pbrMetallicRoughness":{
				"baseColorFactor":[
					0.8900054097175598,
					0.8900054097175598,
					0.8900054097175598,
					1
				],
				"metallicFactor":0,
				"roughnessFactor":0.30000001192092896
			}
		},
		{
			"doubleSided":true,
			"name":"skirt",
			"normalTexture":{
				"index":6,
				"scale":0.6000000238418579
			},
			"pbrMetallicRoughness":{
				"baseColorFactor":[
					0.6920710802078247,
					0.03310476616024971,
					0.10048151016235352,
					1
				],
				"metallicFactor":0,
				"roughnessFactor":0.699999988079071
			}
		},
		{
			"name":"buckle",
			"pbrMetallicRoughness":{
				"baseColorFactor":[
					0.6920710802078247,
					0.4479884207248688,
					0.07323895394802094,
					1
				],
				"metallicFactor":0.8999999761581421,
				"roughnessFactor":0.30000001192092896
			}
		},
		{
			"name":"wood",
			"normalTexture":{
				"index":7,
				"scale":0.6000000238418579
			},
			"pbrMetallicRoughness":{
				"baseColorFactor":[
					0.17064493894577026,
					0.07323895394802094,
					0.027211781591176987,
					1
				],
				"metallicFactor":0,
				"roughnessFactor":0.699999988079071
			}
		},
		{
			"emissiveFactor":[
				0.21404114365577698,
				0.6038273572921753,
				1
			],
			"extensions":{
				"KHR_materials_emissive_strength":{
					"emissiveStrength":3
				}
			},
			"name":"orb",
			"pbrMetallicRoughness":{
				"baseColorFactor":[
					0.21404114365577698,
					0.6038273572921753,
					1,
					1
				],
				"metallicFactor":0,
				"roughnessFactor":0.05000000074505806
			}
		}
	],
	"meshes":[
		{
			"name":"shuna",
			"primitives":[
				{
					"attributes":{
						"POSITION":0,
						"NORMAL":1,
						"TEXCOORD_0":2,
						"JOINTS_0":3,
						"WEIGHTS_0":4
					},
					"indices":5,
					"material":0
				},
				{
					"attributes":{
						"POSITION":6,
						"NORMAL":7,
						"TEXCOORD_0":8,
						"JOINTS_0":9,
						"WEIGHTS_0":10
					},
					"indices":11,
					"material":1
				},
				{
					"attributes":{
						"POSITION":12,
						"NORMAL":13,
						"TEXCOORD_0":14,
						"JOINTS_0":15,
						"WEIGHTS_0":16
					},
					"indices":17,
					"material":2
				},
				{
					"attributes":{
						"POSITION":18,
						"NORMAL":19,
						"TEXCOORD_0":20,
						"JOINTS_0":21,
						"WEIGHTS_0":22
					},
					"indices":23,
					"material":3
				},
				{
					"attributes":{
						"POSITION":24,
						"NORMAL":25,
						"TEXCOORD_0":26,
						"JOINTS_0":27,
						"WEIGHTS_0":28
					},
					"indices":29,
					"material":4
				},
				{
					"attributes":{
						"POSITION":30,
						"NORMAL":31,
						"TEXCOORD_0":32,
						"JOINTS_0":33,
						"WEIGHTS_0":34
					},
					"indices":35,
					"material":5
				},
				{
					"attributes":{
						"POSITION":36,
						"NORMAL":37,
						"TEXCOORD_0":38,
						"JOINTS_0":39,
						"WEIGHTS_0":40
					},
					"indices":41,
					"material":6
				},
				{
					"attributes":{
						"POSITION":42,
						"NORMAL":43,
						"TEXCOORD_0":44,
						"JOINTS_0":45,
						"WEIGHTS_0":46
					},
					"indices":47,
					"material":7
				},
				{
					"attributes":{
						"POSITION":48,
						"NORMAL":49,
						"TEXCOORD_0":50,
						"JOINTS_0":51,
						"WEIGHTS_0":52
					},
					"indices":53,
					"material":8
				},
				{
					"attributes":{
						"POSITION":54,
						"NORMAL":55,
						"TEXCOORD_0":56,
						"JOINTS_0":57,
						"WEIGHTS_0":58
					},
					"indices":59,
					"material":9
				},
				{
					"attributes":{
						"POSITION":60,
						"NORMAL":61,
						"TEXCOORD_0":62,
						"JOINTS_0":63,
						"WEIGHTS_0":64
					},
					"indices":65,
					"material":10
				},
				{
					"attributes":{
						"POSITION":66,
						"NORMAL":67,
						"TEXCOORD_0":68,
						"JOINTS_0":69,
						"WEIGHTS_0":70
					},
					"indices":71,
					"material":11
				},
				{
					"attributes":{
						"POSITION":72,
						"NORMAL":73,
						"TEXCOORD_0":74,
						"JOINTS_0":75,
						"WEIGHTS_0":76
					},
					"indices":77,
					"material":12
				},
				{
					"attributes":{
						"POSITION":78,
						"NORMAL":79,
						"TEXCOORD_0":80,
						"JOINTS_0":81,
						"WEIGHTS_0":82
					},
					"indices":83,
					"material":13
				},
				{
					"attributes":{
						"POSITION":84,
						"NORMAL":85,
						"TEXCOORD_0":86,
						"JOINTS_0":87,
						"WEIGHTS_0":88
					},
					"indices":89,
					"material":14
				}
			]
		}
	],
	"textures":[
		{
			"sampler":0,
			"source":0
		},
		{
			"sampler":0,
			"source":1
		},
		{
			"sampler":0,
			"source":2
		},
		{
			"sampler":0,
			"source":2
		},
		{
			"sampler":0,
			"source":2
		},
		{
			"sampler":0,
			"source":3
		},
		{
			"sampler":0,
			"source":2
		},
		{
			"sampler":0,
			"source":3
		}
	],
	"images":[
		{
			"mimeType":"image/png",
			"name":"N_skin",
			"uri":"texturas/N_skin.png"
		},
		{
			"mimeType":"image/png",
			"name":"N_hair",
			"uri":"texturas/N_hair.png"
		},
		{
			"mimeType":"image/png",
			"name":"N_cloth",
			"uri":"texturas/N_cloth.png"
		},
		{
			"mimeType":"image/png",
			"name":"N_leather",
			"uri":"texturas/N_leather.png"
		}
	],
	"skins":[
		{
			"inverseBindMatrices":90,
			"joints":[
				16,
				9,
				8,
				1,
				0,
				4,
				3,
				2,
				7,
				6,
				5,
				12,
				11,
				10,
				15,
				14,
				13
			],
			"name":"shuna_rig"
		}
	],
	"accessors":[
		{
			"bufferView":0,
			"componentType":5126,
			"count":1409,
			"max":[
				0.24329401552677155,
				1.641279935836792,
				0.09863555431365967
			],
			"min":[
				-0.24329401552677155,
				0.7217103838920593,
				-0.10679059475660324
			],
			"type":"VEC3"
		},
		{
			"bufferView":1,
			"componentType":5126,
			"count":1409,
			"type":"VEC3"
		},
		{
			"bufferView":2,
			"componentType":5126,
			"count":1409,
			"type":"VEC2"
		},
		{
			"bufferView":3,
			"componentType":5121,
			"count":1409,
			"type":"VEC4"
		},
		{
			"bufferView":4,
			"componentType":5126,
			"count":1409,
			"type":"VEC4"
		},
		{
			"bufferView":5,
			"componentType":5123,
			"count":5808,
			"type":"SCALAR"
		},
		{
			"bufferView":6,
			"componentType":5126,
			"count":2938,
			"max":[
				0.1395011991262436,
				1.666229486465454,
				0.1806567907333374
			],
			"min":[
				-0.12168124318122864,
				0.8982933759689331,
				-0.10556477308273315
			],
			"type":"VEC3"
		},
		{
			"bufferView":7,
			"componentType":5126,
			"count":2938,
			"type":"VEC3"
		},
		{
			"bufferView":8,
			"componentType":5126,
			"count":2938,
			"type":"VEC2"
		},
		{
			"bufferView":9,
			"componentType":5121,
			"count":2938,
			"type":"VEC4"
		},
		{
			"bufferView":10,
			"componentType":5126,
			"count":2938,
			"type":"VEC4"
		},
		{
			"bufferView":11,
			"componentType":5123,
			"count":10344,
			"type":"SCALAR"
		},
		{
			"bufferView":12,
			"componentType":5126,
			"count":1916,
			"max":[
				0.24565432965755463,
				1.3512988090515137,
				0.0828825980424881
			],
			"min":[
				-0.24565429985523224,
				0.8487960696220398,
				-0.1103999987244606
			],
			"type":"VEC3"
		},
		{
			"bufferView":13,
			"componentType":5126,
			"count":1916,
			"type":"VEC3"
		},
		{
			"bufferView":14,
			"componentType":5126,
			"count":1916,
			"type":"VEC2"
		},
		{
			"bufferView":15,
			"componentType":5121,
			"count":1916,
			"type":"VEC4"
		},
		{
			"bufferView":16,
			"componentType":5126,
			"count":1916,
			"type":"VEC4"
		},
		{
			"bufferView":17,
			"componentType":5123,
			"count":8652,
			"type":"SCALAR"
		},
		{
			"bufferView":18,
			"componentType":5126,
			"count":76,
			"max":[
				0.14521506428718567,
				0.9178207516670227,
				0.09828568994998932
			],
			"min":[
				-0.14521506428718567,
				0.8095303773880005,
				-0.09999731183052063
			],
			"type":"VEC3"
		},
		{
			"bufferView":19,
			"componentType":5126,
			"count":76,
			"type":"VEC3"
		},
		{
			"bufferView":20,
			"componentType":5126,
			"count":76,
			"type":"VEC2"
		},
		{
			"bufferView":21,
			"componentType":5121,
			"count":76,
			"type":"VEC4"
		},
		{
			"bufferView":22,
			"componentType":5126,
			"count":76,
			"type":"VEC4"
		},
		{
			"bufferView":23,
			"componentType":5123,
			"count":264,
			"type":"SCALAR"
		},
		{
			"bufferView":24,
			"componentType":5126,
			"count":995,
			"max":[
				0.24404793977737427,
				0.8690900206565857,
				0.09802943468093872
			],
			"min":[
				-0.24404793977737427,
				0.2773520052433014,
				-0.09999731183052063
			],
			"type":"VEC3"
		},
		{
			"bufferView":25,
			"componentType":5126,
			"count":995,
			"type":"VEC3"
		},
		{
			"bufferView":26,
			"componentType":5126,
			"count":995,
			"type":"VEC2"
		},
		{
			"bufferView":27,
			"componentType":5121,
			"count":995,
			"type":"VEC4"
		},
		{
			"bufferView":28,
			"componentType":5126,
			"count":995,
			"type":"VEC4"
		},
		{
			"bufferView":29,
			"componentType":5123,
			"count":4380,
			"type":"SCALAR"
		},
		{
			"bufferView":30,
			"componentType":5126,
			"count":1034,
			"max":[
				0.1568087488412857,
				0.2826022803783417,
				0.06785661727190018
			],
			"min":[
				-0.1568087339401245,
				0.006991436239331961,
				-0.12891076505184174
			],
			"type":"VEC3"
		},
		{
			"bufferView":31,
			"componentType":5126,
			"count":1034,
			"type":"VEC3"
		},
		{
			"bufferView":32,
			"componentType":5126,
			"count":1034,
			"type":"VEC2"
		},
		{
			"bufferView":33,
			"componentType":5121,
			"count":1034,
			"type":"VEC4"
		},
		{
			"bufferView":34,
			"componentType":5126,
			"count":1034,
			"type":"VEC4"
		},
		{
			"bufferView":35,
			"componentType":5123,
			"count":4608,
			"type":"SCALAR"
		},
		{
			"bufferView":36,
			"componentType":5126,
			"count":304,
			"max":[
				0.04692000150680542,
				1.5515799522399902,
				-0.06440000236034393
			],
			"min":[
				-0.04692000150680542,
				1.530419945716858,
				-0.0809599980711937
			],
			"type":"VEC3"
		},
		{
			"bufferView":37,
			"componentType":5126,
			"count":304,
			"type":"VEC3"
		},
		{
			"bufferView":38,
			"componentType":5126,
			"count":304,
			"type":"VEC2"
		},
		{
			"bufferView":39,
			"componentType":5121,
			"count":304,
			"type":"VEC4"
		},
		{
			"bufferView":40,
			"componentType":5126,
			"count":304,
			"type":"VEC4"
		},
		{
			"bufferView":41,
			"componentType":5123,
			"count":1152,
			"type":"SCALAR"
		},
		{
			"bufferView":42,
			"componentType":5126,
			"count":220,
			"max":[
				0.04002000018954277,
				1.5500160455703735,
				-0.07472262531518936
			],
			"min":[
				-0.04002000018954277,
				1.5319839715957642,
				-0.08259737491607666
			],
			"type":"VEC3"
		},
		{
			"bufferView":43,
			"componentType":5126,
			"count":220,
			"type":"VEC3"
		},
		{
			"bufferView":44,
			"componentType":5126,
			"count":220,
			"type":"VEC2"
		},
		{
			"bufferView":45,
			"componentType":5121,
			"count":220,
			"type":"VEC4"
		},
		{
			"bufferView":46,
			"componentType":5126,
			"count":220,
			"type":"VEC4"
		},
		{
			"bufferView":47,
			"componentType":5123,
			"count":720,
			"type":"SCALAR"
		},
		{
			"bufferView":48,
			"componentType":5126,
			"count":160,
			"max":[
				0.03495488315820694,
				1.545140027999878,
				-0.07994605600833893
			],
			"min":[
				-0.03495488315820694,
				1.5368601083755493,
				-0.0834459513425827
			],
			"type":"VEC3"
		},
		{
			"bufferView":49,
			"componentType":5126,
			"count":160,
			"type":"VEC3"
		},
		{
			"bufferView":50,
			"componentType":5126,
			"count":160,
			"type":"VEC2"
		},
		{
			"bufferView":51,
			"componentType":5121,
			"count":160,
			"type":"VEC4"
		},
		{
			"bufferView":52,
			"componentType":5126,
			"count":160,
			"type":"VEC4"
		},
		{
			"bufferView":53,
			"componentType":5123,
			"count":480,
			"type":"SCALAR"
		},
		{
			"bufferView":54,
			"componentType":5126,
			"count":98,
			"max":[
				0.017479998990893364,
				1.4788999557495117,
				-0.07150262594223022
			],
			"min":[
				-0.017479998990893364,
				1.470620036125183,
				-0.07937737554311752
			],
			"type":"VEC3"
		},
		{
			"bufferView":55,
			"componentType":5126,
			"count":98,
			"type":"VEC3"
		},
		{
			"bufferView":56,
			"componentType":5126,
			"count":98,
			"type":"VEC2"
		},
		{
			"bufferView":57,
			"componentType":5121,
			"count":98,
			"type":"VEC4"
		},
		{
			"bufferView":58,
			"componentType":5126,
			"count":98,
			"type":"VEC4"
		},
		{
			"bufferView":59,
			"componentType":5123,
			"count":360,
			"type":"SCALAR"
		},
		{
			"bufferView":60,
			"componentType":5126,
			"count":180,
			"max":[
				0.058935970067977905,
				1.7190314531326294,
				-0.030946481972932816
			],
			"min":[
				-0.058935970067977905,
				1.6248928308486938,
				-0.06581498682498932
			],
			"type":"VEC3"
		},
		{
			"bufferView":61,
			"componentType":5126,
			"count":180,
			"type":"VEC3"
		},
		{
			"bufferView":62,
			"componentType":5126,
			"count":180,
			"type":"VEC2"
		},
		{
			"bufferView":63,
			"componentType":5121,
			"count":180,
			"type":"VEC4"
		},
		{
			"bufferView":64,
			"componentType":5126,
			"count":180,
			"type":"VEC4"
		},
		{
			"bufferView":65,
			"componentType":5123,
			"count":576,
			"type":"SCALAR"
		},
		{
			"bufferView":66,
			"componentType":5126,
			"count":78,
			"max":[
				0.24288000166416168,
				0.9200000166893005,
				0.19232626259326935
			],
			"min":[
				-0.24288000166416168,
				0.6256000399589539,
				-0.19232626259326935
			],
			"type":"VEC3"
		},
		{
			"bufferView":67,
			"componentType":5126,
			"count":78,
			"type":"VEC3"
		},
		{
			"bufferView":68,
			"componentType":5126,
			"count":78,
			"type":"VEC2"
		},
		{
			"bufferView":69,
			"componentType":5121,
			"count":78,
			"type":"VEC4"
		},
		{
			"bufferView":70,
			"componentType":5126,
			"count":78,
			"type":"VEC4"
		},
		{
			"bufferView":71,
			"componentType":5123,
			"count":264,
			"type":"SCALAR"
		},
		{
			"bufferView":72,
			"componentType":5126,
			"count":24,
			"max":[
				0.023000000044703484,
				0.8924000263214111,
				-0.09521999955177307
			],
			"min":[
				-0.023000000044703484,
				0.8555999994277954,
				-0.10626000165939331
			],
			"type":"VEC3"
		},
		{
			"bufferView":73,
			"componentType":5126,
			"count":24,
			"type":"VEC3"
		},
		{
			"bufferView":74,
			"componentType":5126,
			"count":24,
			"type":"VEC2"
		},
		{
			"bufferView":75,
			"componentType":5121,
			"count":24,
			"type":"VEC4"
		},
		{
			"bufferView":76,
			"componentType":5126,
			"count":24,
			"type":"VEC4"
		},
		{
			"bufferView":77,
			"componentType":5123,
			"count":36,
			"type":"SCALAR"
		},
		{
			"bufferView":78,
			"componentType":5126,
			"count":42,
			"max":[
				0.24251200258731842,
				1.4259999990463257,
				-0.0045999991707503796
			],
			"min":[
				0.20571200549602509,
				0.09199997037649155,
				-0.0414000004529953
			],
			"type":"VEC3"
		},
		{
			"bufferView":79,
			"componentType":5126,
			"count":42,
			"type":"VEC3"
		},
		{
			"bufferView":80,
			"componentType":5126,
			"count":42,
			"type":"VEC2"
		},
		{
			"bufferView":81,
			"componentType":5121,
			"count":42,
			"type":"VEC4"
		},
		{
			"bufferView":82,
			"componentType":5126,
			"count":42,
			"type":"VEC4"
		},
		{
			"bufferView":83,
			"componentType":5123,
			"count":96,
			"type":"SCALAR"
		},
		{
			"bufferView":84,
			"componentType":5126,
			"count":218,
			"max":[
				0.27931198477745056,
				1.563999891281128,
				0.03081602230668068
			],
			"min":[
				0.16891199350357056,
				1.4535999298095703,
				-0.07681601494550705
			],
			"type":"VEC3"
		},
		{
			"bufferView":85,
			"componentType":5126,
			"count":218,
			"type":"VEC3"
		},
		{
			"bufferView":86,
			"componentType":5126,
			"count":218,
			"type":"VEC2"
		},
		{
			"bufferView":87,
			"componentType":5121,
			"count":218,
			"type":"VEC4"
		},
		{
			"bufferView":88,
			"componentType":5126,
			"count":218,
			"type":"VEC4"
		},
		{
			"bufferView":89,
			"componentType":5123,
			"count":840,
			"type":"SCALAR"
		},
		{
			"bufferView":90,
			"componentType":5126,
			"count":17,
			"type":"MAT4"
		},
		{
			"bufferView":91,
			"componentType":5126,
			"count":2,
			"max":[
				0.6
			],
			"min":[
				0
			],
			"type":"SCALAR"
		},
		{
			"bufferView":92,
			"componentType":5126,
			"count":2,
			"type":"VEC3"
		},
		{
			"bufferView":93,
			"componentType":5126,
			"count":2,
			"type":"VEC4"
		},
		{
			"bufferView":94,
			"componentType":5126,
			"count":2,
			"type":"VEC3"
		},
		{
			"bufferView":95,
			"componentType":5126,
			"count":2,
			"type":"VEC3"
		},
		{
			"bufferView":96,
			"componentType":5126,
			"count":2,
			"type":"VEC4"
		},
		{
			"bufferView":97,
			"componentType":5126,
			"count":2,
			"type":"VEC3"
		},
		{
			"bufferView":98,
			"componentType":5126,
			"count":2,
			"type":"VEC3"
		},
		{
			"bufferView":99,
			"componentType":5126,
			"count":19,
			"max":[
				0.6
			],
			"min":[
				0
			],
			"type":"SCALAR"
		},
		{
			"bufferView":100,
			"componentType":5126,
			"count":19,
			"type":"VEC4"
		},
		{
			"bufferView":101,
			"componentType":5126,
			"count":2,
			"type":"VEC3"
		},
		{
			"bufferView":102,
			"componentType":5126,
			"count":2,
			"type":"VEC3"
		},
		{
			"bufferView":103,
			"componentType":5126,
			"count":2,
			"type":"VEC4"
		},
		{
			"bufferView":104,
			"componentType":5126,
			"count":2,
			"type":"VEC3"
		},
		{
			"bufferView":105,
			"componentType":5126,
			"count":2,
			"type":"VEC3"
		},
		{
			"bufferView":106,
			"componentType":5126,
			"count":2,
			"type":"VEC4"
		},
		{
			"bufferView":107,
			"componentType":5126,
			"count":2,
			"type":"VEC3"
		},
		{
			"bufferView":108,
			"componentType":5126,
			"count":2,
			"type":"VEC3"
		},
		{
			"bufferView":109,
			"componentType":5126,
			"count":19,
			"type":"VEC4"
		},
		{
			"bufferView":110,
			"componentType":5126,
			"count":2,
			"type":"VEC3"
		},
		{
			"bufferView":111,
			"componentType":5126,
			"count":2,
			"type":"VEC3"
		},
		{
			"bufferView":112,
			"componentType":5126,
			"count":19,
			"type":"VEC4"
		},
		{
			"bufferView":113,
			"componentType":5126,
			"count":2,
			"type":"VEC3"
		},
		{
			"bufferView":114,
			"componentType":5126,
			"count":2,
			"type":"VEC3"
		},
		{
			"bufferView":115,
			"componentType":5126,
			"count":2,
			"type":"VEC4"
		},
		{
			"bufferView":116,
			"componentType":5126,
			"count":2,
			"type":"VEC3"
		},
		{
			"bufferView":117,
			"componentType":5126,
			"count":2,
			"type":"VEC3"
		},
		{
			"bufferView":118,
			"componentType":5126,
			"count":19,
			"type":"VEC4"
		},
		{
			"bufferView":119,
			"componentType":5126,
			"count":2,
			"type":"VEC3"
		},
		{
			"bufferView":120,
			"componentType":5126,
			"count":2,
			"type":"VEC3"
		},
		{
			"bufferView":121,
			"componentType":5126,
			"count":2,
			"type":"VEC4"
		},
		{
			"bufferView":122,
			"componentType":5126,
			"count":2,
			"type":"VEC3"
		},
		{
			"bufferView":123,
			"componentType":5126,
			"count":2,
			"type":"VEC3"
		},
		{
			"bufferView":124,
			"componentType":5126,
			"count":2,
			"type":"VEC4"
		},
		{
			"bufferView":125,
			"componentType":5126,
			"count":2,
			"type":"VEC3"
		},
		{
			"bufferView":126,
			"componentType":5126,
			"count":2,
			"type":"VEC3"
		},
		{
			"bufferView":127,
			"componentType":5126,
			"count":19,
			"type":"VEC4"
		},
		{
			"bufferView":128,
			"componentType":5126,
			"count":2,
			"type":"VEC3"
		},
		{
			"bufferView":129,
			"componentType":5126,
			"count":2,
			"type":"VEC3"
		},
		{
			"bufferView":130,
			"componentType":5126,
			"count":2,
			"type":"VEC4"
		},
		{
			"bufferView":131,
			"componentType":5126,
			"count":2,
			"type":"VEC3"
		},
		{
			"bufferView":132,
			"componentType":5126,
			"count":2,
			"type":"VEC3"
		},
		{
			"bufferView":133,
			"componentType":5126,
			"count":2,
			"type":"VEC4"
		},
		{
			"bufferView":134,
			"componentType":5126,
			"count":2,
			"type":"VEC3"
		},
		{
			"bufferView":135,
			"componentType":5126,
			"count":2,
			"type":"VEC3"
		},
		{
			"bufferView":136,
			"componentType":5126,
			"count":19,
			"type":"VEC4"
		},
		{
			"bufferView":137,
			"componentType":5126,
			"count":2,
			"type":"VEC3"
		},
		{
			"bufferView":138,
			"componentType":5126,
			"count":2,
			"type":"VEC3"
		},
		{
			"bufferView":139,
			"componentType":5126,
			"count":2,
			"type":"VEC4"
		},
		{
			"bufferView":140,
			"componentType":5126,
			"count":2,
			"type":"VEC3"
		},
		{
			"bufferView":141,
			"componentType":5126,
			"count":2,
			"type":"VEC3"
		},
		{
			"bufferView":142,
			"componentType":5126,
			"count":2,
			"type":"VEC4"
		},
		{
			"bufferView":143,
			"componentType":5126,
			"count":2,
			"type":"VEC3"
		},
		{
			"bufferView":144,
			"componentType":5126,
			"count":61,
			"max":[
				2
			],
			"min":[
				0
			],
			"type":"SCALAR"
		},
		{
			"bufferView":145,
			"componentType":5126,
			"count":61,
			"type":"VEC3"
		},
		{
			"bufferView":146,
			"componentType":5126,
			"count":2,
			"max":[
				2
			],
			"min":[
				0
			],
			"type":"SCALAR"
		},
		{
			"bufferView":147,
			"componentType":5126,
			"count":2,
			"type":"VEC4"
		},
		{
			"bufferView":148,
			"componentType":5126,
			"count":2,
			"type":"VEC3"
		},
		{
			"bufferView":149,
			"componentType":5126,
			"count":2,
			"type":"VEC3"
		},
		{
			"bufferView":150,
			"componentType":5126,
			"count":2,
			"type":"VEC4"
		},
		{
			"bufferView":151,
			"componentType":5126,
			"count":2,
			"type":"VEC3"
		},
		{
			"bufferView":152,
			"componentType":5126,
			"count":2,
			"type":"VEC3"
		},
		{
			"bufferView":153,
			"componentType":5126,
			"count":61,
			"type":"VEC4"
		},
		{
			"bufferView":154,
			"componentType":5126,
			"count":2,
			"type":"VEC3"
		},
		{
			"bufferView":155,
			"componentType":5126,
			"count":2,
			"type":"VEC3"
		},
		{
			"bufferView":156,
			"componentType":5126,
			"count":2,
			"type":"VEC4"
		},
		{
			"bufferView":157,
			"componentType":5126,
			"count":2,
			"type":"VEC3"
		},
		{
			"bufferView":158,
			"componentType":5126,
			"count":2,
			"type":"VEC3"
		},
		{
			"bufferView":159,
			"componentType":5126,
			"count":61,
			"type":"VEC4"
		},
		{
			"bufferView":160,
			"componentType":5126,
			"count":2,
			"type":"VEC3"
		},
		{
			"bufferView":161,
			"componentType":5126,
			"count":2,
			"type":"VEC3"
		},
		{
			"bufferView":162,
			"componentType":5126,
			"count":61,
			"type":"VEC4"
		},
		{
			"bufferView":163,
			"componentType":5126,
			"count":2,
			"type":"VEC3"
		},
		{
			"bufferView":164,
			"componentType":5126,
			"count":2,
			"type":"VEC3"
		},
		{
			"bufferView":165,
			"componentType":5126,
			"count":2,
			"type":"VEC4"
		},
		{
			"bufferView":166,
			"componentType":5126,
			"count":2,
			"type":"VEC3"
		},
		{
			"bufferView":167,
			"componentType":5126,
			"count":2,
			"type":"VEC3"
		},
		{
			"bufferView":168,
			"componentType":5126,
			"count":2,
			"type":"VEC4"
		},
		{
			"bufferView":169,
			"componentType":5126,
			"count":2,
			"type":"VEC3"
		},
		{
			"bufferView":170,
			"componentType":5126,
			"count":2,
			"type":"VEC3"
		},
		{
			"bufferView":171,
			"componentType":5126,
			"count":61,
			"type":"VEC4"
		},
		{
			"bufferView":172,
			"componentType":5126,
			"count":2,
			"type":"VEC3"
		},
		{
			"bufferView":173,
			"componentType":5126,
			"count":2,
			"type":"VEC3"
		},
		{
			"bufferView":174,
			"componentType":5126,
			"count":2,
			"type":"VEC4"
		},
		{
			"bufferView":175,
			"componentType":5126,
			"count":2,
			"type":"VEC3"
		},
		{
			"bufferView":176,
			"componentType":5126,
			"count":2,
			"type":"VEC3"
		},
		{
			"bufferView":177,
			"componentType":5126,
			"count":2,
			"type":"VEC4"
		},
		{
			"bufferView":178,
			"componentType":5126,
			"count":2,
			"type":"VEC3"
		},
		{
			"bufferView":179,
			"componentType":5126,
			"count":2,
			"type":"VEC3"
		},
		{
			"bufferView":180,
			"componentType":5126,
			"count":2,
			"type":"VEC4"
		},
		{
			"bufferView":181,
			"componentType":5126,
			"count":2,
			"type":"VEC3"
		},
		{
			"bufferView":182,
			"componentType":5126,
			"count":2,
			"type":"VEC3"
		},
		{
			"bufferView":183,
			"componentType":5126,
			"count":2,
			"type":"VEC4"
		},
		{
			"bufferView":184,
			"componentType":5126,
			"count":2,
			"type":"VEC3"
		},
		{
			"bufferView":185,
			"componentType":5126,
			"count":2,
			"type":"VEC3"
		},
		{
			"bufferView":186,
			"componentType":5126,
			"count":2,
			"type":"VEC4"
		},
		{
			"bufferView":187,
			"componentType":5126,
			"count":2,
			"type":"VEC3"
		},
		{
			"bufferView":188,
			"componentType":5126,
			"count":2,
			"type":"VEC3"
		},
		{
			"bufferView":189,
			"componentType":5126,
			"count":2,
			"type":"VEC4"
		},
		{
			"bufferView":190,
			"componentType":5126,
			"count":2,
			"type":"VEC3"
		},
		{
			"bufferView":191,
			"componentType":5126,
			"count":2,
			"type":"VEC3"
		},
		{
			"bufferView":192,
			"componentType":5126,
			"count":2,
			"type":"VEC4"
		},
		{
			"bufferView":193,
			"componentType":5126,
			"count":2,
			"type":"VEC3"
		},
		{
			"bufferView":194,
			"componentType":5126,
			"count":2,
			"type":"VEC3"
		},
		{
			"bufferView":195,
			"componentType":5126,
			"count":2,
			"type":"VEC4"
		},
		{
			"bufferView":196,
			"componentType":5126,
			"count":2,
			"type":"VEC3"
		},
		{
			"bufferView":197,
			"componentType":5126,
			"count":31,
			"max":[
				1
			],
			"min":[
				0
			],
			"type":"SCALAR"
		},
		{
			"bufferView":198,
			"componentType":5126,
			"count":31,
			"type":"VEC3"
		},
		{
			"bufferView":199,
			"componentType":5126,
			"count":31,
			"type":"VEC4"
		},
		{
			"bufferView":200,
			"componentType":5126,
			"count":2,
			"max":[
				1
			],
			"min":[
				0
			],
			"type":"SCALAR"
		},
		{
			"bufferView":201,
			"componentType":5126,
			"count":2,
			"type":"VEC3"
		},
		{
			"bufferView":202,
			"componentType":5126,
			"count":2,
			"type":"VEC3"
		},
		{
			"bufferView":203,
			"componentType":5126,
			"count":2,
			"type":"VEC4"
		},
		{
			"bufferView":204,
			"componentType":5126,
			"count":2,
			"type":"VEC3"
		},
		{
			"bufferView":205,
			"componentType":5126,
			"count":2,
			"type":"VEC3"
		},
		{
			"bufferView":206,
			"componentType":5126,
			"count":31,
			"type":"VEC4"
		},
		{
			"bufferView":207,
			"componentType":5126,
			"count":2,
			"type":"VEC3"
		},
		{
			"bufferView":208,
			"componentType":5126,
			"count":2,
			"type":"VEC3"
		},
		{
			"bufferView":209,
			"componentType":5126,
			"count":2,
			"type":"VEC4"
		},
		{
			"bufferView":210,
			"componentType":5126,
			"count":2,
			"type":"VEC3"
		},
		{
			"bufferView":211,
			"componentType":5126,
			"count":2,
			"type":"VEC3"
		},
		{
			"bufferView":212,
			"componentType":5126,
			"count":2,
			"type":"VEC4"
		},
		{
			"bufferView":213,
			"componentType":5126,
			"count":2,
			"type":"VEC3"
		},
		{
			"bufferView":214,
			"componentType":5126,
			"count":2,
			"type":"VEC3"
		},
		{
			"bufferView":215,
			"componentType":5126,
			"count":31,
			"type":"VEC4"
		},
		{
			"bufferView":216,
			"componentType":5126,
			"count":2,
			"type":"VEC3"
		},
		{
			"bufferView":217,
			"componentType":5126,
			"count":2,
			"type":"VEC3"
		},
		{
			"bufferView":218,
			"componentType":5126,
			"count":2,
			"type":"VEC4"
		},
		{
			"bufferView":219,
			"componentType":5126,
			"count":2,
			"type":"VEC3"
		},
		{
			"bufferView":220,
			"componentType":5126,
			"count":2,
			"type":"VEC3"
		},
		{
			"bufferView":221,
			"componentType":5126,
			"count":2,
			"type":"VEC4"
		},
		{
			"bufferView":222,
			"componentType":5126,
			"count":2,
			"type":"VEC3"
		},
		{
			"bufferView":223,
			"componentType":5126,
			"count":2,
			"type":"VEC3"
		},
		{
			"bufferView":224,
			"componentType":5126,
			"count":31,
			"type":"VEC4"
		},
		{
			"bufferView":225,
			"componentType":5126,
			"count":2,
			"type":"VEC3"
		},
		{
			"bufferView":226,
			"componentType":5126,
			"count":2,
			"type":"VEC3"
		},
		{
			"bufferView":227,
			"componentType":5126,
			"count":2,
			"type":"VEC4"
		},
		{
			"bufferView":228,
			"componentType":5126,
			"count":2,
			"type":"VEC3"
		},
		{
			"bufferView":229,
			"componentType":5126,
			"count":2,
			"type":"VEC3"
		},
		{
			"bufferView":230,
			"componentType":5126,
			"count":2,
			"type":"VEC4"
		},
		{
			"bufferView":231,
			"componentType":5126,
			"count":2,
			"type":"VEC3"
		},
		{
			"bufferView":232,
			"componentType":5126,
			"count":2,
			"type":"VEC3"
		},
		{
			"bufferView":233,
			"componentType":5126,
			"count":31,
			"type":"VEC4"
		},
		{
			"bufferView":234,
			"componentType":5126,
			"count":2,
			"type":"VEC3"
		},
		{
			"bufferView":235,
			"componentType":5126,
			"count":2,
			"type":"VEC3"
		},
		{
			"bufferView":236,
			"componentType":5126,
			"count":31,
			"type":"VEC4"
		},
		{
			"bufferView":237,
			"componentType":5126,
			"count":2,
			"type":"VEC3"
		},
		{
			"bufferView":238,
			"componentType":5126,
			"count":2,
			"type":"VEC3"
		},
		{
			"bufferView":239,
			"componentType":5126,
			"count":31,
			"type":"VEC4"
		},
		{
			"bufferView":240,
			"componentType":5126,
			"count":2,
			"type":"VEC3"
		},
		{
			"bufferView":241,
			"componentType":5126,
			"count":2,
			"type":"VEC3"
		},
		{
			"bufferView":242,
			"componentType":5126,
			"count":31,
			"type":"VEC4"
		},
		{
			"bufferView":243,
			"componentType":5126,
			"count":2,
			"type":"VEC3"
		},
		{
			"bufferView":244,
			"componentType":5126,
			"count":2,
			"type":"VEC3"
		},
		{
			"bufferView":245,
			"componentType":5126,
			"count":31,
			"type":"VEC4"
		},
		{
			"bufferView":246,
			"componentType":5126,
			"count":2,
			"type":"VEC3"
		},
		{
			"bufferView":247,
			"componentType":5126,
			"count":2,
			"type":"VEC3"
		},
		{
			"bufferView":248,
			"componentType":5126,
			"count":31,
			"type":"VEC4"
		},
		{
			"bufferView":249,
			"componentType":5126,
			"count":2,
			"type":"VEC3"
		}
	],
	"bufferViews":[
		{
			"buffer":0,
			"byteLength":16908,
			"byteOffset":0,
			"target":34962
		},
		{
			"buffer":0,
			"byteLength":16908,
			"byteOffset":16908,
			"target":34962
		},
		{
			"buffer":0,
			"byteLength":11272,
			"byteOffset":33816,
			"target":34962
		},
		{
			"buffer":0,
			"byteLength":5636,
			"byteOffset":45088,
			"target":34962
		},
		{
			"buffer":0,
			"byteLength":22544,
			"byteOffset":50724,
			"target":34962
		},
		{
			"buffer":0,
			"byteLength":11616,
			"byteOffset":73268,
			"target":34963
		},
		{
			"buffer":0,
			"byteLength":35256,
			"byteOffset":84884,
			"target":34962
		},
		{
			"buffer":0,
			"byteLength":35256,
			"byteOffset":120140,
			"target":34962
		},
		{
			"buffer":0,
			"byteLength":23504,
			"byteOffset":155396,
			"target":34962
		},
		{
			"buffer":0,
			"byteLength":11752,
			"byteOffset":178900,
			"target":34962
		},
		{
			"buffer":0,
			"byteLength":47008,
			"byteOffset":190652,
			"target":34962
		},
		{
			"buffer":0,
			"byteLength":20688,
			"byteOffset":237660,
			"target":34963
		},
		{
			"buffer":0,
			"byteLength":22992,
			"byteOffset":258348,
			"target":34962
		},
		{
			"buffer":0,
			"byteLength":22992,
			"byteOffset":281340,
			"target":34962
		},
		{
			"buffer":0,
			"byteLength":15328,
			"byteOffset":304332,
			"target":34962
		},
		{
			"buffer":0,
			"byteLength":7664,
			"byteOffset":319660,
			"target":34962
		},
		{
			"buffer":0,
			"byteLength":30656,
			"byteOffset":327324,
			"target":34962
		},
		{
			"buffer":0,
			"byteLength":17304,
			"byteOffset":357980,
			"target":34963
		},
		{
			"buffer":0,
			"byteLength":912,
			"byteOffset":375284,
			"target":34962
		},
		{
			"buffer":0,
			"byteLength":912,
			"byteOffset":376196,
			"target":34962
		},
		{
			"buffer":0,
			"byteLength":608,
			"byteOffset":377108,
			"target":34962
		},
		{
			"buffer":0,
			"byteLength":304,
			"byteOffset":377716,
			"target":34962
		},
		{
			"buffer":0,
			"byteLength":1216,
			"byteOffset":378020,
			"target":34962
		},
		{
			"buffer":0,
			"byteLength":528,
			"byteOffset":379236,
			"target":34963
		},
		{
			"buffer":0,
			"byteLength":11940,
			"byteOffset":379764,
			"target":34962
		},
		{
			"buffer":0,
			"byteLength":11940,
			"byteOffset":391704,
			"target":34962
		},
		{
			"buffer":0,
			"byteLength":7960,
			"byteOffset":403644,
			"target":34962
		},
		{
			"buffer":0,
			"byteLength":3980,
			"byteOffset":411604,
			"target":34962
		},
		{
			"buffer":0,
			"byteLength":15920,
			"byteOffset":415584,
			"target":34962
		},
		{
			"buffer":0,
			"byteLength":8760,
			"byteOffset":431504,
			"target":34963
		},
		{
			"buffer":0,
			"byteLength":12408,
			"byteOffset":440264,
			"target":34962
		},
		{
			"buffer":0,
			"byteLength":12408,
			"byteOffset":452672,
			"target":34962
		},
		{
			"buffer":0,
			"byteLength":8272,
			"byteOffset":465080,
			"target":34962
		},
		{
			"buffer":0,
			"byteLength":4136,
			"byteOffset":473352,
			"target":34962
		},
		{
			"buffer":0,
			"byteLength":16544,
			"byteOffset":477488,
			"target":34962
		},
		{
			"buffer":0,
			"byteLength":9216,
			"byteOffset":494032,
			"target":34963
		},
		{
			"buffer":0,
			"byteLength":3648,
			"byteOffset":503248,
			"target":34962
		},
		{
			"buffer":0,
			"byteLength":3648,
			"byteOffset":506896,
			"target":34962
		},
		{
			"buffer":0,
			"byteLength":2432,
			"byteOffset":510544,
			"target":34962
		},
		{
			"buffer":0,
			"byteLength":1216,
			"byteOffset":512976,
			"target":34962
		},
		{
			"buffer":0,
			"byteLength":4864,
			"byteOffset":514192,
			"target":34962
		},
		{
			"buffer":0,
			"byteLength":2304,
			"byteOffset":519056,
			"target":34963
		},
		{
			"buffer":0,
			"byteLength":2640,
			"byteOffset":521360,
			"target":34962
		},
		{
			"buffer":0,
			"byteLength":2640,
			"byteOffset":524000,
			"target":34962
		},
		{
			"buffer":0,
			"byteLength":1760,
			"byteOffset":526640,
			"target":34962
		},
		{
			"buffer":0,
			"byteLength":880,
			"byteOffset":528400,
			"target":34962
		},
		{
			"buffer":0,
			"byteLength":3520,
			"byteOffset":529280,
			"target":34962
		},
		{
			"buffer":0,
			"byteLength":1440,
			"byteOffset":532800,
			"target":34963
		},
		{
			"buffer":0,
			"byteLength":1920,
			"byteOffset":534240,
			"target":34962
		},
		{
			"buffer":0,
			"byteLength":1920,
			"byteOffset":536160,
			"target":34962
		},
		{
			"buffer":0,
			"byteLength":1280,
			"byteOffset":538080,
			"target":34962
		},
		{
			"buffer":0,
			"byteLength":640,
			"byteOffset":539360,
			"target":34962
		},
		{
			"buffer":0,
			"byteLength":2560,
			"byteOffset":540000,
			"target":34962
		},
		{
			"buffer":0,
			"byteLength":960,
			"byteOffset":542560,
			"target":34963
		},
		{
			"buffer":0,
			"byteLength":1176,
			"byteOffset":543520,
			"target":34962
		},
		{
			"buffer":0,
			"byteLength":1176,
			"byteOffset":544696,
			"target":34962
		},
		{
			"buffer":0,
			"byteLength":784,
			"byteOffset":545872,
			"target":34962
		},
		{
			"buffer":0,
			"byteLength":392,
			"byteOffset":546656,
			"target":34962
		},
		{
			"buffer":0,
			"byteLength":1568,
			"byteOffset":547048,
			"target":34962
		},
		{
			"buffer":0,
			"byteLength":720,
			"byteOffset":548616,
			"target":34963
		},
		{
			"buffer":0,
			"byteLength":2160,
			"byteOffset":549336,
			"target":34962
		},
		{
			"buffer":0,
			"byteLength":2160,
			"byteOffset":551496,
			"target":34962
		},
		{
			"buffer":0,
			"byteLength":1440,
			"byteOffset":553656,
			"target":34962
		},
		{
			"buffer":0,
			"byteLength":720,
			"byteOffset":555096,
			"target":34962
		},
		{
			"buffer":0,
			"byteLength":2880,
			"byteOffset":555816,
			"target":34962
		},
		{
			"buffer":0,
			"byteLength":1152,
			"byteOffset":558696,
			"target":34963
		},
		{
			"buffer":0,
			"byteLength":936,
			"byteOffset":559848,
			"target":34962
		},
		{
			"buffer":0,
			"byteLength":936,
			"byteOffset":560784,
			"target":34962
		},
		{
			"buffer":0,
			"byteLength":624,
			"byteOffset":561720,
			"target":34962
		},
		{
			"buffer":0,
			"byteLength":312,
			"byteOffset":562344,
			"target":34962
		},
		{
			"buffer":0,
			"byteLength":1248,
			"byteOffset":562656,
			"target":34962
		},
		{
			"buffer":0,
			"byteLength":528,
			"byteOffset":563904,
			"target":34963
		},
		{
			"buffer":0,
			"byteLength":288,
			"byteOffset":564432,
			"target":34962
		},
		{
			"buffer":0,
			"byteLength":288,
			"byteOffset":564720,
			"target":34962
		},
		{
			"buffer":0,
			"byteLength":192,
			"byteOffset":565008,
			"target":34962
		},
		{
			"buffer":0,
			"byteLength":96,
			"byteOffset":565200,
			"target":34962
		},
		{
			"buffer":0,
			"byteLength":384,
			"byteOffset":565296,
			"target":34962
		},
		{
			"buffer":0,
			"byteLength":72,
			"byteOffset":565680,
			"target":34963
		},
		{
			"buffer":0,
			"byteLength":504,
			"byteOffset":565752,
			"target":34962
		},
		{
			"buffer":0,
			"byteLength":504,
			"byteOffset":566256,
			"target":34962
		},
		{
			"buffer":0,
			"byteLength":336,
			"byteOffset":566760,
			"target":34962
		},
		{
			"buffer":0,
			"byteLength":168,
			"byteOffset":567096,
			"target":34962
		},
		{
			"buffer":0,
			"byteLength":672,
			"byteOffset":567264,
			"target":34962
		},
		{
			"buffer":0,
			"byteLength":192,
			"byteOffset":567936,
			"target":34963
		},
		{
			"buffer":0,
			"byteLength":2616,
			"byteOffset":568128,
			"target":34962
		},
		{
			"buffer":0,
			"byteLength":2616,
			"byteOffset":570744,
			"target":34962
		},
		{
			"buffer":0,
			"byteLength":1744,
			"byteOffset":573360,
			"target":34962
		},
		{
			"buffer":0,
			"byteLength":872,
			"byteOffset":575104,
			"target":34962
		},
		{
			"buffer":0,
			"byteLength":3488,
			"byteOffset":575976,
			"target":34962
		},
		{
			"buffer":0,
			"byteLength":1680,
			"byteOffset":579464,
			"target":34963
		},
		{
			"buffer":0,
			"byteLength":1088,
			"byteOffset":581144
		},
		{
			"buffer":0,
			"byteLength":8,
			"byteOffset":582232
		},
		{
			"buffer":0,
			"byteLength":24,
			"byteOffset":582240
		},
		{
			"buffer":0,
			"byteLength":32,
			"byteOffset":582264
		},
		{
			"buffer":0,
			"byteLength":24,
			"byteOffset":582296
		},
		{
			"buffer":0,
			"byteLength":24,
			"byteOffset":582320
		},
		{
			"buffer":0,
			"byteLength":32,
			"byteOffset":582344
		},
		{
			"buffer":0,
			"byteLength":24,
			"byteOffset":582376
		},
		{
			"buffer":0,
			"byteLength":24,
			"byteOffset":582400
		},
		{
			"buffer":0,
			"byteLength":76,
			"byteOffset":582424
		},
		{
			"buffer":0,
			"byteLength":304,
			"byteOffset":582500
		},
		{
			"buffer":0,
			"byteLength":24,
			"byteOffset":582804
		},
		{
			"buffer":0,
			"byteLength":24,
			"byteOffset":582828
		},
		{
			"buffer":0,
			"byteLength":32,
			"byteOffset":582852
		},
		{
			"buffer":0,
			"byteLength":24,
			"byteOffset":582884
		},
		{
			"buffer":0,
			"byteLength":24,
			"byteOffset":582908
		},
		{
			"buffer":0,
			"byteLength":32,
			"byteOffset":582932
		},
		{
			"buffer":0,
			"byteLength":24,
			"byteOffset":582964
		},
		{
			"buffer":0,
			"byteLength":24,
			"byteOffset":582988
		},
		{
			"buffer":0,
			"byteLength":304,
			"byteOffset":583012
		},
		{
			"buffer":0,
			"byteLength":24,
			"byteOffset":583316
		},
		{
			"buffer":0,
			"byteLength":24,
			"byteOffset":583340
		},
		{
			"buffer":0,
			"byteLength":304,
			"byteOffset":583364
		},
		{
			"buffer":0,
			"byteLength":24,
			"byteOffset":583668
		},
		{
			"buffer":0,
			"byteLength":24,
			"byteOffset":583692
		},
		{
			"buffer":0,
			"byteLength":32,
			"byteOffset":583716
		},
		{
			"buffer":0,
			"byteLength":24,
			"byteOffset":583748
		},
		{
			"buffer":0,
			"byteLength":24,
			"byteOffset":583772
		},
		{
			"buffer":0,
			"byteLength":304,
			"byteOffset":583796
		},
		{
			"buffer":0,
			"byteLength":24,
			"byteOffset":584100
		},
		{
			"buffer":0,
			"byteLength":24,
			"byteOffset":584124
		},
		{
			"buffer":0,
			"byteLength":32,
			"byteOffset":584148
		},
		{
			"buffer":0,
			"byteLength":24,
			"byteOffset":584180
		},
		{
			"buffer":0,
			"byteLength":24,
			"byteOffset":584204
		},
		{
			"buffer":0,
			"byteLength":32,
			"byteOffset":584228
		},
		{
			"buffer":0,
			"byteLength":24,
			"byteOffset":584260
		},
		{
			"buffer":0,
			"byteLength":24,
			"byteOffset":584284
		},
		{
			"buffer":0,
			"byteLength":304,
			"byteOffset":584308
		},
		{
			"buffer":0,
			"byteLength":24,
			"byteOffset":584612
		},
		{
			"buffer":0,
			"byteLength":24,
			"byteOffset":584636
		},
		{
			"buffer":0,
			"byteLength":32,
			"byteOffset":584660
		},
		{
			"buffer":0,
			"byteLength":24,
			"byteOffset":584692
		},
		{
			"buffer":0,
			"byteLength":24,
			"byteOffset":584716
		},
		{
			"buffer":0,
			"byteLength":32,
			"byteOffset":584740
		},
		{
			"buffer":0,
			"byteLength":24,
			"byteOffset":584772
		},
		{
			"buffer":0,
			"byteLength":24,
			"byteOffset":584796
		},
		{
			"buffer":0,
			"byteLength":304,
			"byteOffset":584820
		},
		{
			"buffer":0,
			"byteLength":24,
			"byteOffset":585124
		},
		{
			"buffer":0,
			"byteLength":24,
			"byteOffset":585148
		},
		{
			"buffer":0,
			"byteLength":32,
			"byteOffset":585172
		},
		{
			"buffer":0,
			"byteLength":24,
			"byteOffset":585204
		},
		{
			"buffer":0,
			"byteLength":24,
			"byteOffset":585228
		},
		{
			"buffer":0,
			"byteLength":32,
			"byteOffset":585252
		},
		{
			"buffer":0,
			"byteLength":24,
			"byteOffset":585284
		},
		{
			"buffer":0,
			"byteLength":244,
			"byteOffset":585308
		},
		{
			"buffer":0,
			"byteLength":732,
			"byteOffset":585552
		},
		{
			"buffer":0,
			"byteLength":8,
			"byteOffset":586284
		},
		{
			"buffer":0,
			"byteLength":32,
			"byteOffset":586292
		},
		{
			"buffer":0,
			"byteLength":24,
			"byteOffset":586324
		},
		{
			"buffer":0,
			"byteLength":24,
			"byteOffset":586348
		},
		{
			"buffer":0,
			"byteLength":32,
			"byteOffset":586372
		},
		{
			"buffer":0,
			"byteLength":24,
			"byteOffset":586404
		},
		{
			"buffer":0,
			"byteLength":24,
			"byteOffset":586428
		},
		{
			"buffer":0,
			"byteLength":976,
			"byteOffset":586452
		},
		{
			"buffer":0,
			"byteLength":24,
			"byteOffset":587428
		},
		{
			"buffer":0,
			"byteLength":24,
			"byteOffset":587452
		},
		{
			"buffer":0,
			"byteLength":32,
			"byteOffset":587476
		},
		{
			"buffer":0,
			"byteLength":24,
			"byteOffset":587508
		},
		{
			"buffer":0,
			"byteLength":24,
			"byteOffset":587532
		},
		{
			"buffer":0,
			"byteLength":976,
			"byteOffset":587556
		},
		{
			"buffer":0,
			"byteLength":24,
			"byteOffset":588532
		},
		{
			"buffer":0,
			"byteLength":24,
			"byteOffset":588556
		},
		{
			"buffer":0,
			"byteLength":976,
			"byteOffset":588580
		},
		{
			"buffer":0,
			"byteLength":24,
			"byteOffset":589556
		},
		{
			"buffer":0,
			"byteLength":24,
			"byteOffset":589580
		},
		{
			"buffer":0,
			"byteLength":32,
			"byteOffset":589604
		},
		{
			"buffer":0,
			"byteLength":24,
			"byteOffset":589636
		},
		{
			"buffer":0,
			"byteLength":24,
			"byteOffset":589660
		},
		{
			"buffer":0,
			"byteLength":32,
			"byteOffset":589684
		},
		{
			"buffer":0,
			"byteLength":24,
			"byteOffset":589716
		},
		{
			"buffer":0,
			"byteLength":24,
			"byteOffset":589740
		},
		{
			"buffer":0,
			"byteLength":976,
			"byteOffset":589764
		},
		{
			"buffer":0,
			"byteLength":24,
			"byteOffset":590740
		},
		{
			"buffer":0,
			"byteLength":24,
			"byteOffset":590764
		},
		{
			"buffer":0,
			"byteLength":32,
			"byteOffset":590788
		},
		{
			"buffer":0,
			"byteLength":24,
			"byteOffset":590820
		},
		{
			"buffer":0,
			"byteLength":24,
			"byteOffset":590844
		},
		{
			"buffer":0,
			"byteLength":32,
			"byteOffset":590868
		},
		{
			"buffer":0,
			"byteLength":24,
			"byteOffset":590900
		},
		{
			"buffer":0,
			"byteLength":24,
			"byteOffset":590924
		},
		{
			"buffer":0,
			"byteLength":32,
			"byteOffset":590948
		},
		{
			"buffer":0,
			"byteLength":24,
			"byteOffset":590980
		},
		{
			"buffer":0,
			"byteLength":24,
			"byteOffset":591004
		},
		{
			"buffer":0,
			"byteLength":32,
			"byteOffset":591028
		},
		{
			"buffer":0,
			"byteLength":24,
			"byteOffset":591060
		},
		{
			"buffer":0,
			"byteLength":24,
			"byteOffset":591084
		},
		{
			"buffer":0,
			"byteLength":32,
			"byteOffset":591108
		},
		{
			"buffer":0,
			"byteLength":24,
			"byteOffset":591140
		},
		{
			"buffer":0,
			"byteLength":24,
			"byteOffset":591164
		},
		{
			"buffer":0,
			"byteLength":32,
			"byteOffset":591188
		},
		{
			"buffer":0,
			"byteLength":24,
			"byteOffset":591220
		},
		{
			"buffer":0,
			"byteLength":24,
			"byteOffset":591244
		},
		{
			"buffer":0,
			"byteLength":32,
			"byteOffset":591268
		},
		{
			"buffer":0,
			"byteLength":24,
			"byteOffset":591300
		},
		{
			"buffer":0,
			"byteLength":24,
			"byteOffset":591324
		},
		{
			"buffer":0,
			"byteLength":32,
			"byteOffset":591348
		},
		{
			"buffer":0,
			"byteLength":24,
			"byteOffset":591380
		},
		{
			"buffer":0,
			"byteLength":124,
			"byteOffset":591404
		},
		{
			"buffer":0,
			"byteLength":372,
			"byteOffset":591528
		},
		{
			"buffer":0,
			"byteLength":496,
			"byteOffset":591900
		},
		{
			"buffer":0,
			"byteLength":8,
			"byteOffset":592396
		},
		{
			"buffer":0,
			"byteLength":24,
			"byteOffset":592404
		},
		{
			"buffer":0,
			"byteLength":24,
			"byteOffset":592428
		},
		{
			"buffer":0,
			"byteLength":32,
			"byteOffset":592452
		},
		{
			"buffer":0,
			"byteLength":24,
			"byteOffset":592484
		},
		{
			"buffer":0,
			"byteLength":24,
			"byteOffset":592508
		},
		{
			"buffer":0,
			"byteLength":496,
			"byteOffset":592532
		},
		{
			"buffer":0,
			"byteLength":24,
			"byteOffset":593028
		},
		{
			"buffer":0,
			"byteLength":24,
			"byteOffset":593052
		},
		{
			"buffer":0,
			"byteLength":32,
			"byteOffset":593076
		},
		{
			"buffer":0,
			"byteLength":24,
			"byteOffset":593108
		},
		{
			"buffer":0,
			"byteLength":24,
			"byteOffset":593132
		},
		{
			"buffer":0,
			"byteLength":32,
			"byteOffset":593156
		},
		{
			"buffer":0,
			"byteLength":24,
			"byteOffset":593188
		},
		{
			"buffer":0,
			"byteLength":24,
			"byteOffset":593212
		},
		{
			"buffer":0,
			"byteLength":496,
			"byteOffset":593236
		},
		{
			"buffer":0,
			"byteLength":24,
			"byteOffset":593732
		},
		{
			"buffer":0,
			"byteLength":24,
			"byteOffset":593756
		},
		{
			"buffer":0,
			"byteLength":32,
			"byteOffset":593780
		},
		{
			"buffer":0,
			"byteLength":24,
			"byteOffset":593812
		},
		{
			"buffer":0,
			"byteLength":24,
			"byteOffset":593836
		},
		{
			"buffer":0,
			"byteLength":32,
			"byteOffset":593860
		},
		{
			"buffer":0,
			"byteLength":24,
			"byteOffset":593892
		},
		{
			"buffer":0,
			"byteLength":24,
			"byteOffset":593916
		},
		{
			"buffer":0,
			"byteLength":496,
			"byteOffset":593940
		},
		{
			"buffer":0,
			"byteLength":24,
			"byteOffset":594436
		},
		{
			"buffer":0,
			"byteLength":24,
			"byteOffset":594460
		},
		{
			"buffer":0,
			"byteLength":32,
			"byteOffset":594484
		},
		{
			"buffer":0,
			"byteLength":24,
			"byteOffset":594516
		},
		{
			"buffer":0,
			"byteLength":24,
			"byteOffset":594540
		},
		{
			"buffer":0,
			"byteLength":32,
			"byteOffset":594564
		},
		{
			"buffer":0,
			"byteLength":24,
			"byteOffset":594596
		},
		{
			"buffer":0,
			"byteLength":24,
			"byteOffset":594620
		},
		{
			"buffer":0,
			"byteLength":496,
			"byteOffset":594644
		},
		{
			"buffer":0,
			"byteLength":24,
			"byteOffset":595140
		},
		{
			"buffer":0,
			"byteLength":24,
			"byteOffset":595164
		},
		{
			"buffer":0,
			"byteLength":496,
			"byteOffset":595188
		},
		{
			"buffer":0,
			"byteLength":24,
			"byteOffset":595684
		},
		{
			"buffer":0,
			"byteLength":24,
			"byteOffset":595708
		},
		{
			"buffer":0,
			"byteLength":496,
			"byteOffset":595732
		},
		{
			"buffer":0,
			"byteLength":24,
			"byteOffset":596228
		},
		{
			"buffer":0,
			"byteLength":24,
			"byteOffset":596252
		},
		{
			"buffer":0,
			"byteLength":496,
			"byteOffset":596276
		},
		{
			"buffer":0,
			"byteLength":24,
			"byteOffset":596772
		},
		{
			"buffer":0,
			"byteLength":24,
			"byteOffset":596796
		},
		{
			"buffer":0,
			"byteLength":496,
			"byteOffset":596820
		},
		{
			"buffer":0,
			"byteLength":24,
			"byteOffset":597316
		},
		{
			"buffer":0,
			"byteLength":24,
			"byteOffset":597340
		},
		{
			"buffer":0,
			"byteLength":496,
			"byteOffset":597364
		},
		{
			"buffer":0,
			"byteLength":24,
			"byteOffset":597860
		}
	],
	"samplers":[
		{
			"magFilter":9729,
			"minFilter":9987
		}
	],
	"buffers":[
		{
			"byteLength":597884,
			"uri":"shuna.bin"
		}
	]
}
