{
	"asset":{
		"generator":"Khronos glTF Blender I/O v4.2.57",
		"version":"2.0"
	},
	"extensionsUsed":[
		"KHR_materials_clearcoat",
		"KHR_materials_emissive_strength"
	],
	"scene":0,
	"scenes":[
		{
			"name":"Scene",
			"nodes":[
				19
			]
		}
	],
	"nodes":[
		{
			"name":"leg0_b.R",
			"rotation":[
				-0.7720638513565063,
				-0.3241451680660248,
				0.07110858708620071,
				0.5420248508453369
			],
			"scale":[
				1,
				1.0000001192092896,
				1.0000001192092896
			],
			"translation":[
				-5.960464477539063e-08,
				0.7465922832489014,
				0
			]
		},
		{
			"children":[
				0
			],
			"name":"leg0_a.R",
			"rotation":[
				0.3360385298728943,
				0,
				-0.39074254035949707,
				0.8569704294204712
			],
			"translation":[
				0.25,
				0.5,
				0.019999980926513672
			]
		},
		{
			"name":"leg1_b.R",
			"rotation":[
				-0.789773166179657,
				-0.42252540588378906,
				0.1417800635099411,
				0.42146065831184387
			],
			"scale":[
				1.0000001192092896,
				1,
				1
			],
			"translation":[
				2.9802322387695312e-08,
				0.6702982783317566,
				2.9802322387695312e-08
			]
		},
		{
			"children":[
				2
			],
			"name":"leg1_a.R",
			"rotation":[
				0.4177570939064026,
				9.703841286068382e-09,
				-0.4857640862464905,
				0.76779705286026
			],
			"translation":[
				0.25,
				0.320000022649765,
				0.019999980926513672
			]
		},
		{
			"name":"leg2_b.R",
			"rotation":[
				-0.7731949687004089,
				-0.5257328748703003,
				0.2161235511302948,
				0.2811850905418396
			],
			"scale":[
				1,
				1.0000004768371582,
				1.0000001192092896
			],
			"translation":[
				-4.0978193283081055e-08,
				0.6685804724693298,
				-6.984919309616089e-08
			]
		},
		{
			"children":[
				4
			],
			"name":"leg2_a.R",
			"rotation":[
				0.4975464344024658,
				0,
				-0.5785424709320068,
				0.6463251113891602
			],
			"translation":[
				0.25,
				0.14000001549720764,
				0.019999980926513672
			]
		},
		{
			"name":"leg3_b.R",
			"rotation":[
				-0.7267824411392212,
				-0.6121925711631775,
				0.27282842993736267,
				0.15024058520793915
			],
			"translation":[
				5.960464477539063e-08,
				0.7419568300247192,
				-5.960464477539063e-08
			]
		},
		{
			"children":[
				6
			],
			"name":"leg3_a.R",
			"rotation":[
				0.5567681789398193,
				-2.3016758277094596e-08,
				-0.6474048495292664,
				0.5204576849937439
			],
			"scale":[
				1,
				0.9999999403953552,
				1
			],
			"translation":[
				0.25,
				-0.04000001773238182,
				0.019999980926513672
			]
		},
		{
			"name":"leg0_b.L",
			"rotation":[
				-0.7720638513565063,
				0.3241451680660248,
				-0.07110858708620071,
				0.5420248508453369
			],
			"scale":[
				1,
				1.0000001192092896,
				1.0000001192092896
			],
			"translation":[
				5.960464477539063e-08,
				0.7465922832489014,
				0
			]
		},
		{
			"children":[
				8
			],
			"name":"leg0_a.L",
			"rotation":[
				0.3360385298728943,
				0,
				0.39074254035949707,
				0.8569704294204712
			],
			"translation":[
				-0.25,
				0.5,
				0.019999980926513672
			]
		},
		{
			"name":"leg1_b.L",
			"rotation":[
				-0.789773166179657,
				0.42252540588378906,
				-0.1417800635099411,
				0.42146065831184387
			],
			"scale":[
				1.0000001192092896,
				1,
				1
			],
			"translation":[
				-2.9802322387695312e-08,
				0.6702982783317566,
				2.9802322387695312e-08
			]
		},
		{
			"children":[
				10
			],
			"name":"leg1_a.L",
			"rotation":[
				0.4177570939064026,
				-9.703841286068382e-09,
				0.4857640862464905,
				0.76779705286026
			],
			"translation":[
				-0.25,
				0.320000022649765,
				0.019999980926513672
			]
		},
		{
			"name":"leg2_b.L",
			"rotation":[
				-0.7731949687004089,
				0.5257328748703003,
				-0.2161235511302948,
				0.2811850905418396
			],
			"scale":[
				1,
				1.0000004768371582,
				1.0000001192092896
			],
			"translation":[
				4.0978193283081055e-08,
				0.6685804724693298,
				-6.984919309616089e-08
			]
		},
		{
			"children":[
				12
			],
			"name":"leg2_a.L",
			"rotation":[
				0.4975464344024658,
				0,
				0.5785424709320068,
				0.6463251113891602
			],
			"translation":[
				-0.25,
				0.14000001549720764,
				0.019999980926513672
			]
		},
		{
			"name":"leg3_b.L",
			"rotation":[
				-0.7267824411392212,
				0.6121925711631775,
				-0.27282842993736267,
				0.15024058520793915
			],
			"translation":[
				-5.960464477539063e-08,
				0.7419568300247192,
				-5.960464477539063e-08
			]
		},
		{
			"children":[
				14
			],
			"name":"leg3_a.L",
			"rotation":[
				0.5567681789398193,
				2.3016758277094596e-08,
				0.6474048495292664,
				0.5204576849937439
			],
			"scale":[
				1,
				0.9999999403953552,
				1
			],
			"translation":[
				-0.25,
				-0.04000001773238182,
				0.019999980926513672
			]
		},
		{
			"name":"abdomen",
			"rotation":[
				0.9984697699546814,
				0,
				0,
				0.055300965905189514
			],
			"scale":[
				1,
				0.9999999403953552,
				0.9999794960021973
			],
			"translation":[
				0,
				0,
				0.04999995231628418
			]
		},
		{
			"children":[
				1,
				3,
				5,
				7,
				9,
				11,
				13,
				15,
				16
			],
			"name":"body",
			"rotation":[
				-0.7071067690849304,
				0,
				0,
				0.7071067690849304
			],
			"translation":[
				0,
				0.6000000238418579,
				0.05000000074505806
			]
		},
		{
			"mesh":0,
			"name":"spider",
			"skin":0
		},
		{
			"children":[
				18,
				17
			],
			"name":"spider_rig"
		}
	],
	"animations":[
		{
			"channels":[
				{
					"sampler":0,
					"target":{
						"node":17,
						"path":"translation"
					}
				},
				{
					"sampler":1,
					"target":{
						"node":17,
						"path":"rotation"
					}
				},
				{
					"sampler":2,
					"target":{
						"node":17,
						"path":"scale"
					}
				},
				{
					"sampler":3,
					"target":{
						"node":1,
						"path":"translation"
					}
				},
				{
					"sampler":4,
					"target":{
						"node":1,
						"path":"rotation"
					}
				},
				{
					"sampler":5,
					"target":{
						"node":1,
						"path":"scale"
					}
				},
				{
					"sampler":6,
					"target":{
						"node":0,
						"path":"translation"
					}
				},
				{
					"sampler":7,
					"target":{
						"node":0,
						"path":"rotation"
					}
				},
				{
					"sampler":8,
					"target":{
						"node":0,
						"path":"scale"
					}
				},
				{
					"sampler":9,
					"target":{
						"node":3,
						"path":"translation"
					}
				},
				{
					"sampler":10,
					"target":{
						"node":3,
						"path":"rotation"
					}
				},
				{
					"sampler":11,
					"target":{
						"node":3,
						"path":"scale"
					}
				},
				{
					"sampler":12,
					"target":{
						"node":2,
						"path":"translation"
					}
				},
				{
					"sampler":13,
					"target":{
						"node":2,
						"path":"rotation"
					}
				},
				{
					"sampler":14,
					"target":{
						"node":2,
						"path":"scale"
					}
				},
				{
					"sampler":15,
					"target":{
						"node":5,
						"path":"translation"
					}
				},
				{
					"sampler":16,
					"target":{
						"node":5,
						"path":"rotation"
					}
				},
				{
					"sampler":17,
					"target":{
						"node":5,
						"path":"scale"
					}
				},
				{
					"sampler":18,
					"target":{
						"node":4,
						"path":"translation"
					}
				},
				{
					"sampler":19,
					"target":{
						"node":4,
						"path":"rotation"
					}
				},
				{
					"sampler":20,
					"target":{
						"node":4,
						"path":"scale"
					}
				},
				{
					"sampler":21,
					"target":{
						"node":7,
						"path":"translation"
					}
				},
				{
					"sampler":22,
					"target":{
						"node":7,
						"path":"rotation"
					}
				},
				{
					"sampler":23,
					"target":{
						"node":7,
						"path":"scale"
					}
				},
				{
					"sampler":24,
					"target":{
						"node":6,
						"path":"translation"
					}
				},
				{
					"sampler":25,
					"target":{
						"node":6,
						"path":"rotation"
					}
				},
				{
					"sampler":26,
					"target":{
						"node":6,
						"path":"scale"
					}
				},
				{
					"sampler":27,
					"target":{
						"node":9,
						"path":"translation"
					}
				},
				{
					"sampler":28,
					"target":{
						"node":9,
						"path":"rotation"
					}
				},
				{
					"sampler":29,
					"target":{
						"node":9,
						"path":"scale"
					}
				},
				{
					"sampler":30,
					"target":{
						"node":8,
						"path":"translation"
					}
				},
				{
					"sampler":31,
					"target":{
						"node":8,
						"path":"rotation"
					}
				},
				{
					"sampler":32,
					"target":{
						"node":8,
						"path":"scale"
					}
				},
				{
					"sampler":33,
					"target":{
						"node":11,
						"path":"translation"
					}
				},
				{
					"sampler":34,
					"target":{
						"node":11,
						"path":"rotation"
					}
				},
				{
					"sampler":35,
					"target":{
						"node":11,
						"path":"scale"
					}
				},
				{
					"sampler":36,
					"target":{
						"node":10,
						"path":"translation"
					}
				},
				{
					"sampler":37,
					"target":{
						"node":10,
						"path":"rotation"
					}
				},
				{
					"sampler":38,
					"target":{
						"node":10,
						"path":"scale"
					}
				},
				{
					"sampler":39,
					"target":{
						"node":13,
						"path":"translation"
					}
				},
				{
					"sampler":40,
					"target":{
						"node":13,
						"path":"rotation"
					}
				},
				{
					"sampler":41,
					"target":{
						"node":13,
						"path":"scale"
					}
				},
				{
					"sampler":42,
					"target":{
						"node":12,
						"path":"translation"
					}
				},
				{
					"sampler":43,
					"target":{
						"node":12,
						"path":"rotation"
					}
				},
				{
					"sampler":44,
					"target":{
						"node":12,
						"path":"scale"
					}
				},
				{
					"sampler":45,
					"target":{
						"node":15,
						"path":"translation"
					}
				},
				{
					"sampler":46,
					"target":{
						"node":15,
						"path":"rotation"
					}
				},
				{
					"sampler":47,
					"target":{
						"node":15,
						"path":"scale"
					}
				},
				{
					"sampler":48,
					"target":{
						"node":14,
						"path":"translation"
					}
				},
				{
					"sampler":49,
					"target":{
						"node":14,
						"path":"rotation"
					}
				},
				{
					"sampler":50,
					"target":{
						"node":14,
						"path":"scale"
					}
				},
				{
					"sampler":51,
					"target":{
						"node":16,
						"path":"translation"
					}
				},
				{
					"sampler":52,
					"target":{
						"node":16,
						"path":"rotation"
					}
				},
				{
					"sampler":53,
					"target":{
						"node":16,
						"path":"scale"
					}
				}
			],
			"name":"attack",
			"samplers":[
				{
					"input":19,
					"interpolation":"LINEAR",
					"output":20
				},
				{
					"input":19,
					"interpolation":"LINEAR",
					"output":21
				},
				{
					"input":22,
					"interpolation":"STEP",
					"output":23
				},
				{
					"input":22,
					"interpolation":"STEP",
					"output":24
				},
				{
					"input":19,
					"interpolation":"LINEAR",
					"output":25
				},
				{
					"input":22,
					"interpolation":"STEP",
					"output":26
				},
				{
					"input":22,
					"interpolation":"STEP",
					"output":27
				},
				{
					"input":22,
					"interpolation":"STEP",
					"output":28
				},
				{
					"input":22,
					"interpolation":"STEP",
					"output":29
				},
				{
					"input":22,
					"interpolation":"STEP",
					"output":30
				},
				{
					"input":22,
					"interpolation":"STEP",
					"output":31
				},
				{
					"input":22,
					"interpolation":"STEP",
					"output":32
				},
				{
					"input":22,
					"interpolation":"STEP",
					"output":33
				},
				{
					"input":22,
					"interpolation":"STEP",
					"output":34
				},
				{
					"input":22,
					"interpolation":"STEP",
					"output":35
				},
				{
					"input":22,
					"interpolation":"STEP",
					"output":36
				},
				{
					"input":22,
					"interpolation":"STEP",
					"output":37
				},
				{
					"input":22,
					"interpolation":"STEP",
					"output":38
				},
				{
					"input":22,
					"interpolation":"STEP",
					"output":39
				},
				{
					"input":22,
					"interpolation":"STEP",
					"output":40
				},
				{
					"input":22,
					"interpolation":"STEP",
					"output":41
				},
				{
					"input":22,
					"interpolation":"STEP",
					"output":42
				},
				{
					"input":22,
					"interpolation":"STEP",
					"output":43
				},
				{
					"input":22,
					"interpolation":"STEP",
					"output":44
				},
				{
					"input":22,
					"interpolation":"STEP",
					"output":45
				},
				{
					"input":22,
					"interpolation":"STEP",
					"output":46
				},
				{
					"input":22,
					"interpolation":"STEP",
					"output":47
				},
				{
					"input":22,
					"interpolation":"STEP",
					"output":48
				},
				{
					"input":19,
					"interpolation":"LINEAR",
					"output":49
				},
				{
					"input":22,
					"interpolation":"STEP",
					"output":50
				},
				{
					"input":22,
					"interpolation":"STEP",
					"output":51
				},
				{
					"input":22,
					"interpolation":"STEP",
					"output":52
				},
				{
					"input":22,
					"interpolation":"STEP",
					"output":53
				},
				{
					"input":22,
					"interpolation":"STEP",
					"output":54
				},
				{
					"input":22,
					"interpolation":"STEP",
					"output":55
				},
				{
					"input":22,
					"interpolation":"STEP",
					"output":56
				},
				{
					"input":22,
					"interpolation":"STEP",
					"output":57
				},
				{
					"input":22,
					"interpolation":"STEP",
					"output":58
				},
				{
					"input":22,
					"interpolation":"STEP",
					"output":59
				},
				{
					"input":22,
					"interpolation":"STEP",
					"output":60
				},
				{
					"input":22,
					"interpolation":"STEP",
					"output":61
				},
				{
					"input":22,
					"interpolation":"STEP",
					"output":62
				},
				{
					"input":22,
					"interpolation":"STEP",
					"output":63
				},
				{
					"input":22,
					"interpolation":"STEP",
					"output":64
				},
				{
					"input":22,
					"interpolation":"STEP",
					"output":65
				},
				{
					"input":22,
					"interpolation":"STEP",
					"output":66
				},
				{
					"input":22,
					"interpolation":"STEP",
					"output":67
				},
				{
					"input":22,
					"interpolation":"STEP",
					"output":68
				},
				{
					"input":22,
					"interpolation":"STEP",
					"output":69
				},
				{
					"input":22,
					"interpolation":"STEP",
					"output":70
				},
				{
					"input":22,
					"interpolation":"STEP",
					"output":71
				},
				{
					"input":22,
					"interpolation":"STEP",
					"output":72
				},
				{
					"input":22,
					"interpolation":"STEP",
					"output":73
				},
				{
					"input":22,
					"interpolation":"STEP",
					"output":74
				}
			]
		},
		{
			"channels":[
				{
					"sampler":0,
					"target":{
						"node":17,
						"path":"translation"
					}
				},
				{
					"sampler":1,
					"target":{
						"node":17,
						"path":"rotation"
					}
				},
				{
					"sampler":2,
					"target":{
						"node":17,
						"path":"scale"
					}
				},
				{
					"sampler":3,
					"target":{
						"node":1,
						"path":"translation"
					}
				},
				{
					"sampler":4,
					"target":{
						"node":1,
						"path":"rotation"
					}
				},
				{
					"sampler":5,
					"target":{
						"node":1,
						"path":"scale"
					}
				},
				{
					"sampler":6,
					"target":{
						"node":0,
						"path":"translation"
					}
				},
				{
					"sampler":7,
					"target":{
						"node":0,
						"path":"rotation"
					}
				},
				{
					"sampler":8,
					"target":{
						"node":0,
						"path":"scale"
					}
				},
				{
					"sampler":9,
					"target":{
						"node":3,
						"path":"translation"
					}
				},
				{
					"sampler":10,
					"target":{
						"node":3,
						"path":"rotation"
					}
				},
				{
					"sampler":11,
					"target":{
						"node":3,
						"path":"scale"
					}
				},
				{
					"sampler":12,
					"target":{
						"node":2,
						"path":"translation"
					}
				},
				{
					"sampler":13,
					"target":{
						"node":2,
						"path":"rotation"
					}
				},
				{
					"sampler":14,
					"target":{
						"node":2,
						"path":"scale"
					}
				},
				{
					"sampler":15,
					"target":{
						"node":5,
						"path":"translation"
					}
				},
				{
					"sampler":16,
					"target":{
						"node":5,
						"path":"rotation"
					}
				},
				{
					"sampler":17,
					"target":{
						"node":5,
						"path":"scale"
					}
				},
				{
					"sampler":18,
					"target":{
						"node":4,
						"path":"translation"
					}
				},
				{
					"sampler":19,
					"target":{
						"node":4,
						"path":"rotation"
					}
				},
				{
					"sampler":20,
					"target":{
						"node":4,
						"path":"scale"
					}
				},
				{
					"sampler":21,
					"target":{
						"node":7,
						"path":"translation"
					}
				},
				{
					"sampler":22,
					"target":{
						"node":7,
						"path":"rotation"
					}
				},
				{
					"sampler":23,
					"target":{
						"node":7,
						"path":"scale"
					}
				},
				{
					"sampler":24,
					"target":{
						"node":6,
						"path":"translation"
					}
				},
				{
					"sampler":25,
					"target":{
						"node":6,
						"path":"rotation"
					}
				},
				{
					"sampler":26,
					"target":{
						"node":6,
						"path":"scale"
					}
				},
				{
					"sampler":27,
					"target":{
						"node":9,
						"path":"translation"
					}
				},
				{
					"sampler":28,
					"target":{
						"node":9,
						"path":"rotation"
					}
				},
				{
					"sampler":29,
					"target":{
						"node":9,
						"path":"scale"
					}
				},
				{
					"sampler":30,
					"target":{
						"node":8,
						"path":"translation"
					}
				},
				{
					"sampler":31,
					"target":{
						"node":8,
						"path":"rotation"
					}
				},
				{
					"sampler":32,
					"target":{
						"node":8,
						"path":"scale"
					}
				},
				{
					"sampler":33,
					"target":{
						"node":11,
						"path":"translation"
					}
				},
				{
					"sampler":34,
					"target":{
						"node":11,
						"path":"rotation"
					}
				},
				{
					"sampler":35,
					"target":{
						"node":11,
						"path":"scale"
					}
				},
				{
					"sampler":36,
					"target":{
						"node":10,
						"path":"translation"
					}
				},
				{
					"sampler":37,
					"target":{
						"node":10,
						"path":"rotation"
					}
				},
				{
					"sampler":38,
					"target":{
						"node":10,
						"path":"scale"
					}
				},
				{
					"sampler":39,
					"target":{
						"node":13,
						"path":"translation"
					}
				},
				{
					"sampler":40,
					"target":{
						"node":13,
						"path":"rotation"
					}
				},
				{
					"sampler":41,
					"target":{
						"node":13,
						"path":"scale"
					}
				},
				{
					"sampler":42,
					"target":{
						"node":12,
						"path":"translation"
					}
				},
				{
					"sampler":43,
					"target":{
						"node":12,
						"path":"rotation"
					}
				},
				{
					"sampler":44,
					"target":{
						"node":12,
						"path":"scale"
					}
				},
				{
					"sampler":45,
					"target":{
						"node":15,
						"path":"translation"
					}
				},
				{
					"sampler":46,
					"target":{
						"node":15,
						"path":"rotation"
					}
				},
				{
					"sampler":47,
					"target":{
						"node":15,
						"path":"scale"
					}
				},
				{
					"sampler":48,
					"target":{
						"node":14,
						"path":"translation"
					}
				},
				{
					"sampler":49,
					"target":{
						"node":14,
						"path":"rotation"
					}
				},
				{
					"sampler":50,
					"target":{
						"node":14,
						"path":"scale"
					}
				},
				{
					"sampler":51,
					"target":{
						"node":16,
						"path":"translation"
					}
				},
				{
					"sampler":52,
					"target":{
						"node":16,
						"path":"rotation"
					}
				},
				{
					"sampler":53,
					"target":{
						"node":16,
						"path":"scale"
					}
				}
			],
			"name":"idle",
			"samplers":[
				{
					"input":75,
					"interpolation":"STEP",
					"output":76
				},
				{
					"input":75,
					"interpolation":"STEP",
					"output":77
				},
				{
					"input":75,
					"interpolation":"STEP",
					"output":78
				},
				{
					"input":75,
					"interpolation":"STEP",
					"output":79
				},
				{
					"input":80,
					"interpolation":"LINEAR",
					"output":81
				},
				{
					"input":75,
					"interpolation":"STEP",
					"output":82
				},
				{
					"input":75,
					"interpolation":"STEP",
					"output":83
				},
				{
					"input":80,
					"interpolation":"LINEAR",
					"output":84
				},
				{
					"input":75,
					"interpolation":"STEP",
					"output":85
				},
				{
					"input":75,
					"interpolation":"STEP",
					"output":86
				},
				{
					"input":80,
					"interpolation":"LINEAR",
					"output":87
				},
				{
					"input":75,
					"interpolation":"STEP",
					"output":88
				},
				{
					"input":75,
					"interpolation":"STEP",
					"output":89
				},
				{
					"input":80,
					"interpolation":"LINEAR",
					"output":90
				},
				{
					"input":75,
					"interpolation":"STEP",
					"output":91
				},
				{
					"input":75,
					"interpolation":"STEP",
					"output":92
				},
				{
					"input":80,
					"interpolation":"LINEAR",
					"output":93
				},
				{
					"input":75,
					"interpolation":"STEP",
					"output":94
				},
				{
					"input":75,
					"interpolation":"STEP",
					"output":95
				},
				{
					"input":80,
					"interpolation":"LINEAR",
					"output":96
				},
				{
					"input":75,
					"interpolation":"STEP",
					"output":97
				},
				{
					"input":75,
					"interpolation":"STEP",
					"output":98
				},
				{
					"input":80,
					"interpolation":"LINEAR",
					"output":99
				},
				{
					"input":75,
					"interpolation":"STEP",
					"output":100
				},
				{
					"input":75,
					"interpolation":"STEP",
					"output":101
				},
				{
					"input":80,
					"interpolation":"LINEAR",
					"output":102
				},
				{
					"input":75,
					"interpolation":"STEP",
					"output":103
				},
				{
					"input":75,
					"interpolation":"STEP",
					"output":104
				},
				{
					"input":80,
					"interpolation":"LINEAR",
					"output":105
				},
				{
					"input":75,
					"interpolation":"STEP",
					"output":106
				},
				{
					"input":75,
					"interpolation":"STEP",
					"output":107
				},
				{
					"input":80,
					"interpolation":"LINEAR",
					"output":108
				},
				{
					"input":75,
					"interpolation":"STEP",
					"output":109
				},
				{
					"input":75,
					"interpolation":"STEP",
					"output":110
				},
				{
					"input":80,
					"interpolation":"LINEAR",
					"output":111
				},
				{
					"input":75,
					"interpolation":"STEP",
					"output":112
				},
				{
					"input":75,
					"interpolation":"STEP",
					"output":113
				},
				{
					"input":80,
					"interpolation":"LINEAR",
					"output":114
				},
				{
					"input":75,
					"interpolation":"STEP",
					"output":115
				},
				{
					"input":75,
					"interpolation":"STEP",
					"output":116
				},
				{
					"input":80,
					"interpolation":"LINEAR",
					"output":117
				},
				{
					"input":75,
					"interpolation":"STEP",
					"output":118
				},
				{
					"input":75,
					"interpolation":"STEP",
					"output":119
				},
				{
					"input":80,
					"interpolation":"LINEAR",
					"output":120
				},
				{
					"input":75,
					"interpolation":"STEP",
					"output":121
				},
				{
					"input":75,
					"interpolation":"STEP",
					"output":122
				},
				{
					"input":80,
					"interpolation":"LINEAR",
					"output":123
				},
				{
					"input":75,
					"interpolation":"STEP",
					"output":124
				},
				{
					"input":75,
					"interpolation":"STEP",
					"output":125
				},
				{
					"input":80,
					"interpolation":"LINEAR",
					"output":126
				},
				{
					"input":75,
					"interpolation":"STEP",
					"output":127
				},
				{
					"input":75,
					"interpolation":"STEP",
					"output":128
				},
				{
					"input":80,
					"interpolation":"LINEAR",
					"output":129
				},
				{
					"input":75,
					"interpolation":"STEP",
					"output":130
				}
			]
		},
		{
			"channels":[
				{
					"sampler":0,
					"target":{
						"node":17,
						"path":"translation"
					}
				},
				{
					"sampler":1,
					"target":{
						"node":17,
						"path":"rotation"
					}
				},
				{
					"sampler":2,
					"target":{
						"node":17,
						"path":"scale"
					}
				},
				{
					"sampler":3,
					"target":{
						"node":1,
						"path":"translation"
					}
				},
				{
					"sampler":4,
					"target":{
						"node":1,
						"path":"rotation"
					}
				},
				{
					"sampler":5,
					"target":{
						"node":1,
						"path":"scale"
					}
				},
				{
					"sampler":6,
					"target":{
						"node":0,
						"path":"translation"
					}
				},
				{
					"sampler":7,
					"target":{
						"node":0,
						"path":"rotation"
					}
				},
				{
					"sampler":8,
					"target":{
						"node":0,
						"path":"scale"
					}
				},
				{
					"sampler":9,
					"target":{
						"node":3,
						"path":"translation"
					}
				},
				{
					"sampler":10,
					"target":{
						"node":3,
						"path":"rotation"
					}
				},
				{
					"sampler":11,
					"target":{
						"node":3,
						"path":"scale"
					}
				},
				{
					"sampler":12,
					"target":{
						"node":2,
						"path":"translation"
					}
				},
				{
					"sampler":13,
					"target":{
						"node":2,
						"path":"rotation"
					}
				},
				{
					"sampler":14,
					"target":{
						"node":2,
						"path":"scale"
					}
				},
				{
					"sampler":15,
					"target":{
						"node":5,
						"path":"translation"
					}
				},
				{
					"sampler":16,
					"target":{
						"node":5,
						"path":"rotation"
					}
				},
				{
					"sampler":17,
					"target":{
						"node":5,
						"path":"scale"
					}
				},
				{
					"sampler":18,
					"target":{
						"node":4,
						"path":"translation"
					}
				},
				{
					"sampler":19,
					"target":{
						"node":4,
						"path":"rotation"
					}
				},
				{
					"sampler":20,
					"target":{
						"node":4,
						"path":"scale"
					}
				},
				{
					"sampler":21,
					"target":{
						"node":7,
						"path":"translation"
					}
				},
				{
					"sampler":22,
					"target":{
						"node":7,
						"path":"rotation"
					}
				},
				{
					"sampler":23,
					"target":{
						"node":7,
						"path":"scale"
					}
				},
				{
					"sampler":24,
					"target":{
						"node":6,
						"path":"translation"
					}
				},
				{
					"sampler":25,
					"target":{
						"node":6,
						"path":"rotation"
					}
				},
				{
					"sampler":26,
					"target":{
						"node":6,
						"path":"scale"
					}
				},
				{
					"sampler":27,
					"target":{
						"node":9,
						"path":"translation"
					}
				},
				{
					"sampler":28,
					"target":{
						"node":9,
						"path":"rotation"
					}
				},
				{
					"sampler":29,
					"target":{
						"node":9,
						"path":"scale"
					}
				},
				{
					"sampler":30,
					"target":{
						"node":8,
						"path":"translation"
					}
				},
				{
					"sampler":31,
					"target":{
						"node":8,
						"path":"rotation"
					}
				},
				{
					"sampler":32,
					"target":{
						"node":8,
						"path":"scale"
					}
				},
				{
					"sampler":33,
					"target":{
						"node":11,
						"path":"translation"
					}
				},
				{
					"sampler":34,
					"target":{
						"node":11,
						"path":"rotation"
					}
				},
				{
					"sampler":35,
					"target":{
						"node":11,
						"path":"scale"
					}
				},
				{
					"sampler":36,
					"target":{
						"node":10,
						"path":"translation"
					}
				},
				{
					"sampler":37,
					"target":{
						"node":10,
						"path":"rotation"
					}
				},
				{
					"sampler":38,
					"target":{
						"node":10,
						"path":"scale"
					}
				},
				{
					"sampler":39,
					"target":{
						"node":13,
						"path":"translation"
					}
				},
				{
					"sampler":40,
					"target":{
						"node":13,
						"path":"rotation"
					}
				},
				{
					"sampler":41,
					"target":{
						"node":13,
						"path":"scale"
					}
				},
				{
					"sampler":42,
					"target":{
						"node":12,
						"path":"translation"
					}
				},
				{
					"sampler":43,
					"target":{
						"node":12,
						"path":"rotation"
					}
				},
				{
					"sampler":44,
					"target":{
						"node":12,
						"path":"scale"
					}
				},
				{
					"sampler":45,
					"target":{
						"node":15,
						"path":"translation"
					}
				},
				{
					"sampler":46,
					"target":{
						"node":15,
						"path":"rotation"
					}
				},
				{
					"sampler":47,
					"target":{
						"node":15,
						"path":"scale"
					}
				},
				{
					"sampler":48,
					"target":{
						"node":14,
						"path":"translation"
					}
				},
				{
					"sampler":49,
					"target":{
						"node":14,
						"path":"rotation"
					}
				},
				{
					"sampler":50,
					"target":{
						"node":14,
						"path":"scale"
					}
				},
				{
					"sampler":51,
					"target":{
						"node":16,
						"path":"translation"
					}
				},
				{
					"sampler":52,
					"target":{
						"node":16,
						"path":"rotation"
					}
				},
				{
					"sampler":53,
					"target":{
						"node":16,
						"path":"scale"
					}
				}
			],
			"name":"walk",
			"samplers":[
				{
					"input":131,
					"interpolation":"STEP",
					"output":132
				},
				{
					"input":131,
					"interpolation":"STEP",
					"output":133
				},
				{
					"input":131,
					"interpolation":"STEP",
					"output":134
				},
				{
					"input":131,
					"interpolation":"STEP",
					"output":135
				},
				{
					"input":136,
					"interpolation":"LINEAR",
					"output":137
				},
				{
					"input":131,
					"interpolation":"STEP",
					"output":138
				},
				{
					"input":131,
					"interpolation":"STEP",
					"output":139
				},
				{
					"input":136,
					"interpolation":"LINEAR",
					"output":140
				},
				{
					"input":131,
					"interpolation":"STEP",
					"output":141
				},
				{
					"input":131,
					"interpolation":"STEP",
					"output":142
				},
				{
					"input":136,
					"interpolation":"LINEAR",
					"output":143
				},
				{
					"input":131,
					"interpolation":"STEP",
					"output":144
				},
				{
					"input":131,
					"interpolation":"STEP",
					"output":145
				},
				{
					"input":136,
					"interpolation":"LINEAR",
					"output":146
				},
				{
					"input":131,
					"interpolation":"STEP",
					"output":147
				},
				{
					"input":131,
					"interpolation":"STEP",
					"output":148
				},
				{
					"input":136,
					"interpolation":"LINEAR",
					"output":149
				},
				{
					"input":131,
					"interpolation":"STEP",
					"output":150
				},
				{
					"input":131,
					"interpolation":"STEP",
					"output":151
				},
				{
					"input":136,
					"interpolation":"LINEAR",
					"output":152
				},
				{
					"input":131,
					"interpolation":"STEP",
					"output":153
				},
				{
					"input":131,
					"interpolation":"STEP",
					"output":154
				},
				{
					"input":136,
					"interpolation":"LINEAR",
					"output":155
				},
				{
					"input":131,
					"interpolation":"STEP",
					"output":156
				},
				{
					"input":131,
					"interpolation":"STEP",
					"output":157
				},
				{
					"input":136,
					"interpolation":"LINEAR",
					"output":158
				},
				{
					"input":131,
					"interpolation":"STEP",
					"output":159
				},
				{
					"input":131,
					"interpolation":"STEP",
					"output":160
				},
				{
					"input":136,
					"interpolation":"LINEAR",
					"output":161
				},
				{
					"input":131,
					"interpolation":"STEP",
					"output":162
				},
				{
					"input":131,
					"interpolation":"STEP",
					"output":163
				},
				{
					"input":136,
					"interpolation":"LINEAR",
					"output":164
				},
				{
					"input":131,
					"interpolation":"STEP",
					"output":165
				},
				{
					"input":131,
					"interpolation":"STEP",
					"output":166
				},
				{
					"input":136,
					"interpolation":"LINEAR",
					"output":167
				},
				{
					"input":131,
					"interpolation":"STEP",
					"output":168
				},
				{
					"input":131,
					"interpolation":"STEP",
					"output":169
				},
				{
					"input":136,
					"interpolation":"LINEAR",
					"output":170
				},
				{
					"input":131,
					"interpolation":"STEP",
					"output":171
				},
				{
					"input":131,
					"interpolation":"STEP",
					"output":172
				},
				{
					"input":136,
					"interpolation":"LINEAR",
					"output":173
				},
				{
					"input":131,
					"interpolation":"STEP",
					"output":174
				},
				{
					"input":131,
					"interpolation":"STEP",
					"output":175
				},
				{
					"input":136,
					"interpolation":"LINEAR",
					"output":176
				},
				{
					"input":131,
					"interpolation":"STEP",
					"output":177
				},
				{
					"input":131,
					"interpolation":"STEP",
					"output":178
				},
				{
					"input":136,
					"interpolation":"LINEAR",
					"output":179
				},
				{
					"input":131,
					"interpolation":"STEP",
					"output":180
				},
				{
					"input":131,
					"interpolation":"STEP",
					"output":181
				},
				{
					"input":136,
					"interpolation":"LINEAR",
					"output":182
				},
				{
					"input":131,
					"interpolation":"STEP",
					"output":183
				},
				{
					"input":131,
					"interpolation":"STEP",
					"output":184
				},
				{
					"input":136,
					"interpolation":"LINEAR",
					"output":185
				},
				{
					"input":131,
					"interpolation":"STEP",
					"output":186
				}
			]
		}
	],
	"materials":[
		{
			"extensions":{
				"KHR_materials_clearcoat":{
					"clearcoatFactor":0.699999988079071
				}
			},
			"name":"chitin",
			"normalTexture":{
				"index":0,
				"scale":0.6000000238418579
			},
			"pbrMetallicRoughness":{
				"baseColorFactor":[
					0.010022825561463833,
					0.010022825561463833,
					0.0134117491543293,
					1
				],
				"metallicFactor":0,
				"roughnessFactor":0.30000001192092896
			}
		},
		{
			"emissiveFactor":[
				0.26879306311579754,
				0.004316645659671048,
				0.004316645659671048
			],
			"name":"mark",
			"pbrMetallicRoughness":{
				"baseColorFactor":[
					0.4479884207248688,
					0.007194409146904945,
					0.007194409146904945,
					1
				],
				"metallicFactor":0,
				"roughnessFactor":0.30000001192092896
			}
		},
		{
			"emissiveFactor":[
				1,
				0.01960664801299572,
				0.010022825561463833
			],
			"extensions":{
				"KHR_materials_emissive_strength":{
					"emissiveStrength":1.600000023841858
				}
			},
			"name":"eye",
			"pbrMetallicRoughness":{
				"baseColorFactor":[
					1,
					0.01960664801299572,
					0.010022825561463833,
					1
				],
				"metallicFactor":0,
				"roughnessFactor":0.10000000149011612
			}
		}
	],
	"meshes":[
		{
			"name":"spider",
			"primitives":[
				{
					"attributes":{
						"POSITION":0,
						"NORMAL":1,
						"TEXCOORD_0":2,
						"JOINTS_0":3,
						"WEIGHTS_0":4
					},
					"indices":5,
					"material":0
				},
				{
					"attributes":{
						"POSITION":6,
						"NORMAL":7,
						"TEXCOORD_0":8,
						"JOINTS_0":9,
						"WEIGHTS_0":10
					},
					"indices":11,
					"material":1
				},
				{
					"attributes":{
						"POSITION":12,
						"NORMAL":13,
						"TEXCOORD_0":14,
						"JOINTS_0":15,
						"WEIGHTS_0":16
					},
					"indices":17,
					"material":2
				}
			]
		}
	],
	"textures":[
		{
			"sampler":0,
			"source":0
		}
	],
	"images":[
		{
			"mimeType":"image/png",
			"name":"N_scale",
			"uri":"texturas/N_scale.png"
		}
	],
	"skins":[
		{
			"inverseBindMatrices":18,
			"joints":[
				17,
				1,
				0,
				3,
				2,
				5,
				4,
				7,
				6,
				9,
				8,
				11,
				10,
				13,
				12,
				15,
				14,
				16
			],
			"name":"spider_rig"
		}
	],
	"accessors":[
		{
			"bufferView":0,
			"componentType":5126,
			"count":1548,
			"max":[
				1.2110469341278076,
				1.1699999570846558,
				1.0299999713897705
			],
			"min":[
				-1.2110469341278076,
				-0.004717166069895029,
				-0.9618793725967407
			],
			"type":"VEC3"
		},
		{
			"bufferView":1,
			"componentType":5126,
			"count":1548,
			"type":"VEC3"
		},
		{
			"bufferView":2,
			"componentType":5126,
			"count":1548,
			"type":"VEC2"
		},
		{
			"bufferView":3,
			"componentType":5121,
			"count":1548,
			"type":"VEC4"
		},
		{
			"bufferView":4,
			"componentType":5126,
			"count":1548,
			"type":"VEC4"
		},
		{
			"bufferView":5,
			"componentType":5123,
			"count":5280,
			"type":"SCALAR"
		},
		{
			"bufferView":6,
			"componentType":5126,
			"count":100,
			"max":[
				0.14000000059604645,
				1.2000000476837158,
				0.6399999856948853
			],
			"min":[
				-0.14000000059604645,
				1.100000023841858,
				0.1599999964237213
			],
			"type":"VEC3"
		},
		{
			"bufferView":7,
			"componentType":5126,
			"count":100,
			"type":"VEC3"
		},
		{
			"bufferView":8,
			"componentType":5126,
			"count":100,
			"type":"VEC2"
		},
		{
			"bufferView":9,
			"componentType":5121,
			"count":100,
			"type":"VEC4"
		},
		{
			"bufferView":10,
			"componentType":5126,
			"count":100,
			"type":"VEC4"
		},
		{
			"bufferView":11,
			"componentType":5123,
			"count":432,
			"type":"SCALAR"
		},
		{
			"bufferView":12,
			"componentType":5126,
			"count":640,
			"max":[
				0.14662958681583405,
				0.7680000066757202,
				-0.560978889465332
			],
			"min":[
				-0.14662958681583405,
				0.6520000100135803,
				-0.5990211367607117
			],
			"type":"VEC3"
		},
		{
			"bufferView":13,
			"componentType":5126,
			"count":640,
			"type":"VEC3"
		},
		{
			"bufferView":14,
			"componentType":5126,
			"count":640,
			"type":"VEC2"
		},
		{
			"bufferView":15,
			"componentType":5121,
			"count":640,
			"type":"VEC4"
		},
		{
			"bufferView":16,
			"componentType":5126,
			"count":640,
			"type":"VEC4"
		},
		{
			"bufferView":17,
			"componentType":5123,
			"count":1920,
			"type":"SCALAR"
		},
		{
			"bufferView":18,
			"componentType":5126,
			"count":18,
			"type":"MAT4"
		},
		{
			"bufferView":19,
			"componentType":5126,
			"count":15,
			"max":[
				0.4666666666666667
			],
			"min":[
				0
			],
			"type":"SCALAR"
		},
		{
			"bufferView":20,
			"componentType":5126,
			"count":15,
			"type":"VEC3"
		},
		{
			"bufferView":21,
			"componentType":5126,
			"count":15,
			"type":"VEC4"
		},
		{
			"bufferView":22,
			"componentType":5126,
			"count":2,
			"max":[
				0.4666666666666667
			],
			"min":[
				0
			],
			"type":"SCALAR"
		},
		{
			"bufferView":23,
			"componentType":5126,
			"count":2,
			"type":"VEC3"
		},
		{
			"bufferView":24,
			"componentType":5126,
			"count":2,
			"type":"VEC3"
		},
		{
			"bufferView":25,
			"componentType":5126,
			"count":15,
			"type":"VEC4"
		},
		{
			"bufferView":26,
			"componentType":5126,
			"count":2,
			"type":"VEC3"
		},
		{
			"bufferView":27,
			"componentType":5126,
			"count":2,
			"type":"VEC3"
		},
		{
			"bufferView":28,
			"componentType":5126,
			"count":2,
			"type":"VEC4"
		},
		{
			"bufferView":29,
			"componentType":5126,
			"count":2,
			"type":"VEC3"
		},
		{
			"bufferView":30,
			"componentType":5126,
			"count":2,
			"type":"VEC3"
		},
		{
			"bufferView":31,
			"componentType":5126,
			"count":2,
			"type":"VEC4"
		},
		{
			"bufferView":32,
			"componentType":5126,
			"count":2,
			"type":"VEC3"
		},
		{
			"bufferView":33,
			"componentType":5126,
			"count":2,
			"type":"VEC3"
		},
		{
			"bufferView":34,
			"componentType":5126,
			"count":2,
			"type":"VEC4"
		},
		{
			"bufferView":35,
			"componentType":5126,
			"count":2,
			"type":"VEC3"
		},
		{
			"bufferView":36,
			"componentType":5126,
			"count":2,
			"type":"VEC3"
		},
		{
			"bufferView":37,
			"componentType":5126,
			"count":2,
			"type":"VEC4"
		},
		{
			"bufferView":38,
			"componentType":5126,
			"count":2,
			"type":"VEC3"
		},
		{
			"bufferView":39,
			"componentType":5126,
			"count":2,
			"type":"VEC3"
		},
		{
			"bufferView":40,
			"componentType":5126,
			"count":2,
			"type":"VEC4"
		},
		{
			"bufferView":41,
			"componentType":5126,
			"count":2,
			"type":"VEC3"
		},
		{
			"bufferView":42,
			"componentType":5126,
			"count":2,
			"type":"VEC3"
		},
		{
			"bufferView":43,
			"componentType":5126,
			"count":2,
			"type":"VEC4"
		},
		{
			"bufferView":44,
			"componentType":5126,
			"count":2,
			"type":"VEC3"
		},
		{
			"bufferView":45,
			"componentType":5126,
			"count":2,
			"type":"VEC3"
		},
		{
			"bufferView":46,
			"componentType":5126,
			"count":2,
			"type":"VEC4"
		},
		{
			"bufferView":47,
			"componentType":5126,
			"count":2,
			"type":"VEC3"
		},
		{
			"bufferView":48,
			"componentType":5126,
			"count":2,
			"type":"VEC3"
		},
		{
			"bufferView":49,
			"componentType":5126,
			"count":15,
			"type":"VEC4"
		},
		{
			"bufferView":50,
			"componentType":5126,
			"count":2,
			"type":"VEC3"
		},
		{
			"bufferView":51,
			"componentType":5126,
			"count":2,
			"type":"VEC3"
		},
		{
			"bufferView":52,
			"componentType":5126,
			"count":2,
			"type":"VEC4"
		},
		{
			"bufferView":53,
			"componentType":5126,
			"count":2,
			"type":"VEC3"
		},
		{
			"bufferView":54,
			"componentType":5126,
			"count":2,
			"type":"VEC3"
		},
		{
			"bufferView":55,
			"componentType":5126,
			"count":2,
			"type":"VEC4"
		},
		{
			"bufferView":56,
			"componentType":5126,
			"count":2,
			"type":"VEC3"
		},
		{
			"bufferView":57,
			"componentType":5126,
			"count":2,
			"type":"VEC3"
		},
		{
			"bufferView":58,
			"componentType":5126,
			"count":2,
			"type":"VEC4"
		},
		{
			"bufferView":59,
			"componentType":5126,
			"count":2,
			"type":"VEC3"
		},
		{
			"bufferView":60,
			"componentType":5126,
			"count":2,
			"type":"VEC3"
		},
		{
			"bufferView":61,
			"componentType":5126,
			"count":2,
			"type":"VEC4"
		},
		{
			"bufferView":62,
			"componentType":5126,
			"count":2,
			"type":"VEC3"
		},
		{
			"bufferView":63,
			"componentType":5126,
			"count":2,
			"type":"VEC3"
		},
		{
			"bufferView":64,
			"componentType":5126,
			"count":2,
			"type":"VEC4"
		},
		{
			"bufferView":65,
			"componentType":5126,
			"count":2,
			"type":"VEC3"
		},
		{
			"bufferView":66,
			"componentType":5126,
			"count":2,
			"type":"VEC3"
		},
		{
			"bufferView":67,
			"componentType":5126,
			"count":2,
			"type":"VEC4"
		},
		{
			"bufferView":68,
			"componentType":5126,
			"count":2,
			"type":"VEC3"
		},
		{
			"bufferView":69,
			"componentType":5126,
			"count":2,
			"type":"VEC3"
		},
		{
			"bufferView":70,
			"componentType":5126,
			"count":2,
			"type":"VEC4"
		},
		{
			"bufferView":71,
			"componentType":5126,
			"count":2,
			"type":"VEC3"
		},
		{
			"bufferView":72,
			"componentType":5126,
			"count":2,
			"type":"VEC3"
		},
		{
			"bufferView":73,
			"componentType":5126,
			"count":2,
			"type":"VEC4"
		},
		{
			"bufferView":74,
			"componentType":5126,
			"count":2,
			"type":"VEC3"
		},
		{
			"bufferView":75,
			"componentType":5126,
			"count":2,
			"max":[
				2
			],
			"min":[
				0
			],
			"type":"SCALAR"
		},
		{
			"bufferView":76,
			"componentType":5126,
			"count":2,
			"type":"VEC3"
		},
		{
			"bufferView":77,
			"componentType":5126,
			"count":2,
			"type":"VEC4"
		},
		{
			"bufferView":78,
			"componentType":5126,
			"count":2,
			"type":"VEC3"
		},
		{
			"bufferView":79,
			"componentType":5126,
			"count":2,
			"type":"VEC3"
		},
		{
			"bufferView":80,
			"componentType":5126,
			"count":61,
			"max":[
				2
			],
			"min":[
				0
			],
			"type":"SCALAR"
		},
		{
			"bufferView":81,
			"componentType":5126,
			"count":61,
			"type":"VEC4"
		},
		{
			"bufferView":82,
			"componentType":5126,
			"count":2,
			"type":"VEC3"
		},
		{
			"bufferView":83,
			"componentType":5126,
			"count":2,
			"type":"VEC3"
		},
		{
			"bufferView":84,
			"componentType":5126,
			"count":61,
			"type":"VEC4"
		},
		{
			"bufferView":85,
			"componentType":5126,
			"count":2,
			"type":"VEC3"
		},
		{
			"bufferView":86,
			"componentType":5126,
			"count":2,
			"type":"VEC3"
		},
		{
			"bufferView":87,
			"componentType":5126,
			"count":61,
			"type":"VEC4"
		},
		{
			"bufferView":88,
			"componentType":5126,
			"count":2,
			"type":"VEC3"
		},
		{
			"bufferView":89,
			"componentType":5126,
			"count":2,
			"type":"VEC3"
		},
		{
			"bufferView":90,
			"componentType":5126,
			"count":61,
			"type":"VEC4"
		},
		{
			"bufferView":91,
			"componentType":5126,
			"count":2,
			"type":"VEC3"
		},
		{
			"bufferView":92,
			"componentType":5126,
			"count":2,
			"type":"VEC3"
		},
		{
			"bufferView":93,
			"componentType":5126,
			"count":61,
			"type":"VEC4"
		},
		{
			"bufferView":94,
			"componentType":5126,
			"count":2,
			"type":"VEC3"
		},
		{
			"bufferView":95,
			"componentType":5126,
			"count":2,
			"type":"VEC3"
		},
		{
			"bufferView":96,
			"componentType":5126,
			"count":61,
			"type":"VEC4"
		},
		{
			"bufferView":97,
			"componentType":5126,
			"count":2,
			"type":"VEC3"
		},
		{
			"bufferView":98,
			"componentType":5126,
			"count":2,
			"type":"VEC3"
		},
		{
			"bufferView":99,
			"componentType":5126,
			"count":61,
			"type":"VEC4"
		},
		{
			"bufferView":100,
			"componentType":5126,
			"count":2,
			"type":"VEC3"
		},
		{
			"bufferView":101,
			"componentType":5126,
			"count":2,
			"type":"VEC3"
		},
		{
			"bufferView":102,
			"componentType":5126,
			"count":61,
			"type":"VEC4"
		},
		{
			"bufferView":103,
			"componentType":5126,
			"count":2,
			"type":"VEC3"
		},
		{
			"bufferView":104,
			"componentType":5126,
			"count":2,
			"type":"VEC3"
		},
		{
			"bufferView":105,
			"componentType":5126,
			"count":61,
			"type":"VEC4"
		},
		{
			"bufferView":106,
			"componentType":5126,
			"count":2,
			"type":"VEC3"
		},
		{
			"bufferView":107,
			"componentType":5126,
			"count":2,
			"type":"VEC3"
		},
		{
			"bufferView":108,
			"componentType":5126,
			"count":61,
			"type":"VEC4"
		},
		{
			"bufferView":109,
			"componentType":5126,
			"count":2,
			"type":"VEC3"
		},
		{
			"bufferView":110,
			"componentType":5126,
			"count":2,
			"type":"VEC3"
		},
		{
			"bufferView":111,
			"componentType":5126,
			"count":61,
			"type":"VEC4"
		},
		{
			"bufferView":112,
			"componentType":5126,
			"count":2,
			"type":"VEC3"
		},
		{
			"bufferView":113,
			"componentType":5126,
			"count":2,
			"type":"VEC3"
		},
		{
			"bufferView":114,
			"componentType":5126,
			"count":61,
			"type":"VEC4"
		},
		{
			"bufferView":115,
			"componentType":5126,
			"count":2,
			"type":"VEC3"
		},
		{
			"bufferView":116,
			"componentType":5126,
			"count":2,
			"type":"VEC3"
		},
		{
			"bufferView":117,
			"componentType":5126,
			"count":61,
			"type":"VEC4"
		},
		{
			"bufferView":118,
			"componentType":5126,
			"count":2,
			"type":"VEC3"
		},
		{
			"bufferView":119,
			"componentType":5126,
			"count":2,
			"type":"VEC3"
		},
		{
			"bufferView":120,
			"componentType":5126,
			"count":61,
			"type":"VEC4"
		},
		{
			"bufferView":121,
			"componentType":5126,
			"count":2,
			"type":"VEC3"
		},
		{
			"bufferView":122,
			"componentType":5126,
			"count":2,
			"type":"VEC3"
		},
		{
			"bufferView":123,
			"componentType":5126,
			"count":61,
			"type":"VEC4"
		},
		{
			"bufferView":124,
			"componentType":5126,
			"count":2,
			"type":"VEC3"
		},
		{
			"bufferView":125,
			"componentType":5126,
			"count":2,
			"type":"VEC3"
		},
		{
			"bufferView":126,
			"componentType":5126,
			"count":61,
			"type":"VEC4"
		},
		{
			"bufferView":127,
			"componentType":5126,
			"count":2,
			"type":"VEC3"
		},
		{
			"bufferView":128,
			"componentType":5126,
			"count":2,
			"type":"VEC3"
		},
		{
			"bufferView":129,
			"componentType":5126,
			"count":61,
			"type":"VEC4"
		},
		{
			"bufferView":130,
			"componentType":5126,
			"count":2,
			"type":"VEC3"
		},
		{
			"bufferView":131,
			"componentType":5126,
			"count":2,
			"max":[
				0.6666666666666666
			],
			"min":[
				0
			],
			"type":"SCALAR"
		},
		{
			"bufferView":132,
			"componentType":5126,
			"count":2,
			"type":"VEC3"
		},
		{
			"bufferView":133,
			"componentType":5126,
			"count":2,
			"type":"VEC4"
		},
		{
			"bufferView":134,
			"componentType":5126,
			"count":2,
			"type":"VEC3"
		},
		{
			"bufferView":135,
			"componentType":5126,
			"count":2,
			"type":"VEC3"
		},
		{
			"bufferView":136,
			"componentType":5126,
			"count":21,
			"max":[
				0.6666666666666666
			],
			"min":[
				0
			],
			"type":"SCALAR"
		},
		{
			"bufferView":137,
			"componentType":5126,
			"count":21,
			"type":"VEC4"
		},
		{
			"bufferView":138,
			"componentType":5126,
			"count":2,
			"type":"VEC3"
		},
		{
			"bufferView":139,
			"componentType":5126,
			"count":2,
			"type":"VEC3"
		},
		{
			"bufferView":140,
			"componentType":5126,
			"count":21,
			"type":"VEC4"
		},
		{
			"bufferView":141,
			"componentType":5126,
			"count":2,
			"type":"VEC3"
		},
		{
			"bufferView":142,
			"componentType":5126,
			"count":2,
			"type":"VEC3"
		},
		{
			"bufferView":143,
			"componentType":5126,
			"count":21,
			"type":"VEC4"
		},
		{
			"bufferView":144,
			"componentType":5126,
			"count":2,
			"type":"VEC3"
		},
		{
			"bufferView":145,
			"componentType":5126,
			"count":2,
			"type":"VEC3"
		},
		{
			"bufferView":146,
			"componentType":5126,
			"count":21,
			"type":"VEC4"
		},
		{
			"bufferView":147,
			"componentType":5126,
			"count":2,
			"type":"VEC3"
		},
		{
			"bufferView":148,
			"componentType":5126,
			"count":2,
			"type":"VEC3"
		},
		{
			"bufferView":149,
			"componentType":5126,
			"count":21,
			"type":"VEC4"
		},
		{
			"bufferView":150,
			"componentType":5126,
			"count":2,
			"type":"VEC3"
		},
		{
			"bufferView":151,
			"componentType":5126,
			"count":2,
			"type":"VEC3"
		},
		{
			"bufferView":152,
			"componentType":5126,
			"count":21,
			"type":"VEC4"
		},
		{
			"bufferView":153,
			"componentType":5126,
			"count":2,
			"type":"VEC3"
		},
		{
			"bufferView":154,
			"componentType":5126,
			"count":2,
			"type":"VEC3"
		},
		{
			"bufferView":155,
			"componentType":5126,
			"count":21,
			"type":"VEC4"
		},
		{
			"bufferView":156,
			"componentType":5126,
			"count":2,
			"type":"VEC3"
		},
		{
			"bufferView":157,
			"componentType":5126,
			"count":2,
			"type":"VEC3"
		},
		{
			"bufferView":158,
			"componentType":5126,
			"count":21,
			"type":"VEC4"
		},
		{
			"bufferView":159,
			"componentType":5126,
			"count":2,
			"type":"VEC3"
		},
		{
			"bufferView":160,
			"componentType":5126,
			"count":2,
			"type":"VEC3"
		},
		{
			"bufferView":161,
			"componentType":5126,
			"count":21,
			"type":"VEC4"
		},
		{
			"bufferView":162,
			"componentType":5126,
			"count":2,
			"type":"VEC3"
		},
		{
			"bufferView":163,
			"componentType":5126,
			"count":2,
			"type":"VEC3"
		},
		{
			"bufferView":164,
			"componentType":5126,
			"count":21,
			"type":"VEC4"
		},
		{
			"bufferView":165,
			"componentType":5126,
			"count":2,
			"type":"VEC3"
		},
		{
			"bufferView":166,
			"componentType":5126,
			"count":2,
			"type":"VEC3"
		},
		{
			"bufferView":167,
			"componentType":5126,
			"count":21,
			"type":"VEC4"
		},
		{
			"bufferView":168,
			"componentType":5126,
			"count":2,
			"type":"VEC3"
		},
		{
			"bufferView":169,
			"componentType":5126,
			"count":2,
			"type":"VEC3"
		},
		{
			"bufferView":170,
			"componentType":5126,
			"count":21,
			"type":"VEC4"
		},
		{
			"bufferView":171,
			"componentType":5126,
			"count":2,
			"type":"VEC3"
		},
		{
			"bufferView":172,
			"componentType":5126,
			"count":2,
			"type":"VEC3"
		},
		{
			"bufferView":173,
			"componentType":5126,
			"count":21,
			"type":"VEC4"
		},
		{
			"bufferView":174,
			"componentType":5126,
			"count":2,
			"type":"VEC3"
		},
		{
			"bufferView":175,
			"componentType":5126,
			"count":2,
			"type":"VEC3"
		},
		{
			"bufferView":176,
			"componentType":5126,
			"count":21,
			"type":"VEC4"
		},
		{
			"bufferView":177,
			"componentType":5126,
			"count":2,
			"type":"VEC3"
		},
		{
			"bufferView":178,
			"componentType":5126,
			"count":2,
			"type":"VEC3"
		},
		{
			"bufferView":179,
			"componentType":5126,
			"count":21,
			"type":"VEC4"
		},
		{
			"bufferView":180,
			"componentType":5126,
			"count":2,
			"type":"VEC3"
		},
		{
			"bufferView":181,
			"componentType":5126,
			"count":2,
			"type":"VEC3"
		},
		{
			"bufferView":182,
			"componentType":5126,
			"count":21,
			"type":"VEC4"
		},
		{
			"bufferView":183,
			"componentType":5126,
			"count":2,
			"type":"VEC3"
		},
		{
			"bufferView":184,
			"componentType":5126,
			"count":2,
			"type":"VEC3"
		},
		{
			"bufferView":185,
			"componentType":5126,
			"count":21,
			"type":"VEC4"
		},
		{
			"bufferView":186,
			"componentType":5126,
			"count":2,
			"type":"VEC3"
		}
	],
	"bufferViews":[
		{
			"buffer":0,
			"byteLength":18576,
			"byteOffset":0,
			"target":34962
		},
		{
			"buffer":0,
			"byteLength":18576,
			"byteOffset":18576,
			"target":34962
		},
		{
			"buffer":0,
			"byteLength":12384,
			"byteOffset":37152,
			"target":34962
		},
		{
			"buffer":0,
			"byteLength":6192,
			"byteOffset":49536,
			"target":34962
		},
		{
			"buffer":0,
			"byteLength":24768,
			"byteOffset":55728,
			"target":34962
		},
		{
			"buffer":0,
			"byteLength":10560,
			"byteOffset":80496,
			"target":34963
		},
		{
			"buffer":0,
			"byteLength":1200,
			"byteOffset":91056,
			"target":34962
		},
		{
			"buffer":0,
			"byteLength":1200,
			"byteOffset":92256,
			"target":34962
		},
		{
			"buffer":0,
			"byteLength":800,
			"byteOffset":93456,
			"target":34962
		},
		{
			"buffer":0,
			"byteLength":400,
			"byteOffset":94256,
			"target":34962
		},
		{
			"buffer":0,
			"byteLength":1600,
			"byteOffset":94656,
			"target":34962
		},
		{
			"buffer":0,
			"byteLength":864,
			"byteOffset":96256,
			"target":34963
		},
		{
			"buffer":0,
			"byteLength":7680,
			"byteOffset":97120,
			"target":34962
		},
		{
			"buffer":0,
			"byteLength":7680,
			"byteOffset":104800,
			"target":34962
		},
		{
			"buffer":0,
			"byteLength":5120,
			"byteOffset":112480,
			"target":34962
		},
		{
			"buffer":0,
			"byteLength":2560,
			"byteOffset":117600,
			"target":34962
		},
		{
			"buffer":0,
			"byteLength":10240,
			"byteOffset":120160,
			"target":34962
		},
		{
			"buffer":0,
			"byteLength":3840,
			"byteOffset":130400,
			"target":34963
		},
		{
			"buffer":0,
			"byteLength":1152,
			"byteOffset":134240
		},
		{
			"buffer":0,
			"byteLength":60,
			"byteOffset":135392
		},
		{
			"buffer":0,
			"byteLength":180,
			"byteOffset":135452
		},
		{
			"buffer":0,
			"byteLength":240,
			"byteOffset":135632
		},
		{
			"buffer":0,
			"byteLength":8,
			"byteOffset":135872
		},
		{
			"buffer":0,
			"byteLength":24,
			"byteOffset":135880
		},
		{
			"buffer":0,
			"byteLength":24,
			"byteOffset":135904
		},
		{
			"buffer":0,
			"byteLength":240,
			"byteOffset":135928
		},
		{
			"buffer":0,
			"byteLength":24,
			"byteOffset":136168
		},
		{
			"buffer":0,
			"byteLength":24,
			"byteOffset":136192
		},
		{
			"buffer":0,
			"byteLength":32,
			"byteOffset":136216
		},
		{
			"buffer":0,
			"byteLength":24,
			"byteOffset":136248
		},
		{
			"buffer":0,
			"byteLength":24,
			"byteOffset":136272
		},
		{
			"buffer":0,
			"byteLength":32,
			"byteOffset":136296
		},
		{
			"buffer":0,
			"byteLength":24,
			"byteOffset":136328
		},
		{
			"buffer":0,
			"byteLength":24,
			"byteOffset":136352
		},
		{
			"buffer":0,
			"byteLength":32,
			"byteOffset":136376
		},
		{
			"buffer":0,
			"byteLength":24,
			"byteOffset":136408
		},
		{
			"buffer":0,
			"byteLength":24,
			"byteOffset":136432
		},
		{
			"buffer":0,
			"byteLength":32,
			"byteOffset":136456
		},
		{
			"buffer":0,
			"byteLength":24,
			"byteOffset":136488
		},
		{
			"buffer":0,
			"byteLength":24,
			"byteOffset":136512
		},
		{
			"buffer":0,
			"byteLength":32,
			"byteOffset":136536
		},
		{
			"buffer":0,
			"byteLength":24,
			"byteOffset":136568
		},
		{
			"buffer":0,
			"byteLength":24,
			"byteOffset":136592
		},
		{
			"buffer":0,
			"byteLength":32,
			"byteOffset":136616
		},
		{
			"buffer":0,
			"byteLength":24,
			"byteOffset":136648
		},
		{
			"buffer":0,
			"byteLength":24,
			"byteOffset":136672
		},
		{
			"buffer":0,
			"byteLength":32,
			"byteOffset":136696
		},
		{
			"buffer":0,
			"byteLength":24,
			"byteOffset":136728
		},
		{
			"buffer":0,
			"byteLength":24,
			"byteOffset":136752
		},
		{
			"buffer":0,
			"byteLength":240,
			"byteOffset":136776
		},
		{
			"buffer":0,
			"byteLength":24,
			"byteOffset":137016
		},
		{
			"buffer":0,
			"byteLength":24,
			"byteOffset":137040
		},
		{
			"buffer":0,
			"byteLength":32,
			"byteOffset":137064
		},
		{
			"buffer":0,
			"byteLength":24,
			"byteOffset":137096
		},
		{
			"buffer":0,
			"byteLength":24,
			"byteOffset":137120
		},
		{
			"buffer":0,
			"byteLength":32,
			"byteOffset":137144
		},
		{
			"buffer":0,
			"byteLength":24,
			"byteOffset":137176
		},
		{
			"buffer":0,
			"byteLength":24,
			"byteOffset":137200
		},
		{
			"buffer":0,
			"byteLength":32,
			"byteOffset":137224
		},
		{
			"buffer":0,
			"byteLength":24,
			"byteOffset":137256
		},
		{
			"buffer":0,
			"byteLength":24,
			"byteOffset":137280
		},
		{
			"buffer":0,
			"byteLength":32,
			"byteOffset":137304
		},
		{
			"buffer":0,
			"byteLength":24,
			"byteOffset":137336
		},
		{
			"buffer":0,
			"byteLength":24,
			"byteOffset":137360
		},
		{
			"buffer":0,
			"byteLength":32,
			"byteOffset":137384
		},
		{
			"buffer":0,
			"byteLength":24,
			"byteOffset":137416
		},
		{
			"buffer":0,
			"byteLength":24,
			"byteOffset":137440
		},
		{
			"buffer":0,
			"byteLength":32,
			"byteOffset":137464
		},
		{
			"buffer":0,
			"byteLength":24,
			"byteOffset":137496
		},
		{
			"buffer":0,
			"byteLength":24,
			"byteOffset":137520
		},
		{
			"buffer":0,
			"byteLength":32,
			"byteOffset":137544
		},
		{
			"buffer":0,
			"byteLength":24,
			"byteOffset":137576
		},
		{
			"buffer":0,
			"byteLength":24,
			"byteOffset":137600
		},
		{
			"buffer":0,
			"byteLength":32,
			"byteOffset":137624
		},
		{
			"buffer":0,
			"byteLength":24,
			"byteOffset":137656
		},
		{
			"buffer":0,
			"byteLength":8,
			"byteOffset":137680
		},
		{
			"buffer":0,
			"byteLength":24,
			"byteOffset":137688
		},
		{
			"buffer":0,
			"byteLength":32,
			"byteOffset":137712
		},
		{
			"buffer":0,
			"byteLength":24,
			"byteOffset":137744
		},
		{
			"buffer":0,
			"byteLength":24,
			"byteOffset":137768
		},
		{
			"buffer":0,
			"byteLength":244,
			"byteOffset":137792
		},
		{
			"buffer":0,
			"byteLength":976,
			"byteOffset":138036
		},
		{
			"buffer":0,
			"byteLength":24,
			"byteOffset":139012
		},
		{
			"buffer":0,
			"byteLength":24,
			"byteOffset":139036
		},
		{
			"buffer":0,
			"byteLength":976,
			"byteOffset":139060
		},
		{
			"buffer":0,
			"byteLength":24,
			"byteOffset":140036
		},
		{
			"buffer":0,
			"byteLength":24,
			"byteOffset":140060
		},
		{
			"buffer":0,
			"byteLength":976,
			"byteOffset":140084
		},
		{
			"buffer":0,
			"byteLength":24,
			"byteOffset":141060
		},
		{
			"buffer":0,
			"byteLength":24,
			"byteOffset":141084
		},
		{
			"buffer":0,
			"byteLength":976,
			"byteOffset":141108
		},
		{
			"buffer":0,
			"byteLength":24,
			"byteOffset":142084
		},
		{
			"buffer":0,
			"byteLength":24,
			"byteOffset":142108
		},
		{
			"buffer":0,
			"byteLength":976,
			"byteOffset":142132
		},
		{
			"buffer":0,
			"byteLength":24,
			"byteOffset":143108
		},
		{
			"buffer":0,
			"byteLength":24,
			"byteOffset":143132
		},
		{
			"buffer":0,
			"byteLength":976,
			"byteOffset":143156
		},
		{
			"buffer":0,
			"byteLength":24,
			"byteOffset":144132
		},
		{
			"buffer":0,
			"byteLength":24,
			"byteOffset":144156
		},
		{
			"buffer":0,
			"byteLength":976,
			"byteOffset":144180
		},
		{
			"buffer":0,
			"byteLength":24,
			"byteOffset":145156
		},
		{
			"buffer":0,
			"byteLength":24,
			"byteOffset":145180
		},
		{
			"buffer":0,
			"byteLength":976,
			"byteOffset":145204
		},
		{
			"buffer":0,
			"byteLength":24,
			"byteOffset":146180
		},
		{
			"buffer":0,
			"byteLength":24,
			"byteOffset":146204
		},
		{
			"buffer":0,
			"byteLength":976,
			"byteOffset":146228
		},
		{
			"buffer":0,
			"byteLength":24,
			"byteOffset":147204
		},
		{
			"buffer":0,
			"byteLength":24,
			"byteOffset":147228
		},
		{
			"buffer":0,
			"byteLength":976,
			"byteOffset":147252
		},
		{
			"buffer":0,
			"byteLength":24,
			"byteOffset":148228
		},
		{
			"buffer":0,
			"byteLength":24,
			"byteOffset":148252
		},
		{
			"buffer":0,
			"byteLength":976,
			"byteOffset":148276
		},
		{
			"buffer":0,
			"byteLength":24,
			"byteOffset":149252
		},
		{
			"buffer":0,
			"byteLength":24,
			"byteOffset":149276
		},
		{
			"buffer":0,
			"byteLength":976,
			"byteOffset":149300
		},
		{
			"buffer":0,
			"byteLength":24,
			"byteOffset":150276
		},
		{
			"buffer":0,
			"byteLength":24,
			"byteOffset":150300
		},
		{
			"buffer":0,
			"byteLength":976,
			"byteOffset":150324
		},
		{
			"buffer":0,
			"byteLength":24,
			"byteOffset":151300
		},
		{
			"buffer":0,
			"byteLength":24,
			"byteOffset":151324
		},
		{
			"buffer":0,
			"byteLength":976,
			"byteOffset":151348
		},
		{
			"buffer":0,
			"byteLength":24,
			"byteOffset":152324
		},
		{
			"buffer":0,
			"byteLength":24,
			"byteOffset":152348
		},
		{
			"buffer":0,
			"byteLength":976,
			"byteOffset":152372
		},
		{
			"buffer":0,
			"byteLength":24,
			"byteOffset":153348
		},
		{
			"buffer":0,
			"byteLength":24,
			"byteOffset":153372
		},
		{
			"buffer":0,
			"byteLength":976,
			"byteOffset":153396
		},
		{
			"buffer":0,
			"byteLength":24,
			"byteOffset":154372
		},
		{
			"buffer":0,
			"byteLength":24,
			"byteOffset":154396
		},
		{
			"buffer":0,
			"byteLength":976,
			"byteOffset":154420
		},
		{
			"buffer":0,
			"byteLength":24,
			"byteOffset":155396
		},
		{
			"buffer":0,
			"byteLength":8,
			"byteOffset":155420
		},
		{
			"buffer":0,
			"byteLength":24,
			"byteOffset":155428
		},
		{
			"buffer":0,
			"byteLength":32,
			"byteOffset":155452
		},
		{
			"buffer":0,
			"byteLength":24,
			"byteOffset":155484
		},
		{
			"buffer":0,
			"byteLength":24,
			"byteOffset":155508
		},
		{
			"buffer":0,
			"byteLength":84,
			"byteOffset":155532
		},
		{
			"buffer":0,
			"byteLength":336,
			"byteOffset":155616
		},
		{
			"buffer":0,
			"byteLength":24,
			"byteOffset":155952
		},
		{
			"buffer":0,
			"byteLength":24,
			"byteOffset":155976
		},
		{
			"buffer":0,
			"byteLength":336,
			"byteOffset":156000
		},
		{
			"buffer":0,
			"byteLength":24,
			"byteOffset":156336
		},
		{
			"buffer":0,
			"byteLength":24,
			"byteOffset":156360
		},
		{
			"buffer":0,
			"byteLength":336,
			"byteOffset":156384
		},
		{
			"buffer":0,
			"byteLength":24,
			"byteOffset":156720
		},
		{
			"buffer":0,
			"byteLength":24,
			"byteOffset":156744
		},
		{
			"buffer":0,
			"byteLength":336,
			"byteOffset":156768
		},
		{
			"buffer":0,
			"byteLength":24,
			"byteOffset":157104
		},
		{
			"buffer":0,
			"byteLength":24,
			"byteOffset":157128
		},
		{
			"buffer":0,
			"byteLength":336,
			"byteOffset":157152
		},
		{
			"buffer":0,
			"byteLength":24,
			"byteOffset":157488
		},
		{
			"buffer":0,
			"byteLength":24,
			"byteOffset":157512
		},
		{
			"buffer":0,
			"byteLength":336,
			"byteOffset":157536
		},
		{
			"buffer":0,
			"byteLength":24,
			"byteOffset":157872
		},
		{
			"buffer":0,
			"byteLength":24,
			"byteOffset":157896
		},
		{
			"buffer":0,
			"byteLength":336,
			"byteOffset":157920
		},
		{
			"buffer":0,
			"byteLength":24,
			"byteOffset":158256
		},
		{
			"buffer":0,
			"byteLength":24,
			"byteOffset":158280
		},
		{
			"buffer":0,
			"byteLength":336,
			"byteOffset":158304
		},
		{
			"buffer":0,
			"byteLength":24,
			"byteOffset":158640
		},
		{
			"buffer":0,
			"byteLength":24,
			"byteOffset":158664
		},
		{
			"buffer":0,
			"byteLength":336,
			"byteOffset":158688
		},
		{
			"buffer":0,
			"byteLength":24,
			"byteOffset":159024
		},
		{
			"buffer":0,
			"byteLength":24,
			"byteOffset":159048
		},
		{
			"buffer":0,
			"byteLength":336,
			"byteOffset":159072
		},
		{
			"buffer":0,
			"byteLength":24,
			"byteOffset":159408
		},
		{
			"buffer":0,
			"byteLength":24,
			"byteOffset":159432
		},
		{
			"buffer":0,
			"byteLength":336,
			"byteOffset":159456
		},
		{
			"buffer":0,
			"byteLength":24,
			"byteOffset":159792
		},
		{
			"buffer":0,
			"byteLength":24,
			"byteOffset":159816
		},
		{
			"buffer":0,
			"byteLength":336,
			"byteOffset":159840
		},
		{
			"buffer":0,
			"byteLength":24,
			"byteOffset":160176
		},
		{
			"buffer":0,
			"byteLength":24,
			"byteOffset":160200
		},
		{
			"buffer":0,
			"byteLength":336,
			"byteOffset":160224
		},
		{
			"buffer":0,
			"byteLength":24,
			"byteOffset":160560
		},
		{
			"buffer":0,
			"byteLength":24,
			"byteOffset":160584
		},
		{
			"buffer":0,
			"byteLength":336,
			"byteOffset":160608
		},
		{
			"buffer":0,
			"byteLength":24,
			"byteOffset":160944
		},
		{
			"buffer":0,
			"byteLength":24,
			"byteOffset":160968
		},
		{
			"buffer":0,
			"byteLength":336,
			"byteOffset":160992
		},
		{
			"buffer":0,
			"byteLength":24,
			"byteOffset":161328
		},
		{
			"buffer":0,
			"byteLength":24,
			"byteOffset":161352
		},
		{
			"buffer":0,
			"byteLength":336,
			"byteOffset":161376
		},
		{
			"buffer":0,
			"byteLength":24,
			"byteOffset":161712
		},
		{
			"buffer":0,
			"byteLength":24,
			"byteOffset":161736
		},
		{
			"buffer":0,
			"byteLength":336,
			"byteOffset":161760
		},
		{
			"buffer":0,
			"byteLength":24,
			"byteOffset":162096
		}
	],
	"samplers":[
		{
			"magFilter":9729,
			"minFilter":9987
		}
	],
	"buffers":[
		{
			"byteLength":162120,
			"uri":"spider.bin"
		}
	]
}
