{
	"asset":{
		"generator":"Khronos glTF Blender I/O v4.2.57",
		"version":"2.0"
	},
	"extensionsUsed":[
		"KHR_materials_clearcoat",
		"KHR_materials_emissive_strength"
	],
	"scene":0,
	"scenes":[
		{
			"name":"Scene",
			"nodes":[
				21
			]
		}
	],
	"nodes":[
		{
			"name":"head",
			"rotation":[
				-0.406838983297348,
				0,
				0,
				0.9134998917579651
			],
			"scale":[
				1,
				0.9999999403953552,
				0.9999999403953552
			],
			"translation":[
				0,
				1.1879401206970215,
				0
			]
		},
		{
			"children":[
				0
			],
			"name":"neck2",
			"rotation":[
				0.06144742667675018,
				0,
				0,
				0.9981103539466858
			],
			"scale":[
				1,
				0.9999999403953552,
				0.9999999403953552
			],
			"translation":[
				0,
				1.9023408889770508,
				-2.384185791015625e-07
			]
		},
		{
			"children":[
				1
			],
			"name":"neck1",
			"rotation":[
				0.22006265819072723,
				0,
				0,
				0.9754857420921326
			],
			"scale":[
				1,
				0.9999999403953552,
				0.9999999403953552
			],
			"translation":[
				0,
				1.3829314708709717,
				8.940696716308594e-08
			]
		},
		{
			"name":"fl_low.L",
			"rotation":[
				0.025665007531642914,
				0.09442786872386932,
				-0.1527874767780304,
				0.9834026098251343
			],
			"scale":[
				0.9999999403953552,
				0.9999999403953552,
				0.9999998211860657
			],
			"translation":[
				1.4901161193847656e-08,
				1.0146923065185547,
				-1.341104507446289e-07
			]
		},
		{
			"children":[
				3
			],
			"name":"fl_up.L",
			"rotation":[
				-0.62542724609375,
				0.01959872990846634,
				0.1785399615764618,
				0.7593287825584412
			],
			"scale":[
				0.9999999403953552,
				0.9999999403953552,
				0.9999998211860657
			],
			"translation":[
				-0.9599999785423279,
				1.2657890319824219,
				-0.5271408557891846
			]
		},
		{
			"name":"fl_low.R",
			"rotation":[
				0.025665007531642914,
				-0.09442786872386932,
				0.1527874767780304,
				0.9834026098251343
			],
			"scale":[
				0.9999999403953552,
				0.9999999403953552,
				0.9999998211860657
			],
			"translation":[
				-1.4901161193847656e-08,
				1.0146923065185547,
				-1.341104507446289e-07
			]
		},
		{
			"children":[
				5
			],
			"name":"fl_up.R",
			"rotation":[
				-0.62542724609375,
				-0.01959872990846634,
				-0.1785399615764618,
				0.7593287825584412
			],
			"scale":[
				0.9999999403953552,
				0.9999999403953552,
				0.9999998211860657
			],
			"translation":[
				0.9599999785423279,
				1.2657890319824219,
				-0.5271408557891846
			]
		},
		{
			"name":"wing_tip.R",
			"rotation":[
				-0.48580190539360046,
				-0.5367389917373657,
				-0.0386040024459362,
				0.6887797713279724
			],
			"scale":[
				1.0000001192092896,
				1.0000001192092896,
				1.0000001192092896
			],
			"translation":[
				-1.1920928955078125e-07,
				2.1308703422546387,
				2.9802322387695312e-08
			]
		},
		{
			"children":[
				7
			],
			"name":"wing.R",
			"rotation":[
				0.3765346109867096,
				-0.07061402499675751,
				-0.6432779431343079,
				0.6628943085670471
			],
			"scale":[
				0.9999999403953552,
				0.9999998807907104,
				0.9999998807907104
			],
			"translation":[
				0.05999999865889549,
				1.1193609237670898,
				0.8883302211761475
			]
		},
		{
			"name":"wing_tip.L",
			"rotation":[
				-0.48580190539360046,
				0.5367389917373657,
				0.0386040024459362,
				0.6887797713279724
			],
			"scale":[
				1.0000001192092896,
				1.0000001192092896,
				1.0000001192092896
			],
			"translation":[
				1.1920928955078125e-07,
				2.1308703422546387,
				2.9802322387695312e-08
			]
		},
		{
			"children":[
				9
			],
			"name":"wing.L",
			"rotation":[
				0.3765346109867096,
				0.07061402499675751,
				0.6432779431343079,
				0.6628943085670471
			],
			"scale":[
				0.9999999403953552,
				0.9999998807907104,
				0.9999998807907104
			],
			"translation":[
				-0.05999999865889549,
				1.1193609237670898,
				0.8883302211761475
			]
		},
		{
			"children":[
				2,
				4,
				6,
				8,
				10
			],
			"name":"spine",
			"rotation":[
				0.05497613921761513,
				0,
				0,
				0.9984877109527588
			],
			"scale":[
				1,
				0.9999999403953552,
				0.9999999403953552
			],
			"translation":[
				0,
				1.6597890853881836,
				-5.960464477539063e-08
			]
		},
		{
			"name":"tail3",
			"rotation":[
				-0.043778158724308014,
				0,
				0,
				0.9990412592887878
			],
			"scale":[
				1,
				0.9999998807907104,
				1
			],
			"translation":[
				0,
				2.9007065296173096,
				1.7881393432617188e-07
			]
		},
		{
			"children":[
				12
			],
			"name":"tail2",
			"rotation":[
				0.00028225037385709584,
				0,
				0,
				1
			],
			"scale":[
				1,
				0.9999999403953552,
				0.9999998807907104
			],
			"translation":[
				0,
				2.74774432182312,
				-5.960464477539063e-08
			]
		},
		{
			"children":[
				13
			],
			"name":"tail1",
			"rotation":[
				-0.9992390275001526,
				0,
				0,
				0.039004020392894745
			],
			"scale":[
				1,
				1,
				1.0000091791152954
			],
			"translation":[
				0,
				-4.470348358154297e-08,
				-1.043081283569336e-07
			]
		},
		{
			"name":"bl_low.L",
			"rotation":[
				-0.5106738805770874,
				0.1798354983329773,
				-0.11114446818828583,
				0.8333776593208313
			],
			"translation":[
				1.043081283569336e-07,
				0.9758071899414062,
				1.2293457984924316e-07
			]
		},
		{
			"children":[
				15
			],
			"name":"bl_up.L",
			"rotation":[
				-0.48716849088668823,
				0.01148036029189825,
				0.21109741926193237,
				0.8473328948020935
			],
			"translation":[
				-0.9599999785423279,
				-0.02277401089668274,
				-0.20876143872737885
			]
		},
		{
			"name":"bl_low.R",
			"rotation":[
				-0.5106738805770874,
				-0.1798354983329773,
				0.11114446818828583,
				0.8333776593208313
			],
			"translation":[
				-1.043081283569336e-07,
				0.9758071899414062,
				1.2293457984924316e-07
			]
		},
		{
			"children":[
				17
			],
			"name":"bl_up.R",
			"rotation":[
				-0.48716849088668823,
				-0.01148036029189825,
				-0.21109741926193237,
				0.8473328948020935
			],
			"translation":[
				0.9599999785423279,
				-0.02277401089668274,
				-0.20876143872737885
			]
		},
		{
			"children":[
				11,
				14,
				16,
				18
			],
			"name":"hips",
			"rotation":[
				-0.6676647663116455,
				0,
				0,
				0.7444620728492737
			],
			"translation":[
				0,
				1.8600000143051147,
				1.5
			]
		},
		{
			"mesh":0,
			"name":"veldora_dragon",
			"skin":0
		},
		{
			"children":[
				20,
				19
			],
			"name":"veldora_dragon_rig"
		}
	],
	"animations":[
		{
			"channels":[
				{
					"sampler":0,
					"target":{
						"node":19,
						"path":"translation"
					}
				},
				{
					"sampler":1,
					"target":{
						"node":19,
						"path":"rotation"
					}
				},
				{
					"sampler":2,
					"target":{
						"node":19,
						"path":"scale"
					}
				},
				{
					"sampler":3,
					"target":{
						"node":11,
						"path":"translation"
					}
				},
				{
					"sampler":4,
					"target":{
						"node":11,
						"path":"rotation"
					}
				},
				{
					"sampler":5,
					"target":{
						"node":11,
						"path":"scale"
					}
				},
				{
					"sampler":6,
					"target":{
						"node":2,
						"path":"translation"
					}
				},
				{
					"sampler":7,
					"target":{
						"node":2,
						"path":"rotation"
					}
				},
				{
					"sampler":8,
					"target":{
						"node":2,
						"path":"scale"
					}
				},
				{
					"sampler":9,
					"target":{
						"node":1,
						"path":"translation"
					}
				},
				{
					"sampler":10,
					"target":{
						"node":1,
						"path":"rotation"
					}
				},
				{
					"sampler":11,
					"target":{
						"node":1,
						"path":"scale"
					}
				},
				{
					"sampler":12,
					"target":{
						"node":0,
						"path":"translation"
					}
				},
				{
					"sampler":13,
					"target":{
						"node":0,
						"path":"rotation"
					}
				},
				{
					"sampler":14,
					"target":{
						"node":0,
						"path":"scale"
					}
				},
				{
					"sampler":15,
					"target":{
						"node":4,
						"path":"translation"
					}
				},
				{
					"sampler":16,
					"target":{
						"node":4,
						"path":"rotation"
					}
				},
				{
					"sampler":17,
					"target":{
						"node":4,
						"path":"scale"
					}
				},
				{
					"sampler":18,
					"target":{
						"node":3,
						"path":"translation"
					}
				},
				{
					"sampler":19,
					"target":{
						"node":3,
						"path":"rotation"
					}
				},
				{
					"sampler":20,
					"target":{
						"node":3,
						"path":"scale"
					}
				},
				{
					"sampler":21,
					"target":{
						"node":6,
						"path":"translation"
					}
				},
				{
					"sampler":22,
					"target":{
						"node":6,
						"path":"rotation"
					}
				},
				{
					"sampler":23,
					"target":{
						"node":6,
						"path":"scale"
					}
				},
				{
					"sampler":24,
					"target":{
						"node":5,
						"path":"translation"
					}
				},
				{
					"sampler":25,
					"target":{
						"node":5,
						"path":"rotation"
					}
				},
				{
					"sampler":26,
					"target":{
						"node":5,
						"path":"scale"
					}
				},
				{
					"sampler":27,
					"target":{
						"node":8,
						"path":"translation"
					}
				},
				{
					"sampler":28,
					"target":{
						"node":8,
						"path":"rotation"
					}
				},
				{
					"sampler":29,
					"target":{
						"node":8,
						"path":"scale"
					}
				},
				{
					"sampler":30,
					"target":{
						"node":7,
						"path":"translation"
					}
				},
				{
					"sampler":31,
					"target":{
						"node":7,
						"path":"rotation"
					}
				},
				{
					"sampler":32,
					"target":{
						"node":7,
						"path":"scale"
					}
				},
				{
					"sampler":33,
					"target":{
						"node":10,
						"path":"translation"
					}
				},
				{
					"sampler":34,
					"target":{
						"node":10,
						"path":"rotation"
					}
				},
				{
					"sampler":35,
					"target":{
						"node":10,
						"path":"scale"
					}
				},
				{
					"sampler":36,
					"target":{
						"node":9,
						"path":"translation"
					}
				},
				{
					"sampler":37,
					"target":{
						"node":9,
						"path":"rotation"
					}
				},
				{
					"sampler":38,
					"target":{
						"node":9,
						"path":"scale"
					}
				},
				{
					"sampler":39,
					"target":{
						"node":14,
						"path":"translation"
					}
				},
				{
					"sampler":40,
					"target":{
						"node":14,
						"path":"rotation"
					}
				},
				{
					"sampler":41,
					"target":{
						"node":14,
						"path":"scale"
					}
				},
				{
					"sampler":42,
					"target":{
						"node":13,
						"path":"translation"
					}
				},
				{
					"sampler":43,
					"target":{
						"node":13,
						"path":"rotation"
					}
				},
				{
					"sampler":44,
					"target":{
						"node":13,
						"path":"scale"
					}
				},
				{
					"sampler":45,
					"target":{
						"node":12,
						"path":"translation"
					}
				},
				{
					"sampler":46,
					"target":{
						"node":12,
						"path":"rotation"
					}
				},
				{
					"sampler":47,
					"target":{
						"node":12,
						"path":"scale"
					}
				},
				{
					"sampler":48,
					"target":{
						"node":16,
						"path":"translation"
					}
				},
				{
					"sampler":49,
					"target":{
						"node":16,
						"path":"rotation"
					}
				},
				{
					"sampler":50,
					"target":{
						"node":16,
						"path":"scale"
					}
				},
				{
					"sampler":51,
					"target":{
						"node":15,
						"path":"translation"
					}
				},
				{
					"sampler":52,
					"target":{
						"node":15,
						"path":"rotation"
					}
				},
				{
					"sampler":53,
					"target":{
						"node":15,
						"path":"scale"
					}
				},
				{
					"sampler":54,
					"target":{
						"node":18,
						"path":"translation"
					}
				},
				{
					"sampler":55,
					"target":{
						"node":18,
						"path":"rotation"
					}
				},
				{
					"sampler":56,
					"target":{
						"node":18,
						"path":"scale"
					}
				},
				{
					"sampler":57,
					"target":{
						"node":17,
						"path":"translation"
					}
				},
				{
					"sampler":58,
					"target":{
						"node":17,
						"path":"rotation"
					}
				},
				{
					"sampler":59,
					"target":{
						"node":17,
						"path":"scale"
					}
				}
			],
			"name":"attack",
			"samplers":[
				{
					"input":37,
					"interpolation":"STEP",
					"output":38
				},
				{
					"input":37,
					"interpolation":"STEP",
					"output":39
				},
				{
					"input":37,
					"interpolation":"STEP",
					"output":40
				},
				{
					"input":37,
					"interpolation":"STEP",
					"output":41
				},
				{
					"input":37,
					"interpolation":"STEP",
					"output":42
				},
				{
					"input":37,
					"interpolation":"STEP",
					"output":43
				},
				{
					"input":37,
					"interpolation":"STEP",
					"output":44
				},
				{
					"input":45,
					"interpolation":"LINEAR",
					"output":46
				},
				{
					"input":37,
					"interpolation":"STEP",
					"output":47
				},
				{
					"input":37,
					"interpolation":"STEP",
					"output":48
				},
				{
					"input":45,
					"interpolation":"LINEAR",
					"output":49
				},
				{
					"input":37,
					"interpolation":"STEP",
					"output":50
				},
				{
					"input":37,
					"interpolation":"STEP",
					"output":51
				},
				{
					"input":45,
					"interpolation":"LINEAR",
					"output":52
				},
				{
					"input":37,
					"interpolation":"STEP",
					"output":53
				},
				{
					"input":37,
					"interpolation":"STEP",
					"output":54
				},
				{
					"input":37,
					"interpolation":"STEP",
					"output":55
				},
				{
					"input":37,
					"interpolation":"STEP",
					"output":56
				},
				{
					"input":37,
					"interpolation":"STEP",
					"output":57
				},
				{
					"input":37,
					"interpolation":"STEP",
					"output":58
				},
				{
					"input":37,
					"interpolation":"STEP",
					"output":59
				},
				{
					"input":37,
					"interpolation":"STEP",
					"output":60
				},
				{
					"input":37,
					"interpolation":"STEP",
					"output":61
				},
				{
					"input":37,
					"interpolation":"STEP",
					"output":62
				},
				{
					"input":37,
					"interpolation":"STEP",
					"output":63
				},
				{
					"input":37,
					"interpolation":"STEP",
					"output":64
				},
				{
					"input":37,
					"interpolation":"STEP",
					"output":65
				},
				{
					"input":37,
					"interpolation":"STEP",
					"output":66
				},
				{
					"input":45,
					"interpolation":"LINEAR",
					"output":67
				},
				{
					"input":37,
					"interpolation":"STEP",
					"output":68
				},
				{
					"input":37,
					"interpolation":"STEP",
					"output":69
				},
				{
					"input":37,
					"interpolation":"STEP",
					"output":70
				},
				{
					"input":37,
					"interpolation":"STEP",
					"output":71
				},
				{
					"input":37,
					"interpolation":"STEP",
					"output":72
				},
				{
					"input":45,
					"interpolation":"LINEAR",
					"output":73
				},
				{
					"input":37,
					"interpolation":"STEP",
					"output":74
				},
				{
					"input":37,
					"interpolation":"STEP",
					"output":75
				},
				{
					"input":37,
					"interpolation":"STEP",
					"output":76
				},
				{
					"input":37,
					"interpolation":"STEP",
					"output":77
				},
				{
					"input":37,
					"interpolation":"STEP",
					"output":78
				},
				{
					"input":37,
					"interpolation":"STEP",
					"output":79
				},
				{
					"input":37,
					"interpolation":"STEP",
					"output":80
				},
				{
					"input":37,
					"interpolation":"STEP",
					"output":81
				},
				{
					"input":37,
					"interpolation":"STEP",
					"output":82
				},
				{
					"input":37,
					"interpolation":"STEP",
					"output":83
				},
				{
					"input":37,
					"interpolation":"STEP",
					"output":84
				},
				{
					"input":37,
					"interpolation":"STEP",
					"output":85
				},
				{
					"input":37,
					"interpolation":"STEP",
					"output":86
				},
				{
					"input":37,
					"interpolation":"STEP",
					"output":87
				},
				{
					"input":37,
					"interpolation":"STEP",
					"output":88
				},
				{
					"input":37,
					"interpolation":"STEP",
					"output":89
				},
				{
					"input":37,
					"interpolation":"STEP",
					"output":90
				},
				{
					"input":37,
					"interpolation":"STEP",
					"output":91
				},
				{
					"input":37,
					"interpolation":"STEP",
					"output":92
				},
				{
					"input":37,
					"interpolation":"STEP",
					"output":93
				},
				{
					"input":37,
					"interpolation":"STEP",
					"output":94
				},
				{
					"input":37,
					"interpolation":"STEP",
					"output":95
				},
				{
					"input":37,
					"interpolation":"STEP",
					"output":96
				},
				{
					"input":37,
					"interpolation":"STEP",
					"output":97
				},
				{
					"input":37,
					"interpolation":"STEP",
					"output":98
				}
			]
		},
		{
			"channels":[
				{
					"sampler":0,
					"target":{
						"node":19,
						"path":"translation"
					}
				},
				{
					"sampler":1,
					"target":{
						"node":19,
						"path":"rotation"
					}
				},
				{
					"sampler":2,
					"target":{
						"node":19,
						"path":"scale"
					}
				},
				{
					"sampler":3,
					"target":{
						"node":11,
						"path":"translation"
					}
				},
				{
					"sampler":4,
					"target":{
						"node":11,
						"path":"rotation"
					}
				},
				{
					"sampler":5,
					"target":{
						"node":11,
						"path":"scale"
					}
				},
				{
					"sampler":6,
					"target":{
						"node":2,
						"path":"translation"
					}
				},
				{
					"sampler":7,
					"target":{
						"node":2,
						"path":"rotation"
					}
				},
				{
					"sampler":8,
					"target":{
						"node":2,
						"path":"scale"
					}
				},
				{
					"sampler":9,
					"target":{
						"node":1,
						"path":"translation"
					}
				},
				{
					"sampler":10,
					"target":{
						"node":1,
						"path":"rotation"
					}
				},
				{
					"sampler":11,
					"target":{
						"node":1,
						"path":"scale"
					}
				},
				{
					"sampler":12,
					"target":{
						"node":0,
						"path":"translation"
					}
				},
				{
					"sampler":13,
					"target":{
						"node":0,
						"path":"rotation"
					}
				},
				{
					"sampler":14,
					"target":{
						"node":0,
						"path":"scale"
					}
				},
				{
					"sampler":15,
					"target":{
						"node":4,
						"path":"translation"
					}
				},
				{
					"sampler":16,
					"target":{
						"node":4,
						"path":"rotation"
					}
				},
				{
					"sampler":17,
					"target":{
						"node":4,
						"path":"scale"
					}
				},
				{
					"sampler":18,
					"target":{
						"node":3,
						"path":"translation"
					}
				},
				{
					"sampler":19,
					"target":{
						"node":3,
						"path":"rotation"
					}
				},
				{
					"sampler":20,
					"target":{
						"node":3,
						"path":"scale"
					}
				},
				{
					"sampler":21,
					"target":{
						"node":6,
						"path":"translation"
					}
				},
				{
					"sampler":22,
					"target":{
						"node":6,
						"path":"rotation"
					}
				},
				{
					"sampler":23,
					"target":{
						"node":6,
						"path":"scale"
					}
				},
				{
					"sampler":24,
					"target":{
						"node":5,
						"path":"translation"
					}
				},
				{
					"sampler":25,
					"target":{
						"node":5,
						"path":"rotation"
					}
				},
				{
					"sampler":26,
					"target":{
						"node":5,
						"path":"scale"
					}
				},
				{
					"sampler":27,
					"target":{
						"node":8,
						"path":"translation"
					}
				},
				{
					"sampler":28,
					"target":{
						"node":8,
						"path":"rotation"
					}
				},
				{
					"sampler":29,
					"target":{
						"node":8,
						"path":"scale"
					}
				},
				{
					"sampler":30,
					"target":{
						"node":7,
						"path":"translation"
					}
				},
				{
					"sampler":31,
					"target":{
						"node":7,
						"path":"rotation"
					}
				},
				{
					"sampler":32,
					"target":{
						"node":7,
						"path":"scale"
					}
				},
				{
					"sampler":33,
					"target":{
						"node":10,
						"path":"translation"
					}
				},
				{
					"sampler":34,
					"target":{
						"node":10,
						"path":"rotation"
					}
				},
				{
					"sampler":35,
					"target":{
						"node":10,
						"path":"scale"
					}
				},
				{
					"sampler":36,
					"target":{
						"node":9,
						"path":"translation"
					}
				},
				{
					"sampler":37,
					"target":{
						"node":9,
						"path":"rotation"
					}
				},
				{
					"sampler":38,
					"target":{
						"node":9,
						"path":"scale"
					}
				},
				{
					"sampler":39,
					"target":{
						"node":14,
						"path":"translation"
					}
				},
				{
					"sampler":40,
					"target":{
						"node":14,
						"path":"rotation"
					}
				},
				{
					"sampler":41,
					"target":{
						"node":14,
						"path":"scale"
					}
				},
				{
					"sampler":42,
					"target":{
						"node":13,
						"path":"translation"
					}
				},
				{
					"sampler":43,
					"target":{
						"node":13,
						"path":"rotation"
					}
				},
				{
					"sampler":44,
					"target":{
						"node":13,
						"path":"scale"
					}
				},
				{
					"sampler":45,
					"target":{
						"node":12,
						"path":"translation"
					}
				},
				{
					"sampler":46,
					"target":{
						"node":12,
						"path":"rotation"
					}
				},
				{
					"sampler":47,
					"target":{
						"node":12,
						"path":"scale"
					}
				},
				{
					"sampler":48,
					"target":{
						"node":16,
						"path":"translation"
					}
				},
				{
					"sampler":49,
					"target":{
						"node":16,
						"path":"rotation"
					}
				},
				{
					"sampler":50,
					"target":{
						"node":16,
						"path":"scale"
					}
				},
				{
					"sampler":51,
					"target":{
						"node":15,
						"path":"translation"
					}
				},
				{
					"sampler":52,
					"target":{
						"node":15,
						"path":"rotation"
					}
				},
				{
					"sampler":53,
					"target":{
						"node":15,
						"path":"scale"
					}
				},
				{
					"sampler":54,
					"target":{
						"node":18,
						"path":"translation"
					}
				},
				{
					"sampler":55,
					"target":{
						"node":18,
						"path":"rotation"
					}
				},
				{
					"sampler":56,
					"target":{
						"node":18,
						"path":"scale"
					}
				},
				{
					"sampler":57,
					"target":{
						"node":17,
						"path":"translation"
					}
				},
				{
					"sampler":58,
					"target":{
						"node":17,
						"path":"rotation"
					}
				},
				{
					"sampler":59,
					"target":{
						"node":17,
						"path":"scale"
					}
				}
			],
			"name":"idle",
			"samplers":[
				{
					"input":99,
					"interpolation":"STEP",
					"output":100
				},
				{
					"input":99,
					"interpolation":"STEP",
					"output":101
				},
				{
					"input":99,
					"interpolation":"STEP",
					"output":102
				},
				{
					"input":99,
					"interpolation":"STEP",
					"output":103
				},
				{
					"input":104,
					"interpolation":"LINEAR",
					"output":105
				},
				{
					"input":99,
					"interpolation":"STEP",
					"output":106
				},
				{
					"input":99,
					"interpolation":"STEP",
					"output":107
				},
				{
					"input":104,
					"interpolation":"LINEAR",
					"output":108
				},
				{
					"input":99,
					"interpolation":"STEP",
					"output":109
				},
				{
					"input":99,
					"interpolation":"STEP",
					"output":110
				},
				{
					"input":99,
					"interpolation":"STEP",
					"output":111
				},
				{
					"input":99,
					"interpolation":"STEP",
					"output":112
				},
				{
					"input":99,
					"interpolation":"STEP",
					"output":113
				},
				{
					"input":104,
					"interpolation":"LINEAR",
					"output":114
				},
				{
					"input":99,
					"interpolation":"STEP",
					"output":115
				},
				{
					"input":99,
					"interpolation":"STEP",
					"output":116
				},
				{
					"input":99,
					"interpolation":"STEP",
					"output":117
				},
				{
					"input":99,
					"interpolation":"STEP",
					"output":118
				},
				{
					"input":99,
					"interpolation":"STEP",
					"output":119
				},
				{
					"input":99,
					"interpolation":"STEP",
					"output":120
				},
				{
					"input":99,
					"interpolation":"STEP",
					"output":121
				},
				{
					"input":99,
					"interpolation":"STEP",
					"output":122
				},
				{
					"input":99,
					"interpolation":"STEP",
					"output":123
				},
				{
					"input":99,
					"interpolation":"STEP",
					"output":124
				},
				{
					"input":99,
					"interpolation":"STEP",
					"output":125
				},
				{
					"input":99,
					"interpolation":"STEP",
					"output":126
				},
				{
					"input":99,
					"interpolation":"STEP",
					"output":127
				},
				{
					"input":99,
					"interpolation":"STEP",
					"output":128
				},
				{
					"input":104,
					"interpolation":"LINEAR",
					"output":129
				},
				{
					"input":99,
					"interpolation":"STEP",
					"output":130
				},
				{
					"input":99,
					"interpolation":"STEP",
					"output":131
				},
				{
					"input":99,
					"interpolation":"STEP",
					"output":132
				},
				{
					"input":99,
					"interpolation":"STEP",
					"output":133
				},
				{
					"input":99,
					"interpolation":"STEP",
					"output":134
				},
				{
					"input":104,
					"interpolation":"LINEAR",
					"output":135
				},
				{
					"input":99,
					"interpolation":"STEP",
					"output":136
				},
				{
					"input":99,
					"interpolation":"STEP",
					"output":137
				},
				{
					"input":99,
					"interpolation":"STEP",
					"output":138
				},
				{
					"input":99,
					"interpolation":"STEP",
					"output":139
				},
				{
					"input":99,
					"interpolation":"STEP",
					"output":140
				},
				{
					"input":104,
					"interpolation":"LINEAR",
					"output":141
				},
				{
					"input":99,
					"interpolation":"STEP",
					"output":142
				},
				{
					"input":99,
					"interpolation":"STEP",
					"output":143
				},
				{
					"input":104,
					"interpolation":"LINEAR",
					"output":144
				},
				{
					"input":99,
					"interpolation":"STEP",
					"output":145
				},
				{
					"input":99,
					"interpolation":"STEP",
					"output":146
				},
				{
					"input":104,
					"interpolation":"LINEAR",
					"output":147
				},
				{
					"input":99,
					"interpolation":"STEP",
					"output":148
				},
				{
					"input":99,
					"interpolation":"STEP",
					"output":149
				},
				{
					"input":99,
					"interpolation":"STEP",
					"output":150
				},
				{
					"input":99,
					"interpolation":"STEP",
					"output":151
				},
				{
					"input":99,
					"interpolation":"STEP",
					"output":152
				},
				{
					"input":99,
					"interpolation":"STEP",
					"output":153
				},
				{
					"input":99,
					"interpolation":"STEP",
					"output":154
				},
				{
					"input":99,
					"interpolation":"STEP",
					"output":155
				},
				{
					"input":99,
					"interpolation":"STEP",
					"output":156
				},
				{
					"input":99,
					"interpolation":"STEP",
					"output":157
				},
				{
					"input":99,
					"interpolation":"STEP",
					"output":158
				},
				{
					"input":99,
					"interpolation":"STEP",
					"output":159
				},
				{
					"input":99,
					"interpolation":"STEP",
					"output":160
				}
			]
		},
		{
			"channels":[
				{
					"sampler":0,
					"target":{
						"node":19,
						"path":"translation"
					}
				},
				{
					"sampler":1,
					"target":{
						"node":19,
						"path":"rotation"
					}
				},
				{
					"sampler":2,
					"target":{
						"node":19,
						"path":"scale"
					}
				},
				{
					"sampler":3,
					"target":{
						"node":11,
						"path":"translation"
					}
				},
				{
					"sampler":4,
					"target":{
						"node":11,
						"path":"rotation"
					}
				},
				{
					"sampler":5,
					"target":{
						"node":11,
						"path":"scale"
					}
				},
				{
					"sampler":6,
					"target":{
						"node":2,
						"path":"translation"
					}
				},
				{
					"sampler":7,
					"target":{
						"node":2,
						"path":"rotation"
					}
				},
				{
					"sampler":8,
					"target":{
						"node":2,
						"path":"scale"
					}
				},
				{
					"sampler":9,
					"target":{
						"node":1,
						"path":"translation"
					}
				},
				{
					"sampler":10,
					"target":{
						"node":1,
						"path":"rotation"
					}
				},
				{
					"sampler":11,
					"target":{
						"node":1,
						"path":"scale"
					}
				},
				{
					"sampler":12,
					"target":{
						"node":0,
						"path":"translation"
					}
				},
				{
					"sampler":13,
					"target":{
						"node":0,
						"path":"rotation"
					}
				},
				{
					"sampler":14,
					"target":{
						"node":0,
						"path":"scale"
					}
				},
				{
					"sampler":15,
					"target":{
						"node":4,
						"path":"translation"
					}
				},
				{
					"sampler":16,
					"target":{
						"node":4,
						"path":"rotation"
					}
				},
				{
					"sampler":17,
					"target":{
						"node":4,
						"path":"scale"
					}
				},
				{
					"sampler":18,
					"target":{
						"node":3,
						"path":"translation"
					}
				},
				{
					"sampler":19,
					"target":{
						"node":3,
						"path":"rotation"
					}
				},
				{
					"sampler":20,
					"target":{
						"node":3,
						"path":"scale"
					}
				},
				{
					"sampler":21,
					"target":{
						"node":6,
						"path":"translation"
					}
				},
				{
					"sampler":22,
					"target":{
						"node":6,
						"path":"rotation"
					}
				},
				{
					"sampler":23,
					"target":{
						"node":6,
						"path":"scale"
					}
				},
				{
					"sampler":24,
					"target":{
						"node":5,
						"path":"translation"
					}
				},
				{
					"sampler":25,
					"target":{
						"node":5,
						"path":"rotation"
					}
				},
				{
					"sampler":26,
					"target":{
						"node":5,
						"path":"scale"
					}
				},
				{
					"sampler":27,
					"target":{
						"node":8,
						"path":"translation"
					}
				},
				{
					"sampler":28,
					"target":{
						"node":8,
						"path":"rotation"
					}
				},
				{
					"sampler":29,
					"target":{
						"node":8,
						"path":"scale"
					}
				},
				{
					"sampler":30,
					"target":{
						"node":7,
						"path":"translation"
					}
				},
				{
					"sampler":31,
					"target":{
						"node":7,
						"path":"rotation"
					}
				},
				{
					"sampler":32,
					"target":{
						"node":7,
						"path":"scale"
					}
				},
				{
					"sampler":33,
					"target":{
						"node":10,
						"path":"translation"
					}
				},
				{
					"sampler":34,
					"target":{
						"node":10,
						"path":"rotation"
					}
				},
				{
					"sampler":35,
					"target":{
						"node":10,
						"path":"scale"
					}
				},
				{
					"sampler":36,
					"target":{
						"node":9,
						"path":"translation"
					}
				},
				{
					"sampler":37,
					"target":{
						"node":9,
						"path":"rotation"
					}
				},
				{
					"sampler":38,
					"target":{
						"node":9,
						"path":"scale"
					}
				},
				{
					"sampler":39,
					"target":{
						"node":14,
						"path":"translation"
					}
				},
				{
					"sampler":40,
					"target":{
						"node":14,
						"path":"rotation"
					}
				},
				{
					"sampler":41,
					"target":{
						"node":14,
						"path":"scale"
					}
				},
				{
					"sampler":42,
					"target":{
						"node":13,
						"path":"translation"
					}
				},
				{
					"sampler":43,
					"target":{
						"node":13,
						"path":"rotation"
					}
				},
				{
					"sampler":44,
					"target":{
						"node":13,
						"path":"scale"
					}
				},
				{
					"sampler":45,
					"target":{
						"node":12,
						"path":"translation"
					}
				},
				{
					"sampler":46,
					"target":{
						"node":12,
						"path":"rotation"
					}
				},
				{
					"sampler":47,
					"target":{
						"node":12,
						"path":"scale"
					}
				},
				{
					"sampler":48,
					"target":{
						"node":16,
						"path":"translation"
					}
				},
				{
					"sampler":49,
					"target":{
						"node":16,
						"path":"rotation"
					}
				},
				{
					"sampler":50,
					"target":{
						"node":16,
						"path":"scale"
					}
				},
				{
					"sampler":51,
					"target":{
						"node":15,
						"path":"translation"
					}
				},
				{
					"sampler":52,
					"target":{
						"node":15,
						"path":"rotation"
					}
				},
				{
					"sampler":53,
					"target":{
						"node":15,
						"path":"scale"
					}
				},
				{
					"sampler":54,
					"target":{
						"node":18,
						"path":"translation"
					}
				},
				{
					"sampler":55,
					"target":{
						"node":18,
						"path":"rotation"
					}
				},
				{
					"sampler":56,
					"target":{
						"node":18,
						"path":"scale"
					}
				},
				{
					"sampler":57,
					"target":{
						"node":17,
						"path":"translation"
					}
				},
				{
					"sampler":58,
					"target":{
						"node":17,
						"path":"rotation"
					}
				},
				{
					"sampler":59,
					"target":{
						"node":17,
						"path":"scale"
					}
				}
			],
			"name":"walk",
			"samplers":[
				{
					"input":161,
					"interpolation":"STEP",
					"output":162
				},
				{
					"input":161,
					"interpolation":"STEP",
					"output":163
				},
				{
					"input":161,
					"interpolation":"STEP",
					"output":164
				},
				{
					"input":161,
					"interpolation":"STEP",
					"output":165
				},
				{
					"input":166,
					"interpolation":"LINEAR",
					"output":167
				},
				{
					"input":161,
					"interpolation":"STEP",
					"output":168
				},
				{
					"input":161,
					"interpolation":"STEP",
					"output":169
				},
				{
					"input":166,
					"interpolation":"LINEAR",
					"output":170
				},
				{
					"input":161,
					"interpolation":"STEP",
					"output":171
				},
				{
					"input":161,
					"interpolation":"STEP",
					"output":172
				},
				{
					"input":161,
					"interpolation":"STEP",
					"output":173
				},
				{
					"input":161,
					"interpolation":"STEP",
					"output":174
				},
				{
					"input":161,
					"interpolation":"STEP",
					"output":175
				},
				{
					"input":166,
					"interpolation":"LINEAR",
					"output":176
				},
				{
					"input":161,
					"interpolation":"STEP",
					"output":177
				},
				{
					"input":161,
					"interpolation":"STEP",
					"output":178
				},
				{
					"input":166,
					"interpolation":"LINEAR",
					"output":179
				},
				{
					"input":161,
					"interpolation":"STEP",
					"output":180
				},
				{
					"input":161,
					"interpolation":"STEP",
					"output":181
				},
				{
					"input":161,
					"interpolation":"STEP",
					"output":182
				},
				{
					"input":161,
					"interpolation":"STEP",
					"output":183
				},
				{
					"input":161,
					"interpolation":"STEP",
					"output":184
				},
				{
					"input":166,
					"interpolation":"LINEAR",
					"output":185
				},
				{
					"input":161,
					"interpolation":"STEP",
					"output":186
				},
				{
					"input":161,
					"interpolation":"STEP",
					"output":187
				},
				{
					"input":161,
					"interpolation":"STEP",
					"output":188
				},
				{
					"input":161,
					"interpolation":"STEP",
					"output":189
				},
				{
					"input":161,
					"interpolation":"STEP",
					"output":190
				},
				{
					"input":166,
					"interpolation":"LINEAR",
					"output":191
				},
				{
					"input":161,
					"interpolation":"STEP",
					"output":192
				},
				{
					"input":161,
					"interpolation":"STEP",
					"output":193
				},
				{
					"input":161,
					"interpolation":"STEP",
					"output":194
				},
				{
					"input":161,
					"interpolation":"STEP",
					"output":195
				},
				{
					"input":161,
					"interpolation":"STEP",
					"output":196
				},
				{
					"input":166,
					"interpolation":"LINEAR",
					"output":197
				},
				{
					"input":161,
					"interpolation":"STEP",
					"output":198
				},
				{
					"input":161,
					"interpolation":"STEP",
					"output":199
				},
				{
					"input":161,
					"interpolation":"STEP",
					"output":200
				},
				{
					"input":161,
					"interpolation":"STEP",
					"output":201
				},
				{
					"input":161,
					"interpolation":"STEP",
					"output":202
				},
				{
					"input":166,
					"interpolation":"LINEAR",
					"output":203
				},
				{
					"input":161,
					"interpolation":"STEP",
					"output":204
				},
				{
					"input":161,
					"interpolation":"STEP",
					"output":205
				},
				{
					"input":166,
					"interpolation":"LINEAR",
					"output":206
				},
				{
					"input":161,
					"interpolation":"STEP",
					"output":207
				},
				{
					"input":161,
					"interpolation":"STEP",
					"output":208
				},
				{
					"input":166,
					"interpolation":"LINEAR",
					"output":209
				},
				{
					"input":161,
					"interpolation":"STEP",
					"output":210
				},
				{
					"input":161,
					"interpolation":"STEP",
					"output":211
				},
				{
					"input":166,
					"interpolation":"LINEAR",
					"output":212
				},
				{
					"input":161,
					"interpolation":"STEP",
					"output":213
				},
				{
					"input":161,
					"interpolation":"STEP",
					"output":214
				},
				{
					"input":161,
					"interpolation":"STEP",
					"output":215
				},
				{
					"input":161,
					"interpolation":"STEP",
					"output":216
				},
				{
					"input":161,
					"interpolation":"STEP",
					"output":217
				},
				{
					"input":166,
					"interpolation":"LINEAR",
					"output":218
				},
				{
					"input":161,
					"interpolation":"STEP",
					"output":219
				},
				{
					"input":161,
					"interpolation":"STEP",
					"output":220
				},
				{
					"input":161,
					"interpolation":"STEP",
					"output":221
				},
				{
					"input":161,
					"interpolation":"STEP",
					"output":222
				}
			]
		}
	],
	"materials":[
		{
			"extensions":{
				"KHR_materials_clearcoat":{
					"clearcoatFactor":0.4000000059604645
				}
			},
			"name":"scales",
			"normalTexture":{
				"index":0,
				"scale":1.5
			},
			"pbrMetallicRoughness":{
				"baseColorFactor":[
					0.0134117491543293,
					0.0134117491543293,
					0.027211781591176987,
					1
				],
				"metallicFactor":0,
				"roughnessFactor":0.3499999940395355
			}
		},
		{
			"name":"belly",
			"normalTexture":{
				"index":1,
				"scale":0.6000000238418579
			},
			"pbrMetallicRoughness":{
				"baseColorFactor":[
					0.09462962299585342,
					0.09462962299585342,
					0.12259718775749207,
					1
				],
				"metallicFactor":0,
				"roughnessFactor":0.5
			}
		},
		{
			"emissiveFactor":[
				1,
				0.6038273572921753,
				0.03310476616024971
			],
			"extensions":{
				"KHR_materials_emissive_strength":{
					"emissiveStrength":2
				}
			},
			"name":"eye",
			"pbrMetallicRoughness":{
				"baseColorFactor":[
					1,
					0.6038273572921753,
					0.03310476616024971,
					1
				],
				"metallicFactor":0,
				"roughnessFactor":0.10000000149011612
			}
		},
		{
			"extensions":{
				"KHR_materials_clearcoat":{
					"clearcoatFactor":0.5
				}
			},
			"name":"horn",
			"pbrMetallicRoughness":{
				"baseColorFactor":[
					0.6920710802078247,
					0.5704815983772278,
					0.31854677200317383,
					1
				],
				"metallicFactor":0,
				"roughnessFactor":0.3499999940395355
			}
		},
		{
			"doubleSided":true,
			"name":"wing",
			"normalTexture":{
				"index":2,
				"scale":0.6000000238418579
			},
			"pbrMetallicRoughness":{
				"baseColorFactor":[
					0.027211781591176987,
					0.01960664801299572,
					0.07323895394802094,
					1
				],
				"metallicFactor":0,
				"roughnessFactor":0.5
			}
		},
		{
			"name":"wingbone",
			"pbrMetallicRoughness":{
				"baseColorFactor":[
					0.01130952499806881,
					0.00854038167744875,
					0.027211781591176987,
					1
				],
				"metallicFactor":0,
				"roughnessFactor":0.5
			}
		}
	],
	"meshes":[
		{
			"name":"veldora_dragon",
			"primitives":[
				{
					"attributes":{
						"POSITION":0,
						"NORMAL":1,
						"TEXCOORD_0":2,
						"JOINTS_0":3,
						"WEIGHTS_0":4
					},
					"indices":5,
					"material":0
				},
				{
					"attributes":{
						"POSITION":6,
						"NORMAL":7,
						"TEXCOORD_0":8,
						"JOINTS_0":9,
						"WEIGHTS_0":10
					},
					"indices":11,
					"material":1
				},
				{
					"attributes":{
						"POSITION":12,
						"NORMAL":13,
						"TEXCOORD_0":14,
						"JOINTS_0":15,
						"WEIGHTS_0":16
					},
					"indices":17,
					"material":2
				},
				{
					"attributes":{
						"POSITION":18,
						"NORMAL":19,
						"TEXCOORD_0":20,
						"JOINTS_0":21,
						"WEIGHTS_0":22
					},
					"indices":23,
					"material":3
				},
				{
					"attributes":{
						"POSITION":24,
						"NORMAL":25,
						"TEXCOORD_0":26,
						"JOINTS_0":27,
						"WEIGHTS_0":28
					},
					"indices":29,
					"material":4
				},
				{
					"attributes":{
						"POSITION":30,
						"NORMAL":31,
						"TEXCOORD_0":32,
						"JOINTS_0":33,
						"WEIGHTS_0":34
					},
					"indices":35,
					"material":5
				}
			]
		}
	],
	"textures":[
		{
			"sampler":0,
			"source":0
		},
		{
			"sampler":0,
			"source":1
		},
		{
			"sampler":0,
			"source":1
		}
	],
	"images":[
		{
			"mimeType":"image/png",
			"name":"N_scale",
			"uri":"texturas/N_scale.png"
		},
		{
			"mimeType":"image/png",
			"name":"N_leather",
			"uri":"texturas/N_leather.png"
		}
	],
	"skins":[
		{
			"inverseBindMatrices":36,
			"joints":[
				19,
				11,
				2,
				1,
				0,
				4,
				3,
				6,
				5,
				8,
				7,
				10,
				9,
				14,
				13,
				12,
				16,
				15,
				18,
				17
			],
			"name":"veldora_dragon_rig"
		}
	],
	"accessors":[
		{
			"bufferView":0,
			"componentType":5126,
			"count":3596,
			"max":[
				1.6488361358642578,
				4.949999809265137,
				8.532265663146973
			],
			"min":[
				-1.6488362550735474,
				0.1473606824874878,
				-5.576475620269775
			],
			"type":"VEC3"
		},
		{
			"bufferView":1,
			"componentType":5126,
			"count":3596,
			"type":"VEC3"
		},
		{
			"bufferView":2,
			"componentType":5126,
			"count":3596,
			"type":"VEC2"
		},
		{
			"bufferView":3,
			"componentType":5121,
			"count":3596,
			"type":"VEC4"
		},
		{
			"bufferView":4,
			"componentType":5126,
			"count":3596,
			"type":"VEC4"
		},
		{
			"bufferView":5,
			"componentType":5123,
			"count":16140,
			"type":"SCALAR"
		},
		{
			"bufferView":6,
			"componentType":5126,
			"count":104,
			"max":[
				0.7051470279693604,
				4.284628868103027,
				1.7078033685684204
			],
			"min":[
				-0.7051470279693604,
				1.0649423599243164,
				-5.34854793548584
			],
			"type":"VEC3"
		},
		{
			"bufferView":7,
			"componentType":5126,
			"count":104,
			"type":"VEC3"
		},
		{
			"bufferView":8,
			"componentType":5126,
			"count":104,
			"type":"VEC2"
		},
		{
			"bufferView":9,
			"componentType":5121,
			"count":104,
			"type":"VEC4"
		},
		{
			"bufferView":10,
			"componentType":5126,
			"count":104,
			"type":"VEC4"
		},
		{
			"bufferView":11,
			"componentType":5123,
			"count":348,
			"type":"SCALAR"
		},
		{
			"bufferView":12,
			"componentType":5126,
			"count":204,
			"max":[
				0.4259999692440033,
				4.710000038146973,
				-4.515817165374756
			],
			"min":[
				-0.4259999692440033,
				4.590000152587891,
				-4.664182186126709
			],
			"type":"VEC3"
		},
		{
			"bufferView":13,
			"componentType":5126,
			"count":204,
			"type":"VEC3"
		},
		{
			"bufferView":14,
			"componentType":5126,
			"count":204,
			"type":"VEC2"
		},
		{
			"bufferView":15,
			"componentType":5121,
			"count":204,
			"type":"VEC4"
		},
		{
			"bufferView":16,
			"componentType":5126,
			"count":204,
			"type":"VEC4"
		},
		{
			"bufferView":17,
			"componentType":5123,
			"count":720,
			"type":"SCALAR"
		},
		{
			"bufferView":18,
			"componentType":5126,
			"count":1486,
			"max":[
				1.5749999284744263,
				5.8604326248168945,
				6.51154899597168
			],
			"min":[
				-1.5749999284744263,
				-0.09154920279979706,
				-5.618823051452637
			],
			"type":"VEC3"
		},
		{
			"bufferView":19,
			"componentType":5126,
			"count":1486,
			"type":"VEC3"
		},
		{
			"bufferView":20,
			"componentType":5126,
			"count":1486,
			"type":"VEC2"
		},
		{
			"bufferView":21,
			"componentType":5121,
			"count":1486,
			"type":"VEC4"
		},
		{
			"bufferView":22,
			"componentType":5126,
			"count":1486,
			"type":"VEC4"
		},
		{
			"bufferView":23,
			"componentType":5123,
			"count":3702,
			"type":"SCALAR"
		},
		{
			"bufferView":24,
			"componentType":5126,
			"count":42,
			"max":[
				3.989999771118164,
				4.913999557495117,
				0
			],
			"min":[
				-3.989999771118164,
				1.2599999904632568,
				-1.0499999523162842
			],
			"type":"VEC3"
		},
		{
			"bufferView":25,
			"componentType":5126,
			"count":42,
			"type":"VEC3"
		},
		{
			"bufferView":26,
			"componentType":5126,
			"count":42,
			"type":"VEC2"
		},
		{
			"bufferView":27,
			"componentType":5121,
			"count":42,
			"type":"VEC4"
		},
		{
			"bufferView":28,
			"componentType":5126,
			"count":42,
			"type":"VEC4"
		},
		{
			"bufferView":29,
			"componentType":5123,
			"count":42,
			"type":"SCALAR"
		},
		{
			"bufferView":30,
			"componentType":5126,
			"count":308,
			"max":[
				3.9933717250823975,
				4.925593852996826,
				0.012161852791905403
			],
			"min":[
				-3.99357533454895,
				1.258737564086914,
				-1.1305503845214844
			],
			"type":"VEC3"
		},
		{
			"bufferView":31,
			"componentType":5126,
			"count":308,
			"type":"VEC3"
		},
		{
			"bufferView":32,
			"componentType":5126,
			"count":308,
			"type":"VEC2"
		},
		{
			"bufferView":33,
			"componentType":5121,
			"count":308,
			"type":"VEC4"
		},
		{
			"bufferView":34,
			"componentType":5126,
			"count":308,
			"type":"VEC4"
		},
		{
			"bufferView":35,
			"componentType":5123,
			"count":624,
			"type":"SCALAR"
		},
		{
			"bufferView":36,
			"componentType":5126,
			"count":20,
			"type":"MAT4"
		},
		{
			"bufferView":37,
			"componentType":5126,
			"count":2,
			"max":[
				0.8
			],
			"min":[
				0
			],
			"type":"SCALAR"
		},
		{
			"bufferView":38,
			"componentType":5126,
			"count":2,
			"type":"VEC3"
		},
		{
			"bufferView":39,
			"componentType":5126,
			"count":2,
			"type":"VEC4"
		},
		{
			"bufferView":40,
			"componentType":5126,
			"count":2,
			"type":"VEC3"
		},
		{
			"bufferView":41,
			"componentType":5126,
			"count":2,
			"type":"VEC3"
		},
		{
			"bufferView":42,
			"componentType":5126,
			"count":2,
			"type":"VEC4"
		},
		{
			"bufferView":43,
			"componentType":5126,
			"count":2,
			"type":"VEC3"
		},
		{
			"bufferView":44,
			"componentType":5126,
			"count":2,
			"type":"VEC3"
		},
		{
			"bufferView":45,
			"componentType":5126,
			"count":25,
			"max":[
				0.8
			],
			"min":[
				0
			],
			"type":"SCALAR"
		},
		{
			"bufferView":46,
			"componentType":5126,
			"count":25,
			"type":"VEC4"
		},
		{
			"bufferView":47,
			"componentType":5126,
			"count":2,
			"type":"VEC3"
		},
		{
			"bufferView":48,
			"componentType":5126,
			"count":2,
			"type":"VEC3"
		},
		{
			"bufferView":49,
			"componentType":5126,
			"count":25,
			"type":"VEC4"
		},
		{
			"bufferView":50,
			"componentType":5126,
			"count":2,
			"type":"VEC3"
		},
		{
			"bufferView":51,
			"componentType":5126,
			"count":2,
			"type":"VEC3"
		},
		{
			"bufferView":52,
			"componentType":5126,
			"count":25,
			"type":"VEC4"
		},
		{
			"bufferView":53,
			"componentType":5126,
			"count":2,
			"type":"VEC3"
		},
		{
			"bufferView":54,
			"componentType":5126,
			"count":2,
			"type":"VEC3"
		},
		{
			"bufferView":55,
			"componentType":5126,
			"count":2,
			"type":"VEC4"
		},
		{
			"bufferView":56,
			"componentType":5126,
			"count":2,
			"type":"VEC3"
		},
		{
			"bufferView":57,
			"componentType":5126,
			"count":2,
			"type":"VEC3"
		},
		{
			"bufferView":58,
			"componentType":5126,
			"count":2,
			"type":"VEC4"
		},
		{
			"bufferView":59,
			"componentType":5126,
			"count":2,
			"type":"VEC3"
		},
		{
			"bufferView":60,
			"componentType":5126,
			"count":2,
			"type":"VEC3"
		},
		{
			"bufferView":61,
			"componentType":5126,
			"count":2,
			"type":"VEC4"
		},
		{
			"bufferView":62,
			"componentType":5126,
			"count":2,
			"type":"VEC3"
		},
		{
			"bufferView":63,
			"componentType":5126,
			"count":2,
			"type":"VEC3"
		},
		{
			"bufferView":64,
			"componentType":5126,
			"count":2,
			"type":"VEC4"
		},
		{
			"bufferView":65,
			"componentType":5126,
			"count":2,
			"type":"VEC3"
		},
		{
			"bufferView":66,
			"componentType":5126,
			"count":2,
			"type":"VEC3"
		},
		{
			"bufferView":67,
			"componentType":5126,
			"count":25,
			"type":"VEC4"
		},
		{
			"bufferView":68,
			"componentType":5126,
			"count":2,
			"type":"VEC3"
		},
		{
			"bufferView":69,
			"componentType":5126,
			"count":2,
			"type":"VEC3"
		},
		{
			"bufferView":70,
			"componentType":5126,
			"count":2,
			"type":"VEC4"
		},
		{
			"bufferView":71,
			"componentType":5126,
			"count":2,
			"type":"VEC3"
		},
		{
			"bufferView":72,
			"componentType":5126,
			"count":2,
			"type":"VEC3"
		},
		{
			"bufferView":73,
			"componentType":5126,
			"count":25,
			"type":"VEC4"
		},
		{
			"bufferView":74,
			"componentType":5126,
			"count":2,
			"type":"VEC3"
		},
		{
			"bufferView":75,
			"componentType":5126,
			"count":2,
			"type":"VEC3"
		},
		{
			"bufferView":76,
			"componentType":5126,
			"count":2,
			"type":"VEC4"
		},
		{
			"bufferView":77,
			"componentType":5126,
			"count":2,
			"type":"VEC3"
		},
		{
			"bufferView":78,
			"componentType":5126,
			"count":2,
			"type":"VEC3"
		},
		{
			"bufferView":79,
			"componentType":5126,
			"count":2,
			"type":"VEC4"
		},
		{
			"bufferView":80,
			"componentType":5126,
			"count":2,
			"type":"VEC3"
		},
		{
			"bufferView":81,
			"componentType":5126,
			"count":2,
			"type":"VEC3"
		},
		{
			"bufferView":82,
			"componentType":5126,
			"count":2,
			"type":"VEC4"
		},
		{
			"bufferView":83,
			"componentType":5126,
			"count":2,
			"type":"VEC3"
		},
		{
			"bufferView":84,
			"componentType":5126,
			"count":2,
			"type":"VEC3"
		},
		{
			"bufferView":85,
			"componentType":5126,
			"count":2,
			"type":"VEC4"
		},
		{
			"bufferView":86,
			"componentType":5126,
			"count":2,
			"type":"VEC3"
		},
		{
			"bufferView":87,
			"componentType":5126,
			"count":2,
			"type":"VEC3"
		},
		{
			"bufferView":88,
			"componentType":5126,
			"count":2,
			"type":"VEC4"
		},
		{
			"bufferView":89,
			"componentType":5126,
			"count":2,
			"type":"VEC3"
		},
		{
			"bufferView":90,
			"componentType":5126,
			"count":2,
			"type":"VEC3"
		},
		{
			"bufferView":91,
			"componentType":5126,
			"count":2,
			"type":"VEC4"
		},
		{
			"bufferView":92,
			"componentType":5126,
			"count":2,
			"type":"VEC3"
		},
		{
			"bufferView":93,
			"componentType":5126,
			"count":2,
			"type":"VEC3"
		},
		{
			"bufferView":94,
			"componentType":5126,
			"count":2,
			"type":"VEC4"
		},
		{
			"bufferView":95,
			"componentType":5126,
			"count":2,
			"type":"VEC3"
		},
		{
			"bufferView":96,
			"componentType":5126,
			"count":2,
			"type":"VEC3"
		},
		{
			"bufferView":97,
			"componentType":5126,
			"count":2,
			"type":"VEC4"
		},
		{
			"bufferView":98,
			"componentType":5126,
			"count":2,
			"type":"VEC3"
		},
		{
			"bufferView":99,
			"componentType":5126,
			"count":2,
			"max":[
				2
			],
			"min":[
				0
			],
			"type":"SCALAR"
		},
		{
			"bufferView":100,
			"componentType":5126,
			"count":2,
			"type":"VEC3"
		},
		{
			"bufferView":101,
			"componentType":5126,
			"count":2,
			"type":"VEC4"
		},
		{
			"bufferView":102,
			"componentType":5126,
			"count":2,
			"type":"VEC3"
		},
		{
			"bufferView":103,
			"componentType":5126,
			"count":2,
			"type":"VEC3"
		},
		{
			"bufferView":104,
			"componentType":5126,
			"count":61,
			"max":[
				2
			],
			"min":[
				0
			],
			"type":"SCALAR"
		},
		{
			"bufferView":105,
			"componentType":5126,
			"count":61,
			"type":"VEC4"
		},
		{
			"bufferView":106,
			"componentType":5126,
			"count":2,
			"type":"VEC3"
		},
		{
			"bufferView":107,
			"componentType":5126,
			"count":2,
			"type":"VEC3"
		},
		{
			"bufferView":108,
			"componentType":5126,
			"count":61,
			"type":"VEC4"
		},
		{
			"bufferView":109,
			"componentType":5126,
			"count":2,
			"type":"VEC3"
		},
		{
			"bufferView":110,
			"componentType":5126,
			"count":2,
			"type":"VEC3"
		},
		{
			"bufferView":111,
			"componentType":5126,
			"count":2,
			"type":"VEC4"
		},
		{
			"bufferView":112,
			"componentType":5126,
			"count":2,
			"type":"VEC3"
		},
		{
			"bufferView":113,
			"componentType":5126,
			"count":2,
			"type":"VEC3"
		},
		{
			"bufferView":114,
			"componentType":5126,
			"count":61,
			"type":"VEC4"
		},
		{
			"bufferView":115,
			"componentType":5126,
			"count":2,
			"type":"VEC3"
		},
		{
			"bufferView":116,
			"componentType":5126,
			"count":2,
			"type":"VEC3"
		},
		{
			"bufferView":117,
			"componentType":5126,
			"count":2,
			"type":"VEC4"
		},
		{
			"bufferView":118,
			"componentType":5126,
			"count":2,
			"type":"VEC3"
		},
		{
			"bufferView":119,
			"componentType":5126,
			"count":2,
			"type":"VEC3"
		},
		{
			"bufferView":120,
			"componentType":5126,
			"count":2,
			"type":"VEC4"
		},
		{
			"bufferView":121,
			"componentType":5126,
			"count":2,
			"type":"VEC3"
		},
		{
			"bufferView":122,
			"componentType":5126,
			"count":2,
			"type":"VEC3"
		},
		{
			"bufferView":123,
			"componentType":5126,
			"count":2,
			"type":"VEC4"
		},
		{
			"bufferView":124,
			"componentType":5126,
			"count":2,
			"type":"VEC3"
		},
		{
			"bufferView":125,
			"componentType":5126,
			"count":2,
			"type":"VEC3"
		},
		{
			"bufferView":126,
			"componentType":5126,
			"count":2,
			"type":"VEC4"
		},
		{
			"bufferView":127,
			"componentType":5126,
			"count":2,
			"type":"VEC3"
		},
		{
			"bufferView":128,
			"componentType":5126,
			"count":2,
			"type":"VEC3"
		},
		{
			"bufferView":129,
			"componentType":5126,
			"count":61,
			"type":"VEC4"
		},
		{
			"bufferView":130,
			"componentType":5126,
			"count":2,
			"type":"VEC3"
		},
		{
			"bufferView":131,
			"componentType":5126,
			"count":2,
			"type":"VEC3"
		},
		{
			"bufferView":132,
			"componentType":5126,
			"count":2,
			"type":"VEC4"
		},
		{
			"bufferView":133,
			"componentType":5126,
			"count":2,
			"type":"VEC3"
		},
		{
			"bufferView":134,
			"componentType":5126,
			"count":2,
			"type":"VEC3"
		},
		{
			"bufferView":135,
			"componentType":5126,
			"count":61,
			"type":"VEC4"
		},
		{
			"bufferView":136,
			"componentType":5126,
			"count":2,
			"type":"VEC3"
		},
		{
			"bufferView":137,
			"componentType":5126,
			"count":2,
			"type":"VEC3"
		},
		{
			"bufferView":138,
			"componentType":5126,
			"count":2,
			"type":"VEC4"
		},
		{
			"bufferView":139,
			"componentType":5126,
			"count":2,
			"type":"VEC3"
		},
		{
			"bufferView":140,
			"componentType":5126,
			"count":2,
			"type":"VEC3"
		},
		{
			"bufferView":141,
			"componentType":5126,
			"count":61,
			"type":"VEC4"
		},
		{
			"bufferView":142,
			"componentType":5126,
			"count":2,
			"type":"VEC3"
		},
		{
			"bufferView":143,
			"componentType":5126,
			"count":2,
			"type":"VEC3"
		},
		{
			"bufferView":144,
			"componentType":5126,
			"count":61,
			"type":"VEC4"
		},
		{
			"bufferView":145,
			"componentType":5126,
			"count":2,
			"type":"VEC3"
		},
		{
			"bufferView":146,
			"componentType":5126,
			"count":2,
			"type":"VEC3"
		},
		{
			"bufferView":147,
			"componentType":5126,
			"count":61,
			"type":"VEC4"
		},
		{
			"bufferView":148,
			"componentType":5126,
			"count":2,
			"type":"VEC3"
		},
		{
			"bufferView":149,
			"componentType":5126,
			"count":2,
			"type":"VEC3"
		},
		{
			"bufferView":150,
			"componentType":5126,
			"count":2,
			"type":"VEC4"
		},
		{
			"bufferView":151,
			"componentType":5126,
			"count":2,
			"type":"VEC3"
		},
		{
			"bufferView":152,
			"componentType":5126,
			"count":2,
			"type":"VEC3"
		},
		{
			"bufferView":153,
			"componentType":5126,
			"count":2,
			"type":"VEC4"
		},
		{
			"bufferView":154,
			"componentType":5126,
			"count":2,
			"type":"VEC3"
		},
		{
			"bufferView":155,
			"componentType":5126,
			"count":2,
			"type":"VEC3"
		},
		{
			"bufferView":156,
			"componentType":5126,
			"count":2,
			"type":"VEC4"
		},
		{
			"bufferView":157,
			"componentType":5126,
			"count":2,
			"type":"VEC3"
		},
		{
			"bufferView":158,
			"componentType":5126,
			"count":2,
			"type":"VEC3"
		},
		{
			"bufferView":159,
			"componentType":5126,
			"count":2,
			"type":"VEC4"
		},
		{
			"bufferView":160,
			"componentType":5126,
			"count":2,
			"type":"VEC3"
		},
		{
			"bufferView":161,
			"componentType":5126,
			"count":2,
			"max":[
				1
			],
			"min":[
				0
			],
			"type":"SCALAR"
		},
		{
			"bufferView":162,
			"componentType":5126,
			"count":2,
			"type":"VEC3"
		},
		{
			"bufferView":163,
			"componentType":5126,
			"count":2,
			"type":"VEC4"
		},
		{
			"bufferView":164,
			"componentType":5126,
			"count":2,
			"type":"VEC3"
		},
		{
			"bufferView":165,
			"componentType":5126,
			"count":2,
			"type":"VEC3"
		},
		{
			"bufferView":166,
			"componentType":5126,
			"count":31,
			"max":[
				1
			],
			"min":[
				0
			],
			"type":"SCALAR"
		},
		{
			"bufferView":167,
			"componentType":5126,
			"count":31,
			"type":"VEC4"
		},
		{
			"bufferView":168,
			"componentType":5126,
			"count":2,
			"type":"VEC3"
		},
		{
			"bufferView":169,
			"componentType":5126,
			"count":2,
			"type":"VEC3"
		},
		{
			"bufferView":170,
			"componentType":5126,
			"count":31,
			"type":"VEC4"
		},
		{
			"bufferView":171,
			"componentType":5126,
			"count":2,
			"type":"VEC3"
		},
		{
			"bufferView":172,
			"componentType":5126,
			"count":2,
			"type":"VEC3"
		},
		{
			"bufferView":173,
			"componentType":5126,
			"count":2,
			"type":"VEC4"
		},
		{
			"bufferView":174,
			"componentType":5126,
			"count":2,
			"type":"VEC3"
		},
		{
			"bufferView":175,
			"componentType":5126,
			"count":2,
			"type":"VEC3"
		},
		{
			"bufferView":176,
			"componentType":5126,
			"count":31,
			"type":"VEC4"
		},
		{
			"bufferView":177,
			"componentType":5126,
			"count":2,
			"type":"VEC3"
		},
		{
			"bufferView":178,
			"componentType":5126,
			"count":2,
			"type":"VEC3"
		},
		{
			"bufferView":179,
			"componentType":5126,
			"count":31,
			"type":"VEC4"
		},
		{
			"bufferView":180,
			"componentType":5126,
			"count":2,
			"type":"VEC3"
		},
		{
			"bufferView":181,
			"componentType":5126,
			"count":2,
			"type":"VEC3"
		},
		{
			"bufferView":182,
			"componentType":5126,
			"count":2,
			"type":"VEC4"
		},
		{
			"bufferView":183,
			"componentType":5126,
			"count":2,
			"type":"VEC3"
		},
		{
			"bufferView":184,
			"componentType":5126,
			"count":2,
			"type":"VEC3"
		},
		{
			"bufferView":185,
			"componentType":5126,
			"count":31,
			"type":"VEC4"
		},
		{
			"bufferView":186,
			"componentType":5126,
			"count":2,
			"type":"VEC3"
		},
		{
			"bufferView":187,
			"componentType":5126,
			"count":2,
			"type":"VEC3"
		},
		{
			"bufferView":188,
			"componentType":5126,
			"count":2,
			"type":"VEC4"
		},
		{
			"bufferView":189,
			"componentType":5126,
			"count":2,
			"type":"VEC3"
		},
		{
			"bufferView":190,
			"componentType":5126,
			"count":2,
			"type":"VEC3"
		},
		{
			"bufferView":191,
			"componentType":5126,
			"count":31,
			"type":"VEC4"
		},
		{
			"bufferView":192,
			"componentType":5126,
			"count":2,
			"type":"VEC3"
		},
		{
			"bufferView":193,
			"componentType":5126,
			"count":2,
			"type":"VEC3"
		},
		{
			"bufferView":194,
			"componentType":5126,
			"count":2,
			"type":"VEC4"
		},
		{
			"bufferView":195,
			"componentType":5126,
			"count":2,
			"type":"VEC3"
		},
		{
			"bufferView":196,
			"componentType":5126,
			"count":2,
			"type":"VEC3"
		},
		{
			"bufferView":197,
			"componentType":5126,
			"count":31,
			"type":"VEC4"
		},
		{
			"bufferView":198,
			"componentType":5126,
			"count":2,
			"type":"VEC3"
		},
		{
			"bufferView":199,
			"componentType":5126,
			"count":2,
			"type":"VEC3"
		},
		{
			"bufferView":200,
			"componentType":5126,
			"count":2,
			"type":"VEC4"
		},
		{
			"bufferView":201,
			"componentType":5126,
			"count":2,
			"type":"VEC3"
		},
		{
			"bufferView":202,
			"componentType":5126,
			"count":2,
			"type":"VEC3"
		},
		{
			"bufferView":203,
			"componentType":5126,
			"count":31,
			"type":"VEC4"
		},
		{
			"bufferView":204,
			"componentType":5126,
			"count":2,
			"type":"VEC3"
		},
		{
			"bufferView":205,
			"componentType":5126,
			"count":2,
			"type":"VEC3"
		},
		{
			"bufferView":206,
			"componentType":5126,
			"count":31,
			"type":"VEC4"
		},
		{
			"bufferView":207,
			"componentType":5126,
			"count":2,
			"type":"VEC3"
		},
		{
			"bufferView":208,
			"componentType":5126,
			"count":2,
			"type":"VEC3"
		},
		{
			"bufferView":209,
			"componentType":5126,
			"count":31,
			"type":"VEC4"
		},
		{
			"bufferView":210,
			"componentType":5126,
			"count":2,
			"type":"VEC3"
		},
		{
			"bufferView":211,
			"componentType":5126,
			"count":2,
			"type":"VEC3"
		},
		{
			"bufferView":212,
			"componentType":5126,
			"count":31,
			"type":"VEC4"
		},
		{
			"bufferView":213,
			"componentType":5126,
			"count":2,
			"type":"VEC3"
		},
		{
			"bufferView":214,
			"componentType":5126,
			"count":2,
			"type":"VEC3"
		},
		{
			"bufferView":215,
			"componentType":5126,
			"count":2,
			"type":"VEC4"
		},
		{
			"bufferView":216,
			"componentType":5126,
			"count":2,
			"type":"VEC3"
		},
		{
			"bufferView":217,
			"componentType":5126,
			"count":2,
			"type":"VEC3"
		},
		{
			"bufferView":218,
			"componentType":5126,
			"count":31,
			"type":"VEC4"
		},
		{
			"bufferView":219,
			"componentType":5126,
			"count":2,
			"type":"VEC3"
		},
		{
			"bufferView":220,
			"componentType":5126,
			"count":2,
			"type":"VEC3"
		},
		{
			"bufferView":221,
			"componentType":5126,
			"count":2,
			"type":"VEC4"
		},
		{
			"bufferView":222,
			"componentType":5126,
			"count":2,
			"type":"VEC3"
		}
	],
	"bufferViews":[
		{
			"buffer":0,
			"byteLength":43152,
			"byteOffset":0,
			"target":34962
		},
		{
			"buffer":0,
			"byteLength":43152,
			"byteOffset":43152,
			"target":34962
		},
		{
			"buffer":0,
			"byteLength":28768,
			"byteOffset":86304,
			"target":34962
		},
		{
			"buffer":0,
			"byteLength":14384,
			"byteOffset":115072,
			"target":34962
		},
		{
			"buffer":0,
			"byteLength":57536,
			"byteOffset":129456,
			"target":34962
		},
		{
			"buffer":0,
			"byteLength":32280,
			"byteOffset":186992,
			"target":34963
		},
		{
			"buffer":0,
			"byteLength":1248,
			"byteOffset":219272,
			"target":34962
		},
		{
			"buffer":0,
			"byteLength":1248,
			"byteOffset":220520,
			"target":34962
		},
		{
			"buffer":0,
			"byteLength":832,
			"byteOffset":221768,
			"target":34962
		},
		{
			"buffer":0,
			"byteLength":416,
			"byteOffset":222600,
			"target":34962
		},
		{
			"buffer":0,
			"byteLength":1664,
			"byteOffset":223016,
			"target":34962
		},
		{
			"buffer":0,
			"byteLength":696,
			"byteOffset":224680,
			"target":34963
		},
		{
			"buffer":0,
			"byteLength":2448,
			"byteOffset":225376,
			"target":34962
		},
		{
			"buffer":0,
			"byteLength":2448,
			"byteOffset":227824,
			"target":34962
		},
		{
			"buffer":0,
			"byteLength":1632,
			"byteOffset":230272,
			"target":34962
		},
		{
			"buffer":0,
			"byteLength":816,
			"byteOffset":231904,
			"target":34962
		},
		{
			"buffer":0,
			"byteLength":3264,
			"byteOffset":232720,
			"target":34962
		},
		{
			"buffer":0,
			"byteLength":1440,
			"byteOffset":235984,
			"target":34963
		},
		{
			"buffer":0,
			"byteLength":17832,
			"byteOffset":237424,
			"target":34962
		},
		{
			"buffer":0,
			"byteLength":17832,
			"byteOffset":255256,
			"target":34962
		},
		{
			"buffer":0,
			"byteLength":11888,
			"byteOffset":273088,
			"target":34962
		},
		{
			"buffer":0,
			"byteLength":5944,
			"byteOffset":284976,
			"target":34962
		},
		{
			"buffer":0,
			"byteLength":23776,
			"byteOffset":290920,
			"target":34962
		},
		{
			"buffer":0,
			"byteLength":7404,
			"byteOffset":314696,
			"target":34963
		},
		{
			"buffer":0,
			"byteLength":504,
			"byteOffset":322100,
			"target":34962
		},
		{
			"buffer":0,
			"byteLength":504,
			"byteOffset":322604,
			"target":34962
		},
		{
			"buffer":0,
			"byteLength":336,
			"byteOffset":323108,
			"target":34962
		},
		{
			"buffer":0,
			"byteLength":168,
			"byteOffset":323444,
			"target":34962
		},
		{
			"buffer":0,
			"byteLength":672,
			"byteOffset":323612,
			"target":34962
		},
		{
			"buffer":0,
			"byteLength":84,
			"byteOffset":324284,
			"target":34963
		},
		{
			"buffer":0,
			"byteLength":3696,
			"byteOffset":324368,
			"target":34962
		},
		{
			"buffer":0,
			"byteLength":3696,
			"byteOffset":328064,
			"target":34962
		},
		{
			"buffer":0,
			"byteLength":2464,
			"byteOffset":331760,
			"target":34962
		},
		{
			"buffer":0,
			"byteLength":1232,
			"byteOffset":334224,
			"target":34962
		},
		{
			"buffer":0,
			"byteLength":4928,
			"byteOffset":335456,
			"target":34962
		},
		{
			"buffer":0,
			"byteLength":1248,
			"byteOffset":340384,
			"target":34963
		},
		{
			"buffer":0,
			"byteLength":1280,
			"byteOffset":341632
		},
		{
			"buffer":0,
			"byteLength":8,
			"byteOffset":342912
		},
		{
			"buffer":0,
			"byteLength":24,
			"byteOffset":342920
		},
		{
			"buffer":0,
			"byteLength":32,
			"byteOffset":342944
		},
		{
			"buffer":0,
			"byteLength":24,
			"byteOffset":342976
		},
		{
			"buffer":0,
			"byteLength":24,
			"byteOffset":343000
		},
		{
			"buffer":0,
			"byteLength":32,
			"byteOffset":343024
		},
		{
			"buffer":0,
			"byteLength":24,
			"byteOffset":343056
		},
		{
			"buffer":0,
			"byteLength":24,
			"byteOffset":343080
		},
		{
			"buffer":0,
			"byteLength":100,
			"byteOffset":343104
		},
		{
			"buffer":0,
			"byteLength":400,
			"byteOffset":343204
		},
		{
			"buffer":0,
			"byteLength":24,
			"byteOffset":343604
		},
		{
			"buffer":0,
			"byteLength":24,
			"byteOffset":343628
		},
		{
			"buffer":0,
			"byteLength":400,
			"byteOffset":343652
		},
		{
			"buffer":0,
			"byteLength":24,
			"byteOffset":344052
		},
		{
			"buffer":0,
			"byteLength":24,
			"byteOffset":344076
		},
		{
			"buffer":0,
			"byteLength":400,
			"byteOffset":344100
		},
		{
			"buffer":0,
			"byteLength":24,
			"byteOffset":344500
		},
		{
			"buffer":0,
			"byteLength":24,
			"byteOffset":344524
		},
		{
			"buffer":0,
			"byteLength":32,
			"byteOffset":344548
		},
		{
			"buffer":0,
			"byteLength":24,
			"byteOffset":344580
		},
		{
			"buffer":0,
			"byteLength":24,
			"byteOffset":344604
		},
		{
			"buffer":0,
			"byteLength":32,
			"byteOffset":344628
		},
		{
			"buffer":0,
			"byteLength":24,
			"byteOffset":344660
		},
		{
			"buffer":0,
			"byteLength":24,
			"byteOffset":344684
		},
		{
			"buffer":0,
			"byteLength":32,
			"byteOffset":344708
		},
		{
			"buffer":0,
			"byteLength":24,
			"byteOffset":344740
		},
		{
			"buffer":0,
			"byteLength":24,
			"byteOffset":344764
		},
		{
			"buffer":0,
			"byteLength":32,
			"byteOffset":344788
		},
		{
			"buffer":0,
			"byteLength":24,
			"byteOffset":344820
		},
		{
			"buffer":0,
			"byteLength":24,
			"byteOffset":344844
		},
		{
			"buffer":0,
			"byteLength":400,
			"byteOffset":344868
		},
		{
			"buffer":0,
			"byteLength":24,
			"byteOffset":345268
		},
		{
			"buffer":0,
			"byteLength":24,
			"byteOffset":345292
		},
		{
			"buffer":0,
			"byteLength":32,
			"byteOffset":345316
		},
		{
			"buffer":0,
			"byteLength":24,
			"byteOffset":345348
		},
		{
			"buffer":0,
			"byteLength":24,
			"byteOffset":345372
		},
		{
			"buffer":0,
			"byteLength":400,
			"byteOffset":345396
		},
		{
			"buffer":0,
			"byteLength":24,
			"byteOffset":345796
		},
		{
			"buffer":0,
			"byteLength":24,
			"byteOffset":345820
		},
		{
			"buffer":0,
			"byteLength":32,
			"byteOffset":345844
		},
		{
			"buffer":0,
			"byteLength":24,
			"byteOffset":345876
		},
		{
			"buffer":0,
			"byteLength":24,
			"byteOffset":345900
		},
		{
			"buffer":0,
			"byteLength":32,
			"byteOffset":345924
		},
		{
			"buffer":0,
			"byteLength":24,
			"byteOffset":345956
		},
		{
			"buffer":0,
			"byteLength":24,
			"byteOffset":345980
		},
		{
			"buffer":0,
			"byteLength":32,
			"byteOffset":346004
		},
		{
			"buffer":0,
			"byteLength":24,
			"byteOffset":346036
		},
		{
			"buffer":0,
			"byteLength":24,
			"byteOffset":346060
		},
		{
			"buffer":0,
			"byteLength":32,
			"byteOffset":346084
		},
		{
			"buffer":0,
			"byteLength":24,
			"byteOffset":346116
		},
		{
			"buffer":0,
			"byteLength":24,
			"byteOffset":346140
		},
		{
			"buffer":0,
			"byteLength":32,
			"byteOffset":346164
		},
		{
			"buffer":0,
			"byteLength":24,
			"byteOffset":346196
		},
		{
			"buffer":0,
			"byteLength":24,
			"byteOffset":346220
		},
		{
			"buffer":0,
			"byteLength":32,
			"byteOffset":346244
		},
		{
			"buffer":0,
			"byteLength":24,
			"byteOffset":346276
		},
		{
			"buffer":0,
			"byteLength":24,
			"byteOffset":346300
		},
		{
			"buffer":0,
			"byteLength":32,
			"byteOffset":346324
		},
		{
			"buffer":0,
			"byteLength":24,
			"byteOffset":346356
		},
		{
			"buffer":0,
			"byteLength":24,
			"byteOffset":346380
		},
		{
			"buffer":0,
			"byteLength":32,
			"byteOffset":346404
		},
		{
			"buffer":0,
			"byteLength":24,
			"byteOffset":346436
		},
		{
			"buffer":0,
			"byteLength":8,
			"byteOffset":346460
		},
		{
			"buffer":0,
			"byteLength":24,
			"byteOffset":346468
		},
		{
			"buffer":0,
			"byteLength":32,
			"byteOffset":346492
		},
		{
			"buffer":0,
			"byteLength":24,
			"byteOffset":346524
		},
		{
			"buffer":0,
			"byteLength":24,
			"byteOffset":346548
		},
		{
			"buffer":0,
			"byteLength":244,
			"byteOffset":346572
		},
		{
			"buffer":0,
			"byteLength":976,
			"byteOffset":346816
		},
		{
			"buffer":0,
			"byteLength":24,
			"byteOffset":347792
		},
		{
			"buffer":0,
			"byteLength":24,
			"byteOffset":347816
		},
		{
			"buffer":0,
			"byteLength":976,
			"byteOffset":347840
		},
		{
			"buffer":0,
			"byteLength":24,
			"byteOffset":348816
		},
		{
			"buffer":0,
			"byteLength":24,
			"byteOffset":348840
		},
		{
			"buffer":0,
			"byteLength":32,
			"byteOffset":348864
		},
		{
			"buffer":0,
			"byteLength":24,
			"byteOffset":348896
		},
		{
			"buffer":0,
			"byteLength":24,
			"byteOffset":348920
		},
		{
			"buffer":0,
			"byteLength":976,
			"byteOffset":348944
		},
		{
			"buffer":0,
			"byteLength":24,
			"byteOffset":349920
		},
		{
			"buffer":0,
			"byteLength":24,
			"byteOffset":349944
		},
		{
			"buffer":0,
			"byteLength":32,
			"byteOffset":349968
		},
		{
			"buffer":0,
			"byteLength":24,
			"byteOffset":350000
		},
		{
			"buffer":0,
			"byteLength":24,
			"byteOffset":350024
		},
		{
			"buffer":0,
			"byteLength":32,
			"byteOffset":350048
		},
		{
			"buffer":0,
			"byteLength":24,
			"byteOffset":350080
		},
		{
			"buffer":0,
			"byteLength":24,
			"byteOffset":350104
		},
		{
			"buffer":0,
			"byteLength":32,
			"byteOffset":350128
		},
		{
			"buffer":0,
			"byteLength":24,
			"byteOffset":350160
		},
		{
			"buffer":0,
			"byteLength":24,
			"byteOffset":350184
		},
		{
			"buffer":0,
			"byteLength":32,
			"byteOffset":350208
		},
		{
			"buffer":0,
			"byteLength":24,
			"byteOffset":350240
		},
		{
			"buffer":0,
			"byteLength":24,
			"byteOffset":350264
		},
		{
			"buffer":0,
			"byteLength":976,
			"byteOffset":350288
		},
		{
			"buffer":0,
			"byteLength":24,
			"byteOffset":351264
		},
		{
			"buffer":0,
			"byteLength":24,
			"byteOffset":351288
		},
		{
			"buffer":0,
			"byteLength":32,
			"byteOffset":351312
		},
		{
			"buffer":0,
			"byteLength":24,
			"byteOffset":351344
		},
		{
			"buffer":0,
			"byteLength":24,
			"byteOffset":351368
		},
		{
			"buffer":0,
			"byteLength":976,
			"byteOffset":351392
		},
		{
			"buffer":0,
			"byteLength":24,
			"byteOffset":352368
		},
		{
			"buffer":0,
			"byteLength":24,
			"byteOffset":352392
		},
		{
			"buffer":0,
			"byteLength":32,
			"byteOffset":352416
		},
		{
			"buffer":0,
			"byteLength":24,
			"byteOffset":352448
		},
		{
			"buffer":0,
			"byteLength":24,
			"byteOffset":352472
		},
		{
			"buffer":0,
			"byteLength":976,
			"byteOffset":352496
		},
		{
			"buffer":0,
			"byteLength":24,
			"byteOffset":353472
		},
		{
			"buffer":0,
			"byteLength":24,
			"byteOffset":353496
		},
		{
			"buffer":0,
			"byteLength":976,
			"byteOffset":353520
		},
		{
			"buffer":0,
			"byteLength":24,
			"byteOffset":354496
		},
		{
			"buffer":0,
			"byteLength":24,
			"byteOffset":354520
		},
		{
			"buffer":0,
			"byteLength":976,
			"byteOffset":354544
		},
		{
			"buffer":0,
			"byteLength":24,
			"byteOffset":355520
		},
		{
			"buffer":0,
			"byteLength":24,
			"byteOffset":355544
		},
		{
			"buffer":0,
			"byteLength":32,
			"byteOffset":355568
		},
		{
			"buffer":0,
			"byteLength":24,
			"byteOffset":355600
		},
		{
			"buffer":0,
			"byteLength":24,
			"byteOffset":355624
		},
		{
			"buffer":0,
			"byteLength":32,
			"byteOffset":355648
		},
		{
			"buffer":0,
			"byteLength":24,
			"byteOffset":355680
		},
		{
			"buffer":0,
			"byteLength":24,
			"byteOffset":355704
		},
		{
			"buffer":0,
			"byteLength":32,
			"byteOffset":355728
		},
		{
			"buffer":0,
			"byteLength":24,
			"byteOffset":355760
		},
		{
			"buffer":0,
			"byteLength":24,
			"byteOffset":355784
		},
		{
			"buffer":0,
			"byteLength":32,
			"byteOffset":355808
		},
		{
			"buffer":0,
			"byteLength":24,
			"byteOffset":355840
		},
		{
			"buffer":0,
			"byteLength":8,
			"byteOffset":355864
		},
		{
			"buffer":0,
			"byteLength":24,
			"byteOffset":355872
		},
		{
			"buffer":0,
			"byteLength":32,
			"byteOffset":355896
		},
		{
			"buffer":0,
			"byteLength":24,
			"byteOffset":355928
		},
		{
			"buffer":0,
			"byteLength":24,
			"byteOffset":355952
		},
		{
			"buffer":0,
			"byteLength":124,
			"byteOffset":355976
		},
		{
			"buffer":0,
			"byteLength":496,
			"byteOffset":356100
		},
		{
			"buffer":0,
			"byteLength":24,
			"byteOffset":356596
		},
		{
			"buffer":0,
			"byteLength":24,
			"byteOffset":356620
		},
		{
			"buffer":0,
			"byteLength":496,
			"byteOffset":356644
		},
		{
			"buffer":0,
			"byteLength":24,
			"byteOffset":357140
		},
		{
			"buffer":0,
			"byteLength":24,
			"byteOffset":357164
		},
		{
			"buffer":0,
			"byteLength":32,
			"byteOffset":357188
		},
		{
			"buffer":0,
			"byteLength":24,
			"byteOffset":357220
		},
		{
			"buffer":0,
			"byteLength":24,
			"byteOffset":357244
		},
		{
			"buffer":0,
			"byteLength":496,
			"byteOffset":357268
		},
		{
			"buffer":0,
			"byteLength":24,
			"byteOffset":357764
		},
		{
			"buffer":0,
			"byteLength":24,
			"byteOffset":357788
		},
		{
			"buffer":0,
			"byteLength":496,
			"byteOffset":357812
		},
		{
			"buffer":0,
			"byteLength":24,
			"byteOffset":358308
		},
		{
			"buffer":0,
			"byteLength":24,
			"byteOffset":358332
		},
		{
			"buffer":0,
			"byteLength":32,
			"byteOffset":358356
		},
		{
			"buffer":0,
			"byteLength":24,
			"byteOffset":358388
		},
		{
			"buffer":0,
			"byteLength":24,
			"byteOffset":358412
		},
		{
			"buffer":0,
			"byteLength":496,
			"byteOffset":358436
		},
		{
			"buffer":0,
			"byteLength":24,
			"byteOffset":358932
		},
		{
			"buffer":0,
			"byteLength":24,
			"byteOffset":358956
		},
		{
			"buffer":0,
			"byteLength":32,
			"byteOffset":358980
		},
		{
			"buffer":0,
			"byteLength":24,
			"byteOffset":359012
		},
		{
			"buffer":0,
			"byteLength":24,
			"byteOffset":359036
		},
		{
			"buffer":0,
			"byteLength":496,
			"byteOffset":359060
		},
		{
			"buffer":0,
			"byteLength":24,
			"byteOffset":359556
		},
		{
			"buffer":0,
			"byteLength":24,
			"byteOffset":359580
		},
		{
			"buffer":0,
			"byteLength":32,
			"byteOffset":359604
		},
		{
			"buffer":0,
			"byteLength":24,
			"byteOffset":359636
		},
		{
			"buffer":0,
			"byteLength":24,
			"byteOffset":359660
		},
		{
			"buffer":0,
			"byteLength":496,
			"byteOffset":359684
		},
		{
			"buffer":0,
			"byteLength":24,
			"byteOffset":360180
		},
		{
			"buffer":0,
			"byteLength":24,
			"byteOffset":360204
		},
		{
			"buffer":0,
			"byteLength":32,
			"byteOffset":360228
		},
		{
			"buffer":0,
			"byteLength":24,
			"byteOffset":360260
		},
		{
			"buffer":0,
			"byteLength":24,
			"byteOffset":360284
		},
		{
			"buffer":0,
			"byteLength":496,
			"byteOffset":360308
		},
		{
			"buffer":0,
			"byteLength":24,
			"byteOffset":360804
		},
		{
			"buffer":0,
			"byteLength":24,
			"byteOffset":360828
		},
		{
			"buffer":0,
			"byteLength":496,
			"byteOffset":360852
		},
		{
			"buffer":0,
			"byteLength":24,
			"byteOffset":361348
		},
		{
			"buffer":0,
			"byteLength":24,
			"byteOffset":361372
		},
		{
			"buffer":0,
			"byteLength":496,
			"byteOffset":361396
		},
		{
			"buffer":0,
			"byteLength":24,
			"byteOffset":361892
		},
		{
			"buffer":0,
			"byteLength":24,
			"byteOffset":361916
		},
		{
			"buffer":0,
			"byteLength":496,
			"byteOffset":361940
		},
		{
			"buffer":0,
			"byteLength":24,
			"byteOffset":362436
		},
		{
			"buffer":0,
			"byteLength":24,
			"byteOffset":362460
		},
		{
			"buffer":0,
			"byteLength":32,
			"byteOffset":362484
		},
		{
			"buffer":0,
			"byteLength":24,
			"byteOffset":362516
		},
		{
			"buffer":0,
			"byteLength":24,
			"byteOffset":362540
		},
		{
			"buffer":0,
			"byteLength":496,
			"byteOffset":362564
		},
		{
			"buffer":0,
			"byteLength":24,
			"byteOffset":363060
		},
		{
			"buffer":0,
			"byteLength":24,
			"byteOffset":363084
		},
		{
			"buffer":0,
			"byteLength":32,
			"byteOffset":363108
		},
		{
			"buffer":0,
			"byteLength":24,
			"byteOffset":363140
		}
	],
	"samplers":[
		{
			"magFilter":9729,
			"minFilter":9987
		}
	],
	"buffers":[
		{
			"byteLength":363164,
			"uri":"veldora_dragon.bin"
		}
	]
}
