{
	"asset":{
		"generator":"Khronos glTF Blender I/O v4.2.57",
		"version":"2.0"
	},
	"extensionsUsed":[
		"KHR_materials_clearcoat",
		"KHR_materials_emissive_strength",
		"KHR_materials_sheen"
	],
	"scene":0,
	"scenes":[
		{
			"name":"Scene",
			"nodes":[
				19
			]
		}
	],
	"nodes":[
		{
			"name":"head",
			"rotation":[
				-0.3310069739818573,
				0,
				0,
				0.9436283111572266
			],
			"scale":[
				1,
				1.0000001192092896,
				1
			],
			"translation":[
				0,
				0.5122500658035278,
				2.9802322387695312e-08
			]
		},
		{
			"children":[
				0
			],
			"name":"neck",
			"rotation":[
				0.28359049558639526,
				0,
				0,
				0.9589454531669617
			],
			"translation":[
				0,
				0.5024937987327576,
				-1.4901161193847656e-08
			]
		},
		{
			"name":"fl_low.L",
			"rotation":[
				0.5271354913711548,
				0,
				0,
				0.849781334400177
			],
			"scale":[
				1,
				0.9999998211860657,
				0.9999999403953552
			],
			"translation":[
				0,
				0.2942788302898407,
				1.1175870895385742e-08
			]
		},
		{
			"children":[
				2
			],
			"name":"fl_mid.L",
			"rotation":[
				-0.15193764865398407,
				0,
				0,
				0.9883900880813599
			],
			"scale":[
				1,
				1,
				0.9999999403953552
			],
			"translation":[
				0,
				0.373363196849823,
				-5.960464477539063e-08
			]
		},
		{
			"children":[
				3
			],
			"name":"fl_up.L",
			"rotation":[
				-0.6947495937347412,
				0,
				0,
				0.7192516922950745
			],
			"translation":[
				-0.20059999823570251,
				0.5422953367233276,
				-0.10447895526885986
			]
		},
		{
			"name":"fl_low.R",
			"rotation":[
				0.5271354913711548,
				0,
				0,
				0.849781334400177
			],
			"scale":[
				1,
				0.9999998211860657,
				0.9999999403953552
			],
			"translation":[
				0,
				0.2942788302898407,
				1.1175870895385742e-08
			]
		},
		{
			"children":[
				5
			],
			"name":"fl_mid.R",
			"rotation":[
				-0.15193764865398407,
				0,
				0,
				0.9883900880813599
			],
			"scale":[
				1,
				1,
				0.9999999403953552
			],
			"translation":[
				0,
				0.373363196849823,
				-5.960464477539063e-08
			]
		},
		{
			"children":[
				6
			],
			"name":"fl_up.R",
			"rotation":[
				-0.6947495937347412,
				0,
				0,
				0.7192516922950745
			],
			"translation":[
				0.20059999823570251,
				0.5422953367233276,
				-0.10447895526885986
			]
		},
		{
			"children":[
				1,
				4,
				7
			],
			"name":"spine",
			"rotation":[
				0.0498136542737484,
				0,
				0,
				0.9987585544586182
			],
			"scale":[
				1,
				0.9999999403953552,
				1
			],
			"translation":[
				0,
				0.5,
				0
			]
		},
		{
			"name":"tail2",
			"rotation":[
				0.21938779950141907,
				0,
				0,
				0.9756377339363098
			],
			"scale":[
				1,
				1.0000001192092896,
				1
			],
			"translation":[
				0,
				0.46097713708877563,
				-2.9802322387695312e-08
			]
		},
		{
			"children":[
				9
			],
			"name":"tail1",
			"rotation":[
				-0.9940289258956909,
				0,
				0,
				0.10911678522825241
			],
			"scale":[
				1,
				1,
				1.0000005960464478
			],
			"translation":[
				0,
				-0.050000011920928955,
				0
			]
		},
		{
			"name":"bl_low.L",
			"rotation":[
				0.5859891176223755,
				-5.862579310900173e-10,
				1.5732858349437606e-09,
				0.8103189468383789
			],
			"translation":[
				1.15498843822337e-09,
				0.27802878618240356,
				-1.596285237326356e-08
			]
		},
		{
			"children":[
				11
			],
			"name":"bl_mid.L",
			"rotation":[
				-0.6004913449287415,
				0.01613445207476616,
				-0.0055074263364076614,
				0.7994495630264282
			],
			"scale":[
				1,
				0.9999999403953552,
				0.9999999403953552
			],
			"translation":[
				-1.0244548320770264e-08,
				0.3548239767551422,
				-4.423782229423523e-09
			]
		},
		{
			"children":[
				12
			],
			"name":"bl_up.L",
			"rotation":[
				-0.5626009702682495,
				0,
				0.01704852283000946,
				0.8265528082847595
			],
			"translation":[
				-0.19059999287128448,
				0,
				-0.050000011920928955
			]
		},
		{
			"name":"bl_low.R",
			"rotation":[
				0.5859891176223755,
				5.862579310900173e-10,
				-1.5732858349437606e-09,
				0.8103189468383789
			],
			"translation":[
				-1.15498843822337e-09,
				0.27802878618240356,
				-1.596285237326356e-08
			]
		},
		{
			"children":[
				14
			],
			"name":"bl_mid.R",
			"rotation":[
				-0.6004913449287415,
				-0.01613445207476616,
				0.0055074263364076614,
				0.7994495630264282
			],
			"scale":[
				1,
				0.9999999403953552,
				0.9999999403953552
			],
			"translation":[
				1.0244548320770264e-08,
				0.3548239767551422,
				-4.423782229423523e-09
			]
		},
		{
			"children":[
				15
			],
			"name":"bl_up.R",
			"rotation":[
				-0.5626009702682495,
				0,
				-0.01704852283000946,
				0.8265528082847595
			],
			"translation":[
				0.19059999287128448,
				0,
				-0.050000011920928955
			]
		},
		{
			"children":[
				8,
				10,
				13,
				16
			],
			"name":"hips",
			"rotation":[
				-0.7071067690849304,
				0,
				0,
				0.7071067690849304
			],
			"translation":[
				0,
				0.8500000238418579,
				0.550000011920929
			]
		},
		{
			"mesh":0,
			"name":"wolf",
			"skin":0
		},
		{
			"children":[
				18,
				17
			],
			"name":"wolf_rig"
		}
	],
	"animations":[
		{
			"channels":[
				{
					"sampler":0,
					"target":{
						"node":17,
						"path":"translation"
					}
				},
				{
					"sampler":1,
					"target":{
						"node":17,
						"path":"rotation"
					}
				},
				{
					"sampler":2,
					"target":{
						"node":17,
						"path":"scale"
					}
				},
				{
					"sampler":3,
					"target":{
						"node":8,
						"path":"translation"
					}
				},
				{
					"sampler":4,
					"target":{
						"node":8,
						"path":"rotation"
					}
				},
				{
					"sampler":5,
					"target":{
						"node":8,
						"path":"scale"
					}
				},
				{
					"sampler":6,
					"target":{
						"node":1,
						"path":"translation"
					}
				},
				{
					"sampler":7,
					"target":{
						"node":1,
						"path":"rotation"
					}
				},
				{
					"sampler":8,
					"target":{
						"node":1,
						"path":"scale"
					}
				},
				{
					"sampler":9,
					"target":{
						"node":0,
						"path":"translation"
					}
				},
				{
					"sampler":10,
					"target":{
						"node":0,
						"path":"rotation"
					}
				},
				{
					"sampler":11,
					"target":{
						"node":0,
						"path":"scale"
					}
				},
				{
					"sampler":12,
					"target":{
						"node":4,
						"path":"translation"
					}
				},
				{
					"sampler":13,
					"target":{
						"node":4,
						"path":"rotation"
					}
				},
				{
					"sampler":14,
					"target":{
						"node":4,
						"path":"scale"
					}
				},
				{
					"sampler":15,
					"target":{
						"node":3,
						"path":"translation"
					}
				},
				{
					"sampler":16,
					"target":{
						"node":3,
						"path":"rotation"
					}
				},
				{
					"sampler":17,
					"target":{
						"node":3,
						"path":"scale"
					}
				},
				{
					"sampler":18,
					"target":{
						"node":2,
						"path":"translation"
					}
				},
				{
					"sampler":19,
					"target":{
						"node":2,
						"path":"rotation"
					}
				},
				{
					"sampler":20,
					"target":{
						"node":2,
						"path":"scale"
					}
				},
				{
					"sampler":21,
					"target":{
						"node":7,
						"path":"translation"
					}
				},
				{
					"sampler":22,
					"target":{
						"node":7,
						"path":"rotation"
					}
				},
				{
					"sampler":23,
					"target":{
						"node":7,
						"path":"scale"
					}
				},
				{
					"sampler":24,
					"target":{
						"node":6,
						"path":"translation"
					}
				},
				{
					"sampler":25,
					"target":{
						"node":6,
						"path":"rotation"
					}
				},
				{
					"sampler":26,
					"target":{
						"node":6,
						"path":"scale"
					}
				},
				{
					"sampler":27,
					"target":{
						"node":5,
						"path":"translation"
					}
				},
				{
					"sampler":28,
					"target":{
						"node":5,
						"path":"rotation"
					}
				},
				{
					"sampler":29,
					"target":{
						"node":5,
						"path":"scale"
					}
				},
				{
					"sampler":30,
					"target":{
						"node":10,
						"path":"translation"
					}
				},
				{
					"sampler":31,
					"target":{
						"node":10,
						"path":"rotation"
					}
				},
				{
					"sampler":32,
					"target":{
						"node":10,
						"path":"scale"
					}
				},
				{
					"sampler":33,
					"target":{
						"node":9,
						"path":"translation"
					}
				},
				{
					"sampler":34,
					"target":{
						"node":9,
						"path":"rotation"
					}
				},
				{
					"sampler":35,
					"target":{
						"node":9,
						"path":"scale"
					}
				},
				{
					"sampler":36,
					"target":{
						"node":13,
						"path":"translation"
					}
				},
				{
					"sampler":37,
					"target":{
						"node":13,
						"path":"rotation"
					}
				},
				{
					"sampler":38,
					"target":{
						"node":13,
						"path":"scale"
					}
				},
				{
					"sampler":39,
					"target":{
						"node":12,
						"path":"translation"
					}
				},
				{
					"sampler":40,
					"target":{
						"node":12,
						"path":"rotation"
					}
				},
				{
					"sampler":41,
					"target":{
						"node":12,
						"path":"scale"
					}
				},
				{
					"sampler":42,
					"target":{
						"node":11,
						"path":"translation"
					}
				},
				{
					"sampler":43,
					"target":{
						"node":11,
						"path":"rotation"
					}
				},
				{
					"sampler":44,
					"target":{
						"node":11,
						"path":"scale"
					}
				},
				{
					"sampler":45,
					"target":{
						"node":16,
						"path":"translation"
					}
				},
				{
					"sampler":46,
					"target":{
						"node":16,
						"path":"rotation"
					}
				},
				{
					"sampler":47,
					"target":{
						"node":16,
						"path":"scale"
					}
				},
				{
					"sampler":48,
					"target":{
						"node":15,
						"path":"translation"
					}
				},
				{
					"sampler":49,
					"target":{
						"node":15,
						"path":"rotation"
					}
				},
				{
					"sampler":50,
					"target":{
						"node":15,
						"path":"scale"
					}
				},
				{
					"sampler":51,
					"target":{
						"node":14,
						"path":"translation"
					}
				},
				{
					"sampler":52,
					"target":{
						"node":14,
						"path":"rotation"
					}
				},
				{
					"sampler":53,
					"target":{
						"node":14,
						"path":"scale"
					}
				}
			],
			"name":"attack",
			"samplers":[
				{
					"input":37,
					"interpolation":"LINEAR",
					"output":38
				},
				{
					"input":39,
					"interpolation":"STEP",
					"output":40
				},
				{
					"input":39,
					"interpolation":"STEP",
					"output":41
				},
				{
					"input":39,
					"interpolation":"STEP",
					"output":42
				},
				{
					"input":37,
					"interpolation":"LINEAR",
					"output":43
				},
				{
					"input":39,
					"interpolation":"STEP",
					"output":44
				},
				{
					"input":39,
					"interpolation":"STEP",
					"output":45
				},
				{
					"input":37,
					"interpolation":"LINEAR",
					"output":46
				},
				{
					"input":39,
					"interpolation":"STEP",
					"output":47
				},
				{
					"input":39,
					"interpolation":"STEP",
					"output":48
				},
				{
					"input":37,
					"interpolation":"LINEAR",
					"output":49
				},
				{
					"input":39,
					"interpolation":"STEP",
					"output":50
				},
				{
					"input":39,
					"interpolation":"STEP",
					"output":51
				},
				{
					"input":37,
					"interpolation":"LINEAR",
					"output":52
				},
				{
					"input":39,
					"interpolation":"STEP",
					"output":53
				},
				{
					"input":39,
					"interpolation":"STEP",
					"output":54
				},
				{
					"input":39,
					"interpolation":"STEP",
					"output":55
				},
				{
					"input":39,
					"interpolation":"STEP",
					"output":56
				},
				{
					"input":39,
					"interpolation":"STEP",
					"output":57
				},
				{
					"input":39,
					"interpolation":"STEP",
					"output":58
				},
				{
					"input":39,
					"interpolation":"STEP",
					"output":59
				},
				{
					"input":39,
					"interpolation":"STEP",
					"output":60
				},
				{
					"input":37,
					"interpolation":"LINEAR",
					"output":61
				},
				{
					"input":39,
					"interpolation":"STEP",
					"output":62
				},
				{
					"input":39,
					"interpolation":"STEP",
					"output":63
				},
				{
					"input":39,
					"interpolation":"STEP",
					"output":64
				},
				{
					"input":39,
					"interpolation":"STEP",
					"output":65
				},
				{
					"input":39,
					"interpolation":"STEP",
					"output":66
				},
				{
					"input":39,
					"interpolation":"STEP",
					"output":67
				},
				{
					"input":39,
					"interpolation":"STEP",
					"output":68
				},
				{
					"input":39,
					"interpolation":"STEP",
					"output":69
				},
				{
					"input":39,
					"interpolation":"STEP",
					"output":70
				},
				{
					"input":39,
					"interpolation":"STEP",
					"output":71
				},
				{
					"input":39,
					"interpolation":"STEP",
					"output":72
				},
				{
					"input":39,
					"interpolation":"STEP",
					"output":73
				},
				{
					"input":39,
					"interpolation":"STEP",
					"output":74
				},
				{
					"input":39,
					"interpolation":"STEP",
					"output":75
				},
				{
					"input":39,
					"interpolation":"STEP",
					"output":76
				},
				{
					"input":39,
					"interpolation":"STEP",
					"output":77
				},
				{
					"input":39,
					"interpolation":"STEP",
					"output":78
				},
				{
					"input":39,
					"interpolation":"STEP",
					"output":79
				},
				{
					"input":39,
					"interpolation":"STEP",
					"output":80
				},
				{
					"input":39,
					"interpolation":"STEP",
					"output":81
				},
				{
					"input":39,
					"interpolation":"STEP",
					"output":82
				},
				{
					"input":39,
					"interpolation":"STEP",
					"output":83
				},
				{
					"input":39,
					"interpolation":"STEP",
					"output":84
				},
				{
					"input":39,
					"interpolation":"STEP",
					"output":85
				},
				{
					"input":39,
					"interpolation":"STEP",
					"output":86
				},
				{
					"input":39,
					"interpolation":"STEP",
					"output":87
				},
				{
					"input":39,
					"interpolation":"STEP",
					"output":88
				},
				{
					"input":39,
					"interpolation":"STEP",
					"output":89
				},
				{
					"input":39,
					"interpolation":"STEP",
					"output":90
				},
				{
					"input":39,
					"interpolation":"STEP",
					"output":91
				},
				{
					"input":39,
					"interpolation":"STEP",
					"output":92
				}
			]
		},
		{
			"channels":[
				{
					"sampler":0,
					"target":{
						"node":17,
						"path":"translation"
					}
				},
				{
					"sampler":1,
					"target":{
						"node":17,
						"path":"rotation"
					}
				},
				{
					"sampler":2,
					"target":{
						"node":17,
						"path":"scale"
					}
				},
				{
					"sampler":3,
					"target":{
						"node":8,
						"path":"translation"
					}
				},
				{
					"sampler":4,
					"target":{
						"node":8,
						"path":"rotation"
					}
				},
				{
					"sampler":5,
					"target":{
						"node":8,
						"path":"scale"
					}
				},
				{
					"sampler":6,
					"target":{
						"node":1,
						"path":"translation"
					}
				},
				{
					"sampler":7,
					"target":{
						"node":1,
						"path":"rotation"
					}
				},
				{
					"sampler":8,
					"target":{
						"node":1,
						"path":"scale"
					}
				},
				{
					"sampler":9,
					"target":{
						"node":0,
						"path":"translation"
					}
				},
				{
					"sampler":10,
					"target":{
						"node":0,
						"path":"rotation"
					}
				},
				{
					"sampler":11,
					"target":{
						"node":0,
						"path":"scale"
					}
				},
				{
					"sampler":12,
					"target":{
						"node":4,
						"path":"translation"
					}
				},
				{
					"sampler":13,
					"target":{
						"node":4,
						"path":"rotation"
					}
				},
				{
					"sampler":14,
					"target":{
						"node":4,
						"path":"scale"
					}
				},
				{
					"sampler":15,
					"target":{
						"node":3,
						"path":"translation"
					}
				},
				{
					"sampler":16,
					"target":{
						"node":3,
						"path":"rotation"
					}
				},
				{
					"sampler":17,
					"target":{
						"node":3,
						"path":"scale"
					}
				},
				{
					"sampler":18,
					"target":{
						"node":2,
						"path":"translation"
					}
				},
				{
					"sampler":19,
					"target":{
						"node":2,
						"path":"rotation"
					}
				},
				{
					"sampler":20,
					"target":{
						"node":2,
						"path":"scale"
					}
				},
				{
					"sampler":21,
					"target":{
						"node":7,
						"path":"translation"
					}
				},
				{
					"sampler":22,
					"target":{
						"node":7,
						"path":"rotation"
					}
				},
				{
					"sampler":23,
					"target":{
						"node":7,
						"path":"scale"
					}
				},
				{
					"sampler":24,
					"target":{
						"node":6,
						"path":"translation"
					}
				},
				{
					"sampler":25,
					"target":{
						"node":6,
						"path":"rotation"
					}
				},
				{
					"sampler":26,
					"target":{
						"node":6,
						"path":"scale"
					}
				},
				{
					"sampler":27,
					"target":{
						"node":5,
						"path":"translation"
					}
				},
				{
					"sampler":28,
					"target":{
						"node":5,
						"path":"rotation"
					}
				},
				{
					"sampler":29,
					"target":{
						"node":5,
						"path":"scale"
					}
				},
				{
					"sampler":30,
					"target":{
						"node":10,
						"path":"translation"
					}
				},
				{
					"sampler":31,
					"target":{
						"node":10,
						"path":"rotation"
					}
				},
				{
					"sampler":32,
					"target":{
						"node":10,
						"path":"scale"
					}
				},
				{
					"sampler":33,
					"target":{
						"node":9,
						"path":"translation"
					}
				},
				{
					"sampler":34,
					"target":{
						"node":9,
						"path":"rotation"
					}
				},
				{
					"sampler":35,
					"target":{
						"node":9,
						"path":"scale"
					}
				},
				{
					"sampler":36,
					"target":{
						"node":13,
						"path":"translation"
					}
				},
				{
					"sampler":37,
					"target":{
						"node":13,
						"path":"rotation"
					}
				},
				{
					"sampler":38,
					"target":{
						"node":13,
						"path":"scale"
					}
				},
				{
					"sampler":39,
					"target":{
						"node":12,
						"path":"translation"
					}
				},
				{
					"sampler":40,
					"target":{
						"node":12,
						"path":"rotation"
					}
				},
				{
					"sampler":41,
					"target":{
						"node":12,
						"path":"scale"
					}
				},
				{
					"sampler":42,
					"target":{
						"node":11,
						"path":"translation"
					}
				},
				{
					"sampler":43,
					"target":{
						"node":11,
						"path":"rotation"
					}
				},
				{
					"sampler":44,
					"target":{
						"node":11,
						"path":"scale"
					}
				},
				{
					"sampler":45,
					"target":{
						"node":16,
						"path":"translation"
					}
				},
				{
					"sampler":46,
					"target":{
						"node":16,
						"path":"rotation"
					}
				},
				{
					"sampler":47,
					"target":{
						"node":16,
						"path":"scale"
					}
				},
				{
					"sampler":48,
					"target":{
						"node":15,
						"path":"translation"
					}
				},
				{
					"sampler":49,
					"target":{
						"node":15,
						"path":"rotation"
					}
				},
				{
					"sampler":50,
					"target":{
						"node":15,
						"path":"scale"
					}
				},
				{
					"sampler":51,
					"target":{
						"node":14,
						"path":"translation"
					}
				},
				{
					"sampler":52,
					"target":{
						"node":14,
						"path":"rotation"
					}
				},
				{
					"sampler":53,
					"target":{
						"node":14,
						"path":"scale"
					}
				}
			],
			"name":"idle",
			"samplers":[
				{
					"input":93,
					"interpolation":"STEP",
					"output":94
				},
				{
					"input":93,
					"interpolation":"STEP",
					"output":95
				},
				{
					"input":93,
					"interpolation":"STEP",
					"output":96
				},
				{
					"input":93,
					"interpolation":"STEP",
					"output":97
				},
				{
					"input":98,
					"interpolation":"LINEAR",
					"output":99
				},
				{
					"input":93,
					"interpolation":"STEP",
					"output":100
				},
				{
					"input":93,
					"interpolation":"STEP",
					"output":101
				},
				{
					"input":93,
					"interpolation":"STEP",
					"output":102
				},
				{
					"input":93,
					"interpolation":"STEP",
					"output":103
				},
				{
					"input":93,
					"interpolation":"STEP",
					"output":104
				},
				{
					"input":98,
					"interpolation":"LINEAR",
					"output":105
				},
				{
					"input":93,
					"interpolation":"STEP",
					"output":106
				},
				{
					"input":93,
					"interpolation":"STEP",
					"output":107
				},
				{
					"input":93,
					"interpolation":"STEP",
					"output":108
				},
				{
					"input":93,
					"interpolation":"STEP",
					"output":109
				},
				{
					"input":93,
					"interpolation":"STEP",
					"output":110
				},
				{
					"input":93,
					"interpolation":"STEP",
					"output":111
				},
				{
					"input":93,
					"interpolation":"STEP",
					"output":112
				},
				{
					"input":93,
					"interpolation":"STEP",
					"output":113
				},
				{
					"input":93,
					"interpolation":"STEP",
					"output":114
				},
				{
					"input":93,
					"interpolation":"STEP",
					"output":115
				},
				{
					"input":93,
					"interpolation":"STEP",
					"output":116
				},
				{
					"input":93,
					"interpolation":"STEP",
					"output":117
				},
				{
					"input":93,
					"interpolation":"STEP",
					"output":118
				},
				{
					"input":93,
					"interpolation":"STEP",
					"output":119
				},
				{
					"input":93,
					"interpolation":"STEP",
					"output":120
				},
				{
					"input":93,
					"interpolation":"STEP",
					"output":121
				},
				{
					"input":93,
					"interpolation":"STEP",
					"output":122
				},
				{
					"input":93,
					"interpolation":"STEP",
					"output":123
				},
				{
					"input":93,
					"interpolation":"STEP",
					"output":124
				},
				{
					"input":93,
					"interpolation":"STEP",
					"output":125
				},
				{
					"input":98,
					"interpolation":"LINEAR",
					"output":126
				},
				{
					"input":93,
					"interpolation":"STEP",
					"output":127
				},
				{
					"input":93,
					"interpolation":"STEP",
					"output":128
				},
				{
					"input":98,
					"interpolation":"LINEAR",
					"output":129
				},
				{
					"input":93,
					"interpolation":"STEP",
					"output":130
				},
				{
					"input":93,
					"interpolation":"STEP",
					"output":131
				},
				{
					"input":93,
					"interpolation":"STEP",
					"output":132
				},
				{
					"input":93,
					"interpolation":"STEP",
					"output":133
				},
				{
					"input":93,
					"interpolation":"STEP",
					"output":134
				},
				{
					"input":93,
					"interpolation":"STEP",
					"output":135
				},
				{
					"input":93,
					"interpolation":"STEP",
					"output":136
				},
				{
					"input":93,
					"interpolation":"STEP",
					"output":137
				},
				{
					"input":93,
					"interpolation":"STEP",
					"output":138
				},
				{
					"input":93,
					"interpolation":"STEP",
					"output":139
				},
				{
					"input":93,
					"interpolation":"STEP",
					"output":140
				},
				{
					"input":93,
					"interpolation":"STEP",
					"output":141
				},
				{
					"input":93,
					"interpolation":"STEP",
					"output":142
				},
				{
					"input":93,
					"interpolation":"STEP",
					"output":143
				},
				{
					"input":93,
					"interpolation":"STEP",
					"output":144
				},
				{
					"input":93,
					"interpolation":"STEP",
					"output":145
				},
				{
					"input":93,
					"interpolation":"STEP",
					"output":146
				},
				{
					"input":93,
					"interpolation":"STEP",
					"output":147
				},
				{
					"input":93,
					"interpolation":"STEP",
					"output":148
				}
			]
		},
		{
			"channels":[
				{
					"sampler":0,
					"target":{
						"node":17,
						"path":"translation"
					}
				},
				{
					"sampler":1,
					"target":{
						"node":17,
						"path":"rotation"
					}
				},
				{
					"sampler":2,
					"target":{
						"node":17,
						"path":"scale"
					}
				},
				{
					"sampler":3,
					"target":{
						"node":8,
						"path":"translation"
					}
				},
				{
					"sampler":4,
					"target":{
						"node":8,
						"path":"rotation"
					}
				},
				{
					"sampler":5,
					"target":{
						"node":8,
						"path":"scale"
					}
				},
				{
					"sampler":6,
					"target":{
						"node":1,
						"path":"translation"
					}
				},
				{
					"sampler":7,
					"target":{
						"node":1,
						"path":"rotation"
					}
				},
				{
					"sampler":8,
					"target":{
						"node":1,
						"path":"scale"
					}
				},
				{
					"sampler":9,
					"target":{
						"node":0,
						"path":"translation"
					}
				},
				{
					"sampler":10,
					"target":{
						"node":0,
						"path":"rotation"
					}
				},
				{
					"sampler":11,
					"target":{
						"node":0,
						"path":"scale"
					}
				},
				{
					"sampler":12,
					"target":{
						"node":4,
						"path":"translation"
					}
				},
				{
					"sampler":13,
					"target":{
						"node":4,
						"path":"rotation"
					}
				},
				{
					"sampler":14,
					"target":{
						"node":4,
						"path":"scale"
					}
				},
				{
					"sampler":15,
					"target":{
						"node":3,
						"path":"translation"
					}
				},
				{
					"sampler":16,
					"target":{
						"node":3,
						"path":"rotation"
					}
				},
				{
					"sampler":17,
					"target":{
						"node":3,
						"path":"scale"
					}
				},
				{
					"sampler":18,
					"target":{
						"node":2,
						"path":"translation"
					}
				},
				{
					"sampler":19,
					"target":{
						"node":2,
						"path":"rotation"
					}
				},
				{
					"sampler":20,
					"target":{
						"node":2,
						"path":"scale"
					}
				},
				{
					"sampler":21,
					"target":{
						"node":7,
						"path":"translation"
					}
				},
				{
					"sampler":22,
					"target":{
						"node":7,
						"path":"rotation"
					}
				},
				{
					"sampler":23,
					"target":{
						"node":7,
						"path":"scale"
					}
				},
				{
					"sampler":24,
					"target":{
						"node":6,
						"path":"translation"
					}
				},
				{
					"sampler":25,
					"target":{
						"node":6,
						"path":"rotation"
					}
				},
				{
					"sampler":26,
					"target":{
						"node":6,
						"path":"scale"
					}
				},
				{
					"sampler":27,
					"target":{
						"node":5,
						"path":"translation"
					}
				},
				{
					"sampler":28,
					"target":{
						"node":5,
						"path":"rotation"
					}
				},
				{
					"sampler":29,
					"target":{
						"node":5,
						"path":"scale"
					}
				},
				{
					"sampler":30,
					"target":{
						"node":10,
						"path":"translation"
					}
				},
				{
					"sampler":31,
					"target":{
						"node":10,
						"path":"rotation"
					}
				},
				{
					"sampler":32,
					"target":{
						"node":10,
						"path":"scale"
					}
				},
				{
					"sampler":33,
					"target":{
						"node":9,
						"path":"translation"
					}
				},
				{
					"sampler":34,
					"target":{
						"node":9,
						"path":"rotation"
					}
				},
				{
					"sampler":35,
					"target":{
						"node":9,
						"path":"scale"
					}
				},
				{
					"sampler":36,
					"target":{
						"node":13,
						"path":"translation"
					}
				},
				{
					"sampler":37,
					"target":{
						"node":13,
						"path":"rotation"
					}
				},
				{
					"sampler":38,
					"target":{
						"node":13,
						"path":"scale"
					}
				},
				{
					"sampler":39,
					"target":{
						"node":12,
						"path":"translation"
					}
				},
				{
					"sampler":40,
					"target":{
						"node":12,
						"path":"rotation"
					}
				},
				{
					"sampler":41,
					"target":{
						"node":12,
						"path":"scale"
					}
				},
				{
					"sampler":42,
					"target":{
						"node":11,
						"path":"translation"
					}
				},
				{
					"sampler":43,
					"target":{
						"node":11,
						"path":"rotation"
					}
				},
				{
					"sampler":44,
					"target":{
						"node":11,
						"path":"scale"
					}
				},
				{
					"sampler":45,
					"target":{
						"node":16,
						"path":"translation"
					}
				},
				{
					"sampler":46,
					"target":{
						"node":16,
						"path":"rotation"
					}
				},
				{
					"sampler":47,
					"target":{
						"node":16,
						"path":"scale"
					}
				},
				{
					"sampler":48,
					"target":{
						"node":15,
						"path":"translation"
					}
				},
				{
					"sampler":49,
					"target":{
						"node":15,
						"path":"rotation"
					}
				},
				{
					"sampler":50,
					"target":{
						"node":15,
						"path":"scale"
					}
				},
				{
					"sampler":51,
					"target":{
						"node":14,
						"path":"translation"
					}
				},
				{
					"sampler":52,
					"target":{
						"node":14,
						"path":"rotation"
					}
				},
				{
					"sampler":53,
					"target":{
						"node":14,
						"path":"scale"
					}
				}
			],
			"name":"walk",
			"samplers":[
				{
					"input":149,
					"interpolation":"LINEAR",
					"output":150
				},
				{
					"input":151,
					"interpolation":"STEP",
					"output":152
				},
				{
					"input":151,
					"interpolation":"STEP",
					"output":153
				},
				{
					"input":151,
					"interpolation":"STEP",
					"output":154
				},
				{
					"input":151,
					"interpolation":"STEP",
					"output":155
				},
				{
					"input":151,
					"interpolation":"STEP",
					"output":156
				},
				{
					"input":151,
					"interpolation":"STEP",
					"output":157
				},
				{
					"input":151,
					"interpolation":"STEP",
					"output":158
				},
				{
					"input":151,
					"interpolation":"STEP",
					"output":159
				},
				{
					"input":151,
					"interpolation":"STEP",
					"output":160
				},
				{
					"input":149,
					"interpolation":"LINEAR",
					"output":161
				},
				{
					"input":151,
					"interpolation":"STEP",
					"output":162
				},
				{
					"input":151,
					"interpolation":"STEP",
					"output":163
				},
				{
					"input":149,
					"interpolation":"LINEAR",
					"output":164
				},
				{
					"input":151,
					"interpolation":"STEP",
					"output":165
				},
				{
					"input":151,
					"interpolation":"STEP",
					"output":166
				},
				{
					"input":149,
					"interpolation":"LINEAR",
					"output":167
				},
				{
					"input":151,
					"interpolation":"STEP",
					"output":168
				},
				{
					"input":151,
					"interpolation":"STEP",
					"output":169
				},
				{
					"input":151,
					"interpolation":"STEP",
					"output":170
				},
				{
					"input":151,
					"interpolation":"STEP",
					"output":171
				},
				{
					"input":151,
					"interpolation":"STEP",
					"output":172
				},
				{
					"input":149,
					"interpolation":"LINEAR",
					"output":173
				},
				{
					"input":151,
					"interpolation":"STEP",
					"output":174
				},
				{
					"input":151,
					"interpolation":"STEP",
					"output":175
				},
				{
					"input":149,
					"interpolation":"LINEAR",
					"output":176
				},
				{
					"input":151,
					"interpolation":"STEP",
					"output":177
				},
				{
					"input":151,
					"interpolation":"STEP",
					"output":178
				},
				{
					"input":151,
					"interpolation":"STEP",
					"output":179
				},
				{
					"input":151,
					"interpolation":"STEP",
					"output":180
				},
				{
					"input":151,
					"interpolation":"STEP",
					"output":181
				},
				{
					"input":149,
					"interpolation":"LINEAR",
					"output":182
				},
				{
					"input":151,
					"interpolation":"STEP",
					"output":183
				},
				{
					"input":151,
					"interpolation":"STEP",
					"output":184
				},
				{
					"input":151,
					"interpolation":"STEP",
					"output":185
				},
				{
					"input":151,
					"interpolation":"STEP",
					"output":186
				},
				{
					"input":151,
					"interpolation":"STEP",
					"output":187
				},
				{
					"input":149,
					"interpolation":"LINEAR",
					"output":188
				},
				{
					"input":151,
					"interpolation":"STEP",
					"output":189
				},
				{
					"input":151,
					"interpolation":"STEP",
					"output":190
				},
				{
					"input":149,
					"interpolation":"LINEAR",
					"output":191
				},
				{
					"input":151,
					"interpolation":"STEP",
					"output":192
				},
				{
					"input":151,
					"interpolation":"STEP",
					"output":193
				},
				{
					"input":151,
					"interpolation":"STEP",
					"output":194
				},
				{
					"input":151,
					"interpolation":"STEP",
					"output":195
				},
				{
					"input":151,
					"interpolation":"STEP",
					"output":196
				},
				{
					"input":149,
					"interpolation":"LINEAR",
					"output":197
				},
				{
					"input":151,
					"interpolation":"STEP",
					"output":198
				},
				{
					"input":151,
					"interpolation":"STEP",
					"output":199
				},
				{
					"input":149,
					"interpolation":"LINEAR",
					"output":200
				},
				{
					"input":151,
					"interpolation":"STEP",
					"output":201
				},
				{
					"input":151,
					"interpolation":"STEP",
					"output":202
				},
				{
					"input":151,
					"interpolation":"STEP",
					"output":203
				},
				{
					"input":151,
					"interpolation":"STEP",
					"output":204
				}
			]
		}
	],
	"materials":[
		{
			"extensions":{
				"KHR_materials_sheen":{
					"sheenColorFactor":[
						1.0,
						1.0,
						1.0
					],
					"sheenRoughnessFactor":0.5
				}
			},
			"name":"fur",
			"normalTexture":{
				"index":0,
				"scale":1.2000000476837158
			},
			"pbrMetallicRoughness":{
				"baseColorFactor":[
					0.10048151016235352,
					0.10048151016235352,
					0.13286831974983215,
					1
				],
				"metallicFactor":0,
				"roughnessFactor":0.75
			}
		},
		{
			"name":"belly",
			"normalTexture":{
				"index":1,
				"scale":0.6000000238418579
			},
			"pbrMetallicRoughness":{
				"baseColorFactor":[
					0.16862449049949646,
					0.16862449049949646,
					0.2049017697572708,
					1
				],
				"metallicFactor":0,
				"roughnessFactor":0.800000011920929
			}
		},
		{
			"emissiveFactor":[
				1,
				0.6038273572921753,
				0.010022825561463833
			],
			"extensions":{
				"KHR_materials_emissive_strength":{
					"emissiveStrength":1.600000023841858
				}
			},
			"name":"eye",
			"pbrMetallicRoughness":{
				"baseColorFactor":[
					1,
					0.6038273572921753,
					0.010022825561463833,
					1
				],
				"metallicFactor":0,
				"roughnessFactor":0.10000000149011612
			}
		},
		{
			"extensions":{
				"KHR_materials_clearcoat":{
					"clearcoatFactor":0.800000011920929
				}
			},
			"name":"nose",
			"pbrMetallicRoughness":{
				"baseColorFactor":[
					0.0023219813592731953,
					0.0023219813592731953,
					0.0023219813592731953,
					1
				],
				"metallicFactor":0,
				"roughnessFactor":0.30000001192092896
			}
		},
		{
			"name":"teeth",
			"pbrMetallicRoughness":{
				"baseColorFactor":[
					0.8900054097175598,
					0.848088264465332,
					0.6920710802078247,
					1
				],
				"metallicFactor":0,
				"roughnessFactor":0.30000001192092896
			}
		},
		{
			"emissiveFactor":[
				0.7874122858047485,
				0.7874122858047485,
				1
			],
			"extensions":{
				"KHR_materials_emissive_strength":{
					"emissiveStrength":5
				}
			},
			"name":"star",
			"pbrMetallicRoughness":{
				"baseColorFactor":[
					0.7874122858047485,
					0.7874122858047485,
					1,
					1
				],
				"metallicFactor":0,
				"roughnessFactor":0.10000000149011612
			}
		}
	],
	"meshes":[
		{
			"name":"wolf",
			"primitives":[
				{
					"attributes":{
						"POSITION":0,
						"NORMAL":1,
						"TEXCOORD_0":2,
						"JOINTS_0":3,
						"WEIGHTS_0":4
					},
					"indices":5,
					"material":0
				},
				{
					"attributes":{
						"POSITION":6,
						"NORMAL":7,
						"TEXCOORD_0":8,
						"JOINTS_0":9,
						"WEIGHTS_0":10
					},
					"indices":11,
					"material":1
				},
				{
					"attributes":{
						"POSITION":12,
						"NORMAL":13,
						"TEXCOORD_0":14,
						"JOINTS_0":15,
						"WEIGHTS_0":16
					},
					"indices":17,
					"material":2
				},
				{
					"attributes":{
						"POSITION":18,
						"NORMAL":19,
						"TEXCOORD_0":20,
						"JOINTS_0":21,
						"WEIGHTS_0":22
					},
					"indices":23,
					"material":3
				},
				{
					"attributes":{
						"POSITION":24,
						"NORMAL":25,
						"TEXCOORD_0":26,
						"JOINTS_0":27,
						"WEIGHTS_0":28
					},
					"indices":29,
					"material":4
				},
				{
					"attributes":{
						"POSITION":30,
						"NORMAL":31,
						"TEXCOORD_0":32,
						"JOINTS_0":33,
						"WEIGHTS_0":34
					},
					"indices":35,
					"material":5
				}
			]
		}
	],
	"textures":[
		{
			"sampler":0,
			"source":0
		},
		{
			"sampler":0,
			"source":0
		}
	],
	"images":[
		{
			"mimeType":"image/png",
			"name":"N_fur",
			"uri":"texturas/N_fur.png"
		}
	],
	"skins":[
		{
			"inverseBindMatrices":36,
			"joints":[
				17,
				8,
				1,
				0,
				4,
				3,
				2,
				7,
				6,
				5,
				10,
				9,
				13,
				12,
				11,
				16,
				15,
				14
			],
			"name":"wolf_rig"
		}
	],
	"accessors":[
		{
			"bufferView":0,
			"componentType":5126,
			"count":6214,
			"max":[
				0.3212586045265198,
				1.5502604246139526,
				1.5001977682113647
			],
			"min":[
				-0.3212586045265198,
				0.01298572402447462,
				-1.308381199836731
			],
			"type":"VEC3"
		},
		{
			"bufferView":1,
			"componentType":5126,
			"count":6214,
			"type":"VEC3"
		},
		{
			"bufferView":2,
			"componentType":5126,
			"count":6214,
			"type":"VEC2"
		},
		{
			"bufferView":3,
			"componentType":5121,
			"count":6214,
			"type":"VEC4"
		},
		{
			"bufferView":4,
			"componentType":5126,
			"count":6214,
			"type":"VEC4"
		},
		{
			"bufferView":5,
			"componentType":5123,
			"count":22950,
			"type":"SCALAR"
		},
		{
			"bufferView":6,
			"componentType":5126,
			"count":658,
			"max":[
				0.19522547721862793,
				0.7518734931945801,
				0.6190592646598816
			],
			"min":[
				-0.19522550702095032,
				0.05719605088233948,
				-0.6066098809242249
			],
			"type":"VEC3"
		},
		{
			"bufferView":7,
			"componentType":5126,
			"count":658,
			"type":"VEC3"
		},
		{
			"bufferView":8,
			"componentType":5126,
			"count":658,
			"type":"VEC2"
		},
		{
			"bufferView":9,
			"componentType":5121,
			"count":658,
			"type":"VEC4"
		},
		{
			"bufferView":10,
			"componentType":5126,
			"count":658,
			"type":"VEC4"
		},
		{
			"bufferView":11,
			"componentType":5123,
			"count":2568,
			"type":"SCALAR"
		},
		{
			"bufferView":12,
			"componentType":5126,
			"count":220,
			"max":[
				0.10700000077486038,
				1.3279999494552612,
				-1.044783115386963
			],
			"min":[
				-0.10700000077486038,
				1.2920000553131104,
				-1.0752168893814087
			],
			"type":"VEC3"
		},
		{
			"bufferView":13,
			"componentType":5126,
			"count":220,
			"type":"VEC3"
		},
		{
			"bufferView":14,
			"componentType":5126,
			"count":220,
			"type":"VEC2"
		},
		{
			"bufferView":15,
			"componentType":5121,
			"count":220,
			"type":"VEC4"
		},
		{
			"bufferView":16,
			"componentType":5126,
			"count":220,
			"type":"VEC4"
		},
		{
			"bufferView":17,
			"componentType":5123,
			"count":720,
			"type":"SCALAR"
		},
		{
			"bufferView":18,
			"componentType":5126,
			"count":110,
			"max":[
				0.03500000014901161,
				1.2079999446868896,
				-1.2812235355377197
			],
			"min":[
				-0.03500000014901161,
				1.1519999504089355,
				-1.3287763595581055
			],
			"type":"VEC3"
		},
		{
			"bufferView":19,
			"componentType":5126,
			"count":110,
			"type":"VEC3"
		},
		{
			"bufferView":20,
			"componentType":5126,
			"count":110,
			"type":"VEC2"
		},
		{
			"bufferView":21,
			"componentType":5121,
			"count":110,
			"type":"VEC4"
		},
		{
			"bufferView":22,
			"componentType":5126,
			"count":110,
			"type":"VEC4"
		},
		{
			"bufferView":23,
			"componentType":5123,
			"count":360,
			"type":"SCALAR"
		},
		{
			"bufferView":24,
			"componentType":5126,
			"count":68,
			"max":[
				0.0369282029569149,
				1.149999976158142,
				-1.2419999837875366
			],
			"min":[
				-0.0369282029569149,
				1.100000023841858,
				-1.2580000162124634
			],
			"type":"VEC3"
		},
		{
			"bufferView":25,
			"componentType":5126,
			"count":68,
			"type":"VEC3"
		},
		{
			"bufferView":26,
			"componentType":5126,
			"count":68,
			"type":"VEC2"
		},
		{
			"bufferView":27,
			"componentType":5121,
			"count":68,
			"type":"VEC4"
		},
		{
			"bufferView":28,
			"componentType":5126,
			"count":68,
			"type":"VEC4"
		},
		{
			"bufferView":29,
			"componentType":5123,
			"count":144,
			"type":"SCALAR"
		},
		{
			"bufferView":30,
			"componentType":5126,
			"count":80,
			"max":[
				0.019021131098270416,
				1.3799999952316284,
				-1.0704894065856934
			],
			"min":[
				-0.019021131098270416,
				1.340000033378601,
				-1.0895105600357056
			],
			"type":"VEC3"
		},
		{
			"bufferView":31,
			"componentType":5126,
			"count":80,
			"type":"VEC3"
		},
		{
			"bufferView":32,
			"componentType":5126,
			"count":80,
			"type":"VEC2"
		},
		{
			"bufferView":33,
			"componentType":5121,
			"count":80,
			"type":"VEC4"
		},
		{
			"bufferView":34,
			"componentType":5126,
			"count":80,
			"type":"VEC4"
		},
		{
			"bufferView":35,
			"componentType":5123,
			"count":240,
			"type":"SCALAR"
		},
		{
			"bufferView":36,
			"componentType":5126,
			"count":18,
			"type":"MAT4"
		},
		{
			"bufferView":37,
			"componentType":5126,
			"count":17,
			"max":[
				0.5333333333333333
			],
			"min":[
				0
			],
			"type":"SCALAR"
		},
		{
			"bufferView":38,
			"componentType":5126,
			"count":17,
			"type":"VEC3"
		},
		{
			"bufferView":39,
			"componentType":5126,
			"count":2,
			"max":[
				0.5333333333333333
			],
			"min":[
				0
			],
			"type":"SCALAR"
		},
		{
			"bufferView":40,
			"componentType":5126,
			"count":2,
			"type":"VEC4"
		},
		{
			"bufferView":41,
			"componentType":5126,
			"count":2,
			"type":"VEC3"
		},
		{
			"bufferView":42,
			"componentType":5126,
			"count":2,
			"type":"VEC3"
		},
		{
			"bufferView":43,
			"componentType":5126,
			"count":17,
			"type":"VEC4"
		},
		{
			"bufferView":44,
			"componentType":5126,
			"count":2,
			"type":"VEC3"
		},
		{
			"bufferView":45,
			"componentType":5126,
			"count":2,
			"type":"VEC3"
		},
		{
			"bufferView":46,
			"componentType":5126,
			"count":17,
			"type":"VEC4"
		},
		{
			"bufferView":47,
			"componentType":5126,
			"count":2,
			"type":"VEC3"
		},
		{
			"bufferView":48,
			"componentType":5126,
			"count":2,
			"type":"VEC3"
		},
		{
			"bufferView":49,
			"componentType":5126,
			"count":17,
			"type":"VEC4"
		},
		{
			"bufferView":50,
			"componentType":5126,
			"count":2,
			"type":"VEC3"
		},
		{
			"bufferView":51,
			"componentType":5126,
			"count":2,
			"type":"VEC3"
		},
		{
			"bufferView":52,
			"componentType":5126,
			"count":17,
			"type":"VEC4"
		},
		{
			"bufferView":53,
			"componentType":5126,
			"count":2,
			"type":"VEC3"
		},
		{
			"bufferView":54,
			"componentType":5126,
			"count":2,
			"type":"VEC3"
		},
		{
			"bufferView":55,
			"componentType":5126,
			"count":2,
			"type":"VEC4"
		},
		{
			"bufferView":56,
			"componentType":5126,
			"count":2,
			"type":"VEC3"
		},
		{
			"bufferView":57,
			"componentType":5126,
			"count":2,
			"type":"VEC3"
		},
		{
			"bufferView":58,
			"componentType":5126,
			"count":2,
			"type":"VEC4"
		},
		{
			"bufferView":59,
			"componentType":5126,
			"count":2,
			"type":"VEC3"
		},
		{
			"bufferView":60,
			"componentType":5126,
			"count":2,
			"type":"VEC3"
		},
		{
			"bufferView":61,
			"componentType":5126,
			"count":17,
			"type":"VEC4"
		},
		{
			"bufferView":62,
			"componentType":5126,
			"count":2,
			"type":"VEC3"
		},
		{
			"bufferView":63,
			"componentType":5126,
			"count":2,
			"type":"VEC3"
		},
		{
			"bufferView":64,
			"componentType":5126,
			"count":2,
			"type":"VEC4"
		},
		{
			"bufferView":65,
			"componentType":5126,
			"count":2,
			"type":"VEC3"
		},
		{
			"bufferView":66,
			"componentType":5126,
			"count":2,
			"type":"VEC3"
		},
		{
			"bufferView":67,
			"componentType":5126,
			"count":2,
			"type":"VEC4"
		},
		{
			"bufferView":68,
			"componentType":5126,
			"count":2,
			"type":"VEC3"
		},
		{
			"bufferView":69,
			"componentType":5126,
			"count":2,
			"type":"VEC3"
		},
		{
			"bufferView":70,
			"componentType":5126,
			"count":2,
			"type":"VEC4"
		},
		{
			"bufferView":71,
			"componentType":5126,
			"count":2,
			"type":"VEC3"
		},
		{
			"bufferView":72,
			"componentType":5126,
			"count":2,
			"type":"VEC3"
		},
		{
			"bufferView":73,
			"componentType":5126,
			"count":2,
			"type":"VEC4"
		},
		{
			"bufferView":74,
			"componentType":5126,
			"count":2,
			"type":"VEC3"
		},
		{
			"bufferView":75,
			"componentType":5126,
			"count":2,
			"type":"VEC3"
		},
		{
			"bufferView":76,
			"componentType":5126,
			"count":2,
			"type":"VEC4"
		},
		{
			"bufferView":77,
			"componentType":5126,
			"count":2,
			"type":"VEC3"
		},
		{
			"bufferView":78,
			"componentType":5126,
			"count":2,
			"type":"VEC3"
		},
		{
			"bufferView":79,
			"componentType":5126,
			"count":2,
			"type":"VEC4"
		},
		{
			"bufferView":80,
			"componentType":5126,
			"count":2,
			"type":"VEC3"
		},
		{
			"bufferView":81,
			"componentType":5126,
			"count":2,
			"type":"VEC3"
		},
		{
			"bufferView":82,
			"componentType":5126,
			"count":2,
			"type":"VEC4"
		},
		{
			"bufferView":83,
			"componentType":5126,
			"count":2,
			"type":"VEC3"
		},
		{
			"bufferView":84,
			"componentType":5126,
			"count":2,
			"type":"VEC3"
		},
		{
			"bufferView":85,
			"componentType":5126,
			"count":2,
			"type":"VEC4"
		},
		{
			"bufferView":86,
			"componentType":5126,
			"count":2,
			"type":"VEC3"
		},
		{
			"bufferView":87,
			"componentType":5126,
			"count":2,
			"type":"VEC3"
		},
		{
			"bufferView":88,
			"componentType":5126,
			"count":2,
			"type":"VEC4"
		},
		{
			"bufferView":89,
			"componentType":5126,
			"count":2,
			"type":"VEC3"
		},
		{
			"bufferView":90,
			"componentType":5126,
			"count":2,
			"type":"VEC3"
		},
		{
			"bufferView":91,
			"componentType":5126,
			"count":2,
			"type":"VEC4"
		},
		{
			"bufferView":92,
			"componentType":5126,
			"count":2,
			"type":"VEC3"
		},
		{
			"bufferView":93,
			"componentType":5126,
			"count":2,
			"max":[
				2
			],
			"min":[
				0
			],
			"type":"SCALAR"
		},
		{
			"bufferView":94,
			"componentType":5126,
			"count":2,
			"type":"VEC3"
		},
		{
			"bufferView":95,
			"componentType":5126,
			"count":2,
			"type":"VEC4"
		},
		{
			"bufferView":96,
			"componentType":5126,
			"count":2,
			"type":"VEC3"
		},
		{
			"bufferView":97,
			"componentType":5126,
			"count":2,
			"type":"VEC3"
		},
		{
			"bufferView":98,
			"componentType":5126,
			"count":61,
			"max":[
				2
			],
			"min":[
				0
			],
			"type":"SCALAR"
		},
		{
			"bufferView":99,
			"componentType":5126,
			"count":61,
			"type":"VEC4"
		},
		{
			"bufferView":100,
			"componentType":5126,
			"count":2,
			"type":"VEC3"
		},
		{
			"bufferView":101,
			"componentType":5126,
			"count":2,
			"type":"VEC3"
		},
		{
			"bufferView":102,
			"componentType":5126,
			"count":2,
			"type":"VEC4"
		},
		{
			"bufferView":103,
			"componentType":5126,
			"count":2,
			"type":"VEC3"
		},
		{
			"bufferView":104,
			"componentType":5126,
			"count":2,
			"type":"VEC3"
		},
		{
			"bufferView":105,
			"componentType":5126,
			"count":61,
			"type":"VEC4"
		},
		{
			"bufferView":106,
			"componentType":5126,
			"count":2,
			"type":"VEC3"
		},
		{
			"bufferView":107,
			"componentType":5126,
			"count":2,
			"type":"VEC3"
		},
		{
			"bufferView":108,
			"componentType":5126,
			"count":2,
			"type":"VEC4"
		},
		{
			"bufferView":109,
			"componentType":5126,
			"count":2,
			"type":"VEC3"
		},
		{
			"bufferView":110,
			"componentType":5126,
			"count":2,
			"type":"VEC3"
		},
		{
			"bufferView":111,
			"componentType":5126,
			"count":2,
			"type":"VEC4"
		},
		{
			"bufferView":112,
			"componentType":5126,
			"count":2,
			"type":"VEC3"
		},
		{
			"bufferView":113,
			"componentType":5126,
			"count":2,
			"type":"VEC3"
		},
		{
			"bufferView":114,
			"componentType":5126,
			"count":2,
			"type":"VEC4"
		},
		{
			"bufferView":115,
			"componentType":5126,
			"count":2,
			"type":"VEC3"
		},
		{
			"bufferView":116,
			"componentType":5126,
			"count":2,
			"type":"VEC3"
		},
		{
			"bufferView":117,
			"componentType":5126,
			"count":2,
			"type":"VEC4"
		},
		{
			"bufferView":118,
			"componentType":5126,
			"count":2,
			"type":"VEC3"
		},
		{
			"bufferView":119,
			"componentType":5126,
			"count":2,
			"type":"VEC3"
		},
		{
			"bufferView":120,
			"componentType":5126,
			"count":2,
			"type":"VEC4"
		},
		{
			"bufferView":121,
			"componentType":5126,
			"count":2,
			"type":"VEC3"
		},
		{
			"bufferView":122,
			"componentType":5126,
			"count":2,
			"type":"VEC3"
		},
		{
			"bufferView":123,
			"componentType":5126,
			"count":2,
			"type":"VEC4"
		},
		{
			"bufferView":124,
			"componentType":5126,
			"count":2,
			"type":"VEC3"
		},
		{
			"bufferView":125,
			"componentType":5126,
			"count":2,
			"type":"VEC3"
		},
		{
			"bufferView":126,
			"componentType":5126,
			"count":61,
			"type":"VEC4"
		},
		{
			"bufferView":127,
			"componentType":5126,
			"count":2,
			"type":"VEC3"
		},
		{
			"bufferView":128,
			"componentType":5126,
			"count":2,
			"type":"VEC3"
		},
		{
			"bufferView":129,
			"componentType":5126,
			"count":61,
			"type":"VEC4"
		},
		{
			"bufferView":130,
			"componentType":5126,
			"count":2,
			"type":"VEC3"
		},
		{
			"bufferView":131,
			"componentType":5126,
			"count":2,
			"type":"VEC3"
		},
		{
			"bufferView":132,
			"componentType":5126,
			"count":2,
			"type":"VEC4"
		},
		{
			"bufferView":133,
			"componentType":5126,
			"count":2,
			"type":"VEC3"
		},
		{
			"bufferView":134,
			"componentType":5126,
			"count":2,
			"type":"VEC3"
		},
		{
			"bufferView":135,
			"componentType":5126,
			"count":2,
			"type":"VEC4"
		},
		{
			"bufferView":136,
			"componentType":5126,
			"count":2,
			"type":"VEC3"
		},
		{
			"bufferView":137,
			"componentType":5126,
			"count":2,
			"type":"VEC3"
		},
		{
			"bufferView":138,
			"componentType":5126,
			"count":2,
			"type":"VEC4"
		},
		{
			"bufferView":139,
			"componentType":5126,
			"count":2,
			"type":"VEC3"
		},
		{
			"bufferView":140,
			"componentType":5126,
			"count":2,
			"type":"VEC3"
		},
		{
			"bufferView":141,
			"componentType":5126,
			"count":2,
			"type":"VEC4"
		},
		{
			"bufferView":142,
			"componentType":5126,
			"count":2,
			"type":"VEC3"
		},
		{
			"bufferView":143,
			"componentType":5126,
			"count":2,
			"type":"VEC3"
		},
		{
			"bufferView":144,
			"componentType":5126,
			"count":2,
			"type":"VEC4"
		},
		{
			"bufferView":145,
			"componentType":5126,
			"count":2,
			"type":"VEC3"
		},
		{
			"bufferView":146,
			"componentType":5126,
			"count":2,
			"type":"VEC3"
		},
		{
			"bufferView":147,
			"componentType":5126,
			"count":2,
			"type":"VEC4"
		},
		{
			"bufferView":148,
			"componentType":5126,
			"count":2,
			"type":"VEC3"
		},
		{
			"bufferView":149,
			"componentType":5126,
			"count":25,
			"max":[
				0.8
			],
			"min":[
				0
			],
			"type":"SCALAR"
		},
		{
			"bufferView":150,
			"componentType":5126,
			"count":25,
			"type":"VEC3"
		},
		{
			"bufferView":151,
			"componentType":5126,
			"count":2,
			"max":[
				0.8
			],
			"min":[
				0
			],
			"type":"SCALAR"
		},
		{
			"bufferView":152,
			"componentType":5126,
			"count":2,
			"type":"VEC4"
		},
		{
			"bufferView":153,
			"componentType":5126,
			"count":2,
			"type":"VEC3"
		},
		{
			"bufferView":154,
			"componentType":5126,
			"count":2,
			"type":"VEC3"
		},
		{
			"bufferView":155,
			"componentType":5126,
			"count":2,
			"type":"VEC4"
		},
		{
			"bufferView":156,
			"componentType":5126,
			"count":2,
			"type":"VEC3"
		},
		{
			"bufferView":157,
			"componentType":5126,
			"count":2,
			"type":"VEC3"
		},
		{
			"bufferView":158,
			"componentType":5126,
			"count":2,
			"type":"VEC4"
		},
		{
			"bufferView":159,
			"componentType":5126,
			"count":2,
			"type":"VEC3"
		},
		{
			"bufferView":160,
			"componentType":5126,
			"count":2,
			"type":"VEC3"
		},
		{
			"bufferView":161,
			"componentType":5126,
			"count":25,
			"type":"VEC4"
		},
		{
			"bufferView":162,
			"componentType":5126,
			"count":2,
			"type":"VEC3"
		},
		{
			"bufferView":163,
			"componentType":5126,
			"count":2,
			"type":"VEC3"
		},
		{
			"bufferView":164,
			"componentType":5126,
			"count":25,
			"type":"VEC4"
		},
		{
			"bufferView":165,
			"componentType":5126,
			"count":2,
			"type":"VEC3"
		},
		{
			"bufferView":166,
			"componentType":5126,
			"count":2,
			"type":"VEC3"
		},
		{
			"bufferView":167,
			"componentType":5126,
			"count":25,
			"type":"VEC4"
		},
		{
			"bufferView":168,
			"componentType":5126,
			"count":2,
			"type":"VEC3"
		},
		{
			"bufferView":169,
			"componentType":5126,
			"count":2,
			"type":"VEC3"
		},
		{
			"bufferView":170,
			"componentType":5126,
			"count":2,
			"type":"VEC4"
		},
		{
			"bufferView":171,
			"componentType":5126,
			"count":2,
			"type":"VEC3"
		},
		{
			"bufferView":172,
			"componentType":5126,
			"count":2,
			"type":"VEC3"
		},
		{
			"bufferView":173,
			"componentType":5126,
			"count":25,
			"type":"VEC4"
		},
		{
			"bufferView":174,
			"componentType":5126,
			"count":2,
			"type":"VEC3"
		},
		{
			"bufferView":175,
			"componentType":5126,
			"count":2,
			"type":"VEC3"
		},
		{
			"bufferView":176,
			"componentType":5126,
			"count":25,
			"type":"VEC4"
		},
		{
			"bufferView":177,
			"componentType":5126,
			"count":2,
			"type":"VEC3"
		},
		{
			"bufferView":178,
			"componentType":5126,
			"count":2,
			"type":"VEC3"
		},
		{
			"bufferView":179,
			"componentType":5126,
			"count":2,
			"type":"VEC4"
		},
		{
			"bufferView":180,
			"componentType":5126,
			"count":2,
			"type":"VEC3"
		},
		{
			"bufferView":181,
			"componentType":5126,
			"count":2,
			"type":"VEC3"
		},
		{
			"bufferView":182,
			"componentType":5126,
			"count":25,
			"type":"VEC4"
		},
		{
			"bufferView":183,
			"componentType":5126,
			"count":2,
			"type":"VEC3"
		},
		{
			"bufferView":184,
			"componentType":5126,
			"count":2,
			"type":"VEC3"
		},
		{
			"bufferView":185,
			"componentType":5126,
			"count":2,
			"type":"VEC4"
		},
		{
			"bufferView":186,
			"componentType":5126,
			"count":2,
			"type":"VEC3"
		},
		{
			"bufferView":187,
			"componentType":5126,
			"count":2,
			"type":"VEC3"
		},
		{
			"bufferView":188,
			"componentType":5126,
			"count":25,
			"type":"VEC4"
		},
		{
			"bufferView":189,
			"componentType":5126,
			"count":2,
			"type":"VEC3"
		},
		{
			"bufferView":190,
			"componentType":5126,
			"count":2,
			"type":"VEC3"
		},
		{
			"bufferView":191,
			"componentType":5126,
			"count":25,
			"type":"VEC4"
		},
		{
			"bufferView":192,
			"componentType":5126,
			"count":2,
			"type":"VEC3"
		},
		{
			"bufferView":193,
			"componentType":5126,
			"count":2,
			"type":"VEC3"
		},
		{
			"bufferView":194,
			"componentType":5126,
			"count":2,
			"type":"VEC4"
		},
		{
			"bufferView":195,
			"componentType":5126,
			"count":2,
			"type":"VEC3"
		},
		{
			"bufferView":196,
			"componentType":5126,
			"count":2,
			"type":"VEC3"
		},
		{
			"bufferView":197,
			"componentType":5126,
			"count":25,
			"type":"VEC4"
		},
		{
			"bufferView":198,
			"componentType":5126,
			"count":2,
			"type":"VEC3"
		},
		{
			"bufferView":199,
			"componentType":5126,
			"count":2,
			"type":"VEC3"
		},
		{
			"bufferView":200,
			"componentType":5126,
			"count":25,
			"type":"VEC4"
		},
		{
			"bufferView":201,
			"componentType":5126,
			"count":2,
			"type":"VEC3"
		},
		{
			"bufferView":202,
			"componentType":5126,
			"count":2,
			"type":"VEC3"
		},
		{
			"bufferView":203,
			"componentType":5126,
			"count":2,
			"type":"VEC4"
		},
		{
			"bufferView":204,
			"componentType":5126,
			"count":2,
			"type":"VEC3"
		}
	],
	"bufferViews":[
		{
			"buffer":0,
			"byteLength":74568,
			"byteOffset":0,
			"target":34962
		},
		{
			"buffer":0,
			"byteLength":74568,
			"byteOffset":74568,
			"target":34962
		},
		{
			"buffer":0,
			"byteLength":49712,
			"byteOffset":149136,
			"target":34962
		},
		{
			"buffer":0,
			"byteLength":24856,
			"byteOffset":198848,
			"target":34962
		},
		{
			"buffer":0,
			"byteLength":99424,
			"byteOffset":223704,
			"target":34962
		},
		{
			"buffer":0,
			"byteLength":45900,
			"byteOffset":323128,
			"target":34963
		},
		{
			"buffer":0,
			"byteLength":7896,
			"byteOffset":369028,
			"target":34962
		},
		{
			"buffer":0,
			"byteLength":7896,
			"byteOffset":376924,
			"target":34962
		},
		{
			"buffer":0,
			"byteLength":5264,
			"byteOffset":384820,
			"target":34962
		},
		{
			"buffer":0,
			"byteLength":2632,
			"byteOffset":390084,
			"target":34962
		},
		{
			"buffer":0,
			"byteLength":10528,
			"byteOffset":392716,
			"target":34962
		},
		{
			"buffer":0,
			"byteLength":5136,
			"byteOffset":403244,
			"target":34963
		},
		{
			"buffer":0,
			"byteLength":2640,
			"byteOffset":408380,
			"target":34962
		},
		{
			"buffer":0,
			"byteLength":2640,
			"byteOffset":411020,
			"target":34962
		},
		{
			"buffer":0,
			"byteLength":1760,
			"byteOffset":413660,
			"target":34962
		},
		{
			"buffer":0,
			"byteLength":880,
			"byteOffset":415420,
			"target":34962
		},
		{
			"buffer":0,
			"byteLength":3520,
			"byteOffset":416300,
			"target":34962
		},
		{
			"buffer":0,
			"byteLength":1440,
			"byteOffset":419820,
			"target":34963
		},
		{
			"buffer":0,
			"byteLength":1320,
			"byteOffset":421260,
			"target":34962
		},
		{
			"buffer":0,
			"byteLength":1320,
			"byteOffset":422580,
			"target":34962
		},
		{
			"buffer":0,
			"byteLength":880,
			"byteOffset":423900,
			"target":34962
		},
		{
			"buffer":0,
			"byteLength":440,
			"byteOffset":424780,
			"target":34962
		},
		{
			"buffer":0,
			"byteLength":1760,
			"byteOffset":425220,
			"target":34962
		},
		{
			"buffer":0,
			"byteLength":720,
			"byteOffset":426980,
			"target":34963
		},
		{
			"buffer":0,
			"byteLength":816,
			"byteOffset":427700,
			"target":34962
		},
		{
			"buffer":0,
			"byteLength":816,
			"byteOffset":428516,
			"target":34962
		},
		{
			"buffer":0,
			"byteLength":544,
			"byteOffset":429332,
			"target":34962
		},
		{
			"buffer":0,
			"byteLength":272,
			"byteOffset":429876,
			"target":34962
		},
		{
			"buffer":0,
			"byteLength":1088,
			"byteOffset":430148,
			"target":34962
		},
		{
			"buffer":0,
			"byteLength":288,
			"byteOffset":431236,
			"target":34963
		},
		{
			"buffer":0,
			"byteLength":960,
			"byteOffset":431524,
			"target":34962
		},
		{
			"buffer":0,
			"byteLength":960,
			"byteOffset":432484,
			"target":34962
		},
		{
			"buffer":0,
			"byteLength":640,
			"byteOffset":433444,
			"target":34962
		},
		{
			"buffer":0,
			"byteLength":320,
			"byteOffset":434084,
			"target":34962
		},
		{
			"buffer":0,
			"byteLength":1280,
			"byteOffset":434404,
			"target":34962
		},
		{
			"buffer":0,
			"byteLength":480,
			"byteOffset":435684,
			"target":34963
		},
		{
			"buffer":0,
			"byteLength":1152,
			"byteOffset":436164
		},
		{
			"buffer":0,
			"byteLength":68,
			"byteOffset":437316
		},
		{
			"buffer":0,
			"byteLength":204,
			"byteOffset":437384
		},
		{
			"buffer":0,
			"byteLength":8,
			"byteOffset":437588
		},
		{
			"buffer":0,
			"byteLength":32,
			"byteOffset":437596
		},
		{
			"buffer":0,
			"byteLength":24,
			"byteOffset":437628
		},
		{
			"buffer":0,
			"byteLength":24,
			"byteOffset":437652
		},
		{
			"buffer":0,
			"byteLength":272,
			"byteOffset":437676
		},
		{
			"buffer":0,
			"byteLength":24,
			"byteOffset":437948
		},
		{
			"buffer":0,
			"byteLength":24,
			"byteOffset":437972
		},
		{
			"buffer":0,
			"byteLength":272,
			"byteOffset":437996
		},
		{
			"buffer":0,
			"byteLength":24,
			"byteOffset":438268
		},
		{
			"buffer":0,
			"byteLength":24,
			"byteOffset":438292
		},
		{
			"buffer":0,
			"byteLength":272,
			"byteOffset":438316
		},
		{
			"buffer":0,
			"byteLength":24,
			"byteOffset":438588
		},
		{
			"buffer":0,
			"byteLength":24,
			"byteOffset":438612
		},
		{
			"buffer":0,
			"byteLength":272,
			"byteOffset":438636
		},
		{
			"buffer":0,
			"byteLength":24,
			"byteOffset":438908
		},
		{
			"buffer":0,
			"byteLength":24,
			"byteOffset":438932
		},
		{
			"buffer":0,
			"byteLength":32,
			"byteOffset":438956
		},
		{
			"buffer":0,
			"byteLength":24,
			"byteOffset":438988
		},
		{
			"buffer":0,
			"byteLength":24,
			"byteOffset":439012
		},
		{
			"buffer":0,
			"byteLength":32,
			"byteOffset":439036
		},
		{
			"buffer":0,
			"byteLength":24,
			"byteOffset":439068
		},
		{
			"buffer":0,
			"byteLength":24,
			"byteOffset":439092
		},
		{
			"buffer":0,
			"byteLength":272,
			"byteOffset":439116
		},
		{
			"buffer":0,
			"byteLength":24,
			"byteOffset":439388
		},
		{
			"buffer":0,
			"byteLength":24,
			"byteOffset":439412
		},
		{
			"buffer":0,
			"byteLength":32,
			"byteOffset":439436
		},
		{
			"buffer":0,
			"byteLength":24,
			"byteOffset":439468
		},
		{
			"buffer":0,
			"byteLength":24,
			"byteOffset":439492
		},
		{
			"buffer":0,
			"byteLength":32,
			"byteOffset":439516
		},
		{
			"buffer":0,
			"byteLength":24,
			"byteOffset":439548
		},
		{
			"buffer":0,
			"byteLength":24,
			"byteOffset":439572
		},
		{
			"buffer":0,
			"byteLength":32,
			"byteOffset":439596
		},
		{
			"buffer":0,
			"byteLength":24,
			"byteOffset":439628
		},
		{
			"buffer":0,
			"byteLength":24,
			"byteOffset":439652
		},
		{
			"buffer":0,
			"byteLength":32,
			"byteOffset":439676
		},
		{
			"buffer":0,
			"byteLength":24,
			"byteOffset":439708
		},
		{
			"buffer":0,
			"byteLength":24,
			"byteOffset":439732
		},
		{
			"buffer":0,
			"byteLength":32,
			"byteOffset":439756
		},
		{
			"buffer":0,
			"byteLength":24,
			"byteOffset":439788
		},
		{
			"buffer":0,
			"byteLength":24,
			"byteOffset":439812
		},
		{
			"buffer":0,
			"byteLength":32,
			"byteOffset":439836
		},
		{
			"buffer":0,
			"byteLength":24,
			"byteOffset":439868
		},
		{
			"buffer":0,
			"byteLength":24,
			"byteOffset":439892
		},
		{
			"buffer":0,
			"byteLength":32,
			"byteOffset":439916
		},
		{
			"buffer":0,
			"byteLength":24,
			"byteOffset":439948
		},
		{
			"buffer":0,
			"byteLength":24,
			"byteOffset":439972
		},
		{
			"buffer":0,
			"byteLength":32,
			"byteOffset":439996
		},
		{
			"buffer":0,
			"byteLength":24,
			"byteOffset":440028
		},
		{
			"buffer":0,
			"byteLength":24,
			"byteOffset":440052
		},
		{
			"buffer":0,
			"byteLength":32,
			"byteOffset":440076
		},
		{
			"buffer":0,
			"byteLength":24,
			"byteOffset":440108
		},
		{
			"buffer":0,
			"byteLength":24,
			"byteOffset":440132
		},
		{
			"buffer":0,
			"byteLength":32,
			"byteOffset":440156
		},
		{
			"buffer":0,
			"byteLength":24,
			"byteOffset":440188
		},
		{
			"buffer":0,
			"byteLength":8,
			"byteOffset":440212
		},
		{
			"buffer":0,
			"byteLength":24,
			"byteOffset":440220
		},
		{
			"buffer":0,
			"byteLength":32,
			"byteOffset":440244
		},
		{
			"buffer":0,
			"byteLength":24,
			"byteOffset":440276
		},
		{
			"buffer":0,
			"byteLength":24,
			"byteOffset":440300
		},
		{
			"buffer":0,
			"byteLength":244,
			"byteOffset":440324
		},
		{
			"buffer":0,
			"byteLength":976,
			"byteOffset":440568
		},
		{
			"buffer":0,
			"byteLength":24,
			"byteOffset":441544
		},
		{
			"buffer":0,
			"byteLength":24,
			"byteOffset":441568
		},
		{
			"buffer":0,
			"byteLength":32,
			"byteOffset":441592
		},
		{
			"buffer":0,
			"byteLength":24,
			"byteOffset":441624
		},
		{
			"buffer":0,
			"byteLength":24,
			"byteOffset":441648
		},
		{
			"buffer":0,
			"byteLength":976,
			"byteOffset":441672
		},
		{
			"buffer":0,
			"byteLength":24,
			"byteOffset":442648
		},
		{
			"buffer":0,
			"byteLength":24,
			"byteOffset":442672
		},
		{
			"buffer":0,
			"byteLength":32,
			"byteOffset":442696
		},
		{
			"buffer":0,
			"byteLength":24,
			"byteOffset":442728
		},
		{
			"buffer":0,
			"byteLength":24,
			"byteOffset":442752
		},
		{
			"buffer":0,
			"byteLength":32,
			"byteOffset":442776
		},
		{
			"buffer":0,
			"byteLength":24,
			"byteOffset":442808
		},
		{
			"buffer":0,
			"byteLength":24,
			"byteOffset":442832
		},
		{
			"buffer":0,
			"byteLength":32,
			"byteOffset":442856
		},
		{
			"buffer":0,
			"byteLength":24,
			"byteOffset":442888
		},
		{
			"buffer":0,
			"byteLength":24,
			"byteOffset":442912
		},
		{
			"buffer":0,
			"byteLength":32,
			"byteOffset":442936
		},
		{
			"buffer":0,
			"byteLength":24,
			"byteOffset":442968
		},
		{
			"buffer":0,
			"byteLength":24,
			"byteOffset":442992
		},
		{
			"buffer":0,
			"byteLength":32,
			"byteOffset":443016
		},
		{
			"buffer":0,
			"byteLength":24,
			"byteOffset":443048
		},
		{
			"buffer":0,
			"byteLength":24,
			"byteOffset":443072
		},
		{
			"buffer":0,
			"byteLength":32,
			"byteOffset":443096
		},
		{
			"buffer":0,
			"byteLength":24,
			"byteOffset":443128
		},
		{
			"buffer":0,
			"byteLength":24,
			"byteOffset":443152
		},
		{
			"buffer":0,
			"byteLength":976,
			"byteOffset":443176
		},
		{
			"buffer":0,
			"byteLength":24,
			"byteOffset":444152
		},
		{
			"buffer":0,
			"byteLength":24,
			"byteOffset":444176
		},
		{
			"buffer":0,
			"byteLength":976,
			"byteOffset":444200
		},
		{
			"buffer":0,
			"byteLength":24,
			"byteOffset":445176
		},
		{
			"buffer":0,
			"byteLength":24,
			"byteOffset":445200
		},
		{
			"buffer":0,
			"byteLength":32,
			"byteOffset":445224
		},
		{
			"buffer":0,
			"byteLength":24,
			"byteOffset":445256
		},
		{
			"buffer":0,
			"byteLength":24,
			"byteOffset":445280
		},
		{
			"buffer":0,
			"byteLength":32,
			"byteOffset":445304
		},
		{
			"buffer":0,
			"byteLength":24,
			"byteOffset":445336
		},
		{
			"buffer":0,
			"byteLength":24,
			"byteOffset":445360
		},
		{
			"buffer":0,
			"byteLength":32,
			"byteOffset":445384
		},
		{
			"buffer":0,
			"byteLength":24,
			"byteOffset":445416
		},
		{
			"buffer":0,
			"byteLength":24,
			"byteOffset":445440
		},
		{
			"buffer":0,
			"byteLength":32,
			"byteOffset":445464
		},
		{
			"buffer":0,
			"byteLength":24,
			"byteOffset":445496
		},
		{
			"buffer":0,
			"byteLength":24,
			"byteOffset":445520
		},
		{
			"buffer":0,
			"byteLength":32,
			"byteOffset":445544
		},
		{
			"buffer":0,
			"byteLength":24,
			"byteOffset":445576
		},
		{
			"buffer":0,
			"byteLength":24,
			"byteOffset":445600
		},
		{
			"buffer":0,
			"byteLength":32,
			"byteOffset":445624
		},
		{
			"buffer":0,
			"byteLength":24,
			"byteOffset":445656
		},
		{
			"buffer":0,
			"byteLength":100,
			"byteOffset":445680
		},
		{
			"buffer":0,
			"byteLength":300,
			"byteOffset":445780
		},
		{
			"buffer":0,
			"byteLength":8,
			"byteOffset":446080
		},
		{
			"buffer":0,
			"byteLength":32,
			"byteOffset":446088
		},
		{
			"buffer":0,
			"byteLength":24,
			"byteOffset":446120
		},
		{
			"buffer":0,
			"byteLength":24,
			"byteOffset":446144
		},
		{
			"buffer":0,
			"byteLength":32,
			"byteOffset":446168
		},
		{
			"buffer":0,
			"byteLength":24,
			"byteOffset":446200
		},
		{
			"buffer":0,
			"byteLength":24,
			"byteOffset":446224
		},
		{
			"buffer":0,
			"byteLength":32,
			"byteOffset":446248
		},
		{
			"buffer":0,
			"byteLength":24,
			"byteOffset":446280
		},
		{
			"buffer":0,
			"byteLength":24,
			"byteOffset":446304
		},
		{
			"buffer":0,
			"byteLength":400,
			"byteOffset":446328
		},
		{
			"buffer":0,
			"byteLength":24,
			"byteOffset":446728
		},
		{
			"buffer":0,
			"byteLength":24,
			"byteOffset":446752
		},
		{
			"buffer":0,
			"byteLength":400,
			"byteOffset":446776
		},
		{
			"buffer":0,
			"byteLength":24,
			"byteOffset":447176
		},
		{
			"buffer":0,
			"byteLength":24,
			"byteOffset":447200
		},
		{
			"buffer":0,
			"byteLength":400,
			"byteOffset":447224
		},
		{
			"buffer":0,
			"byteLength":24,
			"byteOffset":447624
		},
		{
			"buffer":0,
			"byteLength":24,
			"byteOffset":447648
		},
		{
			"buffer":0,
			"byteLength":32,
			"byteOffset":447672
		},
		{
			"buffer":0,
			"byteLength":24,
			"byteOffset":447704
		},
		{
			"buffer":0,
			"byteLength":24,
			"byteOffset":447728
		},
		{
			"buffer":0,
			"byteLength":400,
			"byteOffset":447752
		},
		{
			"buffer":0,
			"byteLength":24,
			"byteOffset":448152
		},
		{
			"buffer":0,
			"byteLength":24,
			"byteOffset":448176
		},
		{
			"buffer":0,
			"byteLength":400,
			"byteOffset":448200
		},
		{
			"buffer":0,
			"byteLength":24,
			"byteOffset":448600
		},
		{
			"buffer":0,
			"byteLength":24,
			"byteOffset":448624
		},
		{
			"buffer":0,
			"byteLength":32,
			"byteOffset":448648
		},
		{
			"buffer":0,
			"byteLength":24,
			"byteOffset":448680
		},
		{
			"buffer":0,
			"byteLength":24,
			"byteOffset":448704
		},
		{
			"buffer":0,
			"byteLength":400,
			"byteOffset":448728
		},
		{
			"buffer":0,
			"byteLength":24,
			"byteOffset":449128
		},
		{
			"buffer":0,
			"byteLength":24,
			"byteOffset":449152
		},
		{
			"buffer":0,
			"byteLength":32,
			"byteOffset":449176
		},
		{
			"buffer":0,
			"byteLength":24,
			"byteOffset":449208
		},
		{
			"buffer":0,
			"byteLength":24,
			"byteOffset":449232
		},
		{
			"buffer":0,
			"byteLength":400,
			"byteOffset":449256
		},
		{
			"buffer":0,
			"byteLength":24,
			"byteOffset":449656
		},
		{
			"buffer":0,
			"byteLength":24,
			"byteOffset":449680
		},
		{
			"buffer":0,
			"byteLength":400,
			"byteOffset":449704
		},
		{
			"buffer":0,
			"byteLength":24,
			"byteOffset":450104
		},
		{
			"buffer":0,
			"byteLength":24,
			"byteOffset":450128
		},
		{
			"buffer":0,
			"byteLength":32,
			"byteOffset":450152
		},
		{
			"buffer":0,
			"byteLength":24,
			"byteOffset":450184
		},
		{
			"buffer":0,
			"byteLength":24,
			"byteOffset":450208
		},
		{
			"buffer":0,
			"byteLength":400,
			"byteOffset":450232
		},
		{
			"buffer":0,
			"byteLength":24,
			"byteOffset":450632
		},
		{
			"buffer":0,
			"byteLength":24,
			"byteOffset":450656
		},
		{
			"buffer":0,
			"byteLength":400,
			"byteOffset":450680
		},
		{
			"buffer":0,
			"byteLength":24,
			"byteOffset":451080
		},
		{
			"buffer":0,
			"byteLength":24,
			"byteOffset":451104
		},
		{
			"buffer":0,
			"byteLength":32,
			"byteOffset":451128
		},
		{
			"buffer":0,
			"byteLength":24,
			"byteOffset":451160
		}
	],
	"samplers":[
		{
			"magFilter":9729,
			"minFilter":9987
		}
	],
	"buffers":[
		{
			"byteLength":451184,
			"uri":"wolf.bin"
		}
	]
}
