{
	"asset":{
		"generator":"Khronos glTF Blender I/O v4.2.57",
		"version":"2.0"
	},
	"extensionsUsed":[
		"KHR_materials_clearcoat",
		"KHR_materials_sheen"
	],
	"scene":0,
	"scenes":[
		{
			"name":"Scene",
			"nodes":[
				18
			]
		}
	],
	"nodes":[
		{
			"name":"head",
			"translation":[
				0,
				0.0979999303817749,
				0
			]
		},
		{
			"children":[
				0
			],
			"name":"neck",
			"translation":[
				0,
				0.20580005645751953,
				0
			]
		},
		{
			"name":"hand.R",
			"rotation":[
				-0.0028319063130766153,
				-0.020585451275110245,
				0.022130046039819717,
				0.9995391368865967
			],
			"scale":[
				1.0000001192092896,
				1.0000001192092896,
				1
			],
			"translation":[
				3.8475263863801956e-08,
				0.24669232964515686,
				-4.6566128730773926e-09
			]
		},
		{
			"children":[
				2
			],
			"name":"forearm.R",
			"rotation":[
				0.047868046909570694,
				-0.06073939427733421,
				0.07015369832515717,
				0.9945340156555176
			],
			"scale":[
				1,
				0.9999999403953552,
				1
			],
			"translation":[
				-1.1408701539039612e-08,
				0.2707725167274475,
				-9.313225746154785e-10
			]
		},
		{
			"children":[
				3
			],
			"name":"upper_arm.R",
			"rotation":[
				0.9885599613189697,
				0.10654313117265701,
				0.10654231905937195,
				0.006823011673986912
			],
			"scale":[
				1.0000053644180298,
				1.0000003576278687,
				1.0000001192092896
			],
			"translation":[
				0.21168000996112823,
				0.15679991245269775,
				0
			]
		},
		{
			"name":"hand.L",
			"rotation":[
				-0.0028319063130766153,
				0.020585451275110245,
				-0.022130046039819717,
				0.9995391368865967
			],
			"scale":[
				1.0000001192092896,
				1.0000001192092896,
				1
			],
			"translation":[
				-3.8475263863801956e-08,
				0.24669232964515686,
				-4.6566128730773926e-09
			]
		},
		{
			"children":[
				5
			],
			"name":"forearm.L",
			"rotation":[
				0.047868046909570694,
				0.06073939427733421,
				-0.07015369832515717,
				0.9945340156555176
			],
			"scale":[
				1,
				0.9999999403953552,
				1
			],
			"translation":[
				1.1408701539039612e-08,
				0.2707725167274475,
				-9.313225746154785e-10
			]
		},
		{
			"children":[
				6
			],
			"name":"upper_arm.L",
			"rotation":[
				0.9885599613189697,
				-0.10654313117265701,
				-0.10654231905937195,
				0.006823011673986912
			],
			"scale":[
				1.0000053644180298,
				1.0000003576278687,
				1.0000001192092896
			],
			"translation":[
				-0.21168000996112823,
				0.15679991245269775,
				0
			]
		},
		{
			"children":[
				1,
				4,
				7
			],
			"name":"chest",
			"translation":[
				0,
				0.16659998893737793,
				0
			]
		},
		{
			"children":[
				8
			],
			"name":"spine",
			"translation":[
				0,
				0.1470000147819519,
				0
			]
		},
		{
			"name":"foot.R",
			"rotation":[
				0.5914180874824524,
				-1.77737258244548e-09,
				7.261086731880084e-10,
				0.8063651323318481
			],
			"translation":[
				-2.7474911235003674e-11,
				0.40237799286842346,
				1.9094059666713292e-11
			]
		},
		{
			"children":[
				10
			],
			"name":"shin.R",
			"rotation":[
				-0.041510097682476044,
				-0.00986463576555252,
				0.009349505417048931,
				0.9990456700325012
			],
			"scale":[
				0.9999999403953552,
				1,
				1
			],
			"translation":[
				-2.852175384759903e-09,
				0.4020485281944275,
				2.0954757928848267e-09
			]
		},
		{
			"children":[
				11
			],
			"name":"thigh.R",
			"rotation":[
				-0.9997993111610413,
				-0.009610523469746113,
				-0.009610597975552082,
				0.014720411971211433
			],
			"scale":[
				1.0000001192092896,
				1.0000001192092896,
				1.0000003576278687
			],
			"translation":[
				0.09016000479459763,
				-0.019599974155426025,
				0
			]
		},
		{
			"name":"foot.L",
			"rotation":[
				0.5914180874824524,
				1.77737258244548e-09,
				-7.261086731880084e-10,
				0.8063651323318481
			],
			"translation":[
				2.7474911235003674e-11,
				0.40237799286842346,
				1.9094059666713292e-11
			]
		},
		{
			"children":[
				13
			],
			"name":"shin.L",
			"rotation":[
				-0.041510097682476044,
				0.00986463576555252,
				-0.009349505417048931,
				0.9990456700325012
			],
			"scale":[
				0.9999999403953552,
				1,
				1
			],
			"translation":[
				2.852175384759903e-09,
				0.4020485281944275,
				2.0954757928848267e-09
			]
		},
		{
			"children":[
				14
			],
			"name":"thigh.L",
			"rotation":[
				-0.9997993111610413,
				0.009610523469746113,
				0.009610597975552082,
				0.014720411971211433
			],
			"scale":[
				1.0000001192092896,
				1.0000001192092896,
				1.0000003576278687
			],
			"translation":[
				-0.09016000479459763,
				-0.019599974155426025,
				0
			]
		},
		{
			"children":[
				9,
				12,
				15
			],
			"name":"hips",
			"translation":[
				0,
				0.9114000201225281,
				0
			]
		},
		{
			"mesh":0,
			"name":"yuuki",
			"skin":0
		},
		{
			"children":[
				17,
				16
			],
			"name":"yuuki_rig"
		}
	],
	"animations":[
		{
			"channels":[
				{
					"sampler":0,
					"target":{
						"node":16,
						"path":"translation"
					}
				},
				{
					"sampler":1,
					"target":{
						"node":16,
						"path":"rotation"
					}
				},
				{
					"sampler":2,
					"target":{
						"node":16,
						"path":"scale"
					}
				},
				{
					"sampler":3,
					"target":{
						"node":9,
						"path":"translation"
					}
				},
				{
					"sampler":4,
					"target":{
						"node":9,
						"path":"rotation"
					}
				},
				{
					"sampler":5,
					"target":{
						"node":9,
						"path":"scale"
					}
				},
				{
					"sampler":6,
					"target":{
						"node":8,
						"path":"translation"
					}
				},
				{
					"sampler":7,
					"target":{
						"node":8,
						"path":"rotation"
					}
				},
				{
					"sampler":8,
					"target":{
						"node":8,
						"path":"scale"
					}
				},
				{
					"sampler":9,
					"target":{
						"node":1,
						"path":"translation"
					}
				},
				{
					"sampler":10,
					"target":{
						"node":1,
						"path":"rotation"
					}
				},
				{
					"sampler":11,
					"target":{
						"node":1,
						"path":"scale"
					}
				},
				{
					"sampler":12,
					"target":{
						"node":0,
						"path":"translation"
					}
				},
				{
					"sampler":13,
					"target":{
						"node":0,
						"path":"rotation"
					}
				},
				{
					"sampler":14,
					"target":{
						"node":0,
						"path":"scale"
					}
				},
				{
					"sampler":15,
					"target":{
						"node":4,
						"path":"translation"
					}
				},
				{
					"sampler":16,
					"target":{
						"node":4,
						"path":"rotation"
					}
				},
				{
					"sampler":17,
					"target":{
						"node":4,
						"path":"scale"
					}
				},
				{
					"sampler":18,
					"target":{
						"node":3,
						"path":"translation"
					}
				},
				{
					"sampler":19,
					"target":{
						"node":3,
						"path":"rotation"
					}
				},
				{
					"sampler":20,
					"target":{
						"node":3,
						"path":"scale"
					}
				},
				{
					"sampler":21,
					"target":{
						"node":2,
						"path":"translation"
					}
				},
				{
					"sampler":22,
					"target":{
						"node":2,
						"path":"rotation"
					}
				},
				{
					"sampler":23,
					"target":{
						"node":2,
						"path":"scale"
					}
				},
				{
					"sampler":24,
					"target":{
						"node":7,
						"path":"translation"
					}
				},
				{
					"sampler":25,
					"target":{
						"node":7,
						"path":"rotation"
					}
				},
				{
					"sampler":26,
					"target":{
						"node":7,
						"path":"scale"
					}
				},
				{
					"sampler":27,
					"target":{
						"node":6,
						"path":"translation"
					}
				},
				{
					"sampler":28,
					"target":{
						"node":6,
						"path":"rotation"
					}
				},
				{
					"sampler":29,
					"target":{
						"node":6,
						"path":"scale"
					}
				},
				{
					"sampler":30,
					"target":{
						"node":5,
						"path":"translation"
					}
				},
				{
					"sampler":31,
					"target":{
						"node":5,
						"path":"rotation"
					}
				},
				{
					"sampler":32,
					"target":{
						"node":5,
						"path":"scale"
					}
				},
				{
					"sampler":33,
					"target":{
						"node":12,
						"path":"translation"
					}
				},
				{
					"sampler":34,
					"target":{
						"node":12,
						"path":"rotation"
					}
				},
				{
					"sampler":35,
					"target":{
						"node":12,
						"path":"scale"
					}
				},
				{
					"sampler":36,
					"target":{
						"node":11,
						"path":"translation"
					}
				},
				{
					"sampler":37,
					"target":{
						"node":11,
						"path":"rotation"
					}
				},
				{
					"sampler":38,
					"target":{
						"node":11,
						"path":"scale"
					}
				},
				{
					"sampler":39,
					"target":{
						"node":10,
						"path":"translation"
					}
				},
				{
					"sampler":40,
					"target":{
						"node":10,
						"path":"rotation"
					}
				},
				{
					"sampler":41,
					"target":{
						"node":10,
						"path":"scale"
					}
				},
				{
					"sampler":42,
					"target":{
						"node":15,
						"path":"translation"
					}
				},
				{
					"sampler":43,
					"target":{
						"node":15,
						"path":"rotation"
					}
				},
				{
					"sampler":44,
					"target":{
						"node":15,
						"path":"scale"
					}
				},
				{
					"sampler":45,
					"target":{
						"node":14,
						"path":"translation"
					}
				},
				{
					"sampler":46,
					"target":{
						"node":14,
						"path":"rotation"
					}
				},
				{
					"sampler":47,
					"target":{
						"node":14,
						"path":"scale"
					}
				},
				{
					"sampler":48,
					"target":{
						"node":13,
						"path":"translation"
					}
				},
				{
					"sampler":49,
					"target":{
						"node":13,
						"path":"rotation"
					}
				},
				{
					"sampler":50,
					"target":{
						"node":13,
						"path":"scale"
					}
				}
			],
			"name":"attack",
			"samplers":[
				{
					"input":67,
					"interpolation":"STEP",
					"output":68
				},
				{
					"input":67,
					"interpolation":"STEP",
					"output":69
				},
				{
					"input":67,
					"interpolation":"STEP",
					"output":70
				},
				{
					"input":67,
					"interpolation":"STEP",
					"output":71
				},
				{
					"input":67,
					"interpolation":"STEP",
					"output":72
				},
				{
					"input":67,
					"interpolation":"STEP",
					"output":73
				},
				{
					"input":67,
					"interpolation":"STEP",
					"output":74
				},
				{
					"input":75,
					"interpolation":"LINEAR",
					"output":76
				},
				{
					"input":67,
					"interpolation":"STEP",
					"output":77
				},
				{
					"input":67,
					"interpolation":"STEP",
					"output":78
				},
				{
					"input":67,
					"interpolation":"STEP",
					"output":79
				},
				{
					"input":67,
					"interpolation":"STEP",
					"output":80
				},
				{
					"input":67,
					"interpolation":"STEP",
					"output":81
				},
				{
					"input":67,
					"interpolation":"STEP",
					"output":82
				},
				{
					"input":67,
					"interpolation":"STEP",
					"output":83
				},
				{
					"input":67,
					"interpolation":"STEP",
					"output":84
				},
				{
					"input":75,
					"interpolation":"LINEAR",
					"output":85
				},
				{
					"input":67,
					"interpolation":"STEP",
					"output":86
				},
				{
					"input":67,
					"interpolation":"LINEAR",
					"output":87
				},
				{
					"input":75,
					"interpolation":"LINEAR",
					"output":88
				},
				{
					"input":67,
					"interpolation":"STEP",
					"output":89
				},
				{
					"input":67,
					"interpolation":"STEP",
					"output":90
				},
				{
					"input":67,
					"interpolation":"STEP",
					"output":91
				},
				{
					"input":67,
					"interpolation":"STEP",
					"output":92
				},
				{
					"input":67,
					"interpolation":"STEP",
					"output":93
				},
				{
					"input":75,
					"interpolation":"LINEAR",
					"output":94
				},
				{
					"input":67,
					"interpolation":"STEP",
					"output":95
				},
				{
					"input":67,
					"interpolation":"STEP",
					"output":96
				},
				{
					"input":67,
					"interpolation":"STEP",
					"output":97
				},
				{
					"input":67,
					"interpolation":"STEP",
					"output":98
				},
				{
					"input":67,
					"interpolation":"STEP",
					"output":99
				},
				{
					"input":67,
					"interpolation":"STEP",
					"output":100
				},
				{
					"input":67,
					"interpolation":"STEP",
					"output":101
				},
				{
					"input":67,
					"interpolation":"STEP",
					"output":102
				},
				{
					"input":75,
					"interpolation":"LINEAR",
					"output":103
				},
				{
					"input":67,
					"interpolation":"STEP",
					"output":104
				},
				{
					"input":67,
					"interpolation":"LINEAR",
					"output":105
				},
				{
					"input":67,
					"interpolation":"LINEAR",
					"output":106
				},
				{
					"input":67,
					"interpolation":"STEP",
					"output":107
				},
				{
					"input":67,
					"interpolation":"LINEAR",
					"output":108
				},
				{
					"input":67,
					"interpolation":"LINEAR",
					"output":109
				},
				{
					"input":67,
					"interpolation":"STEP",
					"output":110
				},
				{
					"input":67,
					"interpolation":"STEP",
					"output":111
				},
				{
					"input":75,
					"interpolation":"LINEAR",
					"output":112
				},
				{
					"input":67,
					"interpolation":"STEP",
					"output":113
				},
				{
					"input":67,
					"interpolation":"LINEAR",
					"output":114
				},
				{
					"input":67,
					"interpolation":"LINEAR",
					"output":115
				},
				{
					"input":67,
					"interpolation":"STEP",
					"output":116
				},
				{
					"input":67,
					"interpolation":"LINEAR",
					"output":117
				},
				{
					"input":67,
					"interpolation":"LINEAR",
					"output":118
				},
				{
					"input":67,
					"interpolation":"STEP",
					"output":119
				}
			]
		},
		{
			"channels":[
				{
					"sampler":0,
					"target":{
						"node":16,
						"path":"translation"
					}
				},
				{
					"sampler":1,
					"target":{
						"node":16,
						"path":"rotation"
					}
				},
				{
					"sampler":2,
					"target":{
						"node":16,
						"path":"scale"
					}
				},
				{
					"sampler":3,
					"target":{
						"node":9,
						"path":"translation"
					}
				},
				{
					"sampler":4,
					"target":{
						"node":9,
						"path":"rotation"
					}
				},
				{
					"sampler":5,
					"target":{
						"node":9,
						"path":"scale"
					}
				},
				{
					"sampler":6,
					"target":{
						"node":8,
						"path":"translation"
					}
				},
				{
					"sampler":7,
					"target":{
						"node":8,
						"path":"rotation"
					}
				},
				{
					"sampler":8,
					"target":{
						"node":8,
						"path":"scale"
					}
				},
				{
					"sampler":9,
					"target":{
						"node":1,
						"path":"translation"
					}
				},
				{
					"sampler":10,
					"target":{
						"node":1,
						"path":"rotation"
					}
				},
				{
					"sampler":11,
					"target":{
						"node":1,
						"path":"scale"
					}
				},
				{
					"sampler":12,
					"target":{
						"node":0,
						"path":"translation"
					}
				},
				{
					"sampler":13,
					"target":{
						"node":0,
						"path":"rotation"
					}
				},
				{
					"sampler":14,
					"target":{
						"node":0,
						"path":"scale"
					}
				},
				{
					"sampler":15,
					"target":{
						"node":4,
						"path":"translation"
					}
				},
				{
					"sampler":16,
					"target":{
						"node":4,
						"path":"rotation"
					}
				},
				{
					"sampler":17,
					"target":{
						"node":4,
						"path":"scale"
					}
				},
				{
					"sampler":18,
					"target":{
						"node":3,
						"path":"translation"
					}
				},
				{
					"sampler":19,
					"target":{
						"node":3,
						"path":"rotation"
					}
				},
				{
					"sampler":20,
					"target":{
						"node":3,
						"path":"scale"
					}
				},
				{
					"sampler":21,
					"target":{
						"node":2,
						"path":"translation"
					}
				},
				{
					"sampler":22,
					"target":{
						"node":2,
						"path":"rotation"
					}
				},
				{
					"sampler":23,
					"target":{
						"node":2,
						"path":"scale"
					}
				},
				{
					"sampler":24,
					"target":{
						"node":7,
						"path":"translation"
					}
				},
				{
					"sampler":25,
					"target":{
						"node":7,
						"path":"rotation"
					}
				},
				{
					"sampler":26,
					"target":{
						"node":7,
						"path":"scale"
					}
				},
				{
					"sampler":27,
					"target":{
						"node":6,
						"path":"translation"
					}
				},
				{
					"sampler":28,
					"target":{
						"node":6,
						"path":"rotation"
					}
				},
				{
					"sampler":29,
					"target":{
						"node":6,
						"path":"scale"
					}
				},
				{
					"sampler":30,
					"target":{
						"node":5,
						"path":"translation"
					}
				},
				{
					"sampler":31,
					"target":{
						"node":5,
						"path":"rotation"
					}
				},
				{
					"sampler":32,
					"target":{
						"node":5,
						"path":"scale"
					}
				},
				{
					"sampler":33,
					"target":{
						"node":12,
						"path":"translation"
					}
				},
				{
					"sampler":34,
					"target":{
						"node":12,
						"path":"rotation"
					}
				},
				{
					"sampler":35,
					"target":{
						"node":12,
						"path":"scale"
					}
				},
				{
					"sampler":36,
					"target":{
						"node":11,
						"path":"translation"
					}
				},
				{
					"sampler":37,
					"target":{
						"node":11,
						"path":"rotation"
					}
				},
				{
					"sampler":38,
					"target":{
						"node":11,
						"path":"scale"
					}
				},
				{
					"sampler":39,
					"target":{
						"node":10,
						"path":"translation"
					}
				},
				{
					"sampler":40,
					"target":{
						"node":10,
						"path":"rotation"
					}
				},
				{
					"sampler":41,
					"target":{
						"node":10,
						"path":"scale"
					}
				},
				{
					"sampler":42,
					"target":{
						"node":15,
						"path":"translation"
					}
				},
				{
					"sampler":43,
					"target":{
						"node":15,
						"path":"rotation"
					}
				},
				{
					"sampler":44,
					"target":{
						"node":15,
						"path":"scale"
					}
				},
				{
					"sampler":45,
					"target":{
						"node":14,
						"path":"translation"
					}
				},
				{
					"sampler":46,
					"target":{
						"node":14,
						"path":"rotation"
					}
				},
				{
					"sampler":47,
					"target":{
						"node":14,
						"path":"scale"
					}
				},
				{
					"sampler":48,
					"target":{
						"node":13,
						"path":"translation"
					}
				},
				{
					"sampler":49,
					"target":{
						"node":13,
						"path":"rotation"
					}
				},
				{
					"sampler":50,
					"target":{
						"node":13,
						"path":"scale"
					}
				}
			],
			"name":"idle",
			"samplers":[
				{
					"input":120,
					"interpolation":"LINEAR",
					"output":121
				},
				{
					"input":122,
					"interpolation":"STEP",
					"output":123
				},
				{
					"input":122,
					"interpolation":"STEP",
					"output":124
				},
				{
					"input":122,
					"interpolation":"STEP",
					"output":125
				},
				{
					"input":122,
					"interpolation":"STEP",
					"output":126
				},
				{
					"input":122,
					"interpolation":"STEP",
					"output":127
				},
				{
					"input":122,
					"interpolation":"STEP",
					"output":128
				},
				{
					"input":120,
					"interpolation":"LINEAR",
					"output":129
				},
				{
					"input":122,
					"interpolation":"STEP",
					"output":130
				},
				{
					"input":122,
					"interpolation":"STEP",
					"output":131
				},
				{
					"input":122,
					"interpolation":"STEP",
					"output":132
				},
				{
					"input":122,
					"interpolation":"STEP",
					"output":133
				},
				{
					"input":122,
					"interpolation":"STEP",
					"output":134
				},
				{
					"input":120,
					"interpolation":"LINEAR",
					"output":135
				},
				{
					"input":122,
					"interpolation":"STEP",
					"output":136
				},
				{
					"input":122,
					"interpolation":"STEP",
					"output":137
				},
				{
					"input":120,
					"interpolation":"LINEAR",
					"output":138
				},
				{
					"input":122,
					"interpolation":"STEP",
					"output":139
				},
				{
					"input":122,
					"interpolation":"STEP",
					"output":140
				},
				{
					"input":122,
					"interpolation":"STEP",
					"output":141
				},
				{
					"input":122,
					"interpolation":"STEP",
					"output":142
				},
				{
					"input":122,
					"interpolation":"STEP",
					"output":143
				},
				{
					"input":122,
					"interpolation":"STEP",
					"output":144
				},
				{
					"input":122,
					"interpolation":"STEP",
					"output":145
				},
				{
					"input":122,
					"interpolation":"STEP",
					"output":146
				},
				{
					"input":120,
					"interpolation":"LINEAR",
					"output":147
				},
				{
					"input":122,
					"interpolation":"STEP",
					"output":148
				},
				{
					"input":122,
					"interpolation":"STEP",
					"output":149
				},
				{
					"input":122,
					"interpolation":"STEP",
					"output":150
				},
				{
					"input":122,
					"interpolation":"STEP",
					"output":151
				},
				{
					"input":122,
					"interpolation":"STEP",
					"output":152
				},
				{
					"input":122,
					"interpolation":"STEP",
					"output":153
				},
				{
					"input":122,
					"interpolation":"STEP",
					"output":154
				},
				{
					"input":122,
					"interpolation":"STEP",
					"output":155
				},
				{
					"input":122,
					"interpolation":"STEP",
					"output":156
				},
				{
					"input":122,
					"interpolation":"STEP",
					"output":157
				},
				{
					"input":122,
					"interpolation":"STEP",
					"output":158
				},
				{
					"input":122,
					"interpolation":"STEP",
					"output":159
				},
				{
					"input":122,
					"interpolation":"STEP",
					"output":160
				},
				{
					"input":122,
					"interpolation":"STEP",
					"output":161
				},
				{
					"input":122,
					"interpolation":"STEP",
					"output":162
				},
				{
					"input":122,
					"interpolation":"STEP",
					"output":163
				},
				{
					"input":122,
					"interpolation":"STEP",
					"output":164
				},
				{
					"input":122,
					"interpolation":"STEP",
					"output":165
				},
				{
					"input":122,
					"interpolation":"STEP",
					"output":166
				},
				{
					"input":122,
					"interpolation":"STEP",
					"output":167
				},
				{
					"input":122,
					"interpolation":"STEP",
					"output":168
				},
				{
					"input":122,
					"interpolation":"STEP",
					"output":169
				},
				{
					"input":122,
					"interpolation":"STEP",
					"output":170
				},
				{
					"input":122,
					"interpolation":"STEP",
					"output":171
				},
				{
					"input":122,
					"interpolation":"STEP",
					"output":172
				}
			]
		},
		{
			"channels":[
				{
					"sampler":0,
					"target":{
						"node":16,
						"path":"translation"
					}
				},
				{
					"sampler":1,
					"target":{
						"node":16,
						"path":"rotation"
					}
				},
				{
					"sampler":2,
					"target":{
						"node":16,
						"path":"scale"
					}
				},
				{
					"sampler":3,
					"target":{
						"node":9,
						"path":"translation"
					}
				},
				{
					"sampler":4,
					"target":{
						"node":9,
						"path":"rotation"
					}
				},
				{
					"sampler":5,
					"target":{
						"node":9,
						"path":"scale"
					}
				},
				{
					"sampler":6,
					"target":{
						"node":8,
						"path":"translation"
					}
				},
				{
					"sampler":7,
					"target":{
						"node":8,
						"path":"rotation"
					}
				},
				{
					"sampler":8,
					"target":{
						"node":8,
						"path":"scale"
					}
				},
				{
					"sampler":9,
					"target":{
						"node":1,
						"path":"translation"
					}
				},
				{
					"sampler":10,
					"target":{
						"node":1,
						"path":"rotation"
					}
				},
				{
					"sampler":11,
					"target":{
						"node":1,
						"path":"scale"
					}
				},
				{
					"sampler":12,
					"target":{
						"node":0,
						"path":"translation"
					}
				},
				{
					"sampler":13,
					"target":{
						"node":0,
						"path":"rotation"
					}
				},
				{
					"sampler":14,
					"target":{
						"node":0,
						"path":"scale"
					}
				},
				{
					"sampler":15,
					"target":{
						"node":4,
						"path":"translation"
					}
				},
				{
					"sampler":16,
					"target":{
						"node":4,
						"path":"rotation"
					}
				},
				{
					"sampler":17,
					"target":{
						"node":4,
						"path":"scale"
					}
				},
				{
					"sampler":18,
					"target":{
						"node":3,
						"path":"translation"
					}
				},
				{
					"sampler":19,
					"target":{
						"node":3,
						"path":"rotation"
					}
				},
				{
					"sampler":20,
					"target":{
						"node":3,
						"path":"scale"
					}
				},
				{
					"sampler":21,
					"target":{
						"node":2,
						"path":"translation"
					}
				},
				{
					"sampler":22,
					"target":{
						"node":2,
						"path":"rotation"
					}
				},
				{
					"sampler":23,
					"target":{
						"node":2,
						"path":"scale"
					}
				},
				{
					"sampler":24,
					"target":{
						"node":7,
						"path":"translation"
					}
				},
				{
					"sampler":25,
					"target":{
						"node":7,
						"path":"rotation"
					}
				},
				{
					"sampler":26,
					"target":{
						"node":7,
						"path":"scale"
					}
				},
				{
					"sampler":27,
					"target":{
						"node":6,
						"path":"translation"
					}
				},
				{
					"sampler":28,
					"target":{
						"node":6,
						"path":"rotation"
					}
				},
				{
					"sampler":29,
					"target":{
						"node":6,
						"path":"scale"
					}
				},
				{
					"sampler":30,
					"target":{
						"node":5,
						"path":"translation"
					}
				},
				{
					"sampler":31,
					"target":{
						"node":5,
						"path":"rotation"
					}
				},
				{
					"sampler":32,
					"target":{
						"node":5,
						"path":"scale"
					}
				},
				{
					"sampler":33,
					"target":{
						"node":12,
						"path":"translation"
					}
				},
				{
					"sampler":34,
					"target":{
						"node":12,
						"path":"rotation"
					}
				},
				{
					"sampler":35,
					"target":{
						"node":12,
						"path":"scale"
					}
				},
				{
					"sampler":36,
					"target":{
						"node":11,
						"path":"translation"
					}
				},
				{
					"sampler":37,
					"target":{
						"node":11,
						"path":"rotation"
					}
				},
				{
					"sampler":38,
					"target":{
						"node":11,
						"path":"scale"
					}
				},
				{
					"sampler":39,
					"target":{
						"node":10,
						"path":"translation"
					}
				},
				{
					"sampler":40,
					"target":{
						"node":10,
						"path":"rotation"
					}
				},
				{
					"sampler":41,
					"target":{
						"node":10,
						"path":"scale"
					}
				},
				{
					"sampler":42,
					"target":{
						"node":15,
						"path":"translation"
					}
				},
				{
					"sampler":43,
					"target":{
						"node":15,
						"path":"rotation"
					}
				},
				{
					"sampler":44,
					"target":{
						"node":15,
						"path":"scale"
					}
				},
				{
					"sampler":45,
					"target":{
						"node":14,
						"path":"translation"
					}
				},
				{
					"sampler":46,
					"target":{
						"node":14,
						"path":"rotation"
					}
				},
				{
					"sampler":47,
					"target":{
						"node":14,
						"path":"scale"
					}
				},
				{
					"sampler":48,
					"target":{
						"node":13,
						"path":"translation"
					}
				},
				{
					"sampler":49,
					"target":{
						"node":13,
						"path":"rotation"
					}
				},
				{
					"sampler":50,
					"target":{
						"node":13,
						"path":"scale"
					}
				}
			],
			"name":"walk",
			"samplers":[
				{
					"input":173,
					"interpolation":"LINEAR",
					"output":174
				},
				{
					"input":173,
					"interpolation":"LINEAR",
					"output":175
				},
				{
					"input":176,
					"interpolation":"STEP",
					"output":177
				},
				{
					"input":176,
					"interpolation":"STEP",
					"output":178
				},
				{
					"input":176,
					"interpolation":"STEP",
					"output":179
				},
				{
					"input":176,
					"interpolation":"STEP",
					"output":180
				},
				{
					"input":176,
					"interpolation":"STEP",
					"output":181
				},
				{
					"input":173,
					"interpolation":"LINEAR",
					"output":182
				},
				{
					"input":176,
					"interpolation":"STEP",
					"output":183
				},
				{
					"input":176,
					"interpolation":"STEP",
					"output":184
				},
				{
					"input":176,
					"interpolation":"STEP",
					"output":185
				},
				{
					"input":176,
					"interpolation":"STEP",
					"output":186
				},
				{
					"input":176,
					"interpolation":"STEP",
					"output":187
				},
				{
					"input":176,
					"interpolation":"STEP",
					"output":188
				},
				{
					"input":176,
					"interpolation":"STEP",
					"output":189
				},
				{
					"input":176,
					"interpolation":"STEP",
					"output":190
				},
				{
					"input":173,
					"interpolation":"LINEAR",
					"output":191
				},
				{
					"input":176,
					"interpolation":"STEP",
					"output":192
				},
				{
					"input":176,
					"interpolation":"STEP",
					"output":193
				},
				{
					"input":176,
					"interpolation":"STEP",
					"output":194
				},
				{
					"input":176,
					"interpolation":"STEP",
					"output":195
				},
				{
					"input":176,
					"interpolation":"STEP",
					"output":196
				},
				{
					"input":176,
					"interpolation":"STEP",
					"output":197
				},
				{
					"input":176,
					"interpolation":"STEP",
					"output":198
				},
				{
					"input":176,
					"interpolation":"STEP",
					"output":199
				},
				{
					"input":173,
					"interpolation":"LINEAR",
					"output":200
				},
				{
					"input":176,
					"interpolation":"STEP",
					"output":201
				},
				{
					"input":176,
					"interpolation":"STEP",
					"output":202
				},
				{
					"input":176,
					"interpolation":"STEP",
					"output":203
				},
				{
					"input":176,
					"interpolation":"STEP",
					"output":204
				},
				{
					"input":176,
					"interpolation":"STEP",
					"output":205
				},
				{
					"input":176,
					"interpolation":"STEP",
					"output":206
				},
				{
					"input":176,
					"interpolation":"STEP",
					"output":207
				},
				{
					"input":176,
					"interpolation":"STEP",
					"output":208
				},
				{
					"input":173,
					"interpolation":"LINEAR",
					"output":209
				},
				{
					"input":176,
					"interpolation":"STEP",
					"output":210
				},
				{
					"input":176,
					"interpolation":"STEP",
					"output":211
				},
				{
					"input":173,
					"interpolation":"LINEAR",
					"output":212
				},
				{
					"input":176,
					"interpolation":"STEP",
					"output":213
				},
				{
					"input":176,
					"interpolation":"STEP",
					"output":214
				},
				{
					"input":173,
					"interpolation":"LINEAR",
					"output":215
				},
				{
					"input":176,
					"interpolation":"STEP",
					"output":216
				},
				{
					"input":176,
					"interpolation":"STEP",
					"output":217
				},
				{
					"input":173,
					"interpolation":"LINEAR",
					"output":218
				},
				{
					"input":176,
					"interpolation":"STEP",
					"output":219
				},
				{
					"input":176,
					"interpolation":"STEP",
					"output":220
				},
				{
					"input":173,
					"interpolation":"LINEAR",
					"output":221
				},
				{
					"input":176,
					"interpolation":"STEP",
					"output":222
				},
				{
					"input":176,
					"interpolation":"STEP",
					"output":223
				},
				{
					"input":173,
					"interpolation":"LINEAR",
					"output":224
				},
				{
					"input":176,
					"interpolation":"STEP",
					"output":225
				}
			]
		}
	],
	"materials":[
		{
			"name":"skin",
			"normalTexture":{
				"index":0,
				"scale":0.4000000059604645
			},
			"pbrMetallicRoughness":{
				"baseColorFactor":[
					0.9551045894622803,
					0.7105664610862732,
					0.5382355451583862,
					1
				],
				"metallicFactor":0,
				"roughnessFactor":0.550000011920929
			}
		},
		{
			"extensions":{
				"KHR_materials_sheen":{
					"sheenColorFactor":[
						1.0,
						1.0,
						1.0
					],
					"sheenRoughnessFactor":0.5
				}
			},
			"name":"hair",
			"normalTexture":{
				"index":1,
				"scale":0.800000011920929
			},
			"pbrMetallicRoughness":{
				"baseColorFactor":[
					0.010022825561463833,
					0.010022825561463833,
					0.0134117491543293,
					1
				],
				"metallicFactor":0,
				"roughnessFactor":0.44999998807907104
			}
		},
		{
			"extensions":{
				"KHR_materials_sheen":{
					"sheenColorFactor":[
						1.0,
						1.0,
						1.0
					],
					"sheenRoughnessFactor":0.5
				}
			},
			"name":"outfit",
			"normalTexture":{
				"index":2,
				"scale":0.6000000238418579
			},
			"pbrMetallicRoughness":{
				"baseColorFactor":[
					0.01960664801299572,
					0.01960664801299572,
					0.05087608844041824,
					1
				],
				"metallicFactor":0,
				"roughnessFactor":0.75
			}
		},
		{
			"name":"outfit2",
			"normalTexture":{
				"index":3,
				"scale":0.4000000059604645
			},
			"pbrMetallicRoughness":{
				"baseColorFactor":[
					0.7874122858047485,
					0.7874122858047485,
					0.7874122858047485,
					1
				],
				"metallicFactor":0,
				"roughnessFactor":0.6000000238418579
			}
		},
		{
			"name":"pants",
			"normalTexture":{
				"index":4,
				"scale":0.6000000238418579
			},
			"pbrMetallicRoughness":{
				"baseColorFactor":[
					0.010816383175551891,
					0.010816383175551891,
					0.025842878967523575,
					1
				],
				"metallicFactor":0,
				"roughnessFactor":0.800000011920929
			}
		},
		{
			"extensions":{
				"KHR_materials_clearcoat":{
					"clearcoatFactor":0.30000001192092896
				}
			},
			"name":"boots",
			"normalTexture":{
				"index":5,
				"scale":0.800000011920929
			},
			"pbrMetallicRoughness":{
				"baseColorFactor":[
					0.0134117491543293,
					0.010022825561463833,
					0.010022825561463833,
					1
				],
				"metallicFactor":0,
				"roughnessFactor":0.44999998807907104
			}
		},
		{
			"name":"eye_white",
			"pbrMetallicRoughness":{
				"baseColorFactor":[
					0.8900054097175598,
					0.8900054097175598,
					0.8900054097175598,
					1
				],
				"metallicFactor":0,
				"roughnessFactor":0.20000000298023224
			}
		},
		{
			"emissiveFactor":[
				0.12842469129660472,
				0.006013695575841083,
				0.006013695575841083
			],
			"name":"iris",
			"pbrMetallicRoughness":{
				"baseColorFactor":[
					0.21404114365577698,
					0.010022825561463833,
					0.010022825561463833,
					1
				],
				"metallicFactor":0,
				"roughnessFactor":0.15000000596046448
			}
		},
		{
			"name":"pupil",
			"pbrMetallicRoughness":{
				"baseColorFactor":[
					0.0015479875728487968,
					0.0015479875728487968,
					0.0023219813592731953,
					1
				],
				"metallicFactor":0,
				"roughnessFactor":0.10000000149011612
			}
		},
		{
			"name":"lips",
			"pbrMetallicRoughness":{
				"baseColorFactor":[
					0.4283095896244049,
					0.32088616490364075,
					0.2448643445968628,
					1
				],
				"metallicFactor":0,
				"roughnessFactor":0.4000000059604645
			}
		},
		{
			"name":"buckle",
			"pbrMetallicRoughness":{
				"baseColorFactor":[
					0.6920710802078247,
					0.4479884207248688,
					0.07323895394802094,
					1
				],
				"metallicFactor":0.8999999761581421,
				"roughnessFactor":0.30000001192092896
			}
		}
	],
	"meshes":[
		{
			"name":"yuuki",
			"primitives":[
				{
					"attributes":{
						"POSITION":0,
						"NORMAL":1,
						"TEXCOORD_0":2,
						"JOINTS_0":3,
						"WEIGHTS_0":4
					},
					"indices":5,
					"material":0
				},
				{
					"attributes":{
						"POSITION":6,
						"NORMAL":7,
						"TEXCOORD_0":8,
						"JOINTS_0":9,
						"WEIGHTS_0":10
					},
					"indices":11,
					"material":1
				},
				{
					"attributes":{
						"POSITION":12,
						"NORMAL":13,
						"TEXCOORD_0":14,
						"JOINTS_0":15,
						"WEIGHTS_0":16
					},
					"indices":17,
					"material":2
				},
				{
					"attributes":{
						"POSITION":18,
						"NORMAL":19,
						"TEXCOORD_0":20,
						"JOINTS_0":21,
						"WEIGHTS_0":22
					},
					"indices":23,
					"material":3
				},
				{
					"attributes":{
						"POSITION":24,
						"NORMAL":25,
						"TEXCOORD_0":26,
						"JOINTS_0":27,
						"WEIGHTS_0":28
					},
					"indices":29,
					"material":4
				},
				{
					"attributes":{
						"POSITION":30,
						"NORMAL":31,
						"TEXCOORD_0":32,
						"JOINTS_0":33,
						"WEIGHTS_0":34
					},
					"indices":35,
					"material":5
				},
				{
					"attributes":{
						"POSITION":36,
						"NORMAL":37,
						"TEXCOORD_0":38,
						"JOINTS_0":39,
						"WEIGHTS_0":40
					},
					"indices":41,
					"material":6
				},
				{
					"attributes":{
						"POSITION":42,
						"NORMAL":43,
						"TEXCOORD_0":44,
						"JOINTS_0":45,
						"WEIGHTS_0":46
					},
					"indices":47,
					"material":7
				},
				{
					"attributes":{
						"POSITION":48,
						"NORMAL":49,
						"TEXCOORD_0":50,
						"JOINTS_0":51,
						"WEIGHTS_0":52
					},
					"indices":53,
					"material":8
				},
				{
					"attributes":{
						"POSITION":54,
						"NORMAL":55,
						"TEXCOORD_0":56,
						"JOINTS_0":57,
						"WEIGHTS_0":58
					},
					"indices":59,
					"material":9
				},
				{
					"attributes":{
						"POSITION":60,
						"NORMAL":61,
						"TEXCOORD_0":62,
						"JOINTS_0":63,
						"WEIGHTS_0":64
					},
					"indices":65,
					"material":10
				}
			]
		}
	],
	"textures":[
		{
			"sampler":0,
			"source":0
		},
		{
			"sampler":0,
			"source":1
		},
		{
			"sampler":0,
			"source":2
		},
		{
			"sampler":0,
			"source":2
		},
		{
			"sampler":0,
			"source":2
		},
		{
			"sampler":0,
			"source":3
		}
	],
	"images":[
		{
			"mimeType":"image/png",
			"name":"N_skin",
			"uri":"texturas/N_skin.png"
		},
		{
			"mimeType":"image/png",
			"name":"N_hair",
			"uri":"texturas/N_hair.png"
		},
		{
			"mimeType":"image/png",
			"name":"N_cloth",
			"uri":"texturas/N_cloth.png"
		},
		{
			"mimeType":"image/png",
			"name":"N_leather",
			"uri":"texturas/N_leather.png"
		}
	],
	"skins":[
		{
			"inverseBindMatrices":66,
			"joints":[
				16,
				9,
				8,
				1,
				0,
				4,
				3,
				2,
				7,
				6,
				5,
				12,
				11,
				10,
				15,
				14,
				13
			],
			"name":"yuuki_rig"
		}
	],
	"accessors":[
		{
			"bufferView":0,
			"componentType":5126,
			"count":1437,
			"max":[
				0.31439682841300964,
				1.7483199834823608,
				0.10506831109523773
			],
			"min":[
				-0.31439682841300964,
				0.7687785625457764,
				-0.11375519633293152
			],
			"type":"VEC3"
		},
		{
			"bufferView":1,
			"componentType":5126,
			"count":1437,
			"type":"VEC3"
		},
		{
			"bufferView":2,
			"componentType":5126,
			"count":1437,
			"type":"VEC2"
		},
		{
			"bufferView":3,
			"componentType":5121,
			"count":1437,
			"type":"VEC4"
		},
		{
			"bufferView":4,
			"componentType":5126,
			"count":1437,
			"type":"VEC4"
		},
		{
			"bufferView":5,
			"componentType":5123,
			"count":5868,
			"type":"SCALAR"
		},
		{
			"bufferView":6,
			"componentType":5126,
			"count":2701,
			"max":[
				0.11685524880886078,
				1.7732335329055786,
				0.13612519204616547
			],
			"min":[
				-0.11475656926631927,
				1.4945515394210815,
				-0.11540438234806061
			],
			"type":"VEC3"
		},
		{
			"bufferView":7,
			"componentType":5126,
			"count":2701,
			"type":"VEC3"
		},
		{
			"bufferView":8,
			"componentType":5126,
			"count":2701,
			"type":"VEC2"
		},
		{
			"bufferView":9,
			"componentType":5121,
			"count":2701,
			"type":"VEC4"
		},
		{
			"bufferView":10,
			"componentType":5126,
			"count":2701,
			"type":"VEC4"
		},
		{
			"bufferView":11,
			"componentType":5123,
			"count":8328,
			"type":"SCALAR"
		},
		{
			"bufferView":12,
			"componentType":5126,
			"count":1461,
			"max":[
				0.31815144419670105,
				1.4447283744812012,
				0.10992857813835144
			],
			"min":[
				-0.31815144419670105,
				0.9111820459365845,
				-0.10948216170072556
			],
			"type":"VEC3"
		},
		{
			"bufferView":13,
			"componentType":5126,
			"count":1461,
			"type":"VEC3"
		},
		{
			"bufferView":14,
			"componentType":5126,
			"count":1461,
			"type":"VEC2"
		},
		{
			"bufferView":15,
			"componentType":5121,
			"count":1461,
			"type":"VEC4"
		},
		{
			"bufferView":16,
			"componentType":5126,
			"count":1461,
			"type":"VEC4"
		},
		{
			"bufferView":17,
			"componentType":5123,
			"count":6648,
			"type":"SCALAR"
		},
		{
			"bufferView":18,
			"componentType":5126,
			"count":65,
			"max":[
				0.13980205357074738,
				1.011275053024292,
				0.1115635484457016
			],
			"min":[
				-0.13980205357074738,
				0.8587853312492371,
				-0.1128787100315094
			],
			"type":"VEC3"
		},
		{
			"bufferView":19,
			"componentType":5126,
			"count":65,
			"type":"VEC3"
		},
		{
			"bufferView":20,
			"componentType":5126,
			"count":65,
			"type":"VEC2"
		},
		{
			"bufferView":21,
			"componentType":5121,
			"count":65,
			"type":"VEC4"
		},
		{
			"bufferView":22,
			"componentType":5126,
			"count":65,
			"type":"VEC4"
		},
		{
			"bufferView":23,
			"componentType":5123,
			"count":192,
			"type":"SCALAR"
		},
		{
			"bufferView":24,
			"componentType":5126,
			"count":977,
			"max":[
				0.3155079483985901,
				0.9185521006584167,
				0.10862068831920624
			],
			"min":[
				-0.3155079185962677,
				0.29405951499938965,
				-0.11036378145217896
			],
			"type":"VEC3"
		},
		{
			"bufferView":25,
			"componentType":5126,
			"count":977,
			"type":"VEC3"
		},
		{
			"bufferView":26,
			"componentType":5126,
			"count":977,
			"type":"VEC2"
		},
		{
			"bufferView":27,
			"componentType":5121,
			"count":977,
			"type":"VEC4"
		},
		{
			"bufferView":28,
			"componentType":5126,
			"count":977,
			"type":"VEC4"
		},
		{
			"bufferView":29,
			"componentType":5123,
			"count":4332,
			"type":"SCALAR"
		},
		{
			"bufferView":30,
			"componentType":5126,
			"count":1034,
			"max":[
				0.1631147861480713,
				0.3003181219100952,
				0.07788794487714767
			],
			"min":[
				-0.16311480104923248,
				0.007445884868502617,
				-0.13731835782527924
			],
			"type":"VEC3"
		},
		{
			"bufferView":31,
			"componentType":5126,
			"count":1034,
			"type":"VEC3"
		},
		{
			"bufferView":32,
			"componentType":5126,
			"count":1034,
			"type":"VEC2"
		},
		{
			"bufferView":33,
			"componentType":5121,
			"count":1034,
			"type":"VEC4"
		},
		{
			"bufferView":34,
			"componentType":5126,
			"count":1034,
			"type":"VEC4"
		},
		{
			"bufferView":35,
			"componentType":5123,
			"count":4608,
			"type":"SCALAR"
		},
		{
			"bufferView":36,
			"componentType":5126,
			"count":304,
			"max":[
				0.04997999966144562,
				1.6527700424194336,
				-0.06859999895095825
			],
			"min":[
				-0.04997999966144562,
				1.6302299499511719,
				-0.0862400010228157
			],
			"type":"VEC3"
		},
		{
			"bufferView":37,
			"componentType":5126,
			"count":304,
			"type":"VEC3"
		},
		{
			"bufferView":38,
			"componentType":5126,
			"count":304,
			"type":"VEC2"
		},
		{
			"bufferView":39,
			"componentType":5121,
			"count":304,
			"type":"VEC4"
		},
		{
			"bufferView":40,
			"componentType":5126,
			"count":304,
			"type":"VEC4"
		},
		{
			"bufferView":41,
			"componentType":5123,
			"count":1152,
			"type":"SCALAR"
		},
		{
			"bufferView":42,
			"componentType":5126,
			"count":220,
			"max":[
				0.04262999817728996,
				1.6511040925979614,
				-0.07959584146738052
			],
			"min":[
				-0.04262999817728996,
				1.6318960189819336,
				-0.08798416703939438
			],
			"type":"VEC3"
		},
		{
			"bufferView":43,
			"componentType":5126,
			"count":220,
			"type":"VEC3"
		},
		{
			"bufferView":44,
			"componentType":5126,
			"count":220,
			"type":"VEC2"
		},
		{
			"bufferView":45,
			"componentType":5121,
			"count":220,
			"type":"VEC4"
		},
		{
			"bufferView":46,
			"componentType":5126,
			"count":220,
			"type":"VEC4"
		},
		{
			"bufferView":47,
			"componentType":5123,
			"count":720,
			"type":"SCALAR"
		},
		{
			"bufferView":48,
			"componentType":5126,
			"count":160,
			"max":[
				0.03723454847931862,
				1.6459100246429443,
				-0.08515992760658264
			],
			"min":[
				-0.03723454847931862,
				1.6370900869369507,
				-0.08888807892799377
			],
			"type":"VEC3"
		},
		{
			"bufferView":49,
			"componentType":5126,
			"count":160,
			"type":"VEC3"
		},
		{
			"bufferView":50,
			"componentType":5126,
			"count":160,
			"type":"VEC2"
		},
		{
			"bufferView":51,
			"componentType":5121,
			"count":160,
			"type":"VEC4"
		},
		{
			"bufferView":52,
			"componentType":5126,
			"count":160,
			"type":"VEC4"
		},
		{
			"bufferView":53,
			"componentType":5123,
			"count":480,
			"type":"SCALAR"
		},
		{
			"bufferView":54,
			"componentType":5126,
			"count":98,
			"max":[
				0.018619999289512634,
				1.575350046157837,
				-0.07616584002971649
			],
			"min":[
				-0.018619999289512634,
				1.5665299892425537,
				-0.08455416560173035
			],
			"type":"VEC3"
		},
		{
			"bufferView":55,
			"componentType":5126,
			"count":98,
			"type":"VEC3"
		},
		{
			"bufferView":56,
			"componentType":5126,
			"count":98,
			"type":"VEC2"
		},
		{
			"bufferView":57,
			"componentType":5121,
			"count":98,
			"type":"VEC4"
		},
		{
			"bufferView":58,
			"componentType":5126,
			"count":98,
			"type":"VEC4"
		},
		{
			"bufferView":59,
			"componentType":5123,
			"count":360,
			"type":"SCALAR"
		},
		{
			"bufferView":60,
			"componentType":5126,
			"count":24,
			"max":[
				0.024500001221895218,
				0.9506000280380249,
				-0.09211999922990799
			],
			"min":[
				-0.024500001221895218,
				0.9114000201225281,
				-0.10388000309467316
			],
			"type":"VEC3"
		},
		{
			"bufferView":61,
			"componentType":5126,
			"count":24,
			"type":"VEC3"
		},
		{
			"bufferView":62,
			"componentType":5126,
			"count":24,
			"type":"VEC2"
		},
		{
			"bufferView":63,
			"componentType":5121,
			"count":24,
			"type":"VEC4"
		},
		{
			"bufferView":64,
			"componentType":5126,
			"count":24,
			"type":"VEC4"
		},
		{
			"bufferView":65,
			"componentType":5123,
			"count":36,
			"type":"SCALAR"
		},
		{
			"bufferView":66,
			"componentType":5126,
			"count":17,
			"type":"MAT4"
		},
		{
			"bufferView":67,
			"componentType":5126,
			"count":2,
			"max":[
				0.6
			],
			"min":[
				0
			],
			"type":"SCALAR"
		},
		{
			"bufferView":68,
			"componentType":5126,
			"count":2,
			"type":"VEC3"
		},
		{
			"bufferView":69,
			"componentType":5126,
			"count":2,
			"type":"VEC4"
		},
		{
			"bufferView":70,
			"componentType":5126,
			"count":2,
			"type":"VEC3"
		},
		{
			"bufferView":71,
			"componentType":5126,
			"count":2,
			"type":"VEC3"
		},
		{
			"bufferView":72,
			"componentType":5126,
			"count":2,
			"type":"VEC4"
		},
		{
			"bufferView":73,
			"componentType":5126,
			"count":2,
			"type":"VEC3"
		},
		{
			"bufferView":74,
			"componentType":5126,
			"count":2,
			"type":"VEC3"
		},
		{
			"bufferView":75,
			"componentType":5126,
			"count":19,
			"max":[
				0.6
			],
			"min":[
				0
			],
			"type":"SCALAR"
		},
		{
			"bufferView":76,
			"componentType":5126,
			"count":19,
			"type":"VEC4"
		},
		{
			"bufferView":77,
			"componentType":5126,
			"count":2,
			"type":"VEC3"
		},
		{
			"bufferView":78,
			"componentType":5126,
			"count":2,
			"type":"VEC3"
		},
		{
			"bufferView":79,
			"componentType":5126,
			"count":2,
			"type":"VEC4"
		},
		{
			"bufferView":80,
			"componentType":5126,
			"count":2,
			"type":"VEC3"
		},
		{
			"bufferView":81,
			"componentType":5126,
			"count":2,
			"type":"VEC3"
		},
		{
			"bufferView":82,
			"componentType":5126,
			"count":2,
			"type":"VEC4"
		},
		{
			"bufferView":83,
			"componentType":5126,
			"count":2,
			"type":"VEC3"
		},
		{
			"bufferView":84,
			"componentType":5126,
			"count":2,
			"type":"VEC3"
		},
		{
			"bufferView":85,
			"componentType":5126,
			"count":19,
			"type":"VEC4"
		},
		{
			"bufferView":86,
			"componentType":5126,
			"count":2,
			"type":"VEC3"
		},
		{
			"bufferView":87,
			"componentType":5126,
			"count":2,
			"type":"VEC3"
		},
		{
			"bufferView":88,
			"componentType":5126,
			"count":19,
			"type":"VEC4"
		},
		{
			"bufferView":89,
			"componentType":5126,
			"count":2,
			"type":"VEC3"
		},
		{
			"bufferView":90,
			"componentType":5126,
			"count":2,
			"type":"VEC3"
		},
		{
			"bufferView":91,
			"componentType":5126,
			"count":2,
			"type":"VEC4"
		},
		{
			"bufferView":92,
			"componentType":5126,
			"count":2,
			"type":"VEC3"
		},
		{
			"bufferView":93,
			"componentType":5126,
			"count":2,
			"type":"VEC3"
		},
		{
			"bufferView":94,
			"componentType":5126,
			"count":19,
			"type":"VEC4"
		},
		{
			"bufferView":95,
			"componentType":5126,
			"count":2,
			"type":"VEC3"
		},
		{
			"bufferView":96,
			"componentType":5126,
			"count":2,
			"type":"VEC3"
		},
		{
			"bufferView":97,
			"componentType":5126,
			"count":2,
			"type":"VEC4"
		},
		{
			"bufferView":98,
			"componentType":5126,
			"count":2,
			"type":"VEC3"
		},
		{
			"bufferView":99,
			"componentType":5126,
			"count":2,
			"type":"VEC3"
		},
		{
			"bufferView":100,
			"componentType":5126,
			"count":2,
			"type":"VEC4"
		},
		{
			"bufferView":101,
			"componentType":5126,
			"count":2,
			"type":"VEC3"
		},
		{
			"bufferView":102,
			"componentType":5126,
			"count":2,
			"type":"VEC3"
		},
		{
			"bufferView":103,
			"componentType":5126,
			"count":19,
			"type":"VEC4"
		},
		{
			"bufferView":104,
			"componentType":5126,
			"count":2,
			"type":"VEC3"
		},
		{
			"bufferView":105,
			"componentType":5126,
			"count":2,
			"type":"VEC3"
		},
		{
			"bufferView":106,
			"componentType":5126,
			"count":2,
			"type":"VEC4"
		},
		{
			"bufferView":107,
			"componentType":5126,
			"count":2,
			"type":"VEC3"
		},
		{
			"bufferView":108,
			"componentType":5126,
			"count":2,
			"type":"VEC3"
		},
		{
			"bufferView":109,
			"componentType":5126,
			"count":2,
			"type":"VEC4"
		},
		{
			"bufferView":110,
			"componentType":5126,
			"count":2,
			"type":"VEC3"
		},
		{
			"bufferView":111,
			"componentType":5126,
			"count":2,
			"type":"VEC3"
		},
		{
			"bufferView":112,
			"componentType":5126,
			"count":19,
			"type":"VEC4"
		},
		{
			"bufferView":113,
			"componentType":5126,
			"count":2,
			"type":"VEC3"
		},
		{
			"bufferView":114,
			"componentType":5126,
			"count":2,
			"type":"VEC3"
		},
		{
			"bufferView":115,
			"componentType":5126,
			"count":2,
			"type":"VEC4"
		},
		{
			"bufferView":116,
			"componentType":5126,
			"count":2,
			"type":"VEC3"
		},
		{
			"bufferView":117,
			"componentType":5126,
			"count":2,
			"type":"VEC3"
		},
		{
			"bufferView":118,
			"componentType":5126,
			"count":2,
			"type":"VEC4"
		},
		{
			"bufferView":119,
			"componentType":5126,
			"count":2,
			"type":"VEC3"
		},
		{
			"bufferView":120,
			"componentType":5126,
			"count":61,
			"max":[
				2
			],
			"min":[
				0
			],
			"type":"SCALAR"
		},
		{
			"bufferView":121,
			"componentType":5126,
			"count":61,
			"type":"VEC3"
		},
		{
			"bufferView":122,
			"componentType":5126,
			"count":2,
			"max":[
				2
			],
			"min":[
				0
			],
			"type":"SCALAR"
		},
		{
			"bufferView":123,
			"componentType":5126,
			"count":2,
			"type":"VEC4"
		},
		{
			"bufferView":124,
			"componentType":5126,
			"count":2,
			"type":"VEC3"
		},
		{
			"bufferView":125,
			"componentType":5126,
			"count":2,
			"type":"VEC3"
		},
		{
			"bufferView":126,
			"componentType":5126,
			"count":2,
			"type":"VEC4"
		},
		{
			"bufferView":127,
			"componentType":5126,
			"count":2,
			"type":"VEC3"
		},
		{
			"bufferView":128,
			"componentType":5126,
			"count":2,
			"type":"VEC3"
		},
		{
			"bufferView":129,
			"componentType":5126,
			"count":61,
			"type":"VEC4"
		},
		{
			"bufferView":130,
			"componentType":5126,
			"count":2,
			"type":"VEC3"
		},
		{
			"bufferView":131,
			"componentType":5126,
			"count":2,
			"type":"VEC3"
		},
		{
			"bufferView":132,
			"componentType":5126,
			"count":2,
			"type":"VEC4"
		},
		{
			"bufferView":133,
			"componentType":5126,
			"count":2,
			"type":"VEC3"
		},
		{
			"bufferView":134,
			"componentType":5126,
			"count":2,
			"type":"VEC3"
		},
		{
			"bufferView":135,
			"componentType":5126,
			"count":61,
			"type":"VEC4"
		},
		{
			"bufferView":136,
			"componentType":5126,
			"count":2,
			"type":"VEC3"
		},
		{
			"bufferView":137,
			"componentType":5126,
			"count":2,
			"type":"VEC3"
		},
		{
			"bufferView":138,
			"componentType":5126,
			"count":61,
			"type":"VEC4"
		},
		{
			"bufferView":139,
			"componentType":5126,
			"count":2,
			"type":"VEC3"
		},
		{
			"bufferView":140,
			"componentType":5126,
			"count":2,
			"type":"VEC3"
		},
		{
			"bufferView":141,
			"componentType":5126,
			"count":2,
			"type":"VEC4"
		},
		{
			"bufferView":142,
			"componentType":5126,
			"count":2,
			"type":"VEC3"
		},
		{
			"bufferView":143,
			"componentType":5126,
			"count":2,
			"type":"VEC3"
		},
		{
			"bufferView":144,
			"componentType":5126,
			"count":2,
			"type":"VEC4"
		},
		{
			"bufferView":145,
			"componentType":5126,
			"count":2,
			"type":"VEC3"
		},
		{
			"bufferView":146,
			"componentType":5126,
			"count":2,
			"type":"VEC3"
		},
		{
			"bufferView":147,
			"componentType":5126,
			"count":61,
			"type":"VEC4"
		},
		{
			"bufferView":148,
			"componentType":5126,
			"count":2,
			"type":"VEC3"
		},
		{
			"bufferView":149,
			"componentType":5126,
			"count":2,
			"type":"VEC3"
		},
		{
			"bufferView":150,
			"componentType":5126,
			"count":2,
			"type":"VEC4"
		},
		{
			"bufferView":151,
			"componentType":5126,
			"count":2,
			"type":"VEC3"
		},
		{
			"bufferView":152,
			"componentType":5126,
			"count":2,
			"type":"VEC3"
		},
		{
			"bufferView":153,
			"componentType":5126,
			"count":2,
			"type":"VEC4"
		},
		{
			"bufferView":154,
			"componentType":5126,
			"count":2,
			"type":"VEC3"
		},
		{
			"bufferView":155,
			"componentType":5126,
			"count":2,
			"type":"VEC3"
		},
		{
			"bufferView":156,
			"componentType":5126,
			"count":2,
			"type":"VEC4"
		},
		{
			"bufferView":157,
			"componentType":5126,
			"count":2,
			"type":"VEC3"
		},
		{
			"bufferView":158,
			"componentType":5126,
			"count":2,
			"type":"VEC3"
		},
		{
			"bufferView":159,
			"componentType":5126,
			"count":2,
			"type":"VEC4"
		},
		{
			"bufferView":160,
			"componentType":5126,
			"count":2,
			"type":"VEC3"
		},
		{
			"bufferView":161,
			"componentType":5126,
			"count":2,
			"type":"VEC3"
		},
		{
			"bufferView":162,
			"componentType":5126,
			"count":2,
			"type":"VEC4"
		},
		{
			"bufferView":163,
			"componentType":5126,
			"count":2,
			"type":"VEC3"
		},
		{
			"bufferView":164,
			"componentType":5126,
			"count":2,
			"type":"VEC3"
		},
		{
			"bufferView":165,
			"componentType":5126,
			"count":2,
			"type":"VEC4"
		},
		{
			"bufferView":166,
			"componentType":5126,
			"count":2,
			"type":"VEC3"
		},
		{
			"bufferView":167,
			"componentType":5126,
			"count":2,
			"type":"VEC3"
		},
		{
			"bufferView":168,
			"componentType":5126,
			"count":2,
			"type":"VEC4"
		},
		{
			"bufferView":169,
			"componentType":5126,
			"count":2,
			"type":"VEC3"
		},
		{
			"bufferView":170,
			"componentType":5126,
			"count":2,
			"type":"VEC3"
		},
		{
			"bufferView":171,
			"componentType":5126,
			"count":2,
			"type":"VEC4"
		},
		{
			"bufferView":172,
			"componentType":5126,
			"count":2,
			"type":"VEC3"
		},
		{
			"bufferView":173,
			"componentType":5126,
			"count":31,
			"max":[
				1
			],
			"min":[
				0
			],
			"type":"SCALAR"
		},
		{
			"bufferView":174,
			"componentType":5126,
			"count":31,
			"type":"VEC3"
		},
		{
			"bufferView":175,
			"componentType":5126,
			"count":31,
			"type":"VEC4"
		},
		{
			"bufferView":176,
			"componentType":5126,
			"count":2,
			"max":[
				1
			],
			"min":[
				0
			],
			"type":"SCALAR"
		},
		{
			"bufferView":177,
			"componentType":5126,
			"count":2,
			"type":"VEC3"
		},
		{
			"bufferView":178,
			"componentType":5126,
			"count":2,
			"type":"VEC3"
		},
		{
			"bufferView":179,
			"componentType":5126,
			"count":2,
			"type":"VEC4"
		},
		{
			"bufferView":180,
			"componentType":5126,
			"count":2,
			"type":"VEC3"
		},
		{
			"bufferView":181,
			"componentType":5126,
			"count":2,
			"type":"VEC3"
		},
		{
			"bufferView":182,
			"componentType":5126,
			"count":31,
			"type":"VEC4"
		},
		{
			"bufferView":183,
			"componentType":5126,
			"count":2,
			"type":"VEC3"
		},
		{
			"bufferView":184,
			"componentType":5126,
			"count":2,
			"type":"VEC3"
		},
		{
			"bufferView":185,
			"componentType":5126,
			"count":2,
			"type":"VEC4"
		},
		{
			"bufferView":186,
			"componentType":5126,
			"count":2,
			"type":"VEC3"
		},
		{
			"bufferView":187,
			"componentType":5126,
			"count":2,
			"type":"VEC3"
		},
		{
			"bufferView":188,
			"componentType":5126,
			"count":2,
			"type":"VEC4"
		},
		{
			"bufferView":189,
			"componentType":5126,
			"count":2,
			"type":"VEC3"
		},
		{
			"bufferView":190,
			"componentType":5126,
			"count":2,
			"type":"VEC3"
		},
		{
			"bufferView":191,
			"componentType":5126,
			"count":31,
			"type":"VEC4"
		},
		{
			"bufferView":192,
			"componentType":5126,
			"count":2,
			"type":"VEC3"
		},
		{
			"bufferView":193,
			"componentType":5126,
			"count":2,
			"type":"VEC3"
		},
		{
			"bufferView":194,
			"componentType":5126,
			"count":2,
			"type":"VEC4"
		},
		{
			"bufferView":195,
			"componentType":5126,
			"count":2,
			"type":"VEC3"
		},
		{
			"bufferView":196,
			"componentType":5126,
			"count":2,
			"type":"VEC3"
		},
		{
			"bufferView":197,
			"componentType":5126,
			"count":2,
			"type":"VEC4"
		},
		{
			"bufferView":198,
			"componentType":5126,
			"count":2,
			"type":"VEC3"
		},
		{
			"bufferView":199,
			"componentType":5126,
			"count":2,
			"type":"VEC3"
		},
		{
			"bufferView":200,
			"componentType":5126,
			"count":31,
			"type":"VEC4"
		},
		{
			"bufferView":201,
			"componentType":5126,
			"count":2,
			"type":"VEC3"
		},
		{
			"bufferView":202,
			"componentType":5126,
			"count":2,
			"type":"VEC3"
		},
		{
			"bufferView":203,
			"componentType":5126,
			"count":2,
			"type":"VEC4"
		},
		{
			"bufferView":204,
			"componentType":5126,
			"count":2,
			"type":"VEC3"
		},
		{
			"bufferView":205,
			"componentType":5126,
			"count":2,
			"type":"VEC3"
		},
		{
			"bufferView":206,
			"componentType":5126,
			"count":2,
			"type":"VEC4"
		},
		{
			"bufferView":207,
			"componentType":5126,
			"count":2,
			"type":"VEC3"
		},
		{
			"bufferView":208,
			"componentType":5126,
			"count":2,
			"type":"VEC3"
		},
		{
			"bufferView":209,
			"componentType":5126,
			"count":31,
			"type":"VEC4"
		},
		{
			"bufferView":210,
			"componentType":5126,
			"count":2,
			"type":"VEC3"
		},
		{
			"bufferView":211,
			"componentType":5126,
			"count":2,
			"type":"VEC3"
		},
		{
			"bufferView":212,
			"componentType":5126,
			"count":31,
			"type":"VEC4"
		},
		{
			"bufferView":213,
			"componentType":5126,
			"count":2,
			"type":"VEC3"
		},
		{
			"bufferView":214,
			"componentType":5126,
			"count":2,
			"type":"VEC3"
		},
		{
			"bufferView":215,
			"componentType":5126,
			"count":31,
			"type":"VEC4"
		},
		{
			"bufferView":216,
			"componentType":5126,
			"count":2,
			"type":"VEC3"
		},
		{
			"bufferView":217,
			"componentType":5126,
			"count":2,
			"type":"VEC3"
		},
		{
			"bufferView":218,
			"componentType":5126,
			"count":31,
			"type":"VEC4"
		},
		{
			"bufferView":219,
			"componentType":5126,
			"count":2,
			"type":"VEC3"
		},
		{
			"bufferView":220,
			"componentType":5126,
			"count":2,
			"type":"VEC3"
		},
		{
			"bufferView":221,
			"componentType":5126,
			"count":31,
			"type":"VEC4"
		},
		{
			"bufferView":222,
			"componentType":5126,
			"count":2,
			"type":"VEC3"
		},
		{
			"bufferView":223,
			"componentType":5126,
			"count":2,
			"type":"VEC3"
		},
		{
			"bufferView":224,
			"componentType":5126,
			"count":31,
			"type":"VEC4"
		},
		{
			"bufferView":225,
			"componentType":5126,
			"count":2,
			"type":"VEC3"
		}
	],
	"bufferViews":[
		{
			"buffer":0,
			"byteLength":17244,
			"byteOffset":0,
			"target":34962
		},
		{
			"buffer":0,
			"byteLength":17244,
			"byteOffset":17244,
			"target":34962
		},
		{
			"buffer":0,
			"byteLength":11496,
			"byteOffset":34488,
			"target":34962
		},
		{
			"buffer":0,
			"byteLength":5748,
			"byteOffset":45984,
			"target":34962
		},
		{
			"buffer":0,
			"byteLength":22992,
			"byteOffset":51732,
			"target":34962
		},
		{
			"buffer":0,
			"byteLength":11736,
			"byteOffset":74724,
			"target":34963
		},
		{
			"buffer":0,
			"byteLength":32412,
			"byteOffset":86460,
			"target":34962
		},
		{
			"buffer":0,
			"byteLength":32412,
			"byteOffset":118872,
			"target":34962
		},
		{
			"buffer":0,
			"byteLength":21608,
			"byteOffset":151284,
			"target":34962
		},
		{
			"buffer":0,
			"byteLength":10804,
			"byteOffset":172892,
			"target":34962
		},
		{
			"buffer":0,
			"byteLength":43216,
			"byteOffset":183696,
			"target":34962
		},
		{
			"buffer":0,
			"byteLength":16656,
			"byteOffset":226912,
			"target":34963
		},
		{
			"buffer":0,
			"byteLength":17532,
			"byteOffset":243568,
			"target":34962
		},
		{
			"buffer":0,
			"byteLength":17532,
			"byteOffset":261100,
			"target":34962
		},
		{
			"buffer":0,
			"byteLength":11688,
			"byteOffset":278632,
			"target":34962
		},
		{
			"buffer":0,
			"byteLength":5844,
			"byteOffset":290320,
			"target":34962
		},
		{
			"buffer":0,
			"byteLength":23376,
			"byteOffset":296164,
			"target":34962
		},
		{
			"buffer":0,
			"byteLength":13296,
			"byteOffset":319540,
			"target":34963
		},
		{
			"buffer":0,
			"byteLength":780,
			"byteOffset":332836,
			"target":34962
		},
		{
			"buffer":0,
			"byteLength":780,
			"byteOffset":333616,
			"target":34962
		},
		{
			"buffer":0,
			"byteLength":520,
			"byteOffset":334396,
			"target":34962
		},
		{
			"buffer":0,
			"byteLength":260,
			"byteOffset":334916,
			"target":34962
		},
		{
			"buffer":0,
			"byteLength":1040,
			"byteOffset":335176,
			"target":34962
		},
		{
			"buffer":0,
			"byteLength":384,
			"byteOffset":336216,
			"target":34963
		},
		{
			"buffer":0,
			"byteLength":11724,
			"byteOffset":336600,
			"target":34962
		},
		{
			"buffer":0,
			"byteLength":11724,
			"byteOffset":348324,
			"target":34962
		},
		{
			"buffer":0,
			"byteLength":7816,
			"byteOffset":360048,
			"target":34962
		},
		{
			"buffer":0,
			"byteLength":3908,
			"byteOffset":367864,
			"target":34962
		},
		{
			"buffer":0,
			"byteLength":15632,
			"byteOffset":371772,
			"target":34962
		},
		{
			"buffer":0,
			"byteLength":8664,
			"byteOffset":387404,
			"target":34963
		},
		{
			"buffer":0,
			"byteLength":12408,
			"byteOffset":396068,
			"target":34962
		},
		{
			"buffer":0,
			"byteLength":12408,
			"byteOffset":408476,
			"target":34962
		},
		{
			"buffer":0,
			"byteLength":8272,
			"byteOffset":420884,
			"target":34962
		},
		{
			"buffer":0,
			"byteLength":4136,
			"byteOffset":429156,
			"target":34962
		},
		{
			"buffer":0,
			"byteLength":16544,
			"byteOffset":433292,
			"target":34962
		},
		{
			"buffer":0,
			"byteLength":9216,
			"byteOffset":449836,
			"target":34963
		},
		{
			"buffer":0,
			"byteLength":3648,
			"byteOffset":459052,
			"target":34962
		},
		{
			"buffer":0,
			"byteLength":3648,
			"byteOffset":462700,
			"target":34962
		},
		{
			"buffer":0,
			"byteLength":2432,
			"byteOffset":466348,
			"target":34962
		},
		{
			"buffer":0,
			"byteLength":1216,
			"byteOffset":468780,
			"target":34962
		},
		{
			"buffer":0,
			"byteLength":4864,
			"byteOffset":469996,
			"target":34962
		},
		{
			"buffer":0,
			"byteLength":2304,
			"byteOffset":474860,
			"target":34963
		},
		{
			"buffer":0,
			"byteLength":2640,
			"byteOffset":477164,
			"target":34962
		},
		{
			"buffer":0,
			"byteLength":2640,
			"byteOffset":479804,
			"target":34962
		},
		{
			"buffer":0,
			"byteLength":1760,
			"byteOffset":482444,
			"target":34962
		},
		{
			"buffer":0,
			"byteLength":880,
			"byteOffset":484204,
			"target":34962
		},
		{
			"buffer":0,
			"byteLength":3520,
			"byteOffset":485084,
			"target":34962
		},
		{
			"buffer":0,
			"byteLength":1440,
			"byteOffset":488604,
			"target":34963
		},
		{
			"buffer":0,
			"byteLength":1920,
			"byteOffset":490044,
			"target":34962
		},
		{
			"buffer":0,
			"byteLength":1920,
			"byteOffset":491964,
			"target":34962
		},
		{
			"buffer":0,
			"byteLength":1280,
			"byteOffset":493884,
			"target":34962
		},
		{
			"buffer":0,
			"byteLength":640,
			"byteOffset":495164,
			"target":34962
		},
		{
			"buffer":0,
			"byteLength":2560,
			"byteOffset":495804,
			"target":34962
		},
		{
			"buffer":0,
			"byteLength":960,
			"byteOffset":498364,
			"target":34963
		},
		{
			"buffer":0,
			"byteLength":1176,
			"byteOffset":499324,
			"target":34962
		},
		{
			"buffer":0,
			"byteLength":1176,
			"byteOffset":500500,
			"target":34962
		},
		{
			"buffer":0,
			"byteLength":784,
			"byteOffset":501676,
			"target":34962
		},
		{
			"buffer":0,
			"byteLength":392,
			"byteOffset":502460,
			"target":34962
		},
		{
			"buffer":0,
			"byteLength":1568,
			"byteOffset":502852,
			"target":34962
		},
		{
			"buffer":0,
			"byteLength":720,
			"byteOffset":504420,
			"target":34963
		},
		{
			"buffer":0,
			"byteLength":288,
			"byteOffset":505140,
			"target":34962
		},
		{
			"buffer":0,
			"byteLength":288,
			"byteOffset":505428,
			"target":34962
		},
		{
			"buffer":0,
			"byteLength":192,
			"byteOffset":505716,
			"target":34962
		},
		{
			"buffer":0,
			"byteLength":96,
			"byteOffset":505908,
			"target":34962
		},
		{
			"buffer":0,
			"byteLength":384,
			"byteOffset":506004,
			"target":34962
		},
		{
			"buffer":0,
			"byteLength":72,
			"byteOffset":506388,
			"target":34963
		},
		{
			"buffer":0,
			"byteLength":1088,
			"byteOffset":506460
		},
		{
			"buffer":0,
			"byteLength":8,
			"byteOffset":507548
		},
		{
			"buffer":0,
			"byteLength":24,
			"byteOffset":507556
		},
		{
			"buffer":0,
			"byteLength":32,
			"byteOffset":507580
		},
		{
			"buffer":0,
			"byteLength":24,
			"byteOffset":507612
		},
		{
			"buffer":0,
			"byteLength":24,
			"byteOffset":507636
		},
		{
			"buffer":0,
			"byteLength":32,
			"byteOffset":507660
		},
		{
			"buffer":0,
			"byteLength":24,
			"byteOffset":507692
		},
		{
			"buffer":0,
			"byteLength":24,
			"byteOffset":507716
		},
		{
			"buffer":0,
			"byteLength":76,
			"byteOffset":507740
		},
		{
			"buffer":0,
			"byteLength":304,
			"byteOffset":507816
		},
		{
			"buffer":0,
			"byteLength":24,
			"byteOffset":508120
		},
		{
			"buffer":0,
			"byteLength":24,
			"byteOffset":508144
		},
		{
			"buffer":0,
			"byteLength":32,
			"byteOffset":508168
		},
		{
			"buffer":0,
			"byteLength":24,
			"byteOffset":508200
		},
		{
			"buffer":0,
			"byteLength":24,
			"byteOffset":508224
		},
		{
			"buffer":0,
			"byteLength":32,
			"byteOffset":508248
		},
		{
			"buffer":0,
			"byteLength":24,
			"byteOffset":508280
		},
		{
			"buffer":0,
			"byteLength":24,
			"byteOffset":508304
		},
		{
			"buffer":0,
			"byteLength":304,
			"byteOffset":508328
		},
		{
			"buffer":0,
			"byteLength":24,
			"byteOffset":508632
		},
		{
			"buffer":0,
			"byteLength":24,
			"byteOffset":508656
		},
		{
			"buffer":0,
			"byteLength":304,
			"byteOffset":508680
		},
		{
			"buffer":0,
			"byteLength":24,
			"byteOffset":508984
		},
		{
			"buffer":0,
			"byteLength":24,
			"byteOffset":509008
		},
		{
			"buffer":0,
			"byteLength":32,
			"byteOffset":509032
		},
		{
			"buffer":0,
			"byteLength":24,
			"byteOffset":509064
		},
		{
			"buffer":0,
			"byteLength":24,
			"byteOffset":509088
		},
		{
			"buffer":0,
			"byteLength":304,
			"byteOffset":509112
		},
		{
			"buffer":0,
			"byteLength":24,
			"byteOffset":509416
		},
		{
			"buffer":0,
			"byteLength":24,
			"byteOffset":509440
		},
		{
			"buffer":0,
			"byteLength":32,
			"byteOffset":509464
		},
		{
			"buffer":0,
			"byteLength":24,
			"byteOffset":509496
		},
		{
			"buffer":0,
			"byteLength":24,
			"byteOffset":509520
		},
		{
			"buffer":0,
			"byteLength":32,
			"byteOffset":509544
		},
		{
			"buffer":0,
			"byteLength":24,
			"byteOffset":509576
		},
		{
			"buffer":0,
			"byteLength":24,
			"byteOffset":509600
		},
		{
			"buffer":0,
			"byteLength":304,
			"byteOffset":509624
		},
		{
			"buffer":0,
			"byteLength":24,
			"byteOffset":509928
		},
		{
			"buffer":0,
			"byteLength":24,
			"byteOffset":509952
		},
		{
			"buffer":0,
			"byteLength":32,
			"byteOffset":509976
		},
		{
			"buffer":0,
			"byteLength":24,
			"byteOffset":510008
		},
		{
			"buffer":0,
			"byteLength":24,
			"byteOffset":510032
		},
		{
			"buffer":0,
			"byteLength":32,
			"byteOffset":510056
		},
		{
			"buffer":0,
			"byteLength":24,
			"byteOffset":510088
		},
		{
			"buffer":0,
			"byteLength":24,
			"byteOffset":510112
		},
		{
			"buffer":0,
			"byteLength":304,
			"byteOffset":510136
		},
		{
			"buffer":0,
			"byteLength":24,
			"byteOffset":510440
		},
		{
			"buffer":0,
			"byteLength":24,
			"byteOffset":510464
		},
		{
			"buffer":0,
			"byteLength":32,
			"byteOffset":510488
		},
		{
			"buffer":0,
			"byteLength":24,
			"byteOffset":510520
		},
		{
			"buffer":0,
			"byteLength":24,
			"byteOffset":510544
		},
		{
			"buffer":0,
			"byteLength":32,
			"byteOffset":510568
		},
		{
			"buffer":0,
			"byteLength":24,
			"byteOffset":510600
		},
		{
			"buffer":0,
			"byteLength":244,
			"byteOffset":510624
		},
		{
			"buffer":0,
			"byteLength":732,
			"byteOffset":510868
		},
		{
			"buffer":0,
			"byteLength":8,
			"byteOffset":511600
		},
		{
			"buffer":0,
			"byteLength":32,
			"byteOffset":511608
		},
		{
			"buffer":0,
			"byteLength":24,
			"byteOffset":511640
		},
		{
			"buffer":0,
			"byteLength":24,
			"byteOffset":511664
		},
		{
			"buffer":0,
			"byteLength":32,
			"byteOffset":511688
		},
		{
			"buffer":0,
			"byteLength":24,
			"byteOffset":511720
		},
		{
			"buffer":0,
			"byteLength":24,
			"byteOffset":511744
		},
		{
			"buffer":0,
			"byteLength":976,
			"byteOffset":511768
		},
		{
			"buffer":0,
			"byteLength":24,
			"byteOffset":512744
		},
		{
			"buffer":0,
			"byteLength":24,
			"byteOffset":512768
		},
		{
			"buffer":0,
			"byteLength":32,
			"byteOffset":512792
		},
		{
			"buffer":0,
			"byteLength":24,
			"byteOffset":512824
		},
		{
			"buffer":0,
			"byteLength":24,
			"byteOffset":512848
		},
		{
			"buffer":0,
			"byteLength":976,
			"byteOffset":512872
		},
		{
			"buffer":0,
			"byteLength":24,
			"byteOffset":513848
		},
		{
			"buffer":0,
			"byteLength":24,
			"byteOffset":513872
		},
		{
			"buffer":0,
			"byteLength":976,
			"byteOffset":513896
		},
		{
			"buffer":0,
			"byteLength":24,
			"byteOffset":514872
		},
		{
			"buffer":0,
			"byteLength":24,
			"byteOffset":514896
		},
		{
			"buffer":0,
			"byteLength":32,
			"byteOffset":514920
		},
		{
			"buffer":0,
			"byteLength":24,
			"byteOffset":514952
		},
		{
			"buffer":0,
			"byteLength":24,
			"byteOffset":514976
		},
		{
			"buffer":0,
			"byteLength":32,
			"byteOffset":515000
		},
		{
			"buffer":0,
			"byteLength":24,
			"byteOffset":515032
		},
		{
			"buffer":0,
			"byteLength":24,
			"byteOffset":515056
		},
		{
			"buffer":0,
			"byteLength":976,
			"byteOffset":515080
		},
		{
			"buffer":0,
			"byteLength":24,
			"byteOffset":516056
		},
		{
			"buffer":0,
			"byteLength":24,
			"byteOffset":516080
		},
		{
			"buffer":0,
			"byteLength":32,
			"byteOffset":516104
		},
		{
			"buffer":0,
			"byteLength":24,
			"byteOffset":516136
		},
		{
			"buffer":0,
			"byteLength":24,
			"byteOffset":516160
		},
		{
			"buffer":0,
			"byteLength":32,
			"byteOffset":516184
		},
		{
			"buffer":0,
			"byteLength":24,
			"byteOffset":516216
		},
		{
			"buffer":0,
			"byteLength":24,
			"byteOffset":516240
		},
		{
			"buffer":0,
			"byteLength":32,
			"byteOffset":516264
		},
		{
			"buffer":0,
			"byteLength":24,
			"byteOffset":516296
		},
		{
			"buffer":0,
			"byteLength":24,
			"byteOffset":516320
		},
		{
			"buffer":0,
			"byteLength":32,
			"byteOffset":516344
		},
		{
			"buffer":0,
			"byteLength":24,
			"byteOffset":516376
		},
		{
			"buffer":0,
			"byteLength":24,
			"byteOffset":516400
		},
		{
			"buffer":0,
			"byteLength":32,
			"byteOffset":516424
		},
		{
			"buffer":0,
			"byteLength":24,
			"byteOffset":516456
		},
		{
			"buffer":0,
			"byteLength":24,
			"byteOffset":516480
		},
		{
			"buffer":0,
			"byteLength":32,
			"byteOffset":516504
		},
		{
			"buffer":0,
			"byteLength":24,
			"byteOffset":516536
		},
		{
			"buffer":0,
			"byteLength":24,
			"byteOffset":516560
		},
		{
			"buffer":0,
			"byteLength":32,
			"byteOffset":516584
		},
		{
			"buffer":0,
			"byteLength":24,
			"byteOffset":516616
		},
		{
			"buffer":0,
			"byteLength":24,
			"byteOffset":516640
		},
		{
			"buffer":0,
			"byteLength":32,
			"byteOffset":516664
		},
		{
			"buffer":0,
			"byteLength":24,
			"byteOffset":516696
		},
		{
			"buffer":0,
			"byteLength":124,
			"byteOffset":516720
		},
		{
			"buffer":0,
			"byteLength":372,
			"byteOffset":516844
		},
		{
			"buffer":0,
			"byteLength":496,
			"byteOffset":517216
		},
		{
			"buffer":0,
			"byteLength":8,
			"byteOffset":517712
		},
		{
			"buffer":0,
			"byteLength":24,
			"byteOffset":517720
		},
		{
			"buffer":0,
			"byteLength":24,
			"byteOffset":517744
		},
		{
			"buffer":0,
			"byteLength":32,
			"byteOffset":517768
		},
		{
			"buffer":0,
			"byteLength":24,
			"byteOffset":517800
		},
		{
			"buffer":0,
			"byteLength":24,
			"byteOffset":517824
		},
		{
			"buffer":0,
			"byteLength":496,
			"byteOffset":517848
		},
		{
			"buffer":0,
			"byteLength":24,
			"byteOffset":518344
		},
		{
			"buffer":0,
			"byteLength":24,
			"byteOffset":518368
		},
		{
			"buffer":0,
			"byteLength":32,
			"byteOffset":518392
		},
		{
			"buffer":0,
			"byteLength":24,
			"byteOffset":518424
		},
		{
			"buffer":0,
			"byteLength":24,
			"byteOffset":518448
		},
		{
			"buffer":0,
			"byteLength":32,
			"byteOffset":518472
		},
		{
			"buffer":0,
			"byteLength":24,
			"byteOffset":518504
		},
		{
			"buffer":0,
			"byteLength":24,
			"byteOffset":518528
		},
		{
			"buffer":0,
			"byteLength":496,
			"byteOffset":518552
		},
		{
			"buffer":0,
			"byteLength":24,
			"byteOffset":519048
		},
		{
			"buffer":0,
			"byteLength":24,
			"byteOffset":519072
		},
		{
			"buffer":0,
			"byteLength":32,
			"byteOffset":519096
		},
		{
			"buffer":0,
			"byteLength":24,
			"byteOffset":519128
		},
		{
			"buffer":0,
			"byteLength":24,
			"byteOffset":519152
		},
		{
			"buffer":0,
			"byteLength":32,
			"byteOffset":519176
		},
		{
			"buffer":0,
			"byteLength":24,
			"byteOffset":519208
		},
		{
			"buffer":0,
			"byteLength":24,
			"byteOffset":519232
		},
		{
			"buffer":0,
			"byteLength":496,
			"byteOffset":519256
		},
		{
			"buffer":0,
			"byteLength":24,
			"byteOffset":519752
		},
		{
			"buffer":0,
			"byteLength":24,
			"byteOffset":519776
		},
		{
			"buffer":0,
			"byteLength":32,
			"byteOffset":519800
		},
		{
			"buffer":0,
			"byteLength":24,
			"byteOffset":519832
		},
		{
			"buffer":0,
			"byteLength":24,
			"byteOffset":519856
		},
		{
			"buffer":0,
			"byteLength":32,
			"byteOffset":519880
		},
		{
			"buffer":0,
			"byteLength":24,
			"byteOffset":519912
		},
		{
			"buffer":0,
			"byteLength":24,
			"byteOffset":519936
		},
		{
			"buffer":0,
			"byteLength":496,
			"byteOffset":519960
		},
		{
			"buffer":0,
			"byteLength":24,
			"byteOffset":520456
		},
		{
			"buffer":0,
			"byteLength":24,
			"byteOffset":520480
		},
		{
			"buffer":0,
			"byteLength":496,
			"byteOffset":520504
		},
		{
			"buffer":0,
			"byteLength":24,
			"byteOffset":521000
		},
		{
			"buffer":0,
			"byteLength":24,
			"byteOffset":521024
		},
		{
			"buffer":0,
			"byteLength":496,
			"byteOffset":521048
		},
		{
			"buffer":0,
			"byteLength":24,
			"byteOffset":521544
		},
		{
			"buffer":0,
			"byteLength":24,
			"byteOffset":521568
		},
		{
			"buffer":0,
			"byteLength":496,
			"byteOffset":521592
		},
		{
			"buffer":0,
			"byteLength":24,
			"byteOffset":522088
		},
		{
			"buffer":0,
			"byteLength":24,
			"byteOffset":522112
		},
		{
			"buffer":0,
			"byteLength":496,
			"byteOffset":522136
		},
		{
			"buffer":0,
			"byteLength":24,
			"byteOffset":522632
		},
		{
			"buffer":0,
			"byteLength":24,
			"byteOffset":522656
		},
		{
			"buffer":0,
			"byteLength":496,
			"byteOffset":522680
		},
		{
			"buffer":0,
			"byteLength":24,
			"byteOffset":523176
		}
	],
	"samplers":[
		{
			"magFilter":9729,
			"minFilter":9987
		}
	],
	"buffers":[
		{
			"byteLength":523200,
			"uri":"yuuki.bin"
		}
	]
}
